<?xml version="1.0" encoding="utf-8" standalone="no"?>
<!DOCTYPE svg PUBLIC "-//W3C//DTD SVG 1.1//EN"
  "http://www.w3.org/Graphics/SVG/1.1/DTD/svg11.dtd">
<svg xmlns:xlink="http://www.w3.org/1999/xlink" width="1296pt" height="864pt" viewBox="0 0 1296 864" xmlns="http://www.w3.org/2000/svg" version="1.1">
 <metadata>
  <rdf:RDF xmlns:dc="http://purl.org/dc/elements/1.1/" xmlns:cc="http://creativecommons.org/ns#" xmlns:rdf="http://www.w3.org/1999/02/22-rdf-syntax-ns#">
   <cc:Work>
    <dc:type rdf:resource="http://purl.org/dc/dcmitype/StillImage"/>
    <dc:date>2023-12-10T12:57:43.012586</dc:date>
    <dc:format>image/svg+xml</dc:format>
    <dc:creator>
     <cc:Agent>
      <dc:title>Matplotlib v3.8.0, https://matplotlib.org/</dc:title>
     </cc:Agent>
    </dc:creator>
   </cc:Work>
  </rdf:RDF>
 </metadata>
 <defs>
  <style type="text/css">*{stroke-linejoin: round; stroke-linecap: butt}</style>
 </defs>
 <g id="figure_1">
  <g id="patch_1">
   <path d="M 0 864 
L 1296 864 
L 1296 0 
L 0 0 
z
" style="fill: #ffffff"/>
  </g>
  <g id="axes_1">
   <g id="patch_2">
    <path d="M 162 768.96 
L 1166.4 768.96 
L 1166.4 103.68 
L 162 103.68 
z
" style="fill: #ffffff"/>
   </g>
   <g id="matplotlib.axis_1">
    <g id="xtick_1">
     <g id="line2d_1">
      <defs>
       <path id="mfd34d75e81" d="M 0 0 
L 0 3.5 
" style="stroke: #000000; stroke-width: 0.8"/>
      </defs>
      <g>
       <use xlink:href="#mfd34d75e81" x="207.654545" y="768.96" style="stroke: #000000; stroke-width: 0.8"/>
      </g>
     </g>
     <g id="text_1">
      <!-- 0 -->
      <g transform="translate(204.473295 783.558437) scale(0.1 -0.1)">
       <defs>
        <path id="DejaVuSans-30" d="M 2034 4250 
Q 1547 4250 1301 3770 
Q 1056 3291 1056 2328 
Q 1056 1369 1301 889 
Q 1547 409 2034 409 
Q 2525 409 2770 889 
Q 3016 1369 3016 2328 
Q 3016 3291 2770 3770 
Q 2525 4250 2034 4250 
z
M 2034 4750 
Q 2819 4750 3233 4129 
Q 3647 3509 3647 2328 
Q 3647 1150 3233 529 
Q 2819 -91 2034 -91 
Q 1250 -91 836 529 
Q 422 1150 422 2328 
Q 422 3509 836 4129 
Q 1250 4750 2034 4750 
z
" transform="scale(0.015625)"/>
       </defs>
       <use xlink:href="#DejaVuSans-30"/>
      </g>
     </g>
    </g>
    <g id="xtick_2">
     <g id="line2d_2">
      <g>
       <use xlink:href="#mfd34d75e81" x="390.638696" y="768.96" style="stroke: #000000; stroke-width: 0.8"/>
      </g>
     </g>
     <g id="text_2">
      <!-- 100 -->
      <g transform="translate(381.094946 783.558437) scale(0.1 -0.1)">
       <defs>
        <path id="DejaVuSans-31" d="M 794 531 
L 1825 531 
L 1825 4091 
L 703 3866 
L 703 4441 
L 1819 4666 
L 2450 4666 
L 2450 531 
L 3481 531 
L 3481 0 
L 794 0 
L 794 531 
z
" transform="scale(0.015625)"/>
       </defs>
       <use xlink:href="#DejaVuSans-31"/>
       <use xlink:href="#DejaVuSans-30" x="63.623047"/>
       <use xlink:href="#DejaVuSans-30" x="127.246094"/>
      </g>
     </g>
    </g>
    <g id="xtick_3">
     <g id="line2d_3">
      <g>
       <use xlink:href="#mfd34d75e81" x="573.622846" y="768.96" style="stroke: #000000; stroke-width: 0.8"/>
      </g>
     </g>
     <g id="text_3">
      <!-- 200 -->
      <g transform="translate(564.079096 783.558437) scale(0.1 -0.1)">
       <defs>
        <path id="DejaVuSans-32" d="M 1228 531 
L 3431 531 
L 3431 0 
L 469 0 
L 469 531 
Q 828 903 1448 1529 
Q 2069 2156 2228 2338 
Q 2531 2678 2651 2914 
Q 2772 3150 2772 3378 
Q 2772 3750 2511 3984 
Q 2250 4219 1831 4219 
Q 1534 4219 1204 4116 
Q 875 4013 500 3803 
L 500 4441 
Q 881 4594 1212 4672 
Q 1544 4750 1819 4750 
Q 2544 4750 2975 4387 
Q 3406 4025 3406 3419 
Q 3406 3131 3298 2873 
Q 3191 2616 2906 2266 
Q 2828 2175 2409 1742 
Q 1991 1309 1228 531 
z
" transform="scale(0.015625)"/>
       </defs>
       <use xlink:href="#DejaVuSans-32"/>
       <use xlink:href="#DejaVuSans-30" x="63.623047"/>
       <use xlink:href="#DejaVuSans-30" x="127.246094"/>
      </g>
     </g>
    </g>
    <g id="xtick_4">
     <g id="line2d_4">
      <g>
       <use xlink:href="#mfd34d75e81" x="756.606996" y="768.96" style="stroke: #000000; stroke-width: 0.8"/>
      </g>
     </g>
     <g id="text_4">
      <!-- 300 -->
      <g transform="translate(747.063246 783.558437) scale(0.1 -0.1)">
       <defs>
        <path id="DejaVuSans-33" d="M 2597 2516 
Q 3050 2419 3304 2112 
Q 3559 1806 3559 1356 
Q 3559 666 3084 287 
Q 2609 -91 1734 -91 
Q 1441 -91 1130 -33 
Q 819 25 488 141 
L 488 750 
Q 750 597 1062 519 
Q 1375 441 1716 441 
Q 2309 441 2620 675 
Q 2931 909 2931 1356 
Q 2931 1769 2642 2001 
Q 2353 2234 1838 2234 
L 1294 2234 
L 1294 2753 
L 1863 2753 
Q 2328 2753 2575 2939 
Q 2822 3125 2822 3475 
Q 2822 3834 2567 4026 
Q 2313 4219 1838 4219 
Q 1578 4219 1281 4162 
Q 984 4106 628 3988 
L 628 4550 
Q 988 4650 1302 4700 
Q 1616 4750 1894 4750 
Q 2613 4750 3031 4423 
Q 3450 4097 3450 3541 
Q 3450 3153 3228 2886 
Q 3006 2619 2597 2516 
z
" transform="scale(0.015625)"/>
       </defs>
       <use xlink:href="#DejaVuSans-33"/>
       <use xlink:href="#DejaVuSans-30" x="63.623047"/>
       <use xlink:href="#DejaVuSans-30" x="127.246094"/>
      </g>
     </g>
    </g>
    <g id="xtick_5">
     <g id="line2d_5">
      <g>
       <use xlink:href="#mfd34d75e81" x="939.591146" y="768.96" style="stroke: #000000; stroke-width: 0.8"/>
      </g>
     </g>
     <g id="text_5">
      <!-- 400 -->
      <g transform="translate(930.047396 783.558437) scale(0.1 -0.1)">
       <defs>
        <path id="DejaVuSans-34" d="M 2419 4116 
L 825 1625 
L 2419 1625 
L 2419 4116 
z
M 2253 4666 
L 3047 4666 
L 3047 1625 
L 3713 1625 
L 3713 1100 
L 3047 1100 
L 3047 0 
L 2419 0 
L 2419 1100 
L 313 1100 
L 313 1709 
L 2253 4666 
z
" transform="scale(0.015625)"/>
       </defs>
       <use xlink:href="#DejaVuSans-34"/>
       <use xlink:href="#DejaVuSans-30" x="63.623047"/>
       <use xlink:href="#DejaVuSans-30" x="127.246094"/>
      </g>
     </g>
    </g>
    <g id="xtick_6">
     <g id="line2d_6">
      <g>
       <use xlink:href="#mfd34d75e81" x="1122.575296" y="768.96" style="stroke: #000000; stroke-width: 0.8"/>
      </g>
     </g>
     <g id="text_6">
      <!-- 500 -->
      <g transform="translate(1113.031546 783.558437) scale(0.1 -0.1)">
       <defs>
        <path id="DejaVuSans-35" d="M 691 4666 
L 3169 4666 
L 3169 4134 
L 1269 4134 
L 1269 2991 
Q 1406 3038 1543 3061 
Q 1681 3084 1819 3084 
Q 2600 3084 3056 2656 
Q 3513 2228 3513 1497 
Q 3513 744 3044 326 
Q 2575 -91 1722 -91 
Q 1428 -91 1123 -41 
Q 819 9 494 109 
L 494 744 
Q 775 591 1075 516 
Q 1375 441 1709 441 
Q 2250 441 2565 725 
Q 2881 1009 2881 1497 
Q 2881 1984 2565 2268 
Q 2250 2553 1709 2553 
Q 1456 2553 1204 2497 
Q 953 2441 691 2322 
L 691 4666 
z
" transform="scale(0.015625)"/>
       </defs>
       <use xlink:href="#DejaVuSans-35"/>
       <use xlink:href="#DejaVuSans-30" x="63.623047"/>
       <use xlink:href="#DejaVuSans-30" x="127.246094"/>
      </g>
     </g>
    </g>
   </g>
   <g id="matplotlib.axis_2">
    <g id="ytick_1">
     <g id="line2d_7">
      <defs>
       <path id="md5a14745d5" d="M 0 0 
L -3.5 0 
" style="stroke: #000000; stroke-width: 0.8"/>
      </defs>
      <g>
       <use xlink:href="#md5a14745d5" x="162" y="738.72" style="stroke: #000000; stroke-width: 0.8"/>
      </g>
     </g>
     <g id="text_7">
      <!-- 0 -->
      <g transform="translate(148.6375 742.519219) scale(0.1 -0.1)">
       <use xlink:href="#DejaVuSans-30"/>
      </g>
     </g>
    </g>
    <g id="ytick_2">
     <g id="line2d_8">
      <g>
       <use xlink:href="#md5a14745d5" x="162" y="596.013761" style="stroke: #000000; stroke-width: 0.8"/>
      </g>
     </g>
     <g id="text_8">
      <!-- 10 -->
      <g transform="translate(142.275 599.812979) scale(0.1 -0.1)">
       <use xlink:href="#DejaVuSans-31"/>
       <use xlink:href="#DejaVuSans-30" x="63.623047"/>
      </g>
     </g>
    </g>
    <g id="ytick_3">
     <g id="line2d_9">
      <g>
       <use xlink:href="#md5a14745d5" x="162" y="453.307521" style="stroke: #000000; stroke-width: 0.8"/>
      </g>
     </g>
     <g id="text_9">
      <!-- 20 -->
      <g transform="translate(142.275 457.10674) scale(0.1 -0.1)">
       <use xlink:href="#DejaVuSans-32"/>
       <use xlink:href="#DejaVuSans-30" x="63.623047"/>
      </g>
     </g>
    </g>
    <g id="ytick_4">
     <g id="line2d_10">
      <g>
       <use xlink:href="#md5a14745d5" x="162" y="310.601282" style="stroke: #000000; stroke-width: 0.8"/>
      </g>
     </g>
     <g id="text_10">
      <!-- 30 -->
      <g transform="translate(142.275 314.4005) scale(0.1 -0.1)">
       <use xlink:href="#DejaVuSans-33"/>
       <use xlink:href="#DejaVuSans-30" x="63.623047"/>
      </g>
     </g>
    </g>
    <g id="ytick_5">
     <g id="line2d_11">
      <g>
       <use xlink:href="#md5a14745d5" x="162" y="167.895042" style="stroke: #000000; stroke-width: 0.8"/>
      </g>
     </g>
     <g id="text_11">
      <!-- 40 -->
      <g transform="translate(142.275 171.694261) scale(0.1 -0.1)">
       <use xlink:href="#DejaVuSans-34"/>
       <use xlink:href="#DejaVuSans-30" x="63.623047"/>
      </g>
     </g>
    </g>
   </g>
   <g id="line2d_12">
    <path d="M 207.654545 596.013761 
L 209.484387 695.908128 
L 211.314228 581.743137 
L 213.14407 653.096256 
L 214.973911 538.931265 
L 216.803753 581.743137 
L 218.633594 667.36688 
L 220.463436 710.178752 
L 224.123119 624.555008 
L 225.95296 738.72 
L 227.782802 653.096256 
L 229.612643 610.284385 
L 231.442485 667.36688 
L 233.272326 624.555008 
L 235.102168 738.72 
L 236.932009 667.36688 
L 238.761851 424.766273 
L 240.591692 239.248162 
L 242.421534 224.977538 
L 244.251375 610.284385 
L 246.081217 353.413154 
L 247.911058 224.977538 
L 249.7409 224.977538 
L 251.570741 310.601282 
L 253.400583 581.743137 
L 255.230424 396.225025 
L 257.060266 581.743137 
L 258.890107 224.977538 
L 260.719949 310.601282 
L 262.54979 224.977538 
L 271.698998 224.977538 
L 273.528839 467.578145 
L 275.358681 453.307521 
L 277.188522 381.954401 
L 279.018364 439.036897 
L 280.848206 353.413154 
L 282.678047 224.977538 
L 288.167572 224.977538 
L 289.997413 524.660641 
L 291.827255 567.472513 
L 293.657096 224.977538 
L 297.316779 596.013761 
L 299.146621 439.036897 
L 300.976462 224.977538 
L 302.806304 396.225025 
L 306.465987 224.977538 
L 308.295828 224.977538 
L 310.12567 467.578145 
L 311.955511 596.013761 
L 313.785353 253.518786 
L 315.615194 224.977538 
L 317.445036 467.578145 
L 319.274877 224.977538 
L 321.104719 524.660641 
L 322.93456 353.413154 
L 324.764402 538.931265 
L 326.594243 439.036897 
L 328.424085 224.977538 
L 330.253926 310.601282 
L 332.083768 496.119393 
L 333.913609 567.472513 
L 337.573292 367.683777 
L 339.403134 738.72 
L 341.232975 524.660641 
L 343.062817 481.848769 
L 344.892658 567.472513 
L 346.7225 638.825632 
L 348.552341 738.72 
L 350.382183 667.36688 
L 352.212024 710.178752 
L 354.041866 224.977538 
L 355.871707 353.413154 
L 357.701549 724.449376 
L 359.53139 653.096256 
L 361.361232 596.013761 
L 365.020915 653.096256 
L 368.680598 538.931265 
L 370.510439 638.825632 
L 372.340281 224.977538 
L 374.170122 453.307521 
L 375.999964 738.72 
L 377.829805 224.977538 
L 379.659647 339.14253 
L 381.489488 353.413154 
L 383.31933 596.013761 
L 385.149171 667.36688 
L 386.979013 510.390017 
L 388.808854 224.977538 
L 401.617745 224.977538 
L 403.447586 638.825632 
L 405.277428 224.977538 
L 407.107269 282.060034 
L 408.937111 410.495649 
L 410.766952 553.201889 
L 412.596794 496.119393 
L 414.426635 253.518786 
L 416.256477 353.413154 
L 418.086318 667.36688 
L 419.91616 710.178752 
L 421.746001 453.307521 
L 423.575843 453.307521 
L 425.405684 681.637504 
L 427.235526 596.013761 
L 429.065367 738.72 
L 430.895209 453.307521 
L 432.72505 724.449376 
L 434.554892 496.119393 
L 436.384733 381.954401 
L 438.214575 481.848769 
L 440.044416 524.660641 
L 441.874258 224.977538 
L 443.704099 653.096256 
L 445.533941 667.36688 
L 447.363782 467.578145 
L 449.193624 653.096256 
L 451.023465 224.977538 
L 452.853307 638.825632 
L 454.683148 496.119393 
L 456.51299 396.225025 
L 458.342831 410.495649 
L 460.172673 567.472513 
L 462.002514 224.977538 
L 463.832356 581.743137 
L 465.662197 538.931265 
L 467.492039 524.660641 
L 469.32188 224.977538 
L 471.151722 424.766273 
L 472.981563 738.72 
L 474.811405 596.013761 
L 476.641246 738.72 
L 478.471088 681.637504 
L 480.300929 724.449376 
L 483.960612 695.908128 
L 485.790454 296.330658 
L 487.620295 667.36688 
L 489.450137 510.390017 
L 491.279978 667.36688 
L 493.10982 667.36688 
L 494.939661 524.660641 
L 496.769503 624.555008 
L 500.429186 596.013761 
L 502.259027 667.36688 
L 504.088869 653.096256 
L 505.91871 439.036897 
L 507.748552 610.284385 
L 509.578393 581.743137 
L 511.408235 481.848769 
L 513.238076 453.307521 
L 515.067918 524.660641 
L 516.897759 695.908128 
L 518.727601 695.908128 
L 520.557442 538.931265 
L 522.387284 738.72 
L 524.217125 510.390017 
L 526.046967 524.660641 
L 527.876808 724.449376 
L 529.70665 581.743137 
L 531.536491 710.178752 
L 533.366333 624.555008 
L 535.196174 738.72 
L 537.026016 610.284385 
L 538.855857 738.72 
L 540.685699 553.201889 
L 542.51554 667.36688 
L 544.345382 653.096256 
L 546.175223 710.178752 
L 549.834906 710.178752 
L 551.664748 695.908128 
L 553.494589 610.284385 
L 555.324431 738.72 
L 557.154272 638.825632 
L 558.984114 738.72 
L 560.813955 653.096256 
L 562.643797 653.096256 
L 566.30348 596.013761 
L 568.133321 596.013761 
L 569.963163 653.096256 
L 571.793004 581.743137 
L 573.622846 667.36688 
L 575.452687 638.825632 
L 577.282529 667.36688 
L 579.11237 710.178752 
L 580.942212 667.36688 
L 582.772053 738.72 
L 584.601895 596.013761 
L 586.431736 581.743137 
L 588.261578 524.660641 
L 590.091419 410.495649 
L 591.921261 396.225025 
L 593.751102 524.660641 
L 595.580944 553.201889 
L 597.410785 567.472513 
L 599.240627 224.977538 
L 601.070468 224.977538 
L 602.90031 267.78941 
L 604.730151 224.977538 
L 606.559993 381.954401 
L 608.389834 439.036897 
L 610.219676 224.977538 
L 612.049517 224.977538 
L 613.879359 481.848769 
L 615.7092 253.518786 
L 617.539042 224.977538 
L 619.368883 738.72 
L 621.198725 367.683777 
L 623.028566 296.330658 
L 624.858408 524.660641 
L 626.688249 224.977538 
L 628.518091 410.495649 
L 630.347932 224.977538 
L 632.177774 681.637504 
L 634.007615 510.390017 
L 635.837457 253.518786 
L 637.667298 253.518786 
L 639.49714 367.683777 
L 641.326981 396.225025 
L 643.156823 224.977538 
L 644.986664 610.284385 
L 646.816506 224.977538 
L 652.30603 224.977538 
L 654.135872 624.555008 
L 655.965713 239.248162 
L 657.795555 224.977538 
L 661.455238 224.977538 
L 663.285079 524.660641 
L 665.114921 424.766273 
L 666.944762 410.495649 
L 668.774604 367.683777 
L 670.604445 367.683777 
L 672.434287 224.977538 
L 674.264128 224.977538 
L 676.09397 638.825632 
L 677.923811 224.977538 
L 679.753653 424.766273 
L 681.583494 610.284385 
L 683.413336 467.578145 
L 685.243177 224.977538 
L 687.073019 282.060034 
L 688.90286 596.013761 
L 690.732702 439.036897 
L 692.562543 538.931265 
L 694.392385 624.555008 
L 696.222226 567.472513 
L 699.881909 653.096256 
L 701.711751 710.178752 
L 703.541592 738.72 
L 705.371434 538.931265 
L 707.201275 610.284385 
L 709.031117 624.555008 
L 710.860958 681.637504 
L 712.6908 424.766273 
L 714.520641 381.954401 
L 716.350483 667.36688 
L 718.180324 467.578145 
L 720.010166 738.72 
L 721.840007 667.36688 
L 723.669849 653.096256 
L 725.49969 738.72 
L 729.159373 738.72 
L 730.989215 567.472513 
L 732.819056 710.178752 
L 734.648898 738.72 
L 736.478739 695.908128 
L 738.308581 524.660641 
L 740.138422 624.555008 
L 741.968264 667.36688 
L 743.798105 396.225025 
L 745.627947 496.119393 
L 747.457788 738.72 
L 749.28763 667.36688 
L 751.117471 610.284385 
L 752.947313 510.390017 
L 754.777154 667.36688 
L 756.606996 596.013761 
L 758.436837 453.307521 
L 760.266679 638.825632 
L 762.09652 667.36688 
L 763.926362 681.637504 
L 765.756203 224.977538 
L 767.586045 481.848769 
L 769.415886 439.036897 
L 771.245728 310.601282 
L 773.075569 224.977538 
L 774.905411 538.931265 
L 776.735252 567.472513 
L 778.565094 653.096256 
L 780.394935 224.977538 
L 784.054618 224.977538 
L 785.88446 239.248162 
L 787.714301 224.977538 
L 789.544143 439.036897 
L 791.373984 439.036897 
L 793.203826 567.472513 
L 795.033667 367.683777 
L 796.863509 224.977538 
L 802.353033 224.977538 
L 804.182875 667.36688 
L 806.012716 310.601282 
L 807.842558 224.977538 
L 809.672399 296.330658 
L 811.502241 567.472513 
L 813.332082 224.977538 
L 815.161924 253.518786 
L 816.991765 410.495649 
L 818.821607 396.225025 
L 820.651448 496.119393 
L 822.48129 296.330658 
L 824.311131 224.977538 
L 827.970814 224.977538 
L 829.800656 510.390017 
L 831.630497 239.248162 
L 833.460339 581.743137 
L 835.29018 224.977538 
L 837.120022 339.14253 
L 838.949863 224.977538 
L 842.609546 224.977538 
L 844.439388 381.954401 
L 848.099071 610.284385 
L 849.928912 681.637504 
L 851.758754 224.977538 
L 853.588595 596.013761 
L 855.418437 567.472513 
L 857.248278 724.449376 
L 859.07812 224.977538 
L 860.907961 496.119393 
L 862.737803 339.14253 
L 864.567644 453.307521 
L 866.397486 638.825632 
L 868.227327 553.201889 
L 870.057169 453.307521 
L 871.88701 624.555008 
L 873.716852 667.36688 
L 877.376535 638.825632 
L 879.206376 596.013761 
L 881.036218 581.743137 
L 882.866059 724.449376 
L 884.695901 653.096256 
L 886.525742 724.449376 
L 888.355584 553.201889 
L 890.185425 738.72 
L 892.015267 538.931265 
L 893.845108 667.36688 
L 895.67495 667.36688 
L 897.504791 524.660641 
L 899.334633 396.225025 
L 901.164474 724.449376 
L 902.994316 553.201889 
L 904.824157 524.660641 
L 906.653999 282.060034 
L 908.48384 681.637504 
L 910.313682 638.825632 
L 912.143523 581.743137 
L 913.973365 581.743137 
L 915.803206 410.495649 
L 917.633048 638.825632 
L 919.462889 567.472513 
L 921.292731 710.178752 
L 923.122572 553.201889 
L 924.952414 653.096256 
L 926.782255 653.096256 
L 928.612097 496.119393 
L 930.441938 738.72 
L 932.27178 496.119393 
L 934.101621 553.201889 
L 935.931463 695.908128 
L 937.761304 667.36688 
L 939.591146 410.495649 
L 941.420987 339.14253 
L 943.250829 224.977538 
L 945.08067 567.472513 
L 946.910512 381.954401 
L 948.740353 224.977538 
L 952.400036 224.977538 
L 954.229878 381.954401 
L 956.059719 496.119393 
L 957.889561 282.060034 
L 959.719402 224.977538 
L 961.549244 282.060034 
L 963.379085 224.977538 
L 965.208927 596.013761 
L 967.038768 224.977538 
L 968.86861 224.977538 
L 970.698451 610.284385 
L 972.528293 310.601282 
L 974.358134 224.977538 
L 976.187976 267.78941 
L 978.017817 353.413154 
L 979.847659 224.977538 
L 981.6775 510.390017 
L 983.507342 524.660641 
L 985.337183 224.977538 
L 988.996866 224.977538 
L 990.826708 324.871906 
L 992.656549 224.977538 
L 994.486391 353.413154 
L 996.316232 396.225025 
L 998.146074 224.977538 
L 999.975915 439.036897 
L 1001.805757 310.601282 
L 1003.635598 410.495649 
L 1005.46544 224.977538 
L 1007.295281 339.14253 
L 1009.125123 239.248162 
L 1010.954964 224.977538 
L 1012.784806 224.977538 
L 1014.614647 267.78941 
L 1016.444489 224.977538 
L 1018.27433 339.14253 
L 1020.104172 239.248162 
L 1021.934013 381.954401 
L 1023.763855 538.931265 
L 1025.593696 224.977538 
L 1027.423538 610.284385 
L 1029.253379 638.825632 
L 1031.083221 224.977538 
L 1032.913062 224.977538 
L 1034.742904 510.390017 
L 1036.572745 224.977538 
L 1038.402587 310.601282 
L 1040.232428 339.14253 
L 1042.06227 553.201889 
L 1043.892111 367.683777 
L 1045.721953 224.977538 
L 1047.551794 581.743137 
L 1049.381636 581.743137 
L 1051.211478 439.036897 
L 1053.041319 567.472513 
L 1054.871161 381.954401 
L 1056.701002 596.013761 
L 1058.530844 738.72 
L 1060.360685 496.119393 
L 1062.190527 282.060034 
L 1064.020368 439.036897 
L 1065.85021 396.225025 
L 1069.509893 224.977538 
L 1071.339734 496.119393 
L 1073.169576 224.977538 
L 1074.999417 267.78941 
L 1076.829259 396.225025 
L 1078.6591 224.977538 
L 1080.488942 510.390017 
L 1082.318783 296.330658 
L 1084.148625 396.225025 
L 1085.978466 224.977538 
L 1089.638149 224.977538 
L 1091.467991 282.060034 
L 1093.297832 467.578145 
L 1095.127674 224.977538 
L 1096.957515 396.225025 
L 1098.787357 381.954401 
L 1100.617198 553.201889 
L 1102.44704 224.977538 
L 1104.276881 439.036897 
L 1106.106723 596.013761 
L 1107.936564 424.766273 
L 1109.766406 453.307521 
L 1111.596247 296.330658 
L 1113.426089 624.555008 
L 1115.25593 453.307521 
L 1117.085772 653.096256 
L 1118.915613 581.743137 
L 1120.745455 581.743137 
L 1120.745455 581.743137 
" clip-path="url(#p0771646776)" style="fill: none; stroke: #4169e1; stroke-linecap: square"/>
   </g>
   <g id="line2d_13">
    <path d="M 207.654545 716.440589 
L 209.484387 703.442271 
L 211.314228 671.542787 
L 213.14407 647.688939 
L 214.973911 631.987035 
L 216.803753 644.858178 
L 218.633594 631.56661 
L 220.463436 646.854968 
L 222.293277 660.501513 
L 224.123119 686.634583 
L 225.95296 657.051743 
L 227.782802 677.042873 
L 229.612643 683.131136 
L 231.442485 669.30472 
L 233.272326 658.346485 
L 235.102168 643.90334 
L 236.932009 615.492832 
L 238.761851 498.349858 
L 240.591692 344.59173 
L 242.421534 323.446716 
L 244.251375 318.41707 
L 246.081217 298.568608 
L 247.911058 294.550395 
L 249.7409 292.553415 
L 251.570741 311.544286 
L 253.400583 290.215434 
L 255.230424 308.831145 
L 257.060266 321.736352 
L 258.890107 347.732618 
L 260.719949 339.98681 
L 262.54979 324.504095 
L 264.379632 340.588297 
L 266.209473 315.070787 
L 268.039315 320.211976 
L 269.869156 319.849582 
L 271.698998 320.989244 
L 273.528839 315.337533 
L 275.358681 314.705561 
L 277.188522 327.46463 
L 279.018364 346.223267 
L 280.848206 360.500152 
L 282.678047 357.127248 
L 284.507889 343.285188 
L 286.33773 330.701302 
L 288.167572 328.912466 
L 289.997413 325.98658 
L 291.827255 337.470926 
L 293.657096 379.974188 
L 295.486938 368.06136 
L 297.316779 381.943432 
L 299.146621 388.859114 
L 300.976462 359.136668 
L 302.806304 340.701501 
L 304.636145 335.98452 
L 306.465987 332.722888 
L 308.295828 290.495709 
L 310.12567 300.167782 
L 311.955511 298.755658 
L 313.785353 392.555924 
L 315.615194 378.381057 
L 317.445036 380.712913 
L 319.274877 406.444338 
L 321.104719 371.245527 
L 324.764402 449.252998 
L 326.594243 481.340426 
L 328.424085 533.600073 
L 330.253926 459.787752 
L 332.083768 447.877537 
L 333.913609 457.155561 
L 335.743451 489.795073 
L 337.573292 539.879481 
L 339.403134 546.820681 
L 341.232975 597.699314 
L 343.062817 581.49215 
L 344.892658 578.166893 
L 346.7225 598.244389 
L 348.552341 601.940125 
L 350.382183 621.54669 
L 352.212024 623.352266 
L 354.041866 624.340046 
L 355.871707 557.110899 
L 357.701549 539.619975 
L 359.53139 580.831856 
L 361.361232 571.758901 
L 363.191073 586.740419 
L 365.020915 595.345369 
L 366.850756 610.521163 
L 368.680598 624.465077 
L 370.510439 631.983674 
L 372.340281 624.233007 
L 374.170122 526.797895 
L 375.999964 503.482855 
L 377.829805 579.143064 
L 379.659647 465.258211 
L 381.489488 466.979571 
L 383.31933 448.048772 
L 385.149171 482.038622 
L 386.979013 542.124182 
L 388.808854 541.500499 
L 392.468537 428.782145 
L 394.298379 361.294785 
L 396.12822 324.049291 
L 397.958062 329.326631 
L 399.787903 331.141516 
L 401.617745 329.040422 
L 403.447586 343.846391 
L 405.277428 451.667001 
L 407.107269 439.966101 
L 408.937111 454.066143 
L 410.766952 459.734593 
L 412.596794 474.277626 
L 414.426635 454.885056 
L 416.256477 337.598746 
L 418.086318 328.567491 
L 419.91616 336.196666 
L 421.746001 315.485033 
L 423.575843 336.495449 
L 425.405684 388.442471 
L 427.235526 376.7778 
L 429.065367 362.954766 
L 430.895209 386.501372 
L 432.72505 421.511228 
L 434.554892 410.093379 
L 436.384733 416.67843 
L 438.214575 339.917946 
L 440.044416 384.88015 
L 441.874258 360.446911 
L 443.704099 324.836793 
L 445.533941 360.581047 
L 447.363782 362.75291 
L 449.193624 363.606009 
L 451.023465 416.171938 
L 452.853307 371.550217 
L 454.683148 354.556544 
L 456.51299 381.646717 
L 458.342831 354.194694 
L 460.172673 369.514803 
L 462.002514 353.490347 
L 463.832356 341.778042 
L 465.662197 349.204543 
L 467.492039 374.635932 
L 469.32188 379.025604 
L 471.151722 365.878283 
L 472.981563 358.413974 
L 474.811405 366.288556 
L 476.641246 368.71195 
L 478.471088 499.821538 
L 480.300929 605.106 
L 482.130771 606.208821 
L 483.960612 612.169712 
L 485.790454 610.572879 
L 487.620295 552.9981 
L 489.450137 571.676931 
L 491.279978 546.481055 
L 493.10982 566.22143 
L 494.939661 599.581253 
L 496.769503 580.500981 
L 498.599344 596.106986 
L 500.429186 596.812082 
L 502.259027 594.592191 
L 504.088869 605.040688 
L 505.91871 604.213719 
L 507.748552 565.760774 
L 509.578393 578.947018 
L 511.408235 580.72807 
L 513.238076 566.080108 
L 515.067918 564.155231 
L 516.897759 564.118907 
L 518.727601 589.845011 
L 520.557442 605.588921 
L 522.387284 596.529317 
L 524.217125 612.338811 
L 526.046967 599.367516 
L 527.876808 590.170632 
L 529.70665 606.905438 
L 531.536491 603.805378 
L 533.366333 612.208091 
L 535.196174 612.659751 
L 537.026016 617.830704 
L 538.855857 609.7648 
L 542.51554 611.844036 
L 546.175223 643.621208 
L 548.005065 667.4743 
L 549.834906 678.921213 
L 551.664748 687.098463 
L 553.494589 692.155961 
L 555.324431 693.287341 
L 557.154272 690.085125 
L 558.984114 693.599333 
L 560.813955 709.532058 
L 562.643797 672.095082 
L 564.473638 670.459863 
L 566.30348 647.047611 
L 568.133321 655.779313 
L 569.963163 658.487507 
L 571.793004 652.635125 
L 573.622846 656.498148 
L 575.452687 667.116377 
L 577.282529 662.828246 
L 579.11237 669.320208 
L 580.942212 688.373513 
L 582.772053 695.870505 
L 584.601895 690.057828 
L 586.431736 658.313972 
L 588.261578 589.424762 
L 590.091419 444.238976 
L 591.921261 365.067836 
L 593.751102 345.810735 
L 595.580944 341.260499 
L 597.410785 327.62133 
L 599.240627 350.72323 
L 601.070468 341.255218 
L 602.90031 314.502398 
L 604.730151 305.396427 
L 606.559993 279.286956 
L 608.389834 296.715018 
L 610.219676 315.972118 
L 612.049517 301.876404 
L 613.879359 309.387067 
L 615.7092 337.810184 
L 617.539042 321.098093 
L 619.368883 318.402726 
L 621.198725 353.451913 
L 623.028566 331.569236 
L 624.858408 333.34517 
L 626.688249 376.780386 
L 628.518091 331.66962 
L 630.347932 341.596409 
L 632.177774 344.2519 
L 634.007615 331.140318 
L 635.837457 373.118361 
L 637.667298 338.953629 
L 639.49714 360.401564 
L 641.326981 342.857359 
L 643.156823 339.458951 
L 644.986664 345.693203 
L 646.816506 359.765428 
L 648.646347 352.825657 
L 650.476189 344.526268 
L 652.30603 331.956236 
L 654.135872 290.510026 
L 655.965713 310.79764 
L 657.795555 323.669558 
L 659.625396 291.343555 
L 661.455238 315.88431 
L 663.285079 259.395489 
L 665.114921 291.690789 
L 666.944762 363.059859 
L 668.774604 400.746274 
L 670.604445 427.534533 
L 672.434287 385.868964 
L 674.264128 351.090252 
L 676.09397 328.910097 
L 677.923811 398.334067 
L 679.753653 383.574343 
L 681.583494 420.717139 
L 683.413336 525.238746 
L 685.243177 504.154023 
L 687.073019 490.159155 
L 688.90286 460.522912 
L 690.732702 455.325324 
L 692.562543 479.385798 
L 694.392385 552.149573 
L 696.222226 588.094132 
L 698.052068 586.629216 
L 699.881909 598.24605 
L 701.711751 607.395626 
L 703.541592 613.357566 
L 705.371434 616.582085 
L 707.201275 579.763644 
L 709.031117 570.36466 
L 712.6908 592.766405 
L 714.520641 556.217352 
L 716.350483 511.629913 
L 718.180324 571.113565 
L 720.010166 541.185982 
L 721.840007 604.948674 
L 723.669849 620.119609 
L 725.49969 623.078688 
L 727.329532 649.724387 
L 729.159373 665.564945 
L 730.989215 676.449164 
L 732.819056 648.341577 
L 734.648898 649.981852 
L 736.478739 646.343712 
L 738.308581 629.48016 
L 740.138422 598.243559 
L 741.968264 607.179303 
L 743.798105 625.150915 
L 745.627947 588.730254 
L 747.457788 575.627655 
L 749.28763 603.580005 
L 751.117471 604.366023 
L 752.947313 616.360766 
L 754.777154 606.855968 
L 756.606996 628.145454 
L 758.436837 630.32849 
L 760.266679 587.080453 
L 762.09652 609.318993 
L 763.926362 585.730116 
L 765.756203 536.890312 
L 767.586045 278.404351 
L 769.415886 330.199954 
L 771.245728 346.097597 
L 773.075569 304.169555 
L 774.905411 298.728847 
L 776.735252 320.763461 
L 778.565094 358.22698 
L 780.394935 413.616042 
L 782.224777 398.744884 
L 784.054618 340.909999 
L 785.88446 314.305904 
L 787.714301 291.793405 
L 789.544143 293.610467 
L 791.373984 316.30909 
L 793.203826 336.176496 
L 795.033667 362.359159 
L 796.863509 364.740227 
L 798.69335 337.25418 
L 800.523192 335.747823 
L 802.353033 316.058838 
L 804.182875 297.992299 
L 806.012716 324.544896 
L 807.842558 348.237995 
L 809.672399 328.751519 
L 811.502241 353.227383 
L 813.332082 338.922082 
L 816.991765 326.490677 
L 818.821607 347.899716 
L 820.651448 347.488191 
L 822.48129 362.481617 
L 824.311131 353.660711 
L 826.140973 336.47411 
L 827.970814 327.660144 
L 829.800656 297.622284 
L 831.630497 303.144322 
L 833.460339 301.291739 
L 835.29018 332.511451 
L 837.120022 355.864719 
L 838.949863 312.410505 
L 840.779705 330.603803 
L 842.609546 286.305608 
L 844.439388 302.671745 
L 846.269229 313.910221 
L 848.099071 366.086863 
L 849.928912 469.718053 
L 851.758754 561.710906 
L 853.588595 494.080005 
L 855.418437 546.95042 
L 857.248278 536.158392 
L 859.07812 554.595872 
L 860.907961 510.714454 
L 862.737803 495.737972 
L 864.567644 473.943784 
L 866.397486 431.509141 
L 868.227327 524.489419 
L 870.057169 535.903648 
L 871.88701 542.754739 
L 873.716852 568.831601 
L 875.546693 581.716625 
L 877.376535 586.746434 
L 879.206376 590.054543 
L 881.036218 585.083146 
L 882.866059 581.040912 
L 884.695901 598.328306 
L 886.525742 602.20385 
L 888.355584 603.091504 
L 890.185425 584.00191 
L 892.015267 596.449823 
L 893.845108 599.247833 
L 895.67495 615.50534 
L 897.504791 629.749153 
L 899.334633 598.203697 
L 901.164474 560.162686 
L 902.994316 598.280536 
L 904.824157 576.373647 
L 906.653999 572.339742 
L 908.48384 523.32047 
L 910.313682 560.131847 
L 912.143523 574.448389 
L 913.973365 565.616119 
L 915.803206 598.142604 
L 917.633048 549.898707 
L 919.462889 581.454111 
L 921.292731 582.466361 
L 923.122572 610.478837 
L 924.952414 629.897932 
L 926.782255 627.556916 
L 928.612097 629.230466 
L 930.441938 613.404083 
L 932.27178 637.085777 
L 934.101621 625.49819 
L 935.931463 587.138076 
L 937.761304 612.08057 
L 939.591146 596.447809 
L 941.420987 423.13528 
L 943.250829 344.692304 
L 945.08067 281.918767 
L 946.910512 322.510571 
L 948.740353 318.099859 
L 950.570195 289.82974 
L 952.400036 296.117941 
L 954.229878 277.187496 
L 956.059719 290.477989 
L 957.889561 326.321565 
L 959.719402 311.79579 
L 961.549244 302.107358 
L 963.379085 312.957445 
L 965.208927 297.158607 
L 967.038768 333.654651 
L 968.86861 312.388349 
L 970.698451 303.132618 
L 972.528293 382.729464 
L 974.358134 338.260823 
L 976.187976 325.270964 
L 978.017817 343.56647 
L 979.847659 319.930586 
L 981.6775 312.660158 
L 983.507342 339.264335 
L 985.337183 370.773739 
L 987.167025 339.739253 
L 990.826708 326.203979 
L 992.656549 322.404063 
L 994.486391 320.853312 
L 996.316232 335.91865 
L 998.146074 349.285438 
L 999.975915 335.185206 
L 1001.805757 353.161867 
L 1003.635598 339.247922 
L 1005.46544 328.453362 
L 1007.295281 334.561154 
L 1009.125123 274.005371 
L 1010.954964 277.633181 
L 1012.784806 249.364069 
L 1014.614647 257.318348 
L 1016.444489 257.86948 
L 1018.27433 271.622452 
L 1020.104172 291.569147 
L 1021.934013 303.741808 
L 1023.763855 313.031263 
L 1025.593696 389.385857 
L 1027.423538 362.126109 
L 1029.253379 465.206195 
L 1031.083221 550.368358 
L 1032.913062 450.914803 
L 1034.742904 451.570755 
L 1036.572745 423.431097 
L 1038.402587 361.450859 
L 1040.232428 359.557583 
L 1042.06227 394.051148 
L 1043.892111 410.966784 
L 1045.721953 460.219855 
L 1047.551794 443.569823 
L 1049.381636 492.111659 
L 1051.211478 512.298535 
L 1053.041319 524.902414 
L 1054.871161 558.367616 
L 1056.701002 529.847273 
L 1058.530844 544.214075 
L 1060.360685 574.70629 
L 1062.190527 547.763794 
L 1064.020368 502.117302 
L 1065.85021 482.11753 
L 1067.680051 428.51744 
L 1069.509893 399.847637 
L 1071.339734 382.64416 
L 1073.169576 356.053865 
L 1074.999417 271.198488 
L 1076.829259 282.261754 
L 1078.6591 329.318356 
L 1080.488942 293.138271 
L 1082.318783 355.423934 
L 1084.148625 337.228921 
L 1085.978466 340.185482 
L 1087.808308 317.556785 
L 1089.638149 292.603906 
L 1091.467991 300.274127 
L 1093.297832 294.723971 
L 1095.127674 328.773349 
L 1096.957515 320.572683 
L 1100.617198 366.856726 
L 1102.44704 397.522531 
L 1104.276881 402.521119 
L 1106.106723 419.155746 
L 1107.936564 475.055628 
L 1109.766406 447.98361 
L 1111.596247 494.614887 
L 1113.426089 460.944154 
L 1115.25593 490.686769 
L 1117.085772 486.376496 
L 1118.915613 528.309723 
L 1120.745455 540.41518 
L 1120.745455 540.41518 
" clip-path="url(#p0771646776)" style="fill: none; stroke: #ff6347; stroke-linecap: square"/>
   </g>
   <g id="line2d_14">
    <path d="M 207.654545 738.72 
L 238.761851 738.72 
L 240.591692 731.591003 
L 242.421534 327.262719 
L 244.251375 246.465621 
L 246.081217 133.92 
L 247.911058 334.519999 
L 249.7409 247.049851 
L 251.570741 239.007219 
L 253.400583 313.014904 
L 255.230424 472.297684 
L 257.060266 455.244565 
L 258.890107 555.558188 
L 260.719949 371.464531 
L 262.54979 448.267777 
L 264.379632 359.317075 
L 266.209473 362.469096 
L 268.039315 304.201184 
L 271.698998 393.891236 
L 273.528839 402.781932 
L 275.358681 428.584535 
L 277.188522 518.452478 
L 279.018364 532.488664 
L 280.848206 628.48955 
L 282.678047 559.788764 
L 284.507889 407.998247 
L 286.33773 316.218505 
L 288.167572 336.460854 
L 289.997413 273.944291 
L 291.827255 463.391773 
L 293.657096 631.734715 
L 295.486938 395.280987 
L 297.316779 384.275261 
L 299.146621 545.492146 
L 300.976462 528.661189 
L 302.806304 459.56099 
L 304.636145 384.707772 
L 306.465987 428.248543 
L 308.295828 477.472163 
L 310.12567 389.753559 
L 311.955511 462.920067 
L 313.785353 561.592993 
L 315.615194 546.429107 
L 317.445036 498.769495 
L 319.274877 427.705659 
L 321.104719 447.130265 
L 322.93456 583.471996 
L 324.764402 635.602815 
L 326.594243 580.397916 
L 328.424085 738.72 
L 330.253926 618.104092 
L 332.083768 720.010656 
L 333.913609 614.819501 
L 335.743451 589.417086 
L 337.573292 738.72 
L 381.489488 738.72 
L 383.31933 651.087463 
L 385.149171 738.72 
L 392.468537 738.72 
L 394.298379 469.095471 
L 396.12822 468.818245 
L 397.958062 489.114923 
L 399.787903 488.016607 
L 401.617745 475.525565 
L 403.447586 445.685696 
L 405.277428 738.72 
L 407.107269 738.72 
L 408.937111 546.918397 
L 410.766952 316.892912 
L 412.596794 602.875126 
L 414.426635 501.051921 
L 416.256477 256.991665 
L 418.086318 138.105637 
L 419.91616 325.834154 
L 421.746001 489.682141 
L 423.575843 460.790938 
L 425.405684 433.867999 
L 429.065367 738.72 
L 441.874258 738.72 
L 443.704099 438.713045 
L 445.533941 705.723292 
L 447.363782 738.72 
L 451.023465 738.72 
L 452.853307 425.751086 
L 454.683148 738.72 
L 456.51299 585.27455 
L 458.342831 531.866532 
L 460.172673 709.309484 
L 462.002514 738.72 
L 463.832356 439.648972 
L 467.492039 521.003992 
L 469.32188 738.72 
L 471.151722 456.00444 
L 472.981563 422.928497 
L 474.811405 667.494823 
L 476.641246 738.72 
L 485.790454 738.72 
L 487.620295 497.937517 
L 489.450137 738.72 
L 590.091419 738.72 
L 591.921261 615.290772 
L 593.751102 317.667403 
L 595.580944 380.788881 
L 597.410785 321.331251 
L 599.240627 463.121814 
L 601.070468 152.62586 
L 602.90031 211.254616 
L 604.730151 244.088908 
L 606.559993 324.448758 
L 608.389834 390.398514 
L 610.219676 481.417674 
L 612.049517 286.575947 
L 613.879359 374.269646 
L 615.7092 473.119972 
L 619.368883 340.225739 
L 621.198725 639.927201 
L 623.028566 710.276305 
L 624.858408 583.892625 
L 626.688249 738.72 
L 628.518091 461.816905 
L 630.347932 529.507565 
L 632.177774 457.524515 
L 634.007615 591.27936 
L 635.837457 647.325544 
L 637.667298 439.52009 
L 639.49714 546.594599 
L 641.326981 412.98505 
L 643.156823 444.615415 
L 644.986664 361.765674 
L 646.816506 601.59236 
L 648.646347 367.575827 
L 650.476189 356.112712 
L 652.30603 343.047212 
L 654.135872 340.706101 
L 655.965713 464.792547 
L 657.795555 393.906724 
L 659.625396 394.609792 
L 661.455238 389.973026 
L 663.285079 363.147069 
L 665.114921 504.760082 
L 666.944762 479.199239 
L 668.774604 563.091524 
L 670.604445 532.197733 
L 672.434287 533.166827 
L 674.264128 527.015878 
L 676.09397 479.932466 
L 677.923811 448.360567 
L 679.753653 596.858531 
L 681.583494 674.146793 
L 683.413336 738.72 
L 685.243177 476.230375 
L 687.073019 738.72 
L 690.732702 738.72 
L 692.562543 617.073987 
L 694.392385 738.72 
L 765.756203 738.72 
L 767.586045 642.255873 
L 769.415886 735.404529 
L 773.075569 204.15213 
L 774.905411 240.811625 
L 776.735252 343.748538 
L 778.565094 537.132181 
L 780.394935 597.290783 
L 782.224777 529.141591 
L 784.054618 470.949035 
L 785.88446 333.524626 
L 787.714301 235.392692 
L 789.544143 295.346988 
L 791.373984 393.087621 
L 793.203826 480.249024 
L 795.033667 643.096465 
L 796.863509 638.405166 
L 798.69335 541.132306 
L 800.523192 477.375508 
L 802.353033 359.677102 
L 804.182875 325.625438 
L 806.012716 654.432276 
L 807.842558 486.4293 
L 809.672399 404.25236 
L 811.502241 472.942694 
L 813.332082 582.314682 
L 815.161924 376.523193 
L 816.991765 315.045418 
L 820.651448 446.726362 
L 822.48129 575.216742 
L 824.311131 480.234788 
L 826.140973 349.761391 
L 827.970814 392.675552 
L 829.800656 348.639557 
L 831.630497 427.757185 
L 833.460339 316.723065 
L 835.29018 542.15411 
L 837.120022 460.481076 
L 838.949863 322.821685 
L 840.779705 429.505846 
L 842.609546 361.228479 
L 844.439388 365.353228 
L 846.269229 299.829205 
L 849.928912 738.72 
L 859.07812 738.72 
L 860.907961 574.410487 
L 862.737803 738.72 
L 864.567644 738.72 
L 866.397486 682.353039 
L 868.227327 738.72 
L 941.420987 738.72 
L 943.250829 583.596006 
L 945.08067 261.355914 
L 946.910512 375.816559 
L 948.740353 253.581172 
L 950.570195 194.617894 
L 952.400036 202.411635 
L 954.229878 250.858668 
L 956.059719 252.580545 
L 957.889561 421.979913 
L 959.719402 323.719288 
L 961.549244 362.871612 
L 963.379085 303.545885 
L 965.208927 310.785827 
L 967.038768 515.767509 
L 968.86861 391.996409 
L 970.698451 305.472586 
L 972.528293 562.280396 
L 974.358134 549.738904 
L 976.187976 454.878115 
L 978.017817 405.488459 
L 979.847659 469.04713 
L 981.6775 417.936032 
L 983.507342 522.872063 
L 985.337183 588.346684 
L 987.167025 403.38987 
L 988.996866 297.66137 
L 990.826708 326.951795 
L 992.656549 305.478982 
L 994.486391 324.708809 
L 996.316232 401.897286 
L 998.146074 438.806406 
L 999.975915 299.553802 
L 1001.805757 428.710831 
L 1003.635598 390.682083 
L 1005.46544 422.692399 
L 1007.295281 298.573181 
L 1010.954964 419.366612 
L 1012.784806 366.365014 
L 1014.614647 327.181388 
L 1016.444489 377.112322 
L 1018.27433 343.298907 
L 1020.104172 395.992901 
L 1021.934013 307.647361 
L 1023.763855 399.276118 
L 1025.593696 543.251473 
L 1027.423538 510.9749 
L 1029.253379 457.733394 
L 1031.083221 738.72 
L 1032.913062 727.198609 
L 1034.742904 593.948651 
L 1036.572745 582.897606 
L 1038.402587 333.804301 
L 1040.232428 508.846261 
L 1042.06227 617.101193 
L 1043.892111 562.363169 
L 1045.721953 729.992836 
L 1047.551794 644.786061 
L 1049.381636 738.72 
L 1051.211478 465.665027 
L 1053.041319 738.72 
L 1064.020368 738.72 
L 1065.85021 622.393952 
L 1067.680051 528.595972 
L 1069.509893 419.46999 
L 1071.339734 423.059366 
L 1073.169576 607.980836 
L 1074.999417 439.608497 
L 1076.829259 364.728931 
L 1078.6591 530.001196 
L 1080.488942 357.43632 
L 1082.318783 579.211805 
L 1084.148625 536.305524 
L 1085.978466 459.01405 
L 1087.808308 444.775899 
L 1089.638149 332.161169 
L 1091.467991 327.002722 
L 1093.297832 400.626945 
L 1095.127674 492.118192 
L 1096.957515 347.243764 
L 1098.787357 506.603846 
L 1100.617198 581.298051 
L 1102.44704 738.72 
L 1120.745455 738.72 
L 1120.745455 738.72 
" clip-path="url(#p0771646776)" style="fill: none; stroke: #da70d6; stroke-linecap: square"/>
   </g>
   <g id="line2d_15">
    <path d="M 207.654545 705.468859 
L 211.314228 593.659653 
L 213.14407 555.423045 
L 214.973911 615.467845 
L 216.803753 641.107467 
L 218.633594 631.101708 
L 220.463436 655.121966 
L 222.293277 665.058194 
L 224.123119 677.059334 
L 225.95296 629.19598 
L 227.782802 648.473209 
L 229.612643 665.834407 
L 231.442485 607.715954 
L 233.272326 584.997597 
L 235.102168 590.668469 
L 236.932009 575.94311 
L 238.761851 465.353341 
L 240.591692 313.331925 
L 244.251375 265.796431 
L 246.081217 268.331341 
L 247.911058 271.799321 
L 249.7409 262.094258 
L 251.570741 302.462539 
L 253.400583 269.389455 
L 257.060266 304.03727 
L 258.890107 318.633053 
L 260.719949 310.928428 
L 262.54979 280.065367 
L 264.379632 284.672791 
L 266.209473 274.770009 
L 268.039315 275.927744 
L 269.869156 274.422476 
L 271.698998 269.792351 
L 273.528839 265.581182 
L 275.358681 270.07102 
L 277.188522 279.026035 
L 279.018364 294.852473 
L 280.848206 315.211509 
L 282.678047 308.694886 
L 284.507889 284.759701 
L 286.33773 280.857333 
L 288.167572 273.409437 
L 289.997413 271.551355 
L 291.827255 289.325616 
L 293.657096 323.639427 
L 295.486938 292.794794 
L 297.316779 302.097232 
L 299.146621 325.329295 
L 300.976462 318.296109 
L 302.806304 265.793763 
L 304.636145 278.199664 
L 306.465987 285.407814 
L 308.295828 268.590521 
L 310.12567 269.176928 
L 311.955511 277.77423 
L 313.785353 366.289046 
L 315.615194 349.292951 
L 317.445036 357.948256 
L 319.274877 351.225095 
L 321.104719 325.410979 
L 322.93456 391.68633 
L 324.764402 422.153679 
L 326.594243 481.591957 
L 328.424085 513.827171 
L 330.253926 371.406582 
L 332.083768 345.283012 
L 333.913609 336.737427 
L 335.743451 401.736911 
L 337.573292 511.503399 
L 339.403134 502.152061 
L 341.232975 547.024347 
L 343.062817 575.838085 
L 344.892658 551.824768 
L 346.7225 580.44227 
L 348.552341 615.36214 
L 350.382183 641.449944 
L 354.041866 633.185572 
L 355.871707 516.765904 
L 357.701549 470.920563 
L 359.53139 561.014996 
L 361.361232 569.646049 
L 363.191073 560.244207 
L 365.020915 593.838999 
L 366.850756 600.803539 
L 368.680598 615.120761 
L 370.510439 631.275325 
L 372.340281 696.084896 
L 374.170122 598.180139 
L 375.999964 483.076621 
L 377.829805 538.40987 
L 379.659647 334.841864 
L 381.489488 360.833041 
L 383.31933 382.318184 
L 385.149171 417.504801 
L 386.979013 447.584633 
L 388.808854 362.823352 
L 390.638696 399.826896 
L 392.468537 324.720976 
L 394.298379 268.863964 
L 396.12822 248.438186 
L 397.958062 252.6309 
L 399.787903 255.969807 
L 401.617745 256.758561 
L 403.447586 259.663215 
L 405.277428 326.898283 
L 407.107269 299.392502 
L 408.937111 325.387707 
L 410.766952 364.589978 
L 412.596794 415.549384 
L 414.426635 377.58479 
L 416.256477 243.998105 
L 418.086318 259.097985 
L 419.91616 330.503419 
L 421.746001 362.844529 
L 423.575843 404.185156 
L 425.405684 541.865792 
L 429.065367 388.091346 
L 432.72505 594.072212 
L 436.384733 516.230655 
L 438.214575 352.43569 
L 440.044416 373.396649 
L 441.874258 339.496132 
L 443.704099 265.64248 
L 445.533941 302.911953 
L 447.363782 348.968962 
L 449.193624 330.766056 
L 451.023465 439.296866 
L 452.853307 360.485971 
L 454.683148 357.439151 
L 456.51299 386.435828 
L 458.342831 334.521523 
L 460.172673 347.749113 
L 462.002514 339.264634 
L 463.832356 280.150563 
L 465.662197 334.836965 
L 467.492039 371.806893 
L 469.32188 382.743836 
L 471.151722 296.711697 
L 472.981563 305.599318 
L 474.811405 345.82557 
L 476.641246 367.724524 
L 478.471088 490.537391 
L 480.300929 599.880704 
L 482.130771 588.20592 
L 483.960612 597.494287 
L 485.790454 586.440424 
L 487.620295 559.912162 
L 489.450137 574.138636 
L 491.279978 570.230688 
L 493.10982 541.251703 
L 494.939661 599.217593 
L 496.769503 585.058064 
L 498.599344 600.729952 
L 500.429186 604.160165 
L 502.259027 594.246631 
L 504.088869 586.051981 
L 505.91871 565.194863 
L 507.748552 523.728021 
L 509.578393 535.946056 
L 511.408235 544.389271 
L 513.238076 523.290488 
L 516.897759 519.678588 
L 518.727601 550.41595 
L 520.557442 588.982235 
L 522.387284 572.049397 
L 524.217125 578.234369 
L 526.046967 570.642675 
L 527.876808 560.305177 
L 529.70665 604.137288 
L 531.536491 598.591323 
L 533.366333 580.752377 
L 535.196174 586.122887 
L 537.026016 553.903079 
L 538.855857 577.019787 
L 540.685699 579.198958 
L 542.51554 601.624805 
L 544.345382 611.239923 
L 546.175223 648.257151 
L 548.005065 703.924378 
L 549.834906 698.949511 
L 551.664748 690.143265 
L 553.494589 678.338119 
L 555.324431 670.445859 
L 557.154272 671.228638 
L 558.984114 670.408984 
L 560.813955 653.558531 
L 562.643797 626.554752 
L 564.473638 613.874102 
L 566.30348 632.719738 
L 568.133321 664.670173 
L 569.963163 640.932891 
L 571.793004 644.670816 
L 573.622846 650.630924 
L 575.452687 665.081487 
L 577.282529 680.864667 
L 579.11237 681.938632 
L 580.942212 676.165392 
L 582.772053 664.236934 
L 584.601895 621.491994 
L 586.431736 555.01838 
L 588.261578 497.952515 
L 590.091419 422.678653 
L 591.921261 321.919591 
L 593.751102 307.164631 
L 595.580944 327.006696 
L 597.410785 316.612038 
L 599.240627 333.891919 
L 601.070468 346.536178 
L 602.90031 312.703491 
L 604.730151 282.457731 
L 606.559993 256.997436 
L 608.389834 266.514252 
L 610.219676 281.710977 
L 612.049517 273.542593 
L 613.879359 271.596594 
L 615.7092 284.090276 
L 617.539042 286.101873 
L 619.368883 278.60697 
L 621.198725 306.139507 
L 623.028566 294.9031 
L 624.858408 277.240138 
L 626.688249 320.87427 
L 628.518091 271.421684 
L 630.347932 282.094629 
L 632.177774 282.776521 
L 634.007615 287.814605 
L 635.837457 334.473672 
L 637.667298 303.664397 
L 639.49714 306.413712 
L 641.326981 293.941832 
L 643.156823 298.199545 
L 644.986664 290.234869 
L 646.816506 318.915968 
L 648.646347 295.967419 
L 650.476189 280.933328 
L 652.30603 270.499448 
L 654.135872 255.647915 
L 655.965713 271.626426 
L 657.795555 272.181912 
L 659.625396 273.748641 
L 661.455238 294.943058 
L 663.285079 252.466062 
L 665.114921 272.481866 
L 666.944762 332.855445 
L 670.604445 410.697642 
L 672.434287 379.18557 
L 674.264128 337.972519 
L 676.09397 312.60142 
L 677.923811 378.962891 
L 679.753653 347.432202 
L 681.583494 393.460304 
L 683.413336 479.850428 
L 685.243177 481.029285 
L 687.073019 457.015818 
L 688.90286 412.273625 
L 690.732702 385.579789 
L 694.392385 508.412553 
L 696.222226 547.834495 
L 698.052068 562.829622 
L 699.881909 567.847945 
L 701.711751 583.353974 
L 703.541592 601.941649 
L 705.371434 600.729149 
L 707.201275 546.22525 
L 709.031117 564.482064 
L 710.860958 539.581446 
L 712.6908 538.407665 
L 714.520641 511.315696 
L 716.350483 497.993343 
L 718.180324 502.727064 
L 720.010166 503.930853 
L 721.840007 562.664226 
L 723.669849 643.107353 
L 725.49969 622.539655 
L 729.159373 652.02437 
L 730.989215 683.583323 
L 732.819056 693.931508 
L 734.648898 660.031345 
L 738.308581 582.574856 
L 740.138422 563.002382 
L 741.968264 580.578107 
L 743.798105 609.896254 
L 745.627947 534.971464 
L 747.457788 524.047654 
L 749.28763 601.648445 
L 751.117471 602.365899 
L 752.947313 583.798012 
L 754.777154 519.719607 
L 756.606996 621.719599 
L 758.436837 615.383221 
L 760.266679 507.792394 
L 762.09652 583.177622 
L 763.926362 587.504403 
L 765.756203 534.003541 
L 767.586045 281.744674 
L 769.415886 298.783367 
L 771.245728 329.528569 
L 773.075569 276.42852 
L 774.905411 277.680706 
L 776.735252 288.930831 
L 780.394935 387.867006 
L 782.224777 411.135107 
L 784.054618 357.91671 
L 785.88446 280.302772 
L 787.714301 266.776915 
L 789.544143 269.142632 
L 793.203826 320.574099 
L 795.033667 333.561888 
L 796.863509 282.571453 
L 798.69335 260.887202 
L 800.523192 261.977706 
L 802.353033 263.968399 
L 804.182875 254.884638 
L 806.012716 284.33111 
L 807.842558 310.6104 
L 809.672399 329.622529 
L 811.502241 297.246525 
L 813.332082 310.252197 
L 815.161924 281.283855 
L 816.991765 296.232805 
L 818.821607 316.069835 
L 820.651448 325.575818 
L 822.48129 359.500287 
L 824.311131 309.559391 
L 826.140973 272.228947 
L 827.970814 266.046247 
L 829.800656 268.824823 
L 831.630497 286.820157 
L 833.460339 268.060729 
L 835.29018 333.398601 
L 837.120022 336.1839 
L 838.949863 305.098596 
L 840.779705 295.427176 
L 842.609546 258.190665 
L 844.439388 267.554509 
L 846.269229 310.630107 
L 848.099071 385.508257 
L 849.928912 481.301094 
L 851.758754 559.688748 
L 853.588595 475.190471 
L 855.418437 530.764133 
L 857.248278 529.540949 
L 859.07812 534.613492 
L 860.907961 479.464951 
L 862.737803 479.397475 
L 864.567644 466.113216 
L 866.397486 451.506491 
L 868.227327 517.741312 
L 870.057169 531.428196 
L 871.88701 514.964057 
L 873.716852 534.324508 
L 875.546693 577.561637 
L 877.376535 585.624941 
L 879.206376 555.864987 
L 881.036218 532.153448 
L 882.866059 517.378673 
L 884.695901 538.337291 
L 886.525742 539.819844 
L 888.355584 532.916439 
L 890.185425 558.305217 
L 892.015267 540.111469 
L 893.845108 564.814586 
L 895.67495 579.985466 
L 897.504791 607.787295 
L 899.334633 629.422701 
L 901.164474 569.103138 
L 902.994316 597.88635 
L 904.824157 576.731605 
L 906.653999 507.600227 
L 908.48384 449.824761 
L 910.313682 491.365286 
L 912.143523 559.876015 
L 913.973365 493.870282 
L 915.803206 522.332364 
L 917.633048 494.36322 
L 919.462889 548.700932 
L 921.292731 566.177852 
L 923.122572 578.735948 
L 924.952414 613.777474 
L 926.782255 605.378327 
L 928.612097 619.521157 
L 930.441938 600.056702 
L 932.27178 619.040373 
L 934.101621 589.43071 
L 935.931463 548.720571 
L 937.761304 612.359266 
L 939.591146 614.857648 
L 941.420987 420.093415 
L 943.250829 281.95573 
L 945.08067 262.206782 
L 946.910512 303.273939 
L 948.740353 296.600126 
L 950.570195 265.028908 
L 952.400036 281.805808 
L 954.229878 250.240741 
L 956.059719 261.968397 
L 957.889561 289.970354 
L 959.719402 278.393573 
L 961.549244 268.560743 
L 963.379085 276.659447 
L 965.208927 268.936094 
L 967.038768 294.766596 
L 968.86861 292.014614 
L 970.698451 277.32468 
L 972.528293 313.111069 
L 974.358134 288.436179 
L 976.187976 269.053354 
L 978.017817 274.877143 
L 979.847659 262.749094 
L 981.6775 264.800268 
L 983.507342 285.207618 
L 985.337183 328.281936 
L 987.167025 289.668821 
L 988.996866 305.178729 
L 990.826708 275.657622 
L 992.656549 285.411217 
L 994.486391 284.920675 
L 998.146074 321.825331 
L 999.975915 298.009502 
L 1001.805757 320.221095 
L 1003.635598 302.662218 
L 1005.46544 314.522622 
L 1007.295281 276.417306 
L 1009.125123 259.862404 
L 1010.954964 259.286776 
L 1012.784806 249.00309 
L 1014.614647 249.700824 
L 1016.444489 248.720829 
L 1018.27433 253.985212 
L 1020.104172 272.950796 
L 1021.934013 286.689097 
L 1023.763855 319.992101 
L 1025.593696 391.395331 
L 1027.423538 347.567399 
L 1029.253379 460.224863 
L 1031.083221 547.265413 
L 1032.913062 439.850801 
L 1034.742904 412.381004 
L 1036.572745 396.168437 
L 1038.402587 309.700576 
L 1040.232428 358.067285 
L 1042.06227 377.85464 
L 1043.892111 416.362934 
L 1045.721953 463.46589 
L 1047.551794 434.391339 
L 1049.381636 477.193712 
L 1051.211478 530.224257 
L 1053.041319 515.739813 
L 1054.871161 536.123402 
L 1056.701002 511.005018 
L 1058.530844 517.374808 
L 1060.360685 551.01873 
L 1062.190527 526.200246 
L 1064.020368 451.169328 
L 1065.85021 443.407488 
L 1067.680051 403.718595 
L 1069.509893 385.767927 
L 1071.339734 352.658124 
L 1073.169576 312.862341 
L 1074.999417 277.798836 
L 1076.829259 260.991723 
L 1078.6591 327.835761 
L 1080.488942 270.161224 
L 1082.318783 333.092469 
L 1084.148625 306.700628 
L 1085.978466 331.138467 
L 1087.808308 285.082955 
L 1089.638149 258.352781 
L 1091.467991 248.920399 
L 1093.297832 252.16295 
L 1095.127674 289.712453 
L 1096.957515 270.338855 
L 1098.787357 325.268406 
L 1100.617198 362.842324 
L 1102.44704 412.697154 
L 1104.276881 344.206553 
L 1106.106723 410.708502 
L 1107.936564 494.751717 
L 1109.766406 426.820958 
L 1111.596247 463.214903 
L 1113.426089 415.435554 
L 1115.25593 495.886752 
L 1117.085772 471.939264 
L 1118.915613 507.757989 
L 1120.745455 511.176443 
L 1120.745455 511.176443 
" clip-path="url(#p0771646776)" style="fill: none; stroke: #8fbc8f; stroke-linecap: square"/>
   </g>
   <g id="patch_3">
    <path d="M 162 768.96 
L 162 103.68 
" style="fill: none; stroke: #000000; stroke-width: 0.8; stroke-linejoin: miter; stroke-linecap: square"/>
   </g>
   <g id="patch_4">
    <path d="M 1166.4 768.96 
L 1166.4 103.68 
" style="fill: none; stroke: #000000; stroke-width: 0.8; stroke-linejoin: miter; stroke-linecap: square"/>
   </g>
   <g id="patch_5">
    <path d="M 162 768.96 
L 1166.4 768.96 
" style="fill: none; stroke: #000000; stroke-width: 0.8; stroke-linejoin: miter; stroke-linecap: square"/>
   </g>
   <g id="patch_6">
    <path d="M 162 103.68 
L 1166.4 103.68 
" style="fill: none; stroke: #000000; stroke-width: 0.8; stroke-linejoin: miter; stroke-linecap: square"/>
   </g>
   <g id="text_12">
    <!-- Function 1 -->
    <g transform="translate(632.957813 97.68) scale(0.12 -0.12)">
     <defs>
      <path id="DejaVuSans-46" d="M 628 4666 
L 3309 4666 
L 3309 4134 
L 1259 4134 
L 1259 2759 
L 3109 2759 
L 3109 2228 
L 1259 2228 
L 1259 0 
L 628 0 
L 628 4666 
z
" transform="scale(0.015625)"/>
      <path id="DejaVuSans-75" d="M 544 1381 
L 544 3500 
L 1119 3500 
L 1119 1403 
Q 1119 906 1312 657 
Q 1506 409 1894 409 
Q 2359 409 2629 706 
Q 2900 1003 2900 1516 
L 2900 3500 
L 3475 3500 
L 3475 0 
L 2900 0 
L 2900 538 
Q 2691 219 2414 64 
Q 2138 -91 1772 -91 
Q 1169 -91 856 284 
Q 544 659 544 1381 
z
M 1991 3584 
L 1991 3584 
z
" transform="scale(0.015625)"/>
      <path id="DejaVuSans-6e" d="M 3513 2113 
L 3513 0 
L 2938 0 
L 2938 2094 
Q 2938 2591 2744 2837 
Q 2550 3084 2163 3084 
Q 1697 3084 1428 2787 
Q 1159 2491 1159 1978 
L 1159 0 
L 581 0 
L 581 3500 
L 1159 3500 
L 1159 2956 
Q 1366 3272 1645 3428 
Q 1925 3584 2291 3584 
Q 2894 3584 3203 3211 
Q 3513 2838 3513 2113 
z
" transform="scale(0.015625)"/>
      <path id="DejaVuSans-63" d="M 3122 3366 
L 3122 2828 
Q 2878 2963 2633 3030 
Q 2388 3097 2138 3097 
Q 1578 3097 1268 2742 
Q 959 2388 959 1747 
Q 959 1106 1268 751 
Q 1578 397 2138 397 
Q 2388 397 2633 464 
Q 2878 531 3122 666 
L 3122 134 
Q 2881 22 2623 -34 
Q 2366 -91 2075 -91 
Q 1284 -91 818 406 
Q 353 903 353 1747 
Q 353 2603 823 3093 
Q 1294 3584 2113 3584 
Q 2378 3584 2631 3529 
Q 2884 3475 3122 3366 
z
" transform="scale(0.015625)"/>
      <path id="DejaVuSans-74" d="M 1172 4494 
L 1172 3500 
L 2356 3500 
L 2356 3053 
L 1172 3053 
L 1172 1153 
Q 1172 725 1289 603 
Q 1406 481 1766 481 
L 2356 481 
L 2356 0 
L 1766 0 
Q 1100 0 847 248 
Q 594 497 594 1153 
L 594 3053 
L 172 3053 
L 172 3500 
L 594 3500 
L 594 4494 
L 1172 4494 
z
" transform="scale(0.015625)"/>
      <path id="DejaVuSans-69" d="M 603 3500 
L 1178 3500 
L 1178 0 
L 603 0 
L 603 3500 
z
M 603 4863 
L 1178 4863 
L 1178 4134 
L 603 4134 
L 603 4863 
z
" transform="scale(0.015625)"/>
      <path id="DejaVuSans-6f" d="M 1959 3097 
Q 1497 3097 1228 2736 
Q 959 2375 959 1747 
Q 959 1119 1226 758 
Q 1494 397 1959 397 
Q 2419 397 2687 759 
Q 2956 1122 2956 1747 
Q 2956 2369 2687 2733 
Q 2419 3097 1959 3097 
z
M 1959 3584 
Q 2709 3584 3137 3096 
Q 3566 2609 3566 1747 
Q 3566 888 3137 398 
Q 2709 -91 1959 -91 
Q 1206 -91 779 398 
Q 353 888 353 1747 
Q 353 2609 779 3096 
Q 1206 3584 1959 3584 
z
" transform="scale(0.015625)"/>
      <path id="DejaVuSans-20" transform="scale(0.015625)"/>
     </defs>
     <use xlink:href="#DejaVuSans-46"/>
     <use xlink:href="#DejaVuSans-75" x="52.019531"/>
     <use xlink:href="#DejaVuSans-6e" x="115.398438"/>
     <use xlink:href="#DejaVuSans-63" x="178.777344"/>
     <use xlink:href="#DejaVuSans-74" x="233.757812"/>
     <use xlink:href="#DejaVuSans-69" x="272.966797"/>
     <use xlink:href="#DejaVuSans-6f" x="300.75"/>
     <use xlink:href="#DejaVuSans-6e" x="361.931641"/>
     <use xlink:href="#DejaVuSans-20" x="425.310547"/>
     <use xlink:href="#DejaVuSans-31" x="457.097656"/>
    </g>
   </g>
   <g id="legend_1">
    <g id="patch_7">
     <path d="M 1011.90625 170.3925 
L 1159.4 170.3925 
Q 1161.4 170.3925 1161.4 168.3925 
L 1161.4 110.68 
Q 1161.4 108.68 1159.4 108.68 
L 1011.90625 108.68 
Q 1009.90625 108.68 1009.90625 110.68 
L 1009.90625 168.3925 
Q 1009.90625 170.3925 1011.90625 170.3925 
z
" style="fill: #ffffff; opacity: 0.8; stroke: #cccccc; stroke-linejoin: miter"/>
    </g>
    <g id="line2d_16">
     <path d="M 1013.90625 116.778437 
L 1023.90625 116.778437 
L 1033.90625 116.778437 
" style="fill: none; stroke: #4169e1; stroke-linecap: square"/>
    </g>
    <g id="text_13">
     <!-- Truth -->
     <g transform="translate(1041.90625 120.278437) scale(0.1 -0.1)">
      <defs>
       <path id="DejaVuSans-54" d="M -19 4666 
L 3928 4666 
L 3928 4134 
L 2272 4134 
L 2272 0 
L 1638 0 
L 1638 4134 
L -19 4134 
L -19 4666 
z
" transform="scale(0.015625)"/>
       <path id="DejaVuSans-72" d="M 2631 2963 
Q 2534 3019 2420 3045 
Q 2306 3072 2169 3072 
Q 1681 3072 1420 2755 
Q 1159 2438 1159 1844 
L 1159 0 
L 581 0 
L 581 3500 
L 1159 3500 
L 1159 2956 
Q 1341 3275 1631 3429 
Q 1922 3584 2338 3584 
Q 2397 3584 2469 3576 
Q 2541 3569 2628 3553 
L 2631 2963 
z
" transform="scale(0.015625)"/>
       <path id="DejaVuSans-68" d="M 3513 2113 
L 3513 0 
L 2938 0 
L 2938 2094 
Q 2938 2591 2744 2837 
Q 2550 3084 2163 3084 
Q 1697 3084 1428 2787 
Q 1159 2491 1159 1978 
L 1159 0 
L 581 0 
L 581 4863 
L 1159 4863 
L 1159 2956 
Q 1366 3272 1645 3428 
Q 1925 3584 2291 3584 
Q 2894 3584 3203 3211 
Q 3513 2838 3513 2113 
z
" transform="scale(0.015625)"/>
      </defs>
      <use xlink:href="#DejaVuSans-54"/>
      <use xlink:href="#DejaVuSans-72" x="46.333984"/>
      <use xlink:href="#DejaVuSans-75" x="87.447266"/>
      <use xlink:href="#DejaVuSans-74" x="150.826172"/>
      <use xlink:href="#DejaVuSans-68" x="190.035156"/>
     </g>
    </g>
    <g id="line2d_17">
     <path d="M 1013.90625 131.456562 
L 1023.90625 131.456562 
L 1033.90625 131.456562 
" style="fill: none; stroke: #ff6347; stroke-linecap: square"/>
    </g>
    <g id="text_14">
     <!-- Gossip predictions -->
     <g transform="translate(1041.90625 134.956562) scale(0.1 -0.1)">
      <defs>
       <path id="DejaVuSans-47" d="M 3809 666 
L 3809 1919 
L 2778 1919 
L 2778 2438 
L 4434 2438 
L 4434 434 
Q 4069 175 3628 42 
Q 3188 -91 2688 -91 
Q 1594 -91 976 548 
Q 359 1188 359 2328 
Q 359 3472 976 4111 
Q 1594 4750 2688 4750 
Q 3144 4750 3555 4637 
Q 3966 4525 4313 4306 
L 4313 3634 
Q 3963 3931 3569 4081 
Q 3175 4231 2741 4231 
Q 1884 4231 1454 3753 
Q 1025 3275 1025 2328 
Q 1025 1384 1454 906 
Q 1884 428 2741 428 
Q 3075 428 3337 486 
Q 3600 544 3809 666 
z
" transform="scale(0.015625)"/>
       <path id="DejaVuSans-73" d="M 2834 3397 
L 2834 2853 
Q 2591 2978 2328 3040 
Q 2066 3103 1784 3103 
Q 1356 3103 1142 2972 
Q 928 2841 928 2578 
Q 928 2378 1081 2264 
Q 1234 2150 1697 2047 
L 1894 2003 
Q 2506 1872 2764 1633 
Q 3022 1394 3022 966 
Q 3022 478 2636 193 
Q 2250 -91 1575 -91 
Q 1294 -91 989 -36 
Q 684 19 347 128 
L 347 722 
Q 666 556 975 473 
Q 1284 391 1588 391 
Q 1994 391 2212 530 
Q 2431 669 2431 922 
Q 2431 1156 2273 1281 
Q 2116 1406 1581 1522 
L 1381 1569 
Q 847 1681 609 1914 
Q 372 2147 372 2553 
Q 372 3047 722 3315 
Q 1072 3584 1716 3584 
Q 2034 3584 2315 3537 
Q 2597 3491 2834 3397 
z
" transform="scale(0.015625)"/>
       <path id="DejaVuSans-70" d="M 1159 525 
L 1159 -1331 
L 581 -1331 
L 581 3500 
L 1159 3500 
L 1159 2969 
Q 1341 3281 1617 3432 
Q 1894 3584 2278 3584 
Q 2916 3584 3314 3078 
Q 3713 2572 3713 1747 
Q 3713 922 3314 415 
Q 2916 -91 2278 -91 
Q 1894 -91 1617 61 
Q 1341 213 1159 525 
z
M 3116 1747 
Q 3116 2381 2855 2742 
Q 2594 3103 2138 3103 
Q 1681 3103 1420 2742 
Q 1159 2381 1159 1747 
Q 1159 1113 1420 752 
Q 1681 391 2138 391 
Q 2594 391 2855 752 
Q 3116 1113 3116 1747 
z
" transform="scale(0.015625)"/>
       <path id="DejaVuSans-65" d="M 3597 1894 
L 3597 1613 
L 953 1613 
Q 991 1019 1311 708 
Q 1631 397 2203 397 
Q 2534 397 2845 478 
Q 3156 559 3463 722 
L 3463 178 
Q 3153 47 2828 -22 
Q 2503 -91 2169 -91 
Q 1331 -91 842 396 
Q 353 884 353 1716 
Q 353 2575 817 3079 
Q 1281 3584 2069 3584 
Q 2775 3584 3186 3129 
Q 3597 2675 3597 1894 
z
M 3022 2063 
Q 3016 2534 2758 2815 
Q 2500 3097 2075 3097 
Q 1594 3097 1305 2825 
Q 1016 2553 972 2059 
L 3022 2063 
z
" transform="scale(0.015625)"/>
       <path id="DejaVuSans-64" d="M 2906 2969 
L 2906 4863 
L 3481 4863 
L 3481 0 
L 2906 0 
L 2906 525 
Q 2725 213 2448 61 
Q 2172 -91 1784 -91 
Q 1150 -91 751 415 
Q 353 922 353 1747 
Q 353 2572 751 3078 
Q 1150 3584 1784 3584 
Q 2172 3584 2448 3432 
Q 2725 3281 2906 2969 
z
M 947 1747 
Q 947 1113 1208 752 
Q 1469 391 1925 391 
Q 2381 391 2643 752 
Q 2906 1113 2906 1747 
Q 2906 2381 2643 2742 
Q 2381 3103 1925 3103 
Q 1469 3103 1208 2742 
Q 947 2381 947 1747 
z
" transform="scale(0.015625)"/>
      </defs>
      <use xlink:href="#DejaVuSans-47"/>
      <use xlink:href="#DejaVuSans-6f" x="77.490234"/>
      <use xlink:href="#DejaVuSans-73" x="138.671875"/>
      <use xlink:href="#DejaVuSans-73" x="190.771484"/>
      <use xlink:href="#DejaVuSans-69" x="242.871094"/>
      <use xlink:href="#DejaVuSans-70" x="270.654297"/>
      <use xlink:href="#DejaVuSans-20" x="334.130859"/>
      <use xlink:href="#DejaVuSans-70" x="365.917969"/>
      <use xlink:href="#DejaVuSans-72" x="429.394531"/>
      <use xlink:href="#DejaVuSans-65" x="468.257812"/>
      <use xlink:href="#DejaVuSans-64" x="529.78125"/>
      <use xlink:href="#DejaVuSans-69" x="593.257812"/>
      <use xlink:href="#DejaVuSans-63" x="621.041016"/>
      <use xlink:href="#DejaVuSans-74" x="676.021484"/>
      <use xlink:href="#DejaVuSans-69" x="715.230469"/>
      <use xlink:href="#DejaVuSans-6f" x="743.013672"/>
      <use xlink:href="#DejaVuSans-6e" x="804.195312"/>
      <use xlink:href="#DejaVuSans-73" x="867.574219"/>
     </g>
    </g>
    <g id="line2d_18">
     <path d="M 1013.90625 146.134687 
L 1023.90625 146.134687 
L 1033.90625 146.134687 
" style="fill: none; stroke: #da70d6; stroke-linecap: square"/>
    </g>
    <g id="text_15">
     <!-- Centralized predictions -->
     <g transform="translate(1041.90625 149.634687) scale(0.1 -0.1)">
      <defs>
       <path id="DejaVuSans-43" d="M 4122 4306 
L 4122 3641 
Q 3803 3938 3442 4084 
Q 3081 4231 2675 4231 
Q 1875 4231 1450 3742 
Q 1025 3253 1025 2328 
Q 1025 1406 1450 917 
Q 1875 428 2675 428 
Q 3081 428 3442 575 
Q 3803 722 4122 1019 
L 4122 359 
Q 3791 134 3420 21 
Q 3050 -91 2638 -91 
Q 1578 -91 968 557 
Q 359 1206 359 2328 
Q 359 3453 968 4101 
Q 1578 4750 2638 4750 
Q 3056 4750 3426 4639 
Q 3797 4528 4122 4306 
z
" transform="scale(0.015625)"/>
       <path id="DejaVuSans-61" d="M 2194 1759 
Q 1497 1759 1228 1600 
Q 959 1441 959 1056 
Q 959 750 1161 570 
Q 1363 391 1709 391 
Q 2188 391 2477 730 
Q 2766 1069 2766 1631 
L 2766 1759 
L 2194 1759 
z
M 3341 1997 
L 3341 0 
L 2766 0 
L 2766 531 
Q 2569 213 2275 61 
Q 1981 -91 1556 -91 
Q 1019 -91 701 211 
Q 384 513 384 1019 
Q 384 1609 779 1909 
Q 1175 2209 1959 2209 
L 2766 2209 
L 2766 2266 
Q 2766 2663 2505 2880 
Q 2244 3097 1772 3097 
Q 1472 3097 1187 3025 
Q 903 2953 641 2809 
L 641 3341 
Q 956 3463 1253 3523 
Q 1550 3584 1831 3584 
Q 2591 3584 2966 3190 
Q 3341 2797 3341 1997 
z
" transform="scale(0.015625)"/>
       <path id="DejaVuSans-6c" d="M 603 4863 
L 1178 4863 
L 1178 0 
L 603 0 
L 603 4863 
z
" transform="scale(0.015625)"/>
       <path id="DejaVuSans-7a" d="M 353 3500 
L 3084 3500 
L 3084 2975 
L 922 459 
L 3084 459 
L 3084 0 
L 275 0 
L 275 525 
L 2438 3041 
L 353 3041 
L 353 3500 
z
" transform="scale(0.015625)"/>
      </defs>
      <use xlink:href="#DejaVuSans-43"/>
      <use xlink:href="#DejaVuSans-65" x="69.824219"/>
      <use xlink:href="#DejaVuSans-6e" x="131.347656"/>
      <use xlink:href="#DejaVuSans-74" x="194.726562"/>
      <use xlink:href="#DejaVuSans-72" x="233.935547"/>
      <use xlink:href="#DejaVuSans-61" x="275.048828"/>
      <use xlink:href="#DejaVuSans-6c" x="336.328125"/>
      <use xlink:href="#DejaVuSans-69" x="364.111328"/>
      <use xlink:href="#DejaVuSans-7a" x="391.894531"/>
      <use xlink:href="#DejaVuSans-65" x="444.384766"/>
      <use xlink:href="#DejaVuSans-64" x="505.908203"/>
      <use xlink:href="#DejaVuSans-20" x="569.384766"/>
      <use xlink:href="#DejaVuSans-70" x="601.171875"/>
      <use xlink:href="#DejaVuSans-72" x="664.648438"/>
      <use xlink:href="#DejaVuSans-65" x="703.511719"/>
      <use xlink:href="#DejaVuSans-64" x="765.035156"/>
      <use xlink:href="#DejaVuSans-69" x="828.511719"/>
      <use xlink:href="#DejaVuSans-63" x="856.294922"/>
      <use xlink:href="#DejaVuSans-74" x="911.275391"/>
      <use xlink:href="#DejaVuSans-69" x="950.484375"/>
      <use xlink:href="#DejaVuSans-6f" x="978.267578"/>
      <use xlink:href="#DejaVuSans-6e" x="1039.449219"/>
      <use xlink:href="#DejaVuSans-73" x="1102.828125"/>
     </g>
    </g>
    <g id="line2d_19">
     <path d="M 1013.90625 160.812812 
L 1023.90625 160.812812 
L 1033.90625 160.812812 
" style="fill: none; stroke: #8fbc8f; stroke-linecap: square"/>
    </g>
    <g id="text_16">
     <!-- Single predictions -->
     <g transform="translate(1041.90625 164.312812) scale(0.1 -0.1)">
      <defs>
       <path id="DejaVuSans-53" d="M 3425 4513 
L 3425 3897 
Q 3066 4069 2747 4153 
Q 2428 4238 2131 4238 
Q 1616 4238 1336 4038 
Q 1056 3838 1056 3469 
Q 1056 3159 1242 3001 
Q 1428 2844 1947 2747 
L 2328 2669 
Q 3034 2534 3370 2195 
Q 3706 1856 3706 1288 
Q 3706 609 3251 259 
Q 2797 -91 1919 -91 
Q 1588 -91 1214 -16 
Q 841 59 441 206 
L 441 856 
Q 825 641 1194 531 
Q 1563 422 1919 422 
Q 2459 422 2753 634 
Q 3047 847 3047 1241 
Q 3047 1584 2836 1778 
Q 2625 1972 2144 2069 
L 1759 2144 
Q 1053 2284 737 2584 
Q 422 2884 422 3419 
Q 422 4038 858 4394 
Q 1294 4750 2059 4750 
Q 2388 4750 2728 4690 
Q 3069 4631 3425 4513 
z
" transform="scale(0.015625)"/>
       <path id="DejaVuSans-67" d="M 2906 1791 
Q 2906 2416 2648 2759 
Q 2391 3103 1925 3103 
Q 1463 3103 1205 2759 
Q 947 2416 947 1791 
Q 947 1169 1205 825 
Q 1463 481 1925 481 
Q 2391 481 2648 825 
Q 2906 1169 2906 1791 
z
M 3481 434 
Q 3481 -459 3084 -895 
Q 2688 -1331 1869 -1331 
Q 1566 -1331 1297 -1286 
Q 1028 -1241 775 -1147 
L 775 -588 
Q 1028 -725 1275 -790 
Q 1522 -856 1778 -856 
Q 2344 -856 2625 -561 
Q 2906 -266 2906 331 
L 2906 616 
Q 2728 306 2450 153 
Q 2172 0 1784 0 
Q 1141 0 747 490 
Q 353 981 353 1791 
Q 353 2603 747 3093 
Q 1141 3584 1784 3584 
Q 2172 3584 2450 3431 
Q 2728 3278 2906 2969 
L 2906 3500 
L 3481 3500 
L 3481 434 
z
" transform="scale(0.015625)"/>
      </defs>
      <use xlink:href="#DejaVuSans-53"/>
      <use xlink:href="#DejaVuSans-69" x="63.476562"/>
      <use xlink:href="#DejaVuSans-6e" x="91.259766"/>
      <use xlink:href="#DejaVuSans-67" x="154.638672"/>
      <use xlink:href="#DejaVuSans-6c" x="218.115234"/>
      <use xlink:href="#DejaVuSans-65" x="245.898438"/>
      <use xlink:href="#DejaVuSans-20" x="307.421875"/>
      <use xlink:href="#DejaVuSans-70" x="339.208984"/>
      <use xlink:href="#DejaVuSans-72" x="402.685547"/>
      <use xlink:href="#DejaVuSans-65" x="441.548828"/>
      <use xlink:href="#DejaVuSans-64" x="503.072266"/>
      <use xlink:href="#DejaVuSans-69" x="566.548828"/>
      <use xlink:href="#DejaVuSans-63" x="594.332031"/>
      <use xlink:href="#DejaVuSans-74" x="649.3125"/>
      <use xlink:href="#DejaVuSans-69" x="688.521484"/>
      <use xlink:href="#DejaVuSans-6f" x="716.304688"/>
      <use xlink:href="#DejaVuSans-6e" x="777.486328"/>
      <use xlink:href="#DejaVuSans-73" x="840.865234"/>
     </g>
    </g>
   </g>
  </g>
 </g>
 <defs>
  <clipPath id="p0771646776">
   <rect x="162" y="103.68" width="1004.4" height="665.28"/>
  </clipPath>
 </defs>
</svg>
