<?xml version="1.0" encoding="utf-8" standalone="no"?>
<!DOCTYPE svg PUBLIC "-//W3C//DTD SVG 1.1//EN"
  "http://www.w3.org/Graphics/SVG/1.1/DTD/svg11.dtd">
<svg xmlns:xlink="http://www.w3.org/1999/xlink" width="576pt" height="432pt" viewBox="0 0 576 432" xmlns="http://www.w3.org/2000/svg" version="1.1">
 <metadata>
  <rdf:RDF xmlns:dc="http://purl.org/dc/elements/1.1/" xmlns:cc="http://creativecommons.org/ns#" xmlns:rdf="http://www.w3.org/1999/02/22-rdf-syntax-ns#">
   <cc:Work>
    <dc:type rdf:resource="http://purl.org/dc/dcmitype/StillImage"/>
    <dc:date>2023-12-24T18:22:15.323588</dc:date>
    <dc:format>image/svg+xml</dc:format>
    <dc:creator>
     <cc:Agent>
      <dc:title>Matplotlib v3.8.0, https://matplotlib.org/</dc:title>
     </cc:Agent>
    </dc:creator>
   </cc:Work>
  </rdf:RDF>
 </metadata>
 <defs>
  <style type="text/css">*{stroke-linejoin: round; stroke-linecap: butt}</style>
 </defs>
 <g id="figure_1">
  <g id="patch_1">
   <path d="M 0 432 
L 576 432 
L 576 0 
L 0 0 
z
" style="fill: #ffffff"/>
  </g>
  <g id="axes_1">
   <g id="patch_2">
    <path d="M 72 384.48 
L 518.4 384.48 
L 518.4 51.84 
L 72 51.84 
z
" style="fill: #ffffff"/>
   </g>
   <g id="matplotlib.axis_1">
    <g id="xtick_1">
     <g id="line2d_1">
      <defs>
       <path id="m1d5f5bfedc" d="M 0 0 
L 0 3.5 
" style="stroke: #000000; stroke-width: 0.8"/>
      </defs>
      <g>
       <use xlink:href="#m1d5f5bfedc" x="92.290909" y="384.48" style="stroke: #000000; stroke-width: 0.8"/>
      </g>
     </g>
     <g id="text_1">
      <!-- 0 -->
      <g transform="translate(89.109659 399.078438) scale(0.1 -0.1)">
       <defs>
        <path id="DejaVuSans-30" d="M 2034 4250 
Q 1547 4250 1301 3770 
Q 1056 3291 1056 2328 
Q 1056 1369 1301 889 
Q 1547 409 2034 409 
Q 2525 409 2770 889 
Q 3016 1369 3016 2328 
Q 3016 3291 2770 3770 
Q 2525 4250 2034 4250 
z
M 2034 4750 
Q 2819 4750 3233 4129 
Q 3647 3509 3647 2328 
Q 3647 1150 3233 529 
Q 2819 -91 2034 -91 
Q 1250 -91 836 529 
Q 422 1150 422 2328 
Q 422 3509 836 4129 
Q 1250 4750 2034 4750 
z
" transform="scale(0.015625)"/>
       </defs>
       <use xlink:href="#DejaVuSans-30"/>
      </g>
     </g>
    </g>
    <g id="xtick_2">
     <g id="line2d_2">
      <g>
       <use xlink:href="#m1d5f5bfedc" x="173.780504" y="384.48" style="stroke: #000000; stroke-width: 0.8"/>
      </g>
     </g>
     <g id="text_2">
      <!-- 50 -->
      <g transform="translate(167.418004 399.078438) scale(0.1 -0.1)">
       <defs>
        <path id="DejaVuSans-35" d="M 691 4666 
L 3169 4666 
L 3169 4134 
L 1269 4134 
L 1269 2991 
Q 1406 3038 1543 3061 
Q 1681 3084 1819 3084 
Q 2600 3084 3056 2656 
Q 3513 2228 3513 1497 
Q 3513 744 3044 326 
Q 2575 -91 1722 -91 
Q 1428 -91 1123 -41 
Q 819 9 494 109 
L 494 744 
Q 775 591 1075 516 
Q 1375 441 1709 441 
Q 2250 441 2565 725 
Q 2881 1009 2881 1497 
Q 2881 1984 2565 2268 
Q 2250 2553 1709 2553 
Q 1456 2553 1204 2497 
Q 953 2441 691 2322 
L 691 4666 
z
" transform="scale(0.015625)"/>
       </defs>
       <use xlink:href="#DejaVuSans-35"/>
       <use xlink:href="#DejaVuSans-30" x="63.623047"/>
      </g>
     </g>
    </g>
    <g id="xtick_3">
     <g id="line2d_3">
      <g>
       <use xlink:href="#m1d5f5bfedc" x="255.270099" y="384.48" style="stroke: #000000; stroke-width: 0.8"/>
      </g>
     </g>
     <g id="text_3">
      <!-- 100 -->
      <g transform="translate(245.726349 399.078438) scale(0.1 -0.1)">
       <defs>
        <path id="DejaVuSans-31" d="M 794 531 
L 1825 531 
L 1825 4091 
L 703 3866 
L 703 4441 
L 1819 4666 
L 2450 4666 
L 2450 531 
L 3481 531 
L 3481 0 
L 794 0 
L 794 531 
z
" transform="scale(0.015625)"/>
       </defs>
       <use xlink:href="#DejaVuSans-31"/>
       <use xlink:href="#DejaVuSans-30" x="63.623047"/>
       <use xlink:href="#DejaVuSans-30" x="127.246094"/>
      </g>
     </g>
    </g>
    <g id="xtick_4">
     <g id="line2d_4">
      <g>
       <use xlink:href="#m1d5f5bfedc" x="336.759693" y="384.48" style="stroke: #000000; stroke-width: 0.8"/>
      </g>
     </g>
     <g id="text_4">
      <!-- 150 -->
      <g transform="translate(327.215943 399.078438) scale(0.1 -0.1)">
       <use xlink:href="#DejaVuSans-31"/>
       <use xlink:href="#DejaVuSans-35" x="63.623047"/>
       <use xlink:href="#DejaVuSans-30" x="127.246094"/>
      </g>
     </g>
    </g>
    <g id="xtick_5">
     <g id="line2d_5">
      <g>
       <use xlink:href="#m1d5f5bfedc" x="418.249288" y="384.48" style="stroke: #000000; stroke-width: 0.8"/>
      </g>
     </g>
     <g id="text_5">
      <!-- 200 -->
      <g transform="translate(408.705538 399.078438) scale(0.1 -0.1)">
       <defs>
        <path id="DejaVuSans-32" d="M 1228 531 
L 3431 531 
L 3431 0 
L 469 0 
L 469 531 
Q 828 903 1448 1529 
Q 2069 2156 2228 2338 
Q 2531 2678 2651 2914 
Q 2772 3150 2772 3378 
Q 2772 3750 2511 3984 
Q 2250 4219 1831 4219 
Q 1534 4219 1204 4116 
Q 875 4013 500 3803 
L 500 4441 
Q 881 4594 1212 4672 
Q 1544 4750 1819 4750 
Q 2544 4750 2975 4387 
Q 3406 4025 3406 3419 
Q 3406 3131 3298 2873 
Q 3191 2616 2906 2266 
Q 2828 2175 2409 1742 
Q 1991 1309 1228 531 
z
" transform="scale(0.015625)"/>
       </defs>
       <use xlink:href="#DejaVuSans-32"/>
       <use xlink:href="#DejaVuSans-30" x="63.623047"/>
       <use xlink:href="#DejaVuSans-30" x="127.246094"/>
      </g>
     </g>
    </g>
    <g id="xtick_6">
     <g id="line2d_6">
      <g>
       <use xlink:href="#m1d5f5bfedc" x="499.738883" y="384.48" style="stroke: #000000; stroke-width: 0.8"/>
      </g>
     </g>
     <g id="text_6">
      <!-- 250 -->
      <g transform="translate(490.195133 399.078438) scale(0.1 -0.1)">
       <use xlink:href="#DejaVuSans-32"/>
       <use xlink:href="#DejaVuSans-35" x="63.623047"/>
       <use xlink:href="#DejaVuSans-30" x="127.246094"/>
      </g>
     </g>
    </g>
    <g id="text_7">
     <!-- Epochs -->
     <g transform="translate(277.284375 412.756563) scale(0.1 -0.1)">
      <defs>
       <path id="DejaVuSans-45" d="M 628 4666 
L 3578 4666 
L 3578 4134 
L 1259 4134 
L 1259 2753 
L 3481 2753 
L 3481 2222 
L 1259 2222 
L 1259 531 
L 3634 531 
L 3634 0 
L 628 0 
L 628 4666 
z
" transform="scale(0.015625)"/>
       <path id="DejaVuSans-70" d="M 1159 525 
L 1159 -1331 
L 581 -1331 
L 581 3500 
L 1159 3500 
L 1159 2969 
Q 1341 3281 1617 3432 
Q 1894 3584 2278 3584 
Q 2916 3584 3314 3078 
Q 3713 2572 3713 1747 
Q 3713 922 3314 415 
Q 2916 -91 2278 -91 
Q 1894 -91 1617 61 
Q 1341 213 1159 525 
z
M 3116 1747 
Q 3116 2381 2855 2742 
Q 2594 3103 2138 3103 
Q 1681 3103 1420 2742 
Q 1159 2381 1159 1747 
Q 1159 1113 1420 752 
Q 1681 391 2138 391 
Q 2594 391 2855 752 
Q 3116 1113 3116 1747 
z
" transform="scale(0.015625)"/>
       <path id="DejaVuSans-6f" d="M 1959 3097 
Q 1497 3097 1228 2736 
Q 959 2375 959 1747 
Q 959 1119 1226 758 
Q 1494 397 1959 397 
Q 2419 397 2687 759 
Q 2956 1122 2956 1747 
Q 2956 2369 2687 2733 
Q 2419 3097 1959 3097 
z
M 1959 3584 
Q 2709 3584 3137 3096 
Q 3566 2609 3566 1747 
Q 3566 888 3137 398 
Q 2709 -91 1959 -91 
Q 1206 -91 779 398 
Q 353 888 353 1747 
Q 353 2609 779 3096 
Q 1206 3584 1959 3584 
z
" transform="scale(0.015625)"/>
       <path id="DejaVuSans-63" d="M 3122 3366 
L 3122 2828 
Q 2878 2963 2633 3030 
Q 2388 3097 2138 3097 
Q 1578 3097 1268 2742 
Q 959 2388 959 1747 
Q 959 1106 1268 751 
Q 1578 397 2138 397 
Q 2388 397 2633 464 
Q 2878 531 3122 666 
L 3122 134 
Q 2881 22 2623 -34 
Q 2366 -91 2075 -91 
Q 1284 -91 818 406 
Q 353 903 353 1747 
Q 353 2603 823 3093 
Q 1294 3584 2113 3584 
Q 2378 3584 2631 3529 
Q 2884 3475 3122 3366 
z
" transform="scale(0.015625)"/>
       <path id="DejaVuSans-68" d="M 3513 2113 
L 3513 0 
L 2938 0 
L 2938 2094 
Q 2938 2591 2744 2837 
Q 2550 3084 2163 3084 
Q 1697 3084 1428 2787 
Q 1159 2491 1159 1978 
L 1159 0 
L 581 0 
L 581 4863 
L 1159 4863 
L 1159 2956 
Q 1366 3272 1645 3428 
Q 1925 3584 2291 3584 
Q 2894 3584 3203 3211 
Q 3513 2838 3513 2113 
z
" transform="scale(0.015625)"/>
       <path id="DejaVuSans-73" d="M 2834 3397 
L 2834 2853 
Q 2591 2978 2328 3040 
Q 2066 3103 1784 3103 
Q 1356 3103 1142 2972 
Q 928 2841 928 2578 
Q 928 2378 1081 2264 
Q 1234 2150 1697 2047 
L 1894 2003 
Q 2506 1872 2764 1633 
Q 3022 1394 3022 966 
Q 3022 478 2636 193 
Q 2250 -91 1575 -91 
Q 1294 -91 989 -36 
Q 684 19 347 128 
L 347 722 
Q 666 556 975 473 
Q 1284 391 1588 391 
Q 1994 391 2212 530 
Q 2431 669 2431 922 
Q 2431 1156 2273 1281 
Q 2116 1406 1581 1522 
L 1381 1569 
Q 847 1681 609 1914 
Q 372 2147 372 2553 
Q 372 3047 722 3315 
Q 1072 3584 1716 3584 
Q 2034 3584 2315 3537 
Q 2597 3491 2834 3397 
z
" transform="scale(0.015625)"/>
      </defs>
      <use xlink:href="#DejaVuSans-45"/>
      <use xlink:href="#DejaVuSans-70" x="63.183594"/>
      <use xlink:href="#DejaVuSans-6f" x="126.660156"/>
      <use xlink:href="#DejaVuSans-63" x="187.841797"/>
      <use xlink:href="#DejaVuSans-68" x="242.822266"/>
      <use xlink:href="#DejaVuSans-73" x="306.201172"/>
     </g>
    </g>
   </g>
   <g id="matplotlib.axis_2">
    <g id="ytick_1">
     <g id="line2d_7">
      <defs>
       <path id="m7c12162e70" d="M 0 0 
L -3.5 0 
" style="stroke: #000000; stroke-width: 0.8"/>
      </defs>
      <g>
       <use xlink:href="#m7c12162e70" x="72" y="339.417763" style="stroke: #000000; stroke-width: 0.8"/>
      </g>
     </g>
     <g id="text_8">
      <!-- 150 -->
      <g transform="translate(45.9125 343.216981) scale(0.1 -0.1)">
       <use xlink:href="#DejaVuSans-31"/>
       <use xlink:href="#DejaVuSans-35" x="63.623047"/>
       <use xlink:href="#DejaVuSans-30" x="127.246094"/>
      </g>
     </g>
    </g>
    <g id="ytick_2">
     <g id="line2d_8">
      <g>
       <use xlink:href="#m7c12162e70" x="72" y="290.24323" style="stroke: #000000; stroke-width: 0.8"/>
      </g>
     </g>
     <g id="text_9">
      <!-- 200 -->
      <g transform="translate(45.9125 294.042449) scale(0.1 -0.1)">
       <use xlink:href="#DejaVuSans-32"/>
       <use xlink:href="#DejaVuSans-30" x="63.623047"/>
       <use xlink:href="#DejaVuSans-30" x="127.246094"/>
      </g>
     </g>
    </g>
    <g id="ytick_3">
     <g id="line2d_9">
      <g>
       <use xlink:href="#m7c12162e70" x="72" y="241.068698" style="stroke: #000000; stroke-width: 0.8"/>
      </g>
     </g>
     <g id="text_10">
      <!-- 250 -->
      <g transform="translate(45.9125 244.867917) scale(0.1 -0.1)">
       <use xlink:href="#DejaVuSans-32"/>
       <use xlink:href="#DejaVuSans-35" x="63.623047"/>
       <use xlink:href="#DejaVuSans-30" x="127.246094"/>
      </g>
     </g>
    </g>
    <g id="ytick_4">
     <g id="line2d_10">
      <g>
       <use xlink:href="#m7c12162e70" x="72" y="191.894166" style="stroke: #000000; stroke-width: 0.8"/>
      </g>
     </g>
     <g id="text_11">
      <!-- 300 -->
      <g transform="translate(45.9125 195.693385) scale(0.1 -0.1)">
       <defs>
        <path id="DejaVuSans-33" d="M 2597 2516 
Q 3050 2419 3304 2112 
Q 3559 1806 3559 1356 
Q 3559 666 3084 287 
Q 2609 -91 1734 -91 
Q 1441 -91 1130 -33 
Q 819 25 488 141 
L 488 750 
Q 750 597 1062 519 
Q 1375 441 1716 441 
Q 2309 441 2620 675 
Q 2931 909 2931 1356 
Q 2931 1769 2642 2001 
Q 2353 2234 1838 2234 
L 1294 2234 
L 1294 2753 
L 1863 2753 
Q 2328 2753 2575 2939 
Q 2822 3125 2822 3475 
Q 2822 3834 2567 4026 
Q 2313 4219 1838 4219 
Q 1578 4219 1281 4162 
Q 984 4106 628 3988 
L 628 4550 
Q 988 4650 1302 4700 
Q 1616 4750 1894 4750 
Q 2613 4750 3031 4423 
Q 3450 4097 3450 3541 
Q 3450 3153 3228 2886 
Q 3006 2619 2597 2516 
z
" transform="scale(0.015625)"/>
       </defs>
       <use xlink:href="#DejaVuSans-33"/>
       <use xlink:href="#DejaVuSans-30" x="63.623047"/>
       <use xlink:href="#DejaVuSans-30" x="127.246094"/>
      </g>
     </g>
    </g>
    <g id="ytick_5">
     <g id="line2d_11">
      <g>
       <use xlink:href="#m7c12162e70" x="72" y="142.719634" style="stroke: #000000; stroke-width: 0.8"/>
      </g>
     </g>
     <g id="text_12">
      <!-- 350 -->
      <g transform="translate(45.9125 146.518853) scale(0.1 -0.1)">
       <use xlink:href="#DejaVuSans-33"/>
       <use xlink:href="#DejaVuSans-35" x="63.623047"/>
       <use xlink:href="#DejaVuSans-30" x="127.246094"/>
      </g>
     </g>
    </g>
    <g id="ytick_6">
     <g id="line2d_12">
      <g>
       <use xlink:href="#m7c12162e70" x="72" y="93.545102" style="stroke: #000000; stroke-width: 0.8"/>
      </g>
     </g>
     <g id="text_13">
      <!-- 400 -->
      <g transform="translate(45.9125 97.34432) scale(0.1 -0.1)">
       <defs>
        <path id="DejaVuSans-34" d="M 2419 4116 
L 825 1625 
L 2419 1625 
L 2419 4116 
z
M 2253 4666 
L 3047 4666 
L 3047 1625 
L 3713 1625 
L 3713 1100 
L 3047 1100 
L 3047 0 
L 2419 0 
L 2419 1100 
L 313 1100 
L 313 1709 
L 2253 4666 
z
" transform="scale(0.015625)"/>
       </defs>
       <use xlink:href="#DejaVuSans-34"/>
       <use xlink:href="#DejaVuSans-30" x="63.623047"/>
       <use xlink:href="#DejaVuSans-30" x="127.246094"/>
      </g>
     </g>
    </g>
    <g id="text_14">
     <!-- Loss -->
     <g transform="translate(39.832812 229.127187) rotate(-90) scale(0.1 -0.1)">
      <defs>
       <path id="DejaVuSans-4c" d="M 628 4666 
L 1259 4666 
L 1259 531 
L 3531 531 
L 3531 0 
L 628 0 
L 628 4666 
z
" transform="scale(0.015625)"/>
      </defs>
      <use xlink:href="#DejaVuSans-4c"/>
      <use xlink:href="#DejaVuSans-6f" x="53.962891"/>
      <use xlink:href="#DejaVuSans-73" x="115.144531"/>
      <use xlink:href="#DejaVuSans-73" x="167.244141"/>
     </g>
    </g>
   </g>
   <g id="line2d_13">
    <path d="M 92.290909 66.96 
L 93.920701 292.058957 
L 95.550493 327.871802 
L 97.180285 328.981816 
L 98.810077 333.440539 
L 102.06966 335.179386 
L 103.699452 336.887243 
L 105.329244 334.443388 
L 106.959036 339.534516 
L 108.588828 338.907844 
L 110.21862 337.852425 
L 111.848412 339.852467 
L 113.478204 340.014946 
L 115.107996 340.988773 
L 116.737788 325.549338 
L 118.367579 339.038794 
L 119.997371 337.929111 
L 121.627163 340.379658 
L 123.256955 341.075197 
L 124.886747 338.154844 
L 126.516539 341.174137 
L 128.146331 340.701316 
L 129.776123 340.363991 
L 131.405915 341.931459 
L 133.035706 319.613008 
L 134.665498 333.925531 
L 136.29529 338.183822 
L 139.554874 342.457541 
L 141.184666 305.062221 
L 142.814458 338.913982 
L 144.44425 339.724548 
L 146.074042 338.470033 
L 147.703834 339.52122 
L 149.333625 330.128776 
L 150.963417 338.621408 
L 152.593209 339.159464 
L 154.223001 340.463937 
L 155.852793 343.109784 
L 157.482585 335.078644 
L 159.112377 342.27126 
L 160.742169 340.6882 
L 162.371961 341.678008 
L 164.001752 344.253729 
L 165.631544 333.73844 
L 167.261336 339.55353 
L 168.891128 339.01897 
L 170.52092 341.958532 
L 172.150712 342.033296 
L 173.780504 334.629083 
L 175.410296 338.92189 
L 177.040088 342.392261 
L 178.66988 342.749304 
L 180.299671 343.963646 
L 181.929463 336.794186 
L 183.559255 343.536145 
L 185.189047 341.890251 
L 186.818839 344.532346 
L 188.448631 346.587493 
L 190.078423 338.602274 
L 191.708215 339.435096 
L 193.338007 343.630463 
L 194.967798 342.674345 
L 196.59759 344.728666 
L 198.227382 345.094039 
L 199.857174 343.440911 
L 201.486966 343.155165 
L 203.116758 346.6361 
L 204.74655 346.99646 
L 206.376342 335.628526 
L 208.006134 342.101442 
L 209.635926 346.106778 
L 211.265717 346.523248 
L 212.895509 345.663775 
L 214.525301 339.611561 
L 216.155093 342.223658 
L 217.784885 343.207644 
L 219.414677 343.327759 
L 221.044469 344.171911 
L 222.674261 342.826905 
L 224.304053 345.460807 
L 225.933844 345.024377 
L 227.563636 345.64188 
L 229.193428 347.029445 
L 230.82322 337.030124 
L 232.453012 347.190139 
L 234.082804 345.634196 
L 235.712596 346.775964 
L 237.342388 347.034128 
L 238.97218 342.672034 
L 240.601972 342.384007 
L 242.231763 343.881123 
L 243.861555 345.660413 
L 245.491347 345.952777 
L 247.121139 342.724813 
L 250.380723 346.845761 
L 252.010515 346.13448 
L 253.640307 347.309414 
L 255.270099 340.867442 
L 256.89989 344.709622 
L 258.529682 345.341277 
L 260.159474 347.12564 
L 261.789266 346.465487 
L 263.419058 340.212032 
L 265.04885 346.55838 
L 266.678642 345.122402 
L 268.308434 347.854478 
L 269.938226 349.66941 
L 271.568018 345.163866 
L 273.197809 347.914251 
L 274.827601 350.373053 
L 276.457393 350.972742 
L 278.087185 349.191726 
L 279.716977 340.307295 
L 281.346769 345.399384 
L 282.976561 349.02581 
L 284.606353 348.94797 
L 286.236145 349.099359 
L 287.865936 342.68635 
L 289.495728 349.135856 
L 291.12552 347.762997 
L 292.755312 347.332539 
L 294.385104 350.74986 
L 296.014896 347.971262 
L 297.644688 349.289991 
L 299.27448 349.89882 
L 300.904272 350.852402 
L 302.534064 352.096157 
L 304.163855 349.351399 
L 305.793647 352.055278 
L 307.423439 351.881619 
L 309.053231 352.487401 
L 310.683023 354.573387 
L 312.312815 352.392843 
L 313.942607 353.936825 
L 315.572399 354.603821 
L 317.202191 355.110618 
L 318.831982 356.887868 
L 320.461774 354.140844 
L 322.091566 355.055198 
L 323.721358 355.012038 
L 325.35115 357.941831 
L 326.980942 357.926028 
L 328.610734 350.418658 
L 330.240526 352.882532 
L 331.870318 354.100445 
L 333.50011 354.976907 
L 335.129901 357.377977 
L 336.759693 354.608863 
L 338.389485 357.051563 
L 340.019277 356.564349 
L 341.649069 357.532308 
L 343.278861 357.935047 
L 344.908653 346.868962 
L 346.538445 354.983375 
L 348.168237 356.712842 
L 349.798028 357.905754 
L 351.42782 357.277806 
L 353.057612 354.974386 
L 356.317196 356.135588 
L 357.946988 359.075375 
L 359.57678 358.578092 
L 361.206572 350.745028 
L 362.836364 353.438552 
L 364.466156 353.243478 
L 366.095947 356.357134 
L 367.725739 356.806876 
L 369.355531 352.802921 
L 370.985323 355.438744 
L 372.615115 357.526335 
L 374.244907 357.006107 
L 375.874699 357.946183 
L 377.504491 346.879947 
L 379.134283 351.910702 
L 380.764074 353.612182 
L 384.023658 355.394068 
L 385.65345 351.439636 
L 387.283242 355.065313 
L 388.913034 355.609897 
L 390.542826 356.564244 
L 392.172618 356.815414 
L 393.80241 352.837557 
L 395.432202 357.594181 
L 397.061993 358.423461 
L 398.691785 359.837034 
L 400.321577 359.979254 
L 401.951369 353.26971 
L 403.581161 357.052433 
L 405.210953 357.55956 
L 406.840745 358.948402 
L 408.470537 359.312604 
L 410.100329 352.872988 
L 413.359912 357.682437 
L 414.989704 360.981233 
L 416.619496 360.555173 
L 418.249288 355.956001 
L 419.87908 358.981342 
L 421.508872 359.890353 
L 423.138664 361.045613 
L 424.768456 360.954941 
L 426.398248 351.836223 
L 428.028039 358.014614 
L 429.657831 360.519862 
L 431.287623 359.447305 
L 432.917415 359.831932 
L 434.547207 354.016062 
L 436.176999 359.54464 
L 437.806791 360.684877 
L 439.436583 359.35917 
L 441.066375 360.526735 
L 442.696166 358.713739 
L 444.325958 359.277157 
L 445.95575 361.363991 
L 447.585542 360.139272 
L 449.215334 362.172929 
L 450.845126 355.56072 
L 452.474918 358.173567 
L 454.10471 360.388312 
L 455.734502 361.130222 
L 457.364294 364.310936 
L 458.994085 355.011348 
L 460.623877 358.909789 
L 463.883461 360.839628 
L 465.513253 361.936616 
L 467.143045 356.678312 
L 468.772837 359.575464 
L 470.402629 361.991766 
L 472.032421 362.512347 
L 473.662212 362.329541 
L 475.292004 355.4955 
L 476.921796 361.390463 
L 478.551588 359.49102 
L 480.18138 361.606337 
L 481.811172 362.120098 
L 483.440964 354.64566 
L 485.070756 359.721556 
L 486.700548 361.002483 
L 488.33034 361.062601 
L 489.960131 362.845928 
L 491.589923 358.512557 
L 494.849507 362.319396 
L 496.479299 363.362697 
L 498.109091 366.045004 
L 498.109091 366.045004 
" clip-path="url(#p86d6d97e94)" style="fill: none; stroke: #4169e1; stroke-linecap: square"/>
   </g>
   <g id="line2d_14">
    <path d="M 92.290909 310.839808 
L 93.920701 355.629256 
L 95.550493 354.158717 
L 97.180285 353.536712 
L 98.810077 358.495629 
L 100.439869 361.624518 
L 102.06966 361.195637 
L 103.699452 360.38474 
L 105.329244 358.316852 
L 106.959036 360.82207 
L 108.588828 362.315637 
L 110.21862 360.539371 
L 111.848412 360.837903 
L 115.107996 362.440862 
L 116.737788 360.743044 
L 118.367579 360.718778 
L 119.997371 361.984856 
L 121.627163 362.473667 
L 123.256955 361.425249 
L 124.886747 361.264638 
L 126.516539 362.10867 
L 128.146331 361.714184 
L 129.776123 361.765155 
L 131.405915 362.271097 
L 133.035706 361.298696 
L 134.665498 361.674476 
L 136.29529 362.469083 
L 137.925082 361.77548 
L 141.184666 361.387327 
L 142.814458 360.754689 
L 144.44425 359.223883 
L 146.074042 360.272353 
L 147.703834 362.129454 
L 149.333625 357.803137 
L 150.963417 361.662283 
L 152.593209 360.069851 
L 154.223001 359.529813 
L 155.852793 361.815916 
L 157.482585 360.774619 
L 159.112377 362.376483 
L 160.742169 358.317423 
L 162.371961 361.097552 
L 164.001752 361.381962 
L 165.631544 358.901085 
L 167.261336 361.254268 
L 168.891128 359.613687 
L 170.52092 360.462521 
L 172.150712 355.182366 
L 175.410296 361.642091 
L 178.66988 357.903458 
L 180.299671 361.582146 
L 181.929463 359.789147 
L 183.559255 362.035106 
L 185.189047 362.066155 
L 186.818839 359.263261 
L 188.448631 362.80811 
L 190.078423 356.88203 
L 191.708215 361.357936 
L 193.338007 360.623724 
L 194.967798 360.794653 
L 196.59759 359.98152 
L 198.227382 358.911005 
L 199.857174 361.026614 
L 201.486966 361.598203 
L 203.116758 362.839257 
L 204.74655 362.193714 
L 206.376342 359.59832 
L 208.006134 361.85356 
L 209.635926 360.133165 
L 212.895509 362.346844 
L 214.525301 359.10848 
L 216.155093 361.899767 
L 217.784885 359.202468 
L 219.414677 359.31523 
L 221.044469 363.364543 
L 222.674261 362.058044 
L 224.304053 362.594833 
L 225.933844 361.521616 
L 227.563636 362.377541 
L 229.193428 362.700474 
L 230.82322 361.212302 
L 232.453012 361.437817 
L 234.082804 361.806124 
L 237.342388 361.646135 
L 238.97218 359.978534 
L 240.601972 361.58409 
L 242.231763 361.222109 
L 243.861555 362.619834 
L 245.491347 362.813753 
L 247.121139 361.07802 
L 248.750931 361.543241 
L 250.380723 360.804452 
L 252.010515 361.892301 
L 253.640307 360.331541 
L 255.270099 361.032347 
L 256.89989 358.95613 
L 258.529682 359.930797 
L 260.159474 357.206704 
L 261.789266 362.528825 
L 263.419058 360.649011 
L 265.04885 361.854889 
L 266.678642 361.037674 
L 268.308434 362.020752 
L 269.938226 362.358594 
L 271.568018 361.616549 
L 273.197809 361.531505 
L 274.827601 361.008651 
L 276.457393 359.897001 
L 278.087185 362.376242 
L 279.716977 360.538215 
L 281.346769 362.05382 
L 282.976561 361.271706 
L 284.606353 361.990288 
L 286.236145 360.233531 
L 291.12552 359.911348 
L 292.755312 362.111214 
L 294.385104 358.899975 
L 296.014896 363.056624 
L 297.644688 358.469532 
L 299.27448 362.098765 
L 300.904272 362.965255 
L 302.534064 363.500783 
L 304.163855 363.604443 
L 305.793647 363.430611 
L 307.423439 362.533837 
L 309.053231 363.885709 
L 310.683023 359.801978 
L 312.312815 363.627786 
L 313.942607 364.07388 
L 315.572399 365.052561 
L 317.202191 366.402812 
L 318.831982 367.020848 
L 320.461774 366.762482 
L 322.091566 365.338998 
L 323.721358 367.399562 
L 325.35115 365.842036 
L 326.980942 366.775823 
L 328.610734 365.149588 
L 330.240526 367.117267 
L 331.870318 363.99147 
L 333.50011 367.883181 
L 335.129901 366.879896 
L 336.759693 367.972952 
L 338.389485 367.257094 
L 340.019277 367.302137 
L 341.649069 366.044036 
L 343.278861 366.455667 
L 344.908653 364.212304 
L 346.538445 365.492218 
L 348.168237 365.755543 
L 349.798028 365.898619 
L 351.42782 366.269559 
L 353.057612 364.127785 
L 354.687404 366.233235 
L 356.317196 366.098803 
L 357.946988 367.755292 
L 359.57678 368.075351 
L 361.206572 363.949278 
L 362.836364 366.422149 
L 364.466156 366.917833 
L 366.095947 366.601946 
L 367.725739 367.548197 
L 369.355531 366.156977 
L 370.985323 364.144848 
L 372.615115 365.397007 
L 374.244907 367.139703 
L 375.874699 366.633356 
L 377.504491 364.971899 
L 379.134283 365.735644 
L 380.764074 365.826488 
L 382.393866 366.623969 
L 384.023658 366.358032 
L 385.65345 364.401833 
L 387.283242 364.066302 
L 388.913034 366.634038 
L 390.542826 367.894046 
L 392.172618 365.494431 
L 393.80241 366.246081 
L 395.432202 366.755692 
L 397.061993 367.498697 
L 398.691785 367.053863 
L 400.321577 367.623945 
L 401.951369 366.838365 
L 403.581161 367.91516 
L 408.470537 369.36 
L 410.100329 366.771884 
L 411.73012 366.701802 
L 413.359912 366.873256 
L 414.989704 367.897632 
L 416.619496 368.669421 
L 418.249288 365.360645 
L 419.87908 366.941537 
L 421.508872 367.170849 
L 423.138664 368.872599 
L 424.768456 366.859712 
L 426.398248 369.237589 
L 428.028039 368.004924 
L 429.657831 367.733112 
L 431.287623 366.921833 
L 432.917415 367.638749 
L 434.547207 366.97471 
L 436.176999 365.795019 
L 437.806791 367.661514 
L 439.436583 368.308431 
L 441.066375 367.184866 
L 442.696166 367.841649 
L 444.325958 367.018852 
L 445.95575 364.807161 
L 447.585542 369.085689 
L 449.215334 369.011893 
L 452.474918 368.098897 
L 454.10471 369.092067 
L 455.734502 368.494021 
L 457.364294 367.305874 
L 460.623877 367.500543 
L 462.253669 367.360026 
L 463.883461 367.389762 
L 465.513253 368.160786 
L 467.143045 365.856412 
L 468.772837 367.954876 
L 470.402629 368.46974 
L 473.662212 367.622676 
L 475.292004 368.994493 
L 476.921796 366.660053 
L 478.551588 367.237457 
L 480.18138 368.373621 
L 481.811172 368.619838 
L 483.440964 365.142723 
L 485.070756 367.299676 
L 486.700548 366.284318 
L 488.33034 367.422117 
L 489.960131 367.248735 
L 491.589923 367.533371 
L 493.219715 368.531703 
L 494.849507 368.476538 
L 496.479299 368.609536 
L 498.109091 368.049419 
L 498.109091 368.049419 
" clip-path="url(#p86d6d97e94)" style="fill: none; stroke: #ff6347; stroke-linecap: square"/>
   </g>
   <g id="patch_3">
    <path d="M 72 384.48 
L 72 51.84 
" style="fill: none; stroke: #000000; stroke-width: 0.8; stroke-linejoin: miter; stroke-linecap: square"/>
   </g>
   <g id="patch_4">
    <path d="M 518.4 384.48 
L 518.4 51.84 
" style="fill: none; stroke: #000000; stroke-width: 0.8; stroke-linejoin: miter; stroke-linecap: square"/>
   </g>
   <g id="patch_5">
    <path d="M 72 384.48 
L 518.4 384.48 
" style="fill: none; stroke: #000000; stroke-width: 0.8; stroke-linejoin: miter; stroke-linecap: square"/>
   </g>
   <g id="patch_6">
    <path d="M 72 51.84 
L 518.4 51.84 
" style="fill: none; stroke: #000000; stroke-width: 0.8; stroke-linejoin: miter; stroke-linecap: square"/>
   </g>
   <g id="legend_1">
    <g id="patch_7">
     <path d="M 430.01875 89.19625 
L 511.4 89.19625 
Q 513.4 89.19625 513.4 87.19625 
L 513.4 58.84 
Q 513.4 56.84 511.4 56.84 
L 430.01875 56.84 
Q 428.01875 56.84 428.01875 58.84 
L 428.01875 87.19625 
Q 428.01875 89.19625 430.01875 89.19625 
z
" style="fill: #ffffff; opacity: 0.8; stroke: #cccccc; stroke-linejoin: miter"/>
    </g>
    <g id="line2d_15">
     <path d="M 432.01875 64.938437 
L 442.01875 64.938437 
L 452.01875 64.938437 
" style="fill: none; stroke: #4169e1; stroke-linecap: square"/>
    </g>
    <g id="text_15">
     <!-- Training -->
     <g transform="translate(460.01875 68.438437) scale(0.1 -0.1)">
      <defs>
       <path id="DejaVuSans-54" d="M -19 4666 
L 3928 4666 
L 3928 4134 
L 2272 4134 
L 2272 0 
L 1638 0 
L 1638 4134 
L -19 4134 
L -19 4666 
z
" transform="scale(0.015625)"/>
       <path id="DejaVuSans-72" d="M 2631 2963 
Q 2534 3019 2420 3045 
Q 2306 3072 2169 3072 
Q 1681 3072 1420 2755 
Q 1159 2438 1159 1844 
L 1159 0 
L 581 0 
L 581 3500 
L 1159 3500 
L 1159 2956 
Q 1341 3275 1631 3429 
Q 1922 3584 2338 3584 
Q 2397 3584 2469 3576 
Q 2541 3569 2628 3553 
L 2631 2963 
z
" transform="scale(0.015625)"/>
       <path id="DejaVuSans-61" d="M 2194 1759 
Q 1497 1759 1228 1600 
Q 959 1441 959 1056 
Q 959 750 1161 570 
Q 1363 391 1709 391 
Q 2188 391 2477 730 
Q 2766 1069 2766 1631 
L 2766 1759 
L 2194 1759 
z
M 3341 1997 
L 3341 0 
L 2766 0 
L 2766 531 
Q 2569 213 2275 61 
Q 1981 -91 1556 -91 
Q 1019 -91 701 211 
Q 384 513 384 1019 
Q 384 1609 779 1909 
Q 1175 2209 1959 2209 
L 2766 2209 
L 2766 2266 
Q 2766 2663 2505 2880 
Q 2244 3097 1772 3097 
Q 1472 3097 1187 3025 
Q 903 2953 641 2809 
L 641 3341 
Q 956 3463 1253 3523 
Q 1550 3584 1831 3584 
Q 2591 3584 2966 3190 
Q 3341 2797 3341 1997 
z
" transform="scale(0.015625)"/>
       <path id="DejaVuSans-69" d="M 603 3500 
L 1178 3500 
L 1178 0 
L 603 0 
L 603 3500 
z
M 603 4863 
L 1178 4863 
L 1178 4134 
L 603 4134 
L 603 4863 
z
" transform="scale(0.015625)"/>
       <path id="DejaVuSans-6e" d="M 3513 2113 
L 3513 0 
L 2938 0 
L 2938 2094 
Q 2938 2591 2744 2837 
Q 2550 3084 2163 3084 
Q 1697 3084 1428 2787 
Q 1159 2491 1159 1978 
L 1159 0 
L 581 0 
L 581 3500 
L 1159 3500 
L 1159 2956 
Q 1366 3272 1645 3428 
Q 1925 3584 2291 3584 
Q 2894 3584 3203 3211 
Q 3513 2838 3513 2113 
z
" transform="scale(0.015625)"/>
       <path id="DejaVuSans-67" d="M 2906 1791 
Q 2906 2416 2648 2759 
Q 2391 3103 1925 3103 
Q 1463 3103 1205 2759 
Q 947 2416 947 1791 
Q 947 1169 1205 825 
Q 1463 481 1925 481 
Q 2391 481 2648 825 
Q 2906 1169 2906 1791 
z
M 3481 434 
Q 3481 -459 3084 -895 
Q 2688 -1331 1869 -1331 
Q 1566 -1331 1297 -1286 
Q 1028 -1241 775 -1147 
L 775 -588 
Q 1028 -725 1275 -790 
Q 1522 -856 1778 -856 
Q 2344 -856 2625 -561 
Q 2906 -266 2906 331 
L 2906 616 
Q 2728 306 2450 153 
Q 2172 0 1784 0 
Q 1141 0 747 490 
Q 353 981 353 1791 
Q 353 2603 747 3093 
Q 1141 3584 1784 3584 
Q 2172 3584 2450 3431 
Q 2728 3278 2906 2969 
L 2906 3500 
L 3481 3500 
L 3481 434 
z
" transform="scale(0.015625)"/>
      </defs>
      <use xlink:href="#DejaVuSans-54"/>
      <use xlink:href="#DejaVuSans-72" x="46.333984"/>
      <use xlink:href="#DejaVuSans-61" x="87.447266"/>
      <use xlink:href="#DejaVuSans-69" x="148.726562"/>
      <use xlink:href="#DejaVuSans-6e" x="176.509766"/>
      <use xlink:href="#DejaVuSans-69" x="239.888672"/>
      <use xlink:href="#DejaVuSans-6e" x="267.671875"/>
      <use xlink:href="#DejaVuSans-67" x="331.050781"/>
     </g>
    </g>
    <g id="line2d_16">
     <path d="M 432.01875 79.616562 
L 442.01875 79.616562 
L 452.01875 79.616562 
" style="fill: none; stroke: #ff6347; stroke-linecap: square"/>
    </g>
    <g id="text_16">
     <!-- Validation -->
     <g transform="translate(460.01875 83.116562) scale(0.1 -0.1)">
      <defs>
       <path id="DejaVuSans-56" d="M 1831 0 
L 50 4666 
L 709 4666 
L 2188 738 
L 3669 4666 
L 4325 4666 
L 2547 0 
L 1831 0 
z
" transform="scale(0.015625)"/>
       <path id="DejaVuSans-6c" d="M 603 4863 
L 1178 4863 
L 1178 0 
L 603 0 
L 603 4863 
z
" transform="scale(0.015625)"/>
       <path id="DejaVuSans-64" d="M 2906 2969 
L 2906 4863 
L 3481 4863 
L 3481 0 
L 2906 0 
L 2906 525 
Q 2725 213 2448 61 
Q 2172 -91 1784 -91 
Q 1150 -91 751 415 
Q 353 922 353 1747 
Q 353 2572 751 3078 
Q 1150 3584 1784 3584 
Q 2172 3584 2448 3432 
Q 2725 3281 2906 2969 
z
M 947 1747 
Q 947 1113 1208 752 
Q 1469 391 1925 391 
Q 2381 391 2643 752 
Q 2906 1113 2906 1747 
Q 2906 2381 2643 2742 
Q 2381 3103 1925 3103 
Q 1469 3103 1208 2742 
Q 947 2381 947 1747 
z
" transform="scale(0.015625)"/>
       <path id="DejaVuSans-74" d="M 1172 4494 
L 1172 3500 
L 2356 3500 
L 2356 3053 
L 1172 3053 
L 1172 1153 
Q 1172 725 1289 603 
Q 1406 481 1766 481 
L 2356 481 
L 2356 0 
L 1766 0 
Q 1100 0 847 248 
Q 594 497 594 1153 
L 594 3053 
L 172 3053 
L 172 3500 
L 594 3500 
L 594 4494 
L 1172 4494 
z
" transform="scale(0.015625)"/>
      </defs>
      <use xlink:href="#DejaVuSans-56"/>
      <use xlink:href="#DejaVuSans-61" x="60.658203"/>
      <use xlink:href="#DejaVuSans-6c" x="121.9375"/>
      <use xlink:href="#DejaVuSans-69" x="149.720703"/>
      <use xlink:href="#DejaVuSans-64" x="177.503906"/>
      <use xlink:href="#DejaVuSans-61" x="240.980469"/>
      <use xlink:href="#DejaVuSans-74" x="302.259766"/>
      <use xlink:href="#DejaVuSans-69" x="341.46875"/>
      <use xlink:href="#DejaVuSans-6f" x="369.251953"/>
      <use xlink:href="#DejaVuSans-6e" x="430.433594"/>
     </g>
    </g>
   </g>
  </g>
 </g>
 <defs>
  <clipPath id="p86d6d97e94">
   <rect x="72" y="51.84" width="446.4" height="332.64"/>
  </clipPath>
 </defs>
</svg>
