<?xml version="1.0" encoding="utf-8" standalone="no"?>
<!DOCTYPE svg PUBLIC "-//W3C//DTD SVG 1.1//EN"
  "http://www.w3.org/Graphics/SVG/1.1/DTD/svg11.dtd">
<svg xmlns:xlink="http://www.w3.org/1999/xlink" width="1296pt" height="864pt" viewBox="0 0 1296 864" xmlns="http://www.w3.org/2000/svg" version="1.1">
 <metadata>
  <rdf:RDF xmlns:dc="http://purl.org/dc/elements/1.1/" xmlns:cc="http://creativecommons.org/ns#" xmlns:rdf="http://www.w3.org/1999/02/22-rdf-syntax-ns#">
   <cc:Work>
    <dc:type rdf:resource="http://purl.org/dc/dcmitype/StillImage"/>
    <dc:date>2023-12-24T17:34:26.407996</dc:date>
    <dc:format>image/svg+xml</dc:format>
    <dc:creator>
     <cc:Agent>
      <dc:title>Matplotlib v3.8.0, https://matplotlib.org/</dc:title>
     </cc:Agent>
    </dc:creator>
   </cc:Work>
  </rdf:RDF>
 </metadata>
 <defs>
  <style type="text/css">*{stroke-linejoin: round; stroke-linecap: butt}</style>
 </defs>
 <g id="figure_1">
  <g id="patch_1">
   <path d="M 0 864 
L 1296 864 
L 1296 0 
L 0 0 
z
" style="fill: #ffffff"/>
  </g>
  <g id="axes_1">
   <g id="patch_2">
    <path d="M 162 768.96 
L 1166.4 768.96 
L 1166.4 103.68 
L 162 103.68 
z
" style="fill: #ffffff"/>
   </g>
   <g id="matplotlib.axis_1">
    <g id="xtick_1">
     <g id="line2d_1">
      <defs>
       <path id="m99bcfe113c" d="M 0 0 
L 0 3.5 
" style="stroke: #000000; stroke-width: 0.8"/>
      </defs>
      <g>
       <use xlink:href="#m99bcfe113c" x="207.654545" y="768.96" style="stroke: #000000; stroke-width: 0.8"/>
      </g>
     </g>
     <g id="text_1">
      <!-- 0 -->
      <g transform="translate(204.473295 783.558437) scale(0.1 -0.1)">
       <defs>
        <path id="DejaVuSans-30" d="M 2034 4250 
Q 1547 4250 1301 3770 
Q 1056 3291 1056 2328 
Q 1056 1369 1301 889 
Q 1547 409 2034 409 
Q 2525 409 2770 889 
Q 3016 1369 3016 2328 
Q 3016 3291 2770 3770 
Q 2525 4250 2034 4250 
z
M 2034 4750 
Q 2819 4750 3233 4129 
Q 3647 3509 3647 2328 
Q 3647 1150 3233 529 
Q 2819 -91 2034 -91 
Q 1250 -91 836 529 
Q 422 1150 422 2328 
Q 422 3509 836 4129 
Q 1250 4750 2034 4750 
z
" transform="scale(0.015625)"/>
       </defs>
       <use xlink:href="#DejaVuSans-30"/>
      </g>
     </g>
    </g>
    <g id="xtick_2">
     <g id="line2d_2">
      <g>
       <use xlink:href="#m99bcfe113c" x="390.638696" y="768.96" style="stroke: #000000; stroke-width: 0.8"/>
      </g>
     </g>
     <g id="text_2">
      <!-- 100 -->
      <g transform="translate(381.094946 783.558437) scale(0.1 -0.1)">
       <defs>
        <path id="DejaVuSans-31" d="M 794 531 
L 1825 531 
L 1825 4091 
L 703 3866 
L 703 4441 
L 1819 4666 
L 2450 4666 
L 2450 531 
L 3481 531 
L 3481 0 
L 794 0 
L 794 531 
z
" transform="scale(0.015625)"/>
       </defs>
       <use xlink:href="#DejaVuSans-31"/>
       <use xlink:href="#DejaVuSans-30" x="63.623047"/>
       <use xlink:href="#DejaVuSans-30" x="127.246094"/>
      </g>
     </g>
    </g>
    <g id="xtick_3">
     <g id="line2d_3">
      <g>
       <use xlink:href="#m99bcfe113c" x="573.622846" y="768.96" style="stroke: #000000; stroke-width: 0.8"/>
      </g>
     </g>
     <g id="text_3">
      <!-- 200 -->
      <g transform="translate(564.079096 783.558437) scale(0.1 -0.1)">
       <defs>
        <path id="DejaVuSans-32" d="M 1228 531 
L 3431 531 
L 3431 0 
L 469 0 
L 469 531 
Q 828 903 1448 1529 
Q 2069 2156 2228 2338 
Q 2531 2678 2651 2914 
Q 2772 3150 2772 3378 
Q 2772 3750 2511 3984 
Q 2250 4219 1831 4219 
Q 1534 4219 1204 4116 
Q 875 4013 500 3803 
L 500 4441 
Q 881 4594 1212 4672 
Q 1544 4750 1819 4750 
Q 2544 4750 2975 4387 
Q 3406 4025 3406 3419 
Q 3406 3131 3298 2873 
Q 3191 2616 2906 2266 
Q 2828 2175 2409 1742 
Q 1991 1309 1228 531 
z
" transform="scale(0.015625)"/>
       </defs>
       <use xlink:href="#DejaVuSans-32"/>
       <use xlink:href="#DejaVuSans-30" x="63.623047"/>
       <use xlink:href="#DejaVuSans-30" x="127.246094"/>
      </g>
     </g>
    </g>
    <g id="xtick_4">
     <g id="line2d_4">
      <g>
       <use xlink:href="#m99bcfe113c" x="756.606996" y="768.96" style="stroke: #000000; stroke-width: 0.8"/>
      </g>
     </g>
     <g id="text_4">
      <!-- 300 -->
      <g transform="translate(747.063246 783.558437) scale(0.1 -0.1)">
       <defs>
        <path id="DejaVuSans-33" d="M 2597 2516 
Q 3050 2419 3304 2112 
Q 3559 1806 3559 1356 
Q 3559 666 3084 287 
Q 2609 -91 1734 -91 
Q 1441 -91 1130 -33 
Q 819 25 488 141 
L 488 750 
Q 750 597 1062 519 
Q 1375 441 1716 441 
Q 2309 441 2620 675 
Q 2931 909 2931 1356 
Q 2931 1769 2642 2001 
Q 2353 2234 1838 2234 
L 1294 2234 
L 1294 2753 
L 1863 2753 
Q 2328 2753 2575 2939 
Q 2822 3125 2822 3475 
Q 2822 3834 2567 4026 
Q 2313 4219 1838 4219 
Q 1578 4219 1281 4162 
Q 984 4106 628 3988 
L 628 4550 
Q 988 4650 1302 4700 
Q 1616 4750 1894 4750 
Q 2613 4750 3031 4423 
Q 3450 4097 3450 3541 
Q 3450 3153 3228 2886 
Q 3006 2619 2597 2516 
z
" transform="scale(0.015625)"/>
       </defs>
       <use xlink:href="#DejaVuSans-33"/>
       <use xlink:href="#DejaVuSans-30" x="63.623047"/>
       <use xlink:href="#DejaVuSans-30" x="127.246094"/>
      </g>
     </g>
    </g>
    <g id="xtick_5">
     <g id="line2d_5">
      <g>
       <use xlink:href="#m99bcfe113c" x="939.591146" y="768.96" style="stroke: #000000; stroke-width: 0.8"/>
      </g>
     </g>
     <g id="text_5">
      <!-- 400 -->
      <g transform="translate(930.047396 783.558437) scale(0.1 -0.1)">
       <defs>
        <path id="DejaVuSans-34" d="M 2419 4116 
L 825 1625 
L 2419 1625 
L 2419 4116 
z
M 2253 4666 
L 3047 4666 
L 3047 1625 
L 3713 1625 
L 3713 1100 
L 3047 1100 
L 3047 0 
L 2419 0 
L 2419 1100 
L 313 1100 
L 313 1709 
L 2253 4666 
z
" transform="scale(0.015625)"/>
       </defs>
       <use xlink:href="#DejaVuSans-34"/>
       <use xlink:href="#DejaVuSans-30" x="63.623047"/>
       <use xlink:href="#DejaVuSans-30" x="127.246094"/>
      </g>
     </g>
    </g>
    <g id="xtick_6">
     <g id="line2d_6">
      <g>
       <use xlink:href="#m99bcfe113c" x="1122.575296" y="768.96" style="stroke: #000000; stroke-width: 0.8"/>
      </g>
     </g>
     <g id="text_6">
      <!-- 500 -->
      <g transform="translate(1113.031546 783.558437) scale(0.1 -0.1)">
       <defs>
        <path id="DejaVuSans-35" d="M 691 4666 
L 3169 4666 
L 3169 4134 
L 1269 4134 
L 1269 2991 
Q 1406 3038 1543 3061 
Q 1681 3084 1819 3084 
Q 2600 3084 3056 2656 
Q 3513 2228 3513 1497 
Q 3513 744 3044 326 
Q 2575 -91 1722 -91 
Q 1428 -91 1123 -41 
Q 819 9 494 109 
L 494 744 
Q 775 591 1075 516 
Q 1375 441 1709 441 
Q 2250 441 2565 725 
Q 2881 1009 2881 1497 
Q 2881 1984 2565 2268 
Q 2250 2553 1709 2553 
Q 1456 2553 1204 2497 
Q 953 2441 691 2322 
L 691 4666 
z
" transform="scale(0.015625)"/>
       </defs>
       <use xlink:href="#DejaVuSans-35"/>
       <use xlink:href="#DejaVuSans-30" x="63.623047"/>
       <use xlink:href="#DejaVuSans-30" x="127.246094"/>
      </g>
     </g>
    </g>
   </g>
   <g id="matplotlib.axis_2">
    <g id="ytick_1">
     <g id="line2d_7">
      <defs>
       <path id="m45eb5f96ac" d="M 0 0 
L -3.5 0 
" style="stroke: #000000; stroke-width: 0.8"/>
      </defs>
      <g>
       <use xlink:href="#m45eb5f96ac" x="162" y="738.72" style="stroke: #000000; stroke-width: 0.8"/>
      </g>
     </g>
     <g id="text_7">
      <!-- 0 -->
      <g transform="translate(148.6375 742.519219) scale(0.1 -0.1)">
       <use xlink:href="#DejaVuSans-30"/>
      </g>
     </g>
    </g>
    <g id="ytick_2">
     <g id="line2d_8">
      <g>
       <use xlink:href="#m45eb5f96ac" x="162" y="596.342207" style="stroke: #000000; stroke-width: 0.8"/>
      </g>
     </g>
     <g id="text_8">
      <!-- 20 -->
      <g transform="translate(142.275 600.141426) scale(0.1 -0.1)">
       <use xlink:href="#DejaVuSans-32"/>
       <use xlink:href="#DejaVuSans-30" x="63.623047"/>
      </g>
     </g>
    </g>
    <g id="ytick_3">
     <g id="line2d_9">
      <g>
       <use xlink:href="#m45eb5f96ac" x="162" y="453.964415" style="stroke: #000000; stroke-width: 0.8"/>
      </g>
     </g>
     <g id="text_9">
      <!-- 40 -->
      <g transform="translate(142.275 457.763634) scale(0.1 -0.1)">
       <use xlink:href="#DejaVuSans-34"/>
       <use xlink:href="#DejaVuSans-30" x="63.623047"/>
      </g>
     </g>
    </g>
    <g id="ytick_4">
     <g id="line2d_10">
      <g>
       <use xlink:href="#m45eb5f96ac" x="162" y="311.586622" style="stroke: #000000; stroke-width: 0.8"/>
      </g>
     </g>
     <g id="text_10">
      <!-- 60 -->
      <g transform="translate(142.275 315.385841) scale(0.1 -0.1)">
       <defs>
        <path id="DejaVuSans-36" d="M 2113 2584 
Q 1688 2584 1439 2293 
Q 1191 2003 1191 1497 
Q 1191 994 1439 701 
Q 1688 409 2113 409 
Q 2538 409 2786 701 
Q 3034 994 3034 1497 
Q 3034 2003 2786 2293 
Q 2538 2584 2113 2584 
z
M 3366 4563 
L 3366 3988 
Q 3128 4100 2886 4159 
Q 2644 4219 2406 4219 
Q 1781 4219 1451 3797 
Q 1122 3375 1075 2522 
Q 1259 2794 1537 2939 
Q 1816 3084 2150 3084 
Q 2853 3084 3261 2657 
Q 3669 2231 3669 1497 
Q 3669 778 3244 343 
Q 2819 -91 2113 -91 
Q 1303 -91 875 529 
Q 447 1150 447 2328 
Q 447 3434 972 4092 
Q 1497 4750 2381 4750 
Q 2619 4750 2861 4703 
Q 3103 4656 3366 4563 
z
" transform="scale(0.015625)"/>
       </defs>
       <use xlink:href="#DejaVuSans-36"/>
       <use xlink:href="#DejaVuSans-30" x="63.623047"/>
      </g>
     </g>
    </g>
    <g id="ytick_5">
     <g id="line2d_11">
      <g>
       <use xlink:href="#m45eb5f96ac" x="162" y="169.20883" style="stroke: #000000; stroke-width: 0.8"/>
      </g>
     </g>
     <g id="text_11">
      <!-- 80 -->
      <g transform="translate(142.275 173.008049) scale(0.1 -0.1)">
       <defs>
        <path id="DejaVuSans-38" d="M 2034 2216 
Q 1584 2216 1326 1975 
Q 1069 1734 1069 1313 
Q 1069 891 1326 650 
Q 1584 409 2034 409 
Q 2484 409 2743 651 
Q 3003 894 3003 1313 
Q 3003 1734 2745 1975 
Q 2488 2216 2034 2216 
z
M 1403 2484 
Q 997 2584 770 2862 
Q 544 3141 544 3541 
Q 544 4100 942 4425 
Q 1341 4750 2034 4750 
Q 2731 4750 3128 4425 
Q 3525 4100 3525 3541 
Q 3525 3141 3298 2862 
Q 3072 2584 2669 2484 
Q 3125 2378 3379 2068 
Q 3634 1759 3634 1313 
Q 3634 634 3220 271 
Q 2806 -91 2034 -91 
Q 1263 -91 848 271 
Q 434 634 434 1313 
Q 434 1759 690 2068 
Q 947 2378 1403 2484 
z
M 1172 3481 
Q 1172 3119 1398 2916 
Q 1625 2713 2034 2713 
Q 2441 2713 2670 2916 
Q 2900 3119 2900 3481 
Q 2900 3844 2670 4047 
Q 2441 4250 2034 4250 
Q 1625 4250 1398 4047 
Q 1172 3844 1172 3481 
z
" transform="scale(0.015625)"/>
       </defs>
       <use xlink:href="#DejaVuSans-38"/>
       <use xlink:href="#DejaVuSans-30" x="63.623047"/>
      </g>
     </g>
    </g>
   </g>
   <g id="line2d_12">
    <path d="M 207.654545 674.649993 
L 209.484387 738.72 
L 211.314228 696.006662 
L 213.14407 717.363331 
L 214.973911 596.342207 
L 216.803753 710.244441 
L 218.633594 688.887773 
L 220.463436 639.055545 
L 222.293277 710.244441 
L 224.123119 738.72 
L 225.95296 724.482221 
L 227.782802 667.531104 
L 229.612643 653.293324 
L 231.442485 624.817766 
L 233.272326 738.72 
L 235.102168 696.006662 
L 236.932009 681.768883 
L 238.761851 375.656629 
L 240.591692 311.586622 
L 242.421534 439.726636 
L 244.251375 162.08994 
L 251.570741 162.08994 
L 253.400583 275.992174 
L 255.230424 162.08994 
L 258.890107 162.08994 
L 260.719949 226.159947 
L 262.54979 162.08994 
L 264.379632 439.726636 
L 266.209473 169.20883 
L 268.039315 503.796642 
L 269.869156 162.08994 
L 271.698998 397.013298 
L 273.528839 503.796642 
L 275.358681 162.08994 
L 277.188522 475.321084 
L 279.018364 261.754395 
L 280.848206 354.29996 
L 282.678047 162.08994 
L 297.316779 162.08994 
L 299.146621 311.586622 
L 300.976462 226.159947 
L 302.806304 176.32772 
L 304.636145 389.894408 
L 306.465987 468.202194 
L 308.295828 354.29996 
L 310.12567 510.915532 
L 311.955511 162.08994 
L 313.785353 283.111064 
L 315.615194 162.08994 
L 317.445036 603.461097 
L 319.274877 197.684388 
L 321.104719 603.461097 
L 322.93456 368.537739 
L 324.764402 567.866649 
L 326.594243 582.104428 
L 328.424085 639.055545 
L 330.253926 489.558863 
L 332.083768 176.32772 
L 333.913609 254.635505 
L 335.743451 567.866649 
L 337.573292 503.796642 
L 339.403134 453.964415 
L 341.232975 375.656629 
L 343.062817 190.565499 
L 344.892658 468.202194 
L 346.7225 489.558863 
L 348.552341 603.461097 
L 350.382183 567.866649 
L 352.212024 482.439973 
L 354.041866 382.775519 
L 355.871707 596.342207 
L 357.701549 681.768883 
L 359.53139 475.321084 
L 361.361232 518.034422 
L 363.191073 389.894408 
L 365.020915 418.369967 
L 366.850756 631.936656 
L 368.680598 631.936656 
L 370.510439 418.369967 
L 372.340281 532.272201 
L 374.170122 254.635505 
L 375.999964 567.866649 
L 377.829805 453.964415 
L 379.659647 518.034422 
L 381.489488 546.50998 
L 383.31933 404.132188 
L 385.149171 162.08994 
L 386.979013 589.223318 
L 388.808854 617.698876 
L 390.638696 211.922168 
L 392.468537 382.775519 
L 394.298379 318.705512 
L 396.12822 162.08994 
L 397.958062 375.656629 
L 399.787903 368.537739 
L 401.617745 254.635505 
L 403.447586 418.369967 
L 405.277428 375.656629 
L 407.107269 411.251077 
L 408.937111 389.894408 
L 410.766952 475.321084 
L 412.596794 617.698876 
L 414.426635 639.055545 
L 416.256477 475.321084 
L 418.086318 688.887773 
L 419.91616 688.887773 
L 421.746001 368.537739 
L 423.575843 639.055545 
L 425.405684 453.964415 
L 427.235526 688.887773 
L 429.065367 468.202194 
L 430.895209 596.342207 
L 432.72505 354.29996 
L 434.554892 247.516616 
L 436.384733 489.558863 
L 438.214575 518.034422 
L 440.044416 532.272201 
L 441.874258 446.845525 
L 443.704099 639.055545 
L 445.533941 546.50998 
L 447.363782 525.153311 
L 449.193624 546.50998 
L 451.023465 574.985539 
L 452.853307 596.342207 
L 454.683148 667.531104 
L 456.51299 290.229954 
L 458.342831 688.887773 
L 460.172673 653.293324 
L 462.002514 660.412214 
L 463.832356 624.817766 
L 465.662197 496.677753 
L 467.492039 318.705512 
L 469.32188 482.439973 
L 471.151722 496.677753 
L 472.981563 681.768883 
L 474.811405 724.482221 
L 476.641246 340.062181 
L 478.471088 674.649993 
L 480.300929 646.174435 
L 482.130771 674.649993 
L 483.960612 418.369967 
L 485.790454 660.412214 
L 489.450137 574.985539 
L 491.279978 589.223318 
L 493.10982 624.817766 
L 494.939661 510.915532 
L 496.769503 354.29996 
L 498.599344 681.768883 
L 500.429186 646.174435 
L 502.259027 724.482221 
L 504.088869 610.579987 
L 505.91871 418.369967 
L 507.748552 482.439973 
L 509.578393 596.342207 
L 511.408235 624.817766 
L 513.238076 667.531104 
L 515.067918 696.006662 
L 518.727601 696.006662 
L 520.557442 738.72 
L 522.387284 617.698876 
L 524.217125 553.62887 
L 526.046967 567.866649 
L 527.876808 631.936656 
L 529.70665 738.72 
L 533.366333 667.531104 
L 535.196174 681.768883 
L 537.026016 738.72 
L 538.855857 738.72 
L 540.685699 596.342207 
L 542.51554 617.698876 
L 544.345382 738.72 
L 546.175223 710.244441 
L 548.005065 738.72 
L 549.834906 610.579987 
L 551.664748 717.363331 
L 553.494589 696.006662 
L 557.154272 667.531104 
L 558.984114 738.72 
L 562.643797 738.72 
L 564.473638 681.768883 
L 566.30348 646.174435 
L 568.133321 738.72 
L 569.963163 688.887773 
L 571.793004 738.72 
L 573.622846 738.72 
L 575.452687 674.649993 
L 577.282529 703.125552 
L 579.11237 738.72 
L 580.942212 674.649993 
L 582.772053 738.72 
L 584.601895 653.293324 
L 586.431736 696.006662 
L 588.261578 574.985539 
L 590.091419 162.08994 
L 591.921261 361.41885 
L 593.751102 211.922168 
L 595.580944 461.083305 
L 597.410785 275.992174 
L 599.240627 226.159947 
L 601.070468 162.08994 
L 606.559993 162.08994 
L 608.389834 482.439973 
L 610.219676 190.565499 
L 612.049517 162.08994 
L 615.7092 162.08994 
L 617.539042 233.278837 
L 619.368883 162.08994 
L 621.198725 247.516616 
L 623.028566 240.397726 
L 624.858408 404.132188 
L 626.688249 162.08994 
L 628.518091 304.467733 
L 630.347932 162.08994 
L 632.177774 389.894408 
L 634.007615 162.08994 
L 635.837457 325.824402 
L 637.667298 546.50998 
L 639.49714 162.08994 
L 641.326981 162.08994 
L 643.156823 204.803278 
L 644.986664 162.08994 
L 646.816506 204.803278 
L 648.646347 169.20883 
L 650.476189 162.08994 
L 652.30603 162.08994 
L 654.135872 354.29996 
L 655.965713 340.062181 
L 657.795555 382.775519 
L 659.625396 162.08994 
L 661.455238 162.08994 
L 663.285079 453.964415 
L 665.114921 162.08994 
L 666.944762 304.467733 
L 668.774604 411.251077 
L 670.604445 162.08994 
L 672.434287 382.775519 
L 674.264128 389.894408 
L 676.09397 382.775519 
L 677.923811 332.943291 
L 679.753653 518.034422 
L 681.583494 411.251077 
L 683.413336 510.915532 
L 685.243177 525.153311 
L 687.073019 610.579987 
L 688.90286 674.649993 
L 690.732702 596.342207 
L 692.562543 667.531104 
L 694.392385 610.579987 
L 696.222226 567.866649 
L 698.052068 347.181071 
L 699.881909 667.531104 
L 701.711751 539.39109 
L 703.541592 631.936656 
L 705.371434 731.60111 
L 707.201275 582.104428 
L 709.031117 667.531104 
L 710.860958 617.698876 
L 712.6908 610.579987 
L 714.520641 681.768883 
L 716.350483 461.083305 
L 718.180324 290.229954 
L 720.010166 574.985539 
L 721.840007 724.482221 
L 723.669849 667.531104 
L 725.49969 667.531104 
L 727.329532 688.887773 
L 729.159373 738.72 
L 730.989215 546.50998 
L 732.819056 681.768883 
L 734.648898 596.342207 
L 736.478739 631.936656 
L 738.308581 731.60111 
L 740.138422 589.223318 
L 741.968264 539.39109 
L 743.798105 717.363331 
L 745.627947 639.055545 
L 747.457788 688.887773 
L 749.28763 681.768883 
L 751.117471 539.39109 
L 752.947313 738.72 
L 754.777154 738.72 
L 756.606996 646.174435 
L 758.436837 596.342207 
L 760.266679 667.531104 
L 762.09652 710.244441 
L 763.926362 553.62887 
L 765.756203 162.08994 
L 767.586045 475.321084 
L 769.415886 411.251077 
L 771.245728 539.39109 
L 773.075569 162.08994 
L 789.544143 162.08994 
L 791.373984 432.607746 
L 793.203826 162.08994 
L 795.033667 162.08994 
L 796.863509 197.684388 
L 798.69335 347.181071 
L 800.523192 162.08994 
L 802.353033 275.992174 
L 804.182875 162.08994 
L 806.012716 325.824402 
L 807.842558 375.656629 
L 809.672399 190.565499 
L 811.502241 162.08994 
L 818.821607 162.08994 
L 820.651448 290.229954 
L 822.48129 162.08994 
L 824.311131 318.705512 
L 826.140973 162.08994 
L 827.970814 162.08994 
L 829.800656 190.565499 
L 831.630497 546.50998 
L 833.460339 162.08994 
L 835.29018 268.873285 
L 837.120022 162.08994 
L 838.949863 311.586622 
L 840.779705 162.08994 
L 842.609546 219.041057 
L 844.439388 162.08994 
L 846.269229 162.08994 
L 848.099071 525.153311 
L 849.928912 503.796642 
L 851.758754 382.775519 
L 853.588595 382.775519 
L 855.418437 631.936656 
L 857.248278 446.845525 
L 859.07812 389.894408 
L 862.737803 261.754395 
L 864.567644 489.558863 
L 866.397486 674.649993 
L 868.227327 411.251077 
L 870.057169 560.747759 
L 871.88701 475.321084 
L 873.716852 546.50998 
L 875.546693 688.887773 
L 877.376535 603.461097 
L 879.206376 674.649993 
L 881.036218 639.055545 
L 882.866059 596.342207 
L 884.695901 510.915532 
L 886.525742 439.726636 
L 888.355584 667.531104 
L 890.185425 631.936656 
L 892.015267 361.41885 
L 893.845108 468.202194 
L 895.67495 646.174435 
L 897.504791 724.482221 
L 899.334633 667.531104 
L 901.164474 546.50998 
L 902.994316 681.768883 
L 904.824157 589.223318 
L 906.653999 660.412214 
L 908.48384 567.866649 
L 910.313682 667.531104 
L 912.143523 681.768883 
L 913.973365 639.055545 
L 915.803206 653.293324 
L 917.633048 475.321084 
L 919.462889 518.034422 
L 921.292731 596.342207 
L 923.122572 503.796642 
L 926.782255 674.649993 
L 928.612097 646.174435 
L 930.441938 696.006662 
L 932.27178 596.342207 
L 934.101621 589.223318 
L 935.931463 738.72 
L 937.761304 617.698876 
L 939.591146 389.894408 
L 941.420987 418.369967 
L 943.250829 539.39109 
L 945.08067 332.943291 
L 946.910512 432.607746 
L 948.740353 354.29996 
L 950.570195 162.08994 
L 956.059719 162.08994 
L 957.889561 247.516616 
L 959.719402 162.08994 
L 961.549244 240.397726 
L 963.379085 162.08994 
L 967.038768 162.08994 
L 968.86861 211.922168 
L 970.698451 311.586622 
L 972.528293 275.992174 
L 974.358134 162.08994 
L 979.847659 162.08994 
L 981.6775 204.803278 
L 983.507342 375.656629 
L 985.337183 318.705512 
L 987.167025 190.565499 
L 988.996866 162.08994 
L 990.826708 226.159947 
L 992.656549 162.08994 
L 994.486391 162.08994 
L 996.316232 389.894408 
L 998.146074 197.684388 
L 999.975915 162.08994 
L 1003.635598 162.08994 
L 1005.46544 261.754395 
L 1007.295281 162.08994 
L 1009.125123 162.08994 
L 1010.954964 375.656629 
L 1012.784806 283.111064 
L 1014.614647 176.32772 
L 1016.444489 404.132188 
L 1018.27433 290.229954 
L 1020.104172 162.08994 
L 1021.934013 418.369967 
L 1023.763855 162.08994 
L 1025.593696 539.39109 
L 1027.423538 496.677753 
L 1029.253379 361.41885 
L 1031.083221 397.013298 
L 1032.913062 297.348843 
L 1034.742904 162.08994 
L 1036.572745 354.29996 
L 1038.402587 240.397726 
L 1040.232428 546.50998 
L 1042.06227 340.062181 
L 1043.892111 361.41885 
L 1045.721953 610.579987 
L 1047.551794 332.943291 
L 1049.381636 567.866649 
L 1051.211478 532.272201 
L 1053.041319 275.992174 
L 1054.871161 368.537739 
L 1056.701002 539.39109 
L 1058.530844 610.579987 
L 1060.360685 596.342207 
L 1062.190527 275.992174 
L 1064.020368 475.321084 
L 1065.85021 233.278837 
L 1067.680051 311.586622 
L 1069.509893 539.39109 
L 1071.339734 304.467733 
L 1073.169576 340.062181 
L 1074.999417 162.08994 
L 1076.829259 226.159947 
L 1078.6591 247.516616 
L 1080.488942 411.251077 
L 1082.318783 482.439973 
L 1084.148625 318.705512 
L 1085.978466 404.132188 
L 1087.808308 439.726636 
L 1089.638149 190.565499 
L 1091.467991 283.111064 
L 1095.127674 439.726636 
L 1096.957515 162.08994 
L 1098.787357 254.635505 
L 1100.617198 190.565499 
L 1102.44704 503.796642 
L 1104.276881 375.656629 
L 1106.106723 411.251077 
L 1107.936564 503.796642 
L 1109.766406 610.579987 
L 1111.596247 418.369967 
L 1113.426089 567.866649 
L 1115.25593 503.796642 
L 1117.085772 539.39109 
L 1118.915613 510.915532 
L 1120.745455 532.272201 
L 1120.745455 532.272201 
" clip-path="url(#p95921c17f6)" style="fill: none; stroke: #4169e1; stroke-linecap: square"/>
   </g>
   <g id="line2d_13">
    <path d="M 207.654545 635.227951 
L 209.484387 634.545789 
L 211.314228 651.707492 
L 213.14407 663.517217 
L 214.973911 668.683058 
L 216.803753 642.466519 
L 218.633594 646.647445 
L 220.463436 643.57596 
L 222.293277 627.437911 
L 224.123119 649.267597 
L 225.95296 658.907579 
L 227.782802 665.784275 
L 229.612643 664.172901 
L 231.442485 638.541848 
L 233.272326 598.89271 
L 235.102168 629.354821 
L 236.932009 631.016359 
L 238.761851 630.402801 
L 240.591692 495.992977 
L 242.421534 342.115939 
L 244.251375 335.253025 
L 246.081217 206.068169 
L 247.911058 167.478152 
L 249.7409 143.571062 
L 251.570741 135.63395 
L 253.400583 133.92 
L 255.230424 172.389823 
L 257.060266 158.404218 
L 258.890107 162.315393 
L 260.719949 155.852113 
L 262.54979 170.236809 
L 264.379632 165.698973 
L 266.209473 248.345864 
L 268.039315 192.178318 
L 269.869156 316.170679 
L 271.698998 207.881294 
L 273.528839 274.874036 
L 275.358681 327.544543 
L 277.188522 224.883867 
L 279.018364 323.349448 
L 280.848206 260.871649 
L 282.678047 292.949233 
L 284.507889 225.69731 
L 286.33773 194.779902 
L 288.167572 171.560086 
L 289.997413 164.720364 
L 291.827255 164.506698 
L 293.657096 169.882472 
L 295.486938 170.252125 
L 297.316779 167.681662 
L 299.146621 167.859645 
L 300.976462 206.273472 
L 302.806304 210.537625 
L 304.636145 220.968673 
L 306.465987 289.187473 
L 308.295828 332.593408 
L 310.12567 354.404974 
L 311.955511 433.038175 
L 313.785353 330.103681 
L 315.615194 317.651083 
L 317.445036 274.043159 
L 319.274877 372.612477 
L 321.104719 292.631911 
L 322.93456 447.524463 
L 324.764402 442.074443 
L 326.594243 487.350803 
L 328.424085 543.822813 
L 330.253926 556.296661 
L 332.083768 553.283943 
L 333.913609 426.983382 
L 335.743451 364.776115 
L 337.573292 397.832688 
L 339.403134 419.572806 
L 341.232975 471.418572 
L 343.062817 472.396583 
L 344.892658 373.365334 
L 346.7225 401.726972 
L 348.552341 414.670829 
L 350.382183 487.32848 
L 352.212024 530.598701 
L 354.041866 520.571903 
L 355.871707 490.482615 
L 357.701549 519.166355 
L 359.53139 541.254903 
L 361.361232 501.869759 
L 363.191073 512.518616 
L 365.020915 439.795613 
L 366.850756 400.356279 
L 368.680598 482.305712 
L 370.510439 529.773377 
L 372.340281 490.434277 
L 374.170122 514.648384 
L 375.999964 375.695245 
L 377.829805 426.514065 
L 379.659647 419.928826 
L 381.489488 456.613115 
L 383.31933 502.35184 
L 385.149171 449.274802 
L 386.979013 326.738676 
L 388.808854 418.129823 
L 390.638696 461.990682 
L 392.468537 352.528113 
L 394.298379 379.061988 
L 396.12822 329.695738 
L 397.958062 254.514985 
L 399.787903 306.140595 
L 401.617745 303.925392 
L 403.447586 295.724184 
L 405.277428 352.621939 
L 407.107269 348.006978 
L 408.937111 374.842236 
L 410.766952 394.798204 
L 412.596794 425.069887 
L 414.426635 494.713231 
L 416.256477 539.351429 
L 418.086318 485.608991 
L 419.91616 550.625873 
L 421.746001 574.625485 
L 423.575843 458.545158 
L 425.405684 520.321113 
L 427.235526 446.510605 
L 429.065367 522.533736 
L 430.895209 483.530765 
L 432.72505 509.624679 
L 434.554892 418.374936 
L 436.384733 307.102556 
L 438.214575 346.801071 
L 440.044416 362.502472 
L 441.874258 428.131392 
L 443.704099 435.312932 
L 445.533941 500.040667 
L 447.363782 488.054588 
L 449.193624 487.070929 
L 451.023465 487.294806 
L 452.853307 478.917298 
L 454.683148 497.103484 
L 456.51299 538.445083 
L 458.342831 416.2928 
L 460.172673 515.862479 
L 462.002514 542.113873 
L 463.832356 562.457758 
L 465.662197 566.617794 
L 467.492039 505.968938 
L 469.32188 415.430123 
L 471.151722 418.666705 
L 472.981563 414.681909 
L 474.811405 500.34433 
L 476.641246 570.162506 
L 478.471088 489.47829 
L 480.300929 570.23705 
L 482.130771 592.718606 
L 483.960612 593.662644 
L 485.790454 563.724876 
L 487.620295 585.176062 
L 489.450137 584.544948 
L 491.279978 567.730881 
L 493.10982 585.731411 
L 494.939661 580.507401 
L 496.769503 547.80215 
L 498.599344 490.731368 
L 500.429186 556.753608 
L 502.259027 569.291396 
L 504.088869 614.400011 
L 505.91871 619.702463 
L 507.748552 562.039196 
L 509.578393 530.549317 
L 511.408235 514.738109 
L 513.238076 526.258143 
L 515.067918 575.246675 
L 516.897759 610.910602 
L 518.727601 626.614916 
L 520.557442 638.378733 
L 522.387284 651.811033 
L 524.217125 625.92331 
L 526.046967 588.592923 
L 527.876808 569.73945 
L 529.70665 568.887744 
L 531.536491 606.767268 
L 533.366333 621.687487 
L 535.196174 623.617955 
L 537.026016 636.244646 
L 538.855857 638.779758 
L 540.685699 642.950908 
L 542.51554 640.093035 
L 544.345382 640.282295 
L 546.175223 653.250288 
L 548.005065 646.624851 
L 549.834906 673.602401 
L 551.664748 668.416525 
L 553.494589 665.447107 
L 555.324431 655.389243 
L 557.154272 643.752056 
L 558.984114 644.570951 
L 560.813955 657.035634 
L 564.473638 675.280029 
L 566.30348 678.554426 
L 568.133321 653.920576 
L 569.963163 657.83372 
L 571.793004 645.573694 
L 573.622846 659.014419 
L 575.452687 677.247259 
L 577.282529 660.624815 
L 579.11237 668.793286 
L 580.942212 667.688034 
L 582.772053 643.363061 
L 584.601895 651.77281 
L 586.431736 629.113129 
L 588.261578 627.757332 
L 590.091419 585.464504 
L 591.921261 402.613275 
L 593.751102 341.268387 
L 595.580944 250.28771 
L 597.410785 280.95289 
L 599.240627 243.904053 
L 601.070468 239.031161 
L 602.90031 207.678055 
L 604.730151 174.325695 
L 606.559993 162.608791 
L 608.389834 162.143873 
L 610.219676 252.714189 
L 612.049517 205.259995 
L 613.879359 209.323517 
L 615.7092 204.305555 
L 617.539042 177.04177 
L 619.368883 195.062763 
L 621.198725 183.721052 
L 623.028566 207.251808 
L 624.858408 209.039895 
L 626.688249 257.977916 
L 628.518091 208.717874 
L 630.347932 253.669335 
L 632.177774 211.436448 
L 634.007615 258.294777 
L 635.837457 211.134686 
L 637.667298 257.986172 
L 639.49714 338.552719 
L 641.326981 241.656752 
L 644.986664 229.444406 
L 646.816506 191.165981 
L 648.646347 203.820596 
L 650.476189 196.766393 
L 652.30603 190.621713 
L 654.135872 193.299986 
L 655.965713 248.808935 
L 657.795555 283.634694 
L 659.625396 333.005018 
L 661.455238 296.888433 
L 663.285079 271.960697 
L 665.114921 328.021925 
L 666.944762 254.546215 
L 668.774604 304.983324 
L 670.604445 359.488925 
L 672.434287 274.920474 
L 674.264128 344.736668 
L 676.09397 366.8576 
L 677.923811 374.710364 
L 679.753653 392.178181 
L 681.583494 433.371466 
L 683.413336 422.361361 
L 685.243177 453.432258 
L 687.073019 487.803609 
L 688.90286 518.263377 
L 690.732702 574.724905 
L 692.562543 582.174288 
L 694.392385 609.524105 
L 696.222226 606.40458 
L 698.052068 585.532545 
L 699.881909 520.925914 
L 701.711751 555.751075 
L 703.541592 535.657872 
L 705.371434 554.442421 
L 707.201275 602.058007 
L 709.031117 575.807414 
L 710.860958 584.6717 
L 712.6908 575.308523 
L 714.520641 555.79147 
L 716.350483 566.480925 
L 718.180324 532.12079 
L 720.010166 443.892619 
L 721.840007 472.097401 
L 723.669849 530.220575 
L 725.49969 578.593987 
L 727.329532 621.492029 
L 729.159373 631.350423 
L 730.989215 633.718618 
L 732.819056 593.923454 
L 734.648898 611.262794 
L 736.478739 582.525855 
L 738.308581 584.231223 
L 740.138422 612.512912 
L 741.968264 588.575135 
L 743.798105 573.455574 
L 745.627947 592.237204 
L 747.457788 580.918209 
L 749.28763 607.403393 
L 751.117471 617.731953 
L 752.947313 582.441399 
L 754.777154 618.550515 
L 756.606996 628.876447 
L 758.436837 612.015746 
L 760.266679 565.196454 
L 762.09652 579.218014 
L 763.926362 599.401228 
L 765.756203 567.463987 
L 767.586045 402.595596 
L 769.415886 385.321948 
L 771.245728 345.51345 
L 773.075569 371.562828 
L 774.905411 258.584862 
L 776.735252 207.005608 
L 778.565094 170.959549 
L 780.394935 149.050954 
L 782.224777 150.251484 
L 784.054618 154.694055 
L 785.88446 158.449026 
L 787.714301 162.810563 
L 789.544143 162.173745 
L 791.373984 167.873115 
L 793.203826 241.081036 
L 795.033667 195.747105 
L 796.863509 204.414561 
L 798.69335 199.956565 
L 800.523192 220.096301 
L 802.353033 190.776178 
L 804.182875 224.749226 
L 806.012716 196.485759 
L 809.672399 264.317906 
L 811.502241 238.765572 
L 813.332082 224.714085 
L 815.161924 197.520744 
L 816.991765 179.981614 
L 818.821607 177.911427 
L 820.651448 182.654674 
L 822.48129 217.520896 
L 824.311131 200.150027 
L 826.140973 253.096715 
L 827.970814 208.531473 
L 829.800656 204.803821 
L 831.630497 209.061892 
L 833.460339 303.157246 
L 835.29018 249.551337 
L 837.120022 291.511302 
L 838.949863 274.997652 
L 840.779705 266.870065 
L 842.609546 243.831545 
L 844.439388 253.060814 
L 846.269229 242.350326 
L 848.099071 226.401802 
L 849.928912 322.311965 
L 851.758754 387.733709 
L 853.588595 427.839298 
L 855.418437 457.470416 
L 857.248278 495.335764 
L 859.07812 465.464312 
L 860.907961 463.105778 
L 862.737803 432.791676 
L 864.567644 358.073126 
L 866.397486 392.318688 
L 868.227327 478.174353 
L 870.057169 470.606731 
L 871.88701 532.059145 
L 873.716852 520.045041 
L 875.546693 500.955946 
L 877.376535 557.234182 
L 879.206376 556.359555 
L 881.036218 589.071188 
L 882.866059 588.040751 
L 884.695901 578.08494 
L 886.525742 545.859571 
L 888.355584 497.365923 
L 890.185425 521.477664 
L 892.015267 521.415394 
L 893.845108 488.689722 
L 895.67495 495.548426 
L 897.504791 524.665989 
L 899.334633 570.499952 
L 901.164474 613.512838 
L 902.994316 609.941146 
L 904.824157 620.470677 
L 906.653999 583.932258 
L 908.48384 597.987859 
L 910.313682 580.725304 
L 912.143523 596.998727 
L 913.973365 611.715953 
L 915.803206 604.050513 
L 917.633048 610.608026 
L 919.462889 560.194488 
L 921.292731 533.446349 
L 923.122572 533.498571 
L 924.952414 503.70078 
L 926.782255 534.655461 
L 928.612097 571.661757 
L 930.441938 582.624473 
L 932.27178 613.832102 
L 934.101621 596.220954 
L 935.931463 574.466104 
L 937.761304 607.895372 
L 939.591146 588.613561 
L 941.420987 522.787241 
L 943.250829 481.152352 
L 945.08067 469.709158 
L 946.910512 365.359136 
L 948.740353 369.967932 
L 950.570195 325.239914 
L 952.400036 236.470529 
L 954.229878 203.055111 
L 956.059719 166.852686 
L 957.889561 157.270384 
L 959.719402 186.890042 
L 961.549244 175.142179 
L 963.379085 203.586019 
L 965.208927 182.795453 
L 967.038768 185.51609 
L 968.86861 181.155097 
L 970.698451 190.989899 
L 972.528293 226.216487 
L 974.358134 236.290156 
L 976.187976 216.143577 
L 978.017817 201.738623 
L 979.847659 178.127049 
L 981.6775 176.842985 
L 983.507342 190.118396 
L 985.337183 240.523134 
L 987.167025 263.283898 
L 988.996866 253.03029 
L 990.826708 232.923251 
L 992.656549 219.93358 
L 994.486391 193.891561 
L 996.316232 199.479481 
L 998.146074 257.046397 
L 999.975915 232.397177 
L 1001.805757 235.106734 
L 1003.635598 214.672677 
L 1005.46544 191.500385 
L 1007.295281 222.269303 
L 1009.125123 218.312722 
L 1010.954964 227.914414 
L 1012.784806 281.423022 
L 1014.614647 279.470856 
L 1016.444489 270.832239 
L 1018.27433 337.219883 
L 1020.104172 310.615917 
L 1021.934013 278.251153 
L 1023.763855 348.066288 
L 1025.593696 275.625943 
L 1027.423538 379.063183 
L 1029.253379 441.131898 
L 1031.083221 429.139248 
L 1032.913062 460.724134 
L 1034.742904 399.808806 
L 1036.572745 310.382344 
L 1038.402587 331.117919 
L 1040.232428 294.903164 
L 1042.06227 382.267667 
L 1043.892111 392.930902 
L 1045.721953 406.453001 
L 1047.551794 498.507742 
L 1049.381636 426.075815 
L 1051.211478 491.354472 
L 1053.041319 514.685765 
L 1054.871161 434.000137 
L 1058.530844 468.751052 
L 1060.360685 488.135949 
L 1062.190527 510.411183 
L 1064.020368 436.903102 
L 1065.85021 434.924215 
L 1067.680051 326.85382 
L 1069.509893 304.779027 
L 1071.339734 384.997429 
L 1073.169576 328.985652 
L 1074.999417 347.743914 
L 1076.829259 292.433941 
L 1078.6591 259.031205 
L 1080.488942 253.366486 
L 1082.318783 291.497479 
L 1084.148625 361.984762 
L 1085.978466 361.143348 
L 1087.808308 400.193504 
L 1089.638149 417.843893 
L 1091.467991 311.990493 
L 1093.297832 316.951072 
L 1095.127674 318.559791 
L 1096.957515 332.602967 
L 1098.787357 287.420134 
L 1100.617198 299.607252 
L 1102.44704 268.447744 
L 1104.276881 324.686059 
L 1106.106723 348.378723 
L 1107.936564 398.785254 
L 1109.766406 457.101632 
L 1111.596247 489.250692 
L 1113.426089 470.916124 
L 1115.25593 512.189412 
L 1117.085772 504.659347 
L 1118.915613 502.202697 
L 1120.745455 486.366084 
L 1120.745455 486.366084 
" clip-path="url(#p95921c17f6)" style="fill: none; stroke: #ff6347; stroke-linecap: square"/>
   </g>
   <g id="line2d_14">
    <path d="M 207.654545 668.031977 
L 209.484387 642.863539 
L 211.314228 669.691498 
L 213.14407 636.941113 
L 214.973911 692.777901 
L 216.803753 661.754678 
L 218.633594 681.583018 
L 220.463436 672.674582 
L 222.293277 643.544187 
L 224.123119 690.948815 
L 225.95296 701.452802 
L 227.782802 687.324107 
L 229.612643 691.302636 
L 231.442485 687.319728 
L 233.272326 604.605319 
L 235.102168 613.07934 
L 236.932009 591.500315 
L 238.761851 597.912622 
L 240.591692 574.59784 
L 242.421534 304.53356 
L 244.251375 350.295748 
L 246.081217 243.392806 
L 247.911058 207.310303 
L 249.7409 187.556351 
L 251.570741 145.601112 
L 253.400583 153.479458 
L 255.230424 207.904703 
L 257.060266 185.657141 
L 258.890107 174.640818 
L 260.719949 173.662698 
L 262.54979 168.618775 
L 264.379632 176.127088 
L 266.209473 254.736745 
L 268.039315 231.451482 
L 269.869156 327.105831 
L 271.698998 275.650166 
L 273.528839 288.416204 
L 275.358681 352.406317 
L 277.188522 231.039736 
L 279.018364 344.647921 
L 280.848206 292.593702 
L 282.678047 269.400716 
L 284.507889 298.962124 
L 286.33773 228.596963 
L 288.167572 206.912027 
L 289.997413 153.946276 
L 291.827255 155.453674 
L 293.657096 174.014645 
L 295.486938 171.103261 
L 297.316779 176.764286 
L 299.146621 181.846771 
L 300.976462 221.704884 
L 302.806304 242.985243 
L 304.636145 220.69901 
L 306.465987 291.090269 
L 308.295828 339.740079 
L 310.12567 356.676227 
L 311.955511 435.783688 
L 313.785353 348.244706 
L 315.615194 318.955921 
L 317.445036 277.262225 
L 319.274877 351.310203 
L 321.104719 301.986479 
L 322.93456 433.97795 
L 324.764402 444.193132 
L 326.594243 464.015952 
L 328.424085 556.566419 
L 330.253926 568.790524 
L 332.083768 549.45182 
L 335.743451 378.147958 
L 337.573292 409.732138 
L 339.403134 413.22972 
L 343.062817 474.447842 
L 344.892658 354.840183 
L 346.7225 371.767098 
L 348.552341 406.196373 
L 350.382183 463.681358 
L 352.212024 542.504586 
L 354.041866 529.3137 
L 355.871707 497.93705 
L 357.701549 506.696838 
L 359.53139 559.523494 
L 361.361232 521.862661 
L 363.191073 536.393797 
L 365.020915 447.968307 
L 366.850756 439.791567 
L 368.680598 516.962898 
L 370.510439 571.257222 
L 372.340281 528.691995 
L 374.170122 542.807122 
L 375.999964 420.7181 
L 377.829805 464.250638 
L 379.659647 448.571125 
L 381.489488 462.228843 
L 383.31933 531.678059 
L 385.149171 437.304691 
L 386.979013 211.54616 
L 388.808854 420.552609 
L 390.638696 489.371783 
L 392.468537 341.214047 
L 394.298379 412.866177 
L 396.12822 366.276371 
L 397.958062 253.262369 
L 399.787903 324.843702 
L 401.617745 323.661692 
L 403.447586 264.728022 
L 405.277428 339.627868 
L 407.107269 328.914176 
L 408.937111 302.186594 
L 410.766952 310.125689 
L 412.596794 308.029513 
L 414.426635 370.824825 
L 416.256477 384.545764 
L 418.086318 342.246534 
L 419.91616 518.006315 
L 421.746001 580.828457 
L 423.575843 475.48147 
L 425.405684 522.36758 
L 427.235526 437.603629 
L 429.065367 508.140853 
L 430.895209 516.369028 
L 432.72505 522.152487 
L 434.554892 443.141092 
L 436.384733 331.006904 
L 438.214575 354.670455 
L 440.044416 388.64372 
L 441.874258 418.803953 
L 443.704099 443.756348 
L 445.533941 519.98675 
L 447.363782 499.308883 
L 449.193624 492.003049 
L 451.023465 515.009632 
L 452.853307 496.239774 
L 454.683148 520.489795 
L 456.51299 573.075995 
L 458.342831 449.205254 
L 460.172673 542.054971 
L 462.002514 564.908257 
L 463.832356 571.813616 
L 465.662197 621.018747 
L 467.492039 536.810648 
L 469.32188 414.944973 
L 471.151722 410.345873 
L 472.981563 414.073796 
L 474.811405 492.978317 
L 476.641246 584.613572 
L 478.471088 513.754137 
L 480.300929 579.407851 
L 482.130771 588.155555 
L 483.960612 600.645751 
L 485.790454 578.934963 
L 487.620295 589.243807 
L 489.450137 601.552477 
L 491.279978 575.877328 
L 493.10982 603.994313 
L 494.939661 598.84076 
L 496.769503 559.766924 
L 498.599344 509.013008 
L 500.429186 556.128536 
L 502.259027 583.52164 
L 504.088869 642.539074 
L 505.91871 622.342446 
L 507.748552 562.366458 
L 511.408235 517.044611 
L 513.238076 534.351187 
L 515.067918 603.422793 
L 516.897759 647.02515 
L 518.727601 658.647618 
L 520.557442 660.955627 
L 522.387284 687.789459 
L 524.217125 642.414073 
L 526.046967 611.59493 
L 527.876808 606.429958 
L 529.70665 603.114527 
L 531.536491 635.546123 
L 533.366333 653.657302 
L 535.196174 634.631413 
L 537.026016 667.192015 
L 538.855857 706.110163 
L 540.685699 701.352137 
L 542.51554 694.476361 
L 544.345382 612.563504 
L 546.175223 678.820702 
L 548.005065 673.321923 
L 549.834906 702.902095 
L 551.664748 673.631818 
L 553.494589 688.526789 
L 555.324431 667.682684 
L 557.154272 670.758005 
L 558.984114 666.280986 
L 560.813955 691.718754 
L 562.643797 683.164335 
L 564.473638 659.957304 
L 566.30348 687.200287 
L 568.133321 672.065993 
L 569.963163 703.361908 
L 571.793004 677.670974 
L 573.622846 695.744114 
L 575.452687 703.481477 
L 577.282529 685.865624 
L 579.11237 709.214956 
L 580.942212 702.128464 
L 582.772053 651.069717 
L 584.601895 685.138654 
L 586.431736 645.340536 
L 588.261578 637.67767 
L 590.091419 564.390982 
L 591.921261 304.496627 
L 593.751102 279.675398 
L 595.580944 229.729928 
L 597.410785 294.594722 
L 599.240627 254.38936 
L 601.070468 240.329075 
L 602.90031 221.540316 
L 604.730151 179.085724 
L 606.559993 189.449859 
L 608.389834 160.687909 
L 610.219676 248.135456 
L 612.049517 212.17646 
L 613.879359 195.12783 
L 615.7092 217.32689 
L 617.539042 164.714227 
L 619.368883 191.957754 
L 623.028566 211.074562 
L 624.858408 232.433512 
L 626.688249 268.387294 
L 628.518091 215.443811 
L 630.347932 249.58349 
L 632.177774 226.328099 
L 634.007615 252.080848 
L 635.837457 252.620826 
L 637.667298 252.507746 
L 639.49714 339.013591 
L 641.326981 237.424045 
L 643.156823 241.207422 
L 644.986664 243.230628 
L 646.816506 176.925378 
L 648.646347 199.301172 
L 650.476189 205.934505 
L 652.30603 178.338815 
L 654.135872 191.838537 
L 657.795555 254.411302 
L 659.625396 303.115181 
L 661.455238 277.860372 
L 663.285079 243.059163 
L 665.114921 320.71992 
L 666.944762 237.928991 
L 668.774604 256.778363 
L 670.604445 318.489238 
L 672.434287 236.912581 
L 674.264128 311.708582 
L 676.09397 347.791818 
L 677.923811 341.80641 
L 679.753653 364.748035 
L 681.583494 400.713494 
L 683.413336 406.279092 
L 687.073019 470.911019 
L 688.90286 509.004047 
L 690.732702 586.157848 
L 692.562543 601.49352 
L 694.392385 634.716012 
L 696.222226 621.393438 
L 698.052068 589.706104 
L 699.881909 522.920118 
L 701.711751 538.801294 
L 703.541592 527.48344 
L 705.371434 563.364741 
L 707.201275 637.081492 
L 709.031117 600.286499 
L 710.860958 615.004662 
L 712.6908 615.260312 
L 714.520641 602.99565 
L 716.350483 608.881937 
L 718.180324 541.030374 
L 720.010166 465.713391 
L 721.840007 508.808303 
L 723.669849 545.814844 
L 725.49969 588.075932 
L 727.329532 643.41216 
L 729.159373 671.257852 
L 730.989215 697.025299 
L 732.819056 632.579862 
L 734.648898 643.607747 
L 736.478739 612.938344 
L 738.308581 614.849925 
L 740.138422 643.790754 
L 741.968264 605.984661 
L 743.798105 597.742609 
L 745.627947 618.154547 
L 747.457788 611.41024 
L 749.28763 638.274201 
L 751.117471 659.953176 
L 752.947313 616.99262 
L 754.777154 643.493717 
L 756.606996 655.537313 
L 758.436837 628.642814 
L 760.266679 634.479697 
L 762.09652 623.341408 
L 763.926362 618.667274 
L 765.756203 513.154632 
L 767.586045 297.268569 
L 769.415886 323.778166 
L 771.245728 322.0341 
L 773.075569 372.948022 
L 774.905411 286.477888 
L 776.735252 245.816788 
L 778.565094 179.363046 
L 780.394935 142.135085 
L 782.224777 170.251745 
L 784.054618 154.359597 
L 785.88446 142.132804 
L 787.714301 141.044049 
L 789.544143 136.669261 
L 791.373984 150.725798 
L 793.203826 228.864671 
L 795.033667 206.205744 
L 796.863509 217.930795 
L 798.69335 223.92177 
L 800.523192 234.383451 
L 802.353033 209.556736 
L 804.182875 213.719162 
L 806.012716 206.317628 
L 807.842558 213.351464 
L 809.672399 254.177974 
L 811.502241 247.72735 
L 813.332082 238.624413 
L 815.161924 203.587866 
L 816.991765 152.752752 
L 818.821607 145.54756 
L 820.651448 162.592225 
L 822.48129 195.711638 
L 824.311131 192.485566 
L 826.140973 245.210819 
L 827.970814 218.409236 
L 829.800656 194.33622 
L 831.630497 182.63045 
L 833.460339 290.486826 
L 835.29018 241.0447 
L 837.120022 272.894714 
L 838.949863 261.679117 
L 840.779705 254.611879 
L 842.609546 223.507037 
L 844.439388 206.567467 
L 846.269229 197.570549 
L 848.099071 172.564602 
L 849.928912 309.429833 
L 851.758754 375.605276 
L 853.588595 374.700941 
L 855.418437 424.164954 
L 857.248278 464.923139 
L 859.07812 434.703488 
L 860.907961 425.730684 
L 862.737803 396.54409 
L 864.567644 317.3755 
L 866.397486 353.229346 
L 868.227327 462.263984 
L 870.057169 437.482213 
L 871.88701 509.59516 
L 873.716852 504.405109 
L 875.546693 465.691068 
L 877.376535 554.499952 
L 879.206376 562.28655 
L 881.036218 616.734308 
L 882.866059 630.563818 
L 884.695901 609.795139 
L 886.525742 566.548463 
L 888.355584 517.532069 
L 890.185425 529.468492 
L 892.015267 505.550946 
L 893.845108 453.962867 
L 895.67495 504.481364 
L 897.504791 535.749552 
L 899.334633 579.260392 
L 901.164474 619.916781 
L 902.994316 613.983676 
L 904.824157 636.837383 
L 906.653999 604.536464 
L 908.48384 624.626354 
L 910.313682 611.02838 
L 912.143523 621.87526 
L 913.973365 639.31922 
L 915.803206 613.433949 
L 917.633048 632.962761 
L 919.462889 587.949913 
L 921.292731 549.504639 
L 923.122572 554.741631 
L 924.952414 516.555809 
L 926.782255 546.712132 
L 928.612097 599.977229 
L 930.441938 598.975266 
L 932.27178 637.782507 
L 934.101621 619.571351 
L 935.931463 605.241729 
L 937.761304 649.088385 
L 939.591146 602.255923 
L 941.420987 481.853938 
L 943.250829 426.590592 
L 945.08067 425.690276 
L 946.910512 344.696612 
L 948.740353 356.965688 
L 950.570195 314.900247 
L 952.400036 243.826331 
L 954.229878 212.492995 
L 956.059719 166.520617 
L 957.889561 168.584721 
L 959.719402 177.42033 
L 961.549244 153.779264 
L 963.379085 180.416334 
L 965.208927 164.846153 
L 967.038768 166.677364 
L 968.86861 163.817305 
L 970.698451 175.265469 
L 972.528293 228.837732 
L 974.358134 230.987162 
L 978.017817 220.502941 
L 979.847659 166.209893 
L 981.6775 156.759246 
L 983.507342 165.711139 
L 985.337183 223.604637 
L 987.167025 258.437511 
L 988.996866 242.550686 
L 990.826708 231.502482 
L 992.656549 208.751548 
L 994.486391 165.559063 
L 996.316232 179.231826 
L 998.146074 239.557398 
L 999.975915 220.869661 
L 1001.805757 226.329403 
L 1003.635598 213.681523 
L 1005.46544 186.696471 
L 1007.295281 184.125302 
L 1009.125123 170.725678 
L 1010.954964 188.501612 
L 1012.784806 244.644608 
L 1014.614647 237.210053 
L 1016.444489 241.047362 
L 1018.27433 299.001283 
L 1020.104172 260.656842 
L 1021.934013 209.099422 
L 1023.763855 298.983713 
L 1025.593696 239.285943 
L 1027.423538 339.085148 
L 1029.253379 418.892863 
L 1031.083221 376.800729 
L 1032.913062 389.320186 
L 1036.572745 264.447931 
L 1038.402587 283.463092 
L 1040.232428 256.260328 
L 1042.06227 334.763504 
L 1043.892111 336.150029 
L 1045.721953 334.660527 
L 1047.551794 453.974979 
L 1049.381636 351.374536 
L 1051.211478 432.239722 
L 1053.041319 492.455692 
L 1054.871161 352.200037 
L 1056.701002 372.504205 
L 1058.530844 417.058014 
L 1062.190527 523.732732 
L 1064.020368 467.534391 
L 1065.85021 446.559894 
L 1067.680051 307.446329 
L 1069.509893 303.444914 
L 1071.339734 404.878853 
L 1073.169576 338.33039 
L 1074.999417 351.325899 
L 1076.829259 293.844662 
L 1078.6591 248.246417 
L 1080.488942 243.258165 
L 1082.318783 281.120879 
L 1084.148625 379.448125 
L 1085.978466 349.147385 
L 1087.808308 385.501995 
L 1089.638149 416.492101 
L 1091.467991 274.137772 
L 1093.297832 283.983735 
L 1095.127674 302.992434 
L 1096.957515 314.562829 
L 1098.787357 276.839672 
L 1100.617198 294.563899 
L 1102.44704 268.677215 
L 1104.276881 341.413891 
L 1106.106723 346.101196 
L 1107.936564 349.398364 
L 1109.766406 434.846982 
L 1111.596247 484.801739 
L 1113.426089 456.120878 
L 1115.25593 502.565289 
L 1117.085772 467.089297 
L 1118.915613 441.324302 
L 1120.745455 472.494455 
L 1120.745455 472.494455 
" clip-path="url(#p95921c17f6)" style="fill: none; stroke: #da70d6; stroke-linecap: square"/>
   </g>
   <g id="line2d_15">
    <path d="M 207.654545 682.923543 
L 209.484387 684.15789 
L 211.314228 688.54733 
L 213.14407 698.34782 
L 214.973911 697.550412 
L 216.803753 650.47897 
L 218.633594 668.385288 
L 220.463436 672.414804 
L 222.293277 653.849277 
L 224.123119 675.84939 
L 225.95296 686.892445 
L 227.782802 689.423619 
L 229.612643 674.773908 
L 231.442485 650.373922 
L 233.272326 615.777357 
L 235.102168 660.891857 
L 236.932009 665.466429 
L 238.761851 663.772711 
L 240.591692 515.185619 
L 242.421534 340.9534 
L 244.251375 299.419737 
L 246.081217 207.468897 
L 247.911058 198.015153 
L 249.7409 195.524042 
L 251.570741 193.703368 
L 253.400583 193.752521 
L 255.230424 197.952748 
L 257.060266 195.360017 
L 258.890107 194.706797 
L 260.719949 194.370872 
L 262.54979 196.183074 
L 264.379632 195.41156 
L 266.209473 213.89041 
L 268.039315 203.794635 
L 269.869156 268.201272 
L 271.698998 220.025694 
L 273.528839 242.081152 
L 275.358681 281.844598 
L 277.188522 213.634434 
L 279.018364 263.051602 
L 280.848206 228.402197 
L 282.678047 237.693763 
L 284.507889 210.292512 
L 286.33773 200.203091 
L 288.167572 197.762707 
L 289.997413 196.352421 
L 291.827255 196.400651 
L 293.657096 197.167005 
L 297.316779 197.68667 
L 299.146621 197.842059 
L 300.976462 202.900917 
L 302.806304 206.507886 
L 304.636145 207.70657 
L 306.465987 245.535936 
L 308.295828 309.127501 
L 310.12567 321.473999 
L 311.955511 442.194882 
L 313.785353 310.965745 
L 315.615194 316.293208 
L 317.445036 245.259104 
L 319.274877 348.716684 
L 321.104719 271.417297 
L 322.93456 447.51303 
L 324.764402 443.891071 
L 326.594243 489.445268 
L 328.424085 564.938754 
L 330.253926 571.548379 
L 332.083768 568.503154 
L 333.913609 430.209509 
L 335.743451 342.359314 
L 337.573292 387.293096 
L 339.403134 404.669857 
L 341.232975 462.244838 
L 343.062817 464.80433 
L 344.892658 335.929301 
L 346.7225 400.9393 
L 348.552341 416.944038 
L 350.382183 492.449201 
L 352.212024 536.248863 
L 354.041866 519.402141 
L 355.871707 478.176906 
L 357.701549 523.869967 
L 359.53139 544.675605 
L 361.361232 505.266755 
L 363.191073 516.205179 
L 365.020915 441.356047 
L 366.850756 397.771342 
L 368.680598 494.334779 
L 370.510439 533.250606 
L 372.340281 489.317606 
L 374.170122 548.170893 
L 375.999964 351.607294 
L 377.829805 429.338386 
L 379.659647 409.597361 
L 381.489488 445.561869 
L 383.31933 501.128417 
L 385.149171 429.50719 
L 386.979013 311.155026 
L 388.808854 410.176064 
L 390.638696 461.096937 
L 392.468537 346.049354 
L 394.298379 394.735446 
L 397.958062 224.120338 
L 399.787903 281.604426 
L 401.617745 291.341438 
L 403.447586 266.852033 
L 405.277428 351.619324 
L 407.107269 343.903998 
L 408.937111 372.324483 
L 410.766952 385.09196 
L 412.596794 416.980835 
L 414.426635 501.582146 
L 416.256477 564.14246 
L 418.086318 498.057054 
L 419.91616 561.10215 
L 421.746001 582.902854 
L 423.575843 446.016169 
L 425.405684 542.205554 
L 427.235526 439.249986 
L 429.065367 507.391363 
L 430.895209 499.39687 
L 432.72505 510.672699 
L 436.384733 295.032836 
L 438.214575 342.870235 
L 440.044416 354.546052 
L 441.874258 419.186044 
L 443.704099 429.255831 
L 445.533941 516.46842 
L 447.363782 505.351564 
L 449.193624 498.427006 
L 451.023465 494.177082 
L 452.853307 479.257297 
L 454.683148 502.492239 
L 456.51299 557.67049 
L 458.342831 442.386307 
L 460.172673 538.187125 
L 462.002514 565.878135 
L 463.832356 560.03212 
L 465.662197 594.267648 
L 467.492039 527.451083 
L 469.32188 404.693782 
L 471.151722 417.395595 
L 472.981563 417.280506 
L 474.811405 515.833517 
L 476.641246 583.623381 
L 478.471088 513.26835 
L 480.300929 577.098837 
L 482.130771 599.107341 
L 483.960612 579.556668 
L 485.790454 596.532207 
L 487.620295 625.6333 
L 489.450137 618.296765 
L 491.279978 567.734927 
L 493.10982 613.044797 
L 494.939661 601.536808 
L 498.599344 489.669933 
L 500.429186 582.977982 
L 502.259027 589.170458 
L 505.91871 659.091666 
L 507.748552 580.079497 
L 509.578393 532.90872 
L 511.408235 524.258358 
L 513.238076 528.867059 
L 515.067918 583.774181 
L 516.897759 629.1492 
L 518.727601 643.223029 
L 520.557442 651.187426 
L 522.387284 665.46742 
L 524.217125 642.723493 
L 526.046967 598.210175 
L 527.876808 585.726197 
L 529.70665 588.856163 
L 531.536491 624.876132 
L 533.366333 650.961166 
L 535.196174 640.731422 
L 537.026016 636.11953 
L 538.855857 639.619088 
L 540.685699 644.126326 
L 542.51554 635.012879 
L 544.345382 638.077561 
L 546.175223 688.787257 
L 548.005065 693.776673 
L 549.834906 704.230499 
L 551.664748 682.827518 
L 553.494589 692.962632 
L 555.324431 683.591984 
L 557.154272 669.472923 
L 558.984114 672.904855 
L 560.813955 691.262027 
L 562.643797 701.832289 
L 564.473638 705.237014 
L 566.30348 692.527845 
L 568.133321 660.655549 
L 569.963163 675.59839 
L 571.793004 672.36489 
L 573.622846 678.561623 
L 575.452687 688.936922 
L 577.282529 673.407622 
L 579.11237 674.204683 
L 580.942212 678.066582 
L 582.772053 657.987147 
L 584.601895 667.011839 
L 586.431736 650.568708 
L 588.261578 650.978254 
L 590.091419 594.475978 
L 591.921261 407.932292 
L 593.751102 312.977356 
L 595.580944 241.658272 
L 597.410785 235.418924 
L 599.240627 216.381467 
L 601.070468 213.635737 
L 602.90031 200.782989 
L 604.730151 194.975645 
L 606.559993 194.185122 
L 608.389834 193.913124 
L 610.219676 214.812533 
L 612.049517 206.151594 
L 613.879359 208.376518 
L 615.7092 203.591994 
L 617.539042 195.562169 
L 619.368883 199.798026 
L 621.198725 198.289433 
L 623.028566 204.042573 
L 624.858408 204.675752 
L 626.688249 222.67692 
L 628.518091 204.082601 
L 630.347932 219.523572 
L 632.177774 203.717673 
L 634.007615 220.404635 
L 635.837457 206.613959 
L 637.667298 225.646039 
L 639.49714 307.295041 
L 641.326981 235.187769 
L 643.156823 239.387236 
L 644.986664 223.535171 
L 646.816506 200.350985 
L 648.646347 204.653266 
L 650.476189 204.602918 
L 652.30603 198.466113 
L 654.135872 199.285856 
L 655.965713 226.759289 
L 657.795555 264.718843 
L 659.625396 334.813635 
L 661.455238 264.64324 
L 663.285079 251.596052 
L 665.114921 318.947964 
L 666.944762 235.420228 
L 668.774604 320.83729 
L 670.604445 366.956123 
L 672.434287 264.143562 
L 674.264128 364.119772 
L 676.09397 374.495204 
L 677.923811 383.134744 
L 679.753653 380.175265 
L 681.583494 440.969231 
L 683.413336 417.653146 
L 685.243177 461.44682 
L 687.073019 492.026267 
L 688.90286 525.629187 
L 690.732702 591.569971 
L 692.562543 603.560001 
L 694.392385 628.700549 
L 696.222226 623.226808 
L 698.052068 596.582148 
L 699.881909 501.281036 
L 701.711751 568.313739 
L 703.541592 542.117173 
L 705.371434 549.299568 
L 707.201275 611.100086 
L 709.031117 588.208659 
L 710.860958 582.168884 
L 712.6908 564.20788 
L 714.520641 547.387512 
L 716.350483 568.39146 
L 718.180324 522.725542 
L 720.010166 434.926523 
L 721.840007 483.055256 
L 723.669849 514.634643 
L 725.49969 562.004816 
L 727.329532 621.466869 
L 729.159373 652.881851 
L 730.989215 651.100689 
L 732.819056 607.987025 
L 734.648898 632.413441 
L 736.478739 607.01173 
L 738.308581 592.513222 
L 740.138422 633.628792 
L 741.968264 597.800357 
L 743.798105 565.015633 
L 745.627947 598.738095 
L 747.457788 585.271395 
L 749.28763 599.200773 
L 751.117471 629.693326 
L 752.947313 583.456464 
L 754.777154 631.069429 
L 756.606996 639.645355 
L 758.436837 613.114209 
L 760.266679 581.735196 
L 762.09652 602.410443 
L 763.926362 613.026915 
L 765.756203 578.217491 
L 767.586045 390.777426 
L 769.415886 368.366274 
L 771.245728 349.682936 
L 773.075569 351.215291 
L 774.905411 244.625979 
L 776.735252 211.804146 
L 778.565094 198.737731 
L 780.394935 193.250616 
L 784.054618 193.37396 
L 789.544143 193.818076 
L 791.373984 194.586005 
L 793.203826 218.504066 
L 795.033667 207.884824 
L 796.863509 214.027821 
L 798.69335 208.986125 
L 800.523192 210.513945 
L 802.353033 200.374176 
L 804.182875 209.265022 
L 806.012716 199.913712 
L 807.842558 211.349113 
L 809.672399 237.462879 
L 811.502241 215.811346 
L 813.332082 209.96104 
L 815.161924 200.32926 
L 816.991765 196.797569 
L 818.821607 196.76585 
L 820.651448 197.805071 
L 822.48129 209.274581 
L 824.311131 205.809477 
L 826.140973 238.699745 
L 827.970814 212.746908 
L 829.800656 208.118695 
L 831.630497 209.550816 
L 833.460339 288.481868 
L 835.29018 238.361104 
L 837.120022 306.016327 
L 838.949863 264.418276 
L 840.779705 278.158061 
L 842.609546 236.926811 
L 844.439388 259.321289 
L 846.269229 241.267274 
L 848.099071 228.441737 
L 849.928912 338.988389 
L 851.758754 396.015925 
L 853.588595 412.087712 
L 855.418437 438.834711 
L 857.248278 489.978484 
L 859.07812 462.516973 
L 860.907961 449.046824 
L 862.737803 415.894036 
L 864.567644 339.342971 
L 866.397486 400.54689 
L 868.227327 470.905859 
L 870.057169 466.870254 
L 871.88701 530.96018 
L 873.716852 507.474489 
L 875.546693 493.333414 
L 877.376535 548.273911 
L 879.206376 554.378862 
L 881.036218 587.343171 
L 882.866059 595.220227 
L 884.695901 580.581347 
L 886.525742 514.01526 
L 888.355584 472.864868 
L 890.185425 521.51886 
L 892.015267 514.400636 
L 893.845108 466.47415 
L 895.67495 508.945172 
L 899.334633 560.160529 
L 901.164474 623.009489 
L 902.994316 615.549487 
L 904.824157 630.010112 
L 906.653999 596.056943 
L 908.48384 605.508595 
L 910.313682 598.202598 
L 912.143523 616.098318 
L 913.973365 636.067403 
L 915.803206 621.305587 
L 917.633048 621.286754 
L 919.462889 547.225198 
L 921.292731 534.95649 
L 923.122572 541.135469 
L 924.952414 503.395624 
L 926.782255 543.735831 
L 928.612097 591.886859 
L 930.441938 599.653266 
L 932.27178 620.519952 
L 934.101621 594.308586 
L 935.931463 573.425946 
L 937.761304 626.611725 
L 939.591146 613.701426 
L 941.420987 512.304433 
L 943.250829 435.036235 
L 945.08067 455.68901 
L 946.910512 344.950497 
L 948.740353 371.095574 
L 950.570195 288.505685 
L 952.400036 213.676906 
L 954.229878 202.117726 
L 956.059719 195.295439 
L 957.889561 193.908344 
L 959.719402 198.113025 
L 961.549244 196.121483 
L 963.379085 201.37967 
L 965.208927 197.390665 
L 967.038768 197.054142 
L 968.86861 196.550011 
L 970.698451 199.236486 
L 972.528293 214.131776 
L 974.358134 224.475 
L 976.187976 207.241163 
L 978.017817 200.10598 
L 979.847659 196.243632 
L 981.6775 196.180358 
L 983.507342 198.560128 
L 985.337183 215.14433 
L 987.167025 233.555723 
L 988.996866 221.072248 
L 990.826708 211.497007 
L 992.656549 206.319855 
L 994.486391 200.291023 
L 996.316232 200.882816 
L 998.146074 227.289436 
L 999.975915 222.144981 
L 1001.805757 224.907928 
L 1003.635598 212.901971 
L 1005.46544 199.974869 
L 1007.295281 214.749421 
L 1009.125123 209.310753 
L 1010.954964 212.976271 
L 1012.784806 268.78709 
L 1014.614647 270.489471 
L 1016.444489 261.560009 
L 1018.27433 354.427921 
L 1020.104172 306.968186 
L 1021.934013 272.189191 
L 1023.763855 367.372431 
L 1025.593696 265.148457 
L 1027.423538 404.35115 
L 1029.253379 440.878013 
L 1031.083221 415.987644 
L 1032.913062 452.799188 
L 1034.742904 375.785676 
L 1036.572745 291.081361 
L 1038.402587 337.923994 
L 1040.232428 273.861048 
L 1042.06227 395.701073 
L 1043.892111 382.231386 
L 1045.721953 407.921729 
L 1047.551794 494.759071 
L 1049.381636 421.135494 
L 1051.211478 493.507079 
L 1053.041319 510.919239 
L 1054.871161 413.302255 
L 1056.701002 440.527152 
L 1058.530844 459.255325 
L 1060.360685 490.927275 
L 1062.190527 511.217552 
L 1064.020368 437.217601 
L 1065.85021 447.160866 
L 1067.680051 316.608358 
L 1069.509893 321.406977 
L 1071.339734 395.792536 
L 1073.169576 309.139042 
L 1074.999417 348.119216 
L 1076.829259 273.796687 
L 1078.6591 258.978576 
L 1080.488942 251.273868 
L 1082.318783 306.134023 
L 1084.148625 373.275419 
L 1085.978466 348.880166 
L 1087.808308 393.317039 
L 1089.638149 400.984488 
L 1091.467991 302.958488 
L 1093.297832 321.921102 
L 1095.127674 325.168873 
L 1096.957515 334.375194 
L 1098.787357 265.629723 
L 1100.617198 298.63144 
L 1102.44704 252.457073 
L 1104.276881 324.492108 
L 1106.106723 348.490661 
L 1109.766406 436.308431 
L 1111.596247 483.202281 
L 1113.426089 462.052897 
L 1115.25593 510.710365 
L 1117.085772 495.398414 
L 1118.915613 497.641045 
L 1120.745455 471.279178 
L 1120.745455 471.279178 
" clip-path="url(#p95921c17f6)" style="fill: none; stroke: #8fbc8f; stroke-linecap: square"/>
   </g>
   <g id="patch_3">
    <path d="M 162 768.96 
L 162 103.68 
" style="fill: none; stroke: #000000; stroke-width: 0.8; stroke-linejoin: miter; stroke-linecap: square"/>
   </g>
   <g id="patch_4">
    <path d="M 1166.4 768.96 
L 1166.4 103.68 
" style="fill: none; stroke: #000000; stroke-width: 0.8; stroke-linejoin: miter; stroke-linecap: square"/>
   </g>
   <g id="patch_5">
    <path d="M 162 768.96 
L 1166.4 768.96 
" style="fill: none; stroke: #000000; stroke-width: 0.8; stroke-linejoin: miter; stroke-linecap: square"/>
   </g>
   <g id="patch_6">
    <path d="M 162 103.68 
L 1166.4 103.68 
" style="fill: none; stroke: #000000; stroke-width: 0.8; stroke-linejoin: miter; stroke-linecap: square"/>
   </g>
   <g id="text_12">
    <!-- Function 1 -->
    <g transform="translate(632.957813 97.68) scale(0.12 -0.12)">
     <defs>
      <path id="DejaVuSans-46" d="M 628 4666 
L 3309 4666 
L 3309 4134 
L 1259 4134 
L 1259 2759 
L 3109 2759 
L 3109 2228 
L 1259 2228 
L 1259 0 
L 628 0 
L 628 4666 
z
" transform="scale(0.015625)"/>
      <path id="DejaVuSans-75" d="M 544 1381 
L 544 3500 
L 1119 3500 
L 1119 1403 
Q 1119 906 1312 657 
Q 1506 409 1894 409 
Q 2359 409 2629 706 
Q 2900 1003 2900 1516 
L 2900 3500 
L 3475 3500 
L 3475 0 
L 2900 0 
L 2900 538 
Q 2691 219 2414 64 
Q 2138 -91 1772 -91 
Q 1169 -91 856 284 
Q 544 659 544 1381 
z
M 1991 3584 
L 1991 3584 
z
" transform="scale(0.015625)"/>
      <path id="DejaVuSans-6e" d="M 3513 2113 
L 3513 0 
L 2938 0 
L 2938 2094 
Q 2938 2591 2744 2837 
Q 2550 3084 2163 3084 
Q 1697 3084 1428 2787 
Q 1159 2491 1159 1978 
L 1159 0 
L 581 0 
L 581 3500 
L 1159 3500 
L 1159 2956 
Q 1366 3272 1645 3428 
Q 1925 3584 2291 3584 
Q 2894 3584 3203 3211 
Q 3513 2838 3513 2113 
z
" transform="scale(0.015625)"/>
      <path id="DejaVuSans-63" d="M 3122 3366 
L 3122 2828 
Q 2878 2963 2633 3030 
Q 2388 3097 2138 3097 
Q 1578 3097 1268 2742 
Q 959 2388 959 1747 
Q 959 1106 1268 751 
Q 1578 397 2138 397 
Q 2388 397 2633 464 
Q 2878 531 3122 666 
L 3122 134 
Q 2881 22 2623 -34 
Q 2366 -91 2075 -91 
Q 1284 -91 818 406 
Q 353 903 353 1747 
Q 353 2603 823 3093 
Q 1294 3584 2113 3584 
Q 2378 3584 2631 3529 
Q 2884 3475 3122 3366 
z
" transform="scale(0.015625)"/>
      <path id="DejaVuSans-74" d="M 1172 4494 
L 1172 3500 
L 2356 3500 
L 2356 3053 
L 1172 3053 
L 1172 1153 
Q 1172 725 1289 603 
Q 1406 481 1766 481 
L 2356 481 
L 2356 0 
L 1766 0 
Q 1100 0 847 248 
Q 594 497 594 1153 
L 594 3053 
L 172 3053 
L 172 3500 
L 594 3500 
L 594 4494 
L 1172 4494 
z
" transform="scale(0.015625)"/>
      <path id="DejaVuSans-69" d="M 603 3500 
L 1178 3500 
L 1178 0 
L 603 0 
L 603 3500 
z
M 603 4863 
L 1178 4863 
L 1178 4134 
L 603 4134 
L 603 4863 
z
" transform="scale(0.015625)"/>
      <path id="DejaVuSans-6f" d="M 1959 3097 
Q 1497 3097 1228 2736 
Q 959 2375 959 1747 
Q 959 1119 1226 758 
Q 1494 397 1959 397 
Q 2419 397 2687 759 
Q 2956 1122 2956 1747 
Q 2956 2369 2687 2733 
Q 2419 3097 1959 3097 
z
M 1959 3584 
Q 2709 3584 3137 3096 
Q 3566 2609 3566 1747 
Q 3566 888 3137 398 
Q 2709 -91 1959 -91 
Q 1206 -91 779 398 
Q 353 888 353 1747 
Q 353 2609 779 3096 
Q 1206 3584 1959 3584 
z
" transform="scale(0.015625)"/>
      <path id="DejaVuSans-20" transform="scale(0.015625)"/>
     </defs>
     <use xlink:href="#DejaVuSans-46"/>
     <use xlink:href="#DejaVuSans-75" x="52.019531"/>
     <use xlink:href="#DejaVuSans-6e" x="115.398438"/>
     <use xlink:href="#DejaVuSans-63" x="178.777344"/>
     <use xlink:href="#DejaVuSans-74" x="233.757812"/>
     <use xlink:href="#DejaVuSans-69" x="272.966797"/>
     <use xlink:href="#DejaVuSans-6f" x="300.75"/>
     <use xlink:href="#DejaVuSans-6e" x="361.931641"/>
     <use xlink:href="#DejaVuSans-20" x="425.310547"/>
     <use xlink:href="#DejaVuSans-31" x="457.097656"/>
    </g>
   </g>
   <g id="legend_1">
    <g id="patch_7">
     <path d="M 1011.90625 763.96 
L 1159.4 763.96 
Q 1161.4 763.96 1161.4 761.96 
L 1161.4 704.2475 
Q 1161.4 702.2475 1159.4 702.2475 
L 1011.90625 702.2475 
Q 1009.90625 702.2475 1009.90625 704.2475 
L 1009.90625 761.96 
Q 1009.90625 763.96 1011.90625 763.96 
z
" style="fill: #ffffff; opacity: 0.8; stroke: #cccccc; stroke-linejoin: miter"/>
    </g>
    <g id="line2d_16">
     <path d="M 1013.90625 710.345937 
L 1023.90625 710.345937 
L 1033.90625 710.345937 
" style="fill: none; stroke: #4169e1; stroke-linecap: square"/>
    </g>
    <g id="text_13">
     <!-- Truth -->
     <g transform="translate(1041.90625 713.845937) scale(0.1 -0.1)">
      <defs>
       <path id="DejaVuSans-54" d="M -19 4666 
L 3928 4666 
L 3928 4134 
L 2272 4134 
L 2272 0 
L 1638 0 
L 1638 4134 
L -19 4134 
L -19 4666 
z
" transform="scale(0.015625)"/>
       <path id="DejaVuSans-72" d="M 2631 2963 
Q 2534 3019 2420 3045 
Q 2306 3072 2169 3072 
Q 1681 3072 1420 2755 
Q 1159 2438 1159 1844 
L 1159 0 
L 581 0 
L 581 3500 
L 1159 3500 
L 1159 2956 
Q 1341 3275 1631 3429 
Q 1922 3584 2338 3584 
Q 2397 3584 2469 3576 
Q 2541 3569 2628 3553 
L 2631 2963 
z
" transform="scale(0.015625)"/>
       <path id="DejaVuSans-68" d="M 3513 2113 
L 3513 0 
L 2938 0 
L 2938 2094 
Q 2938 2591 2744 2837 
Q 2550 3084 2163 3084 
Q 1697 3084 1428 2787 
Q 1159 2491 1159 1978 
L 1159 0 
L 581 0 
L 581 4863 
L 1159 4863 
L 1159 2956 
Q 1366 3272 1645 3428 
Q 1925 3584 2291 3584 
Q 2894 3584 3203 3211 
Q 3513 2838 3513 2113 
z
" transform="scale(0.015625)"/>
      </defs>
      <use xlink:href="#DejaVuSans-54"/>
      <use xlink:href="#DejaVuSans-72" x="46.333984"/>
      <use xlink:href="#DejaVuSans-75" x="87.447266"/>
      <use xlink:href="#DejaVuSans-74" x="150.826172"/>
      <use xlink:href="#DejaVuSans-68" x="190.035156"/>
     </g>
    </g>
    <g id="line2d_17">
     <path d="M 1013.90625 725.024063 
L 1023.90625 725.024063 
L 1033.90625 725.024063 
" style="fill: none; stroke: #ff6347; stroke-linecap: square"/>
    </g>
    <g id="text_14">
     <!-- Gossip predictions -->
     <g transform="translate(1041.90625 728.524063) scale(0.1 -0.1)">
      <defs>
       <path id="DejaVuSans-47" d="M 3809 666 
L 3809 1919 
L 2778 1919 
L 2778 2438 
L 4434 2438 
L 4434 434 
Q 4069 175 3628 42 
Q 3188 -91 2688 -91 
Q 1594 -91 976 548 
Q 359 1188 359 2328 
Q 359 3472 976 4111 
Q 1594 4750 2688 4750 
Q 3144 4750 3555 4637 
Q 3966 4525 4313 4306 
L 4313 3634 
Q 3963 3931 3569 4081 
Q 3175 4231 2741 4231 
Q 1884 4231 1454 3753 
Q 1025 3275 1025 2328 
Q 1025 1384 1454 906 
Q 1884 428 2741 428 
Q 3075 428 3337 486 
Q 3600 544 3809 666 
z
" transform="scale(0.015625)"/>
       <path id="DejaVuSans-73" d="M 2834 3397 
L 2834 2853 
Q 2591 2978 2328 3040 
Q 2066 3103 1784 3103 
Q 1356 3103 1142 2972 
Q 928 2841 928 2578 
Q 928 2378 1081 2264 
Q 1234 2150 1697 2047 
L 1894 2003 
Q 2506 1872 2764 1633 
Q 3022 1394 3022 966 
Q 3022 478 2636 193 
Q 2250 -91 1575 -91 
Q 1294 -91 989 -36 
Q 684 19 347 128 
L 347 722 
Q 666 556 975 473 
Q 1284 391 1588 391 
Q 1994 391 2212 530 
Q 2431 669 2431 922 
Q 2431 1156 2273 1281 
Q 2116 1406 1581 1522 
L 1381 1569 
Q 847 1681 609 1914 
Q 372 2147 372 2553 
Q 372 3047 722 3315 
Q 1072 3584 1716 3584 
Q 2034 3584 2315 3537 
Q 2597 3491 2834 3397 
z
" transform="scale(0.015625)"/>
       <path id="DejaVuSans-70" d="M 1159 525 
L 1159 -1331 
L 581 -1331 
L 581 3500 
L 1159 3500 
L 1159 2969 
Q 1341 3281 1617 3432 
Q 1894 3584 2278 3584 
Q 2916 3584 3314 3078 
Q 3713 2572 3713 1747 
Q 3713 922 3314 415 
Q 2916 -91 2278 -91 
Q 1894 -91 1617 61 
Q 1341 213 1159 525 
z
M 3116 1747 
Q 3116 2381 2855 2742 
Q 2594 3103 2138 3103 
Q 1681 3103 1420 2742 
Q 1159 2381 1159 1747 
Q 1159 1113 1420 752 
Q 1681 391 2138 391 
Q 2594 391 2855 752 
Q 3116 1113 3116 1747 
z
" transform="scale(0.015625)"/>
       <path id="DejaVuSans-65" d="M 3597 1894 
L 3597 1613 
L 953 1613 
Q 991 1019 1311 708 
Q 1631 397 2203 397 
Q 2534 397 2845 478 
Q 3156 559 3463 722 
L 3463 178 
Q 3153 47 2828 -22 
Q 2503 -91 2169 -91 
Q 1331 -91 842 396 
Q 353 884 353 1716 
Q 353 2575 817 3079 
Q 1281 3584 2069 3584 
Q 2775 3584 3186 3129 
Q 3597 2675 3597 1894 
z
M 3022 2063 
Q 3016 2534 2758 2815 
Q 2500 3097 2075 3097 
Q 1594 3097 1305 2825 
Q 1016 2553 972 2059 
L 3022 2063 
z
" transform="scale(0.015625)"/>
       <path id="DejaVuSans-64" d="M 2906 2969 
L 2906 4863 
L 3481 4863 
L 3481 0 
L 2906 0 
L 2906 525 
Q 2725 213 2448 61 
Q 2172 -91 1784 -91 
Q 1150 -91 751 415 
Q 353 922 353 1747 
Q 353 2572 751 3078 
Q 1150 3584 1784 3584 
Q 2172 3584 2448 3432 
Q 2725 3281 2906 2969 
z
M 947 1747 
Q 947 1113 1208 752 
Q 1469 391 1925 391 
Q 2381 391 2643 752 
Q 2906 1113 2906 1747 
Q 2906 2381 2643 2742 
Q 2381 3103 1925 3103 
Q 1469 3103 1208 2742 
Q 947 2381 947 1747 
z
" transform="scale(0.015625)"/>
      </defs>
      <use xlink:href="#DejaVuSans-47"/>
      <use xlink:href="#DejaVuSans-6f" x="77.490234"/>
      <use xlink:href="#DejaVuSans-73" x="138.671875"/>
      <use xlink:href="#DejaVuSans-73" x="190.771484"/>
      <use xlink:href="#DejaVuSans-69" x="242.871094"/>
      <use xlink:href="#DejaVuSans-70" x="270.654297"/>
      <use xlink:href="#DejaVuSans-20" x="334.130859"/>
      <use xlink:href="#DejaVuSans-70" x="365.917969"/>
      <use xlink:href="#DejaVuSans-72" x="429.394531"/>
      <use xlink:href="#DejaVuSans-65" x="468.257812"/>
      <use xlink:href="#DejaVuSans-64" x="529.78125"/>
      <use xlink:href="#DejaVuSans-69" x="593.257812"/>
      <use xlink:href="#DejaVuSans-63" x="621.041016"/>
      <use xlink:href="#DejaVuSans-74" x="676.021484"/>
      <use xlink:href="#DejaVuSans-69" x="715.230469"/>
      <use xlink:href="#DejaVuSans-6f" x="743.013672"/>
      <use xlink:href="#DejaVuSans-6e" x="804.195312"/>
      <use xlink:href="#DejaVuSans-73" x="867.574219"/>
     </g>
    </g>
    <g id="line2d_18">
     <path d="M 1013.90625 739.702188 
L 1023.90625 739.702188 
L 1033.90625 739.702188 
" style="fill: none; stroke: #da70d6; stroke-linecap: square"/>
    </g>
    <g id="text_15">
     <!-- Centralized predictions -->
     <g transform="translate(1041.90625 743.202188) scale(0.1 -0.1)">
      <defs>
       <path id="DejaVuSans-43" d="M 4122 4306 
L 4122 3641 
Q 3803 3938 3442 4084 
Q 3081 4231 2675 4231 
Q 1875 4231 1450 3742 
Q 1025 3253 1025 2328 
Q 1025 1406 1450 917 
Q 1875 428 2675 428 
Q 3081 428 3442 575 
Q 3803 722 4122 1019 
L 4122 359 
Q 3791 134 3420 21 
Q 3050 -91 2638 -91 
Q 1578 -91 968 557 
Q 359 1206 359 2328 
Q 359 3453 968 4101 
Q 1578 4750 2638 4750 
Q 3056 4750 3426 4639 
Q 3797 4528 4122 4306 
z
" transform="scale(0.015625)"/>
       <path id="DejaVuSans-61" d="M 2194 1759 
Q 1497 1759 1228 1600 
Q 959 1441 959 1056 
Q 959 750 1161 570 
Q 1363 391 1709 391 
Q 2188 391 2477 730 
Q 2766 1069 2766 1631 
L 2766 1759 
L 2194 1759 
z
M 3341 1997 
L 3341 0 
L 2766 0 
L 2766 531 
Q 2569 213 2275 61 
Q 1981 -91 1556 -91 
Q 1019 -91 701 211 
Q 384 513 384 1019 
Q 384 1609 779 1909 
Q 1175 2209 1959 2209 
L 2766 2209 
L 2766 2266 
Q 2766 2663 2505 2880 
Q 2244 3097 1772 3097 
Q 1472 3097 1187 3025 
Q 903 2953 641 2809 
L 641 3341 
Q 956 3463 1253 3523 
Q 1550 3584 1831 3584 
Q 2591 3584 2966 3190 
Q 3341 2797 3341 1997 
z
" transform="scale(0.015625)"/>
       <path id="DejaVuSans-6c" d="M 603 4863 
L 1178 4863 
L 1178 0 
L 603 0 
L 603 4863 
z
" transform="scale(0.015625)"/>
       <path id="DejaVuSans-7a" d="M 353 3500 
L 3084 3500 
L 3084 2975 
L 922 459 
L 3084 459 
L 3084 0 
L 275 0 
L 275 525 
L 2438 3041 
L 353 3041 
L 353 3500 
z
" transform="scale(0.015625)"/>
      </defs>
      <use xlink:href="#DejaVuSans-43"/>
      <use xlink:href="#DejaVuSans-65" x="69.824219"/>
      <use xlink:href="#DejaVuSans-6e" x="131.347656"/>
      <use xlink:href="#DejaVuSans-74" x="194.726562"/>
      <use xlink:href="#DejaVuSans-72" x="233.935547"/>
      <use xlink:href="#DejaVuSans-61" x="275.048828"/>
      <use xlink:href="#DejaVuSans-6c" x="336.328125"/>
      <use xlink:href="#DejaVuSans-69" x="364.111328"/>
      <use xlink:href="#DejaVuSans-7a" x="391.894531"/>
      <use xlink:href="#DejaVuSans-65" x="444.384766"/>
      <use xlink:href="#DejaVuSans-64" x="505.908203"/>
      <use xlink:href="#DejaVuSans-20" x="569.384766"/>
      <use xlink:href="#DejaVuSans-70" x="601.171875"/>
      <use xlink:href="#DejaVuSans-72" x="664.648438"/>
      <use xlink:href="#DejaVuSans-65" x="703.511719"/>
      <use xlink:href="#DejaVuSans-64" x="765.035156"/>
      <use xlink:href="#DejaVuSans-69" x="828.511719"/>
      <use xlink:href="#DejaVuSans-63" x="856.294922"/>
      <use xlink:href="#DejaVuSans-74" x="911.275391"/>
      <use xlink:href="#DejaVuSans-69" x="950.484375"/>
      <use xlink:href="#DejaVuSans-6f" x="978.267578"/>
      <use xlink:href="#DejaVuSans-6e" x="1039.449219"/>
      <use xlink:href="#DejaVuSans-73" x="1102.828125"/>
     </g>
    </g>
    <g id="line2d_19">
     <path d="M 1013.90625 754.380312 
L 1023.90625 754.380312 
L 1033.90625 754.380312 
" style="fill: none; stroke: #8fbc8f; stroke-linecap: square"/>
    </g>
    <g id="text_16">
     <!-- Single predictions -->
     <g transform="translate(1041.90625 757.880312) scale(0.1 -0.1)">
      <defs>
       <path id="DejaVuSans-53" d="M 3425 4513 
L 3425 3897 
Q 3066 4069 2747 4153 
Q 2428 4238 2131 4238 
Q 1616 4238 1336 4038 
Q 1056 3838 1056 3469 
Q 1056 3159 1242 3001 
Q 1428 2844 1947 2747 
L 2328 2669 
Q 3034 2534 3370 2195 
Q 3706 1856 3706 1288 
Q 3706 609 3251 259 
Q 2797 -91 1919 -91 
Q 1588 -91 1214 -16 
Q 841 59 441 206 
L 441 856 
Q 825 641 1194 531 
Q 1563 422 1919 422 
Q 2459 422 2753 634 
Q 3047 847 3047 1241 
Q 3047 1584 2836 1778 
Q 2625 1972 2144 2069 
L 1759 2144 
Q 1053 2284 737 2584 
Q 422 2884 422 3419 
Q 422 4038 858 4394 
Q 1294 4750 2059 4750 
Q 2388 4750 2728 4690 
Q 3069 4631 3425 4513 
z
" transform="scale(0.015625)"/>
       <path id="DejaVuSans-67" d="M 2906 1791 
Q 2906 2416 2648 2759 
Q 2391 3103 1925 3103 
Q 1463 3103 1205 2759 
Q 947 2416 947 1791 
Q 947 1169 1205 825 
Q 1463 481 1925 481 
Q 2391 481 2648 825 
Q 2906 1169 2906 1791 
z
M 3481 434 
Q 3481 -459 3084 -895 
Q 2688 -1331 1869 -1331 
Q 1566 -1331 1297 -1286 
Q 1028 -1241 775 -1147 
L 775 -588 
Q 1028 -725 1275 -790 
Q 1522 -856 1778 -856 
Q 2344 -856 2625 -561 
Q 2906 -266 2906 331 
L 2906 616 
Q 2728 306 2450 153 
Q 2172 0 1784 0 
Q 1141 0 747 490 
Q 353 981 353 1791 
Q 353 2603 747 3093 
Q 1141 3584 1784 3584 
Q 2172 3584 2450 3431 
Q 2728 3278 2906 2969 
L 2906 3500 
L 3481 3500 
L 3481 434 
z
" transform="scale(0.015625)"/>
      </defs>
      <use xlink:href="#DejaVuSans-53"/>
      <use xlink:href="#DejaVuSans-69" x="63.476562"/>
      <use xlink:href="#DejaVuSans-6e" x="91.259766"/>
      <use xlink:href="#DejaVuSans-67" x="154.638672"/>
      <use xlink:href="#DejaVuSans-6c" x="218.115234"/>
      <use xlink:href="#DejaVuSans-65" x="245.898438"/>
      <use xlink:href="#DejaVuSans-20" x="307.421875"/>
      <use xlink:href="#DejaVuSans-70" x="339.208984"/>
      <use xlink:href="#DejaVuSans-72" x="402.685547"/>
      <use xlink:href="#DejaVuSans-65" x="441.548828"/>
      <use xlink:href="#DejaVuSans-64" x="503.072266"/>
      <use xlink:href="#DejaVuSans-69" x="566.548828"/>
      <use xlink:href="#DejaVuSans-63" x="594.332031"/>
      <use xlink:href="#DejaVuSans-74" x="649.3125"/>
      <use xlink:href="#DejaVuSans-69" x="688.521484"/>
      <use xlink:href="#DejaVuSans-6f" x="716.304688"/>
      <use xlink:href="#DejaVuSans-6e" x="777.486328"/>
      <use xlink:href="#DejaVuSans-73" x="840.865234"/>
     </g>
    </g>
   </g>
  </g>
 </g>
 <defs>
  <clipPath id="p95921c17f6">
   <rect x="162" y="103.68" width="1004.4" height="665.28"/>
  </clipPath>
 </defs>
</svg>
