<?xml version="1.0" encoding="utf-8" standalone="no"?>
<!DOCTYPE svg PUBLIC "-//W3C//DTD SVG 1.1//EN"
  "http://www.w3.org/Graphics/SVG/1.1/DTD/svg11.dtd">
<svg xmlns:xlink="http://www.w3.org/1999/xlink" width="1296pt" height="864pt" viewBox="0 0 1296 864" xmlns="http://www.w3.org/2000/svg" version="1.1">
 <metadata>
  <rdf:RDF xmlns:dc="http://purl.org/dc/elements/1.1/" xmlns:cc="http://creativecommons.org/ns#" xmlns:rdf="http://www.w3.org/1999/02/22-rdf-syntax-ns#">
   <cc:Work>
    <dc:type rdf:resource="http://purl.org/dc/dcmitype/StillImage"/>
    <dc:date>2023-12-10T12:42:14.335471</dc:date>
    <dc:format>image/svg+xml</dc:format>
    <dc:creator>
     <cc:Agent>
      <dc:title>Matplotlib v3.8.0, https://matplotlib.org/</dc:title>
     </cc:Agent>
    </dc:creator>
   </cc:Work>
  </rdf:RDF>
 </metadata>
 <defs>
  <style type="text/css">*{stroke-linejoin: round; stroke-linecap: butt}</style>
 </defs>
 <g id="figure_1">
  <g id="patch_1">
   <path d="M 0 864 
L 1296 864 
L 1296 0 
L 0 0 
z
" style="fill: #ffffff"/>
  </g>
  <g id="axes_1">
   <g id="patch_2">
    <path d="M 162 768.96 
L 1166.4 768.96 
L 1166.4 103.68 
L 162 103.68 
z
" style="fill: #ffffff"/>
   </g>
   <g id="matplotlib.axis_1">
    <g id="xtick_1">
     <g id="line2d_1">
      <defs>
       <path id="mfccfa851bf" d="M 0 0 
L 0 3.5 
" style="stroke: #000000; stroke-width: 0.8"/>
      </defs>
      <g>
       <use xlink:href="#mfccfa851bf" x="207.654545" y="768.96" style="stroke: #000000; stroke-width: 0.8"/>
      </g>
     </g>
     <g id="text_1">
      <!-- 0 -->
      <g transform="translate(204.473295 783.558437) scale(0.1 -0.1)">
       <defs>
        <path id="DejaVuSans-30" d="M 2034 4250 
Q 1547 4250 1301 3770 
Q 1056 3291 1056 2328 
Q 1056 1369 1301 889 
Q 1547 409 2034 409 
Q 2525 409 2770 889 
Q 3016 1369 3016 2328 
Q 3016 3291 2770 3770 
Q 2525 4250 2034 4250 
z
M 2034 4750 
Q 2819 4750 3233 4129 
Q 3647 3509 3647 2328 
Q 3647 1150 3233 529 
Q 2819 -91 2034 -91 
Q 1250 -91 836 529 
Q 422 1150 422 2328 
Q 422 3509 836 4129 
Q 1250 4750 2034 4750 
z
" transform="scale(0.015625)"/>
       </defs>
       <use xlink:href="#DejaVuSans-30"/>
      </g>
     </g>
    </g>
    <g id="xtick_2">
     <g id="line2d_2">
      <g>
       <use xlink:href="#mfccfa851bf" x="390.638696" y="768.96" style="stroke: #000000; stroke-width: 0.8"/>
      </g>
     </g>
     <g id="text_2">
      <!-- 100 -->
      <g transform="translate(381.094946 783.558437) scale(0.1 -0.1)">
       <defs>
        <path id="DejaVuSans-31" d="M 794 531 
L 1825 531 
L 1825 4091 
L 703 3866 
L 703 4441 
L 1819 4666 
L 2450 4666 
L 2450 531 
L 3481 531 
L 3481 0 
L 794 0 
L 794 531 
z
" transform="scale(0.015625)"/>
       </defs>
       <use xlink:href="#DejaVuSans-31"/>
       <use xlink:href="#DejaVuSans-30" x="63.623047"/>
       <use xlink:href="#DejaVuSans-30" x="127.246094"/>
      </g>
     </g>
    </g>
    <g id="xtick_3">
     <g id="line2d_3">
      <g>
       <use xlink:href="#mfccfa851bf" x="573.622846" y="768.96" style="stroke: #000000; stroke-width: 0.8"/>
      </g>
     </g>
     <g id="text_3">
      <!-- 200 -->
      <g transform="translate(564.079096 783.558437) scale(0.1 -0.1)">
       <defs>
        <path id="DejaVuSans-32" d="M 1228 531 
L 3431 531 
L 3431 0 
L 469 0 
L 469 531 
Q 828 903 1448 1529 
Q 2069 2156 2228 2338 
Q 2531 2678 2651 2914 
Q 2772 3150 2772 3378 
Q 2772 3750 2511 3984 
Q 2250 4219 1831 4219 
Q 1534 4219 1204 4116 
Q 875 4013 500 3803 
L 500 4441 
Q 881 4594 1212 4672 
Q 1544 4750 1819 4750 
Q 2544 4750 2975 4387 
Q 3406 4025 3406 3419 
Q 3406 3131 3298 2873 
Q 3191 2616 2906 2266 
Q 2828 2175 2409 1742 
Q 1991 1309 1228 531 
z
" transform="scale(0.015625)"/>
       </defs>
       <use xlink:href="#DejaVuSans-32"/>
       <use xlink:href="#DejaVuSans-30" x="63.623047"/>
       <use xlink:href="#DejaVuSans-30" x="127.246094"/>
      </g>
     </g>
    </g>
    <g id="xtick_4">
     <g id="line2d_4">
      <g>
       <use xlink:href="#mfccfa851bf" x="756.606996" y="768.96" style="stroke: #000000; stroke-width: 0.8"/>
      </g>
     </g>
     <g id="text_4">
      <!-- 300 -->
      <g transform="translate(747.063246 783.558437) scale(0.1 -0.1)">
       <defs>
        <path id="DejaVuSans-33" d="M 2597 2516 
Q 3050 2419 3304 2112 
Q 3559 1806 3559 1356 
Q 3559 666 3084 287 
Q 2609 -91 1734 -91 
Q 1441 -91 1130 -33 
Q 819 25 488 141 
L 488 750 
Q 750 597 1062 519 
Q 1375 441 1716 441 
Q 2309 441 2620 675 
Q 2931 909 2931 1356 
Q 2931 1769 2642 2001 
Q 2353 2234 1838 2234 
L 1294 2234 
L 1294 2753 
L 1863 2753 
Q 2328 2753 2575 2939 
Q 2822 3125 2822 3475 
Q 2822 3834 2567 4026 
Q 2313 4219 1838 4219 
Q 1578 4219 1281 4162 
Q 984 4106 628 3988 
L 628 4550 
Q 988 4650 1302 4700 
Q 1616 4750 1894 4750 
Q 2613 4750 3031 4423 
Q 3450 4097 3450 3541 
Q 3450 3153 3228 2886 
Q 3006 2619 2597 2516 
z
" transform="scale(0.015625)"/>
       </defs>
       <use xlink:href="#DejaVuSans-33"/>
       <use xlink:href="#DejaVuSans-30" x="63.623047"/>
       <use xlink:href="#DejaVuSans-30" x="127.246094"/>
      </g>
     </g>
    </g>
    <g id="xtick_5">
     <g id="line2d_5">
      <g>
       <use xlink:href="#mfccfa851bf" x="939.591146" y="768.96" style="stroke: #000000; stroke-width: 0.8"/>
      </g>
     </g>
     <g id="text_5">
      <!-- 400 -->
      <g transform="translate(930.047396 783.558437) scale(0.1 -0.1)">
       <defs>
        <path id="DejaVuSans-34" d="M 2419 4116 
L 825 1625 
L 2419 1625 
L 2419 4116 
z
M 2253 4666 
L 3047 4666 
L 3047 1625 
L 3713 1625 
L 3713 1100 
L 3047 1100 
L 3047 0 
L 2419 0 
L 2419 1100 
L 313 1100 
L 313 1709 
L 2253 4666 
z
" transform="scale(0.015625)"/>
       </defs>
       <use xlink:href="#DejaVuSans-34"/>
       <use xlink:href="#DejaVuSans-30" x="63.623047"/>
       <use xlink:href="#DejaVuSans-30" x="127.246094"/>
      </g>
     </g>
    </g>
    <g id="xtick_6">
     <g id="line2d_6">
      <g>
       <use xlink:href="#mfccfa851bf" x="1122.575296" y="768.96" style="stroke: #000000; stroke-width: 0.8"/>
      </g>
     </g>
     <g id="text_6">
      <!-- 500 -->
      <g transform="translate(1113.031546 783.558437) scale(0.1 -0.1)">
       <defs>
        <path id="DejaVuSans-35" d="M 691 4666 
L 3169 4666 
L 3169 4134 
L 1269 4134 
L 1269 2991 
Q 1406 3038 1543 3061 
Q 1681 3084 1819 3084 
Q 2600 3084 3056 2656 
Q 3513 2228 3513 1497 
Q 3513 744 3044 326 
Q 2575 -91 1722 -91 
Q 1428 -91 1123 -41 
Q 819 9 494 109 
L 494 744 
Q 775 591 1075 516 
Q 1375 441 1709 441 
Q 2250 441 2565 725 
Q 2881 1009 2881 1497 
Q 2881 1984 2565 2268 
Q 2250 2553 1709 2553 
Q 1456 2553 1204 2497 
Q 953 2441 691 2322 
L 691 4666 
z
" transform="scale(0.015625)"/>
       </defs>
       <use xlink:href="#DejaVuSans-35"/>
       <use xlink:href="#DejaVuSans-30" x="63.623047"/>
       <use xlink:href="#DejaVuSans-30" x="127.246094"/>
      </g>
     </g>
    </g>
   </g>
   <g id="matplotlib.axis_2">
    <g id="ytick_1">
     <g id="line2d_7">
      <defs>
       <path id="m00cf507bbb" d="M 0 0 
L -3.5 0 
" style="stroke: #000000; stroke-width: 0.8"/>
      </defs>
      <g>
       <use xlink:href="#m00cf507bbb" x="162" y="738.72" style="stroke: #000000; stroke-width: 0.8"/>
      </g>
     </g>
     <g id="text_7">
      <!-- 0 -->
      <g transform="translate(148.6375 742.519219) scale(0.1 -0.1)">
       <use xlink:href="#DejaVuSans-30"/>
      </g>
     </g>
    </g>
    <g id="ytick_2">
     <g id="line2d_8">
      <g>
       <use xlink:href="#m00cf507bbb" x="162" y="601.992812" style="stroke: #000000; stroke-width: 0.8"/>
      </g>
     </g>
     <g id="text_8">
      <!-- 5 -->
      <g transform="translate(148.6375 605.79203) scale(0.1 -0.1)">
       <use xlink:href="#DejaVuSans-35"/>
      </g>
     </g>
    </g>
    <g id="ytick_3">
     <g id="line2d_9">
      <g>
       <use xlink:href="#m00cf507bbb" x="162" y="465.265623" style="stroke: #000000; stroke-width: 0.8"/>
      </g>
     </g>
     <g id="text_9">
      <!-- 10 -->
      <g transform="translate(142.275 469.064842) scale(0.1 -0.1)">
       <use xlink:href="#DejaVuSans-31"/>
       <use xlink:href="#DejaVuSans-30" x="63.623047"/>
      </g>
     </g>
    </g>
    <g id="ytick_4">
     <g id="line2d_10">
      <g>
       <use xlink:href="#m00cf507bbb" x="162" y="328.538435" style="stroke: #000000; stroke-width: 0.8"/>
      </g>
     </g>
     <g id="text_10">
      <!-- 15 -->
      <g transform="translate(142.275 332.337653) scale(0.1 -0.1)">
       <use xlink:href="#DejaVuSans-31"/>
       <use xlink:href="#DejaVuSans-35" x="63.623047"/>
      </g>
     </g>
    </g>
    <g id="ytick_5">
     <g id="line2d_11">
      <g>
       <use xlink:href="#m00cf507bbb" x="162" y="191.811246" style="stroke: #000000; stroke-width: 0.8"/>
      </g>
     </g>
     <g id="text_11">
      <!-- 20 -->
      <g transform="translate(142.275 195.610465) scale(0.1 -0.1)">
       <use xlink:href="#DejaVuSans-32"/>
       <use xlink:href="#DejaVuSans-30" x="63.623047"/>
      </g>
     </g>
    </g>
   </g>
   <g id="line2d_12">
    <path d="M 207.654545 574.647374 
L 209.484387 601.992812 
L 211.314228 738.72 
L 213.14407 629.338249 
L 214.973911 738.72 
L 216.803753 738.72 
L 218.633594 492.611061 
L 220.463436 738.72 
L 225.95296 738.72 
L 227.782802 383.22931 
L 229.612643 738.72 
L 231.442485 437.920185 
L 233.272326 684.029125 
L 235.102168 738.72 
L 236.932009 383.22931 
L 238.761851 601.992812 
L 240.591692 574.647374 
L 242.421534 684.029125 
L 244.251375 164.465809 
L 247.911058 164.465809 
L 249.7409 355.883872 
L 251.570741 164.465809 
L 262.54979 164.465809 
L 264.379632 246.502122 
L 266.209473 164.465809 
L 268.039315 738.72 
L 269.869156 574.647374 
L 271.698998 355.883872 
L 273.528839 519.956499 
L 275.358681 410.574748 
L 277.188522 355.883872 
L 279.018364 574.647374 
L 280.848206 574.647374 
L 282.678047 738.72 
L 284.507889 738.72 
L 286.33773 601.992812 
L 288.167572 437.920185 
L 289.997413 601.992812 
L 291.827255 164.465809 
L 293.657096 328.538435 
L 295.486938 629.338249 
L 297.316779 328.538435 
L 299.146621 273.847559 
L 300.976462 164.465809 
L 302.806304 164.465809 
L 304.636145 410.574748 
L 306.465987 191.811246 
L 308.295828 519.956499 
L 310.12567 191.811246 
L 311.955511 656.683687 
L 313.785353 164.465809 
L 315.615194 164.465809 
L 317.445036 601.992812 
L 319.274877 164.465809 
L 321.104719 437.920185 
L 322.93456 574.647374 
L 324.764402 383.22931 
L 326.594243 410.574748 
L 328.424085 601.992812 
L 330.253926 301.192997 
L 332.083768 164.465809 
L 333.913609 684.029125 
L 335.743451 574.647374 
L 337.573292 574.647374 
L 339.403134 547.301936 
L 341.232975 164.465809 
L 344.892658 164.465809 
L 346.7225 410.574748 
L 348.552341 738.72 
L 350.382183 164.465809 
L 352.212024 328.538435 
L 354.041866 328.538435 
L 355.871707 164.465809 
L 357.701549 410.574748 
L 359.53139 574.647374 
L 361.361232 574.647374 
L 363.191073 738.72 
L 365.020915 328.538435 
L 366.850756 738.72 
L 368.680598 246.502122 
L 370.510439 383.22931 
L 372.340281 301.192997 
L 374.170122 164.465809 
L 375.999964 164.465809 
L 377.829805 410.574748 
L 379.659647 164.465809 
L 381.489488 328.538435 
L 383.31933 437.920185 
L 385.149171 492.611061 
L 386.979013 164.465809 
L 388.808854 629.338249 
L 390.638696 492.611061 
L 392.468537 164.465809 
L 394.298379 355.883872 
L 396.12822 355.883872 
L 397.958062 191.811246 
L 399.787903 547.301936 
L 401.617745 328.538435 
L 405.277428 656.683687 
L 407.107269 164.465809 
L 408.937111 492.611061 
L 410.766952 519.956499 
L 412.596794 164.465809 
L 414.426635 738.72 
L 418.086318 738.72 
L 419.91616 465.265623 
L 421.746001 410.574748 
L 423.575843 547.301936 
L 425.405684 738.72 
L 427.235526 383.22931 
L 429.065367 547.301936 
L 430.895209 164.465809 
L 432.72505 656.683687 
L 434.554892 574.647374 
L 436.384733 355.883872 
L 438.214575 164.465809 
L 440.044416 273.847559 
L 441.874258 328.538435 
L 443.704099 219.156684 
L 445.533941 738.72 
L 447.363782 574.647374 
L 449.193624 574.647374 
L 451.023465 383.22931 
L 452.853307 519.956499 
L 454.683148 328.538435 
L 456.51299 328.538435 
L 458.342831 738.72 
L 460.172673 738.72 
L 462.002514 410.574748 
L 463.832356 547.301936 
L 465.662197 547.301936 
L 467.492039 164.465809 
L 469.32188 574.647374 
L 471.151722 547.301936 
L 472.981563 219.156684 
L 474.811405 492.611061 
L 476.641246 164.465809 
L 480.300929 492.611061 
L 482.130771 738.72 
L 483.960612 711.374562 
L 485.790454 410.574748 
L 487.620295 738.72 
L 489.450137 629.338249 
L 491.279978 547.301936 
L 493.10982 629.338249 
L 494.939661 574.647374 
L 496.769503 492.611061 
L 498.599344 547.301936 
L 500.429186 547.301936 
L 502.259027 410.574748 
L 504.088869 164.465809 
L 505.91871 383.22931 
L 507.748552 574.647374 
L 509.578393 437.920185 
L 511.408235 437.920185 
L 513.238076 383.22931 
L 515.067918 383.22931 
L 516.897759 219.156684 
L 518.727601 273.847559 
L 520.557442 410.574748 
L 522.387284 574.647374 
L 524.217125 574.647374 
L 526.046967 601.992812 
L 527.876808 574.647374 
L 529.70665 738.72 
L 531.536491 547.301936 
L 533.366333 164.465809 
L 535.196174 738.72 
L 538.855857 738.72 
L 540.685699 164.465809 
L 542.51554 465.265623 
L 544.345382 738.72 
L 546.175223 738.72 
L 548.005065 601.992812 
L 549.834906 738.72 
L 551.664748 738.72 
L 557.154272 574.647374 
L 558.984114 601.992812 
L 560.813955 738.72 
L 562.643797 711.374562 
L 564.473638 601.992812 
L 566.30348 738.72 
L 568.133321 738.72 
L 569.963163 601.992812 
L 571.793004 738.72 
L 575.452687 738.72 
L 577.282529 629.338249 
L 579.11237 738.72 
L 580.942212 738.72 
L 582.772053 465.265623 
L 584.601895 738.72 
L 588.261578 738.72 
L 590.091419 684.029125 
L 591.921261 219.156684 
L 593.751102 629.338249 
L 595.580944 629.338249 
L 597.410785 410.574748 
L 599.240627 383.22931 
L 601.070468 519.956499 
L 602.90031 574.647374 
L 604.730151 383.22931 
L 606.559993 164.465809 
L 608.389834 738.72 
L 610.219676 164.465809 
L 612.049517 164.465809 
L 613.879359 574.647374 
L 615.7092 492.611061 
L 617.539042 273.847559 
L 619.368883 164.465809 
L 621.198725 164.465809 
L 623.028566 410.574748 
L 624.858408 465.265623 
L 626.688249 191.811246 
L 628.518091 219.156684 
L 632.177774 328.538435 
L 634.007615 164.465809 
L 635.837457 738.72 
L 637.667298 601.992812 
L 639.49714 301.192997 
L 641.326981 164.465809 
L 643.156823 629.338249 
L 644.986664 164.465809 
L 646.816506 164.465809 
L 648.646347 738.72 
L 650.476189 629.338249 
L 652.30603 164.465809 
L 654.135872 219.156684 
L 655.965713 383.22931 
L 657.795555 656.683687 
L 659.625396 328.538435 
L 661.455238 383.22931 
L 663.285079 738.72 
L 665.114921 601.992812 
L 666.944762 246.502122 
L 668.774604 437.920185 
L 670.604445 328.538435 
L 672.434287 301.192997 
L 674.264128 383.22931 
L 676.09397 164.465809 
L 677.923811 219.156684 
L 679.753653 219.156684 
L 681.583494 355.883872 
L 683.413336 738.72 
L 687.073019 738.72 
L 688.90286 355.883872 
L 690.732702 410.574748 
L 692.562543 164.465809 
L 694.392385 164.465809 
L 696.222226 492.611061 
L 698.052068 219.156684 
L 699.881909 383.22931 
L 701.711751 601.992812 
L 703.541592 738.72 
L 705.371434 601.992812 
L 707.201275 246.502122 
L 709.031117 164.465809 
L 710.860958 164.465809 
L 712.6908 629.338249 
L 714.520641 574.647374 
L 716.350483 437.920185 
L 718.180324 547.301936 
L 720.010166 574.647374 
L 721.840007 355.883872 
L 723.669849 273.847559 
L 725.49969 519.956499 
L 727.329532 547.301936 
L 729.159373 656.683687 
L 730.989215 738.72 
L 732.819056 738.72 
L 734.648898 547.301936 
L 736.478739 656.683687 
L 738.308581 656.683687 
L 740.138422 574.647374 
L 741.968264 738.72 
L 743.798105 738.72 
L 745.627947 437.920185 
L 747.457788 629.338249 
L 749.28763 738.72 
L 751.117471 738.72 
L 752.947313 629.338249 
L 754.777154 738.72 
L 756.606996 601.992812 
L 758.436837 574.647374 
L 760.266679 219.156684 
L 762.09652 574.647374 
L 765.756203 574.647374 
L 769.415886 519.956499 
L 771.245728 601.992812 
L 773.075569 383.22931 
L 774.905411 492.611061 
L 776.735252 328.538435 
L 778.565094 355.883872 
L 780.394935 164.465809 
L 782.224777 437.920185 
L 784.054618 410.574748 
L 785.88446 191.811246 
L 787.714301 547.301936 
L 789.544143 273.847559 
L 791.373984 164.465809 
L 793.203826 164.465809 
L 795.033667 519.956499 
L 796.863509 164.465809 
L 798.69335 437.920185 
L 802.353033 164.465809 
L 804.182875 656.683687 
L 806.012716 574.647374 
L 807.842558 164.465809 
L 813.332082 164.465809 
L 815.161924 492.611061 
L 816.991765 246.502122 
L 818.821607 656.683687 
L 820.651448 164.465809 
L 822.48129 273.847559 
L 824.311131 492.611061 
L 826.140973 574.647374 
L 827.970814 465.265623 
L 829.800656 738.72 
L 831.630497 410.574748 
L 833.460339 219.156684 
L 835.29018 492.611061 
L 837.120022 164.465809 
L 838.949863 410.574748 
L 840.779705 328.538435 
L 842.609546 355.883872 
L 844.439388 437.920185 
L 846.269229 547.301936 
L 848.099071 355.883872 
L 849.928912 738.72 
L 851.758754 273.847559 
L 853.588595 738.72 
L 855.418437 629.338249 
L 857.248278 164.465809 
L 859.07812 492.611061 
L 860.907961 574.647374 
L 862.737803 601.992812 
L 864.567644 547.301936 
L 866.397486 738.72 
L 868.227327 738.72 
L 871.88701 410.574748 
L 873.716852 601.992812 
L 875.546693 574.647374 
L 877.376535 656.683687 
L 879.206376 164.465809 
L 881.036218 301.192997 
L 882.866059 629.338249 
L 884.695901 355.883872 
L 886.525742 656.683687 
L 888.355584 219.156684 
L 890.185425 410.574748 
L 892.015267 547.301936 
L 893.845108 738.72 
L 897.504791 738.72 
L 899.334633 164.465809 
L 901.164474 574.647374 
L 902.994316 711.374562 
L 904.824157 383.22931 
L 906.653999 492.611061 
L 908.48384 656.683687 
L 910.313682 601.992812 
L 912.143523 738.72 
L 915.803206 465.265623 
L 917.633048 738.72 
L 919.462889 629.338249 
L 921.292731 738.72 
L 923.122572 492.611061 
L 924.952414 656.683687 
L 926.782255 601.992812 
L 928.612097 519.956499 
L 930.441938 492.611061 
L 932.27178 656.683687 
L 934.101621 328.538435 
L 935.931463 738.72 
L 937.761304 738.72 
L 939.591146 629.338249 
L 941.420987 711.374562 
L 943.250829 738.72 
L 945.08067 437.920185 
L 946.910512 437.920185 
L 948.740353 519.956499 
L 950.570195 738.72 
L 952.400036 656.683687 
L 954.229878 684.029125 
L 956.059719 410.574748 
L 957.889561 437.920185 
L 959.719402 547.301936 
L 961.549244 383.22931 
L 963.379085 273.847559 
L 965.208927 246.502122 
L 967.038768 164.465809 
L 968.86861 410.574748 
L 970.698451 164.465809 
L 972.528293 164.465809 
L 974.358134 656.683687 
L 976.187976 328.538435 
L 979.847659 164.465809 
L 981.6775 738.72 
L 983.507342 164.465809 
L 985.337183 164.465809 
L 987.167025 601.992812 
L 988.996866 410.574748 
L 990.826708 164.465809 
L 992.656549 355.883872 
L 994.486391 273.847559 
L 996.316232 574.647374 
L 998.146074 684.029125 
L 999.975915 301.192997 
L 1001.805757 328.538435 
L 1003.635598 164.465809 
L 1005.46544 574.647374 
L 1007.295281 301.192997 
L 1009.125123 738.72 
L 1010.954964 164.465809 
L 1012.784806 601.992812 
L 1014.614647 301.192997 
L 1016.444489 164.465809 
L 1018.27433 410.574748 
L 1020.104172 738.72 
L 1021.934013 164.465809 
L 1023.763855 328.538435 
L 1025.593696 273.847559 
L 1027.423538 191.811246 
L 1029.253379 410.574748 
L 1031.083221 164.465809 
L 1032.913062 574.647374 
L 1034.742904 738.72 
L 1036.572745 164.465809 
L 1038.402587 547.301936 
L 1040.232428 547.301936 
L 1042.06227 519.956499 
L 1043.892111 355.883872 
L 1045.721953 301.192997 
L 1047.551794 164.465809 
L 1049.381636 219.156684 
L 1051.211478 164.465809 
L 1053.041319 328.538435 
L 1054.871161 738.72 
L 1056.701002 164.465809 
L 1058.530844 273.847559 
L 1060.360685 738.72 
L 1062.190527 410.574748 
L 1064.020368 164.465809 
L 1065.85021 492.611061 
L 1067.680051 164.465809 
L 1069.509893 574.647374 
L 1071.339734 164.465809 
L 1073.169576 437.920185 
L 1074.999417 164.465809 
L 1076.829259 465.265623 
L 1078.6591 328.538435 
L 1080.488942 410.574748 
L 1082.318783 164.465809 
L 1084.148625 519.956499 
L 1085.978466 547.301936 
L 1087.808308 273.847559 
L 1089.638149 164.465809 
L 1091.467991 164.465809 
L 1093.297832 246.502122 
L 1095.127674 656.683687 
L 1096.957515 164.465809 
L 1098.787357 246.502122 
L 1100.617198 246.502122 
L 1102.44704 301.192997 
L 1104.276881 164.465809 
L 1106.106723 383.22931 
L 1107.936564 191.811246 
L 1109.766406 301.192997 
L 1111.596247 519.956499 
L 1113.426089 465.265623 
L 1115.25593 328.538435 
L 1117.085772 383.22931 
L 1118.915613 738.72 
L 1120.745455 191.811246 
L 1120.745455 191.811246 
" clip-path="url(#paab297f675)" style="fill: none; stroke: #4169e1; stroke-linecap: square"/>
   </g>
   <g id="line2d_13">
    <path d="M 207.654545 567.300003 
L 209.484387 584.998404 
L 211.314228 577.056401 
L 213.14407 608.06744 
L 214.973911 593.628817 
L 216.803753 621.109747 
L 218.633594 652.198213 
L 220.463436 604.620874 
L 222.293277 625.673405 
L 224.123119 626.692232 
L 225.95296 623.147832 
L 227.782802 665.811055 
L 229.612643 609.993739 
L 231.442485 617.7504 
L 233.272326 576.099654 
L 235.102168 576.006058 
L 236.932009 610.65525 
L 238.761851 554.88434 
L 240.591692 570.839814 
L 242.421534 536.796455 
L 244.251375 492.267788 
L 246.081217 286.188129 
L 247.911058 137.381105 
L 249.7409 262.331492 
L 251.570741 314.597523 
L 253.400583 273.780329 
L 255.230424 252.974945 
L 257.060266 260.724213 
L 258.890107 265.346026 
L 260.719949 272.305321 
L 262.54979 283.639255 
L 264.379632 289.172621 
L 266.209473 304.813782 
L 268.039315 289.219719 
L 269.869156 416.403559 
L 271.698998 384.986854 
L 273.528839 328.523909 
L 275.358681 366.671172 
L 277.188522 336.688506 
L 279.018364 342.71142 
L 280.848206 381.048171 
L 282.678047 379.835175 
L 284.507889 418.400818 
L 286.33773 468.858191 
L 288.167572 435.30116 
L 289.997413 407.710922 
L 291.827255 414.748191 
L 293.657096 307.631761 
L 295.486938 341.412965 
L 297.316779 400.951129 
L 299.146621 339.646084 
L 300.976462 327.598378 
L 302.806304 361.517276 
L 304.636145 312.060906 
L 306.465987 337.866947 
L 308.295828 308.6276 
L 310.12567 400.250657 
L 311.955511 389.427369 
L 313.785353 459.787492 
L 315.615194 426.472601 
L 317.445036 355.639855 
L 319.274877 473.62907 
L 321.104719 362.878242 
L 322.93456 418.205854 
L 324.764402 483.503173 
L 326.594243 436.898972 
L 328.424085 464.834569 
L 330.253926 494.709583 
L 332.083768 450.964305 
L 333.913609 415.365942 
L 335.743451 497.092154 
L 337.573292 470.721066 
L 339.403134 488.184577 
L 341.232975 523.89187 
L 343.062817 470.834691 
L 346.7225 373.521431 
L 348.552341 374.833683 
L 350.382183 476.359895 
L 352.212024 414.552106 
L 354.041866 425.977758 
L 355.871707 413.536004 
L 357.701549 329.698074 
L 359.53139 389.099534 
L 361.361232 429.134943 
L 363.191073 445.301745 
L 365.020915 483.5298 
L 366.850756 468.669381 
L 368.680598 529.574628 
L 370.510439 489.488535 
L 372.340281 464.156003 
L 374.170122 449.712843 
L 375.999964 336.31373 
L 377.829805 325.294747 
L 379.659647 363.647797 
L 381.489488 319.8803 
L 383.31933 367.082276 
L 385.149171 417.963114 
L 386.979013 432.327151 
L 388.808854 409.455061 
L 390.638696 500.684043 
L 392.468537 480.87416 
L 394.298379 417.288824 
L 396.12822 467.492687 
L 397.958062 422.445511 
L 399.787903 362.06318 
L 401.617745 451.690673 
L 403.447586 422.059025 
L 405.277428 456.055951 
L 407.107269 521.790909 
L 408.937111 445.185643 
L 410.766952 497.149396 
L 412.596794 491.342726 
L 414.426635 408.479824 
L 416.256477 524.989116 
L 418.086318 510.399641 
L 419.91616 530.212563 
L 421.746001 439.136676 
L 423.575843 330.999137 
L 425.405684 403.378425 
L 427.235526 440.013231 
L 429.065367 354.410325 
L 430.895209 371.324645 
L 432.72505 317.199885 
L 434.554892 421.072288 
L 436.384733 406.528673 
L 438.214575 366.827435 
L 440.044416 334.506454 
L 441.874258 341.266298 
L 443.704099 331.120403 
L 445.533941 308.060703 
L 447.363782 417.698337 
L 449.193624 390.998007 
L 451.023465 397.927493 
L 452.853307 362.602695 
L 454.683148 391.81792 
L 456.51299 362.666588 
L 458.342831 352.060352 
L 460.172673 423.711577 
L 462.002514 431.12949 
L 463.832356 360.74308 
L 465.662197 407.700855 
L 467.492039 392.824842 
L 469.32188 330.12253 
L 471.151722 393.669399 
L 472.981563 382.256864 
L 474.811405 335.271966 
L 476.641246 357.424312 
L 478.471088 320.59535 
L 480.300929 321.667834 
L 482.130771 380.449588 
L 483.960612 449.079184 
L 485.790454 485.395831 
L 487.620295 466.697914 
L 489.450137 529.610655 
L 491.279978 502.20302 
L 493.10982 471.040008 
L 494.939661 508.222049 
L 496.769503 481.010108 
L 498.599344 460.700374 
L 500.429186 466.156209 
L 502.259027 459.346736 
L 504.088869 435.356003 
L 505.91871 387.833781 
L 507.748552 388.742987 
L 509.578393 414.184971 
L 511.408235 398.547826 
L 513.238076 421.743943 
L 515.067918 417.567136 
L 516.897759 400.444056 
L 518.727601 372.015155 
L 520.557442 353.565924 
L 522.387284 370.484078 
L 524.217125 408.84117 
L 526.046967 438.05243 
L 527.876808 463.268312 
L 529.70665 471.860051 
L 531.536491 504.733222 
L 533.366333 482.290569 
L 535.196174 436.444786 
L 537.026016 507.524367 
L 538.855857 500.661381 
L 540.685699 492.395547 
L 542.51554 505.687778 
L 544.345382 495.561572 
L 546.175223 539.67572 
L 548.005065 533.986038 
L 549.834906 569.630326 
L 551.664748 616.356458 
L 553.494589 620.422131 
L 555.324431 606.798401 
L 557.154272 606.547381 
L 558.984114 581.139534 
L 560.813955 564.041386 
L 562.643797 576.278423 
L 564.473638 586.549601 
L 566.30348 582.824136 
L 568.133321 612.939739 
L 569.963163 620.974177 
L 571.793004 592.69073 
L 573.622846 617.87769 
L 575.452687 616.925976 
L 577.282529 612.30016 
L 579.11237 612.547464 
L 582.772053 621.974045 
L 584.601895 570.855448 
L 586.431736 603.321349 
L 588.261578 601.575071 
L 590.091419 592.799999 
L 591.921261 607.130552 
L 593.751102 515.736088 
L 595.580944 527.758641 
L 597.410785 488.134584 
L 599.240627 400.131477 
L 601.070468 407.793956 
L 602.90031 431.045986 
L 604.730151 426.202165 
L 606.559993 391.470552 
L 608.389834 350.09045 
L 610.219676 468.61712 
L 612.049517 358.212695 
L 613.879359 350.344221 
L 615.7092 445.981172 
L 617.539042 405.118809 
L 619.368883 381.114593 
L 621.198725 351.931341 
L 623.028566 335.244375 
L 624.858408 363.064496 
L 626.688249 383.419371 
L 628.518091 356.584997 
L 630.347932 361.021939 
L 632.177774 353.790931 
L 634.007615 349.780558 
L 635.837457 326.545009 
L 637.667298 429.676596 
L 639.49714 419.705324 
L 641.326981 391.919522 
L 643.156823 375.388297 
L 644.986664 423.573803 
L 646.816506 349.956145 
L 648.646347 344.049724 
L 650.476189 441.850263 
L 654.135872 363.267962 
L 655.965713 376.476741 
L 657.795555 353.118311 
L 659.625396 404.498346 
L 661.455238 379.641019 
L 663.285079 398.311814 
L 665.114921 492.213857 
L 668.774604 414.935749 
L 670.604445 445.318227 
L 672.434287 385.918644 
L 674.264128 348.787848 
L 676.09397 379.211713 
L 677.923811 328.508392 
L 679.753653 324.234963 
L 681.583494 315.221324 
L 683.413336 324.464534 
L 685.243177 445.623712 
L 688.90286 525.917307 
L 690.732702 508.46797 
L 692.562543 469.508775 
L 694.392385 402.301899 
L 696.222226 326.052306 
L 698.052068 381.581609 
L 699.881909 333.894284 
L 701.711751 370.796474 
L 703.541592 427.285863 
L 705.371434 470.087981 
L 707.201275 469.924833 
L 710.860958 405.400771 
L 712.6908 363.445348 
L 714.520641 415.725306 
L 716.350483 408.162526 
L 718.180324 434.981618 
L 720.010166 473.522199 
L 721.840007 479.816201 
L 725.49969 425.741799 
L 727.329532 448.556698 
L 729.159373 443.02907 
L 730.989215 493.04866 
L 732.819056 546.837332 
L 734.648898 567.641021 
L 736.478739 541.804598 
L 738.308581 554.287739 
L 740.138422 553.536075 
L 741.968264 524.936763 
L 743.798105 563.676468 
L 745.627947 580.522044 
L 747.457788 535.339194 
L 749.28763 556.562501 
L 751.117471 561.864706 
L 752.947313 553.859293 
L 754.777154 562.424588 
L 756.606996 591.442136 
L 760.266679 531.683073 
L 762.09652 480.655542 
L 763.926362 485.125656 
L 765.756203 475.826717 
L 769.415886 466.354224 
L 771.245728 436.24904 
L 773.075569 426.689914 
L 774.905411 356.004643 
L 776.735252 380.703776 
L 778.565094 362.398552 
L 780.394935 350.961555 
L 782.224777 310.503985 
L 784.054618 351.392009 
L 785.88446 362.197538 
L 787.714301 323.248148 
L 789.544143 389.493504 
L 793.203826 326.82426 
L 795.033667 317.212976 
L 796.863509 356.583901 
L 798.69335 319.350173 
L 800.523192 364.508809 
L 802.353033 355.870703 
L 804.182875 322.629406 
L 806.012716 402.434169 
L 807.842558 399.787526 
L 809.672399 347.554406 
L 811.502241 344.899549 
L 813.332082 311.431028 
L 815.161924 286.107337 
L 816.991765 345.527705 
L 818.821607 329.860935 
L 820.651448 397.297303 
L 822.48129 340.548823 
L 824.311131 343.11856 
L 826.140973 372.390323 
L 827.970814 354.047023 
L 829.800656 386.03026 
L 831.630497 472.654511 
L 833.460339 428.324002 
L 835.29018 368.28943 
L 837.120022 420.814996 
L 838.949863 325.151836 
L 840.779705 350.109227 
L 842.609546 359.118224 
L 844.439388 337.60045 
L 846.269229 381.094043 
L 848.099071 410.962876 
L 849.928912 395.50171 
L 851.758754 473.693901 
L 853.588595 414.800166 
L 855.418437 479.081801 
L 857.248278 483.631741 
L 859.07812 402.003924 
L 860.907961 444.272421 
L 862.737803 439.221979 
L 864.567644 432.782041 
L 866.397486 456.017511 
L 868.227327 492.984507 
L 870.057169 507.969894 
L 871.88701 483.538223 
L 873.716852 467.247991 
L 875.546693 472.119742 
L 877.376535 453.783328 
L 879.206376 465.767637 
L 881.036218 422.410904 
L 882.866059 405.586295 
L 884.695901 443.852659 
L 886.525742 411.204547 
L 888.355584 466.641402 
L 890.185425 429.877924 
L 892.015267 407.766991 
L 893.845108 467.319055 
L 895.67495 480.197654 
L 899.334633 575.16553 
L 901.164474 534.301551 
L 902.994316 537.078691 
L 904.824157 545.27427 
L 906.653999 451.064264 
L 908.48384 503.010754 
L 910.313682 534.02989 
L 912.143523 498.592223 
L 913.973365 547.702843 
L 915.803206 546.150642 
L 917.633048 521.129411 
L 919.462889 567.817599 
L 921.292731 540.613964 
L 923.122572 564.97594 
L 924.952414 555.087441 
L 926.782255 548.474888 
L 928.612097 543.440198 
L 930.441938 507.415671 
L 932.27178 508.509461 
L 934.101621 524.409844 
L 935.931463 469.965594 
L 937.761304 537.51354 
L 939.591146 553.438645 
L 941.420987 526.646635 
L 943.250829 569.443863 
L 945.08067 559.101752 
L 946.910512 474.121826 
L 948.740353 447.135673 
L 950.570195 439.542094 
L 952.400036 461.173884 
L 954.229878 446.404689 
L 956.059719 452.769155 
L 957.889561 413.813976 
L 959.719402 408.288094 
L 961.549244 434.918195 
L 963.379085 397.592252 
L 965.208927 381.998476 
L 967.038768 376.717239 
L 968.86861 338.942013 
L 970.698451 367.406929 
L 972.528293 333.378448 
L 974.358134 328.833228 
L 976.187976 415.875623 
L 978.017817 382.589549 
L 979.847659 374.039379 
L 981.6775 371.780134 
L 983.507342 430.689517 
L 985.337183 368.316161 
L 987.167025 351.488057 
L 988.996866 427.922651 
L 990.826708 382.99043 
L 992.656549 356.967257 
L 994.486391 381.282409 
L 996.316232 356.161688 
L 998.146074 392.073177 
L 999.975915 419.373812 
L 1001.805757 382.635004 
L 1005.46544 345.851654 
L 1007.295281 377.538872 
L 1009.125123 329.965249 
L 1010.954964 431.069092 
L 1012.784806 382.011568 
L 1014.614647 412.852013 
L 1016.444489 409.954311 
L 1018.27433 304.988952 
L 1021.934013 439.35099 
L 1023.763855 355.828873 
L 1025.593696 377.587744 
L 1027.423538 379.103617 
L 1029.253379 297.838814 
L 1031.083221 362.861552 
L 1032.913062 318.363331 
L 1034.742904 394.688291 
L 1036.572745 465.351787 
L 1038.402587 382.859854 
L 1040.232428 448.569164 
L 1042.06227 458.015004 
L 1043.892111 426.411863 
L 1045.721953 431.898784 
L 1047.551794 403.333126 
L 1049.381636 352.323929 
L 1051.211478 322.261619 
L 1053.041319 295.042141 
L 1054.871161 302.35986 
L 1056.701002 410.673716 
L 1058.530844 344.357765 
L 1060.360685 356.059747 
L 1062.190527 446.001357 
L 1064.020368 393.78404 
L 1065.85021 366.472896 
L 1067.680051 403.399027 
L 1069.509893 336.669729 
L 1071.339734 384.461343 
L 1073.169576 330.622092 
L 1074.999417 341.117911 
L 1076.829259 301.813643 
L 1078.6591 327.002846 
L 1080.488942 326.11226 
L 1082.318783 335.956583 
L 1084.148625 301.293791 
L 1085.978466 370.400757 
L 1087.808308 406.379398 
L 1089.638149 362.323941 
L 1091.467991 333.32264 
L 1093.297832 280.699305 
L 1095.127674 244.83966 
L 1096.957515 386.629808 
L 1098.787357 319.160738 
L 1100.617198 324.108482 
L 1102.44704 331.864896 
L 1104.276881 297.456919 
L 1106.106723 270.890972 
L 1107.936564 320.654209 
L 1109.766406 289.297277 
L 1111.596247 303.755615 
L 1113.426089 380.894046 
L 1115.25593 386.913388 
L 1117.085772 383.325045 
L 1118.915613 394.094376 
L 1120.745455 464.92295 
L 1120.745455 464.92295 
" clip-path="url(#paab297f675)" style="fill: none; stroke: #ff6347; stroke-linecap: square"/>
   </g>
   <g id="line2d_14">
    <path d="M 207.654545 738.72 
L 244.251375 738.72 
L 246.081217 633.547342 
L 247.911058 738.72 
L 249.7409 535.36376 
L 251.570741 738.72 
L 1120.745455 738.72 
L 1120.745455 738.72 
" clip-path="url(#paab297f675)" style="fill: none; stroke: #da70d6; stroke-linecap: square"/>
   </g>
   <g id="line2d_15">
    <path d="M 207.654545 667.46965 
L 209.484387 634.099277 
L 211.314228 610.64208 
L 213.14407 629.105132 
L 214.973911 661.744541 
L 216.803753 668.618375 
L 218.633594 690.606732 
L 220.463436 668.370419 
L 222.293277 663.939867 
L 224.123119 652.501481 
L 225.95296 653.664243 
L 227.782802 644.038049 
L 229.612643 630.655775 
L 231.442485 654.787255 
L 233.272326 654.109888 
L 235.102168 662.681553 
L 236.932009 655.171119 
L 238.761851 621.686202 
L 240.591692 613.452679 
L 242.421534 556.910833 
L 244.251375 541.073222 
L 246.081217 297.880175 
L 247.911058 179.292925 
L 249.7409 165.493776 
L 251.570741 174.431396 
L 255.230424 154.815929 
L 257.060266 183.188083 
L 258.890107 180.40111 
L 260.719949 190.46804 
L 262.54979 187.212069 
L 264.379632 181.037586 
L 266.209473 196.573206 
L 268.039315 194.264412 
L 269.869156 351.813101 
L 271.698998 363.053413 
L 273.528839 239.863543 
L 275.358681 345.955055 
L 277.188522 358.628441 
L 279.018364 340.42993 
L 280.848206 385.94248 
L 282.678047 440.851712 
L 284.507889 504.756745 
L 286.33773 509.204092 
L 288.167572 461.381209 
L 289.997413 359.503379 
L 291.827255 344.830336 
L 293.657096 307.008508 
L 295.486938 289.613872 
L 297.316779 371.884319 
L 299.146621 336.376892 
L 300.976462 260.922776 
L 302.806304 260.446058 
L 304.636145 235.910438 
L 306.465987 279.062662 
L 308.295828 276.643763 
L 310.12567 359.971673 
L 311.955511 358.731634 
L 313.785353 457.749759 
L 315.615194 414.510119 
L 317.445036 296.108862 
L 319.274877 392.18023 
L 321.104719 348.498531 
L 322.93456 359.139608 
L 324.764402 453.460422 
L 326.594243 435.649101 
L 328.424085 421.949834 
L 330.253926 497.099404 
L 332.083768 454.176959 
L 333.913609 360.392296 
L 335.743451 428.633633 
L 337.573292 449.308076 
L 339.403134 463.910264 
L 341.232975 521.370561 
L 344.892658 371.657773 
L 346.7225 337.781201 
L 348.552341 330.140393 
L 350.382183 438.455215 
L 352.212024 431.077828 
L 354.041866 371.613466 
L 355.871707 367.077347 
L 357.701549 328.741744 
L 359.53139 312.740854 
L 361.361232 401.091276 
L 363.191073 449.097543 
L 365.020915 505.316236 
L 366.850756 506.265551 
L 368.680598 548.219526 
L 370.510439 383.291455 
L 372.340281 359.221313 
L 374.170122 337.211252 
L 375.999964 278.732402 
L 377.829805 280.940846 
L 379.659647 349.73359 
L 381.489488 328.408824 
L 383.31933 353.241454 
L 385.149171 409.217407 
L 386.979013 453.957455 
L 388.808854 456.905019 
L 390.638696 497.765765 
L 392.468537 477.461196 
L 394.298379 349.336308 
L 396.12822 408.201305 
L 397.958062 301.344149 
L 399.787903 229.986987 
L 401.617745 370.304135 
L 403.447586 400.948652 
L 405.277428 427.255847 
L 407.107269 549.460478 
L 408.937111 514.932865 
L 410.766952 525.139185 
L 412.596794 544.515355 
L 414.426635 437.213532 
L 416.256477 573.321862 
L 418.086318 547.402756 
L 419.91616 511.778862 
L 421.746001 379.184408 
L 423.575843 276.709847 
L 425.405684 357.672554 
L 427.235526 419.769607 
L 429.065367 287.455551 
L 430.895209 363.427537 
L 432.72505 232.410058 
L 434.554892 310.736267 
L 436.384733 283.519449 
L 438.214575 211.293035 
L 440.044416 233.075689 
L 441.874258 248.473354 
L 443.704099 252.082482 
L 445.533941 233.437765 
L 447.363782 323.741712 
L 449.193624 305.225433 
L 451.023465 290.627027 
L 452.853307 333.645389 
L 454.683148 353.323602 
L 456.51299 351.418792 
L 458.342831 327.6787 
L 460.172673 419.942144 
L 462.002514 392.958339 
L 463.832356 326.223382 
L 465.662197 329.065171 
L 467.492039 314.947133 
L 469.32188 289.105025 
L 471.151722 338.35673 
L 472.981563 343.031848 
L 474.811405 263.462836 
L 476.641246 326.926331 
L 478.471088 250.525222 
L 480.300929 214.186251 
L 482.130771 304.703313 
L 483.960612 408.676901 
L 485.790454 461.744667 
L 487.620295 427.326155 
L 489.450137 534.238545 
L 491.279978 488.146867 
L 493.10982 436.988448 
L 494.939661 474.436986 
L 496.769503 442.922069 
L 498.599344 438.046641 
L 500.429186 488.703854 
L 502.259027 503.899748 
L 504.088869 460.050521 
L 505.91871 359.092615 
L 507.748552 338.009989 
L 509.578393 359.873513 
L 511.408235 361.003031 
L 513.238076 412.621817 
L 515.067918 440.123544 
L 516.897759 420.58373 
L 518.727601 381.222272 
L 520.557442 345.480659 
L 522.387284 341.443868 
L 524.217125 368.89096 
L 526.046967 401.384322 
L 527.876808 467.789905 
L 529.70665 498.007984 
L 531.536491 519.044085 
L 533.366333 490.164415 
L 535.196174 356.680105 
L 537.026016 487.537565 
L 538.855857 459.231364 
L 540.685699 454.055876 
L 542.51554 369.785405 
L 544.345382 428.506683 
L 546.175223 541.648334 
L 548.005065 598.778515 
L 549.834906 582.639813 
L 551.664748 590.255715 
L 553.494589 598.726005 
L 555.324431 608.382874 
L 557.154272 594.862155 
L 558.984114 573.115071 
L 560.813955 585.836611 
L 562.643797 600.489 
L 564.473638 597.664579 
L 566.30348 588.367373 
L 568.133321 610.268399 
L 569.963163 637.887962 
L 571.793004 629.857768 
L 573.622846 631.685555 
L 575.452687 615.026838 
L 577.282529 610.3467 
L 579.11237 603.456436 
L 582.772053 600.806703 
L 586.431736 620.458837 
L 588.261578 595.647904 
L 590.091419 579.145118 
L 591.921261 564.617972 
L 593.751102 401.094249 
L 595.580944 394.144499 
L 597.410785 310.02539 
L 599.240627 212.86662 
L 601.070468 327.375014 
L 602.90031 382.870781 
L 604.730151 396.692044 
L 608.389834 297.711029 
L 610.219676 356.737009 
L 612.049517 190.399453 
L 613.879359 133.92 
L 615.7092 313.913845 
L 617.539042 247.788998 
L 619.368883 200.053453 
L 621.198725 280.525204 
L 623.028566 258.716731 
L 624.858408 264.703292 
L 626.688249 290.690346 
L 628.518091 286.233193 
L 630.347932 292.342323 
L 632.177774 294.172887 
L 634.007615 279.757971 
L 635.837457 287.91031 
L 637.667298 322.887793 
L 639.49714 322.949469 
L 641.326981 241.643358 
L 643.156823 257.066371 
L 644.986664 336.129901 
L 646.816506 227.209143 
L 648.646347 185.81441 
L 650.476189 397.740796 
L 652.30603 319.281247 
L 654.135872 192.205503 
L 655.965713 251.841984 
L 657.795555 300.068225 
L 659.625396 381.74554 
L 661.455238 340.180723 
L 663.285079 353.304147 
L 665.114921 536.815049 
L 666.944762 472.605796 
L 668.774604 326.63086 
L 670.604445 356.391493 
L 672.434287 316.728774 
L 674.264128 299.527771 
L 676.09397 356.130733 
L 677.923811 325.422976 
L 679.753653 322.28741 
L 681.583494 311.589769 
L 683.413336 306.852636 
L 685.243177 412.782096 
L 687.073019 421.05385 
L 688.90286 453.615981 
L 690.732702 437.050854 
L 692.562543 430.094402 
L 694.392385 374.122622 
L 696.222226 341.209786 
L 698.052068 358.89074 
L 699.881909 337.69801 
L 701.711751 323.048255 
L 703.541592 437.564108 
L 705.371434 448.532576 
L 707.201275 465.214457 
L 709.031117 430.050851 
L 710.860958 312.235215 
L 712.6908 253.074878 
L 714.520641 324.296613 
L 716.350483 402.280123 
L 718.180324 440.74831 
L 720.010166 531.209511 
L 721.840007 512.081322 
L 723.669849 420.205173 
L 725.49969 340.728374 
L 727.329532 361.737771 
L 729.159373 447.853983 
L 730.989215 604.503442 
L 732.819056 615.384742 
L 734.648898 605.635854 
L 736.478739 543.17533 
L 738.308581 529.855651 
L 740.138422 544.524978 
L 741.968264 583.991299 
L 743.798105 589.270216 
L 745.627947 637.140555 
L 747.457788 632.491731 
L 749.28763 605.843493 
L 751.117471 601.430791 
L 752.947313 618.293736 
L 754.777154 623.156033 
L 756.606996 610.436763 
L 758.436837 618.214405 
L 760.266679 630.311622 
L 762.09652 565.90224 
L 763.926362 541.986926 
L 765.756203 545.95929 
L 767.586045 563.578699 
L 769.415886 515.846452 
L 771.245728 400.546024 
L 774.905411 351.27103 
L 776.735252 350.959677 
L 778.565094 337.349182 
L 780.394935 302.800797 
L 782.224777 264.062644 
L 784.054618 273.55407 
L 785.88446 307.227803 
L 787.714301 268.325563 
L 789.544143 309.416297 
L 791.373984 269.133323 
L 793.203826 201.134361 
L 795.033667 225.381551 
L 796.863509 278.529666 
L 798.69335 228.229756 
L 800.523192 258.489221 
L 802.353033 308.042657 
L 804.182875 257.114981 
L 806.012716 340.534297 
L 807.842558 350.18256 
L 809.672399 248.80643 
L 811.502241 253.925929 
L 813.332082 238.541981 
L 815.161924 212.376602 
L 816.991765 265.175889 
L 818.821607 277.308977 
L 820.651448 326.806604 
L 822.48129 295.391803 
L 824.311131 241.746212 
L 826.140973 333.350231 
L 827.970814 330.288077 
L 829.800656 342.497914 
L 831.630497 440.602817 
L 833.460339 395.092223 
L 835.29018 296.434427 
L 837.120022 365.744207 
L 838.949863 298.409154 
L 840.779705 298.918835 
L 842.609546 324.350779 
L 844.439388 302.804292 
L 846.269229 316.332848 
L 848.099071 331.626563 
L 849.928912 335.881867 
L 851.758754 460.044314 
L 853.588595 380.893107 
L 855.418437 456.988393 
L 857.248278 439.503003 
L 859.07812 345.232755 
L 860.907961 365.050515 
L 862.737803 381.617598 
L 864.567644 412.132608 
L 866.397486 474.651144 
L 868.227327 502.649017 
L 870.057169 509.66172 
L 871.88701 479.577582 
L 873.716852 440.252529 
L 875.546693 429.026951 
L 877.376535 421.705555 
L 879.206376 439.442239 
L 881.036218 407.148744 
L 882.866059 353.659703 
L 884.695901 451.588471 
L 886.525742 366.190438 
L 888.355584 433.264366 
L 890.185425 362.120162 
L 892.015267 346.956215 
L 893.845108 498.369799 
L 895.67495 532.422415 
L 897.504791 550.874893 
L 899.334633 559.913985 
L 901.164474 377.360651 
L 902.994316 426.484858 
L 904.824157 515.979036 
L 906.653999 543.491273 
L 908.48384 490.470004 
L 910.313682 545.521039 
L 912.143523 577.825043 
L 913.973365 562.346405 
L 915.803206 506.718824 
L 917.633048 499.310899 
L 919.462889 533.772976 
L 921.292731 595.575966 
L 923.122572 610.851257 
L 924.952414 584.468877 
L 926.782255 582.271074 
L 928.612097 566.857827 
L 930.441938 595.789172 
L 932.27178 581.995774 
L 934.101621 580.018531 
L 935.931463 571.870664 
L 937.761304 584.287631 
L 939.591146 586.271276 
L 941.420987 598.142274 
L 945.08067 480.17932 
L 946.910512 379.910542 
L 948.740353 312.001134 
L 950.570195 346.039811 
L 952.400036 404.049141 
L 954.229878 415.476176 
L 956.059719 458.930547 
L 957.889561 358.234314 
L 959.719402 355.339637 
L 961.549244 364.952355 
L 963.379085 342.919867 
L 965.208927 301.352937 
L 967.038768 297.275985 
L 968.86861 253.271407 
L 970.698451 275.272705 
L 972.528293 252.708421 
L 974.358134 216.767724 
L 976.187976 314.176979 
L 978.017817 276.328629 
L 979.847659 245.325766 
L 981.6775 274.779193 
L 983.507342 350.69996 
L 987.167025 157.036212 
L 988.996866 332.836795 
L 990.826708 315.102771 
L 992.656549 268.331509 
L 994.486391 288.81138 
L 998.146074 323.429577 
L 999.975915 379.485565 
L 1001.805757 346.859932 
L 1003.635598 304.106477 
L 1005.46544 241.859967 
L 1007.295281 283.882412 
L 1009.125123 293.789479 
L 1010.954964 406.234845 
L 1012.784806 331.341837 
L 1014.614647 401.501988 
L 1016.444489 326.033164 
L 1018.27433 274.997106 
L 1020.104172 308.161132 
L 1021.934013 383.761132 
L 1023.763855 309.662896 
L 1025.593696 275.480082 
L 1027.423538 288.410081 
L 1029.253379 280.026268 
L 1031.083221 320.175301 
L 1032.913062 304.39608 
L 1034.742904 326.178891 
L 1036.572745 414.549524 
L 1038.402587 368.900557 
L 1040.232428 396.044537 
L 1042.06227 413.417633 
L 1043.892111 414.772105 
L 1045.721953 426.69912 
L 1047.551794 375.518899 
L 1049.381636 330.605219 
L 1053.041319 273.108856 
L 1054.871161 273.550263 
L 1056.701002 395.367066 
L 1058.530844 378.904689 
L 1060.360685 325.488172 
L 1062.190527 437.26895 
L 1064.020368 344.691076 
L 1065.85021 268.126896 
L 1067.680051 358.739223 
L 1069.509893 343.542364 
L 1071.339734 387.098885 
L 1073.169576 241.643462 
L 1074.999417 187.402808 
L 1076.829259 194.948768 
L 1078.6591 222.922335 
L 1080.488942 257.693875 
L 1082.318783 345.030881 
L 1084.148625 273.149382 
L 1085.978466 321.756684 
L 1087.808308 366.377057 
L 1089.638149 292.552048 
L 1091.467991 235.665924 
L 1093.297832 197.761088 
L 1095.127674 175.384936 
L 1096.957515 257.140382 
L 1098.787357 229.209061 
L 1100.617198 204.456467 
L 1102.44704 209.072595 
L 1104.276881 169.0206 
L 1106.106723 189.563998 
L 1107.936564 224.078819 
L 1109.766406 233.884805 
L 1111.596247 273.573473 
L 1113.426089 322.313098 
L 1115.25593 357.183736 
L 1117.085772 352.836453 
L 1118.915613 371.848513 
L 1120.745455 358.633657 
L 1120.745455 358.633657 
" clip-path="url(#paab297f675)" style="fill: none; stroke: #8fbc8f; stroke-linecap: square"/>
   </g>
   <g id="patch_3">
    <path d="M 162 768.96 
L 162 103.68 
" style="fill: none; stroke: #000000; stroke-width: 0.8; stroke-linejoin: miter; stroke-linecap: square"/>
   </g>
   <g id="patch_4">
    <path d="M 1166.4 768.96 
L 1166.4 103.68 
" style="fill: none; stroke: #000000; stroke-width: 0.8; stroke-linejoin: miter; stroke-linecap: square"/>
   </g>
   <g id="patch_5">
    <path d="M 162 768.96 
L 1166.4 768.96 
" style="fill: none; stroke: #000000; stroke-width: 0.8; stroke-linejoin: miter; stroke-linecap: square"/>
   </g>
   <g id="patch_6">
    <path d="M 162 103.68 
L 1166.4 103.68 
" style="fill: none; stroke: #000000; stroke-width: 0.8; stroke-linejoin: miter; stroke-linecap: square"/>
   </g>
   <g id="text_12">
    <!-- Function 1 -->
    <g transform="translate(632.957813 97.68) scale(0.12 -0.12)">
     <defs>
      <path id="DejaVuSans-46" d="M 628 4666 
L 3309 4666 
L 3309 4134 
L 1259 4134 
L 1259 2759 
L 3109 2759 
L 3109 2228 
L 1259 2228 
L 1259 0 
L 628 0 
L 628 4666 
z
" transform="scale(0.015625)"/>
      <path id="DejaVuSans-75" d="M 544 1381 
L 544 3500 
L 1119 3500 
L 1119 1403 
Q 1119 906 1312 657 
Q 1506 409 1894 409 
Q 2359 409 2629 706 
Q 2900 1003 2900 1516 
L 2900 3500 
L 3475 3500 
L 3475 0 
L 2900 0 
L 2900 538 
Q 2691 219 2414 64 
Q 2138 -91 1772 -91 
Q 1169 -91 856 284 
Q 544 659 544 1381 
z
M 1991 3584 
L 1991 3584 
z
" transform="scale(0.015625)"/>
      <path id="DejaVuSans-6e" d="M 3513 2113 
L 3513 0 
L 2938 0 
L 2938 2094 
Q 2938 2591 2744 2837 
Q 2550 3084 2163 3084 
Q 1697 3084 1428 2787 
Q 1159 2491 1159 1978 
L 1159 0 
L 581 0 
L 581 3500 
L 1159 3500 
L 1159 2956 
Q 1366 3272 1645 3428 
Q 1925 3584 2291 3584 
Q 2894 3584 3203 3211 
Q 3513 2838 3513 2113 
z
" transform="scale(0.015625)"/>
      <path id="DejaVuSans-63" d="M 3122 3366 
L 3122 2828 
Q 2878 2963 2633 3030 
Q 2388 3097 2138 3097 
Q 1578 3097 1268 2742 
Q 959 2388 959 1747 
Q 959 1106 1268 751 
Q 1578 397 2138 397 
Q 2388 397 2633 464 
Q 2878 531 3122 666 
L 3122 134 
Q 2881 22 2623 -34 
Q 2366 -91 2075 -91 
Q 1284 -91 818 406 
Q 353 903 353 1747 
Q 353 2603 823 3093 
Q 1294 3584 2113 3584 
Q 2378 3584 2631 3529 
Q 2884 3475 3122 3366 
z
" transform="scale(0.015625)"/>
      <path id="DejaVuSans-74" d="M 1172 4494 
L 1172 3500 
L 2356 3500 
L 2356 3053 
L 1172 3053 
L 1172 1153 
Q 1172 725 1289 603 
Q 1406 481 1766 481 
L 2356 481 
L 2356 0 
L 1766 0 
Q 1100 0 847 248 
Q 594 497 594 1153 
L 594 3053 
L 172 3053 
L 172 3500 
L 594 3500 
L 594 4494 
L 1172 4494 
z
" transform="scale(0.015625)"/>
      <path id="DejaVuSans-69" d="M 603 3500 
L 1178 3500 
L 1178 0 
L 603 0 
L 603 3500 
z
M 603 4863 
L 1178 4863 
L 1178 4134 
L 603 4134 
L 603 4863 
z
" transform="scale(0.015625)"/>
      <path id="DejaVuSans-6f" d="M 1959 3097 
Q 1497 3097 1228 2736 
Q 959 2375 959 1747 
Q 959 1119 1226 758 
Q 1494 397 1959 397 
Q 2419 397 2687 759 
Q 2956 1122 2956 1747 
Q 2956 2369 2687 2733 
Q 2419 3097 1959 3097 
z
M 1959 3584 
Q 2709 3584 3137 3096 
Q 3566 2609 3566 1747 
Q 3566 888 3137 398 
Q 2709 -91 1959 -91 
Q 1206 -91 779 398 
Q 353 888 353 1747 
Q 353 2609 779 3096 
Q 1206 3584 1959 3584 
z
" transform="scale(0.015625)"/>
      <path id="DejaVuSans-20" transform="scale(0.015625)"/>
     </defs>
     <use xlink:href="#DejaVuSans-46"/>
     <use xlink:href="#DejaVuSans-75" x="52.019531"/>
     <use xlink:href="#DejaVuSans-6e" x="115.398438"/>
     <use xlink:href="#DejaVuSans-63" x="178.777344"/>
     <use xlink:href="#DejaVuSans-74" x="233.757812"/>
     <use xlink:href="#DejaVuSans-69" x="272.966797"/>
     <use xlink:href="#DejaVuSans-6f" x="300.75"/>
     <use xlink:href="#DejaVuSans-6e" x="361.931641"/>
     <use xlink:href="#DejaVuSans-20" x="425.310547"/>
     <use xlink:href="#DejaVuSans-31" x="457.097656"/>
    </g>
   </g>
   <g id="legend_1">
    <g id="patch_7">
     <path d="M 169 467.17625 
L 316.49375 467.17625 
Q 318.49375 467.17625 318.49375 465.17625 
L 318.49375 407.46375 
Q 318.49375 405.46375 316.49375 405.46375 
L 169 405.46375 
Q 167 405.46375 167 407.46375 
L 167 465.17625 
Q 167 467.17625 169 467.17625 
z
" style="fill: #ffffff; opacity: 0.8; stroke: #cccccc; stroke-linejoin: miter"/>
    </g>
    <g id="line2d_16">
     <path d="M 171 413.562187 
L 181 413.562187 
L 191 413.562187 
" style="fill: none; stroke: #4169e1; stroke-linecap: square"/>
    </g>
    <g id="text_13">
     <!-- Truth -->
     <g transform="translate(199 417.062187) scale(0.1 -0.1)">
      <defs>
       <path id="DejaVuSans-54" d="M -19 4666 
L 3928 4666 
L 3928 4134 
L 2272 4134 
L 2272 0 
L 1638 0 
L 1638 4134 
L -19 4134 
L -19 4666 
z
" transform="scale(0.015625)"/>
       <path id="DejaVuSans-72" d="M 2631 2963 
Q 2534 3019 2420 3045 
Q 2306 3072 2169 3072 
Q 1681 3072 1420 2755 
Q 1159 2438 1159 1844 
L 1159 0 
L 581 0 
L 581 3500 
L 1159 3500 
L 1159 2956 
Q 1341 3275 1631 3429 
Q 1922 3584 2338 3584 
Q 2397 3584 2469 3576 
Q 2541 3569 2628 3553 
L 2631 2963 
z
" transform="scale(0.015625)"/>
       <path id="DejaVuSans-68" d="M 3513 2113 
L 3513 0 
L 2938 0 
L 2938 2094 
Q 2938 2591 2744 2837 
Q 2550 3084 2163 3084 
Q 1697 3084 1428 2787 
Q 1159 2491 1159 1978 
L 1159 0 
L 581 0 
L 581 4863 
L 1159 4863 
L 1159 2956 
Q 1366 3272 1645 3428 
Q 1925 3584 2291 3584 
Q 2894 3584 3203 3211 
Q 3513 2838 3513 2113 
z
" transform="scale(0.015625)"/>
      </defs>
      <use xlink:href="#DejaVuSans-54"/>
      <use xlink:href="#DejaVuSans-72" x="46.333984"/>
      <use xlink:href="#DejaVuSans-75" x="87.447266"/>
      <use xlink:href="#DejaVuSans-74" x="150.826172"/>
      <use xlink:href="#DejaVuSans-68" x="190.035156"/>
     </g>
    </g>
    <g id="line2d_17">
     <path d="M 171 428.240313 
L 181 428.240313 
L 191 428.240313 
" style="fill: none; stroke: #ff6347; stroke-linecap: square"/>
    </g>
    <g id="text_14">
     <!-- Gossip predictions -->
     <g transform="translate(199 431.740313) scale(0.1 -0.1)">
      <defs>
       <path id="DejaVuSans-47" d="M 3809 666 
L 3809 1919 
L 2778 1919 
L 2778 2438 
L 4434 2438 
L 4434 434 
Q 4069 175 3628 42 
Q 3188 -91 2688 -91 
Q 1594 -91 976 548 
Q 359 1188 359 2328 
Q 359 3472 976 4111 
Q 1594 4750 2688 4750 
Q 3144 4750 3555 4637 
Q 3966 4525 4313 4306 
L 4313 3634 
Q 3963 3931 3569 4081 
Q 3175 4231 2741 4231 
Q 1884 4231 1454 3753 
Q 1025 3275 1025 2328 
Q 1025 1384 1454 906 
Q 1884 428 2741 428 
Q 3075 428 3337 486 
Q 3600 544 3809 666 
z
" transform="scale(0.015625)"/>
       <path id="DejaVuSans-73" d="M 2834 3397 
L 2834 2853 
Q 2591 2978 2328 3040 
Q 2066 3103 1784 3103 
Q 1356 3103 1142 2972 
Q 928 2841 928 2578 
Q 928 2378 1081 2264 
Q 1234 2150 1697 2047 
L 1894 2003 
Q 2506 1872 2764 1633 
Q 3022 1394 3022 966 
Q 3022 478 2636 193 
Q 2250 -91 1575 -91 
Q 1294 -91 989 -36 
Q 684 19 347 128 
L 347 722 
Q 666 556 975 473 
Q 1284 391 1588 391 
Q 1994 391 2212 530 
Q 2431 669 2431 922 
Q 2431 1156 2273 1281 
Q 2116 1406 1581 1522 
L 1381 1569 
Q 847 1681 609 1914 
Q 372 2147 372 2553 
Q 372 3047 722 3315 
Q 1072 3584 1716 3584 
Q 2034 3584 2315 3537 
Q 2597 3491 2834 3397 
z
" transform="scale(0.015625)"/>
       <path id="DejaVuSans-70" d="M 1159 525 
L 1159 -1331 
L 581 -1331 
L 581 3500 
L 1159 3500 
L 1159 2969 
Q 1341 3281 1617 3432 
Q 1894 3584 2278 3584 
Q 2916 3584 3314 3078 
Q 3713 2572 3713 1747 
Q 3713 922 3314 415 
Q 2916 -91 2278 -91 
Q 1894 -91 1617 61 
Q 1341 213 1159 525 
z
M 3116 1747 
Q 3116 2381 2855 2742 
Q 2594 3103 2138 3103 
Q 1681 3103 1420 2742 
Q 1159 2381 1159 1747 
Q 1159 1113 1420 752 
Q 1681 391 2138 391 
Q 2594 391 2855 752 
Q 3116 1113 3116 1747 
z
" transform="scale(0.015625)"/>
       <path id="DejaVuSans-65" d="M 3597 1894 
L 3597 1613 
L 953 1613 
Q 991 1019 1311 708 
Q 1631 397 2203 397 
Q 2534 397 2845 478 
Q 3156 559 3463 722 
L 3463 178 
Q 3153 47 2828 -22 
Q 2503 -91 2169 -91 
Q 1331 -91 842 396 
Q 353 884 353 1716 
Q 353 2575 817 3079 
Q 1281 3584 2069 3584 
Q 2775 3584 3186 3129 
Q 3597 2675 3597 1894 
z
M 3022 2063 
Q 3016 2534 2758 2815 
Q 2500 3097 2075 3097 
Q 1594 3097 1305 2825 
Q 1016 2553 972 2059 
L 3022 2063 
z
" transform="scale(0.015625)"/>
       <path id="DejaVuSans-64" d="M 2906 2969 
L 2906 4863 
L 3481 4863 
L 3481 0 
L 2906 0 
L 2906 525 
Q 2725 213 2448 61 
Q 2172 -91 1784 -91 
Q 1150 -91 751 415 
Q 353 922 353 1747 
Q 353 2572 751 3078 
Q 1150 3584 1784 3584 
Q 2172 3584 2448 3432 
Q 2725 3281 2906 2969 
z
M 947 1747 
Q 947 1113 1208 752 
Q 1469 391 1925 391 
Q 2381 391 2643 752 
Q 2906 1113 2906 1747 
Q 2906 2381 2643 2742 
Q 2381 3103 1925 3103 
Q 1469 3103 1208 2742 
Q 947 2381 947 1747 
z
" transform="scale(0.015625)"/>
      </defs>
      <use xlink:href="#DejaVuSans-47"/>
      <use xlink:href="#DejaVuSans-6f" x="77.490234"/>
      <use xlink:href="#DejaVuSans-73" x="138.671875"/>
      <use xlink:href="#DejaVuSans-73" x="190.771484"/>
      <use xlink:href="#DejaVuSans-69" x="242.871094"/>
      <use xlink:href="#DejaVuSans-70" x="270.654297"/>
      <use xlink:href="#DejaVuSans-20" x="334.130859"/>
      <use xlink:href="#DejaVuSans-70" x="365.917969"/>
      <use xlink:href="#DejaVuSans-72" x="429.394531"/>
      <use xlink:href="#DejaVuSans-65" x="468.257812"/>
      <use xlink:href="#DejaVuSans-64" x="529.78125"/>
      <use xlink:href="#DejaVuSans-69" x="593.257812"/>
      <use xlink:href="#DejaVuSans-63" x="621.041016"/>
      <use xlink:href="#DejaVuSans-74" x="676.021484"/>
      <use xlink:href="#DejaVuSans-69" x="715.230469"/>
      <use xlink:href="#DejaVuSans-6f" x="743.013672"/>
      <use xlink:href="#DejaVuSans-6e" x="804.195312"/>
      <use xlink:href="#DejaVuSans-73" x="867.574219"/>
     </g>
    </g>
    <g id="line2d_18">
     <path d="M 171 442.918437 
L 181 442.918437 
L 191 442.918437 
" style="fill: none; stroke: #da70d6; stroke-linecap: square"/>
    </g>
    <g id="text_15">
     <!-- Centralized predictions -->
     <g transform="translate(199 446.418437) scale(0.1 -0.1)">
      <defs>
       <path id="DejaVuSans-43" d="M 4122 4306 
L 4122 3641 
Q 3803 3938 3442 4084 
Q 3081 4231 2675 4231 
Q 1875 4231 1450 3742 
Q 1025 3253 1025 2328 
Q 1025 1406 1450 917 
Q 1875 428 2675 428 
Q 3081 428 3442 575 
Q 3803 722 4122 1019 
L 4122 359 
Q 3791 134 3420 21 
Q 3050 -91 2638 -91 
Q 1578 -91 968 557 
Q 359 1206 359 2328 
Q 359 3453 968 4101 
Q 1578 4750 2638 4750 
Q 3056 4750 3426 4639 
Q 3797 4528 4122 4306 
z
" transform="scale(0.015625)"/>
       <path id="DejaVuSans-61" d="M 2194 1759 
Q 1497 1759 1228 1600 
Q 959 1441 959 1056 
Q 959 750 1161 570 
Q 1363 391 1709 391 
Q 2188 391 2477 730 
Q 2766 1069 2766 1631 
L 2766 1759 
L 2194 1759 
z
M 3341 1997 
L 3341 0 
L 2766 0 
L 2766 531 
Q 2569 213 2275 61 
Q 1981 -91 1556 -91 
Q 1019 -91 701 211 
Q 384 513 384 1019 
Q 384 1609 779 1909 
Q 1175 2209 1959 2209 
L 2766 2209 
L 2766 2266 
Q 2766 2663 2505 2880 
Q 2244 3097 1772 3097 
Q 1472 3097 1187 3025 
Q 903 2953 641 2809 
L 641 3341 
Q 956 3463 1253 3523 
Q 1550 3584 1831 3584 
Q 2591 3584 2966 3190 
Q 3341 2797 3341 1997 
z
" transform="scale(0.015625)"/>
       <path id="DejaVuSans-6c" d="M 603 4863 
L 1178 4863 
L 1178 0 
L 603 0 
L 603 4863 
z
" transform="scale(0.015625)"/>
       <path id="DejaVuSans-7a" d="M 353 3500 
L 3084 3500 
L 3084 2975 
L 922 459 
L 3084 459 
L 3084 0 
L 275 0 
L 275 525 
L 2438 3041 
L 353 3041 
L 353 3500 
z
" transform="scale(0.015625)"/>
      </defs>
      <use xlink:href="#DejaVuSans-43"/>
      <use xlink:href="#DejaVuSans-65" x="69.824219"/>
      <use xlink:href="#DejaVuSans-6e" x="131.347656"/>
      <use xlink:href="#DejaVuSans-74" x="194.726562"/>
      <use xlink:href="#DejaVuSans-72" x="233.935547"/>
      <use xlink:href="#DejaVuSans-61" x="275.048828"/>
      <use xlink:href="#DejaVuSans-6c" x="336.328125"/>
      <use xlink:href="#DejaVuSans-69" x="364.111328"/>
      <use xlink:href="#DejaVuSans-7a" x="391.894531"/>
      <use xlink:href="#DejaVuSans-65" x="444.384766"/>
      <use xlink:href="#DejaVuSans-64" x="505.908203"/>
      <use xlink:href="#DejaVuSans-20" x="569.384766"/>
      <use xlink:href="#DejaVuSans-70" x="601.171875"/>
      <use xlink:href="#DejaVuSans-72" x="664.648438"/>
      <use xlink:href="#DejaVuSans-65" x="703.511719"/>
      <use xlink:href="#DejaVuSans-64" x="765.035156"/>
      <use xlink:href="#DejaVuSans-69" x="828.511719"/>
      <use xlink:href="#DejaVuSans-63" x="856.294922"/>
      <use xlink:href="#DejaVuSans-74" x="911.275391"/>
      <use xlink:href="#DejaVuSans-69" x="950.484375"/>
      <use xlink:href="#DejaVuSans-6f" x="978.267578"/>
      <use xlink:href="#DejaVuSans-6e" x="1039.449219"/>
      <use xlink:href="#DejaVuSans-73" x="1102.828125"/>
     </g>
    </g>
    <g id="line2d_19">
     <path d="M 171 457.596563 
L 181 457.596563 
L 191 457.596563 
" style="fill: none; stroke: #8fbc8f; stroke-linecap: square"/>
    </g>
    <g id="text_16">
     <!-- Single predictions -->
     <g transform="translate(199 461.096563) scale(0.1 -0.1)">
      <defs>
       <path id="DejaVuSans-53" d="M 3425 4513 
L 3425 3897 
Q 3066 4069 2747 4153 
Q 2428 4238 2131 4238 
Q 1616 4238 1336 4038 
Q 1056 3838 1056 3469 
Q 1056 3159 1242 3001 
Q 1428 2844 1947 2747 
L 2328 2669 
Q 3034 2534 3370 2195 
Q 3706 1856 3706 1288 
Q 3706 609 3251 259 
Q 2797 -91 1919 -91 
Q 1588 -91 1214 -16 
Q 841 59 441 206 
L 441 856 
Q 825 641 1194 531 
Q 1563 422 1919 422 
Q 2459 422 2753 634 
Q 3047 847 3047 1241 
Q 3047 1584 2836 1778 
Q 2625 1972 2144 2069 
L 1759 2144 
Q 1053 2284 737 2584 
Q 422 2884 422 3419 
Q 422 4038 858 4394 
Q 1294 4750 2059 4750 
Q 2388 4750 2728 4690 
Q 3069 4631 3425 4513 
z
" transform="scale(0.015625)"/>
       <path id="DejaVuSans-67" d="M 2906 1791 
Q 2906 2416 2648 2759 
Q 2391 3103 1925 3103 
Q 1463 3103 1205 2759 
Q 947 2416 947 1791 
Q 947 1169 1205 825 
Q 1463 481 1925 481 
Q 2391 481 2648 825 
Q 2906 1169 2906 1791 
z
M 3481 434 
Q 3481 -459 3084 -895 
Q 2688 -1331 1869 -1331 
Q 1566 -1331 1297 -1286 
Q 1028 -1241 775 -1147 
L 775 -588 
Q 1028 -725 1275 -790 
Q 1522 -856 1778 -856 
Q 2344 -856 2625 -561 
Q 2906 -266 2906 331 
L 2906 616 
Q 2728 306 2450 153 
Q 2172 0 1784 0 
Q 1141 0 747 490 
Q 353 981 353 1791 
Q 353 2603 747 3093 
Q 1141 3584 1784 3584 
Q 2172 3584 2450 3431 
Q 2728 3278 2906 2969 
L 2906 3500 
L 3481 3500 
L 3481 434 
z
" transform="scale(0.015625)"/>
      </defs>
      <use xlink:href="#DejaVuSans-53"/>
      <use xlink:href="#DejaVuSans-69" x="63.476562"/>
      <use xlink:href="#DejaVuSans-6e" x="91.259766"/>
      <use xlink:href="#DejaVuSans-67" x="154.638672"/>
      <use xlink:href="#DejaVuSans-6c" x="218.115234"/>
      <use xlink:href="#DejaVuSans-65" x="245.898438"/>
      <use xlink:href="#DejaVuSans-20" x="307.421875"/>
      <use xlink:href="#DejaVuSans-70" x="339.208984"/>
      <use xlink:href="#DejaVuSans-72" x="402.685547"/>
      <use xlink:href="#DejaVuSans-65" x="441.548828"/>
      <use xlink:href="#DejaVuSans-64" x="503.072266"/>
      <use xlink:href="#DejaVuSans-69" x="566.548828"/>
      <use xlink:href="#DejaVuSans-63" x="594.332031"/>
      <use xlink:href="#DejaVuSans-74" x="649.3125"/>
      <use xlink:href="#DejaVuSans-69" x="688.521484"/>
      <use xlink:href="#DejaVuSans-6f" x="716.304688"/>
      <use xlink:href="#DejaVuSans-6e" x="777.486328"/>
      <use xlink:href="#DejaVuSans-73" x="840.865234"/>
     </g>
    </g>
   </g>
  </g>
 </g>
 <defs>
  <clipPath id="paab297f675">
   <rect x="162" y="103.68" width="1004.4" height="665.28"/>
  </clipPath>
 </defs>
</svg>
