<?xml version="1.0" encoding="utf-8" standalone="no"?>
<!DOCTYPE svg PUBLIC "-//W3C//DTD SVG 1.1//EN"
  "http://www.w3.org/Graphics/SVG/1.1/DTD/svg11.dtd">
<svg xmlns:xlink="http://www.w3.org/1999/xlink" width="1296pt" height="864pt" viewBox="0 0 1296 864" xmlns="http://www.w3.org/2000/svg" version="1.1">
 <metadata>
  <rdf:RDF xmlns:dc="http://purl.org/dc/elements/1.1/" xmlns:cc="http://creativecommons.org/ns#" xmlns:rdf="http://www.w3.org/1999/02/22-rdf-syntax-ns#">
   <cc:Work>
    <dc:type rdf:resource="http://purl.org/dc/dcmitype/StillImage"/>
    <dc:date>2023-12-10T12:42:28.717878</dc:date>
    <dc:format>image/svg+xml</dc:format>
    <dc:creator>
     <cc:Agent>
      <dc:title>Matplotlib v3.8.0, https://matplotlib.org/</dc:title>
     </cc:Agent>
    </dc:creator>
   </cc:Work>
  </rdf:RDF>
 </metadata>
 <defs>
  <style type="text/css">*{stroke-linejoin: round; stroke-linecap: butt}</style>
 </defs>
 <g id="figure_1">
  <g id="patch_1">
   <path d="M 0 864 
L 1296 864 
L 1296 0 
L 0 0 
z
" style="fill: #ffffff"/>
  </g>
  <g id="axes_1">
   <g id="patch_2">
    <path d="M 162 768.96 
L 1166.4 768.96 
L 1166.4 103.68 
L 162 103.68 
z
" style="fill: #ffffff"/>
   </g>
   <g id="matplotlib.axis_1">
    <g id="xtick_1">
     <g id="line2d_1">
      <defs>
       <path id="m3d490e0376" d="M 0 0 
L 0 3.5 
" style="stroke: #000000; stroke-width: 0.8"/>
      </defs>
      <g>
       <use xlink:href="#m3d490e0376" x="207.654545" y="768.96" style="stroke: #000000; stroke-width: 0.8"/>
      </g>
     </g>
     <g id="text_1">
      <!-- 0 -->
      <g transform="translate(204.473295 783.558437) scale(0.1 -0.1)">
       <defs>
        <path id="DejaVuSans-30" d="M 2034 4250 
Q 1547 4250 1301 3770 
Q 1056 3291 1056 2328 
Q 1056 1369 1301 889 
Q 1547 409 2034 409 
Q 2525 409 2770 889 
Q 3016 1369 3016 2328 
Q 3016 3291 2770 3770 
Q 2525 4250 2034 4250 
z
M 2034 4750 
Q 2819 4750 3233 4129 
Q 3647 3509 3647 2328 
Q 3647 1150 3233 529 
Q 2819 -91 2034 -91 
Q 1250 -91 836 529 
Q 422 1150 422 2328 
Q 422 3509 836 4129 
Q 1250 4750 2034 4750 
z
" transform="scale(0.015625)"/>
       </defs>
       <use xlink:href="#DejaVuSans-30"/>
      </g>
     </g>
    </g>
    <g id="xtick_2">
     <g id="line2d_2">
      <g>
       <use xlink:href="#m3d490e0376" x="390.638696" y="768.96" style="stroke: #000000; stroke-width: 0.8"/>
      </g>
     </g>
     <g id="text_2">
      <!-- 100 -->
      <g transform="translate(381.094946 783.558437) scale(0.1 -0.1)">
       <defs>
        <path id="DejaVuSans-31" d="M 794 531 
L 1825 531 
L 1825 4091 
L 703 3866 
L 703 4441 
L 1819 4666 
L 2450 4666 
L 2450 531 
L 3481 531 
L 3481 0 
L 794 0 
L 794 531 
z
" transform="scale(0.015625)"/>
       </defs>
       <use xlink:href="#DejaVuSans-31"/>
       <use xlink:href="#DejaVuSans-30" x="63.623047"/>
       <use xlink:href="#DejaVuSans-30" x="127.246094"/>
      </g>
     </g>
    </g>
    <g id="xtick_3">
     <g id="line2d_3">
      <g>
       <use xlink:href="#m3d490e0376" x="573.622846" y="768.96" style="stroke: #000000; stroke-width: 0.8"/>
      </g>
     </g>
     <g id="text_3">
      <!-- 200 -->
      <g transform="translate(564.079096 783.558437) scale(0.1 -0.1)">
       <defs>
        <path id="DejaVuSans-32" d="M 1228 531 
L 3431 531 
L 3431 0 
L 469 0 
L 469 531 
Q 828 903 1448 1529 
Q 2069 2156 2228 2338 
Q 2531 2678 2651 2914 
Q 2772 3150 2772 3378 
Q 2772 3750 2511 3984 
Q 2250 4219 1831 4219 
Q 1534 4219 1204 4116 
Q 875 4013 500 3803 
L 500 4441 
Q 881 4594 1212 4672 
Q 1544 4750 1819 4750 
Q 2544 4750 2975 4387 
Q 3406 4025 3406 3419 
Q 3406 3131 3298 2873 
Q 3191 2616 2906 2266 
Q 2828 2175 2409 1742 
Q 1991 1309 1228 531 
z
" transform="scale(0.015625)"/>
       </defs>
       <use xlink:href="#DejaVuSans-32"/>
       <use xlink:href="#DejaVuSans-30" x="63.623047"/>
       <use xlink:href="#DejaVuSans-30" x="127.246094"/>
      </g>
     </g>
    </g>
    <g id="xtick_4">
     <g id="line2d_4">
      <g>
       <use xlink:href="#m3d490e0376" x="756.606996" y="768.96" style="stroke: #000000; stroke-width: 0.8"/>
      </g>
     </g>
     <g id="text_4">
      <!-- 300 -->
      <g transform="translate(747.063246 783.558437) scale(0.1 -0.1)">
       <defs>
        <path id="DejaVuSans-33" d="M 2597 2516 
Q 3050 2419 3304 2112 
Q 3559 1806 3559 1356 
Q 3559 666 3084 287 
Q 2609 -91 1734 -91 
Q 1441 -91 1130 -33 
Q 819 25 488 141 
L 488 750 
Q 750 597 1062 519 
Q 1375 441 1716 441 
Q 2309 441 2620 675 
Q 2931 909 2931 1356 
Q 2931 1769 2642 2001 
Q 2353 2234 1838 2234 
L 1294 2234 
L 1294 2753 
L 1863 2753 
Q 2328 2753 2575 2939 
Q 2822 3125 2822 3475 
Q 2822 3834 2567 4026 
Q 2313 4219 1838 4219 
Q 1578 4219 1281 4162 
Q 984 4106 628 3988 
L 628 4550 
Q 988 4650 1302 4700 
Q 1616 4750 1894 4750 
Q 2613 4750 3031 4423 
Q 3450 4097 3450 3541 
Q 3450 3153 3228 2886 
Q 3006 2619 2597 2516 
z
" transform="scale(0.015625)"/>
       </defs>
       <use xlink:href="#DejaVuSans-33"/>
       <use xlink:href="#DejaVuSans-30" x="63.623047"/>
       <use xlink:href="#DejaVuSans-30" x="127.246094"/>
      </g>
     </g>
    </g>
    <g id="xtick_5">
     <g id="line2d_5">
      <g>
       <use xlink:href="#m3d490e0376" x="939.591146" y="768.96" style="stroke: #000000; stroke-width: 0.8"/>
      </g>
     </g>
     <g id="text_5">
      <!-- 400 -->
      <g transform="translate(930.047396 783.558437) scale(0.1 -0.1)">
       <defs>
        <path id="DejaVuSans-34" d="M 2419 4116 
L 825 1625 
L 2419 1625 
L 2419 4116 
z
M 2253 4666 
L 3047 4666 
L 3047 1625 
L 3713 1625 
L 3713 1100 
L 3047 1100 
L 3047 0 
L 2419 0 
L 2419 1100 
L 313 1100 
L 313 1709 
L 2253 4666 
z
" transform="scale(0.015625)"/>
       </defs>
       <use xlink:href="#DejaVuSans-34"/>
       <use xlink:href="#DejaVuSans-30" x="63.623047"/>
       <use xlink:href="#DejaVuSans-30" x="127.246094"/>
      </g>
     </g>
    </g>
    <g id="xtick_6">
     <g id="line2d_6">
      <g>
       <use xlink:href="#m3d490e0376" x="1122.575296" y="768.96" style="stroke: #000000; stroke-width: 0.8"/>
      </g>
     </g>
     <g id="text_6">
      <!-- 500 -->
      <g transform="translate(1113.031546 783.558437) scale(0.1 -0.1)">
       <defs>
        <path id="DejaVuSans-35" d="M 691 4666 
L 3169 4666 
L 3169 4134 
L 1269 4134 
L 1269 2991 
Q 1406 3038 1543 3061 
Q 1681 3084 1819 3084 
Q 2600 3084 3056 2656 
Q 3513 2228 3513 1497 
Q 3513 744 3044 326 
Q 2575 -91 1722 -91 
Q 1428 -91 1123 -41 
Q 819 9 494 109 
L 494 744 
Q 775 591 1075 516 
Q 1375 441 1709 441 
Q 2250 441 2565 725 
Q 2881 1009 2881 1497 
Q 2881 1984 2565 2268 
Q 2250 2553 1709 2553 
Q 1456 2553 1204 2497 
Q 953 2441 691 2322 
L 691 4666 
z
" transform="scale(0.015625)"/>
       </defs>
       <use xlink:href="#DejaVuSans-35"/>
       <use xlink:href="#DejaVuSans-30" x="63.623047"/>
       <use xlink:href="#DejaVuSans-30" x="127.246094"/>
      </g>
     </g>
    </g>
   </g>
   <g id="matplotlib.axis_2">
    <g id="ytick_1">
     <g id="line2d_7">
      <defs>
       <path id="mdf2253e7e9" d="M 0 0 
L -3.5 0 
" style="stroke: #000000; stroke-width: 0.8"/>
      </defs>
      <g>
       <use xlink:href="#mdf2253e7e9" x="162" y="738.72" style="stroke: #000000; stroke-width: 0.8"/>
      </g>
     </g>
     <g id="text_7">
      <!-- 0 -->
      <g transform="translate(148.6375 742.519219) scale(0.1 -0.1)">
       <use xlink:href="#DejaVuSans-30"/>
      </g>
     </g>
    </g>
    <g id="ytick_2">
     <g id="line2d_8">
      <g>
       <use xlink:href="#mdf2253e7e9" x="162" y="606.016124" style="stroke: #000000; stroke-width: 0.8"/>
      </g>
     </g>
     <g id="text_8">
      <!-- 20 -->
      <g transform="translate(142.275 609.815343) scale(0.1 -0.1)">
       <use xlink:href="#DejaVuSans-32"/>
       <use xlink:href="#DejaVuSans-30" x="63.623047"/>
      </g>
     </g>
    </g>
    <g id="ytick_3">
     <g id="line2d_9">
      <g>
       <use xlink:href="#mdf2253e7e9" x="162" y="473.312248" style="stroke: #000000; stroke-width: 0.8"/>
      </g>
     </g>
     <g id="text_9">
      <!-- 40 -->
      <g transform="translate(142.275 477.111467) scale(0.1 -0.1)">
       <use xlink:href="#DejaVuSans-34"/>
       <use xlink:href="#DejaVuSans-30" x="63.623047"/>
      </g>
     </g>
    </g>
    <g id="ytick_4">
     <g id="line2d_10">
      <g>
       <use xlink:href="#mdf2253e7e9" x="162" y="340.608372" style="stroke: #000000; stroke-width: 0.8"/>
      </g>
     </g>
     <g id="text_10">
      <!-- 60 -->
      <g transform="translate(142.275 344.407591) scale(0.1 -0.1)">
       <defs>
        <path id="DejaVuSans-36" d="M 2113 2584 
Q 1688 2584 1439 2293 
Q 1191 2003 1191 1497 
Q 1191 994 1439 701 
Q 1688 409 2113 409 
Q 2538 409 2786 701 
Q 3034 994 3034 1497 
Q 3034 2003 2786 2293 
Q 2538 2584 2113 2584 
z
M 3366 4563 
L 3366 3988 
Q 3128 4100 2886 4159 
Q 2644 4219 2406 4219 
Q 1781 4219 1451 3797 
Q 1122 3375 1075 2522 
Q 1259 2794 1537 2939 
Q 1816 3084 2150 3084 
Q 2853 3084 3261 2657 
Q 3669 2231 3669 1497 
Q 3669 778 3244 343 
Q 2819 -91 2113 -91 
Q 1303 -91 875 529 
Q 447 1150 447 2328 
Q 447 3434 972 4092 
Q 1497 4750 2381 4750 
Q 2619 4750 2861 4703 
Q 3103 4656 3366 4563 
z
" transform="scale(0.015625)"/>
       </defs>
       <use xlink:href="#DejaVuSans-36"/>
       <use xlink:href="#DejaVuSans-30" x="63.623047"/>
      </g>
     </g>
    </g>
    <g id="ytick_5">
     <g id="line2d_11">
      <g>
       <use xlink:href="#mdf2253e7e9" x="162" y="207.904496" style="stroke: #000000; stroke-width: 0.8"/>
      </g>
     </g>
     <g id="text_11">
      <!-- 80 -->
      <g transform="translate(142.275 211.703715) scale(0.1 -0.1)">
       <defs>
        <path id="DejaVuSans-38" d="M 2034 2216 
Q 1584 2216 1326 1975 
Q 1069 1734 1069 1313 
Q 1069 891 1326 650 
Q 1584 409 2034 409 
Q 2484 409 2743 651 
Q 3003 894 3003 1313 
Q 3003 1734 2745 1975 
Q 2488 2216 2034 2216 
z
M 1403 2484 
Q 997 2584 770 2862 
Q 544 3141 544 3541 
Q 544 4100 942 4425 
Q 1341 4750 2034 4750 
Q 2731 4750 3128 4425 
Q 3525 4100 3525 3541 
Q 3525 3141 3298 2862 
Q 3072 2584 2669 2484 
Q 3125 2378 3379 2068 
Q 3634 1759 3634 1313 
Q 3634 634 3220 271 
Q 2806 -91 2034 -91 
Q 1263 -91 848 271 
Q 434 634 434 1313 
Q 434 1759 690 2068 
Q 947 2378 1403 2484 
z
M 1172 3481 
Q 1172 3119 1398 2916 
Q 1625 2713 2034 2713 
Q 2441 2713 2670 2916 
Q 2900 3119 2900 3481 
Q 2900 3844 2670 4047 
Q 2441 4250 2034 4250 
Q 1625 4250 1398 4047 
Q 1172 3844 1172 3481 
z
" transform="scale(0.015625)"/>
       </defs>
       <use xlink:href="#DejaVuSans-38"/>
       <use xlink:href="#DejaVuSans-30" x="63.623047"/>
      </g>
     </g>
    </g>
   </g>
   <g id="line2d_12">
    <path d="M 207.654545 141.552559 
L 211.314228 141.552559 
L 213.14407 466.677054 
L 214.973911 168.093334 
L 216.803753 440.136279 
L 218.633594 347.243566 
L 220.463436 314.067597 
L 222.293277 260.986047 
L 224.123119 141.552559 
L 231.442485 141.552559 
L 233.272326 413.595504 
L 235.102168 466.677054 
L 236.932009 141.552559 
L 238.761851 280.891628 
L 240.591692 141.552559 
L 244.251375 141.552559 
L 246.081217 473.312248 
L 247.911058 466.677054 
L 249.7409 260.986047 
L 251.570741 287.526822 
L 253.400583 181.363721 
L 255.230424 241.080465 
L 257.060266 307.432403 
L 258.890107 639.192093 
L 260.719949 579.475349 
L 262.54979 320.702791 
L 264.379632 453.406667 
L 266.209473 307.432403 
L 268.039315 141.552559 
L 269.869156 141.552559 
L 271.698998 513.123411 
L 273.528839 406.96031 
L 275.358681 552.934574 
L 277.188522 579.475349 
L 279.018364 599.38093 
L 280.848206 599.38093 
L 282.678047 473.312248 
L 284.507889 280.891628 
L 288.167572 698.908837 
L 289.997413 712.179225 
L 291.827255 400.325116 
L 293.657096 539.664186 
L 295.486938 606.016124 
L 297.316779 566.204961 
L 299.146621 645.827287 
L 300.976462 559.569768 
L 302.806304 632.556899 
L 304.636145 599.38093 
L 306.465987 479.947442 
L 308.295828 625.921705 
L 310.12567 473.312248 
L 311.955511 466.677054 
L 313.785353 440.136279 
L 315.615194 406.96031 
L 317.445036 533.028992 
L 319.274877 546.29938 
L 321.104719 632.556899 
L 324.764402 141.552559 
L 326.594243 466.677054 
L 328.424085 473.312248 
L 330.253926 347.243566 
L 332.083768 559.569768 
L 333.913609 632.556899 
L 335.743451 698.908837 
L 337.573292 659.097674 
L 339.403134 579.475349 
L 341.232975 546.29938 
L 343.062817 466.677054 
L 344.892658 579.475349 
L 346.7225 665.732868 
L 348.552341 539.664186 
L 350.382183 473.312248 
L 352.212024 433.501085 
L 354.041866 241.080465 
L 355.871707 453.406667 
L 357.701549 141.552559 
L 359.53139 141.552559 
L 361.361232 194.634109 
L 363.191073 340.608372 
L 365.020915 141.552559 
L 366.850756 141.552559 
L 368.680598 420.230698 
L 370.510439 373.784341 
L 372.340281 141.552559 
L 374.170122 141.552559 
L 375.999964 214.53969 
L 377.829805 201.269303 
L 379.659647 552.934574 
L 381.489488 479.947442 
L 383.31933 327.337985 
L 385.149171 460.041861 
L 386.979013 247.715659 
L 388.808854 267.621241 
L 390.638696 141.552559 
L 392.468537 174.728527 
L 394.298379 327.337985 
L 396.12822 141.552559 
L 397.958062 141.552559 
L 399.787903 486.582636 
L 401.617745 141.552559 
L 403.447586 387.054729 
L 405.277428 141.552559 
L 407.107269 420.230698 
L 408.937111 181.363721 
L 410.766952 367.149148 
L 412.596794 141.552559 
L 419.91616 141.552559 
L 421.746001 194.634109 
L 423.575843 493.21783 
L 425.405684 141.552559 
L 427.235526 234.445272 
L 429.065367 406.96031 
L 430.895209 168.093334 
L 432.72505 141.552559 
L 434.554892 260.986047 
L 436.384733 287.526822 
L 438.214575 320.702791 
L 440.044416 552.934574 
L 441.874258 141.552559 
L 443.704099 433.501085 
L 445.533941 466.677054 
L 447.363782 592.745737 
L 449.193624 533.028992 
L 451.023465 679.003256 
L 452.853307 506.488217 
L 454.683148 639.192093 
L 456.51299 506.488217 
L 458.342831 672.368062 
L 460.172673 380.419535 
L 462.002514 347.243566 
L 463.832356 645.827287 
L 465.662197 692.273643 
L 467.492039 685.63845 
L 469.32188 572.840155 
L 471.151722 632.556899 
L 472.981563 559.569768 
L 474.811405 526.393799 
L 476.641246 579.475349 
L 478.471088 460.041861 
L 480.300929 652.462481 
L 482.130771 619.286512 
L 483.960612 360.513954 
L 485.790454 453.406667 
L 487.620295 493.21783 
L 489.450137 572.840155 
L 491.279978 373.784341 
L 493.10982 367.149148 
L 494.939661 340.608372 
L 496.769503 552.934574 
L 498.599344 201.269303 
L 500.429186 148.187752 
L 502.259027 526.393799 
L 504.088869 526.393799 
L 505.91871 307.432403 
L 507.748552 559.569768 
L 509.578393 413.595504 
L 511.408235 479.947442 
L 513.238076 592.745737 
L 515.067918 566.204961 
L 516.897759 473.312248 
L 518.727601 234.445272 
L 520.557442 513.123411 
L 522.387284 486.582636 
L 524.217125 267.621241 
L 526.046967 599.38093 
L 527.876808 413.595504 
L 529.70665 499.853023 
L 531.536491 579.475349 
L 533.366333 440.136279 
L 535.196174 393.689923 
L 537.026016 194.634109 
L 538.855857 426.865892 
L 540.685699 420.230698 
L 542.51554 625.921705 
L 544.345382 586.110543 
L 546.175223 486.582636 
L 548.005065 141.552559 
L 549.834906 141.552559 
L 551.664748 393.689923 
L 553.494589 572.840155 
L 555.324431 473.312248 
L 557.154272 393.689923 
L 558.984114 267.621241 
L 560.813955 519.758605 
L 562.643797 294.162016 
L 564.473638 307.432403 
L 566.30348 360.513954 
L 568.133321 141.552559 
L 569.963163 141.552559 
L 571.793004 181.363721 
L 573.622846 612.651318 
L 575.452687 705.544031 
L 577.282529 539.664186 
L 579.11237 659.097674 
L 580.942212 546.29938 
L 582.772053 645.827287 
L 584.601895 579.475349 
L 586.431736 413.595504 
L 588.261578 533.028992 
L 591.921261 234.445272 
L 593.751102 473.312248 
L 595.580944 221.174884 
L 597.410785 141.552559 
L 599.240627 393.689923 
L 601.070468 712.179225 
L 602.90031 493.21783 
L 604.730151 353.87876 
L 606.559993 460.041861 
L 608.389834 466.677054 
L 610.219676 552.934574 
L 612.049517 420.230698 
L 613.879359 141.552559 
L 615.7092 426.865892 
L 617.539042 619.286512 
L 619.368883 466.677054 
L 621.198725 426.865892 
L 623.028566 333.973179 
L 624.858408 426.865892 
L 626.688249 592.745737 
L 628.518091 586.110543 
L 630.347932 519.758605 
L 632.177774 659.097674 
L 634.007615 639.192093 
L 635.837457 665.732868 
L 637.667298 579.475349 
L 639.49714 499.853023 
L 641.326981 353.87876 
L 643.156823 460.041861 
L 644.986664 446.771473 
L 646.816506 207.904496 
L 648.646347 473.312248 
L 650.476189 333.973179 
L 652.30603 546.29938 
L 654.135872 360.513954 
L 655.965713 506.488217 
L 657.795555 360.513954 
L 659.625396 406.96031 
L 661.455238 579.475349 
L 663.285079 161.45814 
L 665.114921 393.689923 
L 666.944762 174.728527 
L 668.774604 426.865892 
L 670.604445 141.552559 
L 672.434287 274.256434 
L 674.264128 141.552559 
L 676.09397 141.552559 
L 677.923811 194.634109 
L 679.753653 400.325116 
L 681.583494 373.784341 
L 683.413336 187.998915 
L 685.243177 280.891628 
L 687.073019 307.432403 
L 688.90286 446.771473 
L 690.732702 426.865892 
L 692.562543 539.664186 
L 694.392385 473.312248 
L 696.222226 619.286512 
L 698.052068 406.96031 
L 699.881909 327.337985 
L 701.711751 433.501085 
L 703.541592 546.29938 
L 705.371434 539.664186 
L 707.201275 665.732868 
L 709.031117 732.084806 
L 710.860958 639.192093 
L 712.6908 612.651318 
L 714.520641 665.732868 
L 716.350483 566.204961 
L 718.180324 645.827287 
L 720.010166 460.041861 
L 721.840007 187.998915 
L 723.669849 506.488217 
L 725.49969 552.934574 
L 727.329532 679.003256 
L 729.159373 440.136279 
L 730.989215 433.501085 
L 732.819056 672.368062 
L 734.648898 380.419535 
L 736.478739 519.758605 
L 738.308581 380.419535 
L 740.138422 539.664186 
L 741.968264 546.29938 
L 743.798105 420.230698 
L 745.627947 639.192093 
L 747.457788 486.582636 
L 749.28763 665.732868 
L 751.117471 380.419535 
L 752.947313 533.028992 
L 754.777154 552.934574 
L 756.606996 194.634109 
L 758.436837 141.552559 
L 760.266679 400.325116 
L 762.09652 300.79721 
L 763.926362 672.368062 
L 765.756203 639.192093 
L 767.586045 393.689923 
L 769.415886 672.368062 
L 771.245728 606.016124 
L 773.075569 579.475349 
L 774.905411 526.393799 
L 776.735252 645.827287 
L 778.565094 639.192093 
L 780.394935 466.677054 
L 782.224777 413.595504 
L 784.054618 499.853023 
L 785.88446 413.595504 
L 787.714301 592.745737 
L 789.544143 599.38093 
L 791.373984 599.38093 
L 793.203826 645.827287 
L 795.033667 619.286512 
L 796.863509 625.921705 
L 798.69335 705.544031 
L 800.523192 619.286512 
L 802.353033 672.368062 
L 804.182875 632.556899 
L 806.012716 612.651318 
L 807.842558 685.63845 
L 809.672399 606.016124 
L 811.502241 513.123411 
L 813.332082 433.501085 
L 815.161924 725.449612 
L 816.991765 665.732868 
L 818.821607 679.003256 
L 820.651448 592.745737 
L 822.48129 685.63845 
L 826.140973 619.286512 
L 827.970814 645.827287 
L 829.800656 499.853023 
L 831.630497 732.084806 
L 833.460339 533.028992 
L 835.29018 725.449612 
L 837.120022 738.72 
L 838.949863 685.63845 
L 840.779705 373.784341 
L 842.609546 260.986047 
L 844.439388 340.608372 
L 846.269229 214.53969 
L 848.099071 287.526822 
L 849.928912 320.702791 
L 851.758754 493.21783 
L 853.588595 712.179225 
L 855.418437 685.63845 
L 857.248278 718.814419 
L 859.07812 625.921705 
L 860.907961 725.449612 
L 862.737803 712.179225 
L 864.567644 738.72 
L 866.397486 645.827287 
L 868.227327 679.003256 
L 870.057169 679.003256 
L 871.88701 420.230698 
L 873.716852 440.136279 
L 875.546693 619.286512 
L 877.376535 592.745737 
L 881.036218 141.552559 
L 882.866059 526.393799 
L 884.695901 420.230698 
L 886.525742 460.041861 
L 888.355584 141.552559 
L 890.185425 426.865892 
L 892.015267 141.552559 
L 895.67495 141.552559 
L 897.504791 373.784341 
L 899.334633 254.350853 
L 901.164474 234.445272 
L 902.994316 466.677054 
L 904.824157 380.419535 
L 906.653999 247.715659 
L 908.48384 559.569768 
L 910.313682 141.552559 
L 915.803206 141.552559 
L 917.633048 207.904496 
L 919.462889 413.595504 
L 921.292731 234.445272 
L 923.122572 413.595504 
L 924.952414 227.810078 
L 926.782255 254.350853 
L 928.612097 168.093334 
L 930.441938 141.552559 
L 932.27178 141.552559 
L 934.101621 387.054729 
L 935.931463 393.689923 
L 937.761304 141.552559 
L 939.591146 221.174884 
L 941.420987 393.689923 
L 943.250829 367.149148 
L 945.08067 168.093334 
L 946.910512 141.552559 
L 948.740353 207.904496 
L 950.570195 380.419535 
L 952.400036 479.947442 
L 954.229878 201.269303 
L 956.059719 300.79721 
L 957.889561 254.350853 
L 959.719402 234.445272 
L 961.549244 606.016124 
L 963.379085 493.21783 
L 965.208927 141.552559 
L 967.038768 340.608372 
L 968.86861 466.677054 
L 970.698451 453.406667 
L 972.528293 526.393799 
L 974.358134 639.192093 
L 976.187976 586.110543 
L 978.017817 705.544031 
L 979.847659 539.664186 
L 981.6775 672.368062 
L 983.507342 672.368062 
L 985.337183 446.771473 
L 987.167025 659.097674 
L 988.996866 572.840155 
L 990.826708 692.273643 
L 992.656549 519.758605 
L 994.486391 592.745737 
L 996.316232 625.921705 
L 998.146074 672.368062 
L 999.975915 732.084806 
L 1001.805757 639.192093 
L 1003.635598 413.595504 
L 1005.46544 579.475349 
L 1007.295281 692.273643 
L 1009.125123 506.488217 
L 1010.954964 267.621241 
L 1012.784806 685.63845 
L 1014.614647 692.273643 
L 1016.444489 645.827287 
L 1018.27433 552.934574 
L 1020.104172 705.544031 
L 1021.934013 738.72 
L 1023.763855 738.72 
L 1025.593696 698.908837 
L 1027.423538 280.891628 
L 1029.253379 440.136279 
L 1031.083221 619.286512 
L 1032.913062 725.449612 
L 1034.742904 612.651318 
L 1036.572745 347.243566 
L 1038.402587 247.715659 
L 1040.232428 718.814419 
L 1042.06227 679.003256 
L 1043.892111 599.38093 
L 1045.721953 659.097674 
L 1047.551794 579.475349 
L 1049.381636 559.569768 
L 1051.211478 698.908837 
L 1053.041319 672.368062 
L 1054.871161 420.230698 
L 1056.701002 141.552559 
L 1058.530844 314.067597 
L 1060.360685 141.552559 
L 1062.190527 214.53969 
L 1064.020368 141.552559 
L 1067.680051 141.552559 
L 1069.509893 413.595504 
L 1071.339734 148.187752 
L 1073.169576 141.552559 
L 1076.829259 141.552559 
L 1078.6591 187.998915 
L 1080.488942 453.406667 
L 1082.318783 453.406667 
L 1084.148625 234.445272 
L 1085.978466 307.432403 
L 1087.808308 307.432403 
L 1089.638149 141.552559 
L 1091.467991 141.552559 
L 1093.297832 387.054729 
L 1095.127674 320.702791 
L 1096.957515 473.312248 
L 1098.787357 672.368062 
L 1100.617198 267.621241 
L 1102.44704 453.406667 
L 1104.276881 141.552559 
L 1106.106723 141.552559 
L 1107.936564 426.865892 
L 1109.766406 227.810078 
L 1111.596247 141.552559 
L 1113.426089 174.728527 
L 1115.25593 254.350853 
L 1117.085772 141.552559 
L 1120.745455 141.552559 
L 1120.745455 141.552559 
" clip-path="url(#p276de6b42f)" style="fill: none; stroke: #4169e1; stroke-linecap: square"/>
   </g>
   <g id="line2d_13">
    <path d="M 207.654545 189.190518 
L 209.484387 189.310899 
L 211.314228 187.023065 
L 213.14407 186.744034 
L 214.973911 253.376117 
L 216.803753 203.416305 
L 218.633594 270.46334 
L 222.293277 236.485258 
L 224.123119 217.19231 
L 225.95296 187.151241 
L 227.782802 185.232091 
L 229.612643 175.145556 
L 231.442485 173.36987 
L 233.272326 176.905903 
L 235.102168 243.248172 
L 236.932009 320.022931 
L 238.761851 255.715535 
L 240.591692 290.060782 
L 242.421534 232.797762 
L 244.251375 193.847283 
L 246.081217 193.313418 
L 249.7409 341.715411 
L 251.570741 302.401994 
L 253.400583 331.322736 
L 255.230424 265.65491 
L 257.060266 242.985745 
L 258.890107 284.97732 
L 260.719949 396.320572 
L 262.54979 450.619594 
L 264.379632 410.377203 
L 266.209473 464.727987 
L 268.039315 400.221188 
L 269.869156 293.219425 
L 271.698998 272.747833 
L 273.528839 328.899056 
L 275.358681 365.336457 
L 277.188522 441.002633 
L 279.018364 499.933437 
L 280.848206 515.368038 
L 282.678047 544.514405 
L 284.507889 527.545866 
L 286.33773 461.621182 
L 288.167572 475.867799 
L 289.997413 519.860457 
L 291.827255 579.413501 
L 293.657096 513.944837 
L 295.486938 542.191464 
L 297.316779 545.807785 
L 299.146621 524.832094 
L 300.976462 583.821038 
L 302.806304 570.39853 
L 304.636145 581.812438 
L 306.465987 579.502432 
L 308.295828 526.26785 
L 310.12567 564.222634 
L 311.955511 518.134078 
L 313.785353 490.394941 
L 315.615194 486.718836 
L 317.445036 452.526038 
L 319.274877 493.097905 
L 321.104719 515.213868 
L 322.93456 561.960884 
L 324.764402 516.139956 
L 326.594243 383.89596 
L 328.424085 432.681254 
L 330.253926 433.371796 
L 332.083768 395.19493 
L 333.913609 500.709151 
L 335.743451 548.980437 
L 337.573292 601.002002 
L 339.403134 610.339185 
L 341.232975 591.451926 
L 343.062817 569.624044 
L 344.892658 534.876031 
L 346.7225 534.967328 
L 348.552341 562.405628 
L 350.382183 529.601772 
L 352.212024 409.598528 
L 354.041866 356.012828 
L 355.871707 240.799662 
L 357.701549 293.064925 
L 359.53139 195.776406 
L 361.361232 182.861591 
L 363.191073 186.872767 
L 365.020915 213.339937 
L 366.850756 181.171558 
L 368.680598 180.474436 
L 370.510439 231.851121 
L 372.340281 254.636617 
L 374.170122 191.976073 
L 375.999964 190.320109 
L 377.829805 202.281652 
L 379.659647 197.250381 
L 381.489488 286.277155 
L 383.31933 332.577744 
L 385.149171 278.138675 
L 386.979013 316.060985 
L 388.808854 244.240323 
L 390.638696 230.317512 
L 392.468537 191.089672 
L 394.298379 197.015746 
L 396.12822 230.894457 
L 397.958062 190.319805 
L 399.787903 189.806594 
L 401.617745 258.762757 
L 403.447586 203.151195 
L 405.277428 247.688222 
L 407.107269 192.784666 
L 408.937111 272.119709 
L 410.766952 245.72746 
L 412.596794 274.505244 
L 414.426635 240.986561 
L 416.256477 200.908162 
L 418.086318 199.042317 
L 419.91616 184.853384 
L 421.746001 185.452603 
L 423.575843 196.411516 
L 425.405684 279.433852 
L 427.235526 232.442139 
L 429.065367 254.454376 
L 430.895209 320.083678 
L 432.72505 236.1146 
L 434.554892 237.628921 
L 436.384733 277.001288 
L 438.214575 275.53359 
L 440.044416 300.814371 
L 441.874258 377.892206 
L 443.704099 302.64812 
L 445.533941 372.853216 
L 447.363782 419.401678 
L 449.193624 438.854669 
L 451.023465 478.156013 
L 452.853307 533.023259 
L 454.683148 527.671156 
L 456.51299 535.900314 
L 458.342831 519.85947 
L 460.172673 522.730197 
L 462.002514 474.27605 
L 463.832356 416.183529 
L 465.662197 475.621546 
L 467.492039 503.73939 
L 469.32188 552.362489 
L 471.151722 556.883054 
L 472.981563 555.235329 
L 474.811405 523.68271 
L 476.641246 495.670895 
L 478.471088 502.68224 
L 480.300929 457.30865 
L 482.130771 501.297233 
L 483.960612 515.364697 
L 485.790454 426.285859 
L 487.620295 455.066225 
L 489.450137 445.657651 
L 491.279978 456.914048 
L 493.10982 434.340356 
L 494.939661 427.109234 
L 496.769503 406.212717 
L 498.599344 422.969502 
L 500.429186 336.392201 
L 502.259027 287.543679 
L 504.088869 386.653596 
L 505.91871 423.094413 
L 507.748552 389.358559 
L 509.578393 476.905637 
L 511.408235 444.836833 
L 513.238076 450.3517 
L 515.067918 495.176263 
L 516.897759 497.105917 
L 518.727601 497.94048 
L 520.557442 424.871643 
L 522.387284 458.071126 
L 524.217125 450.133618 
L 526.046967 344.503572 
L 527.876808 437.382617 
L 529.70665 396.570065 
L 531.536491 415.992176 
L 533.366333 479.944987 
L 535.196174 439.516179 
L 537.026016 408.924616 
L 538.855857 306.599916 
L 540.685699 338.136171 
L 542.51554 347.667125 
L 544.345382 437.617126 
L 546.175223 471.973688 
L 548.005065 451.814488 
L 549.834906 319.138555 
L 551.664748 255.379199 
L 553.494589 298.917646 
L 555.324431 377.58346 
L 557.154272 398.172141 
L 558.984114 394.951334 
L 560.813955 338.712534 
L 562.643797 396.598793 
L 564.473638 333.004694 
L 566.30348 302.711804 
L 568.133321 332.155729 
L 569.963163 229.641499 
L 571.793004 210.856649 
L 573.622846 215.350815 
L 575.452687 348.341391 
L 577.282529 501.047158 
L 579.11237 469.336204 
L 580.942212 499.607555 
L 582.772053 495.992753 
L 584.601895 509.74408 
L 586.431736 476.457627 
L 588.261578 429.178935 
L 590.091419 442.49377 
L 591.921261 401.350374 
L 593.751102 328.301989 
L 595.580944 368.43091 
L 597.410785 296.958049 
L 599.240627 250.713575 
L 601.070468 313.709392 
L 602.90031 403.824701 
L 604.730151 394.352419 
L 606.559993 393.917851 
L 608.389834 430.182122 
L 610.219676 409.400619 
L 612.049517 422.098491 
L 613.879359 422.473376 
L 615.7092 334.382867 
L 617.539042 380.466032 
L 619.368883 407.389083 
L 621.198725 408.2748 
L 623.028566 436.427117 
L 624.858408 421.254083 
L 626.688249 403.708978 
L 630.347932 445.756492 
L 632.177774 472.241987 
L 634.007615 519.271743 
L 635.837457 522.14371 
L 637.667298 537.405384 
L 639.49714 540.22278 
L 641.326981 518.072369 
L 643.156823 463.885704 
L 644.986664 443.862704 
L 646.816506 415.908244 
L 648.646347 316.37039 
L 650.476189 370.85793 
L 652.30603 337.443655 
L 654.135872 394.180151 
L 655.965713 373.911682 
L 657.795555 405.432219 
L 659.625396 391.029001 
L 661.455238 381.179328 
L 663.285079 438.558021 
L 665.114921 314.455112 
L 666.944762 369.250336 
L 668.774604 315.236167 
L 670.604445 344.28711 
L 672.434287 281.296811 
L 674.264128 289.042308 
L 676.09397 257.336063 
L 677.923811 213.661187 
L 679.753653 231.466947 
L 681.583494 304.180363 
L 683.413336 346.401157 
L 685.243177 304.32084 
L 687.073019 343.404406 
L 688.90286 340.549549 
L 690.732702 381.382477 
L 692.562543 411.125227 
L 694.392385 461.61817 
L 696.222226 478.196384 
L 698.052068 517.273976 
L 699.881909 483.513317 
L 701.711751 419.851839 
L 703.541592 421.265903 
L 705.371434 441.143996 
L 707.201275 471.42742 
L 709.031117 542.452601 
L 710.860958 589.119216 
L 712.6908 576.929606 
L 714.520641 559.88464 
L 716.350483 555.561237 
L 718.180324 515.93658 
L 720.010166 532.032805 
L 721.840007 483.518126 
L 723.669849 360.874918 
L 725.49969 416.004326 
L 727.329532 463.603357 
L 729.159373 533.459119 
L 730.989215 497.06428 
L 732.819056 468.75845 
L 734.648898 524.419141 
L 736.478739 451.939981 
L 738.308581 483.401973 
L 740.138422 449.457503 
L 741.968264 456.456521 
L 743.798105 477.524522 
L 745.627947 437.868087 
L 747.457788 477.560996 
L 749.28763 462.348374 
L 751.117471 513.138319 
L 752.947313 445.951819 
L 754.777154 477.636879 
L 756.606996 482.665871 
L 758.436837 357.345769 
L 760.266679 292.437357 
L 762.09652 320.674898 
L 763.926362 281.338827 
L 765.756203 391.949571 
L 767.586045 442.799985 
L 769.415886 411.582247 
L 771.245728 493.85985 
L 773.075569 477.333852 
L 774.905411 465.662174 
L 776.735252 477.060061 
L 778.565094 482.242414 
L 780.394935 486.41057 
L 782.224777 459.058898 
L 784.054618 449.006837 
L 785.88446 445.057344 
L 787.714301 411.729761 
L 789.544143 437.074984 
L 791.373984 456.138485 
L 793.203826 470.186561 
L 795.033667 508.874613 
L 796.863509 512.182997 
L 798.69335 520.969698 
L 800.523192 549.205315 
L 802.353033 532.346348 
L 804.182875 547.659506 
L 806.012716 544.587491 
L 807.842558 549.072785 
L 809.672399 584.507277 
L 811.502241 588.897894 
L 813.332082 591.828102 
L 815.161924 545.044321 
L 816.991765 612.932842 
L 818.821607 622.589934 
L 820.651448 636.481625 
L 822.48129 633.20495 
L 824.311131 653.161685 
L 826.140973 663.422267 
L 827.970814 664.255881 
L 829.800656 667.467917 
L 831.630497 619.0284 
L 833.460339 670.36329 
L 835.29018 629.00573 
L 837.120022 671.829578 
L 838.949863 685.961402 
L 840.779705 679.987623 
L 842.609546 539.183994 
L 844.439388 361.279619 
L 846.269229 343.384966 
L 848.099071 226.884293 
L 851.758754 257.29516 
L 853.588595 364.706561 
L 855.418437 579.535729 
L 857.248278 645.197859 
L 859.07812 674.342796 
L 860.907961 642.906197 
L 862.737803 656.51199 
L 864.567644 653.103691 
L 866.397486 666.311629 
L 868.227327 644.704695 
L 870.057169 640.253502 
L 871.88701 633.099117 
L 873.716852 493.763034 
L 875.546693 373.991362 
L 877.376535 374.620144 
L 879.206376 366.491485 
L 881.036218 271.645123 
L 882.866059 198.938187 
L 884.695901 250.948767 
L 886.525742 260.320006 
L 888.355584 270.393886 
L 890.185425 195.128438 
L 892.015267 233.582006 
L 893.845108 182.845543 
L 895.67495 179.251143 
L 897.504791 177.025423 
L 899.334633 211.513578 
L 901.164474 197.214136 
L 902.994316 203.815564 
L 904.824157 255.82903 
L 906.653999 258.310293 
L 908.48384 207.999667 
L 910.313682 282.401546 
L 912.143523 203.9567 
L 913.973365 192.814989 
L 915.803206 186.76084 
L 917.633048 187.832063 
L 919.462889 199.474279 
L 921.292731 240.989092 
L 923.122572 206.670573 
L 924.952414 245.092654 
L 926.782255 202.904815 
L 928.612097 208.593823 
L 930.441938 185.549342 
L 932.27178 175.242042 
L 934.101621 173.897711 
L 935.931463 217.001412 
L 937.761304 274.347909 
L 939.591146 219.489509 
L 941.420987 231.196977 
L 943.250829 264.793417 
L 945.08067 285.092689 
L 946.910512 236.471033 
L 948.740353 220.431897 
L 950.570195 209.200585 
L 952.400036 246.152284 
L 954.229878 336.936772 
L 956.059719 280.737685 
L 957.889561 324.77436 
L 959.719402 298.044712 
L 961.549244 255.927187 
L 963.379085 405.947987 
L 965.208927 460.616148 
L 967.038768 355.133085 
L 968.86861 434.489085 
L 970.698451 418.14095 
L 972.528293 430.253095 
L 974.358134 511.409004 
L 976.187976 571.498418 
L 978.017817 582.336685 
L 979.847659 626.785414 
L 981.6775 603.338801 
L 983.507342 619.969106 
L 985.337183 620.347382 
L 987.167025 560.764636 
L 988.996866 587.840795 
L 990.826708 564.152687 
L 992.656549 587.099074 
L 994.486391 564.630601 
L 996.316232 566.668486 
L 998.146074 590.08279 
L 999.975915 611.207956 
L 1001.805757 650.591625 
L 1003.635598 653.265746 
L 1005.46544 556.252398 
L 1007.295281 574.593909 
L 1009.125123 619.816833 
L 1010.954964 556.084408 
L 1012.784806 444.333037 
L 1014.614647 568.939741 
L 1016.444489 611.586385 
L 1018.27433 621.087724 
L 1020.104172 596.043945 
L 1021.934013 634.928868 
L 1023.763855 657.80556 
L 1025.593696 675.042399 
L 1027.423538 671.955856 
L 1029.253379 518.181157 
L 1031.083221 483.015419 
L 1032.913062 558.69496 
L 1034.742904 612.638371 
L 1036.572745 622.989308 
L 1038.402587 511.8946 
L 1040.232428 378.885977 
L 1042.06227 557.153909 
L 1043.892111 602.072808 
L 1045.721953 613.139268 
L 1047.551794 602.897638 
L 1049.381636 551.696575 
L 1051.211478 510.072721 
L 1053.041319 508.95123 
L 1054.871161 487.139585 
L 1056.701002 378.134232 
L 1058.530844 228.538333 
L 1060.360685 223.659842 
L 1062.190527 180.038981 
L 1064.020368 194.326273 
L 1065.85021 178.468468 
L 1067.680051 178.681083 
L 1069.509893 177.503957 
L 1071.339734 221.391498 
L 1073.169576 185.159853 
L 1074.999417 181.992959 
L 1076.829259 178.428932 
L 1078.6591 183.34129 
L 1080.488942 194.15031 
L 1082.318783 255.27112 
L 1084.148625 290.352419 
L 1085.978466 220.126542 
L 1087.808308 238.347609 
L 1089.638149 235.23149 
L 1091.467991 190.882626 
L 1093.297832 190.805528 
L 1095.127674 237.696806 
L 1096.957515 233.893436 
L 1098.787357 269.445068 
L 1100.617198 342.046102 
L 1102.44704 258.593981 
L 1104.276881 336.143037 
L 1106.106723 216.615568 
L 1107.936564 181.666444 
L 1109.766406 227.481285 
L 1111.596247 220.459487 
L 1113.426089 214.591426 
L 1115.25593 223.079455 
L 1117.085772 214.30303 
L 1118.915613 194.200476 
L 1120.745455 194.584954 
L 1120.745455 194.584954 
" clip-path="url(#p276de6b42f)" style="fill: none; stroke: #ff6347; stroke-linecap: square"/>
   </g>
   <g id="line2d_14">
    <path d="M 207.654545 239.23487 
L 209.484387 237.90041 
L 211.314228 196.943052 
L 213.14407 193.654209 
L 214.973911 247.939816 
L 216.803753 213.073409 
L 218.633594 228.660232 
L 220.463436 263.042131 
L 222.293277 279.025277 
L 224.123119 286.72324 
L 225.95296 179.862156 
L 227.782802 169.154078 
L 229.612643 196.075585 
L 231.442485 156.708787 
L 233.272326 148.764444 
L 235.102168 242.643182 
L 236.932009 282.360947 
L 238.761851 223.469906 
L 240.591692 269.58099 
L 242.421534 243.85301 
L 244.251375 189.105726 
L 246.081217 195.983806 
L 249.7409 344.271518 
L 251.570741 312.655887 
L 253.400583 370.50218 
L 255.230424 287.74217 
L 257.060266 269.704357 
L 258.890107 338.460712 
L 260.719949 448.377877 
L 262.54979 419.763705 
L 264.379632 470.452 
L 266.209473 624.587499 
L 268.039315 451.108936 
L 269.869156 299.554781 
L 271.698998 277.276573 
L 273.528839 366.813014 
L 275.358681 373.505766 
L 277.188522 441.881288 
L 279.018364 729.672201 
L 280.848206 738.72 
L 284.507889 738.72 
L 286.33773 576.526575 
L 288.167572 526.452723 
L 289.997413 738.72 
L 297.316779 738.72 
L 299.146621 680.440239 
L 300.976462 738.72 
L 310.12567 738.72 
L 311.955511 712.885219 
L 313.785353 565.145723 
L 315.615194 466.688596 
L 317.445036 429.683693 
L 319.274877 477.01979 
L 321.104719 530.668427 
L 322.93456 580.018212 
L 324.764402 571.86247 
L 326.594243 411.241912 
L 328.424085 477.344002 
L 330.253926 454.587842 
L 332.083768 398.338411 
L 333.913609 583.052918 
L 335.743451 738.72 
L 341.232975 738.72 
L 343.062817 680.207464 
L 344.892658 504.853338 
L 346.7225 495.589494 
L 348.552341 657.191661 
L 350.382183 503.084815 
L 352.212024 484.691429 
L 354.041866 397.030452 
L 355.871707 253.214125 
L 357.701549 283.858512 
L 359.53139 254.579869 
L 361.361232 202.873226 
L 363.191073 217.713266 
L 365.020915 189.91275 
L 366.850756 197.189634 
L 368.680598 196.103022 
L 370.510439 246.848394 
L 372.340281 251.283686 
L 374.170122 214.088239 
L 375.999964 217.948914 
L 377.829805 221.410836 
L 379.659647 222.284934 
L 381.489488 338.495338 
L 383.31933 372.960409 
L 385.149171 348.442991 
L 386.979013 400.586329 
L 388.808854 335.236008 
L 390.638696 312.752779 
L 392.468537 207.313175 
L 394.298379 196.235147 
L 396.12822 232.704262 
L 397.958062 185.961055 
L 399.787903 175.10035 
L 401.617745 227.906868 
L 403.447586 190.467522 
L 405.277428 247.266789 
L 407.107269 204.262106 
L 408.937111 266.487803 
L 410.766952 221.295214 
L 412.596794 273.278863 
L 414.426635 244.094935 
L 416.256477 192.114272 
L 418.086318 228.449187 
L 419.91616 181.979645 
L 421.746001 177.196527 
L 423.575843 194.410914 
L 425.405684 281.621301 
L 427.235526 240.530199 
L 429.065367 276.723776 
L 430.895209 305.55279 
L 432.72505 260.415278 
L 434.554892 243.834229 
L 436.384733 305.728956 
L 438.214575 270.139761 
L 440.044416 306.106701 
L 441.874258 424.707449 
L 443.704099 289.589335 
L 445.533941 350.413092 
L 447.363782 399.907278 
L 449.193624 454.312202 
L 451.023465 619.196328 
L 452.853307 738.72 
L 460.172673 738.72 
L 462.002514 600.5718 
L 463.832356 439.954013 
L 465.662197 730.114844 
L 467.492039 671.867367 
L 469.32188 691.85802 
L 471.151722 738.72 
L 474.811405 738.72 
L 476.641246 704.15972 
L 478.471088 689.772942 
L 480.300929 502.356813 
L 482.130771 681.990895 
L 483.960612 738.72 
L 485.790454 535.675183 
L 487.620295 492.367802 
L 489.450137 421.486946 
L 491.279978 439.256106 
L 493.10982 426.015788 
L 494.939661 395.953812 
L 496.769503 353.984257 
L 498.599344 383.745181 
L 500.429186 330.41558 
L 502.259027 261.333621 
L 504.088869 400.115641 
L 505.91871 407.029916 
L 507.748552 349.642567 
L 509.578393 524.601306 
L 511.408235 449.472285 
L 513.238076 488.462452 
L 515.067918 642.271309 
L 516.897759 707.364391 
L 518.727601 691.900897 
L 520.557442 457.535489 
L 522.387284 485.606912 
L 524.217125 471.794155 
L 526.046967 392.295323 
L 527.876808 533.535698 
L 529.70665 491.181387 
L 531.536491 445.069645 
L 533.366333 550.48285 
L 535.196174 467.330085 
L 537.026016 471.060863 
L 538.855857 352.464569 
L 540.685699 355.011995 
L 542.51554 367.565948 
L 544.345382 440.640277 
L 546.175223 578.674805 
L 548.005065 511.241722 
L 549.834906 353.36689 
L 551.664748 310.807102 
L 553.494589 334.85239 
L 555.324431 409.221238 
L 557.154272 419.747379 
L 558.984114 458.201505 
L 560.813955 379.573937 
L 562.643797 428.388921 
L 564.473638 383.073268 
L 566.30348 372.432265 
L 568.133321 408.126096 
L 569.963163 227.58339 
L 571.793004 217.924969 
L 573.622846 269.034115 
L 575.452687 382.544086 
L 577.282529 473.3022 
L 579.11237 483.748003 
L 580.942212 738.72 
L 582.772053 738.72 
L 584.601895 648.980557 
L 586.431736 738.72 
L 588.261578 594.430327 
L 590.091419 651.713628 
L 591.921261 456.815081 
L 593.751102 383.607285 
L 595.580944 417.730832 
L 597.410785 351.260488 
L 599.240627 263.732369 
L 601.070468 327.455226 
L 602.90031 363.557885 
L 606.559993 461.907325 
L 608.389834 503.886245 
L 610.219676 490.068603 
L 612.049517 517.665491 
L 613.879359 462.864724 
L 615.7092 336.763238 
L 617.539042 355.192515 
L 619.368883 446.559466 
L 621.198725 417.650215 
L 623.028566 523.735611 
L 624.858408 434.897938 
L 626.688249 411.66952 
L 628.518091 459.833802 
L 630.347932 542.876564 
L 632.177774 704.730932 
L 634.007615 738.72 
L 641.326981 738.72 
L 643.156823 499.243452 
L 644.986664 440.144379 
L 646.816506 431.108235 
L 648.646347 342.37444 
L 650.476189 379.134635 
L 652.30603 330.483111 
L 654.135872 379.542652 
L 655.965713 402.7146 
L 657.795555 402.365507 
L 659.625396 407.649991 
L 661.455238 383.024975 
L 663.285079 476.95717 
L 665.114921 341.094146 
L 666.944762 366.789171 
L 668.774604 248.986689 
L 670.604445 262.241434 
L 672.434287 249.364131 
L 674.264128 226.301071 
L 676.09397 250.075276 
L 677.923811 195.808501 
L 679.753653 228.664535 
L 681.583494 271.680002 
L 683.413336 319.647565 
L 685.243177 315.495152 
L 687.073019 321.039228 
L 688.90286 334.458902 
L 690.732702 388.508177 
L 692.562543 428.583564 
L 694.392385 490.507374 
L 696.222226 576.730533 
L 698.052068 738.72 
L 699.881909 581.953182 
L 701.711751 493.194746 
L 703.541592 510.770578 
L 705.371434 552.633699 
L 707.201275 553.114689 
L 709.031117 723.433052 
L 710.860958 738.72 
L 721.840007 738.72 
L 723.669849 411.514008 
L 725.49969 470.56828 
L 727.329532 457.851576 
L 729.159373 723.101348 
L 730.989215 584.771299 
L 732.819056 625.579902 
L 734.648898 738.72 
L 736.478739 489.260187 
L 738.308581 551.365921 
L 740.138422 573.636473 
L 741.968264 548.002271 
L 743.798105 602.886919 
L 745.627947 464.552478 
L 747.457788 715.836625 
L 749.28763 654.139908 
L 751.117471 738.72 
L 752.947313 567.800292 
L 754.777154 610.790561 
L 756.606996 647.777165 
L 758.436837 403.749982 
L 760.266679 278.438006 
L 762.09652 319.195607 
L 763.926362 299.229127 
L 765.756203 431.621623 
L 767.586045 686.752487 
L 769.415886 550.934871 
L 771.245728 738.72 
L 780.394935 738.72 
L 782.224777 696.962807 
L 784.054618 706.188038 
L 785.88446 588.583452 
L 787.714301 497.768591 
L 789.544143 523.214148 
L 791.373984 666.635139 
L 793.203826 738.72 
L 842.609546 738.72 
L 844.439388 698.18224 
L 846.269229 438.263904 
L 848.099071 332.382417 
L 849.928912 292.166729 
L 851.758754 357.957112 
L 853.588595 446.392994 
L 855.418437 738.72 
L 871.88701 738.72 
L 873.716852 493.885591 
L 875.546693 519.541789 
L 877.376535 532.093362 
L 879.206376 456.586166 
L 881.036218 395.329636 
L 882.866059 133.92 
L 884.695901 226.457546 
L 886.525742 227.349413 
L 888.355584 246.80739 
L 890.185425 268.706688 
L 892.015267 264.56354 
L 893.845108 241.839196 
L 895.67495 181.852482 
L 897.504791 193.164588 
L 902.994316 279.835693 
L 904.824157 365.141408 
L 906.653999 348.240222 
L 908.48384 322.077951 
L 910.313682 409.745561 
L 912.143523 241.923381 
L 913.973365 240.277592 
L 915.803206 231.287186 
L 917.633048 162.437635 
L 919.462889 183.938534 
L 921.292731 209.543856 
L 923.122572 224.560416 
L 924.952414 287.733969 
L 926.782255 271.168967 
L 928.612097 286.678996 
L 930.441938 221.267473 
L 932.27178 190.294899 
L 934.101621 167.501506 
L 935.931463 220.495732 
L 937.761304 238.373022 
L 939.591146 203.73634 
L 941.420987 216.151359 
L 945.08067 291.613223 
L 946.910512 274.374081 
L 948.740353 225.20074 
L 950.570195 241.741545 
L 952.400036 308.134487 
L 954.229878 359.560732 
L 956.059719 333.3488 
L 957.889561 342.583511 
L 959.719402 362.780577 
L 961.549244 349.390492 
L 963.379085 489.262389 
L 965.208927 422.859322 
L 967.038768 389.655612 
L 968.86861 500.520785 
L 972.528293 389.599396 
L 974.358134 547.899773 
L 976.187976 738.72 
L 1036.572745 738.72 
L 1038.402587 727.569696 
L 1040.232428 574.306449 
L 1042.06227 649.674003 
L 1043.892111 738.72 
L 1045.721953 588.92909 
L 1047.551794 738.72 
L 1049.381636 645.294599 
L 1051.211478 500.280809 
L 1053.041319 517.592822 
L 1054.871161 617.211849 
L 1056.701002 446.132465 
L 1058.530844 171.2336 
L 1060.360685 169.975681 
L 1062.190527 204.014916 
L 1064.020368 204.305995 
L 1065.85021 199.630854 
L 1067.680051 166.972045 
L 1069.509893 177.81073 
L 1071.339734 241.098791 
L 1073.169576 202.251632 
L 1074.999417 177.594116 
L 1076.829259 216.698082 
L 1078.6591 211.557063 
L 1080.488942 200.938231 
L 1082.318783 270.914235 
L 1084.148625 314.959262 
L 1085.978466 327.071558 
L 1087.808308 356.741665 
L 1089.638149 339.996397 
L 1091.467991 215.356333 
L 1093.297832 179.117651 
L 1095.127674 247.004717 
L 1096.957515 237.253252 
L 1098.787357 271.114801 
L 1100.617198 418.39062 
L 1102.44704 338.967393 
L 1104.276881 337.873643 
L 1106.106723 228.130468 
L 1107.936564 172.479369 
L 1109.766406 262.047348 
L 1111.596247 224.906624 
L 1113.426089 173.989489 
L 1115.25593 238.610036 
L 1117.085772 255.183188 
L 1118.915613 192.021835 
L 1120.745455 205.186624 
L 1120.745455 205.186624 
" clip-path="url(#p276de6b42f)" style="fill: none; stroke: #da70d6; stroke-linecap: square"/>
   </g>
   <g id="line2d_15">
    <path d="M 207.654545 180.931506 
L 209.484387 176.593208 
L 211.314228 179.352236 
L 213.14407 180.022933 
L 214.973911 246.774992 
L 216.803753 198.218588 
L 218.633594 240.949707 
L 220.463436 250.633895 
L 222.293277 213.89724 
L 224.123119 191.047453 
L 225.95296 163.845852 
L 227.782802 163.442137 
L 229.612643 148.766469 
L 231.442485 159.520057 
L 233.272326 154.061533 
L 235.102168 215.491039 
L 236.932009 250.698084 
L 238.761851 200.555677 
L 240.591692 288.03406 
L 242.421534 211.266236 
L 244.251375 172.151639 
L 246.081217 174.818838 
L 247.911058 255.763474 
L 249.7409 291.729402 
L 251.570741 298.758034 
L 253.400583 357.111109 
L 255.230424 278.697395 
L 257.060266 283.318066 
L 258.890107 355.850659 
L 260.719949 416.782141 
L 262.54979 433.424342 
L 264.379632 388.006306 
L 266.209473 453.333138 
L 268.039315 439.946774 
L 269.869156 346.591574 
L 271.698998 337.534548 
L 273.528839 403.174303 
L 275.358681 386.434173 
L 277.188522 430.31574 
L 279.018364 519.072695 
L 280.848206 517.188981 
L 282.678047 538.465394 
L 284.507889 533.913861 
L 286.33773 493.015061 
L 288.167572 487.98002 
L 289.997413 573.593785 
L 291.827255 581.088714 
L 293.657096 568.268436 
L 295.486938 562.222096 
L 297.316779 593.207768 
L 299.146621 554.075795 
L 300.976462 575.182813 
L 302.806304 571.669307 
L 304.636145 585.076008 
L 306.465987 567.375683 
L 308.295828 522.999002 
L 310.12567 557.621839 
L 311.955511 539.85373 
L 313.785353 538.613668 
L 315.615194 506.808556 
L 317.445036 524.37396 
L 319.274877 521.981591 
L 321.104719 514.899628 
L 322.93456 532.238408 
L 324.764402 500.338012 
L 326.594243 421.02947 
L 328.424085 519.682013 
L 330.253926 529.8744 
L 332.083768 469.243464 
L 333.913609 527.642871 
L 335.743451 523.541372 
L 337.573292 584.119357 
L 339.403134 582.553995 
L 341.232975 556.23101 
L 343.062817 549.698555 
L 344.892658 469.115364 
L 346.7225 438.5055 
L 348.552341 539.210077 
L 350.382183 490.749324 
L 352.212024 330.658315 
L 354.041866 265.530885 
L 355.871707 227.69319 
L 357.701549 257.845932 
L 359.53139 202.55719 
L 361.361232 180.342058 
L 363.191073 189.067759 
L 365.020915 202.071619 
L 366.850756 165.066057 
L 368.680598 171.913005 
L 370.510439 221.614895 
L 372.340281 221.055617 
L 374.170122 173.588357 
L 375.999964 191.18383 
L 377.829805 203.654787 
L 379.659647 187.498613 
L 381.489488 254.590753 
L 383.31933 282.064248 
L 385.149171 263.395526 
L 386.979013 285.280499 
L 388.808854 229.615985 
L 390.638696 228.924634 
L 392.468537 184.96121 
L 394.298379 168.087107 
L 396.12822 212.64737 
L 397.958062 174.923779 
L 399.787903 163.669939 
L 401.617745 235.534111 
L 403.447586 185.441921 
L 405.277428 216.326969 
L 407.107269 184.709819 
L 408.937111 223.681154 
L 410.766952 186.999728 
L 412.596794 243.259714 
L 414.426635 191.52943 
L 416.256477 176.259251 
L 418.086318 179.643973 
L 419.91616 164.294165 
L 421.746001 164.770067 
L 423.575843 179.617953 
L 425.405684 239.676703 
L 427.235526 191.504777 
L 430.895209 276.439935 
L 432.72505 215.924368 
L 434.554892 227.280212 
L 436.384733 289.491026 
L 438.214575 288.271175 
L 440.044416 301.004914 
L 441.874258 349.271048 
L 443.704099 285.586512 
L 445.533941 357.683269 
L 447.363782 413.380029 
L 449.193624 386.804325 
L 451.023465 441.53379 
L 452.853307 480.088375 
L 454.683148 471.385378 
L 456.51299 523.105284 
L 458.342831 540.834199 
L 460.172673 546.403093 
L 462.002514 457.558067 
L 463.832356 433.877489 
L 465.662197 493.906473 
L 467.492039 497.070076 
L 469.32188 507.501629 
L 471.151722 523.294866 
L 472.981563 533.80339 
L 474.811405 492.364587 
L 476.641246 456.554349 
L 478.471088 476.892348 
L 480.300929 424.498707 
L 482.130771 478.962024 
L 483.960612 484.694163 
L 485.790454 421.36611 
L 487.620295 445.261783 
L 489.450137 425.612757 
L 491.279978 439.416199 
L 493.10982 402.200605 
L 494.939661 386.542606 
L 496.769503 342.959029 
L 498.599344 398.997769 
L 500.429186 322.843263 
L 502.259027 280.477992 
L 504.088869 372.124176 
L 505.91871 410.870292 
L 507.748552 377.72705 
L 509.578393 461.656845 
L 511.408235 416.52675 
L 513.238076 443.772418 
L 515.067918 454.043776 
L 516.897759 456.252437 
L 518.727601 476.668495 
L 520.557442 411.448705 
L 522.387284 433.662242 
L 524.217125 449.609675 
L 526.046967 403.791873 
L 527.876808 424.77217 
L 529.70665 403.09232 
L 531.536491 400.500903 
L 533.366333 431.110437 
L 535.196174 372.950411 
L 537.026016 378.659137 
L 538.855857 326.803487 
L 540.685699 343.108593 
L 544.345382 358.381506 
L 546.175223 367.992341 
L 548.005065 368.005048 
L 549.834906 338.944993 
L 551.664748 271.43266 
L 553.494589 343.164151 
L 555.324431 337.774803 
L 557.154272 324.073212 
L 558.984114 334.249147 
L 560.813955 303.308137 
L 562.643797 346.260654 
L 564.473638 331.612246 
L 566.30348 315.375126 
L 568.133321 318.778199 
L 569.963163 268.999945 
L 571.793004 226.94094 
L 573.622846 228.01758 
L 575.452687 308.647293 
L 577.282529 414.303662 
L 579.11237 361.518811 
L 580.942212 387.532428 
L 582.772053 360.617603 
L 584.601895 437.916001 
L 586.431736 472.930909 
L 588.261578 419.334097 
L 590.091419 436.503937 
L 593.751102 370.15658 
L 595.580944 397.365497 
L 597.410785 336.513922 
L 599.240627 271.368825 
L 601.070468 322.617663 
L 602.90031 390.425682 
L 604.730151 358.946681 
L 606.559993 378.219152 
L 608.389834 437.576527 
L 610.219676 395.186906 
L 612.049517 407.739821 
L 613.879359 393.736521 
L 615.7092 327.757013 
L 617.539042 361.93184 
L 619.368883 398.422672 
L 621.198725 376.76826 
L 623.028566 416.94026 
L 624.858408 416.738124 
L 626.688249 406.069455 
L 628.518091 418.90416 
L 630.347932 421.005222 
L 632.177774 457.802194 
L 634.007615 500.45938 
L 635.837457 496.728627 
L 637.667298 516.00573 
L 639.49714 541.954349 
L 641.326981 533.683263 
L 643.156823 491.750359 
L 644.986664 453.523352 
L 646.816506 433.802821 
L 648.646347 369.37917 
L 650.476189 379.31966 
L 652.30603 367.787244 
L 654.135872 403.523826 
L 655.965713 375.756189 
L 657.795555 406.703249 
L 659.625396 377.985934 
L 661.455238 382.558716 
L 663.285079 413.78997 
L 665.114921 285.795279 
L 666.944762 370.281669 
L 668.774604 327.20467 
L 670.604445 337.889539 
L 672.434287 300.574774 
L 674.264128 291.768432 
L 676.09397 274.443181 
L 677.923811 253.204607 
L 679.753653 274.231224 
L 681.583494 337.296369 
L 683.413336 368.617707 
L 685.243177 322.808915 
L 687.073019 327.276554 
L 688.90286 369.539947 
L 690.732702 404.952546 
L 692.562543 443.20413 
L 694.392385 458.103854 
L 696.222226 486.982098 
L 698.052068 489.346524 
L 699.881909 478.496322 
L 701.711751 491.624435 
L 703.541592 486.987515 
L 705.371434 527.040476 
L 707.201275 552.529897 
L 709.031117 556.508371 
L 710.860958 579.809913 
L 712.6908 571.398325 
L 714.520641 507.06096 
L 716.350483 554.87253 
L 718.180324 486.192792 
L 720.010166 493.837829 
L 721.840007 459.476028 
L 723.669849 427.667727 
L 725.49969 469.131107 
L 727.329532 483.659009 
L 729.159373 506.782106 
L 730.989215 466.385089 
L 732.819056 453.571241 
L 734.648898 502.448996 
L 736.478739 447.127172 
L 738.308581 483.166097 
L 740.138422 418.198786 
L 741.968264 473.227329 
L 743.798105 448.240311 
L 745.627947 434.544086 
L 747.457788 472.58746 
L 749.28763 425.609897 
L 751.117471 467.839423 
L 752.947313 430.047896 
L 754.777154 461.195624 
L 756.606996 398.826108 
L 758.436837 344.527137 
L 760.266679 256.590241 
L 762.09652 351.817158 
L 763.926362 304.86002 
L 765.756203 373.270067 
L 767.586045 461.44499 
L 769.415886 420.826449 
L 771.245728 483.141166 
L 773.075569 489.988189 
L 774.905411 473.90233 
L 776.735252 487.949646 
L 778.565094 472.662306 
L 780.394935 478.458305 
L 782.224777 459.683048 
L 784.054618 498.4768 
L 785.88446 467.897816 
L 787.714301 431.897972 
L 789.544143 453.099464 
L 791.373984 470.451418 
L 793.203826 465.478187 
L 795.033667 493.882832 
L 796.863509 497.493787 
L 798.69335 509.523467 
L 800.523192 524.138692 
L 802.353033 490.216725 
L 804.182875 532.863786 
L 806.012716 511.990454 
L 807.842558 550.308835 
L 809.672399 576.952551 
L 811.502241 546.832296 
L 813.332082 570.74775 
L 815.161924 578.114755 
L 816.991765 592.060295 
L 818.821607 592.400681 
L 820.651448 615.030032 
L 822.48129 610.550142 
L 824.311131 602.967636 
L 826.140973 624.523423 
L 827.970814 638.427769 
L 829.800656 639.301514 
L 831.630497 635.288401 
L 833.460339 654.701843 
L 835.29018 581.470458 
L 837.120022 642.460105 
L 838.949863 661.256054 
L 840.779705 659.495567 
L 842.609546 529.438591 
L 844.439388 482.934018 
L 846.269229 541.884768 
L 848.099071 239.70657 
L 849.928912 264.3936 
L 851.758754 300.169288 
L 853.588595 350.037068 
L 855.418437 620.960851 
L 857.248278 616.785355 
L 859.07812 639.35635 
L 860.907961 645.508365 
L 862.737803 661.097745 
L 864.567644 660.092369 
L 866.397486 658.185723 
L 868.227327 640.886036 
L 870.057169 609.267633 
L 871.88701 599.044227 
L 873.716852 474.054956 
L 875.546693 409.862752 
L 877.376535 399.64113 
L 879.206376 404.194094 
L 881.036218 277.08436 
L 882.866059 171.912144 
L 884.695901 255.488391 
L 886.525742 266.111525 
L 888.355584 270.416261 
L 890.185425 192.255003 
L 892.015267 239.350897 
L 893.845108 176.439265 
L 895.67495 174.193498 
L 897.504791 176.186456 
L 899.334633 217.063779 
L 901.164474 205.14238 
L 902.994316 222.134383 
L 904.824157 279.26867 
L 906.653999 275.278908 
L 908.48384 219.648717 
L 910.313682 266.067788 
L 912.143523 200.400064 
L 913.973365 197.157084 
L 915.803206 193.257835 
L 917.633048 176.686201 
L 919.462889 185.110141 
L 921.292731 239.832317 
L 923.122572 206.723473 
L 924.952414 249.742888 
L 926.782255 211.938351 
L 928.612097 202.030564 
L 932.27178 151.260286 
L 934.101621 164.900319 
L 935.931463 194.935313 
L 937.761304 235.893784 
L 939.591146 198.184671 
L 941.420987 236.463946 
L 943.250829 271.324328 
L 945.08067 270.382294 
L 946.910512 225.339345 
L 948.740353 217.247134 
L 950.570195 237.991328 
L 952.400036 273.824371 
L 954.229878 287.876117 
L 956.059719 271.192203 
L 957.889561 320.045002 
L 959.719402 340.246016 
L 961.549244 310.35636 
L 963.379085 403.104925 
L 965.208927 394.429771 
L 967.038768 310.064825 
L 968.86861 439.394533 
L 970.698451 460.762852 
L 972.528293 399.58013 
L 974.358134 458.540119 
L 976.187976 529.678997 
L 978.017817 515.759173 
L 979.847659 537.267894 
L 981.6775 532.290385 
L 983.507342 587.678398 
L 985.337183 597.463122 
L 987.167025 559.503756 
L 988.996866 604.719061 
L 990.826708 577.158129 
L 992.656549 587.411035 
L 994.486391 596.059499 
L 996.316232 567.615089 
L 998.146074 608.83838 
L 999.975915 615.175141 
L 1001.805757 627.190926 
L 1003.635598 635.971691 
L 1005.46544 527.256963 
L 1007.295281 631.989737 
L 1009.125123 646.319439 
L 1010.954964 581.895143 
L 1012.784806 449.235347 
L 1014.614647 615.495164 
L 1016.444489 621.200486 
L 1018.27433 617.88118 
L 1020.104172 612.962014 
L 1021.934013 640.658324 
L 1023.763855 655.417747 
L 1025.593696 629.406445 
L 1027.423538 593.909029 
L 1029.253379 406.120154 
L 1031.083221 588.913992 
L 1032.913062 630.862146 
L 1034.742904 618.757949 
L 1036.572745 651.582737 
L 1038.402587 465.160024 
L 1040.232428 454.36118 
L 1042.06227 582.162721 
L 1043.892111 517.455939 
L 1045.721953 521.94532 
L 1047.551794 608.919376 
L 1049.381636 573.410772 
L 1051.211478 510.733725 
L 1053.041319 470.138799 
L 1054.871161 434.890344 
L 1056.701002 333.229002 
L 1058.530844 183.194586 
L 1060.360685 252.610957 
L 1062.190527 194.272462 
L 1064.020368 205.388406 
L 1065.85021 171.456187 
L 1067.680051 173.435021 
L 1069.509893 171.081125 
L 1071.339734 237.757047 
L 1073.169576 172.668799 
L 1074.999417 168.41833 
L 1076.829259 172.424241 
L 1078.6591 187.630181 
L 1080.488942 208.84324 
L 1082.318783 269.762168 
L 1084.148625 285.414851 
L 1085.978466 212.375274 
L 1087.808308 219.826655 
L 1089.638149 241.96479 
L 1091.467991 187.405012 
L 1093.297832 168.922379 
L 1095.127674 247.422707 
L 1096.957515 237.243735 
L 1098.787357 249.026985 
L 1100.617198 320.76169 
L 1102.44704 215.404576 
L 1104.276881 326.079054 
L 1106.106723 263.280411 
L 1107.936564 159.777928 
L 1109.766406 221.858693 
L 1111.596247 191.888698 
L 1113.426089 177.94164 
L 1115.25593 208.126881 
L 1117.085772 207.782901 
L 1118.915613 176.32182 
L 1120.745455 187.934371 
L 1120.745455 187.934371 
" clip-path="url(#p276de6b42f)" style="fill: none; stroke: #8fbc8f; stroke-linecap: square"/>
   </g>
   <g id="patch_3">
    <path d="M 162 768.96 
L 162 103.68 
" style="fill: none; stroke: #000000; stroke-width: 0.8; stroke-linejoin: miter; stroke-linecap: square"/>
   </g>
   <g id="patch_4">
    <path d="M 1166.4 768.96 
L 1166.4 103.68 
" style="fill: none; stroke: #000000; stroke-width: 0.8; stroke-linejoin: miter; stroke-linecap: square"/>
   </g>
   <g id="patch_5">
    <path d="M 162 768.96 
L 1166.4 768.96 
" style="fill: none; stroke: #000000; stroke-width: 0.8; stroke-linejoin: miter; stroke-linecap: square"/>
   </g>
   <g id="patch_6">
    <path d="M 162 103.68 
L 1166.4 103.68 
" style="fill: none; stroke: #000000; stroke-width: 0.8; stroke-linejoin: miter; stroke-linecap: square"/>
   </g>
   <g id="text_12">
    <!-- Function 1 -->
    <g transform="translate(632.957813 97.68) scale(0.12 -0.12)">
     <defs>
      <path id="DejaVuSans-46" d="M 628 4666 
L 3309 4666 
L 3309 4134 
L 1259 4134 
L 1259 2759 
L 3109 2759 
L 3109 2228 
L 1259 2228 
L 1259 0 
L 628 0 
L 628 4666 
z
" transform="scale(0.015625)"/>
      <path id="DejaVuSans-75" d="M 544 1381 
L 544 3500 
L 1119 3500 
L 1119 1403 
Q 1119 906 1312 657 
Q 1506 409 1894 409 
Q 2359 409 2629 706 
Q 2900 1003 2900 1516 
L 2900 3500 
L 3475 3500 
L 3475 0 
L 2900 0 
L 2900 538 
Q 2691 219 2414 64 
Q 2138 -91 1772 -91 
Q 1169 -91 856 284 
Q 544 659 544 1381 
z
M 1991 3584 
L 1991 3584 
z
" transform="scale(0.015625)"/>
      <path id="DejaVuSans-6e" d="M 3513 2113 
L 3513 0 
L 2938 0 
L 2938 2094 
Q 2938 2591 2744 2837 
Q 2550 3084 2163 3084 
Q 1697 3084 1428 2787 
Q 1159 2491 1159 1978 
L 1159 0 
L 581 0 
L 581 3500 
L 1159 3500 
L 1159 2956 
Q 1366 3272 1645 3428 
Q 1925 3584 2291 3584 
Q 2894 3584 3203 3211 
Q 3513 2838 3513 2113 
z
" transform="scale(0.015625)"/>
      <path id="DejaVuSans-63" d="M 3122 3366 
L 3122 2828 
Q 2878 2963 2633 3030 
Q 2388 3097 2138 3097 
Q 1578 3097 1268 2742 
Q 959 2388 959 1747 
Q 959 1106 1268 751 
Q 1578 397 2138 397 
Q 2388 397 2633 464 
Q 2878 531 3122 666 
L 3122 134 
Q 2881 22 2623 -34 
Q 2366 -91 2075 -91 
Q 1284 -91 818 406 
Q 353 903 353 1747 
Q 353 2603 823 3093 
Q 1294 3584 2113 3584 
Q 2378 3584 2631 3529 
Q 2884 3475 3122 3366 
z
" transform="scale(0.015625)"/>
      <path id="DejaVuSans-74" d="M 1172 4494 
L 1172 3500 
L 2356 3500 
L 2356 3053 
L 1172 3053 
L 1172 1153 
Q 1172 725 1289 603 
Q 1406 481 1766 481 
L 2356 481 
L 2356 0 
L 1766 0 
Q 1100 0 847 248 
Q 594 497 594 1153 
L 594 3053 
L 172 3053 
L 172 3500 
L 594 3500 
L 594 4494 
L 1172 4494 
z
" transform="scale(0.015625)"/>
      <path id="DejaVuSans-69" d="M 603 3500 
L 1178 3500 
L 1178 0 
L 603 0 
L 603 3500 
z
M 603 4863 
L 1178 4863 
L 1178 4134 
L 603 4134 
L 603 4863 
z
" transform="scale(0.015625)"/>
      <path id="DejaVuSans-6f" d="M 1959 3097 
Q 1497 3097 1228 2736 
Q 959 2375 959 1747 
Q 959 1119 1226 758 
Q 1494 397 1959 397 
Q 2419 397 2687 759 
Q 2956 1122 2956 1747 
Q 2956 2369 2687 2733 
Q 2419 3097 1959 3097 
z
M 1959 3584 
Q 2709 3584 3137 3096 
Q 3566 2609 3566 1747 
Q 3566 888 3137 398 
Q 2709 -91 1959 -91 
Q 1206 -91 779 398 
Q 353 888 353 1747 
Q 353 2609 779 3096 
Q 1206 3584 1959 3584 
z
" transform="scale(0.015625)"/>
      <path id="DejaVuSans-20" transform="scale(0.015625)"/>
     </defs>
     <use xlink:href="#DejaVuSans-46"/>
     <use xlink:href="#DejaVuSans-75" x="52.019531"/>
     <use xlink:href="#DejaVuSans-6e" x="115.398438"/>
     <use xlink:href="#DejaVuSans-63" x="178.777344"/>
     <use xlink:href="#DejaVuSans-74" x="233.757812"/>
     <use xlink:href="#DejaVuSans-69" x="272.966797"/>
     <use xlink:href="#DejaVuSans-6f" x="300.75"/>
     <use xlink:href="#DejaVuSans-6e" x="361.931641"/>
     <use xlink:href="#DejaVuSans-20" x="425.310547"/>
     <use xlink:href="#DejaVuSans-31" x="457.097656"/>
    </g>
   </g>
   <g id="legend_1">
    <g id="patch_7">
     <path d="M 590.453125 170.3925 
L 737.946875 170.3925 
Q 739.946875 170.3925 739.946875 168.3925 
L 739.946875 110.68 
Q 739.946875 108.68 737.946875 108.68 
L 590.453125 108.68 
Q 588.453125 108.68 588.453125 110.68 
L 588.453125 168.3925 
Q 588.453125 170.3925 590.453125 170.3925 
z
" style="fill: #ffffff; opacity: 0.8; stroke: #cccccc; stroke-linejoin: miter"/>
    </g>
    <g id="line2d_16">
     <path d="M 592.453125 116.778437 
L 602.453125 116.778437 
L 612.453125 116.778437 
" style="fill: none; stroke: #4169e1; stroke-linecap: square"/>
    </g>
    <g id="text_13">
     <!-- Truth -->
     <g transform="translate(620.453125 120.278437) scale(0.1 -0.1)">
      <defs>
       <path id="DejaVuSans-54" d="M -19 4666 
L 3928 4666 
L 3928 4134 
L 2272 4134 
L 2272 0 
L 1638 0 
L 1638 4134 
L -19 4134 
L -19 4666 
z
" transform="scale(0.015625)"/>
       <path id="DejaVuSans-72" d="M 2631 2963 
Q 2534 3019 2420 3045 
Q 2306 3072 2169 3072 
Q 1681 3072 1420 2755 
Q 1159 2438 1159 1844 
L 1159 0 
L 581 0 
L 581 3500 
L 1159 3500 
L 1159 2956 
Q 1341 3275 1631 3429 
Q 1922 3584 2338 3584 
Q 2397 3584 2469 3576 
Q 2541 3569 2628 3553 
L 2631 2963 
z
" transform="scale(0.015625)"/>
       <path id="DejaVuSans-68" d="M 3513 2113 
L 3513 0 
L 2938 0 
L 2938 2094 
Q 2938 2591 2744 2837 
Q 2550 3084 2163 3084 
Q 1697 3084 1428 2787 
Q 1159 2491 1159 1978 
L 1159 0 
L 581 0 
L 581 4863 
L 1159 4863 
L 1159 2956 
Q 1366 3272 1645 3428 
Q 1925 3584 2291 3584 
Q 2894 3584 3203 3211 
Q 3513 2838 3513 2113 
z
" transform="scale(0.015625)"/>
      </defs>
      <use xlink:href="#DejaVuSans-54"/>
      <use xlink:href="#DejaVuSans-72" x="46.333984"/>
      <use xlink:href="#DejaVuSans-75" x="87.447266"/>
      <use xlink:href="#DejaVuSans-74" x="150.826172"/>
      <use xlink:href="#DejaVuSans-68" x="190.035156"/>
     </g>
    </g>
    <g id="line2d_17">
     <path d="M 592.453125 131.456562 
L 602.453125 131.456562 
L 612.453125 131.456562 
" style="fill: none; stroke: #ff6347; stroke-linecap: square"/>
    </g>
    <g id="text_14">
     <!-- Gossip predictions -->
     <g transform="translate(620.453125 134.956562) scale(0.1 -0.1)">
      <defs>
       <path id="DejaVuSans-47" d="M 3809 666 
L 3809 1919 
L 2778 1919 
L 2778 2438 
L 4434 2438 
L 4434 434 
Q 4069 175 3628 42 
Q 3188 -91 2688 -91 
Q 1594 -91 976 548 
Q 359 1188 359 2328 
Q 359 3472 976 4111 
Q 1594 4750 2688 4750 
Q 3144 4750 3555 4637 
Q 3966 4525 4313 4306 
L 4313 3634 
Q 3963 3931 3569 4081 
Q 3175 4231 2741 4231 
Q 1884 4231 1454 3753 
Q 1025 3275 1025 2328 
Q 1025 1384 1454 906 
Q 1884 428 2741 428 
Q 3075 428 3337 486 
Q 3600 544 3809 666 
z
" transform="scale(0.015625)"/>
       <path id="DejaVuSans-73" d="M 2834 3397 
L 2834 2853 
Q 2591 2978 2328 3040 
Q 2066 3103 1784 3103 
Q 1356 3103 1142 2972 
Q 928 2841 928 2578 
Q 928 2378 1081 2264 
Q 1234 2150 1697 2047 
L 1894 2003 
Q 2506 1872 2764 1633 
Q 3022 1394 3022 966 
Q 3022 478 2636 193 
Q 2250 -91 1575 -91 
Q 1294 -91 989 -36 
Q 684 19 347 128 
L 347 722 
Q 666 556 975 473 
Q 1284 391 1588 391 
Q 1994 391 2212 530 
Q 2431 669 2431 922 
Q 2431 1156 2273 1281 
Q 2116 1406 1581 1522 
L 1381 1569 
Q 847 1681 609 1914 
Q 372 2147 372 2553 
Q 372 3047 722 3315 
Q 1072 3584 1716 3584 
Q 2034 3584 2315 3537 
Q 2597 3491 2834 3397 
z
" transform="scale(0.015625)"/>
       <path id="DejaVuSans-70" d="M 1159 525 
L 1159 -1331 
L 581 -1331 
L 581 3500 
L 1159 3500 
L 1159 2969 
Q 1341 3281 1617 3432 
Q 1894 3584 2278 3584 
Q 2916 3584 3314 3078 
Q 3713 2572 3713 1747 
Q 3713 922 3314 415 
Q 2916 -91 2278 -91 
Q 1894 -91 1617 61 
Q 1341 213 1159 525 
z
M 3116 1747 
Q 3116 2381 2855 2742 
Q 2594 3103 2138 3103 
Q 1681 3103 1420 2742 
Q 1159 2381 1159 1747 
Q 1159 1113 1420 752 
Q 1681 391 2138 391 
Q 2594 391 2855 752 
Q 3116 1113 3116 1747 
z
" transform="scale(0.015625)"/>
       <path id="DejaVuSans-65" d="M 3597 1894 
L 3597 1613 
L 953 1613 
Q 991 1019 1311 708 
Q 1631 397 2203 397 
Q 2534 397 2845 478 
Q 3156 559 3463 722 
L 3463 178 
Q 3153 47 2828 -22 
Q 2503 -91 2169 -91 
Q 1331 -91 842 396 
Q 353 884 353 1716 
Q 353 2575 817 3079 
Q 1281 3584 2069 3584 
Q 2775 3584 3186 3129 
Q 3597 2675 3597 1894 
z
M 3022 2063 
Q 3016 2534 2758 2815 
Q 2500 3097 2075 3097 
Q 1594 3097 1305 2825 
Q 1016 2553 972 2059 
L 3022 2063 
z
" transform="scale(0.015625)"/>
       <path id="DejaVuSans-64" d="M 2906 2969 
L 2906 4863 
L 3481 4863 
L 3481 0 
L 2906 0 
L 2906 525 
Q 2725 213 2448 61 
Q 2172 -91 1784 -91 
Q 1150 -91 751 415 
Q 353 922 353 1747 
Q 353 2572 751 3078 
Q 1150 3584 1784 3584 
Q 2172 3584 2448 3432 
Q 2725 3281 2906 2969 
z
M 947 1747 
Q 947 1113 1208 752 
Q 1469 391 1925 391 
Q 2381 391 2643 752 
Q 2906 1113 2906 1747 
Q 2906 2381 2643 2742 
Q 2381 3103 1925 3103 
Q 1469 3103 1208 2742 
Q 947 2381 947 1747 
z
" transform="scale(0.015625)"/>
      </defs>
      <use xlink:href="#DejaVuSans-47"/>
      <use xlink:href="#DejaVuSans-6f" x="77.490234"/>
      <use xlink:href="#DejaVuSans-73" x="138.671875"/>
      <use xlink:href="#DejaVuSans-73" x="190.771484"/>
      <use xlink:href="#DejaVuSans-69" x="242.871094"/>
      <use xlink:href="#DejaVuSans-70" x="270.654297"/>
      <use xlink:href="#DejaVuSans-20" x="334.130859"/>
      <use xlink:href="#DejaVuSans-70" x="365.917969"/>
      <use xlink:href="#DejaVuSans-72" x="429.394531"/>
      <use xlink:href="#DejaVuSans-65" x="468.257812"/>
      <use xlink:href="#DejaVuSans-64" x="529.78125"/>
      <use xlink:href="#DejaVuSans-69" x="593.257812"/>
      <use xlink:href="#DejaVuSans-63" x="621.041016"/>
      <use xlink:href="#DejaVuSans-74" x="676.021484"/>
      <use xlink:href="#DejaVuSans-69" x="715.230469"/>
      <use xlink:href="#DejaVuSans-6f" x="743.013672"/>
      <use xlink:href="#DejaVuSans-6e" x="804.195312"/>
      <use xlink:href="#DejaVuSans-73" x="867.574219"/>
     </g>
    </g>
    <g id="line2d_18">
     <path d="M 592.453125 146.134687 
L 602.453125 146.134687 
L 612.453125 146.134687 
" style="fill: none; stroke: #da70d6; stroke-linecap: square"/>
    </g>
    <g id="text_15">
     <!-- Centralized predictions -->
     <g transform="translate(620.453125 149.634687) scale(0.1 -0.1)">
      <defs>
       <path id="DejaVuSans-43" d="M 4122 4306 
L 4122 3641 
Q 3803 3938 3442 4084 
Q 3081 4231 2675 4231 
Q 1875 4231 1450 3742 
Q 1025 3253 1025 2328 
Q 1025 1406 1450 917 
Q 1875 428 2675 428 
Q 3081 428 3442 575 
Q 3803 722 4122 1019 
L 4122 359 
Q 3791 134 3420 21 
Q 3050 -91 2638 -91 
Q 1578 -91 968 557 
Q 359 1206 359 2328 
Q 359 3453 968 4101 
Q 1578 4750 2638 4750 
Q 3056 4750 3426 4639 
Q 3797 4528 4122 4306 
z
" transform="scale(0.015625)"/>
       <path id="DejaVuSans-61" d="M 2194 1759 
Q 1497 1759 1228 1600 
Q 959 1441 959 1056 
Q 959 750 1161 570 
Q 1363 391 1709 391 
Q 2188 391 2477 730 
Q 2766 1069 2766 1631 
L 2766 1759 
L 2194 1759 
z
M 3341 1997 
L 3341 0 
L 2766 0 
L 2766 531 
Q 2569 213 2275 61 
Q 1981 -91 1556 -91 
Q 1019 -91 701 211 
Q 384 513 384 1019 
Q 384 1609 779 1909 
Q 1175 2209 1959 2209 
L 2766 2209 
L 2766 2266 
Q 2766 2663 2505 2880 
Q 2244 3097 1772 3097 
Q 1472 3097 1187 3025 
Q 903 2953 641 2809 
L 641 3341 
Q 956 3463 1253 3523 
Q 1550 3584 1831 3584 
Q 2591 3584 2966 3190 
Q 3341 2797 3341 1997 
z
" transform="scale(0.015625)"/>
       <path id="DejaVuSans-6c" d="M 603 4863 
L 1178 4863 
L 1178 0 
L 603 0 
L 603 4863 
z
" transform="scale(0.015625)"/>
       <path id="DejaVuSans-7a" d="M 353 3500 
L 3084 3500 
L 3084 2975 
L 922 459 
L 3084 459 
L 3084 0 
L 275 0 
L 275 525 
L 2438 3041 
L 353 3041 
L 353 3500 
z
" transform="scale(0.015625)"/>
      </defs>
      <use xlink:href="#DejaVuSans-43"/>
      <use xlink:href="#DejaVuSans-65" x="69.824219"/>
      <use xlink:href="#DejaVuSans-6e" x="131.347656"/>
      <use xlink:href="#DejaVuSans-74" x="194.726562"/>
      <use xlink:href="#DejaVuSans-72" x="233.935547"/>
      <use xlink:href="#DejaVuSans-61" x="275.048828"/>
      <use xlink:href="#DejaVuSans-6c" x="336.328125"/>
      <use xlink:href="#DejaVuSans-69" x="364.111328"/>
      <use xlink:href="#DejaVuSans-7a" x="391.894531"/>
      <use xlink:href="#DejaVuSans-65" x="444.384766"/>
      <use xlink:href="#DejaVuSans-64" x="505.908203"/>
      <use xlink:href="#DejaVuSans-20" x="569.384766"/>
      <use xlink:href="#DejaVuSans-70" x="601.171875"/>
      <use xlink:href="#DejaVuSans-72" x="664.648438"/>
      <use xlink:href="#DejaVuSans-65" x="703.511719"/>
      <use xlink:href="#DejaVuSans-64" x="765.035156"/>
      <use xlink:href="#DejaVuSans-69" x="828.511719"/>
      <use xlink:href="#DejaVuSans-63" x="856.294922"/>
      <use xlink:href="#DejaVuSans-74" x="911.275391"/>
      <use xlink:href="#DejaVuSans-69" x="950.484375"/>
      <use xlink:href="#DejaVuSans-6f" x="978.267578"/>
      <use xlink:href="#DejaVuSans-6e" x="1039.449219"/>
      <use xlink:href="#DejaVuSans-73" x="1102.828125"/>
     </g>
    </g>
    <g id="line2d_19">
     <path d="M 592.453125 160.812812 
L 602.453125 160.812812 
L 612.453125 160.812812 
" style="fill: none; stroke: #8fbc8f; stroke-linecap: square"/>
    </g>
    <g id="text_16">
     <!-- Single predictions -->
     <g transform="translate(620.453125 164.312812) scale(0.1 -0.1)">
      <defs>
       <path id="DejaVuSans-53" d="M 3425 4513 
L 3425 3897 
Q 3066 4069 2747 4153 
Q 2428 4238 2131 4238 
Q 1616 4238 1336 4038 
Q 1056 3838 1056 3469 
Q 1056 3159 1242 3001 
Q 1428 2844 1947 2747 
L 2328 2669 
Q 3034 2534 3370 2195 
Q 3706 1856 3706 1288 
Q 3706 609 3251 259 
Q 2797 -91 1919 -91 
Q 1588 -91 1214 -16 
Q 841 59 441 206 
L 441 856 
Q 825 641 1194 531 
Q 1563 422 1919 422 
Q 2459 422 2753 634 
Q 3047 847 3047 1241 
Q 3047 1584 2836 1778 
Q 2625 1972 2144 2069 
L 1759 2144 
Q 1053 2284 737 2584 
Q 422 2884 422 3419 
Q 422 4038 858 4394 
Q 1294 4750 2059 4750 
Q 2388 4750 2728 4690 
Q 3069 4631 3425 4513 
z
" transform="scale(0.015625)"/>
       <path id="DejaVuSans-67" d="M 2906 1791 
Q 2906 2416 2648 2759 
Q 2391 3103 1925 3103 
Q 1463 3103 1205 2759 
Q 947 2416 947 1791 
Q 947 1169 1205 825 
Q 1463 481 1925 481 
Q 2391 481 2648 825 
Q 2906 1169 2906 1791 
z
M 3481 434 
Q 3481 -459 3084 -895 
Q 2688 -1331 1869 -1331 
Q 1566 -1331 1297 -1286 
Q 1028 -1241 775 -1147 
L 775 -588 
Q 1028 -725 1275 -790 
Q 1522 -856 1778 -856 
Q 2344 -856 2625 -561 
Q 2906 -266 2906 331 
L 2906 616 
Q 2728 306 2450 153 
Q 2172 0 1784 0 
Q 1141 0 747 490 
Q 353 981 353 1791 
Q 353 2603 747 3093 
Q 1141 3584 1784 3584 
Q 2172 3584 2450 3431 
Q 2728 3278 2906 2969 
L 2906 3500 
L 3481 3500 
L 3481 434 
z
" transform="scale(0.015625)"/>
      </defs>
      <use xlink:href="#DejaVuSans-53"/>
      <use xlink:href="#DejaVuSans-69" x="63.476562"/>
      <use xlink:href="#DejaVuSans-6e" x="91.259766"/>
      <use xlink:href="#DejaVuSans-67" x="154.638672"/>
      <use xlink:href="#DejaVuSans-6c" x="218.115234"/>
      <use xlink:href="#DejaVuSans-65" x="245.898438"/>
      <use xlink:href="#DejaVuSans-20" x="307.421875"/>
      <use xlink:href="#DejaVuSans-70" x="339.208984"/>
      <use xlink:href="#DejaVuSans-72" x="402.685547"/>
      <use xlink:href="#DejaVuSans-65" x="441.548828"/>
      <use xlink:href="#DejaVuSans-64" x="503.072266"/>
      <use xlink:href="#DejaVuSans-69" x="566.548828"/>
      <use xlink:href="#DejaVuSans-63" x="594.332031"/>
      <use xlink:href="#DejaVuSans-74" x="649.3125"/>
      <use xlink:href="#DejaVuSans-69" x="688.521484"/>
      <use xlink:href="#DejaVuSans-6f" x="716.304688"/>
      <use xlink:href="#DejaVuSans-6e" x="777.486328"/>
      <use xlink:href="#DejaVuSans-73" x="840.865234"/>
     </g>
    </g>
   </g>
  </g>
 </g>
 <defs>
  <clipPath id="p276de6b42f">
   <rect x="162" y="103.68" width="1004.4" height="665.28"/>
  </clipPath>
 </defs>
</svg>
