<?xml version="1.0" encoding="utf-8" standalone="no"?>
<!DOCTYPE svg PUBLIC "-//W3C//DTD SVG 1.1//EN"
  "http://www.w3.org/Graphics/SVG/1.1/DTD/svg11.dtd">
<svg xmlns:xlink="http://www.w3.org/1999/xlink" width="1296pt" height="864pt" viewBox="0 0 1296 864" xmlns="http://www.w3.org/2000/svg" version="1.1">
 <metadata>
  <rdf:RDF xmlns:dc="http://purl.org/dc/elements/1.1/" xmlns:cc="http://creativecommons.org/ns#" xmlns:rdf="http://www.w3.org/1999/02/22-rdf-syntax-ns#">
   <cc:Work>
    <dc:type rdf:resource="http://purl.org/dc/dcmitype/StillImage"/>
    <dc:date>2023-12-10T12:57:43.690742</dc:date>
    <dc:format>image/svg+xml</dc:format>
    <dc:creator>
     <cc:Agent>
      <dc:title>Matplotlib v3.8.0, https://matplotlib.org/</dc:title>
     </cc:Agent>
    </dc:creator>
   </cc:Work>
  </rdf:RDF>
 </metadata>
 <defs>
  <style type="text/css">*{stroke-linejoin: round; stroke-linecap: butt}</style>
 </defs>
 <g id="figure_1">
  <g id="patch_1">
   <path d="M 0 864 
L 1296 864 
L 1296 0 
L 0 0 
z
" style="fill: #ffffff"/>
  </g>
  <g id="axes_1">
   <g id="patch_2">
    <path d="M 162 768.96 
L 1166.4 768.96 
L 1166.4 103.68 
L 162 103.68 
z
" style="fill: #ffffff"/>
   </g>
   <g id="matplotlib.axis_1">
    <g id="xtick_1">
     <g id="line2d_1">
      <defs>
       <path id="m75c9a9ddf7" d="M 0 0 
L 0 3.5 
" style="stroke: #000000; stroke-width: 0.8"/>
      </defs>
      <g>
       <use xlink:href="#m75c9a9ddf7" x="207.654545" y="768.96" style="stroke: #000000; stroke-width: 0.8"/>
      </g>
     </g>
     <g id="text_1">
      <!-- 0 -->
      <g transform="translate(204.473295 783.558437) scale(0.1 -0.1)">
       <defs>
        <path id="DejaVuSans-30" d="M 2034 4250 
Q 1547 4250 1301 3770 
Q 1056 3291 1056 2328 
Q 1056 1369 1301 889 
Q 1547 409 2034 409 
Q 2525 409 2770 889 
Q 3016 1369 3016 2328 
Q 3016 3291 2770 3770 
Q 2525 4250 2034 4250 
z
M 2034 4750 
Q 2819 4750 3233 4129 
Q 3647 3509 3647 2328 
Q 3647 1150 3233 529 
Q 2819 -91 2034 -91 
Q 1250 -91 836 529 
Q 422 1150 422 2328 
Q 422 3509 836 4129 
Q 1250 4750 2034 4750 
z
" transform="scale(0.015625)"/>
       </defs>
       <use xlink:href="#DejaVuSans-30"/>
      </g>
     </g>
    </g>
    <g id="xtick_2">
     <g id="line2d_2">
      <g>
       <use xlink:href="#m75c9a9ddf7" x="390.638696" y="768.96" style="stroke: #000000; stroke-width: 0.8"/>
      </g>
     </g>
     <g id="text_2">
      <!-- 100 -->
      <g transform="translate(381.094946 783.558437) scale(0.1 -0.1)">
       <defs>
        <path id="DejaVuSans-31" d="M 794 531 
L 1825 531 
L 1825 4091 
L 703 3866 
L 703 4441 
L 1819 4666 
L 2450 4666 
L 2450 531 
L 3481 531 
L 3481 0 
L 794 0 
L 794 531 
z
" transform="scale(0.015625)"/>
       </defs>
       <use xlink:href="#DejaVuSans-31"/>
       <use xlink:href="#DejaVuSans-30" x="63.623047"/>
       <use xlink:href="#DejaVuSans-30" x="127.246094"/>
      </g>
     </g>
    </g>
    <g id="xtick_3">
     <g id="line2d_3">
      <g>
       <use xlink:href="#m75c9a9ddf7" x="573.622846" y="768.96" style="stroke: #000000; stroke-width: 0.8"/>
      </g>
     </g>
     <g id="text_3">
      <!-- 200 -->
      <g transform="translate(564.079096 783.558437) scale(0.1 -0.1)">
       <defs>
        <path id="DejaVuSans-32" d="M 1228 531 
L 3431 531 
L 3431 0 
L 469 0 
L 469 531 
Q 828 903 1448 1529 
Q 2069 2156 2228 2338 
Q 2531 2678 2651 2914 
Q 2772 3150 2772 3378 
Q 2772 3750 2511 3984 
Q 2250 4219 1831 4219 
Q 1534 4219 1204 4116 
Q 875 4013 500 3803 
L 500 4441 
Q 881 4594 1212 4672 
Q 1544 4750 1819 4750 
Q 2544 4750 2975 4387 
Q 3406 4025 3406 3419 
Q 3406 3131 3298 2873 
Q 3191 2616 2906 2266 
Q 2828 2175 2409 1742 
Q 1991 1309 1228 531 
z
" transform="scale(0.015625)"/>
       </defs>
       <use xlink:href="#DejaVuSans-32"/>
       <use xlink:href="#DejaVuSans-30" x="63.623047"/>
       <use xlink:href="#DejaVuSans-30" x="127.246094"/>
      </g>
     </g>
    </g>
    <g id="xtick_4">
     <g id="line2d_4">
      <g>
       <use xlink:href="#m75c9a9ddf7" x="756.606996" y="768.96" style="stroke: #000000; stroke-width: 0.8"/>
      </g>
     </g>
     <g id="text_4">
      <!-- 300 -->
      <g transform="translate(747.063246 783.558437) scale(0.1 -0.1)">
       <defs>
        <path id="DejaVuSans-33" d="M 2597 2516 
Q 3050 2419 3304 2112 
Q 3559 1806 3559 1356 
Q 3559 666 3084 287 
Q 2609 -91 1734 -91 
Q 1441 -91 1130 -33 
Q 819 25 488 141 
L 488 750 
Q 750 597 1062 519 
Q 1375 441 1716 441 
Q 2309 441 2620 675 
Q 2931 909 2931 1356 
Q 2931 1769 2642 2001 
Q 2353 2234 1838 2234 
L 1294 2234 
L 1294 2753 
L 1863 2753 
Q 2328 2753 2575 2939 
Q 2822 3125 2822 3475 
Q 2822 3834 2567 4026 
Q 2313 4219 1838 4219 
Q 1578 4219 1281 4162 
Q 984 4106 628 3988 
L 628 4550 
Q 988 4650 1302 4700 
Q 1616 4750 1894 4750 
Q 2613 4750 3031 4423 
Q 3450 4097 3450 3541 
Q 3450 3153 3228 2886 
Q 3006 2619 2597 2516 
z
" transform="scale(0.015625)"/>
       </defs>
       <use xlink:href="#DejaVuSans-33"/>
       <use xlink:href="#DejaVuSans-30" x="63.623047"/>
       <use xlink:href="#DejaVuSans-30" x="127.246094"/>
      </g>
     </g>
    </g>
    <g id="xtick_5">
     <g id="line2d_5">
      <g>
       <use xlink:href="#m75c9a9ddf7" x="939.591146" y="768.96" style="stroke: #000000; stroke-width: 0.8"/>
      </g>
     </g>
     <g id="text_5">
      <!-- 400 -->
      <g transform="translate(930.047396 783.558437) scale(0.1 -0.1)">
       <defs>
        <path id="DejaVuSans-34" d="M 2419 4116 
L 825 1625 
L 2419 1625 
L 2419 4116 
z
M 2253 4666 
L 3047 4666 
L 3047 1625 
L 3713 1625 
L 3713 1100 
L 3047 1100 
L 3047 0 
L 2419 0 
L 2419 1100 
L 313 1100 
L 313 1709 
L 2253 4666 
z
" transform="scale(0.015625)"/>
       </defs>
       <use xlink:href="#DejaVuSans-34"/>
       <use xlink:href="#DejaVuSans-30" x="63.623047"/>
       <use xlink:href="#DejaVuSans-30" x="127.246094"/>
      </g>
     </g>
    </g>
    <g id="xtick_6">
     <g id="line2d_6">
      <g>
       <use xlink:href="#m75c9a9ddf7" x="1122.575296" y="768.96" style="stroke: #000000; stroke-width: 0.8"/>
      </g>
     </g>
     <g id="text_6">
      <!-- 500 -->
      <g transform="translate(1113.031546 783.558437) scale(0.1 -0.1)">
       <defs>
        <path id="DejaVuSans-35" d="M 691 4666 
L 3169 4666 
L 3169 4134 
L 1269 4134 
L 1269 2991 
Q 1406 3038 1543 3061 
Q 1681 3084 1819 3084 
Q 2600 3084 3056 2656 
Q 3513 2228 3513 1497 
Q 3513 744 3044 326 
Q 2575 -91 1722 -91 
Q 1428 -91 1123 -41 
Q 819 9 494 109 
L 494 744 
Q 775 591 1075 516 
Q 1375 441 1709 441 
Q 2250 441 2565 725 
Q 2881 1009 2881 1497 
Q 2881 1984 2565 2268 
Q 2250 2553 1709 2553 
Q 1456 2553 1204 2497 
Q 953 2441 691 2322 
L 691 4666 
z
" transform="scale(0.015625)"/>
       </defs>
       <use xlink:href="#DejaVuSans-35"/>
       <use xlink:href="#DejaVuSans-30" x="63.623047"/>
       <use xlink:href="#DejaVuSans-30" x="127.246094"/>
      </g>
     </g>
    </g>
   </g>
   <g id="matplotlib.axis_2">
    <g id="ytick_1">
     <g id="line2d_7">
      <defs>
       <path id="me94221641a" d="M 0 0 
L -3.5 0 
" style="stroke: #000000; stroke-width: 0.8"/>
      </defs>
      <g>
       <use xlink:href="#me94221641a" x="162" y="738.72" style="stroke: #000000; stroke-width: 0.8"/>
      </g>
     </g>
     <g id="text_7">
      <!-- 0 -->
      <g transform="translate(148.6375 742.519219) scale(0.1 -0.1)">
       <use xlink:href="#DejaVuSans-30"/>
      </g>
     </g>
    </g>
    <g id="ytick_2">
     <g id="line2d_8">
      <g>
       <use xlink:href="#me94221641a" x="162" y="634.461905" style="stroke: #000000; stroke-width: 0.8"/>
      </g>
     </g>
     <g id="text_8">
      <!-- 20 -->
      <g transform="translate(142.275 638.261123) scale(0.1 -0.1)">
       <use xlink:href="#DejaVuSans-32"/>
       <use xlink:href="#DejaVuSans-30" x="63.623047"/>
      </g>
     </g>
    </g>
    <g id="ytick_3">
     <g id="line2d_9">
      <g>
       <use xlink:href="#me94221641a" x="162" y="530.203809" style="stroke: #000000; stroke-width: 0.8"/>
      </g>
     </g>
     <g id="text_9">
      <!-- 40 -->
      <g transform="translate(142.275 534.003028) scale(0.1 -0.1)">
       <use xlink:href="#DejaVuSans-34"/>
       <use xlink:href="#DejaVuSans-30" x="63.623047"/>
      </g>
     </g>
    </g>
    <g id="ytick_4">
     <g id="line2d_10">
      <g>
       <use xlink:href="#me94221641a" x="162" y="425.945714" style="stroke: #000000; stroke-width: 0.8"/>
      </g>
     </g>
     <g id="text_10">
      <!-- 60 -->
      <g transform="translate(142.275 429.744933) scale(0.1 -0.1)">
       <defs>
        <path id="DejaVuSans-36" d="M 2113 2584 
Q 1688 2584 1439 2293 
Q 1191 2003 1191 1497 
Q 1191 994 1439 701 
Q 1688 409 2113 409 
Q 2538 409 2786 701 
Q 3034 994 3034 1497 
Q 3034 2003 2786 2293 
Q 2538 2584 2113 2584 
z
M 3366 4563 
L 3366 3988 
Q 3128 4100 2886 4159 
Q 2644 4219 2406 4219 
Q 1781 4219 1451 3797 
Q 1122 3375 1075 2522 
Q 1259 2794 1537 2939 
Q 1816 3084 2150 3084 
Q 2853 3084 3261 2657 
Q 3669 2231 3669 1497 
Q 3669 778 3244 343 
Q 2819 -91 2113 -91 
Q 1303 -91 875 529 
Q 447 1150 447 2328 
Q 447 3434 972 4092 
Q 1497 4750 2381 4750 
Q 2619 4750 2861 4703 
Q 3103 4656 3366 4563 
z
" transform="scale(0.015625)"/>
       </defs>
       <use xlink:href="#DejaVuSans-36"/>
       <use xlink:href="#DejaVuSans-30" x="63.623047"/>
      </g>
     </g>
    </g>
    <g id="ytick_5">
     <g id="line2d_11">
      <g>
       <use xlink:href="#me94221641a" x="162" y="321.687619" style="stroke: #000000; stroke-width: 0.8"/>
      </g>
     </g>
     <g id="text_11">
      <!-- 80 -->
      <g transform="translate(142.275 325.486838) scale(0.1 -0.1)">
       <defs>
        <path id="DejaVuSans-38" d="M 2034 2216 
Q 1584 2216 1326 1975 
Q 1069 1734 1069 1313 
Q 1069 891 1326 650 
Q 1584 409 2034 409 
Q 2484 409 2743 651 
Q 3003 894 3003 1313 
Q 3003 1734 2745 1975 
Q 2488 2216 2034 2216 
z
M 1403 2484 
Q 997 2584 770 2862 
Q 544 3141 544 3541 
Q 544 4100 942 4425 
Q 1341 4750 2034 4750 
Q 2731 4750 3128 4425 
Q 3525 4100 3525 3541 
Q 3525 3141 3298 2862 
Q 3072 2584 2669 2484 
Q 3125 2378 3379 2068 
Q 3634 1759 3634 1313 
Q 3634 634 3220 271 
Q 2806 -91 2034 -91 
Q 1263 -91 848 271 
Q 434 634 434 1313 
Q 434 1759 690 2068 
Q 947 2378 1403 2484 
z
M 1172 3481 
Q 1172 3119 1398 2916 
Q 1625 2713 2034 2713 
Q 2441 2713 2670 2916 
Q 2900 3119 2900 3481 
Q 2900 3844 2670 4047 
Q 2441 4250 2034 4250 
Q 1625 4250 1398 4047 
Q 1172 3844 1172 3481 
z
" transform="scale(0.015625)"/>
       </defs>
       <use xlink:href="#DejaVuSans-38"/>
       <use xlink:href="#DejaVuSans-30" x="63.623047"/>
      </g>
     </g>
    </g>
    <g id="ytick_6">
     <g id="line2d_12">
      <g>
       <use xlink:href="#me94221641a" x="162" y="217.429524" style="stroke: #000000; stroke-width: 0.8"/>
      </g>
     </g>
     <g id="text_12">
      <!-- 100 -->
      <g transform="translate(135.9125 221.228742) scale(0.1 -0.1)">
       <use xlink:href="#DejaVuSans-31"/>
       <use xlink:href="#DejaVuSans-30" x="63.623047"/>
       <use xlink:href="#DejaVuSans-30" x="127.246094"/>
      </g>
     </g>
    </g>
    <g id="ytick_7">
     <g id="line2d_13">
      <g>
       <use xlink:href="#me94221641a" x="162" y="113.171428" style="stroke: #000000; stroke-width: 0.8"/>
      </g>
     </g>
     <g id="text_13">
      <!-- 120 -->
      <g transform="translate(135.9125 116.970647) scale(0.1 -0.1)">
       <use xlink:href="#DejaVuSans-31"/>
       <use xlink:href="#DejaVuSans-32" x="63.623047"/>
       <use xlink:href="#DejaVuSans-30" x="127.246094"/>
      </g>
     </g>
    </g>
   </g>
   <g id="line2d_14">
    <path d="M 207.654545 603.184476 
L 209.484387 316.474714 
L 211.314228 441.584428 
L 213.14407 509.35219 
L 214.973911 165.300476 
L 216.803753 175.726286 
L 218.633594 207.003714 
L 220.463436 269.558571 
L 222.293277 165.300476 
L 225.95296 279.984381 
L 227.782802 326.900524 
L 229.612643 170.513381 
L 231.442485 326.900524 
L 233.272326 207.003714 
L 235.102168 332.113428 
L 236.932009 165.300476 
L 238.761851 253.919857 
L 240.591692 394.668286 
L 242.421534 462.436048 
L 244.251375 165.300476 
L 246.081217 165.300476 
L 247.911058 306.048905 
L 249.7409 431.158619 
L 251.570741 410.307 
L 253.400583 264.345667 
L 255.230424 410.307 
L 257.060266 467.648952 
L 258.890107 618.82319 
L 260.719949 462.436048 
L 262.54979 524.990905 
L 264.379632 618.82319 
L 266.209473 566.694143 
L 268.039315 269.558571 
L 269.869156 410.307 
L 271.698998 592.758667 
L 273.528839 686.590952 
L 275.358681 712.655476 
L 277.188522 670.952238 
L 279.018364 608.397381 
L 280.848206 660.526429 
L 282.678047 519.778 
L 284.507889 269.558571 
L 286.33773 629.249 
L 288.167572 587.545762 
L 289.997413 676.165143 
L 291.827255 571.907048 
L 293.657096 702.229667 
L 295.486938 561.481238 
L 297.316779 644.887714 
L 299.146621 644.887714 
L 300.976462 483.287667 
L 302.806304 530.203809 
L 304.636145 603.184476 
L 306.465987 551.055429 
L 308.295828 634.461905 
L 310.12567 431.158619 
L 311.955511 597.971571 
L 313.785353 551.055429 
L 315.615194 597.971571 
L 317.445036 509.35219 
L 319.274877 483.287667 
L 321.104719 462.436048 
L 322.93456 405.094095 
L 324.764402 337.326333 
L 326.594243 337.326333 
L 328.424085 650.100619 
L 330.253926 603.184476 
L 332.083768 561.481238 
L 333.913609 462.436048 
L 335.743451 498.926381 
L 337.573292 603.184476 
L 339.403134 587.545762 
L 341.232975 691.803857 
L 343.062817 551.055429 
L 344.892658 665.739333 
L 346.7225 728.29419 
L 348.552341 639.674809 
L 350.382183 650.100619 
L 352.212024 629.249 
L 354.041866 603.184476 
L 355.871707 597.971571 
L 357.701549 462.436048 
L 359.53139 373.816667 
L 361.361232 264.345667 
L 363.191073 467.648952 
L 365.020915 530.203809 
L 366.850756 540.629619 
L 368.680598 436.371524 
L 370.510439 295.623095 
L 372.340281 165.300476 
L 374.170122 285.197286 
L 375.999964 253.919857 
L 377.829805 431.158619 
L 379.659647 170.513381 
L 381.489488 431.158619 
L 383.31933 514.565095 
L 385.149171 420.732809 
L 386.979013 379.029571 
L 388.808854 196.577905 
L 390.638696 321.687619 
L 392.468537 420.732809 
L 394.298379 441.584428 
L 396.12822 566.694143 
L 397.958062 295.623095 
L 399.787903 405.094095 
L 401.617745 165.300476 
L 403.447586 227.855333 
L 405.277428 300.836 
L 407.107269 279.984381 
L 408.937111 300.836 
L 410.766952 165.300476 
L 414.426635 165.300476 
L 416.256477 332.113428 
L 418.086318 165.300476 
L 419.91616 165.300476 
L 421.746001 222.642428 
L 423.575843 165.300476 
L 425.405684 207.003714 
L 427.235526 493.713476 
L 429.065367 207.003714 
L 430.895209 165.300476 
L 432.72505 415.519905 
L 434.554892 165.300476 
L 436.384733 389.455381 
L 438.214575 504.139286 
L 440.044416 524.990905 
L 441.874258 478.074762 
L 443.704099 613.610286 
L 445.533941 540.629619 
L 447.363782 561.481238 
L 449.193624 660.526429 
L 451.023465 624.036095 
L 452.853307 577.119952 
L 454.683148 618.82319 
L 456.51299 665.739333 
L 458.342831 597.971571 
L 460.172673 488.500571 
L 462.002514 545.842524 
L 463.832356 519.778 
L 465.662197 551.055429 
L 467.492039 514.565095 
L 469.32188 264.345667 
L 471.151722 410.307 
L 472.981563 196.577905 
L 474.811405 253.919857 
L 476.641246 457.223143 
L 478.471088 243.494047 
L 480.300929 342.539238 
L 482.130771 342.539238 
L 483.960612 165.300476 
L 485.790454 165.300476 
L 487.620295 243.494047 
L 489.450137 165.300476 
L 505.91871 165.300476 
L 507.748552 186.152095 
L 509.578393 165.300476 
L 511.408235 165.300476 
L 513.238076 368.603762 
L 515.067918 165.300476 
L 516.897759 180.93919 
L 518.727601 285.197286 
L 520.557442 165.300476 
L 522.387284 352.965048 
L 524.217125 436.371524 
L 527.876808 457.223143 
L 529.70665 519.778 
L 531.536491 551.055429 
L 533.366333 655.313524 
L 535.196174 660.526429 
L 537.026016 493.713476 
L 538.855857 274.771476 
L 540.685699 540.629619 
L 542.51554 478.074762 
L 544.345382 587.545762 
L 546.175223 613.610286 
L 548.005065 519.778 
L 549.834906 556.268333 
L 551.664748 587.545762 
L 553.494589 738.72 
L 555.324431 545.842524 
L 557.154272 608.397381 
L 558.984114 629.249 
L 560.813955 524.990905 
L 562.643797 571.907048 
L 564.473638 436.371524 
L 566.30348 248.706952 
L 568.133321 566.694143 
L 569.963163 644.887714 
L 571.793004 608.397381 
L 573.622846 222.642428 
L 575.452687 556.268333 
L 577.282529 472.861857 
L 579.11237 352.965048 
L 580.942212 165.300476 
L 582.772053 446.797333 
L 584.601895 415.519905 
L 586.431736 561.481238 
L 588.261578 509.35219 
L 590.091419 285.197286 
L 591.921261 222.642428 
L 593.751102 259.132762 
L 595.580944 352.965048 
L 597.410785 478.074762 
L 601.070468 634.461905 
L 602.90031 634.461905 
L 604.730151 571.907048 
L 606.559993 478.074762 
L 608.389834 571.907048 
L 610.219676 597.971571 
L 612.049517 279.984381 
L 613.879359 551.055429 
L 615.7092 347.752143 
L 617.539042 535.416714 
L 619.368883 582.332857 
L 621.198725 478.074762 
L 623.028566 431.158619 
L 624.858408 394.668286 
L 626.688249 545.842524 
L 628.518091 629.249 
L 630.347932 577.119952 
L 632.177774 519.778 
L 634.007615 545.842524 
L 635.837457 618.82319 
L 637.667298 566.694143 
L 639.49714 389.455381 
L 641.326981 566.694143 
L 643.156823 483.287667 
L 644.986664 498.926381 
L 646.816506 238.281143 
L 648.646347 347.752143 
L 650.476189 248.706952 
L 652.30603 165.300476 
L 654.135872 441.584428 
L 655.965713 165.300476 
L 683.413336 165.300476 
L 685.243177 207.003714 
L 687.073019 165.300476 
L 694.392385 165.300476 
L 696.222226 342.539238 
L 698.052068 410.307 
L 699.881909 217.429524 
L 701.711751 436.371524 
L 703.541592 509.35219 
L 705.371434 306.048905 
L 707.201275 316.474714 
L 709.031117 650.100619 
L 712.6908 587.545762 
L 714.520641 613.610286 
L 716.350483 587.545762 
L 718.180324 697.016762 
L 720.010166 530.203809 
L 721.840007 504.139286 
L 723.669849 665.739333 
L 725.49969 650.100619 
L 727.329532 655.313524 
L 729.159373 597.971571 
L 730.989215 441.584428 
L 732.819056 603.184476 
L 734.648898 478.074762 
L 736.478739 535.416714 
L 738.308581 561.481238 
L 740.138422 535.416714 
L 741.968264 561.481238 
L 743.798105 566.694143 
L 745.627947 582.332857 
L 747.457788 691.803857 
L 749.28763 561.481238 
L 751.117471 571.907048 
L 752.947313 337.326333 
L 754.777154 571.907048 
L 756.606996 498.926381 
L 758.436837 478.074762 
L 760.266679 452.010238 
L 762.09652 441.584428 
L 763.926362 608.397381 
L 765.756203 603.184476 
L 767.586045 561.481238 
L 769.415886 634.461905 
L 771.245728 384.242476 
L 773.075569 519.778 
L 774.905411 597.971571 
L 776.735252 577.119952 
L 778.565094 577.119952 
L 780.394935 676.165143 
L 782.224777 498.926381 
L 784.054618 660.526429 
L 785.88446 582.332857 
L 787.714301 571.907048 
L 789.544143 571.907048 
L 791.373984 660.526429 
L 793.203826 629.249 
L 795.033667 665.739333 
L 796.863509 644.887714 
L 798.69335 519.778 
L 800.523192 561.481238 
L 802.353033 665.739333 
L 804.182875 650.100619 
L 806.012716 697.016762 
L 807.842558 577.119952 
L 809.672399 514.565095 
L 811.502241 639.674809 
L 813.332082 697.016762 
L 815.161924 639.674809 
L 816.991765 707.442571 
L 818.821607 691.803857 
L 820.651448 650.100619 
L 822.48129 634.461905 
L 824.311131 681.378048 
L 826.140973 712.655476 
L 827.970814 665.739333 
L 829.800656 712.655476 
L 831.630497 660.526429 
L 833.460339 665.739333 
L 835.29018 420.732809 
L 837.120022 452.010238 
L 838.949863 733.507095 
L 840.779705 660.526429 
L 846.269229 723.081286 
L 848.099071 738.72 
L 849.928912 670.952238 
L 853.588595 681.378048 
L 855.418437 738.72 
L 857.248278 723.081286 
L 859.07812 738.72 
L 860.907961 738.72 
L 862.737803 686.590952 
L 864.567644 723.081286 
L 866.397486 665.739333 
L 868.227327 707.442571 
L 870.057169 712.655476 
L 871.88701 681.378048 
L 873.716852 702.229667 
L 875.546693 634.461905 
L 877.376535 577.119952 
L 879.206376 530.203809 
L 881.036218 571.907048 
L 882.866059 431.158619 
L 884.695901 545.842524 
L 886.525742 379.029571 
L 888.355584 514.565095 
L 890.185425 368.603762 
L 892.015267 248.706952 
L 893.845108 248.706952 
L 895.67495 180.93919 
L 897.504791 410.307 
L 899.334633 457.223143 
L 901.164474 165.300476 
L 902.994316 363.390857 
L 904.824157 279.984381 
L 906.653999 165.300476 
L 908.48384 368.603762 
L 910.313682 352.965048 
L 912.143523 165.300476 
L 913.973365 561.481238 
L 915.803206 264.345667 
L 917.633048 524.990905 
L 919.462889 472.861857 
L 921.292731 446.797333 
L 923.122572 415.519905 
L 924.952414 483.287667 
L 926.782255 316.474714 
L 928.612097 358.177952 
L 930.441938 342.539238 
L 932.27178 201.790809 
L 934.101621 368.603762 
L 935.931463 352.965048 
L 937.761304 238.281143 
L 939.591146 259.132762 
L 941.420987 446.797333 
L 943.250829 670.952238 
L 945.08067 285.197286 
L 946.910512 306.048905 
L 948.740353 597.971571 
L 950.570195 483.287667 
L 952.400036 452.010238 
L 954.229878 165.300476 
L 956.059719 217.429524 
L 957.889561 504.139286 
L 959.719402 540.629619 
L 961.549244 524.990905 
L 963.379085 467.648952 
L 965.208927 545.842524 
L 967.038768 702.229667 
L 968.86861 295.623095 
L 970.698451 290.41019 
L 972.528293 290.41019 
L 974.358134 326.900524 
L 976.187976 624.036095 
L 978.017817 738.72 
L 979.847659 618.82319 
L 981.6775 676.165143 
L 983.507342 697.016762 
L 985.337183 613.610286 
L 987.167025 509.35219 
L 988.996866 681.378048 
L 990.826708 644.887714 
L 992.656549 681.378048 
L 994.486391 676.165143 
L 996.316232 644.887714 
L 998.146074 634.461905 
L 999.975915 676.165143 
L 1001.805757 608.397381 
L 1003.635598 738.72 
L 1005.46544 686.590952 
L 1007.295281 681.378048 
L 1009.125123 738.72 
L 1010.954964 728.29419 
L 1012.784806 691.803857 
L 1014.614647 681.378048 
L 1016.444489 717.868381 
L 1018.27433 660.526429 
L 1020.104172 676.165143 
L 1021.934013 655.313524 
L 1023.763855 738.72 
L 1025.593696 577.119952 
L 1027.423538 597.971571 
L 1029.253379 697.016762 
L 1031.083221 717.868381 
L 1032.913062 665.739333 
L 1034.742904 665.739333 
L 1036.572745 717.868381 
L 1038.402587 738.72 
L 1040.232428 702.229667 
L 1042.06227 712.655476 
L 1043.892111 717.868381 
L 1045.721953 660.526429 
L 1047.551794 707.442571 
L 1049.381636 717.868381 
L 1051.211478 618.82319 
L 1053.041319 691.803857 
L 1054.871161 571.907048 
L 1056.701002 498.926381 
L 1058.530844 467.648952 
L 1060.360685 405.094095 
L 1062.190527 452.010238 
L 1064.020368 399.88119 
L 1065.85021 295.623095 
L 1067.680051 478.074762 
L 1069.509893 316.474714 
L 1071.339734 358.177952 
L 1073.169576 332.113428 
L 1074.999417 478.074762 
L 1076.829259 457.223143 
L 1078.6591 368.603762 
L 1080.488942 504.139286 
L 1082.318783 165.300476 
L 1084.148625 566.694143 
L 1085.978466 530.203809 
L 1087.808308 472.861857 
L 1089.638149 165.300476 
L 1091.467991 373.816667 
L 1093.297832 561.481238 
L 1095.127674 478.074762 
L 1096.957515 504.139286 
L 1098.787357 300.836 
L 1100.617198 441.584428 
L 1102.44704 415.519905 
L 1104.276881 373.816667 
L 1106.106723 248.706952 
L 1107.936564 483.287667 
L 1109.766406 368.603762 
L 1111.596247 264.345667 
L 1113.426089 368.603762 
L 1115.25593 212.216619 
L 1117.085772 394.668286 
L 1118.915613 379.029571 
L 1120.745455 384.242476 
L 1120.745455 384.242476 
" clip-path="url(#p058c9e6ddb)" style="fill: none; stroke: #4169e1; stroke-linecap: square"/>
   </g>
   <g id="line2d_15">
    <path d="M 207.654545 345.034092 
L 209.484387 438.638826 
L 211.314228 402.787081 
L 213.14407 391.310076 
L 214.973911 419.836682 
L 216.803753 300.998585 
L 218.633594 272.481046 
L 220.463436 257.618668 
L 222.293277 260.509963 
L 224.123119 243.871517 
L 225.95296 255.04976 
L 227.782802 274.768175 
L 229.612643 269.926376 
L 231.442485 218.825576 
L 233.272326 274.404506 
L 235.102168 250.614543 
L 236.932009 294.425382 
L 238.761851 257.240523 
L 240.591692 261.437509 
L 242.421534 324.244556 
L 244.251375 345.217358 
L 246.081217 293.182012 
L 247.911058 257.689541 
L 249.7409 294.409354 
L 251.570741 318.090185 
L 253.400583 361.505975 
L 255.230424 346.164949 
L 257.060266 376.297283 
L 258.890107 408.783083 
L 260.719949 480.620006 
L 262.54979 468.447063 
L 264.379632 484.498285 
L 266.209473 527.771257 
L 268.039315 516.074794 
L 269.869156 464.826303 
L 271.698998 467.187983 
L 273.528839 489.135302 
L 275.358681 538.784529 
L 277.188522 610.063232 
L 279.018364 628.913579 
L 280.848206 625.00914 
L 282.678047 625.053932 
L 284.507889 583.169059 
L 286.33773 498.519779 
L 288.167572 560.041358 
L 289.997413 539.215252 
L 291.827255 580.386678 
L 293.657096 587.136177 
L 295.486938 621.28224 
L 297.316779 604.72123 
L 299.146621 604.467151 
L 300.976462 606.812663 
L 302.806304 567.766695 
L 304.636145 557.212981 
L 306.465987 560.352349 
L 308.295828 546.022032 
L 310.12567 575.660077 
L 311.955511 530.527627 
L 313.785353 561.410902 
L 315.615194 549.693977 
L 317.445036 563.337882 
L 319.274877 562.33473 
L 321.104719 535.523242 
L 322.93456 513.253378 
L 324.764402 471.247043 
L 326.594243 434.538325 
L 328.424085 413.413915 
L 330.253926 558.619076 
L 332.083768 576.672654 
L 333.913609 580.953359 
L 335.743451 553.937973 
L 337.573292 515.921873 
L 339.403134 547.42743 
L 341.232975 553.953862 
L 343.062817 611.608924 
L 344.892658 582.331724 
L 346.7225 587.419637 
L 348.552341 628.731018 
L 350.382183 595.164165 
L 352.212024 584.983565 
L 354.041866 556.591933 
L 355.871707 532.229899 
L 357.701549 520.022633 
L 361.361232 404.225649 
L 363.191073 325.546311 
L 365.020915 329.435626 
L 366.850756 360.957489 
L 368.680598 388.49562 
L 370.510439 387.820064 
L 372.340281 334.94777 
L 374.170122 266.320312 
L 375.999964 289.082266 
L 377.829805 293.185313 
L 379.659647 350.135438 
L 381.489488 287.570519 
L 383.31933 359.545568 
L 385.149171 419.169499 
L 386.979013 400.972833 
L 388.808854 399.303433 
L 390.638696 325.38814 
L 392.468537 312.753432 
L 394.298379 331.237505 
L 396.12822 345.403806 
L 397.958062 409.583977 
L 399.787903 355.046558 
L 401.617745 365.60759 
L 403.447586 287.637733 
L 405.277428 236.014695 
L 407.107269 277.016169 
L 408.937111 247.726311 
L 410.766952 287.837345 
L 412.596794 250.924163 
L 414.426635 231.861497 
L 416.256477 210.978021 
L 418.086318 251.800842 
L 419.91616 222.97953 
L 421.746001 225.316731 
L 423.575843 246.08312 
L 425.405684 205.638445 
L 427.235526 234.271479 
L 429.065367 333.127875 
L 430.895209 290.380362 
L 432.72505 262.007193 
L 434.554892 356.176421 
L 436.384733 277.581756 
L 438.214575 335.47828 
L 440.044416 406.319728 
L 441.874258 446.327057 
L 443.704099 466.82853 
L 445.533941 522.339292 
L 447.363782 517.022346 
L 449.193624 523.866073 
L 451.023465 574.269185 
L 452.853307 579.242388 
L 454.683148 580.610511 
L 456.51299 581.609159 
L 458.342831 587.388307 
L 460.172673 577.132073 
L 462.002514 543.698294 
L 463.832356 528.076641 
L 465.662197 491.815192 
L 467.492039 486.91654 
L 469.32188 471.596672 
L 471.151722 395.491949 
L 472.981563 393.837264 
L 474.811405 280.483511 
L 476.641246 239.83811 
L 478.471088 329.237247 
L 480.300929 251.546186 
L 483.960612 306.60789 
L 485.790454 229.340155 
L 487.620295 212.129758 
L 489.450137 226.937292 
L 491.279978 197.722404 
L 493.10982 213.406974 
L 494.939661 205.945718 
L 496.769503 193.022429 
L 498.599344 188.990891 
L 500.429186 197.502985 
L 502.259027 203.318107 
L 504.088869 206.88973 
L 505.91871 211.392796 
L 507.748552 205.861084 
L 509.578393 209.456013 
L 511.408235 211.948242 
L 513.238076 216.401674 
L 515.067918 329.601433 
L 516.897759 269.742633 
L 518.727601 262.676425 
L 520.557442 321.955558 
L 522.387284 236.395346 
L 524.217125 343.912104 
L 526.046967 425.51871 
L 527.876808 458.115432 
L 529.70665 481.421617 
L 531.536491 507.542735 
L 533.366333 518.884498 
L 535.196174 548.920047 
L 537.026016 569.864075 
L 538.855857 533.556332 
L 540.685699 451.383104 
L 542.51554 486.138215 
L 544.345382 475.87338 
L 546.175223 496.798099 
L 548.005065 530.758321 
L 549.834906 502.857596 
L 551.664748 526.154673 
L 553.494589 535.506399 
L 555.324431 613.572573 
L 557.154272 578.270904 
L 558.984114 564.555998 
L 560.813955 576.714951 
L 562.643797 535.85402 
L 564.473638 540.953258 
L 566.30348 507.891191 
L 568.133321 430.293533 
L 569.963163 491.286452 
L 571.793004 529.858435 
L 573.622846 521.059451 
L 575.452687 436.776933 
L 577.282529 494.586516 
L 579.11237 464.596166 
L 580.942212 398.645456 
L 582.772053 298.43787 
L 584.601895 310.142963 
L 586.431736 354.881547 
L 588.261578 421.311204 
L 590.091419 448.69524 
L 593.751102 318.054033 
L 597.410785 292.253272 
L 599.240627 347.294892 
L 602.90031 501.865998 
L 604.730151 549.263711 
L 606.559993 547.915384 
L 608.389834 511.675571 
L 610.219676 518.449599 
L 612.049517 521.834236 
L 613.879359 440.878269 
L 615.7092 475.694191 
L 617.539042 424.553798 
L 619.368883 438.084394 
L 621.198725 495.999352 
L 623.028566 467.625825 
L 624.858408 470.783588 
L 626.688249 444.112492 
L 628.518091 462.789813 
L 630.347932 511.575705 
L 632.177774 531.404326 
L 634.007615 531.357734 
L 635.837457 525.387305 
L 637.667298 548.809145 
L 639.49714 540.486303 
L 641.326981 475.147733 
L 643.156823 497.982946 
L 644.986664 453.869686 
L 646.816506 459.622844 
L 648.646347 354.711644 
L 650.476189 322.908439 
L 652.30603 260.33306 
L 654.135872 201.869079 
L 655.965713 297.12132 
L 657.795555 203.19943 
L 659.625396 190.851194 
L 661.455238 196.529781 
L 663.285079 174.965222 
L 665.114921 177.034443 
L 666.944762 180.809615 
L 668.774604 191.467848 
L 670.604445 188.873566 
L 674.264128 181.241293 
L 676.09397 188.675187 
L 677.923811 193.34919 
L 679.753653 196.085019 
L 681.583494 200.125744 
L 683.413336 195.768559 
L 685.243177 194.210478 
L 687.073019 217.854679 
L 688.90286 208.602123 
L 690.732702 224.626977 
L 692.562543 227.610581 
L 694.392385 225.114931 
L 696.222226 229.362666 
L 698.052068 286.814626 
L 699.881909 386.817111 
L 701.711751 349.966132 
L 703.541592 439.083589 
L 705.371434 501.623512 
L 707.201275 445.227977 
L 709.031117 434.122158 
L 710.860958 551.701454 
L 712.6908 542.732209 
L 714.520641 547.481002 
L 716.350483 568.776191 
L 718.180324 553.40122 
L 720.010166 590.250002 
L 721.840007 542.175629 
L 723.669849 531.240787 
L 725.49969 568.916921 
L 727.329532 572.760092 
L 729.159373 593.181704 
L 730.989215 585.4314 
L 732.819056 538.50259 
L 734.648898 559.47223 
L 736.478739 526.821916 
L 738.308581 533.81582 
L 740.138422 542.529634 
L 741.968264 534.848203 
L 743.798105 541.156469 
L 745.627947 540.882425 
L 747.457788 544.57185 
L 749.28763 588.024668 
L 751.117471 556.653518 
L 752.947313 556.745151 
L 754.777154 466.382157 
L 756.606996 509.964112 
L 758.436837 449.563487 
L 760.266679 401.864625 
L 762.09652 435.860204 
L 763.926362 424.932302 
L 765.756203 488.259657 
L 767.586045 504.821145 
L 769.415886 509.265012 
L 771.245728 552.744695 
L 773.075569 477.716025 
L 774.905411 476.947345 
L 776.735252 503.235463 
L 778.565094 500.108782 
L 780.394935 526.983905 
L 782.224777 574.764914 
L 784.054618 526.455185 
L 785.88446 568.565482 
L 787.714301 562.136987 
L 789.544143 539.670116 
L 791.373984 548.312421 
L 793.203826 563.281029 
L 795.033667 570.332859 
L 796.863509 588.96511 
L 798.69335 599.760196 
L 800.523192 564.010176 
L 802.353033 558.241269 
L 804.182875 578.696527 
L 806.012716 584.437366 
L 807.842558 615.697315 
L 809.672399 619.438463 
L 811.502241 612.762123 
L 813.332082 630.352902 
L 815.161924 634.456038 
L 816.991765 634.675149 
L 818.821607 652.307628 
L 820.651448 652.527395 
L 822.48129 649.898273 
L 824.311131 653.266286 
L 826.140973 659.225584 
L 827.970814 677.407847 
L 829.800656 677.097422 
L 831.630497 684.072981 
L 833.460339 687.194328 
L 835.29018 681.764655 
L 838.949863 564.77476 
L 840.779705 652.674181 
L 842.609546 645.054674 
L 844.439388 651.240485 
L 846.269229 684.186136 
L 848.099071 685.847671 
L 849.928912 701.166485 
L 851.758754 695.79635 
L 853.588595 686.799051 
L 855.418437 684.312857 
L 857.248278 687.905474 
L 859.07812 696.353347 
L 860.907961 710.910649 
L 862.737803 726.555722 
L 864.567644 678.756457 
L 866.397486 680.385654 
L 868.227327 651.77696 
L 870.057169 666.86849 
L 871.88701 679.069303 
L 873.716852 648.417398 
L 875.546693 630.164794 
L 877.376535 590.615649 
L 879.206376 527.636989 
L 881.036218 449.716328 
L 884.695901 378.36372 
L 886.525742 389.526333 
L 888.355584 349.956348 
L 890.185425 349.188205 
L 892.015267 314.366716 
L 893.845108 276.047499 
L 895.67495 262.035192 
L 897.504791 238.577439 
L 899.334633 281.791748 
L 901.164474 308.101542 
L 902.994316 274.848871 
L 904.824157 317.464105 
L 906.653999 307.206091 
L 908.48384 261.126656 
L 910.313682 313.4651 
L 912.143523 319.786511 
L 913.973365 282.425225 
L 915.803206 371.044129 
L 917.633048 319.907177 
L 919.462889 356.569481 
L 921.292731 361.303023 
L 923.122572 347.01518 
L 924.952414 344.736603 
L 926.782255 354.001249 
L 928.612097 323.078978 
L 930.441938 324.229761 
L 932.27178 307.716834 
L 934.101621 238.451921 
L 935.931463 328.215761 
L 937.761304 334.366592 
L 939.591146 310.985478 
L 941.420987 315.704066 
L 943.250829 371.504403 
L 945.08067 505.061364 
L 946.910512 422.406784 
L 948.740353 413.312617 
L 950.570195 486.767954 
L 952.400036 440.120307 
L 954.229878 455.721796 
L 956.059719 389.680685 
L 957.889561 347.33526 
L 959.719402 427.413096 
L 961.549244 480.674155 
L 963.379085 511.700626 
L 967.038768 523.323612 
L 968.86861 581.97582 
L 970.698451 502.860618 
L 972.528293 484.897112 
L 974.358134 478.833996 
L 976.187976 413.793492 
L 978.017817 512.354069 
L 979.847659 622.402896 
L 981.6775 637.347482 
L 983.507342 644.217836 
L 985.337183 648.891104 
L 988.996866 613.526159 
L 990.826708 633.508954 
L 992.656549 621.593033 
L 994.486391 632.900314 
L 996.316232 639.591051 
L 998.146074 641.916171 
L 999.975915 641.666278 
L 1001.805757 645.088559 
L 1003.635598 636.832394 
L 1005.46544 665.808953 
L 1007.295281 672.458268 
L 1009.125123 666.11124 
L 1010.954964 689.108441 
L 1012.784806 687.061984 
L 1014.614647 683.437331 
L 1016.444489 682.221562 
L 1018.27433 678.676055 
L 1020.104172 661.463803 
L 1021.934013 662.566796 
L 1023.763855 661.307283 
L 1025.593696 670.72671 
L 1027.423538 647.046769 
L 1029.253379 626.671392 
L 1031.083221 650.389965 
L 1032.913062 665.719527 
L 1034.742904 668.432348 
L 1036.572745 673.699739 
L 1038.402587 675.398079 
L 1040.232428 673.577696 
L 1042.06227 674.929369 
L 1043.892111 684.564236 
L 1045.721953 685.595596 
L 1047.551794 663.296261 
L 1049.381636 660.605618 
L 1051.211478 651.312242 
L 1053.041319 598.171452 
L 1054.871161 611.562829 
L 1056.701002 535.378275 
L 1058.530844 472.093018 
L 1060.360685 417.70148 
L 1062.190527 385.14441 
L 1064.020368 371.110388 
L 1065.85021 346.280565 
L 1067.680051 306.485991 
L 1069.509893 329.51855 
L 1071.339734 308.391395 
L 1073.169576 310.233801 
L 1074.999417 310.84437 
L 1076.829259 329.098405 
L 1078.6591 371.467614 
L 1080.488942 370.066391 
L 1082.318783 408.966607 
L 1084.148625 307.60102 
L 1085.978466 404.696183 
L 1087.808308 436.333522 
L 1089.638149 406.071217 
L 1091.467991 333.438569 
L 1093.297832 355.352758 
L 1095.127674 388.309927 
L 1096.957515 370.868221 
L 1098.787357 390.129147 
L 1100.617198 345.881181 
L 1102.44704 360.676624 
L 1104.276881 357.272638 
L 1106.106723 343.336573 
L 1107.936564 301.998674 
L 1109.766406 356.737356 
L 1111.596247 383.987462 
L 1113.426089 316.273432 
L 1115.25593 363.443196 
L 1117.085772 307.408686 
L 1118.915613 352.668314 
L 1120.745455 374.630905 
L 1120.745455 374.630905 
" clip-path="url(#p058c9e6ddb)" style="fill: none; stroke: #ff6347; stroke-linecap: square"/>
   </g>
   <g id="line2d_16">
    <path d="M 207.654545 317.596862 
L 209.484387 408.773418 
L 211.314228 387.101794 
L 213.14407 406.25492 
L 214.973911 403.699634 
L 216.803753 276.666221 
L 218.633594 218.53966 
L 220.463436 220.623001 
L 222.293277 241.937916 
L 224.123119 193.86236 
L 225.95296 227.864918 
L 227.782802 237.569753 
L 229.612643 251.871515 
L 231.442485 226.096686 
L 233.272326 263.651697 
L 235.102168 217.058457 
L 236.932009 248.161807 
L 238.761851 227.188965 
L 240.591692 230.978216 
L 242.421534 276.806534 
L 244.251375 313.465935 
L 246.081217 289.234113 
L 247.911058 245.649414 
L 249.7409 285.703057 
L 251.570741 306.925623 
L 253.400583 372.546769 
L 255.230424 337.1964 
L 257.060266 403.998356 
L 258.890107 458.572941 
L 260.719949 506.706762 
L 262.54979 521.399098 
L 264.379632 531.196283 
L 266.209473 595.384517 
L 268.039315 592.612239 
L 269.869156 442.985452 
L 271.698998 465.826671 
L 273.528839 515.703111 
L 275.358681 586.95132 
L 277.188522 581.718758 
L 279.018364 738.72 
L 282.678047 738.72 
L 284.507889 719.6842 
L 286.33773 470.32751 
L 288.167572 587.882863 
L 289.997413 552.01865 
L 291.827255 629.935035 
L 293.657096 689.491076 
L 295.486938 738.72 
L 300.976462 738.72 
L 302.806304 608.668631 
L 304.636145 579.650044 
L 306.465987 570.669186 
L 308.295828 553.566231 
L 310.12567 628.509154 
L 311.955511 541.863444 
L 313.785353 546.322404 
L 315.615194 564.343579 
L 317.445036 539.857638 
L 319.274877 594.219864 
L 321.104719 534.263227 
L 322.93456 514.411777 
L 324.764402 477.576368 
L 326.594243 408.305151 
L 328.424085 405.082363 
L 330.253926 542.011692 
L 332.083768 634.438589 
L 333.913609 630.085371 
L 335.743451 573.939322 
L 337.573292 560.568844 
L 339.403134 589.722495 
L 341.232975 593.791229 
L 343.062817 676.586152 
L 344.892658 613.600045 
L 346.7225 647.120058 
L 348.552341 713.737982 
L 350.382183 637.68692 
L 352.212024 679.223641 
L 354.041866 668.479054 
L 355.871707 598.381276 
L 357.701549 591.041212 
L 361.361232 405.225022 
L 363.191073 336.922495 
L 365.020915 372.511651 
L 366.850756 374.853186 
L 368.680598 423.478819 
L 370.510439 484.226071 
L 372.340281 359.081397 
L 374.170122 300.069726 
L 375.999964 320.294072 
L 377.829805 283.10448 
L 379.659647 314.976927 
L 381.489488 286.214198 
L 383.31933 331.427612 
L 385.149171 415.067267 
L 386.979013 350.892127 
L 388.808854 452.355711 
L 390.638696 333.90608 
L 392.468537 310.072409 
L 394.298379 312.210196 
L 396.12822 316.713342 
L 397.958062 413.75728 
L 399.787903 349.435503 
L 401.617745 352.968269 
L 403.447586 253.832479 
L 405.277428 221.454658 
L 407.107269 262.456092 
L 408.937111 265.623598 
L 410.766952 277.712684 
L 412.596794 229.33232 
L 414.426635 205.251828 
L 416.256477 189.134187 
L 418.086318 233.623326 
L 419.91616 204.87921 
L 421.746001 208.715591 
L 423.575843 228.445022 
L 425.405684 215.320571 
L 427.235526 237.669977 
L 429.065367 318.271343 
L 430.895209 269.903627 
L 432.72505 282.169257 
L 434.554892 346.419327 
L 436.384733 273.308608 
L 438.214575 311.970534 
L 440.044416 357.624654 
L 441.874258 412.408476 
L 443.704099 498.260231 
L 445.533941 537.732538 
L 447.363782 572.356424 
L 449.193624 572.537761 
L 451.023465 707.512315 
L 452.853307 614.949386 
L 454.683148 724.778884 
L 456.51299 738.72 
L 458.342831 738.72 
L 460.172673 698.694097 
L 462.002514 613.277638 
L 463.832356 586.150684 
L 465.662197 535.297957 
L 467.492039 543.736275 
L 469.32188 522.596632 
L 471.151722 373.624253 
L 472.981563 346.860152 
L 474.811405 271.887301 
L 476.641246 238.977817 
L 478.471088 314.68254 
L 480.300929 239.42071 
L 482.130771 294.158835 
L 483.960612 322.200072 
L 485.790454 220.399724 
L 487.620295 148.469855 
L 489.450137 197.168906 
L 491.279978 174.143745 
L 493.10982 153.272638 
L 494.939661 148.7856 
L 496.769503 155.004202 
L 498.599344 145.898004 
L 500.429186 167.336727 
L 502.259027 166.3988 
L 505.91871 186.89908 
L 507.748552 191.218204 
L 509.578393 223.228061 
L 511.408235 220.659829 
L 513.238076 221.099103 
L 515.067918 323.442965 
L 516.897759 298.064099 
L 518.727601 266.037498 
L 520.557442 317.64232 
L 522.387284 286.429122 
L 524.217125 337.179498 
L 526.046967 422.958551 
L 527.876808 420.799645 
L 529.70665 475.212063 
L 531.536491 507.546016 
L 533.366333 513.820775 
L 535.196174 606.891977 
L 537.026016 672.622205 
L 538.855857 593.42068 
L 540.685699 393.246342 
L 542.51554 514.91214 
L 544.345382 448.249105 
L 546.175223 483.211624 
L 548.005065 569.511224 
L 549.834906 555.827369 
L 551.664748 610.228343 
L 553.494589 628.688632 
L 555.324431 661.758484 
L 557.154272 648.824537 
L 558.984114 691.978577 
L 560.813955 680.45427 
L 562.643797 614.802321 
L 564.473638 624.055404 
L 566.30348 541.931851 
L 568.133321 411.012364 
L 569.963163 493.626099 
L 571.793004 493.766511 
L 573.622846 523.297005 
L 575.452687 384.34795 
L 577.282529 515.907198 
L 579.11237 477.090223 
L 580.942212 363.499512 
L 582.772053 301.475085 
L 584.601895 333.974248 
L 586.431736 320.472367 
L 588.261578 393.162862 
L 590.091419 495.213988 
L 591.921261 394.367217 
L 593.751102 346.456195 
L 595.580944 338.384966 
L 597.410785 314.337961 
L 599.240627 367.786461 
L 602.90031 529.496994 
L 604.730151 633.262352 
L 606.559993 627.328951 
L 608.389834 559.5122 
L 610.219676 579.586121 
L 612.049517 590.655232 
L 613.879359 400.519918 
L 615.7092 437.614795 
L 617.539042 408.093528 
L 619.368883 440.245826 
L 621.198725 513.556535 
L 623.028566 491.499924 
L 624.858408 506.170386 
L 626.688249 485.324793 
L 628.518091 475.260206 
L 630.347932 523.05957 
L 632.177774 553.539505 
L 634.007615 612.879965 
L 635.837457 573.312188 
L 637.667298 592.450867 
L 639.49714 589.296912 
L 641.326981 511.439786 
L 643.156823 522.506113 
L 644.986664 459.853279 
L 646.816506 486.931872 
L 648.646347 352.246857 
L 650.476189 310.232846 
L 652.30603 305.514696 
L 654.135872 217.834077 
L 655.965713 302.64293 
L 657.795555 220.289439 
L 659.625396 161.094422 
L 661.455238 173.918123 
L 663.285079 134.802684 
L 665.114921 133.92 
L 666.944762 160.411986 
L 668.774604 150.563616 
L 670.604445 143.775926 
L 672.434287 148.28468 
L 674.264128 148.439709 
L 676.09397 165.720899 
L 677.923811 163.117668 
L 679.753653 169.846456 
L 681.583494 174.411725 
L 683.413336 190.543842 
L 685.243177 200.060758 
L 687.073019 233.355904 
L 688.90286 225.39858 
L 690.732702 225.935612 
L 692.562543 232.710813 
L 694.392385 229.846563 
L 696.222226 245.728201 
L 698.052068 338.604663 
L 699.881909 416.830051 
L 701.711751 358.010515 
L 703.541592 408.634259 
L 705.371434 487.360447 
L 707.201275 403.151108 
L 709.031117 403.284421 
L 710.860958 527.983556 
L 712.6908 541.612229 
L 714.520641 558.885842 
L 716.350483 629.064481 
L 718.180324 630.238699 
L 720.010166 734.59499 
L 721.840007 658.341552 
L 723.669849 576.712098 
L 725.49969 677.204834 
L 727.329532 723.936001 
L 729.159373 738.72 
L 730.989215 698.75798 
L 732.819056 594.239313 
L 734.648898 610.867756 
L 736.478739 561.906234 
L 738.308581 547.019078 
L 740.138422 599.440027 
L 741.968264 577.506589 
L 743.798105 594.826576 
L 745.627947 579.832206 
L 747.457788 620.36752 
L 749.28763 738.72 
L 751.117471 730.37077 
L 752.947313 679.585813 
L 754.777154 444.354301 
L 756.606996 517.205472 
L 758.436837 508.107448 
L 760.266679 473.726883 
L 762.09652 490.311637 
L 763.926362 480.432345 
L 765.756203 528.80028 
L 767.586045 527.195707 
L 769.415886 547.285387 
L 771.245728 696.009464 
L 773.075569 530.779439 
L 774.905411 508.260369 
L 776.735252 519.627287 
L 778.565094 528.068548 
L 780.394935 605.422467 
L 782.224777 661.811947 
L 784.054618 621.212849 
L 785.88446 672.848862 
L 787.714301 703.188185 
L 789.544143 546.213133 
L 791.373984 655.162999 
L 793.203826 704.81516 
L 795.033667 708.922357 
L 796.863509 738.72 
L 798.69335 738.72 
L 800.523192 703.676666 
L 802.353033 642.66241 
L 804.182875 649.647007 
L 806.012716 683.926787 
L 807.842558 738.72 
L 809.672399 738.72 
L 811.502241 656.766767 
L 815.161924 738.72 
L 835.29018 738.72 
L 837.120022 728.66128 
L 838.949863 628.046604 
L 840.779705 738.72 
L 875.546693 738.72 
L 879.206376 580.00019 
L 881.036218 540.812487 
L 882.866059 560.133468 
L 884.695901 412.275163 
L 886.525742 440.732269 
L 888.355584 404.078018 
L 890.185425 443.819616 
L 892.015267 435.381477 
L 893.845108 295.57875 
L 895.67495 296.690835 
L 897.504791 238.497379 
L 899.334633 263.828202 
L 901.164474 311.65133 
L 902.994316 269.41265 
L 904.824157 313.648326 
L 906.653999 312.879468 
L 908.48384 243.087585 
L 910.313682 313.855694 
L 912.143523 293.219635 
L 913.973365 253.884978 
L 915.803206 347.623323 
L 917.633048 301.469795 
L 919.462889 323.996741 
L 921.292731 360.55397 
L 923.122572 355.815815 
L 924.952414 472.732541 
L 926.782255 484.250848 
L 928.612097 355.474259 
L 930.441938 352.779395 
L 932.27178 371.216816 
L 934.101621 282.312156 
L 935.931463 295.261256 
L 937.761304 276.01779 
L 939.591146 249.038685 
L 941.420987 287.656385 
L 943.250829 314.999278 
L 945.08067 463.862803 
L 946.910512 401.517302 
L 948.740353 388.658682 
L 950.570195 450.344496 
L 952.400036 475.316045 
L 954.229878 476.123701 
L 956.059719 400.455448 
L 957.889561 346.296314 
L 959.719402 431.006852 
L 961.549244 463.462306 
L 963.379085 517.267555 
L 965.208927 524.173028 
L 967.038768 526.696736 
L 968.86861 644.126551 
L 970.698451 497.129533 
L 972.528293 484.265802 
L 974.358134 509.674935 
L 976.187976 390.921192 
L 978.017817 486.301675 
L 979.847659 655.575562 
L 981.6775 678.081672 
L 983.507342 738.72 
L 987.167025 738.72 
L 988.996866 701.324685 
L 990.826708 738.72 
L 1051.211478 738.72 
L 1053.041319 578.466659 
L 1054.871161 691.220467 
L 1056.701002 593.262579 
L 1058.530844 516.93817 
L 1060.360685 466.815127 
L 1062.190527 384.362943 
L 1064.020368 429.512107 
L 1065.85021 441.366919 
L 1067.680051 332.979051 
L 1069.509893 358.61488 
L 1071.339734 378.675607 
L 1073.169576 382.848452 
L 1076.829259 421.337055 
L 1078.6591 444.414913 
L 1080.488942 434.434104 
L 1082.318783 473.940017 
L 1084.148625 342.685477 
L 1087.808308 429.308637 
L 1089.638149 364.384424 
L 1091.467991 352.684103 
L 1093.297832 306.98703 
L 1095.127674 351.71424 
L 1096.957515 337.139647 
L 1098.787357 421.998054 
L 1100.617198 369.162628 
L 1102.44704 348.689791 
L 1104.276881 350.903382 
L 1106.106723 355.764271 
L 1107.936564 323.812162 
L 1109.766406 315.707048 
L 1111.596247 333.040935 
L 1113.426089 281.857808 
L 1115.25593 346.507539 
L 1117.085772 272.972978 
L 1118.915613 286.871339 
L 1120.745455 326.562388 
L 1120.745455 326.562388 
" clip-path="url(#p058c9e6ddb)" style="fill: none; stroke: #da70d6; stroke-linecap: square"/>
   </g>
   <g id="line2d_17">
    <path d="M 207.654545 299.902647 
L 209.484387 470.232556 
L 211.314228 403.567712 
L 213.14407 396.388275 
L 214.973911 404.369422 
L 216.803753 269.816926 
L 220.463436 208.916953 
L 222.293277 210.142545 
L 224.123119 168.971567 
L 225.95296 185.947671 
L 227.782802 227.141398 
L 229.612643 227.167449 
L 231.442485 183.193985 
L 233.272326 238.533054 
L 235.102168 228.249029 
L 236.932009 238.59979 
L 238.761851 232.069302 
L 240.591692 228.133732 
L 242.421534 277.54457 
L 244.251375 274.966117 
L 246.081217 226.406902 
L 247.911058 241.571343 
L 249.7409 300.675602 
L 251.570741 307.530227 
L 253.400583 338.0555 
L 255.230424 333.257808 
L 257.060266 364.089082 
L 258.890107 400.762721 
L 260.719949 487.543932 
L 262.54979 487.883062 
L 264.379632 480.012122 
L 266.209473 561.296341 
L 268.039315 518.113929 
L 269.869156 507.173856 
L 271.698998 482.949551 
L 273.528839 476.840837 
L 275.358681 527.667235 
L 277.188522 634.277276 
L 279.018364 642.537846 
L 280.848206 639.066219 
L 282.678047 631.998858 
L 284.507889 590.253194 
L 286.33773 498.777537 
L 288.167572 588.68172 
L 289.997413 514.617573 
L 291.827255 580.903526 
L 293.657096 591.82773 
L 295.486938 646.152989 
L 297.316779 619.415564 
L 299.146621 626.628976 
L 300.976462 626.787753 
L 302.806304 608.864485 
L 304.636145 601.087872 
L 306.465987 598.625551 
L 308.295828 565.194367 
L 310.12567 599.414653 
L 311.955511 575.338496 
L 313.785353 573.640122 
L 315.615194 603.010208 
L 317.445036 568.79375 
L 319.274877 586.454507 
L 321.104719 561.839896 
L 322.93456 457.715253 
L 324.764402 455.82023 
L 326.594243 475.228031 
L 328.424085 481.734856 
L 330.253926 623.522926 
L 332.083768 607.735626 
L 333.913609 604.860936 
L 335.743451 594.49365 
L 337.573292 581.464908 
L 339.403134 587.861039 
L 341.232975 614.215665 
L 343.062817 642.403807 
L 344.892658 624.79871 
L 346.7225 581.906161 
L 348.552341 629.349492 
L 350.382183 607.116705 
L 352.212024 607.781701 
L 355.871707 517.070051 
L 357.701549 526.509592 
L 359.53139 437.744051 
L 361.361232 387.747203 
L 363.191073 308.373697 
L 365.020915 299.010815 
L 366.850756 313.109187 
L 368.680598 341.299208 
L 370.510439 357.517351 
L 372.340281 345.775668 
L 374.170122 247.623184 
L 375.999964 260.805662 
L 377.829805 258.839409 
L 379.659647 315.84772 
L 381.489488 258.987636 
L 383.31933 353.940916 
L 385.149171 388.045369 
L 386.979013 368.111552 
L 388.808854 387.103425 
L 390.638696 320.169071 
L 392.468537 317.156474 
L 394.298379 310.645712 
L 396.12822 289.922952 
L 397.958062 385.855203 
L 399.787903 291.036986 
L 401.617745 322.90824 
L 403.447586 216.10148 
L 405.277428 208.878971 
L 407.107269 261.307457 
L 408.937111 219.758889 
L 410.766952 242.993526 
L 412.596794 218.970503 
L 414.426635 190.766442 
L 416.256477 181.178812 
L 418.086318 220.830766 
L 419.91616 196.592779 
L 421.746001 186.644185 
L 423.575843 224.367429 
L 425.405684 188.98421 
L 427.235526 209.953154 
L 429.065367 332.108298 
L 430.895209 255.855169 
L 432.72505 236.437782 
L 434.554892 361.691111 
L 436.384733 284.567944 
L 438.214575 334.048462 
L 440.044416 379.497282 
L 441.874258 419.093695 
L 443.704099 427.185605 
L 445.533941 496.756558 
L 447.363782 489.408093 
L 449.193624 505.387051 
L 451.023465 602.097119 
L 452.853307 575.198123 
L 454.683148 590.059955 
L 456.51299 578.074553 
L 458.342831 605.950262 
L 460.172673 592.439611 
L 462.002514 551.56997 
L 463.832356 554.353882 
L 465.662197 482.922168 
L 467.492039 479.311729 
L 469.32188 458.628561 
L 471.151722 380.956253 
L 472.981563 328.62807 
L 474.811405 265.165194 
L 476.641246 213.537464 
L 478.471088 282.118986 
L 480.300929 222.430129 
L 482.130771 274.944044 
L 483.960612 274.779669 
L 485.790454 199.636 
L 487.620295 176.592266 
L 489.450137 178.629869 
L 491.279978 159.515739 
L 493.10982 157.877798 
L 494.939661 160.827556 
L 496.769503 154.241587 
L 498.599344 148.888528 
L 500.429186 150.290307 
L 502.259027 150.46037 
L 504.088869 151.137834 
L 505.91871 153.421741 
L 507.748552 151.299226 
L 509.578393 159.975376 
L 511.408235 165.659929 
L 513.238076 166.530443 
L 515.067918 276.937938 
L 516.897759 253.351048 
L 518.727601 210.015198 
L 520.557442 329.289745 
L 522.387284 226.606196 
L 524.217125 332.445519 
L 526.046967 398.388414 
L 527.876808 401.52808 
L 529.70665 438.221287 
L 531.536491 501.888528 
L 533.366333 522.593948 
L 535.196174 518.001276 
L 537.026016 549.221514 
L 538.855857 525.155777 
L 540.685699 466.80065 
L 542.51554 499.322245 
L 544.345382 465.707078 
L 546.175223 487.995138 
L 548.005065 527.865177 
L 549.834906 511.581332 
L 551.664748 513.989545 
L 553.494589 534.887915 
L 555.324431 596.353933 
L 557.154272 567.11204 
L 558.984114 496.355066 
L 560.813955 590.309659 
L 562.643797 505.659882 
L 564.473638 520.017185 
L 566.30348 531.327886 
L 568.133321 456.884251 
L 569.963163 487.039035 
L 571.793004 534.266588 
L 573.622846 497.526868 
L 575.452687 430.109869 
L 577.282529 521.300625 
L 579.11237 474.851357 
L 580.942212 367.97625 
L 582.772053 342.835097 
L 584.601895 281.351957 
L 586.431736 288.530956 
L 588.261578 397.719978 
L 590.091419 431.568979 
L 591.921261 434.099588 
L 593.751102 343.536543 
L 595.580944 288.155873 
L 597.410785 268.813177 
L 599.240627 319.491129 
L 602.90031 494.628435 
L 604.730151 500.909239 
L 606.559993 511.672309 
L 608.389834 485.523311 
L 610.219676 512.450634 
L 612.049517 518.442499 
L 613.879359 450.475722 
L 615.7092 486.449784 
L 617.539042 396.532088 
L 619.368883 427.112664 
L 621.198725 474.84734 
L 623.028566 449.717044 
L 624.858408 459.071156 
L 626.688249 432.248432 
L 628.518091 446.044224 
L 630.347932 547.322076 
L 632.177774 507.851838 
L 634.007615 545.802951 
L 635.837457 532.105455 
L 637.667298 557.145032 
L 639.49714 534.786677 
L 641.326981 496.211969 
L 643.156823 516.798075 
L 644.986664 451.499952 
L 646.816506 459.608526 
L 648.646347 377.258595 
L 650.476189 314.937155 
L 652.30603 264.967252 
L 654.135872 173.806763 
L 655.965713 255.182119 
L 657.795555 185.870117 
L 659.625396 170.609309 
L 661.455238 168.970015 
L 663.285079 147.373559 
L 665.114921 147.12308 
L 666.944762 148.411909 
L 668.774604 148.88996 
L 670.604445 149.825182 
L 672.434287 149.097765 
L 674.264128 148.577318 
L 676.09397 149.670909 
L 677.923811 149.77161 
L 679.753653 150.489403 
L 681.583494 151.629726 
L 683.413336 148.948503 
L 685.243177 151.048508 
L 687.073019 162.569301 
L 688.90286 159.843296 
L 690.732702 160.522908 
L 692.562543 163.889708 
L 694.392385 166.147008 
L 696.222226 179.016964 
L 698.052068 274.857064 
L 699.881909 390.05553 
L 701.711751 356.77665 
L 703.541592 419.484209 
L 705.371434 494.344249 
L 707.201275 414.896509 
L 709.031117 428.094856 
L 710.860958 603.286867 
L 712.6908 579.745127 
L 714.520641 580.59159 
L 716.350483 564.378021 
L 718.180324 581.971694 
L 720.010166 586.25398 
L 721.840007 558.741214 
L 725.49969 547.240863 
L 727.329532 573.872406 
L 729.159373 612.990142 
L 730.989215 587.654268 
L 732.819056 579.909562 
L 734.648898 587.120656 
L 736.478739 532.964097 
L 738.308581 509.667318 
L 740.138422 555.926658 
L 741.968264 546.179745 
L 743.798105 574.498745 
L 745.627947 571.85799 
L 747.457788 588.526443 
L 749.28763 578.982303 
L 751.117471 591.422898 
L 752.947313 590.934496 
L 754.777154 486.398757 
L 756.606996 505.712738 
L 758.436837 488.486214 
L 760.266679 397.58054 
L 762.09652 443.090528 
L 763.926362 411.900457 
L 765.756203 487.166343 
L 767.586045 477.073479 
L 769.415886 494.85014 
L 771.245728 571.059143 
L 773.075569 507.55761 
L 774.905411 484.743794 
L 776.735252 537.433656 
L 778.565094 475.16221 
L 780.394935 512.451628 
L 782.224777 589.538493 
L 784.054618 507.179066 
L 785.88446 595.794609 
L 787.714301 564.859811 
L 789.544143 569.169986 
L 791.373984 576.358958 
L 793.203826 584.292499 
L 795.033667 575.446873 
L 796.863509 632.404406 
L 798.69335 620.807828 
L 800.523192 579.346072 
L 802.353033 578.328622 
L 804.182875 610.445474 
L 806.012716 598.185571 
L 807.842558 638.260651 
L 809.672399 613.400174 
L 811.502241 619.178825 
L 813.332082 623.16925 
L 815.161924 630.407071 
L 816.991765 640.025602 
L 818.821607 657.114846 
L 820.651448 655.741662 
L 822.48129 661.116356 
L 824.311131 657.345271 
L 826.140973 666.356147 
L 827.970814 684.245857 
L 829.800656 682.655104 
L 831.630497 680.41941 
L 833.460339 695.712233 
L 835.29018 692.588495 
L 837.120022 635.799861 
L 838.949863 619.557896 
L 840.779705 654.657854 
L 842.609546 639.554163 
L 844.439388 658.448815 
L 846.269229 684.300095 
L 848.099071 701.751608 
L 849.928912 709.621517 
L 851.758754 719.36241 
L 853.588595 700.394822 
L 855.418437 687.885672 
L 857.248278 704.376316 
L 859.07812 687.838499 
L 860.907961 707.539479 
L 862.737803 719.974013 
L 864.567644 720.221691 
L 866.397486 715.059058 
L 868.227327 658.145181 
L 870.057169 680.468925 
L 871.88701 695.249181 
L 873.716852 672.811944 
L 875.546693 611.507964 
L 879.206376 523.740356 
L 881.036218 474.31874 
L 882.866059 468.666541 
L 884.695901 382.963471 
L 886.525742 360.242839 
L 888.355584 317.998671 
L 890.185425 319.668509 
L 892.015267 296.268265 
L 893.845108 252.108592 
L 895.67495 246.727097 
L 897.504791 196.421126 
L 899.334633 235.548218 
L 901.164474 250.800196 
L 902.994316 222.684825 
L 904.824157 293.017359 
L 906.653999 290.781694 
L 908.48384 245.108564 
L 910.313682 317.611458 
L 912.143523 315.273303 
L 913.973365 275.573504 
L 915.803206 371.580326 
L 917.633048 276.243452 
L 919.462889 340.291801 
L 921.292731 354.859951 
L 923.122572 319.298875 
L 924.952414 383.737937 
L 928.612097 297.633535 
L 930.441938 295.810617 
L 932.27178 275.863676 
L 934.101621 258.116247 
L 935.931463 269.723264 
L 937.761304 297.16662 
L 939.591146 279.544987 
L 941.420987 293.247157 
L 943.250829 326.614568 
L 945.08067 537.085697 
L 946.910512 412.984742 
L 948.740353 415.908928 
L 950.570195 500.778034 
L 952.400036 377.198063 
L 954.229878 393.808549 
L 956.059719 321.337075 
L 957.889561 352.834995 
L 959.719402 423.398004 
L 961.549244 460.11042 
L 963.379085 490.332398 
L 965.208927 481.105614 
L 967.038768 498.284512 
L 968.86861 591.26588 
L 970.698451 485.208442 
L 972.528293 487.393597 
L 974.358134 501.926311 
L 976.187976 344.937169 
L 978.017817 474.286445 
L 979.847659 588.777479 
L 981.6775 581.41242 
L 983.507342 654.287593 
L 985.337183 620.396911 
L 987.167025 620.147983 
L 988.996866 639.054198 
L 990.826708 643.273964 
L 992.656549 624.554524 
L 994.486391 647.261097 
L 996.316232 647.935051 
L 998.146074 647.731293 
L 999.975915 642.509927 
L 1001.805757 645.636111 
L 1005.46544 661.249849 
L 1007.295281 671.620386 
L 1009.125123 673.347475 
L 1010.954964 724.995218 
L 1012.784806 682.743208 
L 1014.614647 693.225443 
L 1016.444489 729.829201 
L 1018.27433 705.203656 
L 1020.104172 674.362439 
L 1021.934013 672.030055 
L 1023.763855 674.587843 
L 1025.593696 664.98173 
L 1027.423538 624.194793 
L 1029.253379 631.821746 
L 1031.083221 655.758833 
L 1032.913062 674.35695 
L 1034.742904 667.751185 
L 1038.402587 691.019149 
L 1040.232428 668.987585 
L 1042.06227 660.879121 
L 1043.892111 698.449426 
L 1045.721953 706.109204 
L 1047.551794 688.084116 
L 1049.381636 685.355208 
L 1051.211478 639.501029 
L 1053.041319 520.410543 
L 1054.871161 627.357725 
L 1056.701002 481.346608 
L 1058.530844 436.406184 
L 1060.360685 343.183295 
L 1062.190527 363.027665 
L 1064.020368 333.669004 
L 1065.85021 311.180517 
L 1067.680051 294.366839 
L 1069.509893 283.415054 
L 1071.339734 287.786756 
L 1073.169576 276.530004 
L 1074.999417 278.093017 
L 1076.829259 280.931654 
L 1078.6591 359.27055 
L 1080.488942 364.748331 
L 1082.318783 395.392601 
L 1084.148625 270.607301 
L 1085.978466 399.013659 
L 1087.808308 435.547184 
L 1089.638149 417.499899 
L 1091.467991 310.560403 
L 1093.297832 344.909568 
L 1096.957515 390.07816 
L 1098.787357 395.430304 
L 1100.617198 286.014347 
L 1102.44704 317.624264 
L 1104.276881 329.871878 
L 1106.106723 327.181945 
L 1107.936564 304.785847 
L 1109.766406 318.491279 
L 1111.596247 286.373164 
L 1113.426089 286.147183 
L 1115.25593 322.265814 
L 1117.085772 275.238471 
L 1118.915613 304.839499 
L 1120.745455 320.836513 
L 1120.745455 320.836513 
" clip-path="url(#p058c9e6ddb)" style="fill: none; stroke: #8fbc8f; stroke-linecap: square"/>
   </g>
   <g id="patch_3">
    <path d="M 162 768.96 
L 162 103.68 
" style="fill: none; stroke: #000000; stroke-width: 0.8; stroke-linejoin: miter; stroke-linecap: square"/>
   </g>
   <g id="patch_4">
    <path d="M 1166.4 768.96 
L 1166.4 103.68 
" style="fill: none; stroke: #000000; stroke-width: 0.8; stroke-linejoin: miter; stroke-linecap: square"/>
   </g>
   <g id="patch_5">
    <path d="M 162 768.96 
L 1166.4 768.96 
" style="fill: none; stroke: #000000; stroke-width: 0.8; stroke-linejoin: miter; stroke-linecap: square"/>
   </g>
   <g id="patch_6">
    <path d="M 162 103.68 
L 1166.4 103.68 
" style="fill: none; stroke: #000000; stroke-width: 0.8; stroke-linejoin: miter; stroke-linecap: square"/>
   </g>
   <g id="text_14">
    <!-- Function 1 -->
    <g transform="translate(632.957813 97.68) scale(0.12 -0.12)">
     <defs>
      <path id="DejaVuSans-46" d="M 628 4666 
L 3309 4666 
L 3309 4134 
L 1259 4134 
L 1259 2759 
L 3109 2759 
L 3109 2228 
L 1259 2228 
L 1259 0 
L 628 0 
L 628 4666 
z
" transform="scale(0.015625)"/>
      <path id="DejaVuSans-75" d="M 544 1381 
L 544 3500 
L 1119 3500 
L 1119 1403 
Q 1119 906 1312 657 
Q 1506 409 1894 409 
Q 2359 409 2629 706 
Q 2900 1003 2900 1516 
L 2900 3500 
L 3475 3500 
L 3475 0 
L 2900 0 
L 2900 538 
Q 2691 219 2414 64 
Q 2138 -91 1772 -91 
Q 1169 -91 856 284 
Q 544 659 544 1381 
z
M 1991 3584 
L 1991 3584 
z
" transform="scale(0.015625)"/>
      <path id="DejaVuSans-6e" d="M 3513 2113 
L 3513 0 
L 2938 0 
L 2938 2094 
Q 2938 2591 2744 2837 
Q 2550 3084 2163 3084 
Q 1697 3084 1428 2787 
Q 1159 2491 1159 1978 
L 1159 0 
L 581 0 
L 581 3500 
L 1159 3500 
L 1159 2956 
Q 1366 3272 1645 3428 
Q 1925 3584 2291 3584 
Q 2894 3584 3203 3211 
Q 3513 2838 3513 2113 
z
" transform="scale(0.015625)"/>
      <path id="DejaVuSans-63" d="M 3122 3366 
L 3122 2828 
Q 2878 2963 2633 3030 
Q 2388 3097 2138 3097 
Q 1578 3097 1268 2742 
Q 959 2388 959 1747 
Q 959 1106 1268 751 
Q 1578 397 2138 397 
Q 2388 397 2633 464 
Q 2878 531 3122 666 
L 3122 134 
Q 2881 22 2623 -34 
Q 2366 -91 2075 -91 
Q 1284 -91 818 406 
Q 353 903 353 1747 
Q 353 2603 823 3093 
Q 1294 3584 2113 3584 
Q 2378 3584 2631 3529 
Q 2884 3475 3122 3366 
z
" transform="scale(0.015625)"/>
      <path id="DejaVuSans-74" d="M 1172 4494 
L 1172 3500 
L 2356 3500 
L 2356 3053 
L 1172 3053 
L 1172 1153 
Q 1172 725 1289 603 
Q 1406 481 1766 481 
L 2356 481 
L 2356 0 
L 1766 0 
Q 1100 0 847 248 
Q 594 497 594 1153 
L 594 3053 
L 172 3053 
L 172 3500 
L 594 3500 
L 594 4494 
L 1172 4494 
z
" transform="scale(0.015625)"/>
      <path id="DejaVuSans-69" d="M 603 3500 
L 1178 3500 
L 1178 0 
L 603 0 
L 603 3500 
z
M 603 4863 
L 1178 4863 
L 1178 4134 
L 603 4134 
L 603 4863 
z
" transform="scale(0.015625)"/>
      <path id="DejaVuSans-6f" d="M 1959 3097 
Q 1497 3097 1228 2736 
Q 959 2375 959 1747 
Q 959 1119 1226 758 
Q 1494 397 1959 397 
Q 2419 397 2687 759 
Q 2956 1122 2956 1747 
Q 2956 2369 2687 2733 
Q 2419 3097 1959 3097 
z
M 1959 3584 
Q 2709 3584 3137 3096 
Q 3566 2609 3566 1747 
Q 3566 888 3137 398 
Q 2709 -91 1959 -91 
Q 1206 -91 779 398 
Q 353 888 353 1747 
Q 353 2609 779 3096 
Q 1206 3584 1959 3584 
z
" transform="scale(0.015625)"/>
      <path id="DejaVuSans-20" transform="scale(0.015625)"/>
     </defs>
     <use xlink:href="#DejaVuSans-46"/>
     <use xlink:href="#DejaVuSans-75" x="52.019531"/>
     <use xlink:href="#DejaVuSans-6e" x="115.398438"/>
     <use xlink:href="#DejaVuSans-63" x="178.777344"/>
     <use xlink:href="#DejaVuSans-74" x="233.757812"/>
     <use xlink:href="#DejaVuSans-69" x="272.966797"/>
     <use xlink:href="#DejaVuSans-6f" x="300.75"/>
     <use xlink:href="#DejaVuSans-6e" x="361.931641"/>
     <use xlink:href="#DejaVuSans-20" x="425.310547"/>
     <use xlink:href="#DejaVuSans-31" x="457.097656"/>
    </g>
   </g>
   <g id="legend_1">
    <g id="patch_7">
     <path d="M 1011.90625 170.3925 
L 1159.4 170.3925 
Q 1161.4 170.3925 1161.4 168.3925 
L 1161.4 110.68 
Q 1161.4 108.68 1159.4 108.68 
L 1011.90625 108.68 
Q 1009.90625 108.68 1009.90625 110.68 
L 1009.90625 168.3925 
Q 1009.90625 170.3925 1011.90625 170.3925 
z
" style="fill: #ffffff; opacity: 0.8; stroke: #cccccc; stroke-linejoin: miter"/>
    </g>
    <g id="line2d_18">
     <path d="M 1013.90625 116.778437 
L 1023.90625 116.778437 
L 1033.90625 116.778437 
" style="fill: none; stroke: #4169e1; stroke-linecap: square"/>
    </g>
    <g id="text_15">
     <!-- Truth -->
     <g transform="translate(1041.90625 120.278437) scale(0.1 -0.1)">
      <defs>
       <path id="DejaVuSans-54" d="M -19 4666 
L 3928 4666 
L 3928 4134 
L 2272 4134 
L 2272 0 
L 1638 0 
L 1638 4134 
L -19 4134 
L -19 4666 
z
" transform="scale(0.015625)"/>
       <path id="DejaVuSans-72" d="M 2631 2963 
Q 2534 3019 2420 3045 
Q 2306 3072 2169 3072 
Q 1681 3072 1420 2755 
Q 1159 2438 1159 1844 
L 1159 0 
L 581 0 
L 581 3500 
L 1159 3500 
L 1159 2956 
Q 1341 3275 1631 3429 
Q 1922 3584 2338 3584 
Q 2397 3584 2469 3576 
Q 2541 3569 2628 3553 
L 2631 2963 
z
" transform="scale(0.015625)"/>
       <path id="DejaVuSans-68" d="M 3513 2113 
L 3513 0 
L 2938 0 
L 2938 2094 
Q 2938 2591 2744 2837 
Q 2550 3084 2163 3084 
Q 1697 3084 1428 2787 
Q 1159 2491 1159 1978 
L 1159 0 
L 581 0 
L 581 4863 
L 1159 4863 
L 1159 2956 
Q 1366 3272 1645 3428 
Q 1925 3584 2291 3584 
Q 2894 3584 3203 3211 
Q 3513 2838 3513 2113 
z
" transform="scale(0.015625)"/>
      </defs>
      <use xlink:href="#DejaVuSans-54"/>
      <use xlink:href="#DejaVuSans-72" x="46.333984"/>
      <use xlink:href="#DejaVuSans-75" x="87.447266"/>
      <use xlink:href="#DejaVuSans-74" x="150.826172"/>
      <use xlink:href="#DejaVuSans-68" x="190.035156"/>
     </g>
    </g>
    <g id="line2d_19">
     <path d="M 1013.90625 131.456562 
L 1023.90625 131.456562 
L 1033.90625 131.456562 
" style="fill: none; stroke: #ff6347; stroke-linecap: square"/>
    </g>
    <g id="text_16">
     <!-- Gossip predictions -->
     <g transform="translate(1041.90625 134.956562) scale(0.1 -0.1)">
      <defs>
       <path id="DejaVuSans-47" d="M 3809 666 
L 3809 1919 
L 2778 1919 
L 2778 2438 
L 4434 2438 
L 4434 434 
Q 4069 175 3628 42 
Q 3188 -91 2688 -91 
Q 1594 -91 976 548 
Q 359 1188 359 2328 
Q 359 3472 976 4111 
Q 1594 4750 2688 4750 
Q 3144 4750 3555 4637 
Q 3966 4525 4313 4306 
L 4313 3634 
Q 3963 3931 3569 4081 
Q 3175 4231 2741 4231 
Q 1884 4231 1454 3753 
Q 1025 3275 1025 2328 
Q 1025 1384 1454 906 
Q 1884 428 2741 428 
Q 3075 428 3337 486 
Q 3600 544 3809 666 
z
" transform="scale(0.015625)"/>
       <path id="DejaVuSans-73" d="M 2834 3397 
L 2834 2853 
Q 2591 2978 2328 3040 
Q 2066 3103 1784 3103 
Q 1356 3103 1142 2972 
Q 928 2841 928 2578 
Q 928 2378 1081 2264 
Q 1234 2150 1697 2047 
L 1894 2003 
Q 2506 1872 2764 1633 
Q 3022 1394 3022 966 
Q 3022 478 2636 193 
Q 2250 -91 1575 -91 
Q 1294 -91 989 -36 
Q 684 19 347 128 
L 347 722 
Q 666 556 975 473 
Q 1284 391 1588 391 
Q 1994 391 2212 530 
Q 2431 669 2431 922 
Q 2431 1156 2273 1281 
Q 2116 1406 1581 1522 
L 1381 1569 
Q 847 1681 609 1914 
Q 372 2147 372 2553 
Q 372 3047 722 3315 
Q 1072 3584 1716 3584 
Q 2034 3584 2315 3537 
Q 2597 3491 2834 3397 
z
" transform="scale(0.015625)"/>
       <path id="DejaVuSans-70" d="M 1159 525 
L 1159 -1331 
L 581 -1331 
L 581 3500 
L 1159 3500 
L 1159 2969 
Q 1341 3281 1617 3432 
Q 1894 3584 2278 3584 
Q 2916 3584 3314 3078 
Q 3713 2572 3713 1747 
Q 3713 922 3314 415 
Q 2916 -91 2278 -91 
Q 1894 -91 1617 61 
Q 1341 213 1159 525 
z
M 3116 1747 
Q 3116 2381 2855 2742 
Q 2594 3103 2138 3103 
Q 1681 3103 1420 2742 
Q 1159 2381 1159 1747 
Q 1159 1113 1420 752 
Q 1681 391 2138 391 
Q 2594 391 2855 752 
Q 3116 1113 3116 1747 
z
" transform="scale(0.015625)"/>
       <path id="DejaVuSans-65" d="M 3597 1894 
L 3597 1613 
L 953 1613 
Q 991 1019 1311 708 
Q 1631 397 2203 397 
Q 2534 397 2845 478 
Q 3156 559 3463 722 
L 3463 178 
Q 3153 47 2828 -22 
Q 2503 -91 2169 -91 
Q 1331 -91 842 396 
Q 353 884 353 1716 
Q 353 2575 817 3079 
Q 1281 3584 2069 3584 
Q 2775 3584 3186 3129 
Q 3597 2675 3597 1894 
z
M 3022 2063 
Q 3016 2534 2758 2815 
Q 2500 3097 2075 3097 
Q 1594 3097 1305 2825 
Q 1016 2553 972 2059 
L 3022 2063 
z
" transform="scale(0.015625)"/>
       <path id="DejaVuSans-64" d="M 2906 2969 
L 2906 4863 
L 3481 4863 
L 3481 0 
L 2906 0 
L 2906 525 
Q 2725 213 2448 61 
Q 2172 -91 1784 -91 
Q 1150 -91 751 415 
Q 353 922 353 1747 
Q 353 2572 751 3078 
Q 1150 3584 1784 3584 
Q 2172 3584 2448 3432 
Q 2725 3281 2906 2969 
z
M 947 1747 
Q 947 1113 1208 752 
Q 1469 391 1925 391 
Q 2381 391 2643 752 
Q 2906 1113 2906 1747 
Q 2906 2381 2643 2742 
Q 2381 3103 1925 3103 
Q 1469 3103 1208 2742 
Q 947 2381 947 1747 
z
" transform="scale(0.015625)"/>
      </defs>
      <use xlink:href="#DejaVuSans-47"/>
      <use xlink:href="#DejaVuSans-6f" x="77.490234"/>
      <use xlink:href="#DejaVuSans-73" x="138.671875"/>
      <use xlink:href="#DejaVuSans-73" x="190.771484"/>
      <use xlink:href="#DejaVuSans-69" x="242.871094"/>
      <use xlink:href="#DejaVuSans-70" x="270.654297"/>
      <use xlink:href="#DejaVuSans-20" x="334.130859"/>
      <use xlink:href="#DejaVuSans-70" x="365.917969"/>
      <use xlink:href="#DejaVuSans-72" x="429.394531"/>
      <use xlink:href="#DejaVuSans-65" x="468.257812"/>
      <use xlink:href="#DejaVuSans-64" x="529.78125"/>
      <use xlink:href="#DejaVuSans-69" x="593.257812"/>
      <use xlink:href="#DejaVuSans-63" x="621.041016"/>
      <use xlink:href="#DejaVuSans-74" x="676.021484"/>
      <use xlink:href="#DejaVuSans-69" x="715.230469"/>
      <use xlink:href="#DejaVuSans-6f" x="743.013672"/>
      <use xlink:href="#DejaVuSans-6e" x="804.195312"/>
      <use xlink:href="#DejaVuSans-73" x="867.574219"/>
     </g>
    </g>
    <g id="line2d_20">
     <path d="M 1013.90625 146.134687 
L 1023.90625 146.134687 
L 1033.90625 146.134687 
" style="fill: none; stroke: #da70d6; stroke-linecap: square"/>
    </g>
    <g id="text_17">
     <!-- Centralized predictions -->
     <g transform="translate(1041.90625 149.634687) scale(0.1 -0.1)">
      <defs>
       <path id="DejaVuSans-43" d="M 4122 4306 
L 4122 3641 
Q 3803 3938 3442 4084 
Q 3081 4231 2675 4231 
Q 1875 4231 1450 3742 
Q 1025 3253 1025 2328 
Q 1025 1406 1450 917 
Q 1875 428 2675 428 
Q 3081 428 3442 575 
Q 3803 722 4122 1019 
L 4122 359 
Q 3791 134 3420 21 
Q 3050 -91 2638 -91 
Q 1578 -91 968 557 
Q 359 1206 359 2328 
Q 359 3453 968 4101 
Q 1578 4750 2638 4750 
Q 3056 4750 3426 4639 
Q 3797 4528 4122 4306 
z
" transform="scale(0.015625)"/>
       <path id="DejaVuSans-61" d="M 2194 1759 
Q 1497 1759 1228 1600 
Q 959 1441 959 1056 
Q 959 750 1161 570 
Q 1363 391 1709 391 
Q 2188 391 2477 730 
Q 2766 1069 2766 1631 
L 2766 1759 
L 2194 1759 
z
M 3341 1997 
L 3341 0 
L 2766 0 
L 2766 531 
Q 2569 213 2275 61 
Q 1981 -91 1556 -91 
Q 1019 -91 701 211 
Q 384 513 384 1019 
Q 384 1609 779 1909 
Q 1175 2209 1959 2209 
L 2766 2209 
L 2766 2266 
Q 2766 2663 2505 2880 
Q 2244 3097 1772 3097 
Q 1472 3097 1187 3025 
Q 903 2953 641 2809 
L 641 3341 
Q 956 3463 1253 3523 
Q 1550 3584 1831 3584 
Q 2591 3584 2966 3190 
Q 3341 2797 3341 1997 
z
" transform="scale(0.015625)"/>
       <path id="DejaVuSans-6c" d="M 603 4863 
L 1178 4863 
L 1178 0 
L 603 0 
L 603 4863 
z
" transform="scale(0.015625)"/>
       <path id="DejaVuSans-7a" d="M 353 3500 
L 3084 3500 
L 3084 2975 
L 922 459 
L 3084 459 
L 3084 0 
L 275 0 
L 275 525 
L 2438 3041 
L 353 3041 
L 353 3500 
z
" transform="scale(0.015625)"/>
      </defs>
      <use xlink:href="#DejaVuSans-43"/>
      <use xlink:href="#DejaVuSans-65" x="69.824219"/>
      <use xlink:href="#DejaVuSans-6e" x="131.347656"/>
      <use xlink:href="#DejaVuSans-74" x="194.726562"/>
      <use xlink:href="#DejaVuSans-72" x="233.935547"/>
      <use xlink:href="#DejaVuSans-61" x="275.048828"/>
      <use xlink:href="#DejaVuSans-6c" x="336.328125"/>
      <use xlink:href="#DejaVuSans-69" x="364.111328"/>
      <use xlink:href="#DejaVuSans-7a" x="391.894531"/>
      <use xlink:href="#DejaVuSans-65" x="444.384766"/>
      <use xlink:href="#DejaVuSans-64" x="505.908203"/>
      <use xlink:href="#DejaVuSans-20" x="569.384766"/>
      <use xlink:href="#DejaVuSans-70" x="601.171875"/>
      <use xlink:href="#DejaVuSans-72" x="664.648438"/>
      <use xlink:href="#DejaVuSans-65" x="703.511719"/>
      <use xlink:href="#DejaVuSans-64" x="765.035156"/>
      <use xlink:href="#DejaVuSans-69" x="828.511719"/>
      <use xlink:href="#DejaVuSans-63" x="856.294922"/>
      <use xlink:href="#DejaVuSans-74" x="911.275391"/>
      <use xlink:href="#DejaVuSans-69" x="950.484375"/>
      <use xlink:href="#DejaVuSans-6f" x="978.267578"/>
      <use xlink:href="#DejaVuSans-6e" x="1039.449219"/>
      <use xlink:href="#DejaVuSans-73" x="1102.828125"/>
     </g>
    </g>
    <g id="line2d_21">
     <path d="M 1013.90625 160.812812 
L 1023.90625 160.812812 
L 1033.90625 160.812812 
" style="fill: none; stroke: #8fbc8f; stroke-linecap: square"/>
    </g>
    <g id="text_18">
     <!-- Single predictions -->
     <g transform="translate(1041.90625 164.312812) scale(0.1 -0.1)">
      <defs>
       <path id="DejaVuSans-53" d="M 3425 4513 
L 3425 3897 
Q 3066 4069 2747 4153 
Q 2428 4238 2131 4238 
Q 1616 4238 1336 4038 
Q 1056 3838 1056 3469 
Q 1056 3159 1242 3001 
Q 1428 2844 1947 2747 
L 2328 2669 
Q 3034 2534 3370 2195 
Q 3706 1856 3706 1288 
Q 3706 609 3251 259 
Q 2797 -91 1919 -91 
Q 1588 -91 1214 -16 
Q 841 59 441 206 
L 441 856 
Q 825 641 1194 531 
Q 1563 422 1919 422 
Q 2459 422 2753 634 
Q 3047 847 3047 1241 
Q 3047 1584 2836 1778 
Q 2625 1972 2144 2069 
L 1759 2144 
Q 1053 2284 737 2584 
Q 422 2884 422 3419 
Q 422 4038 858 4394 
Q 1294 4750 2059 4750 
Q 2388 4750 2728 4690 
Q 3069 4631 3425 4513 
z
" transform="scale(0.015625)"/>
       <path id="DejaVuSans-67" d="M 2906 1791 
Q 2906 2416 2648 2759 
Q 2391 3103 1925 3103 
Q 1463 3103 1205 2759 
Q 947 2416 947 1791 
Q 947 1169 1205 825 
Q 1463 481 1925 481 
Q 2391 481 2648 825 
Q 2906 1169 2906 1791 
z
M 3481 434 
Q 3481 -459 3084 -895 
Q 2688 -1331 1869 -1331 
Q 1566 -1331 1297 -1286 
Q 1028 -1241 775 -1147 
L 775 -588 
Q 1028 -725 1275 -790 
Q 1522 -856 1778 -856 
Q 2344 -856 2625 -561 
Q 2906 -266 2906 331 
L 2906 616 
Q 2728 306 2450 153 
Q 2172 0 1784 0 
Q 1141 0 747 490 
Q 353 981 353 1791 
Q 353 2603 747 3093 
Q 1141 3584 1784 3584 
Q 2172 3584 2450 3431 
Q 2728 3278 2906 2969 
L 2906 3500 
L 3481 3500 
L 3481 434 
z
" transform="scale(0.015625)"/>
      </defs>
      <use xlink:href="#DejaVuSans-53"/>
      <use xlink:href="#DejaVuSans-69" x="63.476562"/>
      <use xlink:href="#DejaVuSans-6e" x="91.259766"/>
      <use xlink:href="#DejaVuSans-67" x="154.638672"/>
      <use xlink:href="#DejaVuSans-6c" x="218.115234"/>
      <use xlink:href="#DejaVuSans-65" x="245.898438"/>
      <use xlink:href="#DejaVuSans-20" x="307.421875"/>
      <use xlink:href="#DejaVuSans-70" x="339.208984"/>
      <use xlink:href="#DejaVuSans-72" x="402.685547"/>
      <use xlink:href="#DejaVuSans-65" x="441.548828"/>
      <use xlink:href="#DejaVuSans-64" x="503.072266"/>
      <use xlink:href="#DejaVuSans-69" x="566.548828"/>
      <use xlink:href="#DejaVuSans-63" x="594.332031"/>
      <use xlink:href="#DejaVuSans-74" x="649.3125"/>
      <use xlink:href="#DejaVuSans-69" x="688.521484"/>
      <use xlink:href="#DejaVuSans-6f" x="716.304688"/>
      <use xlink:href="#DejaVuSans-6e" x="777.486328"/>
      <use xlink:href="#DejaVuSans-73" x="840.865234"/>
     </g>
    </g>
   </g>
  </g>
 </g>
 <defs>
  <clipPath id="p058c9e6ddb">
   <rect x="162" y="103.68" width="1004.4" height="665.28"/>
  </clipPath>
 </defs>
</svg>
