<?xml version="1.0" encoding="utf-8" standalone="no"?>
<!DOCTYPE svg PUBLIC "-//W3C//DTD SVG 1.1//EN"
  "http://www.w3.org/Graphics/SVG/1.1/DTD/svg11.dtd">
<svg xmlns:xlink="http://www.w3.org/1999/xlink" width="1296pt" height="864pt" viewBox="0 0 1296 864" xmlns="http://www.w3.org/2000/svg" version="1.1">
 <metadata>
  <rdf:RDF xmlns:dc="http://purl.org/dc/elements/1.1/" xmlns:cc="http://creativecommons.org/ns#" xmlns:rdf="http://www.w3.org/1999/02/22-rdf-syntax-ns#">
   <cc:Work>
    <dc:type rdf:resource="http://purl.org/dc/dcmitype/StillImage"/>
    <dc:date>2023-12-24T17:39:59.073920</dc:date>
    <dc:format>image/svg+xml</dc:format>
    <dc:creator>
     <cc:Agent>
      <dc:title>Matplotlib v3.8.0, https://matplotlib.org/</dc:title>
     </cc:Agent>
    </dc:creator>
   </cc:Work>
  </rdf:RDF>
 </metadata>
 <defs>
  <style type="text/css">*{stroke-linejoin: round; stroke-linecap: butt}</style>
 </defs>
 <g id="figure_1">
  <g id="patch_1">
   <path d="M 0 864 
L 1296 864 
L 1296 0 
L 0 0 
z
" style="fill: #ffffff"/>
  </g>
  <g id="axes_1">
   <g id="patch_2">
    <path d="M 162 768.96 
L 1166.4 768.96 
L 1166.4 103.68 
L 162 103.68 
z
" style="fill: #ffffff"/>
   </g>
   <g id="matplotlib.axis_1">
    <g id="xtick_1">
     <g id="line2d_1">
      <defs>
       <path id="ma74232f796" d="M 0 0 
L 0 3.5 
" style="stroke: #000000; stroke-width: 0.8"/>
      </defs>
      <g>
       <use xlink:href="#ma74232f796" x="207.654545" y="768.96" style="stroke: #000000; stroke-width: 0.8"/>
      </g>
     </g>
     <g id="text_1">
      <!-- 0 -->
      <g transform="translate(204.473295 783.558437) scale(0.1 -0.1)">
       <defs>
        <path id="DejaVuSans-30" d="M 2034 4250 
Q 1547 4250 1301 3770 
Q 1056 3291 1056 2328 
Q 1056 1369 1301 889 
Q 1547 409 2034 409 
Q 2525 409 2770 889 
Q 3016 1369 3016 2328 
Q 3016 3291 2770 3770 
Q 2525 4250 2034 4250 
z
M 2034 4750 
Q 2819 4750 3233 4129 
Q 3647 3509 3647 2328 
Q 3647 1150 3233 529 
Q 2819 -91 2034 -91 
Q 1250 -91 836 529 
Q 422 1150 422 2328 
Q 422 3509 836 4129 
Q 1250 4750 2034 4750 
z
" transform="scale(0.015625)"/>
       </defs>
       <use xlink:href="#DejaVuSans-30"/>
      </g>
     </g>
    </g>
    <g id="xtick_2">
     <g id="line2d_2">
      <g>
       <use xlink:href="#ma74232f796" x="390.638696" y="768.96" style="stroke: #000000; stroke-width: 0.8"/>
      </g>
     </g>
     <g id="text_2">
      <!-- 100 -->
      <g transform="translate(381.094946 783.558437) scale(0.1 -0.1)">
       <defs>
        <path id="DejaVuSans-31" d="M 794 531 
L 1825 531 
L 1825 4091 
L 703 3866 
L 703 4441 
L 1819 4666 
L 2450 4666 
L 2450 531 
L 3481 531 
L 3481 0 
L 794 0 
L 794 531 
z
" transform="scale(0.015625)"/>
       </defs>
       <use xlink:href="#DejaVuSans-31"/>
       <use xlink:href="#DejaVuSans-30" x="63.623047"/>
       <use xlink:href="#DejaVuSans-30" x="127.246094"/>
      </g>
     </g>
    </g>
    <g id="xtick_3">
     <g id="line2d_3">
      <g>
       <use xlink:href="#ma74232f796" x="573.622846" y="768.96" style="stroke: #000000; stroke-width: 0.8"/>
      </g>
     </g>
     <g id="text_3">
      <!-- 200 -->
      <g transform="translate(564.079096 783.558437) scale(0.1 -0.1)">
       <defs>
        <path id="DejaVuSans-32" d="M 1228 531 
L 3431 531 
L 3431 0 
L 469 0 
L 469 531 
Q 828 903 1448 1529 
Q 2069 2156 2228 2338 
Q 2531 2678 2651 2914 
Q 2772 3150 2772 3378 
Q 2772 3750 2511 3984 
Q 2250 4219 1831 4219 
Q 1534 4219 1204 4116 
Q 875 4013 500 3803 
L 500 4441 
Q 881 4594 1212 4672 
Q 1544 4750 1819 4750 
Q 2544 4750 2975 4387 
Q 3406 4025 3406 3419 
Q 3406 3131 3298 2873 
Q 3191 2616 2906 2266 
Q 2828 2175 2409 1742 
Q 1991 1309 1228 531 
z
" transform="scale(0.015625)"/>
       </defs>
       <use xlink:href="#DejaVuSans-32"/>
       <use xlink:href="#DejaVuSans-30" x="63.623047"/>
       <use xlink:href="#DejaVuSans-30" x="127.246094"/>
      </g>
     </g>
    </g>
    <g id="xtick_4">
     <g id="line2d_4">
      <g>
       <use xlink:href="#ma74232f796" x="756.606996" y="768.96" style="stroke: #000000; stroke-width: 0.8"/>
      </g>
     </g>
     <g id="text_4">
      <!-- 300 -->
      <g transform="translate(747.063246 783.558437) scale(0.1 -0.1)">
       <defs>
        <path id="DejaVuSans-33" d="M 2597 2516 
Q 3050 2419 3304 2112 
Q 3559 1806 3559 1356 
Q 3559 666 3084 287 
Q 2609 -91 1734 -91 
Q 1441 -91 1130 -33 
Q 819 25 488 141 
L 488 750 
Q 750 597 1062 519 
Q 1375 441 1716 441 
Q 2309 441 2620 675 
Q 2931 909 2931 1356 
Q 2931 1769 2642 2001 
Q 2353 2234 1838 2234 
L 1294 2234 
L 1294 2753 
L 1863 2753 
Q 2328 2753 2575 2939 
Q 2822 3125 2822 3475 
Q 2822 3834 2567 4026 
Q 2313 4219 1838 4219 
Q 1578 4219 1281 4162 
Q 984 4106 628 3988 
L 628 4550 
Q 988 4650 1302 4700 
Q 1616 4750 1894 4750 
Q 2613 4750 3031 4423 
Q 3450 4097 3450 3541 
Q 3450 3153 3228 2886 
Q 3006 2619 2597 2516 
z
" transform="scale(0.015625)"/>
       </defs>
       <use xlink:href="#DejaVuSans-33"/>
       <use xlink:href="#DejaVuSans-30" x="63.623047"/>
       <use xlink:href="#DejaVuSans-30" x="127.246094"/>
      </g>
     </g>
    </g>
    <g id="xtick_5">
     <g id="line2d_5">
      <g>
       <use xlink:href="#ma74232f796" x="939.591146" y="768.96" style="stroke: #000000; stroke-width: 0.8"/>
      </g>
     </g>
     <g id="text_5">
      <!-- 400 -->
      <g transform="translate(930.047396 783.558437) scale(0.1 -0.1)">
       <defs>
        <path id="DejaVuSans-34" d="M 2419 4116 
L 825 1625 
L 2419 1625 
L 2419 4116 
z
M 2253 4666 
L 3047 4666 
L 3047 1625 
L 3713 1625 
L 3713 1100 
L 3047 1100 
L 3047 0 
L 2419 0 
L 2419 1100 
L 313 1100 
L 313 1709 
L 2253 4666 
z
" transform="scale(0.015625)"/>
       </defs>
       <use xlink:href="#DejaVuSans-34"/>
       <use xlink:href="#DejaVuSans-30" x="63.623047"/>
       <use xlink:href="#DejaVuSans-30" x="127.246094"/>
      </g>
     </g>
    </g>
    <g id="xtick_6">
     <g id="line2d_6">
      <g>
       <use xlink:href="#ma74232f796" x="1122.575296" y="768.96" style="stroke: #000000; stroke-width: 0.8"/>
      </g>
     </g>
     <g id="text_6">
      <!-- 500 -->
      <g transform="translate(1113.031546 783.558437) scale(0.1 -0.1)">
       <defs>
        <path id="DejaVuSans-35" d="M 691 4666 
L 3169 4666 
L 3169 4134 
L 1269 4134 
L 1269 2991 
Q 1406 3038 1543 3061 
Q 1681 3084 1819 3084 
Q 2600 3084 3056 2656 
Q 3513 2228 3513 1497 
Q 3513 744 3044 326 
Q 2575 -91 1722 -91 
Q 1428 -91 1123 -41 
Q 819 9 494 109 
L 494 744 
Q 775 591 1075 516 
Q 1375 441 1709 441 
Q 2250 441 2565 725 
Q 2881 1009 2881 1497 
Q 2881 1984 2565 2268 
Q 2250 2553 1709 2553 
Q 1456 2553 1204 2497 
Q 953 2441 691 2322 
L 691 4666 
z
" transform="scale(0.015625)"/>
       </defs>
       <use xlink:href="#DejaVuSans-35"/>
       <use xlink:href="#DejaVuSans-30" x="63.623047"/>
       <use xlink:href="#DejaVuSans-30" x="127.246094"/>
      </g>
     </g>
    </g>
   </g>
   <g id="matplotlib.axis_2">
    <g id="ytick_1">
     <g id="line2d_7">
      <defs>
       <path id="maeb7daf18d" d="M 0 0 
L -3.5 0 
" style="stroke: #000000; stroke-width: 0.8"/>
      </defs>
      <g>
       <use xlink:href="#maeb7daf18d" x="162" y="738.72" style="stroke: #000000; stroke-width: 0.8"/>
      </g>
     </g>
     <g id="text_7">
      <!-- 0 -->
      <g transform="translate(148.6375 742.519219) scale(0.1 -0.1)">
       <use xlink:href="#DejaVuSans-30"/>
      </g>
     </g>
    </g>
    <g id="ytick_2">
     <g id="line2d_8">
      <g>
       <use xlink:href="#maeb7daf18d" x="162" y="663.732649" style="stroke: #000000; stroke-width: 0.8"/>
      </g>
     </g>
     <g id="text_8">
      <!-- 10 -->
      <g transform="translate(142.275 667.531868) scale(0.1 -0.1)">
       <use xlink:href="#DejaVuSans-31"/>
       <use xlink:href="#DejaVuSans-30" x="63.623047"/>
      </g>
     </g>
    </g>
    <g id="ytick_3">
     <g id="line2d_9">
      <g>
       <use xlink:href="#maeb7daf18d" x="162" y="588.745298" style="stroke: #000000; stroke-width: 0.8"/>
      </g>
     </g>
     <g id="text_9">
      <!-- 20 -->
      <g transform="translate(142.275 592.544517) scale(0.1 -0.1)">
       <use xlink:href="#DejaVuSans-32"/>
       <use xlink:href="#DejaVuSans-30" x="63.623047"/>
      </g>
     </g>
    </g>
    <g id="ytick_4">
     <g id="line2d_10">
      <g>
       <use xlink:href="#maeb7daf18d" x="162" y="513.757947" style="stroke: #000000; stroke-width: 0.8"/>
      </g>
     </g>
     <g id="text_10">
      <!-- 30 -->
      <g transform="translate(142.275 517.557166) scale(0.1 -0.1)">
       <use xlink:href="#DejaVuSans-33"/>
       <use xlink:href="#DejaVuSans-30" x="63.623047"/>
      </g>
     </g>
    </g>
    <g id="ytick_5">
     <g id="line2d_11">
      <g>
       <use xlink:href="#maeb7daf18d" x="162" y="438.770596" style="stroke: #000000; stroke-width: 0.8"/>
      </g>
     </g>
     <g id="text_11">
      <!-- 40 -->
      <g transform="translate(142.275 442.569815) scale(0.1 -0.1)">
       <use xlink:href="#DejaVuSans-34"/>
       <use xlink:href="#DejaVuSans-30" x="63.623047"/>
      </g>
     </g>
    </g>
    <g id="ytick_6">
     <g id="line2d_12">
      <g>
       <use xlink:href="#maeb7daf18d" x="162" y="363.783245" style="stroke: #000000; stroke-width: 0.8"/>
      </g>
     </g>
     <g id="text_12">
      <!-- 50 -->
      <g transform="translate(142.275 367.582464) scale(0.1 -0.1)">
       <use xlink:href="#DejaVuSans-35"/>
       <use xlink:href="#DejaVuSans-30" x="63.623047"/>
      </g>
     </g>
    </g>
    <g id="ytick_7">
     <g id="line2d_13">
      <g>
       <use xlink:href="#maeb7daf18d" x="162" y="288.795895" style="stroke: #000000; stroke-width: 0.8"/>
      </g>
     </g>
     <g id="text_13">
      <!-- 60 -->
      <g transform="translate(142.275 292.595113) scale(0.1 -0.1)">
       <defs>
        <path id="DejaVuSans-36" d="M 2113 2584 
Q 1688 2584 1439 2293 
Q 1191 2003 1191 1497 
Q 1191 994 1439 701 
Q 1688 409 2113 409 
Q 2538 409 2786 701 
Q 3034 994 3034 1497 
Q 3034 2003 2786 2293 
Q 2538 2584 2113 2584 
z
M 3366 4563 
L 3366 3988 
Q 3128 4100 2886 4159 
Q 2644 4219 2406 4219 
Q 1781 4219 1451 3797 
Q 1122 3375 1075 2522 
Q 1259 2794 1537 2939 
Q 1816 3084 2150 3084 
Q 2853 3084 3261 2657 
Q 3669 2231 3669 1497 
Q 3669 778 3244 343 
Q 2819 -91 2113 -91 
Q 1303 -91 875 529 
Q 447 1150 447 2328 
Q 447 3434 972 4092 
Q 1497 4750 2381 4750 
Q 2619 4750 2861 4703 
Q 3103 4656 3366 4563 
z
" transform="scale(0.015625)"/>
       </defs>
       <use xlink:href="#DejaVuSans-36"/>
       <use xlink:href="#DejaVuSans-30" x="63.623047"/>
      </g>
     </g>
    </g>
    <g id="ytick_8">
     <g id="line2d_14">
      <g>
       <use xlink:href="#maeb7daf18d" x="162" y="213.808544" style="stroke: #000000; stroke-width: 0.8"/>
      </g>
     </g>
     <g id="text_14">
      <!-- 70 -->
      <g transform="translate(142.275 217.607762) scale(0.1 -0.1)">
       <defs>
        <path id="DejaVuSans-37" d="M 525 4666 
L 3525 4666 
L 3525 4397 
L 1831 0 
L 1172 0 
L 2766 4134 
L 525 4134 
L 525 4666 
z
" transform="scale(0.015625)"/>
       </defs>
       <use xlink:href="#DejaVuSans-37"/>
       <use xlink:href="#DejaVuSans-30" x="63.623047"/>
      </g>
     </g>
    </g>
    <g id="ytick_9">
     <g id="line2d_15">
      <g>
       <use xlink:href="#maeb7daf18d" x="162" y="138.821193" style="stroke: #000000; stroke-width: 0.8"/>
      </g>
     </g>
     <g id="text_15">
      <!-- 80 -->
      <g transform="translate(142.275 142.620412) scale(0.1 -0.1)">
       <defs>
        <path id="DejaVuSans-38" d="M 2034 2216 
Q 1584 2216 1326 1975 
Q 1069 1734 1069 1313 
Q 1069 891 1326 650 
Q 1584 409 2034 409 
Q 2484 409 2743 651 
Q 3003 894 3003 1313 
Q 3003 1734 2745 1975 
Q 2488 2216 2034 2216 
z
M 1403 2484 
Q 997 2584 770 2862 
Q 544 3141 544 3541 
Q 544 4100 942 4425 
Q 1341 4750 2034 4750 
Q 2731 4750 3128 4425 
Q 3525 4100 3525 3541 
Q 3525 3141 3298 2862 
Q 3072 2584 2669 2484 
Q 3125 2378 3379 2068 
Q 3634 1759 3634 1313 
Q 3634 634 3220 271 
Q 2806 -91 2034 -91 
Q 1263 -91 848 271 
Q 434 634 434 1313 
Q 434 1759 690 2068 
Q 947 2378 1403 2484 
z
M 1172 3481 
Q 1172 3119 1398 2916 
Q 1625 2713 2034 2713 
Q 2441 2713 2670 2916 
Q 2900 3119 2900 3481 
Q 2900 3844 2670 4047 
Q 2441 4250 2034 4250 
Q 1625 4250 1398 4047 
Q 1172 3844 1172 3481 
z
" transform="scale(0.015625)"/>
       </defs>
       <use xlink:href="#DejaVuSans-38"/>
       <use xlink:href="#DejaVuSans-30" x="63.623047"/>
      </g>
     </g>
    </g>
   </g>
   <g id="line2d_16">
    <path d="M 207.654545 641.236444 
L 209.484387 693.727589 
L 211.314228 626.238974 
L 213.14407 708.72506 
L 214.973911 656.233914 
L 216.803753 738.72 
L 218.633594 506.259212 
L 220.463436 686.228854 
L 222.293277 716.223795 
L 224.123119 663.732649 
L 225.95296 603.742768 
L 227.782802 423.773126 
L 229.612643 626.238974 
L 231.442485 528.755417 
L 233.272326 633.737709 
L 235.102168 536.254153 
L 236.932009 551.251623 
L 238.761851 386.279451 
L 240.591692 521.256682 
L 242.421534 408.775656 
L 244.251375 303.793365 
L 246.081217 176.314868 
L 262.54979 176.314868 
L 264.379632 221.307279 
L 266.209473 281.297159 
L 268.039315 513.757947 
L 269.869156 393.778186 
L 271.698998 176.314868 
L 273.528839 446.269331 
L 275.358681 176.314868 
L 277.188522 348.785775 
L 279.018364 348.785775 
L 282.678047 603.742768 
L 284.507889 296.29463 
L 286.33773 453.768067 
L 288.167572 266.299689 
L 289.997413 176.314868 
L 291.827255 333.788305 
L 293.657096 416.274391 
L 295.486938 176.314868 
L 299.146621 176.314868 
L 300.976462 468.765537 
L 302.806304 176.314868 
L 310.12567 176.314868 
L 311.955511 543.752888 
L 313.785353 198.811073 
L 315.615194 438.770596 
L 317.445036 356.28451 
L 319.274877 176.314868 
L 324.764402 176.314868 
L 326.594243 408.775656 
L 328.424085 431.271861 
L 330.253926 416.274391 
L 332.083768 341.28704 
L 333.913609 296.29463 
L 335.743451 498.760477 
L 337.573292 176.314868 
L 339.403134 558.750358 
L 341.232975 236.304749 
L 343.062817 363.783245 
L 344.892658 543.752888 
L 346.7225 491.261742 
L 348.552341 483.763007 
L 352.212024 288.795895 
L 354.041866 393.778186 
L 355.871707 461.266802 
L 357.701549 461.266802 
L 359.53139 663.732649 
L 361.361232 506.259212 
L 363.191073 453.768067 
L 365.020915 176.314868 
L 366.850756 176.314868 
L 368.680598 371.281981 
L 370.510439 603.742768 
L 372.340281 611.241503 
L 374.170122 566.249093 
L 375.999964 176.314868 
L 377.829805 431.271861 
L 379.659647 483.763007 
L 381.489488 513.757947 
L 383.31933 656.233914 
L 385.149171 573.747828 
L 386.979013 453.768067 
L 388.808854 573.747828 
L 390.638696 513.757947 
L 392.468537 468.765537 
L 394.298379 558.750358 
L 396.12822 588.745298 
L 397.958062 528.755417 
L 399.787903 611.241503 
L 401.617745 401.276921 
L 403.447586 581.246563 
L 405.277428 708.72506 
L 407.107269 483.763007 
L 408.937111 513.757947 
L 410.766952 663.732649 
L 412.596794 506.259212 
L 414.426635 686.228854 
L 416.256477 648.735179 
L 418.086318 701.226325 
L 419.91616 618.740239 
L 421.746001 558.750358 
L 423.575843 656.233914 
L 425.405684 686.228854 
L 427.235526 483.763007 
L 429.065367 318.790835 
L 430.895209 243.803484 
L 432.72505 506.259212 
L 434.554892 401.276921 
L 436.384733 491.261742 
L 438.214575 498.760477 
L 440.044416 558.750358 
L 441.874258 573.747828 
L 443.704099 543.752888 
L 445.533941 641.236444 
L 447.363782 521.256682 
L 449.193624 663.732649 
L 451.023465 176.314868 
L 452.853307 611.241503 
L 454.683148 521.256682 
L 456.51299 611.241503 
L 458.342831 686.228854 
L 460.172673 371.281981 
L 462.002514 176.314868 
L 467.492039 176.314868 
L 469.32188 468.765537 
L 471.151722 513.757947 
L 472.981563 521.256682 
L 474.811405 446.269331 
L 478.471088 198.811073 
L 480.300929 363.783245 
L 482.130771 663.732649 
L 485.790454 528.755417 
L 487.620295 701.226325 
L 489.450137 671.231384 
L 491.279978 588.745298 
L 493.10982 603.742768 
L 494.939661 176.314868 
L 496.769503 588.745298 
L 498.599344 326.28957 
L 500.429186 491.261742 
L 502.259027 243.803484 
L 504.088869 513.757947 
L 505.91871 528.755417 
L 507.748552 588.745298 
L 509.578393 176.314868 
L 511.408235 528.755417 
L 513.238076 453.768067 
L 515.067918 543.752888 
L 516.897759 423.773126 
L 518.727601 453.768067 
L 520.557442 641.236444 
L 522.387284 596.244033 
L 524.217125 378.780716 
L 526.046967 663.732649 
L 527.876808 506.259212 
L 529.70665 738.72 
L 531.536491 626.238974 
L 533.366333 288.795895 
L 535.196174 378.780716 
L 537.026016 536.254153 
L 538.855857 708.72506 
L 540.685699 416.274391 
L 542.51554 528.755417 
L 544.345382 738.72 
L 546.175223 738.72 
L 548.005065 641.236444 
L 549.834906 716.223795 
L 551.664748 611.241503 
L 553.494589 701.226325 
L 555.324431 618.740239 
L 557.154272 686.228854 
L 558.984114 663.732649 
L 560.813955 738.72 
L 562.643797 671.231384 
L 564.473638 701.226325 
L 566.30348 671.231384 
L 568.133321 656.233914 
L 569.963163 701.226325 
L 571.793004 693.727589 
L 573.622846 678.730119 
L 575.452687 701.226325 
L 577.282529 641.236444 
L 579.11237 686.228854 
L 580.942212 671.231384 
L 582.772053 498.760477 
L 584.601895 693.727589 
L 586.431736 656.233914 
L 588.261578 678.730119 
L 590.091419 663.732649 
L 591.921261 566.249093 
L 593.751102 266.299689 
L 595.580944 281.297159 
L 597.410785 176.314868 
L 599.240627 513.757947 
L 601.070468 213.808544 
L 602.90031 311.2921 
L 604.730151 176.314868 
L 606.559993 176.314868 
L 608.389834 528.755417 
L 610.219676 176.314868 
L 613.879359 176.314868 
L 615.7092 303.793365 
L 617.539042 551.251623 
L 619.368883 176.314868 
L 621.198725 393.778186 
L 623.028566 408.775656 
L 624.858408 386.279451 
L 626.688249 431.271861 
L 628.518091 176.314868 
L 630.347932 176.314868 
L 632.177774 266.299689 
L 634.007615 258.800954 
L 635.837457 663.732649 
L 637.667298 513.757947 
L 639.49714 176.314868 
L 644.986664 176.314868 
L 646.816506 311.2921 
L 648.646347 401.276921 
L 650.476189 498.760477 
L 652.30603 228.806014 
L 654.135872 251.302219 
L 655.965713 176.314868 
L 657.795555 213.808544 
L 659.625396 408.775656 
L 661.455238 191.312338 
L 663.285079 738.72 
L 665.114921 348.785775 
L 666.944762 401.276921 
L 668.774604 476.264272 
L 670.604445 176.314868 
L 672.434287 416.274391 
L 674.264128 506.259212 
L 676.09397 296.29463 
L 677.923811 176.314868 
L 679.753653 401.276921 
L 681.583494 431.271861 
L 683.413336 611.241503 
L 685.243177 438.770596 
L 687.073019 738.72 
L 688.90286 633.737709 
L 690.732702 446.269331 
L 692.562543 348.785775 
L 694.392385 393.778186 
L 696.222226 596.244033 
L 698.052068 506.259212 
L 699.881909 581.246563 
L 701.711751 476.264272 
L 703.541592 626.238974 
L 705.371434 641.236444 
L 707.201275 581.246563 
L 709.031117 558.750358 
L 710.860958 498.760477 
L 712.6908 663.732649 
L 714.520641 581.246563 
L 718.180324 671.231384 
L 721.840007 596.244033 
L 723.669849 603.742768 
L 725.49969 648.735179 
L 727.329532 603.742768 
L 729.159373 596.244033 
L 730.989215 723.72253 
L 732.819056 738.72 
L 734.648898 686.228854 
L 736.478739 716.223795 
L 738.308581 716.223795 
L 740.138422 611.241503 
L 741.968264 633.737709 
L 743.798105 738.72 
L 745.627947 543.752888 
L 747.457788 708.72506 
L 749.28763 731.221265 
L 751.117471 723.72253 
L 752.947313 701.226325 
L 754.777154 551.251623 
L 756.606996 626.238974 
L 758.436837 558.750358 
L 760.266679 476.264272 
L 762.09652 528.755417 
L 763.926362 506.259212 
L 765.756203 363.783245 
L 767.586045 468.765537 
L 769.415886 341.28704 
L 771.245728 506.259212 
L 773.075569 513.757947 
L 774.905411 386.279451 
L 776.735252 176.314868 
L 778.565094 281.297159 
L 780.394935 176.314868 
L 782.224777 191.312338 
L 784.054618 438.770596 
L 785.88446 176.314868 
L 787.714301 288.795895 
L 789.544143 296.29463 
L 791.373984 273.798424 
L 793.203826 176.314868 
L 795.033667 521.256682 
L 796.863509 176.314868 
L 798.69335 371.281981 
L 800.523192 326.28957 
L 802.353033 176.314868 
L 804.182875 311.2921 
L 806.012716 176.314868 
L 807.842558 288.795895 
L 809.672399 176.314868 
L 811.502241 176.314868 
L 813.332082 206.309809 
L 815.161924 348.785775 
L 816.991765 176.314868 
L 822.48129 176.314868 
L 824.311131 356.28451 
L 826.140973 416.274391 
L 827.970814 393.778186 
L 829.800656 416.274391 
L 831.630497 176.314868 
L 833.460339 401.276921 
L 835.29018 603.742768 
L 837.120022 461.266802 
L 838.949863 356.28451 
L 840.779705 588.745298 
L 842.609546 296.29463 
L 844.439388 476.264272 
L 846.269229 288.795895 
L 848.099071 176.314868 
L 849.928912 176.314868 
L 851.758754 506.259212 
L 853.588595 228.806014 
L 855.418437 378.780716 
L 857.248278 461.266802 
L 859.07812 393.778186 
L 860.907961 483.763007 
L 862.737803 198.811073 
L 864.567644 416.274391 
L 866.397486 588.745298 
L 868.227327 416.274391 
L 870.057169 371.281981 
L 871.88701 543.752888 
L 873.716852 596.244033 
L 875.546693 543.752888 
L 877.376535 498.760477 
L 879.206376 558.750358 
L 881.036218 588.745298 
L 882.866059 528.755417 
L 884.695901 378.780716 
L 886.525742 648.735179 
L 888.355584 521.256682 
L 890.185425 588.745298 
L 892.015267 198.811073 
L 893.845108 716.223795 
L 895.67495 731.221265 
L 897.504791 536.254153 
L 899.334633 498.760477 
L 901.164474 678.730119 
L 902.994316 731.221265 
L 904.824157 611.241503 
L 906.653999 596.244033 
L 908.48384 716.223795 
L 910.313682 656.233914 
L 912.143523 648.735179 
L 913.973365 528.755417 
L 915.803206 566.249093 
L 917.633048 738.72 
L 919.462889 693.727589 
L 921.292731 656.233914 
L 923.122572 461.266802 
L 924.952414 641.236444 
L 926.782255 641.236444 
L 928.612097 543.752888 
L 930.441938 543.752888 
L 932.27178 671.231384 
L 934.101621 573.747828 
L 935.931463 701.226325 
L 937.761304 723.72253 
L 939.591146 468.765537 
L 941.420987 506.259212 
L 943.250829 618.740239 
L 945.08067 363.783245 
L 946.910512 543.752888 
L 948.740353 176.314868 
L 950.570195 431.271861 
L 952.400036 378.780716 
L 954.229878 356.28451 
L 956.059719 176.314868 
L 957.889561 281.297159 
L 959.719402 258.800954 
L 961.549244 176.314868 
L 963.379085 273.798424 
L 965.208927 176.314868 
L 972.528293 176.314868 
L 974.358134 311.2921 
L 976.187976 311.2921 
L 978.017817 176.314868 
L 979.847659 176.314868 
L 981.6775 678.730119 
L 983.507342 326.28957 
L 985.337183 393.778186 
L 987.167025 521.256682 
L 988.996866 401.276921 
L 990.826708 176.314868 
L 996.316232 176.314868 
L 998.146074 341.28704 
L 999.975915 183.813603 
L 1001.805757 581.246563 
L 1003.635598 311.2921 
L 1005.46544 363.783245 
L 1007.295281 176.314868 
L 1010.954964 543.752888 
L 1012.784806 483.763007 
L 1014.614647 228.806014 
L 1016.444489 176.314868 
L 1018.27433 483.763007 
L 1020.104172 176.314868 
L 1021.934013 326.28957 
L 1023.763855 371.281981 
L 1025.593696 176.314868 
L 1029.253379 176.314868 
L 1031.083221 191.312338 
L 1032.913062 498.760477 
L 1034.742904 536.254153 
L 1036.572745 176.314868 
L 1038.402587 521.256682 
L 1040.232428 566.249093 
L 1042.06227 596.244033 
L 1043.892111 378.780716 
L 1045.721953 536.254153 
L 1047.551794 326.28957 
L 1049.381636 536.254153 
L 1051.211478 198.811073 
L 1053.041319 596.244033 
L 1054.871161 588.745298 
L 1056.701002 476.264272 
L 1058.530844 393.778186 
L 1060.360685 716.223795 
L 1062.190527 476.264272 
L 1064.020368 318.790835 
L 1065.85021 243.803484 
L 1069.509893 596.244033 
L 1071.339734 423.773126 
L 1073.169576 378.780716 
L 1074.999417 416.274391 
L 1076.829259 611.241503 
L 1078.6591 536.254153 
L 1080.488942 468.765537 
L 1082.318783 326.28957 
L 1084.148625 551.251623 
L 1085.978466 641.236444 
L 1087.808308 596.244033 
L 1089.638149 543.752888 
L 1091.467991 438.770596 
L 1093.297832 476.264272 
L 1095.127674 551.251623 
L 1096.957515 176.314868 
L 1098.787357 438.770596 
L 1100.617198 311.2921 
L 1102.44704 491.261742 
L 1104.276881 476.264272 
L 1106.106723 618.740239 
L 1107.936564 528.755417 
L 1109.766406 521.256682 
L 1111.596247 423.773126 
L 1113.426089 536.254153 
L 1117.085772 326.28957 
L 1118.915613 581.246563 
L 1120.745455 461.266802 
L 1120.745455 461.266802 
" clip-path="url(#p1c72ac07fc)" style="fill: none; stroke: #4169e1; stroke-linecap: square"/>
   </g>
   <g id="line2d_17">
    <path d="M 207.654545 660.317035 
L 209.484387 670.781321 
L 213.14407 645.593197 
L 214.973911 670.763829 
L 216.803753 661.972373 
L 218.633594 652.557676 
L 220.463436 622.026899 
L 222.293277 645.000758 
L 224.123119 638.568597 
L 225.95296 641.910645 
L 227.782802 623.350092 
L 229.612643 554.93301 
L 231.442485 539.553486 
L 233.272326 541.431559 
L 235.102168 571.32711 
L 236.932009 570.31475 
L 238.761851 550.808854 
L 242.421534 330.697691 
L 244.251375 319.507229 
L 246.081217 220.548663 
L 247.911058 242.658982 
L 249.7409 266.332729 
L 251.570741 271.820218 
L 253.400583 207.867087 
L 255.230424 281.136597 
L 257.060266 261.662868 
L 258.890107 219.426759 
L 260.719949 181.199699 
L 262.54979 253.215577 
L 264.379632 299.89585 
L 266.209473 334.695411 
L 268.039315 326.621393 
L 269.869156 365.814944 
L 271.698998 348.936297 
L 273.528839 273.581052 
L 275.358681 189.007429 
L 277.188522 235.485605 
L 279.018364 316.653611 
L 280.848206 356.599656 
L 282.678047 374.938524 
L 284.507889 417.787016 
L 286.33773 348.508703 
L 288.167572 285.925142 
L 289.997413 185.447144 
L 291.827255 249.060356 
L 293.657096 285.616833 
L 295.486938 345.554394 
L 297.316779 313.90938 
L 299.146621 326.358881 
L 300.976462 290.564223 
L 302.806304 321.404454 
L 304.636145 162.164061 
L 306.465987 304.669005 
L 308.295828 344.05939 
L 310.12567 311.517425 
L 311.955511 250.859293 
L 313.785353 435.750323 
L 315.615194 311.146069 
L 317.445036 337.096863 
L 319.274877 243.381097 
L 322.93456 420.49755 
L 324.764402 396.687727 
L 326.594243 303.095765 
L 328.424085 460.567943 
L 330.253926 458.649579 
L 332.083768 377.943407 
L 333.913609 269.850593 
L 335.743451 464.688122 
L 337.573292 497.698702 
L 339.403134 460.109827 
L 341.232975 415.401411 
L 343.062817 519.700534 
L 344.892658 509.470441 
L 346.7225 549.230737 
L 348.552341 346.998796 
L 350.382183 463.771806 
L 352.212024 555.651449 
L 354.041866 553.421672 
L 355.871707 531.806827 
L 357.701549 578.222958 
L 359.53139 530.338255 
L 361.361232 542.185326 
L 363.191073 499.753671 
L 365.020915 582.10976 
L 366.850756 563.539761 
L 368.680598 492.562115 
L 370.510439 366.4035 
L 374.170122 622.529225 
L 375.999964 663.680573 
L 377.829805 472.57283 
L 379.659647 435.458062 
L 381.489488 509.647465 
L 383.31933 478.916021 
L 385.149171 568.440052 
L 386.979013 575.6488 
L 388.808854 527.744746 
L 390.638696 524.826322 
L 392.468537 498.191287 
L 394.298379 484.986088 
L 396.12822 563.730173 
L 397.958062 594.37304 
L 399.787903 631.40039 
L 401.617745 604.58361 
L 403.447586 526.673459 
L 405.277428 521.113326 
L 407.107269 541.186053 
L 408.937111 552.473159 
L 410.766952 572.917528 
L 412.596794 562.414224 
L 414.426635 537.685238 
L 416.256477 521.347161 
L 418.086318 405.405281 
L 419.91616 510.794785 
L 421.746001 499.505305 
L 423.575843 587.32966 
L 425.405684 579.924664 
L 427.235526 584.747507 
L 429.065367 444.448426 
L 430.895209 403.537978 
L 432.72505 301.251918 
L 434.554892 238.378412 
L 436.384733 225.160484 
L 438.214575 341.838467 
L 440.044416 420.042152 
L 441.874258 474.388587 
L 443.704099 439.50976 
L 445.533941 410.021164 
L 447.363782 413.790355 
L 449.193624 334.361872 
L 451.023465 282.374296 
L 452.853307 323.39456 
L 454.683148 408.276177 
L 456.51299 471.366741 
L 458.342831 461.700317 
L 460.172673 494.759382 
L 462.002514 399.720186 
L 463.832356 255.563681 
L 465.662197 196.843765 
L 467.492039 255.775189 
L 469.32188 293.746289 
L 471.151722 345.079173 
L 472.981563 374.20388 
L 474.811405 376.732712 
L 476.641246 345.202462 
L 478.471088 303.855982 
L 480.300929 211.258486 
L 482.130771 379.886515 
L 483.960612 505.123249 
L 485.790454 544.688556 
L 487.620295 450.241507 
L 489.450137 581.151278 
L 491.279978 562.107488 
L 493.10982 533.814183 
L 494.939661 460.810545 
L 496.769503 471.475756 
L 498.599344 495.814635 
L 500.429186 513.777413 
L 502.259027 332.72653 
L 504.088869 486.216435 
L 505.91871 484.195492 
L 507.748552 460.824762 
L 509.578393 246.798127 
L 511.408235 495.565768 
L 513.238076 538.265785 
L 515.067918 542.004482 
L 516.897759 373.465975 
L 518.727601 584.179003 
L 520.557442 573.172631 
L 522.387284 568.191557 
L 524.217125 448.675303 
L 526.046967 511.917662 
L 527.876808 549.378326 
L 529.70665 571.90205 
L 531.536491 552.674885 
L 533.366333 613.606698 
L 535.196174 540.84891 
L 538.855857 375.786445 
L 540.685699 466.751259 
L 544.345382 619.847096 
L 546.175223 629.351556 
L 548.005065 682.850749 
L 549.834906 659.740407 
L 551.664748 670.286111 
L 553.494589 637.846975 
L 555.324431 649.875262 
L 557.154272 644.550416 
L 558.984114 649.97837 
L 560.813955 652.606305 
L 562.643797 652.958395 
L 564.473638 656.148684 
L 566.30348 663.497026 
L 568.133321 661.405035 
L 569.963163 656.718397 
L 571.793004 659.280332 
L 573.622846 666.738956 
L 575.452687 668.64778 
L 577.282529 658.071332 
L 579.11237 640.786738 
L 580.942212 644.571555 
L 582.772053 608.784328 
L 584.601895 584.272314 
L 586.431736 596.918306 
L 588.261578 578.351596 
L 590.091419 598.884112 
L 591.921261 565.826777 
L 593.751102 449.126639 
L 595.580944 346.922677 
L 597.410785 252.905094 
L 599.240627 280.389167 
L 601.070468 325.119609 
L 602.90031 308.221853 
L 604.730151 217.912447 
L 606.559993 313.707941 
L 608.389834 272.474824 
L 610.219676 266.12102 
L 612.049517 182.892166 
L 613.879359 255.268587 
L 615.7092 316.294499 
L 617.539042 361.23356 
L 619.368883 364.070673 
L 621.198725 357.303721 
L 623.028566 349.176582 
L 624.858408 294.546267 
L 626.688249 209.292723 
L 628.518091 341.183517 
L 630.347932 302.265064 
L 632.177774 299.959983 
L 634.007615 314.337317 
L 635.837457 366.286276 
L 637.667298 365.998705 
L 639.49714 327.852741 
L 641.326981 214.67031 
L 643.156823 296.957159 
L 644.986664 293.362147 
L 646.816506 333.937454 
L 648.646347 353.792808 
L 650.476189 350.696988 
L 652.30603 356.616991 
L 654.135872 299.455555 
L 655.965713 213.89682 
L 657.795555 339.724213 
L 659.625396 337.245926 
L 661.455238 385.944596 
L 663.285079 280.35813 
L 665.114921 492.777342 
L 666.944762 448.586512 
L 668.774604 392.593693 
L 670.604445 359.950894 
L 672.434287 367.07567 
L 674.264128 439.019606 
L 676.09397 432.284407 
L 677.923811 300.043768 
L 679.753653 463.295268 
L 681.583494 492.571669 
L 683.413336 361.317145 
L 685.243177 249.985627 
L 687.073019 435.150954 
L 688.90286 468.938914 
L 690.732702 518.790553 
L 692.562543 490.014318 
L 694.392385 571.108322 
L 696.222226 571.174629 
L 698.052068 533.333784 
L 699.881909 370.907679 
L 701.711751 443.822025 
L 703.541592 538.580902 
L 705.371434 524.044536 
L 707.201275 555.774895 
L 709.031117 592.399581 
L 710.860958 539.268347 
L 712.6908 496.345123 
L 714.520641 384.967292 
L 716.350483 573.162204 
L 718.180324 619.983687 
L 720.010166 661.2797 
L 721.840007 674.955701 
L 723.669849 659.57667 
L 725.49969 650.080112 
L 727.329532 653.179243 
L 729.159373 669.463649 
L 730.989215 650.931387 
L 732.819056 652.585195 
L 734.648898 658.665802 
L 736.478739 645.937706 
L 738.308581 642.967793 
L 740.138422 646.867382 
L 741.968264 618.394943 
L 743.798105 628.698581 
L 745.627947 627.479125 
L 747.457788 614.981674 
L 749.28763 624.721543 
L 751.117471 618.374375 
L 752.947313 633.616107 
L 754.777154 626.495607 
L 756.606996 574.393981 
L 758.436837 570.965266 
L 760.266679 564.274476 
L 762.09652 532.949885 
L 763.926362 508.54168 
L 765.756203 489.603058 
L 767.586045 431.267714 
L 769.415886 337.943126 
L 771.245728 339.631159 
L 773.075569 261.527392 
L 774.905411 372.498769 
L 776.735252 398.342493 
L 778.565094 322.983243 
L 780.394935 241.425631 
L 782.224777 274.988867 
L 784.054618 247.58529 
L 785.88446 263.778724 
L 787.714301 211.308946 
L 789.544143 284.988172 
L 791.373984 348.467426 
L 793.203826 382.538836 
L 795.033667 304.702902 
L 796.863509 352.90707 
L 798.69335 335.861081 
L 800.523192 312.790994 
L 802.353033 210.611375 
L 804.182875 232.717402 
L 806.012716 310.655172 
L 807.842558 322.440684 
L 809.672399 312.886136 
L 811.502241 327.108228 
L 813.332082 297.003557 
L 815.161924 246.825359 
L 816.991765 211.441389 
L 818.821607 263.722829 
L 820.651448 294.061892 
L 822.48129 334.060199 
L 824.311131 314.971298 
L 826.140973 336.925488 
L 827.970814 335.297955 
L 829.800656 330.223757 
L 831.630497 251.656869 
L 833.460339 365.251475 
L 835.29018 415.090442 
L 837.120022 525.38736 
L 838.949863 399.897368 
L 842.609546 484.2741 
L 844.439388 319.412459 
L 846.269229 225.62904 
L 848.099071 421.979625 
L 849.928912 433.901671 
L 851.758754 471.317911 
L 853.588595 356.704295 
L 855.418437 409.679415 
L 857.248278 411.35738 
L 859.07812 418.86381 
L 860.907961 236.777024 
L 862.737803 444.469336 
L 864.567644 488.196644 
L 866.397486 526.577202 
L 868.227327 437.047578 
L 870.057169 508.115817 
L 871.88701 523.95164 
L 873.716852 541.687263 
L 875.546693 336.91868 
L 877.376535 450.334875 
L 879.206376 515.338739 
L 881.036218 547.250127 
L 882.866059 515.696965 
L 884.695901 557.876434 
L 886.525742 515.009806 
L 888.355584 567.851339 
L 890.185425 426.048286 
L 892.015267 565.639812 
L 893.845108 535.393344 
L 895.67495 655.29364 
L 897.504791 677.059485 
L 899.334633 554.176497 
L 901.164474 602.982751 
L 902.994316 617.953004 
L 904.824157 648.269354 
L 906.653999 615.775002 
L 908.48384 625.633068 
L 910.313682 649.503563 
L 912.143523 644.832923 
L 913.973365 626.826743 
L 915.803206 587.803165 
L 917.633048 582.976632 
L 919.462889 616.908792 
L 921.292731 628.370977 
L 923.122572 617.120458 
L 924.952414 581.47389 
L 926.782255 620.670567 
L 928.612097 602.544159 
L 930.441938 598.663006 
L 932.27178 593.69655 
L 934.101621 578.699123 
L 935.931463 566.185975 
L 937.761304 585.272817 
L 939.591146 581.730424 
L 941.420987 511.252929 
L 943.250829 536.310834 
L 945.08067 477.737021 
L 946.910512 381.499316 
L 948.740353 371.42578 
L 950.570195 348.271593 
L 952.400036 360.517452 
L 954.229878 393.372218 
L 956.059719 267.793893 
L 957.889561 293.622084 
L 959.719402 279.056241 
L 961.549244 248.008135 
L 963.379085 198.214651 
L 965.208927 289.901093 
L 967.038768 317.691873 
L 968.86861 337.57034 
L 970.698451 307.493931 
L 972.528293 351.530178 
L 974.358134 318.27631 
L 976.187976 305.568645 
L 978.017817 219.978787 
L 979.847659 237.704354 
L 981.6775 292.053278 
L 983.507342 513.061563 
L 985.337183 384.437835 
L 987.167025 412.755526 
L 988.996866 379.602291 
L 990.826708 338.365513 
L 992.656549 189.558884 
L 994.486391 265.018825 
L 998.146074 341.105253 
L 999.975915 348.004075 
L 1001.805757 338.378757 
L 1003.635598 339.379575 
L 1005.46544 303.920888 
L 1007.295281 239.547114 
L 1009.125123 366.610489 
L 1010.954964 379.541019 
L 1012.784806 458.452402 
L 1014.614647 352.677054 
L 1016.444489 374.444165 
L 1018.27433 361.869344 
L 1020.104172 325.093149 
L 1021.934013 201.401579 
L 1023.763855 383.341075 
L 1025.593696 445.079547 
L 1027.423538 431.805323 
L 1029.253379 358.789285 
L 1031.083221 400.949246 
L 1032.913062 320.126278 
L 1034.742904 336.26293 
L 1036.572745 255.631647 
L 1038.402587 407.269438 
L 1040.232428 517.611567 
L 1042.06227 507.554222 
L 1043.892111 366.402385 
L 1045.721953 541.463297 
L 1047.551794 568.979979 
L 1049.381636 504.624084 
L 1051.211478 323.980342 
L 1053.041319 426.267861 
L 1054.871161 483.175452 
L 1056.701002 550.960663 
L 1058.530844 467.312468 
L 1060.360685 529.397838 
L 1062.190527 575.614917 
L 1064.020368 496.364946 
L 1065.85021 408.983188 
L 1067.680051 513.350106 
L 1069.509893 483.390822 
L 1071.339734 537.253983 
L 1073.169576 476.749992 
L 1074.999417 478.019785 
L 1076.829259 482.311969 
L 1078.6591 448.705425 
L 1080.488942 499.309729 
L 1082.318783 463.715024 
L 1084.148625 455.651189 
L 1085.978466 392.402981 
L 1087.808308 490.058971 
L 1089.638149 575.820962 
L 1091.467991 545.642003 
L 1093.297832 498.345041 
L 1095.127674 466.729576 
L 1096.957515 407.363836 
L 1098.787357 420.405011 
L 1100.617198 411.203797 
L 1102.44704 479.160712 
L 1104.276881 477.943752 
L 1106.106723 488.861806 
L 1107.936564 491.92842 
L 1109.766406 501.041286 
L 1111.596247 489.684497 
L 1113.426089 499.698506 
L 1115.25593 487.251836 
L 1117.085772 488.956175 
L 1118.915613 459.15189 
L 1120.745455 420.883094 
L 1120.745455 420.883094 
" clip-path="url(#p1c72ac07fc)" style="fill: none; stroke: #ff6347; stroke-linecap: square"/>
   </g>
   <g id="line2d_18">
    <path d="M 207.654545 527.448136 
L 209.484387 628.889443 
L 211.314228 664.274385 
L 213.14407 579.912593 
L 214.973911 667.429712 
L 216.803753 641.893424 
L 218.633594 678.410254 
L 220.463436 619.767902 
L 222.293277 662.894475 
L 224.123119 672.029296 
L 225.95296 620.378871 
L 227.782802 626.007256 
L 229.612643 554.429898 
L 231.442485 578.926193 
L 233.272326 371.121275 
L 235.102168 504.28162 
L 236.932009 431.017559 
L 238.761851 409.506982 
L 240.591692 314.442642 
L 242.421534 238.642325 
L 244.251375 301.634744 
L 246.081217 220.482299 
L 247.911058 220.025013 
L 249.7409 206.547577 
L 251.570741 182.60594 
L 253.400583 133.92 
L 255.230424 180.81261 
L 257.060266 156.696653 
L 258.890107 159.497808 
L 260.719949 152.282553 
L 262.54979 165.954735 
L 264.379632 200.339975 
L 266.209473 223.968382 
L 268.039315 237.678209 
L 269.869156 383.485075 
L 271.698998 369.965903 
L 273.528839 287.803344 
L 275.358681 272.816229 
L 277.188522 252.110779 
L 279.018364 280.855149 
L 280.848206 304.159514 
L 282.678047 357.946828 
L 284.507889 441.209922 
L 286.33773 356.083214 
L 288.167572 345.19019 
L 289.997413 245.138498 
L 291.827255 199.449203 
L 293.657096 243.924771 
L 295.486938 317.924806 
L 297.316779 255.61271 
L 299.146621 241.321679 
L 300.976462 186.345639 
L 302.806304 267.756648 
L 304.636145 221.900498 
L 306.465987 277.801436 
L 308.295828 280.123566 
L 310.12567 236.664548 
L 311.955511 248.375257 
L 313.785353 345.511114 
L 315.615194 359.875976 
L 317.445036 399.0342 
L 319.274877 369.989874 
L 321.104719 296.840078 
L 322.93456 352.836901 
L 324.764402 324.191106 
L 326.594243 284.186305 
L 328.424085 347.216998 
L 330.253926 371.572583 
L 332.083768 373.317055 
L 333.913609 340.251124 
L 335.743451 342.887598 
L 337.573292 381.670891 
L 339.403134 313.637285 
L 341.232975 446.792753 
L 343.062817 381.717003 
L 344.892658 389.366775 
L 346.7225 437.335807 
L 348.552341 356.250699 
L 350.382183 424.312395 
L 352.212024 451.841407 
L 354.041866 416.465018 
L 355.871707 420.440825 
L 357.701549 434.659313 
L 359.53139 425.758341 
L 361.361232 530.904213 
L 363.191073 509.98222 
L 365.020915 530.882043 
L 366.850756 456.998818 
L 368.680598 416.133281 
L 370.510439 414.739826 
L 372.340281 507.469922 
L 374.170122 573.02527 
L 377.829805 501.722395 
L 379.659647 511.929375 
L 381.489488 506.054083 
L 383.31933 418.109914 
L 385.149171 540.677077 
L 386.979013 412.364776 
L 388.808854 340.854956 
L 390.638696 524.524135 
L 392.468537 473.182726 
L 394.298379 498.860839 
L 396.12822 546.772932 
L 397.958062 558.140634 
L 399.787903 532.643407 
L 401.617745 549.938249 
L 403.447586 480.464804 
L 405.277428 474.164378 
L 407.107269 564.404574 
L 408.937111 405.311141 
L 410.766952 438.961824 
L 412.596794 480.889022 
L 414.426635 376.834576 
L 416.256477 455.160292 
L 418.086318 457.624533 
L 419.91616 518.633982 
L 421.746001 488.353116 
L 423.575843 468.590758 
L 425.405684 507.811141 
L 427.235526 525.982309 
L 429.065367 479.881683 
L 430.895209 423.474657 
L 432.72505 425.119697 
L 436.384733 352.921259 
L 438.214575 345.61192 
L 440.044416 403.48214 
L 441.874258 416.882971 
L 443.704099 431.63372 
L 445.533941 420.694956 
L 447.363782 423.178992 
L 449.193624 400.464585 
L 451.023465 315.853861 
L 452.853307 249.074373 
L 456.51299 487.652255 
L 458.342831 402.761999 
L 460.172673 459.568098 
L 462.002514 451.326996 
L 463.832356 291.884534 
L 465.662197 329.153886 
L 467.492039 188.700837 
L 469.32188 213.862265 
L 471.151722 341.468112 
L 472.981563 358.216376 
L 474.811405 297.514135 
L 476.641246 340.856014 
L 478.471088 354.47519 
L 480.300929 293.822436 
L 482.130771 360.426458 
L 483.960612 451.264178 
L 485.790454 497.713491 
L 487.620295 497.04421 
L 489.450137 554.312358 
L 491.279978 576.494161 
L 493.10982 594.817124 
L 494.939661 601.880156 
L 496.769503 426.259193 
L 498.599344 517.923423 
L 500.429186 399.493517 
L 502.259027 437.16775 
L 504.088869 399.616949 
L 505.91871 436.690068 
L 507.748552 450.349864 
L 509.578393 415.064468 
L 511.408235 390.491082 
L 513.238076 471.320686 
L 515.067918 455.430899 
L 516.897759 448.883808 
L 518.727601 492.570783 
L 520.557442 477.885912 
L 522.387284 526.643323 
L 524.217125 490.310183 
L 526.046967 484.386204 
L 527.876808 587.934807 
L 529.70665 507.781048 
L 531.536491 591.738639 
L 533.366333 594.533487 
L 535.196174 507.179291 
L 537.026016 512.949859 
L 538.855857 455.378665 
L 540.685699 500.679227 
L 542.51554 549.203547 
L 544.345382 611.639719 
L 546.175223 681.287364 
L 548.005065 708.104422 
L 549.834906 669.640638 
L 551.664748 662.32384 
L 553.494589 652.713018 
L 555.324431 657.923406 
L 557.154272 669.887617 
L 558.984114 644.971409 
L 560.813955 678.356268 
L 562.643797 650.776132 
L 564.473638 658.798725 
L 568.133321 650.733173 
L 569.963163 652.31822 
L 571.793004 672.853704 
L 573.622846 674.135247 
L 575.452687 656.588735 
L 579.11237 634.419633 
L 580.942212 639.879668 
L 582.772053 643.981955 
L 584.601895 516.115905 
L 586.431736 518.834763 
L 588.261578 525.93501 
L 590.091419 495.938468 
L 591.921261 507.764529 
L 593.751102 454.49739 
L 595.580944 412.206874 
L 597.410785 316.442961 
L 599.240627 271.573954 
L 601.070468 375.693334 
L 602.90031 273.584856 
L 604.730151 235.105725 
L 606.559993 264.019724 
L 608.389834 199.129394 
L 610.219676 339.967187 
L 612.049517 195.815229 
L 613.879359 199.092608 
L 615.7092 236.21201 
L 617.539042 291.241685 
L 619.368883 402.864263 
L 621.198725 349.497134 
L 623.028566 329.45144 
L 624.858408 323.049722 
L 626.688249 260.964438 
L 628.518091 353.003785 
L 630.347932 300.786422 
L 632.177774 305.134214 
L 634.007615 279.500483 
L 635.837457 297.099385 
L 637.667298 398.964689 
L 639.49714 396.011438 
L 641.326981 214.965175 
L 643.156823 338.643901 
L 644.986664 231.204405 
L 646.816506 265.821922 
L 648.646347 280.873914 
L 650.476189 333.997582 
L 652.30603 383.39348 
L 654.135872 312.935394 
L 655.965713 304.582388 
L 657.795555 279.194948 
L 659.625396 270.268861 
L 661.455238 344.935316 
L 663.285079 272.729526 
L 665.114921 409.172871 
L 666.944762 426.788479 
L 668.774604 405.323956 
L 670.604445 511.603546 
L 672.434287 299.96496 
L 674.264128 404.980863 
L 676.09397 446.070438 
L 677.923811 347.955189 
L 679.753653 355.648155 
L 681.583494 398.009554 
L 683.413336 374.986209 
L 685.243177 386.65175 
L 687.073019 429.009546 
L 688.90286 519.355353 
L 690.732702 576.948744 
L 692.562543 503.851724 
L 694.392385 520.427297 
L 696.222226 479.666827 
L 698.052068 494.865136 
L 699.881909 415.919198 
L 701.711751 489.417351 
L 703.541592 497.986415 
L 705.371434 559.642088 
L 707.201275 574.561037 
L 709.031117 562.937259 
L 710.860958 549.60993 
L 712.6908 522.95397 
L 714.520641 525.561953 
L 716.350483 541.708817 
L 718.180324 571.949907 
L 720.010166 617.589457 
L 721.840007 622.490765 
L 723.669849 614.445423 
L 725.49969 604.310228 
L 727.329532 600.701985 
L 729.159373 596.296767 
L 730.989215 610.13805 
L 732.819056 658.227739 
L 734.648898 677.897981 
L 736.478739 675.225199 
L 738.308581 663.933545 
L 740.138422 627.881868 
L 741.968264 634.274618 
L 743.798105 637.840854 
L 745.627947 657.784034 
L 747.457788 642.055309 
L 749.28763 669.997447 
L 751.117471 641.056494 
L 752.947313 644.401474 
L 754.777154 640.054697 
L 756.606996 629.502178 
L 758.436837 602.953717 
L 760.266679 519.465712 
L 762.09652 423.370362 
L 763.926362 384.744828 
L 765.756203 311.377516 
L 767.586045 301.8865 
L 769.415886 355.767925 
L 771.245728 294.372633 
L 773.075569 357.074048 
L 774.905411 434.644467 
L 776.735252 345.26465 
L 778.565094 281.128159 
L 780.394935 275.75901 
L 782.224777 287.336618 
L 784.054618 244.174668 
L 785.88446 288.174414 
L 787.714301 225.192751 
L 789.544143 291.070425 
L 791.373984 327.496575 
L 793.203826 315.191589 
L 795.033667 293.71734 
L 796.863509 353.569114 
L 798.69335 302.107048 
L 800.523192 308.255979 
L 802.353033 260.871842 
L 804.182875 274.105847 
L 806.012716 315.115498 
L 807.842558 303.803062 
L 809.672399 270.977302 
L 811.502241 294.783149 
L 815.161924 228.148032 
L 816.991765 197.382234 
L 818.821607 177.894687 
L 820.651448 230.646657 
L 822.48129 295.058905 
L 824.311131 223.682786 
L 826.140973 285.247652 
L 827.970814 300.7079 
L 829.800656 339.350311 
L 831.630497 355.859949 
L 833.460339 301.905179 
L 835.29018 367.92199 
L 837.120022 439.600096 
L 838.949863 370.048201 
L 840.779705 403.851293 
L 842.609546 512.355753 
L 844.439388 384.58172 
L 846.269229 399.36854 
L 848.099071 347.439033 
L 849.928912 339.502635 
L 851.758754 337.754301 
L 853.588595 365.424509 
L 855.418437 340.06988 
L 857.248278 377.042194 
L 859.07812 398.5893 
L 860.907961 338.907929 
L 862.737803 393.449224 
L 864.567644 337.809567 
L 866.397486 401.77906 
L 868.227327 457.718759 
L 870.057169 416.360064 
L 871.88701 445.986567 
L 873.716852 488.551237 
L 875.546693 462.622011 
L 877.376535 465.572888 
L 879.206376 511.907163 
L 881.036218 547.403838 
L 882.866059 552.719395 
L 884.695901 539.059585 
L 886.525742 480.702343 
L 888.355584 555.916463 
L 890.185425 492.051051 
L 892.015267 537.17599 
L 893.845108 397.591773 
L 895.67495 611.235625 
L 897.504791 657.070994 
L 899.334633 571.315954 
L 901.164474 590.465127 
L 902.994316 618.978815 
L 904.824157 626.018083 
L 906.653999 605.958457 
L 908.48384 634.2718 
L 910.313682 668.126396 
L 912.143523 613.782107 
L 913.973365 602.863095 
L 915.803206 566.465135 
L 917.633048 564.00919 
L 919.462889 620.82347 
L 921.292731 618.078238 
L 923.122572 651.70251 
L 924.952414 598.793962 
L 926.782255 620.783136 
L 928.612097 599.413383 
L 930.441938 538.69272 
L 932.27178 563.511785 
L 934.101621 572.738586 
L 935.931463 498.688763 
L 937.761304 560.784603 
L 939.591146 559.139863 
L 941.420987 484.016794 
L 943.250829 513.919668 
L 945.08067 570.794964 
L 946.910512 354.776662 
L 948.740353 354.032779 
L 950.570195 311.446741 
L 952.400036 357.77182 
L 954.229878 304.65393 
L 956.059719 222.753511 
L 957.889561 286.189942 
L 959.719402 261.771854 
L 961.549244 252.290879 
L 963.379085 197.695634 
L 965.208927 255.905344 
L 967.038768 264.15703 
L 968.86861 257.996913 
L 970.698451 243.509935 
L 972.528293 245.278894 
L 974.358134 255.189236 
L 976.187976 261.66999 
L 978.017817 218.376541 
L 979.847659 234.113575 
L 981.6775 274.725869 
L 983.507342 434.93833 
L 985.337183 378.455558 
L 987.167025 428.67123 
L 988.996866 466.219599 
L 990.826708 344.527289 
L 992.656549 260.671462 
L 994.486391 247.574363 
L 996.316232 264.308124 
L 998.146074 258.062649 
L 999.975915 268.852035 
L 1001.805757 267.997849 
L 1003.635598 363.934053 
L 1005.46544 349.886654 
L 1007.295281 339.860088 
L 1009.125123 296.699654 
L 1010.954964 322.78804 
L 1012.784806 418.087058 
L 1014.614647 379.573028 
L 1016.444489 363.585124 
L 1018.27433 373.374981 
L 1020.104172 385.150567 
L 1021.934013 225.093776 
L 1023.763855 312.953416 
L 1025.593696 364.177628 
L 1027.423538 284.933192 
L 1029.253379 304.867498 
L 1031.083221 296.211245 
L 1032.913062 295.517592 
L 1034.742904 369.400374 
L 1036.572745 361.400415 
L 1038.402587 281.279653 
L 1040.232428 463.960029 
L 1042.06227 498.212312 
L 1043.892111 476.164897 
L 1045.721953 498.424907 
L 1047.551794 527.84671 
L 1049.381636 454.409056 
L 1051.211478 417.749972 
L 1053.041319 341.948397 
L 1054.871161 478.105173 
L 1056.701002 539.152781 
L 1058.530844 488.070723 
L 1060.360685 514.914135 
L 1062.190527 558.575421 
L 1064.020368 475.131898 
L 1065.85021 327.641004 
L 1067.680051 371.955752 
L 1069.509893 399.336645 
L 1071.339734 477.30917 
L 1073.169576 439.65908 
L 1074.999417 436.298117 
L 1076.829259 418.780682 
L 1080.488942 492.258755 
L 1082.318783 466.757037 
L 1084.148625 461.881217 
L 1085.978466 503.25686 
L 1087.808308 512.477269 
L 1089.638149 528.871799 
L 1091.467991 531.926412 
L 1093.297832 501.080661 
L 1095.127674 476.181087 
L 1096.957515 492.710491 
L 1098.787357 397.750075 
L 1100.617198 439.028846 
L 1102.44704 427.19562 
L 1104.276881 381.046235 
L 1106.106723 462.374002 
L 1107.936564 494.102116 
L 1109.766406 482.603172 
L 1111.596247 477.262429 
L 1113.426089 498.12641 
L 1115.25593 512.839113 
L 1117.085772 485.068329 
L 1118.915613 482.401619 
L 1120.745455 537.260305 
L 1120.745455 537.260305 
" clip-path="url(#p1c72ac07fc)" style="fill: none; stroke: #da70d6; stroke-linecap: square"/>
   </g>
   <g id="line2d_19">
    <path d="M 207.654545 654.753248 
L 209.484387 657.26049 
L 211.314228 627.433385 
L 213.14407 616.017176 
L 214.973911 652.828219 
L 216.803753 638.269763 
L 218.633594 658.801728 
L 220.463436 618.128755 
L 222.293277 656.146746 
L 224.123119 613.513202 
L 225.95296 625.761027 
L 227.782802 603.535265 
L 229.612643 523.530612 
L 231.442485 505.334185 
L 233.272326 506.968798 
L 235.102168 543.891266 
L 236.932009 563.144834 
L 238.761851 554.007811 
L 240.591692 456.700149 
L 242.421534 331.24148 
L 244.251375 293.669426 
L 246.081217 265.844635 
L 247.911058 218.582156 
L 249.7409 258.094858 
L 251.570741 264.484734 
L 253.400583 227.667976 
L 255.230424 284.524049 
L 257.060266 259.328953 
L 258.890107 217.184382 
L 260.719949 194.173623 
L 262.54979 233.175032 
L 264.379632 283.629387 
L 266.209473 322.183836 
L 268.039315 310.203063 
L 269.869156 311.028959 
L 271.698998 317.319974 
L 273.528839 280.037063 
L 275.358681 228.476194 
L 277.188522 218.224017 
L 279.018364 314.105155 
L 280.848206 371.292193 
L 282.678047 373.041814 
L 284.507889 345.314424 
L 288.167572 277.742023 
L 289.997413 249.783844 
L 291.827255 237.359144 
L 293.657096 312.03195 
L 295.486938 357.122878 
L 297.316779 314.019339 
L 299.146621 297.21169 
L 300.976462 253.937807 
L 302.806304 265.891118 
L 304.636145 169.03874 
L 306.465987 255.721754 
L 308.295828 314.493702 
L 310.12567 283.956718 
L 311.955511 265.190257 
L 313.785353 440.317834 
L 315.615194 272.659386 
L 317.445036 404.771758 
L 319.274877 269.296677 
L 321.104719 274.936405 
L 322.93456 414.475826 
L 324.764402 382.653859 
L 326.594243 344.637534 
L 328.424085 479.575176 
L 330.253926 478.45393 
L 332.083768 454.590672 
L 333.913609 357.795619 
L 335.743451 384.611985 
L 337.573292 459.852236 
L 339.403134 351.126699 
L 341.232975 458.895843 
L 343.062817 470.899071 
L 344.892658 518.220977 
L 346.7225 584.430116 
L 348.552341 395.596946 
L 350.382183 458.086567 
L 352.212024 585.157451 
L 354.041866 578.877921 
L 355.871707 575.769443 
L 357.701549 558.558473 
L 359.53139 497.588142 
L 361.361232 565.711798 
L 363.191073 499.07558 
L 365.020915 560.323884 
L 366.850756 546.924026 
L 368.680598 464.059175 
L 370.510439 412.296495 
L 372.340281 526.279505 
L 374.170122 591.042555 
L 375.999964 572.139518 
L 377.829805 463.501141 
L 379.659647 454.089677 
L 381.489488 507.40832 
L 383.31933 510.055178 
L 385.149171 565.249534 
L 386.979013 558.283317 
L 388.808854 514.387095 
L 390.638696 558.196543 
L 392.468537 492.190645 
L 394.298379 452.841909 
L 396.12822 550.434166 
L 397.958062 582.751079 
L 399.787903 560.561094 
L 401.617745 550.085895 
L 403.447586 465.925278 
L 405.277428 511.736403 
L 407.107269 518.437505 
L 408.937111 612.177429 
L 410.766952 558.55238 
L 412.596794 591.77042 
L 414.426635 549.249874 
L 416.256477 521.149083 
L 418.086318 348.458959 
L 419.91616 470.001748 
L 421.746001 271.487823 
L 423.575843 611.111578 
L 425.405684 630.396705 
L 427.235526 652.174385 
L 429.065367 527.186583 
L 430.895209 315.051737 
L 432.72505 266.498583 
L 434.554892 251.24907 
L 436.384733 264.468858 
L 438.214575 354.26803 
L 440.044416 404.163178 
L 441.874258 465.24813 
L 443.704099 423.292098 
L 445.533941 366.228979 
L 447.363782 374.331574 
L 449.193624 286.252903 
L 451.023465 212.335594 
L 452.853307 264.089092 
L 454.683148 326.350671 
L 456.51299 375.60646 
L 458.342831 410.547618 
L 460.172673 366.029285 
L 462.002514 347.487748 
L 463.832356 236.69876 
L 465.662197 194.08506 
L 469.32188 299.401949 
L 471.151722 338.935504 
L 472.981563 350.999691 
L 474.811405 332.183199 
L 476.641246 297.164835 
L 478.471088 274.07152 
L 480.300929 234.116264 
L 482.130771 332.828108 
L 483.960612 441.989877 
L 485.790454 511.383127 
L 487.620295 412.674544 
L 489.450137 607.854581 
L 491.279978 597.89714 
L 493.10982 567.865484 
L 494.939661 488.129307 
L 496.769503 485.749366 
L 498.599344 515.221385 
L 500.429186 524.459258 
L 502.259027 334.620408 
L 504.088869 481.706765 
L 505.91871 508.618028 
L 507.748552 502.973853 
L 509.578393 308.332184 
L 511.408235 427.064464 
L 513.238076 516.395423 
L 515.067918 513.422234 
L 516.897759 345.391487 
L 518.727601 528.694202 
L 520.557442 548.868378 
L 522.387284 566.664744 
L 524.217125 504.803769 
L 526.046967 513.368513 
L 527.876808 570.286717 
L 529.70665 593.25454 
L 531.536491 610.989661 
L 533.366333 568.845162 
L 535.196174 511.3608 
L 538.855857 376.638085 
L 540.685699 428.127727 
L 542.51554 573.886021 
L 544.345382 583.257022 
L 546.175223 630.055085 
L 548.005065 643.606673 
L 549.834906 624.623376 
L 551.664748 667.806917 
L 553.494589 631.517979 
L 555.324431 671.601867 
L 557.154272 651.87154 
L 558.984114 652.970052 
L 560.813955 650.023767 
L 562.643797 645.062252 
L 564.473638 638.467476 
L 566.30348 662.529849 
L 568.133321 643.555977 
L 569.963163 647.227502 
L 571.793004 659.243796 
L 573.622846 654.464934 
L 575.452687 640.859503 
L 577.282529 631.337551 
L 579.11237 610.053836 
L 580.942212 624.367229 
L 582.772053 588.624698 
L 584.601895 585.094963 
L 586.431736 605.291579 
L 588.261578 549.517077 
L 590.091419 571.50731 
L 591.921261 526.113451 
L 593.751102 397.224565 
L 595.580944 280.559741 
L 597.410785 229.188354 
L 599.240627 242.644336 
L 601.070468 296.419349 
L 602.90031 293.307911 
L 604.730151 259.380299 
L 606.559993 312.147258 
L 608.389834 289.401156 
L 610.219676 272.853903 
L 612.049517 214.680551 
L 613.879359 242.274926 
L 615.7092 322.111808 
L 617.539042 388.283431 
L 619.368883 386.779044 
L 621.198725 317.907014 
L 623.028566 288.935918 
L 624.858408 285.14041 
L 626.688249 247.652112 
L 628.518091 314.307481 
L 630.347932 282.97541 
L 632.177774 309.527003 
L 634.007615 345.210815 
L 635.837457 326.478966 
L 637.667298 315.474239 
L 639.49714 293.270781 
L 641.326981 206.107454 
L 643.156823 232.964267 
L 644.986664 304.550779 
L 646.816506 351.247871 
L 648.646347 330.304024 
L 650.476189 292.558449 
L 652.30603 321.544877 
L 654.135872 277.897979 
L 655.965713 269.783484 
L 657.795555 329.284327 
L 659.625396 293.682584 
L 661.455238 363.331938 
L 663.285079 262.110914 
L 665.114921 494.600565 
L 666.944762 473.79348 
L 668.774604 462.925229 
L 670.604445 408.457764 
L 672.434287 335.925615 
L 674.264128 447.761704 
L 676.09397 474.644062 
L 677.923811 295.646403 
L 679.753653 459.345234 
L 681.583494 494.6302 
L 683.413336 450.639751 
L 685.243177 290.886664 
L 687.073019 385.66452 
L 688.90286 532.50038 
L 690.732702 543.262491 
L 692.562543 501.241295 
L 694.392385 545.834632 
L 696.222226 533.028321 
L 698.052068 545.107125 
L 699.881909 442.288947 
L 701.711751 445.892141 
L 703.541592 554.656152 
L 705.371434 539.19772 
L 707.201275 570.803674 
L 709.031117 578.50771 
L 710.860958 546.246507 
L 712.6908 504.062789 
L 714.520641 446.936467 
L 716.350483 575.897553 
L 718.180324 597.851729 
L 720.010166 667.12924 
L 721.840007 653.641957 
L 723.669849 622.301604 
L 725.49969 614.165448 
L 727.329532 617.638187 
L 729.159373 623.857173 
L 730.989215 620.423674 
L 732.819056 655.86145 
L 734.648898 656.339339 
L 736.478739 622.386004 
L 738.308581 629.658249 
L 740.138422 632.249663 
L 741.968264 602.070325 
L 743.798105 633.986776 
L 745.627947 652.760338 
L 747.457788 612.653552 
L 749.28763 635.081619 
L 751.117471 605.680413 
L 752.947313 622.587973 
L 754.777154 607.561847 
L 756.606996 528.30554 
L 758.436837 567.078936 
L 760.266679 554.551371 
L 762.09652 540.1307 
L 763.926362 527.02645 
L 765.756203 488.753677 
L 767.586045 430.357604 
L 769.415886 315.774881 
L 771.245728 309.650293 
L 773.075569 281.762827 
L 774.905411 367.304657 
L 776.735252 390.08108 
L 778.565094 287.448237 
L 780.394935 281.141203 
L 782.224777 309.493764 
L 784.054618 257.531218 
L 785.88446 236.239586 
L 787.714301 220.430695 
L 789.544143 279.060131 
L 791.373984 350.212756 
L 793.203826 390.02324 
L 795.033667 307.188826 
L 796.863509 304.093407 
L 798.69335 294.503502 
L 800.523192 291.732096 
L 802.353033 227.539595 
L 804.182875 225.936148 
L 806.012716 329.562286 
L 807.842558 318.119094 
L 809.672399 315.516632 
L 811.502241 312.314886 
L 813.332082 289.358591 
L 815.161924 274.280225 
L 816.991765 227.701101 
L 818.821607 252.025993 
L 820.651448 298.26743 
L 822.48129 330.081188 
L 824.311131 304.689944 
L 826.140973 289.48128 
L 827.970814 321.413693 
L 829.800656 349.329249 
L 831.630497 272.187997 
L 835.29018 398.231904 
L 837.120022 465.990498 
L 838.949863 370.011128 
L 840.779705 459.049139 
L 842.609546 509.802349 
L 844.439388 375.61178 
L 846.269229 252.860127 
L 848.099071 408.308186 
L 849.928912 399.668925 
L 851.758754 444.082134 
L 853.588595 387.534456 
L 855.418437 429.331757 
L 857.248278 475.124404 
L 859.07812 499.44479 
L 860.907961 257.27846 
L 862.737803 368.337855 
L 864.567644 423.27728 
L 866.397486 472.714656 
L 868.227327 496.597966 
L 870.057169 511.607979 
L 871.88701 530.595389 
L 873.716852 570.840146 
L 875.546693 423.11031 
L 877.376535 418.343649 
L 879.206376 504.146989 
L 881.036218 564.689312 
L 882.866059 548.674848 
L 884.695901 547.728924 
L 886.525742 503.438819 
L 888.355584 543.372021 
L 890.185425 456.218091 
L 892.015267 532.031823 
L 893.845108 534.052466 
L 895.67495 605.514315 
L 897.504791 635.510543 
L 899.334633 544.001483 
L 901.164474 573.380306 
L 902.994316 624.933845 
L 904.824157 635.779698 
L 906.653999 544.505439 
L 908.48384 619.336082 
L 910.313682 658.141859 
L 912.143523 621.031138 
L 913.973365 590.73622 
L 915.803206 563.22051 
L 917.633048 579.030073 
L 919.462889 626.466508 
L 921.292731 609.126792 
L 923.122572 589.953362 
L 924.952414 582.028206 
L 926.782255 607.015613 
L 928.612097 535.846468 
L 930.441938 536.52536 
L 932.27178 549.965467 
L 934.101621 542.955769 
L 935.931463 562.214572 
L 937.761304 590.917378 
L 939.591146 562.41501 
L 941.420987 519.335858 
L 943.250829 531.783786 
L 945.08067 489.794514 
L 946.910512 340.904958 
L 948.740353 366.047363 
L 950.570195 319.710012 
L 952.400036 332.06297 
L 954.229878 408.967655 
L 956.059719 308.844707 
L 957.889561 328.586355 
L 959.719402 326.530799 
L 961.549244 264.799307 
L 963.379085 210.156892 
L 965.208927 282.973465 
L 967.038768 325.13703 
L 968.86861 345.426643 
L 970.698451 315.40959 
L 972.528293 313.120586 
L 974.358134 287.723735 
L 976.187976 270.98637 
L 978.017817 227.212979 
L 979.847659 237.672488 
L 981.6775 311.71074 
L 983.507342 426.764737 
L 985.337183 381.911491 
L 987.167025 400.474968 
L 988.996866 384.825266 
L 990.826708 326.704062 
L 992.656549 248.769325 
L 994.486391 265.327477 
L 996.316232 311.985466 
L 998.146074 341.52827 
L 999.975915 324.187387 
L 1001.805757 332.664885 
L 1003.635598 291.544788 
L 1005.46544 280.847168 
L 1007.295281 232.275449 
L 1009.125123 340.931904 
L 1010.954964 367.795354 
L 1012.784806 418.67427 
L 1014.614647 303.45256 
L 1016.444489 403.452505 
L 1018.27433 420.422861 
L 1020.104172 389.58655 
L 1021.934013 188.888316 
L 1023.763855 335.260311 
L 1025.593696 417.59433 
L 1027.423538 328.122461 
L 1029.253379 361.381908 
L 1031.083221 442.179274 
L 1032.913062 382.362198 
L 1034.742904 416.940296 
L 1036.572745 246.067659 
L 1038.402587 304.161631 
L 1040.232428 513.869308 
L 1042.06227 495.907317 
L 1043.892111 323.678125 
L 1045.721953 511.655236 
L 1047.551794 565.971048 
L 1049.381636 488.242756 
L 1051.211478 420.601388 
L 1053.041319 446.234204 
L 1054.871161 505.006953 
L 1056.701002 569.488541 
L 1058.530844 461.563068 
L 1060.360685 482.048942 
L 1062.190527 547.737477 
L 1064.020368 533.71302 
L 1065.85021 462.070614 
L 1067.680051 471.242278 
L 1069.509893 453.408611 
L 1071.339734 493.475142 
L 1073.169576 446.723614 
L 1074.999417 429.191762 
L 1076.829259 431.668132 
L 1078.6591 439.490566 
L 1080.488942 475.133414 
L 1082.318783 406.821077 
L 1084.148625 450.186756 
L 1085.978466 429.171338 
L 1087.808308 496.600111 
L 1089.638149 519.472349 
L 1091.467991 513.461052 
L 1093.297832 501.302611 
L 1095.127674 462.760318 
L 1096.957515 342.483747 
L 1098.787357 333.561664 
L 1100.617198 389.548162 
L 1102.44704 449.127154 
L 1104.276881 451.025752 
L 1106.106723 469.033569 
L 1107.936564 488.196301 
L 1109.766406 514.094347 
L 1111.596247 481.646121 
L 1113.426089 510.263769 
L 1115.25593 487.349867 
L 1117.085772 485.893652 
L 1118.915613 463.638304 
L 1120.745455 423.005386 
L 1120.745455 423.005386 
" clip-path="url(#p1c72ac07fc)" style="fill: none; stroke: #8fbc8f; stroke-linecap: square"/>
   </g>
   <g id="patch_3">
    <path d="M 162 768.96 
L 162 103.68 
" style="fill: none; stroke: #000000; stroke-width: 0.8; stroke-linejoin: miter; stroke-linecap: square"/>
   </g>
   <g id="patch_4">
    <path d="M 1166.4 768.96 
L 1166.4 103.68 
" style="fill: none; stroke: #000000; stroke-width: 0.8; stroke-linejoin: miter; stroke-linecap: square"/>
   </g>
   <g id="patch_5">
    <path d="M 162 768.96 
L 1166.4 768.96 
" style="fill: none; stroke: #000000; stroke-width: 0.8; stroke-linejoin: miter; stroke-linecap: square"/>
   </g>
   <g id="patch_6">
    <path d="M 162 103.68 
L 1166.4 103.68 
" style="fill: none; stroke: #000000; stroke-width: 0.8; stroke-linejoin: miter; stroke-linecap: square"/>
   </g>
   <g id="text_16">
    <!-- Function 1 -->
    <g transform="translate(632.957813 97.68) scale(0.12 -0.12)">
     <defs>
      <path id="DejaVuSans-46" d="M 628 4666 
L 3309 4666 
L 3309 4134 
L 1259 4134 
L 1259 2759 
L 3109 2759 
L 3109 2228 
L 1259 2228 
L 1259 0 
L 628 0 
L 628 4666 
z
" transform="scale(0.015625)"/>
      <path id="DejaVuSans-75" d="M 544 1381 
L 544 3500 
L 1119 3500 
L 1119 1403 
Q 1119 906 1312 657 
Q 1506 409 1894 409 
Q 2359 409 2629 706 
Q 2900 1003 2900 1516 
L 2900 3500 
L 3475 3500 
L 3475 0 
L 2900 0 
L 2900 538 
Q 2691 219 2414 64 
Q 2138 -91 1772 -91 
Q 1169 -91 856 284 
Q 544 659 544 1381 
z
M 1991 3584 
L 1991 3584 
z
" transform="scale(0.015625)"/>
      <path id="DejaVuSans-6e" d="M 3513 2113 
L 3513 0 
L 2938 0 
L 2938 2094 
Q 2938 2591 2744 2837 
Q 2550 3084 2163 3084 
Q 1697 3084 1428 2787 
Q 1159 2491 1159 1978 
L 1159 0 
L 581 0 
L 581 3500 
L 1159 3500 
L 1159 2956 
Q 1366 3272 1645 3428 
Q 1925 3584 2291 3584 
Q 2894 3584 3203 3211 
Q 3513 2838 3513 2113 
z
" transform="scale(0.015625)"/>
      <path id="DejaVuSans-63" d="M 3122 3366 
L 3122 2828 
Q 2878 2963 2633 3030 
Q 2388 3097 2138 3097 
Q 1578 3097 1268 2742 
Q 959 2388 959 1747 
Q 959 1106 1268 751 
Q 1578 397 2138 397 
Q 2388 397 2633 464 
Q 2878 531 3122 666 
L 3122 134 
Q 2881 22 2623 -34 
Q 2366 -91 2075 -91 
Q 1284 -91 818 406 
Q 353 903 353 1747 
Q 353 2603 823 3093 
Q 1294 3584 2113 3584 
Q 2378 3584 2631 3529 
Q 2884 3475 3122 3366 
z
" transform="scale(0.015625)"/>
      <path id="DejaVuSans-74" d="M 1172 4494 
L 1172 3500 
L 2356 3500 
L 2356 3053 
L 1172 3053 
L 1172 1153 
Q 1172 725 1289 603 
Q 1406 481 1766 481 
L 2356 481 
L 2356 0 
L 1766 0 
Q 1100 0 847 248 
Q 594 497 594 1153 
L 594 3053 
L 172 3053 
L 172 3500 
L 594 3500 
L 594 4494 
L 1172 4494 
z
" transform="scale(0.015625)"/>
      <path id="DejaVuSans-69" d="M 603 3500 
L 1178 3500 
L 1178 0 
L 603 0 
L 603 3500 
z
M 603 4863 
L 1178 4863 
L 1178 4134 
L 603 4134 
L 603 4863 
z
" transform="scale(0.015625)"/>
      <path id="DejaVuSans-6f" d="M 1959 3097 
Q 1497 3097 1228 2736 
Q 959 2375 959 1747 
Q 959 1119 1226 758 
Q 1494 397 1959 397 
Q 2419 397 2687 759 
Q 2956 1122 2956 1747 
Q 2956 2369 2687 2733 
Q 2419 3097 1959 3097 
z
M 1959 3584 
Q 2709 3584 3137 3096 
Q 3566 2609 3566 1747 
Q 3566 888 3137 398 
Q 2709 -91 1959 -91 
Q 1206 -91 779 398 
Q 353 888 353 1747 
Q 353 2609 779 3096 
Q 1206 3584 1959 3584 
z
" transform="scale(0.015625)"/>
      <path id="DejaVuSans-20" transform="scale(0.015625)"/>
     </defs>
     <use xlink:href="#DejaVuSans-46"/>
     <use xlink:href="#DejaVuSans-75" x="52.019531"/>
     <use xlink:href="#DejaVuSans-6e" x="115.398438"/>
     <use xlink:href="#DejaVuSans-63" x="178.777344"/>
     <use xlink:href="#DejaVuSans-74" x="233.757812"/>
     <use xlink:href="#DejaVuSans-69" x="272.966797"/>
     <use xlink:href="#DejaVuSans-6f" x="300.75"/>
     <use xlink:href="#DejaVuSans-6e" x="361.931641"/>
     <use xlink:href="#DejaVuSans-20" x="425.310547"/>
     <use xlink:href="#DejaVuSans-31" x="457.097656"/>
    </g>
   </g>
   <g id="legend_1">
    <g id="patch_7">
     <path d="M 1011.90625 170.3925 
L 1159.4 170.3925 
Q 1161.4 170.3925 1161.4 168.3925 
L 1161.4 110.68 
Q 1161.4 108.68 1159.4 108.68 
L 1011.90625 108.68 
Q 1009.90625 108.68 1009.90625 110.68 
L 1009.90625 168.3925 
Q 1009.90625 170.3925 1011.90625 170.3925 
z
" style="fill: #ffffff; opacity: 0.8; stroke: #cccccc; stroke-linejoin: miter"/>
    </g>
    <g id="line2d_20">
     <path d="M 1013.90625 116.778437 
L 1023.90625 116.778437 
L 1033.90625 116.778437 
" style="fill: none; stroke: #4169e1; stroke-linecap: square"/>
    </g>
    <g id="text_17">
     <!-- Truth -->
     <g transform="translate(1041.90625 120.278437) scale(0.1 -0.1)">
      <defs>
       <path id="DejaVuSans-54" d="M -19 4666 
L 3928 4666 
L 3928 4134 
L 2272 4134 
L 2272 0 
L 1638 0 
L 1638 4134 
L -19 4134 
L -19 4666 
z
" transform="scale(0.015625)"/>
       <path id="DejaVuSans-72" d="M 2631 2963 
Q 2534 3019 2420 3045 
Q 2306 3072 2169 3072 
Q 1681 3072 1420 2755 
Q 1159 2438 1159 1844 
L 1159 0 
L 581 0 
L 581 3500 
L 1159 3500 
L 1159 2956 
Q 1341 3275 1631 3429 
Q 1922 3584 2338 3584 
Q 2397 3584 2469 3576 
Q 2541 3569 2628 3553 
L 2631 2963 
z
" transform="scale(0.015625)"/>
       <path id="DejaVuSans-68" d="M 3513 2113 
L 3513 0 
L 2938 0 
L 2938 2094 
Q 2938 2591 2744 2837 
Q 2550 3084 2163 3084 
Q 1697 3084 1428 2787 
Q 1159 2491 1159 1978 
L 1159 0 
L 581 0 
L 581 4863 
L 1159 4863 
L 1159 2956 
Q 1366 3272 1645 3428 
Q 1925 3584 2291 3584 
Q 2894 3584 3203 3211 
Q 3513 2838 3513 2113 
z
" transform="scale(0.015625)"/>
      </defs>
      <use xlink:href="#DejaVuSans-54"/>
      <use xlink:href="#DejaVuSans-72" x="46.333984"/>
      <use xlink:href="#DejaVuSans-75" x="87.447266"/>
      <use xlink:href="#DejaVuSans-74" x="150.826172"/>
      <use xlink:href="#DejaVuSans-68" x="190.035156"/>
     </g>
    </g>
    <g id="line2d_21">
     <path d="M 1013.90625 131.456562 
L 1023.90625 131.456562 
L 1033.90625 131.456562 
" style="fill: none; stroke: #ff6347; stroke-linecap: square"/>
    </g>
    <g id="text_18">
     <!-- Gossip predictions -->
     <g transform="translate(1041.90625 134.956562) scale(0.1 -0.1)">
      <defs>
       <path id="DejaVuSans-47" d="M 3809 666 
L 3809 1919 
L 2778 1919 
L 2778 2438 
L 4434 2438 
L 4434 434 
Q 4069 175 3628 42 
Q 3188 -91 2688 -91 
Q 1594 -91 976 548 
Q 359 1188 359 2328 
Q 359 3472 976 4111 
Q 1594 4750 2688 4750 
Q 3144 4750 3555 4637 
Q 3966 4525 4313 4306 
L 4313 3634 
Q 3963 3931 3569 4081 
Q 3175 4231 2741 4231 
Q 1884 4231 1454 3753 
Q 1025 3275 1025 2328 
Q 1025 1384 1454 906 
Q 1884 428 2741 428 
Q 3075 428 3337 486 
Q 3600 544 3809 666 
z
" transform="scale(0.015625)"/>
       <path id="DejaVuSans-73" d="M 2834 3397 
L 2834 2853 
Q 2591 2978 2328 3040 
Q 2066 3103 1784 3103 
Q 1356 3103 1142 2972 
Q 928 2841 928 2578 
Q 928 2378 1081 2264 
Q 1234 2150 1697 2047 
L 1894 2003 
Q 2506 1872 2764 1633 
Q 3022 1394 3022 966 
Q 3022 478 2636 193 
Q 2250 -91 1575 -91 
Q 1294 -91 989 -36 
Q 684 19 347 128 
L 347 722 
Q 666 556 975 473 
Q 1284 391 1588 391 
Q 1994 391 2212 530 
Q 2431 669 2431 922 
Q 2431 1156 2273 1281 
Q 2116 1406 1581 1522 
L 1381 1569 
Q 847 1681 609 1914 
Q 372 2147 372 2553 
Q 372 3047 722 3315 
Q 1072 3584 1716 3584 
Q 2034 3584 2315 3537 
Q 2597 3491 2834 3397 
z
" transform="scale(0.015625)"/>
       <path id="DejaVuSans-70" d="M 1159 525 
L 1159 -1331 
L 581 -1331 
L 581 3500 
L 1159 3500 
L 1159 2969 
Q 1341 3281 1617 3432 
Q 1894 3584 2278 3584 
Q 2916 3584 3314 3078 
Q 3713 2572 3713 1747 
Q 3713 922 3314 415 
Q 2916 -91 2278 -91 
Q 1894 -91 1617 61 
Q 1341 213 1159 525 
z
M 3116 1747 
Q 3116 2381 2855 2742 
Q 2594 3103 2138 3103 
Q 1681 3103 1420 2742 
Q 1159 2381 1159 1747 
Q 1159 1113 1420 752 
Q 1681 391 2138 391 
Q 2594 391 2855 752 
Q 3116 1113 3116 1747 
z
" transform="scale(0.015625)"/>
       <path id="DejaVuSans-65" d="M 3597 1894 
L 3597 1613 
L 953 1613 
Q 991 1019 1311 708 
Q 1631 397 2203 397 
Q 2534 397 2845 478 
Q 3156 559 3463 722 
L 3463 178 
Q 3153 47 2828 -22 
Q 2503 -91 2169 -91 
Q 1331 -91 842 396 
Q 353 884 353 1716 
Q 353 2575 817 3079 
Q 1281 3584 2069 3584 
Q 2775 3584 3186 3129 
Q 3597 2675 3597 1894 
z
M 3022 2063 
Q 3016 2534 2758 2815 
Q 2500 3097 2075 3097 
Q 1594 3097 1305 2825 
Q 1016 2553 972 2059 
L 3022 2063 
z
" transform="scale(0.015625)"/>
       <path id="DejaVuSans-64" d="M 2906 2969 
L 2906 4863 
L 3481 4863 
L 3481 0 
L 2906 0 
L 2906 525 
Q 2725 213 2448 61 
Q 2172 -91 1784 -91 
Q 1150 -91 751 415 
Q 353 922 353 1747 
Q 353 2572 751 3078 
Q 1150 3584 1784 3584 
Q 2172 3584 2448 3432 
Q 2725 3281 2906 2969 
z
M 947 1747 
Q 947 1113 1208 752 
Q 1469 391 1925 391 
Q 2381 391 2643 752 
Q 2906 1113 2906 1747 
Q 2906 2381 2643 2742 
Q 2381 3103 1925 3103 
Q 1469 3103 1208 2742 
Q 947 2381 947 1747 
z
" transform="scale(0.015625)"/>
      </defs>
      <use xlink:href="#DejaVuSans-47"/>
      <use xlink:href="#DejaVuSans-6f" x="77.490234"/>
      <use xlink:href="#DejaVuSans-73" x="138.671875"/>
      <use xlink:href="#DejaVuSans-73" x="190.771484"/>
      <use xlink:href="#DejaVuSans-69" x="242.871094"/>
      <use xlink:href="#DejaVuSans-70" x="270.654297"/>
      <use xlink:href="#DejaVuSans-20" x="334.130859"/>
      <use xlink:href="#DejaVuSans-70" x="365.917969"/>
      <use xlink:href="#DejaVuSans-72" x="429.394531"/>
      <use xlink:href="#DejaVuSans-65" x="468.257812"/>
      <use xlink:href="#DejaVuSans-64" x="529.78125"/>
      <use xlink:href="#DejaVuSans-69" x="593.257812"/>
      <use xlink:href="#DejaVuSans-63" x="621.041016"/>
      <use xlink:href="#DejaVuSans-74" x="676.021484"/>
      <use xlink:href="#DejaVuSans-69" x="715.230469"/>
      <use xlink:href="#DejaVuSans-6f" x="743.013672"/>
      <use xlink:href="#DejaVuSans-6e" x="804.195312"/>
      <use xlink:href="#DejaVuSans-73" x="867.574219"/>
     </g>
    </g>
    <g id="line2d_22">
     <path d="M 1013.90625 146.134687 
L 1023.90625 146.134687 
L 1033.90625 146.134687 
" style="fill: none; stroke: #da70d6; stroke-linecap: square"/>
    </g>
    <g id="text_19">
     <!-- Centralized predictions -->
     <g transform="translate(1041.90625 149.634687) scale(0.1 -0.1)">
      <defs>
       <path id="DejaVuSans-43" d="M 4122 4306 
L 4122 3641 
Q 3803 3938 3442 4084 
Q 3081 4231 2675 4231 
Q 1875 4231 1450 3742 
Q 1025 3253 1025 2328 
Q 1025 1406 1450 917 
Q 1875 428 2675 428 
Q 3081 428 3442 575 
Q 3803 722 4122 1019 
L 4122 359 
Q 3791 134 3420 21 
Q 3050 -91 2638 -91 
Q 1578 -91 968 557 
Q 359 1206 359 2328 
Q 359 3453 968 4101 
Q 1578 4750 2638 4750 
Q 3056 4750 3426 4639 
Q 3797 4528 4122 4306 
z
" transform="scale(0.015625)"/>
       <path id="DejaVuSans-61" d="M 2194 1759 
Q 1497 1759 1228 1600 
Q 959 1441 959 1056 
Q 959 750 1161 570 
Q 1363 391 1709 391 
Q 2188 391 2477 730 
Q 2766 1069 2766 1631 
L 2766 1759 
L 2194 1759 
z
M 3341 1997 
L 3341 0 
L 2766 0 
L 2766 531 
Q 2569 213 2275 61 
Q 1981 -91 1556 -91 
Q 1019 -91 701 211 
Q 384 513 384 1019 
Q 384 1609 779 1909 
Q 1175 2209 1959 2209 
L 2766 2209 
L 2766 2266 
Q 2766 2663 2505 2880 
Q 2244 3097 1772 3097 
Q 1472 3097 1187 3025 
Q 903 2953 641 2809 
L 641 3341 
Q 956 3463 1253 3523 
Q 1550 3584 1831 3584 
Q 2591 3584 2966 3190 
Q 3341 2797 3341 1997 
z
" transform="scale(0.015625)"/>
       <path id="DejaVuSans-6c" d="M 603 4863 
L 1178 4863 
L 1178 0 
L 603 0 
L 603 4863 
z
" transform="scale(0.015625)"/>
       <path id="DejaVuSans-7a" d="M 353 3500 
L 3084 3500 
L 3084 2975 
L 922 459 
L 3084 459 
L 3084 0 
L 275 0 
L 275 525 
L 2438 3041 
L 353 3041 
L 353 3500 
z
" transform="scale(0.015625)"/>
      </defs>
      <use xlink:href="#DejaVuSans-43"/>
      <use xlink:href="#DejaVuSans-65" x="69.824219"/>
      <use xlink:href="#DejaVuSans-6e" x="131.347656"/>
      <use xlink:href="#DejaVuSans-74" x="194.726562"/>
      <use xlink:href="#DejaVuSans-72" x="233.935547"/>
      <use xlink:href="#DejaVuSans-61" x="275.048828"/>
      <use xlink:href="#DejaVuSans-6c" x="336.328125"/>
      <use xlink:href="#DejaVuSans-69" x="364.111328"/>
      <use xlink:href="#DejaVuSans-7a" x="391.894531"/>
      <use xlink:href="#DejaVuSans-65" x="444.384766"/>
      <use xlink:href="#DejaVuSans-64" x="505.908203"/>
      <use xlink:href="#DejaVuSans-20" x="569.384766"/>
      <use xlink:href="#DejaVuSans-70" x="601.171875"/>
      <use xlink:href="#DejaVuSans-72" x="664.648438"/>
      <use xlink:href="#DejaVuSans-65" x="703.511719"/>
      <use xlink:href="#DejaVuSans-64" x="765.035156"/>
      <use xlink:href="#DejaVuSans-69" x="828.511719"/>
      <use xlink:href="#DejaVuSans-63" x="856.294922"/>
      <use xlink:href="#DejaVuSans-74" x="911.275391"/>
      <use xlink:href="#DejaVuSans-69" x="950.484375"/>
      <use xlink:href="#DejaVuSans-6f" x="978.267578"/>
      <use xlink:href="#DejaVuSans-6e" x="1039.449219"/>
      <use xlink:href="#DejaVuSans-73" x="1102.828125"/>
     </g>
    </g>
    <g id="line2d_23">
     <path d="M 1013.90625 160.812812 
L 1023.90625 160.812812 
L 1033.90625 160.812812 
" style="fill: none; stroke: #8fbc8f; stroke-linecap: square"/>
    </g>
    <g id="text_20">
     <!-- Single predictions -->
     <g transform="translate(1041.90625 164.312812) scale(0.1 -0.1)">
      <defs>
       <path id="DejaVuSans-53" d="M 3425 4513 
L 3425 3897 
Q 3066 4069 2747 4153 
Q 2428 4238 2131 4238 
Q 1616 4238 1336 4038 
Q 1056 3838 1056 3469 
Q 1056 3159 1242 3001 
Q 1428 2844 1947 2747 
L 2328 2669 
Q 3034 2534 3370 2195 
Q 3706 1856 3706 1288 
Q 3706 609 3251 259 
Q 2797 -91 1919 -91 
Q 1588 -91 1214 -16 
Q 841 59 441 206 
L 441 856 
Q 825 641 1194 531 
Q 1563 422 1919 422 
Q 2459 422 2753 634 
Q 3047 847 3047 1241 
Q 3047 1584 2836 1778 
Q 2625 1972 2144 2069 
L 1759 2144 
Q 1053 2284 737 2584 
Q 422 2884 422 3419 
Q 422 4038 858 4394 
Q 1294 4750 2059 4750 
Q 2388 4750 2728 4690 
Q 3069 4631 3425 4513 
z
" transform="scale(0.015625)"/>
       <path id="DejaVuSans-67" d="M 2906 1791 
Q 2906 2416 2648 2759 
Q 2391 3103 1925 3103 
Q 1463 3103 1205 2759 
Q 947 2416 947 1791 
Q 947 1169 1205 825 
Q 1463 481 1925 481 
Q 2391 481 2648 825 
Q 2906 1169 2906 1791 
z
M 3481 434 
Q 3481 -459 3084 -895 
Q 2688 -1331 1869 -1331 
Q 1566 -1331 1297 -1286 
Q 1028 -1241 775 -1147 
L 775 -588 
Q 1028 -725 1275 -790 
Q 1522 -856 1778 -856 
Q 2344 -856 2625 -561 
Q 2906 -266 2906 331 
L 2906 616 
Q 2728 306 2450 153 
Q 2172 0 1784 0 
Q 1141 0 747 490 
Q 353 981 353 1791 
Q 353 2603 747 3093 
Q 1141 3584 1784 3584 
Q 2172 3584 2450 3431 
Q 2728 3278 2906 2969 
L 2906 3500 
L 3481 3500 
L 3481 434 
z
" transform="scale(0.015625)"/>
      </defs>
      <use xlink:href="#DejaVuSans-53"/>
      <use xlink:href="#DejaVuSans-69" x="63.476562"/>
      <use xlink:href="#DejaVuSans-6e" x="91.259766"/>
      <use xlink:href="#DejaVuSans-67" x="154.638672"/>
      <use xlink:href="#DejaVuSans-6c" x="218.115234"/>
      <use xlink:href="#DejaVuSans-65" x="245.898438"/>
      <use xlink:href="#DejaVuSans-20" x="307.421875"/>
      <use xlink:href="#DejaVuSans-70" x="339.208984"/>
      <use xlink:href="#DejaVuSans-72" x="402.685547"/>
      <use xlink:href="#DejaVuSans-65" x="441.548828"/>
      <use xlink:href="#DejaVuSans-64" x="503.072266"/>
      <use xlink:href="#DejaVuSans-69" x="566.548828"/>
      <use xlink:href="#DejaVuSans-63" x="594.332031"/>
      <use xlink:href="#DejaVuSans-74" x="649.3125"/>
      <use xlink:href="#DejaVuSans-69" x="688.521484"/>
      <use xlink:href="#DejaVuSans-6f" x="716.304688"/>
      <use xlink:href="#DejaVuSans-6e" x="777.486328"/>
      <use xlink:href="#DejaVuSans-73" x="840.865234"/>
     </g>
    </g>
   </g>
  </g>
 </g>
 <defs>
  <clipPath id="p1c72ac07fc">
   <rect x="162" y="103.68" width="1004.4" height="665.28"/>
  </clipPath>
 </defs>
</svg>
