<?xml version="1.0" encoding="utf-8" standalone="no"?>
<!DOCTYPE svg PUBLIC "-//W3C//DTD SVG 1.1//EN"
  "http://www.w3.org/Graphics/SVG/1.1/DTD/svg11.dtd">
<svg xmlns:xlink="http://www.w3.org/1999/xlink" width="1296pt" height="864pt" viewBox="0 0 1296 864" xmlns="http://www.w3.org/2000/svg" version="1.1">
 <metadata>
  <rdf:RDF xmlns:dc="http://purl.org/dc/elements/1.1/" xmlns:cc="http://creativecommons.org/ns#" xmlns:rdf="http://www.w3.org/1999/02/22-rdf-syntax-ns#">
   <cc:Work>
    <dc:type rdf:resource="http://purl.org/dc/dcmitype/StillImage"/>
    <dc:date>2023-12-10T12:37:09.413847</dc:date>
    <dc:format>image/svg+xml</dc:format>
    <dc:creator>
     <cc:Agent>
      <dc:title>Matplotlib v3.8.0, https://matplotlib.org/</dc:title>
     </cc:Agent>
    </dc:creator>
   </cc:Work>
  </rdf:RDF>
 </metadata>
 <defs>
  <style type="text/css">*{stroke-linejoin: round; stroke-linecap: butt}</style>
 </defs>
 <g id="figure_1">
  <g id="patch_1">
   <path d="M 0 864 
L 1296 864 
L 1296 0 
L 0 0 
z
" style="fill: #ffffff"/>
  </g>
  <g id="axes_1">
   <g id="patch_2">
    <path d="M 162 768.96 
L 1166.4 768.96 
L 1166.4 103.68 
L 162 103.68 
z
" style="fill: #ffffff"/>
   </g>
   <g id="matplotlib.axis_1">
    <g id="xtick_1">
     <g id="line2d_1">
      <defs>
       <path id="m01ef4f7c8b" d="M 0 0 
L 0 3.5 
" style="stroke: #000000; stroke-width: 0.8"/>
      </defs>
      <g>
       <use xlink:href="#m01ef4f7c8b" x="207.654545" y="768.96" style="stroke: #000000; stroke-width: 0.8"/>
      </g>
     </g>
     <g id="text_1">
      <!-- 0 -->
      <g transform="translate(204.473295 783.558437) scale(0.1 -0.1)">
       <defs>
        <path id="DejaVuSans-30" d="M 2034 4250 
Q 1547 4250 1301 3770 
Q 1056 3291 1056 2328 
Q 1056 1369 1301 889 
Q 1547 409 2034 409 
Q 2525 409 2770 889 
Q 3016 1369 3016 2328 
Q 3016 3291 2770 3770 
Q 2525 4250 2034 4250 
z
M 2034 4750 
Q 2819 4750 3233 4129 
Q 3647 3509 3647 2328 
Q 3647 1150 3233 529 
Q 2819 -91 2034 -91 
Q 1250 -91 836 529 
Q 422 1150 422 2328 
Q 422 3509 836 4129 
Q 1250 4750 2034 4750 
z
" transform="scale(0.015625)"/>
       </defs>
       <use xlink:href="#DejaVuSans-30"/>
      </g>
     </g>
    </g>
    <g id="xtick_2">
     <g id="line2d_2">
      <g>
       <use xlink:href="#m01ef4f7c8b" x="390.638696" y="768.96" style="stroke: #000000; stroke-width: 0.8"/>
      </g>
     </g>
     <g id="text_2">
      <!-- 100 -->
      <g transform="translate(381.094946 783.558437) scale(0.1 -0.1)">
       <defs>
        <path id="DejaVuSans-31" d="M 794 531 
L 1825 531 
L 1825 4091 
L 703 3866 
L 703 4441 
L 1819 4666 
L 2450 4666 
L 2450 531 
L 3481 531 
L 3481 0 
L 794 0 
L 794 531 
z
" transform="scale(0.015625)"/>
       </defs>
       <use xlink:href="#DejaVuSans-31"/>
       <use xlink:href="#DejaVuSans-30" x="63.623047"/>
       <use xlink:href="#DejaVuSans-30" x="127.246094"/>
      </g>
     </g>
    </g>
    <g id="xtick_3">
     <g id="line2d_3">
      <g>
       <use xlink:href="#m01ef4f7c8b" x="573.622846" y="768.96" style="stroke: #000000; stroke-width: 0.8"/>
      </g>
     </g>
     <g id="text_3">
      <!-- 200 -->
      <g transform="translate(564.079096 783.558437) scale(0.1 -0.1)">
       <defs>
        <path id="DejaVuSans-32" d="M 1228 531 
L 3431 531 
L 3431 0 
L 469 0 
L 469 531 
Q 828 903 1448 1529 
Q 2069 2156 2228 2338 
Q 2531 2678 2651 2914 
Q 2772 3150 2772 3378 
Q 2772 3750 2511 3984 
Q 2250 4219 1831 4219 
Q 1534 4219 1204 4116 
Q 875 4013 500 3803 
L 500 4441 
Q 881 4594 1212 4672 
Q 1544 4750 1819 4750 
Q 2544 4750 2975 4387 
Q 3406 4025 3406 3419 
Q 3406 3131 3298 2873 
Q 3191 2616 2906 2266 
Q 2828 2175 2409 1742 
Q 1991 1309 1228 531 
z
" transform="scale(0.015625)"/>
       </defs>
       <use xlink:href="#DejaVuSans-32"/>
       <use xlink:href="#DejaVuSans-30" x="63.623047"/>
       <use xlink:href="#DejaVuSans-30" x="127.246094"/>
      </g>
     </g>
    </g>
    <g id="xtick_4">
     <g id="line2d_4">
      <g>
       <use xlink:href="#m01ef4f7c8b" x="756.606996" y="768.96" style="stroke: #000000; stroke-width: 0.8"/>
      </g>
     </g>
     <g id="text_4">
      <!-- 300 -->
      <g transform="translate(747.063246 783.558437) scale(0.1 -0.1)">
       <defs>
        <path id="DejaVuSans-33" d="M 2597 2516 
Q 3050 2419 3304 2112 
Q 3559 1806 3559 1356 
Q 3559 666 3084 287 
Q 2609 -91 1734 -91 
Q 1441 -91 1130 -33 
Q 819 25 488 141 
L 488 750 
Q 750 597 1062 519 
Q 1375 441 1716 441 
Q 2309 441 2620 675 
Q 2931 909 2931 1356 
Q 2931 1769 2642 2001 
Q 2353 2234 1838 2234 
L 1294 2234 
L 1294 2753 
L 1863 2753 
Q 2328 2753 2575 2939 
Q 2822 3125 2822 3475 
Q 2822 3834 2567 4026 
Q 2313 4219 1838 4219 
Q 1578 4219 1281 4162 
Q 984 4106 628 3988 
L 628 4550 
Q 988 4650 1302 4700 
Q 1616 4750 1894 4750 
Q 2613 4750 3031 4423 
Q 3450 4097 3450 3541 
Q 3450 3153 3228 2886 
Q 3006 2619 2597 2516 
z
" transform="scale(0.015625)"/>
       </defs>
       <use xlink:href="#DejaVuSans-33"/>
       <use xlink:href="#DejaVuSans-30" x="63.623047"/>
       <use xlink:href="#DejaVuSans-30" x="127.246094"/>
      </g>
     </g>
    </g>
    <g id="xtick_5">
     <g id="line2d_5">
      <g>
       <use xlink:href="#m01ef4f7c8b" x="939.591146" y="768.96" style="stroke: #000000; stroke-width: 0.8"/>
      </g>
     </g>
     <g id="text_5">
      <!-- 400 -->
      <g transform="translate(930.047396 783.558437) scale(0.1 -0.1)">
       <defs>
        <path id="DejaVuSans-34" d="M 2419 4116 
L 825 1625 
L 2419 1625 
L 2419 4116 
z
M 2253 4666 
L 3047 4666 
L 3047 1625 
L 3713 1625 
L 3713 1100 
L 3047 1100 
L 3047 0 
L 2419 0 
L 2419 1100 
L 313 1100 
L 313 1709 
L 2253 4666 
z
" transform="scale(0.015625)"/>
       </defs>
       <use xlink:href="#DejaVuSans-34"/>
       <use xlink:href="#DejaVuSans-30" x="63.623047"/>
       <use xlink:href="#DejaVuSans-30" x="127.246094"/>
      </g>
     </g>
    </g>
    <g id="xtick_6">
     <g id="line2d_6">
      <g>
       <use xlink:href="#m01ef4f7c8b" x="1122.575296" y="768.96" style="stroke: #000000; stroke-width: 0.8"/>
      </g>
     </g>
     <g id="text_6">
      <!-- 500 -->
      <g transform="translate(1113.031546 783.558437) scale(0.1 -0.1)">
       <defs>
        <path id="DejaVuSans-35" d="M 691 4666 
L 3169 4666 
L 3169 4134 
L 1269 4134 
L 1269 2991 
Q 1406 3038 1543 3061 
Q 1681 3084 1819 3084 
Q 2600 3084 3056 2656 
Q 3513 2228 3513 1497 
Q 3513 744 3044 326 
Q 2575 -91 1722 -91 
Q 1428 -91 1123 -41 
Q 819 9 494 109 
L 494 744 
Q 775 591 1075 516 
Q 1375 441 1709 441 
Q 2250 441 2565 725 
Q 2881 1009 2881 1497 
Q 2881 1984 2565 2268 
Q 2250 2553 1709 2553 
Q 1456 2553 1204 2497 
Q 953 2441 691 2322 
L 691 4666 
z
" transform="scale(0.015625)"/>
       </defs>
       <use xlink:href="#DejaVuSans-35"/>
       <use xlink:href="#DejaVuSans-30" x="63.623047"/>
       <use xlink:href="#DejaVuSans-30" x="127.246094"/>
      </g>
     </g>
    </g>
   </g>
   <g id="matplotlib.axis_2">
    <g id="ytick_1">
     <g id="line2d_7">
      <defs>
       <path id="mea0f63dbb8" d="M 0 0 
L -3.5 0 
" style="stroke: #000000; stroke-width: 0.8"/>
      </defs>
      <g>
       <use xlink:href="#mea0f63dbb8" x="162" y="738.72" style="stroke: #000000; stroke-width: 0.8"/>
      </g>
     </g>
     <g id="text_7">
      <!-- 0 -->
      <g transform="translate(148.6375 742.519219) scale(0.1 -0.1)">
       <use xlink:href="#DejaVuSans-30"/>
      </g>
     </g>
    </g>
    <g id="ytick_2">
     <g id="line2d_8">
      <g>
       <use xlink:href="#mea0f63dbb8" x="162" y="629.928777" style="stroke: #000000; stroke-width: 0.8"/>
      </g>
     </g>
     <g id="text_8">
      <!-- 20 -->
      <g transform="translate(142.275 633.727996) scale(0.1 -0.1)">
       <use xlink:href="#DejaVuSans-32"/>
       <use xlink:href="#DejaVuSans-30" x="63.623047"/>
      </g>
     </g>
    </g>
    <g id="ytick_3">
     <g id="line2d_9">
      <g>
       <use xlink:href="#mea0f63dbb8" x="162" y="521.137554" style="stroke: #000000; stroke-width: 0.8"/>
      </g>
     </g>
     <g id="text_9">
      <!-- 40 -->
      <g transform="translate(142.275 524.936773) scale(0.1 -0.1)">
       <use xlink:href="#DejaVuSans-34"/>
       <use xlink:href="#DejaVuSans-30" x="63.623047"/>
      </g>
     </g>
    </g>
    <g id="ytick_4">
     <g id="line2d_10">
      <g>
       <use xlink:href="#mea0f63dbb8" x="162" y="412.346331" style="stroke: #000000; stroke-width: 0.8"/>
      </g>
     </g>
     <g id="text_10">
      <!-- 60 -->
      <g transform="translate(142.275 416.14555) scale(0.1 -0.1)">
       <defs>
        <path id="DejaVuSans-36" d="M 2113 2584 
Q 1688 2584 1439 2293 
Q 1191 2003 1191 1497 
Q 1191 994 1439 701 
Q 1688 409 2113 409 
Q 2538 409 2786 701 
Q 3034 994 3034 1497 
Q 3034 2003 2786 2293 
Q 2538 2584 2113 2584 
z
M 3366 4563 
L 3366 3988 
Q 3128 4100 2886 4159 
Q 2644 4219 2406 4219 
Q 1781 4219 1451 3797 
Q 1122 3375 1075 2522 
Q 1259 2794 1537 2939 
Q 1816 3084 2150 3084 
Q 2853 3084 3261 2657 
Q 3669 2231 3669 1497 
Q 3669 778 3244 343 
Q 2819 -91 2113 -91 
Q 1303 -91 875 529 
Q 447 1150 447 2328 
Q 447 3434 972 4092 
Q 1497 4750 2381 4750 
Q 2619 4750 2861 4703 
Q 3103 4656 3366 4563 
z
" transform="scale(0.015625)"/>
       </defs>
       <use xlink:href="#DejaVuSans-36"/>
       <use xlink:href="#DejaVuSans-30" x="63.623047"/>
      </g>
     </g>
    </g>
    <g id="ytick_5">
     <g id="line2d_11">
      <g>
       <use xlink:href="#mea0f63dbb8" x="162" y="303.555108" style="stroke: #000000; stroke-width: 0.8"/>
      </g>
     </g>
     <g id="text_11">
      <!-- 80 -->
      <g transform="translate(142.275 307.354327) scale(0.1 -0.1)">
       <defs>
        <path id="DejaVuSans-38" d="M 2034 2216 
Q 1584 2216 1326 1975 
Q 1069 1734 1069 1313 
Q 1069 891 1326 650 
Q 1584 409 2034 409 
Q 2484 409 2743 651 
Q 3003 894 3003 1313 
Q 3003 1734 2745 1975 
Q 2488 2216 2034 2216 
z
M 1403 2484 
Q 997 2584 770 2862 
Q 544 3141 544 3541 
Q 544 4100 942 4425 
Q 1341 4750 2034 4750 
Q 2731 4750 3128 4425 
Q 3525 4100 3525 3541 
Q 3525 3141 3298 2862 
Q 3072 2584 2669 2484 
Q 3125 2378 3379 2068 
Q 3634 1759 3634 1313 
Q 3634 634 3220 271 
Q 2806 -91 2034 -91 
Q 1263 -91 848 271 
Q 434 634 434 1313 
Q 434 1759 690 2068 
Q 947 2378 1403 2484 
z
M 1172 3481 
Q 1172 3119 1398 2916 
Q 1625 2713 2034 2713 
Q 2441 2713 2670 2916 
Q 2900 3119 2900 3481 
Q 2900 3844 2670 4047 
Q 2441 4250 2034 4250 
Q 1625 4250 1398 4047 
Q 1172 3844 1172 3481 
z
" transform="scale(0.015625)"/>
       </defs>
       <use xlink:href="#DejaVuSans-38"/>
       <use xlink:href="#DejaVuSans-30" x="63.623047"/>
      </g>
     </g>
    </g>
    <g id="ytick_6">
     <g id="line2d_12">
      <g>
       <use xlink:href="#mea0f63dbb8" x="162" y="194.763885" style="stroke: #000000; stroke-width: 0.8"/>
      </g>
     </g>
     <g id="text_12">
      <!-- 100 -->
      <g transform="translate(135.9125 198.563104) scale(0.1 -0.1)">
       <use xlink:href="#DejaVuSans-31"/>
       <use xlink:href="#DejaVuSans-30" x="63.623047"/>
       <use xlink:href="#DejaVuSans-30" x="127.246094"/>
      </g>
     </g>
    </g>
   </g>
   <g id="line2d_13">
    <path d="M 207.654545 162.126518 
L 209.484387 472.181504 
L 211.314228 254.599058 
L 213.14407 298.115547 
L 214.973911 156.686957 
L 216.803753 412.346331 
L 218.633594 249.159497 
L 220.463436 254.599058 
L 222.293277 156.686957 
L 224.123119 178.445202 
L 225.95296 156.686957 
L 227.782802 183.884763 
L 229.612643 156.686957 
L 233.272326 156.686957 
L 235.102168 211.082569 
L 236.932009 156.686957 
L 238.761851 156.686957 
L 240.591692 211.082569 
L 242.421534 156.686957 
L 247.911058 156.686957 
L 249.7409 352.511158 
L 251.570741 156.686957 
L 253.400583 178.445202 
L 255.230424 249.159497 
L 257.060266 336.192475 
L 258.890107 183.884763 
L 260.719949 357.95072 
L 262.54979 466.741943 
L 264.379632 444.983698 
L 266.209473 390.588087 
L 268.039315 542.895799 
L 269.869156 156.686957 
L 271.698998 504.818871 
L 273.528839 570.093604 
L 275.358681 651.687022 
L 279.018364 629.928777 
L 280.848206 678.884827 
L 282.678047 521.137554 
L 284.507889 472.181504 
L 286.33773 314.43423 
L 288.167572 662.566144 
L 289.997413 706.082633 
L 291.827255 722.401317 
L 293.657096 700.643072 
L 295.486938 684.324389 
L 297.316779 646.24746 
L 299.146621 515.697993 
L 300.976462 559.214482 
L 302.806304 727.840878 
L 304.636145 668.005705 
L 306.465987 651.687022 
L 308.295828 597.29141 
L 310.12567 640.807899 
L 311.955511 689.76395 
L 313.785353 651.687022 
L 317.445036 629.928777 
L 319.274877 586.412288 
L 321.104719 711.522194 
L 322.93456 684.324389 
L 324.764402 542.895799 
L 326.594243 608.170532 
L 328.424085 619.049655 
L 330.253926 635.368338 
L 332.083768 591.851849 
L 333.913609 613.610094 
L 335.743451 472.181504 
L 337.573292 657.126583 
L 339.403134 483.060626 
L 341.232975 347.071597 
L 343.062817 602.730971 
L 344.892658 695.203511 
L 346.7225 646.24746 
L 348.552341 624.489216 
L 350.382183 396.027648 
L 352.212024 368.829842 
L 354.041866 434.104576 
L 355.871707 504.818871 
L 357.701549 156.686957 
L 359.53139 232.840813 
L 361.361232 211.082569 
L 363.191073 156.686957 
L 368.680598 156.686957 
L 370.510439 162.126518 
L 372.340281 357.95072 
L 374.170122 216.52213 
L 375.999964 205.643007 
L 377.829805 232.840813 
L 379.659647 156.686957 
L 385.149171 156.686957 
L 386.979013 232.840813 
L 388.808854 221.961691 
L 390.638696 265.47818 
L 392.468537 292.675986 
L 394.298379 156.686957 
L 399.787903 156.686957 
L 401.617745 303.555108 
L 403.447586 156.686957 
L 408.937111 156.686957 
L 410.766952 205.643007 
L 412.596794 156.686957 
L 418.086318 156.686957 
L 419.91616 200.203446 
L 421.746001 156.686957 
L 423.575843 276.357302 
L 425.405684 156.686957 
L 427.235526 396.027648 
L 429.065367 499.379309 
L 430.895209 189.324324 
L 432.72505 374.269403 
L 434.554892 221.961691 
L 436.384733 189.324324 
L 438.214575 455.86282 
L 440.044416 287.236425 
L 441.874258 466.741943 
L 443.704099 461.302381 
L 445.533941 211.082569 
L 447.363782 303.555108 
L 449.193624 341.632036 
L 451.023465 586.412288 
L 452.853307 510.258432 
L 454.683148 689.76395 
L 456.51299 668.005705 
L 458.342831 613.610094 
L 460.172673 455.86282 
L 462.002514 325.313353 
L 463.832356 298.115547 
L 465.662197 624.489216 
L 467.492039 619.049655 
L 469.32188 417.785892 
L 472.981563 602.730971 
L 474.811405 629.928777 
L 476.641246 532.016676 
L 478.471088 156.686957 
L 480.300929 521.137554 
L 482.130771 564.654043 
L 483.960612 515.697993 
L 485.790454 493.939748 
L 487.620295 303.555108 
L 489.450137 390.588087 
L 491.279978 515.697993 
L 493.10982 401.467209 
L 494.939661 559.214482 
L 496.769503 417.785892 
L 498.599344 347.071597 
L 500.429186 379.708964 
L 502.259027 488.500187 
L 504.088869 548.33536 
L 505.91871 575.533166 
L 507.748552 532.016676 
L 509.578393 553.774921 
L 511.408235 504.818871 
L 513.238076 532.016676 
L 515.067918 412.346331 
L 516.897759 466.741943 
L 518.727601 629.928777 
L 520.557442 635.368338 
L 522.387284 591.851849 
L 524.217125 417.785892 
L 526.046967 624.489216 
L 527.876808 580.972727 
L 529.70665 613.610094 
L 531.536491 483.060626 
L 533.366333 542.895799 
L 535.196174 662.566144 
L 537.026016 450.423259 
L 538.855857 450.423259 
L 540.685699 265.47818 
L 542.51554 597.29141 
L 544.345382 472.181504 
L 546.175223 559.214482 
L 548.005065 417.785892 
L 549.834906 341.632036 
L 551.664748 602.730971 
L 553.494589 635.368338 
L 555.324431 504.818871 
L 557.154272 357.95072 
L 558.984114 336.192475 
L 560.813955 156.686957 
L 562.643797 189.324324 
L 564.473638 401.467209 
L 566.30348 156.686957 
L 568.133321 493.939748 
L 569.963163 591.851849 
L 571.793004 499.379309 
L 573.622846 363.390281 
L 575.452687 472.181504 
L 577.282529 597.29141 
L 579.11237 450.423259 
L 582.772053 559.214482 
L 584.601895 303.555108 
L 586.431736 548.33536 
L 588.261578 608.170532 
L 591.921261 254.599058 
L 593.751102 635.368338 
L 595.580944 352.511158 
L 597.410785 374.269403 
L 599.240627 466.741943 
L 602.90031 379.708964 
L 604.730151 341.632036 
L 606.559993 548.33536 
L 608.389834 537.456238 
L 610.219676 559.214482 
L 612.049517 608.170532 
L 613.879359 499.379309 
L 615.7092 423.225453 
L 617.539042 504.818871 
L 619.368883 276.357302 
L 621.198725 466.741943 
L 623.028566 412.346331 
L 624.858408 532.016676 
L 626.688249 515.697993 
L 628.518091 265.47818 
L 630.347932 553.774921 
L 632.177774 548.33536 
L 634.007615 461.302381 
L 635.837457 613.610094 
L 637.667298 586.412288 
L 639.49714 586.412288 
L 641.326981 532.016676 
L 643.156823 406.90677 
L 644.986664 515.697993 
L 646.816506 608.170532 
L 648.646347 200.203446 
L 650.476189 673.445266 
L 652.30603 249.159497 
L 654.135872 260.038619 
L 655.965713 401.467209 
L 657.795555 330.752914 
L 659.625396 602.730971 
L 661.455238 406.90677 
L 663.285079 483.060626 
L 666.944762 281.796864 
L 668.774604 211.082569 
L 670.604445 352.511158 
L 672.434287 357.95072 
L 674.264128 374.269403 
L 676.09397 374.269403 
L 677.923811 434.104576 
L 679.753653 477.621065 
L 681.583494 597.29141 
L 685.243177 417.785892 
L 687.073019 336.192475 
L 688.90286 472.181504 
L 690.732702 379.708964 
L 692.562543 156.686957 
L 694.392385 662.566144 
L 696.222226 624.489216 
L 698.052068 499.379309 
L 699.881909 678.884827 
L 701.711751 651.687022 
L 703.541592 733.280439 
L 705.371434 668.005705 
L 707.201275 657.126583 
L 709.031117 668.005705 
L 710.860958 613.610094 
L 712.6908 515.697993 
L 714.520641 548.33536 
L 716.350483 619.049655 
L 718.180324 532.016676 
L 720.010166 417.785892 
L 721.840007 619.049655 
L 723.669849 368.829842 
L 725.49969 716.961755 
L 727.329532 613.610094 
L 729.159373 401.467209 
L 730.989215 450.423259 
L 732.819056 444.983698 
L 734.648898 319.873792 
L 736.478739 619.049655 
L 738.308581 472.181504 
L 740.138422 450.423259 
L 741.968264 553.774921 
L 743.798105 580.972727 
L 745.627947 537.456238 
L 747.457788 668.005705 
L 749.28763 156.686957 
L 751.117471 156.686957 
L 752.947313 602.730971 
L 754.777154 646.24746 
L 756.606996 499.379309 
L 758.436837 629.928777 
L 760.266679 646.24746 
L 762.09652 597.29141 
L 763.926362 695.203511 
L 765.756203 553.774921 
L 767.586045 553.774921 
L 769.415886 483.060626 
L 771.245728 619.049655 
L 773.075569 396.027648 
L 774.905411 575.533166 
L 776.735252 602.730971 
L 778.565094 662.566144 
L 780.394935 673.445266 
L 782.224777 716.961755 
L 784.054618 722.401317 
L 785.88446 646.24746 
L 787.714301 270.917741 
L 789.544143 189.324324 
L 791.373984 428.665015 
L 793.203826 635.368338 
L 795.033667 613.610094 
L 796.863509 434.104576 
L 798.69335 455.86282 
L 800.523192 738.72 
L 802.353033 738.72 
L 804.182875 689.76395 
L 806.012716 657.126583 
L 807.842558 722.401317 
L 809.672399 668.005705 
L 811.502241 651.687022 
L 813.332082 401.467209 
L 815.161924 678.884827 
L 816.991765 706.082633 
L 818.821607 738.72 
L 820.651448 608.170532 
L 822.48129 657.126583 
L 824.311131 716.961755 
L 826.140973 591.851849 
L 827.970814 668.005705 
L 829.800656 374.269403 
L 831.630497 341.632036 
L 833.460339 510.258432 
L 835.29018 668.005705 
L 837.120022 738.72 
L 838.949863 716.961755 
L 842.609546 738.72 
L 844.439388 738.72 
L 846.269229 700.643072 
L 848.099071 619.049655 
L 849.928912 716.961755 
L 851.758754 738.72 
L 853.588595 711.522194 
L 855.418437 695.203511 
L 857.248278 586.412288 
L 859.07812 668.005705 
L 860.907961 700.643072 
L 862.737803 738.72 
L 864.567644 738.72 
L 866.397486 619.049655 
L 868.227327 678.884827 
L 870.057169 635.368338 
L 871.88701 613.610094 
L 873.716852 668.005705 
L 875.546693 575.533166 
L 877.376535 434.104576 
L 879.206376 406.90677 
L 881.036218 580.972727 
L 882.866059 216.52213 
L 884.695901 156.686957 
L 893.845108 156.686957 
L 895.67495 211.082569 
L 897.504791 156.686957 
L 899.334633 156.686957 
L 901.164474 265.47818 
L 902.994316 156.686957 
L 906.653999 156.686957 
L 908.48384 352.511158 
L 910.313682 227.401252 
L 912.143523 390.588087 
L 913.973365 401.467209 
L 915.803206 156.686957 
L 917.633048 156.686957 
L 919.462889 434.104576 
L 921.292731 205.643007 
L 923.122572 156.686957 
L 924.952414 156.686957 
L 926.782255 303.555108 
L 928.612097 156.686957 
L 935.931463 156.686957 
L 937.761304 341.632036 
L 939.591146 379.708964 
L 941.420987 390.588087 
L 943.250829 156.686957 
L 946.910512 156.686957 
L 948.740353 455.86282 
L 950.570195 298.115547 
L 952.400036 156.686957 
L 954.229878 368.829842 
L 956.059719 156.686957 
L 957.889561 156.686957 
L 959.719402 178.445202 
L 961.549244 303.555108 
L 963.379085 357.95072 
L 965.208927 221.961691 
L 967.038768 156.686957 
L 968.86861 455.86282 
L 970.698451 575.533166 
L 972.528293 635.368338 
L 974.358134 444.983698 
L 976.187976 646.24746 
L 978.017817 706.082633 
L 979.847659 716.961755 
L 981.6775 684.324389 
L 983.507342 673.445266 
L 985.337183 548.33536 
L 987.167025 504.818871 
L 988.996866 640.807899 
L 990.826708 483.060626 
L 992.656549 695.203511 
L 994.486391 570.093604 
L 996.316232 662.566144 
L 998.146074 733.280439 
L 999.975915 738.72 
L 1001.805757 738.72 
L 1003.635598 722.401317 
L 1005.46544 662.566144 
L 1007.295281 738.72 
L 1009.125123 727.840878 
L 1010.954964 629.928777 
L 1012.784806 689.76395 
L 1014.614647 738.72 
L 1016.444489 700.643072 
L 1018.27433 738.72 
L 1020.104172 564.654043 
L 1021.934013 711.522194 
L 1023.763855 738.72 
L 1025.593696 542.895799 
L 1027.423538 368.829842 
L 1029.253379 330.752914 
L 1031.083221 396.027648 
L 1032.913062 385.148525 
L 1034.742904 542.895799 
L 1036.572745 738.72 
L 1038.402587 738.72 
L 1040.232428 716.961755 
L 1042.06227 629.928777 
L 1043.892111 673.445266 
L 1045.721953 689.76395 
L 1047.551794 738.72 
L 1049.381636 673.445266 
L 1051.211478 532.016676 
L 1053.041319 570.093604 
L 1054.871161 379.708964 
L 1056.701002 439.544137 
L 1058.530844 200.203446 
L 1060.360685 156.686957 
L 1062.190527 156.686957 
L 1064.020368 249.159497 
L 1065.85021 156.686957 
L 1082.318783 156.686957 
L 1084.148625 221.961691 
L 1085.978466 401.467209 
L 1087.808308 227.401252 
L 1089.638149 260.038619 
L 1091.467991 156.686957 
L 1093.297832 379.708964 
L 1095.127674 559.214482 
L 1096.957515 276.357302 
L 1098.787357 298.115547 
L 1100.617198 270.917741 
L 1102.44704 162.126518 
L 1104.276881 156.686957 
L 1106.106723 156.686957 
L 1107.936564 281.796864 
L 1109.766406 352.511158 
L 1111.596247 156.686957 
L 1113.426089 319.873792 
L 1115.25593 156.686957 
L 1117.085772 374.269403 
L 1118.915613 156.686957 
L 1120.745455 156.686957 
L 1120.745455 156.686957 
" clip-path="url(#p76058d04e1)" style="fill: none; stroke: #4169e1; stroke-linecap: square"/>
   </g>
   <g id="line2d_14">
    <path d="M 207.654545 225.007956 
L 209.484387 197.603395 
L 211.314228 268.07458 
L 213.14407 233.120942 
L 214.973911 242.159556 
L 216.803753 204.954264 
L 218.633594 250.884135 
L 220.463436 215.659416 
L 222.293277 222.036931 
L 224.123119 198.17465 
L 225.95296 193.227535 
L 227.782802 187.169283 
L 229.612643 177.929806 
L 231.442485 172.34159 
L 233.272326 156.15546 
L 235.102168 158.794812 
L 236.932009 169.577072 
L 238.761851 164.173326 
L 240.591692 165.19258 
L 242.421534 175.458946 
L 244.251375 163.211633 
L 246.081217 163.479063 
L 247.911058 163.879128 
L 249.7409 162.442379 
L 251.570741 227.421961 
L 253.400583 187.28038 
L 255.230424 202.959125 
L 257.060266 246.587998 
L 258.890107 266.275779 
L 260.719949 249.082223 
L 262.54979 333.546897 
L 264.379632 388.791942 
L 266.209473 398.716448 
L 268.039315 428.377851 
L 269.869156 481.690921 
L 271.698998 362.034084 
L 273.528839 456.649028 
L 275.358681 492.029955 
L 277.188522 500.470006 
L 279.018364 564.806381 
L 280.848206 578.483617 
L 282.678047 596.374103 
L 284.507889 571.252642 
L 286.33773 551.305368 
L 288.167572 475.044586 
L 289.997413 539.524812 
L 291.827255 591.647386 
L 293.657096 612.903806 
L 295.486938 653.044105 
L 297.316779 657.411832 
L 299.146621 650.958075 
L 300.976462 618.396353 
L 302.806304 595.715976 
L 304.636145 624.859909 
L 306.465987 631.175402 
L 308.295828 643.374584 
L 311.955511 628.016566 
L 313.785353 635.868576 
L 315.615194 631.552725 
L 317.445036 633.398058 
L 319.274877 635.931283 
L 321.104719 620.363749 
L 322.93456 638.218005 
L 324.764402 640.487339 
L 326.594243 618.942697 
L 328.424085 623.701463 
L 330.253926 614.241047 
L 332.083768 611.550992 
L 333.913609 607.669403 
L 335.743451 605.147559 
L 337.573292 556.213224 
L 339.403134 591.399317 
L 341.232975 554.350679 
L 343.062817 474.355199 
L 344.892658 542.080001 
L 346.7225 585.432937 
L 348.552341 563.624746 
L 350.382183 501.653436 
L 352.212024 390.161834 
L 354.041866 303.059882 
L 355.871707 307.022936 
L 357.701549 337.607478 
L 359.53139 222.53693 
L 361.361232 200.79263 
L 365.020915 165.737938 
L 366.850756 165.371198 
L 368.680598 161.025135 
L 370.510439 159.937322 
L 372.340281 163.547871 
L 374.170122 209.181677 
L 375.999964 196.936605 
L 377.829805 197.190962 
L 379.659647 201.079067 
L 381.489488 181.990013 
L 383.31933 181.696812 
L 385.149171 179.945322 
L 386.979013 178.918848 
L 388.808854 199.006819 
L 390.638696 195.786251 
L 392.468537 208.817302 
L 394.298379 218.694726 
L 396.12822 192.365858 
L 397.958062 188.213645 
L 399.787903 183.765781 
L 401.617745 181.779979 
L 403.447586 218.730167 
L 405.277428 176.922588 
L 407.107269 175.006632 
L 408.937111 162.854231 
L 410.766952 160.579502 
L 412.596794 168.886835 
L 414.426635 165.368874 
L 416.256477 166.480217 
L 418.086318 166.659583 
L 419.91616 162.272476 
L 421.746001 166.327495 
L 423.575843 164.337378 
L 425.405684 187.930486 
L 427.235526 174.959113 
L 430.895209 337.464633 
L 432.72505 270.883047 
L 434.554892 387.557591 
L 436.384733 326.755995 
L 438.214575 248.230092 
L 440.044416 374.582068 
L 441.874258 315.207344 
L 443.704099 398.044637 
L 445.533941 454.224793 
L 447.363782 353.034273 
L 449.193624 394.778149 
L 451.023465 392.847564 
L 452.853307 429.368491 
L 454.683148 477.702178 
L 456.51299 537.544115 
L 458.342831 571.963651 
L 460.172673 568.263544 
L 462.002514 540.499453 
L 463.832356 466.938468 
L 465.662197 404.532004 
L 467.492039 472.602548 
L 469.32188 494.711223 
L 471.151722 468.561576 
L 472.981563 498.015975 
L 474.811405 507.363623 
L 476.641246 514.691542 
L 478.471088 509.495797 
L 480.300929 391.842628 
L 482.130771 441.674547 
L 483.960612 454.296921 
L 485.790454 445.054851 
L 487.620295 471.873362 
L 489.450137 397.816737 
L 491.279978 405.449768 
L 493.10982 437.155489 
L 494.939661 411.764805 
L 496.769503 464.664321 
L 498.599344 445.161922 
L 500.429186 418.074259 
L 502.259027 424.333435 
L 504.088869 437.38422 
L 507.748552 496.34068 
L 511.408235 515.45204 
L 513.238076 506.807577 
L 515.067918 506.049694 
L 516.897759 476.105776 
L 518.727601 478.943003 
L 520.557442 521.20713 
L 522.387284 544.325991 
L 524.217125 558.1878 
L 526.046967 494.327094 
L 527.876808 520.765751 
L 529.70665 508.215588 
L 531.536491 526.224111 
L 533.366333 505.010147 
L 535.196174 500.368206 
L 537.026016 533.723242 
L 538.855857 481.147305 
L 540.685699 472.192335 
L 542.51554 392.130745 
L 544.345382 434.691124 
L 546.175223 436.719215 
L 548.005065 472.619438 
L 549.834906 456.597027 
L 551.664748 433.058035 
L 553.494589 480.691069 
L 555.324431 506.243025 
L 557.154272 510.375692 
L 558.984114 467.239887 
L 560.813955 441.797368 
L 562.643797 347.816076 
L 564.473638 292.835597 
L 566.30348 332.486475 
L 568.133321 249.536114 
L 569.963163 374.332525 
L 571.793004 455.663057 
L 573.622846 464.486118 
L 575.452687 452.967679 
L 577.282529 465.663115 
L 579.11237 488.70962 
L 580.942212 455.011187 
L 582.772053 469.957987 
L 584.601895 485.967636 
L 586.431736 359.706733 
L 588.261578 431.816463 
L 590.091419 464.069369 
L 591.921261 414.47726 
L 593.751102 378.540973 
L 595.580944 458.603455 
L 597.410785 365.997055 
L 599.240627 383.41513 
L 601.070468 432.039031 
L 602.90031 397.610935 
L 604.730151 398.286253 
L 606.559993 389.750979 
L 608.389834 431.688392 
L 610.219676 444.926821 
L 612.049517 475.184629 
L 613.879359 513.030856 
L 615.7092 495.959913 
L 617.539042 471.777143 
L 619.368883 478.969045 
L 621.198725 406.590847 
L 623.028566 444.767833 
L 624.858408 435.67448 
L 626.688249 452.952241 
L 628.518091 474.060774 
L 630.347932 417.011762 
L 632.177774 482.890142 
L 634.007615 488.309513 
L 635.837457 479.417956 
L 637.667298 530.359289 
L 639.49714 548.649851 
L 641.326981 562.605908 
L 643.156823 559.894988 
L 644.986664 499.984616 
L 646.816506 491.16969 
L 648.646347 511.851804 
L 650.476189 371.538915 
L 652.30603 512.214312 
L 654.135872 380.498471 
L 655.965713 313.703613 
L 657.795555 398.100497 
L 659.625396 318.74232 
L 661.455238 419.234863 
L 663.285079 412.915325 
L 665.114921 450.994535 
L 666.944762 430.278183 
L 668.774604 369.698034 
L 670.604445 335.517842 
L 672.434287 363.946388 
L 674.264128 364.631313 
L 676.09397 379.019349 
L 677.923811 399.265168 
L 679.753653 423.17032 
L 681.583494 448.753297 
L 683.413336 493.428586 
L 685.243177 496.056484 
L 687.073019 477.912233 
L 688.90286 447.467672 
L 690.732702 459.06241 
L 692.562543 432.352422 
L 694.392385 353.423839 
L 696.222226 494.459813 
L 698.052068 531.975612 
L 699.881909 521.438952 
L 701.711751 580.132455 
L 703.541592 580.980124 
L 705.371434 618.474208 
L 707.201275 624.616923 
L 709.031117 617.154096 
L 710.860958 616.093279 
L 712.6908 590.66291 
L 714.520641 551.169723 
L 716.350483 531.668383 
L 718.180324 537.122054 
L 720.010166 513.665482 
L 721.840007 479.830202 
L 723.669849 516.392629 
L 725.49969 443.675663 
L 727.329532 542.946429 
L 729.159373 564.411327 
L 730.989215 507.850051 
L 732.819056 518.367496 
L 734.648898 487.339126 
L 736.478739 433.812308 
L 738.308581 490.688864 
L 740.138422 481.522221 
L 741.968264 478.884944 
L 743.798105 514.953992 
L 745.627947 516.598431 
L 747.457788 524.176453 
L 749.28763 560.684058 
L 751.117471 426.503333 
L 752.947313 317.26876 
L 754.777154 441.061418 
L 756.606996 463.732758 
L 758.436837 484.979052 
L 760.266679 541.557592 
L 762.09652 536.348339 
L 763.926362 516.126216 
L 765.756203 566.099062 
L 767.586045 536.562751 
L 769.415886 525.337203 
L 771.245728 503.371331 
L 773.075569 501.850087 
L 774.905411 438.496186 
L 776.735252 480.736491 
L 778.565094 509.109572 
L 780.394935 528.170799 
L 782.224777 568.400683 
L 784.054618 592.861755 
L 785.88446 603.394098 
L 787.714301 590.60346 
L 789.544143 511.549535 
L 791.373984 410.499598 
L 793.203826 431.990143 
L 795.033667 441.026516 
L 796.863509 488.503486 
L 798.69335 500.791262 
L 800.523192 500.02234 
L 802.353033 555.069884 
L 804.182875 574.845916 
L 806.012716 590.11255 
L 807.842558 623.539237 
L 809.672399 637.820326 
L 811.502241 630.519143 
L 813.332082 638.103381 
L 815.161924 590.335668 
L 816.991765 618.958229 
L 818.821607 639.745309 
L 820.651448 652.553569 
L 822.48129 666.1682 
L 824.311131 675.008556 
L 826.140973 684.513699 
L 827.970814 672.65258 
L 829.800656 683.163312 
L 831.630497 629.445503 
L 833.460339 416.830757 
L 835.29018 358.563392 
L 837.120022 529.703705 
L 838.949863 656.857727 
L 842.609546 687.070615 
L 844.439388 699.891821 
L 846.269229 704.247388 
L 848.099071 703.396844 
L 849.928912 690.417417 
L 851.758754 691.215712 
L 853.588595 691.426037 
L 855.418437 687.161092 
L 857.248278 691.373372 
L 859.07812 663.6008 
L 860.907961 654.593913 
L 862.737803 649.337042 
L 864.567644 658.849816 
L 866.397486 680.819246 
L 868.227327 651.154414 
L 870.057169 655.356584 
L 871.88701 611.780822 
L 873.716852 527.984565 
L 875.546693 520.692896 
L 879.206376 328.370948 
L 881.036218 280.479096 
L 882.866059 323.446824 
L 884.695901 230.728227 
L 886.525742 193.695453 
L 890.185425 154.23942 
L 892.015267 153.920986 
L 893.845108 155.360143 
L 895.67495 156.414755 
L 897.504791 163.785918 
L 899.334633 164.868709 
L 901.164474 167.537237 
L 902.994316 188.052166 
L 904.824157 177.065184 
L 906.653999 178.180594 
L 908.48384 177.142873 
L 910.313682 221.566689 
L 912.143523 196.759481 
L 913.973365 250.712489 
L 915.803206 269.612341 
L 917.633048 210.847924 
L 919.462889 195.797291 
L 921.292731 245.065176 
L 923.122572 200.29122 
L 924.952414 193.058088 
L 926.782255 190.47086 
L 928.612097 211.69466 
L 930.441938 190.374662 
L 932.27178 173.916495 
L 934.101621 162.375439 
L 935.931463 133.92 
L 937.761304 153.006148 
L 939.591146 189.437372 
L 941.420987 220.665213 
L 943.250829 255.298052 
L 945.08067 207.335732 
L 946.910512 184.892562 
L 948.740353 164.035793 
L 950.570195 228.045258 
L 952.400036 204.044779 
L 954.229878 196.153946 
L 956.059719 282.901857 
L 957.889561 183.122688 
L 959.719402 175.35478 
L 961.549244 187.560467 
L 963.379085 209.451638 
L 965.208927 256.214882 
L 967.038768 241.116481 
L 968.86861 247.46644 
L 970.698451 349.372098 
L 972.528293 406.969374 
L 974.358134 520.259859 
L 976.187976 549.635344 
L 978.017817 596.345675 
L 979.847659 626.290983 
L 981.6775 631.466663 
L 983.507342 643.934593 
L 985.337183 643.465688 
L 987.167025 616.564819 
L 988.996866 582.830696 
L 990.826708 597.286326 
L 992.656549 560.963336 
L 994.486391 606.412828 
L 996.316232 597.487708 
L 998.146074 618.170133 
L 999.975915 659.959935 
L 1001.805757 666.867251 
L 1003.635598 694.596026 
L 1005.46544 699.715957 
L 1007.295281 687.976209 
L 1009.125123 692.20869 
L 1010.954964 691.461789 
L 1012.784806 674.265322 
L 1014.614647 678.809265 
L 1016.444489 680.586983 
L 1018.27433 670.803994 
L 1020.104172 687.251755 
L 1021.934013 665.506075 
L 1023.763855 674.549871 
L 1025.593696 681.822553 
L 1027.423538 645.691488 
L 1029.253379 574.014691 
L 1031.083221 441.408695 
L 1032.913062 428.265904 
L 1034.742904 405.887828 
L 1036.572745 477.559623 
L 1038.402587 598.157402 
L 1040.232428 648.635932 
L 1042.06227 667.93683 
L 1043.892111 657.959416 
L 1045.721953 652.939099 
L 1047.551794 640.570568 
L 1049.381636 638.322431 
L 1051.211478 604.178791 
L 1053.041319 476.589133 
L 1054.871161 414.545363 
L 1056.701002 307.705579 
L 1058.530844 299.86106 
L 1060.360685 217.615379 
L 1062.190527 189.437247 
L 1064.020368 179.222092 
L 1065.85021 188.428742 
L 1067.680051 175.195916 
L 1069.509893 174.321831 
L 1071.339734 174.991733 
L 1073.169576 173.71833 
L 1074.999417 175.818756 
L 1076.829259 177.488448 
L 1078.6591 184.617538 
L 1080.488942 185.055286 
L 1082.318783 184.053172 
L 1084.148625 183.84791 
L 1085.978466 204.643965 
L 1087.808308 261.351199 
L 1089.638149 226.516294 
L 1091.467991 234.253824 
L 1093.297832 200.857744 
L 1095.127674 248.315002 
L 1096.957515 309.911334 
L 1098.787357 256.855153 
L 1100.617198 264.555955 
L 1102.44704 251.801132 
L 1104.276881 203.264112 
L 1106.106723 195.877719 
L 1107.936564 181.09854 
L 1109.766406 213.281517 
L 1111.596247 255.127775 
L 1113.426089 185.682567 
L 1115.25593 234.326782 
L 1117.085772 191.384702 
L 1118.915613 243.690387 
L 1120.745455 201.366001 
L 1120.745455 201.366001 
" clip-path="url(#p76058d04e1)" style="fill: none; stroke: #ff6347; stroke-linecap: square"/>
   </g>
   <g id="line2d_15">
    <path d="M 207.654545 273.141424 
L 209.484387 236.210908 
L 211.314228 292.648346 
L 213.14407 271.621176 
L 214.973911 279.871279 
L 216.803753 248.850608 
L 218.633594 250.043957 
L 220.463436 211.777454 
L 222.293277 266.344878 
L 224.123119 209.708693 
L 225.95296 213.042432 
L 227.782802 188.088313 
L 229.612643 202.99079 
L 231.442485 184.754739 
L 233.272326 172.224434 
L 235.102168 165.283756 
L 236.932009 194.514342 
L 238.761851 173.381677 
L 240.591692 174.83345 
L 242.421534 204.97626 
L 244.251375 177.768203 
L 246.081217 193.25314 
L 247.911058 188.823371 
L 249.7409 193.05925 
L 251.570741 278.964409 
L 253.400583 219.774612 
L 255.230424 220.534819 
L 257.060266 281.143769 
L 258.890107 296.867044 
L 260.719949 297.880197 
L 262.54979 344.074759 
L 264.379632 371.151342 
L 266.209473 382.952233 
L 268.039315 461.87484 
L 269.869156 521.418928 
L 271.698998 434.539336 
L 273.528839 483.491153 
L 275.358681 510.280904 
L 277.188522 310.725658 
L 279.018364 738.72 
L 284.507889 738.72 
L 286.33773 659.557789 
L 288.167572 504.103318 
L 289.997413 601.53174 
L 291.827255 723.475579 
L 293.657096 649.721493 
L 295.486938 738.72 
L 335.743451 738.72 
L 337.573292 641.646107 
L 339.403134 670.445321 
L 343.062817 491.641904 
L 344.892658 509.182592 
L 346.7225 623.361034 
L 348.552341 635.060923 
L 350.382183 691.542207 
L 352.212024 480.783947 
L 354.041866 376.401702 
L 355.871707 382.614501 
L 357.701549 409.610573 
L 359.53139 203.770419 
L 361.361232 232.035329 
L 363.191073 204.109022 
L 365.020915 160.190725 
L 366.850756 175.734717 
L 368.680598 184.53296 
L 370.510439 172.448122 
L 372.340281 173.465591 
L 374.170122 222.944217 
L 375.999964 203.814866 
L 377.829805 233.809395 
L 379.659647 260.693207 
L 381.489488 219.418993 
L 383.31933 216.390158 
L 385.149171 201.459959 
L 386.979013 192.857806 
L 388.808854 220.582129 
L 390.638696 241.380217 
L 392.468537 255.452641 
L 394.298379 254.066813 
L 396.12822 227.165612 
L 397.958062 211.683704 
L 399.787903 170.52785 
L 401.617745 181.848331 
L 403.447586 217.515902 
L 405.277428 189.243522 
L 407.107269 175.944088 
L 408.937111 151.834504 
L 410.766952 152.781257 
L 412.596794 192.040038 
L 414.426635 170.573417 
L 416.256477 174.362045 
L 418.086318 183.211001 
L 419.91616 165.906929 
L 421.746001 198.318657 
L 423.575843 159.813028 
L 425.405684 235.920279 
L 427.235526 198.501467 
L 429.065367 280.936889 
L 430.895209 314.444025 
L 432.72505 272.284272 
L 434.554892 349.83956 
L 436.384733 331.118409 
L 438.214575 280.889454 
L 440.044416 336.344326 
L 441.874258 265.669871 
L 443.704099 343.944323 
L 445.533941 417.227585 
L 447.363782 331.537523 
L 449.193624 367.635497 
L 451.023465 350.895376 
L 452.853307 343.207148 
L 456.51299 572.913111 
L 458.342831 738.72 
L 460.172673 712.14601 
L 462.002514 738.72 
L 463.832356 478.212448 
L 465.662197 423.957648 
L 467.492039 461.475024 
L 469.32188 483.886778 
L 471.151722 459.396178 
L 472.981563 509.18917 
L 474.811405 548.248956 
L 476.641246 577.307107 
L 478.471088 595.875131 
L 480.300929 403.564979 
L 482.130771 408.626927 
L 483.960612 429.945431 
L 485.790454 455.958645 
L 487.620295 521.990806 
L 489.450137 433.995761 
L 491.279978 401.148319 
L 493.10982 418.248955 
L 494.939661 437.599089 
L 496.769503 495.878945 
L 498.599344 460.745734 
L 500.429186 405.084522 
L 502.259027 409.354058 
L 504.088869 390.238403 
L 505.91871 449.970737 
L 507.748552 496.508405 
L 509.578393 562.248007 
L 511.408235 633.058002 
L 513.238076 572.522248 
L 515.067918 606.059939 
L 516.897759 526.292442 
L 518.727601 513.877426 
L 520.557442 591.039631 
L 522.387284 680.606691 
L 524.217125 729.140198 
L 526.046967 550.6989 
L 527.876808 564.233497 
L 529.70665 573.049928 
L 531.536491 579.540138 
L 533.366333 557.21262 
L 535.196174 567.305887 
L 537.026016 589.455762 
L 538.855857 486.047774 
L 540.685699 501.615982 
L 542.51554 337.68662 
L 544.345382 427.882356 
L 546.175223 442.93799 
L 548.005065 429.140237 
L 549.834906 478.185514 
L 551.664748 401.747545 
L 553.494589 474.957974 
L 555.324431 505.102029 
L 557.154272 459.910017 
L 558.984114 408.967854 
L 560.813955 419.997499 
L 562.643797 304.44459 
L 564.473638 290.678107 
L 566.30348 364.716265 
L 568.133321 274.817922 
L 569.963163 338.234136 
L 571.793004 412.439666 
L 575.452687 457.171167 
L 577.282529 463.13625 
L 579.11237 480.091199 
L 580.942212 474.769562 
L 582.772053 505.980637 
L 584.601895 512.940405 
L 586.431736 380.206763 
L 588.261578 439.827046 
L 590.091419 471.258365 
L 591.921261 449.721402 
L 593.751102 421.743883 
L 595.580944 469.769533 
L 597.410785 437.145073 
L 599.240627 407.7113 
L 601.070468 449.847273 
L 602.90031 434.932387 
L 604.730151 445.363677 
L 606.559993 415.745808 
L 608.389834 432.100099 
L 610.219676 458.947889 
L 612.049517 492.284457 
L 613.879359 643.140884 
L 615.7092 540.279168 
L 617.539042 489.505165 
L 619.368883 506.204533 
L 621.198725 403.02211 
L 623.028566 416.331215 
L 624.858408 425.674318 
L 626.688249 413.375005 
L 628.518091 456.119999 
L 630.347932 417.962934 
L 632.177774 487.533183 
L 634.007615 496.999211 
L 635.837457 428.497062 
L 637.667298 615.820891 
L 639.49714 580.925001 
L 641.326981 566.194772 
L 643.156823 624.457499 
L 644.986664 489.184407 
L 646.816506 485.162007 
L 648.646347 560.663516 
L 650.476189 413.092719 
L 652.30603 475.306911 
L 654.135872 416.815153 
L 655.965713 423.962877 
L 657.795555 403.335149 
L 659.625396 343.349329 
L 661.455238 424.938306 
L 663.285079 433.083537 
L 665.114921 429.394843 
L 666.944762 449.368896 
L 668.774604 389.438355 
L 670.604445 301.816774 
L 672.434287 326.884439 
L 674.264128 316.343796 
L 676.09397 335.543946 
L 677.923811 367.149235 
L 679.753653 388.715664 
L 681.583494 451.451933 
L 683.413336 492.618371 
L 685.243177 518.939104 
L 687.073019 481.718456 
L 690.732702 449.33499 
L 692.562543 453.642374 
L 694.392385 359.661539 
L 696.222226 490.01861 
L 698.052068 511.280217 
L 699.881909 508.100942 
L 701.711751 738.72 
L 712.6908 738.72 
L 714.520641 693.873682 
L 716.350483 609.082362 
L 718.180324 610.549676 
L 720.010166 563.84279 
L 721.840007 447.202525 
L 723.669849 543.447092 
L 725.49969 425.15137 
L 727.329532 552.546733 
L 729.159373 608.913123 
L 730.989215 524.386508 
L 732.819056 607.873783 
L 734.648898 493.533126 
L 736.478739 402.811453 
L 738.308581 501.853739 
L 740.138422 477.51225 
L 741.968264 464.352133 
L 743.798105 552.428518 
L 745.627947 532.71897 
L 747.457788 545.322004 
L 749.28763 738.72 
L 751.117471 387.883744 
L 752.947313 364.939621 
L 754.777154 482.647446 
L 756.606996 497.36122 
L 758.436837 475.535745 
L 760.266679 677.043282 
L 762.09652 738.72 
L 763.926362 685.572808 
L 765.756203 738.72 
L 767.586045 738.72 
L 769.415886 715.564411 
L 771.245728 542.854485 
L 773.075569 619.165213 
L 774.905411 478.716472 
L 776.735252 511.721285 
L 778.565094 557.90875 
L 780.394935 554.322874 
L 782.224777 738.72 
L 787.714301 738.72 
L 789.544143 446.158703 
L 791.373984 441.48491 
L 793.203826 425.158093 
L 795.033667 420.10208 
L 796.863509 449.213871 
L 798.69335 562.746304 
L 800.523192 568.52065 
L 802.353033 681.250748 
L 804.182875 547.723745 
L 806.012716 691.832856 
L 807.842558 738.72 
L 829.800656 738.72 
L 831.630497 683.467936 
L 833.460339 649.044785 
L 835.29018 676.271511 
L 837.120022 738.72 
L 871.88701 738.72 
L 873.716852 710.126541 
L 875.546693 721.775654 
L 877.376535 493.632789 
L 879.206376 428.897418 
L 881.036218 421.500524 
L 882.866059 453.451617 
L 884.695901 253.159071 
L 886.525742 196.534258 
L 888.355584 185.294827 
L 890.185425 165.099079 
L 892.015267 147.903281 
L 893.845108 150.90568 
L 895.67495 168.423481 
L 897.504791 178.078378 
L 899.334633 170.315657 
L 901.164474 174.314153 
L 902.994316 231.636633 
L 904.824157 207.590048 
L 906.653999 218.877079 
L 908.48384 224.73397 
L 910.313682 257.88474 
L 912.143523 250.560763 
L 913.973365 274.296883 
L 915.803206 329.48972 
L 917.633048 243.634486 
L 919.462889 216.101854 
L 921.292731 246.03243 
L 923.122572 202.735852 
L 924.952414 211.576425 
L 926.782255 186.651481 
L 928.612097 217.528394 
L 930.441938 197.751137 
L 932.27178 194.313231 
L 934.101621 182.122027 
L 935.931463 171.040382 
L 937.761304 161.766542 
L 939.591146 233.13692 
L 941.420987 236.802996 
L 943.250829 246.941873 
L 945.08067 261.185528 
L 948.740353 201.624508 
L 950.570195 275.290489 
L 952.400036 260.380957 
L 954.229878 273.571619 
L 956.059719 347.47905 
L 957.889561 287.456502 
L 959.719402 269.909236 
L 961.549244 325.311734 
L 963.379085 364.622432 
L 965.208927 317.836571 
L 967.038768 353.259912 
L 968.86861 356.66885 
L 970.698451 435.416118 
L 972.528293 453.878845 
L 974.358134 485.970106 
L 976.187976 581.450855 
L 978.017817 738.72 
L 990.826708 738.72 
L 992.656549 673.986283 
L 994.486391 738.72 
L 1027.423538 738.72 
L 1029.253379 627.430817 
L 1031.083221 599.543064 
L 1032.913062 493.324378 
L 1034.742904 414.794947 
L 1036.572745 544.006852 
L 1038.402587 732.144641 
L 1040.232428 738.72 
L 1051.211478 738.72 
L 1053.041319 546.482941 
L 1054.871161 540.048943 
L 1056.701002 370.616939 
L 1058.530844 408.420046 
L 1060.360685 228.666355 
L 1062.190527 188.139525 
L 1064.020368 204.024859 
L 1065.85021 203.300757 
L 1067.680051 163.678224 
L 1069.509893 181.334637 
L 1071.339734 194.514508 
L 1073.169576 181.787532 
L 1074.999417 182.640286 
L 1076.829259 190.845319 
L 1078.6591 206.272529 
L 1080.488942 212.517699 
L 1082.318783 215.946061 
L 1084.148625 218.777395 
L 1085.978466 244.842816 
L 1087.808308 274.740814 
L 1089.638149 263.390246 
L 1091.467991 290.570704 
L 1093.297832 257.92429 
L 1095.127674 273.741481 
L 1096.957515 295.138919 
L 1098.787357 283.159866 
L 1100.617198 299.956221 
L 1102.44704 291.95537 
L 1104.276881 226.539742 
L 1106.106723 215.771177 
L 1107.936564 209.119883 
L 1109.766406 223.295062 
L 1111.596247 215.724365 
L 1113.426089 194.449394 
L 1115.25593 267.454769 
L 1117.085772 214.531182 
L 1118.915613 225.424497 
L 1120.745455 224.093616 
L 1120.745455 224.093616 
" clip-path="url(#p76058d04e1)" style="fill: none; stroke: #da70d6; stroke-linecap: square"/>
   </g>
   <g id="line2d_16">
    <path d="M 207.654545 305.587556 
L 209.484387 277.020398 
L 211.314228 369.568137 
L 213.14407 308.870666 
L 214.973911 333.645171 
L 216.803753 271.536888 
L 218.633594 299.665593 
L 220.463436 263.988103 
L 222.293277 282.026362 
L 224.123119 255.913256 
L 225.95296 254.814778 
L 227.782802 248.010678 
L 229.612643 251.070141 
L 231.442485 238.32229 
L 233.272326 246.989183 
L 235.102168 240.959235 
L 236.932009 249.707636 
L 238.761851 245.703662 
L 240.591692 248.423567 
L 242.421534 258.95894 
L 244.251375 243.351494 
L 246.081217 244.04945 
L 247.911058 246.929796 
L 249.7409 247.795622 
L 251.570741 288.843824 
L 253.400583 261.298866 
L 255.230424 287.206129 
L 257.060266 317.368984 
L 260.719949 352.775849 
L 262.54979 427.163275 
L 264.379632 449.833993 
L 266.209473 474.550895 
L 268.039315 487.282436 
L 269.869156 501.064108 
L 271.698998 445.031216 
L 275.358681 505.746699 
L 277.188522 572.216441 
L 279.018364 563.63811 
L 280.848206 569.467351 
L 282.678047 595.64997 
L 284.507889 575.910375 
L 286.33773 590.139692 
L 288.167572 514.508462 
L 289.997413 591.853374 
L 291.827255 587.028561 
L 293.657096 610.29645 
L 295.486938 647.882095 
L 297.316779 659.610568 
L 299.146621 645.475436 
L 300.976462 594.275865 
L 302.806304 597.323832 
L 304.636145 653.871046 
L 308.295828 628.680741 
L 310.12567 646.704942 
L 311.955511 637.34171 
L 313.785353 643.572252 
L 315.615194 641.862231 
L 317.445036 627.840344 
L 319.274877 626.534758 
L 321.104719 612.871498 
L 322.93456 636.672099 
L 324.764402 641.072382 
L 326.594243 611.034434 
L 328.424085 638.301286 
L 330.253926 622.202297 
L 332.083768 612.642321 
L 333.913609 618.230237 
L 335.743451 622.698664 
L 337.573292 558.51138 
L 339.403134 601.985352 
L 341.232975 555.011596 
L 343.062817 482.858601 
L 344.892658 559.595395 
L 346.7225 601.43799 
L 348.552341 571.067446 
L 350.382183 534.049332 
L 352.212024 423.223337 
L 354.041866 348.74656 
L 355.871707 347.042464 
L 357.701549 358.20462 
L 359.53139 262.820775 
L 361.361232 263.522757 
L 363.191073 262.827788 
L 365.020915 256.066227 
L 368.680598 249.979548 
L 370.510439 249.910325 
L 372.340281 251.366662 
L 374.170122 309.203002 
L 375.999964 278.191088 
L 379.659647 285.992819 
L 381.489488 266.948794 
L 383.31933 269.479622 
L 385.149171 267.588525 
L 386.979013 266.649492 
L 388.808854 287.684797 
L 390.638696 272.704423 
L 392.468537 286.17206 
L 394.298379 273.63665 
L 396.12822 246.87543 
L 397.958062 254.955755 
L 399.787903 252.433393 
L 401.617745 252.792871 
L 403.447586 290.235338 
L 405.277428 253.065695 
L 407.107269 253.404796 
L 408.937111 239.78311 
L 410.766952 242.83946 
L 412.596794 247.411659 
L 414.426635 245.142492 
L 418.086318 246.907925 
L 419.91616 243.852986 
L 421.746001 246.349079 
L 423.575843 243.537956 
L 425.405684 272.314235 
L 427.235526 253.57167 
L 429.065367 315.051593 
L 430.895209 345.389289 
L 432.72505 322.177654 
L 434.554892 401.24792 
L 436.384733 390.576549 
L 438.214575 377.614929 
L 440.044416 414.085163 
L 441.874258 364.238469 
L 443.704099 439.322773 
L 445.533941 468.594237 
L 447.363782 422.548206 
L 449.193624 443.258852 
L 451.023465 441.232878 
L 452.853307 443.157756 
L 454.683148 506.947351 
L 456.51299 552.490354 
L 458.342831 553.47371 
L 460.172673 525.447636 
L 462.002514 539.995117 
L 463.832356 498.45447 
L 465.662197 469.752227 
L 467.492039 528.246766 
L 469.32188 537.462006 
L 471.151722 446.512247 
L 472.981563 484.585274 
L 474.811405 489.478978 
L 476.641246 520.180095 
L 478.471088 492.037404 
L 480.300929 402.723265 
L 482.130771 509.794124 
L 483.960612 478.480375 
L 485.790454 493.348282 
L 487.620295 509.865006 
L 489.450137 488.538575 
L 491.279978 486.722054 
L 493.10982 461.476933 
L 494.939661 474.875388 
L 496.769503 465.113378 
L 498.599344 487.393699 
L 500.429186 479.735726 
L 502.259027 476.965688 
L 504.088869 469.943213 
L 505.91871 490.561769 
L 507.748552 518.878347 
L 509.578393 528.65758 
L 511.408235 534.692632 
L 513.238076 541.640075 
L 515.067918 530.317851 
L 516.897759 542.183774 
L 518.727601 536.174866 
L 520.557442 541.622064 
L 522.387284 573.249172 
L 524.217125 556.648005 
L 526.046967 558.087036 
L 527.876808 559.759613 
L 529.70665 544.727841 
L 531.536491 539.629497 
L 533.366333 513.468666 
L 535.196174 510.917419 
L 537.026016 519.050284 
L 538.855857 445.789473 
L 540.685699 493.186015 
L 542.51554 436.602951 
L 544.345382 487.415778 
L 546.175223 466.361714 
L 548.005065 465.628524 
L 549.834906 473.638132 
L 551.664748 455.908512 
L 553.494589 495.673808 
L 555.324431 508.036907 
L 557.154272 462.4866 
L 558.984114 488.960926 
L 560.813955 475.215195 
L 562.643797 400.467128 
L 564.473638 379.66875 
L 566.30348 407.303598 
L 568.133321 335.008298 
L 569.963163 421.393826 
L 571.793004 435.803069 
L 573.622846 470.809412 
L 575.452687 447.08014 
L 577.282529 494.02773 
L 579.11237 486.69263 
L 580.942212 494.878408 
L 582.772053 495.757058 
L 584.601895 481.338685 
L 586.431736 440.689511 
L 588.261578 471.277082 
L 590.091419 498.405374 
L 591.921261 447.829184 
L 593.751102 403.957865 
L 595.580944 521.428971 
L 597.410785 453.32448 
L 599.240627 437.956948 
L 601.070468 462.608861 
L 602.90031 437.802856 
L 604.730151 441.596505 
L 606.559993 445.018766 
L 608.389834 441.291352 
L 610.219676 455.184909 
L 612.049517 463.175053 
L 613.879359 503.976783 
L 615.7092 491.971958 
L 617.539042 490.251718 
L 619.368883 487.263678 
L 621.198725 458.722458 
L 623.028566 469.959896 
L 624.858408 474.825006 
L 626.688249 452.048629 
L 628.518091 482.843993 
L 630.347932 453.125941 
L 632.177774 478.47386 
L 634.007615 515.446043 
L 635.837457 503.205038 
L 637.667298 546.081506 
L 639.49714 564.454716 
L 641.326981 545.398697 
L 643.156823 543.657956 
L 644.986664 504.789447 
L 646.816506 514.243606 
L 648.646347 526.239508 
L 650.476189 397.450245 
L 652.30603 549.516798 
L 654.135872 379.965853 
L 655.965713 374.365435 
L 657.795555 453.101332 
L 659.625396 414.072671 
L 661.455238 500.553858 
L 663.285079 464.163803 
L 665.114921 474.669047 
L 666.944762 476.264329 
L 668.774604 432.860638 
L 670.604445 374.655317 
L 672.434287 413.46639 
L 674.264128 421.793435 
L 676.09397 444.151778 
L 677.923811 453.044891 
L 679.753653 462.806943 
L 681.583494 474.811809 
L 683.413336 512.96846 
L 685.243177 511.239214 
L 687.073019 510.636626 
L 688.90286 474.452622 
L 690.732702 475.060356 
L 692.562543 486.715165 
L 694.392385 438.617263 
L 696.222226 515.191064 
L 698.052068 552.200722 
L 699.881909 534.88092 
L 701.711751 587.235296 
L 703.541592 604.742763 
L 705.371434 601.760574 
L 707.201275 637.122276 
L 709.031117 633.636095 
L 710.860958 636.090199 
L 712.6908 625.056165 
L 714.520641 595.769097 
L 716.350483 587.046053 
L 718.180324 575.019866 
L 720.010166 539.821437 
L 721.840007 536.646022 
L 723.669849 575.699489 
L 725.49969 479.944764 
L 727.329532 502.098717 
L 729.159373 536.308996 
L 730.989215 527.840475 
L 732.819056 566.394224 
L 734.648898 526.198215 
L 736.478739 462.045739 
L 738.308581 558.878162 
L 740.138422 503.674866 
L 741.968264 473.385725 
L 743.798105 559.384344 
L 745.627947 549.186785 
L 747.457788 534.857473 
L 749.28763 545.088647 
L 751.117471 428.375299 
L 752.947313 433.606652 
L 754.777154 561.527868 
L 756.606996 544.701073 
L 758.436837 484.364449 
L 760.266679 561.023284 
L 762.09652 575.007426 
L 763.926362 535.654947 
L 765.756203 565.434472 
L 767.586045 543.171279 
L 769.415886 523.763834 
L 771.245728 534.162878 
L 773.075569 563.953763 
L 774.905411 516.67309 
L 776.735252 535.209646 
L 778.565094 565.472165 
L 780.394935 550.548585 
L 784.054618 560.882722 
L 787.714301 606.968697 
L 789.544143 544.462196 
L 791.373984 505.439926 
L 793.203826 493.964566 
L 795.033667 491.074633 
L 796.863509 539.712332 
L 798.69335 515.772984 
L 800.523192 532.636197 
L 802.353033 605.92695 
L 804.182875 607.402627 
L 806.012716 594.669903 
L 807.842558 642.494544 
L 809.672399 638.074424 
L 811.502241 629.620604 
L 813.332082 617.500231 
L 815.161924 622.28536 
L 816.991765 650.250625 
L 818.821607 644.448287 
L 820.651448 659.126744 
L 822.48129 659.872644 
L 824.311131 680.462435 
L 826.140973 681.229012 
L 827.970814 646.271645 
L 829.800656 674.927116 
L 831.630497 658.316741 
L 833.460339 554.737028 
L 835.29018 515.350799 
L 837.120022 600.739785 
L 838.949863 668.988884 
L 840.779705 692.398405 
L 842.609546 702.130055 
L 844.439388 702.441198 
L 846.269229 706.912276 
L 848.099071 715.295674 
L 849.928912 738.72 
L 851.758754 714.049096 
L 853.588595 696.357483 
L 855.418437 686.258709 
L 857.248278 691.85578 
L 859.07812 703.519496 
L 860.907961 695.70373 
L 862.737803 694.483564 
L 864.567644 673.284254 
L 866.397486 670.247783 
L 868.227327 652.094474 
L 870.057169 649.553374 
L 871.88701 640.079118 
L 873.716852 527.269926 
L 875.546693 555.951957 
L 877.376535 488.1471 
L 879.206376 395.635135 
L 881.036218 340.065473 
L 882.866059 372.742888 
L 884.695901 283.889363 
L 886.525742 257.864571 
L 890.185425 246.700921 
L 892.015267 246.822185 
L 893.845108 247.51068 
L 895.67495 247.588701 
L 897.504791 255.185627 
L 899.334633 249.932818 
L 901.164474 249.879905 
L 902.994316 290.150262 
L 904.824157 263.193491 
L 906.653999 269.195925 
L 908.48384 264.315583 
L 910.313682 314.365423 
L 912.143523 280.879784 
L 913.973365 335.971692 
L 915.803206 337.673505 
L 917.633048 273.401799 
L 919.462889 270.563368 
L 921.292731 299.152978 
L 923.122572 256.529539 
L 924.952414 261.095057 
L 926.782255 254.027388 
L 928.612097 282.184022 
L 930.441938 247.292387 
L 932.27178 264.809191 
L 934.101621 251.292418 
L 935.931463 243.667852 
L 937.761304 247.224741 
L 939.591146 279.972914 
L 941.420987 310.521184 
L 943.250829 336.256676 
L 945.08067 300.139529 
L 946.910512 270.207625 
L 948.740353 254.94401 
L 950.570195 306.158231 
L 952.400036 304.640846 
L 954.229878 293.174449 
L 956.059719 368.381345 
L 957.889561 259.473506 
L 959.719402 270.975344 
L 961.549244 281.693237 
L 965.208927 404.107267 
L 967.038768 354.49335 
L 968.86861 328.11796 
L 970.698451 423.368257 
L 972.528293 468.2226 
L 974.358134 549.298173 
L 976.187976 526.98739 
L 978.017817 609.240915 
L 979.847659 608.703939 
L 981.6775 601.461314 
L 983.507342 622.939367 
L 985.337183 637.260764 
L 987.167025 625.483974 
L 988.996866 603.444293 
L 990.826708 620.026173 
L 992.656549 576.825794 
L 994.486391 643.301595 
L 996.316232 610.090317 
L 998.146074 659.992731 
L 999.975915 677.209605 
L 1001.805757 677.362328 
L 1003.635598 683.776903 
L 1005.46544 689.622194 
L 1007.295281 687.965922 
L 1009.125123 694.740333 
L 1010.954964 693.755862 
L 1012.784806 686.568521 
L 1014.614647 685.014636 
L 1016.444489 692.223366 
L 1018.27433 690.91864 
L 1020.104172 702.855192 
L 1021.934013 675.40319 
L 1023.763855 689.143698 
L 1025.593696 682.874069 
L 1027.423538 658.33939 
L 1031.083221 501.78879 
L 1032.913062 419.721395 
L 1034.742904 423.685653 
L 1036.572745 507.40311 
L 1038.402587 622.779652 
L 1042.06227 692.136537 
L 1043.892111 697.158441 
L 1045.721953 635.683784 
L 1047.551794 661.660176 
L 1049.381636 662.367118 
L 1051.211478 574.513518 
L 1053.041319 472.507283 
L 1054.871161 429.456306 
L 1056.701002 364.400446 
L 1058.530844 377.764995 
L 1060.360685 312.79915 
L 1062.190527 268.671648 
L 1064.020368 250.073629 
L 1065.85021 262.09879 
L 1067.680051 248.918627 
L 1069.509893 249.29097 
L 1071.339734 246.877007 
L 1073.169576 246.704656 
L 1074.999417 247.063137 
L 1076.829259 247.289482 
L 1078.6591 265.579109 
L 1080.488942 265.522544 
L 1082.318783 270.866239 
L 1084.148625 280.63518 
L 1085.978466 306.048835 
L 1087.808308 349.335702 
L 1089.638149 321.925081 
L 1091.467991 352.264147 
L 1093.297832 302.083623 
L 1095.127674 326.184117 
L 1096.957515 324.529532 
L 1098.787357 318.558805 
L 1100.617198 320.96758 
L 1102.44704 322.658479 
L 1104.276881 275.196117 
L 1106.106723 269.707751 
L 1107.936564 252.259962 
L 1109.766406 271.037346 
L 1111.596247 309.768323 
L 1113.426089 269.600265 
L 1115.25593 320.350218 
L 1117.085772 271.36852 
L 1118.915613 327.455612 
L 1120.745455 279.66581 
L 1120.745455 279.66581 
" clip-path="url(#p76058d04e1)" style="fill: none; stroke: #8fbc8f; stroke-linecap: square"/>
   </g>
   <g id="patch_3">
    <path d="M 162 768.96 
L 162 103.68 
" style="fill: none; stroke: #000000; stroke-width: 0.8; stroke-linejoin: miter; stroke-linecap: square"/>
   </g>
   <g id="patch_4">
    <path d="M 1166.4 768.96 
L 1166.4 103.68 
" style="fill: none; stroke: #000000; stroke-width: 0.8; stroke-linejoin: miter; stroke-linecap: square"/>
   </g>
   <g id="patch_5">
    <path d="M 162 768.96 
L 1166.4 768.96 
" style="fill: none; stroke: #000000; stroke-width: 0.8; stroke-linejoin: miter; stroke-linecap: square"/>
   </g>
   <g id="patch_6">
    <path d="M 162 103.68 
L 1166.4 103.68 
" style="fill: none; stroke: #000000; stroke-width: 0.8; stroke-linejoin: miter; stroke-linecap: square"/>
   </g>
   <g id="text_13">
    <!-- Function 1 -->
    <g transform="translate(632.957813 97.68) scale(0.12 -0.12)">
     <defs>
      <path id="DejaVuSans-46" d="M 628 4666 
L 3309 4666 
L 3309 4134 
L 1259 4134 
L 1259 2759 
L 3109 2759 
L 3109 2228 
L 1259 2228 
L 1259 0 
L 628 0 
L 628 4666 
z
" transform="scale(0.015625)"/>
      <path id="DejaVuSans-75" d="M 544 1381 
L 544 3500 
L 1119 3500 
L 1119 1403 
Q 1119 906 1312 657 
Q 1506 409 1894 409 
Q 2359 409 2629 706 
Q 2900 1003 2900 1516 
L 2900 3500 
L 3475 3500 
L 3475 0 
L 2900 0 
L 2900 538 
Q 2691 219 2414 64 
Q 2138 -91 1772 -91 
Q 1169 -91 856 284 
Q 544 659 544 1381 
z
M 1991 3584 
L 1991 3584 
z
" transform="scale(0.015625)"/>
      <path id="DejaVuSans-6e" d="M 3513 2113 
L 3513 0 
L 2938 0 
L 2938 2094 
Q 2938 2591 2744 2837 
Q 2550 3084 2163 3084 
Q 1697 3084 1428 2787 
Q 1159 2491 1159 1978 
L 1159 0 
L 581 0 
L 581 3500 
L 1159 3500 
L 1159 2956 
Q 1366 3272 1645 3428 
Q 1925 3584 2291 3584 
Q 2894 3584 3203 3211 
Q 3513 2838 3513 2113 
z
" transform="scale(0.015625)"/>
      <path id="DejaVuSans-63" d="M 3122 3366 
L 3122 2828 
Q 2878 2963 2633 3030 
Q 2388 3097 2138 3097 
Q 1578 3097 1268 2742 
Q 959 2388 959 1747 
Q 959 1106 1268 751 
Q 1578 397 2138 397 
Q 2388 397 2633 464 
Q 2878 531 3122 666 
L 3122 134 
Q 2881 22 2623 -34 
Q 2366 -91 2075 -91 
Q 1284 -91 818 406 
Q 353 903 353 1747 
Q 353 2603 823 3093 
Q 1294 3584 2113 3584 
Q 2378 3584 2631 3529 
Q 2884 3475 3122 3366 
z
" transform="scale(0.015625)"/>
      <path id="DejaVuSans-74" d="M 1172 4494 
L 1172 3500 
L 2356 3500 
L 2356 3053 
L 1172 3053 
L 1172 1153 
Q 1172 725 1289 603 
Q 1406 481 1766 481 
L 2356 481 
L 2356 0 
L 1766 0 
Q 1100 0 847 248 
Q 594 497 594 1153 
L 594 3053 
L 172 3053 
L 172 3500 
L 594 3500 
L 594 4494 
L 1172 4494 
z
" transform="scale(0.015625)"/>
      <path id="DejaVuSans-69" d="M 603 3500 
L 1178 3500 
L 1178 0 
L 603 0 
L 603 3500 
z
M 603 4863 
L 1178 4863 
L 1178 4134 
L 603 4134 
L 603 4863 
z
" transform="scale(0.015625)"/>
      <path id="DejaVuSans-6f" d="M 1959 3097 
Q 1497 3097 1228 2736 
Q 959 2375 959 1747 
Q 959 1119 1226 758 
Q 1494 397 1959 397 
Q 2419 397 2687 759 
Q 2956 1122 2956 1747 
Q 2956 2369 2687 2733 
Q 2419 3097 1959 3097 
z
M 1959 3584 
Q 2709 3584 3137 3096 
Q 3566 2609 3566 1747 
Q 3566 888 3137 398 
Q 2709 -91 1959 -91 
Q 1206 -91 779 398 
Q 353 888 353 1747 
Q 353 2609 779 3096 
Q 1206 3584 1959 3584 
z
" transform="scale(0.015625)"/>
      <path id="DejaVuSans-20" transform="scale(0.015625)"/>
     </defs>
     <use xlink:href="#DejaVuSans-46"/>
     <use xlink:href="#DejaVuSans-75" x="52.019531"/>
     <use xlink:href="#DejaVuSans-6e" x="115.398438"/>
     <use xlink:href="#DejaVuSans-63" x="178.777344"/>
     <use xlink:href="#DejaVuSans-74" x="233.757812"/>
     <use xlink:href="#DejaVuSans-69" x="272.966797"/>
     <use xlink:href="#DejaVuSans-6f" x="300.75"/>
     <use xlink:href="#DejaVuSans-6e" x="361.931641"/>
     <use xlink:href="#DejaVuSans-20" x="425.310547"/>
     <use xlink:href="#DejaVuSans-31" x="457.097656"/>
    </g>
   </g>
   <g id="legend_1">
    <g id="patch_7">
     <path d="M 590.453125 170.3925 
L 737.946875 170.3925 
Q 739.946875 170.3925 739.946875 168.3925 
L 739.946875 110.68 
Q 739.946875 108.68 737.946875 108.68 
L 590.453125 108.68 
Q 588.453125 108.68 588.453125 110.68 
L 588.453125 168.3925 
Q 588.453125 170.3925 590.453125 170.3925 
z
" style="fill: #ffffff; opacity: 0.8; stroke: #cccccc; stroke-linejoin: miter"/>
    </g>
    <g id="line2d_17">
     <path d="M 592.453125 116.778437 
L 602.453125 116.778437 
L 612.453125 116.778437 
" style="fill: none; stroke: #4169e1; stroke-linecap: square"/>
    </g>
    <g id="text_14">
     <!-- Truth -->
     <g transform="translate(620.453125 120.278437) scale(0.1 -0.1)">
      <defs>
       <path id="DejaVuSans-54" d="M -19 4666 
L 3928 4666 
L 3928 4134 
L 2272 4134 
L 2272 0 
L 1638 0 
L 1638 4134 
L -19 4134 
L -19 4666 
z
" transform="scale(0.015625)"/>
       <path id="DejaVuSans-72" d="M 2631 2963 
Q 2534 3019 2420 3045 
Q 2306 3072 2169 3072 
Q 1681 3072 1420 2755 
Q 1159 2438 1159 1844 
L 1159 0 
L 581 0 
L 581 3500 
L 1159 3500 
L 1159 2956 
Q 1341 3275 1631 3429 
Q 1922 3584 2338 3584 
Q 2397 3584 2469 3576 
Q 2541 3569 2628 3553 
L 2631 2963 
z
" transform="scale(0.015625)"/>
       <path id="DejaVuSans-68" d="M 3513 2113 
L 3513 0 
L 2938 0 
L 2938 2094 
Q 2938 2591 2744 2837 
Q 2550 3084 2163 3084 
Q 1697 3084 1428 2787 
Q 1159 2491 1159 1978 
L 1159 0 
L 581 0 
L 581 4863 
L 1159 4863 
L 1159 2956 
Q 1366 3272 1645 3428 
Q 1925 3584 2291 3584 
Q 2894 3584 3203 3211 
Q 3513 2838 3513 2113 
z
" transform="scale(0.015625)"/>
      </defs>
      <use xlink:href="#DejaVuSans-54"/>
      <use xlink:href="#DejaVuSans-72" x="46.333984"/>
      <use xlink:href="#DejaVuSans-75" x="87.447266"/>
      <use xlink:href="#DejaVuSans-74" x="150.826172"/>
      <use xlink:href="#DejaVuSans-68" x="190.035156"/>
     </g>
    </g>
    <g id="line2d_18">
     <path d="M 592.453125 131.456562 
L 602.453125 131.456562 
L 612.453125 131.456562 
" style="fill: none; stroke: #ff6347; stroke-linecap: square"/>
    </g>
    <g id="text_15">
     <!-- Gossip predictions -->
     <g transform="translate(620.453125 134.956562) scale(0.1 -0.1)">
      <defs>
       <path id="DejaVuSans-47" d="M 3809 666 
L 3809 1919 
L 2778 1919 
L 2778 2438 
L 4434 2438 
L 4434 434 
Q 4069 175 3628 42 
Q 3188 -91 2688 -91 
Q 1594 -91 976 548 
Q 359 1188 359 2328 
Q 359 3472 976 4111 
Q 1594 4750 2688 4750 
Q 3144 4750 3555 4637 
Q 3966 4525 4313 4306 
L 4313 3634 
Q 3963 3931 3569 4081 
Q 3175 4231 2741 4231 
Q 1884 4231 1454 3753 
Q 1025 3275 1025 2328 
Q 1025 1384 1454 906 
Q 1884 428 2741 428 
Q 3075 428 3337 486 
Q 3600 544 3809 666 
z
" transform="scale(0.015625)"/>
       <path id="DejaVuSans-73" d="M 2834 3397 
L 2834 2853 
Q 2591 2978 2328 3040 
Q 2066 3103 1784 3103 
Q 1356 3103 1142 2972 
Q 928 2841 928 2578 
Q 928 2378 1081 2264 
Q 1234 2150 1697 2047 
L 1894 2003 
Q 2506 1872 2764 1633 
Q 3022 1394 3022 966 
Q 3022 478 2636 193 
Q 2250 -91 1575 -91 
Q 1294 -91 989 -36 
Q 684 19 347 128 
L 347 722 
Q 666 556 975 473 
Q 1284 391 1588 391 
Q 1994 391 2212 530 
Q 2431 669 2431 922 
Q 2431 1156 2273 1281 
Q 2116 1406 1581 1522 
L 1381 1569 
Q 847 1681 609 1914 
Q 372 2147 372 2553 
Q 372 3047 722 3315 
Q 1072 3584 1716 3584 
Q 2034 3584 2315 3537 
Q 2597 3491 2834 3397 
z
" transform="scale(0.015625)"/>
       <path id="DejaVuSans-70" d="M 1159 525 
L 1159 -1331 
L 581 -1331 
L 581 3500 
L 1159 3500 
L 1159 2969 
Q 1341 3281 1617 3432 
Q 1894 3584 2278 3584 
Q 2916 3584 3314 3078 
Q 3713 2572 3713 1747 
Q 3713 922 3314 415 
Q 2916 -91 2278 -91 
Q 1894 -91 1617 61 
Q 1341 213 1159 525 
z
M 3116 1747 
Q 3116 2381 2855 2742 
Q 2594 3103 2138 3103 
Q 1681 3103 1420 2742 
Q 1159 2381 1159 1747 
Q 1159 1113 1420 752 
Q 1681 391 2138 391 
Q 2594 391 2855 752 
Q 3116 1113 3116 1747 
z
" transform="scale(0.015625)"/>
       <path id="DejaVuSans-65" d="M 3597 1894 
L 3597 1613 
L 953 1613 
Q 991 1019 1311 708 
Q 1631 397 2203 397 
Q 2534 397 2845 478 
Q 3156 559 3463 722 
L 3463 178 
Q 3153 47 2828 -22 
Q 2503 -91 2169 -91 
Q 1331 -91 842 396 
Q 353 884 353 1716 
Q 353 2575 817 3079 
Q 1281 3584 2069 3584 
Q 2775 3584 3186 3129 
Q 3597 2675 3597 1894 
z
M 3022 2063 
Q 3016 2534 2758 2815 
Q 2500 3097 2075 3097 
Q 1594 3097 1305 2825 
Q 1016 2553 972 2059 
L 3022 2063 
z
" transform="scale(0.015625)"/>
       <path id="DejaVuSans-64" d="M 2906 2969 
L 2906 4863 
L 3481 4863 
L 3481 0 
L 2906 0 
L 2906 525 
Q 2725 213 2448 61 
Q 2172 -91 1784 -91 
Q 1150 -91 751 415 
Q 353 922 353 1747 
Q 353 2572 751 3078 
Q 1150 3584 1784 3584 
Q 2172 3584 2448 3432 
Q 2725 3281 2906 2969 
z
M 947 1747 
Q 947 1113 1208 752 
Q 1469 391 1925 391 
Q 2381 391 2643 752 
Q 2906 1113 2906 1747 
Q 2906 2381 2643 2742 
Q 2381 3103 1925 3103 
Q 1469 3103 1208 2742 
Q 947 2381 947 1747 
z
" transform="scale(0.015625)"/>
      </defs>
      <use xlink:href="#DejaVuSans-47"/>
      <use xlink:href="#DejaVuSans-6f" x="77.490234"/>
      <use xlink:href="#DejaVuSans-73" x="138.671875"/>
      <use xlink:href="#DejaVuSans-73" x="190.771484"/>
      <use xlink:href="#DejaVuSans-69" x="242.871094"/>
      <use xlink:href="#DejaVuSans-70" x="270.654297"/>
      <use xlink:href="#DejaVuSans-20" x="334.130859"/>
      <use xlink:href="#DejaVuSans-70" x="365.917969"/>
      <use xlink:href="#DejaVuSans-72" x="429.394531"/>
      <use xlink:href="#DejaVuSans-65" x="468.257812"/>
      <use xlink:href="#DejaVuSans-64" x="529.78125"/>
      <use xlink:href="#DejaVuSans-69" x="593.257812"/>
      <use xlink:href="#DejaVuSans-63" x="621.041016"/>
      <use xlink:href="#DejaVuSans-74" x="676.021484"/>
      <use xlink:href="#DejaVuSans-69" x="715.230469"/>
      <use xlink:href="#DejaVuSans-6f" x="743.013672"/>
      <use xlink:href="#DejaVuSans-6e" x="804.195312"/>
      <use xlink:href="#DejaVuSans-73" x="867.574219"/>
     </g>
    </g>
    <g id="line2d_19">
     <path d="M 592.453125 146.134687 
L 602.453125 146.134687 
L 612.453125 146.134687 
" style="fill: none; stroke: #da70d6; stroke-linecap: square"/>
    </g>
    <g id="text_16">
     <!-- Centralized predictions -->
     <g transform="translate(620.453125 149.634687) scale(0.1 -0.1)">
      <defs>
       <path id="DejaVuSans-43" d="M 4122 4306 
L 4122 3641 
Q 3803 3938 3442 4084 
Q 3081 4231 2675 4231 
Q 1875 4231 1450 3742 
Q 1025 3253 1025 2328 
Q 1025 1406 1450 917 
Q 1875 428 2675 428 
Q 3081 428 3442 575 
Q 3803 722 4122 1019 
L 4122 359 
Q 3791 134 3420 21 
Q 3050 -91 2638 -91 
Q 1578 -91 968 557 
Q 359 1206 359 2328 
Q 359 3453 968 4101 
Q 1578 4750 2638 4750 
Q 3056 4750 3426 4639 
Q 3797 4528 4122 4306 
z
" transform="scale(0.015625)"/>
       <path id="DejaVuSans-61" d="M 2194 1759 
Q 1497 1759 1228 1600 
Q 959 1441 959 1056 
Q 959 750 1161 570 
Q 1363 391 1709 391 
Q 2188 391 2477 730 
Q 2766 1069 2766 1631 
L 2766 1759 
L 2194 1759 
z
M 3341 1997 
L 3341 0 
L 2766 0 
L 2766 531 
Q 2569 213 2275 61 
Q 1981 -91 1556 -91 
Q 1019 -91 701 211 
Q 384 513 384 1019 
Q 384 1609 779 1909 
Q 1175 2209 1959 2209 
L 2766 2209 
L 2766 2266 
Q 2766 2663 2505 2880 
Q 2244 3097 1772 3097 
Q 1472 3097 1187 3025 
Q 903 2953 641 2809 
L 641 3341 
Q 956 3463 1253 3523 
Q 1550 3584 1831 3584 
Q 2591 3584 2966 3190 
Q 3341 2797 3341 1997 
z
" transform="scale(0.015625)"/>
       <path id="DejaVuSans-6c" d="M 603 4863 
L 1178 4863 
L 1178 0 
L 603 0 
L 603 4863 
z
" transform="scale(0.015625)"/>
       <path id="DejaVuSans-7a" d="M 353 3500 
L 3084 3500 
L 3084 2975 
L 922 459 
L 3084 459 
L 3084 0 
L 275 0 
L 275 525 
L 2438 3041 
L 353 3041 
L 353 3500 
z
" transform="scale(0.015625)"/>
      </defs>
      <use xlink:href="#DejaVuSans-43"/>
      <use xlink:href="#DejaVuSans-65" x="69.824219"/>
      <use xlink:href="#DejaVuSans-6e" x="131.347656"/>
      <use xlink:href="#DejaVuSans-74" x="194.726562"/>
      <use xlink:href="#DejaVuSans-72" x="233.935547"/>
      <use xlink:href="#DejaVuSans-61" x="275.048828"/>
      <use xlink:href="#DejaVuSans-6c" x="336.328125"/>
      <use xlink:href="#DejaVuSans-69" x="364.111328"/>
      <use xlink:href="#DejaVuSans-7a" x="391.894531"/>
      <use xlink:href="#DejaVuSans-65" x="444.384766"/>
      <use xlink:href="#DejaVuSans-64" x="505.908203"/>
      <use xlink:href="#DejaVuSans-20" x="569.384766"/>
      <use xlink:href="#DejaVuSans-70" x="601.171875"/>
      <use xlink:href="#DejaVuSans-72" x="664.648438"/>
      <use xlink:href="#DejaVuSans-65" x="703.511719"/>
      <use xlink:href="#DejaVuSans-64" x="765.035156"/>
      <use xlink:href="#DejaVuSans-69" x="828.511719"/>
      <use xlink:href="#DejaVuSans-63" x="856.294922"/>
      <use xlink:href="#DejaVuSans-74" x="911.275391"/>
      <use xlink:href="#DejaVuSans-69" x="950.484375"/>
      <use xlink:href="#DejaVuSans-6f" x="978.267578"/>
      <use xlink:href="#DejaVuSans-6e" x="1039.449219"/>
      <use xlink:href="#DejaVuSans-73" x="1102.828125"/>
     </g>
    </g>
    <g id="line2d_20">
     <path d="M 592.453125 160.812812 
L 602.453125 160.812812 
L 612.453125 160.812812 
" style="fill: none; stroke: #8fbc8f; stroke-linecap: square"/>
    </g>
    <g id="text_17">
     <!-- Single predictions -->
     <g transform="translate(620.453125 164.312812) scale(0.1 -0.1)">
      <defs>
       <path id="DejaVuSans-53" d="M 3425 4513 
L 3425 3897 
Q 3066 4069 2747 4153 
Q 2428 4238 2131 4238 
Q 1616 4238 1336 4038 
Q 1056 3838 1056 3469 
Q 1056 3159 1242 3001 
Q 1428 2844 1947 2747 
L 2328 2669 
Q 3034 2534 3370 2195 
Q 3706 1856 3706 1288 
Q 3706 609 3251 259 
Q 2797 -91 1919 -91 
Q 1588 -91 1214 -16 
Q 841 59 441 206 
L 441 856 
Q 825 641 1194 531 
Q 1563 422 1919 422 
Q 2459 422 2753 634 
Q 3047 847 3047 1241 
Q 3047 1584 2836 1778 
Q 2625 1972 2144 2069 
L 1759 2144 
Q 1053 2284 737 2584 
Q 422 2884 422 3419 
Q 422 4038 858 4394 
Q 1294 4750 2059 4750 
Q 2388 4750 2728 4690 
Q 3069 4631 3425 4513 
z
" transform="scale(0.015625)"/>
       <path id="DejaVuSans-67" d="M 2906 1791 
Q 2906 2416 2648 2759 
Q 2391 3103 1925 3103 
Q 1463 3103 1205 2759 
Q 947 2416 947 1791 
Q 947 1169 1205 825 
Q 1463 481 1925 481 
Q 2391 481 2648 825 
Q 2906 1169 2906 1791 
z
M 3481 434 
Q 3481 -459 3084 -895 
Q 2688 -1331 1869 -1331 
Q 1566 -1331 1297 -1286 
Q 1028 -1241 775 -1147 
L 775 -588 
Q 1028 -725 1275 -790 
Q 1522 -856 1778 -856 
Q 2344 -856 2625 -561 
Q 2906 -266 2906 331 
L 2906 616 
Q 2728 306 2450 153 
Q 2172 0 1784 0 
Q 1141 0 747 490 
Q 353 981 353 1791 
Q 353 2603 747 3093 
Q 1141 3584 1784 3584 
Q 2172 3584 2450 3431 
Q 2728 3278 2906 2969 
L 2906 3500 
L 3481 3500 
L 3481 434 
z
" transform="scale(0.015625)"/>
      </defs>
      <use xlink:href="#DejaVuSans-53"/>
      <use xlink:href="#DejaVuSans-69" x="63.476562"/>
      <use xlink:href="#DejaVuSans-6e" x="91.259766"/>
      <use xlink:href="#DejaVuSans-67" x="154.638672"/>
      <use xlink:href="#DejaVuSans-6c" x="218.115234"/>
      <use xlink:href="#DejaVuSans-65" x="245.898438"/>
      <use xlink:href="#DejaVuSans-20" x="307.421875"/>
      <use xlink:href="#DejaVuSans-70" x="339.208984"/>
      <use xlink:href="#DejaVuSans-72" x="402.685547"/>
      <use xlink:href="#DejaVuSans-65" x="441.548828"/>
      <use xlink:href="#DejaVuSans-64" x="503.072266"/>
      <use xlink:href="#DejaVuSans-69" x="566.548828"/>
      <use xlink:href="#DejaVuSans-63" x="594.332031"/>
      <use xlink:href="#DejaVuSans-74" x="649.3125"/>
      <use xlink:href="#DejaVuSans-69" x="688.521484"/>
      <use xlink:href="#DejaVuSans-6f" x="716.304688"/>
      <use xlink:href="#DejaVuSans-6e" x="777.486328"/>
      <use xlink:href="#DejaVuSans-73" x="840.865234"/>
     </g>
    </g>
   </g>
  </g>
 </g>
 <defs>
  <clipPath id="p76058d04e1">
   <rect x="162" y="103.68" width="1004.4" height="665.28"/>
  </clipPath>
 </defs>
</svg>
