<?xml version="1.0" encoding="utf-8" standalone="no"?>
<!DOCTYPE svg PUBLIC "-//W3C//DTD SVG 1.1//EN"
  "http://www.w3.org/Graphics/SVG/1.1/DTD/svg11.dtd">
<svg xmlns:xlink="http://www.w3.org/1999/xlink" width="1296pt" height="864pt" viewBox="0 0 1296 864" xmlns="http://www.w3.org/2000/svg" version="1.1">
 <metadata>
  <rdf:RDF xmlns:dc="http://purl.org/dc/elements/1.1/" xmlns:cc="http://creativecommons.org/ns#" xmlns:rdf="http://www.w3.org/1999/02/22-rdf-syntax-ns#">
   <cc:Work>
    <dc:type rdf:resource="http://purl.org/dc/dcmitype/StillImage"/>
    <dc:date>2023-12-24T17:34:43.663897</dc:date>
    <dc:format>image/svg+xml</dc:format>
    <dc:creator>
     <cc:Agent>
      <dc:title>Matplotlib v3.8.0, https://matplotlib.org/</dc:title>
     </cc:Agent>
    </dc:creator>
   </cc:Work>
  </rdf:RDF>
 </metadata>
 <defs>
  <style type="text/css">*{stroke-linejoin: round; stroke-linecap: butt}</style>
 </defs>
 <g id="figure_1">
  <g id="patch_1">
   <path d="M 0 864 
L 1296 864 
L 1296 0 
L 0 0 
z
" style="fill: #ffffff"/>
  </g>
  <g id="axes_1">
   <g id="patch_2">
    <path d="M 162 768.96 
L 1166.4 768.96 
L 1166.4 103.68 
L 162 103.68 
z
" style="fill: #ffffff"/>
   </g>
   <g id="matplotlib.axis_1">
    <g id="xtick_1">
     <g id="line2d_1">
      <defs>
       <path id="mc4862c9867" d="M 0 0 
L 0 3.5 
" style="stroke: #000000; stroke-width: 0.8"/>
      </defs>
      <g>
       <use xlink:href="#mc4862c9867" x="207.654545" y="768.96" style="stroke: #000000; stroke-width: 0.8"/>
      </g>
     </g>
     <g id="text_1">
      <!-- 0 -->
      <g transform="translate(204.473295 783.558437) scale(0.1 -0.1)">
       <defs>
        <path id="DejaVuSans-30" d="M 2034 4250 
Q 1547 4250 1301 3770 
Q 1056 3291 1056 2328 
Q 1056 1369 1301 889 
Q 1547 409 2034 409 
Q 2525 409 2770 889 
Q 3016 1369 3016 2328 
Q 3016 3291 2770 3770 
Q 2525 4250 2034 4250 
z
M 2034 4750 
Q 2819 4750 3233 4129 
Q 3647 3509 3647 2328 
Q 3647 1150 3233 529 
Q 2819 -91 2034 -91 
Q 1250 -91 836 529 
Q 422 1150 422 2328 
Q 422 3509 836 4129 
Q 1250 4750 2034 4750 
z
" transform="scale(0.015625)"/>
       </defs>
       <use xlink:href="#DejaVuSans-30"/>
      </g>
     </g>
    </g>
    <g id="xtick_2">
     <g id="line2d_2">
      <g>
       <use xlink:href="#mc4862c9867" x="390.638696" y="768.96" style="stroke: #000000; stroke-width: 0.8"/>
      </g>
     </g>
     <g id="text_2">
      <!-- 100 -->
      <g transform="translate(381.094946 783.558437) scale(0.1 -0.1)">
       <defs>
        <path id="DejaVuSans-31" d="M 794 531 
L 1825 531 
L 1825 4091 
L 703 3866 
L 703 4441 
L 1819 4666 
L 2450 4666 
L 2450 531 
L 3481 531 
L 3481 0 
L 794 0 
L 794 531 
z
" transform="scale(0.015625)"/>
       </defs>
       <use xlink:href="#DejaVuSans-31"/>
       <use xlink:href="#DejaVuSans-30" x="63.623047"/>
       <use xlink:href="#DejaVuSans-30" x="127.246094"/>
      </g>
     </g>
    </g>
    <g id="xtick_3">
     <g id="line2d_3">
      <g>
       <use xlink:href="#mc4862c9867" x="573.622846" y="768.96" style="stroke: #000000; stroke-width: 0.8"/>
      </g>
     </g>
     <g id="text_3">
      <!-- 200 -->
      <g transform="translate(564.079096 783.558437) scale(0.1 -0.1)">
       <defs>
        <path id="DejaVuSans-32" d="M 1228 531 
L 3431 531 
L 3431 0 
L 469 0 
L 469 531 
Q 828 903 1448 1529 
Q 2069 2156 2228 2338 
Q 2531 2678 2651 2914 
Q 2772 3150 2772 3378 
Q 2772 3750 2511 3984 
Q 2250 4219 1831 4219 
Q 1534 4219 1204 4116 
Q 875 4013 500 3803 
L 500 4441 
Q 881 4594 1212 4672 
Q 1544 4750 1819 4750 
Q 2544 4750 2975 4387 
Q 3406 4025 3406 3419 
Q 3406 3131 3298 2873 
Q 3191 2616 2906 2266 
Q 2828 2175 2409 1742 
Q 1991 1309 1228 531 
z
" transform="scale(0.015625)"/>
       </defs>
       <use xlink:href="#DejaVuSans-32"/>
       <use xlink:href="#DejaVuSans-30" x="63.623047"/>
       <use xlink:href="#DejaVuSans-30" x="127.246094"/>
      </g>
     </g>
    </g>
    <g id="xtick_4">
     <g id="line2d_4">
      <g>
       <use xlink:href="#mc4862c9867" x="756.606996" y="768.96" style="stroke: #000000; stroke-width: 0.8"/>
      </g>
     </g>
     <g id="text_4">
      <!-- 300 -->
      <g transform="translate(747.063246 783.558437) scale(0.1 -0.1)">
       <defs>
        <path id="DejaVuSans-33" d="M 2597 2516 
Q 3050 2419 3304 2112 
Q 3559 1806 3559 1356 
Q 3559 666 3084 287 
Q 2609 -91 1734 -91 
Q 1441 -91 1130 -33 
Q 819 25 488 141 
L 488 750 
Q 750 597 1062 519 
Q 1375 441 1716 441 
Q 2309 441 2620 675 
Q 2931 909 2931 1356 
Q 2931 1769 2642 2001 
Q 2353 2234 1838 2234 
L 1294 2234 
L 1294 2753 
L 1863 2753 
Q 2328 2753 2575 2939 
Q 2822 3125 2822 3475 
Q 2822 3834 2567 4026 
Q 2313 4219 1838 4219 
Q 1578 4219 1281 4162 
Q 984 4106 628 3988 
L 628 4550 
Q 988 4650 1302 4700 
Q 1616 4750 1894 4750 
Q 2613 4750 3031 4423 
Q 3450 4097 3450 3541 
Q 3450 3153 3228 2886 
Q 3006 2619 2597 2516 
z
" transform="scale(0.015625)"/>
       </defs>
       <use xlink:href="#DejaVuSans-33"/>
       <use xlink:href="#DejaVuSans-30" x="63.623047"/>
       <use xlink:href="#DejaVuSans-30" x="127.246094"/>
      </g>
     </g>
    </g>
    <g id="xtick_5">
     <g id="line2d_5">
      <g>
       <use xlink:href="#mc4862c9867" x="939.591146" y="768.96" style="stroke: #000000; stroke-width: 0.8"/>
      </g>
     </g>
     <g id="text_5">
      <!-- 400 -->
      <g transform="translate(930.047396 783.558437) scale(0.1 -0.1)">
       <defs>
        <path id="DejaVuSans-34" d="M 2419 4116 
L 825 1625 
L 2419 1625 
L 2419 4116 
z
M 2253 4666 
L 3047 4666 
L 3047 1625 
L 3713 1625 
L 3713 1100 
L 3047 1100 
L 3047 0 
L 2419 0 
L 2419 1100 
L 313 1100 
L 313 1709 
L 2253 4666 
z
" transform="scale(0.015625)"/>
       </defs>
       <use xlink:href="#DejaVuSans-34"/>
       <use xlink:href="#DejaVuSans-30" x="63.623047"/>
       <use xlink:href="#DejaVuSans-30" x="127.246094"/>
      </g>
     </g>
    </g>
    <g id="xtick_6">
     <g id="line2d_6">
      <g>
       <use xlink:href="#mc4862c9867" x="1122.575296" y="768.96" style="stroke: #000000; stroke-width: 0.8"/>
      </g>
     </g>
     <g id="text_6">
      <!-- 500 -->
      <g transform="translate(1113.031546 783.558437) scale(0.1 -0.1)">
       <defs>
        <path id="DejaVuSans-35" d="M 691 4666 
L 3169 4666 
L 3169 4134 
L 1269 4134 
L 1269 2991 
Q 1406 3038 1543 3061 
Q 1681 3084 1819 3084 
Q 2600 3084 3056 2656 
Q 3513 2228 3513 1497 
Q 3513 744 3044 326 
Q 2575 -91 1722 -91 
Q 1428 -91 1123 -41 
Q 819 9 494 109 
L 494 744 
Q 775 591 1075 516 
Q 1375 441 1709 441 
Q 2250 441 2565 725 
Q 2881 1009 2881 1497 
Q 2881 1984 2565 2268 
Q 2250 2553 1709 2553 
Q 1456 2553 1204 2497 
Q 953 2441 691 2322 
L 691 4666 
z
" transform="scale(0.015625)"/>
       </defs>
       <use xlink:href="#DejaVuSans-35"/>
       <use xlink:href="#DejaVuSans-30" x="63.623047"/>
       <use xlink:href="#DejaVuSans-30" x="127.246094"/>
      </g>
     </g>
    </g>
   </g>
   <g id="matplotlib.axis_2">
    <g id="ytick_1">
     <g id="line2d_7">
      <defs>
       <path id="meae2ba914b" d="M 0 0 
L -3.5 0 
" style="stroke: #000000; stroke-width: 0.8"/>
      </defs>
      <g>
       <use xlink:href="#meae2ba914b" x="162" y="738.72" style="stroke: #000000; stroke-width: 0.8"/>
      </g>
     </g>
     <g id="text_7">
      <!-- 0 -->
      <g transform="translate(148.6375 742.519219) scale(0.1 -0.1)">
       <use xlink:href="#DejaVuSans-30"/>
      </g>
     </g>
    </g>
    <g id="ytick_2">
     <g id="line2d_8">
      <g>
       <use xlink:href="#meae2ba914b" x="162" y="648.885976" style="stroke: #000000; stroke-width: 0.8"/>
      </g>
     </g>
     <g id="text_8">
      <!-- 5 -->
      <g transform="translate(148.6375 652.685195) scale(0.1 -0.1)">
       <use xlink:href="#DejaVuSans-35"/>
      </g>
     </g>
    </g>
    <g id="ytick_3">
     <g id="line2d_9">
      <g>
       <use xlink:href="#meae2ba914b" x="162" y="559.051952" style="stroke: #000000; stroke-width: 0.8"/>
      </g>
     </g>
     <g id="text_9">
      <!-- 10 -->
      <g transform="translate(142.275 562.851171) scale(0.1 -0.1)">
       <use xlink:href="#DejaVuSans-31"/>
       <use xlink:href="#DejaVuSans-30" x="63.623047"/>
      </g>
     </g>
    </g>
    <g id="ytick_4">
     <g id="line2d_10">
      <g>
       <use xlink:href="#meae2ba914b" x="162" y="469.217928" style="stroke: #000000; stroke-width: 0.8"/>
      </g>
     </g>
     <g id="text_10">
      <!-- 15 -->
      <g transform="translate(142.275 473.017147) scale(0.1 -0.1)">
       <use xlink:href="#DejaVuSans-31"/>
       <use xlink:href="#DejaVuSans-35" x="63.623047"/>
      </g>
     </g>
    </g>
    <g id="ytick_5">
     <g id="line2d_11">
      <g>
       <use xlink:href="#meae2ba914b" x="162" y="379.383904" style="stroke: #000000; stroke-width: 0.8"/>
      </g>
     </g>
     <g id="text_11">
      <!-- 20 -->
      <g transform="translate(142.275 383.183123) scale(0.1 -0.1)">
       <use xlink:href="#DejaVuSans-32"/>
       <use xlink:href="#DejaVuSans-30" x="63.623047"/>
      </g>
     </g>
    </g>
    <g id="ytick_6">
     <g id="line2d_12">
      <g>
       <use xlink:href="#meae2ba914b" x="162" y="289.54988" style="stroke: #000000; stroke-width: 0.8"/>
      </g>
     </g>
     <g id="text_12">
      <!-- 25 -->
      <g transform="translate(142.275 293.349099) scale(0.1 -0.1)">
       <use xlink:href="#DejaVuSans-32"/>
       <use xlink:href="#DejaVuSans-35" x="63.623047"/>
      </g>
     </g>
    </g>
    <g id="ytick_7">
     <g id="line2d_13">
      <g>
       <use xlink:href="#meae2ba914b" x="162" y="199.715856" style="stroke: #000000; stroke-width: 0.8"/>
      </g>
     </g>
     <g id="text_13">
      <!-- 30 -->
      <g transform="translate(142.275 203.515075) scale(0.1 -0.1)">
       <use xlink:href="#DejaVuSans-33"/>
       <use xlink:href="#DejaVuSans-30" x="63.623047"/>
      </g>
     </g>
    </g>
    <g id="ytick_8">
     <g id="line2d_14">
      <g>
       <use xlink:href="#meae2ba914b" x="162" y="109.881832" style="stroke: #000000; stroke-width: 0.8"/>
      </g>
     </g>
     <g id="text_14">
      <!-- 35 -->
      <g transform="translate(142.275 113.681051) scale(0.1 -0.1)">
       <use xlink:href="#DejaVuSans-33"/>
       <use xlink:href="#DejaVuSans-35" x="63.623047"/>
      </g>
     </g>
    </g>
   </g>
   <g id="line2d_15">
    <path d="M 207.654545 684.819586 
L 209.484387 702.78639 
L 211.314228 559.051952 
L 213.14407 684.819586 
L 214.973911 666.852781 
L 216.803753 738.72 
L 218.633594 684.819586 
L 220.463436 738.72 
L 222.293277 684.819586 
L 224.123119 738.72 
L 225.95296 612.952366 
L 227.782802 505.151538 
L 229.612643 738.72 
L 231.442485 720.753195 
L 233.272326 612.952366 
L 235.102168 666.852781 
L 236.932009 559.051952 
L 238.761851 523.118342 
L 240.591692 666.852781 
L 242.421534 720.753195 
L 244.251375 451.251123 
L 246.081217 361.417099 
L 247.911058 253.61627 
L 253.400583 253.61627 
L 255.230424 487.184733 
L 257.060266 253.61627 
L 258.890107 253.61627 
L 260.719949 361.417099 
L 262.54979 577.018757 
L 264.379632 253.61627 
L 277.188522 253.61627 
L 279.018364 505.151538 
L 280.848206 684.819586 
L 282.678047 594.985562 
L 284.507889 541.085147 
L 286.33773 253.61627 
L 288.167572 253.61627 
L 289.997413 343.450294 
L 291.827255 253.61627 
L 293.657096 505.151538 
L 295.486938 523.118342 
L 297.316779 253.61627 
L 299.146621 253.61627 
L 300.976462 307.516685 
L 302.806304 253.61627 
L 304.636145 505.151538 
L 306.465987 397.350709 
L 308.295828 577.018757 
L 310.12567 253.61627 
L 311.955511 379.383904 
L 313.785353 594.985562 
L 315.615194 289.54988 
L 317.445036 505.151538 
L 319.274877 523.118342 
L 321.104719 469.217928 
L 322.93456 253.61627 
L 324.764402 325.48349 
L 326.594243 379.383904 
L 328.424085 702.78639 
L 330.253926 487.184733 
L 332.083768 361.417099 
L 333.913609 415.317514 
L 335.743451 451.251123 
L 337.573292 397.350709 
L 339.403134 577.018757 
L 341.232975 289.54988 
L 343.062817 253.61627 
L 344.892658 271.583075 
L 346.7225 343.450294 
L 348.552341 379.383904 
L 350.382183 253.61627 
L 352.212024 379.383904 
L 354.041866 415.317514 
L 355.871707 415.317514 
L 357.701549 469.217928 
L 359.53139 738.72 
L 361.361232 559.051952 
L 363.191073 612.952366 
L 365.020915 451.251123 
L 366.850756 684.819586 
L 368.680598 343.450294 
L 370.510439 433.284318 
L 372.340281 577.018757 
L 374.170122 648.885976 
L 375.999964 307.516685 
L 377.829805 361.417099 
L 379.659647 433.284318 
L 381.489488 307.516685 
L 383.31933 379.383904 
L 385.149171 433.284318 
L 386.979013 307.516685 
L 388.808854 415.317514 
L 390.638696 433.284318 
L 392.468537 271.583075 
L 394.298379 541.085147 
L 396.12822 523.118342 
L 397.958062 379.383904 
L 399.787903 666.852781 
L 401.617745 648.885976 
L 403.447586 325.48349 
L 405.277428 630.919171 
L 407.107269 433.284318 
L 408.937111 559.051952 
L 410.766952 577.018757 
L 412.596794 343.450294 
L 414.426635 630.919171 
L 416.256477 738.72 
L 418.086318 738.72 
L 419.91616 594.985562 
L 421.746001 594.985562 
L 423.575843 630.919171 
L 425.405684 630.919171 
L 427.235526 487.184733 
L 429.065367 630.919171 
L 430.895209 307.516685 
L 432.72505 325.48349 
L 434.554892 648.885976 
L 436.384733 397.350709 
L 438.214575 253.61627 
L 440.044416 253.61627 
L 441.874258 451.251123 
L 443.704099 343.450294 
L 445.533941 577.018757 
L 447.363782 271.583075 
L 449.193624 594.985562 
L 451.023465 361.417099 
L 452.853307 451.251123 
L 454.683148 523.118342 
L 456.51299 415.317514 
L 458.342831 612.952366 
L 460.172673 487.184733 
L 462.002514 253.61627 
L 463.832356 594.985562 
L 465.662197 253.61627 
L 467.492039 253.61627 
L 469.32188 451.251123 
L 471.151722 325.48349 
L 472.981563 487.184733 
L 474.811405 451.251123 
L 476.641246 253.61627 
L 478.471088 253.61627 
L 480.300929 451.251123 
L 482.130771 343.450294 
L 483.960612 594.985562 
L 485.790454 253.61627 
L 487.620295 630.919171 
L 489.450137 648.885976 
L 491.279978 505.151538 
L 493.10982 666.852781 
L 494.939661 433.284318 
L 496.769503 343.450294 
L 498.599344 612.952366 
L 500.429186 307.516685 
L 502.259027 487.184733 
L 504.088869 469.217928 
L 505.91871 379.383904 
L 507.748552 469.217928 
L 511.408235 253.61627 
L 513.238076 523.118342 
L 515.067918 559.051952 
L 516.897759 541.085147 
L 518.727601 433.284318 
L 520.557442 487.184733 
L 522.387284 559.051952 
L 524.217125 415.317514 
L 526.046967 379.383904 
L 527.876808 505.151538 
L 529.70665 666.852781 
L 531.536491 559.051952 
L 533.366333 648.885976 
L 535.196174 684.819586 
L 537.026016 648.885976 
L 538.855857 738.72 
L 540.685699 487.184733 
L 542.51554 648.885976 
L 544.345382 738.72 
L 546.175223 738.72 
L 548.005065 702.78639 
L 549.834906 684.819586 
L 551.664748 738.72 
L 553.494589 738.72 
L 555.324431 648.885976 
L 557.154272 720.753195 
L 558.984114 630.919171 
L 560.813955 738.72 
L 562.643797 684.819586 
L 564.473638 702.78639 
L 566.30348 666.852781 
L 568.133321 738.72 
L 571.793004 738.72 
L 573.622846 612.952366 
L 575.452687 702.78639 
L 577.282529 666.852781 
L 579.11237 738.72 
L 580.942212 738.72 
L 582.772053 720.753195 
L 584.601895 666.852781 
L 586.431736 523.118342 
L 588.261578 541.085147 
L 590.091419 577.018757 
L 591.921261 523.118342 
L 593.751102 612.952366 
L 595.580944 666.852781 
L 597.410785 505.151538 
L 599.240627 325.48349 
L 602.90031 325.48349 
L 604.730151 361.417099 
L 606.559993 253.61627 
L 608.389834 684.819586 
L 610.219676 289.54988 
L 612.049517 253.61627 
L 613.879359 343.450294 
L 615.7092 343.450294 
L 617.539042 307.516685 
L 619.368883 379.383904 
L 621.198725 253.61627 
L 623.028566 289.54988 
L 624.858408 307.516685 
L 626.688249 559.051952 
L 628.518091 253.61627 
L 630.347932 253.61627 
L 632.177774 307.516685 
L 634.007615 253.61627 
L 635.837457 738.72 
L 637.667298 559.051952 
L 639.49714 487.184733 
L 641.326981 253.61627 
L 650.476189 253.61627 
L 652.30603 289.54988 
L 654.135872 253.61627 
L 655.965713 253.61627 
L 657.795555 487.184733 
L 659.625396 253.61627 
L 661.455238 594.985562 
L 663.285079 648.885976 
L 665.114921 594.985562 
L 666.944762 361.417099 
L 668.774604 253.61627 
L 670.604445 415.317514 
L 672.434287 559.051952 
L 674.264128 612.952366 
L 676.09397 253.61627 
L 677.923811 253.61627 
L 679.753653 361.417099 
L 681.583494 451.251123 
L 683.413336 684.819586 
L 685.243177 684.819586 
L 687.073019 648.885976 
L 688.90286 559.051952 
L 690.732702 397.350709 
L 692.562543 451.251123 
L 694.392385 451.251123 
L 696.222226 487.184733 
L 698.052068 505.151538 
L 699.881909 397.350709 
L 703.541592 577.018757 
L 705.371434 343.450294 
L 707.201275 469.217928 
L 709.031117 397.350709 
L 710.860958 253.61627 
L 712.6908 612.952366 
L 714.520641 612.952366 
L 716.350483 666.852781 
L 718.180324 666.852781 
L 720.010166 684.819586 
L 721.840007 523.118342 
L 723.669849 451.251123 
L 725.49969 630.919171 
L 727.329532 612.952366 
L 729.159373 559.051952 
L 730.989215 684.819586 
L 732.819056 738.72 
L 734.648898 505.151538 
L 736.478739 612.952366 
L 738.308581 648.885976 
L 740.138422 505.151538 
L 741.968264 523.118342 
L 743.798105 738.72 
L 745.627947 666.852781 
L 747.457788 666.852781 
L 749.28763 648.885976 
L 751.117471 594.985562 
L 752.947313 702.78639 
L 754.777154 684.819586 
L 756.606996 702.78639 
L 758.436837 666.852781 
L 760.266679 469.217928 
L 762.09652 577.018757 
L 763.926362 415.317514 
L 765.756203 505.151538 
L 767.586045 684.819586 
L 769.415886 702.78639 
L 771.245728 523.118342 
L 773.075569 487.184733 
L 774.905411 433.284318 
L 776.735252 253.61627 
L 778.565094 307.516685 
L 780.394935 541.085147 
L 782.224777 379.383904 
L 784.054618 487.184733 
L 785.88446 307.516685 
L 787.714301 307.516685 
L 789.544143 253.61627 
L 791.373984 541.085147 
L 793.203826 253.61627 
L 795.033667 379.383904 
L 796.863509 253.61627 
L 798.69335 253.61627 
L 800.523192 487.184733 
L 802.353033 253.61627 
L 804.182875 343.450294 
L 806.012716 253.61627 
L 809.672399 253.61627 
L 811.502241 325.48349 
L 813.332082 253.61627 
L 815.161924 253.61627 
L 816.991765 343.450294 
L 818.821607 325.48349 
L 820.651448 325.48349 
L 822.48129 253.61627 
L 824.311131 469.217928 
L 826.140973 487.184733 
L 827.970814 451.251123 
L 829.800656 630.919171 
L 831.630497 415.317514 
L 833.460339 253.61627 
L 835.29018 594.985562 
L 837.120022 307.516685 
L 838.949863 361.417099 
L 840.779705 630.919171 
L 842.609546 415.317514 
L 844.439388 307.516685 
L 846.269229 469.217928 
L 848.099071 361.417099 
L 849.928912 594.985562 
L 851.758754 325.48349 
L 855.418437 684.819586 
L 857.248278 559.051952 
L 859.07812 451.251123 
L 860.907961 559.051952 
L 862.737803 523.118342 
L 864.567644 253.61627 
L 866.397486 738.72 
L 868.227327 684.819586 
L 870.057169 612.952366 
L 871.88701 415.317514 
L 873.716852 648.885976 
L 875.546693 469.217928 
L 877.376535 541.085147 
L 879.206376 630.919171 
L 881.036218 253.61627 
L 882.866059 397.350709 
L 884.695901 325.48349 
L 886.525742 702.78639 
L 888.355584 343.450294 
L 890.185425 630.919171 
L 892.015267 684.819586 
L 893.845108 577.018757 
L 895.67495 684.819586 
L 897.504791 379.383904 
L 899.334633 307.516685 
L 901.164474 451.251123 
L 902.994316 253.61627 
L 904.824157 702.78639 
L 906.653999 684.819586 
L 908.48384 702.78639 
L 910.313682 630.919171 
L 912.143523 684.819586 
L 913.973365 702.78639 
L 915.803206 559.051952 
L 917.633048 720.753195 
L 919.462889 684.819586 
L 921.292731 666.852781 
L 923.122572 577.018757 
L 924.952414 648.885976 
L 926.782255 648.885976 
L 928.612097 702.78639 
L 930.441938 487.184733 
L 932.27178 612.952366 
L 934.101621 720.753195 
L 935.931463 397.350709 
L 937.761304 648.885976 
L 939.591146 415.317514 
L 941.420987 505.151538 
L 943.250829 702.78639 
L 945.08067 612.952366 
L 946.910512 379.383904 
L 948.740353 451.251123 
L 950.570195 684.819586 
L 952.400036 253.61627 
L 957.889561 253.61627 
L 959.719402 720.753195 
L 961.549244 523.118342 
L 963.379085 253.61627 
L 972.528293 253.61627 
L 974.358134 415.317514 
L 976.187976 253.61627 
L 978.017817 487.184733 
L 979.847659 325.48349 
L 981.6775 253.61627 
L 994.486391 253.61627 
L 996.316232 487.184733 
L 998.146074 253.61627 
L 1003.635598 253.61627 
L 1005.46544 397.350709 
L 1007.295281 433.284318 
L 1009.125123 433.284318 
L 1010.954964 289.54988 
L 1012.784806 541.085147 
L 1014.614647 289.54988 
L 1016.444489 253.61627 
L 1018.27433 253.61627 
L 1020.104172 415.317514 
L 1021.934013 253.61627 
L 1023.763855 253.61627 
L 1025.593696 541.085147 
L 1027.423538 307.516685 
L 1029.253379 253.61627 
L 1031.083221 253.61627 
L 1032.913062 271.583075 
L 1034.742904 541.085147 
L 1036.572745 253.61627 
L 1038.402587 253.61627 
L 1040.232428 630.919171 
L 1042.06227 289.54988 
L 1043.892111 505.151538 
L 1045.721953 541.085147 
L 1047.551794 253.61627 
L 1049.381636 451.251123 
L 1051.211478 307.516685 
L 1053.041319 253.61627 
L 1056.701002 253.61627 
L 1058.530844 559.051952 
L 1060.360685 469.217928 
L 1062.190527 253.61627 
L 1064.020368 253.61627 
L 1065.85021 433.284318 
L 1067.680051 253.61627 
L 1069.509893 469.217928 
L 1071.339734 253.61627 
L 1073.169576 451.251123 
L 1074.999417 577.018757 
L 1076.829259 469.217928 
L 1078.6591 397.350709 
L 1080.488942 271.583075 
L 1082.318783 253.61627 
L 1084.148625 397.350709 
L 1085.978466 415.317514 
L 1087.808308 505.151538 
L 1089.638149 343.450294 
L 1091.467991 289.54988 
L 1093.297832 253.61627 
L 1095.127674 469.217928 
L 1096.957515 469.217928 
L 1098.787357 415.317514 
L 1100.617198 594.985562 
L 1102.44704 451.251123 
L 1104.276881 559.051952 
L 1106.106723 415.317514 
L 1107.936564 505.151538 
L 1109.766406 487.184733 
L 1111.596247 343.450294 
L 1113.426089 702.78639 
L 1115.25593 253.61627 
L 1117.085772 505.151538 
L 1118.915613 505.151538 
L 1120.745455 612.952366 
L 1120.745455 612.952366 
" clip-path="url(#pcccc5133d0)" style="fill: none; stroke: #4169e1; stroke-linecap: square"/>
   </g>
   <g id="line2d_16">
    <path d="M 207.654545 644.750792 
L 209.484387 657.950099 
L 211.314228 673.115433 
L 213.14407 646.234715 
L 214.973911 652.49729 
L 216.803753 666.014117 
L 218.633594 706.662548 
L 220.463436 719.171413 
L 222.293277 726.002871 
L 224.123119 706.745513 
L 225.95296 720.683676 
L 227.782802 689.387325 
L 229.612643 619.151484 
L 231.442485 625.151936 
L 233.272326 647.978945 
L 235.102168 638.097379 
L 236.932009 613.271119 
L 238.761851 577.136762 
L 240.591692 557.743477 
L 242.421534 580.217781 
L 244.251375 616.109874 
L 246.081217 543.15919 
L 247.911058 390.786044 
L 249.7409 316.168878 
L 251.570741 326.035049 
L 253.400583 314.405945 
L 255.230424 308.472686 
L 257.060266 349.252681 
L 258.890107 298.117086 
L 260.719949 294.873357 
L 262.54979 321.974108 
L 264.379632 374.835316 
L 266.209473 312.777279 
L 268.039315 323.155359 
L 269.869156 322.569154 
L 271.698998 300.07028 
L 273.528839 297.966714 
L 275.358681 298.066985 
L 277.188522 299.408683 
L 279.018364 313.462041 
L 282.678047 425.105106 
L 284.507889 453.460152 
L 286.33773 463.26164 
L 288.167572 349.086647 
L 289.997413 338.460597 
L 291.827255 336.182979 
L 293.657096 318.184509 
L 295.486938 372.926501 
L 297.316779 389.424744 
L 299.146621 326.576327 
L 300.976462 337.45093 
L 302.806304 337.78238 
L 304.636145 300.002358 
L 306.465987 387.01334 
L 308.295828 392.16513 
L 310.12567 452.982117 
L 311.955511 428.593138 
L 313.785353 426.915329 
L 315.615194 472.081014 
L 317.445036 381.947531 
L 319.274877 445.824805 
L 321.104719 465.638895 
L 322.93456 437.082313 
L 324.764402 427.751286 
L 326.594243 422.171546 
L 328.424085 415.226187 
L 330.253926 458.326259 
L 332.083768 474.813792 
L 333.913609 460.057098 
L 335.743451 471.365529 
L 337.573292 447.383357 
L 339.403134 430.960129 
L 341.232975 477.420958 
L 343.062817 447.815694 
L 344.892658 411.651968 
L 346.7225 402.576314 
L 348.552341 372.273506 
L 350.382183 376.429645 
L 352.212024 370.320552 
L 354.041866 404.565182 
L 355.871707 418.39538 
L 357.701549 423.67986 
L 359.53139 449.951576 
L 361.361232 502.5991 
L 363.191073 517.967718 
L 365.020915 579.202666 
L 366.850756 560.511827 
L 368.680598 555.830567 
L 370.510439 509.877553 
L 372.340281 507.884162 
L 374.170122 526.555022 
L 375.999964 538.077789 
L 377.829805 507.715113 
L 379.659647 481.270544 
L 381.489488 463.145897 
L 383.31933 420.546786 
L 385.149171 449.698088 
L 386.979013 472.748008 
L 388.808854 439.834727 
L 390.638696 460.731905 
L 392.468537 464.086922 
L 394.298379 417.789162 
L 396.12822 480.66801 
L 397.958062 495.235557 
L 399.787903 481.156617 
L 401.617745 558.516705 
L 403.447586 581.768897 
L 405.277428 525.000102 
L 407.107269 556.704545 
L 408.937111 504.979233 
L 410.766952 515.739293 
L 412.596794 537.103728 
L 414.426635 495.197278 
L 418.086318 577.001879 
L 419.91616 617.999259 
L 421.746001 634.45069 
L 423.575843 573.760207 
L 425.405684 546.67229 
L 427.235526 547.589756 
L 429.065367 495.998281 
L 430.895209 505.851892 
L 432.72505 400.831921 
L 434.554892 370.173915 
L 436.384733 428.334989 
L 438.214575 360.973008 
L 440.044416 330.801587 
L 441.874258 334.708111 
L 443.704099 371.578771 
L 445.533941 352.109581 
L 447.363782 404.233458 
L 449.193624 356.972244 
L 451.023465 420.044437 
L 452.853307 383.775266 
L 454.683148 399.682986 
L 456.51299 435.392819 
L 458.342831 412.917247 
L 460.172673 455.578213 
L 462.002514 437.006544 
L 463.832356 361.155935 
L 465.662197 429.479436 
L 467.492039 330.895552 
L 469.32188 330.253558 
L 471.151722 380.675433 
L 472.981563 355.398819 
L 474.811405 388.503114 
L 476.641246 394.310881 
L 478.471088 347.760781 
L 480.300929 353.742874 
L 482.130771 395.498506 
L 483.960612 368.417631 
L 485.790454 443.866059 
L 487.620295 410.465817 
L 489.450137 475.512245 
L 491.279978 522.550334 
L 493.10982 489.049238 
L 494.939661 566.333078 
L 496.769503 511.821614 
L 498.599344 451.808782 
L 500.429186 492.645355 
L 502.259027 418.824633 
L 504.088869 449.286929 
L 505.91871 467.102865 
L 507.748552 422.537641 
L 509.578393 455.503044 
L 511.408235 428.141678 
L 513.238076 397.420412 
L 515.067918 445.949921 
L 516.897759 455.861446 
L 518.727601 475.115393 
L 520.557442 489.549 
L 522.387284 485.510865 
L 524.217125 488.325564 
L 526.046967 449.351698 
L 527.876808 447.49127 
L 529.70665 467.438564 
L 531.536491 490.884718 
L 533.366333 505.385201 
L 535.196174 545.077138 
L 537.026016 572.477623 
L 538.855857 585.377693 
L 540.685699 655.918866 
L 542.51554 620.699833 
L 544.345382 595.368235 
L 546.175223 621.040467 
L 548.005065 669.307604 
L 549.834906 723.259432 
L 551.664748 722.373314 
L 553.494589 720.920388 
L 555.324431 722.192077 
L 557.154272 687.380098 
L 558.984114 668.645574 
L 560.813955 637.141018 
L 562.643797 656.717256 
L 564.473638 669.664896 
L 566.30348 683.79272 
L 568.133321 687.861821 
L 569.963163 703.016871 
L 571.793004 715.1234 
L 573.622846 721.325368 
L 575.452687 668.989476 
L 577.282529 658.999637 
L 579.11237 654.617254 
L 582.772053 703.374557 
L 584.601895 692.289182 
L 586.431736 649.365107 
L 588.261578 573.220711 
L 590.091419 545.314759 
L 591.921261 546.486415 
L 593.751102 535.658623 
L 595.580944 541.152246 
L 597.410785 549.97371 
L 599.240627 524.824354 
L 601.070468 434.769535 
L 602.90031 389.699889 
L 604.730151 371.847166 
L 606.559993 366.550727 
L 608.389834 331.071009 
L 610.219676 414.826542 
L 612.049517 330.658959 
L 613.879359 298.582767 
L 615.7092 342.348136 
L 617.539042 344.317984 
L 619.368883 345.436009 
L 621.198725 370.336316 
L 623.028566 339.17483 
L 624.858408 337.513094 
L 626.688249 342.798636 
L 628.518091 389.825451 
L 630.347932 346.835142 
L 632.177774 355.618723 
L 634.007615 373.746763 
L 635.837457 348.119543 
L 637.667298 416.214264 
L 639.49714 424.975912 
L 641.326981 406.401998 
L 643.156823 335.090416 
L 644.986664 360.27022 
L 646.816506 349.694407 
L 648.646347 336.197098 
L 650.476189 339.425885 
L 652.30603 319.886717 
L 654.135872 319.608864 
L 655.965713 307.822364 
L 657.795555 321.659245 
L 659.625396 390.05495 
L 661.455238 354.297174 
L 663.285079 439.718247 
L 665.114921 501.488768 
L 666.944762 509.116559 
L 668.774604 501.017707 
L 670.604445 432.546953 
L 672.434287 416.292671 
L 674.264128 427.808995 
L 676.09397 458.929135 
L 677.923811 431.496061 
L 679.753653 431.859312 
L 681.583494 416.163306 
L 683.413336 399.153359 
L 685.243177 461.74786 
L 687.073019 530.88422 
L 688.90286 584.254048 
L 690.732702 584.314156 
L 692.562543 519.496816 
L 694.392385 495.410705 
L 696.222226 466.174879 
L 698.052068 451.134163 
L 699.881909 462.427705 
L 701.711751 439.322612 
L 703.541592 454.130898 
L 705.371434 473.218384 
L 707.201275 431.421046 
L 709.031117 461.291877 
L 710.860958 442.523059 
L 712.6908 364.435372 
L 714.520641 434.273389 
L 716.350483 456.249028 
L 718.180324 514.065305 
L 720.010166 618.111927 
L 721.840007 641.109629 
L 723.669849 611.822347 
L 725.49969 551.357474 
L 727.329532 551.827815 
L 729.159373 551.913625 
L 730.989215 549.465604 
L 734.648898 622.49467 
L 736.478739 583.9605 
L 738.308581 575.578912 
L 740.138422 582.377566 
L 741.968264 558.306996 
L 743.798105 552.496454 
L 745.627947 585.245209 
L 747.457788 607.904566 
L 749.28763 635.417015 
L 751.117471 624.495446 
L 752.947313 606.293873 
L 754.777154 624.304268 
L 758.436837 653.504455 
L 760.266679 624.035411 
L 762.09652 543.121546 
L 763.926362 530.296473 
L 765.756203 493.195012 
L 767.586045 499.972984 
L 769.415886 538.562523 
L 771.245728 562.305704 
L 773.075569 542.777091 
L 774.905411 492.70404 
L 778.565094 362.530463 
L 780.394935 353.334594 
L 782.224777 393.410155 
L 784.054618 349.75688 
L 785.88446 387.970198 
L 787.714301 352.357003 
L 789.544143 322.203436 
L 791.373984 316.402249 
L 793.203826 371.9461 
L 795.033667 314.744386 
L 796.863509 349.792451 
L 798.69335 331.345264 
L 800.523192 304.41202 
L 802.353033 364.162214 
L 804.182875 308.120675 
L 806.012716 345.388101 
L 807.842558 343.687573 
L 809.672399 329.405641 
L 811.502241 336.023388 
L 813.332082 328.859565 
L 815.161924 309.931276 
L 816.991765 306.159257 
L 818.821607 324.484824 
L 820.651448 330.956722 
L 822.48129 342.024192 
L 824.311131 336.830594 
L 826.140973 373.938086 
L 827.970814 374.163028 
L 829.800656 374.834939 
L 831.630497 454.926863 
L 833.460339 468.727282 
L 835.29018 404.959035 
L 837.120022 467.411354 
L 838.949863 387.616302 
L 840.779705 392.480815 
L 842.609546 470.479163 
L 844.439388 409.897295 
L 846.269229 389.871371 
L 848.099071 429.835045 
L 849.928912 384.655464 
L 851.758754 435.172915 
L 853.588595 411.894456 
L 855.418437 440.32659 
L 857.248278 500.754436 
L 859.07812 489.847243 
L 860.907961 498.145746 
L 862.737803 513.065234 
L 864.567644 488.660646 
L 866.397486 423.712586 
L 868.227327 504.085396 
L 870.057169 531.820688 
L 871.88701 534.439847 
L 873.716852 524.278124 
L 875.546693 526.272475 
L 877.376535 475.578144 
L 879.206376 468.510565 
L 881.036218 510.182033 
L 882.866059 432.771483 
L 884.695901 451.448204 
L 886.525742 415.458839 
L 888.355584 442.993983 
L 890.185425 399.049627 
L 892.015267 469.195842 
L 893.845108 546.458315 
L 895.67495 535.501774 
L 897.504791 611.241026 
L 899.334633 557.105664 
L 901.164474 476.681416 
L 902.994316 459.936523 
L 904.824157 378.675976 
L 906.653999 464.603801 
L 908.48384 528.266688 
L 910.313682 579.556819 
L 912.143523 621.288959 
L 913.973365 623.377652 
L 915.803206 642.474493 
L 917.633048 614.675821 
L 919.462889 634.947239 
L 921.292731 647.081013 
L 923.122572 646.638506 
L 924.952414 610.745403 
L 926.782255 599.756075 
L 928.612097 605.179309 
L 930.441938 628.631675 
L 932.27178 585.405657 
L 934.101621 571.216182 
L 935.931463 583.580903 
L 937.761304 525.62803 
L 939.591146 548.483662 
L 941.420987 494.252586 
L 943.250829 499.233751 
L 945.08067 546.231865 
L 946.910512 538.929458 
L 948.740353 464.027363 
L 950.570195 428.57052 
L 952.400036 469.128229 
L 954.229878 362.00769 
L 956.059719 348.526384 
L 957.889561 331.696349 
L 959.719402 291.401946 
L 961.549244 390.712126 
L 963.379085 392.185383 
L 965.208927 298.037411 
L 967.038768 323.584612 
L 968.86861 319.394307 
L 970.698451 303.438233 
L 972.528293 307.858997 
L 974.358134 300.643736 
L 976.187976 337.47999 
L 978.017817 307.705918 
L 979.847659 367.898216 
L 981.6775 358.989349 
L 983.507342 339.003383 
L 985.337183 353.133298 
L 987.167025 336.035074 
L 988.996866 311.93625 
L 990.826708 305.184339 
L 992.656549 301.556524 
L 994.486391 295.351786 
L 996.316232 309.739609 
L 998.146074 362.352128 
L 999.975915 326.881972 
L 1001.805757 331.859778 
L 1003.635598 325.094057 
L 1005.46544 292.598926 
L 1007.295281 325.466938 
L 1009.125123 367.418519 
L 1010.954964 392.412003 
L 1012.784806 385.729145 
L 1014.614647 437.432919 
L 1016.444489 392.700171 
L 1018.27433 351.253919 
L 1020.104172 352.682387 
L 1021.934013 356.29975 
L 1023.763855 314.813849 
L 1025.593696 330.045545 
L 1027.423538 407.253993 
L 1029.253379 359.453179 
L 1031.083221 364.811303 
L 1032.913062 373.714516 
L 1034.742904 338.56683 
L 1036.572745 392.688348 
L 1038.402587 343.583292 
L 1040.232428 358.143625 
L 1042.06227 448.574306 
L 1043.892111 375.515795 
L 1045.721953 435.096358 
L 1047.551794 471.559715 
L 1049.381636 382.805146 
L 1051.211478 430.177632 
L 1053.041319 384.219357 
L 1054.871161 351.626423 
L 1056.701002 368.999621 
L 1058.530844 353.420334 
L 1060.360685 410.893014 
L 1062.190527 414.345166 
L 1064.020368 363.341061 
L 1065.85021 354.456765 
L 1067.680051 358.383063 
L 1069.509893 324.340928 
L 1071.339734 394.491033 
L 1073.169576 384.107675 
L 1074.999417 420.231717 
L 1076.829259 468.685937 
L 1078.6591 448.851165 
L 1080.488942 462.712428 
L 1082.318783 422.941775 
L 1084.148625 392.086757 
L 1085.978466 401.850086 
L 1087.808308 407.880498 
L 1089.638149 450.327232 
L 1091.467991 447.486061 
L 1093.297832 427.461165 
L 1095.127674 403.906224 
L 1096.957515 410.255783 
L 1100.617198 437.683802 
L 1102.44704 504.705116 
L 1104.276881 500.220782 
L 1106.106723 512.572944 
L 1107.936564 499.441558 
L 1109.766406 491.198433 
L 1111.596247 487.825511 
L 1113.426089 455.700896 
L 1115.25593 519.049623 
L 1117.085772 459.2398 
L 1118.915613 481.716126 
L 1120.745455 484.354665 
L 1120.745455 484.354665 
" clip-path="url(#pcccc5133d0)" style="fill: none; stroke: #ff6347; stroke-linecap: square"/>
   </g>
   <g id="line2d_17">
    <path d="M 207.654545 625.162037 
L 209.484387 610.322198 
L 211.314228 618.530959 
L 213.14407 537.364035 
L 214.973911 542.59538 
L 216.803753 602.742469 
L 218.633594 687.143595 
L 220.463436 736.36705 
L 222.293277 731.033738 
L 224.123119 698.139185 
L 225.95296 728.274821 
L 227.782802 677.305688 
L 229.612643 602.880462 
L 231.442485 580.986486 
L 233.272326 476.849865 
L 235.102168 503.5929 
L 236.932009 505.955316 
L 238.761851 439.268638 
L 240.591692 420.689242 
L 242.421534 395.160477 
L 244.251375 486.525929 
L 246.081217 488.543017 
L 247.911058 385.631478 
L 249.7409 312.951536 
L 251.570741 274.649565 
L 253.400583 216.127193 
L 255.230424 249.981567 
L 257.060266 266.334852 
L 258.890107 211.920129 
L 260.719949 187.66778 
L 262.54979 237.457496 
L 264.379632 265.905085 
L 266.209473 253.498865 
L 268.039315 276.987427 
L 269.869156 248.835202 
L 271.698998 192.283809 
L 273.528839 167.803161 
L 275.358681 133.92 
L 279.018364 201.872196 
L 280.848206 234.81882 
L 282.678047 321.295857 
L 284.507889 387.541013 
L 286.33773 438.545975 
L 288.167572 388.640876 
L 289.997413 292.031261 
L 291.827255 241.435677 
L 293.657096 221.094958 
L 295.486938 308.091958 
L 297.316779 318.321688 
L 299.146621 286.923678 
L 300.976462 266.32745 
L 302.806304 199.777849 
L 304.636145 183.872562 
L 306.465987 340.727934 
L 308.295828 360.429605 
L 310.12567 422.932625 
L 311.955511 376.298738 
L 313.785353 369.110275 
L 315.615194 432.420604 
L 317.445036 291.337657 
L 319.274877 397.851173 
L 321.104719 473.549422 
L 322.93456 434.514917 
L 324.764402 415.271388 
L 326.594243 367.827965 
L 328.424085 350.106389 
L 330.253926 417.796702 
L 332.083768 412.34523 
L 333.913609 440.918449 
L 335.743451 437.923136 
L 337.573292 432.479957 
L 339.403134 387.017589 
L 341.232975 444.103235 
L 343.062817 388.695363 
L 346.7225 299.361974 
L 348.552341 221.518317 
L 350.382183 290.937602 
L 352.212024 314.50111 
L 354.041866 345.98726 
L 355.871707 357.778661 
L 357.701549 353.778616 
L 359.53139 352.440174 
L 361.361232 527.308271 
L 363.191073 537.220482 
L 365.020915 570.220926 
L 366.850756 573.298724 
L 368.680598 635.928334 
L 370.510439 496.678092 
L 372.340281 396.983551 
L 374.170122 405.944336 
L 375.999964 450.954971 
L 377.829805 382.922585 
L 379.659647 371.488815 
L 381.489488 331.005761 
L 383.31933 302.973546 
L 385.149171 322.689576 
L 386.979013 299.683246 
L 388.808854 188.108102 
L 390.638696 253.835352 
L 392.468537 311.351313 
L 394.298379 307.65897 
L 396.12822 396.857681 
L 397.958062 396.802268 
L 399.787903 348.725281 
L 401.617745 474.248217 
L 403.447586 450.567252 
L 405.277428 368.849214 
L 407.107269 471.358076 
L 408.937111 243.518853 
L 410.766952 357.039685 
L 412.596794 296.771515 
L 414.426635 152.317771 
L 416.256477 314.70549 
L 418.086318 380.730126 
L 419.91616 485.206026 
L 421.746001 578.036802 
L 423.575843 601.386832 
L 425.405684 612.900089 
L 427.235526 558.312719 
L 429.065367 457.447842 
L 430.895209 467.724555 
L 432.72505 356.442377 
L 434.554892 322.449076 
L 436.384733 347.626927 
L 438.214575 323.317554 
L 440.044416 335.761676 
L 441.874258 286.854592 
L 443.704099 306.066971 
L 445.533941 285.519028 
L 447.363782 337.077227 
L 449.193624 319.0046 
L 451.023465 346.192874 
L 452.853307 356.29365 
L 454.683148 347.483922 
L 456.51299 405.39216 
L 458.342831 348.347534 
L 460.172673 433.634993 
L 462.002514 373.868932 
L 463.832356 344.424047 
L 465.662197 392.036347 
L 467.492039 250.367504 
L 469.32188 264.076699 
L 471.151722 281.853997 
L 472.981563 289.62205 
L 474.811405 319.264599 
L 476.641246 342.227955 
L 478.471088 352.936971 
L 480.300929 336.338937 
L 482.130771 371.878727 
L 483.960612 342.02217 
L 485.790454 420.196934 
L 487.620295 377.749069 
L 489.450137 425.943667 
L 491.279978 438.711014 
L 493.10982 442.087398 
L 494.939661 585.691802 
L 496.769503 489.660699 
L 498.599344 462.69173 
L 500.429186 494.765164 
L 502.259027 379.019659 
L 504.088869 389.140757 
L 505.91871 408.773136 
L 507.748552 379.650002 
L 509.578393 459.983094 
L 511.408235 418.159781 
L 513.238076 395.723927 
L 515.067918 422.412593 
L 516.897759 390.206384 
L 518.727601 421.555081 
L 520.557442 448.600556 
L 522.387284 473.641965 
L 524.217125 476.698842 
L 526.046967 426.936336 
L 527.876808 443.240754 
L 529.70665 440.855703 
L 531.536491 466.359194 
L 533.366333 446.175856 
L 535.196174 465.082333 
L 537.026016 590.350616 
L 538.855857 609.753924 
L 540.685699 652.290649 
L 542.51554 599.433998 
L 544.345382 600.001749 
L 546.175223 606.169777 
L 548.005065 616.943981 
L 549.834906 672.114994 
L 551.664748 738.72 
L 553.494589 735.825592 
L 555.324431 678.878881 
L 557.154272 712.333457 
L 558.984114 651.150306 
L 560.813955 582.203308 
L 562.643797 602.650226 
L 564.473638 578.360798 
L 566.30348 663.228127 
L 568.133321 695.897267 
L 569.963163 694.918438 
L 571.793004 738.415152 
L 573.622846 701.140881 
L 575.452687 660.147322 
L 577.282529 667.819397 
L 579.11237 620.231642 
L 580.942212 683.258005 
L 582.772053 691.161121 
L 584.601895 585.737997 
L 586.431736 593.089169 
L 588.261578 448.182064 
L 590.091419 429.735048 
L 591.921261 433.075723 
L 593.751102 352.93464 
L 595.580944 473.610678 
L 597.410785 535.15086 
L 599.240627 485.671792 
L 601.070468 442.367306 
L 602.90031 347.192499 
L 604.730151 317.839661 
L 606.559993 324.805512 
L 608.389834 290.43772 
L 610.219676 330.07601 
L 612.049517 193.890475 
L 613.879359 233.300397 
L 615.7092 290.547141 
L 617.539042 275.775574 
L 619.368883 297.308099 
L 621.198725 327.888828 
L 623.028566 295.82415 
L 624.858408 281.768941 
L 626.688249 255.588278 
L 628.518091 324.989674 
L 630.347932 306.86064 
L 632.177774 291.354929 
L 634.007615 311.696024 
L 635.837457 296.870278 
L 637.667298 354.236381 
L 639.49714 328.679687 
L 641.326981 371.972522 
L 643.156823 354.301321 
L 644.986664 329.956069 
L 646.816506 296.524059 
L 648.646347 284.076099 
L 650.476189 279.765578 
L 652.30603 268.413642 
L 654.135872 285.234664 
L 655.965713 225.876815 
L 659.625396 361.165017 
L 661.455238 293.285951 
L 663.285079 380.159753 
L 665.114921 441.353425 
L 666.944762 459.844236 
L 668.774604 471.361863 
L 670.604445 422.279459 
L 672.434287 378.801983 
L 674.264128 415.319981 
L 676.09397 437.590385 
L 677.923811 418.807807 
L 679.753653 384.851825 
L 681.583494 341.829098 
L 683.413336 351.034906 
L 685.243177 447.797326 
L 687.073019 524.495098 
L 688.90286 611.766181 
L 690.732702 542.833892 
L 692.562543 488.124319 
L 694.392385 468.182766 
L 696.222226 427.717634 
L 698.052068 434.439971 
L 699.881909 449.105989 
L 701.711751 422.43079 
L 703.541592 443.512301 
L 705.371434 461.785727 
L 707.201275 408.352107 
L 709.031117 415.971365 
L 710.860958 366.739035 
L 712.6908 404.844474 
L 714.520641 529.750037 
L 716.350483 468.326301 
L 720.010166 636.32193 
L 721.840007 690.870966 
L 723.669849 601.694533 
L 725.49969 566.753832 
L 727.329532 536.624511 
L 729.159373 514.680827 
L 730.989215 538.178762 
L 732.819056 645.156288 
L 734.648898 604.420715 
L 736.478739 547.798659 
L 738.308581 544.57664 
L 740.138422 490.552926 
L 741.968264 502.698068 
L 743.798105 546.316732 
L 745.627947 616.44535 
L 747.457788 618.023316 
L 749.28763 627.129453 
L 751.117471 624.020041 
L 752.947313 601.818424 
L 754.777154 650.93735 
L 756.606996 642.739975 
L 758.436837 656.737852 
L 760.266679 571.60032 
L 762.09652 492.23166 
L 763.926362 422.532569 
L 765.756203 333.550574 
L 767.586045 384.768654 
L 769.415886 392.416321 
L 771.245728 508.039143 
L 773.075569 528.495776 
L 774.905411 523.806412 
L 776.735252 488.396243 
L 778.565094 426.972901 
L 780.394935 324.36872 
L 782.224777 341.716765 
L 784.054618 290.816941 
L 785.88446 314.84003 
L 787.714301 350.43095 
L 789.544143 349.145898 
L 791.373984 338.556755 
L 793.203826 326.328699 
L 795.033667 289.169015 
L 796.863509 284.316427 
L 798.69335 261.201225 
L 800.523192 256.777513 
L 804.182875 274.0282 
L 807.842558 331.924821 
L 809.672399 287.665807 
L 811.502241 295.967634 
L 813.332082 270.036448 
L 815.161924 264.16035 
L 816.991765 235.362634 
L 818.821607 282.131952 
L 820.651448 298.02031 
L 822.48129 324.618267 
L 824.311131 333.118031 
L 826.140973 334.158471 
L 827.970814 339.991323 
L 829.800656 404.797217 
L 831.630497 528.822668 
L 833.460339 480.54334 
L 835.29018 484.431256 
L 837.120022 493.90892 
L 838.949863 366.605283 
L 840.779705 355.610567 
L 842.609546 459.206097 
L 844.439388 355.659434 
L 846.269229 405.845299 
L 848.099071 422.643258 
L 849.928912 397.755905 
L 851.758754 427.936441 
L 853.588595 407.877037 
L 855.418437 407.189053 
L 857.248278 505.777563 
L 859.07812 461.75031 
L 860.907961 517.847331 
L 862.737803 519.45033 
L 864.567644 506.240777 
L 866.397486 432.796671 
L 868.227327 528.3178 
L 870.057169 472.366766 
L 871.88701 501.667549 
L 873.716852 523.799044 
L 875.546693 534.496357 
L 877.376535 446.130073 
L 879.206376 488.875837 
L 881.036218 504.658424 
L 882.866059 392.349497 
L 884.695901 397.962375 
L 886.525742 352.459741 
L 888.355584 490.692161 
L 890.185425 448.102183 
L 892.015267 488.408272 
L 893.845108 581.942727 
L 895.67495 553.78238 
L 897.504791 641.813591 
L 899.334633 550.320084 
L 901.164474 417.229139 
L 902.994316 376.641256 
L 904.824157 273.25002 
L 906.653999 400.130401 
L 908.48384 507.885241 
L 910.313682 580.335821 
L 912.143523 604.585223 
L 913.973365 621.950487 
L 915.803206 597.709344 
L 917.633048 613.58223 
L 919.462889 664.179065 
L 921.292731 649.183859 
L 923.122572 713.796588 
L 924.952414 615.034437 
L 926.782255 611.35509 
L 928.612097 612.600715 
L 930.441938 636.242383 
L 932.27178 590.776853 
L 934.101621 593.356587 
L 935.931463 508.660456 
L 937.761304 407.159513 
L 939.591146 440.180707 
L 941.420987 351.713398 
L 943.250829 386.151715 
L 945.08067 414.241879 
L 946.910512 501.632321 
L 948.740353 480.174177 
L 950.570195 423.354921 
L 952.400036 497.620985 
L 954.229878 322.269541 
L 956.059719 242.6965 
L 957.889561 236.806454 
L 959.719402 226.547698 
L 961.549244 237.686413 
L 963.379085 264.624694 
L 965.208927 341.085256 
L 967.038768 302.594154 
L 968.86861 283.671588 
L 970.698451 262.390289 
L 972.528293 270.082883 
L 974.358134 225.742035 
L 976.187976 249.580346 
L 978.017817 221.718174 
L 979.847659 319.050863 
L 981.6775 350.513881 
L 983.507342 282.634335 
L 985.337183 351.733479 
L 987.167025 301.399058 
L 988.996866 259.053418 
L 990.826708 242.759384 
L 992.656549 177.900647 
L 994.486391 258.314271 
L 996.316232 281.608802 
L 998.146074 317.548375 
L 999.975915 308.072116 
L 1001.805757 315.51506 
L 1003.635598 317.837159 
L 1005.46544 295.135241 
L 1007.295281 264.475179 
L 1009.125123 341.626432 
L 1010.954964 384.110313 
L 1012.784806 402.352743 
L 1014.614647 428.958136 
L 1018.27433 314.294845 
L 1020.104172 312.588697 
L 1021.934013 228.149738 
L 1023.763855 282.32074 
L 1025.593696 284.138194 
L 1027.423538 395.549978 
L 1029.253379 338.37561 
L 1031.083221 364.921649 
L 1032.913062 360.503352 
L 1034.742904 302.127651 
L 1036.572745 329.798329 
L 1038.402587 280.252608 
L 1040.232428 327.517113 
L 1042.06227 449.888144 
L 1043.892111 318.469387 
L 1045.721953 409.199682 
L 1047.551794 460.110266 
L 1049.381636 366.9087 
L 1051.211478 397.398754 
L 1053.041319 360.005355 
L 1054.871161 312.344873 
L 1056.701002 366.962777 
L 1058.530844 351.133327 
L 1060.360685 381.568447 
L 1062.190527 342.665467 
L 1064.020368 404.526561 
L 1065.85021 457.899062 
L 1067.680051 380.926795 
L 1069.509893 357.390633 
L 1071.339734 376.550067 
L 1073.169576 371.879413 
L 1074.999417 326.782283 
L 1076.829259 378.962396 
L 1078.6591 381.061438 
L 1080.488942 440.779146 
L 1084.148625 360.690769 
L 1085.978466 338.708944 
L 1087.808308 344.574145 
L 1089.638149 375.828979 
L 1091.467991 370.430555 
L 1093.297832 356.575169 
L 1095.127674 330.020494 
L 1096.957515 341.748087 
L 1098.787357 379.731117 
L 1100.617198 394.034844 
L 1102.44704 496.235062 
L 1104.276881 443.997858 
L 1106.106723 461.750721 
L 1107.936564 468.456437 
L 1109.766406 451.301601 
L 1111.596247 431.545374 
L 1113.426089 413.593305 
L 1115.25593 474.026377 
L 1117.085772 200.695023 
L 1118.915613 326.695994 
L 1120.745455 340.081587 
L 1120.745455 340.081587 
" clip-path="url(#pcccc5133d0)" style="fill: none; stroke: #da70d6; stroke-linecap: square"/>
   </g>
   <g id="line2d_18">
    <path d="M 207.654545 616.546341 
L 209.484387 642.473739 
L 211.314228 634.803575 
L 213.14407 594.370297 
L 214.973911 611.558476 
L 216.803753 632.845704 
L 218.633594 676.937566 
L 220.463436 698.5568 
L 222.293277 696.723573 
L 224.123119 684.471246 
L 225.95296 674.571607 
L 227.782802 654.934173 
L 229.612643 590.632564 
L 231.442485 575.502629 
L 233.272326 573.308234 
L 235.102168 573.562989 
L 236.932009 573.479561 
L 238.761851 525.45456 
L 240.591692 497.419363 
L 242.421534 473.293021 
L 244.251375 466.04404 
L 246.081217 388.920921 
L 247.911058 317.258117 
L 249.7409 231.549973 
L 251.570741 207.181383 
L 253.400583 210.069845 
L 255.230424 205.274418 
L 257.060266 231.570465 
L 258.890107 195.201537 
L 260.719949 193.56307 
L 262.54979 203.868294 
L 264.379632 218.487741 
L 266.209473 190.589689 
L 268.039315 214.429645 
L 269.869156 208.381277 
L 271.698998 194.97639 
L 273.528839 191.587807 
L 275.358681 190.59034 
L 277.188522 196.548033 
L 279.018364 203.745612 
L 280.848206 242.10046 
L 282.678047 248.589357 
L 284.507889 287.89911 
L 286.33773 336.751946 
L 289.997413 219.71577 
L 291.827255 215.506171 
L 293.657096 198.998572 
L 295.486938 228.624123 
L 297.316779 235.844456 
L 299.146621 224.405888 
L 300.976462 199.236707 
L 302.806304 198.569868 
L 304.636145 187.528786 
L 306.465987 251.563491 
L 308.295828 239.491016 
L 310.12567 338.702981 
L 311.955511 302.963505 
L 313.785353 334.63224 
L 315.615194 389.070334 
L 317.445036 267.604483 
L 319.274877 394.583319 
L 321.104719 362.438109 
L 322.93456 327.597679 
L 324.764402 315.51225 
L 326.594243 333.68275 
L 328.424085 318.712354 
L 330.253926 384.865224 
L 332.083768 398.722084 
L 333.913609 402.757151 
L 335.743451 408.140942 
L 337.573292 359.81972 
L 339.403134 340.433975 
L 341.232975 413.032185 
L 343.062817 389.080238 
L 344.892658 338.543356 
L 346.7225 333.691248 
L 348.552341 277.885925 
L 350.382183 277.002814 
L 352.212024 272.171336 
L 354.041866 337.027229 
L 355.871707 373.371792 
L 357.701549 394.381475 
L 359.53139 454.520588 
L 361.361232 502.253103 
L 363.191073 575.579666 
L 365.020915 606.439456 
L 366.850756 560.55845 
L 368.680598 575.259217 
L 370.510439 452.946511 
L 372.340281 417.029796 
L 374.170122 493.886508 
L 375.999964 461.084156 
L 379.659647 344.369285 
L 381.489488 351.79297 
L 383.31933 259.870767 
L 386.979013 386.928044 
L 388.808854 302.851857 
L 390.638696 344.768998 
L 392.468537 356.436517 
L 394.298379 275.101744 
L 396.12822 387.470967 
L 397.958062 411.566296 
L 399.787903 399.254795 
L 401.617745 537.770002 
L 403.447586 561.014775 
L 405.277428 452.61448 
L 407.107269 501.656069 
L 408.937111 414.434779 
L 410.766952 431.556203 
L 412.596794 486.213688 
L 414.426635 428.151959 
L 416.256477 452.863067 
L 418.086318 474.514864 
L 419.91616 479.576835 
L 421.746001 513.101834 
L 423.575843 523.751153 
L 425.405684 481.149489 
L 427.235526 443.982026 
L 429.065367 397.625409 
L 430.895209 364.79033 
L 432.72505 292.591867 
L 434.554892 242.133359 
L 436.384733 274.357833 
L 438.214575 222.173505 
L 440.044416 217.047657 
L 441.874258 214.624499 
L 443.704099 234.048317 
L 445.533941 219.711109 
L 447.363782 243.422488 
L 449.193624 224.962073 
L 451.023465 277.962379 
L 452.853307 282.132192 
L 454.683148 278.968722 
L 456.51299 324.88111 
L 458.342831 316.734761 
L 460.172673 305.64159 
L 462.002514 328.993454 
L 463.832356 263.104523 
L 465.662197 274.158456 
L 467.492039 215.340172 
L 469.32188 219.647335 
L 471.151722 249.673284 
L 472.981563 227.11317 
L 474.811405 255.21341 
L 476.641246 270.650583 
L 478.471088 220.801959 
L 480.300929 241.820757 
L 482.130771 255.23918 
L 483.960612 220.303825 
L 485.790454 316.537406 
L 487.620295 292.024716 
L 489.450137 429.591221 
L 491.279978 455.327964 
L 493.10982 409.369382 
L 494.939661 483.481595 
L 496.769503 410.224495 
L 498.599344 358.6457 
L 500.429186 421.757131 
L 502.259027 328.953496 
L 504.088869 409.279391 
L 505.91871 404.266391 
L 507.748552 350.273005 
L 509.578393 383.263664 
L 511.408235 351.539037 
L 513.238076 308.179618 
L 515.067918 361.994051 
L 516.897759 371.447144 
L 520.557442 449.654018 
L 522.387284 445.141893 
L 524.217125 446.219754 
L 526.046967 402.081402 
L 527.876808 395.797674 
L 529.70665 421.802058 
L 531.536491 420.212423 
L 533.366333 455.158025 
L 537.026016 563.493723 
L 538.855857 625.308717 
L 540.685699 662.738655 
L 542.51554 609.516835 
L 544.345382 601.426653 
L 546.175223 604.362509 
L 548.005065 635.215788 
L 549.834906 688.624905 
L 551.664748 685.35796 
L 553.494589 680.767341 
L 555.324431 671.034052 
L 557.154272 649.252106 
L 558.984114 649.170263 
L 560.813955 608.646009 
L 562.643797 611.852881 
L 564.473638 622.350029 
L 566.30348 642.023591 
L 568.133321 655.096951 
L 569.963163 677.937402 
L 571.793004 682.719575 
L 573.622846 683.849054 
L 575.452687 656.917001 
L 577.282529 640.6965 
L 579.11237 633.18124 
L 580.942212 638.737703 
L 582.772053 634.027452 
L 584.601895 609.535023 
L 586.431736 589.843744 
L 588.261578 517.062126 
L 590.091419 494.969921 
L 591.921261 487.309266 
L 593.751102 487.54747 
L 595.580944 430.817707 
L 597.410785 410.446421 
L 599.240627 395.92303 
L 601.070468 315.234809 
L 602.90031 287.514441 
L 604.730151 273.319346 
L 606.559993 264.672636 
L 608.389834 235.887464 
L 610.219676 266.515244 
L 612.049517 228.544825 
L 613.879359 216.643694 
L 615.7092 233.225485 
L 617.539042 223.275424 
L 619.368883 220.601759 
L 621.198725 231.828648 
L 623.028566 213.712533 
L 624.858408 211.413771 
L 626.688249 226.761125 
L 628.518091 263.84134 
L 630.347932 249.724345 
L 632.177774 244.59949 
L 634.007615 273.84277 
L 635.837457 255.82069 
L 637.667298 266.831547 
L 639.49714 321.95293 
L 641.326981 321.756774 
L 643.156823 252.975132 
L 644.986664 228.381156 
L 646.816506 220.663306 
L 648.646347 217.435924 
L 650.476189 217.888069 
L 652.30603 203.245422 
L 654.135872 210.27731 
L 655.965713 191.372495 
L 657.795555 192.791504 
L 659.625396 256.278215 
L 661.455238 217.049096 
L 663.285079 337.548974 
L 665.114921 394.09221 
L 666.944762 411.763959 
L 668.774604 399.371104 
L 670.604445 334.770275 
L 672.434287 321.228381 
L 674.264128 300.292994 
L 676.09397 336.000222 
L 677.923811 342.512867 
L 679.753653 341.988518 
L 681.583494 337.98419 
L 683.413336 294.420253 
L 685.243177 348.609761 
L 687.073019 410.497276 
L 688.90286 491.302114 
L 690.732702 475.794484 
L 692.562543 434.548295 
L 694.392385 435.216608 
L 696.222226 431.730324 
L 698.052068 409.810183 
L 699.881909 418.74345 
L 701.711751 398.24273 
L 703.541592 387.919411 
L 705.371434 397.175869 
L 707.201275 363.539307 
L 709.031117 402.58728 
L 710.860958 409.519137 
L 712.6908 336.214883 
L 714.520641 466.243862 
L 716.350483 452.068712 
L 718.180324 558.561632 
L 720.010166 644.373302 
L 721.840007 637.203148 
L 723.669849 573.332496 
L 725.49969 480.545824 
L 727.329532 539.419881 
L 729.159373 514.99372 
L 730.989215 477.432472 
L 732.819056 556.013186 
L 734.648898 603.729972 
L 736.478739 512.584818 
L 738.308581 514.022092 
L 740.138422 540.816376 
L 741.968264 514.080761 
L 743.798105 501.425439 
L 745.627947 573.694908 
L 747.457788 590.881905 
L 749.28763 633.201501 
L 751.117471 612.273036 
L 752.947313 597.998069 
L 754.777154 618.669877 
L 756.606996 633.407972 
L 758.436837 615.107747 
L 760.266679 530.232699 
L 762.09652 426.484603 
L 763.926362 462.877296 
L 765.756203 432.853866 
L 767.586045 452.30868 
L 769.415886 512.080173 
L 771.245728 523.703108 
L 773.075569 496.07895 
L 776.735252 371.200202 
L 778.565094 245.119213 
L 780.394935 235.986055 
L 782.224777 294.870376 
L 784.054618 227.130819 
L 785.88446 272.936356 
L 787.714301 226.387731 
L 789.544143 196.302736 
L 791.373984 184.961903 
L 793.203826 234.168293 
L 795.033667 190.341822 
L 796.863509 242.41409 
L 798.69335 202.593009 
L 800.523192 183.961524 
L 802.353033 241.624464 
L 804.182875 198.927944 
L 806.012716 225.321966 
L 807.842558 235.80491 
L 809.672399 217.072536 
L 811.502241 233.229049 
L 813.332082 226.683883 
L 815.161924 202.548665 
L 816.991765 190.621217 
L 818.821607 201.586256 
L 820.651448 204.454568 
L 822.48129 215.591226 
L 824.311131 218.921107 
L 826.140973 251.082766 
L 827.970814 253.521208 
L 829.800656 267.708969 
L 831.630497 407.176511 
L 833.460339 364.555999 
L 835.29018 303.771944 
L 837.120022 391.647326 
L 838.949863 271.375954 
L 840.779705 302.153078 
L 842.609546 400.116865 
L 844.439388 308.724666 
L 846.269229 319.386116 
L 848.099071 345.629835 
L 849.928912 268.982541 
L 851.758754 342.985813 
L 853.588595 324.845196 
L 857.248278 464.503359 
L 859.07812 420.986456 
L 860.907961 439.295574 
L 862.737803 443.819385 
L 864.567644 405.453262 
L 866.397486 339.900373 
L 868.227327 452.052074 
L 870.057169 493.386095 
L 871.88701 512.439278 
L 873.716852 408.772211 
L 875.546693 464.090469 
L 877.376535 420.560596 
L 879.206376 421.795821 
L 881.036218 429.288009 
L 882.866059 366.320336 
L 884.695901 386.820782 
L 886.525742 361.489235 
L 888.355584 421.326165 
L 890.185425 396.113839 
L 892.015267 530.185048 
L 893.845108 586.882906 
L 895.67495 531.745536 
L 897.504791 598.469027 
L 899.334633 489.081794 
L 901.164474 356.919641 
L 902.994316 356.27511 
L 904.824157 223.995312 
L 906.653999 367.536953 
L 910.313682 550.496226 
L 912.143523 565.650612 
L 913.973365 573.03499 
L 915.803206 598.049327 
L 917.633048 564.37788 
L 919.462889 609.518959 
L 921.292731 636.156145 
L 923.122572 636.182755 
L 924.952414 596.478026 
L 926.782255 598.677502 
L 928.612097 605.82605 
L 930.441938 621.580691 
L 932.27178 561.543905 
L 934.101621 535.857794 
L 935.931463 530.764107 
L 937.761304 456.11747 
L 939.591146 500.564089 
L 941.420987 414.024409 
L 945.08067 496.767808 
L 946.910512 518.646551 
L 948.740353 389.249595 
L 950.570195 356.427127 
L 952.400036 427.375253 
L 954.229878 243.762676 
L 956.059719 235.886401 
L 957.889561 217.805549 
L 959.719402 197.720135 
L 961.549244 278.938873 
L 963.379085 272.467214 
L 965.208927 223.625755 
L 967.038768 215.439072 
L 968.86861 199.58745 
L 970.698451 193.605015 
L 972.528293 193.9329 
L 974.358134 189.203441 
L 976.187976 220.00452 
L 978.017817 194.113052 
L 979.847659 258.627866 
L 981.6775 257.968086 
L 983.507342 227.920581 
L 985.337183 267.224612 
L 987.167025 244.641915 
L 988.996866 224.452665 
L 990.826708 212.057617 
L 992.656549 195.776159 
L 994.486391 188.590918 
L 996.316232 196.058296 
L 998.146074 238.921123 
L 999.975915 215.211629 
L 1001.805757 234.075287 
L 1003.635598 205.998761 
L 1005.46544 184.377549 
L 1007.295281 210.494061 
L 1009.125123 222.628905 
L 1010.954964 250.380115 
L 1012.784806 262.279978 
L 1014.614647 325.638934 
L 1016.444489 280.425084 
L 1018.27433 264.287556 
L 1020.104172 257.034394 
L 1021.934013 235.75169 
L 1023.763855 203.759114 
L 1025.593696 223.656426 
L 1027.423538 293.137258 
L 1029.253379 244.105332 
L 1031.083221 289.342656 
L 1032.913062 295.102548 
L 1034.742904 230.146419 
L 1036.572745 275.519345 
L 1038.402587 235.403894 
L 1040.232428 262.480691 
L 1042.06227 347.292188 
L 1043.892111 270.717647 
L 1045.721953 382.568724 
L 1047.551794 393.590444 
L 1049.381636 333.210181 
L 1051.211478 367.714363 
L 1053.041319 320.51497 
L 1054.871161 283.799171 
L 1056.701002 299.92659 
L 1058.530844 285.889612 
L 1060.360685 318.344066 
L 1062.190527 357.647068 
L 1064.020368 343.27446 
L 1065.85021 337.488832 
L 1067.680051 330.083926 
L 1069.509893 233.040844 
L 1071.339734 295.574706 
L 1073.169576 262.042048 
L 1074.999417 293.418606 
L 1076.829259 358.957479 
L 1078.6591 333.164432 
L 1080.488942 356.693329 
L 1082.318783 302.362702 
L 1084.148625 259.319551 
L 1085.978466 266.359492 
L 1087.808308 268.851496 
L 1089.638149 340.358617 
L 1091.467991 356.702787 
L 1093.297832 314.189948 
L 1095.127674 283.004646 
L 1096.957515 278.974342 
L 1098.787357 294.971949 
L 1100.617198 325.61755 
L 1102.44704 413.757042 
L 1104.276881 442.67936 
L 1106.106723 439.986162 
L 1107.936564 439.344339 
L 1109.766406 410.539427 
L 1111.596247 406.169654 
L 1113.426089 366.167428 
L 1115.25593 416.182565 
L 1117.085772 362.42961 
L 1118.915613 414.210249 
L 1120.745455 407.730126 
L 1120.745455 407.730126 
" clip-path="url(#pcccc5133d0)" style="fill: none; stroke: #8fbc8f; stroke-linecap: square"/>
   </g>
   <g id="patch_3">
    <path d="M 162 768.96 
L 162 103.68 
" style="fill: none; stroke: #000000; stroke-width: 0.8; stroke-linejoin: miter; stroke-linecap: square"/>
   </g>
   <g id="patch_4">
    <path d="M 1166.4 768.96 
L 1166.4 103.68 
" style="fill: none; stroke: #000000; stroke-width: 0.8; stroke-linejoin: miter; stroke-linecap: square"/>
   </g>
   <g id="patch_5">
    <path d="M 162 768.96 
L 1166.4 768.96 
" style="fill: none; stroke: #000000; stroke-width: 0.8; stroke-linejoin: miter; stroke-linecap: square"/>
   </g>
   <g id="patch_6">
    <path d="M 162 103.68 
L 1166.4 103.68 
" style="fill: none; stroke: #000000; stroke-width: 0.8; stroke-linejoin: miter; stroke-linecap: square"/>
   </g>
   <g id="text_15">
    <!-- Function 1 -->
    <g transform="translate(632.957813 97.68) scale(0.12 -0.12)">
     <defs>
      <path id="DejaVuSans-46" d="M 628 4666 
L 3309 4666 
L 3309 4134 
L 1259 4134 
L 1259 2759 
L 3109 2759 
L 3109 2228 
L 1259 2228 
L 1259 0 
L 628 0 
L 628 4666 
z
" transform="scale(0.015625)"/>
      <path id="DejaVuSans-75" d="M 544 1381 
L 544 3500 
L 1119 3500 
L 1119 1403 
Q 1119 906 1312 657 
Q 1506 409 1894 409 
Q 2359 409 2629 706 
Q 2900 1003 2900 1516 
L 2900 3500 
L 3475 3500 
L 3475 0 
L 2900 0 
L 2900 538 
Q 2691 219 2414 64 
Q 2138 -91 1772 -91 
Q 1169 -91 856 284 
Q 544 659 544 1381 
z
M 1991 3584 
L 1991 3584 
z
" transform="scale(0.015625)"/>
      <path id="DejaVuSans-6e" d="M 3513 2113 
L 3513 0 
L 2938 0 
L 2938 2094 
Q 2938 2591 2744 2837 
Q 2550 3084 2163 3084 
Q 1697 3084 1428 2787 
Q 1159 2491 1159 1978 
L 1159 0 
L 581 0 
L 581 3500 
L 1159 3500 
L 1159 2956 
Q 1366 3272 1645 3428 
Q 1925 3584 2291 3584 
Q 2894 3584 3203 3211 
Q 3513 2838 3513 2113 
z
" transform="scale(0.015625)"/>
      <path id="DejaVuSans-63" d="M 3122 3366 
L 3122 2828 
Q 2878 2963 2633 3030 
Q 2388 3097 2138 3097 
Q 1578 3097 1268 2742 
Q 959 2388 959 1747 
Q 959 1106 1268 751 
Q 1578 397 2138 397 
Q 2388 397 2633 464 
Q 2878 531 3122 666 
L 3122 134 
Q 2881 22 2623 -34 
Q 2366 -91 2075 -91 
Q 1284 -91 818 406 
Q 353 903 353 1747 
Q 353 2603 823 3093 
Q 1294 3584 2113 3584 
Q 2378 3584 2631 3529 
Q 2884 3475 3122 3366 
z
" transform="scale(0.015625)"/>
      <path id="DejaVuSans-74" d="M 1172 4494 
L 1172 3500 
L 2356 3500 
L 2356 3053 
L 1172 3053 
L 1172 1153 
Q 1172 725 1289 603 
Q 1406 481 1766 481 
L 2356 481 
L 2356 0 
L 1766 0 
Q 1100 0 847 248 
Q 594 497 594 1153 
L 594 3053 
L 172 3053 
L 172 3500 
L 594 3500 
L 594 4494 
L 1172 4494 
z
" transform="scale(0.015625)"/>
      <path id="DejaVuSans-69" d="M 603 3500 
L 1178 3500 
L 1178 0 
L 603 0 
L 603 3500 
z
M 603 4863 
L 1178 4863 
L 1178 4134 
L 603 4134 
L 603 4863 
z
" transform="scale(0.015625)"/>
      <path id="DejaVuSans-6f" d="M 1959 3097 
Q 1497 3097 1228 2736 
Q 959 2375 959 1747 
Q 959 1119 1226 758 
Q 1494 397 1959 397 
Q 2419 397 2687 759 
Q 2956 1122 2956 1747 
Q 2956 2369 2687 2733 
Q 2419 3097 1959 3097 
z
M 1959 3584 
Q 2709 3584 3137 3096 
Q 3566 2609 3566 1747 
Q 3566 888 3137 398 
Q 2709 -91 1959 -91 
Q 1206 -91 779 398 
Q 353 888 353 1747 
Q 353 2609 779 3096 
Q 1206 3584 1959 3584 
z
" transform="scale(0.015625)"/>
      <path id="DejaVuSans-20" transform="scale(0.015625)"/>
     </defs>
     <use xlink:href="#DejaVuSans-46"/>
     <use xlink:href="#DejaVuSans-75" x="52.019531"/>
     <use xlink:href="#DejaVuSans-6e" x="115.398438"/>
     <use xlink:href="#DejaVuSans-63" x="178.777344"/>
     <use xlink:href="#DejaVuSans-74" x="233.757812"/>
     <use xlink:href="#DejaVuSans-69" x="272.966797"/>
     <use xlink:href="#DejaVuSans-6f" x="300.75"/>
     <use xlink:href="#DejaVuSans-6e" x="361.931641"/>
     <use xlink:href="#DejaVuSans-20" x="425.310547"/>
     <use xlink:href="#DejaVuSans-31" x="457.097656"/>
    </g>
   </g>
   <g id="legend_1">
    <g id="patch_7">
     <path d="M 1011.90625 170.3925 
L 1159.4 170.3925 
Q 1161.4 170.3925 1161.4 168.3925 
L 1161.4 110.68 
Q 1161.4 108.68 1159.4 108.68 
L 1011.90625 108.68 
Q 1009.90625 108.68 1009.90625 110.68 
L 1009.90625 168.3925 
Q 1009.90625 170.3925 1011.90625 170.3925 
z
" style="fill: #ffffff; opacity: 0.8; stroke: #cccccc; stroke-linejoin: miter"/>
    </g>
    <g id="line2d_19">
     <path d="M 1013.90625 116.778437 
L 1023.90625 116.778437 
L 1033.90625 116.778437 
" style="fill: none; stroke: #4169e1; stroke-linecap: square"/>
    </g>
    <g id="text_16">
     <!-- Truth -->
     <g transform="translate(1041.90625 120.278437) scale(0.1 -0.1)">
      <defs>
       <path id="DejaVuSans-54" d="M -19 4666 
L 3928 4666 
L 3928 4134 
L 2272 4134 
L 2272 0 
L 1638 0 
L 1638 4134 
L -19 4134 
L -19 4666 
z
" transform="scale(0.015625)"/>
       <path id="DejaVuSans-72" d="M 2631 2963 
Q 2534 3019 2420 3045 
Q 2306 3072 2169 3072 
Q 1681 3072 1420 2755 
Q 1159 2438 1159 1844 
L 1159 0 
L 581 0 
L 581 3500 
L 1159 3500 
L 1159 2956 
Q 1341 3275 1631 3429 
Q 1922 3584 2338 3584 
Q 2397 3584 2469 3576 
Q 2541 3569 2628 3553 
L 2631 2963 
z
" transform="scale(0.015625)"/>
       <path id="DejaVuSans-68" d="M 3513 2113 
L 3513 0 
L 2938 0 
L 2938 2094 
Q 2938 2591 2744 2837 
Q 2550 3084 2163 3084 
Q 1697 3084 1428 2787 
Q 1159 2491 1159 1978 
L 1159 0 
L 581 0 
L 581 4863 
L 1159 4863 
L 1159 2956 
Q 1366 3272 1645 3428 
Q 1925 3584 2291 3584 
Q 2894 3584 3203 3211 
Q 3513 2838 3513 2113 
z
" transform="scale(0.015625)"/>
      </defs>
      <use xlink:href="#DejaVuSans-54"/>
      <use xlink:href="#DejaVuSans-72" x="46.333984"/>
      <use xlink:href="#DejaVuSans-75" x="87.447266"/>
      <use xlink:href="#DejaVuSans-74" x="150.826172"/>
      <use xlink:href="#DejaVuSans-68" x="190.035156"/>
     </g>
    </g>
    <g id="line2d_20">
     <path d="M 1013.90625 131.456562 
L 1023.90625 131.456562 
L 1033.90625 131.456562 
" style="fill: none; stroke: #ff6347; stroke-linecap: square"/>
    </g>
    <g id="text_17">
     <!-- Gossip predictions -->
     <g transform="translate(1041.90625 134.956562) scale(0.1 -0.1)">
      <defs>
       <path id="DejaVuSans-47" d="M 3809 666 
L 3809 1919 
L 2778 1919 
L 2778 2438 
L 4434 2438 
L 4434 434 
Q 4069 175 3628 42 
Q 3188 -91 2688 -91 
Q 1594 -91 976 548 
Q 359 1188 359 2328 
Q 359 3472 976 4111 
Q 1594 4750 2688 4750 
Q 3144 4750 3555 4637 
Q 3966 4525 4313 4306 
L 4313 3634 
Q 3963 3931 3569 4081 
Q 3175 4231 2741 4231 
Q 1884 4231 1454 3753 
Q 1025 3275 1025 2328 
Q 1025 1384 1454 906 
Q 1884 428 2741 428 
Q 3075 428 3337 486 
Q 3600 544 3809 666 
z
" transform="scale(0.015625)"/>
       <path id="DejaVuSans-73" d="M 2834 3397 
L 2834 2853 
Q 2591 2978 2328 3040 
Q 2066 3103 1784 3103 
Q 1356 3103 1142 2972 
Q 928 2841 928 2578 
Q 928 2378 1081 2264 
Q 1234 2150 1697 2047 
L 1894 2003 
Q 2506 1872 2764 1633 
Q 3022 1394 3022 966 
Q 3022 478 2636 193 
Q 2250 -91 1575 -91 
Q 1294 -91 989 -36 
Q 684 19 347 128 
L 347 722 
Q 666 556 975 473 
Q 1284 391 1588 391 
Q 1994 391 2212 530 
Q 2431 669 2431 922 
Q 2431 1156 2273 1281 
Q 2116 1406 1581 1522 
L 1381 1569 
Q 847 1681 609 1914 
Q 372 2147 372 2553 
Q 372 3047 722 3315 
Q 1072 3584 1716 3584 
Q 2034 3584 2315 3537 
Q 2597 3491 2834 3397 
z
" transform="scale(0.015625)"/>
       <path id="DejaVuSans-70" d="M 1159 525 
L 1159 -1331 
L 581 -1331 
L 581 3500 
L 1159 3500 
L 1159 2969 
Q 1341 3281 1617 3432 
Q 1894 3584 2278 3584 
Q 2916 3584 3314 3078 
Q 3713 2572 3713 1747 
Q 3713 922 3314 415 
Q 2916 -91 2278 -91 
Q 1894 -91 1617 61 
Q 1341 213 1159 525 
z
M 3116 1747 
Q 3116 2381 2855 2742 
Q 2594 3103 2138 3103 
Q 1681 3103 1420 2742 
Q 1159 2381 1159 1747 
Q 1159 1113 1420 752 
Q 1681 391 2138 391 
Q 2594 391 2855 752 
Q 3116 1113 3116 1747 
z
" transform="scale(0.015625)"/>
       <path id="DejaVuSans-65" d="M 3597 1894 
L 3597 1613 
L 953 1613 
Q 991 1019 1311 708 
Q 1631 397 2203 397 
Q 2534 397 2845 478 
Q 3156 559 3463 722 
L 3463 178 
Q 3153 47 2828 -22 
Q 2503 -91 2169 -91 
Q 1331 -91 842 396 
Q 353 884 353 1716 
Q 353 2575 817 3079 
Q 1281 3584 2069 3584 
Q 2775 3584 3186 3129 
Q 3597 2675 3597 1894 
z
M 3022 2063 
Q 3016 2534 2758 2815 
Q 2500 3097 2075 3097 
Q 1594 3097 1305 2825 
Q 1016 2553 972 2059 
L 3022 2063 
z
" transform="scale(0.015625)"/>
       <path id="DejaVuSans-64" d="M 2906 2969 
L 2906 4863 
L 3481 4863 
L 3481 0 
L 2906 0 
L 2906 525 
Q 2725 213 2448 61 
Q 2172 -91 1784 -91 
Q 1150 -91 751 415 
Q 353 922 353 1747 
Q 353 2572 751 3078 
Q 1150 3584 1784 3584 
Q 2172 3584 2448 3432 
Q 2725 3281 2906 2969 
z
M 947 1747 
Q 947 1113 1208 752 
Q 1469 391 1925 391 
Q 2381 391 2643 752 
Q 2906 1113 2906 1747 
Q 2906 2381 2643 2742 
Q 2381 3103 1925 3103 
Q 1469 3103 1208 2742 
Q 947 2381 947 1747 
z
" transform="scale(0.015625)"/>
      </defs>
      <use xlink:href="#DejaVuSans-47"/>
      <use xlink:href="#DejaVuSans-6f" x="77.490234"/>
      <use xlink:href="#DejaVuSans-73" x="138.671875"/>
      <use xlink:href="#DejaVuSans-73" x="190.771484"/>
      <use xlink:href="#DejaVuSans-69" x="242.871094"/>
      <use xlink:href="#DejaVuSans-70" x="270.654297"/>
      <use xlink:href="#DejaVuSans-20" x="334.130859"/>
      <use xlink:href="#DejaVuSans-70" x="365.917969"/>
      <use xlink:href="#DejaVuSans-72" x="429.394531"/>
      <use xlink:href="#DejaVuSans-65" x="468.257812"/>
      <use xlink:href="#DejaVuSans-64" x="529.78125"/>
      <use xlink:href="#DejaVuSans-69" x="593.257812"/>
      <use xlink:href="#DejaVuSans-63" x="621.041016"/>
      <use xlink:href="#DejaVuSans-74" x="676.021484"/>
      <use xlink:href="#DejaVuSans-69" x="715.230469"/>
      <use xlink:href="#DejaVuSans-6f" x="743.013672"/>
      <use xlink:href="#DejaVuSans-6e" x="804.195312"/>
      <use xlink:href="#DejaVuSans-73" x="867.574219"/>
     </g>
    </g>
    <g id="line2d_21">
     <path d="M 1013.90625 146.134687 
L 1023.90625 146.134687 
L 1033.90625 146.134687 
" style="fill: none; stroke: #da70d6; stroke-linecap: square"/>
    </g>
    <g id="text_18">
     <!-- Centralized predictions -->
     <g transform="translate(1041.90625 149.634687) scale(0.1 -0.1)">
      <defs>
       <path id="DejaVuSans-43" d="M 4122 4306 
L 4122 3641 
Q 3803 3938 3442 4084 
Q 3081 4231 2675 4231 
Q 1875 4231 1450 3742 
Q 1025 3253 1025 2328 
Q 1025 1406 1450 917 
Q 1875 428 2675 428 
Q 3081 428 3442 575 
Q 3803 722 4122 1019 
L 4122 359 
Q 3791 134 3420 21 
Q 3050 -91 2638 -91 
Q 1578 -91 968 557 
Q 359 1206 359 2328 
Q 359 3453 968 4101 
Q 1578 4750 2638 4750 
Q 3056 4750 3426 4639 
Q 3797 4528 4122 4306 
z
" transform="scale(0.015625)"/>
       <path id="DejaVuSans-61" d="M 2194 1759 
Q 1497 1759 1228 1600 
Q 959 1441 959 1056 
Q 959 750 1161 570 
Q 1363 391 1709 391 
Q 2188 391 2477 730 
Q 2766 1069 2766 1631 
L 2766 1759 
L 2194 1759 
z
M 3341 1997 
L 3341 0 
L 2766 0 
L 2766 531 
Q 2569 213 2275 61 
Q 1981 -91 1556 -91 
Q 1019 -91 701 211 
Q 384 513 384 1019 
Q 384 1609 779 1909 
Q 1175 2209 1959 2209 
L 2766 2209 
L 2766 2266 
Q 2766 2663 2505 2880 
Q 2244 3097 1772 3097 
Q 1472 3097 1187 3025 
Q 903 2953 641 2809 
L 641 3341 
Q 956 3463 1253 3523 
Q 1550 3584 1831 3584 
Q 2591 3584 2966 3190 
Q 3341 2797 3341 1997 
z
" transform="scale(0.015625)"/>
       <path id="DejaVuSans-6c" d="M 603 4863 
L 1178 4863 
L 1178 0 
L 603 0 
L 603 4863 
z
" transform="scale(0.015625)"/>
       <path id="DejaVuSans-7a" d="M 353 3500 
L 3084 3500 
L 3084 2975 
L 922 459 
L 3084 459 
L 3084 0 
L 275 0 
L 275 525 
L 2438 3041 
L 353 3041 
L 353 3500 
z
" transform="scale(0.015625)"/>
      </defs>
      <use xlink:href="#DejaVuSans-43"/>
      <use xlink:href="#DejaVuSans-65" x="69.824219"/>
      <use xlink:href="#DejaVuSans-6e" x="131.347656"/>
      <use xlink:href="#DejaVuSans-74" x="194.726562"/>
      <use xlink:href="#DejaVuSans-72" x="233.935547"/>
      <use xlink:href="#DejaVuSans-61" x="275.048828"/>
      <use xlink:href="#DejaVuSans-6c" x="336.328125"/>
      <use xlink:href="#DejaVuSans-69" x="364.111328"/>
      <use xlink:href="#DejaVuSans-7a" x="391.894531"/>
      <use xlink:href="#DejaVuSans-65" x="444.384766"/>
      <use xlink:href="#DejaVuSans-64" x="505.908203"/>
      <use xlink:href="#DejaVuSans-20" x="569.384766"/>
      <use xlink:href="#DejaVuSans-70" x="601.171875"/>
      <use xlink:href="#DejaVuSans-72" x="664.648438"/>
      <use xlink:href="#DejaVuSans-65" x="703.511719"/>
      <use xlink:href="#DejaVuSans-64" x="765.035156"/>
      <use xlink:href="#DejaVuSans-69" x="828.511719"/>
      <use xlink:href="#DejaVuSans-63" x="856.294922"/>
      <use xlink:href="#DejaVuSans-74" x="911.275391"/>
      <use xlink:href="#DejaVuSans-69" x="950.484375"/>
      <use xlink:href="#DejaVuSans-6f" x="978.267578"/>
      <use xlink:href="#DejaVuSans-6e" x="1039.449219"/>
      <use xlink:href="#DejaVuSans-73" x="1102.828125"/>
     </g>
    </g>
    <g id="line2d_22">
     <path d="M 1013.90625 160.812812 
L 1023.90625 160.812812 
L 1033.90625 160.812812 
" style="fill: none; stroke: #8fbc8f; stroke-linecap: square"/>
    </g>
    <g id="text_19">
     <!-- Single predictions -->
     <g transform="translate(1041.90625 164.312812) scale(0.1 -0.1)">
      <defs>
       <path id="DejaVuSans-53" d="M 3425 4513 
L 3425 3897 
Q 3066 4069 2747 4153 
Q 2428 4238 2131 4238 
Q 1616 4238 1336 4038 
Q 1056 3838 1056 3469 
Q 1056 3159 1242 3001 
Q 1428 2844 1947 2747 
L 2328 2669 
Q 3034 2534 3370 2195 
Q 3706 1856 3706 1288 
Q 3706 609 3251 259 
Q 2797 -91 1919 -91 
Q 1588 -91 1214 -16 
Q 841 59 441 206 
L 441 856 
Q 825 641 1194 531 
Q 1563 422 1919 422 
Q 2459 422 2753 634 
Q 3047 847 3047 1241 
Q 3047 1584 2836 1778 
Q 2625 1972 2144 2069 
L 1759 2144 
Q 1053 2284 737 2584 
Q 422 2884 422 3419 
Q 422 4038 858 4394 
Q 1294 4750 2059 4750 
Q 2388 4750 2728 4690 
Q 3069 4631 3425 4513 
z
" transform="scale(0.015625)"/>
       <path id="DejaVuSans-67" d="M 2906 1791 
Q 2906 2416 2648 2759 
Q 2391 3103 1925 3103 
Q 1463 3103 1205 2759 
Q 947 2416 947 1791 
Q 947 1169 1205 825 
Q 1463 481 1925 481 
Q 2391 481 2648 825 
Q 2906 1169 2906 1791 
z
M 3481 434 
Q 3481 -459 3084 -895 
Q 2688 -1331 1869 -1331 
Q 1566 -1331 1297 -1286 
Q 1028 -1241 775 -1147 
L 775 -588 
Q 1028 -725 1275 -790 
Q 1522 -856 1778 -856 
Q 2344 -856 2625 -561 
Q 2906 -266 2906 331 
L 2906 616 
Q 2728 306 2450 153 
Q 2172 0 1784 0 
Q 1141 0 747 490 
Q 353 981 353 1791 
Q 353 2603 747 3093 
Q 1141 3584 1784 3584 
Q 2172 3584 2450 3431 
Q 2728 3278 2906 2969 
L 2906 3500 
L 3481 3500 
L 3481 434 
z
" transform="scale(0.015625)"/>
      </defs>
      <use xlink:href="#DejaVuSans-53"/>
      <use xlink:href="#DejaVuSans-69" x="63.476562"/>
      <use xlink:href="#DejaVuSans-6e" x="91.259766"/>
      <use xlink:href="#DejaVuSans-67" x="154.638672"/>
      <use xlink:href="#DejaVuSans-6c" x="218.115234"/>
      <use xlink:href="#DejaVuSans-65" x="245.898438"/>
      <use xlink:href="#DejaVuSans-20" x="307.421875"/>
      <use xlink:href="#DejaVuSans-70" x="339.208984"/>
      <use xlink:href="#DejaVuSans-72" x="402.685547"/>
      <use xlink:href="#DejaVuSans-65" x="441.548828"/>
      <use xlink:href="#DejaVuSans-64" x="503.072266"/>
      <use xlink:href="#DejaVuSans-69" x="566.548828"/>
      <use xlink:href="#DejaVuSans-63" x="594.332031"/>
      <use xlink:href="#DejaVuSans-74" x="649.3125"/>
      <use xlink:href="#DejaVuSans-69" x="688.521484"/>
      <use xlink:href="#DejaVuSans-6f" x="716.304688"/>
      <use xlink:href="#DejaVuSans-6e" x="777.486328"/>
      <use xlink:href="#DejaVuSans-73" x="840.865234"/>
     </g>
    </g>
   </g>
  </g>
 </g>
 <defs>
  <clipPath id="pcccc5133d0">
   <rect x="162" y="103.68" width="1004.4" height="665.28"/>
  </clipPath>
 </defs>
</svg>
