<?xml version="1.0" encoding="utf-8" standalone="no"?>
<!DOCTYPE svg PUBLIC "-//W3C//DTD SVG 1.1//EN"
  "http://www.w3.org/Graphics/SVG/1.1/DTD/svg11.dtd">
<svg xmlns:xlink="http://www.w3.org/1999/xlink" width="1296pt" height="864pt" viewBox="0 0 1296 864" xmlns="http://www.w3.org/2000/svg" version="1.1">
 <metadata>
  <rdf:RDF xmlns:dc="http://purl.org/dc/elements/1.1/" xmlns:cc="http://creativecommons.org/ns#" xmlns:rdf="http://www.w3.org/1999/02/22-rdf-syntax-ns#">
   <cc:Work>
    <dc:type rdf:resource="http://purl.org/dc/dcmitype/StillImage"/>
    <dc:date>2023-12-29T13:16:34.756268</dc:date>
    <dc:format>image/svg+xml</dc:format>
    <dc:creator>
     <cc:Agent>
      <dc:title>Matplotlib v3.8.0, https://matplotlib.org/</dc:title>
     </cc:Agent>
    </dc:creator>
   </cc:Work>
  </rdf:RDF>
 </metadata>
 <defs>
  <style type="text/css">*{stroke-linejoin: round; stroke-linecap: butt}</style>
 </defs>
 <g id="figure_1">
  <g id="patch_1">
   <path d="M 0 864 
L 1296 864 
L 1296 0 
L 0 0 
z
" style="fill: #ffffff"/>
  </g>
  <g id="axes_1">
   <g id="patch_2">
    <path d="M 162 768.96 
L 1166.4 768.96 
L 1166.4 103.68 
L 162 103.68 
z
" style="fill: #ffffff"/>
   </g>
   <g id="matplotlib.axis_1">
    <g id="xtick_1">
     <g id="line2d_1">
      <defs>
       <path id="mc755112225" d="M 0 0 
L 0 3.5 
" style="stroke: #000000; stroke-width: 0.8"/>
      </defs>
      <g>
       <use xlink:href="#mc755112225" x="207.654545" y="768.96" style="stroke: #000000; stroke-width: 0.8"/>
      </g>
     </g>
     <g id="text_1">
      <!-- 0 -->
      <g transform="translate(204.473295 783.558437) scale(0.1 -0.1)">
       <defs>
        <path id="DejaVuSans-30" d="M 2034 4250 
Q 1547 4250 1301 3770 
Q 1056 3291 1056 2328 
Q 1056 1369 1301 889 
Q 1547 409 2034 409 
Q 2525 409 2770 889 
Q 3016 1369 3016 2328 
Q 3016 3291 2770 3770 
Q 2525 4250 2034 4250 
z
M 2034 4750 
Q 2819 4750 3233 4129 
Q 3647 3509 3647 2328 
Q 3647 1150 3233 529 
Q 2819 -91 2034 -91 
Q 1250 -91 836 529 
Q 422 1150 422 2328 
Q 422 3509 836 4129 
Q 1250 4750 2034 4750 
z
" transform="scale(0.015625)"/>
       </defs>
       <use xlink:href="#DejaVuSans-30"/>
      </g>
     </g>
    </g>
    <g id="xtick_2">
     <g id="line2d_2">
      <g>
       <use xlink:href="#mc755112225" x="390.638696" y="768.96" style="stroke: #000000; stroke-width: 0.8"/>
      </g>
     </g>
     <g id="text_2">
      <!-- 100 -->
      <g transform="translate(381.094946 783.558437) scale(0.1 -0.1)">
       <defs>
        <path id="DejaVuSans-31" d="M 794 531 
L 1825 531 
L 1825 4091 
L 703 3866 
L 703 4441 
L 1819 4666 
L 2450 4666 
L 2450 531 
L 3481 531 
L 3481 0 
L 794 0 
L 794 531 
z
" transform="scale(0.015625)"/>
       </defs>
       <use xlink:href="#DejaVuSans-31"/>
       <use xlink:href="#DejaVuSans-30" x="63.623047"/>
       <use xlink:href="#DejaVuSans-30" x="127.246094"/>
      </g>
     </g>
    </g>
    <g id="xtick_3">
     <g id="line2d_3">
      <g>
       <use xlink:href="#mc755112225" x="573.622846" y="768.96" style="stroke: #000000; stroke-width: 0.8"/>
      </g>
     </g>
     <g id="text_3">
      <!-- 200 -->
      <g transform="translate(564.079096 783.558437) scale(0.1 -0.1)">
       <defs>
        <path id="DejaVuSans-32" d="M 1228 531 
L 3431 531 
L 3431 0 
L 469 0 
L 469 531 
Q 828 903 1448 1529 
Q 2069 2156 2228 2338 
Q 2531 2678 2651 2914 
Q 2772 3150 2772 3378 
Q 2772 3750 2511 3984 
Q 2250 4219 1831 4219 
Q 1534 4219 1204 4116 
Q 875 4013 500 3803 
L 500 4441 
Q 881 4594 1212 4672 
Q 1544 4750 1819 4750 
Q 2544 4750 2975 4387 
Q 3406 4025 3406 3419 
Q 3406 3131 3298 2873 
Q 3191 2616 2906 2266 
Q 2828 2175 2409 1742 
Q 1991 1309 1228 531 
z
" transform="scale(0.015625)"/>
       </defs>
       <use xlink:href="#DejaVuSans-32"/>
       <use xlink:href="#DejaVuSans-30" x="63.623047"/>
       <use xlink:href="#DejaVuSans-30" x="127.246094"/>
      </g>
     </g>
    </g>
    <g id="xtick_4">
     <g id="line2d_4">
      <g>
       <use xlink:href="#mc755112225" x="756.606996" y="768.96" style="stroke: #000000; stroke-width: 0.8"/>
      </g>
     </g>
     <g id="text_4">
      <!-- 300 -->
      <g transform="translate(747.063246 783.558437) scale(0.1 -0.1)">
       <defs>
        <path id="DejaVuSans-33" d="M 2597 2516 
Q 3050 2419 3304 2112 
Q 3559 1806 3559 1356 
Q 3559 666 3084 287 
Q 2609 -91 1734 -91 
Q 1441 -91 1130 -33 
Q 819 25 488 141 
L 488 750 
Q 750 597 1062 519 
Q 1375 441 1716 441 
Q 2309 441 2620 675 
Q 2931 909 2931 1356 
Q 2931 1769 2642 2001 
Q 2353 2234 1838 2234 
L 1294 2234 
L 1294 2753 
L 1863 2753 
Q 2328 2753 2575 2939 
Q 2822 3125 2822 3475 
Q 2822 3834 2567 4026 
Q 2313 4219 1838 4219 
Q 1578 4219 1281 4162 
Q 984 4106 628 3988 
L 628 4550 
Q 988 4650 1302 4700 
Q 1616 4750 1894 4750 
Q 2613 4750 3031 4423 
Q 3450 4097 3450 3541 
Q 3450 3153 3228 2886 
Q 3006 2619 2597 2516 
z
" transform="scale(0.015625)"/>
       </defs>
       <use xlink:href="#DejaVuSans-33"/>
       <use xlink:href="#DejaVuSans-30" x="63.623047"/>
       <use xlink:href="#DejaVuSans-30" x="127.246094"/>
      </g>
     </g>
    </g>
    <g id="xtick_5">
     <g id="line2d_5">
      <g>
       <use xlink:href="#mc755112225" x="939.591146" y="768.96" style="stroke: #000000; stroke-width: 0.8"/>
      </g>
     </g>
     <g id="text_5">
      <!-- 400 -->
      <g transform="translate(930.047396 783.558437) scale(0.1 -0.1)">
       <defs>
        <path id="DejaVuSans-34" d="M 2419 4116 
L 825 1625 
L 2419 1625 
L 2419 4116 
z
M 2253 4666 
L 3047 4666 
L 3047 1625 
L 3713 1625 
L 3713 1100 
L 3047 1100 
L 3047 0 
L 2419 0 
L 2419 1100 
L 313 1100 
L 313 1709 
L 2253 4666 
z
" transform="scale(0.015625)"/>
       </defs>
       <use xlink:href="#DejaVuSans-34"/>
       <use xlink:href="#DejaVuSans-30" x="63.623047"/>
       <use xlink:href="#DejaVuSans-30" x="127.246094"/>
      </g>
     </g>
    </g>
    <g id="xtick_6">
     <g id="line2d_6">
      <g>
       <use xlink:href="#mc755112225" x="1122.575296" y="768.96" style="stroke: #000000; stroke-width: 0.8"/>
      </g>
     </g>
     <g id="text_6">
      <!-- 500 -->
      <g transform="translate(1113.031546 783.558437) scale(0.1 -0.1)">
       <defs>
        <path id="DejaVuSans-35" d="M 691 4666 
L 3169 4666 
L 3169 4134 
L 1269 4134 
L 1269 2991 
Q 1406 3038 1543 3061 
Q 1681 3084 1819 3084 
Q 2600 3084 3056 2656 
Q 3513 2228 3513 1497 
Q 3513 744 3044 326 
Q 2575 -91 1722 -91 
Q 1428 -91 1123 -41 
Q 819 9 494 109 
L 494 744 
Q 775 591 1075 516 
Q 1375 441 1709 441 
Q 2250 441 2565 725 
Q 2881 1009 2881 1497 
Q 2881 1984 2565 2268 
Q 2250 2553 1709 2553 
Q 1456 2553 1204 2497 
Q 953 2441 691 2322 
L 691 4666 
z
" transform="scale(0.015625)"/>
       </defs>
       <use xlink:href="#DejaVuSans-35"/>
       <use xlink:href="#DejaVuSans-30" x="63.623047"/>
       <use xlink:href="#DejaVuSans-30" x="127.246094"/>
      </g>
     </g>
    </g>
   </g>
   <g id="matplotlib.axis_2">
    <g id="ytick_1">
     <g id="line2d_7">
      <defs>
       <path id="m3ffab74c46" d="M 0 0 
L -3.5 0 
" style="stroke: #000000; stroke-width: 0.8"/>
      </defs>
      <g>
       <use xlink:href="#m3ffab74c46" x="162" y="745.889939" style="stroke: #000000; stroke-width: 0.8"/>
      </g>
     </g>
     <g id="text_7">
      <!-- 0 -->
      <g transform="translate(148.6375 749.689158) scale(0.1 -0.1)">
       <use xlink:href="#DejaVuSans-30"/>
      </g>
     </g>
    </g>
    <g id="ytick_2">
     <g id="line2d_8">
      <g>
       <use xlink:href="#m3ffab74c46" x="162" y="656.2657" style="stroke: #000000; stroke-width: 0.8"/>
      </g>
     </g>
     <g id="text_8">
      <!-- 25 -->
      <g transform="translate(142.275 660.064919) scale(0.1 -0.1)">
       <use xlink:href="#DejaVuSans-32"/>
       <use xlink:href="#DejaVuSans-35" x="63.623047"/>
      </g>
     </g>
    </g>
    <g id="ytick_3">
     <g id="line2d_9">
      <g>
       <use xlink:href="#m3ffab74c46" x="162" y="566.641461" style="stroke: #000000; stroke-width: 0.8"/>
      </g>
     </g>
     <g id="text_9">
      <!-- 50 -->
      <g transform="translate(142.275 570.440679) scale(0.1 -0.1)">
       <use xlink:href="#DejaVuSans-35"/>
       <use xlink:href="#DejaVuSans-30" x="63.623047"/>
      </g>
     </g>
    </g>
    <g id="ytick_4">
     <g id="line2d_10">
      <g>
       <use xlink:href="#m3ffab74c46" x="162" y="477.017222" style="stroke: #000000; stroke-width: 0.8"/>
      </g>
     </g>
     <g id="text_10">
      <!-- 75 -->
      <g transform="translate(142.275 480.81644) scale(0.1 -0.1)">
       <defs>
        <path id="DejaVuSans-37" d="M 525 4666 
L 3525 4666 
L 3525 4397 
L 1831 0 
L 1172 0 
L 2766 4134 
L 525 4134 
L 525 4666 
z
" transform="scale(0.015625)"/>
       </defs>
       <use xlink:href="#DejaVuSans-37"/>
       <use xlink:href="#DejaVuSans-35" x="63.623047"/>
      </g>
     </g>
    </g>
    <g id="ytick_5">
     <g id="line2d_11">
      <g>
       <use xlink:href="#m3ffab74c46" x="162" y="387.392982" style="stroke: #000000; stroke-width: 0.8"/>
      </g>
     </g>
     <g id="text_11">
      <!-- 100 -->
      <g transform="translate(135.9125 391.192201) scale(0.1 -0.1)">
       <use xlink:href="#DejaVuSans-31"/>
       <use xlink:href="#DejaVuSans-30" x="63.623047"/>
       <use xlink:href="#DejaVuSans-30" x="127.246094"/>
      </g>
     </g>
    </g>
    <g id="ytick_6">
     <g id="line2d_12">
      <g>
       <use xlink:href="#m3ffab74c46" x="162" y="297.768743" style="stroke: #000000; stroke-width: 0.8"/>
      </g>
     </g>
     <g id="text_12">
      <!-- 125 -->
      <g transform="translate(135.9125 301.567962) scale(0.1 -0.1)">
       <use xlink:href="#DejaVuSans-31"/>
       <use xlink:href="#DejaVuSans-32" x="63.623047"/>
       <use xlink:href="#DejaVuSans-35" x="127.246094"/>
      </g>
     </g>
    </g>
    <g id="ytick_7">
     <g id="line2d_13">
      <g>
       <use xlink:href="#m3ffab74c46" x="162" y="208.144504" style="stroke: #000000; stroke-width: 0.8"/>
      </g>
     </g>
     <g id="text_13">
      <!-- 150 -->
      <g transform="translate(135.9125 211.943723) scale(0.1 -0.1)">
       <use xlink:href="#DejaVuSans-31"/>
       <use xlink:href="#DejaVuSans-35" x="63.623047"/>
       <use xlink:href="#DejaVuSans-30" x="127.246094"/>
      </g>
     </g>
    </g>
    <g id="ytick_8">
     <g id="line2d_14">
      <g>
       <use xlink:href="#m3ffab74c46" x="162" y="118.520265" style="stroke: #000000; stroke-width: 0.8"/>
      </g>
     </g>
     <g id="text_14">
      <!-- 175 -->
      <g transform="translate(135.9125 122.319484) scale(0.1 -0.1)">
       <use xlink:href="#DejaVuSans-31"/>
       <use xlink:href="#DejaVuSans-37" x="63.623047"/>
       <use xlink:href="#DejaVuSans-35" x="127.246094"/>
      </g>
     </g>
    </g>
   </g>
   <g id="line2d_15">
    <path d="M 207.654545 624.000974 
L 209.484387 731.550061 
L 211.314228 724.380122 
L 213.14407 695.700365 
L 214.973911 656.2657 
L 216.803753 638.340852 
L 218.633594 692.115396 
L 220.463436 677.775517 
L 222.293277 674.190548 
L 224.123119 702.870304 
L 225.95296 706.455274 
L 227.782802 670.605578 
L 229.612643 713.625213 
L 231.442485 695.700365 
L 233.272326 659.85067 
L 235.102168 717.210183 
L 236.932009 652.68073 
L 238.761851 577.396369 
L 240.591692 319.278561 
L 242.421534 448.337465 
L 244.251375 312.108621 
L 246.081217 208.144504 
L 247.911058 193.804626 
L 249.7409 193.804626 
L 251.570741 272.673956 
L 253.400583 254.749108 
L 255.230424 365.883165 
L 257.060266 193.804626 
L 262.54979 193.804626 
L 264.379632 197.389595 
L 266.209473 193.804626 
L 268.039315 218.899413 
L 269.869156 279.843895 
L 271.698998 330.033469 
L 273.528839 390.977952 
L 275.358681 265.504017 
L 277.188522 423.242678 
L 279.018364 251.164139 
L 280.848206 319.278561 
L 282.678047 193.804626 
L 293.657096 193.804626 
L 295.486938 358.713226 
L 297.316779 193.804626 
L 300.976462 193.804626 
L 302.806304 319.278561 
L 304.636145 315.693591 
L 306.465987 469.847282 
L 308.295828 193.804626 
L 310.12567 652.68073 
L 311.955511 416.072739 
L 313.785353 351.543287 
L 315.615194 193.804626 
L 317.445036 369.468135 
L 319.274877 441.167526 
L 321.104719 631.170913 
L 322.93456 502.112009 
L 324.764402 498.527039 
L 326.594243 333.618439 
L 328.424085 591.736248 
L 330.253926 509.281948 
L 332.083768 548.716613 
L 333.913609 441.167526 
L 335.743451 469.847282 
L 337.573292 437.582556 
L 339.403134 548.716613 
L 341.232975 373.053104 
L 343.062817 297.768743 
L 344.892658 512.866917 
L 346.7225 419.657708 
L 348.552341 602.491156 
L 350.382183 555.886552 
L 352.212024 498.527039 
L 354.041866 466.262313 
L 355.871707 527.206796 
L 357.701549 641.925822 
L 359.53139 570.22643 
L 361.361232 570.22643 
L 363.191073 401.732861 
L 365.020915 419.657708 
L 366.850756 444.752495 
L 368.680598 290.598804 
L 370.510439 401.732861 
L 372.340281 211.729474 
L 374.170122 193.804626 
L 379.659647 193.804626 
L 381.489488 502.112009 
L 383.31933 362.298195 
L 385.149171 193.804626 
L 386.979013 401.732861 
L 388.808854 276.258926 
L 390.638696 193.804626 
L 397.958062 193.804626 
L 399.787903 330.033469 
L 401.617745 193.804626 
L 403.447586 240.40923 
L 405.277428 358.713226 
L 407.107269 283.428865 
L 408.937111 423.242678 
L 410.766952 598.906187 
L 412.596794 588.151278 
L 414.426635 498.527039 
L 416.256477 638.340852 
L 418.086318 667.020609 
L 419.91616 684.945456 
L 421.746001 512.866917 
L 423.575843 606.076126 
L 425.405684 469.847282 
L 427.235526 365.883165 
L 429.065367 717.210183 
L 430.895209 591.736248 
L 432.72505 634.755883 
L 434.554892 473.432252 
L 436.384733 631.170913 
L 438.214575 545.131643 
L 440.044416 570.22643 
L 441.874258 566.641461 
L 443.704099 555.886552 
L 445.533941 548.716613 
L 447.363782 373.053104 
L 449.193624 541.546674 
L 451.023465 527.206796 
L 452.853307 541.546674 
L 454.683148 656.2657 
L 456.51299 509.281948 
L 458.342831 613.246065 
L 460.172673 559.471522 
L 462.002514 591.736248 
L 463.832356 663.435639 
L 465.662197 509.281948 
L 467.492039 563.056491 
L 469.32188 502.112009 
L 471.151722 559.471522 
L 472.981563 663.435639 
L 474.811405 616.831035 
L 476.641246 606.076126 
L 478.471088 681.360487 
L 480.300929 541.546674 
L 482.130771 688.530426 
L 483.960612 552.301582 
L 485.790454 609.661096 
L 487.620295 631.170913 
L 489.450137 613.246065 
L 491.279978 670.605578 
L 493.10982 588.151278 
L 494.939661 523.621826 
L 496.769503 466.262313 
L 498.599344 588.151278 
L 500.429186 620.416004 
L 502.259027 559.471522 
L 504.088869 602.491156 
L 505.91871 523.621826 
L 507.748552 570.22643 
L 509.578393 570.22643 
L 511.408235 645.510791 
L 513.238076 573.8114 
L 515.067918 598.906187 
L 516.897759 695.700365 
L 518.727601 724.380122 
L 520.557442 652.68073 
L 522.387284 645.510791 
L 524.217125 380.223043 
L 526.046967 624.000974 
L 527.876808 566.641461 
L 529.70665 448.337465 
L 531.536491 638.340852 
L 533.366333 548.716613 
L 535.196174 717.210183 
L 537.026016 710.040243 
L 538.855857 731.550061 
L 540.685699 580.981339 
L 542.51554 609.661096 
L 544.345382 710.040243 
L 546.175223 624.000974 
L 548.005065 684.945456 
L 549.834906 659.85067 
L 551.664748 624.000974 
L 553.494589 695.700365 
L 555.324431 667.020609 
L 557.154272 677.775517 
L 558.984114 735.13503 
L 560.813955 727.965091 
L 562.643797 677.775517 
L 564.473638 573.8114 
L 566.30348 656.2657 
L 568.133321 724.380122 
L 569.963163 684.945456 
L 571.793004 731.550061 
L 573.622846 710.040243 
L 575.452687 692.115396 
L 577.282529 731.550061 
L 579.11237 699.285335 
L 580.942212 674.190548 
L 582.772053 727.965091 
L 584.601895 717.210183 
L 586.431736 588.151278 
L 588.261578 663.435639 
L 590.091419 394.562921 
L 591.921261 355.128256 
L 593.751102 333.618439 
L 595.580944 319.278561 
L 597.410785 308.523652 
L 599.240627 193.804626 
L 601.070468 218.899413 
L 602.90031 218.899413 
L 604.730151 193.804626 
L 606.559993 193.804626 
L 608.389834 340.788378 
L 610.219676 405.31783 
L 612.049517 373.053104 
L 613.879359 193.804626 
L 615.7092 394.562921 
L 617.539042 520.036856 
L 619.368883 193.804626 
L 621.198725 330.033469 
L 623.028566 193.804626 
L 624.858408 365.883165 
L 626.688249 226.069352 
L 628.518091 444.752495 
L 630.347932 258.334078 
L 632.177774 276.258926 
L 634.007615 215.314443 
L 635.837457 193.804626 
L 637.667298 462.677343 
L 639.49714 193.804626 
L 644.986664 193.804626 
L 646.816506 247.579169 
L 648.646347 226.069352 
L 650.476189 211.729474 
L 652.30603 193.804626 
L 654.135872 351.543287 
L 655.965713 469.847282 
L 657.795555 448.337465 
L 659.625396 211.729474 
L 661.455238 254.749108 
L 663.285079 383.808013 
L 665.114921 193.804626 
L 666.944762 193.804626 
L 668.774604 330.033469 
L 670.604445 240.40923 
L 672.434287 193.804626 
L 674.264128 477.017222 
L 676.09397 254.749108 
L 677.923811 398.147891 
L 679.753653 398.147891 
L 681.583494 380.223043 
L 683.413336 502.112009 
L 685.243177 566.641461 
L 687.073019 527.206796 
L 688.90286 559.471522 
L 690.732702 509.281948 
L 692.562543 624.000974 
L 694.392385 412.487769 
L 696.222226 477.017222 
L 698.052068 494.942069 
L 699.881909 649.095761 
L 701.711751 534.376735 
L 703.541592 595.321217 
L 705.371434 634.755883 
L 707.201275 580.981339 
L 709.031117 638.340852 
L 710.860958 631.170913 
L 712.6908 541.546674 
L 714.520641 591.736248 
L 716.350483 469.847282 
L 718.180324 430.412617 
L 720.010166 620.416004 
L 721.840007 627.585943 
L 723.669849 537.961704 
L 725.49969 347.958317 
L 727.329532 459.092374 
L 729.159373 455.507404 
L 730.989215 358.713226 
L 732.819056 699.285335 
L 734.648898 595.321217 
L 736.478739 659.85067 
L 738.308581 649.095761 
L 740.138422 634.755883 
L 741.968264 584.566309 
L 743.798105 598.906187 
L 745.627947 606.076126 
L 747.457788 710.040243 
L 749.28763 652.68073 
L 751.117471 624.000974 
L 752.947313 731.550061 
L 754.777154 735.13503 
L 756.606996 563.056491 
L 758.436837 695.700365 
L 760.266679 663.435639 
L 762.09652 627.585943 
L 763.926362 527.206796 
L 765.756203 380.223043 
L 767.586045 380.223043 
L 769.415886 358.713226 
L 771.245728 315.693591 
L 773.075569 193.804626 
L 774.905411 197.389595 
L 776.735252 193.804626 
L 787.714301 193.804626 
L 789.544143 297.768743 
L 791.373984 204.559534 
L 793.203826 269.088987 
L 795.033667 193.804626 
L 796.863509 204.559534 
L 798.69335 351.543287 
L 800.523192 254.749108 
L 802.353033 222.484382 
L 804.182875 193.804626 
L 806.012716 297.768743 
L 807.842558 394.562921 
L 809.672399 193.804626 
L 811.502241 243.9942 
L 813.332082 193.804626 
L 816.991765 193.804626 
L 818.821607 208.144504 
L 820.651448 193.804626 
L 822.48129 193.804626 
L 824.311131 347.958317 
L 826.140973 193.804626 
L 827.970814 312.108621 
L 829.800656 197.389595 
L 831.630497 426.827648 
L 833.460339 193.804626 
L 835.29018 301.353713 
L 837.120022 193.804626 
L 838.949863 387.392982 
L 840.779705 226.069352 
L 842.609546 193.804626 
L 844.439388 193.804626 
L 846.269229 455.507404 
L 848.099071 294.183774 
L 849.928912 362.298195 
L 851.758754 570.22643 
L 853.588595 573.8114 
L 855.418437 487.77213 
L 857.248278 512.866917 
L 859.07812 455.507404 
L 860.907961 552.301582 
L 862.737803 312.108621 
L 864.567644 505.696978 
L 866.397486 641.925822 
L 868.227327 512.866917 
L 870.057169 624.000974 
L 871.88701 602.491156 
L 873.716852 559.471522 
L 875.546693 631.170913 
L 877.376535 505.696978 
L 879.206376 570.22643 
L 881.036218 624.000974 
L 884.695901 480.602191 
L 886.525742 333.618439 
L 888.355584 566.641461 
L 890.185425 649.095761 
L 892.015267 541.546674 
L 893.845108 312.108621 
L 895.67495 663.435639 
L 897.504791 609.661096 
L 899.334633 537.961704 
L 901.164474 437.582556 
L 902.994316 620.416004 
L 904.824157 537.961704 
L 906.653999 462.677343 
L 908.48384 606.076126 
L 910.313682 616.831035 
L 912.143523 634.755883 
L 913.973365 580.981339 
L 915.803206 616.831035 
L 917.633048 416.072739 
L 921.292731 663.435639 
L 923.122572 527.206796 
L 924.952414 656.2657 
L 926.782255 634.755883 
L 928.612097 566.641461 
L 930.441938 738.72 
L 932.27178 580.981339 
L 934.101621 555.886552 
L 935.931463 663.435639 
L 937.761304 466.262313 
L 939.591146 337.203408 
L 941.420987 437.582556 
L 943.250829 520.036856 
L 945.08067 451.922435 
L 946.910512 491.3571 
L 948.740353 473.432252 
L 950.570195 312.108621 
L 952.400036 240.40923 
L 954.229878 193.804626 
L 956.059719 193.804626 
L 957.889561 276.258926 
L 959.719402 193.804626 
L 967.038768 193.804626 
L 968.86861 383.808013 
L 970.698451 401.732861 
L 972.528293 197.389595 
L 974.358134 193.804626 
L 976.187976 193.804626 
L 978.017817 487.77213 
L 979.847659 193.804626 
L 981.6775 477.017222 
L 983.507342 258.334078 
L 985.337183 358.713226 
L 987.167025 304.938682 
L 988.996866 355.128256 
L 990.826708 326.4485 
L 992.656549 251.164139 
L 994.486391 193.804626 
L 996.316232 218.899413 
L 998.146074 193.804626 
L 999.975915 193.804626 
L 1001.805757 254.749108 
L 1003.635598 193.804626 
L 1005.46544 326.4485 
L 1007.295281 269.088987 
L 1009.125123 193.804626 
L 1010.954964 233.239291 
L 1012.784806 251.164139 
L 1014.614647 193.804626 
L 1016.444489 319.278561 
L 1020.104172 193.804626 
L 1021.934013 261.919047 
L 1023.763855 215.314443 
L 1025.593696 580.981339 
L 1027.423538 294.183774 
L 1029.253379 326.4485 
L 1031.083221 269.088987 
L 1032.913062 534.376735 
L 1034.742904 193.804626 
L 1036.572745 347.958317 
L 1038.402587 211.729474 
L 1040.232428 376.638074 
L 1042.06227 466.262313 
L 1043.892111 315.693591 
L 1045.721953 509.281948 
L 1047.551794 340.788378 
L 1049.381636 480.602191 
L 1051.211478 401.732861 
L 1053.041319 444.752495 
L 1054.871161 297.768743 
L 1056.701002 480.602191 
L 1058.530844 595.321217 
L 1060.360685 340.788378 
L 1062.190527 193.804626 
L 1064.020368 193.804626 
L 1065.85021 218.899413 
L 1067.680051 247.579169 
L 1069.509893 251.164139 
L 1071.339734 193.804626 
L 1074.999417 193.804626 
L 1076.829259 243.9942 
L 1078.6591 193.804626 
L 1082.318783 193.804626 
L 1084.148625 240.40923 
L 1085.978466 319.278561 
L 1087.808308 265.504017 
L 1089.638149 193.804626 
L 1091.467991 211.729474 
L 1093.297832 193.804626 
L 1095.127674 347.958317 
L 1096.957515 193.804626 
L 1098.787357 376.638074 
L 1100.617198 193.804626 
L 1102.44704 380.223043 
L 1104.276881 276.258926 
L 1106.106723 444.752495 
L 1107.936564 333.618439 
L 1109.766406 548.716613 
L 1111.596247 469.847282 
L 1113.426089 552.301582 
L 1115.25593 455.507404 
L 1117.085772 509.281948 
L 1118.915613 480.602191 
L 1120.745455 616.831035 
L 1120.745455 616.831035 
" clip-path="url(#pbd480035df)" style="fill: none; stroke: #4169e1; stroke-linecap: square"/>
   </g>
   <g id="line2d_16">
    <path d="M 207.654545 626.768377 
L 209.484387 608.900925 
L 211.314228 635.714308 
L 213.14407 655.498261 
L 214.973911 661.08863 
L 216.803753 674.980709 
L 218.633594 667.08366 
L 220.463436 661.748285 
L 224.123119 649.313319 
L 225.95296 646.11307 
L 227.782802 650.92264 
L 229.612643 643.310125 
L 231.442485 652.920997 
L 233.272326 630.693868 
L 235.102168 606.583886 
L 236.932009 611.264037 
L 238.761851 548.110388 
L 240.591692 456.5744 
L 242.421534 304.177117 
L 244.251375 271.26488 
L 246.081217 287.030491 
L 247.911058 225.831233 
L 249.7409 220.773459 
L 251.570741 209.977031 
L 253.400583 225.689335 
L 255.230424 224.647584 
L 257.060266 258.196228 
L 258.890107 217.883865 
L 260.719949 208.201723 
L 262.54979 206.316517 
L 266.209473 208.431527 
L 268.039315 206.47964 
L 269.869156 210.737885 
L 271.698998 222.974132 
L 273.528839 243.286188 
L 275.358681 283.342818 
L 277.188522 254.172984 
L 279.018364 317.27632 
L 280.848206 264.994082 
L 282.678047 269.471082 
L 284.507889 226.163823 
L 286.33773 209.806578 
L 288.167572 208.059004 
L 289.997413 205.546528 
L 291.827255 205.090748 
L 293.657096 209.994317 
L 295.486938 209.66933 
L 297.316779 256.131599 
L 299.146621 219.888868 
L 300.976462 202.974371 
L 302.806304 203.9484 
L 304.636145 242.032466 
L 306.465987 274.571196 
L 308.295828 381.162473 
L 310.12567 285.851301 
L 311.955511 491.605804 
L 313.785353 473.551667 
L 315.615194 439.922283 
L 317.445036 369.90206 
L 319.274877 334.139068 
L 321.104719 386.22156 
L 322.93456 520.772889 
L 324.764402 527.551953 
L 326.594243 531.849215 
L 328.424085 483.732256 
L 330.253926 518.112758 
L 332.083768 511.899808 
L 333.913609 523.068499 
L 335.743451 515.719943 
L 337.573292 503.585907 
L 339.403134 489.454663 
L 341.232975 511.962989 
L 344.892658 429.136768 
L 346.7225 478.52922 
L 348.552341 451.221808 
L 350.382183 529.256928 
L 352.212024 555.904535 
L 354.041866 534.988129 
L 355.871707 534.308562 
L 357.701549 529.416727 
L 359.53139 545.725628 
L 361.361232 537.447886 
L 363.191073 542.966376 
L 365.020915 495.410075 
L 366.850756 481.376721 
L 368.680598 475.34582 
L 370.510439 373.111827 
L 372.340281 385.846931 
L 374.170122 267.179712 
L 375.999964 230.255609 
L 379.659647 210.541777 
L 381.489488 216.604269 
L 383.31933 356.189891 
L 385.149171 386.756166 
L 386.979013 307.868729 
L 388.808854 340.243762 
L 390.638696 289.494775 
L 392.468537 245.033981 
L 394.298379 225.177267 
L 396.12822 219.184248 
L 397.958062 217.008628 
L 399.787903 216.304664 
L 401.617745 256.092651 
L 403.447586 232.548127 
L 405.277428 245.191359 
L 407.107269 304.015663 
L 408.937111 310.372507 
L 410.766952 408.974897 
L 412.596794 518.747564 
L 414.426635 557.953465 
L 416.256477 476.577142 
L 418.086318 454.309998 
L 419.91616 565.230032 
L 421.746001 601.959792 
L 423.575843 565.085139 
L 425.405684 582.152105 
L 427.235526 532.992001 
L 429.065367 444.478628 
L 430.895209 552.681955 
L 432.72505 550.115036 
L 434.554892 574.876166 
L 436.384733 565.624545 
L 438.214575 564.542151 
L 440.044416 553.276364 
L 441.874258 549.469946 
L 443.704099 559.615922 
L 445.533941 545.51151 
L 447.363782 533.136565 
L 449.193624 458.417293 
L 451.023465 491.740207 
L 452.853307 492.413866 
L 454.683148 510.276764 
L 456.51299 562.390395 
L 458.342831 536.759772 
L 460.172673 559.400176 
L 462.002514 557.410572 
L 463.832356 557.073879 
L 465.662197 587.158992 
L 467.492039 544.292264 
L 469.32188 546.758394 
L 471.151722 512.083362 
L 472.981563 530.010452 
L 474.811405 540.554005 
L 476.641246 565.588318 
L 478.471088 564.863117 
L 480.300929 595.619509 
L 482.130771 576.714259 
L 483.960612 606.873494 
L 485.790454 592.080859 
L 487.620295 580.328631 
L 489.450137 605.33398 
L 491.279978 585.059573 
L 493.10982 608.674553 
L 494.939661 595.580834 
L 496.769503 563.387153 
L 498.599344 540.966406 
L 500.429186 550.079876 
L 502.259027 568.194076 
L 504.088869 556.838194 
L 505.91871 569.092575 
L 507.748552 549.318981 
L 509.578393 546.929051 
L 511.408235 554.258694 
L 513.238076 570.376588 
L 515.067918 570.329517 
L 516.897759 576.273865 
L 518.727601 608.801121 
L 520.557442 634.057492 
L 522.387284 629.528285 
L 524.217125 634.944886 
L 526.046967 561.643353 
L 527.876808 580.481606 
L 529.70665 572.322308 
L 531.536491 522.18771 
L 533.366333 588.2001 
L 535.196174 548.363633 
L 537.026016 573.938241 
L 538.855857 625.470373 
L 540.685699 648.574578 
L 542.51554 644.412034 
L 544.345382 631.863102 
L 546.175223 661.208852 
L 548.005065 628.382245 
L 549.834906 648.925138 
L 551.664748 665.829767 
L 553.494589 639.552098 
L 555.324431 657.714265 
L 557.154272 653.715219 
L 558.984114 652.617734 
L 560.813955 679.427274 
L 562.643797 674.736121 
L 564.473638 666.141338 
L 566.30348 651.943282 
L 568.133321 651.4123 
L 569.963163 663.532784 
L 571.793004 653.677003 
L 573.622846 681.73169 
L 575.452687 687.927914 
L 577.282529 674.103605 
L 579.11237 687.889363 
L 580.942212 676.56635 
L 582.772053 662.973145 
L 584.601895 661.034195 
L 586.431736 658.310034 
L 588.261578 606.245197 
L 590.091419 568.345123 
L 591.921261 398.038623 
L 593.751102 297.273277 
L 595.580944 252.368519 
L 597.410785 269.622717 
L 599.240627 260.010703 
L 601.070468 224.30854 
L 602.90031 221.627799 
L 604.730151 218.208851 
L 606.559993 208.249861 
L 608.389834 204.636938 
L 610.219676 242.20713 
L 612.049517 297.896965 
L 613.879359 332.487961 
L 615.7092 257.661404 
L 617.539042 308.130042 
L 619.368883 412.237917 
L 621.198725 282.023344 
L 623.028566 302.463486 
L 624.858408 230.779493 
L 626.688249 258.786904 
L 628.518091 235.093316 
L 630.347932 315.997544 
L 632.177774 279.031457 
L 634.007615 274.785191 
L 635.837457 235.678083 
L 637.667298 212.956063 
L 639.49714 297.790597 
L 641.326981 249.577827 
L 643.156823 233.353892 
L 644.986664 225.290665 
L 646.816506 212.110694 
L 648.646347 224.13393 
L 650.476189 221.874069 
L 652.30603 211.756442 
L 654.135872 209.906629 
L 655.965713 259.522321 
L 657.795555 365.748214 
L 659.625396 428.735636 
L 661.455238 352.742224 
L 663.285079 336.317532 
L 665.114921 335.768649 
L 666.944762 267.493704 
L 668.774604 265.65505 
L 670.604445 288.510052 
L 672.434287 273.272892 
L 674.264128 273.576106 
L 676.09397 373.828892 
L 677.923811 331.511416 
L 679.753653 403.794891 
L 681.583494 412.612272 
L 683.413336 404.104944 
L 685.243177 460.46789 
L 687.073019 504.534828 
L 688.90286 520.069144 
L 690.732702 543.893689 
L 692.562543 541.810243 
L 694.392385 563.582727 
L 696.222226 521.278448 
L 698.052068 517.426545 
L 699.881909 525.537459 
L 701.711751 553.204389 
L 703.541592 547.926479 
L 705.371434 563.146449 
L 707.201275 590.073585 
L 709.031117 559.441476 
L 710.860958 559.834157 
L 712.6908 561.49243 
L 714.520641 538.421231 
L 716.350483 549.175784 
L 718.180324 528.474699 
L 720.010166 493.452334 
L 721.840007 554.365459 
L 723.669849 571.115575 
L 725.49969 555.125903 
L 727.329532 493.381495 
L 729.159373 495.069717 
L 730.989215 471.00719 
L 732.819056 428.120427 
L 734.648898 565.333078 
L 736.478739 577.148773 
L 738.308581 593.77637 
L 740.138422 598.67935 
L 741.968264 596.664254 
L 743.798105 593.810504 
L 745.627947 598.920943 
L 747.457788 596.766985 
L 749.28763 619.424211 
L 751.117471 621.06342 
L 752.947313 602.816061 
L 754.777154 640.099421 
L 756.606996 655.875242 
L 758.436837 600.237107 
L 760.266679 614.12654 
L 762.09652 591.390543 
L 763.926362 564.077496 
L 765.756203 475.630792 
L 767.586045 339.67505 
L 769.415886 284.359515 
L 771.245728 305.706101 
L 773.075569 277.473809 
L 774.905411 220.215987 
L 778.565094 209.232423 
L 780.394935 205.209726 
L 782.224777 204.179627 
L 784.054618 201.021937 
L 785.88446 200.893605 
L 787.714301 201.13807 
L 789.544143 200.366439 
L 791.373984 232.585763 
L 793.203826 217.211792 
L 795.033667 229.001668 
L 796.863509 211.045968 
L 798.69335 203.750105 
L 800.523192 242.186836 
L 802.353033 233.778327 
L 804.182875 221.92992 
L 806.012716 217.159059 
L 807.842558 235.181769 
L 809.672399 279.910359 
L 811.502241 232.485329 
L 813.332082 232.137368 
L 815.161924 213.566103 
L 816.991765 204.445097 
L 818.821607 203.325396 
L 820.651448 210.444024 
L 822.48129 207.611102 
L 824.311131 203.543275 
L 826.140973 243.912529 
L 827.970814 217.235369 
L 829.800656 256.934301 
L 831.630497 233.83013 
L 833.460339 324.356383 
L 835.29018 269.651217 
L 837.120022 315.069985 
L 838.949863 259.530527 
L 840.779705 310.918628 
L 842.609546 277.929917 
L 844.439388 273.201997 
L 846.269229 243.771178 
L 848.099071 328.983541 
L 849.928912 331.810227 
L 851.758754 378.333243 
L 853.588595 481.448189 
L 855.418437 516.079692 
L 857.248278 494.324945 
L 859.07812 505.74755 
L 860.907961 485.414243 
L 862.737803 501.429816 
L 864.567644 444.045222 
L 866.397486 476.338558 
L 868.227327 533.634835 
L 870.057169 512.046 
L 871.88701 551.168712 
L 873.716852 567.298955 
L 875.546693 542.209433 
L 877.376535 569.155838 
L 879.206376 542.883023 
L 881.036218 547.768581 
L 882.866059 574.6881 
L 884.695901 554.681748 
L 886.525742 509.820984 
L 888.355584 437.806972 
L 890.185425 476.155004 
L 892.015267 525.222429 
L 893.845108 540.759713 
L 895.67495 474.306148 
L 897.504791 573.17152 
L 899.334633 575.106477 
L 901.164474 555.442328 
L 902.994316 551.925805 
L 904.824157 576.322632 
L 906.653999 558.356361 
L 908.48384 529.357362 
L 910.313682 576.582782 
L 912.143523 588.394389 
L 913.973365 592.87664 
L 915.803206 575.568725 
L 917.633048 586.916005 
L 919.462889 535.379715 
L 921.292731 552.914658 
L 923.122572 590.714751 
L 924.952414 560.747767 
L 926.782255 600.858758 
L 928.612097 605.558793 
L 930.441938 578.425224 
L 932.27178 630.517508 
L 934.101621 589.948755 
L 935.931463 558.015319 
L 937.761304 579.627266 
L 939.591146 508.730056 
L 941.420987 410.849955 
L 943.250829 336.968216 
L 945.08067 442.052226 
L 946.910512 439.607581 
L 948.740353 453.258183 
L 950.570195 451.825092 
L 954.229878 282.566647 
L 956.059719 228.239775 
L 957.889561 210.939025 
L 959.719402 223.723116 
L 961.549244 208.124647 
L 963.379085 204.551493 
L 965.208927 204.17722 
L 967.038768 207.700595 
L 968.86861 207.938495 
L 972.528293 315.317595 
L 974.358134 246.441799 
L 976.187976 220.1254 
L 978.017817 211.138743 
L 979.847659 291.545673 
L 981.6775 248.65675 
L 983.507342 363.026365 
L 985.337183 296.201249 
L 987.167025 323.363701 
L 988.996866 292.692999 
L 990.826708 308.84656 
L 992.656549 312.830993 
L 994.486391 276.70196 
L 996.316232 234.301227 
L 998.146074 224.413459 
L 999.975915 211.286385 
L 1001.805757 205.442484 
L 1003.635598 215.226208 
L 1005.46544 212.50094 
L 1007.295281 256.589786 
L 1009.125123 274.180403 
L 1010.954964 263.282776 
L 1012.784806 256.912037 
L 1014.614647 255.471124 
L 1016.444489 239.838904 
L 1018.27433 275.668797 
L 1020.104172 279.228057 
L 1021.934013 271.166306 
L 1023.763855 275.589041 
L 1025.593696 260.875328 
L 1027.423538 426.564065 
L 1029.253379 390.388644 
L 1031.083221 393.265657 
L 1032.913062 369.236306 
L 1034.742904 416.777633 
L 1036.572745 323.564868 
L 1038.402587 368.734331 
L 1040.232428 319.962202 
L 1042.06227 344.133669 
L 1043.892111 403.803944 
L 1045.721953 388.500075 
L 1047.551794 457.72137 
L 1049.381636 426.269712 
L 1051.211478 454.011843 
L 1053.041319 454.070238 
L 1054.871161 454.887545 
L 1056.701002 422.79215 
L 1058.530844 454.64959 
L 1060.360685 505.116368 
L 1062.190527 410.918771 
L 1064.020368 331.252893 
L 1065.85021 292.099097 
L 1067.680051 226.378693 
L 1069.509893 242.92384 
L 1071.339734 249.738871 
L 1073.169576 231.308136 
L 1074.999417 218.494889 
L 1076.829259 212.836265 
L 1078.6591 225.642947 
L 1080.488942 219.739093 
L 1082.318783 216.390383 
L 1084.148625 220.862842 
L 1085.978466 234.265232 
L 1087.808308 275.533026 
L 1089.638149 282.125255 
L 1091.467991 247.877078 
L 1093.297832 230.205666 
L 1095.127674 217.39871 
L 1096.957515 264.0904 
L 1098.787357 247.298601 
L 1100.617198 324.00421 
L 1102.44704 263.252142 
L 1104.276881 334.506749 
L 1106.106723 313.071847 
L 1107.936564 398.144335 
L 1109.766406 397.896944 
L 1111.596247 488.100289 
L 1113.426089 504.837031 
L 1115.25593 529.997775 
L 1117.085772 500.409837 
L 1118.915613 487.885993 
L 1120.745455 461.090266 
L 1120.745455 461.090266 
" clip-path="url(#pbd480035df)" style="fill: none; stroke: #ff6347; stroke-linecap: square"/>
   </g>
   <g id="line2d_17">
    <path d="M 207.654545 639.501949 
L 209.484387 584.553454 
L 211.314228 665.256255 
L 213.14407 662.276135 
L 214.973911 685.486592 
L 216.803753 713.511555 
L 218.633594 666.325732 
L 220.463436 673.718098 
L 222.293277 665.778258 
L 224.123119 660.447348 
L 225.95296 678.451015 
L 227.782802 669.362257 
L 229.612643 665.140798 
L 231.442485 678.914173 
L 233.272326 663.889278 
L 235.102168 645.108442 
L 236.932009 673.339401 
L 238.761851 643.672261 
L 240.591692 531.119815 
L 242.421534 382.161474 
L 244.251375 345.590802 
L 246.081217 224.755403 
L 247.911058 234.68458 
L 249.7409 290.106483 
L 251.570741 243.268464 
L 253.400583 241.261765 
L 255.230424 261.869542 
L 257.060266 278.572122 
L 258.890107 238.077271 
L 260.719949 257.456051 
L 262.54979 263.363243 
L 264.379632 281.985928 
L 266.209473 263.201215 
L 268.039315 266.146824 
L 269.869156 290.826666 
L 271.698998 262.808726 
L 273.528839 279.691221 
L 275.358681 293.023456 
L 277.188522 226.846288 
L 279.018364 324.669554 
L 280.848206 265.162073 
L 282.678047 311.41516 
L 284.507889 273.28509 
L 286.33773 224.64835 
L 288.167572 236.565573 
L 289.997413 215.45831 
L 291.827255 211.599118 
L 293.657096 258.057613 
L 295.486938 241.133106 
L 297.316779 267.797848 
L 299.146621 239.352108 
L 300.976462 285.604649 
L 302.806304 266.468856 
L 304.636145 293.078213 
L 306.465987 344.848628 
L 308.295828 411.687256 
L 310.12567 396.98823 
L 311.955511 496.402785 
L 313.785353 507.423355 
L 315.615194 484.695783 
L 317.445036 450.206615 
L 319.274877 401.436593 
L 321.104719 410.489221 
L 322.93456 550.096478 
L 324.764402 549.378757 
L 326.594243 556.656624 
L 328.424085 568.332281 
L 330.253926 508.153959 
L 332.083768 514.74657 
L 333.913609 539.448294 
L 335.743451 526.763379 
L 337.573292 550.717541 
L 339.403134 532.66551 
L 341.232975 534.592289 
L 343.062817 476.209214 
L 344.892658 430.154094 
L 346.7225 448.539891 
L 348.552341 373.841501 
L 350.382183 486.20934 
L 352.212024 547.735883 
L 354.041866 532.951521 
L 355.871707 592.277718 
L 359.53139 547.003364 
L 361.361232 552.859409 
L 363.191073 588.16706 
L 365.020915 537.163707 
L 366.850756 545.859813 
L 368.680598 556.435161 
L 370.510439 453.616975 
L 372.340281 413.186509 
L 374.170122 376.504627 
L 375.999964 256.181543 
L 377.829805 280.395349 
L 379.659647 219.400923 
L 381.489488 231.123023 
L 383.31933 338.095767 
L 385.149171 341.514168 
L 386.979013 133.92 
L 388.808854 291.665608 
L 390.638696 345.30077 
L 392.468537 258.683899 
L 394.298379 263.202856 
L 396.12822 256.822927 
L 397.958062 218.125758 
L 399.787903 220.974271 
L 401.617745 266.615185 
L 403.447586 241.599443 
L 405.277428 282.941467 
L 407.107269 344.886893 
L 408.937111 162.699643 
L 410.766952 206.346877 
L 412.596794 368.127436 
L 414.426635 313.352388 
L 416.256477 325.538554 
L 418.086318 437.350673 
L 419.91616 386.484158 
L 421.746001 533.469005 
L 423.575843 566.34388 
L 425.405684 556.878031 
L 427.235526 497.939044 
L 429.065367 424.720461 
L 430.895209 518.767353 
L 432.72505 450.055445 
L 434.554892 476.321655 
L 436.384733 523.497406 
L 438.214575 513.917776 
L 440.044416 543.999908 
L 441.874258 528.056103 
L 443.704099 546.085077 
L 445.533941 531.280202 
L 447.363782 522.352569 
L 449.193624 437.084 
L 451.023465 441.003145 
L 452.853307 400.688019 
L 456.51299 553.165988 
L 458.342831 535.370621 
L 460.172673 539.928908 
L 462.002514 527.418876 
L 463.832356 491.715345 
L 465.662197 542.419969 
L 467.492039 504.568059 
L 469.32188 545.602329 
L 471.151722 508.319543 
L 472.981563 528.901281 
L 474.811405 565.742729 
L 476.641246 552.846499 
L 478.471088 637.72474 
L 480.300929 642.945657 
L 482.130771 595.974281 
L 483.960612 633.272356 
L 485.790454 610.14305 
L 487.620295 601.21714 
L 489.450137 619.568529 
L 491.279978 627.858416 
L 493.10982 645.269999 
L 494.939661 633.63947 
L 496.769503 582.403845 
L 498.599344 592.66099 
L 500.429186 576.290398 
L 502.259027 567.570825 
L 504.088869 562.285408 
L 505.91871 594.719136 
L 507.748552 571.566746 
L 509.578393 546.85482 
L 511.408235 567.237141 
L 513.238076 591.063382 
L 515.067918 591.4405 
L 516.897759 602.655209 
L 518.727601 659.168539 
L 520.557442 671.376628 
L 522.387284 673.836658 
L 524.217125 677.899733 
L 526.046967 603.88467 
L 527.876808 625.708725 
L 529.70665 591.903309 
L 531.536491 536.073463 
L 533.366333 621.749154 
L 535.196174 555.757509 
L 537.026016 572.934303 
L 538.855857 654.372419 
L 540.685699 676.173403 
L 542.51554 672.948628 
L 544.345382 651.97066 
L 546.175223 670.339315 
L 548.005065 638.15617 
L 549.834906 670.597879 
L 551.664748 674.497735 
L 553.494589 645.735843 
L 555.324431 669.548197 
L 557.154272 661.536991 
L 558.984114 649.392651 
L 560.813955 685.48971 
L 562.643797 670.011682 
L 564.473638 666.234106 
L 566.30348 652.578396 
L 568.133321 674.7065 
L 569.963163 668.296041 
L 571.793004 644.626214 
L 573.622846 698.64206 
L 575.452687 695.421787 
L 577.282529 689.6975 
L 579.11237 703.501692 
L 580.942212 685.931376 
L 582.772053 670.870447 
L 584.601895 666.034682 
L 586.431736 674.003979 
L 588.261578 627.235507 
L 590.091419 604.942257 
L 591.921261 305.519484 
L 593.751102 192.326624 
L 595.580944 239.54198 
L 597.410785 249.233531 
L 599.240627 275.21176 
L 601.070468 248.354574 
L 602.90031 241.445948 
L 604.730151 240.591936 
L 606.559993 233.676089 
L 608.389834 213.834199 
L 610.219676 258.49906 
L 612.049517 259.803327 
L 613.879359 297.577969 
L 615.7092 285.259313 
L 617.539042 334.827934 
L 619.368883 332.674086 
L 621.198725 245.361976 
L 623.028566 299.23657 
L 624.858408 244.910408 
L 626.688249 275.573506 
L 628.518091 215.462577 
L 630.347932 282.2997 
L 632.177774 261.463049 
L 634.007615 279.16969 
L 635.837457 287.541411 
L 637.667298 201.776008 
L 639.49714 255.946542 
L 641.326981 179.898427 
L 643.156823 163.148475 
L 644.986664 236.490795 
L 646.816506 209.195062 
L 648.646347 240.947282 
L 650.476189 253.82546 
L 652.30603 257.019582 
L 654.135872 246.644799 
L 655.965713 291.120773 
L 657.795555 345.823779 
L 659.625396 432.860955 
L 661.455238 383.040704 
L 663.285079 354.312454 
L 665.114921 364.677253 
L 666.944762 322.407368 
L 668.774604 275.052904 
L 670.604445 325.874153 
L 672.434287 300.450742 
L 674.264128 329.457892 
L 676.09397 388.604036 
L 677.923811 371.042412 
L 679.753653 391.998916 
L 681.583494 362.952407 
L 683.413336 373.36983 
L 685.243177 453.991385 
L 687.073019 479.334848 
L 688.90286 519.492049 
L 690.732702 563.009885 
L 692.562543 561.647825 
L 694.392385 587.425816 
L 696.222226 549.864376 
L 698.052068 534.761702 
L 699.881909 517.805112 
L 701.711751 533.933755 
L 703.541592 553.677208 
L 705.371434 589.097956 
L 707.201275 636.820545 
L 709.031117 614.083885 
L 710.860958 635.897766 
L 712.6908 641.487902 
L 714.520641 570.519416 
L 716.350483 599.021609 
L 718.180324 558.32291 
L 720.010166 534.84619 
L 721.840007 579.065309 
L 723.669849 566.145967 
L 725.49969 516.15592 
L 727.329532 495.18399 
L 729.159373 479.501307 
L 730.989215 477.829222 
L 732.819056 425.56851 
L 734.648898 546.84057 
L 736.478739 555.030817 
L 738.308581 545.541692 
L 740.138422 623.353326 
L 741.968264 639.257649 
L 743.798105 637.083568 
L 745.627947 613.331702 
L 747.457788 615.696181 
L 749.28763 641.856794 
L 751.117471 642.050105 
L 752.947313 643.255525 
L 754.777154 670.345387 
L 756.606996 677.511969 
L 758.436837 612.918891 
L 760.266679 679.967869 
L 762.09652 657.631302 
L 763.926362 569.222424 
L 765.756203 445.425224 
L 767.586045 193.410496 
L 769.415886 285.358817 
L 771.245728 297.718937 
L 773.075569 241.074957 
L 774.905411 217.997262 
L 776.735252 229.976518 
L 778.565094 211.689596 
L 780.394935 190.939812 
L 782.224777 221.873631 
L 784.054618 208.939328 
L 785.88446 212.725001 
L 787.714301 208.224698 
L 789.544143 211.170854 
L 791.373984 236.131073 
L 793.203826 232.805447 
L 795.033667 257.432201 
L 796.863509 264.733863 
L 798.69335 244.354524 
L 800.523192 281.999002 
L 802.353033 245.917532 
L 804.182875 203.310845 
L 806.012716 227.49287 
L 807.842558 232.677553 
L 809.672399 254.868195 
L 811.502241 232.982573 
L 813.332082 246.280373 
L 815.161924 232.917423 
L 816.991765 200.010163 
L 818.821607 203.38628 
L 820.651448 218.166457 
L 822.48129 216.484416 
L 824.311131 221.697271 
L 826.140973 270.450253 
L 827.970814 231.822994 
L 829.800656 282.534428 
L 831.630497 260.046205 
L 833.460339 307.879806 
L 835.29018 295.939553 
L 837.120022 299.562158 
L 838.949863 299.594049 
L 840.779705 326.213444 
L 842.609546 306.094761 
L 844.439388 263.769462 
L 846.269229 266.826773 
L 848.099071 330.540806 
L 849.928912 345.59671 
L 851.758754 364.326666 
L 853.588595 443.78049 
L 855.418437 502.547767 
L 857.248278 501.031556 
L 859.07812 546.829438 
L 860.907961 512.921455 
L 862.737803 509.502206 
L 864.567644 374.114575 
L 866.397486 449.493106 
L 868.227327 551.385811 
L 870.057169 529.310482 
L 871.88701 585.917565 
L 873.716852 614.489093 
L 875.546693 529.073566 
L 877.376535 616.738506 
L 879.206376 591.154981 
L 881.036218 583.989965 
L 882.866059 599.10626 
L 884.695901 575.041463 
L 886.525742 570.84886 
L 888.355584 448.23725 
L 890.185425 444.086686 
L 892.015267 486.165059 
L 893.845108 546.667656 
L 895.67495 513.092017 
L 897.504791 623.643221 
L 899.334633 549.842167 
L 901.164474 520.47256 
L 902.994316 511.469766 
L 904.824157 559.07854 
L 906.653999 538.595047 
L 908.48384 541.330326 
L 910.313682 585.871259 
L 912.143523 554.723554 
L 913.973365 560.410404 
L 915.803206 548.270215 
L 917.633048 631.294116 
L 919.462889 526.861159 
L 921.292731 543.941349 
L 923.122572 611.562657 
L 924.952414 550.880116 
L 926.782255 618.964862 
L 928.612097 622.45 
L 930.441938 566.927964 
L 932.27178 664.770888 
L 934.101621 594.355776 
L 935.931463 552.110726 
L 937.761304 641.796505 
L 939.591146 524.541098 
L 941.420987 248.913139 
L 943.250829 208.087176 
L 945.08067 453.919971 
L 946.910512 423.207587 
L 948.740353 432.948178 
L 950.570195 447.071654 
L 952.400036 317.288601 
L 956.059719 258.360499 
L 957.889561 242.000137 
L 959.719402 240.833009 
L 961.549244 197.669288 
L 965.208927 205.985897 
L 967.038768 213.434161 
L 968.86861 212.091548 
L 970.698451 271.539212 
L 972.528293 300.106692 
L 974.358134 230.177768 
L 976.187976 239.273337 
L 978.017817 243.198938 
L 979.847659 271.877163 
L 981.6775 205.78771 
L 983.507342 345.876785 
L 985.337183 280.769622 
L 987.167025 317.142819 
L 988.996866 288.859271 
L 990.826708 277.719258 
L 992.656549 280.759338 
L 994.486391 236.798988 
L 996.316232 247.642186 
L 998.146074 244.657903 
L 999.975915 219.968131 
L 1001.805757 230.825826 
L 1003.635598 250.937507 
L 1005.46544 222.492369 
L 1007.295281 274.395383 
L 1009.125123 268.663622 
L 1010.954964 272.109921 
L 1012.784806 259.190224 
L 1014.614647 262.789525 
L 1016.444489 253.7951 
L 1018.27433 288.697708 
L 1020.104172 291.530904 
L 1021.934013 249.215698 
L 1023.763855 281.335463 
L 1025.593696 293.455385 
L 1027.423538 397.00475 
L 1029.253379 356.444393 
L 1031.083221 370.618086 
L 1032.913062 330.785571 
L 1034.742904 395.238276 
L 1036.572745 272.128082 
L 1038.402587 297.777605 
L 1040.232428 319.509623 
L 1042.06227 318.225131 
L 1043.892111 341.373091 
L 1045.721953 333.987187 
L 1047.551794 415.673576 
L 1049.381636 363.2065 
L 1051.211478 385.454552 
L 1053.041319 389.680003 
L 1054.871161 395.709728 
L 1056.701002 351.106489 
L 1058.530844 392.660704 
L 1060.360685 489.450862 
L 1062.190527 433.816932 
L 1064.020368 342.508601 
L 1065.85021 313.600025 
L 1067.680051 256.896556 
L 1069.509893 245.703646 
L 1071.339734 281.289568 
L 1073.169576 251.87505 
L 1074.999417 231.925834 
L 1076.829259 191.390613 
L 1078.6591 236.068767 
L 1080.488942 205.7556 
L 1082.318783 218.696303 
L 1084.148625 243.351885 
L 1085.978466 214.4909 
L 1087.808308 256.833867 
L 1089.638149 285.803984 
L 1091.467991 160.606405 
L 1093.297832 261.323285 
L 1095.127674 249.4449 
L 1096.957515 287.549753 
L 1098.787357 275.754188 
L 1100.617198 287.708937 
L 1102.44704 259.992433 
L 1104.276881 309.765941 
L 1106.106723 288.84617 
L 1107.936564 384.052395 
L 1109.766406 420.622165 
L 1111.596247 472.722599 
L 1113.426089 535.260642 
L 1115.25593 524.830856 
L 1117.085772 558.05919 
L 1118.915613 489.446814 
L 1120.745455 536.005468 
L 1120.745455 536.005468 
" clip-path="url(#pbd480035df)" style="fill: none; stroke: #da70d6; stroke-linecap: square"/>
   </g>
   <g id="line2d_18">
    <path d="M 207.654545 615.639728 
L 209.484387 610.116656 
L 211.314228 657.24896 
L 213.14407 688.617331 
L 214.973911 666.006257 
L 216.803753 690.577181 
L 218.633594 650.320552 
L 220.463436 658.116518 
L 222.293277 664.43079 
L 224.123119 667.467465 
L 227.782802 686.880454 
L 229.612643 662.345231 
L 231.442485 684.704855 
L 233.272326 670.175393 
L 235.102168 659.479877 
L 236.932009 680.436572 
L 238.761851 649.360841 
L 240.591692 594.407867 
L 242.421534 416.800307 
L 244.251375 356.128159 
L 246.081217 274.587278 
L 247.911058 247.471406 
L 249.7409 232.557153 
L 251.570741 231.06203 
L 253.400583 238.986259 
L 255.230424 239.711995 
L 257.060266 263.811255 
L 258.890107 240.005308 
L 260.719949 232.910366 
L 262.54979 231.314645 
L 264.379632 233.344648 
L 266.209473 233.61608 
L 268.039315 233.419261 
L 269.869156 235.577486 
L 271.698998 241.179438 
L 273.528839 257.758719 
L 275.358681 284.899645 
L 277.188522 261.99935 
L 279.018364 299.264003 
L 280.848206 264.897642 
L 282.678047 278.242759 
L 284.507889 241.416573 
L 286.33773 233.586979 
L 288.167572 232.829188 
L 291.827255 232.993732 
L 293.657096 236.084576 
L 295.486938 235.971616 
L 297.316779 272.355589 
L 299.146621 249.599434 
L 300.976462 236.509722 
L 302.806304 234.279729 
L 304.636145 261.334499 
L 306.465987 279.912383 
L 308.295828 374.141406 
L 310.12567 290.075604 
L 311.955511 478.76362 
L 313.785353 458.347356 
L 315.615194 416.234466 
L 317.445036 319.320463 
L 319.274877 319.997732 
L 321.104719 391.184945 
L 322.93456 537.309161 
L 324.764402 514.798948 
L 326.594243 506.955596 
L 328.424085 438.069981 
L 330.253926 513.850273 
L 332.083768 489.981529 
L 333.913609 522.983204 
L 335.743451 477.290186 
L 337.573292 492.565774 
L 339.403134 473.735822 
L 341.232975 523.56246 
L 343.062817 442.87782 
L 344.892658 373.728787 
L 346.7225 445.916998 
L 348.552341 430.065176 
L 350.382183 529.976756 
L 352.212024 532.766655 
L 354.041866 503.780675 
L 355.871707 490.860212 
L 357.701549 515.382156 
L 359.53139 533.406453 
L 361.361232 522.349998 
L 363.191073 530.164685 
L 365.020915 468.207882 
L 366.850756 461.26534 
L 368.680598 450.273051 
L 370.510439 329.579905 
L 372.340281 323.127277 
L 374.170122 253.861181 
L 375.999964 239.409272 
L 377.829805 233.650816 
L 379.659647 233.261391 
L 381.489488 236.361862 
L 383.31933 349.691423 
L 385.149171 369.67149 
L 386.979013 302.122964 
L 388.808854 299.644129 
L 390.638696 276.178513 
L 392.468537 250.168831 
L 394.298379 234.077932 
L 396.12822 236.148304 
L 399.787903 235.999131 
L 401.617745 266.80998 
L 403.447586 246.18251 
L 405.277428 245.427837 
L 407.107269 284.409294 
L 408.937111 293.872928 
L 410.766952 375.196176 
L 412.596794 516.91155 
L 414.426635 545.176745 
L 416.256477 509.42524 
L 418.086318 551.953539 
L 419.91616 584.560373 
L 421.746001 608.831275 
L 423.575843 578.453956 
L 425.405684 589.405178 
L 427.235526 521.767801 
L 429.065367 438.297652 
L 430.895209 544.587273 
L 432.72505 517.564942 
L 434.554892 564.371028 
L 436.384733 537.340614 
L 438.214575 551.451112 
L 440.044416 544.849516 
L 441.874258 543.68258 
L 443.704099 547.161468 
L 445.533941 539.522771 
L 447.363782 519.249212 
L 449.193624 429.349396 
L 451.023465 461.242584 
L 452.853307 451.993247 
L 454.683148 520.926411 
L 456.51299 565.198852 
L 458.342831 529.481823 
L 460.172673 552.477505 
L 462.002514 539.913756 
L 463.832356 533.122138 
L 465.662197 564.450142 
L 467.492039 519.106999 
L 469.32188 542.487375 
L 471.151722 519.023866 
L 472.981563 539.359403 
L 474.811405 570.552948 
L 476.641246 565.955795 
L 478.471088 567.278961 
L 480.300929 604.404123 
L 482.130771 580.023721 
L 483.960612 606.122267 
L 485.790454 600.453728 
L 487.620295 585.772713 
L 489.450137 614.904707 
L 491.279978 582.016689 
L 493.10982 602.182294 
L 494.939661 591.180678 
L 496.769503 563.878079 
L 498.599344 541.346901 
L 500.429186 548.518358 
L 502.259027 553.57925 
L 504.088869 544.531108 
L 505.91871 557.391262 
L 507.748552 542.836417 
L 509.578393 530.007061 
L 511.408235 536.626613 
L 513.238076 561.656605 
L 515.067918 579.040173 
L 516.897759 573.761388 
L 520.557442 637.332518 
L 522.387284 632.013554 
L 524.217125 619.647355 
L 526.046967 541.450015 
L 527.876808 566.792179 
L 529.70665 552.999433 
L 531.536491 496.329675 
L 533.366333 577.43916 
L 535.196174 526.661714 
L 537.026016 564.322083 
L 538.855857 631.531572 
L 540.685699 657.467133 
L 542.51554 631.061467 
L 544.345382 620.508123 
L 546.175223 656.366003 
L 548.005065 649.387686 
L 549.834906 667.092686 
L 551.664748 649.304621 
L 553.494589 650.673553 
L 555.324431 652.605761 
L 557.154272 656.350625 
L 558.984114 667.810599 
L 560.813955 690.367333 
L 562.643797 687.906259 
L 564.473638 649.109799 
L 566.30348 620.050812 
L 568.133321 613.051899 
L 569.963163 675.896104 
L 571.793004 665.51767 
L 573.622846 689.851695 
L 575.452687 686.075551 
L 577.282529 668.609143 
L 579.11237 708.738585 
L 580.942212 675.993727 
L 582.772053 658.574937 
L 584.601895 691.417035 
L 586.431736 686.891545 
L 588.261578 610.401683 
L 590.091419 642.377328 
L 591.921261 534.600057 
L 593.751102 370.656761 
L 595.580944 302.071954 
L 597.410785 260.851751 
L 599.240627 254.836741 
L 601.070468 236.45234 
L 602.90031 234.283339 
L 604.730151 233.896813 
L 606.559993 231.863364 
L 608.389834 231.0326 
L 610.219676 254.387636 
L 612.049517 291.771785 
L 613.879359 302.013587 
L 615.7092 262.730994 
L 617.539042 284.23917 
L 619.368883 394.033376 
L 621.198725 290.317798 
L 623.028566 274.075046 
L 624.858408 238.620301 
L 626.688249 265.524476 
L 628.518091 246.551641 
L 630.347932 292.819881 
L 632.177774 270.152618 
L 634.007615 272.608313 
L 635.837457 240.686516 
L 637.667298 234.142645 
L 639.49714 289.310756 
L 641.326981 251.800381 
L 643.156823 245.750362 
L 644.986664 236.554359 
L 646.816506 236.127463 
L 648.646347 244.12636 
L 650.476189 243.964989 
L 652.30603 238.860663 
L 654.135872 235.794271 
L 655.965713 271.659119 
L 659.625396 429.65056 
L 661.455238 350.815254 
L 663.285079 304.755238 
L 665.114921 297.501659 
L 666.944762 265.411297 
L 668.774604 261.838635 
L 670.604445 284.473351 
L 672.434287 285.946866 
L 674.264128 278.496578 
L 676.09397 375.736552 
L 677.923811 338.45218 
L 679.753653 391.266288 
L 681.583494 371.72485 
L 683.413336 367.979193 
L 685.243177 440.798969 
L 687.073019 500.153557 
L 688.90286 524.920978 
L 690.732702 540.641392 
L 692.562543 531.49499 
L 694.392385 560.544042 
L 696.222226 487.75096 
L 698.052068 483.436563 
L 699.881909 491.261562 
L 701.711751 552.131404 
L 703.541592 527.141522 
L 705.371434 540.019016 
L 707.201275 570.723209 
L 709.031117 537.633778 
L 710.860958 540.072064 
L 712.6908 553.922562 
L 714.520641 520.70071 
L 716.350483 530.999921 
L 718.180324 527.94823 
L 720.010166 487.702248 
L 721.840007 565.553938 
L 723.669849 555.80495 
L 725.49969 523.330263 
L 727.329532 425.719653 
L 729.159373 449.691319 
L 730.989215 459.284187 
L 732.819056 428.670158 
L 734.648898 596.869552 
L 736.478739 552.040762 
L 738.308581 584.561139 
L 740.138422 621.598435 
L 741.968264 594.548575 
L 743.798105 574.461892 
L 745.627947 562.428564 
L 747.457788 567.66613 
L 749.28763 602.965617 
L 751.117471 631.519825 
L 752.947313 632.835353 
L 754.777154 645.228042 
L 756.606996 674.656892 
L 758.436837 598.016905 
L 760.266679 627.917029 
L 762.09652 635.723689 
L 763.926362 621.292417 
L 765.756203 558.759175 
L 767.586045 442.098395 
L 769.415886 368.65225 
L 771.245728 323.302543 
L 773.075569 268.141652 
L 774.905411 235.588481 
L 776.735252 231.424706 
L 778.565094 229.029512 
L 780.394935 229.118403 
L 782.224777 228.892318 
L 784.054618 228.876783 
L 785.88446 229.398752 
L 787.714301 230.080233 
L 789.544143 230.1985 
L 791.373984 248.099115 
L 793.203826 239.360587 
L 795.033667 244.702594 
L 796.863509 235.755596 
L 798.69335 232.158538 
L 800.523192 257.921349 
L 802.353033 249.441892 
L 804.182875 237.811254 
L 806.012716 233.446339 
L 807.842558 249.01691 
L 809.672399 289.07592 
L 811.502241 249.113186 
L 813.332082 244.976106 
L 815.161924 234.122733 
L 816.991765 232.982682 
L 818.821607 232.666394 
L 820.651448 236.694671 
L 822.48129 235.794052 
L 824.311131 235.374431 
L 826.140973 271.231894 
L 827.970814 246.956821 
L 829.800656 272.060908 
L 831.630497 248.95072 
L 833.460339 315.525026 
L 835.29018 280.112648 
L 837.120022 308.398849 
L 838.949863 261.401454 
L 840.779705 304.742164 
L 842.609546 284.37609 
L 844.439388 277.179894 
L 846.269229 253.627055 
L 848.099071 359.214764 
L 849.928912 356.147934 
L 851.758754 391.677458 
L 853.588595 493.149968 
L 855.418437 514.63774 
L 857.248278 471.597017 
L 859.07812 484.88869 
L 860.907961 459.804324 
L 862.737803 494.68609 
L 864.567644 412.874761 
L 866.397486 465.31982 
L 868.227327 540.20149 
L 870.057169 503.346503 
L 871.88701 530.705459 
L 873.716852 541.155826 
L 875.546693 513.653482 
L 877.376535 542.597286 
L 879.206376 513.61571 
L 881.036218 532.486552 
L 882.866059 547.556213 
L 884.695901 527.571072 
L 886.525742 471.691434 
L 888.355584 398.473206 
L 890.185425 461.831044 
L 892.015267 501.227828 
L 893.845108 544.398906 
L 895.67495 450.754705 
L 897.504791 568.126177 
L 899.334633 544.773781 
L 901.164474 527.084221 
L 902.994316 488.188004 
L 904.824157 557.62134 
L 906.653999 523.287362 
L 908.48384 507.61577 
L 910.313682 563.637457 
L 912.143523 562.620145 
L 913.973365 572.90635 
L 915.803206 550.339657 
L 917.633048 559.171206 
L 919.462889 477.476639 
L 921.292731 520.39089 
L 923.122572 583.430306 
L 924.952414 535.772368 
L 926.782255 579.632982 
L 928.612097 620.398773 
L 930.441938 550.802001 
L 932.27178 624.559197 
L 934.101621 598.315211 
L 935.931463 552.408115 
L 937.761304 592.10836 
L 941.420987 436.663913 
L 943.250829 450.375837 
L 945.08067 451.054966 
L 946.910512 441.196983 
L 948.740353 446.567818 
L 950.570195 437.732441 
L 954.229878 263.910649 
L 956.059719 233.608258 
L 957.889561 231.371864 
L 959.719402 240.012857 
L 961.549244 233.164841 
L 963.379085 231.742308 
L 965.208927 231.225371 
L 967.038768 232.963591 
L 968.86861 233.168506 
L 970.698451 276.333157 
L 972.528293 330.950964 
L 974.358134 260.911869 
L 976.187976 236.971957 
L 978.017817 231.440351 
L 979.847659 297.686334 
L 981.6775 253.328326 
L 983.507342 334.07813 
L 985.337183 278.656418 
L 987.167025 299.371794 
L 988.996866 278.738362 
L 990.826708 297.49515 
L 992.656549 294.317384 
L 994.486391 272.877011 
L 996.316232 242.469428 
L 999.975915 237.01271 
L 1001.805757 236.042565 
L 1003.635598 245.097545 
L 1005.46544 238.327698 
L 1007.295281 268.786155 
L 1009.125123 276.321068 
L 1010.954964 257.527876 
L 1012.784806 248.9755 
L 1014.614647 256.817183 
L 1016.444489 244.940659 
L 1018.27433 277.234869 
L 1020.104172 288.741634 
L 1021.934013 277.045764 
L 1023.763855 279.777377 
L 1025.593696 277.930737 
L 1027.423538 434.097911 
L 1029.253379 378.224276 
L 1031.083221 379.614699 
L 1032.913062 335.180627 
L 1034.742904 423.531698 
L 1036.572745 331.457999 
L 1038.402587 344.662176 
L 1040.232428 308.889036 
L 1042.06227 332.993274 
L 1043.892111 413.787058 
L 1045.721953 383.827487 
L 1047.551794 446.450099 
L 1049.381636 393.505772 
L 1051.211478 444.243026 
L 1053.041319 434.070833 
L 1054.871161 456.408324 
L 1056.701002 400.797998 
L 1060.360685 508.599619 
L 1062.190527 399.441026 
L 1064.020368 301.722598 
L 1065.85021 256.967833 
L 1067.680051 234.636825 
L 1069.509893 241.857528 
L 1071.339734 244.831418 
L 1073.169576 236.028178 
L 1074.999417 233.713997 
L 1076.829259 232.926394 
L 1078.6591 240.282102 
L 1080.488942 237.128186 
L 1082.318783 236.922506 
L 1084.148625 238.373265 
L 1085.978466 245.700802 
L 1087.808308 281.224472 
L 1089.638149 286.045932 
L 1091.467991 250.035138 
L 1093.297832 237.779144 
L 1095.127674 234.163541 
L 1096.957515 268.933468 
L 1098.787357 252.558993 
L 1100.617198 295.410883 
L 1102.44704 260.310253 
L 1104.276881 304.96431 
L 1106.106723 295.645474 
L 1107.936564 382.629671 
L 1109.766406 363.685254 
L 1111.596247 474.620714 
L 1113.426089 480.548938 
L 1115.25593 534.02545 
L 1117.085772 492.091123 
L 1118.915613 509.917233 
L 1120.745455 455.024465 
L 1120.745455 455.024465 
" clip-path="url(#pbd480035df)" style="fill: none; stroke: #8fbc8f; stroke-linecap: square"/>
   </g>
   <g id="patch_3">
    <path d="M 162 768.96 
L 162 103.68 
" style="fill: none; stroke: #000000; stroke-width: 0.8; stroke-linejoin: miter; stroke-linecap: square"/>
   </g>
   <g id="patch_4">
    <path d="M 1166.4 768.96 
L 1166.4 103.68 
" style="fill: none; stroke: #000000; stroke-width: 0.8; stroke-linejoin: miter; stroke-linecap: square"/>
   </g>
   <g id="patch_5">
    <path d="M 162 768.96 
L 1166.4 768.96 
" style="fill: none; stroke: #000000; stroke-width: 0.8; stroke-linejoin: miter; stroke-linecap: square"/>
   </g>
   <g id="patch_6">
    <path d="M 162 103.68 
L 1166.4 103.68 
" style="fill: none; stroke: #000000; stroke-width: 0.8; stroke-linejoin: miter; stroke-linecap: square"/>
   </g>
   <g id="text_15">
    <!-- Function 1 -->
    <g transform="translate(632.957813 97.68) scale(0.12 -0.12)">
     <defs>
      <path id="DejaVuSans-46" d="M 628 4666 
L 3309 4666 
L 3309 4134 
L 1259 4134 
L 1259 2759 
L 3109 2759 
L 3109 2228 
L 1259 2228 
L 1259 0 
L 628 0 
L 628 4666 
z
" transform="scale(0.015625)"/>
      <path id="DejaVuSans-75" d="M 544 1381 
L 544 3500 
L 1119 3500 
L 1119 1403 
Q 1119 906 1312 657 
Q 1506 409 1894 409 
Q 2359 409 2629 706 
Q 2900 1003 2900 1516 
L 2900 3500 
L 3475 3500 
L 3475 0 
L 2900 0 
L 2900 538 
Q 2691 219 2414 64 
Q 2138 -91 1772 -91 
Q 1169 -91 856 284 
Q 544 659 544 1381 
z
M 1991 3584 
L 1991 3584 
z
" transform="scale(0.015625)"/>
      <path id="DejaVuSans-6e" d="M 3513 2113 
L 3513 0 
L 2938 0 
L 2938 2094 
Q 2938 2591 2744 2837 
Q 2550 3084 2163 3084 
Q 1697 3084 1428 2787 
Q 1159 2491 1159 1978 
L 1159 0 
L 581 0 
L 581 3500 
L 1159 3500 
L 1159 2956 
Q 1366 3272 1645 3428 
Q 1925 3584 2291 3584 
Q 2894 3584 3203 3211 
Q 3513 2838 3513 2113 
z
" transform="scale(0.015625)"/>
      <path id="DejaVuSans-63" d="M 3122 3366 
L 3122 2828 
Q 2878 2963 2633 3030 
Q 2388 3097 2138 3097 
Q 1578 3097 1268 2742 
Q 959 2388 959 1747 
Q 959 1106 1268 751 
Q 1578 397 2138 397 
Q 2388 397 2633 464 
Q 2878 531 3122 666 
L 3122 134 
Q 2881 22 2623 -34 
Q 2366 -91 2075 -91 
Q 1284 -91 818 406 
Q 353 903 353 1747 
Q 353 2603 823 3093 
Q 1294 3584 2113 3584 
Q 2378 3584 2631 3529 
Q 2884 3475 3122 3366 
z
" transform="scale(0.015625)"/>
      <path id="DejaVuSans-74" d="M 1172 4494 
L 1172 3500 
L 2356 3500 
L 2356 3053 
L 1172 3053 
L 1172 1153 
Q 1172 725 1289 603 
Q 1406 481 1766 481 
L 2356 481 
L 2356 0 
L 1766 0 
Q 1100 0 847 248 
Q 594 497 594 1153 
L 594 3053 
L 172 3053 
L 172 3500 
L 594 3500 
L 594 4494 
L 1172 4494 
z
" transform="scale(0.015625)"/>
      <path id="DejaVuSans-69" d="M 603 3500 
L 1178 3500 
L 1178 0 
L 603 0 
L 603 3500 
z
M 603 4863 
L 1178 4863 
L 1178 4134 
L 603 4134 
L 603 4863 
z
" transform="scale(0.015625)"/>
      <path id="DejaVuSans-6f" d="M 1959 3097 
Q 1497 3097 1228 2736 
Q 959 2375 959 1747 
Q 959 1119 1226 758 
Q 1494 397 1959 397 
Q 2419 397 2687 759 
Q 2956 1122 2956 1747 
Q 2956 2369 2687 2733 
Q 2419 3097 1959 3097 
z
M 1959 3584 
Q 2709 3584 3137 3096 
Q 3566 2609 3566 1747 
Q 3566 888 3137 398 
Q 2709 -91 1959 -91 
Q 1206 -91 779 398 
Q 353 888 353 1747 
Q 353 2609 779 3096 
Q 1206 3584 1959 3584 
z
" transform="scale(0.015625)"/>
      <path id="DejaVuSans-20" transform="scale(0.015625)"/>
     </defs>
     <use xlink:href="#DejaVuSans-46"/>
     <use xlink:href="#DejaVuSans-75" x="52.019531"/>
     <use xlink:href="#DejaVuSans-6e" x="115.398438"/>
     <use xlink:href="#DejaVuSans-63" x="178.777344"/>
     <use xlink:href="#DejaVuSans-74" x="233.757812"/>
     <use xlink:href="#DejaVuSans-69" x="272.966797"/>
     <use xlink:href="#DejaVuSans-6f" x="300.75"/>
     <use xlink:href="#DejaVuSans-6e" x="361.931641"/>
     <use xlink:href="#DejaVuSans-20" x="425.310547"/>
     <use xlink:href="#DejaVuSans-31" x="457.097656"/>
    </g>
   </g>
   <g id="legend_1">
    <g id="patch_7">
     <path d="M 169 170.3925 
L 316.49375 170.3925 
Q 318.49375 170.3925 318.49375 168.3925 
L 318.49375 110.68 
Q 318.49375 108.68 316.49375 108.68 
L 169 108.68 
Q 167 108.68 167 110.68 
L 167 168.3925 
Q 167 170.3925 169 170.3925 
z
" style="fill: #ffffff; opacity: 0.8; stroke: #cccccc; stroke-linejoin: miter"/>
    </g>
    <g id="line2d_19">
     <path d="M 171 116.778437 
L 181 116.778437 
L 191 116.778437 
" style="fill: none; stroke: #4169e1; stroke-linecap: square"/>
    </g>
    <g id="text_16">
     <!-- Truth -->
     <g transform="translate(199 120.278437) scale(0.1 -0.1)">
      <defs>
       <path id="DejaVuSans-54" d="M -19 4666 
L 3928 4666 
L 3928 4134 
L 2272 4134 
L 2272 0 
L 1638 0 
L 1638 4134 
L -19 4134 
L -19 4666 
z
" transform="scale(0.015625)"/>
       <path id="DejaVuSans-72" d="M 2631 2963 
Q 2534 3019 2420 3045 
Q 2306 3072 2169 3072 
Q 1681 3072 1420 2755 
Q 1159 2438 1159 1844 
L 1159 0 
L 581 0 
L 581 3500 
L 1159 3500 
L 1159 2956 
Q 1341 3275 1631 3429 
Q 1922 3584 2338 3584 
Q 2397 3584 2469 3576 
Q 2541 3569 2628 3553 
L 2631 2963 
z
" transform="scale(0.015625)"/>
       <path id="DejaVuSans-68" d="M 3513 2113 
L 3513 0 
L 2938 0 
L 2938 2094 
Q 2938 2591 2744 2837 
Q 2550 3084 2163 3084 
Q 1697 3084 1428 2787 
Q 1159 2491 1159 1978 
L 1159 0 
L 581 0 
L 581 4863 
L 1159 4863 
L 1159 2956 
Q 1366 3272 1645 3428 
Q 1925 3584 2291 3584 
Q 2894 3584 3203 3211 
Q 3513 2838 3513 2113 
z
" transform="scale(0.015625)"/>
      </defs>
      <use xlink:href="#DejaVuSans-54"/>
      <use xlink:href="#DejaVuSans-72" x="46.333984"/>
      <use xlink:href="#DejaVuSans-75" x="87.447266"/>
      <use xlink:href="#DejaVuSans-74" x="150.826172"/>
      <use xlink:href="#DejaVuSans-68" x="190.035156"/>
     </g>
    </g>
    <g id="line2d_20">
     <path d="M 171 131.456562 
L 181 131.456562 
L 191 131.456562 
" style="fill: none; stroke: #ff6347; stroke-linecap: square"/>
    </g>
    <g id="text_17">
     <!-- Gossip predictions -->
     <g transform="translate(199 134.956562) scale(0.1 -0.1)">
      <defs>
       <path id="DejaVuSans-47" d="M 3809 666 
L 3809 1919 
L 2778 1919 
L 2778 2438 
L 4434 2438 
L 4434 434 
Q 4069 175 3628 42 
Q 3188 -91 2688 -91 
Q 1594 -91 976 548 
Q 359 1188 359 2328 
Q 359 3472 976 4111 
Q 1594 4750 2688 4750 
Q 3144 4750 3555 4637 
Q 3966 4525 4313 4306 
L 4313 3634 
Q 3963 3931 3569 4081 
Q 3175 4231 2741 4231 
Q 1884 4231 1454 3753 
Q 1025 3275 1025 2328 
Q 1025 1384 1454 906 
Q 1884 428 2741 428 
Q 3075 428 3337 486 
Q 3600 544 3809 666 
z
" transform="scale(0.015625)"/>
       <path id="DejaVuSans-73" d="M 2834 3397 
L 2834 2853 
Q 2591 2978 2328 3040 
Q 2066 3103 1784 3103 
Q 1356 3103 1142 2972 
Q 928 2841 928 2578 
Q 928 2378 1081 2264 
Q 1234 2150 1697 2047 
L 1894 2003 
Q 2506 1872 2764 1633 
Q 3022 1394 3022 966 
Q 3022 478 2636 193 
Q 2250 -91 1575 -91 
Q 1294 -91 989 -36 
Q 684 19 347 128 
L 347 722 
Q 666 556 975 473 
Q 1284 391 1588 391 
Q 1994 391 2212 530 
Q 2431 669 2431 922 
Q 2431 1156 2273 1281 
Q 2116 1406 1581 1522 
L 1381 1569 
Q 847 1681 609 1914 
Q 372 2147 372 2553 
Q 372 3047 722 3315 
Q 1072 3584 1716 3584 
Q 2034 3584 2315 3537 
Q 2597 3491 2834 3397 
z
" transform="scale(0.015625)"/>
       <path id="DejaVuSans-70" d="M 1159 525 
L 1159 -1331 
L 581 -1331 
L 581 3500 
L 1159 3500 
L 1159 2969 
Q 1341 3281 1617 3432 
Q 1894 3584 2278 3584 
Q 2916 3584 3314 3078 
Q 3713 2572 3713 1747 
Q 3713 922 3314 415 
Q 2916 -91 2278 -91 
Q 1894 -91 1617 61 
Q 1341 213 1159 525 
z
M 3116 1747 
Q 3116 2381 2855 2742 
Q 2594 3103 2138 3103 
Q 1681 3103 1420 2742 
Q 1159 2381 1159 1747 
Q 1159 1113 1420 752 
Q 1681 391 2138 391 
Q 2594 391 2855 752 
Q 3116 1113 3116 1747 
z
" transform="scale(0.015625)"/>
       <path id="DejaVuSans-65" d="M 3597 1894 
L 3597 1613 
L 953 1613 
Q 991 1019 1311 708 
Q 1631 397 2203 397 
Q 2534 397 2845 478 
Q 3156 559 3463 722 
L 3463 178 
Q 3153 47 2828 -22 
Q 2503 -91 2169 -91 
Q 1331 -91 842 396 
Q 353 884 353 1716 
Q 353 2575 817 3079 
Q 1281 3584 2069 3584 
Q 2775 3584 3186 3129 
Q 3597 2675 3597 1894 
z
M 3022 2063 
Q 3016 2534 2758 2815 
Q 2500 3097 2075 3097 
Q 1594 3097 1305 2825 
Q 1016 2553 972 2059 
L 3022 2063 
z
" transform="scale(0.015625)"/>
       <path id="DejaVuSans-64" d="M 2906 2969 
L 2906 4863 
L 3481 4863 
L 3481 0 
L 2906 0 
L 2906 525 
Q 2725 213 2448 61 
Q 2172 -91 1784 -91 
Q 1150 -91 751 415 
Q 353 922 353 1747 
Q 353 2572 751 3078 
Q 1150 3584 1784 3584 
Q 2172 3584 2448 3432 
Q 2725 3281 2906 2969 
z
M 947 1747 
Q 947 1113 1208 752 
Q 1469 391 1925 391 
Q 2381 391 2643 752 
Q 2906 1113 2906 1747 
Q 2906 2381 2643 2742 
Q 2381 3103 1925 3103 
Q 1469 3103 1208 2742 
Q 947 2381 947 1747 
z
" transform="scale(0.015625)"/>
      </defs>
      <use xlink:href="#DejaVuSans-47"/>
      <use xlink:href="#DejaVuSans-6f" x="77.490234"/>
      <use xlink:href="#DejaVuSans-73" x="138.671875"/>
      <use xlink:href="#DejaVuSans-73" x="190.771484"/>
      <use xlink:href="#DejaVuSans-69" x="242.871094"/>
      <use xlink:href="#DejaVuSans-70" x="270.654297"/>
      <use xlink:href="#DejaVuSans-20" x="334.130859"/>
      <use xlink:href="#DejaVuSans-70" x="365.917969"/>
      <use xlink:href="#DejaVuSans-72" x="429.394531"/>
      <use xlink:href="#DejaVuSans-65" x="468.257812"/>
      <use xlink:href="#DejaVuSans-64" x="529.78125"/>
      <use xlink:href="#DejaVuSans-69" x="593.257812"/>
      <use xlink:href="#DejaVuSans-63" x="621.041016"/>
      <use xlink:href="#DejaVuSans-74" x="676.021484"/>
      <use xlink:href="#DejaVuSans-69" x="715.230469"/>
      <use xlink:href="#DejaVuSans-6f" x="743.013672"/>
      <use xlink:href="#DejaVuSans-6e" x="804.195312"/>
      <use xlink:href="#DejaVuSans-73" x="867.574219"/>
     </g>
    </g>
    <g id="line2d_21">
     <path d="M 171 146.134687 
L 181 146.134687 
L 191 146.134687 
" style="fill: none; stroke: #da70d6; stroke-linecap: square"/>
    </g>
    <g id="text_18">
     <!-- Centralized predictions -->
     <g transform="translate(199 149.634687) scale(0.1 -0.1)">
      <defs>
       <path id="DejaVuSans-43" d="M 4122 4306 
L 4122 3641 
Q 3803 3938 3442 4084 
Q 3081 4231 2675 4231 
Q 1875 4231 1450 3742 
Q 1025 3253 1025 2328 
Q 1025 1406 1450 917 
Q 1875 428 2675 428 
Q 3081 428 3442 575 
Q 3803 722 4122 1019 
L 4122 359 
Q 3791 134 3420 21 
Q 3050 -91 2638 -91 
Q 1578 -91 968 557 
Q 359 1206 359 2328 
Q 359 3453 968 4101 
Q 1578 4750 2638 4750 
Q 3056 4750 3426 4639 
Q 3797 4528 4122 4306 
z
" transform="scale(0.015625)"/>
       <path id="DejaVuSans-61" d="M 2194 1759 
Q 1497 1759 1228 1600 
Q 959 1441 959 1056 
Q 959 750 1161 570 
Q 1363 391 1709 391 
Q 2188 391 2477 730 
Q 2766 1069 2766 1631 
L 2766 1759 
L 2194 1759 
z
M 3341 1997 
L 3341 0 
L 2766 0 
L 2766 531 
Q 2569 213 2275 61 
Q 1981 -91 1556 -91 
Q 1019 -91 701 211 
Q 384 513 384 1019 
Q 384 1609 779 1909 
Q 1175 2209 1959 2209 
L 2766 2209 
L 2766 2266 
Q 2766 2663 2505 2880 
Q 2244 3097 1772 3097 
Q 1472 3097 1187 3025 
Q 903 2953 641 2809 
L 641 3341 
Q 956 3463 1253 3523 
Q 1550 3584 1831 3584 
Q 2591 3584 2966 3190 
Q 3341 2797 3341 1997 
z
" transform="scale(0.015625)"/>
       <path id="DejaVuSans-6c" d="M 603 4863 
L 1178 4863 
L 1178 0 
L 603 0 
L 603 4863 
z
" transform="scale(0.015625)"/>
       <path id="DejaVuSans-7a" d="M 353 3500 
L 3084 3500 
L 3084 2975 
L 922 459 
L 3084 459 
L 3084 0 
L 275 0 
L 275 525 
L 2438 3041 
L 353 3041 
L 353 3500 
z
" transform="scale(0.015625)"/>
      </defs>
      <use xlink:href="#DejaVuSans-43"/>
      <use xlink:href="#DejaVuSans-65" x="69.824219"/>
      <use xlink:href="#DejaVuSans-6e" x="131.347656"/>
      <use xlink:href="#DejaVuSans-74" x="194.726562"/>
      <use xlink:href="#DejaVuSans-72" x="233.935547"/>
      <use xlink:href="#DejaVuSans-61" x="275.048828"/>
      <use xlink:href="#DejaVuSans-6c" x="336.328125"/>
      <use xlink:href="#DejaVuSans-69" x="364.111328"/>
      <use xlink:href="#DejaVuSans-7a" x="391.894531"/>
      <use xlink:href="#DejaVuSans-65" x="444.384766"/>
      <use xlink:href="#DejaVuSans-64" x="505.908203"/>
      <use xlink:href="#DejaVuSans-20" x="569.384766"/>
      <use xlink:href="#DejaVuSans-70" x="601.171875"/>
      <use xlink:href="#DejaVuSans-72" x="664.648438"/>
      <use xlink:href="#DejaVuSans-65" x="703.511719"/>
      <use xlink:href="#DejaVuSans-64" x="765.035156"/>
      <use xlink:href="#DejaVuSans-69" x="828.511719"/>
      <use xlink:href="#DejaVuSans-63" x="856.294922"/>
      <use xlink:href="#DejaVuSans-74" x="911.275391"/>
      <use xlink:href="#DejaVuSans-69" x="950.484375"/>
      <use xlink:href="#DejaVuSans-6f" x="978.267578"/>
      <use xlink:href="#DejaVuSans-6e" x="1039.449219"/>
      <use xlink:href="#DejaVuSans-73" x="1102.828125"/>
     </g>
    </g>
    <g id="line2d_22">
     <path d="M 171 160.812812 
L 181 160.812812 
L 191 160.812812 
" style="fill: none; stroke: #8fbc8f; stroke-linecap: square"/>
    </g>
    <g id="text_19">
     <!-- Single predictions -->
     <g transform="translate(199 164.312812) scale(0.1 -0.1)">
      <defs>
       <path id="DejaVuSans-53" d="M 3425 4513 
L 3425 3897 
Q 3066 4069 2747 4153 
Q 2428 4238 2131 4238 
Q 1616 4238 1336 4038 
Q 1056 3838 1056 3469 
Q 1056 3159 1242 3001 
Q 1428 2844 1947 2747 
L 2328 2669 
Q 3034 2534 3370 2195 
Q 3706 1856 3706 1288 
Q 3706 609 3251 259 
Q 2797 -91 1919 -91 
Q 1588 -91 1214 -16 
Q 841 59 441 206 
L 441 856 
Q 825 641 1194 531 
Q 1563 422 1919 422 
Q 2459 422 2753 634 
Q 3047 847 3047 1241 
Q 3047 1584 2836 1778 
Q 2625 1972 2144 2069 
L 1759 2144 
Q 1053 2284 737 2584 
Q 422 2884 422 3419 
Q 422 4038 858 4394 
Q 1294 4750 2059 4750 
Q 2388 4750 2728 4690 
Q 3069 4631 3425 4513 
z
" transform="scale(0.015625)"/>
       <path id="DejaVuSans-67" d="M 2906 1791 
Q 2906 2416 2648 2759 
Q 2391 3103 1925 3103 
Q 1463 3103 1205 2759 
Q 947 2416 947 1791 
Q 947 1169 1205 825 
Q 1463 481 1925 481 
Q 2391 481 2648 825 
Q 2906 1169 2906 1791 
z
M 3481 434 
Q 3481 -459 3084 -895 
Q 2688 -1331 1869 -1331 
Q 1566 -1331 1297 -1286 
Q 1028 -1241 775 -1147 
L 775 -588 
Q 1028 -725 1275 -790 
Q 1522 -856 1778 -856 
Q 2344 -856 2625 -561 
Q 2906 -266 2906 331 
L 2906 616 
Q 2728 306 2450 153 
Q 2172 0 1784 0 
Q 1141 0 747 490 
Q 353 981 353 1791 
Q 353 2603 747 3093 
Q 1141 3584 1784 3584 
Q 2172 3584 2450 3431 
Q 2728 3278 2906 2969 
L 2906 3500 
L 3481 3500 
L 3481 434 
z
" transform="scale(0.015625)"/>
      </defs>
      <use xlink:href="#DejaVuSans-53"/>
      <use xlink:href="#DejaVuSans-69" x="63.476562"/>
      <use xlink:href="#DejaVuSans-6e" x="91.259766"/>
      <use xlink:href="#DejaVuSans-67" x="154.638672"/>
      <use xlink:href="#DejaVuSans-6c" x="218.115234"/>
      <use xlink:href="#DejaVuSans-65" x="245.898438"/>
      <use xlink:href="#DejaVuSans-20" x="307.421875"/>
      <use xlink:href="#DejaVuSans-70" x="339.208984"/>
      <use xlink:href="#DejaVuSans-72" x="402.685547"/>
      <use xlink:href="#DejaVuSans-65" x="441.548828"/>
      <use xlink:href="#DejaVuSans-64" x="503.072266"/>
      <use xlink:href="#DejaVuSans-69" x="566.548828"/>
      <use xlink:href="#DejaVuSans-63" x="594.332031"/>
      <use xlink:href="#DejaVuSans-74" x="649.3125"/>
      <use xlink:href="#DejaVuSans-69" x="688.521484"/>
      <use xlink:href="#DejaVuSans-6f" x="716.304688"/>
      <use xlink:href="#DejaVuSans-6e" x="777.486328"/>
      <use xlink:href="#DejaVuSans-73" x="840.865234"/>
     </g>
    </g>
   </g>
  </g>
 </g>
 <defs>
  <clipPath id="pbd480035df">
   <rect x="162" y="103.68" width="1004.4" height="665.28"/>
  </clipPath>
 </defs>
</svg>
