<?xml version="1.0" encoding="utf-8" standalone="no"?>
<!DOCTYPE svg PUBLIC "-//W3C//DTD SVG 1.1//EN"
  "http://www.w3.org/Graphics/SVG/1.1/DTD/svg11.dtd">
<svg xmlns:xlink="http://www.w3.org/1999/xlink" width="1296pt" height="864pt" viewBox="0 0 1296 864" xmlns="http://www.w3.org/2000/svg" version="1.1">
 <metadata>
  <rdf:RDF xmlns:dc="http://purl.org/dc/elements/1.1/" xmlns:cc="http://creativecommons.org/ns#" xmlns:rdf="http://www.w3.org/1999/02/22-rdf-syntax-ns#">
   <cc:Work>
    <dc:type rdf:resource="http://purl.org/dc/dcmitype/StillImage"/>
    <dc:date>2023-12-24T17:11:12.487381</dc:date>
    <dc:format>image/svg+xml</dc:format>
    <dc:creator>
     <cc:Agent>
      <dc:title>Matplotlib v3.8.0, https://matplotlib.org/</dc:title>
     </cc:Agent>
    </dc:creator>
   </cc:Work>
  </rdf:RDF>
 </metadata>
 <defs>
  <style type="text/css">*{stroke-linejoin: round; stroke-linecap: butt}</style>
 </defs>
 <g id="figure_1">
  <g id="patch_1">
   <path d="M 0 864 
L 1296 864 
L 1296 0 
L 0 0 
z
" style="fill: #ffffff"/>
  </g>
  <g id="axes_1">
   <g id="patch_2">
    <path d="M 162 768.96 
L 1166.4 768.96 
L 1166.4 103.68 
L 162 103.68 
z
" style="fill: #ffffff"/>
   </g>
   <g id="matplotlib.axis_1">
    <g id="xtick_1">
     <g id="line2d_1">
      <defs>
       <path id="m7ebec22686" d="M 0 0 
L 0 3.5 
" style="stroke: #000000; stroke-width: 0.8"/>
      </defs>
      <g>
       <use xlink:href="#m7ebec22686" x="207.654545" y="768.96" style="stroke: #000000; stroke-width: 0.8"/>
      </g>
     </g>
     <g id="text_1">
      <!-- 0 -->
      <g transform="translate(204.473295 783.558437) scale(0.1 -0.1)">
       <defs>
        <path id="DejaVuSans-30" d="M 2034 4250 
Q 1547 4250 1301 3770 
Q 1056 3291 1056 2328 
Q 1056 1369 1301 889 
Q 1547 409 2034 409 
Q 2525 409 2770 889 
Q 3016 1369 3016 2328 
Q 3016 3291 2770 3770 
Q 2525 4250 2034 4250 
z
M 2034 4750 
Q 2819 4750 3233 4129 
Q 3647 3509 3647 2328 
Q 3647 1150 3233 529 
Q 2819 -91 2034 -91 
Q 1250 -91 836 529 
Q 422 1150 422 2328 
Q 422 3509 836 4129 
Q 1250 4750 2034 4750 
z
" transform="scale(0.015625)"/>
       </defs>
       <use xlink:href="#DejaVuSans-30"/>
      </g>
     </g>
    </g>
    <g id="xtick_2">
     <g id="line2d_2">
      <g>
       <use xlink:href="#m7ebec22686" x="390.638696" y="768.96" style="stroke: #000000; stroke-width: 0.8"/>
      </g>
     </g>
     <g id="text_2">
      <!-- 100 -->
      <g transform="translate(381.094946 783.558437) scale(0.1 -0.1)">
       <defs>
        <path id="DejaVuSans-31" d="M 794 531 
L 1825 531 
L 1825 4091 
L 703 3866 
L 703 4441 
L 1819 4666 
L 2450 4666 
L 2450 531 
L 3481 531 
L 3481 0 
L 794 0 
L 794 531 
z
" transform="scale(0.015625)"/>
       </defs>
       <use xlink:href="#DejaVuSans-31"/>
       <use xlink:href="#DejaVuSans-30" x="63.623047"/>
       <use xlink:href="#DejaVuSans-30" x="127.246094"/>
      </g>
     </g>
    </g>
    <g id="xtick_3">
     <g id="line2d_3">
      <g>
       <use xlink:href="#m7ebec22686" x="573.622846" y="768.96" style="stroke: #000000; stroke-width: 0.8"/>
      </g>
     </g>
     <g id="text_3">
      <!-- 200 -->
      <g transform="translate(564.079096 783.558437) scale(0.1 -0.1)">
       <defs>
        <path id="DejaVuSans-32" d="M 1228 531 
L 3431 531 
L 3431 0 
L 469 0 
L 469 531 
Q 828 903 1448 1529 
Q 2069 2156 2228 2338 
Q 2531 2678 2651 2914 
Q 2772 3150 2772 3378 
Q 2772 3750 2511 3984 
Q 2250 4219 1831 4219 
Q 1534 4219 1204 4116 
Q 875 4013 500 3803 
L 500 4441 
Q 881 4594 1212 4672 
Q 1544 4750 1819 4750 
Q 2544 4750 2975 4387 
Q 3406 4025 3406 3419 
Q 3406 3131 3298 2873 
Q 3191 2616 2906 2266 
Q 2828 2175 2409 1742 
Q 1991 1309 1228 531 
z
" transform="scale(0.015625)"/>
       </defs>
       <use xlink:href="#DejaVuSans-32"/>
       <use xlink:href="#DejaVuSans-30" x="63.623047"/>
       <use xlink:href="#DejaVuSans-30" x="127.246094"/>
      </g>
     </g>
    </g>
    <g id="xtick_4">
     <g id="line2d_4">
      <g>
       <use xlink:href="#m7ebec22686" x="756.606996" y="768.96" style="stroke: #000000; stroke-width: 0.8"/>
      </g>
     </g>
     <g id="text_4">
      <!-- 300 -->
      <g transform="translate(747.063246 783.558437) scale(0.1 -0.1)">
       <defs>
        <path id="DejaVuSans-33" d="M 2597 2516 
Q 3050 2419 3304 2112 
Q 3559 1806 3559 1356 
Q 3559 666 3084 287 
Q 2609 -91 1734 -91 
Q 1441 -91 1130 -33 
Q 819 25 488 141 
L 488 750 
Q 750 597 1062 519 
Q 1375 441 1716 441 
Q 2309 441 2620 675 
Q 2931 909 2931 1356 
Q 2931 1769 2642 2001 
Q 2353 2234 1838 2234 
L 1294 2234 
L 1294 2753 
L 1863 2753 
Q 2328 2753 2575 2939 
Q 2822 3125 2822 3475 
Q 2822 3834 2567 4026 
Q 2313 4219 1838 4219 
Q 1578 4219 1281 4162 
Q 984 4106 628 3988 
L 628 4550 
Q 988 4650 1302 4700 
Q 1616 4750 1894 4750 
Q 2613 4750 3031 4423 
Q 3450 4097 3450 3541 
Q 3450 3153 3228 2886 
Q 3006 2619 2597 2516 
z
" transform="scale(0.015625)"/>
       </defs>
       <use xlink:href="#DejaVuSans-33"/>
       <use xlink:href="#DejaVuSans-30" x="63.623047"/>
       <use xlink:href="#DejaVuSans-30" x="127.246094"/>
      </g>
     </g>
    </g>
    <g id="xtick_5">
     <g id="line2d_5">
      <g>
       <use xlink:href="#m7ebec22686" x="939.591146" y="768.96" style="stroke: #000000; stroke-width: 0.8"/>
      </g>
     </g>
     <g id="text_5">
      <!-- 400 -->
      <g transform="translate(930.047396 783.558437) scale(0.1 -0.1)">
       <defs>
        <path id="DejaVuSans-34" d="M 2419 4116 
L 825 1625 
L 2419 1625 
L 2419 4116 
z
M 2253 4666 
L 3047 4666 
L 3047 1625 
L 3713 1625 
L 3713 1100 
L 3047 1100 
L 3047 0 
L 2419 0 
L 2419 1100 
L 313 1100 
L 313 1709 
L 2253 4666 
z
" transform="scale(0.015625)"/>
       </defs>
       <use xlink:href="#DejaVuSans-34"/>
       <use xlink:href="#DejaVuSans-30" x="63.623047"/>
       <use xlink:href="#DejaVuSans-30" x="127.246094"/>
      </g>
     </g>
    </g>
    <g id="xtick_6">
     <g id="line2d_6">
      <g>
       <use xlink:href="#m7ebec22686" x="1122.575296" y="768.96" style="stroke: #000000; stroke-width: 0.8"/>
      </g>
     </g>
     <g id="text_6">
      <!-- 500 -->
      <g transform="translate(1113.031546 783.558437) scale(0.1 -0.1)">
       <defs>
        <path id="DejaVuSans-35" d="M 691 4666 
L 3169 4666 
L 3169 4134 
L 1269 4134 
L 1269 2991 
Q 1406 3038 1543 3061 
Q 1681 3084 1819 3084 
Q 2600 3084 3056 2656 
Q 3513 2228 3513 1497 
Q 3513 744 3044 326 
Q 2575 -91 1722 -91 
Q 1428 -91 1123 -41 
Q 819 9 494 109 
L 494 744 
Q 775 591 1075 516 
Q 1375 441 1709 441 
Q 2250 441 2565 725 
Q 2881 1009 2881 1497 
Q 2881 1984 2565 2268 
Q 2250 2553 1709 2553 
Q 1456 2553 1204 2497 
Q 953 2441 691 2322 
L 691 4666 
z
" transform="scale(0.015625)"/>
       </defs>
       <use xlink:href="#DejaVuSans-35"/>
       <use xlink:href="#DejaVuSans-30" x="63.623047"/>
       <use xlink:href="#DejaVuSans-30" x="127.246094"/>
      </g>
     </g>
    </g>
   </g>
   <g id="matplotlib.axis_2">
    <g id="ytick_1">
     <g id="line2d_7">
      <defs>
       <path id="m1550abd17a" d="M 0 0 
L -3.5 0 
" style="stroke: #000000; stroke-width: 0.8"/>
      </defs>
      <g>
       <use xlink:href="#m1550abd17a" x="162" y="738.72" style="stroke: #000000; stroke-width: 0.8"/>
      </g>
     </g>
     <g id="text_7">
      <!-- 0 -->
      <g transform="translate(148.6375 742.519219) scale(0.1 -0.1)">
       <use xlink:href="#DejaVuSans-30"/>
      </g>
     </g>
    </g>
    <g id="ytick_2">
     <g id="line2d_8">
      <g>
       <use xlink:href="#m1550abd17a" x="162" y="629.550325" style="stroke: #000000; stroke-width: 0.8"/>
      </g>
     </g>
     <g id="text_8">
      <!-- 50 -->
      <g transform="translate(142.275 633.349544) scale(0.1 -0.1)">
       <use xlink:href="#DejaVuSans-35"/>
       <use xlink:href="#DejaVuSans-30" x="63.623047"/>
      </g>
     </g>
    </g>
    <g id="ytick_3">
     <g id="line2d_9">
      <g>
       <use xlink:href="#m1550abd17a" x="162" y="520.38065" style="stroke: #000000; stroke-width: 0.8"/>
      </g>
     </g>
     <g id="text_9">
      <!-- 100 -->
      <g transform="translate(135.9125 524.179869) scale(0.1 -0.1)">
       <use xlink:href="#DejaVuSans-31"/>
       <use xlink:href="#DejaVuSans-30" x="63.623047"/>
       <use xlink:href="#DejaVuSans-30" x="127.246094"/>
      </g>
     </g>
    </g>
    <g id="ytick_4">
     <g id="line2d_10">
      <g>
       <use xlink:href="#m1550abd17a" x="162" y="411.210975" style="stroke: #000000; stroke-width: 0.8"/>
      </g>
     </g>
     <g id="text_10">
      <!-- 150 -->
      <g transform="translate(135.9125 415.010193) scale(0.1 -0.1)">
       <use xlink:href="#DejaVuSans-31"/>
       <use xlink:href="#DejaVuSans-35" x="63.623047"/>
       <use xlink:href="#DejaVuSans-30" x="127.246094"/>
      </g>
     </g>
    </g>
    <g id="ytick_5">
     <g id="line2d_11">
      <g>
       <use xlink:href="#m1550abd17a" x="162" y="302.0413" style="stroke: #000000; stroke-width: 0.8"/>
      </g>
     </g>
     <g id="text_11">
      <!-- 200 -->
      <g transform="translate(135.9125 305.840518) scale(0.1 -0.1)">
       <use xlink:href="#DejaVuSans-32"/>
       <use xlink:href="#DejaVuSans-30" x="63.623047"/>
       <use xlink:href="#DejaVuSans-30" x="127.246094"/>
      </g>
     </g>
    </g>
    <g id="ytick_6">
     <g id="line2d_12">
      <g>
       <use xlink:href="#m1550abd17a" x="162" y="192.871625" style="stroke: #000000; stroke-width: 0.8"/>
      </g>
     </g>
     <g id="text_12">
      <!-- 250 -->
      <g transform="translate(135.9125 196.670843) scale(0.1 -0.1)">
       <use xlink:href="#DejaVuSans-32"/>
       <use xlink:href="#DejaVuSans-35" x="63.623047"/>
       <use xlink:href="#DejaVuSans-30" x="127.246094"/>
      </g>
     </g>
    </g>
   </g>
   <g id="line2d_13">
    <path d="M 207.654545 710.335884 
L 209.484387 705.969097 
L 211.314228 666.668014 
L 213.14407 703.785704 
L 214.973911 638.283899 
L 216.803753 695.05213 
L 218.633594 653.567653 
L 220.463436 729.986426 
L 222.293277 629.550325 
L 224.123119 705.969097 
L 225.95296 666.668014 
L 227.782802 729.986426 
L 229.612643 686.318556 
L 231.442485 588.065848 
L 233.272326 705.969097 
L 235.102168 716.886065 
L 236.932009 679.768375 
L 238.761851 544.397978 
L 240.591692 304.224693 
L 242.421534 467.979206 
L 244.251375 133.92 
L 246.081217 192.871625 
L 247.911058 212.522166 
L 249.7409 133.92 
L 258.890107 133.92 
L 260.719949 232.172708 
L 262.54979 179.771264 
L 264.379632 288.940939 
L 266.209473 454.878845 
L 268.039315 212.522166 
L 269.869156 133.92 
L 275.358681 133.92 
L 277.188522 232.172708 
L 279.018364 133.92 
L 280.848206 229.989314 
L 282.678047 210.338773 
L 284.507889 271.473791 
L 286.33773 133.92 
L 300.976462 133.92 
L 302.806304 162.304116 
L 304.636145 365.359711 
L 306.465987 153.570542 
L 308.295828 133.92 
L 313.785353 133.92 
L 315.615194 162.304116 
L 317.445036 474.529386 
L 319.274877 173.221083 
L 321.104719 382.826859 
L 322.93456 356.626137 
L 324.764402 347.892563 
L 326.594243 533.481011 
L 328.424085 487.629747 
L 330.253926 347.892563 
L 332.083768 435.228303 
L 333.913609 330.425415 
L 335.743451 526.93083 
L 337.573292 522.564043 
L 339.403134 133.92 
L 341.232975 369.726498 
L 343.062817 446.145271 
L 344.892658 413.394368 
L 346.7225 598.982816 
L 348.552341 579.332274 
L 350.382183 428.678123 
L 352.212024 542.214585 
L 354.041866 544.397978 
L 355.871707 620.816751 
L 357.701549 649.200866 
L 359.53139 457.062238 
L 361.361232 588.065848 
L 363.191073 476.71278 
L 365.020915 419.944549 
L 366.850756 555.314946 
L 368.680598 559.681733 
L 370.510439 531.297617 
L 374.170122 347.892563 
L 375.999964 531.297617 
L 377.829805 647.017473 
L 379.659647 435.228303 
L 381.489488 513.830469 
L 383.31933 380.643466 
L 385.149171 433.04491 
L 386.979013 395.92722 
L 388.808854 553.131552 
L 390.638696 465.795812 
L 392.468537 430.861516 
L 394.298379 400.294007 
L 396.12822 247.456462 
L 397.958062 574.965487 
L 399.787903 533.481011 
L 401.617745 354.442744 
L 403.447586 625.183538 
L 405.277428 511.647076 
L 407.107269 323.875235 
L 408.937111 577.148881 
L 410.766952 612.083177 
L 412.596794 618.633357 
L 414.426635 498.546715 
L 416.256477 620.816751 
L 418.086318 596.799422 
L 419.91616 614.26657 
L 421.746001 380.643466 
L 423.575843 424.311336 
L 425.405684 540.031191 
L 427.235526 692.868736 
L 429.065367 470.162599 
L 430.895209 566.231913 
L 432.72505 557.498339 
L 434.554892 478.896173 
L 436.384733 570.5987 
L 438.214575 588.065848 
L 440.044416 507.280289 
L 441.874258 550.948159 
L 443.704099 612.083177 
L 445.533941 601.166209 
L 447.363782 609.899783 
L 449.193624 470.162599 
L 451.023465 607.71639 
L 452.853307 522.564043 
L 454.683148 627.366931 
L 456.51299 548.764765 
L 458.342831 631.733718 
L 460.172673 581.515668 
L 462.002514 598.982816 
L 463.832356 631.733718 
L 465.662197 502.913502 
L 467.492039 542.214585 
L 469.32188 592.432635 
L 471.151722 502.913502 
L 472.981563 616.449964 
L 474.811405 703.785704 
L 476.641246 592.432635 
L 478.471088 727.803032 
L 480.300929 607.71639 
L 482.130771 605.532996 
L 483.960612 568.415307 
L 485.790454 505.096895 
L 487.620295 640.467292 
L 489.450137 695.05213 
L 491.279978 631.733718 
L 493.10982 557.498339 
L 494.939661 516.013863 
L 496.769503 489.813141 
L 498.599344 437.411697 
L 500.429186 452.695451 
L 504.088869 566.231913 
L 505.91871 437.411697 
L 507.748552 483.26296 
L 509.578393 574.965487 
L 511.408235 550.948159 
L 513.238076 605.532996 
L 515.067918 607.71639 
L 516.897759 620.816751 
L 518.727601 673.218195 
L 520.557442 616.449964 
L 522.387284 553.131552 
L 524.217125 568.415307 
L 526.046967 542.214585 
L 527.876808 594.616029 
L 529.70665 688.501949 
L 531.536491 516.013863 
L 533.366333 585.882455 
L 535.196174 644.834079 
L 537.026016 666.668014 
L 538.855857 697.235523 
L 540.685699 692.868736 
L 542.51554 675.401588 
L 544.345382 695.05213 
L 546.175223 657.93444 
L 548.005065 612.083177 
L 549.834906 633.917112 
L 551.664748 649.200866 
L 553.494589 677.584982 
L 555.324431 716.886065 
L 557.154272 673.218195 
L 558.984114 712.519278 
L 560.813955 719.069458 
L 562.643797 716.886065 
L 564.473638 738.72 
L 566.30348 640.467292 
L 568.133321 679.768375 
L 569.963163 714.702671 
L 571.793004 664.484621 
L 573.622846 738.72 
L 575.452687 666.668014 
L 577.282529 686.318556 
L 579.11237 719.069458 
L 580.942212 627.366931 
L 582.772053 649.200866 
L 584.601895 627.366931 
L 586.431736 668.851408 
L 588.261578 516.013863 
L 590.091419 389.37704 
L 591.921261 446.145271 
L 593.751102 133.92 
L 595.580944 404.660794 
L 599.240627 133.92 
L 601.070468 133.92 
L 602.90031 147.020361 
L 604.730151 133.92 
L 606.559993 133.92 
L 608.389834 177.58787 
L 610.219676 133.92 
L 617.539042 133.92 
L 619.368883 140.470181 
L 621.198725 175.404477 
L 623.028566 133.92 
L 624.858408 282.390758 
L 626.688249 133.92 
L 628.518091 214.70556 
L 630.347932 319.508448 
L 632.177774 199.421805 
L 634.007615 133.92 
L 635.837457 133.92 
L 637.667298 177.58787 
L 639.49714 133.92 
L 650.476189 133.92 
L 652.30603 177.58787 
L 654.135872 297.674513 
L 655.965713 133.92 
L 657.795555 251.823249 
L 659.625396 190.688231 
L 661.455238 133.92 
L 663.285079 347.892563 
L 665.114921 133.92 
L 666.944762 157.937329 
L 668.774604 195.055018 
L 670.604445 155.753935 
L 672.434287 133.92 
L 674.264128 133.92 
L 676.09397 365.359711 
L 677.923811 260.556823 
L 679.753653 446.145271 
L 681.583494 376.276679 
L 683.413336 395.92722 
L 685.243177 655.751047 
L 687.073019 568.415307 
L 688.90286 583.699061 
L 690.732702 572.782094 
L 694.392385 422.127942 
L 696.222226 550.948159 
L 698.052068 360.992924 
L 699.881909 524.747437 
L 701.711751 411.210975 
L 703.541592 618.633357 
L 705.371434 498.546715 
L 710.860958 655.751047 
L 712.6908 574.965487 
L 714.520641 697.235523 
L 716.350483 594.616029 
L 718.180324 644.834079 
L 720.010166 542.214585 
L 721.840007 642.650686 
L 723.669849 651.38426 
L 725.49969 710.335884 
L 727.329532 681.951769 
L 729.159373 633.917112 
L 730.989215 623.000144 
L 732.819056 710.335884 
L 734.648898 657.93444 
L 736.478739 651.38426 
L 738.308581 585.882455 
L 740.138422 655.751047 
L 741.968264 594.616029 
L 743.798105 647.017473 
L 745.627947 708.152491 
L 747.457788 692.868736 
L 749.28763 690.685343 
L 751.117471 666.668014 
L 752.947313 708.152491 
L 754.777154 640.467292 
L 756.606996 592.432635 
L 758.436837 564.04852 
L 760.266679 620.816751 
L 762.09652 655.751047 
L 763.926362 627.366931 
L 765.756203 264.92361 
L 767.586045 476.71278 
L 769.415886 367.543105 
L 771.245728 280.207365 
L 773.075569 203.788592 
L 774.905411 133.92 
L 782.224777 133.92 
L 784.054618 238.722888 
L 785.88446 133.92 
L 796.863509 133.92 
L 798.69335 262.740217 
L 800.523192 192.871625 
L 802.353033 232.172708 
L 804.182875 249.639856 
L 806.012716 323.875235 
L 807.842558 295.491119 
L 809.672399 243.089675 
L 811.502241 157.937329 
L 813.332082 133.92 
L 818.821607 133.92 
L 820.651448 151.387148 
L 822.48129 133.92 
L 833.460339 133.92 
L 835.29018 205.971986 
L 837.120022 199.421805 
L 838.949863 157.937329 
L 840.779705 312.958267 
L 842.609546 254.006643 
L 844.439388 133.92 
L 846.269229 212.522166 
L 848.099071 369.726498 
L 849.928912 424.311336 
L 851.758754 245.273069 
L 853.588595 223.439134 
L 855.418437 363.176318 
L 857.248278 594.616029 
L 859.07812 404.660794 
L 860.907961 454.878845 
L 862.737803 413.394368 
L 864.567644 520.38065 
L 866.397486 561.865126 
L 868.227327 585.882455 
L 870.057169 470.162599 
L 871.88701 478.896173 
L 873.716852 513.830469 
L 875.546693 647.017473 
L 877.376535 533.481011 
L 879.206376 588.065848 
L 881.036218 664.484621 
L 884.695901 566.231913 
L 886.525742 695.05213 
L 888.355584 623.000144 
L 890.185425 511.647076 
L 892.015267 574.965487 
L 893.845108 625.183538 
L 895.67495 579.332274 
L 897.504791 603.349603 
L 899.334633 664.484621 
L 901.164474 590.249242 
L 902.994316 655.751047 
L 904.824157 583.699061 
L 906.653999 627.366931 
L 908.48384 684.135162 
L 910.313682 448.328664 
L 912.143523 627.366931 
L 913.973365 636.100505 
L 915.803206 546.581372 
L 917.633048 596.799422 
L 919.462889 620.816751 
L 921.292731 603.349603 
L 923.122572 612.083177 
L 924.952414 461.429025 
L 926.782255 673.218195 
L 928.612097 699.418917 
L 930.441938 697.235523 
L 932.27178 577.148881 
L 934.101621 633.917112 
L 935.931463 633.917112 
L 937.761304 636.100505 
L 939.591146 328.242022 
L 941.420987 430.861516 
L 943.250829 243.089675 
L 945.08067 225.622527 
L 946.910512 247.456462 
L 948.740353 205.971986 
L 950.570195 133.92 
L 972.528293 133.92 
L 974.358134 234.356101 
L 976.187976 306.408087 
L 978.017817 402.477401 
L 979.847659 354.442744 
L 981.6775 133.92 
L 983.507342 227.805921 
L 985.337183 195.055018 
L 987.167025 133.92 
L 1007.295281 133.92 
L 1009.125123 358.809531 
L 1010.954964 133.92 
L 1012.784806 136.103394 
L 1014.614647 330.425415 
L 1016.444489 308.59148 
L 1018.27433 133.92 
L 1021.934013 133.92 
L 1023.763855 267.107004 
L 1025.593696 133.92 
L 1027.423538 214.70556 
L 1029.253379 181.954657 
L 1031.083221 433.04491 
L 1032.913062 153.570542 
L 1034.742904 229.989314 
L 1036.572745 380.643466 
L 1038.402587 243.089675 
L 1040.232428 350.075957 
L 1042.06227 288.940939 
L 1043.892111 424.311336 
L 1045.721953 341.342383 
L 1047.551794 395.92722 
L 1049.381636 511.647076 
L 1051.211478 443.961877 
L 1053.041319 422.127942 
L 1054.871161 467.979206 
L 1056.701002 454.878845 
L 1058.530844 594.616029 
L 1060.360685 400.294007 
L 1062.190527 391.560433 
L 1064.020368 598.982816 
L 1065.85021 232.172708 
L 1067.680051 347.892563 
L 1069.509893 356.626137 
L 1071.339734 358.809531 
L 1073.169576 557.498339 
L 1074.999417 280.207365 
L 1076.829259 260.556823 
L 1078.6591 308.59148 
L 1080.488942 452.695451 
L 1082.318783 356.626137 
L 1084.148625 452.695451 
L 1085.978466 424.311336 
L 1087.808308 367.543105 
L 1089.638149 354.442744 
L 1091.467991 330.425415 
L 1093.297832 321.691841 
L 1095.127674 417.761155 
L 1096.957515 358.809531 
L 1098.787357 446.145271 
L 1100.617198 601.166209 
L 1102.44704 564.04852 
L 1104.276881 478.896173 
L 1106.106723 507.280289 
L 1107.936564 583.699061 
L 1109.766406 529.114224 
L 1111.596247 607.71639 
L 1113.426089 590.249242 
L 1115.25593 548.764765 
L 1117.085772 618.633357 
L 1118.915613 546.581372 
L 1120.745455 566.231913 
L 1120.745455 566.231913 
" clip-path="url(#pa311793359)" style="fill: none; stroke: #4169e1; stroke-linecap: square"/>
   </g>
   <g id="line2d_14">
    <path d="M 207.654545 684.209803 
L 209.484387 675.372487 
L 211.314228 676.267041 
L 213.14407 674.121665 
L 214.973911 686.358473 
L 216.803753 682.022415 
L 218.633594 685.982065 
L 220.463436 686.628819 
L 222.293277 685.744618 
L 224.123119 680.888574 
L 225.95296 673.889307 
L 227.782802 679.264784 
L 229.612643 672.555645 
L 231.442485 671.809455 
L 233.272326 594.068182 
L 235.102168 640.898692 
L 236.932009 629.745265 
L 238.761851 605.683934 
L 240.591692 546.617186 
L 242.421534 323.353507 
L 244.251375 286.686582 
L 246.081217 199.454521 
L 247.911058 164.264359 
L 249.7409 155.302571 
L 251.570741 148.512449 
L 253.400583 147.633441 
L 255.230424 146.92661 
L 257.060266 146.746304 
L 260.719949 146.722317 
L 262.54979 153.288422 
L 264.379632 152.765029 
L 266.209473 176.002964 
L 268.039315 282.220913 
L 269.869156 232.97942 
L 271.698998 176.660088 
L 273.528839 150.787061 
L 275.358681 147.255771 
L 277.188522 147.246043 
L 279.018364 157.827786 
L 280.848206 151.6063 
L 282.678047 161.210486 
L 284.507889 160.855872 
L 286.33773 178.714882 
L 288.167572 157.442987 
L 289.997413 151.424195 
L 291.827255 148.863665 
L 293.657096 149.3724 
L 295.486938 149.74887 
L 297.316779 149.673709 
L 299.146621 149.263723 
L 300.976462 149.836091 
L 302.806304 150.814447 
L 304.636145 154.698819 
L 306.465987 219.451882 
L 308.295828 193.929073 
L 310.12567 187.674838 
L 311.955511 161.84922 
L 313.785353 157.121155 
L 315.615194 157.229165 
L 317.445036 161.608012 
L 319.274877 281.728637 
L 321.104719 243.381589 
L 322.93456 353.823933 
L 324.764402 363.982797 
L 326.594243 386.939679 
L 328.424085 446.670163 
L 330.253926 457.241745 
L 332.083768 432.394882 
L 333.913609 444.110466 
L 335.743451 396.487861 
L 337.573292 446.014639 
L 339.403134 469.744418 
L 341.232975 349.351768 
L 343.062817 388.174734 
L 344.892658 395.920457 
L 346.7225 420.299897 
L 348.552341 494.105966 
L 350.382183 522.59023 
L 352.212024 490.571212 
L 354.041866 530.239003 
L 355.871707 523.610397 
L 357.701549 548.404353 
L 359.53139 587.202916 
L 361.361232 492.924283 
L 363.191073 543.872969 
L 366.850756 454.601756 
L 368.680598 496.322676 
L 372.340281 514.596936 
L 374.170122 478.378577 
L 375.999964 413.290089 
L 377.829805 441.650351 
L 379.659647 515.791396 
L 381.489488 474.643044 
L 383.31933 492.937543 
L 385.149171 434.790932 
L 386.979013 426.498061 
L 388.808854 403.834426 
L 390.638696 449.835611 
L 392.468537 443.70801 
L 394.298379 441.323921 
L 396.12822 427.949037 
L 397.958062 349.614731 
L 399.787903 426.089974 
L 401.617745 453.692397 
L 403.447586 430.086921 
L 405.277428 515.038355 
L 407.107269 483.593038 
L 408.937111 406.135225 
L 410.766952 457.412955 
L 412.596794 513.086058 
L 414.426635 563.534005 
L 416.256477 430.224349 
L 418.086318 454.813212 
L 419.91616 506.731175 
L 421.746001 571.064157 
L 423.575843 465.014553 
L 425.405684 417.872764 
L 427.235526 436.293547 
L 429.065367 551.174707 
L 430.895209 488.580284 
L 432.72505 517.242488 
L 434.554892 526.186952 
L 436.384733 471.930193 
L 438.214575 498.299044 
L 440.044416 516.355518 
L 441.874258 496.503248 
L 443.704099 508.205073 
L 445.533941 534.285624 
L 447.363782 542.513179 
L 449.193624 565.150011 
L 451.023465 502.725483 
L 452.853307 533.64281 
L 454.683148 500.785729 
L 456.51299 543.588035 
L 458.342831 531.824842 
L 460.172673 561.030096 
L 463.832356 557.75897 
L 465.662197 582.75124 
L 467.492039 508.212069 
L 469.32188 504.133748 
L 471.151722 521.113817 
L 472.981563 491.823291 
L 474.811405 523.377669 
L 476.641246 599.857676 
L 478.471088 584.234115 
L 480.300929 656.251527 
L 482.130771 659.778953 
L 483.960612 631.933039 
L 485.790454 636.08852 
L 487.620295 554.023687 
L 491.279978 616.667475 
L 493.10982 616.654707 
L 494.939661 618.439467 
L 496.769503 583.417475 
L 498.599344 522.214359 
L 500.429186 480.420577 
L 502.259027 469.366748 
L 504.088869 479.927085 
L 505.91871 500.76529 
L 507.748552 475.41599 
L 509.578393 481.74995 
L 511.408235 509.711786 
L 513.238076 511.503218 
L 515.067918 548.870927 
L 516.897759 573.549277 
L 518.727601 587.719612 
L 520.557442 621.653372 
L 522.387284 613.707904 
L 524.217125 588.006829 
L 526.046967 582.675146 
L 527.876808 556.941064 
L 529.70665 559.175697 
L 531.536491 604.20165 
L 533.366333 557.86828 
L 535.196174 564.262042 
L 537.026016 598.864761 
L 538.855857 597.953986 
L 542.51554 658.737646 
L 544.345382 670.477051 
L 546.175223 685.022699 
L 548.005065 687.38437 
L 549.834906 678.563634 
L 551.664748 678.301462 
L 553.494589 663.212993 
L 555.324431 657.967598 
L 557.154272 676.305912 
L 558.984114 674.738414 
L 560.813955 680.727267 
L 562.643797 683.237644 
L 564.473638 677.608682 
L 566.30348 693.862863 
L 568.133321 690.649641 
L 569.963163 691.476976 
L 571.793004 686.689146 
L 573.622846 675.487135 
L 575.452687 688.530281 
L 577.282529 681.764533 
L 579.11237 673.162586 
L 580.942212 678.52976 
L 584.601895 608.664353 
L 586.431736 596.345293 
L 588.261578 586.350677 
L 591.921261 349.551064 
L 593.751102 329.82896 
L 595.580944 265.073665 
L 597.410785 271.99182 
L 599.240627 209.579369 
L 601.070468 174.048185 
L 602.90031 152.52622 
L 604.730151 149.471481 
L 606.559993 148.454212 
L 608.389834 148.390712 
L 610.219676 150.814913 
L 612.049517 149.131192 
L 613.879359 148.522843 
L 615.7092 149.024182 
L 617.539042 149.324691 
L 621.198725 149.702161 
L 623.028566 152.170939 
L 624.858408 149.780587 
L 626.688249 169.51082 
L 628.518091 156.126141 
L 630.347932 164.971523 
L 632.177774 205.308132 
L 634.007615 190.464148 
L 635.837457 166.864868 
L 637.667298 153.314075 
L 639.49714 154.998663 
L 641.326981 151.914406 
L 643.156823 150.94358 
L 644.986664 151.908143 
L 646.816506 152.364838 
L 648.646347 152.576061 
L 650.476189 152.287545 
L 652.30603 152.979184 
L 654.135872 159.947612 
L 655.965713 210.650843 
L 657.795555 185.009995 
L 659.625396 239.487855 
L 661.455238 209.558713 
L 663.285079 197.477653 
L 665.114921 272.442352 
L 666.944762 208.508228 
L 668.774604 214.766128 
L 670.604445 195.865362 
L 672.434287 181.8083 
L 674.264128 180.771075 
L 676.09397 174.741889 
L 677.923811 277.015764 
L 679.753653 306.681744 
L 681.583494 394.218579 
L 683.413336 400.049668 
L 685.243177 417.364029 
L 687.073019 507.152022 
L 688.90286 523.280969 
L 690.732702 553.752295 
L 692.562543 580.890361 
L 694.392385 532.170595 
L 696.222226 497.361617 
L 698.052068 510.531425 
L 699.881909 455.410434 
L 701.711751 479.25282 
L 703.541592 461.542333 
L 705.371434 509.217061 
L 707.201275 502.379464 
L 709.031117 514.560338 
L 710.860958 546.997471 
L 712.6908 565.021812 
L 714.520641 559.329483 
L 716.350483 603.118274 
L 718.180324 611.167938 
L 720.010166 619.909516 
L 721.840007 623.965257 
L 723.669849 614.893876 
L 725.49969 631.761479 
L 727.329532 644.991439 
L 729.159373 666.872349 
L 730.989215 661.729426 
L 732.819056 668.763854 
L 734.648898 667.002423 
L 736.478739 649.569466 
L 738.308581 638.954182 
L 740.138422 626.782578 
L 741.968264 630.529355 
L 743.798105 615.008383 
L 745.627947 622.187069 
L 747.457788 660.109638 
L 749.28763 658.850071 
L 751.117471 666.814113 
L 752.947313 670.529528 
L 754.777154 669.170087 
L 756.606996 653.280312 
L 758.436837 607.740977 
L 760.266679 533.663749 
L 763.926362 586.54321 
L 765.756203 571.861824 
L 767.586045 330.297882 
L 769.415886 327.515601 
L 771.245728 350.045573 
L 773.075569 293.362963 
L 774.905411 204.721971 
L 776.735252 156.041385 
L 778.565094 149.588087 
L 780.394935 148.459276 
L 782.224777 148.131448 
L 784.054618 148.250585 
L 785.88446 157.994499 
L 787.714301 152.320328 
L 789.544143 150.428915 
L 791.373984 149.526586 
L 793.203826 149.537247 
L 795.033667 149.779054 
L 798.69335 149.321227 
L 800.523192 164.848854 
L 802.353033 162.015999 
L 804.182875 173.068629 
L 806.012716 184.838452 
L 807.842558 238.252833 
L 809.672399 267.015252 
L 811.502241 253.712796 
L 813.332082 188.715861 
L 815.161924 159.546155 
L 816.991765 152.749837 
L 818.821607 151.24209 
L 820.651448 152.624635 
L 822.48129 155.454291 
L 826.140973 154.190351 
L 827.970814 154.916439 
L 829.800656 156.886077 
L 833.460339 162.566379 
L 835.29018 164.962928 
L 837.120022 186.059681 
L 838.949863 204.707312 
L 840.779705 203.567641 
L 842.609546 268.114877 
L 844.439388 275.85437 
L 846.269229 243.049163 
L 848.099071 235.486644 
L 849.928912 300.120769 
L 851.758754 377.28955 
L 853.588595 365.050872 
L 855.418437 342.75891 
L 857.248278 355.276175 
L 859.07812 433.446533 
L 860.907961 433.86758 
L 862.737803 455.818854 
L 864.567644 456.492003 
L 866.397486 468.668379 
L 868.227327 496.387809 
L 870.057169 522.234382 
L 871.88701 499.462154 
L 873.716852 493.93339 
L 875.546693 496.924495 
L 877.376535 534.889842 
L 879.206376 524.052216 
L 881.036218 547.936598 
L 882.866059 593.825575 
L 884.695901 577.330319 
L 886.525742 553.295034 
L 888.355584 612.526612 
L 890.185425 595.22781 
L 892.015267 554.141025 
L 893.845108 592.912052 
L 895.67495 586.036908 
L 897.504791 580.052765 
L 899.334633 603.427371 
L 901.164474 629.924155 
L 902.994316 612.167525 
L 904.824157 634.691999 
L 906.653999 627.798798 
L 908.48384 618.027457 
L 910.313682 644.806935 
L 912.143523 524.42134 
L 913.973365 570.739627 
L 915.803206 594.476135 
L 917.633048 550.667022 
L 919.462889 591.659106 
L 921.292731 597.526559 
L 923.122572 588.670416 
L 924.952414 606.004525 
L 926.782255 530.361806 
L 928.612097 592.631432 
L 930.441938 620.073481 
L 932.27178 631.974118 
L 934.101621 621.733372 
L 935.931463 589.354642 
L 937.761304 589.025914 
L 939.591146 593.297984 
L 941.420987 383.305543 
L 943.250829 368.009461 
L 945.08067 298.627415 
L 946.910512 220.544012 
L 948.740353 174.570045 
L 950.570195 160.180491 
L 952.400036 152.434135 
L 954.229878 149.777188 
L 956.059719 148.922768 
L 957.889561 148.595605 
L 961.549244 148.717209 
L 963.379085 148.732867 
L 965.208927 148.622525 
L 967.038768 149.425972 
L 968.86861 149.907587 
L 970.698451 150.120809 
L 974.358134 149.734078 
L 976.187976 160.466342 
L 978.017817 189.391741 
L 979.847659 279.696964 
L 981.6775 332.041038 
L 983.507342 241.811043 
L 987.167025 170.760568 
L 988.996866 158.664682 
L 990.826708 153.770037 
L 992.656549 151.911008 
L 994.486391 151.386748 
L 996.316232 152.917216 
L 998.146074 153.681217 
L 999.975915 154.021306 
L 1001.805757 153.690346 
L 1003.635598 154.882057 
L 1005.46544 156.755346 
L 1007.295281 159.080665 
L 1009.125123 161.655388 
L 1010.954964 242.863693 
L 1012.784806 208.794146 
L 1014.614647 212.93685 
L 1016.444489 265.716863 
L 1018.27433 301.272834 
L 1020.104172 262.965865 
L 1021.934013 212.63604 
L 1023.763855 174.566714 
L 1025.593696 226.856716 
L 1027.423538 203.735087 
L 1029.253379 254.254713 
L 1031.083221 230.83314 
L 1032.913062 334.831248 
L 1034.742904 274.952974 
L 1036.572745 294.936542 
L 1038.402587 328.420928 
L 1040.232428 321.456764 
L 1042.06227 372.709108 
L 1043.892111 362.04784 
L 1045.721953 402.565488 
L 1047.551794 399.618093 
L 1049.381636 419.210365 
L 1051.211478 454.335895 
L 1053.041319 453.764093 
L 1054.871161 458.198378 
L 1056.701002 470.830317 
L 1058.530844 466.699407 
L 1060.360685 506.602809 
L 1062.190527 448.170513 
L 1064.020368 432.049329 
L 1065.85021 480.771494 
L 1067.680051 359.661253 
L 1069.509893 380.806381 
L 1071.339734 379.27518 
L 1073.169576 366.066109 
L 1074.999417 435.632959 
L 1076.829259 373.727043 
L 1078.6591 349.564624 
L 1080.488942 337.634785 
L 1082.318783 361.874331 
L 1084.148625 379.640789 
L 1085.978466 421.397124 
L 1087.808308 425.399501 
L 1089.638149 412.247167 
L 1091.467991 394.87337 
L 1093.297832 370.03667 
L 1095.127674 351.978097 
L 1096.957515 375.479495 
L 1098.787357 380.663722 
L 1100.617198 416.619285 
L 1102.44704 480.499803 
L 1104.276881 503.398499 
L 1106.106723 489.275888 
L 1107.936564 501.674515 
L 1109.766406 517.468387 
L 1111.596247 502.608411 
L 1113.426089 542.839525 
L 1115.25593 552.649637 
L 1117.085772 534.42122 
L 1118.915613 534.73344 
L 1120.745455 495.293147 
L 1120.745455 495.293147 
" clip-path="url(#pa311793359)" style="fill: none; stroke: #ff6347; stroke-linecap: square"/>
   </g>
   <g id="line2d_15">
    <path d="M 207.654545 689.515179 
L 209.484387 672.363204 
L 211.314228 686.597852 
L 213.14407 656.872212 
L 214.973911 698.58576 
L 216.803753 677.914814 
L 218.633594 675.229886 
L 220.463436 674.859342 
L 222.293277 691.918262 
L 224.123119 665.682837 
L 225.95296 685.058489 
L 227.782802 666.215442 
L 229.612643 676.759092 
L 231.442485 673.353995 
L 233.272326 632.739777 
L 235.102168 687.273878 
L 236.932009 637.51924 
L 238.761851 551.272523 
L 240.591692 546.385807 
L 242.421534 404.141066 
L 244.251375 389.192203 
L 246.081217 173.228146 
L 247.911058 169.096236 
L 249.7409 200.084526 
L 251.570741 165.475527 
L 253.400583 169.762555 
L 255.230424 166.142778 
L 257.060266 155.990945 
L 258.890107 155.609744 
L 260.719949 159.327803 
L 262.54979 194.239277 
L 264.379632 197.986887 
L 266.209473 262.259834 
L 268.039315 322.157265 
L 269.869156 265.473523 
L 271.698998 217.73771 
L 273.528839 193.405413 
L 275.358681 172.122123 
L 277.188522 164.434337 
L 279.018364 201.711343 
L 280.848206 173.804778 
L 282.678047 244.142426 
L 284.507889 237.210144 
L 286.33773 266.952817 
L 288.167572 164.843723 
L 289.997413 179.377069 
L 291.827255 182.13966 
L 293.657096 193.218577 
L 295.486938 188.861418 
L 297.316779 186.326075 
L 299.146621 189.559887 
L 300.976462 163.617497 
L 302.806304 175.144279 
L 304.636145 180.344364 
L 306.465987 225.559926 
L 308.295828 197.740716 
L 310.12567 204.076242 
L 311.955511 204.4756 
L 313.785353 191.012795 
L 315.615194 186.883984 
L 317.445036 205.078719 
L 319.274877 370.349706 
L 321.104719 282.911753 
L 324.764402 436.388764 
L 326.594243 394.918214 
L 328.424085 506.301766 
L 330.253926 502.087167 
L 332.083768 445.746812 
L 333.913609 452.631218 
L 335.743451 397.128726 
L 337.573292 443.850602 
L 339.403134 503.664193 
L 341.232975 365.601418 
L 343.062817 505.051719 
L 344.892658 452.280268 
L 346.7225 405.87546 
L 348.552341 512.927874 
L 350.382183 534.614552 
L 352.212024 499.996575 
L 354.041866 555.800876 
L 355.871707 565.865638 
L 357.701549 559.734905 
L 359.53139 605.446683 
L 361.361232 579.388978 
L 363.191073 562.951109 
L 365.020915 533.694899 
L 366.850756 519.259202 
L 368.680598 574.140035 
L 370.510439 587.6486 
L 372.340281 567.809973 
L 374.170122 521.045886 
L 375.999964 449.845772 
L 377.829805 514.009226 
L 379.659647 611.232488 
L 381.489488 588.277105 
L 383.31933 582.628537 
L 385.149171 446.492489 
L 386.979013 479.76497 
L 388.808854 396.679594 
L 390.638696 488.417103 
L 392.468537 500.328801 
L 394.298379 453.18293 
L 396.12822 466.172232 
L 397.958062 359.202559 
L 399.787903 446.793066 
L 401.617745 494.068886 
L 403.447586 383.665688 
L 405.277428 561.987979 
L 407.107269 590.284923 
L 408.937111 407.0761 
L 410.766952 458.281069 
L 412.596794 576.819753 
L 414.426635 493.280364 
L 416.256477 434.864227 
L 418.086318 487.239484 
L 419.91616 518.376613 
L 421.746001 576.695018 
L 423.575843 469.819045 
L 425.405684 399.973175 
L 427.235526 440.536899 
L 429.065367 531.659512 
L 430.895209 508.249083 
L 432.72505 506.274181 
L 434.554892 535.324915 
L 436.384733 475.249061 
L 438.214575 510.309874 
L 440.044416 537.050048 
L 441.874258 510.556412 
L 443.704099 524.697196 
L 447.363782 577.918329 
L 449.193624 607.712642 
L 451.023465 535.376988 
L 452.853307 531.176164 
L 454.683148 503.089377 
L 456.51299 514.734198 
L 458.342831 550.505973 
L 460.172673 544.114376 
L 462.002514 565.262453 
L 463.832356 551.615844 
L 465.662197 602.249144 
L 467.492039 519.591995 
L 469.32188 495.581046 
L 471.151722 505.423908 
L 472.981563 511.087668 
L 474.811405 528.703505 
L 478.471088 589.557486 
L 480.300929 657.399445 
L 482.130771 646.864403 
L 483.960612 634.313855 
L 485.790454 612.546893 
L 487.620295 563.91459 
L 491.279978 619.139685 
L 493.10982 617.064685 
L 494.939661 609.28607 
L 496.769503 585.956116 
L 500.429186 505.13311 
L 502.259027 491.534975 
L 504.088869 531.225605 
L 505.91871 539.098678 
L 507.748552 505.376216 
L 509.578393 518.813568 
L 511.408235 536.3105 
L 513.238076 512.761661 
L 515.067918 545.757419 
L 516.897759 598.217815 
L 518.727601 616.187184 
L 520.557442 632.466228 
L 522.387284 620.412637 
L 524.217125 594.265412 
L 526.046967 584.521898 
L 527.876808 559.929803 
L 529.70665 560.042378 
L 531.536491 604.676802 
L 533.366333 594.398442 
L 535.196174 604.828289 
L 537.026016 621.918934 
L 538.855857 621.512696 
L 542.51554 685.064711 
L 544.345382 693.976471 
L 546.175223 698.783978 
L 548.005065 681.039366 
L 549.834906 670.878675 
L 551.664748 668.432193 
L 553.494589 669.196844 
L 555.324431 666.546361 
L 557.154272 689.276882 
L 558.984114 680.926912 
L 560.813955 678.000594 
L 562.643797 684.579489 
L 564.473638 644.628145 
L 566.30348 705.740858 
L 568.133321 684.85704 
L 569.963163 688.244634 
L 571.793004 703.255606 
L 573.622846 673.05613 
L 575.452687 701.403677 
L 577.282529 671.341204 
L 579.11237 669.582814 
L 580.942212 689.11657 
L 582.772053 646.224487 
L 584.601895 640.73686 
L 586.431736 631.965089 
L 588.261578 580.979498 
L 590.091419 453.829359 
L 591.921261 430.219152 
L 595.580944 202.143318 
L 597.410785 219.571553 
L 599.240627 239.11485 
L 601.070468 197.103382 
L 602.90031 196.770989 
L 604.730151 176.35005 
L 606.559993 167.327626 
L 608.389834 157.381619 
L 610.219676 173.464822 
L 612.049517 159.747517 
L 613.879359 165.033557 
L 615.7092 173.472285 
L 617.539042 175.511221 
L 619.368883 175.579452 
L 621.198725 179.594156 
L 623.028566 207.440019 
L 624.858408 172.256587 
L 626.688249 217.481111 
L 628.518091 156.857892 
L 630.347932 234.903016 
L 632.177774 280.721829 
L 634.007615 249.926073 
L 635.837457 208.503731 
L 637.667298 191.349686 
L 639.49714 191.7702 
L 641.326981 162.384207 
L 643.156823 173.41145 
L 644.986664 186.921831 
L 646.816506 183.156163 
L 648.646347 179.691572 
L 650.476189 179.07476 
L 652.30603 160.17576 
L 654.135872 194.311739 
L 655.965713 218.551785 
L 657.795555 188.648496 
L 659.625396 244.627472 
L 661.455238 240.326151 
L 663.285079 206.892272 
L 665.114921 309.782259 
L 666.944762 216.985203 
L 668.774604 220.952332 
L 670.604445 259.230382 
L 672.434287 239.777438 
L 674.264128 260.753354 
L 676.09397 269.558057 
L 677.923811 367.699023 
L 679.753653 336.597027 
L 681.583494 382.370164 
L 683.413336 418.693802 
L 685.243177 413.947579 
L 687.073019 522.04035 
L 688.90286 487.727879 
L 690.732702 495.205459 
L 692.562543 585.878257 
L 694.392385 568.162989 
L 696.222226 492.812159 
L 698.052068 519.628193 
L 699.881909 447.036039 
L 701.711751 479.550348 
L 703.541592 479.4843 
L 705.371434 539.034811 
L 707.201275 550.595543 
L 709.031117 546.276897 
L 710.860958 591.790654 
L 712.6908 599.360794 
L 714.520641 584.619331 
L 716.350483 635.934151 
L 718.180324 616.661728 
L 720.010166 637.442696 
L 721.840007 611.272225 
L 723.669849 596.674954 
L 725.49969 633.928764 
L 727.329532 636.497115 
L 729.159373 679.065522 
L 730.989215 668.552422 
L 732.819056 677.49051 
L 734.648898 681.191603 
L 736.478739 662.661848 
L 738.308581 622.184795 
L 740.138422 586.399218 
L 741.968264 635.549326 
L 743.798105 613.545747 
L 745.627947 603.966906 
L 747.457788 665.577126 
L 749.28763 667.692596 
L 751.117471 679.741756 
L 752.947313 686.544113 
L 754.777154 684.823362 
L 756.606996 672.365061 
L 758.436837 625.090461 
L 760.266679 588.52914 
L 762.09652 600.738574 
L 763.926362 589.391573 
L 765.756203 496.19884 
L 767.586045 393.596071 
L 769.415886 266.458009 
L 771.245728 373.794175 
L 773.075569 275.12122 
L 774.905411 263.484428 
L 776.735252 203.709367 
L 778.565094 173.869411 
L 780.394935 165.312878 
L 782.224777 162.471228 
L 784.054618 154.232263 
L 785.88446 185.933913 
L 787.714301 153.5225 
L 789.544143 166.746463 
L 791.373984 172.873331 
L 793.203826 171.161691 
L 795.033667 174.413461 
L 796.863509 170.21885 
L 798.69335 171.303151 
L 800.523192 203.905298 
L 802.353033 187.100104 
L 804.182875 235.446532 
L 806.012716 257.440417 
L 807.842558 293.178426 
L 809.672399 321.236745 
L 811.502241 294.855384 
L 813.332082 228.920106 
L 815.161924 176.122768 
L 816.991765 166.81536 
L 818.821607 165.614721 
L 820.651448 174.68885 
L 822.48129 180.207103 
L 824.311131 176.249635 
L 826.140973 174.495951 
L 827.970814 151.698852 
L 829.800656 159.342328 
L 831.630497 155.913585 
L 835.29018 169.41427 
L 837.120022 203.355985 
L 838.949863 213.526142 
L 840.779705 211.795246 
L 842.609546 293.321285 
L 844.439388 263.632951 
L 846.269229 238.336223 
L 848.099071 274.05511 
L 849.928912 373.585384 
L 851.758754 365.949803 
L 853.588595 329.942467 
L 855.418437 351.519803 
L 857.248278 367.487667 
L 859.07812 440.468634 
L 860.907961 437.64724 
L 862.737803 432.012782 
L 864.567644 465.843171 
L 866.397486 475.493 
L 868.227327 511.762282 
L 870.057169 525.595427 
L 871.88701 522.549051 
L 873.716852 510.854689 
L 875.546693 506.345777 
L 877.376535 554.997228 
L 879.206376 541.541003 
L 881.036218 562.526448 
L 882.866059 620.526303 
L 884.695901 603.629232 
L 886.525742 602.383116 
L 888.355584 637.788399 
L 890.185425 615.922081 
L 892.015267 578.270495 
L 893.845108 563.814325 
L 895.67495 594.903429 
L 897.504791 568.527148 
L 899.334633 578.977993 
L 901.164474 603.968688 
L 902.994316 583.164624 
L 904.824157 622.008304 
L 906.653999 606.537097 
L 908.48384 617.96165 
L 910.313682 647.668008 
L 912.143523 550.941679 
L 913.973365 594.756406 
L 915.803206 575.404625 
L 917.633048 558.869723 
L 919.462889 607.959097 
L 921.292731 597.896899 
L 923.122572 568.222191 
L 924.952414 614.574226 
L 926.782255 562.773019 
L 928.612097 576.030132 
L 930.441938 611.002783 
L 932.27178 640.846803 
L 934.101621 644.505726 
L 935.931463 614.881424 
L 937.761304 603.019434 
L 939.591146 582.840826 
L 941.420987 419.368516 
L 943.250829 425.177084 
L 945.08067 250.387599 
L 946.910512 182.595323 
L 948.740353 217.507563 
L 950.570195 195.290329 
L 952.400036 182.451798 
L 954.229878 175.51342 
L 956.059719 167.137326 
L 957.889561 164.513829 
L 959.719402 156.444375 
L 961.549244 154.817957 
L 963.379085 158.193461 
L 965.208927 163.030203 
L 967.038768 169.748896 
L 968.86861 173.841159 
L 970.698451 177.464135 
L 972.528293 173.658455 
L 974.358134 174.356091 
L 976.187976 207.14454 
L 978.017817 226.36444 
L 979.847659 297.601184 
L 981.6775 343.16673 
L 983.507342 261.478842 
L 985.337183 264.365135 
L 987.167025 222.463276 
L 988.996866 189.87932 
L 990.826708 171.108053 
L 992.656549 169.356434 
L 994.486391 171.413427 
L 996.316232 181.77595 
L 998.146074 183.954613 
L 999.975915 183.256244 
L 1001.805757 180.301187 
L 1003.635598 159.508841 
L 1005.46544 167.391193 
L 1007.295281 162.964238 
L 1009.125123 167.730683 
L 1010.954964 245.618055 
L 1012.784806 198.076041 
L 1014.614647 200.378672 
L 1016.444489 309.100681 
L 1018.27433 283.735756 
L 1020.104172 238.228013 
L 1021.934013 242.367852 
L 1023.763855 243.918076 
L 1025.593696 325.399239 
L 1027.423538 267.01785 
L 1029.253379 279.694699 
L 1031.083221 298.378312 
L 1032.913062 346.250187 
L 1034.742904 298.635045 
L 1036.572745 295.179615 
L 1038.402587 354.745186 
L 1040.232428 294.411883 
L 1042.06227 333.872116 
L 1043.892111 324.943011 
L 1045.721953 389.75924 
L 1047.551794 380.577234 
L 1049.381636 380.645132 
L 1051.211478 465.634763 
L 1053.041319 439.493876 
L 1054.871161 443.082636 
L 1056.701002 472.208698 
L 1058.530844 460.535275 
L 1060.360685 500.170284 
L 1062.190527 445.116141 
L 1064.020368 403.482676 
L 1065.85021 509.040237 
L 1067.680051 341.676208 
L 1069.509893 417.672035 
L 1071.339734 387.713442 
L 1073.169576 362.449897 
L 1074.999417 413.474027 
L 1076.829259 352.035334 
L 1078.6591 341.269854 
L 1080.488942 347.394157 
L 1082.318783 359.66575 
L 1084.148625 366.868557 
L 1085.978466 390.631551 
L 1087.808308 380.971494 
L 1089.638149 362.461258 
L 1091.467991 356.026217 
L 1093.297832 342.578604 
L 1095.127674 360.206068 
L 1096.957515 369.315013 
L 1098.787357 373.772453 
L 1100.617198 402.483931 
L 1102.44704 486.714259 
L 1104.276881 517.490026 
L 1106.106723 505.098744 
L 1107.936564 537.125975 
L 1109.766406 561.090164 
L 1111.596247 543.119646 
L 1113.426089 575.449401 
L 1115.25593 600.224051 
L 1117.085772 589.231323 
L 1118.915613 617.445627 
L 1120.745455 600.667911 
L 1120.745455 600.667911 
" clip-path="url(#pa311793359)" style="fill: none; stroke: #da70d6; stroke-linecap: square"/>
   </g>
   <g id="line2d_16">
    <path d="M 207.654545 672.045969 
L 209.484387 646.340043 
L 211.314228 666.100161 
L 213.14407 676.637231 
L 214.973911 662.322683 
L 216.803753 681.186589 
L 218.633594 657.026056 
L 220.463436 665.884873 
L 222.293277 663.868992 
L 224.123119 669.436019 
L 225.95296 650.927673 
L 227.782802 668.790473 
L 229.612643 670.785411 
L 231.442485 646.665598 
L 233.272326 608.182621 
L 235.102168 629.236347 
L 236.932009 618.560762 
L 238.761851 572.589694 
L 240.591692 458.319049 
L 242.421534 364.41034 
L 244.251375 207.046625 
L 246.081217 166.764187 
L 249.7409 171.061277 
L 251.570741 159.555084 
L 253.400583 158.383229 
L 255.230424 157.060653 
L 257.060266 157.409937 
L 258.890107 158.17727 
L 260.719949 159.168153 
L 262.54979 166.594742 
L 264.379632 165.189609 
L 266.209473 192.901342 
L 268.039315 239.265405 
L 269.869156 242.599664 
L 271.698998 184.166869 
L 273.528839 161.078156 
L 275.358681 157.58238 
L 277.188522 157.792937 
L 279.018364 168.943516 
L 280.848206 160.349403 
L 282.678047 169.129019 
L 284.507889 165.165022 
L 286.33773 184.503726 
L 288.167572 168.09316 
L 289.997413 166.206945 
L 291.827255 159.321406 
L 293.657096 159.285291 
L 295.486938 158.54148 
L 297.316779 155.937972 
L 299.146621 155.283048 
L 300.976462 155.869408 
L 302.806304 158.404351 
L 304.636145 170.979653 
L 306.465987 236.341998 
L 308.295828 216.000584 
L 310.12567 190.534211 
L 311.955511 186.66853 
L 313.785353 173.914654 
L 315.615194 176.078791 
L 317.445036 186.989762 
L 319.274877 298.341931 
L 321.104719 283.594163 
L 322.93456 369.94705 
L 324.764402 368.774762 
L 326.594243 375.499318 
L 328.424085 422.861126 
L 330.253926 451.537156 
L 332.083768 435.90435 
L 333.913609 435.376692 
L 335.743451 403.014587 
L 337.573292 438.83632 
L 339.403134 489.076642 
L 341.232975 343.034832 
L 343.062817 416.196439 
L 344.892658 397.338284 
L 346.7225 416.490752 
L 348.552341 502.149767 
L 350.382183 544.340275 
L 352.212024 532.648562 
L 354.041866 576.827349 
L 355.871707 540.326104 
L 357.701549 555.485224 
L 359.53139 618.888724 
L 361.361232 513.014245 
L 363.191073 582.036196 
L 365.020915 496.589287 
L 366.850756 463.064055 
L 368.680598 479.930966 
L 370.510439 499.142071 
L 372.340281 502.966641 
L 374.170122 472.445874 
L 375.999964 413.7168 
L 377.829805 430.384332 
L 379.659647 525.668656 
L 381.489488 484.684818 
L 383.31933 506.101637 
L 385.149171 440.516409 
L 386.979013 441.269416 
L 388.808854 389.545285 
L 390.638696 432.65438 
L 392.468537 440.404168 
L 394.298379 430.498639 
L 396.12822 430.749841 
L 397.958062 359.766365 
L 399.787903 454.303079 
L 401.617745 471.005259 
L 403.447586 433.262463 
L 405.277428 553.383821 
L 407.107269 538.75744 
L 408.937111 386.431178 
L 410.766952 431.715337 
L 412.596794 570.777374 
L 414.426635 606.392514 
L 416.256477 388.533647 
L 418.086318 483.849887 
L 419.91616 512.882081 
L 421.746001 618.519683 
L 423.575843 506.228538 
L 425.405684 444.05916 
L 427.235526 446.404402 
L 429.065367 530.79433 
L 430.895209 490.199422 
L 432.72505 580.519355 
L 434.554892 567.766446 
L 436.384733 513.214058 
L 438.214575 507.946191 
L 440.044416 531.382623 
L 441.874258 520.542682 
L 443.704099 506.943231 
L 445.533941 552.35774 
L 447.363782 564.596184 
L 449.193624 577.779318 
L 451.023465 501.475602 
L 452.853307 563.402424 
L 454.683148 526.284568 
L 456.51299 538.421632 
L 458.342831 579.414515 
L 460.172673 570.156614 
L 462.002514 607.49892 
L 463.832356 604.772893 
L 465.662197 615.162494 
L 467.492039 583.733393 
L 469.32188 581.171498 
L 471.151722 581.3262 
L 472.981563 530.482909 
L 474.811405 581.514585 
L 476.641246 609.359374 
L 478.471088 581.607653 
L 480.300929 633.493958 
L 482.130771 634.903122 
L 483.960612 676.168471 
L 485.790454 647.992797 
L 487.620295 552.951713 
L 489.450137 594.631754 
L 491.279978 600.074421 
L 493.10982 629.227019 
L 494.939661 640.517683 
L 496.769503 605.297103 
L 498.599344 540.768207 
L 500.429186 468.99321 
L 502.259027 456.724281 
L 504.088869 466.428515 
L 505.91871 485.290702 
L 507.748552 444.504294 
L 509.578393 457.212593 
L 511.408235 503.736439 
L 513.238076 516.418068 
L 515.067918 545.736613 
L 516.897759 568.775869 
L 518.727601 577.146882 
L 520.557442 588.115356 
L 522.387284 596.073768 
L 524.217125 583.947532 
L 526.046967 588.892583 
L 529.70665 551.712477 
L 531.536491 569.773548 
L 533.366333 525.196802 
L 535.196174 587.914894 
L 537.026016 623.429362 
L 538.855857 574.710804 
L 540.685699 629.867601 
L 542.51554 679.049705 
L 544.345382 662.491078 
L 548.005065 693.847217 
L 549.834906 691.578393 
L 551.664748 689.688713 
L 553.494589 667.3499 
L 555.324431 660.473257 
L 557.154272 679.266004 
L 558.984114 675.842708 
L 560.813955 653.947997 
L 562.643797 681.340097 
L 564.473638 664.668083 
L 566.30348 702.875866 
L 568.133321 678.419688 
L 569.963163 628.13942 
L 571.793004 687.593915 
L 573.622846 676.9039 
L 575.452687 696.898404 
L 577.282529 680.949925 
L 579.11237 654.696056 
L 580.942212 689.111606 
L 582.772053 681.859688 
L 584.601895 631.193242 
L 586.431736 604.437302 
L 588.261578 547.575736 
L 590.091419 335.646623 
L 591.921261 320.51932 
L 595.580944 182.121503 
L 597.410785 228.053058 
L 599.240627 226.3134 
L 601.070468 169.91301 
L 602.90031 163.698921 
L 604.730151 159.815615 
L 606.559993 158.416812 
L 608.389834 159.241381 
L 610.219676 163.102699 
L 612.049517 162.659064 
L 613.879359 163.23503 
L 615.7092 163.605103 
L 617.539042 163.771283 
L 619.368883 163.171796 
L 621.198725 163.249289 
L 623.028566 165.088062 
L 624.858408 160.345871 
L 626.688249 181.595378 
L 628.518091 167.471218 
L 630.347932 178.750663 
L 632.177774 205.948698 
L 634.007615 202.199688 
L 635.837457 172.790308 
L 637.667298 163.820724 
L 639.49714 167.968558 
L 641.326981 166.326749 
L 643.156823 167.419112 
L 644.986664 168.995422 
L 646.816506 168.469164 
L 648.646347 165.492251 
L 650.476189 164.014489 
L 652.30603 161.973955 
L 654.135872 167.349082 
L 655.965713 235.850721 
L 657.795555 202.213414 
L 659.625396 261.719416 
L 661.455238 232.131562 
L 663.285079 197.343757 
L 665.114921 309.476118 
L 666.944762 229.602183 
L 668.774604 215.136501 
L 670.604445 256.270461 
L 672.434287 218.089693 
L 674.264128 211.663015 
L 676.09397 212.921391 
L 677.923811 334.000149 
L 679.753653 335.95786 
L 681.583494 379.399015 
L 683.413336 383.347121 
L 685.243177 406.325792 
L 687.073019 519.826756 
L 688.90286 543.47491 
L 690.732702 559.838051 
L 692.562543 558.507413 
L 694.392385 558.583539 
L 696.222226 521.098242 
L 698.052068 546.490453 
L 699.881909 453.340315 
L 701.711751 494.607121 
L 703.541592 472.719931 
L 705.371434 536.044006 
L 707.201275 521.276016 
L 709.031117 535.07851 
L 710.860958 598.305769 
L 712.6908 555.435183 
L 714.520641 576.950984 
L 716.350483 542.641479 
L 720.010166 609.611742 
L 721.840007 608.054372 
L 723.669849 573.911471 
L 725.49969 612.235472 
L 727.329532 654.857139 
L 729.159373 643.620988 
L 730.989215 654.556929 
L 732.819056 691.469804 
L 734.648898 619.740938 
L 736.478739 638.578154 
L 738.308581 629.402427 
L 740.138422 675.842367 
L 741.968264 649.506207 
L 743.798105 631.823713 
L 745.627947 618.031696 
L 747.457788 665.837431 
L 749.28763 653.472012 
L 751.117471 618.138549 
L 752.947313 675.466763 
L 754.777154 638.715665 
L 756.606996 667.395818 
L 758.436837 613.206066 
L 760.266679 542.182085 
L 762.09652 622.245114 
L 763.926362 632.520133 
L 765.756203 561.888614 
L 767.586045 336.809416 
L 769.415886 226.373069 
L 771.245728 269.695486 
L 773.075569 281.901947 
L 774.905411 215.605756 
L 776.735252 163.352968 
L 778.565094 159.689614 
L 780.394935 158.360108 
L 782.224777 157.941393 
L 784.054618 158.632765 
L 785.88446 168.791729 
L 787.714301 162.812583 
L 789.544143 163.707316 
L 791.373984 163.324983 
L 793.203826 162.554518 
L 796.863509 162.223091 
L 798.69335 160.090271 
L 800.523192 174.373815 
L 802.353033 169.62656 
L 804.182875 176.449931 
L 806.012716 188.1936 
L 807.842558 220.723984 
L 809.672399 244.828068 
L 811.502241 240.849278 
L 813.332082 194.927385 
L 815.161924 168.424987 
L 816.991765 165.695079 
L 818.821607 163.660941 
L 820.651448 165.135704 
L 822.48129 167.455027 
L 824.311131 164.530886 
L 826.140973 164.440667 
L 827.970814 162.294387 
L 829.800656 162.228755 
L 831.630497 166.391648 
L 833.460339 169.181992 
L 835.29018 172.248124 
L 837.120022 193.960589 
L 838.949863 200.404226 
L 840.779705 186.971105 
L 842.609546 292.502346 
L 844.439388 297.748407 
L 846.269229 217.39249 
L 848.099071 260.480829 
L 849.928912 343.235661 
L 851.758754 366.081468 
L 853.588595 357.218495 
L 855.418437 371.655458 
L 857.248278 363.741456 
L 859.07812 413.785231 
L 860.907961 432.641254 
L 862.737803 437.575578 
L 864.567644 440.794531 
L 866.397486 453.767392 
L 868.227327 489.228429 
L 870.057169 518.692864 
L 871.88701 493.47941 
L 873.716852 495.956784 
L 875.546693 495.256649 
L 877.376535 550.259518 
L 879.206376 532.61981 
L 881.036218 535.812177 
L 882.866059 547.468592 
L 884.695901 527.941786 
L 886.525742 530.548408 
L 888.355584 545.618075 
L 890.185425 553.432612 
L 892.015267 569.33501 
L 893.845108 561.356509 
L 897.504791 594.320167 
L 899.334633 587.713582 
L 901.164474 585.033998 
L 902.994316 598.492239 
L 904.824157 604.394816 
L 906.653999 653.262071 
L 908.48384 628.3046 
L 910.313682 629.627077 
L 912.143523 442.738749 
L 913.973365 612.325734 
L 915.803206 601.031738 
L 917.633048 596.569909 
L 919.462889 593.078931 
L 921.292731 602.674081 
L 923.122572 587.539856 
L 924.952414 609.294524 
L 926.782255 569.433076 
L 928.612097 629.701296 
L 930.441938 651.346188 
L 932.27178 625.947506 
L 934.101621 650.300434 
L 935.931463 597.844577 
L 937.761304 588.394444 
L 939.591146 556.761191 
L 941.420987 298.768442 
L 943.250829 286.062641 
L 945.08067 200.239445 
L 946.910512 197.945243 
L 948.740353 177.755183 
L 950.570195 169.150075 
L 952.400036 161.389926 
L 956.059719 158.91795 
L 957.889561 158.40635 
L 959.719402 159.160024 
L 961.549244 160.696222 
L 963.379085 162.027793 
L 965.208927 162.303716 
L 967.038768 163.096235 
L 968.86861 163.670136 
L 972.528293 163.289401 
L 974.358134 161.270189 
L 976.187976 171.612456 
L 978.017817 188.892035 
L 981.6775 301.084999 
L 983.507342 262.132001 
L 985.337183 229.834828 
L 987.167025 177.493053 
L 988.996866 165.410027 
L 990.826708 165.513573 
L 992.656549 165.388572 
L 994.486391 165.097724 
L 996.316232 167.486677 
L 998.146074 167.655855 
L 999.975915 165.728728 
L 1001.805757 164.948802 
L 1003.635598 163.2285 
L 1005.46544 163.57925 
L 1007.295281 168.548522 
L 1009.125123 171.92496 
L 1010.954964 274.483086 
L 1012.784806 219.59664 
L 1014.614647 193.51862 
L 1016.444489 306.295745 
L 1018.27433 327.056607 
L 1020.104172 244.111708 
L 1021.934013 206.840965 
L 1023.763855 201.437086 
L 1025.593696 302.303829 
L 1027.423538 240.916543 
L 1029.253379 275.924001 
L 1031.083221 253.665421 
L 1032.913062 333.412822 
L 1034.742904 305.793607 
L 1036.572745 344.67331 
L 1038.402587 356.009259 
L 1040.232428 328.181187 
L 1042.06227 382.652284 
L 1043.892111 356.35228 
L 1045.721953 389.853458 
L 1047.551794 384.732031 
L 1049.381636 397.809937 
L 1051.211478 440.633548 
L 1053.041319 454.249973 
L 1054.871161 436.744978 
L 1056.701002 451.861353 
L 1058.530844 436.278688 
L 1060.360685 509.205917 
L 1062.190527 417.315954 
L 1064.020368 425.539861 
L 1065.85021 472.519052 
L 1067.680051 341.477179 
L 1069.509893 391.42034 
L 1073.169576 365.499605 
L 1074.999417 412.103475 
L 1076.829259 349.721875 
L 1078.6591 378.543229 
L 1080.488942 378.456541 
L 1082.318783 373.206981 
L 1084.148625 364.721444 
L 1085.978466 405.644014 
L 1087.808308 404.344626 
L 1089.638149 388.499165 
L 1091.467991 376.251592 
L 1093.297832 375.544361 
L 1095.127674 367.765489 
L 1096.957515 379.599011 
L 1098.787357 370.325219 
L 1100.617198 403.511261 
L 1102.44704 475.633776 
L 1104.276881 516.850193 
L 1106.106723 490.884298 
L 1107.936564 520.213554 
L 1109.766406 521.499949 
L 1111.596247 513.160219 
L 1113.426089 564.532067 
L 1115.25593 582.244887 
L 1117.085772 557.146306 
L 1118.915613 611.998963 
L 1120.745455 542.616975 
L 1120.745455 542.616975 
" clip-path="url(#pa311793359)" style="fill: none; stroke: #8fbc8f; stroke-linecap: square"/>
   </g>
   <g id="patch_3">
    <path d="M 162 768.96 
L 162 103.68 
" style="fill: none; stroke: #000000; stroke-width: 0.8; stroke-linejoin: miter; stroke-linecap: square"/>
   </g>
   <g id="patch_4">
    <path d="M 1166.4 768.96 
L 1166.4 103.68 
" style="fill: none; stroke: #000000; stroke-width: 0.8; stroke-linejoin: miter; stroke-linecap: square"/>
   </g>
   <g id="patch_5">
    <path d="M 162 768.96 
L 1166.4 768.96 
" style="fill: none; stroke: #000000; stroke-width: 0.8; stroke-linejoin: miter; stroke-linecap: square"/>
   </g>
   <g id="patch_6">
    <path d="M 162 103.68 
L 1166.4 103.68 
" style="fill: none; stroke: #000000; stroke-width: 0.8; stroke-linejoin: miter; stroke-linecap: square"/>
   </g>
   <g id="text_13">
    <!-- Function 1 -->
    <g transform="translate(632.957813 97.68) scale(0.12 -0.12)">
     <defs>
      <path id="DejaVuSans-46" d="M 628 4666 
L 3309 4666 
L 3309 4134 
L 1259 4134 
L 1259 2759 
L 3109 2759 
L 3109 2228 
L 1259 2228 
L 1259 0 
L 628 0 
L 628 4666 
z
" transform="scale(0.015625)"/>
      <path id="DejaVuSans-75" d="M 544 1381 
L 544 3500 
L 1119 3500 
L 1119 1403 
Q 1119 906 1312 657 
Q 1506 409 1894 409 
Q 2359 409 2629 706 
Q 2900 1003 2900 1516 
L 2900 3500 
L 3475 3500 
L 3475 0 
L 2900 0 
L 2900 538 
Q 2691 219 2414 64 
Q 2138 -91 1772 -91 
Q 1169 -91 856 284 
Q 544 659 544 1381 
z
M 1991 3584 
L 1991 3584 
z
" transform="scale(0.015625)"/>
      <path id="DejaVuSans-6e" d="M 3513 2113 
L 3513 0 
L 2938 0 
L 2938 2094 
Q 2938 2591 2744 2837 
Q 2550 3084 2163 3084 
Q 1697 3084 1428 2787 
Q 1159 2491 1159 1978 
L 1159 0 
L 581 0 
L 581 3500 
L 1159 3500 
L 1159 2956 
Q 1366 3272 1645 3428 
Q 1925 3584 2291 3584 
Q 2894 3584 3203 3211 
Q 3513 2838 3513 2113 
z
" transform="scale(0.015625)"/>
      <path id="DejaVuSans-63" d="M 3122 3366 
L 3122 2828 
Q 2878 2963 2633 3030 
Q 2388 3097 2138 3097 
Q 1578 3097 1268 2742 
Q 959 2388 959 1747 
Q 959 1106 1268 751 
Q 1578 397 2138 397 
Q 2388 397 2633 464 
Q 2878 531 3122 666 
L 3122 134 
Q 2881 22 2623 -34 
Q 2366 -91 2075 -91 
Q 1284 -91 818 406 
Q 353 903 353 1747 
Q 353 2603 823 3093 
Q 1294 3584 2113 3584 
Q 2378 3584 2631 3529 
Q 2884 3475 3122 3366 
z
" transform="scale(0.015625)"/>
      <path id="DejaVuSans-74" d="M 1172 4494 
L 1172 3500 
L 2356 3500 
L 2356 3053 
L 1172 3053 
L 1172 1153 
Q 1172 725 1289 603 
Q 1406 481 1766 481 
L 2356 481 
L 2356 0 
L 1766 0 
Q 1100 0 847 248 
Q 594 497 594 1153 
L 594 3053 
L 172 3053 
L 172 3500 
L 594 3500 
L 594 4494 
L 1172 4494 
z
" transform="scale(0.015625)"/>
      <path id="DejaVuSans-69" d="M 603 3500 
L 1178 3500 
L 1178 0 
L 603 0 
L 603 3500 
z
M 603 4863 
L 1178 4863 
L 1178 4134 
L 603 4134 
L 603 4863 
z
" transform="scale(0.015625)"/>
      <path id="DejaVuSans-6f" d="M 1959 3097 
Q 1497 3097 1228 2736 
Q 959 2375 959 1747 
Q 959 1119 1226 758 
Q 1494 397 1959 397 
Q 2419 397 2687 759 
Q 2956 1122 2956 1747 
Q 2956 2369 2687 2733 
Q 2419 3097 1959 3097 
z
M 1959 3584 
Q 2709 3584 3137 3096 
Q 3566 2609 3566 1747 
Q 3566 888 3137 398 
Q 2709 -91 1959 -91 
Q 1206 -91 779 398 
Q 353 888 353 1747 
Q 353 2609 779 3096 
Q 1206 3584 1959 3584 
z
" transform="scale(0.015625)"/>
      <path id="DejaVuSans-20" transform="scale(0.015625)"/>
     </defs>
     <use xlink:href="#DejaVuSans-46"/>
     <use xlink:href="#DejaVuSans-75" x="52.019531"/>
     <use xlink:href="#DejaVuSans-6e" x="115.398438"/>
     <use xlink:href="#DejaVuSans-63" x="178.777344"/>
     <use xlink:href="#DejaVuSans-74" x="233.757812"/>
     <use xlink:href="#DejaVuSans-69" x="272.966797"/>
     <use xlink:href="#DejaVuSans-6f" x="300.75"/>
     <use xlink:href="#DejaVuSans-6e" x="361.931641"/>
     <use xlink:href="#DejaVuSans-20" x="425.310547"/>
     <use xlink:href="#DejaVuSans-31" x="457.097656"/>
    </g>
   </g>
   <g id="legend_1">
    <g id="patch_7">
     <path d="M 1011.90625 763.96 
L 1159.4 763.96 
Q 1161.4 763.96 1161.4 761.96 
L 1161.4 704.2475 
Q 1161.4 702.2475 1159.4 702.2475 
L 1011.90625 702.2475 
Q 1009.90625 702.2475 1009.90625 704.2475 
L 1009.90625 761.96 
Q 1009.90625 763.96 1011.90625 763.96 
z
" style="fill: #ffffff; opacity: 0.8; stroke: #cccccc; stroke-linejoin: miter"/>
    </g>
    <g id="line2d_17">
     <path d="M 1013.90625 710.345937 
L 1023.90625 710.345937 
L 1033.90625 710.345937 
" style="fill: none; stroke: #4169e1; stroke-linecap: square"/>
    </g>
    <g id="text_14">
     <!-- Truth -->
     <g transform="translate(1041.90625 713.845937) scale(0.1 -0.1)">
      <defs>
       <path id="DejaVuSans-54" d="M -19 4666 
L 3928 4666 
L 3928 4134 
L 2272 4134 
L 2272 0 
L 1638 0 
L 1638 4134 
L -19 4134 
L -19 4666 
z
" transform="scale(0.015625)"/>
       <path id="DejaVuSans-72" d="M 2631 2963 
Q 2534 3019 2420 3045 
Q 2306 3072 2169 3072 
Q 1681 3072 1420 2755 
Q 1159 2438 1159 1844 
L 1159 0 
L 581 0 
L 581 3500 
L 1159 3500 
L 1159 2956 
Q 1341 3275 1631 3429 
Q 1922 3584 2338 3584 
Q 2397 3584 2469 3576 
Q 2541 3569 2628 3553 
L 2631 2963 
z
" transform="scale(0.015625)"/>
       <path id="DejaVuSans-68" d="M 3513 2113 
L 3513 0 
L 2938 0 
L 2938 2094 
Q 2938 2591 2744 2837 
Q 2550 3084 2163 3084 
Q 1697 3084 1428 2787 
Q 1159 2491 1159 1978 
L 1159 0 
L 581 0 
L 581 4863 
L 1159 4863 
L 1159 2956 
Q 1366 3272 1645 3428 
Q 1925 3584 2291 3584 
Q 2894 3584 3203 3211 
Q 3513 2838 3513 2113 
z
" transform="scale(0.015625)"/>
      </defs>
      <use xlink:href="#DejaVuSans-54"/>
      <use xlink:href="#DejaVuSans-72" x="46.333984"/>
      <use xlink:href="#DejaVuSans-75" x="87.447266"/>
      <use xlink:href="#DejaVuSans-74" x="150.826172"/>
      <use xlink:href="#DejaVuSans-68" x="190.035156"/>
     </g>
    </g>
    <g id="line2d_18">
     <path d="M 1013.90625 725.024063 
L 1023.90625 725.024063 
L 1033.90625 725.024063 
" style="fill: none; stroke: #ff6347; stroke-linecap: square"/>
    </g>
    <g id="text_15">
     <!-- Gossip predictions -->
     <g transform="translate(1041.90625 728.524063) scale(0.1 -0.1)">
      <defs>
       <path id="DejaVuSans-47" d="M 3809 666 
L 3809 1919 
L 2778 1919 
L 2778 2438 
L 4434 2438 
L 4434 434 
Q 4069 175 3628 42 
Q 3188 -91 2688 -91 
Q 1594 -91 976 548 
Q 359 1188 359 2328 
Q 359 3472 976 4111 
Q 1594 4750 2688 4750 
Q 3144 4750 3555 4637 
Q 3966 4525 4313 4306 
L 4313 3634 
Q 3963 3931 3569 4081 
Q 3175 4231 2741 4231 
Q 1884 4231 1454 3753 
Q 1025 3275 1025 2328 
Q 1025 1384 1454 906 
Q 1884 428 2741 428 
Q 3075 428 3337 486 
Q 3600 544 3809 666 
z
" transform="scale(0.015625)"/>
       <path id="DejaVuSans-73" d="M 2834 3397 
L 2834 2853 
Q 2591 2978 2328 3040 
Q 2066 3103 1784 3103 
Q 1356 3103 1142 2972 
Q 928 2841 928 2578 
Q 928 2378 1081 2264 
Q 1234 2150 1697 2047 
L 1894 2003 
Q 2506 1872 2764 1633 
Q 3022 1394 3022 966 
Q 3022 478 2636 193 
Q 2250 -91 1575 -91 
Q 1294 -91 989 -36 
Q 684 19 347 128 
L 347 722 
Q 666 556 975 473 
Q 1284 391 1588 391 
Q 1994 391 2212 530 
Q 2431 669 2431 922 
Q 2431 1156 2273 1281 
Q 2116 1406 1581 1522 
L 1381 1569 
Q 847 1681 609 1914 
Q 372 2147 372 2553 
Q 372 3047 722 3315 
Q 1072 3584 1716 3584 
Q 2034 3584 2315 3537 
Q 2597 3491 2834 3397 
z
" transform="scale(0.015625)"/>
       <path id="DejaVuSans-70" d="M 1159 525 
L 1159 -1331 
L 581 -1331 
L 581 3500 
L 1159 3500 
L 1159 2969 
Q 1341 3281 1617 3432 
Q 1894 3584 2278 3584 
Q 2916 3584 3314 3078 
Q 3713 2572 3713 1747 
Q 3713 922 3314 415 
Q 2916 -91 2278 -91 
Q 1894 -91 1617 61 
Q 1341 213 1159 525 
z
M 3116 1747 
Q 3116 2381 2855 2742 
Q 2594 3103 2138 3103 
Q 1681 3103 1420 2742 
Q 1159 2381 1159 1747 
Q 1159 1113 1420 752 
Q 1681 391 2138 391 
Q 2594 391 2855 752 
Q 3116 1113 3116 1747 
z
" transform="scale(0.015625)"/>
       <path id="DejaVuSans-65" d="M 3597 1894 
L 3597 1613 
L 953 1613 
Q 991 1019 1311 708 
Q 1631 397 2203 397 
Q 2534 397 2845 478 
Q 3156 559 3463 722 
L 3463 178 
Q 3153 47 2828 -22 
Q 2503 -91 2169 -91 
Q 1331 -91 842 396 
Q 353 884 353 1716 
Q 353 2575 817 3079 
Q 1281 3584 2069 3584 
Q 2775 3584 3186 3129 
Q 3597 2675 3597 1894 
z
M 3022 2063 
Q 3016 2534 2758 2815 
Q 2500 3097 2075 3097 
Q 1594 3097 1305 2825 
Q 1016 2553 972 2059 
L 3022 2063 
z
" transform="scale(0.015625)"/>
       <path id="DejaVuSans-64" d="M 2906 2969 
L 2906 4863 
L 3481 4863 
L 3481 0 
L 2906 0 
L 2906 525 
Q 2725 213 2448 61 
Q 2172 -91 1784 -91 
Q 1150 -91 751 415 
Q 353 922 353 1747 
Q 353 2572 751 3078 
Q 1150 3584 1784 3584 
Q 2172 3584 2448 3432 
Q 2725 3281 2906 2969 
z
M 947 1747 
Q 947 1113 1208 752 
Q 1469 391 1925 391 
Q 2381 391 2643 752 
Q 2906 1113 2906 1747 
Q 2906 2381 2643 2742 
Q 2381 3103 1925 3103 
Q 1469 3103 1208 2742 
Q 947 2381 947 1747 
z
" transform="scale(0.015625)"/>
      </defs>
      <use xlink:href="#DejaVuSans-47"/>
      <use xlink:href="#DejaVuSans-6f" x="77.490234"/>
      <use xlink:href="#DejaVuSans-73" x="138.671875"/>
      <use xlink:href="#DejaVuSans-73" x="190.771484"/>
      <use xlink:href="#DejaVuSans-69" x="242.871094"/>
      <use xlink:href="#DejaVuSans-70" x="270.654297"/>
      <use xlink:href="#DejaVuSans-20" x="334.130859"/>
      <use xlink:href="#DejaVuSans-70" x="365.917969"/>
      <use xlink:href="#DejaVuSans-72" x="429.394531"/>
      <use xlink:href="#DejaVuSans-65" x="468.257812"/>
      <use xlink:href="#DejaVuSans-64" x="529.78125"/>
      <use xlink:href="#DejaVuSans-69" x="593.257812"/>
      <use xlink:href="#DejaVuSans-63" x="621.041016"/>
      <use xlink:href="#DejaVuSans-74" x="676.021484"/>
      <use xlink:href="#DejaVuSans-69" x="715.230469"/>
      <use xlink:href="#DejaVuSans-6f" x="743.013672"/>
      <use xlink:href="#DejaVuSans-6e" x="804.195312"/>
      <use xlink:href="#DejaVuSans-73" x="867.574219"/>
     </g>
    </g>
    <g id="line2d_19">
     <path d="M 1013.90625 739.702188 
L 1023.90625 739.702188 
L 1033.90625 739.702188 
" style="fill: none; stroke: #da70d6; stroke-linecap: square"/>
    </g>
    <g id="text_16">
     <!-- Centralized predictions -->
     <g transform="translate(1041.90625 743.202188) scale(0.1 -0.1)">
      <defs>
       <path id="DejaVuSans-43" d="M 4122 4306 
L 4122 3641 
Q 3803 3938 3442 4084 
Q 3081 4231 2675 4231 
Q 1875 4231 1450 3742 
Q 1025 3253 1025 2328 
Q 1025 1406 1450 917 
Q 1875 428 2675 428 
Q 3081 428 3442 575 
Q 3803 722 4122 1019 
L 4122 359 
Q 3791 134 3420 21 
Q 3050 -91 2638 -91 
Q 1578 -91 968 557 
Q 359 1206 359 2328 
Q 359 3453 968 4101 
Q 1578 4750 2638 4750 
Q 3056 4750 3426 4639 
Q 3797 4528 4122 4306 
z
" transform="scale(0.015625)"/>
       <path id="DejaVuSans-61" d="M 2194 1759 
Q 1497 1759 1228 1600 
Q 959 1441 959 1056 
Q 959 750 1161 570 
Q 1363 391 1709 391 
Q 2188 391 2477 730 
Q 2766 1069 2766 1631 
L 2766 1759 
L 2194 1759 
z
M 3341 1997 
L 3341 0 
L 2766 0 
L 2766 531 
Q 2569 213 2275 61 
Q 1981 -91 1556 -91 
Q 1019 -91 701 211 
Q 384 513 384 1019 
Q 384 1609 779 1909 
Q 1175 2209 1959 2209 
L 2766 2209 
L 2766 2266 
Q 2766 2663 2505 2880 
Q 2244 3097 1772 3097 
Q 1472 3097 1187 3025 
Q 903 2953 641 2809 
L 641 3341 
Q 956 3463 1253 3523 
Q 1550 3584 1831 3584 
Q 2591 3584 2966 3190 
Q 3341 2797 3341 1997 
z
" transform="scale(0.015625)"/>
       <path id="DejaVuSans-6c" d="M 603 4863 
L 1178 4863 
L 1178 0 
L 603 0 
L 603 4863 
z
" transform="scale(0.015625)"/>
       <path id="DejaVuSans-7a" d="M 353 3500 
L 3084 3500 
L 3084 2975 
L 922 459 
L 3084 459 
L 3084 0 
L 275 0 
L 275 525 
L 2438 3041 
L 353 3041 
L 353 3500 
z
" transform="scale(0.015625)"/>
      </defs>
      <use xlink:href="#DejaVuSans-43"/>
      <use xlink:href="#DejaVuSans-65" x="69.824219"/>
      <use xlink:href="#DejaVuSans-6e" x="131.347656"/>
      <use xlink:href="#DejaVuSans-74" x="194.726562"/>
      <use xlink:href="#DejaVuSans-72" x="233.935547"/>
      <use xlink:href="#DejaVuSans-61" x="275.048828"/>
      <use xlink:href="#DejaVuSans-6c" x="336.328125"/>
      <use xlink:href="#DejaVuSans-69" x="364.111328"/>
      <use xlink:href="#DejaVuSans-7a" x="391.894531"/>
      <use xlink:href="#DejaVuSans-65" x="444.384766"/>
      <use xlink:href="#DejaVuSans-64" x="505.908203"/>
      <use xlink:href="#DejaVuSans-20" x="569.384766"/>
      <use xlink:href="#DejaVuSans-70" x="601.171875"/>
      <use xlink:href="#DejaVuSans-72" x="664.648438"/>
      <use xlink:href="#DejaVuSans-65" x="703.511719"/>
      <use xlink:href="#DejaVuSans-64" x="765.035156"/>
      <use xlink:href="#DejaVuSans-69" x="828.511719"/>
      <use xlink:href="#DejaVuSans-63" x="856.294922"/>
      <use xlink:href="#DejaVuSans-74" x="911.275391"/>
      <use xlink:href="#DejaVuSans-69" x="950.484375"/>
      <use xlink:href="#DejaVuSans-6f" x="978.267578"/>
      <use xlink:href="#DejaVuSans-6e" x="1039.449219"/>
      <use xlink:href="#DejaVuSans-73" x="1102.828125"/>
     </g>
    </g>
    <g id="line2d_20">
     <path d="M 1013.90625 754.380312 
L 1023.90625 754.380312 
L 1033.90625 754.380312 
" style="fill: none; stroke: #8fbc8f; stroke-linecap: square"/>
    </g>
    <g id="text_17">
     <!-- Single predictions -->
     <g transform="translate(1041.90625 757.880312) scale(0.1 -0.1)">
      <defs>
       <path id="DejaVuSans-53" d="M 3425 4513 
L 3425 3897 
Q 3066 4069 2747 4153 
Q 2428 4238 2131 4238 
Q 1616 4238 1336 4038 
Q 1056 3838 1056 3469 
Q 1056 3159 1242 3001 
Q 1428 2844 1947 2747 
L 2328 2669 
Q 3034 2534 3370 2195 
Q 3706 1856 3706 1288 
Q 3706 609 3251 259 
Q 2797 -91 1919 -91 
Q 1588 -91 1214 -16 
Q 841 59 441 206 
L 441 856 
Q 825 641 1194 531 
Q 1563 422 1919 422 
Q 2459 422 2753 634 
Q 3047 847 3047 1241 
Q 3047 1584 2836 1778 
Q 2625 1972 2144 2069 
L 1759 2144 
Q 1053 2284 737 2584 
Q 422 2884 422 3419 
Q 422 4038 858 4394 
Q 1294 4750 2059 4750 
Q 2388 4750 2728 4690 
Q 3069 4631 3425 4513 
z
" transform="scale(0.015625)"/>
       <path id="DejaVuSans-67" d="M 2906 1791 
Q 2906 2416 2648 2759 
Q 2391 3103 1925 3103 
Q 1463 3103 1205 2759 
Q 947 2416 947 1791 
Q 947 1169 1205 825 
Q 1463 481 1925 481 
Q 2391 481 2648 825 
Q 2906 1169 2906 1791 
z
M 3481 434 
Q 3481 -459 3084 -895 
Q 2688 -1331 1869 -1331 
Q 1566 -1331 1297 -1286 
Q 1028 -1241 775 -1147 
L 775 -588 
Q 1028 -725 1275 -790 
Q 1522 -856 1778 -856 
Q 2344 -856 2625 -561 
Q 2906 -266 2906 331 
L 2906 616 
Q 2728 306 2450 153 
Q 2172 0 1784 0 
Q 1141 0 747 490 
Q 353 981 353 1791 
Q 353 2603 747 3093 
Q 1141 3584 1784 3584 
Q 2172 3584 2450 3431 
Q 2728 3278 2906 2969 
L 2906 3500 
L 3481 3500 
L 3481 434 
z
" transform="scale(0.015625)"/>
      </defs>
      <use xlink:href="#DejaVuSans-53"/>
      <use xlink:href="#DejaVuSans-69" x="63.476562"/>
      <use xlink:href="#DejaVuSans-6e" x="91.259766"/>
      <use xlink:href="#DejaVuSans-67" x="154.638672"/>
      <use xlink:href="#DejaVuSans-6c" x="218.115234"/>
      <use xlink:href="#DejaVuSans-65" x="245.898438"/>
      <use xlink:href="#DejaVuSans-20" x="307.421875"/>
      <use xlink:href="#DejaVuSans-70" x="339.208984"/>
      <use xlink:href="#DejaVuSans-72" x="402.685547"/>
      <use xlink:href="#DejaVuSans-65" x="441.548828"/>
      <use xlink:href="#DejaVuSans-64" x="503.072266"/>
      <use xlink:href="#DejaVuSans-69" x="566.548828"/>
      <use xlink:href="#DejaVuSans-63" x="594.332031"/>
      <use xlink:href="#DejaVuSans-74" x="649.3125"/>
      <use xlink:href="#DejaVuSans-69" x="688.521484"/>
      <use xlink:href="#DejaVuSans-6f" x="716.304688"/>
      <use xlink:href="#DejaVuSans-6e" x="777.486328"/>
      <use xlink:href="#DejaVuSans-73" x="840.865234"/>
     </g>
    </g>
   </g>
  </g>
 </g>
 <defs>
  <clipPath id="pa311793359">
   <rect x="162" y="103.68" width="1004.4" height="665.28"/>
  </clipPath>
 </defs>
</svg>
