<?xml version="1.0" encoding="utf-8" standalone="no"?>
<!DOCTYPE svg PUBLIC "-//W3C//DTD SVG 1.1//EN"
  "http://www.w3.org/Graphics/SVG/1.1/DTD/svg11.dtd">
<svg xmlns:xlink="http://www.w3.org/1999/xlink" width="576pt" height="432pt" viewBox="0 0 576 432" xmlns="http://www.w3.org/2000/svg" version="1.1">
 <metadata>
  <rdf:RDF xmlns:dc="http://purl.org/dc/elements/1.1/" xmlns:cc="http://creativecommons.org/ns#" xmlns:rdf="http://www.w3.org/1999/02/22-rdf-syntax-ns#">
   <cc:Work>
    <dc:type rdf:resource="http://purl.org/dc/dcmitype/StillImage"/>
    <dc:date>2023-12-24T18:21:27.803924</dc:date>
    <dc:format>image/svg+xml</dc:format>
    <dc:creator>
     <cc:Agent>
      <dc:title>Matplotlib v3.8.0, https://matplotlib.org/</dc:title>
     </cc:Agent>
    </dc:creator>
   </cc:Work>
  </rdf:RDF>
 </metadata>
 <defs>
  <style type="text/css">*{stroke-linejoin: round; stroke-linecap: butt}</style>
 </defs>
 <g id="figure_1">
  <g id="patch_1">
   <path d="M 0 432 
L 576 432 
L 576 0 
L 0 0 
z
" style="fill: #ffffff"/>
  </g>
  <g id="axes_1">
   <g id="patch_2">
    <path d="M 72 384.48 
L 518.4 384.48 
L 518.4 51.84 
L 72 51.84 
z
" style="fill: #ffffff"/>
   </g>
   <g id="matplotlib.axis_1">
    <g id="xtick_1">
     <g id="line2d_1">
      <defs>
       <path id="md47b64ce21" d="M 0 0 
L 0 3.5 
" style="stroke: #000000; stroke-width: 0.8"/>
      </defs>
      <g>
       <use xlink:href="#md47b64ce21" x="92.290909" y="384.48" style="stroke: #000000; stroke-width: 0.8"/>
      </g>
     </g>
     <g id="text_1">
      <!-- 0 -->
      <g transform="translate(89.109659 399.078438) scale(0.1 -0.1)">
       <defs>
        <path id="DejaVuSans-30" d="M 2034 4250 
Q 1547 4250 1301 3770 
Q 1056 3291 1056 2328 
Q 1056 1369 1301 889 
Q 1547 409 2034 409 
Q 2525 409 2770 889 
Q 3016 1369 3016 2328 
Q 3016 3291 2770 3770 
Q 2525 4250 2034 4250 
z
M 2034 4750 
Q 2819 4750 3233 4129 
Q 3647 3509 3647 2328 
Q 3647 1150 3233 529 
Q 2819 -91 2034 -91 
Q 1250 -91 836 529 
Q 422 1150 422 2328 
Q 422 3509 836 4129 
Q 1250 4750 2034 4750 
z
" transform="scale(0.015625)"/>
       </defs>
       <use xlink:href="#DejaVuSans-30"/>
      </g>
     </g>
    </g>
    <g id="xtick_2">
     <g id="line2d_2">
      <g>
       <use xlink:href="#md47b64ce21" x="173.780504" y="384.48" style="stroke: #000000; stroke-width: 0.8"/>
      </g>
     </g>
     <g id="text_2">
      <!-- 50 -->
      <g transform="translate(167.418004 399.078438) scale(0.1 -0.1)">
       <defs>
        <path id="DejaVuSans-35" d="M 691 4666 
L 3169 4666 
L 3169 4134 
L 1269 4134 
L 1269 2991 
Q 1406 3038 1543 3061 
Q 1681 3084 1819 3084 
Q 2600 3084 3056 2656 
Q 3513 2228 3513 1497 
Q 3513 744 3044 326 
Q 2575 -91 1722 -91 
Q 1428 -91 1123 -41 
Q 819 9 494 109 
L 494 744 
Q 775 591 1075 516 
Q 1375 441 1709 441 
Q 2250 441 2565 725 
Q 2881 1009 2881 1497 
Q 2881 1984 2565 2268 
Q 2250 2553 1709 2553 
Q 1456 2553 1204 2497 
Q 953 2441 691 2322 
L 691 4666 
z
" transform="scale(0.015625)"/>
       </defs>
       <use xlink:href="#DejaVuSans-35"/>
       <use xlink:href="#DejaVuSans-30" x="63.623047"/>
      </g>
     </g>
    </g>
    <g id="xtick_3">
     <g id="line2d_3">
      <g>
       <use xlink:href="#md47b64ce21" x="255.270099" y="384.48" style="stroke: #000000; stroke-width: 0.8"/>
      </g>
     </g>
     <g id="text_3">
      <!-- 100 -->
      <g transform="translate(245.726349 399.078438) scale(0.1 -0.1)">
       <defs>
        <path id="DejaVuSans-31" d="M 794 531 
L 1825 531 
L 1825 4091 
L 703 3866 
L 703 4441 
L 1819 4666 
L 2450 4666 
L 2450 531 
L 3481 531 
L 3481 0 
L 794 0 
L 794 531 
z
" transform="scale(0.015625)"/>
       </defs>
       <use xlink:href="#DejaVuSans-31"/>
       <use xlink:href="#DejaVuSans-30" x="63.623047"/>
       <use xlink:href="#DejaVuSans-30" x="127.246094"/>
      </g>
     </g>
    </g>
    <g id="xtick_4">
     <g id="line2d_4">
      <g>
       <use xlink:href="#md47b64ce21" x="336.759693" y="384.48" style="stroke: #000000; stroke-width: 0.8"/>
      </g>
     </g>
     <g id="text_4">
      <!-- 150 -->
      <g transform="translate(327.215943 399.078438) scale(0.1 -0.1)">
       <use xlink:href="#DejaVuSans-31"/>
       <use xlink:href="#DejaVuSans-35" x="63.623047"/>
       <use xlink:href="#DejaVuSans-30" x="127.246094"/>
      </g>
     </g>
    </g>
    <g id="xtick_5">
     <g id="line2d_5">
      <g>
       <use xlink:href="#md47b64ce21" x="418.249288" y="384.48" style="stroke: #000000; stroke-width: 0.8"/>
      </g>
     </g>
     <g id="text_5">
      <!-- 200 -->
      <g transform="translate(408.705538 399.078438) scale(0.1 -0.1)">
       <defs>
        <path id="DejaVuSans-32" d="M 1228 531 
L 3431 531 
L 3431 0 
L 469 0 
L 469 531 
Q 828 903 1448 1529 
Q 2069 2156 2228 2338 
Q 2531 2678 2651 2914 
Q 2772 3150 2772 3378 
Q 2772 3750 2511 3984 
Q 2250 4219 1831 4219 
Q 1534 4219 1204 4116 
Q 875 4013 500 3803 
L 500 4441 
Q 881 4594 1212 4672 
Q 1544 4750 1819 4750 
Q 2544 4750 2975 4387 
Q 3406 4025 3406 3419 
Q 3406 3131 3298 2873 
Q 3191 2616 2906 2266 
Q 2828 2175 2409 1742 
Q 1991 1309 1228 531 
z
" transform="scale(0.015625)"/>
       </defs>
       <use xlink:href="#DejaVuSans-32"/>
       <use xlink:href="#DejaVuSans-30" x="63.623047"/>
       <use xlink:href="#DejaVuSans-30" x="127.246094"/>
      </g>
     </g>
    </g>
    <g id="xtick_6">
     <g id="line2d_6">
      <g>
       <use xlink:href="#md47b64ce21" x="499.738883" y="384.48" style="stroke: #000000; stroke-width: 0.8"/>
      </g>
     </g>
     <g id="text_6">
      <!-- 250 -->
      <g transform="translate(490.195133 399.078438) scale(0.1 -0.1)">
       <use xlink:href="#DejaVuSans-32"/>
       <use xlink:href="#DejaVuSans-35" x="63.623047"/>
       <use xlink:href="#DejaVuSans-30" x="127.246094"/>
      </g>
     </g>
    </g>
    <g id="text_7">
     <!-- Epochs -->
     <g transform="translate(277.284375 412.756563) scale(0.1 -0.1)">
      <defs>
       <path id="DejaVuSans-45" d="M 628 4666 
L 3578 4666 
L 3578 4134 
L 1259 4134 
L 1259 2753 
L 3481 2753 
L 3481 2222 
L 1259 2222 
L 1259 531 
L 3634 531 
L 3634 0 
L 628 0 
L 628 4666 
z
" transform="scale(0.015625)"/>
       <path id="DejaVuSans-70" d="M 1159 525 
L 1159 -1331 
L 581 -1331 
L 581 3500 
L 1159 3500 
L 1159 2969 
Q 1341 3281 1617 3432 
Q 1894 3584 2278 3584 
Q 2916 3584 3314 3078 
Q 3713 2572 3713 1747 
Q 3713 922 3314 415 
Q 2916 -91 2278 -91 
Q 1894 -91 1617 61 
Q 1341 213 1159 525 
z
M 3116 1747 
Q 3116 2381 2855 2742 
Q 2594 3103 2138 3103 
Q 1681 3103 1420 2742 
Q 1159 2381 1159 1747 
Q 1159 1113 1420 752 
Q 1681 391 2138 391 
Q 2594 391 2855 752 
Q 3116 1113 3116 1747 
z
" transform="scale(0.015625)"/>
       <path id="DejaVuSans-6f" d="M 1959 3097 
Q 1497 3097 1228 2736 
Q 959 2375 959 1747 
Q 959 1119 1226 758 
Q 1494 397 1959 397 
Q 2419 397 2687 759 
Q 2956 1122 2956 1747 
Q 2956 2369 2687 2733 
Q 2419 3097 1959 3097 
z
M 1959 3584 
Q 2709 3584 3137 3096 
Q 3566 2609 3566 1747 
Q 3566 888 3137 398 
Q 2709 -91 1959 -91 
Q 1206 -91 779 398 
Q 353 888 353 1747 
Q 353 2609 779 3096 
Q 1206 3584 1959 3584 
z
" transform="scale(0.015625)"/>
       <path id="DejaVuSans-63" d="M 3122 3366 
L 3122 2828 
Q 2878 2963 2633 3030 
Q 2388 3097 2138 3097 
Q 1578 3097 1268 2742 
Q 959 2388 959 1747 
Q 959 1106 1268 751 
Q 1578 397 2138 397 
Q 2388 397 2633 464 
Q 2878 531 3122 666 
L 3122 134 
Q 2881 22 2623 -34 
Q 2366 -91 2075 -91 
Q 1284 -91 818 406 
Q 353 903 353 1747 
Q 353 2603 823 3093 
Q 1294 3584 2113 3584 
Q 2378 3584 2631 3529 
Q 2884 3475 3122 3366 
z
" transform="scale(0.015625)"/>
       <path id="DejaVuSans-68" d="M 3513 2113 
L 3513 0 
L 2938 0 
L 2938 2094 
Q 2938 2591 2744 2837 
Q 2550 3084 2163 3084 
Q 1697 3084 1428 2787 
Q 1159 2491 1159 1978 
L 1159 0 
L 581 0 
L 581 4863 
L 1159 4863 
L 1159 2956 
Q 1366 3272 1645 3428 
Q 1925 3584 2291 3584 
Q 2894 3584 3203 3211 
Q 3513 2838 3513 2113 
z
" transform="scale(0.015625)"/>
       <path id="DejaVuSans-73" d="M 2834 3397 
L 2834 2853 
Q 2591 2978 2328 3040 
Q 2066 3103 1784 3103 
Q 1356 3103 1142 2972 
Q 928 2841 928 2578 
Q 928 2378 1081 2264 
Q 1234 2150 1697 2047 
L 1894 2003 
Q 2506 1872 2764 1633 
Q 3022 1394 3022 966 
Q 3022 478 2636 193 
Q 2250 -91 1575 -91 
Q 1294 -91 989 -36 
Q 684 19 347 128 
L 347 722 
Q 666 556 975 473 
Q 1284 391 1588 391 
Q 1994 391 2212 530 
Q 2431 669 2431 922 
Q 2431 1156 2273 1281 
Q 2116 1406 1581 1522 
L 1381 1569 
Q 847 1681 609 1914 
Q 372 2147 372 2553 
Q 372 3047 722 3315 
Q 1072 3584 1716 3584 
Q 2034 3584 2315 3537 
Q 2597 3491 2834 3397 
z
" transform="scale(0.015625)"/>
      </defs>
      <use xlink:href="#DejaVuSans-45"/>
      <use xlink:href="#DejaVuSans-70" x="63.183594"/>
      <use xlink:href="#DejaVuSans-6f" x="126.660156"/>
      <use xlink:href="#DejaVuSans-63" x="187.841797"/>
      <use xlink:href="#DejaVuSans-68" x="242.822266"/>
      <use xlink:href="#DejaVuSans-73" x="306.201172"/>
     </g>
    </g>
   </g>
   <g id="matplotlib.axis_2">
    <g id="ytick_1">
     <g id="line2d_7">
      <defs>
       <path id="mce68dec293" d="M 0 0 
L -3.5 0 
" style="stroke: #000000; stroke-width: 0.8"/>
      </defs>
      <g>
       <use xlink:href="#mce68dec293" x="72" y="366.990489" style="stroke: #000000; stroke-width: 0.8"/>
      </g>
     </g>
     <g id="text_8">
      <!-- 200 -->
      <g transform="translate(45.9125 370.789708) scale(0.1 -0.1)">
       <use xlink:href="#DejaVuSans-32"/>
       <use xlink:href="#DejaVuSans-30" x="63.623047"/>
       <use xlink:href="#DejaVuSans-30" x="127.246094"/>
      </g>
     </g>
    </g>
    <g id="ytick_2">
     <g id="line2d_8">
      <g>
       <use xlink:href="#mce68dec293" x="72" y="295.779397" style="stroke: #000000; stroke-width: 0.8"/>
      </g>
     </g>
     <g id="text_9">
      <!-- 400 -->
      <g transform="translate(45.9125 299.578616) scale(0.1 -0.1)">
       <defs>
        <path id="DejaVuSans-34" d="M 2419 4116 
L 825 1625 
L 2419 1625 
L 2419 4116 
z
M 2253 4666 
L 3047 4666 
L 3047 1625 
L 3713 1625 
L 3713 1100 
L 3047 1100 
L 3047 0 
L 2419 0 
L 2419 1100 
L 313 1100 
L 313 1709 
L 2253 4666 
z
" transform="scale(0.015625)"/>
       </defs>
       <use xlink:href="#DejaVuSans-34"/>
       <use xlink:href="#DejaVuSans-30" x="63.623047"/>
       <use xlink:href="#DejaVuSans-30" x="127.246094"/>
      </g>
     </g>
    </g>
    <g id="ytick_3">
     <g id="line2d_9">
      <g>
       <use xlink:href="#mce68dec293" x="72" y="224.568306" style="stroke: #000000; stroke-width: 0.8"/>
      </g>
     </g>
     <g id="text_10">
      <!-- 600 -->
      <g transform="translate(45.9125 228.367524) scale(0.1 -0.1)">
       <defs>
        <path id="DejaVuSans-36" d="M 2113 2584 
Q 1688 2584 1439 2293 
Q 1191 2003 1191 1497 
Q 1191 994 1439 701 
Q 1688 409 2113 409 
Q 2538 409 2786 701 
Q 3034 994 3034 1497 
Q 3034 2003 2786 2293 
Q 2538 2584 2113 2584 
z
M 3366 4563 
L 3366 3988 
Q 3128 4100 2886 4159 
Q 2644 4219 2406 4219 
Q 1781 4219 1451 3797 
Q 1122 3375 1075 2522 
Q 1259 2794 1537 2939 
Q 1816 3084 2150 3084 
Q 2853 3084 3261 2657 
Q 3669 2231 3669 1497 
Q 3669 778 3244 343 
Q 2819 -91 2113 -91 
Q 1303 -91 875 529 
Q 447 1150 447 2328 
Q 447 3434 972 4092 
Q 1497 4750 2381 4750 
Q 2619 4750 2861 4703 
Q 3103 4656 3366 4563 
z
" transform="scale(0.015625)"/>
       </defs>
       <use xlink:href="#DejaVuSans-36"/>
       <use xlink:href="#DejaVuSans-30" x="63.623047"/>
       <use xlink:href="#DejaVuSans-30" x="127.246094"/>
      </g>
     </g>
    </g>
    <g id="ytick_4">
     <g id="line2d_10">
      <g>
       <use xlink:href="#mce68dec293" x="72" y="153.357214" style="stroke: #000000; stroke-width: 0.8"/>
      </g>
     </g>
     <g id="text_11">
      <!-- 800 -->
      <g transform="translate(45.9125 157.156432) scale(0.1 -0.1)">
       <defs>
        <path id="DejaVuSans-38" d="M 2034 2216 
Q 1584 2216 1326 1975 
Q 1069 1734 1069 1313 
Q 1069 891 1326 650 
Q 1584 409 2034 409 
Q 2484 409 2743 651 
Q 3003 894 3003 1313 
Q 3003 1734 2745 1975 
Q 2488 2216 2034 2216 
z
M 1403 2484 
Q 997 2584 770 2862 
Q 544 3141 544 3541 
Q 544 4100 942 4425 
Q 1341 4750 2034 4750 
Q 2731 4750 3128 4425 
Q 3525 4100 3525 3541 
Q 3525 3141 3298 2862 
Q 3072 2584 2669 2484 
Q 3125 2378 3379 2068 
Q 3634 1759 3634 1313 
Q 3634 634 3220 271 
Q 2806 -91 2034 -91 
Q 1263 -91 848 271 
Q 434 634 434 1313 
Q 434 1759 690 2068 
Q 947 2378 1403 2484 
z
M 1172 3481 
Q 1172 3119 1398 2916 
Q 1625 2713 2034 2713 
Q 2441 2713 2670 2916 
Q 2900 3119 2900 3481 
Q 2900 3844 2670 4047 
Q 2441 4250 2034 4250 
Q 1625 4250 1398 4047 
Q 1172 3844 1172 3481 
z
" transform="scale(0.015625)"/>
       </defs>
       <use xlink:href="#DejaVuSans-38"/>
       <use xlink:href="#DejaVuSans-30" x="63.623047"/>
       <use xlink:href="#DejaVuSans-30" x="127.246094"/>
      </g>
     </g>
    </g>
    <g id="ytick_5">
     <g id="line2d_11">
      <g>
       <use xlink:href="#mce68dec293" x="72" y="82.146122" style="stroke: #000000; stroke-width: 0.8"/>
      </g>
     </g>
     <g id="text_12">
      <!-- 1000 -->
      <g transform="translate(39.55 85.945341) scale(0.1 -0.1)">
       <use xlink:href="#DejaVuSans-31"/>
       <use xlink:href="#DejaVuSans-30" x="63.623047"/>
       <use xlink:href="#DejaVuSans-30" x="127.246094"/>
       <use xlink:href="#DejaVuSans-30" x="190.869141"/>
      </g>
     </g>
    </g>
    <g id="text_13">
     <!-- Loss -->
     <g transform="translate(33.470312 229.127187) rotate(-90) scale(0.1 -0.1)">
      <defs>
       <path id="DejaVuSans-4c" d="M 628 4666 
L 1259 4666 
L 1259 531 
L 3531 531 
L 3531 0 
L 628 0 
L 628 4666 
z
" transform="scale(0.015625)"/>
      </defs>
      <use xlink:href="#DejaVuSans-4c"/>
      <use xlink:href="#DejaVuSans-6f" x="53.962891"/>
      <use xlink:href="#DejaVuSans-73" x="115.144531"/>
      <use xlink:href="#DejaVuSans-73" x="167.244141"/>
     </g>
    </g>
   </g>
   <g id="line2d_12">
    <path d="M 92.290909 66.96 
L 93.920701 299.129707 
L 95.550493 346.671651 
L 97.180285 353.404363 
L 98.810077 351.729708 
L 100.439869 353.634063 
L 102.06966 356.716054 
L 103.699452 356.34527 
L 105.329244 357.668471 
L 106.959036 356.554679 
L 108.588828 346.409054 
L 110.21862 354.983261 
L 111.848412 356.273468 
L 113.478204 357.292113 
L 115.107996 359.9712 
L 116.737788 335.191275 
L 118.367579 356.013978 
L 119.997371 356.936264 
L 121.627163 357.55145 
L 123.256955 357.995346 
L 124.886747 355.837716 
L 126.516539 357.439797 
L 128.146331 359.333841 
L 129.776123 358.711977 
L 131.405915 358.895704 
L 133.035706 347.360167 
L 134.665498 356.463155 
L 136.29529 358.152305 
L 137.925082 360.810975 
L 139.554874 359.692602 
L 141.184666 349.380587 
L 142.814458 354.271101 
L 144.44425 354.826976 
L 146.074042 357.703123 
L 147.703834 357.210221 
L 149.333625 353.841587 
L 150.963417 358.827243 
L 152.593209 359.058395 
L 154.223001 359.646058 
L 155.852793 360.502333 
L 157.482585 358.647667 
L 159.112377 360.201857 
L 160.742169 361.378628 
L 162.371961 360.758372 
L 164.001752 361.849488 
L 165.631544 353.16278 
L 167.261336 357.802084 
L 168.891128 358.761026 
L 170.52092 358.970494 
L 172.150712 359.869717 
L 173.780504 357.540258 
L 175.410296 358.962894 
L 177.040088 361.86438 
L 178.66988 361.430676 
L 180.299671 360.390142 
L 181.929463 359.987308 
L 185.189047 360.95974 
L 186.818839 360.713675 
L 188.448631 362.415984 
L 190.078423 357.94219 
L 191.708215 362.270891 
L 193.338007 362.190293 
L 194.967798 362.296301 
L 196.59759 361.058588 
L 198.227382 361.120393 
L 199.857174 361.827435 
L 201.486966 363.06811 
L 203.116758 362.517032 
L 204.74655 363.359502 
L 206.376342 360.505017 
L 208.006134 360.655005 
L 209.635926 361.943364 
L 211.265717 362.855392 
L 212.895509 362.329621 
L 214.525301 361.453728 
L 216.155093 362.788518 
L 217.784885 362.600129 
L 219.414677 361.283823 
L 221.044469 363.390709 
L 222.674261 361.242711 
L 224.304053 363.541142 
L 225.933844 363.089852 
L 227.563636 364.485937 
L 229.193428 363.50096 
L 230.82322 359.520795 
L 232.453012 362.122261 
L 234.082804 361.815428 
L 235.712596 362.691686 
L 237.342388 362.963959 
L 238.97218 361.42652 
L 240.601972 361.835579 
L 242.231763 363.705599 
L 243.861555 361.997993 
L 245.491347 364.154194 
L 247.121139 361.266562 
L 248.750931 361.821676 
L 250.380723 363.51125 
L 252.010515 364.280049 
L 253.640307 366.542611 
L 255.270099 361.87455 
L 256.89989 362.896085 
L 258.529682 363.339823 
L 260.159474 364.136667 
L 261.789266 364.554827 
L 263.419058 360.089568 
L 265.04885 362.835372 
L 266.678642 362.365349 
L 268.308434 364.232798 
L 269.938226 364.595232 
L 271.568018 363.078595 
L 273.197809 364.059769 
L 274.827601 364.154199 
L 276.457393 365.435523 
L 278.087185 363.919381 
L 279.716977 359.152869 
L 281.346769 364.678003 
L 282.976561 363.663297 
L 284.606353 365.006264 
L 286.236145 365.085297 
L 287.865936 361.455173 
L 289.495728 363.339601 
L 291.12552 364.33032 
L 292.755312 363.534981 
L 294.385104 364.860198 
L 296.014896 358.040646 
L 297.644688 364.431607 
L 299.27448 364.071759 
L 302.534064 365.58569 
L 304.163855 362.117703 
L 305.793647 364.753668 
L 307.423439 363.557126 
L 309.053231 365.344466 
L 310.683023 366.284235 
L 312.312815 362.426616 
L 313.942607 363.936196 
L 315.572399 366.003541 
L 317.202191 365.973648 
L 318.831982 365.519663 
L 320.461774 362.861553 
L 322.091566 365.496351 
L 323.721358 364.689766 
L 325.35115 365.947059 
L 326.980942 365.066445 
L 328.610734 364.371355 
L 330.240526 363.335488 
L 331.870318 365.044936 
L 333.50011 365.27958 
L 335.129901 365.304262 
L 336.759693 363.522377 
L 338.389485 363.669013 
L 340.019277 365.723731 
L 341.649069 366.266046 
L 343.278861 366.225787 
L 344.908653 365.16087 
L 346.538445 365.368583 
L 348.168237 364.897631 
L 349.798028 366.113493 
L 351.42782 365.513606 
L 353.057612 364.529276 
L 354.687404 366.373434 
L 356.317196 366.991587 
L 357.946988 365.785999 
L 359.57678 366.798771 
L 361.206572 364.492033 
L 362.836364 365.67797 
L 364.466156 366.365154 
L 366.095947 365.19569 
L 367.725739 366.546518 
L 369.355531 364.715138 
L 370.985323 364.380559 
L 372.615115 365.680757 
L 375.874699 366.894271 
L 377.504491 363.906852 
L 379.134283 365.95585 
L 380.764074 367.014595 
L 382.393866 366.719123 
L 384.023658 367.116333 
L 385.65345 364.73104 
L 387.283242 366.099541 
L 388.913034 366.790882 
L 390.542826 366.989229 
L 392.172618 367.918588 
L 393.80241 364.958671 
L 395.432202 366.856501 
L 397.061993 366.058381 
L 398.691785 366.498485 
L 400.321577 366.08817 
L 401.951369 364.643167 
L 403.581161 366.026652 
L 405.210953 367.112215 
L 406.840745 367.393605 
L 408.470537 368.488556 
L 410.100329 365.481318 
L 411.73012 366.111657 
L 413.359912 365.291544 
L 414.989704 368.002202 
L 416.619496 367.907222 
L 418.249288 365.450398 
L 419.87908 367.448544 
L 421.508872 366.142185 
L 424.768456 368.793857 
L 426.398248 364.659765 
L 428.028039 366.155457 
L 429.657831 366.402978 
L 431.287623 368.026134 
L 432.917415 368.140395 
L 434.547207 364.407794 
L 436.176999 367.687752 
L 437.806791 368.133332 
L 439.436583 368.945274 
L 442.696166 366.188724 
L 444.325958 368.120967 
L 445.95575 367.488286 
L 447.585542 367.519748 
L 449.215334 366.77724 
L 450.845126 365.772253 
L 452.474918 367.255276 
L 454.10471 368.135114 
L 455.734502 367.663613 
L 457.364294 367.684661 
L 458.994085 363.137918 
L 460.623877 366.033482 
L 462.253669 367.412284 
L 463.883461 367.493708 
L 465.513253 368.817208 
L 467.143045 366.221359 
L 468.772837 368.000735 
L 470.402629 366.254718 
L 472.032421 366.962385 
L 473.662212 368.101478 
L 475.292004 365.081298 
L 476.921796 368.503013 
L 478.551588 367.746396 
L 480.18138 368.18958 
L 481.811172 367.30959 
L 483.440964 360.175556 
L 485.070756 366.828038 
L 486.700548 367.703475 
L 488.33034 369.048077 
L 489.960131 367.905837 
L 491.589923 365.748989 
L 493.219715 367.795792 
L 494.849507 368.263028 
L 496.479299 366.410237 
L 498.109091 369.36 
L 498.109091 369.36 
" clip-path="url(#pabf8d0d0fc)" style="fill: none; stroke: #4169e1; stroke-linecap: square"/>
   </g>
   <g id="line2d_13">
    <path d="M 92.290909 259.819111 
L 93.920701 348.011189 
L 95.550493 362.209748 
L 97.180285 363.78755 
L 98.810077 361.504706 
L 100.439869 362.581619 
L 102.06966 365.142658 
L 103.699452 365.113619 
L 105.329244 361.742197 
L 106.959036 365.393178 
L 108.588828 364.402019 
L 110.21862 365.367442 
L 111.848412 361.799439 
L 113.478204 366.220246 
L 115.107996 365.283378 
L 116.737788 357.972614 
L 118.367579 366.052291 
L 119.997371 361.586543 
L 121.627163 361.674334 
L 123.256955 366.226211 
L 124.886747 364.589592 
L 126.516539 365.861821 
L 128.146331 365.757796 
L 129.776123 363.68052 
L 131.405915 362.340308 
L 133.035706 364.261609 
L 134.665498 363.725097 
L 136.29529 365.010626 
L 137.925082 365.734608 
L 139.554874 366.070583 
L 141.184666 363.105434 
L 142.814458 365.272306 
L 144.44425 365.659476 
L 146.074042 365.610965 
L 147.703834 365.966977 
L 149.333625 362.247948 
L 150.963417 364.541695 
L 152.593209 363.795221 
L 154.223001 365.789949 
L 155.852793 365.813702 
L 157.482585 364.735294 
L 159.112377 365.961218 
L 160.742169 366.185822 
L 164.001752 366.341287 
L 165.631544 365.897891 
L 167.261336 360.690341 
L 168.891128 366.123962 
L 170.52092 365.790285 
L 172.150712 366.141169 
L 173.780504 363.822951 
L 175.410296 364.51384 
L 177.040088 365.686244 
L 178.66988 364.920803 
L 180.299671 363.599128 
L 181.929463 361.99501 
L 183.559255 362.606953 
L 185.189047 365.505511 
L 186.818839 364.304845 
L 188.448631 363.865225 
L 190.078423 365.951297 
L 191.708215 364.226099 
L 193.338007 364.960333 
L 194.967798 361.334322 
L 196.59759 361.498572 
L 198.227382 365.908328 
L 199.857174 359.907813 
L 201.486966 363.285081 
L 203.116758 365.434882 
L 204.74655 361.828131 
L 206.376342 365.264678 
L 208.006134 365.086373 
L 209.635926 365.999178 
L 211.265717 365.204399 
L 212.895509 363.650807 
L 214.525301 365.065869 
L 216.155093 365.954106 
L 217.784885 364.451611 
L 219.414677 364.706075 
L 221.044469 367.0166 
L 222.674261 365.367491 
L 224.304053 363.937136 
L 225.933844 364.192149 
L 227.563636 366.673024 
L 229.193428 366.150367 
L 230.82322 365.262385 
L 232.453012 363.497641 
L 234.082804 366.637661 
L 235.712596 366.792474 
L 237.342388 363.738234 
L 238.97218 366.920627 
L 240.601972 359.090846 
L 242.231763 361.849374 
L 243.861555 366.030254 
L 245.491347 364.924182 
L 247.121139 365.167541 
L 248.750931 358.216028 
L 250.380723 359.437176 
L 252.010515 366.369587 
L 253.640307 365.151237 
L 255.270099 366.375026 
L 256.89989 365.342826 
L 258.529682 366.556509 
L 260.159474 366.403163 
L 261.789266 363.370493 
L 263.419058 365.574189 
L 265.04885 367.176216 
L 266.678642 366.408433 
L 268.308434 366.750922 
L 269.938226 367.495772 
L 271.568018 366.761674 
L 273.197809 357.673937 
L 274.827601 366.833786 
L 276.457393 366.35588 
L 278.087185 367.540953 
L 279.716977 364.879844 
L 281.346769 366.855659 
L 282.976561 367.038256 
L 284.606353 365.578421 
L 286.236145 367.975178 
L 287.865936 365.618147 
L 289.495728 362.08699 
L 291.12552 366.991793 
L 292.755312 367.393415 
L 296.014896 367.311263 
L 297.644688 367.187967 
L 299.27448 366.200307 
L 300.904272 367.532836 
L 302.534064 366.515158 
L 304.163855 367.305732 
L 305.793647 363.480673 
L 307.423439 366.980482 
L 309.053231 368.175943 
L 310.683023 364.483981 
L 312.312815 366.357906 
L 315.572399 366.216426 
L 317.202191 367.957554 
L 318.831982 366.261601 
L 320.461774 365.098499 
L 322.091566 368.048599 
L 323.721358 366.986632 
L 325.35115 366.895021 
L 326.980942 367.692647 
L 328.610734 367.006854 
L 330.240526 367.475225 
L 331.870318 365.035303 
L 333.50011 365.089296 
L 335.129901 367.580902 
L 336.759693 366.650798 
L 338.389485 367.970055 
L 340.019277 367.550086 
L 341.649069 367.271347 
L 343.278861 366.447784 
L 344.908653 368.195991 
L 346.538445 366.737063 
L 348.168237 363.685621 
L 349.798028 365.611747 
L 351.42782 364.382688 
L 353.057612 361.979999 
L 354.687404 365.032755 
L 357.946988 366.88258 
L 359.57678 366.381132 
L 361.206572 367.578614 
L 362.836364 367.170294 
L 364.466156 368.548884 
L 366.095947 367.597423 
L 367.725739 367.30909 
L 369.355531 365.607591 
L 370.985323 360.286926 
L 372.615115 365.834917 
L 374.244907 363.802338 
L 375.874699 367.166849 
L 377.504491 367.901485 
L 379.134283 368.287906 
L 380.764074 367.993275 
L 382.393866 366.546512 
L 384.023658 367.541719 
L 385.65345 367.779059 
L 387.283242 364.277756 
L 388.913034 365.849603 
L 390.542826 368.221623 
L 392.172618 368.08161 
L 393.80241 367.450722 
L 395.432202 364.345407 
L 397.061993 368.001734 
L 398.691785 367.626979 
L 400.321577 364.638299 
L 403.581161 365.339577 
L 405.210953 368.685491 
L 406.840745 368.055999 
L 408.470537 367.167686 
L 410.100329 367.66288 
L 411.73012 366.1265 
L 414.989704 368.608413 
L 416.619496 365.485387 
L 418.249288 368.59727 
L 419.87908 368.838081 
L 421.508872 367.334049 
L 423.138664 365.192631 
L 424.768456 367.351299 
L 426.398248 368.396652 
L 428.028039 367.649841 
L 429.657831 367.373748 
L 431.287623 368.399711 
L 432.917415 367.882464 
L 434.547207 366.481213 
L 436.176999 367.847943 
L 439.436583 367.97175 
L 442.696166 368.711987 
L 444.325958 367.677402 
L 445.95575 365.76387 
L 447.585542 367.807641 
L 450.845126 368.287993 
L 452.474918 368.276149 
L 454.10471 366.270484 
L 455.734502 368.310496 
L 457.364294 368.560521 
L 458.994085 366.895119 
L 460.623877 367.533325 
L 462.253669 366.736443 
L 463.883461 366.770378 
L 465.513253 368.908699 
L 467.143045 366.082721 
L 468.772837 367.715884 
L 470.402629 368.667931 
L 472.032421 366.777919 
L 473.662212 368.416874 
L 475.292004 366.519907 
L 476.921796 367.893537 
L 478.551588 366.182378 
L 480.18138 366.194537 
L 481.811172 368.082083 
L 483.440964 368.313815 
L 485.070756 368.713237 
L 486.700548 368.408605 
L 488.33034 367.649292 
L 489.960131 366.446909 
L 491.589923 369.252193 
L 493.219715 368.413712 
L 494.849507 366.854078 
L 496.479299 364.102184 
L 498.109091 367.898019 
L 498.109091 367.898019 
" clip-path="url(#pabf8d0d0fc)" style="fill: none; stroke: #ff6347; stroke-linecap: square"/>
   </g>
   <g id="patch_3">
    <path d="M 72 384.48 
L 72 51.84 
" style="fill: none; stroke: #000000; stroke-width: 0.8; stroke-linejoin: miter; stroke-linecap: square"/>
   </g>
   <g id="patch_4">
    <path d="M 518.4 384.48 
L 518.4 51.84 
" style="fill: none; stroke: #000000; stroke-width: 0.8; stroke-linejoin: miter; stroke-linecap: square"/>
   </g>
   <g id="patch_5">
    <path d="M 72 384.48 
L 518.4 384.48 
" style="fill: none; stroke: #000000; stroke-width: 0.8; stroke-linejoin: miter; stroke-linecap: square"/>
   </g>
   <g id="patch_6">
    <path d="M 72 51.84 
L 518.4 51.84 
" style="fill: none; stroke: #000000; stroke-width: 0.8; stroke-linejoin: miter; stroke-linecap: square"/>
   </g>
   <g id="legend_1">
    <g id="patch_7">
     <path d="M 430.01875 89.19625 
L 511.4 89.19625 
Q 513.4 89.19625 513.4 87.19625 
L 513.4 58.84 
Q 513.4 56.84 511.4 56.84 
L 430.01875 56.84 
Q 428.01875 56.84 428.01875 58.84 
L 428.01875 87.19625 
Q 428.01875 89.19625 430.01875 89.19625 
z
" style="fill: #ffffff; opacity: 0.8; stroke: #cccccc; stroke-linejoin: miter"/>
    </g>
    <g id="line2d_14">
     <path d="M 432.01875 64.938437 
L 442.01875 64.938437 
L 452.01875 64.938437 
" style="fill: none; stroke: #4169e1; stroke-linecap: square"/>
    </g>
    <g id="text_14">
     <!-- Training -->
     <g transform="translate(460.01875 68.438437) scale(0.1 -0.1)">
      <defs>
       <path id="DejaVuSans-54" d="M -19 4666 
L 3928 4666 
L 3928 4134 
L 2272 4134 
L 2272 0 
L 1638 0 
L 1638 4134 
L -19 4134 
L -19 4666 
z
" transform="scale(0.015625)"/>
       <path id="DejaVuSans-72" d="M 2631 2963 
Q 2534 3019 2420 3045 
Q 2306 3072 2169 3072 
Q 1681 3072 1420 2755 
Q 1159 2438 1159 1844 
L 1159 0 
L 581 0 
L 581 3500 
L 1159 3500 
L 1159 2956 
Q 1341 3275 1631 3429 
Q 1922 3584 2338 3584 
Q 2397 3584 2469 3576 
Q 2541 3569 2628 3553 
L 2631 2963 
z
" transform="scale(0.015625)"/>
       <path id="DejaVuSans-61" d="M 2194 1759 
Q 1497 1759 1228 1600 
Q 959 1441 959 1056 
Q 959 750 1161 570 
Q 1363 391 1709 391 
Q 2188 391 2477 730 
Q 2766 1069 2766 1631 
L 2766 1759 
L 2194 1759 
z
M 3341 1997 
L 3341 0 
L 2766 0 
L 2766 531 
Q 2569 213 2275 61 
Q 1981 -91 1556 -91 
Q 1019 -91 701 211 
Q 384 513 384 1019 
Q 384 1609 779 1909 
Q 1175 2209 1959 2209 
L 2766 2209 
L 2766 2266 
Q 2766 2663 2505 2880 
Q 2244 3097 1772 3097 
Q 1472 3097 1187 3025 
Q 903 2953 641 2809 
L 641 3341 
Q 956 3463 1253 3523 
Q 1550 3584 1831 3584 
Q 2591 3584 2966 3190 
Q 3341 2797 3341 1997 
z
" transform="scale(0.015625)"/>
       <path id="DejaVuSans-69" d="M 603 3500 
L 1178 3500 
L 1178 0 
L 603 0 
L 603 3500 
z
M 603 4863 
L 1178 4863 
L 1178 4134 
L 603 4134 
L 603 4863 
z
" transform="scale(0.015625)"/>
       <path id="DejaVuSans-6e" d="M 3513 2113 
L 3513 0 
L 2938 0 
L 2938 2094 
Q 2938 2591 2744 2837 
Q 2550 3084 2163 3084 
Q 1697 3084 1428 2787 
Q 1159 2491 1159 1978 
L 1159 0 
L 581 0 
L 581 3500 
L 1159 3500 
L 1159 2956 
Q 1366 3272 1645 3428 
Q 1925 3584 2291 3584 
Q 2894 3584 3203 3211 
Q 3513 2838 3513 2113 
z
" transform="scale(0.015625)"/>
       <path id="DejaVuSans-67" d="M 2906 1791 
Q 2906 2416 2648 2759 
Q 2391 3103 1925 3103 
Q 1463 3103 1205 2759 
Q 947 2416 947 1791 
Q 947 1169 1205 825 
Q 1463 481 1925 481 
Q 2391 481 2648 825 
Q 2906 1169 2906 1791 
z
M 3481 434 
Q 3481 -459 3084 -895 
Q 2688 -1331 1869 -1331 
Q 1566 -1331 1297 -1286 
Q 1028 -1241 775 -1147 
L 775 -588 
Q 1028 -725 1275 -790 
Q 1522 -856 1778 -856 
Q 2344 -856 2625 -561 
Q 2906 -266 2906 331 
L 2906 616 
Q 2728 306 2450 153 
Q 2172 0 1784 0 
Q 1141 0 747 490 
Q 353 981 353 1791 
Q 353 2603 747 3093 
Q 1141 3584 1784 3584 
Q 2172 3584 2450 3431 
Q 2728 3278 2906 2969 
L 2906 3500 
L 3481 3500 
L 3481 434 
z
" transform="scale(0.015625)"/>
      </defs>
      <use xlink:href="#DejaVuSans-54"/>
      <use xlink:href="#DejaVuSans-72" x="46.333984"/>
      <use xlink:href="#DejaVuSans-61" x="87.447266"/>
      <use xlink:href="#DejaVuSans-69" x="148.726562"/>
      <use xlink:href="#DejaVuSans-6e" x="176.509766"/>
      <use xlink:href="#DejaVuSans-69" x="239.888672"/>
      <use xlink:href="#DejaVuSans-6e" x="267.671875"/>
      <use xlink:href="#DejaVuSans-67" x="331.050781"/>
     </g>
    </g>
    <g id="line2d_15">
     <path d="M 432.01875 79.616562 
L 442.01875 79.616562 
L 452.01875 79.616562 
" style="fill: none; stroke: #ff6347; stroke-linecap: square"/>
    </g>
    <g id="text_15">
     <!-- Validation -->
     <g transform="translate(460.01875 83.116562) scale(0.1 -0.1)">
      <defs>
       <path id="DejaVuSans-56" d="M 1831 0 
L 50 4666 
L 709 4666 
L 2188 738 
L 3669 4666 
L 4325 4666 
L 2547 0 
L 1831 0 
z
" transform="scale(0.015625)"/>
       <path id="DejaVuSans-6c" d="M 603 4863 
L 1178 4863 
L 1178 0 
L 603 0 
L 603 4863 
z
" transform="scale(0.015625)"/>
       <path id="DejaVuSans-64" d="M 2906 2969 
L 2906 4863 
L 3481 4863 
L 3481 0 
L 2906 0 
L 2906 525 
Q 2725 213 2448 61 
Q 2172 -91 1784 -91 
Q 1150 -91 751 415 
Q 353 922 353 1747 
Q 353 2572 751 3078 
Q 1150 3584 1784 3584 
Q 2172 3584 2448 3432 
Q 2725 3281 2906 2969 
z
M 947 1747 
Q 947 1113 1208 752 
Q 1469 391 1925 391 
Q 2381 391 2643 752 
Q 2906 1113 2906 1747 
Q 2906 2381 2643 2742 
Q 2381 3103 1925 3103 
Q 1469 3103 1208 2742 
Q 947 2381 947 1747 
z
" transform="scale(0.015625)"/>
       <path id="DejaVuSans-74" d="M 1172 4494 
L 1172 3500 
L 2356 3500 
L 2356 3053 
L 1172 3053 
L 1172 1153 
Q 1172 725 1289 603 
Q 1406 481 1766 481 
L 2356 481 
L 2356 0 
L 1766 0 
Q 1100 0 847 248 
Q 594 497 594 1153 
L 594 3053 
L 172 3053 
L 172 3500 
L 594 3500 
L 594 4494 
L 1172 4494 
z
" transform="scale(0.015625)"/>
      </defs>
      <use xlink:href="#DejaVuSans-56"/>
      <use xlink:href="#DejaVuSans-61" x="60.658203"/>
      <use xlink:href="#DejaVuSans-6c" x="121.9375"/>
      <use xlink:href="#DejaVuSans-69" x="149.720703"/>
      <use xlink:href="#DejaVuSans-64" x="177.503906"/>
      <use xlink:href="#DejaVuSans-61" x="240.980469"/>
      <use xlink:href="#DejaVuSans-74" x="302.259766"/>
      <use xlink:href="#DejaVuSans-69" x="341.46875"/>
      <use xlink:href="#DejaVuSans-6f" x="369.251953"/>
      <use xlink:href="#DejaVuSans-6e" x="430.433594"/>
     </g>
    </g>
   </g>
  </g>
 </g>
 <defs>
  <clipPath id="pabf8d0d0fc">
   <rect x="72" y="51.84" width="446.4" height="332.64"/>
  </clipPath>
 </defs>
</svg>
