<?xml version="1.0" encoding="utf-8" standalone="no"?>
<!DOCTYPE svg PUBLIC "-//W3C//DTD SVG 1.1//EN"
  "http://www.w3.org/Graphics/SVG/1.1/DTD/svg11.dtd">
<svg xmlns:xlink="http://www.w3.org/1999/xlink" width="1296pt" height="864pt" viewBox="0 0 1296 864" xmlns="http://www.w3.org/2000/svg" version="1.1">
 <metadata>
  <rdf:RDF xmlns:dc="http://purl.org/dc/elements/1.1/" xmlns:cc="http://creativecommons.org/ns#" xmlns:rdf="http://www.w3.org/1999/02/22-rdf-syntax-ns#">
   <cc:Work>
    <dc:type rdf:resource="http://purl.org/dc/dcmitype/StillImage"/>
    <dc:date>2023-12-18T18:14:05.507478</dc:date>
    <dc:format>image/svg+xml</dc:format>
    <dc:creator>
     <cc:Agent>
      <dc:title>Matplotlib v3.8.0, https://matplotlib.org/</dc:title>
     </cc:Agent>
    </dc:creator>
   </cc:Work>
  </rdf:RDF>
 </metadata>
 <defs>
  <style type="text/css">*{stroke-linejoin: round; stroke-linecap: butt}</style>
 </defs>
 <g id="figure_1">
  <g id="patch_1">
   <path d="M 0 864 
L 1296 864 
L 1296 0 
L 0 0 
z
" style="fill: #ffffff"/>
  </g>
  <g id="axes_1">
   <g id="patch_2">
    <path d="M 162 406.08 
L 618.545455 406.08 
L 618.545455 103.68 
L 162 103.68 
z
" style="fill: #ffffff"/>
   </g>
   <g id="matplotlib.axis_1">
    <g id="xtick_1">
     <g id="line2d_1">
      <defs>
       <path id="m96a7c8eca4" d="M 0 0 
L 0 3.5 
" style="stroke: #000000; stroke-width: 0.8"/>
      </defs>
      <g>
       <use xlink:href="#m96a7c8eca4" x="182.752066" y="406.08" style="stroke: #000000; stroke-width: 0.8"/>
      </g>
     </g>
     <g id="text_1">
      <!-- 0 -->
      <g transform="translate(179.570816 420.678437) scale(0.1 -0.1)">
       <defs>
        <path id="DejaVuSans-30" d="M 2034 4250 
Q 1547 4250 1301 3770 
Q 1056 3291 1056 2328 
Q 1056 1369 1301 889 
Q 1547 409 2034 409 
Q 2525 409 2770 889 
Q 3016 1369 3016 2328 
Q 3016 3291 2770 3770 
Q 2525 4250 2034 4250 
z
M 2034 4750 
Q 2819 4750 3233 4129 
Q 3647 3509 3647 2328 
Q 3647 1150 3233 529 
Q 2819 -91 2034 -91 
Q 1250 -91 836 529 
Q 422 1150 422 2328 
Q 422 3509 836 4129 
Q 1250 4750 2034 4750 
z
" transform="scale(0.015625)"/>
       </defs>
       <use xlink:href="#DejaVuSans-30"/>
      </g>
     </g>
    </g>
    <g id="xtick_2">
     <g id="line2d_2">
      <g>
       <use xlink:href="#m96a7c8eca4" x="266.598798" y="406.08" style="stroke: #000000; stroke-width: 0.8"/>
      </g>
     </g>
     <g id="text_2">
      <!-- 20 -->
      <g transform="translate(260.236298 420.678437) scale(0.1 -0.1)">
       <defs>
        <path id="DejaVuSans-32" d="M 1228 531 
L 3431 531 
L 3431 0 
L 469 0 
L 469 531 
Q 828 903 1448 1529 
Q 2069 2156 2228 2338 
Q 2531 2678 2651 2914 
Q 2772 3150 2772 3378 
Q 2772 3750 2511 3984 
Q 2250 4219 1831 4219 
Q 1534 4219 1204 4116 
Q 875 4013 500 3803 
L 500 4441 
Q 881 4594 1212 4672 
Q 1544 4750 1819 4750 
Q 2544 4750 2975 4387 
Q 3406 4025 3406 3419 
Q 3406 3131 3298 2873 
Q 3191 2616 2906 2266 
Q 2828 2175 2409 1742 
Q 1991 1309 1228 531 
z
" transform="scale(0.015625)"/>
       </defs>
       <use xlink:href="#DejaVuSans-32"/>
       <use xlink:href="#DejaVuSans-30" x="63.623047"/>
      </g>
     </g>
    </g>
    <g id="xtick_3">
     <g id="line2d_3">
      <g>
       <use xlink:href="#m96a7c8eca4" x="350.44553" y="406.08" style="stroke: #000000; stroke-width: 0.8"/>
      </g>
     </g>
     <g id="text_3">
      <!-- 40 -->
      <g transform="translate(344.08303 420.678437) scale(0.1 -0.1)">
       <defs>
        <path id="DejaVuSans-34" d="M 2419 4116 
L 825 1625 
L 2419 1625 
L 2419 4116 
z
M 2253 4666 
L 3047 4666 
L 3047 1625 
L 3713 1625 
L 3713 1100 
L 3047 1100 
L 3047 0 
L 2419 0 
L 2419 1100 
L 313 1100 
L 313 1709 
L 2253 4666 
z
" transform="scale(0.015625)"/>
       </defs>
       <use xlink:href="#DejaVuSans-34"/>
       <use xlink:href="#DejaVuSans-30" x="63.623047"/>
      </g>
     </g>
    </g>
    <g id="xtick_4">
     <g id="line2d_4">
      <g>
       <use xlink:href="#m96a7c8eca4" x="434.292261" y="406.08" style="stroke: #000000; stroke-width: 0.8"/>
      </g>
     </g>
     <g id="text_4">
      <!-- 60 -->
      <g transform="translate(427.929761 420.678437) scale(0.1 -0.1)">
       <defs>
        <path id="DejaVuSans-36" d="M 2113 2584 
Q 1688 2584 1439 2293 
Q 1191 2003 1191 1497 
Q 1191 994 1439 701 
Q 1688 409 2113 409 
Q 2538 409 2786 701 
Q 3034 994 3034 1497 
Q 3034 2003 2786 2293 
Q 2538 2584 2113 2584 
z
M 3366 4563 
L 3366 3988 
Q 3128 4100 2886 4159 
Q 2644 4219 2406 4219 
Q 1781 4219 1451 3797 
Q 1122 3375 1075 2522 
Q 1259 2794 1537 2939 
Q 1816 3084 2150 3084 
Q 2853 3084 3261 2657 
Q 3669 2231 3669 1497 
Q 3669 778 3244 343 
Q 2819 -91 2113 -91 
Q 1303 -91 875 529 
Q 447 1150 447 2328 
Q 447 3434 972 4092 
Q 1497 4750 2381 4750 
Q 2619 4750 2861 4703 
Q 3103 4656 3366 4563 
z
" transform="scale(0.015625)"/>
       </defs>
       <use xlink:href="#DejaVuSans-36"/>
       <use xlink:href="#DejaVuSans-30" x="63.623047"/>
      </g>
     </g>
    </g>
    <g id="xtick_5">
     <g id="line2d_5">
      <g>
       <use xlink:href="#m96a7c8eca4" x="518.138993" y="406.08" style="stroke: #000000; stroke-width: 0.8"/>
      </g>
     </g>
     <g id="text_5">
      <!-- 80 -->
      <g transform="translate(511.776493 420.678437) scale(0.1 -0.1)">
       <defs>
        <path id="DejaVuSans-38" d="M 2034 2216 
Q 1584 2216 1326 1975 
Q 1069 1734 1069 1313 
Q 1069 891 1326 650 
Q 1584 409 2034 409 
Q 2484 409 2743 651 
Q 3003 894 3003 1313 
Q 3003 1734 2745 1975 
Q 2488 2216 2034 2216 
z
M 1403 2484 
Q 997 2584 770 2862 
Q 544 3141 544 3541 
Q 544 4100 942 4425 
Q 1341 4750 2034 4750 
Q 2731 4750 3128 4425 
Q 3525 4100 3525 3541 
Q 3525 3141 3298 2862 
Q 3072 2584 2669 2484 
Q 3125 2378 3379 2068 
Q 3634 1759 3634 1313 
Q 3634 634 3220 271 
Q 2806 -91 2034 -91 
Q 1263 -91 848 271 
Q 434 634 434 1313 
Q 434 1759 690 2068 
Q 947 2378 1403 2484 
z
M 1172 3481 
Q 1172 3119 1398 2916 
Q 1625 2713 2034 2713 
Q 2441 2713 2670 2916 
Q 2900 3119 2900 3481 
Q 2900 3844 2670 4047 
Q 2441 4250 2034 4250 
Q 1625 4250 1398 4047 
Q 1172 3844 1172 3481 
z
" transform="scale(0.015625)"/>
       </defs>
       <use xlink:href="#DejaVuSans-38"/>
       <use xlink:href="#DejaVuSans-30" x="63.623047"/>
      </g>
     </g>
    </g>
    <g id="xtick_6">
     <g id="line2d_6">
      <g>
       <use xlink:href="#m96a7c8eca4" x="601.985725" y="406.08" style="stroke: #000000; stroke-width: 0.8"/>
      </g>
     </g>
     <g id="text_6">
      <!-- 100 -->
      <g transform="translate(592.441975 420.678437) scale(0.1 -0.1)">
       <defs>
        <path id="DejaVuSans-31" d="M 794 531 
L 1825 531 
L 1825 4091 
L 703 3866 
L 703 4441 
L 1819 4666 
L 2450 4666 
L 2450 531 
L 3481 531 
L 3481 0 
L 794 0 
L 794 531 
z
" transform="scale(0.015625)"/>
       </defs>
       <use xlink:href="#DejaVuSans-31"/>
       <use xlink:href="#DejaVuSans-30" x="63.623047"/>
       <use xlink:href="#DejaVuSans-30" x="127.246094"/>
      </g>
     </g>
    </g>
   </g>
   <g id="matplotlib.axis_2">
    <g id="ytick_1">
     <g id="line2d_7">
      <defs>
       <path id="m2f1b156c39" d="M 0 0 
L -3.5 0 
" style="stroke: #000000; stroke-width: 0.8"/>
      </defs>
      <g>
       <use xlink:href="#m2f1b156c39" x="162" y="396.916024" style="stroke: #000000; stroke-width: 0.8"/>
      </g>
     </g>
     <g id="text_7">
      <!-- 0 -->
      <g transform="translate(148.6375 400.715243) scale(0.1 -0.1)">
       <use xlink:href="#DejaVuSans-30"/>
      </g>
     </g>
    </g>
    <g id="ytick_2">
     <g id="line2d_8">
      <g>
       <use xlink:href="#m2f1b156c39" x="162" y="342.458659" style="stroke: #000000; stroke-width: 0.8"/>
      </g>
     </g>
     <g id="text_8">
      <!-- 2 -->
      <g transform="translate(148.6375 346.257877) scale(0.1 -0.1)">
       <use xlink:href="#DejaVuSans-32"/>
      </g>
     </g>
    </g>
    <g id="ytick_3">
     <g id="line2d_9">
      <g>
       <use xlink:href="#m2f1b156c39" x="162" y="288.001293" style="stroke: #000000; stroke-width: 0.8"/>
      </g>
     </g>
     <g id="text_9">
      <!-- 4 -->
      <g transform="translate(148.6375 291.800512) scale(0.1 -0.1)">
       <use xlink:href="#DejaVuSans-34"/>
      </g>
     </g>
    </g>
    <g id="ytick_4">
     <g id="line2d_10">
      <g>
       <use xlink:href="#m2f1b156c39" x="162" y="233.543928" style="stroke: #000000; stroke-width: 0.8"/>
      </g>
     </g>
     <g id="text_10">
      <!-- 6 -->
      <g transform="translate(148.6375 237.343147) scale(0.1 -0.1)">
       <use xlink:href="#DejaVuSans-36"/>
      </g>
     </g>
    </g>
    <g id="ytick_5">
     <g id="line2d_11">
      <g>
       <use xlink:href="#m2f1b156c39" x="162" y="179.086563" style="stroke: #000000; stroke-width: 0.8"/>
      </g>
     </g>
     <g id="text_11">
      <!-- 8 -->
      <g transform="translate(148.6375 182.885782) scale(0.1 -0.1)">
       <use xlink:href="#DejaVuSans-38"/>
      </g>
     </g>
    </g>
    <g id="ytick_6">
     <g id="line2d_12">
      <g>
       <use xlink:href="#m2f1b156c39" x="162" y="124.629198" style="stroke: #000000; stroke-width: 0.8"/>
      </g>
     </g>
     <g id="text_12">
      <!-- 10 -->
      <g transform="translate(142.275 128.428416) scale(0.1 -0.1)">
       <use xlink:href="#DejaVuSans-31"/>
       <use xlink:href="#DejaVuSans-30" x="63.623047"/>
      </g>
     </g>
    </g>
   </g>
   <g id="line2d_13">
    <path d="M 182.752066 117.425455 
L 186.944403 160.840253 
L 191.136739 117.494631 
L 195.329076 152.372422 
L 199.521412 355.063914 
L 203.713749 325.723983 
L 207.906086 354.470133 
L 212.098422 354.270399 
L 216.290759 376.075447 
L 220.483095 355.893959 
L 224.675432 354.3024 
L 228.867769 357.119807 
L 233.060105 354.166523 
L 237.252442 376.71495 
L 241.444778 385.026494 
L 245.637115 379.134391 
L 249.829452 351.977321 
L 254.021788 351.651042 
L 258.214125 377.631196 
L 262.406461 377.802783 
L 266.598798 386.201335 
L 270.791134 389.649349 
L 274.983471 387.288314 
L 279.175808 386.273994 
L 283.368144 388.014495 
L 287.560481 390.10158 
L 291.752817 389.541825 
L 295.945154 390.362951 
L 300.137491 390.203289 
L 304.329827 389.86912 
L 308.522164 390.322502 
L 312.7145 389.08383 
L 316.906837 390.648137 
L 321.099174 390.718416 
L 325.29151 390.352104 
L 329.483847 390.816984 
L 333.676183 390.281752 
L 337.86852 390.632705 
L 342.060856 390.748119 
L 346.253193 390.656187 
L 350.44553 390.397077 
L 354.637866 390.528927 
L 358.830203 390.933164 
L 363.022539 390.601661 
L 367.214876 390.66522 
L 371.407213 390.819334 
L 375.599549 390.756518 
L 379.791886 390.715429 
L 383.984222 390.41676 
L 388.176559 390.731188 
L 392.368896 390.772626 
L 396.561232 390.628183 
L 400.753569 390.625277 
L 404.945905 390.516322 
L 409.138242 390.57404 
L 413.330579 390.485174 
L 417.522915 390.651293 
L 421.715252 390.755369 
L 425.907588 390.822656 
L 430.099925 390.765013 
L 434.292261 390.888749 
L 438.484598 390.59044 
L 442.676935 390.699376 
L 446.869271 390.568505 
L 451.061608 390.844697 
L 455.253944 390.669364 
L 459.446281 390.677631 
L 463.638618 390.669124 
L 467.830954 390.638724 
L 472.023291 390.704969 
L 476.215627 390.68059 
L 480.407964 390.854807 
L 484.600301 390.771899 
L 488.792637 390.64538 
L 492.984974 390.675635 
L 497.17731 390.723108 
L 501.369647 390.853274 
L 505.561983 391.003291 
L 509.75432 390.609056 
L 513.946657 390.853026 
L 518.138993 390.610359 
L 522.33133 390.64843 
L 526.523666 390.893815 
L 530.716003 390.749946 
L 534.90834 390.875678 
L 539.100676 390.577638 
L 543.293013 390.611307 
L 547.485349 390.652031 
L 551.677686 390.644154 
L 555.870023 390.852125 
L 560.062359 390.74871 
L 564.254696 390.831243 
L 568.447032 390.693446 
L 572.639369 390.778007 
L 576.831705 390.714486 
L 581.024042 390.942944 
L 585.216379 390.987448 
L 589.408715 391.013361 
L 593.601052 391.037936 
L 597.793388 391.077035 
" clip-path="url(#pfa340e4376)" style="fill: none; stroke: #4169e1; stroke-linecap: square"/>
   </g>
   <g id="line2d_14">
    <path d="M 182.752066 284.511523 
L 186.944403 322.242587 
L 191.136739 284.381271 
L 195.329076 325.659857 
L 199.521412 370.994465 
L 203.713749 348.286892 
L 207.906086 370.461579 
L 212.098422 370.879273 
L 216.290759 383.900426 
L 220.483095 371.859463 
L 224.675432 370.904969 
L 228.867769 372.420576 
L 233.060105 370.758033 
L 237.252442 383.584727 
L 241.444778 389.448223 
L 245.637115 384.649619 
L 249.829452 366.572103 
L 254.021788 366.365641 
L 258.214125 385.463112 
L 262.406461 385.656139 
L 266.598798 390.077758 
L 270.791134 391.92541 
L 274.983471 390.858441 
L 279.175808 390.391414 
L 283.368144 391.230528 
L 287.560481 391.7717 
L 291.752817 391.819431 
L 295.945154 392.052242 
L 300.137491 392.124081 
L 304.329827 391.500506 
L 308.522164 391.962012 
L 312.7145 391.672762 
L 316.906837 391.933607 
L 321.099174 392.062922 
L 325.29151 391.897825 
L 329.483847 391.767851 
L 333.676183 392.120748 
L 337.86852 392.028571 
L 342.060856 391.734299 
L 346.253193 392.25792 
L 350.44553 391.740931 
L 354.637866 392.084835 
L 358.830203 392.152808 
L 363.022539 392.115266 
L 367.214876 391.880802 
L 371.407213 391.925334 
L 375.599549 392.247408 
L 379.791886 391.875778 
L 383.984222 392.13157 
L 388.176559 392.264903 
L 392.368896 391.959175 
L 396.561232 392.27025 
L 400.753569 392.125564 
L 404.945905 392.086103 
L 409.138242 392.203568 
L 413.330579 392.171391 
L 417.522915 392.101655 
L 421.715252 392.065619 
L 425.907588 392.205277 
L 430.099925 391.84243 
L 434.292261 392.100453 
L 438.484598 392.127934 
L 442.676935 392.186759 
L 446.869271 392.186569 
L 451.061608 391.91167 
L 455.253944 391.990256 
L 459.446281 392.163491 
L 463.638618 392.257665 
L 467.830954 392.085645 
L 472.023291 392.020757 
L 476.215627 392.286306 
L 480.407964 392.085252 
L 484.600301 392.103557 
L 488.792637 392.181319 
L 492.984974 392.23655 
L 497.17731 392.304248 
L 501.369647 392.203166 
L 505.561983 391.872903 
L 509.75432 392.084661 
L 513.946657 392.228487 
L 518.138993 392.021612 
L 522.33133 392.138467 
L 526.523666 392.073265 
L 530.716003 392.334545 
L 534.90834 392.130595 
L 539.100676 392.203778 
L 543.293013 392.088613 
L 547.485349 392.163507 
L 551.677686 392.253149 
L 555.870023 392.007801 
L 560.062359 392.299751 
L 564.254696 392.003492 
L 568.447032 392.017325 
L 572.639369 392.189065 
L 576.831705 391.96545 
L 581.024042 391.888433 
L 585.216379 391.96237 
L 589.408715 392.196711 
L 593.601052 391.834919 
L 597.793388 392.21778 
" clip-path="url(#pfa340e4376)" style="fill: none; stroke: #ff6347; stroke-linecap: square"/>
   </g>
   <g id="patch_3">
    <path d="M 162 406.08 
L 162 103.68 
" style="fill: none; stroke: #000000; stroke-width: 0.8; stroke-linejoin: miter; stroke-linecap: square"/>
   </g>
   <g id="patch_4">
    <path d="M 618.545455 406.08 
L 618.545455 103.68 
" style="fill: none; stroke: #000000; stroke-width: 0.8; stroke-linejoin: miter; stroke-linecap: square"/>
   </g>
   <g id="patch_5">
    <path d="M 162 406.08 
L 618.545455 406.08 
" style="fill: none; stroke: #000000; stroke-width: 0.8; stroke-linejoin: miter; stroke-linecap: square"/>
   </g>
   <g id="patch_6">
    <path d="M 162 103.68 
L 618.545455 103.68 
" style="fill: none; stroke: #000000; stroke-width: 0.8; stroke-linejoin: miter; stroke-linecap: square"/>
   </g>
   <g id="text_13">
    <!-- MSLE -->
    <g transform="translate(374.152415 97.68) scale(0.12 -0.12)">
     <defs>
      <path id="DejaVuSans-4d" d="M 628 4666 
L 1569 4666 
L 2759 1491 
L 3956 4666 
L 4897 4666 
L 4897 0 
L 4281 0 
L 4281 4097 
L 3078 897 
L 2444 897 
L 1241 4097 
L 1241 0 
L 628 0 
L 628 4666 
z
" transform="scale(0.015625)"/>
      <path id="DejaVuSans-53" d="M 3425 4513 
L 3425 3897 
Q 3066 4069 2747 4153 
Q 2428 4238 2131 4238 
Q 1616 4238 1336 4038 
Q 1056 3838 1056 3469 
Q 1056 3159 1242 3001 
Q 1428 2844 1947 2747 
L 2328 2669 
Q 3034 2534 3370 2195 
Q 3706 1856 3706 1288 
Q 3706 609 3251 259 
Q 2797 -91 1919 -91 
Q 1588 -91 1214 -16 
Q 841 59 441 206 
L 441 856 
Q 825 641 1194 531 
Q 1563 422 1919 422 
Q 2459 422 2753 634 
Q 3047 847 3047 1241 
Q 3047 1584 2836 1778 
Q 2625 1972 2144 2069 
L 1759 2144 
Q 1053 2284 737 2584 
Q 422 2884 422 3419 
Q 422 4038 858 4394 
Q 1294 4750 2059 4750 
Q 2388 4750 2728 4690 
Q 3069 4631 3425 4513 
z
" transform="scale(0.015625)"/>
      <path id="DejaVuSans-4c" d="M 628 4666 
L 1259 4666 
L 1259 531 
L 3531 531 
L 3531 0 
L 628 0 
L 628 4666 
z
" transform="scale(0.015625)"/>
      <path id="DejaVuSans-45" d="M 628 4666 
L 3578 4666 
L 3578 4134 
L 1259 4134 
L 1259 2753 
L 3481 2753 
L 3481 2222 
L 1259 2222 
L 1259 531 
L 3634 531 
L 3634 0 
L 628 0 
L 628 4666 
z
" transform="scale(0.015625)"/>
     </defs>
     <use xlink:href="#DejaVuSans-4d"/>
     <use xlink:href="#DejaVuSans-53" x="86.279297"/>
     <use xlink:href="#DejaVuSans-4c" x="149.755859"/>
     <use xlink:href="#DejaVuSans-45" x="205.46875"/>
    </g>
   </g>
   <g id="legend_1">
    <g id="patch_7">
     <path d="M 530.164205 141.03625 
L 611.545455 141.03625 
Q 613.545455 141.03625 613.545455 139.03625 
L 613.545455 110.68 
Q 613.545455 108.68 611.545455 108.68 
L 530.164205 108.68 
Q 528.164205 108.68 528.164205 110.68 
L 528.164205 139.03625 
Q 528.164205 141.03625 530.164205 141.03625 
z
" style="fill: #ffffff; opacity: 0.8; stroke: #cccccc; stroke-linejoin: miter"/>
    </g>
    <g id="line2d_15">
     <path d="M 532.164205 116.778437 
L 542.164205 116.778437 
L 552.164205 116.778437 
" style="fill: none; stroke: #4169e1; stroke-linecap: square"/>
    </g>
    <g id="text_14">
     <!-- Training -->
     <g transform="translate(560.164205 120.278437) scale(0.1 -0.1)">
      <defs>
       <path id="DejaVuSans-54" d="M -19 4666 
L 3928 4666 
L 3928 4134 
L 2272 4134 
L 2272 0 
L 1638 0 
L 1638 4134 
L -19 4134 
L -19 4666 
z
" transform="scale(0.015625)"/>
       <path id="DejaVuSans-72" d="M 2631 2963 
Q 2534 3019 2420 3045 
Q 2306 3072 2169 3072 
Q 1681 3072 1420 2755 
Q 1159 2438 1159 1844 
L 1159 0 
L 581 0 
L 581 3500 
L 1159 3500 
L 1159 2956 
Q 1341 3275 1631 3429 
Q 1922 3584 2338 3584 
Q 2397 3584 2469 3576 
Q 2541 3569 2628 3553 
L 2631 2963 
z
" transform="scale(0.015625)"/>
       <path id="DejaVuSans-61" d="M 2194 1759 
Q 1497 1759 1228 1600 
Q 959 1441 959 1056 
Q 959 750 1161 570 
Q 1363 391 1709 391 
Q 2188 391 2477 730 
Q 2766 1069 2766 1631 
L 2766 1759 
L 2194 1759 
z
M 3341 1997 
L 3341 0 
L 2766 0 
L 2766 531 
Q 2569 213 2275 61 
Q 1981 -91 1556 -91 
Q 1019 -91 701 211 
Q 384 513 384 1019 
Q 384 1609 779 1909 
Q 1175 2209 1959 2209 
L 2766 2209 
L 2766 2266 
Q 2766 2663 2505 2880 
Q 2244 3097 1772 3097 
Q 1472 3097 1187 3025 
Q 903 2953 641 2809 
L 641 3341 
Q 956 3463 1253 3523 
Q 1550 3584 1831 3584 
Q 2591 3584 2966 3190 
Q 3341 2797 3341 1997 
z
" transform="scale(0.015625)"/>
       <path id="DejaVuSans-69" d="M 603 3500 
L 1178 3500 
L 1178 0 
L 603 0 
L 603 3500 
z
M 603 4863 
L 1178 4863 
L 1178 4134 
L 603 4134 
L 603 4863 
z
" transform="scale(0.015625)"/>
       <path id="DejaVuSans-6e" d="M 3513 2113 
L 3513 0 
L 2938 0 
L 2938 2094 
Q 2938 2591 2744 2837 
Q 2550 3084 2163 3084 
Q 1697 3084 1428 2787 
Q 1159 2491 1159 1978 
L 1159 0 
L 581 0 
L 581 3500 
L 1159 3500 
L 1159 2956 
Q 1366 3272 1645 3428 
Q 1925 3584 2291 3584 
Q 2894 3584 3203 3211 
Q 3513 2838 3513 2113 
z
" transform="scale(0.015625)"/>
       <path id="DejaVuSans-67" d="M 2906 1791 
Q 2906 2416 2648 2759 
Q 2391 3103 1925 3103 
Q 1463 3103 1205 2759 
Q 947 2416 947 1791 
Q 947 1169 1205 825 
Q 1463 481 1925 481 
Q 2391 481 2648 825 
Q 2906 1169 2906 1791 
z
M 3481 434 
Q 3481 -459 3084 -895 
Q 2688 -1331 1869 -1331 
Q 1566 -1331 1297 -1286 
Q 1028 -1241 775 -1147 
L 775 -588 
Q 1028 -725 1275 -790 
Q 1522 -856 1778 -856 
Q 2344 -856 2625 -561 
Q 2906 -266 2906 331 
L 2906 616 
Q 2728 306 2450 153 
Q 2172 0 1784 0 
Q 1141 0 747 490 
Q 353 981 353 1791 
Q 353 2603 747 3093 
Q 1141 3584 1784 3584 
Q 2172 3584 2450 3431 
Q 2728 3278 2906 2969 
L 2906 3500 
L 3481 3500 
L 3481 434 
z
" transform="scale(0.015625)"/>
      </defs>
      <use xlink:href="#DejaVuSans-54"/>
      <use xlink:href="#DejaVuSans-72" x="46.333984"/>
      <use xlink:href="#DejaVuSans-61" x="87.447266"/>
      <use xlink:href="#DejaVuSans-69" x="148.726562"/>
      <use xlink:href="#DejaVuSans-6e" x="176.509766"/>
      <use xlink:href="#DejaVuSans-69" x="239.888672"/>
      <use xlink:href="#DejaVuSans-6e" x="267.671875"/>
      <use xlink:href="#DejaVuSans-67" x="331.050781"/>
     </g>
    </g>
    <g id="line2d_16">
     <path d="M 532.164205 131.456562 
L 542.164205 131.456562 
L 552.164205 131.456562 
" style="fill: none; stroke: #ff6347; stroke-linecap: square"/>
    </g>
    <g id="text_15">
     <!-- Validation -->
     <g transform="translate(560.164205 134.956562) scale(0.1 -0.1)">
      <defs>
       <path id="DejaVuSans-56" d="M 1831 0 
L 50 4666 
L 709 4666 
L 2188 738 
L 3669 4666 
L 4325 4666 
L 2547 0 
L 1831 0 
z
" transform="scale(0.015625)"/>
       <path id="DejaVuSans-6c" d="M 603 4863 
L 1178 4863 
L 1178 0 
L 603 0 
L 603 4863 
z
" transform="scale(0.015625)"/>
       <path id="DejaVuSans-64" d="M 2906 2969 
L 2906 4863 
L 3481 4863 
L 3481 0 
L 2906 0 
L 2906 525 
Q 2725 213 2448 61 
Q 2172 -91 1784 -91 
Q 1150 -91 751 415 
Q 353 922 353 1747 
Q 353 2572 751 3078 
Q 1150 3584 1784 3584 
Q 2172 3584 2448 3432 
Q 2725 3281 2906 2969 
z
M 947 1747 
Q 947 1113 1208 752 
Q 1469 391 1925 391 
Q 2381 391 2643 752 
Q 2906 1113 2906 1747 
Q 2906 2381 2643 2742 
Q 2381 3103 1925 3103 
Q 1469 3103 1208 2742 
Q 947 2381 947 1747 
z
" transform="scale(0.015625)"/>
       <path id="DejaVuSans-74" d="M 1172 4494 
L 1172 3500 
L 2356 3500 
L 2356 3053 
L 1172 3053 
L 1172 1153 
Q 1172 725 1289 603 
Q 1406 481 1766 481 
L 2356 481 
L 2356 0 
L 1766 0 
Q 1100 0 847 248 
Q 594 497 594 1153 
L 594 3053 
L 172 3053 
L 172 3500 
L 594 3500 
L 594 4494 
L 1172 4494 
z
" transform="scale(0.015625)"/>
       <path id="DejaVuSans-6f" d="M 1959 3097 
Q 1497 3097 1228 2736 
Q 959 2375 959 1747 
Q 959 1119 1226 758 
Q 1494 397 1959 397 
Q 2419 397 2687 759 
Q 2956 1122 2956 1747 
Q 2956 2369 2687 2733 
Q 2419 3097 1959 3097 
z
M 1959 3584 
Q 2709 3584 3137 3096 
Q 3566 2609 3566 1747 
Q 3566 888 3137 398 
Q 2709 -91 1959 -91 
Q 1206 -91 779 398 
Q 353 888 353 1747 
Q 353 2609 779 3096 
Q 1206 3584 1959 3584 
z
" transform="scale(0.015625)"/>
      </defs>
      <use xlink:href="#DejaVuSans-56"/>
      <use xlink:href="#DejaVuSans-61" x="60.658203"/>
      <use xlink:href="#DejaVuSans-6c" x="121.9375"/>
      <use xlink:href="#DejaVuSans-69" x="149.720703"/>
      <use xlink:href="#DejaVuSans-64" x="177.503906"/>
      <use xlink:href="#DejaVuSans-61" x="240.980469"/>
      <use xlink:href="#DejaVuSans-74" x="302.259766"/>
      <use xlink:href="#DejaVuSans-69" x="341.46875"/>
      <use xlink:href="#DejaVuSans-6f" x="369.251953"/>
      <use xlink:href="#DejaVuSans-6e" x="430.433594"/>
     </g>
    </g>
   </g>
  </g>
  <g id="axes_2">
   <g id="patch_8">
    <path d="M 709.854545 406.08 
L 1166.4 406.08 
L 1166.4 103.68 
L 709.854545 103.68 
z
" style="fill: #ffffff"/>
   </g>
   <g id="matplotlib.axis_3">
    <g id="xtick_7">
     <g id="line2d_17">
      <g>
       <use xlink:href="#m96a7c8eca4" x="730.606612" y="406.08" style="stroke: #000000; stroke-width: 0.8"/>
      </g>
     </g>
     <g id="text_16">
      <!-- 0 -->
      <g transform="translate(727.425362 420.678437) scale(0.1 -0.1)">
       <use xlink:href="#DejaVuSans-30"/>
      </g>
     </g>
    </g>
    <g id="xtick_8">
     <g id="line2d_18">
      <g>
       <use xlink:href="#m96a7c8eca4" x="814.453343" y="406.08" style="stroke: #000000; stroke-width: 0.8"/>
      </g>
     </g>
     <g id="text_17">
      <!-- 20 -->
      <g transform="translate(808.090843 420.678437) scale(0.1 -0.1)">
       <use xlink:href="#DejaVuSans-32"/>
       <use xlink:href="#DejaVuSans-30" x="63.623047"/>
      </g>
     </g>
    </g>
    <g id="xtick_9">
     <g id="line2d_19">
      <g>
       <use xlink:href="#m96a7c8eca4" x="898.300075" y="406.08" style="stroke: #000000; stroke-width: 0.8"/>
      </g>
     </g>
     <g id="text_18">
      <!-- 40 -->
      <g transform="translate(891.937575 420.678437) scale(0.1 -0.1)">
       <use xlink:href="#DejaVuSans-34"/>
       <use xlink:href="#DejaVuSans-30" x="63.623047"/>
      </g>
     </g>
    </g>
    <g id="xtick_10">
     <g id="line2d_20">
      <g>
       <use xlink:href="#m96a7c8eca4" x="982.146807" y="406.08" style="stroke: #000000; stroke-width: 0.8"/>
      </g>
     </g>
     <g id="text_19">
      <!-- 60 -->
      <g transform="translate(975.784307 420.678437) scale(0.1 -0.1)">
       <use xlink:href="#DejaVuSans-36"/>
       <use xlink:href="#DejaVuSans-30" x="63.623047"/>
      </g>
     </g>
    </g>
    <g id="xtick_11">
     <g id="line2d_21">
      <g>
       <use xlink:href="#m96a7c8eca4" x="1065.993539" y="406.08" style="stroke: #000000; stroke-width: 0.8"/>
      </g>
     </g>
     <g id="text_20">
      <!-- 80 -->
      <g transform="translate(1059.631039 420.678437) scale(0.1 -0.1)">
       <use xlink:href="#DejaVuSans-38"/>
       <use xlink:href="#DejaVuSans-30" x="63.623047"/>
      </g>
     </g>
    </g>
    <g id="xtick_12">
     <g id="line2d_22">
      <g>
       <use xlink:href="#m96a7c8eca4" x="1149.84027" y="406.08" style="stroke: #000000; stroke-width: 0.8"/>
      </g>
     </g>
     <g id="text_21">
      <!-- 100 -->
      <g transform="translate(1140.29652 420.678437) scale(0.1 -0.1)">
       <use xlink:href="#DejaVuSans-31"/>
       <use xlink:href="#DejaVuSans-30" x="63.623047"/>
       <use xlink:href="#DejaVuSans-30" x="127.246094"/>
      </g>
     </g>
    </g>
   </g>
   <g id="matplotlib.axis_4">
    <g id="ytick_7">
     <g id="line2d_23">
      <g>
       <use xlink:href="#m2f1b156c39" x="709.854545" y="377.331738" style="stroke: #000000; stroke-width: 0.8"/>
      </g>
     </g>
     <g id="text_22">
      <!-- 2500 -->
      <g transform="translate(677.404545 381.130956) scale(0.1 -0.1)">
       <defs>
        <path id="DejaVuSans-35" d="M 691 4666 
L 3169 4666 
L 3169 4134 
L 1269 4134 
L 1269 2991 
Q 1406 3038 1543 3061 
Q 1681 3084 1819 3084 
Q 2600 3084 3056 2656 
Q 3513 2228 3513 1497 
Q 3513 744 3044 326 
Q 2575 -91 1722 -91 
Q 1428 -91 1123 -41 
Q 819 9 494 109 
L 494 744 
Q 775 591 1075 516 
Q 1375 441 1709 441 
Q 2250 441 2565 725 
Q 2881 1009 2881 1497 
Q 2881 1984 2565 2268 
Q 2250 2553 1709 2553 
Q 1456 2553 1204 2497 
Q 953 2441 691 2322 
L 691 4666 
z
" transform="scale(0.015625)"/>
       </defs>
       <use xlink:href="#DejaVuSans-32"/>
       <use xlink:href="#DejaVuSans-35" x="63.623047"/>
       <use xlink:href="#DejaVuSans-30" x="127.246094"/>
       <use xlink:href="#DejaVuSans-30" x="190.869141"/>
      </g>
     </g>
    </g>
    <g id="ytick_8">
     <g id="line2d_24">
      <g>
       <use xlink:href="#m2f1b156c39" x="709.854545" y="340.594017" style="stroke: #000000; stroke-width: 0.8"/>
      </g>
     </g>
     <g id="text_23">
      <!-- 5000 -->
      <g transform="translate(677.404545 344.393236) scale(0.1 -0.1)">
       <use xlink:href="#DejaVuSans-35"/>
       <use xlink:href="#DejaVuSans-30" x="63.623047"/>
       <use xlink:href="#DejaVuSans-30" x="127.246094"/>
       <use xlink:href="#DejaVuSans-30" x="190.869141"/>
      </g>
     </g>
    </g>
    <g id="ytick_9">
     <g id="line2d_25">
      <g>
       <use xlink:href="#m2f1b156c39" x="709.854545" y="303.856297" style="stroke: #000000; stroke-width: 0.8"/>
      </g>
     </g>
     <g id="text_24">
      <!-- 7500 -->
      <g transform="translate(677.404545 307.655516) scale(0.1 -0.1)">
       <defs>
        <path id="DejaVuSans-37" d="M 525 4666 
L 3525 4666 
L 3525 4397 
L 1831 0 
L 1172 0 
L 2766 4134 
L 525 4134 
L 525 4666 
z
" transform="scale(0.015625)"/>
       </defs>
       <use xlink:href="#DejaVuSans-37"/>
       <use xlink:href="#DejaVuSans-35" x="63.623047"/>
       <use xlink:href="#DejaVuSans-30" x="127.246094"/>
       <use xlink:href="#DejaVuSans-30" x="190.869141"/>
      </g>
     </g>
    </g>
    <g id="ytick_10">
     <g id="line2d_26">
      <g>
       <use xlink:href="#m2f1b156c39" x="709.854545" y="267.118577" style="stroke: #000000; stroke-width: 0.8"/>
      </g>
     </g>
     <g id="text_25">
      <!-- 10000 -->
      <g transform="translate(671.042045 270.917796) scale(0.1 -0.1)">
       <use xlink:href="#DejaVuSans-31"/>
       <use xlink:href="#DejaVuSans-30" x="63.623047"/>
       <use xlink:href="#DejaVuSans-30" x="127.246094"/>
       <use xlink:href="#DejaVuSans-30" x="190.869141"/>
       <use xlink:href="#DejaVuSans-30" x="254.492188"/>
      </g>
     </g>
    </g>
    <g id="ytick_11">
     <g id="line2d_27">
      <g>
       <use xlink:href="#m2f1b156c39" x="709.854545" y="230.380857" style="stroke: #000000; stroke-width: 0.8"/>
      </g>
     </g>
     <g id="text_26">
      <!-- 12500 -->
      <g transform="translate(671.042045 234.180075) scale(0.1 -0.1)">
       <use xlink:href="#DejaVuSans-31"/>
       <use xlink:href="#DejaVuSans-32" x="63.623047"/>
       <use xlink:href="#DejaVuSans-35" x="127.246094"/>
       <use xlink:href="#DejaVuSans-30" x="190.869141"/>
       <use xlink:href="#DejaVuSans-30" x="254.492188"/>
      </g>
     </g>
    </g>
    <g id="ytick_12">
     <g id="line2d_28">
      <g>
       <use xlink:href="#m2f1b156c39" x="709.854545" y="193.643136" style="stroke: #000000; stroke-width: 0.8"/>
      </g>
     </g>
     <g id="text_27">
      <!-- 15000 -->
      <g transform="translate(671.042045 197.442355) scale(0.1 -0.1)">
       <use xlink:href="#DejaVuSans-31"/>
       <use xlink:href="#DejaVuSans-35" x="63.623047"/>
       <use xlink:href="#DejaVuSans-30" x="127.246094"/>
       <use xlink:href="#DejaVuSans-30" x="190.869141"/>
       <use xlink:href="#DejaVuSans-30" x="254.492188"/>
      </g>
     </g>
    </g>
    <g id="ytick_13">
     <g id="line2d_29">
      <g>
       <use xlink:href="#m2f1b156c39" x="709.854545" y="156.905416" style="stroke: #000000; stroke-width: 0.8"/>
      </g>
     </g>
     <g id="text_28">
      <!-- 17500 -->
      <g transform="translate(671.042045 160.704635) scale(0.1 -0.1)">
       <use xlink:href="#DejaVuSans-31"/>
       <use xlink:href="#DejaVuSans-37" x="63.623047"/>
       <use xlink:href="#DejaVuSans-35" x="127.246094"/>
       <use xlink:href="#DejaVuSans-30" x="190.869141"/>
       <use xlink:href="#DejaVuSans-30" x="254.492188"/>
      </g>
     </g>
    </g>
    <g id="ytick_14">
     <g id="line2d_30">
      <g>
       <use xlink:href="#m2f1b156c39" x="709.854545" y="120.167696" style="stroke: #000000; stroke-width: 0.8"/>
      </g>
     </g>
     <g id="text_29">
      <!-- 20000 -->
      <g transform="translate(671.042045 123.966915) scale(0.1 -0.1)">
       <use xlink:href="#DejaVuSans-32"/>
       <use xlink:href="#DejaVuSans-30" x="63.623047"/>
       <use xlink:href="#DejaVuSans-30" x="127.246094"/>
       <use xlink:href="#DejaVuSans-30" x="190.869141"/>
       <use xlink:href="#DejaVuSans-30" x="254.492188"/>
      </g>
     </g>
    </g>
   </g>
   <g id="line2d_31">
    <path d="M 730.606612 117.425455 
L 734.798948 129.643904 
L 738.991285 117.77475 
L 743.183621 128.793138 
L 747.375958 229.843381 
L 751.568295 185.413241 
L 755.760631 228.379053 
L 759.952968 228.248476 
L 764.145304 288.510463 
L 768.337641 231.779674 
L 772.529977 228.286146 
L 776.722314 234.468215 
L 780.914651 228.05157 
L 785.106987 304.321797 
L 789.299324 334.686936 
L 793.49166 339.580429 
L 797.683997 222.232143 
L 801.876334 221.768243 
L 806.06867 294.941509 
L 810.261007 296.361702 
L 814.453343 342.699986 
L 818.64568 386.835402 
L 822.838017 353.253219 
L 827.030353 344.235457 
L 831.22269 357.388447 
L 835.415026 385.671435 
L 839.607363 373.969842 
L 843.799699 386.982025 
L 847.992036 385.743589 
L 852.184373 378.290754 
L 856.376709 382.623706 
L 860.569046 370.017502 
L 864.761382 387.399913 
L 868.953719 387.655642 
L 873.146056 384.862396 
L 877.338392 388.806476 
L 881.530729 384.421902 
L 885.723065 387.988608 
L 889.915402 387.53034 
L 894.107739 388.136791 
L 898.300075 384.713056 
L 902.492412 386.882273 
L 906.684748 388.143032 
L 910.877085 386.932682 
L 915.069421 386.781998 
L 919.261758 388.375945 
L 923.454095 387.061987 
L 927.646431 387.147567 
L 931.838768 386.0413 
L 936.031104 387.8205 
L 940.223441 387.317466 
L 944.415778 387.181296 
L 948.608114 387.173859 
L 952.800451 386.419475 
L 956.992787 387.323117 
L 961.185124 386.233208 
L 965.377461 387.05312 
L 969.569797 386.791222 
L 973.762134 387.788448 
L 977.95447 387.861163 
L 982.146807 387.739609 
L 986.339144 386.354796 
L 990.53148 386.975895 
L 994.723817 386.843157 
L 998.916153 387.349497 
L 1003.10849 387.117613 
L 1007.300826 387.53565 
L 1011.493163 387.012057 
L 1015.6855 387.410769 
L 1019.877836 387.168205 
L 1024.070173 387.029477 
L 1028.262509 388.479607 
L 1032.454846 387.390077 
L 1036.647183 386.521156 
L 1040.839519 387.047202 
L 1045.031856 387.25592 
L 1049.224192 387.585748 
L 1053.416529 388.339396 
L 1057.608866 386.125521 
L 1061.801202 387.37801 
L 1065.993539 387.148724 
L 1070.185875 386.281827 
L 1074.378212 388.471682 
L 1078.570548 386.252749 
L 1082.762885 387.906863 
L 1086.955222 386.992199 
L 1091.147558 386.540731 
L 1095.339895 387.021527 
L 1099.532231 387.130021 
L 1103.724568 387.949264 
L 1107.916905 386.808862 
L 1112.109241 388.330778 
L 1116.301578 387.336343 
L 1120.493914 387.621916 
L 1124.686251 387.189329 
L 1128.878588 388.634885 
L 1133.070924 388.626174 
L 1137.263261 388.47575 
L 1141.455597 388.576191 
L 1145.647934 388.748409 
" clip-path="url(#p9cb5c820ab)" style="fill: none; stroke: #4169e1; stroke-linecap: square"/>
   </g>
   <g id="line2d_32">
    <path d="M 730.606612 126.901289 
L 734.798948 158.959801 
L 738.991285 126.818285 
L 743.183621 162.927589 
L 747.375958 257.380297 
L 751.568295 196.98149 
L 755.760631 255.361574 
L 759.952968 256.939487 
L 764.145304 315.544374 
L 768.337641 260.759163 
L 772.529977 257.038062 
L 776.722314 263.023627 
L 780.914651 256.478616 
L 785.106987 331.60871 
L 789.299324 355.981906 
L 793.49166 356.612349 
L 797.683997 241.012451 
L 801.876334 240.533928 
L 806.06867 325.385376 
L 810.261007 326.506257 
L 814.453343 365.438636 
L 818.64568 391.480912 
L 822.838017 372.432289 
L 827.030353 367.266732 
L 831.22269 377.281496 
L 835.415026 391.461836 
L 839.607363 386.518136 
L 843.799699 391.743551 
L 847.992036 390.923512 
L 852.184373 388.865279 
L 856.376709 387.958884 
L 860.569046 384.744983 
L 864.761382 391.972801 
L 868.953719 390.721849 
L 873.146056 391.282334 
L 877.338392 391.981763 
L 881.530729 390.67251 
L 885.723065 391.716313 
L 889.915402 391.879326 
L 894.107739 390.728289 
L 898.300075 391.101459 
L 902.492412 391.730488 
L 906.684748 391.79571 
L 910.877085 390.374258 
L 915.069421 391.326483 
L 919.261758 391.350048 
L 923.454095 390.88603 
L 927.646431 390.964707 
L 931.838768 391.82007 
L 936.031104 391.632301 
L 940.223441 391.82787 
L 944.415778 391.754048 
L 948.608114 391.594196 
L 952.800451 391.539527 
L 956.992787 391.269715 
L 961.185124 391.207304 
L 965.377461 390.923092 
L 969.569797 391.572431 
L 973.762134 390.413374 
L 977.95447 391.942951 
L 982.146807 391.058776 
L 986.339144 391.84287 
L 990.53148 391.885728 
L 994.723817 391.862756 
L 998.916153 391.291922 
L 1003.10849 392.055802 
L 1007.300826 391.043007 
L 1011.493163 390.945847 
L 1015.6855 391.720267 
L 1019.877836 391.305193 
L 1024.070173 391.551887 
L 1028.262509 392.334545 
L 1032.454846 391.420209 
L 1036.647183 391.983932 
L 1040.839519 391.95657 
L 1045.031856 391.548954 
L 1049.224192 391.37887 
L 1053.416529 391.498099 
L 1057.608866 392.249026 
L 1061.801202 389.207782 
L 1065.993539 391.6897 
L 1070.185875 391.985921 
L 1074.378212 390.494678 
L 1078.570548 392.040622 
L 1082.762885 391.345526 
L 1086.955222 391.229452 
L 1091.147558 389.916147 
L 1095.339895 391.824045 
L 1099.532231 389.373708 
L 1103.724568 391.340141 
L 1107.916905 391.745237 
L 1112.109241 390.739771 
L 1116.301578 391.590382 
L 1120.493914 390.148732 
L 1124.686251 391.339689 
L 1128.878588 387.835445 
L 1133.070924 391.27219 
L 1137.263261 391.051328 
L 1141.455597 391.115176 
L 1145.647934 390.497109 
" clip-path="url(#p9cb5c820ab)" style="fill: none; stroke: #ff6347; stroke-linecap: square"/>
   </g>
   <g id="patch_9">
    <path d="M 709.854545 406.08 
L 709.854545 103.68 
" style="fill: none; stroke: #000000; stroke-width: 0.8; stroke-linejoin: miter; stroke-linecap: square"/>
   </g>
   <g id="patch_10">
    <path d="M 1166.4 406.08 
L 1166.4 103.68 
" style="fill: none; stroke: #000000; stroke-width: 0.8; stroke-linejoin: miter; stroke-linecap: square"/>
   </g>
   <g id="patch_11">
    <path d="M 709.854545 406.08 
L 1166.4 406.08 
" style="fill: none; stroke: #000000; stroke-width: 0.8; stroke-linejoin: miter; stroke-linecap: square"/>
   </g>
   <g id="patch_12">
    <path d="M 709.854545 103.68 
L 1166.4 103.68 
" style="fill: none; stroke: #000000; stroke-width: 0.8; stroke-linejoin: miter; stroke-linecap: square"/>
   </g>
   <g id="text_30">
    <!-- LOSS -->
    <g transform="translate(922.660398 97.68) scale(0.12 -0.12)">
     <defs>
      <path id="DejaVuSans-4f" d="M 2522 4238 
Q 1834 4238 1429 3725 
Q 1025 3213 1025 2328 
Q 1025 1447 1429 934 
Q 1834 422 2522 422 
Q 3209 422 3611 934 
Q 4013 1447 4013 2328 
Q 4013 3213 3611 3725 
Q 3209 4238 2522 4238 
z
M 2522 4750 
Q 3503 4750 4090 4092 
Q 4678 3434 4678 2328 
Q 4678 1225 4090 567 
Q 3503 -91 2522 -91 
Q 1538 -91 948 565 
Q 359 1222 359 2328 
Q 359 3434 948 4092 
Q 1538 4750 2522 4750 
z
" transform="scale(0.015625)"/>
     </defs>
     <use xlink:href="#DejaVuSans-4c"/>
     <use xlink:href="#DejaVuSans-4f" x="52.087891"/>
     <use xlink:href="#DejaVuSans-53" x="130.798828"/>
     <use xlink:href="#DejaVuSans-53" x="194.275391"/>
    </g>
   </g>
   <g id="legend_2">
    <g id="patch_13">
     <path d="M 1078.01875 141.03625 
L 1159.4 141.03625 
Q 1161.4 141.03625 1161.4 139.03625 
L 1161.4 110.68 
Q 1161.4 108.68 1159.4 108.68 
L 1078.01875 108.68 
Q 1076.01875 108.68 1076.01875 110.68 
L 1076.01875 139.03625 
Q 1076.01875 141.03625 1078.01875 141.03625 
z
" style="fill: #ffffff; opacity: 0.8; stroke: #cccccc; stroke-linejoin: miter"/>
    </g>
    <g id="line2d_33">
     <path d="M 1080.01875 116.778437 
L 1090.01875 116.778437 
L 1100.01875 116.778437 
" style="fill: none; stroke: #4169e1; stroke-linecap: square"/>
    </g>
    <g id="text_31">
     <!-- Training -->
     <g transform="translate(1108.01875 120.278437) scale(0.1 -0.1)">
      <use xlink:href="#DejaVuSans-54"/>
      <use xlink:href="#DejaVuSans-72" x="46.333984"/>
      <use xlink:href="#DejaVuSans-61" x="87.447266"/>
      <use xlink:href="#DejaVuSans-69" x="148.726562"/>
      <use xlink:href="#DejaVuSans-6e" x="176.509766"/>
      <use xlink:href="#DejaVuSans-69" x="239.888672"/>
      <use xlink:href="#DejaVuSans-6e" x="267.671875"/>
      <use xlink:href="#DejaVuSans-67" x="331.050781"/>
     </g>
    </g>
    <g id="line2d_34">
     <path d="M 1080.01875 131.456562 
L 1090.01875 131.456562 
L 1100.01875 131.456562 
" style="fill: none; stroke: #ff6347; stroke-linecap: square"/>
    </g>
    <g id="text_32">
     <!-- Validation -->
     <g transform="translate(1108.01875 134.956562) scale(0.1 -0.1)">
      <use xlink:href="#DejaVuSans-56"/>
      <use xlink:href="#DejaVuSans-61" x="60.658203"/>
      <use xlink:href="#DejaVuSans-6c" x="121.9375"/>
      <use xlink:href="#DejaVuSans-69" x="149.720703"/>
      <use xlink:href="#DejaVuSans-64" x="177.503906"/>
      <use xlink:href="#DejaVuSans-61" x="240.980469"/>
      <use xlink:href="#DejaVuSans-74" x="302.259766"/>
      <use xlink:href="#DejaVuSans-69" x="341.46875"/>
      <use xlink:href="#DejaVuSans-6f" x="369.251953"/>
      <use xlink:href="#DejaVuSans-6e" x="430.433594"/>
     </g>
    </g>
   </g>
  </g>
  <g id="axes_3">
   <g id="patch_14">
    <path d="M 162 768.96 
L 618.545455 768.96 
L 618.545455 466.56 
L 162 466.56 
z
" style="fill: #ffffff"/>
   </g>
   <g id="matplotlib.axis_5">
    <g id="xtick_13">
     <g id="line2d_35">
      <g>
       <use xlink:href="#m96a7c8eca4" x="182.752066" y="768.96" style="stroke: #000000; stroke-width: 0.8"/>
      </g>
     </g>
     <g id="text_33">
      <!-- 0 -->
      <g transform="translate(179.570816 783.558437) scale(0.1 -0.1)">
       <use xlink:href="#DejaVuSans-30"/>
      </g>
     </g>
    </g>
    <g id="xtick_14">
     <g id="line2d_36">
      <g>
       <use xlink:href="#m96a7c8eca4" x="266.598798" y="768.96" style="stroke: #000000; stroke-width: 0.8"/>
      </g>
     </g>
     <g id="text_34">
      <!-- 20 -->
      <g transform="translate(260.236298 783.558437) scale(0.1 -0.1)">
       <use xlink:href="#DejaVuSans-32"/>
       <use xlink:href="#DejaVuSans-30" x="63.623047"/>
      </g>
     </g>
    </g>
    <g id="xtick_15">
     <g id="line2d_37">
      <g>
       <use xlink:href="#m96a7c8eca4" x="350.44553" y="768.96" style="stroke: #000000; stroke-width: 0.8"/>
      </g>
     </g>
     <g id="text_35">
      <!-- 40 -->
      <g transform="translate(344.08303 783.558437) scale(0.1 -0.1)">
       <use xlink:href="#DejaVuSans-34"/>
       <use xlink:href="#DejaVuSans-30" x="63.623047"/>
      </g>
     </g>
    </g>
    <g id="xtick_16">
     <g id="line2d_38">
      <g>
       <use xlink:href="#m96a7c8eca4" x="434.292261" y="768.96" style="stroke: #000000; stroke-width: 0.8"/>
      </g>
     </g>
     <g id="text_36">
      <!-- 60 -->
      <g transform="translate(427.929761 783.558437) scale(0.1 -0.1)">
       <use xlink:href="#DejaVuSans-36"/>
       <use xlink:href="#DejaVuSans-30" x="63.623047"/>
      </g>
     </g>
    </g>
    <g id="xtick_17">
     <g id="line2d_39">
      <g>
       <use xlink:href="#m96a7c8eca4" x="518.138993" y="768.96" style="stroke: #000000; stroke-width: 0.8"/>
      </g>
     </g>
     <g id="text_37">
      <!-- 80 -->
      <g transform="translate(511.776493 783.558437) scale(0.1 -0.1)">
       <use xlink:href="#DejaVuSans-38"/>
       <use xlink:href="#DejaVuSans-30" x="63.623047"/>
      </g>
     </g>
    </g>
    <g id="xtick_18">
     <g id="line2d_40">
      <g>
       <use xlink:href="#m96a7c8eca4" x="601.985725" y="768.96" style="stroke: #000000; stroke-width: 0.8"/>
      </g>
     </g>
     <g id="text_38">
      <!-- 100 -->
      <g transform="translate(592.441975 783.558437) scale(0.1 -0.1)">
       <use xlink:href="#DejaVuSans-31"/>
       <use xlink:href="#DejaVuSans-30" x="63.623047"/>
       <use xlink:href="#DejaVuSans-30" x="127.246094"/>
      </g>
     </g>
    </g>
   </g>
   <g id="matplotlib.axis_6">
    <g id="ytick_15">
     <g id="line2d_41">
      <g>
       <use xlink:href="#m2f1b156c39" x="162" y="726.045114" style="stroke: #000000; stroke-width: 0.8"/>
      </g>
     </g>
     <g id="text_39">
      <!-- 40 -->
      <g transform="translate(142.275 729.844332) scale(0.1 -0.1)">
       <use xlink:href="#DejaVuSans-34"/>
       <use xlink:href="#DejaVuSans-30" x="63.623047"/>
      </g>
     </g>
    </g>
    <g id="ytick_16">
     <g id="line2d_42">
      <g>
       <use xlink:href="#m2f1b156c39" x="162" y="668.852336" style="stroke: #000000; stroke-width: 0.8"/>
      </g>
     </g>
     <g id="text_40">
      <!-- 60 -->
      <g transform="translate(142.275 672.651554) scale(0.1 -0.1)">
       <use xlink:href="#DejaVuSans-36"/>
       <use xlink:href="#DejaVuSans-30" x="63.623047"/>
      </g>
     </g>
    </g>
    <g id="ytick_17">
     <g id="line2d_43">
      <g>
       <use xlink:href="#m2f1b156c39" x="162" y="611.659557" style="stroke: #000000; stroke-width: 0.8"/>
      </g>
     </g>
     <g id="text_41">
      <!-- 80 -->
      <g transform="translate(142.275 615.458776) scale(0.1 -0.1)">
       <use xlink:href="#DejaVuSans-38"/>
       <use xlink:href="#DejaVuSans-30" x="63.623047"/>
      </g>
     </g>
    </g>
    <g id="ytick_18">
     <g id="line2d_44">
      <g>
       <use xlink:href="#m2f1b156c39" x="162" y="554.466779" style="stroke: #000000; stroke-width: 0.8"/>
      </g>
     </g>
     <g id="text_42">
      <!-- 100 -->
      <g transform="translate(135.9125 558.265998) scale(0.1 -0.1)">
       <use xlink:href="#DejaVuSans-31"/>
       <use xlink:href="#DejaVuSans-30" x="63.623047"/>
       <use xlink:href="#DejaVuSans-30" x="127.246094"/>
      </g>
     </g>
    </g>
    <g id="ytick_19">
     <g id="line2d_45">
      <g>
       <use xlink:href="#m2f1b156c39" x="162" y="497.274001" style="stroke: #000000; stroke-width: 0.8"/>
      </g>
     </g>
     <g id="text_43">
      <!-- 120 -->
      <g transform="translate(135.9125 501.07322) scale(0.1 -0.1)">
       <use xlink:href="#DejaVuSans-31"/>
       <use xlink:href="#DejaVuSans-32" x="63.623047"/>
       <use xlink:href="#DejaVuSans-30" x="127.246094"/>
      </g>
     </g>
    </g>
   </g>
   <g id="line2d_46">
    <path d="M 182.752066 484.03375 
L 186.944403 493.374287 
L 191.136739 484.159592 
L 195.329076 492.636033 
L 199.521412 573.587233 
L 203.713749 537.457827 
L 207.906086 572.777505 
L 212.098422 571.805151 
L 216.290759 626.335104 
L 220.483095 575.01775 
L 224.675432 572.518206 
L 228.867769 577.290983 
L 233.060105 572.370372 
L 237.252442 635.210038 
L 241.444778 671.989076 
L 245.637115 663.940233 
L 249.829452 567.900005 
L 254.021788 567.440292 
L 258.214125 632.907177 
L 262.406461 633.913348 
L 266.598798 680.35883 
L 270.791134 742.577478 
L 274.983471 692.31138 
L 279.175808 681.953578 
L 283.368144 697.576749 
L 287.560481 741.165319 
L 291.752817 718.565561 
L 295.945154 744.020366 
L 300.137491 741.352479 
L 304.329827 725.813534 
L 308.522164 733.798943 
L 312.7145 713.003771 
L 316.906837 745.13223 
L 321.099174 745.477522 
L 325.29151 737.879915 
L 329.483847 747.401329 
L 333.676183 736.870876 
L 337.86852 745.976331 
L 342.060856 745.178112 
L 346.253193 745.652715 
L 350.44553 737.865189 
L 354.637866 743.890116 
L 358.830203 746.253368 
L 363.022539 744.287159 
L 367.214876 743.657031 
L 371.407213 746.690434 
L 375.599549 744.055568 
L 379.791886 744.271156 
L 383.984222 742.284471 
L 388.176559 745.114657 
L 392.368896 744.507164 
L 396.561232 745.057997 
L 400.753569 744.50339 
L 404.945905 743.224121 
L 409.138242 745.085476 
L 413.330579 742.935947 
L 417.522915 744.682346 
L 421.715252 743.673765 
L 425.907588 745.389871 
L 430.099925 745.649246 
L 434.292261 745.843028 
L 438.484598 742.590666 
L 442.676935 743.839184 
L 446.869271 744.173632 
L 451.061608 744.753973 
L 455.253944 744.641864 
L 459.446281 744.920635 
L 463.638618 744.090475 
L 467.830954 744.758696 
L 472.023291 744.917221 
L 476.215627 744.250865 
L 480.407964 747.139336 
L 484.600301 745.499612 
L 488.792637 743.582328 
L 492.984974 744.159189 
L 497.17731 744.50555 
L 501.369647 745.49418 
L 505.561983 746.646734 
L 509.75432 742.374631 
L 513.946657 744.67915 
L 518.138993 744.601524 
L 522.33133 742.449814 
L 526.523666 747.270163 
L 530.716003 742.52985 
L 534.90834 745.652966 
L 539.100676 743.560675 
L 543.293013 743.769456 
L 547.485349 744.022504 
L 551.677686 744.693495 
L 555.870023 745.543519 
L 560.062359 743.979927 
L 564.254696 746.47766 
L 568.447032 744.91469 
L 572.639369 745.170694 
L 576.831705 744.179359 
L 581.024042 746.678489 
L 585.216379 747.223354 
L 589.408715 747.318358 
L 593.601052 747.368123 
L 597.793388 747.848497 
" clip-path="url(#p2e2bf98dd7)" style="fill: none; stroke: #4169e1; stroke-linecap: square"/>
   </g>
   <g id="line2d_47">
    <path d="M 182.752066 480.367765 
L 186.944403 504.588648 
L 191.136739 480.305455 
L 195.329076 507.659457 
L 199.521412 585.042369 
L 203.713749 534.579862 
L 207.906086 583.262775 
L 212.098422 584.653149 
L 216.290759 643.53426 
L 220.483095 588.04513 
L 224.675432 584.740047 
L 228.867769 590.072613 
L 233.060105 584.246518 
L 237.252442 656.352149 
L 241.444778 691.626829 
L 245.637115 686.869618 
L 249.829452 571.435806 
L 254.021788 570.803736 
L 258.214125 655.032856 
L 262.406461 656.584024 
L 266.598798 703.88157 
L 270.791134 751.253541 
L 274.983471 714.047653 
L 279.175808 706.761379 
L 283.368144 721.121546 
L 287.560481 750.406893 
L 291.752817 736.243028 
L 295.945154 751.019005 
L 300.137491 748.716673 
L 304.329827 741.190245 
L 308.522164 741.344199 
L 312.7145 733.321613 
L 316.906837 752.056877 
L 321.099174 753.170732 
L 325.29151 749.385799 
L 329.483847 752.00079 
L 333.676183 747.33243 
L 337.86852 753.752218 
L 342.060856 752.648066 
L 346.253193 747.418107 
L 350.44553 748.526492 
L 354.637866 751.522538 
L 358.830203 752.189591 
L 363.022539 749.127253 
L 367.214876 752.774513 
L 371.407213 753.642253 
L 375.599549 749.960576 
L 379.791886 751.897779 
L 383.984222 752.228704 
L 388.176559 752.552642 
L 392.368896 754.475626 
L 396.561232 751.124945 
L 400.753569 750.438386 
L 404.945905 751.525205 
L 409.138242 752.20999 
L 413.330579 751.048737 
L 417.522915 748.945335 
L 421.715252 751.431489 
L 425.907588 748.775765 
L 430.099925 752.634692 
L 434.292261 749.354497 
L 438.484598 753.405677 
L 442.676935 752.136144 
L 446.869271 750.618385 
L 451.061608 750.606576 
L 455.253944 751.637771 
L 459.446281 749.15675 
L 463.638618 749.437255 
L 467.830954 751.253765 
L 472.023291 755.214545 
L 476.215627 750.634399 
L 480.407964 752.951043 
L 484.600301 750.657061 
L 488.792637 753.893082 
L 492.984974 754.662731 
L 497.17731 750.924427 
L 501.369647 750.719841 
L 505.561983 752.202316 
L 509.75432 751.999252 
L 513.946657 744.405572 
L 518.138993 752.360241 
L 522.33133 751.33846 
L 526.523666 747.422492 
L 530.716003 752.780121 
L 534.90834 754.798877 
L 539.100676 750.127632 
L 543.293013 747.04574 
L 547.485349 752.2481 
L 551.677686 745.58615 
L 555.870023 752.326048 
L 560.062359 752.483765 
L 564.254696 753.768641 
L 568.447032 751.827358 
L 572.639369 746.550279 
L 576.831705 750.991335 
L 581.024042 743.661493 
L 585.216379 751.549166 
L 589.408715 750.644626 
L 593.601052 751.921931 
L 597.793388 747.510001 
" clip-path="url(#p2e2bf98dd7)" style="fill: none; stroke: #ff6347; stroke-linecap: square"/>
   </g>
   <g id="patch_15">
    <path d="M 162 768.96 
L 162 466.56 
" style="fill: none; stroke: #000000; stroke-width: 0.8; stroke-linejoin: miter; stroke-linecap: square"/>
   </g>
   <g id="patch_16">
    <path d="M 618.545455 768.96 
L 618.545455 466.56 
" style="fill: none; stroke: #000000; stroke-width: 0.8; stroke-linejoin: miter; stroke-linecap: square"/>
   </g>
   <g id="patch_17">
    <path d="M 162 768.96 
L 618.545455 768.96 
" style="fill: none; stroke: #000000; stroke-width: 0.8; stroke-linejoin: miter; stroke-linecap: square"/>
   </g>
   <g id="patch_18">
    <path d="M 162 466.56 
L 618.545455 466.56 
" style="fill: none; stroke: #000000; stroke-width: 0.8; stroke-linejoin: miter; stroke-linecap: square"/>
   </g>
   <g id="text_44">
    <!-- MAE -->
    <g transform="translate(377.200227 460.56) scale(0.12 -0.12)">
     <defs>
      <path id="DejaVuSans-41" d="M 2188 4044 
L 1331 1722 
L 3047 1722 
L 2188 4044 
z
M 1831 4666 
L 2547 4666 
L 4325 0 
L 3669 0 
L 3244 1197 
L 1141 1197 
L 716 0 
L 50 0 
L 1831 4666 
z
" transform="scale(0.015625)"/>
     </defs>
     <use xlink:href="#DejaVuSans-4d"/>
     <use xlink:href="#DejaVuSans-41" x="86.279297"/>
     <use xlink:href="#DejaVuSans-45" x="154.6875"/>
    </g>
   </g>
   <g id="legend_3">
    <g id="patch_19">
     <path d="M 530.164205 503.91625 
L 611.545455 503.91625 
Q 613.545455 503.91625 613.545455 501.91625 
L 613.545455 473.56 
Q 613.545455 471.56 611.545455 471.56 
L 530.164205 471.56 
Q 528.164205 471.56 528.164205 473.56 
L 528.164205 501.91625 
Q 528.164205 503.91625 530.164205 503.91625 
z
" style="fill: #ffffff; opacity: 0.8; stroke: #cccccc; stroke-linejoin: miter"/>
    </g>
    <g id="line2d_48">
     <path d="M 532.164205 479.658437 
L 542.164205 479.658437 
L 552.164205 479.658437 
" style="fill: none; stroke: #4169e1; stroke-linecap: square"/>
    </g>
    <g id="text_45">
     <!-- Training -->
     <g transform="translate(560.164205 483.158437) scale(0.1 -0.1)">
      <use xlink:href="#DejaVuSans-54"/>
      <use xlink:href="#DejaVuSans-72" x="46.333984"/>
      <use xlink:href="#DejaVuSans-61" x="87.447266"/>
      <use xlink:href="#DejaVuSans-69" x="148.726562"/>
      <use xlink:href="#DejaVuSans-6e" x="176.509766"/>
      <use xlink:href="#DejaVuSans-69" x="239.888672"/>
      <use xlink:href="#DejaVuSans-6e" x="267.671875"/>
      <use xlink:href="#DejaVuSans-67" x="331.050781"/>
     </g>
    </g>
    <g id="line2d_49">
     <path d="M 532.164205 494.336563 
L 542.164205 494.336563 
L 552.164205 494.336563 
" style="fill: none; stroke: #ff6347; stroke-linecap: square"/>
    </g>
    <g id="text_46">
     <!-- Validation -->
     <g transform="translate(560.164205 497.836563) scale(0.1 -0.1)">
      <use xlink:href="#DejaVuSans-56"/>
      <use xlink:href="#DejaVuSans-61" x="60.658203"/>
      <use xlink:href="#DejaVuSans-6c" x="121.9375"/>
      <use xlink:href="#DejaVuSans-69" x="149.720703"/>
      <use xlink:href="#DejaVuSans-64" x="177.503906"/>
      <use xlink:href="#DejaVuSans-61" x="240.980469"/>
      <use xlink:href="#DejaVuSans-74" x="302.259766"/>
      <use xlink:href="#DejaVuSans-69" x="341.46875"/>
      <use xlink:href="#DejaVuSans-6f" x="369.251953"/>
      <use xlink:href="#DejaVuSans-6e" x="430.433594"/>
     </g>
    </g>
   </g>
  </g>
  <g id="axes_4">
   <g id="patch_20">
    <path d="M 709.854545 768.96 
L 1166.4 768.96 
L 1166.4 466.56 
L 709.854545 466.56 
z
" style="fill: #ffffff"/>
   </g>
   <g id="matplotlib.axis_7">
    <g id="xtick_19">
     <g id="line2d_50">
      <g>
       <use xlink:href="#m96a7c8eca4" x="730.606612" y="768.96" style="stroke: #000000; stroke-width: 0.8"/>
      </g>
     </g>
     <g id="text_47">
      <!-- 0 -->
      <g transform="translate(727.425362 783.558437) scale(0.1 -0.1)">
       <use xlink:href="#DejaVuSans-30"/>
      </g>
     </g>
    </g>
    <g id="xtick_20">
     <g id="line2d_51">
      <g>
       <use xlink:href="#m96a7c8eca4" x="814.453343" y="768.96" style="stroke: #000000; stroke-width: 0.8"/>
      </g>
     </g>
     <g id="text_48">
      <!-- 20 -->
      <g transform="translate(808.090843 783.558437) scale(0.1 -0.1)">
       <use xlink:href="#DejaVuSans-32"/>
       <use xlink:href="#DejaVuSans-30" x="63.623047"/>
      </g>
     </g>
    </g>
    <g id="xtick_21">
     <g id="line2d_52">
      <g>
       <use xlink:href="#m96a7c8eca4" x="898.300075" y="768.96" style="stroke: #000000; stroke-width: 0.8"/>
      </g>
     </g>
     <g id="text_49">
      <!-- 40 -->
      <g transform="translate(891.937575 783.558437) scale(0.1 -0.1)">
       <use xlink:href="#DejaVuSans-34"/>
       <use xlink:href="#DejaVuSans-30" x="63.623047"/>
      </g>
     </g>
    </g>
    <g id="xtick_22">
     <g id="line2d_53">
      <g>
       <use xlink:href="#m96a7c8eca4" x="982.146807" y="768.96" style="stroke: #000000; stroke-width: 0.8"/>
      </g>
     </g>
     <g id="text_50">
      <!-- 60 -->
      <g transform="translate(975.784307 783.558437) scale(0.1 -0.1)">
       <use xlink:href="#DejaVuSans-36"/>
       <use xlink:href="#DejaVuSans-30" x="63.623047"/>
      </g>
     </g>
    </g>
    <g id="xtick_23">
     <g id="line2d_54">
      <g>
       <use xlink:href="#m96a7c8eca4" x="1065.993539" y="768.96" style="stroke: #000000; stroke-width: 0.8"/>
      </g>
     </g>
     <g id="text_51">
      <!-- 80 -->
      <g transform="translate(1059.631039 783.558437) scale(0.1 -0.1)">
       <use xlink:href="#DejaVuSans-38"/>
       <use xlink:href="#DejaVuSans-30" x="63.623047"/>
      </g>
     </g>
    </g>
    <g id="xtick_24">
     <g id="line2d_55">
      <g>
       <use xlink:href="#m96a7c8eca4" x="1149.84027" y="768.96" style="stroke: #000000; stroke-width: 0.8"/>
      </g>
     </g>
     <g id="text_52">
      <!-- 100 -->
      <g transform="translate(1140.29652 783.558437) scale(0.1 -0.1)">
       <use xlink:href="#DejaVuSans-31"/>
       <use xlink:href="#DejaVuSans-30" x="63.623047"/>
       <use xlink:href="#DejaVuSans-30" x="127.246094"/>
      </g>
     </g>
    </g>
   </g>
   <g id="matplotlib.axis_8">
    <g id="ytick_20">
     <g id="line2d_56">
      <g>
       <use xlink:href="#m2f1b156c39" x="709.854545" y="751.125031" style="stroke: #000000; stroke-width: 0.8"/>
      </g>
     </g>
     <g id="text_53">
      <!-- 40 -->
      <g transform="translate(690.129545 754.924249) scale(0.1 -0.1)">
       <use xlink:href="#DejaVuSans-34"/>
       <use xlink:href="#DejaVuSans-30" x="63.623047"/>
      </g>
     </g>
    </g>
    <g id="ytick_21">
     <g id="line2d_57">
      <g>
       <use xlink:href="#m2f1b156c39" x="709.854545" y="698.064556" style="stroke: #000000; stroke-width: 0.8"/>
      </g>
     </g>
     <g id="text_54">
      <!-- 60 -->
      <g transform="translate(690.129545 701.863774) scale(0.1 -0.1)">
       <use xlink:href="#DejaVuSans-36"/>
       <use xlink:href="#DejaVuSans-30" x="63.623047"/>
      </g>
     </g>
    </g>
    <g id="ytick_22">
     <g id="line2d_58">
      <g>
       <use xlink:href="#m2f1b156c39" x="709.854545" y="645.004081" style="stroke: #000000; stroke-width: 0.8"/>
      </g>
     </g>
     <g id="text_55">
      <!-- 80 -->
      <g transform="translate(690.129545 648.803299) scale(0.1 -0.1)">
       <use xlink:href="#DejaVuSans-38"/>
       <use xlink:href="#DejaVuSans-30" x="63.623047"/>
      </g>
     </g>
    </g>
    <g id="ytick_23">
     <g id="line2d_59">
      <g>
       <use xlink:href="#m2f1b156c39" x="709.854545" y="591.943606" style="stroke: #000000; stroke-width: 0.8"/>
      </g>
     </g>
     <g id="text_56">
      <!-- 100 -->
      <g transform="translate(683.767045 595.742824) scale(0.1 -0.1)">
       <use xlink:href="#DejaVuSans-31"/>
       <use xlink:href="#DejaVuSans-30" x="63.623047"/>
       <use xlink:href="#DejaVuSans-30" x="127.246094"/>
      </g>
     </g>
    </g>
    <g id="ytick_24">
     <g id="line2d_60">
      <g>
       <use xlink:href="#m2f1b156c39" x="709.854545" y="538.883131" style="stroke: #000000; stroke-width: 0.8"/>
      </g>
     </g>
     <g id="text_57">
      <!-- 120 -->
      <g transform="translate(683.767045 542.682349) scale(0.1 -0.1)">
       <use xlink:href="#DejaVuSans-31"/>
       <use xlink:href="#DejaVuSans-32" x="63.623047"/>
       <use xlink:href="#DejaVuSans-30" x="127.246094"/>
      </g>
     </g>
    </g>
    <g id="ytick_25">
     <g id="line2d_61">
      <g>
       <use xlink:href="#m2f1b156c39" x="709.854545" y="485.822656" style="stroke: #000000; stroke-width: 0.8"/>
      </g>
     </g>
     <g id="text_58">
      <!-- 140 -->
      <g transform="translate(683.767045 489.621875) scale(0.1 -0.1)">
       <use xlink:href="#DejaVuSans-31"/>
       <use xlink:href="#DejaVuSans-34" x="63.623047"/>
       <use xlink:href="#DejaVuSans-30" x="127.246094"/>
      </g>
     </g>
    </g>
   </g>
   <g id="line2d_62">
    <path d="M 730.606612 480.305455 
L 734.798948 488.149962 
L 738.991285 480.527457 
L 743.183621 487.598355 
L 747.375958 560.195268 
L 751.568295 526.308047 
L 755.760631 559.017041 
L 759.952968 558.912213 
L 764.145304 612.012947 
L 768.337641 561.760461 
L 772.529977 558.942453 
L 776.722314 563.947578 
L 780.914651 558.754192 
L 785.106987 627.97311 
L 789.299324 662.253674 
L 793.49166 668.359361 
L 797.683997 554.121096 
L 801.876334 553.754815 
L 806.06867 618.375836 
L 810.261007 619.803958 
L 814.453343 672.356891 
L 818.64568 743.03412 
L 822.838017 686.572991 
L 827.030353 674.356597 
L 831.22269 692.477614 
L 835.415026 740.618988 
L 839.607363 718.658128 
L 843.799699 743.341985 
L 847.992036 740.767243 
L 852.184373 726.337631 
L 856.376709 734.520132 
L 860.569046 711.988791 
L 864.761382 744.224015 
L 868.953719 744.767192 
L 873.146056 738.969339 
L 877.338392 747.244797 
L 881.530729 738.080771 
L 885.723065 745.478388 
L 889.915402 744.500719 
L 894.107739 745.796354 
L 898.300075 738.667344 
L 902.492412 743.13244 
L 906.684748 745.809763 
L 910.877085 743.23828 
L 915.069421 742.922197 
L 919.261758 746.311446 
L 923.454095 743.510228 
L 927.646431 743.690575 
L 931.838768 741.380969 
L 936.031104 745.118757 
L 940.223441 744.049457 
L 944.415778 743.761732 
L 948.608114 743.746035 
L 952.800451 742.165286 
L 956.992787 744.061409 
L 961.185124 741.77831 
L 965.377461 743.491555 
L 969.569797 742.941517 
L 973.762134 745.050322 
L 977.95447 745.205641 
L 982.146807 744.946122 
L 986.339144 742.030765 
L 990.53148 743.329091 
L 994.723817 743.050383 
L 998.916153 744.117244 
L 1003.10849 743.627423 
L 1007.300826 744.512004 
L 1011.493163 743.405147 
L 1015.6855 744.247019 
L 1019.877836 743.734103 
L 1024.070173 743.441793 
L 1028.262509 746.535452 
L 1032.454846 744.203177 
L 1036.647183 742.377078 
L 1040.839519 743.479097 
L 1045.031856 743.919318 
L 1049.224192 744.618481 
L 1053.416529 746.232567 
L 1057.608866 741.555173 
L 1061.801202 744.177613 
L 1065.993539 743.693014 
L 1070.185875 741.879191 
L 1074.378212 746.518308 
L 1078.570548 741.818842 
L 1082.762885 745.303365 
L 1086.955222 743.36338 
L 1091.147558 742.417904 
L 1095.339895 743.425064 
L 1099.532231 743.653574 
L 1103.724568 745.394115 
L 1107.916905 742.978487 
L 1112.109241 746.213975 
L 1116.301578 744.089393 
L 1120.493914 744.695407 
L 1124.686251 743.778684 
L 1128.878588 746.871857 
L 1133.070924 746.852962 
L 1137.263261 746.527113 
L 1141.455597 746.744582 
L 1145.647934 747.118453 
" clip-path="url(#pc6c7dea5cf)" style="fill: none; stroke: #4169e1; stroke-linecap: square"/>
   </g>
   <g id="line2d_63">
    <path d="M 730.606612 486.374708 
L 734.798948 507.688606 
L 738.991285 486.32111 
L 743.183621 510.417614 
L 747.375958 583.293953 
L 751.568295 534.788161 
L 755.760631 581.534851 
L 759.952968 582.908869 
L 764.145304 640.011647 
L 768.337641 586.263829 
L 772.529977 582.994933 
L 776.722314 588.272522 
L 780.914651 582.506843 
L 785.106987 658.509014 
L 789.299324 690.445775 
L 793.49166 691.353411 
L 797.683997 569.340702 
L 801.876334 568.942927 
L 806.06867 651.14604 
L 810.261007 652.452634 
L 814.453343 704.626191 
L 818.64568 753.230212 
L 822.838017 716.026165 
L 827.030353 707.522258 
L 831.22269 724.504124 
L 835.415026 753.1863 
L 839.607363 742.370783 
L 843.799699 753.836682 
L 847.992036 751.954677 
L 852.184373 747.372892 
L 856.376709 745.41471 
L 860.569046 738.731842 
L 864.761382 754.368969 
L 868.953719 751.496989 
L 873.146056 752.774011 
L 877.338392 754.389837 
L 881.530729 751.385309 
L 885.723065 753.773622 
L 889.915402 754.151601 
L 894.107739 751.511572 
L 898.300075 752.360195 
L 902.492412 753.806432 
L 906.684748 753.957551 
L 910.877085 750.712722 
L 915.069421 752.875257 
L 919.261758 752.929351 
L 923.454095 751.869453 
L 927.646431 752.048413 
L 931.838768 754.014044 
L 936.031104 753.579359 
L 940.223441 754.032139 
L 944.415778 753.860992 
L 948.608114 753.491361 
L 952.800451 753.36526 
L 956.992787 752.745087 
L 961.185124 752.602155 
L 965.377461 751.953726 
L 969.569797 753.441143 
L 973.762134 750.800689 
L 977.95447 754.299512 
L 982.146807 752.262785 
L 986.339144 754.066954 
L 990.53148 754.166478 
L 994.723817 754.113123 
L 998.916153 752.795993 
L 1003.10849 754.562371 
L 1007.300826 752.226817 
L 1011.493163 752.005492 
L 1015.6855 753.78277 
L 1019.877836 752.826425 
L 1024.070173 753.393749 
L 1028.262509 755.214545 
L 1032.454846 753.09054 
L 1036.647183 754.394888 
L 1040.839519 754.331199 
L 1045.031856 753.386989 
L 1049.224192 752.995539 
L 1053.416529 753.269794 
L 1057.608866 755.014018 
L 1061.801202 748.12199 
L 1065.993539 753.712038 
L 1070.185875 754.399523 
L 1074.378212 750.983769 
L 1078.570548 754.52697 
L 1082.762885 752.918967 
L 1086.955222 752.652859 
L 1091.147558 749.687821 
L 1095.339895 754.023263 
L 1099.532231 748.486742 
L 1103.724568 752.9066 
L 1107.916905 753.840589 
L 1112.109241 751.537582 
L 1116.301578 753.482567 
L 1120.493914 750.206941 
L 1124.686251 752.905568 
L 1128.878588 745.150677 
L 1133.070924 752.750754 
L 1137.263261 752.245793 
L 1141.455597 752.391528 
L 1145.647934 750.989244 
" clip-path="url(#pc6c7dea5cf)" style="fill: none; stroke: #ff6347; stroke-linecap: square"/>
   </g>
   <g id="patch_21">
    <path d="M 709.854545 768.96 
L 709.854545 466.56 
" style="fill: none; stroke: #000000; stroke-width: 0.8; stroke-linejoin: miter; stroke-linecap: square"/>
   </g>
   <g id="patch_22">
    <path d="M 1166.4 768.96 
L 1166.4 466.56 
" style="fill: none; stroke: #000000; stroke-width: 0.8; stroke-linejoin: miter; stroke-linecap: square"/>
   </g>
   <g id="patch_23">
    <path d="M 709.854545 768.96 
L 1166.4 768.96 
" style="fill: none; stroke: #000000; stroke-width: 0.8; stroke-linejoin: miter; stroke-linecap: square"/>
   </g>
   <g id="patch_24">
    <path d="M 709.854545 466.56 
L 1166.4 466.56 
" style="fill: none; stroke: #000000; stroke-width: 0.8; stroke-linejoin: miter; stroke-linecap: square"/>
   </g>
   <g id="text_59">
    <!-- ROOT_MEAN_SQUARED_ERROR -->
    <g transform="translate(843.656335 460.56) scale(0.12 -0.12)">
     <defs>
      <path id="DejaVuSans-52" d="M 2841 2188 
Q 3044 2119 3236 1894 
Q 3428 1669 3622 1275 
L 4263 0 
L 3584 0 
L 2988 1197 
Q 2756 1666 2539 1819 
Q 2322 1972 1947 1972 
L 1259 1972 
L 1259 0 
L 628 0 
L 628 4666 
L 2053 4666 
Q 2853 4666 3247 4331 
Q 3641 3997 3641 3322 
Q 3641 2881 3436 2590 
Q 3231 2300 2841 2188 
z
M 1259 4147 
L 1259 2491 
L 2053 2491 
Q 2509 2491 2742 2702 
Q 2975 2913 2975 3322 
Q 2975 3731 2742 3939 
Q 2509 4147 2053 4147 
L 1259 4147 
z
" transform="scale(0.015625)"/>
      <path id="DejaVuSans-5f" d="M 3263 -1063 
L 3263 -1509 
L -63 -1509 
L -63 -1063 
L 3263 -1063 
z
" transform="scale(0.015625)"/>
      <path id="DejaVuSans-4e" d="M 628 4666 
L 1478 4666 
L 3547 763 
L 3547 4666 
L 4159 4666 
L 4159 0 
L 3309 0 
L 1241 3903 
L 1241 0 
L 628 0 
L 628 4666 
z
" transform="scale(0.015625)"/>
      <path id="DejaVuSans-51" d="M 2522 4238 
Q 1834 4238 1429 3725 
Q 1025 3213 1025 2328 
Q 1025 1447 1429 934 
Q 1834 422 2522 422 
Q 3209 422 3611 934 
Q 4013 1447 4013 2328 
Q 4013 3213 3611 3725 
Q 3209 4238 2522 4238 
z
M 3406 84 
L 4238 -825 
L 3475 -825 
L 2784 -78 
Q 2681 -84 2626 -87 
Q 2572 -91 2522 -91 
Q 1538 -91 948 567 
Q 359 1225 359 2328 
Q 359 3434 948 4092 
Q 1538 4750 2522 4750 
Q 3503 4750 4090 4092 
Q 4678 3434 4678 2328 
Q 4678 1516 4351 937 
Q 4025 359 3406 84 
z
" transform="scale(0.015625)"/>
      <path id="DejaVuSans-55" d="M 556 4666 
L 1191 4666 
L 1191 1831 
Q 1191 1081 1462 751 
Q 1734 422 2344 422 
Q 2950 422 3222 751 
Q 3494 1081 3494 1831 
L 3494 4666 
L 4128 4666 
L 4128 1753 
Q 4128 841 3676 375 
Q 3225 -91 2344 -91 
Q 1459 -91 1007 375 
Q 556 841 556 1753 
L 556 4666 
z
" transform="scale(0.015625)"/>
      <path id="DejaVuSans-44" d="M 1259 4147 
L 1259 519 
L 2022 519 
Q 2988 519 3436 956 
Q 3884 1394 3884 2338 
Q 3884 3275 3436 3711 
Q 2988 4147 2022 4147 
L 1259 4147 
z
M 628 4666 
L 1925 4666 
Q 3281 4666 3915 4102 
Q 4550 3538 4550 2338 
Q 4550 1131 3912 565 
Q 3275 0 1925 0 
L 628 0 
L 628 4666 
z
" transform="scale(0.015625)"/>
     </defs>
     <use xlink:href="#DejaVuSans-52"/>
     <use xlink:href="#DejaVuSans-4f" x="69.482422"/>
     <use xlink:href="#DejaVuSans-4f" x="148.193359"/>
     <use xlink:href="#DejaVuSans-54" x="226.904297"/>
     <use xlink:href="#DejaVuSans-5f" x="287.988281"/>
     <use xlink:href="#DejaVuSans-4d" x="337.988281"/>
     <use xlink:href="#DejaVuSans-45" x="424.267578"/>
     <use xlink:href="#DejaVuSans-41" x="487.451172"/>
     <use xlink:href="#DejaVuSans-4e" x="555.859375"/>
     <use xlink:href="#DejaVuSans-5f" x="630.664062"/>
     <use xlink:href="#DejaVuSans-53" x="680.664062"/>
     <use xlink:href="#DejaVuSans-51" x="744.140625"/>
     <use xlink:href="#DejaVuSans-55" x="822.851562"/>
     <use xlink:href="#DejaVuSans-41" x="896.044922"/>
     <use xlink:href="#DejaVuSans-52" x="964.453125"/>
     <use xlink:href="#DejaVuSans-45" x="1033.935547"/>
     <use xlink:href="#DejaVuSans-44" x="1097.119141"/>
     <use xlink:href="#DejaVuSans-5f" x="1174.121094"/>
     <use xlink:href="#DejaVuSans-45" x="1224.121094"/>
     <use xlink:href="#DejaVuSans-52" x="1287.304688"/>
     <use xlink:href="#DejaVuSans-52" x="1356.787109"/>
     <use xlink:href="#DejaVuSans-4f" x="1426.269531"/>
     <use xlink:href="#DejaVuSans-52" x="1504.980469"/>
    </g>
   </g>
   <g id="legend_4">
    <g id="patch_25">
     <path d="M 1078.01875 503.91625 
L 1159.4 503.91625 
Q 1161.4 503.91625 1161.4 501.91625 
L 1161.4 473.56 
Q 1161.4 471.56 1159.4 471.56 
L 1078.01875 471.56 
Q 1076.01875 471.56 1076.01875 473.56 
L 1076.01875 501.91625 
Q 1076.01875 503.91625 1078.01875 503.91625 
z
" style="fill: #ffffff; opacity: 0.8; stroke: #cccccc; stroke-linejoin: miter"/>
    </g>
    <g id="line2d_64">
     <path d="M 1080.01875 479.658437 
L 1090.01875 479.658437 
L 1100.01875 479.658437 
" style="fill: none; stroke: #4169e1; stroke-linecap: square"/>
    </g>
    <g id="text_60">
     <!-- Training -->
     <g transform="translate(1108.01875 483.158437) scale(0.1 -0.1)">
      <use xlink:href="#DejaVuSans-54"/>
      <use xlink:href="#DejaVuSans-72" x="46.333984"/>
      <use xlink:href="#DejaVuSans-61" x="87.447266"/>
      <use xlink:href="#DejaVuSans-69" x="148.726562"/>
      <use xlink:href="#DejaVuSans-6e" x="176.509766"/>
      <use xlink:href="#DejaVuSans-69" x="239.888672"/>
      <use xlink:href="#DejaVuSans-6e" x="267.671875"/>
      <use xlink:href="#DejaVuSans-67" x="331.050781"/>
     </g>
    </g>
    <g id="line2d_65">
     <path d="M 1080.01875 494.336563 
L 1090.01875 494.336563 
L 1100.01875 494.336563 
" style="fill: none; stroke: #ff6347; stroke-linecap: square"/>
    </g>
    <g id="text_61">
     <!-- Validation -->
     <g transform="translate(1108.01875 497.836563) scale(0.1 -0.1)">
      <use xlink:href="#DejaVuSans-56"/>
      <use xlink:href="#DejaVuSans-61" x="60.658203"/>
      <use xlink:href="#DejaVuSans-6c" x="121.9375"/>
      <use xlink:href="#DejaVuSans-69" x="149.720703"/>
      <use xlink:href="#DejaVuSans-64" x="177.503906"/>
      <use xlink:href="#DejaVuSans-61" x="240.980469"/>
      <use xlink:href="#DejaVuSans-74" x="302.259766"/>
      <use xlink:href="#DejaVuSans-69" x="341.46875"/>
      <use xlink:href="#DejaVuSans-6f" x="369.251953"/>
      <use xlink:href="#DejaVuSans-6e" x="430.433594"/>
     </g>
    </g>
   </g>
  </g>
 </g>
 <defs>
  <clipPath id="pfa340e4376">
   <rect x="162" y="103.68" width="456.545455" height="302.4"/>
  </clipPath>
  <clipPath id="p9cb5c820ab">
   <rect x="709.854545" y="103.68" width="456.545455" height="302.4"/>
  </clipPath>
  <clipPath id="p2e2bf98dd7">
   <rect x="162" y="466.56" width="456.545455" height="302.4"/>
  </clipPath>
  <clipPath id="pc6c7dea5cf">
   <rect x="709.854545" y="466.56" width="456.545455" height="302.4"/>
  </clipPath>
 </defs>
</svg>
