<?xml version="1.0" encoding="utf-8" standalone="no"?>
<!DOCTYPE svg PUBLIC "-//W3C//DTD SVG 1.1//EN"
  "http://www.w3.org/Graphics/SVG/1.1/DTD/svg11.dtd">
<svg xmlns:xlink="http://www.w3.org/1999/xlink" width="1296pt" height="864pt" viewBox="0 0 1296 864" xmlns="http://www.w3.org/2000/svg" version="1.1">
 <metadata>
  <rdf:RDF xmlns:dc="http://purl.org/dc/elements/1.1/" xmlns:cc="http://creativecommons.org/ns#" xmlns:rdf="http://www.w3.org/1999/02/22-rdf-syntax-ns#">
   <cc:Work>
    <dc:type rdf:resource="http://purl.org/dc/dcmitype/StillImage"/>
    <dc:date>2023-12-18T18:14:06.008611</dc:date>
    <dc:format>image/svg+xml</dc:format>
    <dc:creator>
     <cc:Agent>
      <dc:title>Matplotlib v3.8.0, https://matplotlib.org/</dc:title>
     </cc:Agent>
    </dc:creator>
   </cc:Work>
  </rdf:RDF>
 </metadata>
 <defs>
  <style type="text/css">*{stroke-linejoin: round; stroke-linecap: butt}</style>
 </defs>
 <g id="figure_1">
  <g id="patch_1">
   <path d="M 0 864 
L 1296 864 
L 1296 0 
L 0 0 
z
" style="fill: #ffffff"/>
  </g>
  <g id="axes_1">
   <g id="patch_2">
    <path d="M 162 406.08 
L 618.545455 406.08 
L 618.545455 103.68 
L 162 103.68 
z
" style="fill: #ffffff"/>
   </g>
   <g id="matplotlib.axis_1">
    <g id="xtick_1">
     <g id="line2d_1">
      <defs>
       <path id="m5339d79211" d="M 0 0 
L 0 3.5 
" style="stroke: #000000; stroke-width: 0.8"/>
      </defs>
      <g>
       <use xlink:href="#m5339d79211" x="182.752066" y="406.08" style="stroke: #000000; stroke-width: 0.8"/>
      </g>
     </g>
     <g id="text_1">
      <!-- 0 -->
      <g transform="translate(179.570816 420.678437) scale(0.1 -0.1)">
       <defs>
        <path id="DejaVuSans-30" d="M 2034 4250 
Q 1547 4250 1301 3770 
Q 1056 3291 1056 2328 
Q 1056 1369 1301 889 
Q 1547 409 2034 409 
Q 2525 409 2770 889 
Q 3016 1369 3016 2328 
Q 3016 3291 2770 3770 
Q 2525 4250 2034 4250 
z
M 2034 4750 
Q 2819 4750 3233 4129 
Q 3647 3509 3647 2328 
Q 3647 1150 3233 529 
Q 2819 -91 2034 -91 
Q 1250 -91 836 529 
Q 422 1150 422 2328 
Q 422 3509 836 4129 
Q 1250 4750 2034 4750 
z
" transform="scale(0.015625)"/>
       </defs>
       <use xlink:href="#DejaVuSans-30"/>
      </g>
     </g>
    </g>
    <g id="xtick_2">
     <g id="line2d_2">
      <g>
       <use xlink:href="#m5339d79211" x="266.598798" y="406.08" style="stroke: #000000; stroke-width: 0.8"/>
      </g>
     </g>
     <g id="text_2">
      <!-- 20 -->
      <g transform="translate(260.236298 420.678437) scale(0.1 -0.1)">
       <defs>
        <path id="DejaVuSans-32" d="M 1228 531 
L 3431 531 
L 3431 0 
L 469 0 
L 469 531 
Q 828 903 1448 1529 
Q 2069 2156 2228 2338 
Q 2531 2678 2651 2914 
Q 2772 3150 2772 3378 
Q 2772 3750 2511 3984 
Q 2250 4219 1831 4219 
Q 1534 4219 1204 4116 
Q 875 4013 500 3803 
L 500 4441 
Q 881 4594 1212 4672 
Q 1544 4750 1819 4750 
Q 2544 4750 2975 4387 
Q 3406 4025 3406 3419 
Q 3406 3131 3298 2873 
Q 3191 2616 2906 2266 
Q 2828 2175 2409 1742 
Q 1991 1309 1228 531 
z
" transform="scale(0.015625)"/>
       </defs>
       <use xlink:href="#DejaVuSans-32"/>
       <use xlink:href="#DejaVuSans-30" x="63.623047"/>
      </g>
     </g>
    </g>
    <g id="xtick_3">
     <g id="line2d_3">
      <g>
       <use xlink:href="#m5339d79211" x="350.44553" y="406.08" style="stroke: #000000; stroke-width: 0.8"/>
      </g>
     </g>
     <g id="text_3">
      <!-- 40 -->
      <g transform="translate(344.08303 420.678437) scale(0.1 -0.1)">
       <defs>
        <path id="DejaVuSans-34" d="M 2419 4116 
L 825 1625 
L 2419 1625 
L 2419 4116 
z
M 2253 4666 
L 3047 4666 
L 3047 1625 
L 3713 1625 
L 3713 1100 
L 3047 1100 
L 3047 0 
L 2419 0 
L 2419 1100 
L 313 1100 
L 313 1709 
L 2253 4666 
z
" transform="scale(0.015625)"/>
       </defs>
       <use xlink:href="#DejaVuSans-34"/>
       <use xlink:href="#DejaVuSans-30" x="63.623047"/>
      </g>
     </g>
    </g>
    <g id="xtick_4">
     <g id="line2d_4">
      <g>
       <use xlink:href="#m5339d79211" x="434.292261" y="406.08" style="stroke: #000000; stroke-width: 0.8"/>
      </g>
     </g>
     <g id="text_4">
      <!-- 60 -->
      <g transform="translate(427.929761 420.678437) scale(0.1 -0.1)">
       <defs>
        <path id="DejaVuSans-36" d="M 2113 2584 
Q 1688 2584 1439 2293 
Q 1191 2003 1191 1497 
Q 1191 994 1439 701 
Q 1688 409 2113 409 
Q 2538 409 2786 701 
Q 3034 994 3034 1497 
Q 3034 2003 2786 2293 
Q 2538 2584 2113 2584 
z
M 3366 4563 
L 3366 3988 
Q 3128 4100 2886 4159 
Q 2644 4219 2406 4219 
Q 1781 4219 1451 3797 
Q 1122 3375 1075 2522 
Q 1259 2794 1537 2939 
Q 1816 3084 2150 3084 
Q 2853 3084 3261 2657 
Q 3669 2231 3669 1497 
Q 3669 778 3244 343 
Q 2819 -91 2113 -91 
Q 1303 -91 875 529 
Q 447 1150 447 2328 
Q 447 3434 972 4092 
Q 1497 4750 2381 4750 
Q 2619 4750 2861 4703 
Q 3103 4656 3366 4563 
z
" transform="scale(0.015625)"/>
       </defs>
       <use xlink:href="#DejaVuSans-36"/>
       <use xlink:href="#DejaVuSans-30" x="63.623047"/>
      </g>
     </g>
    </g>
    <g id="xtick_5">
     <g id="line2d_5">
      <g>
       <use xlink:href="#m5339d79211" x="518.138993" y="406.08" style="stroke: #000000; stroke-width: 0.8"/>
      </g>
     </g>
     <g id="text_5">
      <!-- 80 -->
      <g transform="translate(511.776493 420.678437) scale(0.1 -0.1)">
       <defs>
        <path id="DejaVuSans-38" d="M 2034 2216 
Q 1584 2216 1326 1975 
Q 1069 1734 1069 1313 
Q 1069 891 1326 650 
Q 1584 409 2034 409 
Q 2484 409 2743 651 
Q 3003 894 3003 1313 
Q 3003 1734 2745 1975 
Q 2488 2216 2034 2216 
z
M 1403 2484 
Q 997 2584 770 2862 
Q 544 3141 544 3541 
Q 544 4100 942 4425 
Q 1341 4750 2034 4750 
Q 2731 4750 3128 4425 
Q 3525 4100 3525 3541 
Q 3525 3141 3298 2862 
Q 3072 2584 2669 2484 
Q 3125 2378 3379 2068 
Q 3634 1759 3634 1313 
Q 3634 634 3220 271 
Q 2806 -91 2034 -91 
Q 1263 -91 848 271 
Q 434 634 434 1313 
Q 434 1759 690 2068 
Q 947 2378 1403 2484 
z
M 1172 3481 
Q 1172 3119 1398 2916 
Q 1625 2713 2034 2713 
Q 2441 2713 2670 2916 
Q 2900 3119 2900 3481 
Q 2900 3844 2670 4047 
Q 2441 4250 2034 4250 
Q 1625 4250 1398 4047 
Q 1172 3844 1172 3481 
z
" transform="scale(0.015625)"/>
       </defs>
       <use xlink:href="#DejaVuSans-38"/>
       <use xlink:href="#DejaVuSans-30" x="63.623047"/>
      </g>
     </g>
    </g>
    <g id="xtick_6">
     <g id="line2d_6">
      <g>
       <use xlink:href="#m5339d79211" x="601.985725" y="406.08" style="stroke: #000000; stroke-width: 0.8"/>
      </g>
     </g>
     <g id="text_6">
      <!-- 100 -->
      <g transform="translate(592.441975 420.678437) scale(0.1 -0.1)">
       <defs>
        <path id="DejaVuSans-31" d="M 794 531 
L 1825 531 
L 1825 4091 
L 703 3866 
L 703 4441 
L 1819 4666 
L 2450 4666 
L 2450 531 
L 3481 531 
L 3481 0 
L 794 0 
L 794 531 
z
" transform="scale(0.015625)"/>
       </defs>
       <use xlink:href="#DejaVuSans-31"/>
       <use xlink:href="#DejaVuSans-30" x="63.623047"/>
       <use xlink:href="#DejaVuSans-30" x="127.246094"/>
      </g>
     </g>
    </g>
   </g>
   <g id="matplotlib.axis_2">
    <g id="ytick_1">
     <g id="line2d_7">
      <defs>
       <path id="mf00b6efa92" d="M 0 0 
L -3.5 0 
" style="stroke: #000000; stroke-width: 0.8"/>
      </defs>
      <g>
       <use xlink:href="#mf00b6efa92" x="162" y="397.776358" style="stroke: #000000; stroke-width: 0.8"/>
      </g>
     </g>
     <g id="text_7">
      <!-- 0 -->
      <g transform="translate(148.6375 401.575576) scale(0.1 -0.1)">
       <use xlink:href="#DejaVuSans-30"/>
      </g>
     </g>
    </g>
    <g id="ytick_2">
     <g id="line2d_8">
      <g>
       <use xlink:href="#mf00b6efa92" x="162" y="345.685861" style="stroke: #000000; stroke-width: 0.8"/>
      </g>
     </g>
     <g id="text_8">
      <!-- 2 -->
      <g transform="translate(148.6375 349.48508) scale(0.1 -0.1)">
       <use xlink:href="#DejaVuSans-32"/>
      </g>
     </g>
    </g>
    <g id="ytick_3">
     <g id="line2d_9">
      <g>
       <use xlink:href="#mf00b6efa92" x="162" y="293.595364" style="stroke: #000000; stroke-width: 0.8"/>
      </g>
     </g>
     <g id="text_9">
      <!-- 4 -->
      <g transform="translate(148.6375 297.394583) scale(0.1 -0.1)">
       <use xlink:href="#DejaVuSans-34"/>
      </g>
     </g>
    </g>
    <g id="ytick_4">
     <g id="line2d_10">
      <g>
       <use xlink:href="#mf00b6efa92" x="162" y="241.504867" style="stroke: #000000; stroke-width: 0.8"/>
      </g>
     </g>
     <g id="text_10">
      <!-- 6 -->
      <g transform="translate(148.6375 245.304086) scale(0.1 -0.1)">
       <use xlink:href="#DejaVuSans-36"/>
      </g>
     </g>
    </g>
    <g id="ytick_5">
     <g id="line2d_11">
      <g>
       <use xlink:href="#mf00b6efa92" x="162" y="189.414371" style="stroke: #000000; stroke-width: 0.8"/>
      </g>
     </g>
     <g id="text_11">
      <!-- 8 -->
      <g transform="translate(148.6375 193.213589) scale(0.1 -0.1)">
       <use xlink:href="#DejaVuSans-38"/>
      </g>
     </g>
    </g>
    <g id="ytick_6">
     <g id="line2d_12">
      <g>
       <use xlink:href="#mf00b6efa92" x="162" y="137.323874" style="stroke: #000000; stroke-width: 0.8"/>
      </g>
     </g>
     <g id="text_12">
      <!-- 10 -->
      <g transform="translate(142.275 141.123092) scale(0.1 -0.1)">
       <use xlink:href="#DejaVuSans-31"/>
       <use xlink:href="#DejaVuSans-30" x="63.623047"/>
      </g>
     </g>
    </g>
   </g>
   <g id="line2d_13">
    <path d="M 182.752066 161.156219 
L 186.944403 117.425455 
L 191.136739 152.357959 
L 195.329076 354.450799 
L 199.521412 153.479972 
L 203.713749 353.132554 
L 207.906086 355.034484 
L 212.098422 353.67817 
L 216.290759 377.746098 
L 220.483095 377.683144 
L 224.675432 381.369196 
L 228.867769 378.209614 
L 233.060105 376.797325 
L 237.252442 376.627503 
L 241.444778 385.72265 
L 245.637115 387.720354 
L 249.829452 390.173239 
L 254.021788 386.482448 
L 258.214125 386.135569 
L 262.406461 390.371173 
L 266.598798 390.207167 
L 270.791134 389.125289 
L 274.983471 390.498211 
L 279.175808 390.532513 
L 283.368144 390.39872 
L 287.560481 390.315994 
L 291.752817 390.03826 
L 295.945154 390.715368 
L 300.137491 390.394628 
L 304.329827 390.518993 
L 308.522164 390.495114 
L 312.7145 390.556631 
L 316.906837 390.604927 
L 321.099174 390.449163 
L 325.29151 390.460646 
L 329.483847 390.661909 
L 333.676183 390.518523 
L 337.86852 390.33347 
L 342.060856 390.553941 
L 346.253193 390.753511 
L 350.44553 390.672439 
L 354.637866 390.274026 
L 358.830203 390.614812 
L 363.022539 390.39318 
L 367.214876 390.344506 
L 371.407213 390.502526 
L 375.599549 390.609558 
L 379.791886 390.699626 
L 383.984222 390.682066 
L 388.176559 390.685005 
L 392.368896 390.407914 
L 396.561232 390.714875 
L 400.753569 390.753632 
L 404.945905 390.604261 
L 409.138242 390.571609 
L 413.330579 390.413497 
L 417.522915 390.471162 
L 421.715252 390.763725 
L 425.907588 390.657795 
L 430.099925 390.724784 
L 434.292261 390.45791 
L 438.484598 390.874481 
L 442.676935 390.42882 
L 446.869271 390.802107 
L 451.061608 390.229992 
L 455.253944 390.803843 
L 459.446281 390.355338 
L 463.638618 390.77306 
L 467.830954 390.45683 
L 472.023291 390.58571 
L 476.215627 390.594106 
L 480.407964 390.743034 
L 484.600301 390.538695 
L 488.792637 390.642133 
L 492.984974 390.594761 
L 497.17731 390.837796 
L 501.369647 390.620257 
L 505.561983 390.751979 
L 509.75432 390.64171 
L 513.946657 390.792223 
L 518.138993 390.586191 
L 522.33133 390.859602 
L 526.523666 390.571411 
L 530.716003 390.672551 
L 534.90834 390.711821 
L 539.100676 390.619864 
L 543.293013 390.807693 
L 547.485349 390.521285 
L 551.677686 390.809888 
L 555.870023 390.609013 
L 560.062359 390.74413 
L 564.254696 390.639809 
L 568.447032 390.81152 
L 572.639369 390.456566 
L 576.831705 390.716524 
L 581.024042 390.864029 
L 585.216379 390.988184 
L 589.408715 391.070945 
L 593.601052 390.975054 
L 597.793388 391.112365 
" clip-path="url(#pa8bcc50df2)" style="fill: none; stroke: #4169e1; stroke-linecap: square"/>
   </g>
   <g id="line2d_14">
    <path d="M 182.752066 319.225266 
L 186.944403 281.61676 
L 191.136739 321.338132 
L 195.329076 370.241291 
L 199.521412 324.545893 
L 203.713749 369.602462 
L 207.906086 370.726717 
L 212.098422 369.839286 
L 216.290759 384.178662 
L 220.483095 384.138591 
L 224.675432 386.113696 
L 228.867769 385.060389 
L 233.060105 384.220622 
L 237.252442 384.192702 
L 241.444778 389.448447 
L 245.637115 391.169987 
L 249.829452 391.807835 
L 254.021788 389.733084 
L 258.214125 390.154845 
L 262.406461 392.160052 
L 266.598798 391.967198 
L 270.791134 391.647635 
L 274.983471 392.132573 
L 279.175808 392.088466 
L 283.368144 392.066586 
L 287.560481 392.158078 
L 291.752817 392.041223 
L 295.945154 392.061675 
L 300.137491 392.105918 
L 304.329827 392.197288 
L 308.522164 392.157191 
L 312.7145 391.968295 
L 316.906837 392.295346 
L 321.099174 392.058932 
L 325.29151 392.089669 
L 329.483847 392.123401 
L 333.676183 392.037725 
L 337.86852 392.085571 
L 342.060856 392.22386 
L 346.253193 392.057921 
L 350.44553 391.745781 
L 354.637866 392.153209 
L 358.830203 392.279724 
L 363.022539 392.178846 
L 367.214876 391.979287 
L 371.407213 392.14147 
L 375.599549 392.126903 
L 379.791886 392.061442 
L 383.984222 392.084695 
L 388.176559 392.109264 
L 392.368896 392.103443 
L 396.561232 392.102757 
L 400.753569 392.2837 
L 404.945905 392.197505 
L 409.138242 392.25853 
L 413.330579 392.083378 
L 417.522915 392.08465 
L 421.715252 391.705681 
L 425.907588 392.104222 
L 430.099925 392.228738 
L 434.292261 392.190428 
L 438.484598 392.089131 
L 442.676935 392.268218 
L 446.869271 392.101578 
L 451.061608 392.16794 
L 455.253944 392.074272 
L 459.446281 392.075713 
L 463.638618 391.65938 
L 467.830954 392.098486 
L 472.023291 391.981148 
L 476.215627 392.139948 
L 480.407964 392.072883 
L 484.600301 392.089671 
L 488.792637 391.966837 
L 492.984974 392.177509 
L 497.17731 392.020819 
L 501.369647 392.198943 
L 505.561983 392.082417 
L 509.75432 392.076786 
L 513.946657 392.009328 
L 518.138993 392.072782 
L 522.33133 392.12974 
L 526.523666 391.986686 
L 530.716003 392.221304 
L 534.90834 392.063387 
L 539.100676 392.275342 
L 543.293013 392.053269 
L 547.485349 391.797491 
L 551.677686 392.21229 
L 555.870023 392.133183 
L 560.062359 392.209188 
L 564.254696 392.243381 
L 568.447032 392.236102 
L 572.639369 392.23446 
L 576.831705 391.815237 
L 581.024042 392.249256 
L 585.216379 392.082498 
L 589.408715 392.334545 
L 593.601052 392.007627 
L 597.793388 392.131784 
" clip-path="url(#pa8bcc50df2)" style="fill: none; stroke: #ff6347; stroke-linecap: square"/>
   </g>
   <g id="patch_3">
    <path d="M 162 406.08 
L 162 103.68 
" style="fill: none; stroke: #000000; stroke-width: 0.8; stroke-linejoin: miter; stroke-linecap: square"/>
   </g>
   <g id="patch_4">
    <path d="M 618.545455 406.08 
L 618.545455 103.68 
" style="fill: none; stroke: #000000; stroke-width: 0.8; stroke-linejoin: miter; stroke-linecap: square"/>
   </g>
   <g id="patch_5">
    <path d="M 162 406.08 
L 618.545455 406.08 
" style="fill: none; stroke: #000000; stroke-width: 0.8; stroke-linejoin: miter; stroke-linecap: square"/>
   </g>
   <g id="patch_6">
    <path d="M 162 103.68 
L 618.545455 103.68 
" style="fill: none; stroke: #000000; stroke-width: 0.8; stroke-linejoin: miter; stroke-linecap: square"/>
   </g>
   <g id="text_13">
    <!-- MSLE -->
    <g transform="translate(374.152415 97.68) scale(0.12 -0.12)">
     <defs>
      <path id="DejaVuSans-4d" d="M 628 4666 
L 1569 4666 
L 2759 1491 
L 3956 4666 
L 4897 4666 
L 4897 0 
L 4281 0 
L 4281 4097 
L 3078 897 
L 2444 897 
L 1241 4097 
L 1241 0 
L 628 0 
L 628 4666 
z
" transform="scale(0.015625)"/>
      <path id="DejaVuSans-53" d="M 3425 4513 
L 3425 3897 
Q 3066 4069 2747 4153 
Q 2428 4238 2131 4238 
Q 1616 4238 1336 4038 
Q 1056 3838 1056 3469 
Q 1056 3159 1242 3001 
Q 1428 2844 1947 2747 
L 2328 2669 
Q 3034 2534 3370 2195 
Q 3706 1856 3706 1288 
Q 3706 609 3251 259 
Q 2797 -91 1919 -91 
Q 1588 -91 1214 -16 
Q 841 59 441 206 
L 441 856 
Q 825 641 1194 531 
Q 1563 422 1919 422 
Q 2459 422 2753 634 
Q 3047 847 3047 1241 
Q 3047 1584 2836 1778 
Q 2625 1972 2144 2069 
L 1759 2144 
Q 1053 2284 737 2584 
Q 422 2884 422 3419 
Q 422 4038 858 4394 
Q 1294 4750 2059 4750 
Q 2388 4750 2728 4690 
Q 3069 4631 3425 4513 
z
" transform="scale(0.015625)"/>
      <path id="DejaVuSans-4c" d="M 628 4666 
L 1259 4666 
L 1259 531 
L 3531 531 
L 3531 0 
L 628 0 
L 628 4666 
z
" transform="scale(0.015625)"/>
      <path id="DejaVuSans-45" d="M 628 4666 
L 3578 4666 
L 3578 4134 
L 1259 4134 
L 1259 2753 
L 3481 2753 
L 3481 2222 
L 1259 2222 
L 1259 531 
L 3634 531 
L 3634 0 
L 628 0 
L 628 4666 
z
" transform="scale(0.015625)"/>
     </defs>
     <use xlink:href="#DejaVuSans-4d"/>
     <use xlink:href="#DejaVuSans-53" x="86.279297"/>
     <use xlink:href="#DejaVuSans-4c" x="149.755859"/>
     <use xlink:href="#DejaVuSans-45" x="205.46875"/>
    </g>
   </g>
   <g id="legend_1">
    <g id="patch_7">
     <path d="M 530.164205 141.03625 
L 611.545455 141.03625 
Q 613.545455 141.03625 613.545455 139.03625 
L 613.545455 110.68 
Q 613.545455 108.68 611.545455 108.68 
L 530.164205 108.68 
Q 528.164205 108.68 528.164205 110.68 
L 528.164205 139.03625 
Q 528.164205 141.03625 530.164205 141.03625 
z
" style="fill: #ffffff; opacity: 0.8; stroke: #cccccc; stroke-linejoin: miter"/>
    </g>
    <g id="line2d_15">
     <path d="M 532.164205 116.778437 
L 542.164205 116.778437 
L 552.164205 116.778437 
" style="fill: none; stroke: #4169e1; stroke-linecap: square"/>
    </g>
    <g id="text_14">
     <!-- Training -->
     <g transform="translate(560.164205 120.278437) scale(0.1 -0.1)">
      <defs>
       <path id="DejaVuSans-54" d="M -19 4666 
L 3928 4666 
L 3928 4134 
L 2272 4134 
L 2272 0 
L 1638 0 
L 1638 4134 
L -19 4134 
L -19 4666 
z
" transform="scale(0.015625)"/>
       <path id="DejaVuSans-72" d="M 2631 2963 
Q 2534 3019 2420 3045 
Q 2306 3072 2169 3072 
Q 1681 3072 1420 2755 
Q 1159 2438 1159 1844 
L 1159 0 
L 581 0 
L 581 3500 
L 1159 3500 
L 1159 2956 
Q 1341 3275 1631 3429 
Q 1922 3584 2338 3584 
Q 2397 3584 2469 3576 
Q 2541 3569 2628 3553 
L 2631 2963 
z
" transform="scale(0.015625)"/>
       <path id="DejaVuSans-61" d="M 2194 1759 
Q 1497 1759 1228 1600 
Q 959 1441 959 1056 
Q 959 750 1161 570 
Q 1363 391 1709 391 
Q 2188 391 2477 730 
Q 2766 1069 2766 1631 
L 2766 1759 
L 2194 1759 
z
M 3341 1997 
L 3341 0 
L 2766 0 
L 2766 531 
Q 2569 213 2275 61 
Q 1981 -91 1556 -91 
Q 1019 -91 701 211 
Q 384 513 384 1019 
Q 384 1609 779 1909 
Q 1175 2209 1959 2209 
L 2766 2209 
L 2766 2266 
Q 2766 2663 2505 2880 
Q 2244 3097 1772 3097 
Q 1472 3097 1187 3025 
Q 903 2953 641 2809 
L 641 3341 
Q 956 3463 1253 3523 
Q 1550 3584 1831 3584 
Q 2591 3584 2966 3190 
Q 3341 2797 3341 1997 
z
" transform="scale(0.015625)"/>
       <path id="DejaVuSans-69" d="M 603 3500 
L 1178 3500 
L 1178 0 
L 603 0 
L 603 3500 
z
M 603 4863 
L 1178 4863 
L 1178 4134 
L 603 4134 
L 603 4863 
z
" transform="scale(0.015625)"/>
       <path id="DejaVuSans-6e" d="M 3513 2113 
L 3513 0 
L 2938 0 
L 2938 2094 
Q 2938 2591 2744 2837 
Q 2550 3084 2163 3084 
Q 1697 3084 1428 2787 
Q 1159 2491 1159 1978 
L 1159 0 
L 581 0 
L 581 3500 
L 1159 3500 
L 1159 2956 
Q 1366 3272 1645 3428 
Q 1925 3584 2291 3584 
Q 2894 3584 3203 3211 
Q 3513 2838 3513 2113 
z
" transform="scale(0.015625)"/>
       <path id="DejaVuSans-67" d="M 2906 1791 
Q 2906 2416 2648 2759 
Q 2391 3103 1925 3103 
Q 1463 3103 1205 2759 
Q 947 2416 947 1791 
Q 947 1169 1205 825 
Q 1463 481 1925 481 
Q 2391 481 2648 825 
Q 2906 1169 2906 1791 
z
M 3481 434 
Q 3481 -459 3084 -895 
Q 2688 -1331 1869 -1331 
Q 1566 -1331 1297 -1286 
Q 1028 -1241 775 -1147 
L 775 -588 
Q 1028 -725 1275 -790 
Q 1522 -856 1778 -856 
Q 2344 -856 2625 -561 
Q 2906 -266 2906 331 
L 2906 616 
Q 2728 306 2450 153 
Q 2172 0 1784 0 
Q 1141 0 747 490 
Q 353 981 353 1791 
Q 353 2603 747 3093 
Q 1141 3584 1784 3584 
Q 2172 3584 2450 3431 
Q 2728 3278 2906 2969 
L 2906 3500 
L 3481 3500 
L 3481 434 
z
" transform="scale(0.015625)"/>
      </defs>
      <use xlink:href="#DejaVuSans-54"/>
      <use xlink:href="#DejaVuSans-72" x="46.333984"/>
      <use xlink:href="#DejaVuSans-61" x="87.447266"/>
      <use xlink:href="#DejaVuSans-69" x="148.726562"/>
      <use xlink:href="#DejaVuSans-6e" x="176.509766"/>
      <use xlink:href="#DejaVuSans-69" x="239.888672"/>
      <use xlink:href="#DejaVuSans-6e" x="267.671875"/>
      <use xlink:href="#DejaVuSans-67" x="331.050781"/>
     </g>
    </g>
    <g id="line2d_16">
     <path d="M 532.164205 131.456562 
L 542.164205 131.456562 
L 552.164205 131.456562 
" style="fill: none; stroke: #ff6347; stroke-linecap: square"/>
    </g>
    <g id="text_15">
     <!-- Validation -->
     <g transform="translate(560.164205 134.956562) scale(0.1 -0.1)">
      <defs>
       <path id="DejaVuSans-56" d="M 1831 0 
L 50 4666 
L 709 4666 
L 2188 738 
L 3669 4666 
L 4325 4666 
L 2547 0 
L 1831 0 
z
" transform="scale(0.015625)"/>
       <path id="DejaVuSans-6c" d="M 603 4863 
L 1178 4863 
L 1178 0 
L 603 0 
L 603 4863 
z
" transform="scale(0.015625)"/>
       <path id="DejaVuSans-64" d="M 2906 2969 
L 2906 4863 
L 3481 4863 
L 3481 0 
L 2906 0 
L 2906 525 
Q 2725 213 2448 61 
Q 2172 -91 1784 -91 
Q 1150 -91 751 415 
Q 353 922 353 1747 
Q 353 2572 751 3078 
Q 1150 3584 1784 3584 
Q 2172 3584 2448 3432 
Q 2725 3281 2906 2969 
z
M 947 1747 
Q 947 1113 1208 752 
Q 1469 391 1925 391 
Q 2381 391 2643 752 
Q 2906 1113 2906 1747 
Q 2906 2381 2643 2742 
Q 2381 3103 1925 3103 
Q 1469 3103 1208 2742 
Q 947 2381 947 1747 
z
" transform="scale(0.015625)"/>
       <path id="DejaVuSans-74" d="M 1172 4494 
L 1172 3500 
L 2356 3500 
L 2356 3053 
L 1172 3053 
L 1172 1153 
Q 1172 725 1289 603 
Q 1406 481 1766 481 
L 2356 481 
L 2356 0 
L 1766 0 
Q 1100 0 847 248 
Q 594 497 594 1153 
L 594 3053 
L 172 3053 
L 172 3500 
L 594 3500 
L 594 4494 
L 1172 4494 
z
" transform="scale(0.015625)"/>
       <path id="DejaVuSans-6f" d="M 1959 3097 
Q 1497 3097 1228 2736 
Q 959 2375 959 1747 
Q 959 1119 1226 758 
Q 1494 397 1959 397 
Q 2419 397 2687 759 
Q 2956 1122 2956 1747 
Q 2956 2369 2687 2733 
Q 2419 3097 1959 3097 
z
M 1959 3584 
Q 2709 3584 3137 3096 
Q 3566 2609 3566 1747 
Q 3566 888 3137 398 
Q 2709 -91 1959 -91 
Q 1206 -91 779 398 
Q 353 888 353 1747 
Q 353 2609 779 3096 
Q 1206 3584 1959 3584 
z
" transform="scale(0.015625)"/>
      </defs>
      <use xlink:href="#DejaVuSans-56"/>
      <use xlink:href="#DejaVuSans-61" x="60.658203"/>
      <use xlink:href="#DejaVuSans-6c" x="121.9375"/>
      <use xlink:href="#DejaVuSans-69" x="149.720703"/>
      <use xlink:href="#DejaVuSans-64" x="177.503906"/>
      <use xlink:href="#DejaVuSans-61" x="240.980469"/>
      <use xlink:href="#DejaVuSans-74" x="302.259766"/>
      <use xlink:href="#DejaVuSans-69" x="341.46875"/>
      <use xlink:href="#DejaVuSans-6f" x="369.251953"/>
      <use xlink:href="#DejaVuSans-6e" x="430.433594"/>
     </g>
    </g>
   </g>
  </g>
  <g id="axes_2">
   <g id="patch_8">
    <path d="M 709.854545 406.08 
L 1166.4 406.08 
L 1166.4 103.68 
L 709.854545 103.68 
z
" style="fill: #ffffff"/>
   </g>
   <g id="matplotlib.axis_3">
    <g id="xtick_7">
     <g id="line2d_17">
      <g>
       <use xlink:href="#m5339d79211" x="730.606612" y="406.08" style="stroke: #000000; stroke-width: 0.8"/>
      </g>
     </g>
     <g id="text_16">
      <!-- 0 -->
      <g transform="translate(727.425362 420.678437) scale(0.1 -0.1)">
       <use xlink:href="#DejaVuSans-30"/>
      </g>
     </g>
    </g>
    <g id="xtick_8">
     <g id="line2d_18">
      <g>
       <use xlink:href="#m5339d79211" x="814.453343" y="406.08" style="stroke: #000000; stroke-width: 0.8"/>
      </g>
     </g>
     <g id="text_17">
      <!-- 20 -->
      <g transform="translate(808.090843 420.678437) scale(0.1 -0.1)">
       <use xlink:href="#DejaVuSans-32"/>
       <use xlink:href="#DejaVuSans-30" x="63.623047"/>
      </g>
     </g>
    </g>
    <g id="xtick_9">
     <g id="line2d_19">
      <g>
       <use xlink:href="#m5339d79211" x="898.300075" y="406.08" style="stroke: #000000; stroke-width: 0.8"/>
      </g>
     </g>
     <g id="text_18">
      <!-- 40 -->
      <g transform="translate(891.937575 420.678437) scale(0.1 -0.1)">
       <use xlink:href="#DejaVuSans-34"/>
       <use xlink:href="#DejaVuSans-30" x="63.623047"/>
      </g>
     </g>
    </g>
    <g id="xtick_10">
     <g id="line2d_20">
      <g>
       <use xlink:href="#m5339d79211" x="982.146807" y="406.08" style="stroke: #000000; stroke-width: 0.8"/>
      </g>
     </g>
     <g id="text_19">
      <!-- 60 -->
      <g transform="translate(975.784307 420.678437) scale(0.1 -0.1)">
       <use xlink:href="#DejaVuSans-36"/>
       <use xlink:href="#DejaVuSans-30" x="63.623047"/>
      </g>
     </g>
    </g>
    <g id="xtick_11">
     <g id="line2d_21">
      <g>
       <use xlink:href="#m5339d79211" x="1065.993539" y="406.08" style="stroke: #000000; stroke-width: 0.8"/>
      </g>
     </g>
     <g id="text_20">
      <!-- 80 -->
      <g transform="translate(1059.631039 420.678437) scale(0.1 -0.1)">
       <use xlink:href="#DejaVuSans-38"/>
       <use xlink:href="#DejaVuSans-30" x="63.623047"/>
      </g>
     </g>
    </g>
    <g id="xtick_12">
     <g id="line2d_22">
      <g>
       <use xlink:href="#m5339d79211" x="1149.84027" y="406.08" style="stroke: #000000; stroke-width: 0.8"/>
      </g>
     </g>
     <g id="text_21">
      <!-- 100 -->
      <g transform="translate(1140.29652 420.678437) scale(0.1 -0.1)">
       <use xlink:href="#DejaVuSans-31"/>
       <use xlink:href="#DejaVuSans-30" x="63.623047"/>
       <use xlink:href="#DejaVuSans-30" x="127.246094"/>
      </g>
     </g>
    </g>
   </g>
   <g id="matplotlib.axis_4">
    <g id="ytick_7">
     <g id="line2d_23">
      <g>
       <use xlink:href="#mf00b6efa92" x="709.854545" y="352.289133" style="stroke: #000000; stroke-width: 0.8"/>
      </g>
     </g>
     <g id="text_22">
      <!-- 5000 -->
      <g transform="translate(677.404545 356.088351) scale(0.1 -0.1)">
       <defs>
        <path id="DejaVuSans-35" d="M 691 4666 
L 3169 4666 
L 3169 4134 
L 1269 4134 
L 1269 2991 
Q 1406 3038 1543 3061 
Q 1681 3084 1819 3084 
Q 2600 3084 3056 2656 
Q 3513 2228 3513 1497 
Q 3513 744 3044 326 
Q 2575 -91 1722 -91 
Q 1428 -91 1123 -41 
Q 819 9 494 109 
L 494 744 
Q 775 591 1075 516 
Q 1375 441 1709 441 
Q 2250 441 2565 725 
Q 2881 1009 2881 1497 
Q 2881 1984 2565 2268 
Q 2250 2553 1709 2553 
Q 1456 2553 1204 2497 
Q 953 2441 691 2322 
L 691 4666 
z
" transform="scale(0.015625)"/>
       </defs>
       <use xlink:href="#DejaVuSans-35"/>
       <use xlink:href="#DejaVuSans-30" x="63.623047"/>
       <use xlink:href="#DejaVuSans-30" x="127.246094"/>
       <use xlink:href="#DejaVuSans-30" x="190.869141"/>
      </g>
     </g>
    </g>
    <g id="ytick_8">
     <g id="line2d_24">
      <g>
       <use xlink:href="#mf00b6efa92" x="709.854545" y="289.110514" style="stroke: #000000; stroke-width: 0.8"/>
      </g>
     </g>
     <g id="text_23">
      <!-- 10000 -->
      <g transform="translate(671.042045 292.909732) scale(0.1 -0.1)">
       <use xlink:href="#DejaVuSans-31"/>
       <use xlink:href="#DejaVuSans-30" x="63.623047"/>
       <use xlink:href="#DejaVuSans-30" x="127.246094"/>
       <use xlink:href="#DejaVuSans-30" x="190.869141"/>
       <use xlink:href="#DejaVuSans-30" x="254.492188"/>
      </g>
     </g>
    </g>
    <g id="ytick_9">
     <g id="line2d_25">
      <g>
       <use xlink:href="#mf00b6efa92" x="709.854545" y="225.931895" style="stroke: #000000; stroke-width: 0.8"/>
      </g>
     </g>
     <g id="text_24">
      <!-- 15000 -->
      <g transform="translate(671.042045 229.731113) scale(0.1 -0.1)">
       <use xlink:href="#DejaVuSans-31"/>
       <use xlink:href="#DejaVuSans-35" x="63.623047"/>
       <use xlink:href="#DejaVuSans-30" x="127.246094"/>
       <use xlink:href="#DejaVuSans-30" x="190.869141"/>
       <use xlink:href="#DejaVuSans-30" x="254.492188"/>
      </g>
     </g>
    </g>
    <g id="ytick_10">
     <g id="line2d_26">
      <g>
       <use xlink:href="#mf00b6efa92" x="709.854545" y="162.753276" style="stroke: #000000; stroke-width: 0.8"/>
      </g>
     </g>
     <g id="text_25">
      <!-- 20000 -->
      <g transform="translate(671.042045 166.552494) scale(0.1 -0.1)">
       <use xlink:href="#DejaVuSans-32"/>
       <use xlink:href="#DejaVuSans-30" x="63.623047"/>
       <use xlink:href="#DejaVuSans-30" x="127.246094"/>
       <use xlink:href="#DejaVuSans-30" x="190.869141"/>
       <use xlink:href="#DejaVuSans-30" x="254.492188"/>
      </g>
     </g>
    </g>
   </g>
   <g id="line2d_27">
    <path d="M 730.606612 132.58546 
L 734.798948 121.495219 
L 738.991285 131.687115 
L 743.183621 227.617641 
L 747.375958 132.70624 
L 751.568295 225.158499 
L 755.760631 228.403758 
L 759.952968 225.90476 
L 764.145304 301.274187 
L 768.337641 300.794535 
L 772.529977 341.412711 
L 776.722314 295.935322 
L 780.914651 290.556181 
L 785.106987 289.691954 
L 789.299324 337.585568 
L 793.49166 358.147068 
L 797.683997 384.078109 
L 801.876334 343.65591 
L 806.06867 349.316955 
L 810.261007 384.433396 
L 814.453343 383.615291 
L 818.64568 367.899153 
L 822.838017 384.459787 
L 827.030353 385.442788 
L 831.22269 384.917184 
L 835.415026 383.367834 
L 839.607363 379.493969 
L 843.799699 386.048831 
L 847.992036 383.516649 
L 852.184373 384.910564 
L 856.376709 385.214781 
L 860.569046 384.521436 
L 864.761382 384.412619 
L 868.953719 384.014313 
L 873.146056 384.97601 
L 877.338392 383.899305 
L 881.530729 384.480783 
L 885.723065 384.228636 
L 889.915402 385.616505 
L 894.107739 385.424831 
L 898.300075 385.116151 
L 902.492412 383.373636 
L 906.684748 384.997515 
L 910.877085 383.177394 
L 915.069421 383.113777 
L 919.261758 384.488418 
L 923.454095 385.011024 
L 927.646431 384.775637 
L 931.838768 385.394386 
L 936.031104 384.54763 
L 940.223441 383.669259 
L 944.415778 384.752818 
L 948.608114 385.730825 
L 952.800451 384.724801 
L 956.992787 384.671189 
L 961.185124 383.672439 
L 965.377461 384.578954 
L 969.569797 385.410835 
L 973.762134 385.610252 
L 977.95447 385.702555 
L 982.146807 384.724058 
L 986.339144 385.377025 
L 990.53148 384.87134 
L 994.723817 385.01637 
L 998.916153 382.635514 
L 1003.10849 385.786535 
L 1007.300826 383.549108 
L 1011.493163 385.166431 
L 1015.6855 384.260966 
L 1019.877836 385.136323 
L 1024.070173 384.854737 
L 1028.262509 384.808352 
L 1032.454846 384.540065 
L 1036.647183 384.406789 
L 1040.839519 385.132809 
L 1045.031856 386.064629 
L 1049.224192 385.825759 
L 1053.416529 384.707535 
L 1057.608866 385.013566 
L 1061.801202 385.231088 
L 1065.993539 385.172506 
L 1070.185875 386.070922 
L 1074.378212 384.775964 
L 1078.570548 385.252577 
L 1082.762885 385.422697 
L 1086.955222 385.620978 
L 1091.147558 385.994423 
L 1095.339895 385.148172 
L 1099.532231 386.272239 
L 1103.724568 385.698134 
L 1107.916905 385.808518 
L 1112.109241 384.648348 
L 1116.301578 385.855115 
L 1120.493914 384.616534 
L 1124.686251 385.552601 
L 1128.878588 386.337765 
L 1133.070924 385.70924 
L 1137.263261 387.381058 
L 1141.455597 385.822397 
L 1145.647934 386.85654 
" clip-path="url(#pc489d965b8)" style="fill: none; stroke: #4169e1; stroke-linecap: square"/>
   </g>
   <g id="line2d_28">
    <path d="M 730.606612 147.395417 
L 734.798948 117.425455 
L 738.991285 149.656175 
L 743.183621 244.439935 
L 747.375958 153.257085 
L 751.568295 242.166924 
L 755.760631 246.206012 
L 759.952968 243.002782 
L 764.145304 320.639594 
L 768.337641 320.198121 
L 772.529977 353.697053 
L 776.722314 317.876954 
L 780.914651 311.881001 
L 785.106987 311.367921 
L 789.299324 355.493091 
L 793.49166 376.541748 
L 797.683997 390.529901 
L 801.876334 359.890273 
L 806.06867 369.184749 
L 810.261007 390.239105 
L 814.453343 390.794235 
L 818.64568 381.735721 
L 822.838017 390.646055 
L 827.030353 389.841677 
L 831.22269 390.763315 
L 835.415026 389.876505 
L 839.607363 389.276617 
L 843.799699 391.652411 
L 847.992036 388.317527 
L 852.184373 390.358884 
L 856.376709 390.286209 
L 860.569046 391.002248 
L 864.761382 391.28522 
L 868.953719 389.753862 
L 873.146056 388.316342 
L 877.338392 388.519914 
L 881.530729 390.323951 
L 885.723065 391.177629 
L 889.915402 390.049819 
L 894.107739 391.492874 
L 898.300075 390.691004 
L 902.492412 389.114287 
L 906.684748 389.961195 
L 910.877085 391.22804 
L 915.069421 390.321436 
L 919.261758 391.501401 
L 923.454095 390.231938 
L 927.646431 392.334545 
L 931.838768 389.121095 
L 936.031104 392.178729 
L 940.223441 390.05031 
L 944.415778 389.358231 
L 948.608114 390.189776 
L 952.800451 390.841263 
L 956.992787 390.405491 
L 961.185124 391.106545 
L 965.377461 389.954749 
L 969.569797 391.363166 
L 973.762134 390.979134 
L 977.95447 390.673688 
L 982.146807 390.902041 
L 986.339144 392.06067 
L 990.53148 391.424587 
L 994.723817 390.945486 
L 998.916153 390.501337 
L 1003.10849 391.194074 
L 1007.300826 389.934571 
L 1011.493163 391.106147 
L 1015.6855 389.357595 
L 1019.877836 391.441962 
L 1024.070173 389.517692 
L 1028.262509 390.989791 
L 1032.454846 388.957707 
L 1036.647183 391.878095 
L 1040.839519 390.71785 
L 1045.031856 390.100646 
L 1049.224192 389.665283 
L 1053.416529 391.706904 
L 1057.608866 391.553956 
L 1061.801202 391.057841 
L 1065.993539 391.090727 
L 1070.185875 389.345126 
L 1074.378212 391.786755 
L 1078.570548 390.390902 
L 1082.762885 390.805265 
L 1086.955222 390.630128 
L 1091.147558 391.474068 
L 1095.339895 391.506619 
L 1099.532231 391.045877 
L 1103.724568 391.576501 
L 1107.916905 389.051272 
L 1112.109241 390.676448 
L 1116.301578 390.508185 
L 1120.493914 391.194599 
L 1124.686251 390.98505 
L 1128.878588 390.679007 
L 1133.070924 391.65265 
L 1137.263261 390.663343 
L 1141.455597 391.036951 
L 1145.647934 389.540166 
" clip-path="url(#pc489d965b8)" style="fill: none; stroke: #ff6347; stroke-linecap: square"/>
   </g>
   <g id="patch_9">
    <path d="M 709.854545 406.08 
L 709.854545 103.68 
" style="fill: none; stroke: #000000; stroke-width: 0.8; stroke-linejoin: miter; stroke-linecap: square"/>
   </g>
   <g id="patch_10">
    <path d="M 1166.4 406.08 
L 1166.4 103.68 
" style="fill: none; stroke: #000000; stroke-width: 0.8; stroke-linejoin: miter; stroke-linecap: square"/>
   </g>
   <g id="patch_11">
    <path d="M 709.854545 406.08 
L 1166.4 406.08 
" style="fill: none; stroke: #000000; stroke-width: 0.8; stroke-linejoin: miter; stroke-linecap: square"/>
   </g>
   <g id="patch_12">
    <path d="M 709.854545 103.68 
L 1166.4 103.68 
" style="fill: none; stroke: #000000; stroke-width: 0.8; stroke-linejoin: miter; stroke-linecap: square"/>
   </g>
   <g id="text_26">
    <!-- LOSS -->
    <g transform="translate(922.660398 97.68) scale(0.12 -0.12)">
     <defs>
      <path id="DejaVuSans-4f" d="M 2522 4238 
Q 1834 4238 1429 3725 
Q 1025 3213 1025 2328 
Q 1025 1447 1429 934 
Q 1834 422 2522 422 
Q 3209 422 3611 934 
Q 4013 1447 4013 2328 
Q 4013 3213 3611 3725 
Q 3209 4238 2522 4238 
z
M 2522 4750 
Q 3503 4750 4090 4092 
Q 4678 3434 4678 2328 
Q 4678 1225 4090 567 
Q 3503 -91 2522 -91 
Q 1538 -91 948 565 
Q 359 1222 359 2328 
Q 359 3434 948 4092 
Q 1538 4750 2522 4750 
z
" transform="scale(0.015625)"/>
     </defs>
     <use xlink:href="#DejaVuSans-4c"/>
     <use xlink:href="#DejaVuSans-4f" x="52.087891"/>
     <use xlink:href="#DejaVuSans-53" x="130.798828"/>
     <use xlink:href="#DejaVuSans-53" x="194.275391"/>
    </g>
   </g>
   <g id="legend_2">
    <g id="patch_13">
     <path d="M 1078.01875 141.03625 
L 1159.4 141.03625 
Q 1161.4 141.03625 1161.4 139.03625 
L 1161.4 110.68 
Q 1161.4 108.68 1159.4 108.68 
L 1078.01875 108.68 
Q 1076.01875 108.68 1076.01875 110.68 
L 1076.01875 139.03625 
Q 1076.01875 141.03625 1078.01875 141.03625 
z
" style="fill: #ffffff; opacity: 0.8; stroke: #cccccc; stroke-linejoin: miter"/>
    </g>
    <g id="line2d_29">
     <path d="M 1080.01875 116.778437 
L 1090.01875 116.778437 
L 1100.01875 116.778437 
" style="fill: none; stroke: #4169e1; stroke-linecap: square"/>
    </g>
    <g id="text_27">
     <!-- Training -->
     <g transform="translate(1108.01875 120.278437) scale(0.1 -0.1)">
      <use xlink:href="#DejaVuSans-54"/>
      <use xlink:href="#DejaVuSans-72" x="46.333984"/>
      <use xlink:href="#DejaVuSans-61" x="87.447266"/>
      <use xlink:href="#DejaVuSans-69" x="148.726562"/>
      <use xlink:href="#DejaVuSans-6e" x="176.509766"/>
      <use xlink:href="#DejaVuSans-69" x="239.888672"/>
      <use xlink:href="#DejaVuSans-6e" x="267.671875"/>
      <use xlink:href="#DejaVuSans-67" x="331.050781"/>
     </g>
    </g>
    <g id="line2d_30">
     <path d="M 1080.01875 131.456562 
L 1090.01875 131.456562 
L 1100.01875 131.456562 
" style="fill: none; stroke: #ff6347; stroke-linecap: square"/>
    </g>
    <g id="text_28">
     <!-- Validation -->
     <g transform="translate(1108.01875 134.956562) scale(0.1 -0.1)">
      <use xlink:href="#DejaVuSans-56"/>
      <use xlink:href="#DejaVuSans-61" x="60.658203"/>
      <use xlink:href="#DejaVuSans-6c" x="121.9375"/>
      <use xlink:href="#DejaVuSans-69" x="149.720703"/>
      <use xlink:href="#DejaVuSans-64" x="177.503906"/>
      <use xlink:href="#DejaVuSans-61" x="240.980469"/>
      <use xlink:href="#DejaVuSans-74" x="302.259766"/>
      <use xlink:href="#DejaVuSans-69" x="341.46875"/>
      <use xlink:href="#DejaVuSans-6f" x="369.251953"/>
      <use xlink:href="#DejaVuSans-6e" x="430.433594"/>
     </g>
    </g>
   </g>
  </g>
  <g id="axes_3">
   <g id="patch_14">
    <path d="M 162 768.96 
L 618.545455 768.96 
L 618.545455 466.56 
L 162 466.56 
z
" style="fill: #ffffff"/>
   </g>
   <g id="matplotlib.axis_5">
    <g id="xtick_13">
     <g id="line2d_31">
      <g>
       <use xlink:href="#m5339d79211" x="182.752066" y="768.96" style="stroke: #000000; stroke-width: 0.8"/>
      </g>
     </g>
     <g id="text_29">
      <!-- 0 -->
      <g transform="translate(179.570816 783.558437) scale(0.1 -0.1)">
       <use xlink:href="#DejaVuSans-30"/>
      </g>
     </g>
    </g>
    <g id="xtick_14">
     <g id="line2d_32">
      <g>
       <use xlink:href="#m5339d79211" x="266.598798" y="768.96" style="stroke: #000000; stroke-width: 0.8"/>
      </g>
     </g>
     <g id="text_30">
      <!-- 20 -->
      <g transform="translate(260.236298 783.558437) scale(0.1 -0.1)">
       <use xlink:href="#DejaVuSans-32"/>
       <use xlink:href="#DejaVuSans-30" x="63.623047"/>
      </g>
     </g>
    </g>
    <g id="xtick_15">
     <g id="line2d_33">
      <g>
       <use xlink:href="#m5339d79211" x="350.44553" y="768.96" style="stroke: #000000; stroke-width: 0.8"/>
      </g>
     </g>
     <g id="text_31">
      <!-- 40 -->
      <g transform="translate(344.08303 783.558437) scale(0.1 -0.1)">
       <use xlink:href="#DejaVuSans-34"/>
       <use xlink:href="#DejaVuSans-30" x="63.623047"/>
      </g>
     </g>
    </g>
    <g id="xtick_16">
     <g id="line2d_34">
      <g>
       <use xlink:href="#m5339d79211" x="434.292261" y="768.96" style="stroke: #000000; stroke-width: 0.8"/>
      </g>
     </g>
     <g id="text_32">
      <!-- 60 -->
      <g transform="translate(427.929761 783.558437) scale(0.1 -0.1)">
       <use xlink:href="#DejaVuSans-36"/>
       <use xlink:href="#DejaVuSans-30" x="63.623047"/>
      </g>
     </g>
    </g>
    <g id="xtick_17">
     <g id="line2d_35">
      <g>
       <use xlink:href="#m5339d79211" x="518.138993" y="768.96" style="stroke: #000000; stroke-width: 0.8"/>
      </g>
     </g>
     <g id="text_33">
      <!-- 80 -->
      <g transform="translate(511.776493 783.558437) scale(0.1 -0.1)">
       <use xlink:href="#DejaVuSans-38"/>
       <use xlink:href="#DejaVuSans-30" x="63.623047"/>
      </g>
     </g>
    </g>
    <g id="xtick_18">
     <g id="line2d_36">
      <g>
       <use xlink:href="#m5339d79211" x="601.985725" y="768.96" style="stroke: #000000; stroke-width: 0.8"/>
      </g>
     </g>
     <g id="text_34">
      <!-- 100 -->
      <g transform="translate(592.441975 783.558437) scale(0.1 -0.1)">
       <use xlink:href="#DejaVuSans-31"/>
       <use xlink:href="#DejaVuSans-30" x="63.623047"/>
       <use xlink:href="#DejaVuSans-30" x="127.246094"/>
      </g>
     </g>
    </g>
   </g>
   <g id="matplotlib.axis_6">
    <g id="ytick_11">
     <g id="line2d_37">
      <g>
       <use xlink:href="#mf00b6efa92" x="162" y="738.86727" style="stroke: #000000; stroke-width: 0.8"/>
      </g>
     </g>
     <g id="text_35">
      <!-- 40 -->
      <g transform="translate(142.275 742.666489) scale(0.1 -0.1)">
       <use xlink:href="#DejaVuSans-34"/>
       <use xlink:href="#DejaVuSans-30" x="63.623047"/>
      </g>
     </g>
    </g>
    <g id="ytick_12">
     <g id="line2d_38">
      <g>
       <use xlink:href="#mf00b6efa92" x="162" y="686.204378" style="stroke: #000000; stroke-width: 0.8"/>
      </g>
     </g>
     <g id="text_36">
      <!-- 60 -->
      <g transform="translate(142.275 690.003596) scale(0.1 -0.1)">
       <use xlink:href="#DejaVuSans-36"/>
       <use xlink:href="#DejaVuSans-30" x="63.623047"/>
      </g>
     </g>
    </g>
    <g id="ytick_13">
     <g id="line2d_39">
      <g>
       <use xlink:href="#mf00b6efa92" x="162" y="633.541485" style="stroke: #000000; stroke-width: 0.8"/>
      </g>
     </g>
     <g id="text_37">
      <!-- 80 -->
      <g transform="translate(142.275 637.340704) scale(0.1 -0.1)">
       <use xlink:href="#DejaVuSans-38"/>
       <use xlink:href="#DejaVuSans-30" x="63.623047"/>
      </g>
     </g>
    </g>
    <g id="ytick_14">
     <g id="line2d_40">
      <g>
       <use xlink:href="#mf00b6efa92" x="162" y="580.878593" style="stroke: #000000; stroke-width: 0.8"/>
      </g>
     </g>
     <g id="text_38">
      <!-- 100 -->
      <g transform="translate(135.9125 584.677812) scale(0.1 -0.1)">
       <use xlink:href="#DejaVuSans-31"/>
       <use xlink:href="#DejaVuSans-30" x="63.623047"/>
       <use xlink:href="#DejaVuSans-30" x="127.246094"/>
      </g>
     </g>
    </g>
    <g id="ytick_15">
     <g id="line2d_41">
      <g>
       <use xlink:href="#mf00b6efa92" x="162" y="528.215701" style="stroke: #000000; stroke-width: 0.8"/>
      </g>
     </g>
     <g id="text_39">
      <!-- 120 -->
      <g transform="translate(135.9125 532.01492) scale(0.1 -0.1)">
       <use xlink:href="#DejaVuSans-31"/>
       <use xlink:href="#DejaVuSans-32" x="63.623047"/>
       <use xlink:href="#DejaVuSans-30" x="127.246094"/>
      </g>
     </g>
    </g>
    <g id="ytick_16">
     <g id="line2d_42">
      <g>
       <use xlink:href="#mf00b6efa92" x="162" y="475.552809" style="stroke: #000000; stroke-width: 0.8"/>
      </g>
     </g>
     <g id="text_40">
      <!-- 140 -->
      <g transform="translate(135.9125 479.352027) scale(0.1 -0.1)">
       <use xlink:href="#DejaVuSans-31"/>
       <use xlink:href="#DejaVuSans-34" x="63.623047"/>
       <use xlink:href="#DejaVuSans-30" x="127.246094"/>
      </g>
     </g>
    </g>
   </g>
   <g id="line2d_43">
    <path d="M 182.752066 498.954029 
L 186.944403 490.278345 
L 191.136739 498.259261 
L 195.329076 575.450485 
L 199.521412 499.062954 
L 203.713749 573.33934 
L 207.906086 576.033858 
L 212.098422 574.15145 
L 216.290759 636.907749 
L 220.483095 636.345449 
L 224.675432 670.771336 
L 228.867769 635.971788 
L 233.060105 630.771131 
L 237.252442 630.477727 
L 241.444778 677.957068 
L 245.637115 699.287102 
L 249.829452 738.757492 
L 254.021788 683.282249 
L 258.214125 687.746583 
L 262.406461 739.720523 
L 266.598798 738.215061 
L 270.791134 711.730203 
L 274.983471 740.418586 
L 279.175808 742.503976 
L 283.368144 741.235176 
L 287.560481 739.165003 
L 291.752817 729.500966 
L 295.945154 743.757457 
L 300.137491 739.059736 
L 304.329827 741.72665 
L 308.522164 742.096705 
L 312.7145 740.299717 
L 316.906837 741.30822 
L 321.099174 739.738824 
L 325.29151 742.269493 
L 329.483847 740.038607 
L 333.676183 740.731457 
L 337.86852 740.989112 
L 342.060856 742.624722 
L 346.253193 742.529881 
L 350.44553 741.746348 
L 354.637866 738.495538 
L 358.830203 741.99208 
L 363.022539 739.046406 
L 367.214876 737.839491 
L 371.407213 741.528459 
L 375.599549 741.752857 
L 379.791886 741.887726 
L 383.984222 742.48706 
L 388.176559 740.931295 
L 392.368896 740.050439 
L 396.561232 741.178152 
L 400.753569 742.376589 
L 404.945905 741.361306 
L 409.138242 741.687366 
L 413.330579 740.203359 
L 417.522915 741.257123 
L 421.715252 742.545862 
L 425.907588 743.295976 
L 430.099925 743.11458 
L 434.292261 740.749095 
L 438.484598 742.50496 
L 442.676935 740.940516 
L 446.869271 742.354421 
L 451.061608 738.090588 
L 455.253944 742.777612 
L 459.446281 738.871368 
L 463.638618 742.539393 
L 467.830954 740.454505 
L 472.023291 742.564726 
L 476.215627 741.566559 
L 480.407964 741.238581 
L 484.600301 740.966491 
L 488.792637 741.187554 
L 492.984974 741.618811 
L 497.17731 743.568909 
L 501.369647 743.163527 
L 505.561983 741.727635 
L 509.75432 742.052077 
L 513.946657 742.346375 
L 518.138993 742.222022 
L 522.33133 743.513282 
L 526.523666 741.146461 
L 530.716003 742.589636 
L 534.90834 742.529891 
L 539.100676 743.046778 
L 543.293013 743.469407 
L 547.485349 742.795793 
L 551.677686 743.770033 
L 555.870023 743.533522 
L 560.062359 743.402198 
L 564.254696 741.512036 
L 568.447032 743.562933 
L 572.639369 741.67716 
L 576.831705 742.550944 
L 581.024042 745.002331 
L 585.216379 743.079062 
L 589.408715 746.40149 
L 593.601052 743.497582 
L 597.793388 744.931928 
" clip-path="url(#pbc1a4273af)" style="fill: none; stroke: #4169e1; stroke-linecap: square"/>
   </g>
   <g id="line2d_44">
    <path d="M 182.752066 502.642304 
L 186.944403 480.305455 
L 191.136739 504.360221 
L 195.329076 580.833352 
L 199.521412 507.099035 
L 203.713749 578.835029 
L 207.906086 582.39407 
L 212.098422 579.568429 
L 216.290759 649.928668 
L 220.483095 649.532246 
L 224.675432 684.146601 
L 228.867769 649.865829 
L 233.060105 643.853021 
L 237.252442 643.328269 
L 241.444778 691.759963 
L 245.637115 719.833302 
L 249.829452 746.254075 
L 254.021788 697.291401 
L 258.214125 708.911955 
L 262.406461 746.826279 
L 266.598798 746.789807 
L 270.791134 728.568571 
L 274.983471 748.07956 
L 279.175808 746.778747 
L 283.368144 747.616953 
L 287.560481 746.532684 
L 291.752817 742.862097 
L 295.945154 751.56891 
L 300.137491 743.210034 
L 304.329827 747.16167 
L 308.522164 747.435989 
L 312.7145 747.745414 
L 316.906837 751.59361 
L 321.099174 745.741758 
L 325.29151 743.145578 
L 329.483847 744.623095 
L 333.676183 747.373963 
L 337.86852 749.241625 
L 342.060856 748.904999 
L 346.253193 750.644943 
L 350.44553 748.976989 
L 354.637866 745.164291 
L 358.830203 747.916726 
L 363.022539 751.189353 
L 367.214876 746.679757 
L 371.407213 750.511781 
L 375.599549 747.394273 
L 379.791886 755.214545 
L 383.984222 745.224348 
L 388.176559 754.55644 
L 392.368896 747.078711 
L 396.561232 744.6714 
L 400.753569 747.895753 
L 404.945905 748.226834 
L 409.138242 748.2619 
L 413.330579 749.008298 
L 417.522915 744.800715 
L 421.715252 750.260685 
L 425.907588 748.803096 
L 430.099925 749.03356 
L 434.292261 751.008117 
L 438.484598 753.46765 
L 442.676935 750.884136 
L 446.869271 748.521092 
L 451.061608 748.119166 
L 455.253944 750.051616 
L 459.446281 746.467976 
L 463.638618 751.145066 
L 467.830954 745.243734 
L 472.023291 751.771973 
L 476.215627 745.479281 
L 480.407964 750.357867 
L 484.600301 745.790163 
L 488.792637 753.003879 
L 492.984974 749.064377 
L 497.17731 746.913697 
L 501.369647 746.189639 
L 505.561983 754.733457 
L 509.75432 753.043163 
L 513.946657 749.423885 
L 518.138993 751.152439 
L 522.33133 746.056507 
L 526.523666 751.274522 
L 530.716003 748.569387 
L 534.90834 748.426713 
L 539.100676 750.826942 
L 543.293013 750.698983 
L 547.485349 753.2112 
L 551.677686 750.433614 
L 555.870023 753.264487 
L 560.062359 745.301933 
L 564.254696 749.008549 
L 568.447032 749.102467 
L 572.639369 750.84231 
L 576.831705 750.247356 
L 581.024042 749.700354 
L 585.216379 751.432886 
L 589.408715 750.080926 
L 593.601052 748.405177 
L 597.793388 747.901056 
" clip-path="url(#pbc1a4273af)" style="fill: none; stroke: #ff6347; stroke-linecap: square"/>
   </g>
   <g id="patch_15">
    <path d="M 162 768.96 
L 162 466.56 
" style="fill: none; stroke: #000000; stroke-width: 0.8; stroke-linejoin: miter; stroke-linecap: square"/>
   </g>
   <g id="patch_16">
    <path d="M 618.545455 768.96 
L 618.545455 466.56 
" style="fill: none; stroke: #000000; stroke-width: 0.8; stroke-linejoin: miter; stroke-linecap: square"/>
   </g>
   <g id="patch_17">
    <path d="M 162 768.96 
L 618.545455 768.96 
" style="fill: none; stroke: #000000; stroke-width: 0.8; stroke-linejoin: miter; stroke-linecap: square"/>
   </g>
   <g id="patch_18">
    <path d="M 162 466.56 
L 618.545455 466.56 
" style="fill: none; stroke: #000000; stroke-width: 0.8; stroke-linejoin: miter; stroke-linecap: square"/>
   </g>
   <g id="text_41">
    <!-- MAE -->
    <g transform="translate(377.200227 460.56) scale(0.12 -0.12)">
     <defs>
      <path id="DejaVuSans-41" d="M 2188 4044 
L 1331 1722 
L 3047 1722 
L 2188 4044 
z
M 1831 4666 
L 2547 4666 
L 4325 0 
L 3669 0 
L 3244 1197 
L 1141 1197 
L 716 0 
L 50 0 
L 1831 4666 
z
" transform="scale(0.015625)"/>
     </defs>
     <use xlink:href="#DejaVuSans-4d"/>
     <use xlink:href="#DejaVuSans-41" x="86.279297"/>
     <use xlink:href="#DejaVuSans-45" x="154.6875"/>
    </g>
   </g>
   <g id="legend_3">
    <g id="patch_19">
     <path d="M 530.164205 503.91625 
L 611.545455 503.91625 
Q 613.545455 503.91625 613.545455 501.91625 
L 613.545455 473.56 
Q 613.545455 471.56 611.545455 471.56 
L 530.164205 471.56 
Q 528.164205 471.56 528.164205 473.56 
L 528.164205 501.91625 
Q 528.164205 503.91625 530.164205 503.91625 
z
" style="fill: #ffffff; opacity: 0.8; stroke: #cccccc; stroke-linejoin: miter"/>
    </g>
    <g id="line2d_45">
     <path d="M 532.164205 479.658437 
L 542.164205 479.658437 
L 552.164205 479.658437 
" style="fill: none; stroke: #4169e1; stroke-linecap: square"/>
    </g>
    <g id="text_42">
     <!-- Training -->
     <g transform="translate(560.164205 483.158437) scale(0.1 -0.1)">
      <use xlink:href="#DejaVuSans-54"/>
      <use xlink:href="#DejaVuSans-72" x="46.333984"/>
      <use xlink:href="#DejaVuSans-61" x="87.447266"/>
      <use xlink:href="#DejaVuSans-69" x="148.726562"/>
      <use xlink:href="#DejaVuSans-6e" x="176.509766"/>
      <use xlink:href="#DejaVuSans-69" x="239.888672"/>
      <use xlink:href="#DejaVuSans-6e" x="267.671875"/>
      <use xlink:href="#DejaVuSans-67" x="331.050781"/>
     </g>
    </g>
    <g id="line2d_46">
     <path d="M 532.164205 494.336563 
L 542.164205 494.336563 
L 552.164205 494.336563 
" style="fill: none; stroke: #ff6347; stroke-linecap: square"/>
    </g>
    <g id="text_43">
     <!-- Validation -->
     <g transform="translate(560.164205 497.836563) scale(0.1 -0.1)">
      <use xlink:href="#DejaVuSans-56"/>
      <use xlink:href="#DejaVuSans-61" x="60.658203"/>
      <use xlink:href="#DejaVuSans-6c" x="121.9375"/>
      <use xlink:href="#DejaVuSans-69" x="149.720703"/>
      <use xlink:href="#DejaVuSans-64" x="177.503906"/>
      <use xlink:href="#DejaVuSans-61" x="240.980469"/>
      <use xlink:href="#DejaVuSans-74" x="302.259766"/>
      <use xlink:href="#DejaVuSans-69" x="341.46875"/>
      <use xlink:href="#DejaVuSans-6f" x="369.251953"/>
      <use xlink:href="#DejaVuSans-6e" x="430.433594"/>
     </g>
    </g>
   </g>
  </g>
  <g id="axes_4">
   <g id="patch_20">
    <path d="M 709.854545 768.96 
L 1166.4 768.96 
L 1166.4 466.56 
L 709.854545 466.56 
z
" style="fill: #ffffff"/>
   </g>
   <g id="matplotlib.axis_7">
    <g id="xtick_19">
     <g id="line2d_47">
      <g>
       <use xlink:href="#m5339d79211" x="730.606612" y="768.96" style="stroke: #000000; stroke-width: 0.8"/>
      </g>
     </g>
     <g id="text_44">
      <!-- 0 -->
      <g transform="translate(727.425362 783.558437) scale(0.1 -0.1)">
       <use xlink:href="#DejaVuSans-30"/>
      </g>
     </g>
    </g>
    <g id="xtick_20">
     <g id="line2d_48">
      <g>
       <use xlink:href="#m5339d79211" x="814.453343" y="768.96" style="stroke: #000000; stroke-width: 0.8"/>
      </g>
     </g>
     <g id="text_45">
      <!-- 20 -->
      <g transform="translate(808.090843 783.558437) scale(0.1 -0.1)">
       <use xlink:href="#DejaVuSans-32"/>
       <use xlink:href="#DejaVuSans-30" x="63.623047"/>
      </g>
     </g>
    </g>
    <g id="xtick_21">
     <g id="line2d_49">
      <g>
       <use xlink:href="#m5339d79211" x="898.300075" y="768.96" style="stroke: #000000; stroke-width: 0.8"/>
      </g>
     </g>
     <g id="text_46">
      <!-- 40 -->
      <g transform="translate(891.937575 783.558437) scale(0.1 -0.1)">
       <use xlink:href="#DejaVuSans-34"/>
       <use xlink:href="#DejaVuSans-30" x="63.623047"/>
      </g>
     </g>
    </g>
    <g id="xtick_22">
     <g id="line2d_50">
      <g>
       <use xlink:href="#m5339d79211" x="982.146807" y="768.96" style="stroke: #000000; stroke-width: 0.8"/>
      </g>
     </g>
     <g id="text_47">
      <!-- 60 -->
      <g transform="translate(975.784307 783.558437) scale(0.1 -0.1)">
       <use xlink:href="#DejaVuSans-36"/>
       <use xlink:href="#DejaVuSans-30" x="63.623047"/>
      </g>
     </g>
    </g>
    <g id="xtick_23">
     <g id="line2d_51">
      <g>
       <use xlink:href="#m5339d79211" x="1065.993539" y="768.96" style="stroke: #000000; stroke-width: 0.8"/>
      </g>
     </g>
     <g id="text_48">
      <!-- 80 -->
      <g transform="translate(1059.631039 783.558437) scale(0.1 -0.1)">
       <use xlink:href="#DejaVuSans-38"/>
       <use xlink:href="#DejaVuSans-30" x="63.623047"/>
      </g>
     </g>
    </g>
    <g id="xtick_24">
     <g id="line2d_52">
      <g>
       <use xlink:href="#m5339d79211" x="1149.84027" y="768.96" style="stroke: #000000; stroke-width: 0.8"/>
      </g>
     </g>
     <g id="text_49">
      <!-- 100 -->
      <g transform="translate(1140.29652 783.558437) scale(0.1 -0.1)">
       <use xlink:href="#DejaVuSans-31"/>
       <use xlink:href="#DejaVuSans-30" x="63.623047"/>
       <use xlink:href="#DejaVuSans-30" x="127.246094"/>
      </g>
     </g>
    </g>
   </g>
   <g id="matplotlib.axis_8">
    <g id="ytick_17">
     <g id="line2d_53">
      <g>
       <use xlink:href="#mf00b6efa92" x="709.854545" y="762.131306" style="stroke: #000000; stroke-width: 0.8"/>
      </g>
     </g>
     <g id="text_50">
      <!-- 40 -->
      <g transform="translate(690.129545 765.930525) scale(0.1 -0.1)">
       <use xlink:href="#DejaVuSans-34"/>
       <use xlink:href="#DejaVuSans-30" x="63.623047"/>
      </g>
     </g>
    </g>
    <g id="ytick_18">
     <g id="line2d_54">
      <g>
       <use xlink:href="#mf00b6efa92" x="709.854545" y="712.505996" style="stroke: #000000; stroke-width: 0.8"/>
      </g>
     </g>
     <g id="text_51">
      <!-- 60 -->
      <g transform="translate(690.129545 716.305214) scale(0.1 -0.1)">
       <use xlink:href="#DejaVuSans-36"/>
       <use xlink:href="#DejaVuSans-30" x="63.623047"/>
      </g>
     </g>
    </g>
    <g id="ytick_19">
     <g id="line2d_55">
      <g>
       <use xlink:href="#mf00b6efa92" x="709.854545" y="662.880686" style="stroke: #000000; stroke-width: 0.8"/>
      </g>
     </g>
     <g id="text_52">
      <!-- 80 -->
      <g transform="translate(690.129545 666.679904) scale(0.1 -0.1)">
       <use xlink:href="#DejaVuSans-38"/>
       <use xlink:href="#DejaVuSans-30" x="63.623047"/>
      </g>
     </g>
    </g>
    <g id="ytick_20">
     <g id="line2d_56">
      <g>
       <use xlink:href="#mf00b6efa92" x="709.854545" y="613.255375" style="stroke: #000000; stroke-width: 0.8"/>
      </g>
     </g>
     <g id="text_53">
      <!-- 100 -->
      <g transform="translate(683.767045 617.054594) scale(0.1 -0.1)">
       <use xlink:href="#DejaVuSans-31"/>
       <use xlink:href="#DejaVuSans-30" x="63.623047"/>
       <use xlink:href="#DejaVuSans-30" x="127.246094"/>
      </g>
     </g>
    </g>
    <g id="ytick_21">
     <g id="line2d_57">
      <g>
       <use xlink:href="#mf00b6efa92" x="709.854545" y="563.630065" style="stroke: #000000; stroke-width: 0.8"/>
      </g>
     </g>
     <g id="text_54">
      <!-- 120 -->
      <g transform="translate(683.767045 567.429284) scale(0.1 -0.1)">
       <use xlink:href="#DejaVuSans-31"/>
       <use xlink:href="#DejaVuSans-32" x="63.623047"/>
       <use xlink:href="#DejaVuSans-30" x="127.246094"/>
      </g>
     </g>
    </g>
    <g id="ytick_22">
     <g id="line2d_58">
      <g>
       <use xlink:href="#mf00b6efa92" x="709.854545" y="514.004755" style="stroke: #000000; stroke-width: 0.8"/>
      </g>
     </g>
     <g id="text_55">
      <!-- 140 -->
      <g transform="translate(683.767045 517.803974) scale(0.1 -0.1)">
       <use xlink:href="#DejaVuSans-31"/>
       <use xlink:href="#DejaVuSans-34" x="63.623047"/>
       <use xlink:href="#DejaVuSans-30" x="127.246094"/>
      </g>
     </g>
    </g>
   </g>
   <g id="line2d_59">
    <path d="M 730.606612 490.12371 
L 734.798948 482.916205 
L 738.991285 489.534705 
L 743.183621 558.844648 
L 747.375958 490.202992 
L 751.568295 556.870835 
L 755.760631 559.47833 
L 759.952968 557.468454 
L 764.145304 625.500358 
L 768.337641 625.005494 
L 772.529977 671.427035 
L 776.722314 620.049286 
L 780.914651 614.678877 
L 785.106987 613.826927 
L 789.299324 666.580454 
L 793.49166 694.261769 
L 797.683997 737.711356 
L 801.876334 674.326117 
L 806.06867 681.850406 
L 810.261007 738.413234 
L 814.453343 736.802973 
L 818.64568 709.140323 
L 822.838017 738.46553 
L 827.030353 740.429547 
L 831.22269 739.375465 
L 835.415026 736.319988 
L 839.607363 728.988564 
L 843.799699 741.656455 
L 847.992036 736.610222 
L 852.184373 739.362251 
L 856.376709 739.971162 
L 860.569046 738.587784 
L 864.761382 738.372079 
L 868.953719 737.585751 
L 873.146056 739.492986 
L 877.338392 737.359626 
L 881.530729 738.507158 
L 885.723065 738.008244 
L 889.915402 740.779951 
L 894.107739 740.39338 
L 898.300075 739.773414 
L 902.492412 736.331299 
L 906.684748 739.535977 
L 910.877085 735.949565 
L 915.069421 735.826062 
L 919.261758 738.522293 
L 923.454095 739.562991 
L 927.646431 739.093154 
L 931.838768 740.332092 
L 936.031104 738.639767 
L 940.223441 736.908558 
L 944.415778 739.047701 
L 948.608114 741.011103 
L 952.800451 738.991922 
L 956.992787 738.885249 
L 961.185124 736.914786 
L 965.377461 738.701954 
L 969.569797 740.365202 
L 973.762134 740.767324 
L 977.95447 740.953904 
L 982.146807 738.990446 
L 986.339144 740.297156 
L 990.53148 739.283964 
L 994.723817 739.573687 
L 998.916153 734.901475 
L 1003.10849 741.12391 
L 1007.300826 736.673621 
L 1011.493163 739.874181 
L 1015.6855 738.072096 
L 1019.877836 739.81383 
L 1024.070173 739.250836 
L 1028.262509 739.15835 
L 1032.454846 738.624745 
L 1036.647183 738.360532 
L 1040.839519 739.806788 
L 1045.031856 741.688608 
L 1049.224192 741.203399 
L 1053.416529 738.957554 
L 1057.608866 739.568074 
L 1061.801202 740.003893 
L 1065.993539 739.886363 
L 1070.185875 741.701415 
L 1074.378212 739.093807 
L 1078.570548 740.047026 
L 1082.762885 740.389082 
L 1086.955222 740.78899 
L 1091.147558 741.545796 
L 1095.339895 739.837579 
L 1099.532231 742.111924 
L 1103.724568 740.944959 
L 1107.916905 741.168453 
L 1112.109241 738.839834 
L 1116.301578 741.262926 
L 1120.493914 738.776597 
L 1124.686251 740.65093 
L 1128.878588 742.245848 
L 1133.070924 740.96743 
L 1137.263261 744.398725 
L 1141.455597 741.196584 
L 1145.647934 743.311449 
" clip-path="url(#p083effacc0)" style="fill: none; stroke: #4169e1; stroke-linecap: square"/>
   </g>
   <g id="line2d_60">
    <path d="M 730.606612 499.972747 
L 734.798948 480.305455 
L 738.991285 501.499913 
L 743.183621 572.708667 
L 747.375958 503.945892 
L 751.568295 570.796718 
L 755.760631 574.202988 
L 759.952968 571.498342 
L 764.145304 646.429751 
L 768.337641 645.929984 
L 772.529977 687.895935 
L 776.722314 643.321127 
L 780.914651 636.722163 
L 785.106987 636.166475 
L 789.299324 690.436662 
L 793.49166 723.663172 
L 797.683997 751.151197 
L 801.876334 696.822562 
L 806.06867 711.211666 
L 810.261007 750.510369 
L 814.453343 751.736955 
L 818.64568 733.180044 
L 822.838017 751.408207 
L 827.030353 749.640501 
L 831.22269 751.668275 
L 835.415026 749.71646 
L 839.607363 748.415259 
L 843.799699 753.660631 
L 847.992036 746.365496 
L 852.184373 750.773873 
L 856.376709 750.613919 
L 860.569046 752.20012 
L 864.761382 752.833366 
L 868.953719 749.449208 
L 873.146056 746.362988 
L 877.338392 746.794983 
L 881.530729 750.696958 
L 885.723065 752.592162 
L 889.915402 750.095222 
L 894.107739 753.30042 
L 898.300075 751.507829 
L 902.492412 748.065725 
L 906.684748 749.901383 
L 910.877085 752.705111 
L 915.069421 750.691421 
L 919.261758 753.319644 
L 923.454095 750.494619 
L 927.646431 755.214545 
L 931.838768 748.080358 
L 936.031104 754.8576 
L 940.223441 750.096292 
L 944.415778 748.591398 
L 948.608114 750.40203 
L 952.800451 751.841499 
L 956.992787 750.876581 
L 961.185124 752.433098 
L 965.377461 749.887289 
L 969.569797 753.008445 
L 973.762134 752.148562 
L 977.95447 751.469438 
L 982.146807 751.976758 
L 986.339144 754.587935 
L 990.53148 753.14661 
L 994.723817 752.073541 
L 998.916153 751.088082 
L 1003.10849 752.629001 
L 1007.300826 749.843209 
L 1011.493163 752.432208 
L 1015.6855 748.590025 
L 1019.877836 753.18573 
L 1024.070173 748.93635 
L 1028.262509 752.17233 
L 1032.454846 747.729584 
L 1036.647183 754.172248 
L 1040.839519 751.567366 
L 1045.031856 750.206543 
L 1049.224192 749.25658 
L 1053.416529 753.783945 
L 1057.608866 753.438197 
L 1061.801202 752.324238 
L 1065.993539 752.397726 
L 1070.185875 748.563097 
L 1074.378212 753.964892 
L 1078.570548 750.844418 
L 1082.762885 751.761471 
L 1086.955222 751.37293 
L 1091.147558 753.258044 
L 1095.339895 753.33141 
L 1099.532231 752.297518 
L 1103.724568 753.489092 
L 1107.916905 747.930324 
L 1112.109241 751.475553 
L 1116.301578 751.103208 
L 1120.493914 752.630175 
L 1124.686251 752.161757 
L 1128.878588 751.481232 
L 1133.070924 753.66117 
L 1137.263261 751.446513 
L 1141.455597 752.277584 
L 1145.647934 748.985059 
" clip-path="url(#p083effacc0)" style="fill: none; stroke: #ff6347; stroke-linecap: square"/>
   </g>
   <g id="patch_21">
    <path d="M 709.854545 768.96 
L 709.854545 466.56 
" style="fill: none; stroke: #000000; stroke-width: 0.8; stroke-linejoin: miter; stroke-linecap: square"/>
   </g>
   <g id="patch_22">
    <path d="M 1166.4 768.96 
L 1166.4 466.56 
" style="fill: none; stroke: #000000; stroke-width: 0.8; stroke-linejoin: miter; stroke-linecap: square"/>
   </g>
   <g id="patch_23">
    <path d="M 709.854545 768.96 
L 1166.4 768.96 
" style="fill: none; stroke: #000000; stroke-width: 0.8; stroke-linejoin: miter; stroke-linecap: square"/>
   </g>
   <g id="patch_24">
    <path d="M 709.854545 466.56 
L 1166.4 466.56 
" style="fill: none; stroke: #000000; stroke-width: 0.8; stroke-linejoin: miter; stroke-linecap: square"/>
   </g>
   <g id="text_56">
    <!-- ROOT_MEAN_SQUARED_ERROR -->
    <g transform="translate(843.656335 460.56) scale(0.12 -0.12)">
     <defs>
      <path id="DejaVuSans-52" d="M 2841 2188 
Q 3044 2119 3236 1894 
Q 3428 1669 3622 1275 
L 4263 0 
L 3584 0 
L 2988 1197 
Q 2756 1666 2539 1819 
Q 2322 1972 1947 1972 
L 1259 1972 
L 1259 0 
L 628 0 
L 628 4666 
L 2053 4666 
Q 2853 4666 3247 4331 
Q 3641 3997 3641 3322 
Q 3641 2881 3436 2590 
Q 3231 2300 2841 2188 
z
M 1259 4147 
L 1259 2491 
L 2053 2491 
Q 2509 2491 2742 2702 
Q 2975 2913 2975 3322 
Q 2975 3731 2742 3939 
Q 2509 4147 2053 4147 
L 1259 4147 
z
" transform="scale(0.015625)"/>
      <path id="DejaVuSans-5f" d="M 3263 -1063 
L 3263 -1509 
L -63 -1509 
L -63 -1063 
L 3263 -1063 
z
" transform="scale(0.015625)"/>
      <path id="DejaVuSans-4e" d="M 628 4666 
L 1478 4666 
L 3547 763 
L 3547 4666 
L 4159 4666 
L 4159 0 
L 3309 0 
L 1241 3903 
L 1241 0 
L 628 0 
L 628 4666 
z
" transform="scale(0.015625)"/>
      <path id="DejaVuSans-51" d="M 2522 4238 
Q 1834 4238 1429 3725 
Q 1025 3213 1025 2328 
Q 1025 1447 1429 934 
Q 1834 422 2522 422 
Q 3209 422 3611 934 
Q 4013 1447 4013 2328 
Q 4013 3213 3611 3725 
Q 3209 4238 2522 4238 
z
M 3406 84 
L 4238 -825 
L 3475 -825 
L 2784 -78 
Q 2681 -84 2626 -87 
Q 2572 -91 2522 -91 
Q 1538 -91 948 567 
Q 359 1225 359 2328 
Q 359 3434 948 4092 
Q 1538 4750 2522 4750 
Q 3503 4750 4090 4092 
Q 4678 3434 4678 2328 
Q 4678 1516 4351 937 
Q 4025 359 3406 84 
z
" transform="scale(0.015625)"/>
      <path id="DejaVuSans-55" d="M 556 4666 
L 1191 4666 
L 1191 1831 
Q 1191 1081 1462 751 
Q 1734 422 2344 422 
Q 2950 422 3222 751 
Q 3494 1081 3494 1831 
L 3494 4666 
L 4128 4666 
L 4128 1753 
Q 4128 841 3676 375 
Q 3225 -91 2344 -91 
Q 1459 -91 1007 375 
Q 556 841 556 1753 
L 556 4666 
z
" transform="scale(0.015625)"/>
      <path id="DejaVuSans-44" d="M 1259 4147 
L 1259 519 
L 2022 519 
Q 2988 519 3436 956 
Q 3884 1394 3884 2338 
Q 3884 3275 3436 3711 
Q 2988 4147 2022 4147 
L 1259 4147 
z
M 628 4666 
L 1925 4666 
Q 3281 4666 3915 4102 
Q 4550 3538 4550 2338 
Q 4550 1131 3912 565 
Q 3275 0 1925 0 
L 628 0 
L 628 4666 
z
" transform="scale(0.015625)"/>
     </defs>
     <use xlink:href="#DejaVuSans-52"/>
     <use xlink:href="#DejaVuSans-4f" x="69.482422"/>
     <use xlink:href="#DejaVuSans-4f" x="148.193359"/>
     <use xlink:href="#DejaVuSans-54" x="226.904297"/>
     <use xlink:href="#DejaVuSans-5f" x="287.988281"/>
     <use xlink:href="#DejaVuSans-4d" x="337.988281"/>
     <use xlink:href="#DejaVuSans-45" x="424.267578"/>
     <use xlink:href="#DejaVuSans-41" x="487.451172"/>
     <use xlink:href="#DejaVuSans-4e" x="555.859375"/>
     <use xlink:href="#DejaVuSans-5f" x="630.664062"/>
     <use xlink:href="#DejaVuSans-53" x="680.664062"/>
     <use xlink:href="#DejaVuSans-51" x="744.140625"/>
     <use xlink:href="#DejaVuSans-55" x="822.851562"/>
     <use xlink:href="#DejaVuSans-41" x="896.044922"/>
     <use xlink:href="#DejaVuSans-52" x="964.453125"/>
     <use xlink:href="#DejaVuSans-45" x="1033.935547"/>
     <use xlink:href="#DejaVuSans-44" x="1097.119141"/>
     <use xlink:href="#DejaVuSans-5f" x="1174.121094"/>
     <use xlink:href="#DejaVuSans-45" x="1224.121094"/>
     <use xlink:href="#DejaVuSans-52" x="1287.304688"/>
     <use xlink:href="#DejaVuSans-52" x="1356.787109"/>
     <use xlink:href="#DejaVuSans-4f" x="1426.269531"/>
     <use xlink:href="#DejaVuSans-52" x="1504.980469"/>
    </g>
   </g>
   <g id="legend_4">
    <g id="patch_25">
     <path d="M 1078.01875 503.91625 
L 1159.4 503.91625 
Q 1161.4 503.91625 1161.4 501.91625 
L 1161.4 473.56 
Q 1161.4 471.56 1159.4 471.56 
L 1078.01875 471.56 
Q 1076.01875 471.56 1076.01875 473.56 
L 1076.01875 501.91625 
Q 1076.01875 503.91625 1078.01875 503.91625 
z
" style="fill: #ffffff; opacity: 0.8; stroke: #cccccc; stroke-linejoin: miter"/>
    </g>
    <g id="line2d_61">
     <path d="M 1080.01875 479.658437 
L 1090.01875 479.658437 
L 1100.01875 479.658437 
" style="fill: none; stroke: #4169e1; stroke-linecap: square"/>
    </g>
    <g id="text_57">
     <!-- Training -->
     <g transform="translate(1108.01875 483.158437) scale(0.1 -0.1)">
      <use xlink:href="#DejaVuSans-54"/>
      <use xlink:href="#DejaVuSans-72" x="46.333984"/>
      <use xlink:href="#DejaVuSans-61" x="87.447266"/>
      <use xlink:href="#DejaVuSans-69" x="148.726562"/>
      <use xlink:href="#DejaVuSans-6e" x="176.509766"/>
      <use xlink:href="#DejaVuSans-69" x="239.888672"/>
      <use xlink:href="#DejaVuSans-6e" x="267.671875"/>
      <use xlink:href="#DejaVuSans-67" x="331.050781"/>
     </g>
    </g>
    <g id="line2d_62">
     <path d="M 1080.01875 494.336563 
L 1090.01875 494.336563 
L 1100.01875 494.336563 
" style="fill: none; stroke: #ff6347; stroke-linecap: square"/>
    </g>
    <g id="text_58">
     <!-- Validation -->
     <g transform="translate(1108.01875 497.836563) scale(0.1 -0.1)">
      <use xlink:href="#DejaVuSans-56"/>
      <use xlink:href="#DejaVuSans-61" x="60.658203"/>
      <use xlink:href="#DejaVuSans-6c" x="121.9375"/>
      <use xlink:href="#DejaVuSans-69" x="149.720703"/>
      <use xlink:href="#DejaVuSans-64" x="177.503906"/>
      <use xlink:href="#DejaVuSans-61" x="240.980469"/>
      <use xlink:href="#DejaVuSans-74" x="302.259766"/>
      <use xlink:href="#DejaVuSans-69" x="341.46875"/>
      <use xlink:href="#DejaVuSans-6f" x="369.251953"/>
      <use xlink:href="#DejaVuSans-6e" x="430.433594"/>
     </g>
    </g>
   </g>
  </g>
 </g>
 <defs>
  <clipPath id="pa8bcc50df2">
   <rect x="162" y="103.68" width="456.545455" height="302.4"/>
  </clipPath>
  <clipPath id="pc489d965b8">
   <rect x="709.854545" y="103.68" width="456.545455" height="302.4"/>
  </clipPath>
  <clipPath id="pbc1a4273af">
   <rect x="162" y="466.56" width="456.545455" height="302.4"/>
  </clipPath>
  <clipPath id="p083effacc0">
   <rect x="709.854545" y="466.56" width="456.545455" height="302.4"/>
  </clipPath>
 </defs>
</svg>
