<?xml version="1.0" encoding="utf-8" standalone="no"?>
<!DOCTYPE svg PUBLIC "-//W3C//DTD SVG 1.1//EN"
  "http://www.w3.org/Graphics/SVG/1.1/DTD/svg11.dtd">
<svg xmlns:xlink="http://www.w3.org/1999/xlink" width="1296pt" height="864pt" viewBox="0 0 1296 864" xmlns="http://www.w3.org/2000/svg" version="1.1">
 <metadata>
  <rdf:RDF xmlns:dc="http://purl.org/dc/elements/1.1/" xmlns:cc="http://creativecommons.org/ns#" xmlns:rdf="http://www.w3.org/1999/02/22-rdf-syntax-ns#">
   <cc:Work>
    <dc:type rdf:resource="http://purl.org/dc/dcmitype/StillImage"/>
    <dc:date>2023-12-10T12:42:16.750500</dc:date>
    <dc:format>image/svg+xml</dc:format>
    <dc:creator>
     <cc:Agent>
      <dc:title>Matplotlib v3.8.0, https://matplotlib.org/</dc:title>
     </cc:Agent>
    </dc:creator>
   </cc:Work>
  </rdf:RDF>
 </metadata>
 <defs>
  <style type="text/css">*{stroke-linejoin: round; stroke-linecap: butt}</style>
 </defs>
 <g id="figure_1">
  <g id="patch_1">
   <path d="M 0 864 
L 1296 864 
L 1296 0 
L 0 0 
z
" style="fill: #ffffff"/>
  </g>
  <g id="axes_1">
   <g id="patch_2">
    <path d="M 162 768.96 
L 1166.4 768.96 
L 1166.4 103.68 
L 162 103.68 
z
" style="fill: #ffffff"/>
   </g>
   <g id="matplotlib.axis_1">
    <g id="xtick_1">
     <g id="line2d_1">
      <defs>
       <path id="m8c60178c5d" d="M 0 0 
L 0 3.5 
" style="stroke: #000000; stroke-width: 0.8"/>
      </defs>
      <g>
       <use xlink:href="#m8c60178c5d" x="207.654545" y="768.96" style="stroke: #000000; stroke-width: 0.8"/>
      </g>
     </g>
     <g id="text_1">
      <!-- 0 -->
      <g transform="translate(204.473295 783.558437) scale(0.1 -0.1)">
       <defs>
        <path id="DejaVuSans-30" d="M 2034 4250 
Q 1547 4250 1301 3770 
Q 1056 3291 1056 2328 
Q 1056 1369 1301 889 
Q 1547 409 2034 409 
Q 2525 409 2770 889 
Q 3016 1369 3016 2328 
Q 3016 3291 2770 3770 
Q 2525 4250 2034 4250 
z
M 2034 4750 
Q 2819 4750 3233 4129 
Q 3647 3509 3647 2328 
Q 3647 1150 3233 529 
Q 2819 -91 2034 -91 
Q 1250 -91 836 529 
Q 422 1150 422 2328 
Q 422 3509 836 4129 
Q 1250 4750 2034 4750 
z
" transform="scale(0.015625)"/>
       </defs>
       <use xlink:href="#DejaVuSans-30"/>
      </g>
     </g>
    </g>
    <g id="xtick_2">
     <g id="line2d_2">
      <g>
       <use xlink:href="#m8c60178c5d" x="390.638696" y="768.96" style="stroke: #000000; stroke-width: 0.8"/>
      </g>
     </g>
     <g id="text_2">
      <!-- 100 -->
      <g transform="translate(381.094946 783.558437) scale(0.1 -0.1)">
       <defs>
        <path id="DejaVuSans-31" d="M 794 531 
L 1825 531 
L 1825 4091 
L 703 3866 
L 703 4441 
L 1819 4666 
L 2450 4666 
L 2450 531 
L 3481 531 
L 3481 0 
L 794 0 
L 794 531 
z
" transform="scale(0.015625)"/>
       </defs>
       <use xlink:href="#DejaVuSans-31"/>
       <use xlink:href="#DejaVuSans-30" x="63.623047"/>
       <use xlink:href="#DejaVuSans-30" x="127.246094"/>
      </g>
     </g>
    </g>
    <g id="xtick_3">
     <g id="line2d_3">
      <g>
       <use xlink:href="#m8c60178c5d" x="573.622846" y="768.96" style="stroke: #000000; stroke-width: 0.8"/>
      </g>
     </g>
     <g id="text_3">
      <!-- 200 -->
      <g transform="translate(564.079096 783.558437) scale(0.1 -0.1)">
       <defs>
        <path id="DejaVuSans-32" d="M 1228 531 
L 3431 531 
L 3431 0 
L 469 0 
L 469 531 
Q 828 903 1448 1529 
Q 2069 2156 2228 2338 
Q 2531 2678 2651 2914 
Q 2772 3150 2772 3378 
Q 2772 3750 2511 3984 
Q 2250 4219 1831 4219 
Q 1534 4219 1204 4116 
Q 875 4013 500 3803 
L 500 4441 
Q 881 4594 1212 4672 
Q 1544 4750 1819 4750 
Q 2544 4750 2975 4387 
Q 3406 4025 3406 3419 
Q 3406 3131 3298 2873 
Q 3191 2616 2906 2266 
Q 2828 2175 2409 1742 
Q 1991 1309 1228 531 
z
" transform="scale(0.015625)"/>
       </defs>
       <use xlink:href="#DejaVuSans-32"/>
       <use xlink:href="#DejaVuSans-30" x="63.623047"/>
       <use xlink:href="#DejaVuSans-30" x="127.246094"/>
      </g>
     </g>
    </g>
    <g id="xtick_4">
     <g id="line2d_4">
      <g>
       <use xlink:href="#m8c60178c5d" x="756.606996" y="768.96" style="stroke: #000000; stroke-width: 0.8"/>
      </g>
     </g>
     <g id="text_4">
      <!-- 300 -->
      <g transform="translate(747.063246 783.558437) scale(0.1 -0.1)">
       <defs>
        <path id="DejaVuSans-33" d="M 2597 2516 
Q 3050 2419 3304 2112 
Q 3559 1806 3559 1356 
Q 3559 666 3084 287 
Q 2609 -91 1734 -91 
Q 1441 -91 1130 -33 
Q 819 25 488 141 
L 488 750 
Q 750 597 1062 519 
Q 1375 441 1716 441 
Q 2309 441 2620 675 
Q 2931 909 2931 1356 
Q 2931 1769 2642 2001 
Q 2353 2234 1838 2234 
L 1294 2234 
L 1294 2753 
L 1863 2753 
Q 2328 2753 2575 2939 
Q 2822 3125 2822 3475 
Q 2822 3834 2567 4026 
Q 2313 4219 1838 4219 
Q 1578 4219 1281 4162 
Q 984 4106 628 3988 
L 628 4550 
Q 988 4650 1302 4700 
Q 1616 4750 1894 4750 
Q 2613 4750 3031 4423 
Q 3450 4097 3450 3541 
Q 3450 3153 3228 2886 
Q 3006 2619 2597 2516 
z
" transform="scale(0.015625)"/>
       </defs>
       <use xlink:href="#DejaVuSans-33"/>
       <use xlink:href="#DejaVuSans-30" x="63.623047"/>
       <use xlink:href="#DejaVuSans-30" x="127.246094"/>
      </g>
     </g>
    </g>
    <g id="xtick_5">
     <g id="line2d_5">
      <g>
       <use xlink:href="#m8c60178c5d" x="939.591146" y="768.96" style="stroke: #000000; stroke-width: 0.8"/>
      </g>
     </g>
     <g id="text_5">
      <!-- 400 -->
      <g transform="translate(930.047396 783.558437) scale(0.1 -0.1)">
       <defs>
        <path id="DejaVuSans-34" d="M 2419 4116 
L 825 1625 
L 2419 1625 
L 2419 4116 
z
M 2253 4666 
L 3047 4666 
L 3047 1625 
L 3713 1625 
L 3713 1100 
L 3047 1100 
L 3047 0 
L 2419 0 
L 2419 1100 
L 313 1100 
L 313 1709 
L 2253 4666 
z
" transform="scale(0.015625)"/>
       </defs>
       <use xlink:href="#DejaVuSans-34"/>
       <use xlink:href="#DejaVuSans-30" x="63.623047"/>
       <use xlink:href="#DejaVuSans-30" x="127.246094"/>
      </g>
     </g>
    </g>
    <g id="xtick_6">
     <g id="line2d_6">
      <g>
       <use xlink:href="#m8c60178c5d" x="1122.575296" y="768.96" style="stroke: #000000; stroke-width: 0.8"/>
      </g>
     </g>
     <g id="text_6">
      <!-- 500 -->
      <g transform="translate(1113.031546 783.558437) scale(0.1 -0.1)">
       <defs>
        <path id="DejaVuSans-35" d="M 691 4666 
L 3169 4666 
L 3169 4134 
L 1269 4134 
L 1269 2991 
Q 1406 3038 1543 3061 
Q 1681 3084 1819 3084 
Q 2600 3084 3056 2656 
Q 3513 2228 3513 1497 
Q 3513 744 3044 326 
Q 2575 -91 1722 -91 
Q 1428 -91 1123 -41 
Q 819 9 494 109 
L 494 744 
Q 775 591 1075 516 
Q 1375 441 1709 441 
Q 2250 441 2565 725 
Q 2881 1009 2881 1497 
Q 2881 1984 2565 2268 
Q 2250 2553 1709 2553 
Q 1456 2553 1204 2497 
Q 953 2441 691 2322 
L 691 4666 
z
" transform="scale(0.015625)"/>
       </defs>
       <use xlink:href="#DejaVuSans-35"/>
       <use xlink:href="#DejaVuSans-30" x="63.623047"/>
       <use xlink:href="#DejaVuSans-30" x="127.246094"/>
      </g>
     </g>
    </g>
   </g>
   <g id="matplotlib.axis_2">
    <g id="ytick_1">
     <g id="line2d_7">
      <defs>
       <path id="m5de663de9f" d="M 0 0 
L -3.5 0 
" style="stroke: #000000; stroke-width: 0.8"/>
      </defs>
      <g>
       <use xlink:href="#m5de663de9f" x="162" y="738.72" style="stroke: #000000; stroke-width: 0.8"/>
      </g>
     </g>
     <g id="text_7">
      <!-- 0 -->
      <g transform="translate(148.6375 742.519219) scale(0.1 -0.1)">
       <use xlink:href="#DejaVuSans-30"/>
      </g>
     </g>
    </g>
    <g id="ytick_2">
     <g id="line2d_8">
      <g>
       <use xlink:href="#m5de663de9f" x="162" y="629.068702" style="stroke: #000000; stroke-width: 0.8"/>
      </g>
     </g>
     <g id="text_8">
      <!-- 10 -->
      <g transform="translate(142.275 632.867921) scale(0.1 -0.1)">
       <use xlink:href="#DejaVuSans-31"/>
       <use xlink:href="#DejaVuSans-30" x="63.623047"/>
      </g>
     </g>
    </g>
    <g id="ytick_3">
     <g id="line2d_9">
      <g>
       <use xlink:href="#m5de663de9f" x="162" y="519.417404" style="stroke: #000000; stroke-width: 0.8"/>
      </g>
     </g>
     <g id="text_9">
      <!-- 20 -->
      <g transform="translate(142.275 523.216623) scale(0.1 -0.1)">
       <use xlink:href="#DejaVuSans-32"/>
       <use xlink:href="#DejaVuSans-30" x="63.623047"/>
      </g>
     </g>
    </g>
    <g id="ytick_4">
     <g id="line2d_10">
      <g>
       <use xlink:href="#m5de663de9f" x="162" y="409.766106" style="stroke: #000000; stroke-width: 0.8"/>
      </g>
     </g>
     <g id="text_10">
      <!-- 30 -->
      <g transform="translate(142.275 413.565325) scale(0.1 -0.1)">
       <use xlink:href="#DejaVuSans-33"/>
       <use xlink:href="#DejaVuSans-30" x="63.623047"/>
      </g>
     </g>
    </g>
    <g id="ytick_5">
     <g id="line2d_11">
      <g>
       <use xlink:href="#m5de663de9f" x="162" y="300.114808" style="stroke: #000000; stroke-width: 0.8"/>
      </g>
     </g>
     <g id="text_11">
      <!-- 40 -->
      <g transform="translate(142.275 303.914027) scale(0.1 -0.1)">
       <use xlink:href="#DejaVuSans-34"/>
       <use xlink:href="#DejaVuSans-30" x="63.623047"/>
      </g>
     </g>
    </g>
    <g id="ytick_6">
     <g id="line2d_12">
      <g>
       <use xlink:href="#m5de663de9f" x="162" y="190.46351" style="stroke: #000000; stroke-width: 0.8"/>
      </g>
     </g>
     <g id="text_12">
      <!-- 50 -->
      <g transform="translate(142.275 194.262729) scale(0.1 -0.1)">
       <use xlink:href="#DejaVuSans-35"/>
       <use xlink:href="#DejaVuSans-30" x="63.623047"/>
      </g>
     </g>
    </g>
   </g>
   <g id="line2d_13">
    <path d="M 207.654545 322.045067 
L 209.484387 486.522015 
L 211.314228 343.975327 
L 213.14407 585.208183 
L 214.973911 629.068702 
L 216.803753 212.393769 
L 218.633594 245.289159 
L 220.463436 300.114808 
L 222.293277 190.46351 
L 224.123119 398.800976 
L 225.95296 179.49838 
L 227.782802 256.254289 
L 229.612643 431.696366 
L 231.442485 267.219418 
L 233.272326 179.49838 
L 235.102168 179.49838 
L 236.932009 650.998962 
L 238.761851 300.114808 
L 240.591692 245.289159 
L 242.421534 508.452274 
L 244.251375 179.49838 
L 246.081217 234.324029 
L 247.911058 486.522015 
L 249.7409 464.591755 
L 251.570741 376.870717 
L 253.400583 300.114808 
L 255.230424 409.766106 
L 257.060266 629.068702 
L 258.890107 640.033832 
L 260.719949 618.103572 
L 262.54979 486.522015 
L 264.379632 650.998962 
L 266.209473 420.731236 
L 268.039315 387.835846 
L 269.869156 574.243053 
L 271.698998 453.626625 
L 273.528839 552.312793 
L 275.358681 738.72 
L 277.188522 716.78974 
L 279.018364 650.998962 
L 280.848206 672.929221 
L 282.678047 376.870717 
L 284.507889 563.277923 
L 286.33773 585.208183 
L 288.167572 486.522015 
L 289.997413 607.138442 
L 291.827255 661.964091 
L 293.657096 530.382534 
L 295.486938 629.068702 
L 297.316779 464.591755 
L 299.146621 738.72 
L 300.976462 683.894351 
L 302.806304 343.975327 
L 304.636145 650.998962 
L 306.465987 431.696366 
L 308.295828 530.382534 
L 310.12567 376.870717 
L 311.955511 179.49838 
L 313.785353 354.940457 
L 315.615194 365.905587 
L 317.445036 486.522015 
L 319.274877 398.800976 
L 321.104719 179.49838 
L 322.93456 618.103572 
L 324.764402 179.49838 
L 326.594243 333.010197 
L 328.424085 420.731236 
L 330.253926 212.393769 
L 332.083768 289.149678 
L 333.913609 245.289159 
L 335.743451 530.382534 
L 337.573292 289.149678 
L 339.403134 475.556885 
L 341.232975 179.49838 
L 343.062817 530.382534 
L 344.892658 574.243053 
L 346.7225 596.173313 
L 348.552341 453.626625 
L 350.382183 497.487144 
L 352.212024 267.219418 
L 354.041866 300.114808 
L 355.871707 640.033832 
L 357.701549 497.487144 
L 359.53139 179.49838 
L 361.361232 322.045067 
L 363.191073 585.208183 
L 365.020915 179.49838 
L 366.850756 179.49838 
L 368.680598 354.940457 
L 370.510439 343.975327 
L 372.340281 322.045067 
L 374.170122 179.49838 
L 375.999964 179.49838 
L 377.829805 354.940457 
L 379.659647 179.49838 
L 381.489488 387.835846 
L 383.31933 486.522015 
L 385.149171 289.149678 
L 386.979013 596.173313 
L 388.808854 574.243053 
L 390.638696 409.766106 
L 392.468537 409.766106 
L 394.298379 398.800976 
L 396.12822 267.219418 
L 397.958062 201.42864 
L 401.617745 179.49838 
L 403.447586 179.49838 
L 405.277428 596.173313 
L 407.107269 278.184548 
L 408.937111 179.49838 
L 410.766952 343.975327 
L 412.596794 322.045067 
L 414.426635 245.289159 
L 416.256477 223.358899 
L 418.086318 376.870717 
L 419.91616 256.254289 
L 421.746001 354.940457 
L 423.575843 464.591755 
L 425.405684 267.219418 
L 427.235526 650.998962 
L 429.065367 640.033832 
L 430.895209 256.254289 
L 432.72505 190.46351 
L 434.554892 431.696366 
L 436.384733 738.72 
L 438.214575 541.347664 
L 440.044416 683.894351 
L 441.874258 475.556885 
L 443.704099 683.894351 
L 445.533941 640.033832 
L 447.363782 442.661495 
L 449.193624 497.487144 
L 451.023465 629.068702 
L 452.853307 618.103572 
L 454.683148 716.78974 
L 456.51299 585.208183 
L 458.342831 672.929221 
L 460.172673 596.173313 
L 462.002514 300.114808 
L 463.832356 333.010197 
L 465.662197 618.103572 
L 467.492039 486.522015 
L 469.32188 333.010197 
L 471.151722 661.964091 
L 472.981563 431.696366 
L 474.811405 640.033832 
L 476.641246 563.277923 
L 478.471088 420.731236 
L 480.300929 431.696366 
L 482.130771 387.835846 
L 483.960612 420.731236 
L 485.790454 376.870717 
L 487.620295 179.49838 
L 489.450137 453.626625 
L 491.279978 179.49838 
L 494.939661 179.49838 
L 496.769503 541.347664 
L 498.599344 223.358899 
L 500.429186 179.49838 
L 505.91871 179.49838 
L 507.748552 431.696366 
L 509.578393 398.800976 
L 511.408235 179.49838 
L 513.238076 234.324029 
L 515.067918 234.324029 
L 516.897759 179.49838 
L 518.727601 179.49838 
L 520.557442 475.556885 
L 522.387284 497.487144 
L 524.217125 574.243053 
L 526.046967 190.46351 
L 527.876808 508.452274 
L 529.70665 683.894351 
L 531.536491 552.312793 
L 533.366333 672.929221 
L 535.196174 607.138442 
L 537.026016 650.998962 
L 538.855857 409.766106 
L 540.685699 650.998962 
L 542.51554 596.173313 
L 544.345382 596.173313 
L 546.175223 585.208183 
L 548.005065 179.49838 
L 549.834906 289.149678 
L 551.664748 420.731236 
L 553.494589 716.78974 
L 555.324431 607.138442 
L 557.154272 607.138442 
L 558.984114 453.626625 
L 560.813955 431.696366 
L 562.643797 574.243053 
L 564.473638 464.591755 
L 566.30348 563.277923 
L 568.133321 640.033832 
L 569.963163 530.382534 
L 571.793004 453.626625 
L 573.622846 650.998962 
L 575.452687 486.522015 
L 577.282529 519.417404 
L 579.11237 519.417404 
L 580.942212 563.277923 
L 582.772053 519.417404 
L 584.601895 563.277923 
L 586.431736 629.068702 
L 588.261578 431.696366 
L 590.091419 552.312793 
L 591.921261 420.731236 
L 593.751102 705.824611 
L 595.580944 640.033832 
L 597.410785 387.835846 
L 599.240627 738.72 
L 601.070468 596.173313 
L 602.90031 552.312793 
L 604.730151 530.382534 
L 606.559993 629.068702 
L 610.219676 585.208183 
L 612.049517 650.998962 
L 613.879359 387.835846 
L 615.7092 607.138442 
L 617.539042 431.696366 
L 619.368883 365.905587 
L 621.198725 607.138442 
L 623.028566 453.626625 
L 624.858408 398.800976 
L 626.688249 716.78974 
L 628.518091 508.452274 
L 630.347932 694.859481 
L 632.177774 738.72 
L 634.007615 508.452274 
L 635.837457 727.75487 
L 637.667298 519.417404 
L 639.49714 442.661495 
L 641.326981 563.277923 
L 643.156823 453.626625 
L 644.986664 640.033832 
L 646.816506 661.964091 
L 648.646347 650.998962 
L 650.476189 212.393769 
L 652.30603 223.358899 
L 654.135872 431.696366 
L 655.965713 179.49838 
L 657.795555 212.393769 
L 659.625396 179.49838 
L 661.455238 289.149678 
L 663.285079 289.149678 
L 665.114921 278.184548 
L 666.944762 179.49838 
L 668.774604 322.045067 
L 670.604445 179.49838 
L 688.90286 179.49838 
L 690.732702 234.324029 
L 692.562543 311.079938 
L 694.392385 497.487144 
L 696.222226 585.208183 
L 698.052068 475.556885 
L 699.881909 563.277923 
L 701.711751 179.49838 
L 703.541592 618.103572 
L 705.371434 519.417404 
L 707.201275 738.72 
L 709.031117 738.72 
L 710.860958 640.033832 
L 712.6908 705.824611 
L 714.520641 738.72 
L 716.350483 683.894351 
L 718.180324 640.033832 
L 720.010166 705.824611 
L 721.840007 607.138442 
L 723.669849 650.998962 
L 727.329532 607.138442 
L 729.159373 705.824611 
L 730.989215 661.964091 
L 732.819056 716.78974 
L 734.648898 300.114808 
L 736.478739 661.964091 
L 738.308581 672.929221 
L 740.138422 618.103572 
L 741.968264 497.487144 
L 743.798105 672.929221 
L 745.627947 596.173313 
L 747.457788 694.859481 
L 749.28763 475.556885 
L 751.117471 650.998962 
L 752.947313 541.347664 
L 754.777154 497.487144 
L 756.606996 650.998962 
L 758.436837 453.626625 
L 760.266679 574.243053 
L 762.09652 640.033832 
L 763.926362 618.103572 
L 765.756203 541.347664 
L 767.586045 552.312793 
L 769.415886 629.068702 
L 771.245728 541.347664 
L 773.075569 596.173313 
L 774.905411 683.894351 
L 776.735252 541.347664 
L 778.565094 541.347664 
L 780.394935 464.591755 
L 782.224777 179.49838 
L 784.054618 278.184548 
L 785.88446 530.382534 
L 787.714301 497.487144 
L 789.544143 727.75487 
L 791.373984 694.859481 
L 793.203826 683.894351 
L 795.033667 705.824611 
L 796.863509 530.382534 
L 798.69335 683.894351 
L 800.523192 705.824611 
L 802.353033 694.859481 
L 804.182875 629.068702 
L 806.012716 585.208183 
L 807.842558 650.998962 
L 809.672399 683.894351 
L 811.502241 409.766106 
L 813.332082 716.78974 
L 815.161924 738.72 
L 816.991765 727.75487 
L 818.821607 738.72 
L 820.651448 650.998962 
L 822.48129 585.208183 
L 826.140973 650.998962 
L 827.970814 716.78974 
L 829.800656 694.859481 
L 831.630497 585.208183 
L 833.460339 650.998962 
L 835.29018 705.824611 
L 837.120022 618.103572 
L 838.949863 738.72 
L 844.439388 738.72 
L 846.269229 694.859481 
L 848.099071 738.72 
L 849.928912 738.72 
L 851.758754 716.78974 
L 853.588595 705.824611 
L 855.418437 629.068702 
L 857.248278 705.824611 
L 859.07812 289.149678 
L 860.907961 179.49838 
L 862.737803 179.49838 
L 864.567644 738.72 
L 866.397486 705.824611 
L 868.227327 738.72 
L 870.057169 738.72 
L 871.88701 596.173313 
L 873.716852 563.277923 
L 875.546693 552.312793 
L 877.376535 552.312793 
L 879.206376 179.49838 
L 881.036218 179.49838 
L 882.866059 256.254289 
L 884.695901 179.49838 
L 886.525742 234.324029 
L 888.355584 179.49838 
L 893.845108 179.49838 
L 895.67495 245.289159 
L 897.504791 267.219418 
L 899.334633 475.556885 
L 901.164474 190.46351 
L 902.994316 541.347664 
L 904.824157 267.219418 
L 906.653999 640.033832 
L 908.48384 179.49838 
L 910.313682 387.835846 
L 912.143523 311.079938 
L 913.973365 212.393769 
L 915.803206 179.49838 
L 917.633048 354.940457 
L 919.462889 322.045067 
L 921.292731 387.835846 
L 923.122572 201.42864 
L 924.952414 179.49838 
L 926.782255 267.219418 
L 928.612097 431.696366 
L 930.441938 179.49838 
L 932.27178 179.49838 
L 934.101621 387.835846 
L 935.931463 223.358899 
L 937.761304 179.49838 
L 939.591146 563.277923 
L 941.420987 475.556885 
L 943.250829 585.208183 
L 945.08067 486.522015 
L 946.910512 278.184548 
L 948.740353 486.522015 
L 950.570195 629.068702 
L 952.400036 267.219418 
L 954.229878 354.940457 
L 956.059719 508.452274 
L 957.889561 607.138442 
L 959.719402 574.243053 
L 961.549244 650.998962 
L 963.379085 640.033832 
L 965.208927 486.522015 
L 967.038768 508.452274 
L 968.86861 541.347664 
L 970.698451 683.894351 
L 972.528293 574.243053 
L 974.358134 727.75487 
L 976.187976 585.208183 
L 978.017817 672.929221 
L 979.847659 738.72 
L 981.6775 727.75487 
L 983.507342 552.312793 
L 985.337183 574.243053 
L 987.167025 705.824611 
L 988.996866 738.72 
L 990.826708 705.824611 
L 992.656549 650.998962 
L 994.486391 552.312793 
L 996.316232 738.72 
L 999.975915 738.72 
L 1001.805757 596.173313 
L 1003.635598 738.72 
L 1005.46544 738.72 
L 1007.295281 672.929221 
L 1009.125123 672.929221 
L 1010.954964 738.72 
L 1012.784806 607.138442 
L 1014.614647 629.068702 
L 1016.444489 694.859481 
L 1018.27433 694.859481 
L 1020.104172 738.72 
L 1021.934013 650.998962 
L 1023.763855 738.72 
L 1025.593696 705.824611 
L 1027.423538 640.033832 
L 1029.253379 738.72 
L 1031.083221 585.208183 
L 1032.913062 738.72 
L 1034.742904 738.72 
L 1036.572745 640.033832 
L 1038.402587 694.859481 
L 1040.232428 738.72 
L 1042.06227 727.75487 
L 1043.892111 694.859481 
L 1045.721953 738.72 
L 1047.551794 596.173313 
L 1049.381636 640.033832 
L 1051.211478 661.964091 
L 1053.041319 607.138442 
L 1054.871161 497.487144 
L 1056.701002 201.42864 
L 1058.530844 508.452274 
L 1060.360685 442.661495 
L 1062.190527 398.800976 
L 1064.020368 245.289159 
L 1065.85021 311.079938 
L 1067.680051 179.49838 
L 1069.509893 179.49838 
L 1071.339734 354.940457 
L 1073.169576 179.49838 
L 1076.829259 179.49838 
L 1078.6591 322.045067 
L 1080.488942 234.324029 
L 1082.318783 322.045067 
L 1084.148625 267.219418 
L 1085.978466 640.033832 
L 1087.808308 223.358899 
L 1089.638149 179.49838 
L 1091.467991 486.522015 
L 1093.297832 508.452274 
L 1095.127674 464.591755 
L 1096.957515 661.964091 
L 1098.787357 333.010197 
L 1100.617198 179.49838 
L 1102.44704 420.731236 
L 1104.276881 552.312793 
L 1106.106723 179.49838 
L 1107.936564 486.522015 
L 1109.766406 278.184548 
L 1111.596247 420.731236 
L 1113.426089 354.940457 
L 1115.25593 431.696366 
L 1117.085772 398.800976 
L 1118.915613 343.975327 
L 1120.745455 464.591755 
L 1120.745455 464.591755 
" clip-path="url(#p916bf799b7)" style="fill: none; stroke: #4169e1; stroke-linecap: square"/>
   </g>
   <g id="line2d_14">
    <path d="M 207.654545 323.879923 
L 209.484387 322.819776 
L 211.314228 344.372532 
L 213.14407 318.523513 
L 214.973911 346.444556 
L 216.803753 391.391031 
L 218.633594 322.064058 
L 220.463436 316.724129 
L 222.293277 306.961656 
L 224.123119 260.936253 
L 225.95296 292.997119 
L 227.782802 265.429152 
L 229.612643 257.702982 
L 231.442485 341.782418 
L 233.272326 312.188606 
L 235.102168 289.797604 
L 236.932009 295.80035 
L 238.761851 364.979082 
L 240.591692 341.404455 
L 242.421534 337.498328 
L 244.251375 414.683378 
L 246.081217 317.7455 
L 247.911058 325.626562 
L 249.7409 396.855296 
L 251.570741 388.370939 
L 253.400583 409.41165 
L 255.230424 417.98416 
L 257.060266 421.184847 
L 258.890107 451.705623 
L 262.54979 503.942539 
L 264.379632 507.057477 
L 266.209473 522.749579 
L 268.039315 490.31924 
L 269.869156 465.055635 
L 271.698998 492.082925 
L 273.528839 458.991129 
L 275.358681 474.97235 
L 277.188522 540.719774 
L 279.018364 560.964339 
L 280.848206 569.402338 
L 282.678047 584.0587 
L 284.507889 532.98392 
L 286.33773 529.497858 
L 288.167572 533.983437 
L 289.997413 515.711804 
L 291.827255 559.806229 
L 293.657096 558.323069 
L 295.486938 534.989625 
L 297.316779 555.25454 
L 299.146621 509.585998 
L 300.976462 578.407053 
L 302.806304 603.925019 
L 304.636145 510.747391 
L 306.465987 561.830443 
L 308.295828 494.554161 
L 310.12567 477.372478 
L 311.955511 447.870334 
L 313.785353 329.225206 
L 315.615194 352.258278 
L 317.445036 340.113371 
L 319.274877 377.89807 
L 321.104719 395.90543 
L 322.93456 323.810739 
L 324.764402 460.458352 
L 326.594243 317.496034 
L 328.424085 340.03854 
L 330.253926 390.206631 
L 332.083768 295.257498 
L 333.913609 327.179702 
L 335.743451 313.505247 
L 337.573292 391.900462 
L 339.403134 352.099455 
L 341.232975 412.149168 
L 343.062817 331.036973 
L 344.892658 401.203802 
L 346.7225 443.948898 
L 348.552341 446.58519 
L 350.382183 412.127187 
L 352.212024 368.828824 
L 354.041866 321.202973 
L 355.871707 298.95766 
L 357.701549 343.793163 
L 359.53139 340.09664 
L 361.361232 297.931771 
L 363.191073 318.817862 
L 365.020915 334.498042 
L 366.850756 289.909663 
L 368.680598 283.055411 
L 370.510439 308.234335 
L 372.340281 284.442784 
L 374.170122 291.883766 
L 375.999964 282.95519 
L 377.829805 269.748964 
L 379.659647 289.499617 
L 381.489488 259.741376 
L 383.31933 299.405101 
L 385.149171 329.831429 
L 386.979013 310.64676 
L 388.808854 366.433548 
L 390.638696 390.28163 
L 392.468537 364.899649 
L 394.298379 376.55604 
L 396.12822 353.662048 
L 397.958062 312.926505 
L 399.787903 287.805473 
L 403.447586 255.120481 
L 405.277428 222.595275 
L 407.107269 351.92687 
L 408.937111 326.125536 
L 410.766952 292.648687 
L 412.596794 351.014587 
L 414.426635 312.038901 
L 416.256477 299.035963 
L 418.086318 303.466203 
L 419.91616 321.820908 
L 421.746001 306.56077 
L 423.575843 333.994342 
L 425.405684 387.384473 
L 427.235526 358.409391 
L 429.065367 442.353385 
L 430.895209 490.150002 
L 432.72505 419.748869 
L 434.554892 412.681249 
L 436.384733 420.918524 
L 438.214575 472.434522 
L 440.044416 473.017593 
L 441.874258 538.602972 
L 443.704099 530.735296 
L 445.533941 536.718131 
L 447.363782 547.26259 
L 449.193624 503.242641 
L 451.023465 513.007351 
L 452.853307 517.966389 
L 454.683148 520.47021 
L 456.51299 556.431598 
L 458.342831 549.438496 
L 460.172673 557.856846 
L 462.002514 543.902788 
L 463.832356 491.35496 
L 465.662197 479.083228 
L 467.492039 499.145901 
L 469.32188 456.741626 
L 471.151722 432.940956 
L 472.981563 500.965218 
L 474.811405 439.679259 
L 476.641246 460.004365 
L 478.471088 476.147903 
L 480.300929 415.644014 
L 482.130771 421.202833 
L 483.960612 389.856881 
L 485.790454 382.19701 
L 487.620295 369.709484 
L 489.450137 286.614862 
L 491.279978 355.860143 
L 493.10982 256.733896 
L 494.939661 235.97304 
L 496.769503 227.212155 
L 498.599344 321.736163 
L 500.429186 260.652028 
L 502.259027 251.213685 
L 504.088869 251.15433 
L 505.91871 199.710988 
L 507.748552 199.502681 
L 509.578393 294.07885 
L 511.408235 338.182812 
L 513.238076 291.572477 
L 515.067918 313.552889 
L 516.897759 289.300596 
L 518.727601 251.651213 
L 520.557442 248.427646 
L 522.387284 361.191581 
L 524.217125 430.909359 
L 526.046967 487.796847 
L 527.876808 392.495495 
L 529.70665 437.669434 
L 531.536491 506.335389 
L 533.366333 481.05662 
L 535.196174 540.316692 
L 537.026016 541.641865 
L 538.855857 546.163856 
L 540.685699 510.687785 
L 542.51554 532.074921 
L 544.345382 527.26289 
L 546.175223 511.789364 
L 548.005065 521.611212 
L 549.834906 399.752118 
L 551.664748 368.420032 
L 553.494589 386.652807 
L 555.324431 495.462198 
L 557.154272 520.875781 
L 558.984114 543.591708 
L 560.813955 524.412247 
L 562.643797 470.768487 
L 564.473638 474.47689 
L 566.30348 445.147247 
L 568.133321 475.657524 
L 569.963163 517.583657 
L 571.793004 494.858653 
L 573.622846 479.542946 
L 575.452687 513.322363 
L 577.282529 458.372525 
L 579.11237 447.89198 
L 580.942212 471.762566 
L 582.772053 473.95537 
L 584.601895 468.1927 
L 586.431736 451.584571 
L 588.261578 472.885979 
L 590.091419 451.601052 
L 591.921261 458.712696 
L 593.751102 441.766425 
L 595.580944 465.368283 
L 597.410785 491.448865 
L 599.240627 458.878944 
L 601.070468 532.756372 
L 604.730151 494.196547 
L 606.559993 511.848405 
L 608.389834 502.441518 
L 610.219676 501.508321 
L 612.049517 499.960995 
L 613.879359 517.699878 
L 615.7092 478.166637 
L 617.539042 492.82578 
L 619.368883 472.866236 
L 621.198725 434.571792 
L 623.028566 478.02557 
L 624.858408 452.049497 
L 626.688249 442.886303 
L 628.518091 514.216827 
L 630.347932 493.536867 
L 634.007615 584.402772 
L 635.837457 540.733138 
L 637.667298 583.376422 
L 639.49714 558.113486 
L 641.326981 528.012292 
L 643.156823 540.28714 
L 644.986664 485.776816 
L 646.816506 507.931738 
L 648.646347 542.507865 
L 650.476189 548.925739 
L 652.30603 420.106253 
L 654.135872 331.611866 
L 655.965713 344.585147 
L 657.795555 234.310895 
L 659.625396 248.814478 
L 661.455238 234.615909 
L 663.285079 244.844939 
L 665.114921 260.136071 
L 666.944762 268.363516 
L 668.774604 238.686757 
L 670.604445 273.938104 
L 672.434287 224.528847 
L 674.264128 210.812897 
L 676.09397 209.98582 
L 677.923811 192.818505 
L 679.753653 192.640775 
L 681.583494 191.662235 
L 683.413336 196.230677 
L 685.243177 206.415828 
L 687.073019 217.716842 
L 688.90286 228.134225 
L 690.732702 232.964974 
L 692.562543 252.198876 
L 694.392385 289.185985 
L 696.222226 375.9906 
L 698.052068 468.758621 
L 699.881909 495.771647 
L 701.711751 542.690949 
L 703.541592 416.974124 
L 705.371434 474.233782 
L 707.201275 478.840434 
L 709.031117 546.65024 
L 710.860958 605.053493 
L 712.6908 591.708031 
L 714.520641 615.615541 
L 716.350483 626.52551 
L 718.180324 618.259499 
L 720.010166 610.691901 
L 721.840007 616.28344 
L 723.669849 584.457296 
L 725.49969 578.507494 
L 727.329532 579.253184 
L 729.159373 567.962962 
L 730.989215 602.244689 
L 732.819056 603.968845 
L 734.648898 619.173026 
L 736.478739 545.147943 
L 738.308581 569.369231 
L 740.138422 575.2332 
L 741.968264 548.494841 
L 743.798105 556.186273 
L 745.627947 581.216056 
L 747.457788 564.544118 
L 749.28763 587.118309 
L 751.117471 556.373289 
L 752.947313 563.065266 
L 754.777154 534.162819 
L 756.606996 493.564893 
L 758.436837 529.519211 
L 760.266679 481.662906 
L 762.09652 466.798781 
L 763.926362 496.887991 
L 765.756203 489.617397 
L 767.586045 495.845976 
L 769.415886 494.207799 
L 771.245728 497.020859 
L 773.075569 485.09982 
L 774.905411 497.22582 
L 776.735252 532.617669 
L 778.565094 514.901353 
L 780.394935 516.504687 
L 782.224777 504.563715 
L 784.054618 414.072324 
L 785.88446 385.767712 
L 787.714301 405.488896 
L 789.544143 402.016742 
L 791.373984 499.49105 
L 793.203826 547.450192 
L 795.033667 559.290983 
L 796.863509 578.802198 
L 798.69335 544.980712 
L 800.523192 554.362565 
L 802.353033 565.086197 
L 804.182875 565.687348 
L 806.012716 573.100336 
L 807.842558 574.233119 
L 809.672399 580.513063 
L 811.502241 593.174951 
L 813.332082 564.901523 
L 815.161924 609.250078 
L 816.991765 637.566203 
L 818.821607 642.584543 
L 820.651448 659.871477 
L 822.48129 647.025156 
L 824.311131 636.86071 
L 826.140973 637.442118 
L 827.970814 646.48861 
L 829.800656 666.677354 
L 831.630497 681.339211 
L 833.460339 680.453406 
L 835.29018 685.767339 
L 837.120022 681.860684 
L 838.949863 665.734212 
L 840.779705 678.907482 
L 842.609546 675.803012 
L 844.439388 687.292657 
L 846.269229 695.691427 
L 848.099071 694.696328 
L 849.928912 704.622591 
L 851.758754 698.586759 
L 855.418437 683.943557 
L 857.248278 665.140282 
L 859.07812 678.132507 
L 860.907961 608.303328 
L 864.567644 363.893587 
L 866.397486 527.806955 
L 868.227327 606.655206 
L 870.057169 668.246399 
L 871.88701 679.839288 
L 873.716852 617.58611 
L 877.376535 437.862181 
L 881.036218 300.692127 
L 882.866059 254.360204 
L 884.695901 274.949897 
L 886.525742 251.327585 
L 888.355584 263.967701 
L 890.185425 257.747195 
L 892.015267 256.152812 
L 893.845108 258.311505 
L 895.67495 260.039865 
L 897.504791 273.450131 
L 899.334633 279.788217 
L 901.164474 309.762084 
L 902.994316 300.894494 
L 904.824157 344.20894 
L 906.653999 331.154176 
L 908.48384 368.595796 
L 910.313682 329.548835 
L 912.143523 335.906999 
L 913.973365 333.612028 
L 915.803206 293.721759 
L 917.633048 278.845357 
L 919.462889 306.648987 
L 921.292731 302.756413 
L 923.122572 314.018735 
L 924.952414 289.996625 
L 926.782255 274.990094 
L 928.612097 284.599557 
L 930.441938 307.756568 
L 932.27178 254.055106 
L 934.101621 248.841248 
L 935.931463 341.883978 
L 937.761304 281.251007 
L 939.591146 280.264938 
L 941.420987 377.276538 
L 943.250829 387.5141 
L 945.08067 433.387163 
L 946.910512 482.138267 
L 948.740353 418.965774 
L 952.400036 485.552468 
L 954.229878 418.304191 
L 956.059719 449.813212 
L 957.889561 475.114442 
L 959.719402 466.455577 
L 961.549244 513.504443 
L 963.379085 563.573526 
L 965.208927 584.077973 
L 967.038768 560.972349 
L 968.86861 555.826379 
L 970.698451 546.615919 
L 972.528293 565.235692 
L 974.358134 564.059784 
L 976.187976 605.512008 
L 978.017817 595.746483 
L 979.847659 603.469861 
L 981.6775 635.496082 
L 983.507342 631.060425 
L 985.337183 603.138013 
L 987.167025 589.014234 
L 988.996866 592.907645 
L 990.826708 609.787827 
L 992.656549 621.752327 
L 994.486391 622.76067 
L 996.316232 593.383383 
L 998.146074 618.062695 
L 999.975915 635.218382 
L 1001.805757 667.789113 
L 1003.635598 655.688555 
L 1005.46544 675.560024 
L 1007.295281 682.949708 
L 1009.125123 681.2502 
L 1010.954964 675.521928 
L 1012.784806 680.806136 
L 1014.614647 658.007023 
L 1016.444489 649.006914 
L 1018.27433 644.43887 
L 1020.104172 654.202257 
L 1021.934013 682.910473 
L 1023.763855 679.691257 
L 1025.593696 698.11971 
L 1027.423538 687.523844 
L 1029.253379 675.608399 
L 1031.083221 682.763639 
L 1032.913062 655.662563 
L 1034.742904 683.27102 
L 1036.572745 690.287029 
L 1038.402587 677.401713 
L 1042.06227 684.817917 
L 1043.892111 682.705863 
L 1045.721953 675.12029 
L 1047.551794 677.517542 
L 1051.211478 539.842857 
L 1053.041319 459.534295 
L 1054.871161 391.711919 
L 1056.701002 385.00618 
L 1058.530844 303.445205 
L 1060.360685 330.261009 
L 1062.190527 324.937853 
L 1064.020368 314.370807 
L 1065.85021 306.518189 
L 1067.680051 302.56329 
L 1069.509893 278.020915 
L 1071.339734 267.287599 
L 1073.169576 294.141007 
L 1074.999417 267.589226 
L 1076.829259 265.207879 
L 1078.6591 273.135663 
L 1080.488942 289.497483 
L 1082.318783 284.682713 
L 1084.148625 301.66891 
L 1085.978466 301.69476 
L 1087.808308 360.418964 
L 1089.638149 318.000279 
L 1091.467991 285.357995 
L 1093.297832 343.590922 
L 1095.127674 337.949994 
L 1096.957515 343.87544 
L 1098.787357 376.753513 
L 1100.617198 349.980332 
L 1102.44704 297.960298 
L 1104.276881 330.969001 
L 1106.106723 330.888063 
L 1107.936564 263.598438 
L 1109.766406 380.330239 
L 1111.596247 379.567577 
L 1113.426089 358.754477 
L 1115.25593 386.299271 
L 1117.085772 383.662351 
L 1118.915613 403.083331 
L 1120.745455 386.009482 
L 1120.745455 386.009482 
" clip-path="url(#p916bf799b7)" style="fill: none; stroke: #ff6347; stroke-linecap: square"/>
   </g>
   <g id="line2d_15">
    <path d="M 207.654545 632.237055 
L 209.484387 738.72 
L 216.803753 738.72 
L 218.633594 393.60224 
L 220.463436 518.86514 
L 222.293277 443.041383 
L 224.123119 310.784 
L 225.95296 397.400406 
L 227.782802 292.887319 
L 229.612643 323.330922 
L 231.442485 440.354227 
L 233.272326 538.81931 
L 235.102168 385.822173 
L 236.932009 364.081439 
L 238.761851 528.07376 
L 240.591692 574.63436 
L 242.421534 630.931269 
L 244.251375 738.72 
L 246.081217 514.910409 
L 247.911058 426.347339 
L 249.7409 646.945368 
L 251.570741 738.72 
L 311.955511 738.72 
L 313.785353 608.908213 
L 315.615194 453.920827 
L 317.445036 506.839403 
L 319.274877 738.72 
L 321.104719 738.72 
L 322.93456 635.477981 
L 324.764402 738.72 
L 326.594243 480.123214 
L 328.424085 570.9713 
L 330.253926 738.72 
L 332.083768 472.678362 
L 333.913609 675.977861 
L 335.743451 594.535282 
L 337.573292 732.422069 
L 339.403134 670.803489 
L 341.232975 738.72 
L 343.062817 270.027334 
L 344.892658 449.724388 
L 346.7225 738.72 
L 352.212024 738.72 
L 354.041866 430.78243 
L 355.871707 425.682619 
L 357.701549 624.153313 
L 359.53139 738.72 
L 361.361232 559.163573 
L 363.191073 628.333229 
L 365.020915 615.71754 
L 366.850756 458.638743 
L 368.680598 409.563467 
L 370.510439 525.334799 
L 372.340281 425.117848 
L 374.170122 485.855663 
L 375.999964 510.877416 
L 377.829805 382.52298 
L 379.659647 528.599755 
L 381.489488 351.954895 
L 383.31933 465.29182 
L 385.149171 698.278178 
L 386.979013 499.35266 
L 388.808854 738.72 
L 396.12822 738.72 
L 399.787903 412.047754 
L 401.617745 315.860116 
L 403.447586 296.919224 
L 405.277428 248.563338 
L 407.107269 461.590089 
L 408.937111 602.973794 
L 410.766952 347.069894 
L 412.596794 528.100697 
L 414.426635 420.117107 
L 416.256477 331.155599 
L 418.086318 447.227636 
L 419.91616 619.464656 
L 421.746001 528.372312 
L 423.575843 480.08218 
L 425.405684 738.72 
L 487.620295 738.72 
L 489.450137 399.213867 
L 491.279978 497.48522 
L 493.10982 359.452095 
L 494.939661 282.564008 
L 496.769503 223.480202 
L 498.599344 555.278696 
L 500.429186 404.549613 
L 502.259027 438.094058 
L 504.088869 319.573287 
L 505.91871 262.577526 
L 507.748552 253.900256 
L 509.578393 496.66975 
L 511.408235 692.509213 
L 513.238076 556.576534 
L 515.067918 556.866072 
L 516.897759 456.62873 
L 518.727601 448.160792 
L 520.557442 422.523865 
L 522.387284 738.72 
L 524.217125 724.378692 
L 526.046967 738.72 
L 527.876808 738.72 
L 529.70665 644.716528 
L 531.536491 677.669788 
L 533.366333 738.72 
L 548.005065 738.72 
L 549.834906 653.014391 
L 551.664748 738.72 
L 652.30603 738.72 
L 654.135872 516.598885 
L 655.965713 700.529124 
L 657.795555 479.921495 
L 659.625396 385.537278 
L 661.455238 284.011698 
L 663.285079 274.266124 
L 665.114921 318.075319 
L 666.944762 355.245346 
L 668.774604 294.616181 
L 670.604445 382.85121 
L 672.434287 263.124812 
L 674.264128 238.880006 
L 676.09397 249.940505 
L 677.923811 206.93488 
L 679.753653 192.872338 
L 681.583494 232.81117 
L 683.413336 242.251604 
L 685.243177 298.377413 
L 687.073019 335.337627 
L 688.90286 282.58166 
L 690.732702 308.636726 
L 692.562543 425.57675 
L 694.392385 645.927447 
L 696.222226 738.72 
L 703.541592 738.72 
L 705.371434 732.988429 
L 707.201275 738.72 
L 782.224777 738.72 
L 784.054618 676.332651 
L 785.88446 685.582848 
L 787.714301 738.72 
L 862.737803 738.72 
L 864.567644 565.420272 
L 866.397486 693.411624 
L 868.227327 738.72 
L 879.206376 738.72 
L 881.036218 434.083234 
L 882.866059 293.165731 
L 884.695901 213.268574 
L 886.525742 314.315426 
L 888.355584 353.444204 
L 890.185425 316.809124 
L 892.015267 261.989875 
L 893.845108 282.316257 
L 895.67495 280.426438 
L 897.504791 323.967094 
L 899.334633 386.91754 
L 901.164474 603.816892 
L 902.994316 513.246339 
L 904.824157 727.565512 
L 906.653999 623.486752 
L 908.48384 738.72 
L 910.313682 684.45542 
L 912.143523 738.72 
L 913.973365 701.675418 
L 915.803206 381.553392 
L 917.633048 373.981026 
L 919.462889 383.469563 
L 921.292731 389.938635 
L 923.122572 437.897819 
L 924.952414 462.038388 
L 926.782255 286.259151 
L 928.612097 340.38325 
L 930.441938 526.087568 
L 932.27178 328.635213 
L 934.101621 302.944349 
L 935.931463 334.983715 
L 937.761304 324.244251 
L 939.591146 302.504897 
L 941.420987 698.158569 
L 943.250829 738.72 
L 1056.701002 738.72 
L 1058.530844 578.20316 
L 1060.360685 564.194514 
L 1062.190527 736.201413 
L 1064.020368 654.844311 
L 1065.85021 738.72 
L 1067.680051 665.483638 
L 1069.509893 439.17698 
L 1071.339734 369.063692 
L 1073.169576 456.225565 
L 1074.999417 366.331277 
L 1076.829259 358.506098 
L 1078.6591 368.046293 
L 1080.488942 426.797038 
L 1082.318783 408.758224 
L 1084.148625 480.894346 
L 1085.978466 630.302564 
L 1087.808308 738.72 
L 1089.638149 586.617118 
L 1091.467991 478.860302 
L 1093.297832 642.739748 
L 1095.127674 708.102829 
L 1096.957515 533.798512 
L 1098.787357 738.72 
L 1100.617198 738.72 
L 1102.44704 507.023909 
L 1104.276881 585.24633 
L 1106.106723 622.12707 
L 1107.936564 315.339809 
L 1109.766406 630.743709 
L 1111.596247 558.562517 
L 1113.426089 574.151511 
L 1115.25593 738.72 
L 1120.745455 738.72 
L 1120.745455 738.72 
" clip-path="url(#p916bf799b7)" style="fill: none; stroke: #da70d6; stroke-linecap: square"/>
   </g>
   <g id="line2d_16">
    <path d="M 207.654545 350.772943 
L 209.484387 337.645439 
L 211.314228 334.922059 
L 213.14407 340.118809 
L 214.973911 343.271184 
L 216.803753 405.160249 
L 218.633594 273.011432 
L 220.463436 264.452202 
L 222.293277 250.399281 
L 224.123119 216.543841 
L 225.95296 263.818958 
L 227.782802 238.674292 
L 229.612643 219.845376 
L 231.442485 305.663839 
L 233.272326 274.336647 
L 235.102168 231.695768 
L 236.932009 248.760937 
L 238.761851 296.174256 
L 240.591692 294.804159 
L 242.421534 301.602653 
L 244.251375 387.047795 
L 246.081217 254.128389 
L 247.911058 292.387048 
L 249.7409 368.042529 
L 251.570741 359.658227 
L 253.400583 402.835433 
L 255.230424 403.024227 
L 257.060266 425.087815 
L 258.890107 455.625658 
L 260.719949 473.195532 
L 262.54979 481.180684 
L 264.379632 472.039597 
L 266.209473 493.076522 
L 268.039315 459.332722 
L 269.869156 452.243477 
L 271.698998 480.893175 
L 273.528839 477.743268 
L 275.358681 472.475159 
L 277.188522 523.08632 
L 279.018364 579.596367 
L 280.848206 573.190372 
L 282.678047 579.522812 
L 284.507889 512.201899 
L 286.33773 512.396423 
L 288.167572 525.618836 
L 289.997413 553.108332 
L 291.827255 582.323784 
L 293.657096 600.048256 
L 295.486938 572.988591 
L 297.316779 594.44832 
L 299.146621 495.227895 
L 300.976462 581.363816 
L 302.806304 612.236707 
L 304.636145 462.944041 
L 306.465987 495.342631 
L 308.295828 468.479352 
L 310.12567 447.816835 
L 311.955511 413.684844 
L 313.785353 324.17402 
L 315.615194 349.56627 
L 317.445036 351.346581 
L 319.274877 401.751778 
L 321.104719 417.731013 
L 322.93456 271.169967 
L 324.764402 414.124128 
L 326.594243 226.763082 
L 328.424085 274.631623 
L 330.253926 348.461994 
L 332.083768 252.077447 
L 333.913609 280.258622 
L 335.743451 275.046981 
L 337.573292 406.610092 
L 339.403134 358.245088 
L 341.232975 397.091565 
L 343.062817 340.969186 
L 344.892658 399.412867 
L 346.7225 421.73345 
L 348.552341 442.482636 
L 350.382183 378.694822 
L 352.212024 339.347656 
L 354.041866 296.491108 
L 355.871707 260.142178 
L 357.701549 336.356029 
L 359.53139 315.089632 
L 361.361232 267.738554 
L 363.191073 253.625651 
L 365.020915 298.857355 
L 366.850756 258.234499 
L 368.680598 234.92335 
L 370.510439 261.812312 
L 372.340281 274.981979 
L 374.170122 257.167073 
L 375.999964 244.328355 
L 377.829805 246.492486 
L 379.659647 310.126705 
L 381.489488 293.873806 
L 383.31933 314.906004 
L 385.149171 337.402038 
L 386.979013 329.667753 
L 388.808854 344.316816 
L 390.638696 366.996478 
L 392.468537 348.729906 
L 394.298379 293.097884 
L 396.12822 270.81869 
L 399.787903 222.360533 
L 401.617745 214.688489 
L 403.447586 210.942901 
L 405.277428 213.845475 
L 407.107269 281.315925 
L 408.937111 275.780781 
L 410.766952 234.936651 
L 412.596794 285.687521 
L 414.426635 260.520644 
L 416.256477 251.646779 
L 418.086318 252.923808 
L 419.91616 265.974096 
L 421.746001 260.067807 
L 423.575843 288.527142 
L 425.405684 340.139765 
L 427.235526 323.691318 
L 429.065367 375.645514 
L 430.895209 405.364958 
L 432.72505 376.392406 
L 434.554892 370.975721 
L 436.384733 408.826112 
L 438.214575 423.208161 
L 440.044416 452.5043 
L 441.874258 511.978931 
L 443.704099 506.483609 
L 445.533941 508.224998 
L 447.363782 521.373939 
L 449.193624 486.841334 
L 451.023465 483.787801 
L 452.853307 478.764975 
L 454.683148 490.265219 
L 456.51299 530.802954 
L 458.342831 510.379446 
L 460.172673 529.8671 
L 462.002514 503.840833 
L 463.832356 457.856192 
L 465.662197 441.989434 
L 467.492039 456.152155 
L 471.151722 365.546279 
L 472.981563 461.963535 
L 474.811405 392.27853 
L 476.641246 444.300237 
L 478.471088 429.736254 
L 480.300929 354.968733 
L 482.130771 371.866253 
L 483.960612 332.808583 
L 485.790454 319.218496 
L 487.620295 308.003901 
L 489.450137 208.985738 
L 491.279978 280.594548 
L 493.10982 173.240939 
L 496.769503 152.082126 
L 498.599344 237.228862 
L 500.429186 169.987842 
L 502.259027 173.987999 
L 504.088869 165.155419 
L 505.91871 146.417146 
L 507.748552 139.69386 
L 509.578393 220.073008 
L 511.408235 289.646435 
L 513.238076 248.934275 
L 515.067918 352.295255 
L 518.727601 223.362538 
L 520.557442 237.325904 
L 522.387284 424.279916 
L 524.217125 489.647619 
L 526.046967 528.313605 
L 527.876808 503.85313 
L 529.70665 556.832212 
L 531.536491 537.759602 
L 533.366333 532.376673 
L 535.196174 528.978597 
L 537.026016 515.392379 
L 538.855857 507.565674 
L 540.685699 444.75115 
L 542.51554 501.938131 
L 544.345382 489.177716 
L 546.175223 492.51857 
L 548.005065 502.540087 
L 549.834906 403.282749 
L 551.664748 453.345118 
L 553.494589 485.291876 
L 555.324431 473.713705 
L 557.154272 505.455795 
L 558.984114 505.762692 
L 560.813955 475.099823 
L 562.643797 492.303571 
L 564.473638 493.408767 
L 566.30348 439.362156 
L 568.133321 472.294606 
L 569.963163 468.496459 
L 571.793004 460.214638 
L 573.622846 463.70001 
L 575.452687 486.910979 
L 577.282529 423.173025 
L 579.11237 469.352295 
L 580.942212 465.554546 
L 582.772053 478.58735 
L 584.601895 437.441677 
L 586.431736 493.709557 
L 588.261578 514.6778 
L 590.091419 477.157416 
L 591.921261 511.141522 
L 593.751102 503.704137 
L 595.580944 513.258679 
L 597.410785 516.027861 
L 599.240627 453.683826 
L 601.070468 530.222665 
L 602.90031 494.58089 
L 604.730151 499.452526 
L 606.559993 522.344238 
L 608.389834 508.617623 
L 610.219676 504.171258 
L 612.049517 501.538918 
L 613.879359 506.788038 
L 615.7092 435.8433 
L 617.539042 484.407053 
L 619.368883 441.139058 
L 621.198725 411.325185 
L 623.028566 474.693709 
L 624.858408 431.417578 
L 626.688249 412.65473 
L 628.518091 480.543048 
L 630.347932 405.923496 
L 632.177774 512.673789 
L 634.007615 572.935071 
L 635.837457 508.186913 
L 637.667298 574.096381 
L 639.49714 536.846148 
L 641.326981 496.221179 
L 643.156823 513.16674 
L 644.986664 459.062844 
L 646.816506 480.034914 
L 648.646347 515.635425 
L 650.476189 514.216513 
L 654.135872 279.858907 
L 655.965713 247.388957 
L 657.795555 156.715987 
L 659.625396 179.094817 
L 661.455238 173.92099 
L 663.285079 177.933236 
L 665.114921 186.134872 
L 666.944762 192.529929 
L 668.774604 149.764526 
L 670.604445 199.638666 
L 672.434287 145.550749 
L 674.264128 140.576193 
L 676.09397 142.037812 
L 677.923811 138.66843 
L 679.753653 140.214292 
L 681.583494 141.140838 
L 683.413336 140.662988 
L 685.243177 137.010008 
L 687.073019 133.92 
L 688.90286 159.66407 
L 690.732702 177.137906 
L 692.562543 206.902044 
L 694.392385 270.422322 
L 696.222226 431.173486 
L 698.052068 510.656058 
L 701.711751 574.462674 
L 703.541592 512.189957 
L 705.371434 573.110354 
L 707.201275 587.383963 
L 709.031117 571.909809 
L 710.860958 625.504378 
L 712.6908 591.961858 
L 714.520641 602.315515 
L 716.350483 618.644877 
L 720.010166 596.210707 
L 721.840007 598.512747 
L 723.669849 585.484566 
L 725.49969 567.021566 
L 727.329532 592.842706 
L 729.159373 587.415104 
L 730.989215 581.256212 
L 732.819056 590.374126 
L 734.648898 583.704924 
L 736.478739 569.54465 
L 738.308581 594.237796 
L 740.138422 587.208847 
L 741.968264 568.868594 
L 743.798105 563.095111 
L 745.627947 560.036433 
L 747.457788 562.45714 
L 749.28763 554.088106 
L 751.117471 559.194046 
L 752.947313 558.571573 
L 754.777154 547.901544 
L 756.606996 549.099035 
L 758.436837 561.725746 
L 760.266679 453.332988 
L 762.09652 520.929405 
L 763.926362 531.61171 
L 765.756203 509.251682 
L 767.586045 525.139835 
L 769.415886 530.239041 
L 771.245728 530.354822 
L 773.075569 521.977924 
L 774.905411 524.039449 
L 776.735252 514.645424 
L 778.565094 508.133791 
L 780.394935 517.500564 
L 782.224777 505.682381 
L 784.054618 449.344501 
L 785.88446 452.435617 
L 787.714301 430.48551 
L 789.544143 446.976957 
L 791.373984 503.693491 
L 793.203826 538.600609 
L 795.033667 550.578745 
L 796.863509 572.99018 
L 798.69335 533.22753 
L 800.523192 555.595966 
L 802.353033 567.263462 
L 804.182875 556.680102 
L 806.012716 530.580321 
L 807.842558 543.642655 
L 809.672399 554.121339 
L 811.502241 585.34285 
L 813.332082 548.29626 
L 815.161924 585.370394 
L 816.991765 605.708488 
L 818.821607 594.110742 
L 820.651448 637.320972 
L 822.48129 632.722361 
L 824.311131 624.577162 
L 826.140973 603.662231 
L 827.970814 641.463326 
L 829.800656 654.921773 
L 831.630497 658.34515 
L 833.460339 653.91846 
L 835.29018 666.402336 
L 837.120022 666.406535 
L 838.949863 645.681526 
L 840.779705 668.759297 
L 842.609546 673.976077 
L 844.439388 671.263881 
L 846.269229 651.218138 
L 848.099071 637.155017 
L 849.928912 644.251226 
L 851.758754 652.481761 
L 853.588595 645.301084 
L 855.418437 621.894649 
L 857.248278 608.029414 
L 859.07812 656.69285 
L 860.907961 592.432451 
L 862.737803 578.45754 
L 864.567644 430.299749 
L 866.397486 585.188502 
L 868.227327 647.6767 
L 870.057169 666.39374 
L 871.88701 657.731806 
L 873.716852 584.010859 
L 875.546693 437.543467 
L 877.376535 345.731294 
L 879.206376 336.244514 
L 881.036218 267.444373 
L 882.866059 223.03753 
L 884.695901 222.500826 
L 886.525742 214.503146 
L 888.355584 222.91058 
L 890.185425 205.534498 
L 892.015267 213.448019 
L 893.845108 217.314408 
L 895.67495 213.969789 
L 897.504791 232.508666 
L 899.334633 241.10278 
L 901.164474 278.285439 
L 902.994316 287.864409 
L 904.824157 305.976257 
L 906.653999 336.242715 
L 908.48384 360.330915 
L 910.313682 342.949479 
L 912.143523 342.540772 
L 913.973365 316.813976 
L 915.803206 283.841664 
L 917.633048 254.499326 
L 919.462889 295.198477 
L 921.292731 267.06139 
L 923.122572 267.222346 
L 924.952414 232.768338 
L 926.782255 224.260976 
L 928.612097 244.191073 
L 930.441938 282.571454 
L 932.27178 247.783443 
L 934.101621 256.277127 
L 935.931463 284.369918 
L 937.761304 237.609711 
L 939.591146 248.721451 
L 943.250829 336.470598 
L 945.08067 367.934862 
L 946.910512 421.228767 
L 948.740353 351.098955 
L 950.570195 408.999345 
L 952.400036 437.982041 
L 954.229878 395.177046 
L 956.059719 416.524821 
L 957.889561 430.098846 
L 959.719402 435.769619 
L 961.549244 487.523936 
L 963.379085 534.970739 
L 965.208927 557.207457 
L 967.038768 537.434928 
L 968.86861 556.335517 
L 970.698451 553.195378 
L 972.528293 563.963746 
L 974.358134 557.725672 
L 976.187976 594.713534 
L 978.017817 577.280273 
L 979.847659 582.382302 
L 981.6775 616.391212 
L 983.507342 620.05879 
L 985.337183 564.97991 
L 987.167025 572.222625 
L 988.996866 598.941784 
L 990.826708 606.919971 
L 994.486391 618.077116 
L 996.316232 622.199496 
L 998.146074 645.187916 
L 999.975915 653.425729 
L 1001.805757 670.886247 
L 1003.635598 674.932421 
L 1005.46544 675.012581 
L 1007.295281 684.182216 
L 1009.125123 676.744193 
L 1010.954964 693.001274 
L 1012.784806 676.962695 
L 1014.614647 630.774192 
L 1016.444489 628.639226 
L 1018.27433 625.856617 
L 1020.104172 634.94179 
L 1021.934013 653.472954 
L 1023.763855 636.327981 
L 1025.593696 671.68038 
L 1027.423538 674.195301 
L 1029.253379 642.520901 
L 1031.083221 671.565346 
L 1032.913062 619.009121 
L 1034.742904 669.013505 
L 1036.572745 690.373578 
L 1038.402587 662.299677 
L 1040.232428 671.039685 
L 1042.06227 676.917065 
L 1043.892111 671.993608 
L 1045.721953 654.080578 
L 1047.551794 662.329376 
L 1049.381636 570.849369 
L 1051.211478 542.941753 
L 1053.041319 509.238402 
L 1054.871161 375.201419 
L 1056.701002 360.73887 
L 1058.530844 259.396541 
L 1060.360685 307.863858 
L 1062.190527 320.615364 
L 1064.020368 308.865654 
L 1065.85021 251.983082 
L 1067.680051 276.739285 
L 1069.509893 228.246954 
L 1071.339734 227.365122 
L 1073.169576 286.49565 
L 1074.999417 234.070924 
L 1076.829259 227.523485 
L 1078.6591 236.060922 
L 1080.488942 308.576409 
L 1082.318783 281.367876 
L 1084.148625 296.278159 
L 1085.978466 274.138588 
L 1087.808308 366.98853 
L 1089.638149 293.086423 
L 1091.467991 275.12449 
L 1093.297832 346.24884 
L 1095.127674 313.216001 
L 1096.957515 307.191546 
L 1098.787357 407.576669 
L 1100.617198 229.985227 
L 1102.44704 251.413626 
L 1104.276881 309.628567 
L 1106.106723 319.005338 
L 1107.936564 240.038994 
L 1109.766406 336.307968 
L 1111.596247 366.234234 
L 1113.426089 311.13055 
L 1115.25593 343.117463 
L 1117.085772 329.195675 
L 1118.915613 369.328802 
L 1120.745455 358.724109 
L 1120.745455 358.724109 
" clip-path="url(#p916bf799b7)" style="fill: none; stroke: #8fbc8f; stroke-linecap: square"/>
   </g>
   <g id="patch_3">
    <path d="M 162 768.96 
L 162 103.68 
" style="fill: none; stroke: #000000; stroke-width: 0.8; stroke-linejoin: miter; stroke-linecap: square"/>
   </g>
   <g id="patch_4">
    <path d="M 1166.4 768.96 
L 1166.4 103.68 
" style="fill: none; stroke: #000000; stroke-width: 0.8; stroke-linejoin: miter; stroke-linecap: square"/>
   </g>
   <g id="patch_5">
    <path d="M 162 768.96 
L 1166.4 768.96 
" style="fill: none; stroke: #000000; stroke-width: 0.8; stroke-linejoin: miter; stroke-linecap: square"/>
   </g>
   <g id="patch_6">
    <path d="M 162 103.68 
L 1166.4 103.68 
" style="fill: none; stroke: #000000; stroke-width: 0.8; stroke-linejoin: miter; stroke-linecap: square"/>
   </g>
   <g id="text_13">
    <!-- Function 1 -->
    <g transform="translate(632.957813 97.68) scale(0.12 -0.12)">
     <defs>
      <path id="DejaVuSans-46" d="M 628 4666 
L 3309 4666 
L 3309 4134 
L 1259 4134 
L 1259 2759 
L 3109 2759 
L 3109 2228 
L 1259 2228 
L 1259 0 
L 628 0 
L 628 4666 
z
" transform="scale(0.015625)"/>
      <path id="DejaVuSans-75" d="M 544 1381 
L 544 3500 
L 1119 3500 
L 1119 1403 
Q 1119 906 1312 657 
Q 1506 409 1894 409 
Q 2359 409 2629 706 
Q 2900 1003 2900 1516 
L 2900 3500 
L 3475 3500 
L 3475 0 
L 2900 0 
L 2900 538 
Q 2691 219 2414 64 
Q 2138 -91 1772 -91 
Q 1169 -91 856 284 
Q 544 659 544 1381 
z
M 1991 3584 
L 1991 3584 
z
" transform="scale(0.015625)"/>
      <path id="DejaVuSans-6e" d="M 3513 2113 
L 3513 0 
L 2938 0 
L 2938 2094 
Q 2938 2591 2744 2837 
Q 2550 3084 2163 3084 
Q 1697 3084 1428 2787 
Q 1159 2491 1159 1978 
L 1159 0 
L 581 0 
L 581 3500 
L 1159 3500 
L 1159 2956 
Q 1366 3272 1645 3428 
Q 1925 3584 2291 3584 
Q 2894 3584 3203 3211 
Q 3513 2838 3513 2113 
z
" transform="scale(0.015625)"/>
      <path id="DejaVuSans-63" d="M 3122 3366 
L 3122 2828 
Q 2878 2963 2633 3030 
Q 2388 3097 2138 3097 
Q 1578 3097 1268 2742 
Q 959 2388 959 1747 
Q 959 1106 1268 751 
Q 1578 397 2138 397 
Q 2388 397 2633 464 
Q 2878 531 3122 666 
L 3122 134 
Q 2881 22 2623 -34 
Q 2366 -91 2075 -91 
Q 1284 -91 818 406 
Q 353 903 353 1747 
Q 353 2603 823 3093 
Q 1294 3584 2113 3584 
Q 2378 3584 2631 3529 
Q 2884 3475 3122 3366 
z
" transform="scale(0.015625)"/>
      <path id="DejaVuSans-74" d="M 1172 4494 
L 1172 3500 
L 2356 3500 
L 2356 3053 
L 1172 3053 
L 1172 1153 
Q 1172 725 1289 603 
Q 1406 481 1766 481 
L 2356 481 
L 2356 0 
L 1766 0 
Q 1100 0 847 248 
Q 594 497 594 1153 
L 594 3053 
L 172 3053 
L 172 3500 
L 594 3500 
L 594 4494 
L 1172 4494 
z
" transform="scale(0.015625)"/>
      <path id="DejaVuSans-69" d="M 603 3500 
L 1178 3500 
L 1178 0 
L 603 0 
L 603 3500 
z
M 603 4863 
L 1178 4863 
L 1178 4134 
L 603 4134 
L 603 4863 
z
" transform="scale(0.015625)"/>
      <path id="DejaVuSans-6f" d="M 1959 3097 
Q 1497 3097 1228 2736 
Q 959 2375 959 1747 
Q 959 1119 1226 758 
Q 1494 397 1959 397 
Q 2419 397 2687 759 
Q 2956 1122 2956 1747 
Q 2956 2369 2687 2733 
Q 2419 3097 1959 3097 
z
M 1959 3584 
Q 2709 3584 3137 3096 
Q 3566 2609 3566 1747 
Q 3566 888 3137 398 
Q 2709 -91 1959 -91 
Q 1206 -91 779 398 
Q 353 888 353 1747 
Q 353 2609 779 3096 
Q 1206 3584 1959 3584 
z
" transform="scale(0.015625)"/>
      <path id="DejaVuSans-20" transform="scale(0.015625)"/>
     </defs>
     <use xlink:href="#DejaVuSans-46"/>
     <use xlink:href="#DejaVuSans-75" x="52.019531"/>
     <use xlink:href="#DejaVuSans-6e" x="115.398438"/>
     <use xlink:href="#DejaVuSans-63" x="178.777344"/>
     <use xlink:href="#DejaVuSans-74" x="233.757812"/>
     <use xlink:href="#DejaVuSans-69" x="272.966797"/>
     <use xlink:href="#DejaVuSans-6f" x="300.75"/>
     <use xlink:href="#DejaVuSans-6e" x="361.931641"/>
     <use xlink:href="#DejaVuSans-20" x="425.310547"/>
     <use xlink:href="#DejaVuSans-31" x="457.097656"/>
    </g>
   </g>
   <g id="legend_1">
    <g id="patch_7">
     <path d="M 1011.90625 170.3925 
L 1159.4 170.3925 
Q 1161.4 170.3925 1161.4 168.3925 
L 1161.4 110.68 
Q 1161.4 108.68 1159.4 108.68 
L 1011.90625 108.68 
Q 1009.90625 108.68 1009.90625 110.68 
L 1009.90625 168.3925 
Q 1009.90625 170.3925 1011.90625 170.3925 
z
" style="fill: #ffffff; opacity: 0.8; stroke: #cccccc; stroke-linejoin: miter"/>
    </g>
    <g id="line2d_17">
     <path d="M 1013.90625 116.778437 
L 1023.90625 116.778437 
L 1033.90625 116.778437 
" style="fill: none; stroke: #4169e1; stroke-linecap: square"/>
    </g>
    <g id="text_14">
     <!-- Truth -->
     <g transform="translate(1041.90625 120.278437) scale(0.1 -0.1)">
      <defs>
       <path id="DejaVuSans-54" d="M -19 4666 
L 3928 4666 
L 3928 4134 
L 2272 4134 
L 2272 0 
L 1638 0 
L 1638 4134 
L -19 4134 
L -19 4666 
z
" transform="scale(0.015625)"/>
       <path id="DejaVuSans-72" d="M 2631 2963 
Q 2534 3019 2420 3045 
Q 2306 3072 2169 3072 
Q 1681 3072 1420 2755 
Q 1159 2438 1159 1844 
L 1159 0 
L 581 0 
L 581 3500 
L 1159 3500 
L 1159 2956 
Q 1341 3275 1631 3429 
Q 1922 3584 2338 3584 
Q 2397 3584 2469 3576 
Q 2541 3569 2628 3553 
L 2631 2963 
z
" transform="scale(0.015625)"/>
       <path id="DejaVuSans-68" d="M 3513 2113 
L 3513 0 
L 2938 0 
L 2938 2094 
Q 2938 2591 2744 2837 
Q 2550 3084 2163 3084 
Q 1697 3084 1428 2787 
Q 1159 2491 1159 1978 
L 1159 0 
L 581 0 
L 581 4863 
L 1159 4863 
L 1159 2956 
Q 1366 3272 1645 3428 
Q 1925 3584 2291 3584 
Q 2894 3584 3203 3211 
Q 3513 2838 3513 2113 
z
" transform="scale(0.015625)"/>
      </defs>
      <use xlink:href="#DejaVuSans-54"/>
      <use xlink:href="#DejaVuSans-72" x="46.333984"/>
      <use xlink:href="#DejaVuSans-75" x="87.447266"/>
      <use xlink:href="#DejaVuSans-74" x="150.826172"/>
      <use xlink:href="#DejaVuSans-68" x="190.035156"/>
     </g>
    </g>
    <g id="line2d_18">
     <path d="M 1013.90625 131.456562 
L 1023.90625 131.456562 
L 1033.90625 131.456562 
" style="fill: none; stroke: #ff6347; stroke-linecap: square"/>
    </g>
    <g id="text_15">
     <!-- Gossip predictions -->
     <g transform="translate(1041.90625 134.956562) scale(0.1 -0.1)">
      <defs>
       <path id="DejaVuSans-47" d="M 3809 666 
L 3809 1919 
L 2778 1919 
L 2778 2438 
L 4434 2438 
L 4434 434 
Q 4069 175 3628 42 
Q 3188 -91 2688 -91 
Q 1594 -91 976 548 
Q 359 1188 359 2328 
Q 359 3472 976 4111 
Q 1594 4750 2688 4750 
Q 3144 4750 3555 4637 
Q 3966 4525 4313 4306 
L 4313 3634 
Q 3963 3931 3569 4081 
Q 3175 4231 2741 4231 
Q 1884 4231 1454 3753 
Q 1025 3275 1025 2328 
Q 1025 1384 1454 906 
Q 1884 428 2741 428 
Q 3075 428 3337 486 
Q 3600 544 3809 666 
z
" transform="scale(0.015625)"/>
       <path id="DejaVuSans-73" d="M 2834 3397 
L 2834 2853 
Q 2591 2978 2328 3040 
Q 2066 3103 1784 3103 
Q 1356 3103 1142 2972 
Q 928 2841 928 2578 
Q 928 2378 1081 2264 
Q 1234 2150 1697 2047 
L 1894 2003 
Q 2506 1872 2764 1633 
Q 3022 1394 3022 966 
Q 3022 478 2636 193 
Q 2250 -91 1575 -91 
Q 1294 -91 989 -36 
Q 684 19 347 128 
L 347 722 
Q 666 556 975 473 
Q 1284 391 1588 391 
Q 1994 391 2212 530 
Q 2431 669 2431 922 
Q 2431 1156 2273 1281 
Q 2116 1406 1581 1522 
L 1381 1569 
Q 847 1681 609 1914 
Q 372 2147 372 2553 
Q 372 3047 722 3315 
Q 1072 3584 1716 3584 
Q 2034 3584 2315 3537 
Q 2597 3491 2834 3397 
z
" transform="scale(0.015625)"/>
       <path id="DejaVuSans-70" d="M 1159 525 
L 1159 -1331 
L 581 -1331 
L 581 3500 
L 1159 3500 
L 1159 2969 
Q 1341 3281 1617 3432 
Q 1894 3584 2278 3584 
Q 2916 3584 3314 3078 
Q 3713 2572 3713 1747 
Q 3713 922 3314 415 
Q 2916 -91 2278 -91 
Q 1894 -91 1617 61 
Q 1341 213 1159 525 
z
M 3116 1747 
Q 3116 2381 2855 2742 
Q 2594 3103 2138 3103 
Q 1681 3103 1420 2742 
Q 1159 2381 1159 1747 
Q 1159 1113 1420 752 
Q 1681 391 2138 391 
Q 2594 391 2855 752 
Q 3116 1113 3116 1747 
z
" transform="scale(0.015625)"/>
       <path id="DejaVuSans-65" d="M 3597 1894 
L 3597 1613 
L 953 1613 
Q 991 1019 1311 708 
Q 1631 397 2203 397 
Q 2534 397 2845 478 
Q 3156 559 3463 722 
L 3463 178 
Q 3153 47 2828 -22 
Q 2503 -91 2169 -91 
Q 1331 -91 842 396 
Q 353 884 353 1716 
Q 353 2575 817 3079 
Q 1281 3584 2069 3584 
Q 2775 3584 3186 3129 
Q 3597 2675 3597 1894 
z
M 3022 2063 
Q 3016 2534 2758 2815 
Q 2500 3097 2075 3097 
Q 1594 3097 1305 2825 
Q 1016 2553 972 2059 
L 3022 2063 
z
" transform="scale(0.015625)"/>
       <path id="DejaVuSans-64" d="M 2906 2969 
L 2906 4863 
L 3481 4863 
L 3481 0 
L 2906 0 
L 2906 525 
Q 2725 213 2448 61 
Q 2172 -91 1784 -91 
Q 1150 -91 751 415 
Q 353 922 353 1747 
Q 353 2572 751 3078 
Q 1150 3584 1784 3584 
Q 2172 3584 2448 3432 
Q 2725 3281 2906 2969 
z
M 947 1747 
Q 947 1113 1208 752 
Q 1469 391 1925 391 
Q 2381 391 2643 752 
Q 2906 1113 2906 1747 
Q 2906 2381 2643 2742 
Q 2381 3103 1925 3103 
Q 1469 3103 1208 2742 
Q 947 2381 947 1747 
z
" transform="scale(0.015625)"/>
      </defs>
      <use xlink:href="#DejaVuSans-47"/>
      <use xlink:href="#DejaVuSans-6f" x="77.490234"/>
      <use xlink:href="#DejaVuSans-73" x="138.671875"/>
      <use xlink:href="#DejaVuSans-73" x="190.771484"/>
      <use xlink:href="#DejaVuSans-69" x="242.871094"/>
      <use xlink:href="#DejaVuSans-70" x="270.654297"/>
      <use xlink:href="#DejaVuSans-20" x="334.130859"/>
      <use xlink:href="#DejaVuSans-70" x="365.917969"/>
      <use xlink:href="#DejaVuSans-72" x="429.394531"/>
      <use xlink:href="#DejaVuSans-65" x="468.257812"/>
      <use xlink:href="#DejaVuSans-64" x="529.78125"/>
      <use xlink:href="#DejaVuSans-69" x="593.257812"/>
      <use xlink:href="#DejaVuSans-63" x="621.041016"/>
      <use xlink:href="#DejaVuSans-74" x="676.021484"/>
      <use xlink:href="#DejaVuSans-69" x="715.230469"/>
      <use xlink:href="#DejaVuSans-6f" x="743.013672"/>
      <use xlink:href="#DejaVuSans-6e" x="804.195312"/>
      <use xlink:href="#DejaVuSans-73" x="867.574219"/>
     </g>
    </g>
    <g id="line2d_19">
     <path d="M 1013.90625 146.134687 
L 1023.90625 146.134687 
L 1033.90625 146.134687 
" style="fill: none; stroke: #da70d6; stroke-linecap: square"/>
    </g>
    <g id="text_16">
     <!-- Centralized predictions -->
     <g transform="translate(1041.90625 149.634687) scale(0.1 -0.1)">
      <defs>
       <path id="DejaVuSans-43" d="M 4122 4306 
L 4122 3641 
Q 3803 3938 3442 4084 
Q 3081 4231 2675 4231 
Q 1875 4231 1450 3742 
Q 1025 3253 1025 2328 
Q 1025 1406 1450 917 
Q 1875 428 2675 428 
Q 3081 428 3442 575 
Q 3803 722 4122 1019 
L 4122 359 
Q 3791 134 3420 21 
Q 3050 -91 2638 -91 
Q 1578 -91 968 557 
Q 359 1206 359 2328 
Q 359 3453 968 4101 
Q 1578 4750 2638 4750 
Q 3056 4750 3426 4639 
Q 3797 4528 4122 4306 
z
" transform="scale(0.015625)"/>
       <path id="DejaVuSans-61" d="M 2194 1759 
Q 1497 1759 1228 1600 
Q 959 1441 959 1056 
Q 959 750 1161 570 
Q 1363 391 1709 391 
Q 2188 391 2477 730 
Q 2766 1069 2766 1631 
L 2766 1759 
L 2194 1759 
z
M 3341 1997 
L 3341 0 
L 2766 0 
L 2766 531 
Q 2569 213 2275 61 
Q 1981 -91 1556 -91 
Q 1019 -91 701 211 
Q 384 513 384 1019 
Q 384 1609 779 1909 
Q 1175 2209 1959 2209 
L 2766 2209 
L 2766 2266 
Q 2766 2663 2505 2880 
Q 2244 3097 1772 3097 
Q 1472 3097 1187 3025 
Q 903 2953 641 2809 
L 641 3341 
Q 956 3463 1253 3523 
Q 1550 3584 1831 3584 
Q 2591 3584 2966 3190 
Q 3341 2797 3341 1997 
z
" transform="scale(0.015625)"/>
       <path id="DejaVuSans-6c" d="M 603 4863 
L 1178 4863 
L 1178 0 
L 603 0 
L 603 4863 
z
" transform="scale(0.015625)"/>
       <path id="DejaVuSans-7a" d="M 353 3500 
L 3084 3500 
L 3084 2975 
L 922 459 
L 3084 459 
L 3084 0 
L 275 0 
L 275 525 
L 2438 3041 
L 353 3041 
L 353 3500 
z
" transform="scale(0.015625)"/>
      </defs>
      <use xlink:href="#DejaVuSans-43"/>
      <use xlink:href="#DejaVuSans-65" x="69.824219"/>
      <use xlink:href="#DejaVuSans-6e" x="131.347656"/>
      <use xlink:href="#DejaVuSans-74" x="194.726562"/>
      <use xlink:href="#DejaVuSans-72" x="233.935547"/>
      <use xlink:href="#DejaVuSans-61" x="275.048828"/>
      <use xlink:href="#DejaVuSans-6c" x="336.328125"/>
      <use xlink:href="#DejaVuSans-69" x="364.111328"/>
      <use xlink:href="#DejaVuSans-7a" x="391.894531"/>
      <use xlink:href="#DejaVuSans-65" x="444.384766"/>
      <use xlink:href="#DejaVuSans-64" x="505.908203"/>
      <use xlink:href="#DejaVuSans-20" x="569.384766"/>
      <use xlink:href="#DejaVuSans-70" x="601.171875"/>
      <use xlink:href="#DejaVuSans-72" x="664.648438"/>
      <use xlink:href="#DejaVuSans-65" x="703.511719"/>
      <use xlink:href="#DejaVuSans-64" x="765.035156"/>
      <use xlink:href="#DejaVuSans-69" x="828.511719"/>
      <use xlink:href="#DejaVuSans-63" x="856.294922"/>
      <use xlink:href="#DejaVuSans-74" x="911.275391"/>
      <use xlink:href="#DejaVuSans-69" x="950.484375"/>
      <use xlink:href="#DejaVuSans-6f" x="978.267578"/>
      <use xlink:href="#DejaVuSans-6e" x="1039.449219"/>
      <use xlink:href="#DejaVuSans-73" x="1102.828125"/>
     </g>
    </g>
    <g id="line2d_20">
     <path d="M 1013.90625 160.812812 
L 1023.90625 160.812812 
L 1033.90625 160.812812 
" style="fill: none; stroke: #8fbc8f; stroke-linecap: square"/>
    </g>
    <g id="text_17">
     <!-- Single predictions -->
     <g transform="translate(1041.90625 164.312812) scale(0.1 -0.1)">
      <defs>
       <path id="DejaVuSans-53" d="M 3425 4513 
L 3425 3897 
Q 3066 4069 2747 4153 
Q 2428 4238 2131 4238 
Q 1616 4238 1336 4038 
Q 1056 3838 1056 3469 
Q 1056 3159 1242 3001 
Q 1428 2844 1947 2747 
L 2328 2669 
Q 3034 2534 3370 2195 
Q 3706 1856 3706 1288 
Q 3706 609 3251 259 
Q 2797 -91 1919 -91 
Q 1588 -91 1214 -16 
Q 841 59 441 206 
L 441 856 
Q 825 641 1194 531 
Q 1563 422 1919 422 
Q 2459 422 2753 634 
Q 3047 847 3047 1241 
Q 3047 1584 2836 1778 
Q 2625 1972 2144 2069 
L 1759 2144 
Q 1053 2284 737 2584 
Q 422 2884 422 3419 
Q 422 4038 858 4394 
Q 1294 4750 2059 4750 
Q 2388 4750 2728 4690 
Q 3069 4631 3425 4513 
z
" transform="scale(0.015625)"/>
       <path id="DejaVuSans-67" d="M 2906 1791 
Q 2906 2416 2648 2759 
Q 2391 3103 1925 3103 
Q 1463 3103 1205 2759 
Q 947 2416 947 1791 
Q 947 1169 1205 825 
Q 1463 481 1925 481 
Q 2391 481 2648 825 
Q 2906 1169 2906 1791 
z
M 3481 434 
Q 3481 -459 3084 -895 
Q 2688 -1331 1869 -1331 
Q 1566 -1331 1297 -1286 
Q 1028 -1241 775 -1147 
L 775 -588 
Q 1028 -725 1275 -790 
Q 1522 -856 1778 -856 
Q 2344 -856 2625 -561 
Q 2906 -266 2906 331 
L 2906 616 
Q 2728 306 2450 153 
Q 2172 0 1784 0 
Q 1141 0 747 490 
Q 353 981 353 1791 
Q 353 2603 747 3093 
Q 1141 3584 1784 3584 
Q 2172 3584 2450 3431 
Q 2728 3278 2906 2969 
L 2906 3500 
L 3481 3500 
L 3481 434 
z
" transform="scale(0.015625)"/>
      </defs>
      <use xlink:href="#DejaVuSans-53"/>
      <use xlink:href="#DejaVuSans-69" x="63.476562"/>
      <use xlink:href="#DejaVuSans-6e" x="91.259766"/>
      <use xlink:href="#DejaVuSans-67" x="154.638672"/>
      <use xlink:href="#DejaVuSans-6c" x="218.115234"/>
      <use xlink:href="#DejaVuSans-65" x="245.898438"/>
      <use xlink:href="#DejaVuSans-20" x="307.421875"/>
      <use xlink:href="#DejaVuSans-70" x="339.208984"/>
      <use xlink:href="#DejaVuSans-72" x="402.685547"/>
      <use xlink:href="#DejaVuSans-65" x="441.548828"/>
      <use xlink:href="#DejaVuSans-64" x="503.072266"/>
      <use xlink:href="#DejaVuSans-69" x="566.548828"/>
      <use xlink:href="#DejaVuSans-63" x="594.332031"/>
      <use xlink:href="#DejaVuSans-74" x="649.3125"/>
      <use xlink:href="#DejaVuSans-69" x="688.521484"/>
      <use xlink:href="#DejaVuSans-6f" x="716.304688"/>
      <use xlink:href="#DejaVuSans-6e" x="777.486328"/>
      <use xlink:href="#DejaVuSans-73" x="840.865234"/>
     </g>
    </g>
   </g>
  </g>
 </g>
 <defs>
  <clipPath id="p916bf799b7">
   <rect x="162" y="103.68" width="1004.4" height="665.28"/>
  </clipPath>
 </defs>
</svg>
