<?xml version="1.0" encoding="utf-8" standalone="no"?>
<!DOCTYPE svg PUBLIC "-//W3C//DTD SVG 1.1//EN"
  "http://www.w3.org/Graphics/SVG/1.1/DTD/svg11.dtd">
<svg xmlns:xlink="http://www.w3.org/1999/xlink" width="1296pt" height="864pt" viewBox="0 0 1296 864" xmlns="http://www.w3.org/2000/svg" version="1.1">
 <metadata>
  <rdf:RDF xmlns:dc="http://purl.org/dc/elements/1.1/" xmlns:cc="http://creativecommons.org/ns#" xmlns:rdf="http://www.w3.org/1999/02/22-rdf-syntax-ns#">
   <cc:Work>
    <dc:type rdf:resource="http://purl.org/dc/dcmitype/StillImage"/>
    <dc:date>2023-12-23T14:20:21.010834</dc:date>
    <dc:format>image/svg+xml</dc:format>
    <dc:creator>
     <cc:Agent>
      <dc:title>Matplotlib v3.8.0, https://matplotlib.org/</dc:title>
     </cc:Agent>
    </dc:creator>
   </cc:Work>
  </rdf:RDF>
 </metadata>
 <defs>
  <style type="text/css">*{stroke-linejoin: round; stroke-linecap: butt}</style>
 </defs>
 <g id="figure_1">
  <g id="patch_1">
   <path d="M 0 864 
L 1296 864 
L 1296 0 
L 0 0 
z
" style="fill: #ffffff"/>
  </g>
  <g id="axes_1">
   <g id="patch_2">
    <path d="M 162 768.96 
L 1166.4 768.96 
L 1166.4 103.68 
L 162 103.68 
z
" style="fill: #ffffff"/>
   </g>
   <g id="matplotlib.axis_1">
    <g id="xtick_1">
     <g id="line2d_1">
      <defs>
       <path id="m5e33c8b015" d="M 0 0 
L 0 3.5 
" style="stroke: #000000; stroke-width: 0.8"/>
      </defs>
      <g>
       <use xlink:href="#m5e33c8b015" x="207.654545" y="768.96" style="stroke: #000000; stroke-width: 0.8"/>
      </g>
     </g>
     <g id="text_1">
      <!-- 0 -->
      <g transform="translate(204.473295 783.558437) scale(0.1 -0.1)">
       <defs>
        <path id="DejaVuSans-30" d="M 2034 4250 
Q 1547 4250 1301 3770 
Q 1056 3291 1056 2328 
Q 1056 1369 1301 889 
Q 1547 409 2034 409 
Q 2525 409 2770 889 
Q 3016 1369 3016 2328 
Q 3016 3291 2770 3770 
Q 2525 4250 2034 4250 
z
M 2034 4750 
Q 2819 4750 3233 4129 
Q 3647 3509 3647 2328 
Q 3647 1150 3233 529 
Q 2819 -91 2034 -91 
Q 1250 -91 836 529 
Q 422 1150 422 2328 
Q 422 3509 836 4129 
Q 1250 4750 2034 4750 
z
" transform="scale(0.015625)"/>
       </defs>
       <use xlink:href="#DejaVuSans-30"/>
      </g>
     </g>
    </g>
    <g id="xtick_2">
     <g id="line2d_2">
      <g>
       <use xlink:href="#m5e33c8b015" x="390.638696" y="768.96" style="stroke: #000000; stroke-width: 0.8"/>
      </g>
     </g>
     <g id="text_2">
      <!-- 100 -->
      <g transform="translate(381.094946 783.558437) scale(0.1 -0.1)">
       <defs>
        <path id="DejaVuSans-31" d="M 794 531 
L 1825 531 
L 1825 4091 
L 703 3866 
L 703 4441 
L 1819 4666 
L 2450 4666 
L 2450 531 
L 3481 531 
L 3481 0 
L 794 0 
L 794 531 
z
" transform="scale(0.015625)"/>
       </defs>
       <use xlink:href="#DejaVuSans-31"/>
       <use xlink:href="#DejaVuSans-30" x="63.623047"/>
       <use xlink:href="#DejaVuSans-30" x="127.246094"/>
      </g>
     </g>
    </g>
    <g id="xtick_3">
     <g id="line2d_3">
      <g>
       <use xlink:href="#m5e33c8b015" x="573.622846" y="768.96" style="stroke: #000000; stroke-width: 0.8"/>
      </g>
     </g>
     <g id="text_3">
      <!-- 200 -->
      <g transform="translate(564.079096 783.558437) scale(0.1 -0.1)">
       <defs>
        <path id="DejaVuSans-32" d="M 1228 531 
L 3431 531 
L 3431 0 
L 469 0 
L 469 531 
Q 828 903 1448 1529 
Q 2069 2156 2228 2338 
Q 2531 2678 2651 2914 
Q 2772 3150 2772 3378 
Q 2772 3750 2511 3984 
Q 2250 4219 1831 4219 
Q 1534 4219 1204 4116 
Q 875 4013 500 3803 
L 500 4441 
Q 881 4594 1212 4672 
Q 1544 4750 1819 4750 
Q 2544 4750 2975 4387 
Q 3406 4025 3406 3419 
Q 3406 3131 3298 2873 
Q 3191 2616 2906 2266 
Q 2828 2175 2409 1742 
Q 1991 1309 1228 531 
z
" transform="scale(0.015625)"/>
       </defs>
       <use xlink:href="#DejaVuSans-32"/>
       <use xlink:href="#DejaVuSans-30" x="63.623047"/>
       <use xlink:href="#DejaVuSans-30" x="127.246094"/>
      </g>
     </g>
    </g>
    <g id="xtick_4">
     <g id="line2d_4">
      <g>
       <use xlink:href="#m5e33c8b015" x="756.606996" y="768.96" style="stroke: #000000; stroke-width: 0.8"/>
      </g>
     </g>
     <g id="text_4">
      <!-- 300 -->
      <g transform="translate(747.063246 783.558437) scale(0.1 -0.1)">
       <defs>
        <path id="DejaVuSans-33" d="M 2597 2516 
Q 3050 2419 3304 2112 
Q 3559 1806 3559 1356 
Q 3559 666 3084 287 
Q 2609 -91 1734 -91 
Q 1441 -91 1130 -33 
Q 819 25 488 141 
L 488 750 
Q 750 597 1062 519 
Q 1375 441 1716 441 
Q 2309 441 2620 675 
Q 2931 909 2931 1356 
Q 2931 1769 2642 2001 
Q 2353 2234 1838 2234 
L 1294 2234 
L 1294 2753 
L 1863 2753 
Q 2328 2753 2575 2939 
Q 2822 3125 2822 3475 
Q 2822 3834 2567 4026 
Q 2313 4219 1838 4219 
Q 1578 4219 1281 4162 
Q 984 4106 628 3988 
L 628 4550 
Q 988 4650 1302 4700 
Q 1616 4750 1894 4750 
Q 2613 4750 3031 4423 
Q 3450 4097 3450 3541 
Q 3450 3153 3228 2886 
Q 3006 2619 2597 2516 
z
" transform="scale(0.015625)"/>
       </defs>
       <use xlink:href="#DejaVuSans-33"/>
       <use xlink:href="#DejaVuSans-30" x="63.623047"/>
       <use xlink:href="#DejaVuSans-30" x="127.246094"/>
      </g>
     </g>
    </g>
    <g id="xtick_5">
     <g id="line2d_5">
      <g>
       <use xlink:href="#m5e33c8b015" x="939.591146" y="768.96" style="stroke: #000000; stroke-width: 0.8"/>
      </g>
     </g>
     <g id="text_5">
      <!-- 400 -->
      <g transform="translate(930.047396 783.558437) scale(0.1 -0.1)">
       <defs>
        <path id="DejaVuSans-34" d="M 2419 4116 
L 825 1625 
L 2419 1625 
L 2419 4116 
z
M 2253 4666 
L 3047 4666 
L 3047 1625 
L 3713 1625 
L 3713 1100 
L 3047 1100 
L 3047 0 
L 2419 0 
L 2419 1100 
L 313 1100 
L 313 1709 
L 2253 4666 
z
" transform="scale(0.015625)"/>
       </defs>
       <use xlink:href="#DejaVuSans-34"/>
       <use xlink:href="#DejaVuSans-30" x="63.623047"/>
       <use xlink:href="#DejaVuSans-30" x="127.246094"/>
      </g>
     </g>
    </g>
    <g id="xtick_6">
     <g id="line2d_6">
      <g>
       <use xlink:href="#m5e33c8b015" x="1122.575296" y="768.96" style="stroke: #000000; stroke-width: 0.8"/>
      </g>
     </g>
     <g id="text_6">
      <!-- 500 -->
      <g transform="translate(1113.031546 783.558437) scale(0.1 -0.1)">
       <defs>
        <path id="DejaVuSans-35" d="M 691 4666 
L 3169 4666 
L 3169 4134 
L 1269 4134 
L 1269 2991 
Q 1406 3038 1543 3061 
Q 1681 3084 1819 3084 
Q 2600 3084 3056 2656 
Q 3513 2228 3513 1497 
Q 3513 744 3044 326 
Q 2575 -91 1722 -91 
Q 1428 -91 1123 -41 
Q 819 9 494 109 
L 494 744 
Q 775 591 1075 516 
Q 1375 441 1709 441 
Q 2250 441 2565 725 
Q 2881 1009 2881 1497 
Q 2881 1984 2565 2268 
Q 2250 2553 1709 2553 
Q 1456 2553 1204 2497 
Q 953 2441 691 2322 
L 691 4666 
z
" transform="scale(0.015625)"/>
       </defs>
       <use xlink:href="#DejaVuSans-35"/>
       <use xlink:href="#DejaVuSans-30" x="63.623047"/>
       <use xlink:href="#DejaVuSans-30" x="127.246094"/>
      </g>
     </g>
    </g>
   </g>
   <g id="matplotlib.axis_2">
    <g id="ytick_1">
     <g id="line2d_7">
      <defs>
       <path id="m95e3d1a0ce" d="M 0 0 
L -3.5 0 
" style="stroke: #000000; stroke-width: 0.8"/>
      </defs>
      <g>
       <use xlink:href="#m95e3d1a0ce" x="162" y="738.72" style="stroke: #000000; stroke-width: 0.8"/>
      </g>
     </g>
     <g id="text_7">
      <!-- 0 -->
      <g transform="translate(148.6375 742.519219) scale(0.1 -0.1)">
       <use xlink:href="#DejaVuSans-30"/>
      </g>
     </g>
    </g>
    <g id="ytick_2">
     <g id="line2d_8">
      <g>
       <use xlink:href="#m95e3d1a0ce" x="162" y="595.523846" style="stroke: #000000; stroke-width: 0.8"/>
      </g>
     </g>
     <g id="text_8">
      <!-- 20 -->
      <g transform="translate(142.275 599.323065) scale(0.1 -0.1)">
       <use xlink:href="#DejaVuSans-32"/>
       <use xlink:href="#DejaVuSans-30" x="63.623047"/>
      </g>
     </g>
    </g>
    <g id="ytick_3">
     <g id="line2d_9">
      <g>
       <use xlink:href="#m95e3d1a0ce" x="162" y="452.327692" style="stroke: #000000; stroke-width: 0.8"/>
      </g>
     </g>
     <g id="text_9">
      <!-- 40 -->
      <g transform="translate(142.275 456.12691) scale(0.1 -0.1)">
       <use xlink:href="#DejaVuSans-34"/>
       <use xlink:href="#DejaVuSans-30" x="63.623047"/>
      </g>
     </g>
    </g>
    <g id="ytick_4">
     <g id="line2d_10">
      <g>
       <use xlink:href="#m95e3d1a0ce" x="162" y="309.131538" style="stroke: #000000; stroke-width: 0.8"/>
      </g>
     </g>
     <g id="text_10">
      <!-- 60 -->
      <g transform="translate(142.275 312.930756) scale(0.1 -0.1)">
       <defs>
        <path id="DejaVuSans-36" d="M 2113 2584 
Q 1688 2584 1439 2293 
Q 1191 2003 1191 1497 
Q 1191 994 1439 701 
Q 1688 409 2113 409 
Q 2538 409 2786 701 
Q 3034 994 3034 1497 
Q 3034 2003 2786 2293 
Q 2538 2584 2113 2584 
z
M 3366 4563 
L 3366 3988 
Q 3128 4100 2886 4159 
Q 2644 4219 2406 4219 
Q 1781 4219 1451 3797 
Q 1122 3375 1075 2522 
Q 1259 2794 1537 2939 
Q 1816 3084 2150 3084 
Q 2853 3084 3261 2657 
Q 3669 2231 3669 1497 
Q 3669 778 3244 343 
Q 2819 -91 2113 -91 
Q 1303 -91 875 529 
Q 447 1150 447 2328 
Q 447 3434 972 4092 
Q 1497 4750 2381 4750 
Q 2619 4750 2861 4703 
Q 3103 4656 3366 4563 
z
" transform="scale(0.015625)"/>
       </defs>
       <use xlink:href="#DejaVuSans-36"/>
       <use xlink:href="#DejaVuSans-30" x="63.623047"/>
      </g>
     </g>
    </g>
    <g id="ytick_5">
     <g id="line2d_11">
      <g>
       <use xlink:href="#m95e3d1a0ce" x="162" y="165.935383" style="stroke: #000000; stroke-width: 0.8"/>
      </g>
     </g>
     <g id="text_11">
      <!-- 80 -->
      <g transform="translate(142.275 169.734602) scale(0.1 -0.1)">
       <defs>
        <path id="DejaVuSans-38" d="M 2034 2216 
Q 1584 2216 1326 1975 
Q 1069 1734 1069 1313 
Q 1069 891 1326 650 
Q 1584 409 2034 409 
Q 2484 409 2743 651 
Q 3003 894 3003 1313 
Q 3003 1734 2745 1975 
Q 2488 2216 2034 2216 
z
M 1403 2484 
Q 997 2584 770 2862 
Q 544 3141 544 3541 
Q 544 4100 942 4425 
Q 1341 4750 2034 4750 
Q 2731 4750 3128 4425 
Q 3525 4100 3525 3541 
Q 3525 3141 3298 2862 
Q 3072 2584 2669 2484 
Q 3125 2378 3379 2068 
Q 3634 1759 3634 1313 
Q 3634 634 3220 271 
Q 2806 -91 2034 -91 
Q 1263 -91 848 271 
Q 434 634 434 1313 
Q 434 1759 690 2068 
Q 947 2378 1403 2484 
z
M 1172 3481 
Q 1172 3119 1398 2916 
Q 1625 2713 2034 2713 
Q 2441 2713 2670 2916 
Q 2900 3119 2900 3481 
Q 2900 3844 2670 4047 
Q 2441 4250 2034 4250 
Q 1625 4250 1398 4047 
Q 1172 3844 1172 3481 
z
" transform="scale(0.015625)"/>
       </defs>
       <use xlink:href="#DejaVuSans-38"/>
       <use xlink:href="#DejaVuSans-30" x="63.623047"/>
      </g>
     </g>
    </g>
   </g>
   <g id="line2d_12">
    <path d="M 207.654545 645.6425 
L 209.484387 695.761154 
L 211.314228 631.322884 
L 213.14407 710.080769 
L 214.973911 659.962115 
L 216.803753 738.72 
L 218.633594 516.765961 
L 220.463436 688.601346 
L 222.293277 717.240577 
L 224.123119 667.121923 
L 225.95296 609.843461 
L 227.782802 438.008076 
L 229.612643 631.322884 
L 231.442485 538.245384 
L 233.272326 638.482692 
L 235.102168 545.405192 
L 236.932009 559.724807 
L 238.761851 402.209038 
L 240.591692 531.085576 
L 242.421534 423.688461 
L 244.251375 323.451153 
L 246.081217 201.734422 
L 262.54979 201.734422 
L 264.379632 244.693268 
L 266.209473 301.97173 
L 268.039315 523.925769 
L 269.869156 409.368845 
L 271.698998 201.734422 
L 273.528839 459.487499 
L 275.358681 201.734422 
L 277.188522 366.409999 
L 279.018364 366.409999 
L 282.678047 609.843461 
L 284.507889 316.291345 
L 286.33773 466.647307 
L 288.167572 287.652114 
L 289.997413 201.734422 
L 291.827255 352.090384 
L 293.657096 430.848269 
L 295.486938 201.734422 
L 299.146621 201.734422 
L 300.976462 480.966923 
L 302.806304 201.734422 
L 310.12567 201.734422 
L 311.955511 552.565 
L 313.785353 223.213845 
L 315.615194 452.327692 
L 317.445036 373.569807 
L 319.274877 201.734422 
L 324.764402 201.734422 
L 326.594243 423.688461 
L 328.424085 445.167884 
L 330.253926 430.848269 
L 332.083768 359.250192 
L 333.913609 316.291345 
L 335.743451 509.606153 
L 337.573292 201.734422 
L 339.403134 566.884615 
L 341.232975 259.012884 
L 343.062817 380.729615 
L 344.892658 552.565 
L 346.7225 502.446346 
L 348.552341 495.286538 
L 352.212024 309.131538 
L 354.041866 409.368845 
L 355.871707 473.807115 
L 357.701549 473.807115 
L 359.53139 667.121923 
L 361.361232 516.765961 
L 363.191073 466.647307 
L 365.020915 201.734422 
L 366.850756 201.734422 
L 368.680598 387.889422 
L 370.510439 609.843461 
L 372.340281 617.003269 
L 374.170122 574.044423 
L 375.999964 201.734422 
L 377.829805 445.167884 
L 379.659647 495.286538 
L 381.489488 523.925769 
L 383.31933 659.962115 
L 385.149171 581.20423 
L 386.979013 466.647307 
L 388.808854 581.20423 
L 390.638696 523.925769 
L 392.468537 480.966923 
L 394.298379 566.884615 
L 396.12822 595.523846 
L 397.958062 538.245384 
L 399.787903 617.003269 
L 401.617745 416.528653 
L 403.447586 588.364038 
L 405.277428 710.080769 
L 407.107269 495.286538 
L 408.937111 523.925769 
L 410.766952 667.121923 
L 412.596794 516.765961 
L 414.426635 688.601346 
L 416.256477 652.802308 
L 418.086318 702.920961 
L 419.91616 624.163077 
L 421.746001 566.884615 
L 423.575843 659.962115 
L 425.405684 688.601346 
L 427.235526 495.286538 
L 429.065367 337.770768 
L 430.895209 266.172691 
L 432.72505 516.765961 
L 434.554892 416.528653 
L 436.384733 502.446346 
L 438.214575 509.606153 
L 440.044416 566.884615 
L 441.874258 581.20423 
L 443.704099 552.565 
L 445.533941 645.6425 
L 447.363782 531.085576 
L 449.193624 667.121923 
L 451.023465 201.734422 
L 452.853307 617.003269 
L 454.683148 531.085576 
L 456.51299 617.003269 
L 458.342831 688.601346 
L 460.172673 387.889422 
L 462.002514 201.734422 
L 467.492039 201.734422 
L 469.32188 480.966923 
L 471.151722 523.925769 
L 472.981563 531.085576 
L 474.811405 459.487499 
L 478.471088 223.213845 
L 480.300929 380.729615 
L 482.130771 667.121923 
L 485.790454 538.245384 
L 487.620295 702.920961 
L 489.450137 674.281731 
L 491.279978 595.523846 
L 493.10982 609.843461 
L 494.939661 201.734422 
L 496.769503 595.523846 
L 498.599344 344.930576 
L 500.429186 502.446346 
L 502.259027 266.172691 
L 504.088869 523.925769 
L 505.91871 538.245384 
L 507.748552 595.523846 
L 509.578393 201.734422 
L 511.408235 538.245384 
L 513.238076 466.647307 
L 515.067918 552.565 
L 516.897759 438.008076 
L 518.727601 466.647307 
L 520.557442 645.6425 
L 522.387284 602.683654 
L 524.217125 395.04923 
L 526.046967 667.121923 
L 527.876808 516.765961 
L 529.70665 738.72 
L 531.536491 631.322884 
L 533.366333 309.131538 
L 535.196174 395.04923 
L 537.026016 545.405192 
L 538.855857 710.080769 
L 540.685699 430.848269 
L 542.51554 538.245384 
L 544.345382 738.72 
L 546.175223 738.72 
L 548.005065 645.6425 
L 549.834906 717.240577 
L 551.664748 617.003269 
L 553.494589 702.920961 
L 555.324431 624.163077 
L 557.154272 688.601346 
L 558.984114 667.121923 
L 560.813955 738.72 
L 562.643797 674.281731 
L 564.473638 702.920961 
L 566.30348 674.281731 
L 568.133321 659.962115 
L 569.963163 702.920961 
L 571.793004 695.761154 
L 573.622846 681.441538 
L 575.452687 702.920961 
L 577.282529 645.6425 
L 579.11237 688.601346 
L 580.942212 674.281731 
L 582.772053 509.606153 
L 584.601895 695.761154 
L 586.431736 659.962115 
L 588.261578 681.441538 
L 590.091419 667.121923 
L 591.921261 574.044423 
L 593.751102 287.652114 
L 595.580944 301.97173 
L 597.410785 201.734422 
L 599.240627 523.925769 
L 601.070468 237.533461 
L 602.90031 330.610961 
L 604.730151 201.734422 
L 606.559993 201.734422 
L 608.389834 538.245384 
L 610.219676 201.734422 
L 613.879359 201.734422 
L 615.7092 323.451153 
L 617.539042 559.724807 
L 619.368883 201.734422 
L 621.198725 409.368845 
L 623.028566 423.688461 
L 624.858408 402.209038 
L 626.688249 445.167884 
L 628.518091 201.734422 
L 630.347932 201.734422 
L 632.177774 287.652114 
L 634.007615 280.492307 
L 635.837457 667.121923 
L 637.667298 523.925769 
L 639.49714 201.734422 
L 644.986664 201.734422 
L 646.816506 330.610961 
L 648.646347 416.528653 
L 650.476189 509.606153 
L 652.30603 251.853076 
L 654.135872 273.332499 
L 655.965713 201.734422 
L 657.795555 237.533461 
L 659.625396 423.688461 
L 661.455238 216.054037 
L 663.285079 738.72 
L 665.114921 366.409999 
L 666.944762 416.528653 
L 668.774604 488.12673 
L 670.604445 201.734422 
L 672.434287 430.848269 
L 674.264128 516.765961 
L 676.09397 316.291345 
L 677.923811 201.734422 
L 679.753653 416.528653 
L 681.583494 445.167884 
L 683.413336 617.003269 
L 685.243177 452.327692 
L 687.073019 738.72 
L 688.90286 638.482692 
L 690.732702 459.487499 
L 692.562543 366.409999 
L 694.392385 409.368845 
L 696.222226 602.683654 
L 698.052068 516.765961 
L 699.881909 588.364038 
L 701.711751 488.12673 
L 703.541592 631.322884 
L 705.371434 645.6425 
L 707.201275 588.364038 
L 709.031117 566.884615 
L 710.860958 509.606153 
L 712.6908 667.121923 
L 714.520641 588.364038 
L 718.180324 674.281731 
L 721.840007 602.683654 
L 723.669849 609.843461 
L 725.49969 652.802308 
L 727.329532 609.843461 
L 729.159373 602.683654 
L 730.989215 724.400385 
L 732.819056 738.72 
L 734.648898 688.601346 
L 736.478739 717.240577 
L 738.308581 717.240577 
L 740.138422 617.003269 
L 741.968264 638.482692 
L 743.798105 738.72 
L 745.627947 552.565 
L 747.457788 710.080769 
L 749.28763 731.560192 
L 751.117471 724.400385 
L 752.947313 702.920961 
L 754.777154 559.724807 
L 756.606996 631.322884 
L 758.436837 566.884615 
L 760.266679 488.12673 
L 762.09652 538.245384 
L 763.926362 516.765961 
L 765.756203 380.729615 
L 767.586045 480.966923 
L 769.415886 359.250192 
L 771.245728 516.765961 
L 773.075569 523.925769 
L 774.905411 402.209038 
L 776.735252 201.734422 
L 778.565094 301.97173 
L 780.394935 201.734422 
L 782.224777 216.054037 
L 784.054618 452.327692 
L 785.88446 201.734422 
L 787.714301 309.131538 
L 789.544143 316.291345 
L 791.373984 294.811922 
L 793.203826 201.734422 
L 795.033667 531.085576 
L 796.863509 201.734422 
L 798.69335 387.889422 
L 800.523192 344.930576 
L 802.353033 201.734422 
L 804.182875 330.610961 
L 806.012716 201.734422 
L 807.842558 309.131538 
L 809.672399 201.734422 
L 811.502241 201.734422 
L 813.332082 230.373653 
L 815.161924 366.409999 
L 816.991765 201.734422 
L 822.48129 201.734422 
L 824.311131 373.569807 
L 826.140973 430.848269 
L 827.970814 409.368845 
L 829.800656 430.848269 
L 831.630497 201.734422 
L 833.460339 416.528653 
L 835.29018 609.843461 
L 837.120022 473.807115 
L 838.949863 373.569807 
L 840.779705 595.523846 
L 842.609546 316.291345 
L 844.439388 488.12673 
L 846.269229 309.131538 
L 848.099071 201.734422 
L 849.928912 201.734422 
L 851.758754 516.765961 
L 853.588595 251.853076 
L 855.418437 395.04923 
L 857.248278 473.807115 
L 859.07812 409.368845 
L 860.907961 495.286538 
L 862.737803 223.213845 
L 864.567644 430.848269 
L 866.397486 595.523846 
L 868.227327 430.848269 
L 870.057169 387.889422 
L 871.88701 552.565 
L 873.716852 602.683654 
L 875.546693 552.565 
L 877.376535 509.606153 
L 879.206376 566.884615 
L 881.036218 595.523846 
L 882.866059 538.245384 
L 884.695901 395.04923 
L 886.525742 652.802308 
L 888.355584 531.085576 
L 890.185425 595.523846 
L 892.015267 223.213845 
L 893.845108 717.240577 
L 895.67495 731.560192 
L 897.504791 545.405192 
L 899.334633 509.606153 
L 901.164474 681.441538 
L 902.994316 731.560192 
L 904.824157 617.003269 
L 906.653999 602.683654 
L 908.48384 717.240577 
L 910.313682 659.962115 
L 912.143523 652.802308 
L 913.973365 538.245384 
L 915.803206 574.044423 
L 917.633048 738.72 
L 919.462889 695.761154 
L 921.292731 659.962115 
L 923.122572 473.807115 
L 924.952414 645.6425 
L 926.782255 645.6425 
L 928.612097 552.565 
L 930.441938 552.565 
L 932.27178 674.281731 
L 934.101621 581.20423 
L 935.931463 702.920961 
L 937.761304 724.400385 
L 939.591146 480.966923 
L 941.420987 516.765961 
L 943.250829 624.163077 
L 945.08067 380.729615 
L 946.910512 552.565 
L 948.740353 201.734422 
L 950.570195 445.167884 
L 952.400036 395.04923 
L 954.229878 373.569807 
L 956.059719 201.734422 
L 957.889561 301.97173 
L 959.719402 280.492307 
L 961.549244 201.734422 
L 963.379085 294.811922 
L 965.208927 201.734422 
L 972.528293 201.734422 
L 974.358134 330.610961 
L 976.187976 330.610961 
L 978.017817 201.734422 
L 979.847659 201.734422 
L 981.6775 681.441538 
L 983.507342 344.930576 
L 985.337183 409.368845 
L 987.167025 531.085576 
L 988.996866 416.528653 
L 990.826708 201.734422 
L 996.316232 201.734422 
L 998.146074 359.250192 
L 999.975915 208.89423 
L 1001.805757 588.364038 
L 1003.635598 330.610961 
L 1005.46544 380.729615 
L 1007.295281 201.734422 
L 1010.954964 552.565 
L 1012.784806 495.286538 
L 1014.614647 251.853076 
L 1016.444489 201.734422 
L 1018.27433 495.286538 
L 1020.104172 201.734422 
L 1021.934013 344.930576 
L 1023.763855 387.889422 
L 1025.593696 201.734422 
L 1029.253379 201.734422 
L 1031.083221 216.054037 
L 1032.913062 509.606153 
L 1034.742904 545.405192 
L 1036.572745 201.734422 
L 1038.402587 531.085576 
L 1040.232428 574.044423 
L 1042.06227 602.683654 
L 1043.892111 395.04923 
L 1045.721953 545.405192 
L 1047.551794 344.930576 
L 1049.381636 545.405192 
L 1051.211478 223.213845 
L 1053.041319 602.683654 
L 1054.871161 595.523846 
L 1056.701002 488.12673 
L 1058.530844 409.368845 
L 1060.360685 717.240577 
L 1062.190527 488.12673 
L 1064.020368 337.770768 
L 1065.85021 266.172691 
L 1069.509893 602.683654 
L 1071.339734 438.008076 
L 1073.169576 395.04923 
L 1074.999417 430.848269 
L 1076.829259 617.003269 
L 1078.6591 545.405192 
L 1080.488942 480.966923 
L 1082.318783 344.930576 
L 1084.148625 559.724807 
L 1085.978466 645.6425 
L 1087.808308 602.683654 
L 1089.638149 552.565 
L 1091.467991 452.327692 
L 1093.297832 488.12673 
L 1095.127674 559.724807 
L 1096.957515 201.734422 
L 1098.787357 452.327692 
L 1100.617198 330.610961 
L 1102.44704 502.446346 
L 1104.276881 488.12673 
L 1106.106723 624.163077 
L 1107.936564 538.245384 
L 1109.766406 531.085576 
L 1111.596247 438.008076 
L 1113.426089 545.405192 
L 1117.085772 344.930576 
L 1118.915613 588.364038 
L 1120.745455 473.807115 
L 1120.745455 473.807115 
" clip-path="url(#p9dbc371f2d)" style="fill: none; stroke: #4169e1; stroke-linecap: square"/>
   </g>
   <g id="line2d_13">
    <path d="M 207.654545 616.271294 
L 209.484387 658.546597 
L 211.314228 643.829544 
L 213.14407 613.841765 
L 214.973911 634.442614 
L 216.803753 651.284463 
L 218.633594 663.409553 
L 220.463436 654.902263 
L 222.293277 653.404152 
L 224.123119 633.06013 
L 225.95296 629.017511 
L 227.782802 623.417473 
L 229.612643 545.636174 
L 231.442485 529.931719 
L 233.272326 490.271362 
L 235.102168 543.459859 
L 236.932009 526.235887 
L 238.761851 502.200205 
L 240.591692 417.903018 
L 242.421534 243.513969 
L 244.251375 221.230958 
L 246.081217 226.646316 
L 247.911058 203.852998 
L 249.7409 216.486449 
L 251.570741 201.991323 
L 253.400583 198.553936 
L 255.230424 187.045323 
L 257.060266 136.216326 
L 258.890107 133.92 
L 260.719949 135.883823 
L 262.54979 143.20838 
L 264.379632 213.020821 
L 266.209473 240.906226 
L 268.039315 272.136703 
L 269.869156 332.634298 
L 271.698998 275.936145 
L 273.528839 199.15421 
L 275.358681 258.801813 
L 277.188522 183.91826 
L 279.018364 273.043697 
L 282.678047 349.716709 
L 284.507889 408.015839 
L 286.33773 300.839518 
L 288.167572 322.958408 
L 289.997413 260.060373 
L 291.827255 204.610483 
L 293.657096 304.85328 
L 295.486938 337.20204 
L 299.146621 229.334358 
L 300.976462 134.206781 
L 302.806304 242.161072 
L 304.636145 197.79443 
L 306.465987 226.957296 
L 308.295828 322.391291 
L 310.12567 290.275125 
L 311.955511 296.839848 
L 313.785353 374.116958 
L 315.615194 289.343304 
L 317.445036 325.818163 
L 319.274877 387.536873 
L 321.104719 282.940189 
L 322.93456 371.817929 
L 324.764402 354.464878 
L 326.594243 332.337111 
L 328.424085 377.312384 
L 330.253926 352.699644 
L 332.083768 344.347645 
L 333.913609 381.120129 
L 335.743451 360.052032 
L 337.573292 418.37536 
L 339.403134 375.171084 
L 341.232975 429.574141 
L 343.062817 437.856792 
L 344.892658 360.164969 
L 346.7225 451.405376 
L 348.552341 376.46668 
L 350.382183 416.682368 
L 352.212024 487.181008 
L 354.041866 470.849117 
L 355.871707 488.128451 
L 357.701549 487.958376 
L 359.53139 389.633653 
L 361.361232 456.099821 
L 363.191073 448.790122 
L 365.020915 437.299863 
L 366.850756 461.148209 
L 368.680598 363.373478 
L 370.510439 393.175511 
L 372.340281 459.778378 
L 374.170122 514.175999 
L 375.999964 561.081023 
L 377.829805 447.956572 
L 379.659647 441.802711 
L 381.489488 460.85815 
L 383.31933 464.870875 
L 385.149171 577.849955 
L 386.979013 562.650358 
L 388.808854 504.890159 
L 390.638696 545.939411 
L 394.298379 489.541791 
L 396.12822 563.976025 
L 397.958062 577.906219 
L 399.787903 574.799613 
L 401.617745 581.10256 
L 403.447586 498.034121 
L 405.277428 519.156583 
L 407.107269 554.962914 
L 408.937111 498.939038 
L 410.766952 525.136477 
L 412.596794 560.444246 
L 414.426635 493.162663 
L 416.256477 487.735506 
L 418.086318 413.543889 
L 419.91616 484.791055 
L 421.746001 587.211915 
L 423.575843 616.888461 
L 425.405684 624.659222 
L 427.235526 619.8558 
L 429.065367 584.755647 
L 430.895209 481.3136 
L 432.72505 342.963148 
L 434.554892 309.136263 
L 436.384733 283.445498 
L 438.214575 312.739054 
L 440.044416 403.675118 
L 441.874258 427.704163 
L 443.704099 469.84795 
L 445.533941 447.600799 
L 447.363782 457.830177 
L 449.193624 425.709695 
L 451.023465 484.379947 
L 452.853307 361.673356 
L 454.683148 425.993909 
L 456.51299 442.852603 
L 458.342831 462.074294 
L 460.172673 543.278176 
L 462.002514 411.740608 
L 463.832356 307.097849 
L 465.662197 269.355144 
L 467.492039 219.602313 
L 469.32188 260.352835 
L 471.151722 356.842458 
L 472.981563 395.736959 
L 474.811405 397.18728 
L 476.641246 298.160544 
L 478.471088 301.602711 
L 480.300929 286.109313 
L 482.130771 332.030009 
L 483.960612 440.824814 
L 485.790454 472.290179 
L 487.620295 521.12621 
L 489.450137 629.045042 
L 491.279978 622.938944 
L 493.10982 610.747942 
L 494.939661 615.352406 
L 496.769503 485.023102 
L 498.599344 498.406718 
L 500.429186 451.497419 
L 502.259027 413.543315 
L 504.088869 463.061231 
L 505.91871 408.071365 
L 507.748552 435.45078 
L 509.578393 406.375559 
L 511.408235 394.716782 
L 513.238076 463.218824 
L 515.067918 473.171061 
L 516.897759 445.323238 
L 518.727601 509.911767 
L 520.557442 465.231482 
L 522.387284 501.884637 
L 524.217125 475.135322 
L 526.046967 458.533365 
L 527.876808 554.907265 
L 529.70665 533.041315 
L 531.536491 556.735727 
L 533.366333 599.038077 
L 535.196174 484.849941 
L 537.026016 449.987366 
L 538.855857 399.043246 
L 540.685699 437.350883 
L 542.51554 464.574835 
L 546.175223 643.610307 
L 548.005065 633.439473 
L 549.834906 660.703117 
L 551.664748 677.077103 
L 553.494589 658.627722 
L 555.324431 653.989295 
L 557.154272 655.589678 
L 558.984114 652.401708 
L 560.813955 657.324814 
L 562.643797 640.562184 
L 564.473638 641.509757 
L 566.30348 644.379037 
L 568.133321 648.975246 
L 569.963163 653.051773 
L 571.793004 660.895622 
L 573.622846 661.807552 
L 575.452687 661.128844 
L 577.282529 653.168875 
L 579.11237 632.92425 
L 580.942212 622.493313 
L 582.772053 603.395226 
L 584.601895 547.533204 
L 586.431736 595.403343 
L 590.091419 568.864102 
L 591.921261 538.778114 
L 593.751102 407.282334 
L 595.580944 290.445254 
L 597.410785 291.665686 
L 599.240627 218.689038 
L 601.070468 302.780016 
L 602.90031 269.646186 
L 604.730151 287.386937 
L 606.559993 274.353659 
L 608.389834 182.766274 
L 610.219676 275.885016 
L 612.049517 202.128268 
L 613.879359 186.834416 
L 615.7092 280.086334 
L 617.539042 299.261347 
L 619.368883 369.837991 
L 621.198725 290.642997 
L 623.028566 284.893279 
L 624.858408 298.4361 
L 626.688249 257.207964 
L 628.518091 298.559743 
L 630.347932 296.162853 
L 632.177774 286.958213 
L 634.007615 307.81472 
L 635.837457 286.323635 
L 637.667298 357.120417 
L 639.49714 346.39693 
L 641.326981 264.869994 
L 643.156823 296.320883 
L 644.986664 297.800401 
L 646.816506 284.327446 
L 648.646347 332.096706 
L 650.476189 356.113133 
L 652.30603 320.060279 
L 654.135872 272.755659 
L 655.965713 282.361083 
L 657.795555 316.597245 
L 659.625396 306.637087 
L 661.455238 358.418089 
L 663.285079 327.55431 
L 665.114921 477.426294 
L 666.944762 414.804961 
L 668.774604 368.280359 
L 670.604445 472.082057 
L 672.434287 327.447518 
L 674.264128 401.7837 
L 676.09397 436.819081 
L 677.923811 366.79232 
L 679.753653 414.538501 
L 681.583494 418.15686 
L 683.413336 363.94409 
L 685.243177 372.5162 
L 687.073019 392.620657 
L 688.90286 529.696258 
L 690.732702 580.131996 
L 692.562543 535.14562 
L 694.392385 556.590862 
L 696.222226 481.365303 
L 698.052068 440.459264 
L 699.881909 405.456139 
L 701.711751 441.348832 
L 703.541592 509.139601 
L 705.371434 531.807528 
L 707.201275 573.775313 
L 709.031117 565.48982 
L 712.6908 462.376561 
L 714.520641 483.383095 
L 716.350483 470.222459 
L 718.180324 540.588756 
L 720.010166 622.71703 
L 721.840007 635.868633 
L 723.669849 632.910143 
L 725.49969 617.27765 
L 727.329532 600.67837 
L 729.159373 576.106025 
L 730.989215 571.763529 
L 732.819056 628.142692 
L 734.648898 641.32789 
L 736.478739 647.412998 
L 738.308581 630.59627 
L 740.138422 612.301805 
L 741.968264 608.769384 
L 743.798105 613.792958 
L 745.627947 637.160549 
L 747.457788 610.134804 
L 749.28763 637.707324 
L 751.117471 627.435339 
L 752.947313 633.069758 
L 754.777154 622.668728 
L 756.606996 556.099619 
L 758.436837 560.767489 
L 760.266679 536.737297 
L 762.09652 523.419313 
L 763.926362 523.915936 
L 765.756203 496.166274 
L 769.415886 302.739812 
L 771.245728 290.387407 
L 773.075569 310.265771 
L 774.905411 341.501 
L 776.735252 350.149148 
L 778.565094 323.367358 
L 780.394935 315.577151 
L 782.224777 247.488866 
L 784.054618 186.888495 
L 785.88446 254.736347 
L 787.714301 201.586497 
L 789.544143 218.292788 
L 791.373984 315.408605 
L 793.203826 310.567438 
L 795.033667 288.115334 
L 796.863509 365.793502 
L 798.69335 236.80591 
L 800.523192 241.47968 
L 802.353033 258.927068 
L 804.182875 204.846463 
L 806.012716 297.351165 
L 807.842558 272.605222 
L 809.672399 293.638058 
L 811.502241 265.954301 
L 813.332082 218.839366 
L 815.161924 220.084707 
L 816.991765 257.594382 
L 818.821607 230.325364 
L 820.651448 273.185612 
L 822.48129 290.737553 
L 824.311131 279.423842 
L 826.140973 327.323656 
L 827.970814 295.260366 
L 829.800656 284.776463 
L 831.630497 308.419719 
L 833.460339 314.777495 
L 837.120022 435.3214 
L 838.949863 396.214163 
L 840.779705 431.174899 
L 842.609546 475.287889 
L 844.439388 381.362336 
L 846.269229 373.424067 
L 848.099071 397.659486 
L 849.928912 354.301904 
L 851.758754 396.311832 
L 853.588595 416.415907 
L 855.418437 371.467127 
L 857.248278 356.643268 
L 859.07812 417.815564 
L 860.907961 349.503016 
L 862.737803 380.53799 
L 866.397486 427.266562 
L 868.227327 482.17632 
L 870.057169 428.166072 
L 871.88701 436.358456 
L 873.716852 468.805104 
L 875.546693 431.568363 
L 877.376535 422.726624 
L 879.206376 490.05969 
L 881.036218 515.09714 
L 882.866059 521.35681 
L 884.695901 528.339277 
L 886.525742 448.082483 
L 888.355584 468.556806 
L 890.185425 424.778776 
L 892.015267 408.237234 
L 893.845108 469.163116 
L 897.504791 619.87313 
L 899.334633 555.059013 
L 901.164474 595.417655 
L 902.994316 584.607627 
L 904.824157 585.705795 
L 906.653999 582.898397 
L 908.48384 616.008247 
L 910.313682 635.795176 
L 912.143523 624.215496 
L 913.973365 606.80455 
L 915.803206 567.569776 
L 917.633048 539.926414 
L 919.462889 583.914996 
L 921.292731 591.60158 
L 923.122572 623.749374 
L 924.952414 604.322813 
L 926.782255 614.832144 
L 928.612097 597.118158 
L 930.441938 545.376787 
L 932.27178 548.827148 
L 934.101621 548.181781 
L 935.931463 520.248496 
L 937.761304 582.722696 
L 939.591146 598.848965 
L 941.420987 533.760139 
L 943.250829 491.208891 
L 945.08067 410.783469 
L 946.910512 345.247319 
L 948.740353 385.217031 
L 950.570195 307.107791 
L 952.400036 317.347356 
L 954.229878 354.164304 
L 956.059719 324.707501 
L 957.889561 302.747022 
L 959.719402 250.555732 
L 961.549244 228.504495 
L 963.379085 192.278616 
L 965.208927 226.659426 
L 967.038768 268.571275 
L 968.86861 274.585433 
L 970.698451 283.535684 
L 972.528293 268.013663 
L 974.358134 204.985975 
L 976.187976 220.336473 
L 978.017817 218.804297 
L 979.847659 198.458124 
L 981.6775 259.970897 
L 983.507342 402.896166 
L 985.337183 353.246003 
L 987.167025 362.487433 
L 988.996866 416.924985 
L 990.826708 327.070032 
L 992.656549 278.525261 
L 994.486391 272.230658 
L 996.316232 297.589221 
L 998.146074 293.841454 
L 999.975915 347.732729 
L 1001.805757 307.5012 
L 1003.635598 326.332731 
L 1005.46544 292.994904 
L 1007.295281 281.594612 
L 1009.125123 361.55624 
L 1010.954964 347.881528 
L 1012.784806 399.485053 
L 1014.614647 377.552789 
L 1016.444489 390.917013 
L 1018.27433 388.163148 
L 1020.104172 386.233302 
L 1021.934013 289.734911 
L 1023.763855 303.948445 
L 1025.593696 406.740454 
L 1027.423538 340.642131 
L 1029.253379 374.693662 
L 1031.083221 388.82493 
L 1032.913062 312.468306 
L 1034.742904 343.651668 
L 1036.572745 346.213417 
L 1038.402587 302.747787 
L 1040.232428 439.794368 
L 1042.06227 463.47933 
L 1043.892111 431.837718 
L 1045.721953 489.191235 
L 1047.551794 480.023576 
L 1051.211478 401.694798 
L 1053.041319 401.728365 
L 1054.871161 434.811695 
L 1056.701002 495.611229 
L 1058.530844 452.384966 
L 1060.360685 523.142282 
L 1062.190527 520.492328 
L 1064.020368 441.180095 
L 1065.85021 400.031139 
L 1067.680051 400.138204 
L 1069.509893 395.865601 
L 1071.339734 446.903266 
L 1073.169576 433.863295 
L 1074.999417 447.150908 
L 1076.829259 452.115474 
L 1078.6591 444.813231 
L 1080.488942 426.780454 
L 1082.318783 424.81379 
L 1084.148625 468.31662 
L 1085.978466 492.999143 
L 1087.808308 530.505486 
L 1089.638149 531.803663 
L 1091.467991 529.229323 
L 1093.297832 498.060696 
L 1095.127674 470.433748 
L 1096.957515 466.710454 
L 1098.787357 397.002838 
L 1100.617198 449.265524 
L 1104.276881 431.623233 
L 1106.106723 457.667231 
L 1107.936564 470.699826 
L 1109.766406 492.252638 
L 1111.596247 489.606767 
L 1113.426089 514.294098 
L 1115.25593 521.517817 
L 1117.085772 500.463021 
L 1118.915613 440.245516 
L 1120.745455 417.582588 
L 1120.745455 417.582588 
" clip-path="url(#p9dbc371f2d)" style="fill: none; stroke: #ff6347; stroke-linecap: square"/>
   </g>
   <g id="line2d_14">
    <path d="M 207.654545 536.997189 
L 209.484387 633.853558 
L 211.314228 667.639174 
L 213.14407 587.090361 
L 214.973911 670.651886 
L 216.803753 646.269786 
L 218.633594 681.13613 
L 220.463436 625.144292 
L 222.293277 666.321633 
L 224.123119 675.043579 
L 225.95296 625.727646 
L 227.782802 631.101639 
L 229.612643 562.759431 
L 231.442485 586.148544 
L 233.272326 387.735981 
L 235.102168 514.877752 
L 236.932009 444.925076 
L 238.761851 424.386732 
L 240.591692 333.619105 
L 242.421534 261.244806 
L 244.251375 321.390097 
L 246.081217 243.905576 
L 247.911058 243.468958 
L 249.7409 230.600674 
L 251.570741 207.741151 
L 253.400583 161.255715 
L 255.230424 206.028875 
L 257.060266 183.002909 
L 258.890107 185.677459 
L 260.719949 178.788318 
L 262.54979 191.842545 
L 264.379632 224.673644 
L 266.209473 247.234095 
L 268.039315 260.324266 
L 269.869156 399.540962 
L 271.698998 386.632829 
L 273.528839 308.183848 
L 275.358681 293.87412 
L 277.188522 274.104514 
L 279.018364 301.549697 
L 280.848206 323.800753 
L 282.678047 375.156991 
L 284.507889 454.656765 
L 286.33773 373.377609 
L 288.167572 362.976927 
L 289.997413 267.447366 
L 291.827255 223.823132 
L 293.657096 266.288496 
L 295.486938 336.943883 
L 297.316779 277.448165 
L 299.146621 263.803059 
L 300.976462 211.311823 
L 302.806304 289.043222 
L 304.636145 245.259675 
L 306.465987 298.634006 
L 308.295828 300.85118 
L 310.12567 259.35642 
L 311.955511 270.53783 
L 313.785353 363.283346 
L 315.615194 376.998946 
L 317.445036 414.387299 
L 319.274877 386.655717 
L 321.104719 316.81214 
L 322.93456 370.278023 
L 324.764402 342.926959 
L 326.594243 304.730292 
L 328.424085 364.912127 
L 330.253926 388.16689 
L 332.083768 389.832515 
L 333.913609 358.261097 
L 335.743451 360.778408 
L 337.573292 397.808776 
L 339.403134 332.850149 
L 341.232975 459.987264 
L 343.062817 397.852803 
L 344.892658 405.156821 
L 346.7225 450.957751 
L 348.552341 373.537524 
L 350.382183 438.522972 
L 352.212024 464.807728 
L 354.041866 431.030279 
L 355.871707 434.826389 
L 357.701549 448.40223 
L 359.53139 439.903564 
L 361.361232 540.297058 
L 363.191073 520.320696 
L 365.020915 540.275891 
L 366.850756 469.732035 
L 368.680598 430.713536 
L 370.510439 429.383062 
L 372.340281 517.921949 
L 374.170122 580.51433 
L 377.829805 512.434199 
L 379.659647 522.179845 
L 381.489488 516.570103 
L 383.31933 432.60083 
L 385.149171 549.62821 
L 386.979013 427.11536 
L 388.808854 358.837636 
L 390.638696 534.205347 
L 392.468537 485.184464 
L 394.298379 509.701979 
L 396.12822 555.448544 
L 397.958062 566.302449 
L 399.787903 541.957644 
L 401.617745 558.470795 
L 403.447586 492.137407 
L 405.277428 486.121747 
L 407.107269 572.283272 
L 408.937111 420.380535 
L 410.766952 452.510276 
L 412.596794 492.542451 
L 414.426635 393.191052 
L 416.256477 467.976606 
L 418.086318 470.329469 
L 419.91616 528.581416 
L 421.746001 499.669183 
L 423.575843 480.800043 
L 425.405684 518.247746 
L 427.235526 535.597615 
L 429.065367 491.580642 
L 430.895209 437.723098 
L 432.72505 439.293785 
L 436.384733 370.358567 
L 438.214575 363.379596 
L 440.044416 418.634201 
L 441.874258 431.429342 
L 443.704099 445.513387 
L 445.533941 435.069033 
L 447.363782 437.440796 
L 449.193624 415.753033 
L 451.023465 334.96654 
L 452.853307 271.205347 
L 456.51299 499 
L 458.342831 417.946609 
L 460.172673 472.185189 
L 462.002514 464.316568 
L 463.832356 312.080577 
L 465.662197 347.665431 
L 467.492039 213.56057 
L 469.32188 237.584753 
L 471.151722 359.42308 
L 472.981563 375.414357 
L 474.811405 317.455732 
L 476.641246 358.838647 
L 478.471088 371.842264 
L 480.300929 313.93089 
L 482.130771 377.524548 
L 483.960612 464.256589 
L 485.790454 508.606489 
L 487.620295 507.967458 
L 489.450137 562.647204 
L 491.279978 583.826435 
L 493.10982 601.321238 
L 494.939661 608.065035 
L 496.769503 440.381778 
L 498.599344 527.902974 
L 500.429186 414.825855 
L 502.259027 450.79729 
L 504.088869 414.943709 
L 505.91871 450.341199 
L 507.748552 463.3836 
L 509.578393 429.693032 
L 511.408235 406.230312 
L 513.238076 483.406584 
L 515.067918 468.234983 
L 516.897759 461.983807 
L 518.727601 503.69622 
L 520.557442 489.675076 
L 522.387284 536.228752 
L 524.217125 501.537795 
L 526.046967 495.881568 
L 527.876808 594.749987 
L 529.70665 518.219013 
L 531.536491 598.381894 
L 533.366333 601.050421 
L 535.196174 517.644454 
L 537.026016 523.154204 
L 538.855857 468.18511 
L 540.685699 511.43818 
L 542.51554 557.769301 
L 544.345382 617.383486 
L 546.175223 683.883201 
L 548.005065 709.488184 
L 549.834906 672.762883 
L 551.664748 665.776789 
L 553.494589 656.600356 
L 555.324431 661.575246 
L 557.154272 672.998699 
L 558.984114 649.208652 
L 560.813955 681.084584 
L 562.643797 654.751013 
L 564.473638 662.411002 
L 568.133321 654.709997 
L 569.963163 656.223403 
L 571.793004 675.830725 
L 573.622846 677.054345 
L 575.452687 660.300899 
L 579.11237 639.133795 
L 580.942212 644.347048 
L 582.772053 648.263919 
L 584.601895 526.177152 
L 586.431736 528.773123 
L 588.261578 535.552454 
L 590.091419 506.911693 
L 591.921261 518.20324 
L 593.751102 467.343667 
L 595.580944 426.964595 
L 597.410785 335.529013 
L 599.240627 292.687993 
L 601.070468 392.101392 
L 602.90031 294.608007 
L 604.730151 257.868053 
L 606.559993 285.475199 
L 608.389834 223.517779 
L 610.219676 357.989993 
L 612.049517 220.353407 
L 613.879359 223.482655 
L 615.7092 258.924337 
L 617.539042 311.466784 
L 619.368883 418.044251 
L 621.198725 367.089206 
L 623.028566 347.949536 
L 624.858408 341.837162 
L 626.688249 282.558006 
L 628.518091 370.437364 
L 630.347932 320.580118 
L 632.177774 324.731399 
L 634.007615 300.256259 
L 635.837457 317.059728 
L 637.667298 414.320929 
L 639.49714 411.50116 
L 641.326981 238.637814 
L 643.156823 356.726517 
L 644.986664 254.143065 
L 646.816506 287.195941 
L 648.646347 301.567614 
L 650.476189 352.290202 
L 652.30603 399.453507 
L 654.135872 332.179982 
L 655.965713 324.204514 
L 657.795555 299.964534 
L 659.625396 291.441888 
L 661.455238 362.733573 
L 663.285079 293.791336 
L 665.114921 424.067722 
L 666.944762 440.887141 
L 668.774604 420.392771 
L 670.604445 521.868742 
L 672.434287 319.795785 
L 674.264128 420.065185 
L 676.09397 459.297596 
L 677.923811 365.616954 
L 679.753653 372.962213 
L 681.583494 413.408965 
L 683.413336 391.426227 
L 685.243177 402.56451 
L 687.073019 443.00782 
L 688.90286 529.270183 
L 690.732702 584.260472 
L 692.562543 514.467287 
L 694.392385 530.293678 
L 696.222226 491.375497 
L 698.052068 505.886874 
L 699.881909 430.509129 
L 701.711751 500.685318 
L 703.541592 508.867077 
L 705.371434 567.736041 
L 707.201275 581.980684 
L 709.031117 570.882277 
L 710.860958 558.157316 
L 712.6908 532.70615 
L 714.520641 535.196258 
L 716.350483 550.613317 
L 718.180324 579.487572 
L 720.010166 623.064309 
L 721.840007 627.744087 
L 723.669849 620.062378 
L 725.49969 610.385273 
L 727.329532 606.940115 
L 729.159373 602.734004 
L 730.989215 615.949689 
L 732.819056 661.865824 
L 734.648898 680.647011 
L 736.478739 678.095033 
L 738.308581 667.313739 
L 740.138422 632.891523 
L 741.968264 638.995334 
L 743.798105 642.400383 
L 745.627947 661.442173 
L 747.457788 646.424354 
L 749.28763 673.103565 
L 751.117471 645.470684 
L 752.947313 648.664478 
L 754.777154 644.514166 
L 756.606996 634.438599 
L 758.436837 609.090073 
L 760.266679 529.375555 
L 762.09652 437.623516 
L 763.926362 400.743777 
L 765.756203 330.692516 
L 767.586045 321.630475 
L 769.415886 373.076571 
L 771.245728 314.456218 
L 773.075569 374.323659 
L 774.905411 448.388055 
L 776.735252 363.048022 
L 778.565094 301.810368 
L 780.394935 296.683894 
L 782.224777 307.738218 
L 784.054618 266.527098 
L 785.88446 308.538146 
L 787.714301 248.403125 
L 789.544143 311.303264 
L 791.373984 346.083027 
L 793.203826 334.334201 
L 795.033667 313.830544 
L 796.863509 370.977141 
L 798.69335 321.841054 
L 800.523192 327.712067 
L 802.353033 282.469595 
L 804.182875 295.10545 
L 806.012716 334.261549 
L 807.842558 323.460412 
L 809.672399 292.118309 
L 811.502241 314.84818 
L 815.161924 251.224834 
L 816.991765 221.849586 
L 818.821607 203.242837 
L 820.651448 253.610526 
L 822.48129 315.111473 
L 824.311131 246.961407 
L 826.140973 305.743668 
L 827.970814 320.505145 
L 829.800656 357.400999 
L 831.630497 373.164435 
L 833.460339 321.64831 
L 835.29018 384.681296 
L 837.120022 453.1197 
L 838.949863 386.711407 
L 840.779705 418.986669 
L 842.609546 522.586951 
L 844.439388 400.588041 
L 846.269229 414.706527 
L 848.099071 365.124127 
L 849.928912 357.546438 
L 851.758754 355.877125 
L 853.588595 382.296697 
L 855.418437 358.088045 
L 857.248278 393.389286 
L 859.07812 413.962507 
L 860.907961 356.978611 
L 862.737803 409.054752 
L 864.567644 355.929893 
L 866.397486 417.008097 
L 868.227327 470.419436 
L 870.057169 430.93007 
L 871.88701 459.217515 
L 873.716852 499.85835 
L 875.546693 475.101072 
L 877.376535 477.918575 
L 879.206376 522.158636 
L 881.036218 556.050935 
L 882.866059 561.126239 
L 884.695901 548.083824 
L 886.525742 492.36421 
L 888.355584 564.178807 
L 890.185425 503.199979 
L 892.015267 546.285364 
L 893.845108 413.010066 
L 895.67495 616.997656 
L 897.504791 660.761361 
L 899.334633 578.882272 
L 901.164474 597.165942 
L 902.994316 624.39087 
L 904.824157 631.111977 
L 906.653999 611.959005 
L 908.48384 638.992644 
L 910.313682 671.317082 
L 912.143523 619.429042 
L 913.973365 609.003547 
L 915.803206 574.2507 
L 917.633048 571.905758 
L 919.462889 626.15215 
L 921.292731 623.530997 
L 923.122572 655.635522 
L 924.952414 605.118331 
L 926.782255 626.11364 
L 928.612097 605.709756 
L 930.441938 547.733541 
L 932.27178 571.430835 
L 934.101621 580.240605 
L 935.931463 509.537681 
L 937.761304 568.826916 
L 939.591146 567.256516 
L 941.420987 495.528854 
L 943.250829 524.08018 
L 945.08067 578.384829 
L 946.910512 372.130111 
L 948.740353 371.419849 
L 950.570195 330.758612 
L 952.400036 374.989893 
L 954.229878 324.272822 
L 956.059719 246.074134 
L 957.889561 306.643369 
L 959.719402 283.328928 
L 961.549244 274.276474 
L 963.379085 222.148822 
L 965.208927 277.727572 
L 967.038768 285.606299 
L 968.86861 279.724607 
L 970.698451 265.89241 
L 972.528293 267.581415 
L 974.358134 277.043831 
L 976.187976 283.231668 
L 978.017817 241.894993 
L 979.847659 256.920746 
L 981.6775 295.697448 
L 983.507342 448.668636 
L 985.337183 394.738769 
L 987.167025 442.684795 
L 988.996866 478.536056 
L 990.826708 362.343988 
L 992.656549 282.278271 
L 994.486391 269.773134 
L 996.316232 285.750564 
L 998.146074 279.787371 
L 999.975915 290.089099 
L 1001.805757 289.273521 
L 1003.635598 380.873606 
L 1005.46544 367.461121 
L 1007.295281 357.887735 
L 1009.125123 316.678063 
L 1010.954964 341.587308 
L 1012.784806 432.579007 
L 1014.614647 395.805732 
L 1016.444489 380.540448 
L 1018.27433 389.887823 
L 1020.104172 401.131177 
L 1021.934013 248.308624 
L 1023.763855 332.197189 
L 1025.593696 381.106172 
L 1027.423538 305.443422 
L 1029.253379 324.476737 
L 1031.083221 316.211729 
L 1032.913062 315.549429 
L 1034.742904 386.092861 
L 1036.572745 378.454483 
L 1038.402587 301.955015 
L 1040.232428 476.378614 
L 1042.06227 509.082764 
L 1043.892111 488.031847 
L 1045.721953 509.28575 
L 1047.551794 537.377748 
L 1049.381636 467.259326 
L 1051.211478 432.257157 
L 1053.041319 359.881657 
L 1054.871161 489.884426 
L 1056.701002 548.172808 
L 1058.530844 499.399554 
L 1060.360685 525.029699 
L 1062.190527 566.717585 
L 1064.020368 487.045538 
L 1065.85021 346.220928 
L 1067.680051 388.532741 
L 1069.509893 414.676074 
L 1071.339734 489.124401 
L 1073.169576 453.176018 
L 1074.999417 449.966963 
L 1076.829259 433.241281 
L 1080.488942 503.398296 
L 1082.318783 479.049203 
L 1084.148625 474.39376 
L 1085.978466 513.899309 
L 1087.808308 522.702975 
L 1089.638149 538.356505 
L 1091.467991 541.273057 
L 1093.297832 511.82147 
L 1095.127674 488.047306 
L 1096.957515 503.829614 
L 1098.787357 413.161213 
L 1100.617198 452.574269 
L 1102.44704 441.27588 
L 1104.276881 397.212353 
L 1106.106723 474.864272 
L 1107.936564 505.15834 
L 1109.766406 494.179125 
L 1111.596247 489.079773 
L 1113.426089 509.000745 
L 1115.25593 523.048464 
L 1117.085772 496.532862 
L 1118.915613 493.986682 
L 1120.745455 546.365868 
L 1120.745455 546.365868 
" clip-path="url(#p9dbc371f2d)" style="fill: none; stroke: #da70d6; stroke-linecap: square"/>
   </g>
   <g id="line2d_15">
    <path d="M 207.654545 658.548372 
L 209.484387 660.942293 
L 211.314228 632.463311 
L 213.14407 621.563091 
L 214.973911 656.710351 
L 216.803753 642.809907 
L 218.633594 662.413869 
L 220.463436 623.579231 
L 222.293277 659.878887 
L 224.123119 619.172291 
L 225.95296 630.86654 
L 227.782802 609.645336 
L 229.612643 533.256729 
L 231.442485 515.882743 
L 233.272326 517.443475 
L 235.102168 552.697124 
L 236.932009 571.08047 
L 238.761851 562.356421 
L 240.591692 469.446866 
L 242.421534 349.65867 
L 244.251375 313.784795 
L 246.081217 287.217627 
L 247.911058 242.091316 
L 249.7409 279.818125 
L 251.570741 285.919191 
L 253.400583 250.766475 
L 255.230424 305.052771 
L 257.060266 280.996441 
L 258.890107 240.756718 
L 260.719949 218.785997 
L 262.54979 256.024623 
L 264.379632 304.198545 
L 266.209473 341.010413 
L 268.039315 329.571147 
L 269.869156 330.359713 
L 271.698998 336.366387 
L 273.528839 300.768587 
L 275.358681 251.538163 
L 277.188522 241.749363 
L 279.018364 333.296872 
L 280.848206 387.899173 
L 282.678047 389.569715 
L 284.507889 363.095546 
L 288.167572 298.577278 
L 289.997413 271.882752 
L 291.827255 260.019622 
L 293.657096 331.317371 
L 295.486938 374.370282 
L 297.316779 333.214934 
L 299.146621 317.166957 
L 300.976462 275.848963 
L 302.806304 287.26201 
L 304.636145 194.78716 
L 306.465987 277.55228 
L 308.295828 333.667858 
L 310.12567 304.511082 
L 311.955511 286.592827 
L 313.785353 453.804997 
L 315.615194 293.724366 
L 317.445036 419.86553 
L 319.274877 290.513645 
L 321.104719 295.898468 
L 322.93456 429.130995 
L 324.764402 398.747315 
L 326.594243 362.44925 
L 328.424085 491.287988 
L 330.253926 490.21742 
L 332.083768 467.432733 
L 333.913609 375.012617 
L 335.743451 400.616938 
L 337.573292 472.456484 
L 339.403134 368.645118 
L 341.232975 471.543318 
L 343.062817 483.004025 
L 344.892658 528.187079 
L 346.7225 591.403701 
L 348.552341 411.105401 
L 350.382183 470.77062 
L 352.212024 592.098162 
L 354.041866 586.102454 
L 355.871707 583.134473 
L 357.701549 566.701403 
L 359.53139 508.486805 
L 361.361232 573.531412 
L 363.191073 509.907014 
L 365.020915 568.387021 
L 366.850756 555.592809 
L 368.680598 476.473279 
L 370.510439 427.050165 
L 372.340281 535.881378 
L 374.170122 597.717272 
L 375.999964 579.668613 
L 377.829805 475.940467 
L 379.659647 466.954382 
L 381.489488 517.863131 
L 383.31933 520.390357 
L 385.149171 573.090042 
L 386.979013 566.438684 
L 388.808854 524.52648 
L 390.638696 566.355831 
L 392.468537 503.333264 
L 394.298379 465.76301 
L 396.12822 558.944298 
L 397.958062 589.800553 
L 399.787903 568.61351 
L 401.617745 558.611768 
L 403.447586 478.255037 
L 405.277428 521.995594 
L 407.107269 528.39382 
L 408.937111 617.896893 
L 410.766952 566.695585 
L 412.596794 598.412238 
L 414.426635 557.813533 
L 416.256477 530.982841 
L 418.086318 366.097954 
L 419.91616 482.147259 
L 421.746001 292.605755 
L 423.575843 616.879216 
L 425.405684 635.292695 
L 427.235526 656.086069 
L 429.065367 536.747458 
L 430.895209 334.20067 
L 432.72505 287.842018 
L 434.554892 273.281752 
L 436.384733 285.904033 
L 438.214575 371.644467 
L 440.044416 419.284457 
L 441.874258 477.608496 
L 443.704099 437.548789 
L 445.533941 383.064806 
L 447.363782 390.801181 
L 449.193624 306.703484 
L 451.023465 236.127085 
L 452.853307 285.541432 
L 454.683148 344.988916 
L 456.51299 392.018444 
L 458.342831 425.380334 
L 460.172673 382.874137 
L 462.002514 365.17064 
L 463.832356 259.389086 
L 465.662197 218.701438 
L 469.32188 319.25822 
L 471.151722 357.00494 
L 472.981563 368.52385 
L 474.811405 350.557825 
L 476.641246 317.122219 
L 478.471088 295.072675 
L 480.300929 256.923314 
L 482.130771 351.173585 
L 483.960612 455.401468 
L 485.790454 521.658285 
L 487.620295 427.411127 
L 489.450137 613.769428 
L 491.279978 604.262043 
L 493.10982 575.587756 
L 494.939661 499.45549 
L 496.769503 497.183118 
L 498.599344 525.323063 
L 500.429186 534.143402 
L 502.259027 352.884877 
L 504.088869 493.323234 
L 505.91871 519.018163 
L 507.748552 513.629093 
L 509.578393 327.784827 
L 511.408235 441.150652 
L 513.238076 526.444036 
L 515.067918 523.605229 
L 516.897759 363.169125 
L 518.727601 538.186935 
L 520.557442 557.44928 
L 522.387284 574.441287 
L 524.217125 515.376301 
L 526.046967 523.553936 
L 527.876808 577.899555 
L 529.70665 599.829279 
L 531.536491 616.76281 
L 533.366333 576.523155 
L 535.196174 521.636968 
L 538.855857 393.003442 
L 540.685699 442.165858 
L 542.51554 581.336177 
L 544.345382 590.283629 
L 546.175223 634.966515 
L 548.005065 647.9056 
L 549.834906 629.780309 
L 551.664748 671.012042 
L 553.494589 636.36329 
L 555.324431 674.635468 
L 557.154272 655.796911 
L 558.984114 656.845773 
L 560.813955 654.032654 
L 562.643797 649.295389 
L 564.473638 642.998684 
L 566.30348 665.973487 
L 568.133321 647.857195 
L 569.963163 651.362775 
L 571.793004 662.835957 
L 573.622846 658.27309 
L 575.452687 645.282596 
L 577.282529 636.191016 
L 579.11237 615.869281 
L 580.942212 629.535739 
L 582.772053 595.408696 
L 584.601895 592.038498 
L 586.431736 611.322269 
L 588.261578 558.068659 
L 590.091419 579.064979 
L 591.921261 535.722829 
L 593.751102 412.659455 
L 595.580944 301.267641 
L 597.410785 252.218135 
L 599.240627 265.065934 
L 601.070468 316.410428 
L 602.90031 313.43962 
L 604.730151 281.045467 
L 606.559993 331.427468 
L 608.389834 309.709443 
L 610.219676 293.910091 
L 612.049517 238.366055 
L 613.879359 264.713221 
L 615.7092 340.94164 
L 617.539042 404.122442 
L 619.368883 402.686051 
L 621.198725 336.926894 
L 623.028566 309.265232 
L 624.858408 305.641273 
L 626.688249 269.84737 
L 628.518091 333.490053 
L 630.347932 303.574127 
L 632.177774 328.925643 
L 634.007615 362.99662 
L 635.837457 345.111412 
L 637.667298 334.604075 
L 639.49714 313.404168 
L 641.326981 230.180444 
L 643.156823 255.823385 
L 644.986664 324.174333 
L 646.816506 368.760813 
L 648.646347 348.763585 
L 650.476189 312.724032 
L 652.30603 340.400334 
L 654.135872 298.726186 
L 655.965713 290.978449 
L 657.795555 347.789976 
L 659.625396 313.797359 
L 661.455238 380.298705 
L 663.285079 283.652663 
L 665.114921 505.634261 
L 666.944762 485.767613 
L 668.774604 475.390584 
L 670.604445 423.384937 
L 672.434287 354.131092 
L 674.264128 460.91242 
L 676.09397 486.57975 
L 677.923811 315.672417 
L 679.753653 471.972398 
L 681.583494 505.662556 
L 683.413336 463.660385 
L 685.243177 311.127808 
L 687.073019 401.621901 
L 688.90286 541.821082 
L 690.732702 552.096768 
L 692.562543 511.974843 
L 694.392385 554.552653 
L 696.222226 542.325161 
L 698.052068 553.858028 
L 699.881909 455.68702 
L 701.711751 459.127357 
L 703.541592 562.975459 
L 705.371434 548.215716 
L 707.201275 578.393146 
L 709.031117 585.748976 
L 710.860958 554.945912 
L 712.6908 514.668812 
L 714.520641 460.124482 
L 716.350483 583.256792 
L 718.180324 604.218684 
L 720.010166 670.364995 
L 721.840007 657.487309 
L 723.669849 627.563476 
L 725.49969 619.795057 
L 727.329532 623.110835 
L 729.159373 629.048736 
L 730.989215 625.770424 
L 732.819056 659.606486 
L 734.648898 660.062775 
L 736.478739 627.644061 
L 738.308581 634.587616 
L 740.138422 637.061903 
L 741.968264 608.246609 
L 743.798105 638.720502 
L 745.627947 656.645538 
L 747.457788 618.351496 
L 749.28763 639.765861 
L 751.117471 611.693528 
L 752.947313 627.836901 
L 754.777154 613.489926 
L 756.606996 537.815841 
L 758.436837 574.836758 
L 760.266679 562.875413 
L 762.09652 549.106527 
L 763.926362 536.594562 
L 765.756203 500.05164 
L 767.586045 444.294949 
L 769.415886 334.89113 
L 771.245728 329.04336 
L 773.075569 302.41635 
L 774.905411 384.091865 
L 776.735252 405.838842 
L 778.565094 307.844791 
L 780.394935 301.822822 
L 782.224777 328.893906 
L 784.054618 279.27996 
L 785.88446 258.950666 
L 787.714301 243.856304 
L 789.544143 299.835811 
L 791.373984 367.772483 
L 793.203826 405.783616 
L 795.033667 326.693147 
L 796.863509 323.737634 
L 798.69335 314.581173 
L 800.523192 311.935029 
L 802.353033 250.643897 
L 804.182875 249.112922 
L 806.012716 348.055372 
L 807.842558 337.129389 
L 809.672399 334.644552 
L 811.502241 331.587519 
L 813.332082 309.668802 
L 815.161924 295.271947 
L 816.991765 250.798103 
L 818.821607 274.02356 
L 820.651448 318.174979 
L 822.48129 348.550821 
L 824.311131 324.307209 
L 826.140973 309.785945 
L 827.970814 340.275079 
L 829.800656 366.928909 
L 831.630497 293.274283 
L 835.29018 413.621265 
L 837.120022 478.31731 
L 838.949863 386.67601 
L 840.779705 471.689686 
L 842.609546 520.148955 
L 844.439388 392.023524 
L 846.269229 274.819992 
L 848.099071 423.24212 
L 849.928912 414.993336 
L 851.758754 457.399158 
L 853.588595 403.407319 
L 855.418437 443.315468 
L 857.248278 487.038382 
L 859.07812 510.259537 
L 860.907961 279.038626 
L 862.737803 385.078365 
L 864.567644 437.534641 
L 866.397486 484.73755 
L 868.227327 507.541383 
L 870.057169 521.872975 
L 871.88701 540.002192 
L 873.716852 578.42797 
L 875.546693 437.375218 
L 877.376535 432.824 
L 879.206376 514.749206 
L 881.036218 572.55514 
L 882.866059 557.264497 
L 884.695901 556.361328 
L 886.525742 514.073044 
L 888.355584 552.201347 
L 890.185425 468.986595 
L 892.015267 541.373703 
L 893.845108 543.303017 
L 895.67495 611.534938 
L 897.504791 640.175398 
L 899.334633 552.802359 
L 901.164474 580.853319 
L 902.994316 630.076745 
L 904.824157 640.432388 
L 906.653999 553.283537 
L 908.48384 624.731989 
L 910.313682 661.783825 
L 912.143523 626.350432 
L 913.973365 597.424782 
L 915.803206 571.152726 
L 917.633048 586.247729 
L 919.462889 631.540135 
L 921.292731 614.984138 
L 923.122572 596.677307 
L 924.952414 589.110352 
L 926.782255 612.96838 
L 928.612097 545.015934 
L 930.441938 545.664142 
L 932.27178 558.496783 
L 934.101621 551.80391 
L 935.931463 570.192254 
L 937.761304 597.597752 
L 939.591146 570.383633 
L 941.420987 529.25157 
L 943.250829 541.136877 
L 945.08067 501.045433 
L 946.910512 358.885378 
L 948.740353 382.891399 
L 950.570195 338.648401 
L 952.400036 350.44303 
L 954.229878 423.871782 
L 956.059719 328.274185 
L 957.889561 347.123551 
L 959.719402 345.160902 
L 961.549244 286.219547 
L 963.379085 234.046856 
L 965.208927 303.57227 
L 967.038768 343.830128 
L 968.86861 363.202692 
L 970.698451 334.542349 
L 972.528293 332.356803 
L 974.358134 308.107838 
L 976.187976 292.126967 
L 978.017817 250.332043 
L 979.847659 260.318803 
L 981.6775 331.010679 
L 983.507342 440.864472 
L 985.337183 398.038501 
L 987.167025 415.762947 
L 988.996866 400.82058 
L 990.826708 345.326334 
L 992.656549 270.914087 
L 994.486391 286.723845 
L 996.316232 331.272988 
L 998.146074 359.480518 
L 999.975915 342.923408 
L 1001.805757 351.01774 
L 1003.635598 311.756187 
L 1005.46544 301.542077 
L 1007.295281 255.1657 
L 1009.125123 358.911107 
L 1010.954964 384.560384 
L 1012.784806 433.139678 
L 1014.614647 323.125752 
L 1016.444489 418.605905 
L 1018.27433 434.809236 
L 1020.104172 405.366663 
L 1021.934013 213.739576 
L 1023.763855 353.495858 
L 1025.593696 432.108549 
L 1027.423538 346.680624 
L 1029.253379 378.436812 
L 1031.083221 455.582304 
L 1032.913062 398.468837 
L 1034.742904 431.484076 
L 1036.572745 268.33453 
L 1038.402587 323.802774 
L 1040.232428 524.032096 
L 1042.06227 506.88195 
L 1043.892111 342.437163 
L 1045.721953 521.918095 
L 1047.551794 573.778945 
L 1049.381636 499.563812 
L 1051.211478 434.979694 
L 1053.041319 459.45396 
L 1054.871161 515.570302 
L 1056.701002 577.137454 
L 1058.530844 474.08999 
L 1060.360685 493.649946 
L 1062.190527 556.369494 
L 1064.020368 542.978913 
L 1065.85021 474.574596 
L 1067.680051 483.331721 
L 1069.509893 466.304098 
L 1071.339734 504.559705 
L 1073.169576 459.921249 
L 1074.999417 443.181801 
L 1076.829259 445.546244 
L 1078.6591 453.01512 
L 1080.488942 487.046985 
L 1082.318783 421.822225 
L 1084.148625 463.227864 
L 1085.978466 443.1623 
L 1087.808308 507.543432 
L 1089.638149 529.381891 
L 1091.467991 523.642292 
L 1093.297832 512.033388 
L 1095.127674 475.233128 
L 1096.957515 360.39281 
L 1098.787357 351.873987 
L 1100.617198 405.33001 
L 1102.44704 462.216155 
L 1104.276881 464.02894 
L 1106.106723 481.222841 
L 1107.936564 499.519456 
L 1109.766406 524.246964 
L 1111.596247 493.265331 
L 1113.426089 520.58952 
L 1115.25593 498.71128 
L 1117.085772 497.320882 
L 1118.915613 476.07143 
L 1120.745455 437.275036 
L 1120.745455 437.275036 
" clip-path="url(#p9dbc371f2d)" style="fill: none; stroke: #8fbc8f; stroke-linecap: square"/>
   </g>
   <g id="patch_3">
    <path d="M 162 768.96 
L 162 103.68 
" style="fill: none; stroke: #000000; stroke-width: 0.8; stroke-linejoin: miter; stroke-linecap: square"/>
   </g>
   <g id="patch_4">
    <path d="M 1166.4 768.96 
L 1166.4 103.68 
" style="fill: none; stroke: #000000; stroke-width: 0.8; stroke-linejoin: miter; stroke-linecap: square"/>
   </g>
   <g id="patch_5">
    <path d="M 162 768.96 
L 1166.4 768.96 
" style="fill: none; stroke: #000000; stroke-width: 0.8; stroke-linejoin: miter; stroke-linecap: square"/>
   </g>
   <g id="patch_6">
    <path d="M 162 103.68 
L 1166.4 103.68 
" style="fill: none; stroke: #000000; stroke-width: 0.8; stroke-linejoin: miter; stroke-linecap: square"/>
   </g>
   <g id="text_12">
    <!-- Function 1 -->
    <g transform="translate(632.957813 97.68) scale(0.12 -0.12)">
     <defs>
      <path id="DejaVuSans-46" d="M 628 4666 
L 3309 4666 
L 3309 4134 
L 1259 4134 
L 1259 2759 
L 3109 2759 
L 3109 2228 
L 1259 2228 
L 1259 0 
L 628 0 
L 628 4666 
z
" transform="scale(0.015625)"/>
      <path id="DejaVuSans-75" d="M 544 1381 
L 544 3500 
L 1119 3500 
L 1119 1403 
Q 1119 906 1312 657 
Q 1506 409 1894 409 
Q 2359 409 2629 706 
Q 2900 1003 2900 1516 
L 2900 3500 
L 3475 3500 
L 3475 0 
L 2900 0 
L 2900 538 
Q 2691 219 2414 64 
Q 2138 -91 1772 -91 
Q 1169 -91 856 284 
Q 544 659 544 1381 
z
M 1991 3584 
L 1991 3584 
z
" transform="scale(0.015625)"/>
      <path id="DejaVuSans-6e" d="M 3513 2113 
L 3513 0 
L 2938 0 
L 2938 2094 
Q 2938 2591 2744 2837 
Q 2550 3084 2163 3084 
Q 1697 3084 1428 2787 
Q 1159 2491 1159 1978 
L 1159 0 
L 581 0 
L 581 3500 
L 1159 3500 
L 1159 2956 
Q 1366 3272 1645 3428 
Q 1925 3584 2291 3584 
Q 2894 3584 3203 3211 
Q 3513 2838 3513 2113 
z
" transform="scale(0.015625)"/>
      <path id="DejaVuSans-63" d="M 3122 3366 
L 3122 2828 
Q 2878 2963 2633 3030 
Q 2388 3097 2138 3097 
Q 1578 3097 1268 2742 
Q 959 2388 959 1747 
Q 959 1106 1268 751 
Q 1578 397 2138 397 
Q 2388 397 2633 464 
Q 2878 531 3122 666 
L 3122 134 
Q 2881 22 2623 -34 
Q 2366 -91 2075 -91 
Q 1284 -91 818 406 
Q 353 903 353 1747 
Q 353 2603 823 3093 
Q 1294 3584 2113 3584 
Q 2378 3584 2631 3529 
Q 2884 3475 3122 3366 
z
" transform="scale(0.015625)"/>
      <path id="DejaVuSans-74" d="M 1172 4494 
L 1172 3500 
L 2356 3500 
L 2356 3053 
L 1172 3053 
L 1172 1153 
Q 1172 725 1289 603 
Q 1406 481 1766 481 
L 2356 481 
L 2356 0 
L 1766 0 
Q 1100 0 847 248 
Q 594 497 594 1153 
L 594 3053 
L 172 3053 
L 172 3500 
L 594 3500 
L 594 4494 
L 1172 4494 
z
" transform="scale(0.015625)"/>
      <path id="DejaVuSans-69" d="M 603 3500 
L 1178 3500 
L 1178 0 
L 603 0 
L 603 3500 
z
M 603 4863 
L 1178 4863 
L 1178 4134 
L 603 4134 
L 603 4863 
z
" transform="scale(0.015625)"/>
      <path id="DejaVuSans-6f" d="M 1959 3097 
Q 1497 3097 1228 2736 
Q 959 2375 959 1747 
Q 959 1119 1226 758 
Q 1494 397 1959 397 
Q 2419 397 2687 759 
Q 2956 1122 2956 1747 
Q 2956 2369 2687 2733 
Q 2419 3097 1959 3097 
z
M 1959 3584 
Q 2709 3584 3137 3096 
Q 3566 2609 3566 1747 
Q 3566 888 3137 398 
Q 2709 -91 1959 -91 
Q 1206 -91 779 398 
Q 353 888 353 1747 
Q 353 2609 779 3096 
Q 1206 3584 1959 3584 
z
" transform="scale(0.015625)"/>
      <path id="DejaVuSans-20" transform="scale(0.015625)"/>
     </defs>
     <use xlink:href="#DejaVuSans-46"/>
     <use xlink:href="#DejaVuSans-75" x="52.019531"/>
     <use xlink:href="#DejaVuSans-6e" x="115.398438"/>
     <use xlink:href="#DejaVuSans-63" x="178.777344"/>
     <use xlink:href="#DejaVuSans-74" x="233.757812"/>
     <use xlink:href="#DejaVuSans-69" x="272.966797"/>
     <use xlink:href="#DejaVuSans-6f" x="300.75"/>
     <use xlink:href="#DejaVuSans-6e" x="361.931641"/>
     <use xlink:href="#DejaVuSans-20" x="425.310547"/>
     <use xlink:href="#DejaVuSans-31" x="457.097656"/>
    </g>
   </g>
   <g id="legend_1">
    <g id="patch_7">
     <path d="M 1011.90625 170.3925 
L 1159.4 170.3925 
Q 1161.4 170.3925 1161.4 168.3925 
L 1161.4 110.68 
Q 1161.4 108.68 1159.4 108.68 
L 1011.90625 108.68 
Q 1009.90625 108.68 1009.90625 110.68 
L 1009.90625 168.3925 
Q 1009.90625 170.3925 1011.90625 170.3925 
z
" style="fill: #ffffff; opacity: 0.8; stroke: #cccccc; stroke-linejoin: miter"/>
    </g>
    <g id="line2d_16">
     <path d="M 1013.90625 116.778437 
L 1023.90625 116.778437 
L 1033.90625 116.778437 
" style="fill: none; stroke: #4169e1; stroke-linecap: square"/>
    </g>
    <g id="text_13">
     <!-- Truth -->
     <g transform="translate(1041.90625 120.278437) scale(0.1 -0.1)">
      <defs>
       <path id="DejaVuSans-54" d="M -19 4666 
L 3928 4666 
L 3928 4134 
L 2272 4134 
L 2272 0 
L 1638 0 
L 1638 4134 
L -19 4134 
L -19 4666 
z
" transform="scale(0.015625)"/>
       <path id="DejaVuSans-72" d="M 2631 2963 
Q 2534 3019 2420 3045 
Q 2306 3072 2169 3072 
Q 1681 3072 1420 2755 
Q 1159 2438 1159 1844 
L 1159 0 
L 581 0 
L 581 3500 
L 1159 3500 
L 1159 2956 
Q 1341 3275 1631 3429 
Q 1922 3584 2338 3584 
Q 2397 3584 2469 3576 
Q 2541 3569 2628 3553 
L 2631 2963 
z
" transform="scale(0.015625)"/>
       <path id="DejaVuSans-68" d="M 3513 2113 
L 3513 0 
L 2938 0 
L 2938 2094 
Q 2938 2591 2744 2837 
Q 2550 3084 2163 3084 
Q 1697 3084 1428 2787 
Q 1159 2491 1159 1978 
L 1159 0 
L 581 0 
L 581 4863 
L 1159 4863 
L 1159 2956 
Q 1366 3272 1645 3428 
Q 1925 3584 2291 3584 
Q 2894 3584 3203 3211 
Q 3513 2838 3513 2113 
z
" transform="scale(0.015625)"/>
      </defs>
      <use xlink:href="#DejaVuSans-54"/>
      <use xlink:href="#DejaVuSans-72" x="46.333984"/>
      <use xlink:href="#DejaVuSans-75" x="87.447266"/>
      <use xlink:href="#DejaVuSans-74" x="150.826172"/>
      <use xlink:href="#DejaVuSans-68" x="190.035156"/>
     </g>
    </g>
    <g id="line2d_17">
     <path d="M 1013.90625 131.456562 
L 1023.90625 131.456562 
L 1033.90625 131.456562 
" style="fill: none; stroke: #ff6347; stroke-linecap: square"/>
    </g>
    <g id="text_14">
     <!-- Gossip predictions -->
     <g transform="translate(1041.90625 134.956562) scale(0.1 -0.1)">
      <defs>
       <path id="DejaVuSans-47" d="M 3809 666 
L 3809 1919 
L 2778 1919 
L 2778 2438 
L 4434 2438 
L 4434 434 
Q 4069 175 3628 42 
Q 3188 -91 2688 -91 
Q 1594 -91 976 548 
Q 359 1188 359 2328 
Q 359 3472 976 4111 
Q 1594 4750 2688 4750 
Q 3144 4750 3555 4637 
Q 3966 4525 4313 4306 
L 4313 3634 
Q 3963 3931 3569 4081 
Q 3175 4231 2741 4231 
Q 1884 4231 1454 3753 
Q 1025 3275 1025 2328 
Q 1025 1384 1454 906 
Q 1884 428 2741 428 
Q 3075 428 3337 486 
Q 3600 544 3809 666 
z
" transform="scale(0.015625)"/>
       <path id="DejaVuSans-73" d="M 2834 3397 
L 2834 2853 
Q 2591 2978 2328 3040 
Q 2066 3103 1784 3103 
Q 1356 3103 1142 2972 
Q 928 2841 928 2578 
Q 928 2378 1081 2264 
Q 1234 2150 1697 2047 
L 1894 2003 
Q 2506 1872 2764 1633 
Q 3022 1394 3022 966 
Q 3022 478 2636 193 
Q 2250 -91 1575 -91 
Q 1294 -91 989 -36 
Q 684 19 347 128 
L 347 722 
Q 666 556 975 473 
Q 1284 391 1588 391 
Q 1994 391 2212 530 
Q 2431 669 2431 922 
Q 2431 1156 2273 1281 
Q 2116 1406 1581 1522 
L 1381 1569 
Q 847 1681 609 1914 
Q 372 2147 372 2553 
Q 372 3047 722 3315 
Q 1072 3584 1716 3584 
Q 2034 3584 2315 3537 
Q 2597 3491 2834 3397 
z
" transform="scale(0.015625)"/>
       <path id="DejaVuSans-70" d="M 1159 525 
L 1159 -1331 
L 581 -1331 
L 581 3500 
L 1159 3500 
L 1159 2969 
Q 1341 3281 1617 3432 
Q 1894 3584 2278 3584 
Q 2916 3584 3314 3078 
Q 3713 2572 3713 1747 
Q 3713 922 3314 415 
Q 2916 -91 2278 -91 
Q 1894 -91 1617 61 
Q 1341 213 1159 525 
z
M 3116 1747 
Q 3116 2381 2855 2742 
Q 2594 3103 2138 3103 
Q 1681 3103 1420 2742 
Q 1159 2381 1159 1747 
Q 1159 1113 1420 752 
Q 1681 391 2138 391 
Q 2594 391 2855 752 
Q 3116 1113 3116 1747 
z
" transform="scale(0.015625)"/>
       <path id="DejaVuSans-65" d="M 3597 1894 
L 3597 1613 
L 953 1613 
Q 991 1019 1311 708 
Q 1631 397 2203 397 
Q 2534 397 2845 478 
Q 3156 559 3463 722 
L 3463 178 
Q 3153 47 2828 -22 
Q 2503 -91 2169 -91 
Q 1331 -91 842 396 
Q 353 884 353 1716 
Q 353 2575 817 3079 
Q 1281 3584 2069 3584 
Q 2775 3584 3186 3129 
Q 3597 2675 3597 1894 
z
M 3022 2063 
Q 3016 2534 2758 2815 
Q 2500 3097 2075 3097 
Q 1594 3097 1305 2825 
Q 1016 2553 972 2059 
L 3022 2063 
z
" transform="scale(0.015625)"/>
       <path id="DejaVuSans-64" d="M 2906 2969 
L 2906 4863 
L 3481 4863 
L 3481 0 
L 2906 0 
L 2906 525 
Q 2725 213 2448 61 
Q 2172 -91 1784 -91 
Q 1150 -91 751 415 
Q 353 922 353 1747 
Q 353 2572 751 3078 
Q 1150 3584 1784 3584 
Q 2172 3584 2448 3432 
Q 2725 3281 2906 2969 
z
M 947 1747 
Q 947 1113 1208 752 
Q 1469 391 1925 391 
Q 2381 391 2643 752 
Q 2906 1113 2906 1747 
Q 2906 2381 2643 2742 
Q 2381 3103 1925 3103 
Q 1469 3103 1208 2742 
Q 947 2381 947 1747 
z
" transform="scale(0.015625)"/>
      </defs>
      <use xlink:href="#DejaVuSans-47"/>
      <use xlink:href="#DejaVuSans-6f" x="77.490234"/>
      <use xlink:href="#DejaVuSans-73" x="138.671875"/>
      <use xlink:href="#DejaVuSans-73" x="190.771484"/>
      <use xlink:href="#DejaVuSans-69" x="242.871094"/>
      <use xlink:href="#DejaVuSans-70" x="270.654297"/>
      <use xlink:href="#DejaVuSans-20" x="334.130859"/>
      <use xlink:href="#DejaVuSans-70" x="365.917969"/>
      <use xlink:href="#DejaVuSans-72" x="429.394531"/>
      <use xlink:href="#DejaVuSans-65" x="468.257812"/>
      <use xlink:href="#DejaVuSans-64" x="529.78125"/>
      <use xlink:href="#DejaVuSans-69" x="593.257812"/>
      <use xlink:href="#DejaVuSans-63" x="621.041016"/>
      <use xlink:href="#DejaVuSans-74" x="676.021484"/>
      <use xlink:href="#DejaVuSans-69" x="715.230469"/>
      <use xlink:href="#DejaVuSans-6f" x="743.013672"/>
      <use xlink:href="#DejaVuSans-6e" x="804.195312"/>
      <use xlink:href="#DejaVuSans-73" x="867.574219"/>
     </g>
    </g>
    <g id="line2d_18">
     <path d="M 1013.90625 146.134687 
L 1023.90625 146.134687 
L 1033.90625 146.134687 
" style="fill: none; stroke: #da70d6; stroke-linecap: square"/>
    </g>
    <g id="text_15">
     <!-- Centralized predictions -->
     <g transform="translate(1041.90625 149.634687) scale(0.1 -0.1)">
      <defs>
       <path id="DejaVuSans-43" d="M 4122 4306 
L 4122 3641 
Q 3803 3938 3442 4084 
Q 3081 4231 2675 4231 
Q 1875 4231 1450 3742 
Q 1025 3253 1025 2328 
Q 1025 1406 1450 917 
Q 1875 428 2675 428 
Q 3081 428 3442 575 
Q 3803 722 4122 1019 
L 4122 359 
Q 3791 134 3420 21 
Q 3050 -91 2638 -91 
Q 1578 -91 968 557 
Q 359 1206 359 2328 
Q 359 3453 968 4101 
Q 1578 4750 2638 4750 
Q 3056 4750 3426 4639 
Q 3797 4528 4122 4306 
z
" transform="scale(0.015625)"/>
       <path id="DejaVuSans-61" d="M 2194 1759 
Q 1497 1759 1228 1600 
Q 959 1441 959 1056 
Q 959 750 1161 570 
Q 1363 391 1709 391 
Q 2188 391 2477 730 
Q 2766 1069 2766 1631 
L 2766 1759 
L 2194 1759 
z
M 3341 1997 
L 3341 0 
L 2766 0 
L 2766 531 
Q 2569 213 2275 61 
Q 1981 -91 1556 -91 
Q 1019 -91 701 211 
Q 384 513 384 1019 
Q 384 1609 779 1909 
Q 1175 2209 1959 2209 
L 2766 2209 
L 2766 2266 
Q 2766 2663 2505 2880 
Q 2244 3097 1772 3097 
Q 1472 3097 1187 3025 
Q 903 2953 641 2809 
L 641 3341 
Q 956 3463 1253 3523 
Q 1550 3584 1831 3584 
Q 2591 3584 2966 3190 
Q 3341 2797 3341 1997 
z
" transform="scale(0.015625)"/>
       <path id="DejaVuSans-6c" d="M 603 4863 
L 1178 4863 
L 1178 0 
L 603 0 
L 603 4863 
z
" transform="scale(0.015625)"/>
       <path id="DejaVuSans-7a" d="M 353 3500 
L 3084 3500 
L 3084 2975 
L 922 459 
L 3084 459 
L 3084 0 
L 275 0 
L 275 525 
L 2438 3041 
L 353 3041 
L 353 3500 
z
" transform="scale(0.015625)"/>
      </defs>
      <use xlink:href="#DejaVuSans-43"/>
      <use xlink:href="#DejaVuSans-65" x="69.824219"/>
      <use xlink:href="#DejaVuSans-6e" x="131.347656"/>
      <use xlink:href="#DejaVuSans-74" x="194.726562"/>
      <use xlink:href="#DejaVuSans-72" x="233.935547"/>
      <use xlink:href="#DejaVuSans-61" x="275.048828"/>
      <use xlink:href="#DejaVuSans-6c" x="336.328125"/>
      <use xlink:href="#DejaVuSans-69" x="364.111328"/>
      <use xlink:href="#DejaVuSans-7a" x="391.894531"/>
      <use xlink:href="#DejaVuSans-65" x="444.384766"/>
      <use xlink:href="#DejaVuSans-64" x="505.908203"/>
      <use xlink:href="#DejaVuSans-20" x="569.384766"/>
      <use xlink:href="#DejaVuSans-70" x="601.171875"/>
      <use xlink:href="#DejaVuSans-72" x="664.648438"/>
      <use xlink:href="#DejaVuSans-65" x="703.511719"/>
      <use xlink:href="#DejaVuSans-64" x="765.035156"/>
      <use xlink:href="#DejaVuSans-69" x="828.511719"/>
      <use xlink:href="#DejaVuSans-63" x="856.294922"/>
      <use xlink:href="#DejaVuSans-74" x="911.275391"/>
      <use xlink:href="#DejaVuSans-69" x="950.484375"/>
      <use xlink:href="#DejaVuSans-6f" x="978.267578"/>
      <use xlink:href="#DejaVuSans-6e" x="1039.449219"/>
      <use xlink:href="#DejaVuSans-73" x="1102.828125"/>
     </g>
    </g>
    <g id="line2d_19">
     <path d="M 1013.90625 160.812812 
L 1023.90625 160.812812 
L 1033.90625 160.812812 
" style="fill: none; stroke: #8fbc8f; stroke-linecap: square"/>
    </g>
    <g id="text_16">
     <!-- Single predictions -->
     <g transform="translate(1041.90625 164.312812) scale(0.1 -0.1)">
      <defs>
       <path id="DejaVuSans-53" d="M 3425 4513 
L 3425 3897 
Q 3066 4069 2747 4153 
Q 2428 4238 2131 4238 
Q 1616 4238 1336 4038 
Q 1056 3838 1056 3469 
Q 1056 3159 1242 3001 
Q 1428 2844 1947 2747 
L 2328 2669 
Q 3034 2534 3370 2195 
Q 3706 1856 3706 1288 
Q 3706 609 3251 259 
Q 2797 -91 1919 -91 
Q 1588 -91 1214 -16 
Q 841 59 441 206 
L 441 856 
Q 825 641 1194 531 
Q 1563 422 1919 422 
Q 2459 422 2753 634 
Q 3047 847 3047 1241 
Q 3047 1584 2836 1778 
Q 2625 1972 2144 2069 
L 1759 2144 
Q 1053 2284 737 2584 
Q 422 2884 422 3419 
Q 422 4038 858 4394 
Q 1294 4750 2059 4750 
Q 2388 4750 2728 4690 
Q 3069 4631 3425 4513 
z
" transform="scale(0.015625)"/>
       <path id="DejaVuSans-67" d="M 2906 1791 
Q 2906 2416 2648 2759 
Q 2391 3103 1925 3103 
Q 1463 3103 1205 2759 
Q 947 2416 947 1791 
Q 947 1169 1205 825 
Q 1463 481 1925 481 
Q 2391 481 2648 825 
Q 2906 1169 2906 1791 
z
M 3481 434 
Q 3481 -459 3084 -895 
Q 2688 -1331 1869 -1331 
Q 1566 -1331 1297 -1286 
Q 1028 -1241 775 -1147 
L 775 -588 
Q 1028 -725 1275 -790 
Q 1522 -856 1778 -856 
Q 2344 -856 2625 -561 
Q 2906 -266 2906 331 
L 2906 616 
Q 2728 306 2450 153 
Q 2172 0 1784 0 
Q 1141 0 747 490 
Q 353 981 353 1791 
Q 353 2603 747 3093 
Q 1141 3584 1784 3584 
Q 2172 3584 2450 3431 
Q 2728 3278 2906 2969 
L 2906 3500 
L 3481 3500 
L 3481 434 
z
" transform="scale(0.015625)"/>
      </defs>
      <use xlink:href="#DejaVuSans-53"/>
      <use xlink:href="#DejaVuSans-69" x="63.476562"/>
      <use xlink:href="#DejaVuSans-6e" x="91.259766"/>
      <use xlink:href="#DejaVuSans-67" x="154.638672"/>
      <use xlink:href="#DejaVuSans-6c" x="218.115234"/>
      <use xlink:href="#DejaVuSans-65" x="245.898438"/>
      <use xlink:href="#DejaVuSans-20" x="307.421875"/>
      <use xlink:href="#DejaVuSans-70" x="339.208984"/>
      <use xlink:href="#DejaVuSans-72" x="402.685547"/>
      <use xlink:href="#DejaVuSans-65" x="441.548828"/>
      <use xlink:href="#DejaVuSans-64" x="503.072266"/>
      <use xlink:href="#DejaVuSans-69" x="566.548828"/>
      <use xlink:href="#DejaVuSans-63" x="594.332031"/>
      <use xlink:href="#DejaVuSans-74" x="649.3125"/>
      <use xlink:href="#DejaVuSans-69" x="688.521484"/>
      <use xlink:href="#DejaVuSans-6f" x="716.304688"/>
      <use xlink:href="#DejaVuSans-6e" x="777.486328"/>
      <use xlink:href="#DejaVuSans-73" x="840.865234"/>
     </g>
    </g>
   </g>
  </g>
 </g>
 <defs>
  <clipPath id="p9dbc371f2d">
   <rect x="162" y="103.68" width="1004.4" height="665.28"/>
  </clipPath>
 </defs>
</svg>
