<?xml version="1.0" encoding="utf-8" standalone="no"?>
<!DOCTYPE svg PUBLIC "-//W3C//DTD SVG 1.1//EN"
  "http://www.w3.org/Graphics/SVG/1.1/DTD/svg11.dtd">
<svg xmlns:xlink="http://www.w3.org/1999/xlink" width="1296pt" height="864pt" viewBox="0 0 1296 864" xmlns="http://www.w3.org/2000/svg" version="1.1">
 <metadata>
  <rdf:RDF xmlns:dc="http://purl.org/dc/elements/1.1/" xmlns:cc="http://creativecommons.org/ns#" xmlns:rdf="http://www.w3.org/1999/02/22-rdf-syntax-ns#">
   <cc:Work>
    <dc:type rdf:resource="http://purl.org/dc/dcmitype/StillImage"/>
    <dc:date>2024-01-06T09:43:20.466928</dc:date>
    <dc:format>image/svg+xml</dc:format>
    <dc:creator>
     <cc:Agent>
      <dc:title>Matplotlib v3.8.0, https://matplotlib.org/</dc:title>
     </cc:Agent>
    </dc:creator>
   </cc:Work>
  </rdf:RDF>
 </metadata>
 <defs>
  <style type="text/css">*{stroke-linejoin: round; stroke-linecap: butt}</style>
 </defs>
 <g id="figure_1">
  <g id="patch_1">
   <path d="M 0 864 
L 1296 864 
L 1296 0 
L 0 0 
z
" style="fill: #ffffff"/>
  </g>
  <g id="axes_1">
   <g id="patch_2">
    <path d="M 162 768.96 
L 1166.4 768.96 
L 1166.4 103.68 
L 162 103.68 
z
" style="fill: #ffffff"/>
   </g>
   <g id="matplotlib.axis_1">
    <g id="xtick_1">
     <g id="line2d_1">
      <defs>
       <path id="m2046f5f124" d="M 0 0 
L 0 3.5 
" style="stroke: #000000; stroke-width: 0.8"/>
      </defs>
      <g>
       <use xlink:href="#m2046f5f124" x="207.654545" y="768.96" style="stroke: #000000; stroke-width: 0.8"/>
      </g>
     </g>
     <g id="text_1">
      <!-- 0 -->
      <g transform="translate(204.473295 783.558437) scale(0.1 -0.1)">
       <defs>
        <path id="DejaVuSans-30" d="M 2034 4250 
Q 1547 4250 1301 3770 
Q 1056 3291 1056 2328 
Q 1056 1369 1301 889 
Q 1547 409 2034 409 
Q 2525 409 2770 889 
Q 3016 1369 3016 2328 
Q 3016 3291 2770 3770 
Q 2525 4250 2034 4250 
z
M 2034 4750 
Q 2819 4750 3233 4129 
Q 3647 3509 3647 2328 
Q 3647 1150 3233 529 
Q 2819 -91 2034 -91 
Q 1250 -91 836 529 
Q 422 1150 422 2328 
Q 422 3509 836 4129 
Q 1250 4750 2034 4750 
z
" transform="scale(0.015625)"/>
       </defs>
       <use xlink:href="#DejaVuSans-30"/>
      </g>
     </g>
    </g>
    <g id="xtick_2">
     <g id="line2d_2">
      <g>
       <use xlink:href="#m2046f5f124" x="390.638696" y="768.96" style="stroke: #000000; stroke-width: 0.8"/>
      </g>
     </g>
     <g id="text_2">
      <!-- 100 -->
      <g transform="translate(381.094946 783.558437) scale(0.1 -0.1)">
       <defs>
        <path id="DejaVuSans-31" d="M 794 531 
L 1825 531 
L 1825 4091 
L 703 3866 
L 703 4441 
L 1819 4666 
L 2450 4666 
L 2450 531 
L 3481 531 
L 3481 0 
L 794 0 
L 794 531 
z
" transform="scale(0.015625)"/>
       </defs>
       <use xlink:href="#DejaVuSans-31"/>
       <use xlink:href="#DejaVuSans-30" x="63.623047"/>
       <use xlink:href="#DejaVuSans-30" x="127.246094"/>
      </g>
     </g>
    </g>
    <g id="xtick_3">
     <g id="line2d_3">
      <g>
       <use xlink:href="#m2046f5f124" x="573.622846" y="768.96" style="stroke: #000000; stroke-width: 0.8"/>
      </g>
     </g>
     <g id="text_3">
      <!-- 200 -->
      <g transform="translate(564.079096 783.558437) scale(0.1 -0.1)">
       <defs>
        <path id="DejaVuSans-32" d="M 1228 531 
L 3431 531 
L 3431 0 
L 469 0 
L 469 531 
Q 828 903 1448 1529 
Q 2069 2156 2228 2338 
Q 2531 2678 2651 2914 
Q 2772 3150 2772 3378 
Q 2772 3750 2511 3984 
Q 2250 4219 1831 4219 
Q 1534 4219 1204 4116 
Q 875 4013 500 3803 
L 500 4441 
Q 881 4594 1212 4672 
Q 1544 4750 1819 4750 
Q 2544 4750 2975 4387 
Q 3406 4025 3406 3419 
Q 3406 3131 3298 2873 
Q 3191 2616 2906 2266 
Q 2828 2175 2409 1742 
Q 1991 1309 1228 531 
z
" transform="scale(0.015625)"/>
       </defs>
       <use xlink:href="#DejaVuSans-32"/>
       <use xlink:href="#DejaVuSans-30" x="63.623047"/>
       <use xlink:href="#DejaVuSans-30" x="127.246094"/>
      </g>
     </g>
    </g>
    <g id="xtick_4">
     <g id="line2d_4">
      <g>
       <use xlink:href="#m2046f5f124" x="756.606996" y="768.96" style="stroke: #000000; stroke-width: 0.8"/>
      </g>
     </g>
     <g id="text_4">
      <!-- 300 -->
      <g transform="translate(747.063246 783.558437) scale(0.1 -0.1)">
       <defs>
        <path id="DejaVuSans-33" d="M 2597 2516 
Q 3050 2419 3304 2112 
Q 3559 1806 3559 1356 
Q 3559 666 3084 287 
Q 2609 -91 1734 -91 
Q 1441 -91 1130 -33 
Q 819 25 488 141 
L 488 750 
Q 750 597 1062 519 
Q 1375 441 1716 441 
Q 2309 441 2620 675 
Q 2931 909 2931 1356 
Q 2931 1769 2642 2001 
Q 2353 2234 1838 2234 
L 1294 2234 
L 1294 2753 
L 1863 2753 
Q 2328 2753 2575 2939 
Q 2822 3125 2822 3475 
Q 2822 3834 2567 4026 
Q 2313 4219 1838 4219 
Q 1578 4219 1281 4162 
Q 984 4106 628 3988 
L 628 4550 
Q 988 4650 1302 4700 
Q 1616 4750 1894 4750 
Q 2613 4750 3031 4423 
Q 3450 4097 3450 3541 
Q 3450 3153 3228 2886 
Q 3006 2619 2597 2516 
z
" transform="scale(0.015625)"/>
       </defs>
       <use xlink:href="#DejaVuSans-33"/>
       <use xlink:href="#DejaVuSans-30" x="63.623047"/>
       <use xlink:href="#DejaVuSans-30" x="127.246094"/>
      </g>
     </g>
    </g>
    <g id="xtick_5">
     <g id="line2d_5">
      <g>
       <use xlink:href="#m2046f5f124" x="939.591146" y="768.96" style="stroke: #000000; stroke-width: 0.8"/>
      </g>
     </g>
     <g id="text_5">
      <!-- 400 -->
      <g transform="translate(930.047396 783.558437) scale(0.1 -0.1)">
       <defs>
        <path id="DejaVuSans-34" d="M 2419 4116 
L 825 1625 
L 2419 1625 
L 2419 4116 
z
M 2253 4666 
L 3047 4666 
L 3047 1625 
L 3713 1625 
L 3713 1100 
L 3047 1100 
L 3047 0 
L 2419 0 
L 2419 1100 
L 313 1100 
L 313 1709 
L 2253 4666 
z
" transform="scale(0.015625)"/>
       </defs>
       <use xlink:href="#DejaVuSans-34"/>
       <use xlink:href="#DejaVuSans-30" x="63.623047"/>
       <use xlink:href="#DejaVuSans-30" x="127.246094"/>
      </g>
     </g>
    </g>
    <g id="xtick_6">
     <g id="line2d_6">
      <g>
       <use xlink:href="#m2046f5f124" x="1122.575296" y="768.96" style="stroke: #000000; stroke-width: 0.8"/>
      </g>
     </g>
     <g id="text_6">
      <!-- 500 -->
      <g transform="translate(1113.031546 783.558437) scale(0.1 -0.1)">
       <defs>
        <path id="DejaVuSans-35" d="M 691 4666 
L 3169 4666 
L 3169 4134 
L 1269 4134 
L 1269 2991 
Q 1406 3038 1543 3061 
Q 1681 3084 1819 3084 
Q 2600 3084 3056 2656 
Q 3513 2228 3513 1497 
Q 3513 744 3044 326 
Q 2575 -91 1722 -91 
Q 1428 -91 1123 -41 
Q 819 9 494 109 
L 494 744 
Q 775 591 1075 516 
Q 1375 441 1709 441 
Q 2250 441 2565 725 
Q 2881 1009 2881 1497 
Q 2881 1984 2565 2268 
Q 2250 2553 1709 2553 
Q 1456 2553 1204 2497 
Q 953 2441 691 2322 
L 691 4666 
z
" transform="scale(0.015625)"/>
       </defs>
       <use xlink:href="#DejaVuSans-35"/>
       <use xlink:href="#DejaVuSans-30" x="63.623047"/>
       <use xlink:href="#DejaVuSans-30" x="127.246094"/>
      </g>
     </g>
    </g>
   </g>
   <g id="matplotlib.axis_2">
    <g id="ytick_1">
     <g id="line2d_7">
      <defs>
       <path id="m41358ff0d9" d="M 0 0 
L -3.5 0 
" style="stroke: #000000; stroke-width: 0.8"/>
      </defs>
      <g>
       <use xlink:href="#m41358ff0d9" x="162" y="755.999134" style="stroke: #000000; stroke-width: 0.8"/>
      </g>
     </g>
     <g id="text_7">
      <!-- 0 -->
      <g transform="translate(148.6375 759.798352) scale(0.1 -0.1)">
       <use xlink:href="#DejaVuSans-30"/>
      </g>
     </g>
    </g>
    <g id="ytick_2">
     <g id="line2d_8">
      <g>
       <use xlink:href="#m41358ff0d9" x="162" y="648.004548" style="stroke: #000000; stroke-width: 0.8"/>
      </g>
     </g>
     <g id="text_8">
      <!-- 50 -->
      <g transform="translate(142.275 651.803767) scale(0.1 -0.1)">
       <use xlink:href="#DejaVuSans-35"/>
       <use xlink:href="#DejaVuSans-30" x="63.623047"/>
      </g>
     </g>
    </g>
    <g id="ytick_3">
     <g id="line2d_9">
      <g>
       <use xlink:href="#m41358ff0d9" x="162" y="540.009963" style="stroke: #000000; stroke-width: 0.8"/>
      </g>
     </g>
     <g id="text_9">
      <!-- 100 -->
      <g transform="translate(135.9125 543.809181) scale(0.1 -0.1)">
       <use xlink:href="#DejaVuSans-31"/>
       <use xlink:href="#DejaVuSans-30" x="63.623047"/>
       <use xlink:href="#DejaVuSans-30" x="127.246094"/>
      </g>
     </g>
    </g>
    <g id="ytick_4">
     <g id="line2d_10">
      <g>
       <use xlink:href="#m41358ff0d9" x="162" y="432.015377" style="stroke: #000000; stroke-width: 0.8"/>
      </g>
     </g>
     <g id="text_10">
      <!-- 150 -->
      <g transform="translate(135.9125 435.814596) scale(0.1 -0.1)">
       <use xlink:href="#DejaVuSans-31"/>
       <use xlink:href="#DejaVuSans-35" x="63.623047"/>
       <use xlink:href="#DejaVuSans-30" x="127.246094"/>
      </g>
     </g>
    </g>
    <g id="ytick_5">
     <g id="line2d_11">
      <g>
       <use xlink:href="#m41358ff0d9" x="162" y="324.020791" style="stroke: #000000; stroke-width: 0.8"/>
      </g>
     </g>
     <g id="text_11">
      <!-- 200 -->
      <g transform="translate(135.9125 327.82001) scale(0.1 -0.1)">
       <use xlink:href="#DejaVuSans-32"/>
       <use xlink:href="#DejaVuSans-30" x="63.623047"/>
       <use xlink:href="#DejaVuSans-30" x="127.246094"/>
      </g>
     </g>
    </g>
    <g id="ytick_6">
     <g id="line2d_12">
      <g>
       <use xlink:href="#m41358ff0d9" x="162" y="216.026206" style="stroke: #000000; stroke-width: 0.8"/>
      </g>
     </g>
     <g id="text_12">
      <!-- 250 -->
      <g transform="translate(135.9125 219.825425) scale(0.1 -0.1)">
       <use xlink:href="#DejaVuSans-32"/>
       <use xlink:href="#DejaVuSans-35" x="63.623047"/>
       <use xlink:href="#DejaVuSans-30" x="127.246094"/>
      </g>
     </g>
    </g>
    <g id="ytick_7">
     <g id="line2d_13">
      <g>
       <use xlink:href="#m41358ff0d9" x="162" y="108.03162" style="stroke: #000000; stroke-width: 0.8"/>
      </g>
     </g>
     <g id="text_13">
      <!-- 300 -->
      <g transform="translate(135.9125 111.830839) scale(0.1 -0.1)">
       <use xlink:href="#DejaVuSans-33"/>
       <use xlink:href="#DejaVuSans-30" x="63.623047"/>
       <use xlink:href="#DejaVuSans-30" x="127.246094"/>
      </g>
     </g>
    </g>
   </g>
   <g id="line2d_14">
    <path d="M 207.654545 632.885306 
L 209.484387 578.888013 
L 211.314228 676.08314 
L 213.14407 682.562815 
L 214.973911 678.243032 
L 216.803753 654.484223 
L 218.633594 643.684765 
L 220.463436 643.684765 
L 222.293277 624.245739 
L 224.123119 648.004548 
L 225.95296 667.443574 
L 227.782802 552.969313 
L 229.612643 717.121083 
L 231.442485 671.763357 
L 233.272326 714.961191 
L 235.102168 632.885306 
L 236.932009 652.324332 
L 238.761851 557.289096 
L 240.591692 483.852778 
L 242.421534 254.904257 
L 244.251375 282.982849 
L 246.081217 280.822957 
L 247.911058 177.148155 
L 249.7409 213.866314 
L 251.570741 177.148155 
L 255.230424 177.148155 
L 257.060266 233.305339 
L 258.890107 177.148155 
L 268.039315 177.148155 
L 269.869156 231.145448 
L 271.698998 177.148155 
L 273.528839 347.7796 
L 275.358681 177.148155 
L 277.188522 274.343282 
L 279.018364 235.465231 
L 280.848206 317.541116 
L 282.678047 177.148155 
L 299.146621 177.148155 
L 300.976462 332.660358 
L 302.806304 367.218626 
L 306.465987 177.148155 
L 308.295828 213.866314 
L 310.12567 412.576352 
L 311.955511 444.974727 
L 313.785353 486.01267 
L 315.615194 177.148155 
L 317.445036 332.660358 
L 319.274877 313.221333 
L 321.104719 544.329746 
L 322.93456 434.175269 
L 324.764402 438.495052 
L 326.594243 449.294511 
L 328.424085 578.888013 
L 330.253926 561.60888 
L 332.083768 533.530287 
L 333.913609 494.652237 
L 335.743451 421.215918 
L 337.573292 408.256568 
L 339.403134 555.129205 
L 341.232975 427.695594 
L 343.062817 419.056027 
L 344.892658 520.570937 
L 346.7225 460.093969 
L 348.552341 594.007255 
L 350.382183 498.97202 
L 352.212024 546.489638 
L 354.041866 537.850071 
L 355.871707 501.131912 
L 357.701549 585.367688 
L 359.53139 648.004548 
L 361.361232 583.207797 
L 363.191073 483.852778 
L 365.020915 470.893428 
L 366.850756 395.297218 
L 368.680598 466.573644 
L 370.510439 628.565523 
L 372.340281 490.332453 
L 374.170122 224.665773 
L 375.999964 241.944906 
L 377.829805 315.381225 
L 379.659647 401.776893 
L 381.489488 524.890721 
L 383.31933 427.695594 
L 385.149171 382.337868 
L 386.979013 367.218626 
L 388.808854 298.102091 
L 390.638696 177.148155 
L 392.468537 222.505881 
L 394.298379 334.82025 
L 396.12822 354.259275 
L 397.958062 341.299925 
L 399.787903 425.535702 
L 401.617745 293.782307 
L 403.447586 280.822957 
L 405.277428 440.654944 
L 407.107269 326.180683 
L 408.937111 555.129205 
L 410.766952 632.885306 
L 412.596794 576.728122 
L 414.426635 524.890721 
L 416.256477 635.045198 
L 418.086318 689.042491 
L 419.91616 581.047905 
L 421.746001 518.411045 
L 423.575843 637.20509 
L 425.405684 559.448988 
L 427.235526 490.332453 
L 429.065367 583.207797 
L 430.895209 425.535702 
L 432.72505 565.928663 
L 434.554892 479.532995 
L 436.384733 600.48693 
L 438.214575 527.050612 
L 440.044416 492.492345 
L 441.874258 483.852778 
L 443.704099 535.690179 
L 445.533941 542.169854 
L 447.363782 371.538409 
L 449.193624 531.370396 
L 451.023465 246.26469 
L 452.853307 503.291803 
L 454.683148 650.16444 
L 456.51299 630.725414 
L 458.342831 524.890721 
L 460.172673 449.294511 
L 462.002514 464.413753 
L 463.832356 544.329746 
L 465.662197 233.305339 
L 467.492039 313.221333 
L 469.32188 501.131912 
L 471.151722 522.730829 
L 472.981563 635.045198 
L 474.811405 563.768771 
L 476.641246 576.728122 
L 478.471088 529.210504 
L 480.300929 557.289096 
L 482.130771 645.844656 
L 483.960612 583.207797 
L 485.790454 576.728122 
L 487.620295 611.286389 
L 489.450137 660.963898 
L 491.279978 639.364981 
L 493.10982 546.489638 
L 494.939661 498.97202 
L 496.769503 544.329746 
L 498.599344 568.088555 
L 500.429186 576.728122 
L 502.259027 410.41646 
L 504.088869 518.411045 
L 505.91871 574.56823 
L 507.748552 600.48693 
L 509.578393 494.652237 
L 511.408235 591.847364 
L 513.238076 550.809421 
L 515.067918 611.286389 
L 516.897759 574.56823 
L 518.727601 639.364981 
L 520.557442 617.766064 
L 522.387284 630.725414 
L 524.217125 425.535702 
L 526.046967 611.286389 
L 527.876808 563.768771 
L 529.70665 501.131912 
L 531.536491 637.20509 
L 533.366333 498.97202 
L 535.196174 684.722707 
L 537.026016 702.001841 
L 538.855857 717.121083 
L 540.685699 494.652237 
L 542.51554 578.888013 
L 544.345382 738.72 
L 546.175223 714.961191 
L 548.005065 652.324332 
L 549.834906 686.882599 
L 551.664748 652.324332 
L 553.494589 702.001841 
L 555.324431 643.684765 
L 557.154272 635.045198 
L 558.984114 654.484223 
L 560.813955 693.362274 
L 562.643797 561.60888 
L 564.473638 622.085848 
L 566.30348 689.042491 
L 568.133321 632.885306 
L 569.963163 699.841949 
L 571.793004 723.600758 
L 573.622846 667.443574 
L 575.452687 645.844656 
L 577.282529 738.72 
L 579.11237 673.923249 
L 580.942212 676.08314 
L 582.772053 611.286389 
L 584.601895 691.202382 
L 586.431736 602.646822 
L 588.261578 615.606172 
L 590.091419 559.448988 
L 591.921261 408.256568 
L 593.751102 192.267397 
L 595.580944 380.177976 
L 597.410785 211.706422 
L 599.240627 213.866314 
L 601.070468 177.148155 
L 602.90031 336.980142 
L 604.730151 177.148155 
L 606.559993 177.148155 
L 608.389834 285.142741 
L 610.219676 177.148155 
L 613.879359 177.148155 
L 615.7092 235.465231 
L 617.539042 192.267397 
L 619.368883 177.148155 
L 621.198725 356.419167 
L 623.028566 241.944906 
L 624.858408 347.7796 
L 626.688249 177.148155 
L 628.518091 177.148155 
L 630.347932 194.427289 
L 632.177774 336.980142 
L 634.007615 192.267397 
L 635.837457 282.982849 
L 637.667298 354.259275 
L 639.49714 177.148155 
L 644.986664 177.148155 
L 646.816506 362.898842 
L 648.646347 177.148155 
L 650.476189 308.901549 
L 652.30603 198.747072 
L 654.135872 287.302632 
L 655.965713 177.148155 
L 657.795555 328.340575 
L 659.625396 280.822957 
L 661.455238 285.142741 
L 663.285079 358.579059 
L 665.114921 177.148155 
L 666.944762 213.866314 
L 668.774604 343.459817 
L 670.604445 177.148155 
L 672.434287 177.148155 
L 674.264128 390.977434 
L 676.09397 270.023499 
L 677.923811 179.308047 
L 679.753653 308.901549 
L 681.583494 369.378517 
L 683.413336 492.492345 
L 685.243177 529.210504 
L 687.073019 628.565523 
L 688.90286 594.007255 
L 690.732702 511.93137 
L 692.562543 542.169854 
L 694.392385 481.692886 
L 696.222226 537.850071 
L 698.052068 544.329746 
L 699.881909 673.923249 
L 701.711751 581.047905 
L 703.541592 591.847364 
L 705.371434 682.562815 
L 707.201275 632.885306 
L 709.031117 656.644115 
L 710.860958 622.085848 
L 712.6908 650.16444 
L 714.520641 671.763357 
L 716.350483 606.966606 
L 718.180324 557.289096 
L 720.010166 628.565523 
L 721.840007 600.48693 
L 723.669849 548.649529 
L 725.49969 529.210504 
L 727.329532 537.850071 
L 729.159373 464.413753 
L 730.989215 546.489638 
L 732.819056 704.161733 
L 734.648898 684.722707 
L 736.478739 693.362274 
L 738.308581 708.481516 
L 740.138422 531.370396 
L 741.968264 561.60888 
L 743.798105 680.402924 
L 745.627947 602.646822 
L 747.457788 673.923249 
L 749.28763 706.321624 
L 751.117471 632.885306 
L 752.947313 732.240325 
L 754.777154 723.600758 
L 756.606996 609.126497 
L 758.436837 626.405631 
L 760.266679 635.045198 
L 762.09652 568.088555 
L 763.926362 619.925956 
L 765.756203 382.337868 
L 767.586045 436.33516 
L 769.415886 293.782307 
L 771.245728 349.939492 
L 773.075569 298.102091 
L 774.905411 177.148155 
L 793.203826 177.148155 
L 795.033667 345.619708 
L 796.863509 177.148155 
L 798.69335 278.663065 
L 800.523192 177.148155 
L 802.353033 235.465231 
L 804.182875 177.148155 
L 806.012716 250.584473 
L 807.842558 177.148155 
L 813.332082 177.148155 
L 815.161924 298.102091 
L 816.991765 177.148155 
L 822.48129 177.148155 
L 824.311131 198.747072 
L 826.140973 177.148155 
L 827.970814 315.381225 
L 829.800656 324.020791 
L 831.630497 289.462524 
L 833.460339 295.942199 
L 835.29018 384.497759 
L 837.120022 237.625123 
L 838.949863 257.064148 
L 840.779705 332.660358 
L 842.609546 177.148155 
L 844.439388 265.703715 
L 846.269229 382.337868 
L 848.099071 339.140033 
L 849.928912 319.701008 
L 851.758754 520.570937 
L 853.588595 520.570937 
L 855.418437 378.018084 
L 857.248278 460.093969 
L 859.07812 369.378517 
L 860.907961 552.969313 
L 862.737803 200.906964 
L 864.567644 544.329746 
L 866.397486 639.364981 
L 868.227327 550.809421 
L 870.057169 544.329746 
L 871.88701 576.728122 
L 873.716852 617.766064 
L 875.546693 637.20509 
L 877.376535 578.888013 
L 879.206376 548.649529 
L 881.036218 589.687472 
L 882.866059 568.088555 
L 884.695901 390.977434 
L 886.525742 419.056027 
L 888.355584 583.207797 
L 890.185425 626.405631 
L 892.015267 542.169854 
L 893.845108 470.893428 
L 895.67495 654.484223 
L 897.504791 576.728122 
L 899.334633 481.692886 
L 901.164474 587.52758 
L 902.994316 617.766064 
L 904.824157 589.687472 
L 906.653999 604.806714 
L 908.48384 615.606172 
L 910.313682 632.885306 
L 912.143523 686.882599 
L 913.973365 604.806714 
L 915.803206 632.885306 
L 917.633048 617.766064 
L 919.462889 600.48693 
L 921.292731 680.402924 
L 923.122572 475.213211 
L 924.952414 639.364981 
L 926.782255 511.93137 
L 928.612097 559.448988 
L 930.441938 665.283682 
L 932.27178 581.047905 
L 934.101621 673.923249 
L 935.931463 565.928663 
L 937.761304 648.004548 
L 939.591146 498.97202 
L 941.420987 494.652237 
L 943.250829 516.251154 
L 945.08067 328.340575 
L 946.910512 550.809421 
L 948.740353 399.617001 
L 950.570195 380.177976 
L 952.400036 319.701008 
L 954.229878 177.148155 
L 956.059719 177.148155 
L 957.889561 272.18339 
L 959.719402 222.505881 
L 961.549244 177.148155 
L 967.038768 177.148155 
L 968.86861 194.427289 
L 970.698451 244.104798 
L 972.528293 177.148155 
L 974.358134 270.023499 
L 976.187976 198.747072 
L 978.017817 406.096676 
L 979.847659 177.148155 
L 981.6775 613.446281 
L 983.507342 282.982849 
L 985.337183 339.140033 
L 987.167025 421.215918 
L 988.996866 429.855485 
L 990.826708 207.386639 
L 992.656549 177.148155 
L 999.975915 177.148155 
L 1001.805757 358.579059 
L 1003.635598 177.148155 
L 1005.46544 362.898842 
L 1007.295281 375.858192 
L 1009.125123 177.148155 
L 1016.444489 177.148155 
L 1018.27433 231.145448 
L 1020.104172 177.148155 
L 1021.934013 252.744365 
L 1023.763855 278.663065 
L 1025.593696 177.148155 
L 1029.253379 177.148155 
L 1031.083221 239.785015 
L 1032.913062 533.530287 
L 1034.742904 270.023499 
L 1036.572745 177.148155 
L 1038.402587 177.148155 
L 1040.232428 393.137326 
L 1042.06227 522.730829 
L 1043.892111 382.337868 
L 1045.721953 490.332453 
L 1047.551794 378.018084 
L 1049.381636 393.137326 
L 1051.211478 319.701008 
L 1053.041319 537.850071 
L 1054.871161 393.137326 
L 1056.701002 524.890721 
L 1058.530844 464.413753 
L 1060.360685 362.898842 
L 1062.190527 311.061441 
L 1064.020368 209.546531 
L 1065.85021 311.061441 
L 1067.680051 371.538409 
L 1069.509893 334.82025 
L 1071.339734 319.701008 
L 1073.169576 224.665773 
L 1074.999417 349.939492 
L 1076.829259 386.657651 
L 1078.6591 235.465231 
L 1080.488942 205.226747 
L 1082.318783 185.787722 
L 1084.148625 380.177976 
L 1085.978466 412.576352 
L 1087.808308 432.015377 
L 1089.638149 209.546531 
L 1091.467991 276.503174 
L 1093.297832 254.904257 
L 1095.127674 371.538409 
L 1096.957515 177.148155 
L 1098.787357 486.01267 
L 1100.617198 291.622416 
L 1102.44704 358.579059 
L 1104.276881 257.064148 
L 1106.106723 520.570937 
L 1107.936564 408.256568 
L 1109.766406 473.053319 
L 1111.596247 442.814836 
L 1113.426089 501.131912 
L 1115.25593 399.617001 
L 1117.085772 531.370396 
L 1118.915613 453.614294 
L 1120.745455 617.766064 
L 1120.745455 617.766064 
" clip-path="url(#pf491f468d0)" style="fill: none; stroke: #4169e1; stroke-linecap: square"/>
   </g>
   <g id="line2d_15">
    <path d="M 207.654545 625.53784 
L 209.484387 617.237132 
L 211.314228 579.972441 
L 213.14407 615.946292 
L 214.973911 625.709103 
L 216.803753 628.011222 
L 218.633594 619.234107 
L 220.463436 614.953551 
L 222.293277 611.941235 
L 224.123119 599.060652 
L 225.95296 609.108255 
L 227.782802 614.846341 
L 229.612643 554.000663 
L 231.442485 619.177932 
L 233.272326 612.069571 
L 235.102168 644.220214 
L 236.932009 622.035299 
L 238.761851 619.029821 
L 240.591692 575.534226 
L 242.421534 493.141374 
L 244.251375 367.301711 
L 246.081217 303.709122 
L 247.911058 244.509679 
L 249.7409 221.755706 
L 251.570741 222.445042 
L 253.400583 216.271375 
L 255.230424 214.892012 
L 257.060266 213.080776 
L 258.890107 218.473914 
L 260.719949 214.294397 
L 262.54979 213.398979 
L 264.379632 215.657842 
L 266.209473 215.956534 
L 268.039315 216.40416 
L 269.869156 216.47024 
L 271.698998 219.085602 
L 273.528839 214.472103 
L 275.358681 256.033968 
L 277.188522 228.19224 
L 279.018364 251.305382 
L 280.848206 238.178707 
L 282.678047 268.464254 
L 284.507889 235.671907 
L 286.33773 222.793302 
L 288.167572 215.81841 
L 289.997413 214.283883 
L 291.827255 214.244763 
L 293.657096 217.891129 
L 295.486938 218.772606 
L 297.316779 219.382679 
L 299.146621 219.466028 
L 300.976462 218.40154 
L 302.806304 272.908452 
L 304.636145 322.491835 
L 306.465987 301.391958 
L 308.295828 265.004789 
L 310.12567 251.691609 
L 311.955511 346.452046 
L 313.785353 416.245162 
L 315.615194 464.307795 
L 317.445036 339.032559 
L 319.274877 370.840801 
L 321.104719 326.259253 
L 322.93456 449.620063 
L 324.764402 455.921736 
L 326.594243 478.987979 
L 328.424085 479.646681 
L 330.253926 518.85653 
L 332.083768 528.684785 
L 333.913609 528.715996 
L 335.743451 513.858666 
L 337.573292 485.382839 
L 339.403134 465.62444 
L 341.232975 510.965885 
L 343.062817 475.018862 
L 344.892658 468.42143 
L 346.7225 496.948522 
L 348.552341 471.234833 
L 350.382183 532.293943 
L 352.212024 514.046226 
L 354.041866 536.66158 
L 355.871707 534.057259 
L 357.701549 518.466562 
L 359.53139 535.663912 
L 361.361232 570.580113 
L 363.191073 550.912957 
L 365.020915 508.304399 
L 366.850756 509.078633 
L 368.680598 447.625617 
L 370.510439 461.18489 
L 372.340281 535.40172 
L 374.170122 490.047191 
L 375.999964 369.334915 
L 377.829805 327.130447 
L 379.659647 280.676099 
L 381.489488 344.948005 
L 383.31933 450.13044 
L 385.149171 446.389553 
L 386.979013 436.472296 
L 388.808854 396.877324 
L 392.468537 250.719697 
L 394.298379 234.728042 
L 396.12822 286.962875 
L 397.958062 328.085123 
L 399.787903 347.828344 
L 401.617745 400.444098 
L 403.447586 340.98749 
L 405.277428 317.683854 
L 407.107269 370.961919 
L 408.937111 341.791187 
L 410.766952 470.843366 
L 412.596794 541.958499 
L 414.426635 549.086296 
L 416.256477 531.257154 
L 418.086318 563.252643 
L 419.91616 602.339907 
L 421.746001 554.872813 
L 423.575843 524.769026 
L 425.405684 576.680614 
L 427.235526 533.823789 
L 429.065367 505.119782 
L 430.895209 543.518699 
L 432.72505 447.021213 
L 434.554892 506.443892 
L 436.384733 461.094982 
L 438.214575 520.973297 
L 440.044416 503.613978 
L 443.704099 485.389463 
L 445.533941 498.228206 
L 447.363782 494.180321 
L 449.193624 413.750951 
L 451.023465 474.678248 
L 452.853307 327.139544 
L 454.683148 436.135175 
L 456.51299 528.189338 
L 458.342831 565.147195 
L 460.172673 531.104183 
L 462.002514 488.228803 
L 463.832356 467.648449 
L 465.662197 478.779491 
L 467.492039 338.934676 
L 469.32188 356.037752 
L 471.151722 412.151795 
L 472.981563 459.034259 
L 474.811405 545.012704 
L 476.641246 536.726852 
L 478.471088 552.793535 
L 480.300929 534.855419 
L 482.130771 538.481369 
L 483.960612 582.845414 
L 485.790454 569.216421 
L 487.620295 572.163778 
L 489.450137 590.814118 
L 491.279978 604.438696 
L 493.10982 601.04559 
L 494.939661 559.354318 
L 496.769503 531.59495 
L 498.599344 541.134417 
L 500.429186 543.020203 
L 502.259027 553.537992 
L 504.088869 492.153807 
L 505.91871 515.798073 
L 507.748552 530.517954 
L 509.578393 547.908896 
L 511.408235 514.70267 
L 513.238076 556.9659 
L 515.067918 545.429779 
L 516.897759 570.331235 
L 518.727601 564.653429 
L 520.557442 584.568259 
L 522.387284 579.569818 
L 524.217125 583.0527 
L 526.046967 495.089844 
L 527.876808 559.241966 
L 529.70665 547.642337 
L 531.536491 527.461079 
L 533.366333 579.792198 
L 535.196174 506.417032 
L 537.026016 586.64322 
L 538.855857 629.846236 
L 540.685699 653.318514 
L 542.51554 579.151425 
L 544.345382 593.357749 
L 546.175223 652.150037 
L 548.005065 658.418192 
L 549.834906 634.160895 
L 551.664748 665.672455 
L 553.494589 631.853223 
L 555.324431 641.463597 
L 557.154272 625.415848 
L 558.984114 614.769172 
L 560.813955 624.656305 
L 562.643797 641.814527 
L 564.473638 571.67746 
L 566.30348 588.980257 
L 568.133321 623.261032 
L 569.963163 594.521175 
L 571.793004 635.072923 
L 573.622846 665.725738 
L 575.452687 642.736022 
L 577.282529 639.191634 
L 579.11237 670.447725 
L 580.942212 635.410728 
L 582.772053 632.422841 
L 584.601895 604.664239 
L 586.431736 624.460003 
L 588.261578 588.337985 
L 590.091419 586.318557 
L 591.921261 563.420429 
L 595.580944 334.947366 
L 597.410785 337.466921 
L 599.240627 245.438351 
L 601.070468 236.236334 
L 602.90031 220.631828 
L 604.730151 265.08593 
L 606.559993 234.59608 
L 608.389834 223.018367 
L 610.219676 236.035459 
L 612.049517 220.449146 
L 613.879359 217.136901 
L 615.7092 218.106703 
L 617.539042 228.244181 
L 619.368883 224.748397 
L 621.198725 221.769416 
L 623.028566 266.664784 
L 624.858408 244.884733 
L 626.688249 285.168151 
L 628.518091 237.240313 
L 630.347932 227.803146 
L 632.177774 222.51178 
L 634.007615 270.018753 
L 635.837457 243.037376 
L 637.667298 259.088256 
L 639.49714 288.441275 
L 641.326981 243.675595 
L 643.156823 228.870832 
L 644.986664 222.638336 
L 646.816506 221.101075 
L 648.646347 289.540732 
L 650.476189 252.398247 
L 652.30603 295.064381 
L 654.135872 251.0934 
L 655.965713 275.265066 
L 657.795555 241.243904 
L 659.625396 307.872556 
L 661.455238 310.198651 
L 663.285079 321.926155 
L 665.114921 359.708968 
L 666.944762 283.255406 
L 668.774604 270.016742 
L 670.604445 306.307511 
L 672.434287 259.753895 
L 674.264128 257.88673 
L 676.09397 342.429208 
L 677.923811 330.920343 
L 679.753653 296.085893 
L 681.583494 308.660763 
L 683.413336 339.444032 
L 685.243177 430.097821 
L 687.073019 484.858224 
L 688.90286 557.903306 
L 690.732702 567.368289 
L 692.562543 542.562689 
L 694.392385 553.165969 
L 696.222226 512.766344 
L 698.052068 522.165133 
L 699.881909 523.517537 
L 701.711751 581.893821 
L 703.541592 562.155197 
L 705.371434 567.195098 
L 707.201275 610.235017 
L 709.031117 590.982909 
L 710.860958 592.995696 
L 712.6908 578.519715 
L 714.520641 589.361112 
L 716.350483 607.780009 
L 718.180324 591.416002 
L 720.010166 564.118894 
L 721.840007 588.348399 
L 723.669849 571.500693 
L 725.49969 537.036453 
L 727.329532 523.082961 
L 729.159373 514.660946 
L 730.989215 473.944749 
L 732.819056 513.398367 
L 734.648898 592.505307 
L 736.478739 621.234057 
L 740.138422 656.078097 
L 741.968264 555.149918 
L 743.798105 550.621844 
L 745.627947 592.228499 
L 747.457788 565.400967 
L 749.28763 603.985928 
L 751.117471 639.920568 
L 752.947313 604.535294 
L 754.777154 649.828184 
L 756.606996 658.758171 
L 758.436837 587.899817 
L 760.266679 592.339894 
L 762.09652 589.47994 
L 763.926362 547.627341 
L 765.756203 568.722275 
L 767.586045 466.821648 
L 769.415886 445.786631 
L 771.245728 343.233894 
L 773.075569 306.278607 
L 774.905411 264.096452 
L 776.735252 229.857937 
L 778.565094 218.958255 
L 780.394935 214.800457 
L 782.224777 213.938194 
L 784.054618 212.822786 
L 785.88446 212.453466 
L 787.714301 212.276716 
L 789.544143 212.246 
L 791.373984 215.17594 
L 793.203826 215.916722 
L 795.033667 216.364381 
L 796.863509 267.119134 
L 798.69335 232.779373 
L 800.523192 243.759076 
L 802.353033 219.53481 
L 804.182875 221.734976 
L 806.012716 218.066759 
L 807.842558 230.775568 
L 809.672399 221.404612 
L 811.502241 218.693245 
L 813.332082 215.281864 
L 815.161924 214.290244 
L 816.991765 237.337669 
L 818.821607 222.836871 
L 820.651448 223.109494 
L 822.48129 219.88139 
L 824.311131 219.156988 
L 826.140973 222.557789 
L 827.970814 219.473905 
L 829.800656 264.748216 
L 831.630497 293.027156 
L 833.460339 293.981403 
L 835.29018 314.135932 
L 837.120022 364.877238 
L 838.949863 313.516136 
L 840.779705 309.266947 
L 842.609546 317.119065 
L 844.439388 258.718244 
L 846.269229 273.654111 
L 848.099071 328.470262 
L 849.928912 356.739282 
L 851.758754 368.497436 
L 853.588595 458.24503 
L 855.418437 488.46313 
L 857.248278 444.073575 
L 859.07812 471.69317 
L 860.907961 418.905675 
L 862.737803 485.439674 
L 864.567644 362.075535 
L 866.397486 483.640121 
L 868.227327 545.868343 
L 870.057169 540.898179 
L 871.88701 534.608272 
L 873.716852 542.729569 
L 875.546693 555.200887 
L 877.376535 569.225303 
L 879.206376 555.599127 
L 881.036218 543.854287 
L 882.866059 557.091039 
L 884.695901 548.302802 
L 886.525742 451.019926 
L 888.355584 457.622861 
L 890.185425 501.274584 
L 892.015267 536.216672 
L 893.845108 538.797034 
L 895.67495 512.668576 
L 897.504791 579.099748 
L 899.334633 552.554792 
L 901.164474 508.865547 
L 902.994316 549.829616 
L 904.824157 554.429405 
L 906.653999 547.791518 
L 908.48384 566.710757 
L 910.313682 575.021443 
L 912.143523 585.864191 
L 913.973365 619.544499 
L 915.803206 577.599975 
L 917.633048 585.402277 
L 919.462889 576.67857 
L 921.292731 558.237361 
L 923.122572 603.963781 
L 924.952414 518.689189 
L 926.782255 576.053534 
L 928.612097 528.591153 
L 930.441938 531.272166 
L 932.27178 577.986334 
L 934.101621 543.368381 
L 935.931463 586.839579 
L 937.761304 552.842427 
L 939.591146 583.516887 
L 941.420987 524.891347 
L 943.250829 511.220761 
L 945.08067 488.021139 
L 946.910512 386.968142 
L 948.740353 470.39073 
L 950.570195 402.78687 
L 952.400036 410.264164 
L 954.229878 353.777472 
L 956.059719 259.77802 
L 957.889561 228.139245 
L 959.719402 233.2504 
L 963.379085 219.137213 
L 965.208927 215.768644 
L 967.038768 217.825379 
L 968.86861 218.410372 
L 970.698451 221.54969 
L 972.528293 233.694631 
L 974.358134 220.620787 
L 976.187976 234.048428 
L 978.017817 222.406449 
L 979.847659 299.883435 
L 981.6775 254.789862 
L 983.507342 444.797977 
L 985.337183 370.338729 
L 987.167025 401.808202 
L 988.996866 399.965921 
L 990.826708 387.990643 
L 992.656549 302.427971 
L 994.486391 252.341494 
L 996.316232 227.18569 
L 998.146074 222.051762 
L 999.975915 222.532774 
L 1001.805757 222.642061 
L 1003.635598 291.143809 
L 1005.46544 254.164266 
L 1007.295281 328.9081 
L 1009.125123 354.261912 
L 1010.954964 294.156208 
L 1014.614647 239.415003 
L 1016.444489 232.909192 
L 1018.27433 229.449826 
L 1020.104172 243.01859 
L 1021.934013 233.679636 
L 1023.763855 255.462916 
L 1025.593696 290.622853 
L 1027.423538 265.680513 
L 1029.253379 256.071704 
L 1031.083221 243.249687 
L 1032.913062 250.069746 
L 1034.742904 403.694087 
L 1040.232428 271.132018 
L 1042.06227 340.280093 
L 1043.892111 450.753433 
L 1045.721953 444.759681 
L 1047.551794 484.822531 
L 1049.381636 441.884944 
L 1051.211478 436.600038 
L 1053.041319 394.462837 
L 1054.871161 473.549624 
L 1056.701002 446.594185 
L 1058.530844 504.590537 
L 1060.360685 488.013559 
L 1062.190527 414.210508 
L 1064.020368 370.428835 
L 1065.85021 270.83682 
L 1067.680051 271.84627 
L 1069.509893 330.071263 
L 1071.339734 340.513299 
L 1073.169576 343.240749 
L 1074.999417 285.164987 
L 1078.6591 342.423605 
L 1080.488942 290.125329 
L 1082.318783 258.873605 
L 1084.148625 237.485021 
L 1085.978466 316.59122 
L 1087.808308 378.365916 
L 1089.638149 424.461062 
L 1091.467991 319.476239 
L 1093.297832 309.005695 
L 1095.127674 262.194221 
L 1096.957515 311.212155 
L 1098.787357 264.391387 
L 1100.617198 397.975067 
L 1102.44704 354.894792 
L 1104.276881 392.45066 
L 1106.106723 318.443224 
L 1107.936564 422.107315 
L 1109.766406 413.78315 
L 1111.596247 457.883422 
L 1113.426089 454.992932 
L 1115.25593 480.24802 
L 1117.085772 448.489594 
L 1118.915613 496.967341 
L 1120.745455 438.429862 
L 1120.745455 438.429862 
" clip-path="url(#pf491f468d0)" style="fill: none; stroke: #ff6347; stroke-linecap: square"/>
   </g>
   <g id="line2d_16">
    <path d="M 207.654545 652.307944 
L 209.484387 649.805081 
L 211.314228 590.518178 
L 213.14407 633.733068 
L 214.973911 647.344446 
L 216.803753 656.347441 
L 218.633594 671.745782 
L 220.463436 671.327785 
L 222.293277 666.43657 
L 225.95296 637.392938 
L 227.782802 633.474608 
L 229.612643 576.903372 
L 231.442485 636.375545 
L 233.272326 637.717634 
L 235.102168 644.247832 
L 238.761851 609.8786 
L 240.591692 573.60988 
L 242.421534 446.294405 
L 244.251375 310.272278 
L 246.081217 225.395052 
L 247.911058 280.924762 
L 249.7409 204.167894 
L 251.570741 203.255965 
L 253.400583 179.613891 
L 255.230424 158.402288 
L 257.060266 133.92 
L 258.890107 146.4747 
L 260.719949 150.892235 
L 262.54979 152.601402 
L 264.379632 175.06512 
L 266.209473 183.212436 
L 268.039315 189.183052 
L 269.869156 193.481215 
L 271.698998 206.279338 
L 273.528839 184.071436 
L 275.358681 240.905399 
L 277.188522 191.104662 
L 279.018364 238.095029 
L 280.848206 246.278927 
L 282.678047 276.747453 
L 284.507889 243.48408 
L 288.167572 185.768079 
L 289.997413 162.93379 
L 291.827255 174.512887 
L 293.657096 191.104201 
L 295.486938 204.055971 
L 297.316779 208.419752 
L 299.146621 209.181166 
L 300.976462 182.957082 
L 304.636145 296.983354 
L 306.465987 308.110903 
L 308.295828 288.844343 
L 310.12567 281.04008 
L 313.785353 383.195187 
L 315.615194 429.285587 
L 317.445036 333.244296 
L 319.274877 389.625591 
L 321.104719 362.78125 
L 322.93456 433.62086 
L 324.764402 447.185439 
L 326.594243 472.078903 
L 328.424085 508.734921 
L 330.253926 529.975328 
L 332.083768 545.827706 
L 333.913609 550.114466 
L 335.743451 549.19705 
L 337.573292 520.090881 
L 339.403134 493.843843 
L 341.232975 530.376782 
L 343.062817 491.8447 
L 344.892658 473.641179 
L 346.7225 521.348022 
L 348.552341 484.837972 
L 350.382183 546.138889 
L 352.212024 539.556915 
L 354.041866 551.878508 
L 355.871707 565.238586 
L 357.701549 551.672178 
L 361.361232 597.290152 
L 363.191073 587.113422 
L 365.020915 549.408685 
L 366.850756 555.082487 
L 368.680598 500.704175 
L 370.510439 508.619504 
L 372.340281 547.559218 
L 374.170122 510.623903 
L 375.999964 385.670282 
L 379.659647 304.225102 
L 381.489488 339.12217 
L 383.31933 433.644722 
L 385.149171 446.994287 
L 386.979013 356.072027 
L 388.808854 311.434584 
L 390.638696 302.161577 
L 392.468537 229.387767 
L 394.298379 241.081292 
L 396.12822 270.040636 
L 397.958062 303.515629 
L 399.787903 340.213783 
L 401.617745 387.213114 
L 403.447586 330.582794 
L 405.277428 313.55117 
L 407.107269 362.522107 
L 408.937111 320.945872 
L 410.766952 453.375551 
L 412.596794 515.292375 
L 414.426635 519.680364 
L 416.256477 472.145708 
L 418.086318 551.211352 
L 419.91616 589.155656 
L 421.746001 572.589455 
L 423.575843 561.621354 
L 425.405684 588.139334 
L 427.235526 566.09195 
L 429.065367 527.95595 
L 430.895209 576.319171 
L 432.72505 494.765429 
L 434.554892 515.389731 
L 436.384733 508.001785 
L 438.214575 526.75482 
L 440.044416 543.721551 
L 441.874258 509.292114 
L 443.704099 525.139005 
L 445.533941 533.553967 
L 447.363782 526.023678 
L 449.193624 454.316813 
L 451.023465 504.869784 
L 452.853307 367.952783 
L 454.683148 419.072077 
L 456.51299 514.193743 
L 458.342831 536.671105 
L 460.172673 564.299203 
L 462.002514 546.082466 
L 463.832356 516.2924 
L 465.662197 514.42863 
L 467.492039 368.630518 
L 469.32188 357.154412 
L 471.151722 431.758573 
L 472.981563 448.408321 
L 474.811405 533.23026 
L 476.641246 552.78457 
L 478.471088 563.07698 
L 480.300929 560.179603 
L 482.130771 559.84034 
L 483.960612 594.298928 
L 485.790454 588.52828 
L 487.620295 594.202264 
L 489.450137 618.429306 
L 491.279978 621.702694 
L 493.10982 621.843043 
L 494.939661 597.912782 
L 496.769503 565.277591 
L 498.599344 569.583186 
L 500.429186 568.869561 
L 502.259027 577.676601 
L 504.088869 526.38695 
L 505.91871 541.699883 
L 507.748552 554.741906 
L 509.578393 561.812605 
L 511.408235 548.84551 
L 513.238076 583.091408 
L 515.067918 574.746892 
L 516.897759 584.199961 
L 518.727601 600.735561 
L 520.557442 605.553379 
L 522.387284 611.103476 
L 524.217125 615.176557 
L 526.046967 558.023946 
L 527.876808 587.683946 
L 529.70665 578.124029 
L 531.536491 544.917194 
L 533.366333 598.692272 
L 535.196174 567.047433 
L 537.026016 609.694962 
L 538.855857 648.179996 
L 540.685699 673.766561 
L 542.51554 639.075608 
L 544.345382 629.247097 
L 546.175223 686.187834 
L 548.005065 688.736544 
L 549.834906 681.190802 
L 551.664748 705.020601 
L 553.494589 683.697932 
L 555.324431 683.951135 
L 557.154272 676.752067 
L 558.984114 666.851223 
L 560.813955 673.110892 
L 562.643797 652.012638 
L 564.473638 583.615413 
L 566.30348 612.435183 
L 568.133321 652.468907 
L 569.963163 636.612723 
L 571.793004 678.676652 
L 573.622846 702.350085 
L 575.452687 677.877263 
L 577.282529 671.23866 
L 579.11237 709.941369 
L 580.942212 675.501963 
L 582.772053 675.964337 
L 584.601895 644.323189 
L 586.431736 652.520914 
L 588.261578 600.756274 
L 590.091419 588.785512 
L 591.921261 549.641825 
L 593.751102 390.952024 
L 595.580944 211.198319 
L 597.410785 231.167266 
L 599.240627 253.069093 
L 601.070468 227.470969 
L 602.90031 222.955155 
L 604.730151 248.462219 
L 606.559993 221.333391 
L 608.389834 198.985288 
L 610.219676 232.297636 
L 612.049517 185.825952 
L 613.879359 185.169047 
L 615.7092 206.196813 
L 617.539042 221.533442 
L 619.368883 223.166016 
L 621.198725 223.515595 
L 623.028566 282.92023 
L 624.858408 264.874937 
L 626.688249 306.727783 
L 628.518091 245.677456 
L 630.347932 226.225874 
L 632.177774 229.592564 
L 634.007615 259.729803 
L 635.837457 241.176836 
L 637.667298 269.866721 
L 639.49714 311.13253 
L 641.326981 241.783547 
L 643.156823 235.770548 
L 644.986664 234.113223 
L 646.816506 218.138606 
L 648.646347 288.605963 
L 650.476189 256.126743 
L 652.30603 287.709622 
L 654.135872 252.813048 
L 655.965713 262.916942 
L 657.795555 246.257143 
L 659.625396 289.971748 
L 661.455238 311.471991 
L 663.285079 316.425379 
L 665.114921 361.64732 
L 666.944762 284.160678 
L 668.774604 270.780693 
L 670.604445 314.007827 
L 672.434287 258.25605 
L 674.264128 258.404984 
L 676.09397 341.979769 
L 677.923811 318.860003 
L 679.753653 286.252941 
L 681.583494 327.050097 
L 683.413336 350.46793 
L 685.243177 410.217463 
L 687.073019 465.812132 
L 688.90286 549.007149 
L 690.732702 583.228247 
L 692.562543 570.928966 
L 694.392385 581.410848 
L 696.222226 547.427949 
L 698.052068 544.032767 
L 699.881909 547.11146 
L 701.711751 588.716137 
L 703.541592 594.195359 
L 705.371434 603.599338 
L 707.201275 635.242299 
L 709.031117 619.878407 
L 710.860958 656.391604 
L 712.6908 656.206812 
L 714.520641 657.28109 
L 716.350483 656.969478 
L 718.180324 647.723793 
L 720.010166 631.147062 
L 721.840007 639.356808 
L 723.669849 626.173982 
L 725.49969 598.270319 
L 727.329532 574.862753 
L 729.159373 557.441145 
L 730.989215 513.480118 
L 732.819056 544.071064 
L 734.648898 610.733678 
L 736.478739 643.737554 
L 738.308581 672.554407 
L 740.138422 698.829764 
L 741.968264 632.423442 
L 743.798105 600.039222 
L 745.627947 638.900159 
L 747.457788 617.945401 
L 749.28763 648.625728 
L 751.117471 667.054405 
L 752.947313 659.842616 
L 754.777154 699.719212 
L 756.606996 707.556573 
L 760.266679 629.326367 
L 762.09652 615.124897 
L 763.926362 612.50965 
L 765.756203 597.242347 
L 767.586045 417.715586 
L 769.415886 353.073998 
L 771.245728 270.704529 
L 773.075569 286.297829 
L 774.905411 309.166856 
L 776.735252 236.338304 
L 778.565094 217.601863 
L 780.394935 192.260805 
L 782.224777 172.746637 
L 784.054618 157.771683 
L 785.88446 146.495925 
L 787.714301 151.11997 
L 789.544143 163.129754 
L 791.373984 183.900321 
L 793.203826 196.33532 
L 795.033667 201.767677 
L 796.863509 263.838429 
L 798.69335 218.189064 
L 800.523192 253.907165 
L 802.353033 225.91413 
L 804.182875 203.174 
L 806.012716 209.119733 
L 807.842558 222.953573 
L 809.672399 217.70759 
L 811.502241 214.402761 
L 813.332082 201.348922 
L 815.161924 180.03324 
L 816.991765 224.257827 
L 818.821607 214.065442 
L 820.651448 224.695039 
L 822.48129 232.023596 
L 824.311131 219.205402 
L 826.140973 228.570953 
L 827.970814 200.765906 
L 829.800656 249.131286 
L 831.630497 282.334314 
L 833.460339 298.800061 
L 835.29018 324.72799 
L 837.120022 360.988372 
L 838.949863 312.367145 
L 840.779705 312.219891 
L 842.609546 337.684044 
L 844.439388 256.389742 
L 846.269229 271.171633 
L 848.099071 342.111368 
L 849.928912 341.150595 
L 851.758754 357.763398 
L 853.588595 449.783301 
L 855.418437 472.473303 
L 857.248278 434.08345 
L 859.07812 491.608149 
L 860.907961 436.560457 
L 862.737803 480.681245 
L 864.567644 364.187078 
L 866.397486 460.592152 
L 868.227327 544.474313 
L 870.057169 515.851892 
L 871.88701 563.448871 
L 873.716852 574.130804 
L 875.546693 583.828004 
L 877.376535 598.541377 
L 879.206376 597.692956 
L 881.036218 587.937009 
L 882.866059 592.37445 
L 884.695901 590.415516 
L 886.525742 506.403668 
L 888.355584 462.881962 
L 890.185425 512.099601 
L 892.015267 528.755182 
L 893.845108 564.401651 
L 895.67495 558.514532 
L 897.504791 604.450577 
L 899.334633 601.475074 
L 901.164474 545.984122 
L 902.994316 589.214271 
L 904.824157 598.354921 
L 906.653999 595.855816 
L 908.48384 627.293098 
L 910.313682 627.413615 
L 912.143523 630.754343 
L 913.973365 646.205943 
L 915.803206 635.891921 
L 917.633048 638.789579 
L 919.462889 637.529777 
L 921.292731 629.452314 
L 923.122572 642.987 
L 924.952414 580.905892 
L 926.782255 606.137729 
L 928.612097 584.130042 
L 930.441938 558.613767 
L 932.27178 617.734293 
L 934.101621 597.728451 
L 935.931463 632.587355 
L 937.761304 620.515983 
L 939.591146 626.037852 
L 943.250829 474.048334 
L 945.08067 478.444216 
L 946.910512 322.999477 
L 948.740353 434.248698 
L 950.570195 418.12719 
L 952.400036 382.765423 
L 954.229878 378.297562 
L 956.059719 278.427124 
L 957.889561 245.410963 
L 959.719402 234.147861 
L 961.549244 202.895873 
L 963.379085 185.396189 
L 965.208927 191.445046 
L 967.038768 197.011605 
L 968.86861 201.856201 
L 970.698451 212.723914 
L 972.528293 236.391892 
L 974.358134 212.455674 
L 976.187976 242.198974 
L 978.017817 223.413855 
L 979.847659 279.550079 
L 981.6775 246.678172 
L 983.507342 410.652698 
L 985.337183 358.804289 
L 987.167025 319.217359 
L 988.996866 421.300256 
L 990.826708 382.951665 
L 992.656549 293.134136 
L 994.486391 264.841024 
L 996.316232 253.565958 
L 998.146074 223.065002 
L 999.975915 223.67468 
L 1001.805757 226.657977 
L 1003.635598 281.68288 
L 1005.46544 226.955714 
L 1009.125123 351.262894 
L 1010.954964 274.061101 
L 1012.784806 276.286941 
L 1014.614647 258.743127 
L 1016.444489 232.230304 
L 1018.27433 217.780327 
L 1020.104172 231.81079 
L 1021.934013 216.564729 
L 1025.593696 291.321054 
L 1027.423538 264.470056 
L 1029.253379 262.486058 
L 1031.083221 254.807527 
L 1032.913062 257.616579 
L 1034.742904 383.017448 
L 1036.572745 324.954473 
L 1038.402587 272.984715 
L 1040.232428 292.375095 
L 1042.06227 333.329392 
L 1043.892111 412.412652 
L 1045.721953 409.389246 
L 1047.551794 485.072018 
L 1049.381636 445.038104 
L 1051.211478 424.599252 
L 1053.041319 389.116762 
L 1054.871161 468.533024 
L 1056.701002 432.578815 
L 1058.530844 485.632754 
L 1060.360685 504.881022 
L 1062.190527 413.231675 
L 1064.020368 372.576895 
L 1065.85021 293.81421 
L 1067.680051 287.769143 
L 1069.509893 342.948517 
L 1071.339734 347.859456 
L 1073.169576 360.495594 
L 1074.999417 298.75346 
L 1076.829259 316.283333 
L 1078.6591 338.914276 
L 1080.488942 279.239357 
L 1082.318783 268.01732 
L 1084.148625 252.211379 
L 1085.978466 302.04738 
L 1087.808308 359.341955 
L 1089.638149 396.745759 
L 1091.467991 299.437917 
L 1093.297832 310.821281 
L 1095.127674 283.858987 
L 1096.957515 301.458861 
L 1098.787357 261.098917 
L 1100.617198 373.266494 
L 1102.44704 337.944111 
L 1104.276881 353.465333 
L 1106.106723 333.160716 
L 1107.936564 408.262138 
L 1109.766406 400.492678 
L 1111.596247 440.073576 
L 1113.426089 484.909505 
L 1115.25593 493.594356 
L 1117.085772 467.853707 
L 1118.915613 498.1338 
L 1120.745455 473.705743 
L 1120.745455 473.705743 
" clip-path="url(#pf491f468d0)" style="fill: none; stroke: #da70d6; stroke-linecap: square"/>
   </g>
   <g id="line2d_17">
    <path d="M 207.654545 661.134378 
L 209.484387 672.757029 
L 211.314228 583.593398 
L 214.973911 675.567671 
L 216.803753 685.385496 
L 218.633594 691.55098 
L 220.463436 684.099715 
L 222.293277 673.390782 
L 224.123119 659.938423 
L 225.95296 638.448413 
L 227.782802 641.662626 
L 229.612643 577.578503 
L 231.442485 633.994518 
L 233.272326 575.340354 
L 235.102168 632.710616 
L 236.932009 604.990929 
L 238.761851 599.76533 
L 240.591692 547.483598 
L 242.421534 381.892779 
L 244.251375 318.261036 
L 246.081217 241.603996 
L 247.911058 244.441128 
L 249.7409 226.444216 
L 251.570741 229.287247 
L 253.400583 222.5831 
L 255.230424 221.539144 
L 257.060266 219.691852 
L 258.890107 223.675537 
L 260.719949 219.393522 
L 262.54979 219.273887 
L 264.379632 221.484995 
L 266.209473 221.518018 
L 268.039315 221.710357 
L 269.869156 221.662041 
L 271.698998 225.063304 
L 273.528839 220.692503 
L 275.358681 254.129792 
L 277.188522 227.653816 
L 279.018364 250.321968 
L 280.848206 239.094624 
L 282.678047 256.908985 
L 284.507889 230.308925 
L 286.33773 223.892099 
L 288.167572 221.962843 
L 289.997413 221.38632 
L 291.827255 221.318494 
L 293.657096 225.873197 
L 297.316779 226.120279 
L 299.146621 225.995074 
L 300.976462 223.560911 
L 302.806304 262.592675 
L 304.636145 286.642101 
L 306.465987 280.878589 
L 308.295828 266.509456 
L 310.12567 265.052116 
L 313.785353 377.393081 
L 315.615194 418.155863 
L 317.445036 320.300601 
L 319.274877 353.72919 
L 321.104719 323.340849 
L 322.93456 474.294196 
L 324.764402 451.707119 
L 326.594243 481.149239 
L 328.424085 502.841178 
L 330.253926 529.311683 
L 332.083768 531.841158 
L 333.913609 535.584765 
L 335.743451 538.935521 
L 337.573292 513.731796 
L 339.403134 486.733611 
L 341.232975 540.930856 
L 343.062817 487.15596 
L 344.892658 493.495352 
L 346.7225 539.588389 
L 348.552341 466.067914 
L 350.382183 537.645604 
L 352.212024 538.403095 
L 354.041866 554.235731 
L 355.871707 583.309042 
L 357.701549 547.070758 
L 359.53139 568.507212 
L 361.361232 597.64703 
L 363.191073 580.611451 
L 365.020915 554.566244 
L 366.850756 590.787835 
L 368.680598 450.16755 
L 370.510439 435.640321 
L 372.340281 548.153291 
L 374.170122 509.018123 
L 375.999964 354.437574 
L 377.829805 315.935501 
L 379.659647 292.134902 
L 381.489488 354.31405 
L 383.31933 444.776423 
L 385.149171 425.570175 
L 386.979013 416.330192 
L 388.808854 367.27551 
L 390.638696 301.606114 
L 392.468537 257.018997 
L 394.298379 260.707252 
L 396.12822 294.535811 
L 397.958062 319.99123 
L 399.787903 329.884988 
L 401.617745 384.628765 
L 403.447586 334.692969 
L 405.277428 313.545402 
L 407.107269 396.721238 
L 408.937111 352.701152 
L 410.766952 525.407459 
L 412.596794 561.475007 
L 414.426635 557.371885 
L 416.256477 468.746192 
L 418.086318 509.407119 
L 419.91616 605.752342 
L 421.746001 639.136488 
L 423.575843 607.539355 
L 425.405684 660.214696 
L 427.235526 580.28084 
L 429.065367 542.965444 
L 430.895209 616.16269 
L 432.72505 449.429306 
L 434.554892 507.791402 
L 436.384733 433.991169 
L 438.214575 498.595384 
L 440.044416 491.240971 
L 441.874258 462.026752 
L 443.704099 491.938167 
L 445.533941 496.051836 
L 447.363782 477.314043 
L 449.193624 359.448968 
L 451.023465 460.802914 
L 452.853307 287.538805 
L 454.683148 439.953051 
L 456.51299 559.316252 
L 458.342831 589.182368 
L 460.172673 553.712451 
L 462.002514 512.016895 
L 463.832356 461.468751 
L 465.662197 477.024612 
L 467.492039 279.659135 
L 469.32188 298.411626 
L 471.151722 432.738659 
L 472.981563 439.566989 
L 474.811405 501.149396 
L 476.641246 473.394032 
L 478.471088 548.90719 
L 480.300929 542.987789 
L 482.130771 519.028979 
L 483.960612 560.429848 
L 487.620295 590.182804 
L 489.450137 605.225008 
L 491.279978 589.537351 
L 493.10982 597.656406 
L 494.939661 590.115538 
L 496.769503 565.755176 
L 498.599344 564.048744 
L 500.429186 547.54564 
L 502.259027 565.762229 
L 504.088869 527.686491 
L 505.91871 552.240461 
L 507.748552 528.307325 
L 509.578393 511.216773 
L 511.408235 492.061889 
L 513.238076 565.122214 
L 515.067918 565.316975 
L 516.897759 576.050601 
L 518.727601 599.705858 
L 520.557442 589.306221 
L 522.387284 592.522017 
L 524.217125 586.68758 
L 526.046967 528.270264 
L 527.876808 587.617883 
L 529.70665 572.867533 
L 531.536491 553.528764 
L 533.366333 603.790936 
L 535.196174 538.541928 
L 537.026016 609.473703 
L 538.855857 633.653006 
L 540.685699 641.957883 
L 542.51554 667.103569 
L 544.345382 668.622688 
L 546.175223 697.483308 
L 548.005065 624.610165 
L 549.834906 663.179183 
L 551.664748 684.614459 
L 553.494589 678.695231 
L 555.324431 674.068113 
L 557.154272 683.88185 
L 558.984114 663.34294 
L 560.813955 665.75428 
L 562.643797 660.720179 
L 564.473638 624.793985 
L 566.30348 648.853249 
L 568.133321 659.759324 
L 569.963163 646.794067 
L 571.793004 671.85876 
L 573.622846 709.603668 
L 575.452687 672.251472 
L 577.282529 657.703364 
L 579.11237 693.502508 
L 580.942212 579.053723 
L 582.772053 631.76619 
L 584.601895 638.404011 
L 586.431736 617.086088 
L 588.261578 593.401664 
L 590.091419 575.690823 
L 591.921261 519.463439 
L 593.751102 337.869858 
L 595.580944 292.321836 
L 597.410785 276.086494 
L 599.240627 242.62943 
L 601.070468 247.855474 
L 602.90031 237.617609 
L 604.730151 272.048232 
L 606.559993 238.781991 
L 608.389834 231.749292 
L 610.219676 253.304771 
L 612.049517 227.41626 
L 613.879359 224.732017 
L 615.7092 228.918323 
L 617.539042 240.661119 
L 619.368883 232.327199 
L 621.198725 228.083448 
L 623.028566 262.603221 
L 624.858408 245.144173 
L 626.688249 278.914464 
L 628.518091 241.741296 
L 630.347932 245.394814 
L 632.177774 245.947937 
L 634.007615 273.006566 
L 635.837457 246.616213 
L 637.667298 264.934161 
L 639.49714 279.974998 
L 641.326981 241.356651 
L 643.156823 232.859822 
L 644.986664 234.559399 
L 646.816506 234.041606 
L 648.646347 269.571588 
L 650.476189 242.494338 
L 652.30603 268.101724 
L 654.135872 250.557349 
L 655.965713 272.90219 
L 657.795555 257.782552 
L 659.625396 294.242787 
L 661.455238 289.088656 
L 663.285079 295.482313 
L 665.114921 324.67216 
L 666.944762 278.647773 
L 668.774604 280.758888 
L 670.604445 324.587064 
L 672.434287 274.649489 
L 674.264128 278.152425 
L 676.09397 354.503291 
L 677.923811 338.679422 
L 679.753653 293.12939 
L 681.583494 305.23587 
L 683.413336 324.448182 
L 685.243177 411.537536 
L 687.073019 455.136231 
L 688.90286 523.290049 
L 690.732702 552.392955 
L 692.562543 561.800263 
L 694.392385 584.228386 
L 696.222226 541.487143 
L 698.052068 540.555324 
L 699.881909 527.656895 
L 701.711751 556.619354 
L 703.541592 563.988663 
L 705.371434 565.58449 
L 707.201275 590.70615 
L 709.031117 579.62957 
L 710.860958 601.239412 
L 712.6908 608.889798 
L 714.520641 599.166149 
L 716.350483 593.190095 
L 718.180324 608.422397 
L 720.010166 589.966077 
L 721.840007 614.928949 
L 723.669849 609.175686 
L 725.49969 572.764294 
L 727.329532 562.532047 
L 729.159373 521.41532 
L 730.989215 453.331322 
L 732.819056 514.843315 
L 734.648898 613.144655 
L 736.478739 646.31532 
L 738.308581 654.383852 
L 740.138422 666.320602 
L 741.968264 634.159832 
L 743.798105 614.325483 
L 745.627947 629.553097 
L 747.457788 612.973392 
L 749.28763 632.919953 
L 751.117471 678.835539 
L 752.947313 651.712264 
L 754.777154 661.913926 
L 756.606996 619.40406 
L 758.436837 613.910386 
L 760.266679 558.250346 
L 762.09652 565.527968 
L 763.926362 515.486478 
L 765.756203 535.808315 
L 767.586045 375.918735 
L 769.415886 344.05117 
L 771.245728 280.332387 
L 773.075569 273.067075 
L 774.905411 259.386684 
L 776.735252 234.363665 
L 778.565094 231.06691 
L 780.394935 228.546498 
L 782.224777 226.500079 
L 784.054618 223.987313 
L 785.88446 222.876387 
L 787.714301 221.28791 
L 789.544143 220.787552 
L 791.373984 224.152067 
L 793.203826 223.95752 
L 795.033667 223.34771 
L 796.863509 263.797068 
L 798.69335 232.977908 
L 800.523192 250.017475 
L 802.353033 229.737478 
L 804.182875 237.75626 
L 806.012716 234.706619 
L 807.842558 251.801983 
L 809.672399 235.639213 
L 811.502241 231.879737 
L 813.332082 226.53208 
L 815.161924 224.452407 
L 816.991765 251.449504 
L 818.821607 230.358822 
L 820.651448 232.657827 
L 822.48129 229.806128 
L 824.311131 228.318368 
L 826.140973 231.777438 
L 827.970814 228.315204 
L 829.800656 267.413871 
L 831.630497 296.194916 
L 833.460339 304.126164 
L 835.29018 318.52453 
L 837.120022 355.355964 
L 838.949863 320.223415 
L 840.779705 306.019628 
L 842.609546 336.637484 
L 844.439388 289.879105 
L 846.269229 309.802405 
L 848.099071 355.622061 
L 849.928912 359.977834 
L 851.758754 361.521621 
L 853.588595 438.411802 
L 855.418437 471.983755 
L 857.248278 427.169825 
L 859.07812 458.477841 
L 860.907961 403.030392 
L 862.737803 453.625203 
L 864.567644 371.545923 
L 866.397486 483.12859 
L 868.227327 527.761667 
L 870.057169 523.400785 
L 871.88701 540.568046 
L 873.716852 550.404392 
L 875.546693 536.293364 
L 877.376535 549.164685 
L 879.206376 548.278067 
L 881.036218 546.681383 
L 882.866059 551.785749 
L 884.695901 549.182136 
L 886.525742 461.377525 
L 888.355584 469.887109 
L 890.185425 500.17755 
L 892.015267 496.341975 
L 893.845108 523.949426 
L 895.67495 522.089413 
L 897.504791 605.309643 
L 899.334633 578.274381 
L 901.164474 530.031933 
L 902.994316 589.953899 
L 904.824157 562.339906 
L 906.653999 558.376556 
L 908.48384 585.320213 
L 910.313682 593.196406 
L 912.143523 597.785599 
L 913.973365 628.982515 
L 915.803206 615.234974 
L 917.633048 609.307697 
L 919.462889 604.387002 
L 921.292731 574.098687 
L 923.122572 621.767117 
L 924.952414 567.321341 
L 926.782255 610.786327 
L 928.612097 571.605712 
L 930.441938 562.851355 
L 932.27178 604.373391 
L 934.101621 574.736938 
L 935.931463 597.432626 
L 937.761304 593.536987 
L 939.591146 579.737769 
L 941.420987 508.199908 
L 943.250829 474.539234 
L 945.08067 416.127965 
L 946.910512 331.426502 
L 948.740353 434.68825 
L 950.570195 377.97669 
L 952.400036 362.879727 
L 954.229878 332.535087 
L 956.059719 247.83659 
L 957.889561 235.408479 
L 959.719402 247.555134 
L 961.549244 233.316743 
L 963.379085 224.934441 
L 965.208927 222.965042 
L 967.038768 226.065734 
L 968.86861 225.52385 
L 970.698451 227.666142 
L 972.528293 238.088767 
L 974.358134 225.660392 
L 976.187976 244.546591 
L 978.017817 232.796445 
L 979.847659 284.745737 
L 981.6775 249.43769 
L 983.507342 514.084654 
L 985.337183 360.513951 
L 987.167025 363.052621 
L 988.996866 408.132055 
L 990.826708 367.831863 
L 992.656549 275.378208 
L 994.486391 243.981669 
L 996.316232 235.95791 
L 998.146074 231.348531 
L 1001.805757 230.101623 
L 1003.635598 264.670931 
L 1005.46544 245.633128 
L 1007.295281 298.716613 
L 1009.125123 335.904546 
L 1010.954964 283.339678 
L 1012.784806 273.218283 
L 1014.614647 259.712962 
L 1016.444489 256.087227 
L 1018.27433 254.98052 
L 1020.104172 269.746789 
L 1021.934013 261.773191 
L 1023.763855 282.487764 
L 1025.593696 312.725457 
L 1027.423538 284.357334 
L 1029.253379 277.699591 
L 1031.083221 270.111165 
L 1032.913062 272.791354 
L 1034.742904 425.074167 
L 1036.572745 352.499354 
L 1038.402587 297.765168 
L 1040.232428 291.781863 
L 1042.06227 355.932354 
L 1043.892111 453.867044 
L 1045.721953 443.230164 
L 1047.551794 490.630157 
L 1051.211478 415.674275 
L 1053.041319 399.644422 
L 1054.871161 471.846422 
L 1056.701002 444.127559 
L 1058.530844 482.814457 
L 1060.360685 477.535121 
L 1062.190527 408.306564 
L 1064.020368 378.587916 
L 1065.85021 277.20968 
L 1067.680051 290.275515 
L 1069.509893 340.943327 
L 1071.339734 344.67436 
L 1073.169576 338.728363 
L 1074.999417 286.077608 
L 1076.829259 332.106411 
L 1078.6591 351.851347 
L 1080.488942 317.408694 
L 1082.318783 279.647633 
L 1084.148625 272.325502 
L 1085.978466 346.958765 
L 1087.808308 368.364354 
L 1089.638149 393.289128 
L 1091.467991 315.156488 
L 1093.297832 306.356156 
L 1095.127674 285.926532 
L 1096.957515 339.773704 
L 1098.787357 284.356346 
L 1100.617198 432.234214 
L 1102.44704 364.555805 
L 1104.276881 376.407756 
L 1106.106723 336.472269 
L 1107.936564 427.719883 
L 1109.766406 402.315086 
L 1111.596247 432.374282 
L 1113.426089 455.016892 
L 1115.25593 487.12259 
L 1117.085772 452.312545 
L 1118.915613 520.712291 
L 1120.745455 419.786856 
L 1120.745455 419.786856 
" clip-path="url(#pf491f468d0)" style="fill: none; stroke: #8fbc8f; stroke-linecap: square"/>
   </g>
   <g id="patch_3">
    <path d="M 162 768.96 
L 162 103.68 
" style="fill: none; stroke: #000000; stroke-width: 0.8; stroke-linejoin: miter; stroke-linecap: square"/>
   </g>
   <g id="patch_4">
    <path d="M 1166.4 768.96 
L 1166.4 103.68 
" style="fill: none; stroke: #000000; stroke-width: 0.8; stroke-linejoin: miter; stroke-linecap: square"/>
   </g>
   <g id="patch_5">
    <path d="M 162 768.96 
L 1166.4 768.96 
" style="fill: none; stroke: #000000; stroke-width: 0.8; stroke-linejoin: miter; stroke-linecap: square"/>
   </g>
   <g id="patch_6">
    <path d="M 162 103.68 
L 1166.4 103.68 
" style="fill: none; stroke: #000000; stroke-width: 0.8; stroke-linejoin: miter; stroke-linecap: square"/>
   </g>
   <g id="text_14">
    <!-- Function 1 -->
    <g transform="translate(632.957813 97.68) scale(0.12 -0.12)">
     <defs>
      <path id="DejaVuSans-46" d="M 628 4666 
L 3309 4666 
L 3309 4134 
L 1259 4134 
L 1259 2759 
L 3109 2759 
L 3109 2228 
L 1259 2228 
L 1259 0 
L 628 0 
L 628 4666 
z
" transform="scale(0.015625)"/>
      <path id="DejaVuSans-75" d="M 544 1381 
L 544 3500 
L 1119 3500 
L 1119 1403 
Q 1119 906 1312 657 
Q 1506 409 1894 409 
Q 2359 409 2629 706 
Q 2900 1003 2900 1516 
L 2900 3500 
L 3475 3500 
L 3475 0 
L 2900 0 
L 2900 538 
Q 2691 219 2414 64 
Q 2138 -91 1772 -91 
Q 1169 -91 856 284 
Q 544 659 544 1381 
z
M 1991 3584 
L 1991 3584 
z
" transform="scale(0.015625)"/>
      <path id="DejaVuSans-6e" d="M 3513 2113 
L 3513 0 
L 2938 0 
L 2938 2094 
Q 2938 2591 2744 2837 
Q 2550 3084 2163 3084 
Q 1697 3084 1428 2787 
Q 1159 2491 1159 1978 
L 1159 0 
L 581 0 
L 581 3500 
L 1159 3500 
L 1159 2956 
Q 1366 3272 1645 3428 
Q 1925 3584 2291 3584 
Q 2894 3584 3203 3211 
Q 3513 2838 3513 2113 
z
" transform="scale(0.015625)"/>
      <path id="DejaVuSans-63" d="M 3122 3366 
L 3122 2828 
Q 2878 2963 2633 3030 
Q 2388 3097 2138 3097 
Q 1578 3097 1268 2742 
Q 959 2388 959 1747 
Q 959 1106 1268 751 
Q 1578 397 2138 397 
Q 2388 397 2633 464 
Q 2878 531 3122 666 
L 3122 134 
Q 2881 22 2623 -34 
Q 2366 -91 2075 -91 
Q 1284 -91 818 406 
Q 353 903 353 1747 
Q 353 2603 823 3093 
Q 1294 3584 2113 3584 
Q 2378 3584 2631 3529 
Q 2884 3475 3122 3366 
z
" transform="scale(0.015625)"/>
      <path id="DejaVuSans-74" d="M 1172 4494 
L 1172 3500 
L 2356 3500 
L 2356 3053 
L 1172 3053 
L 1172 1153 
Q 1172 725 1289 603 
Q 1406 481 1766 481 
L 2356 481 
L 2356 0 
L 1766 0 
Q 1100 0 847 248 
Q 594 497 594 1153 
L 594 3053 
L 172 3053 
L 172 3500 
L 594 3500 
L 594 4494 
L 1172 4494 
z
" transform="scale(0.015625)"/>
      <path id="DejaVuSans-69" d="M 603 3500 
L 1178 3500 
L 1178 0 
L 603 0 
L 603 3500 
z
M 603 4863 
L 1178 4863 
L 1178 4134 
L 603 4134 
L 603 4863 
z
" transform="scale(0.015625)"/>
      <path id="DejaVuSans-6f" d="M 1959 3097 
Q 1497 3097 1228 2736 
Q 959 2375 959 1747 
Q 959 1119 1226 758 
Q 1494 397 1959 397 
Q 2419 397 2687 759 
Q 2956 1122 2956 1747 
Q 2956 2369 2687 2733 
Q 2419 3097 1959 3097 
z
M 1959 3584 
Q 2709 3584 3137 3096 
Q 3566 2609 3566 1747 
Q 3566 888 3137 398 
Q 2709 -91 1959 -91 
Q 1206 -91 779 398 
Q 353 888 353 1747 
Q 353 2609 779 3096 
Q 1206 3584 1959 3584 
z
" transform="scale(0.015625)"/>
      <path id="DejaVuSans-20" transform="scale(0.015625)"/>
     </defs>
     <use xlink:href="#DejaVuSans-46"/>
     <use xlink:href="#DejaVuSans-75" x="52.019531"/>
     <use xlink:href="#DejaVuSans-6e" x="115.398438"/>
     <use xlink:href="#DejaVuSans-63" x="178.777344"/>
     <use xlink:href="#DejaVuSans-74" x="233.757812"/>
     <use xlink:href="#DejaVuSans-69" x="272.966797"/>
     <use xlink:href="#DejaVuSans-6f" x="300.75"/>
     <use xlink:href="#DejaVuSans-6e" x="361.931641"/>
     <use xlink:href="#DejaVuSans-20" x="425.310547"/>
     <use xlink:href="#DejaVuSans-31" x="457.097656"/>
    </g>
   </g>
   <g id="legend_1">
    <g id="patch_7">
     <path d="M 1011.90625 170.3925 
L 1159.4 170.3925 
Q 1161.4 170.3925 1161.4 168.3925 
L 1161.4 110.68 
Q 1161.4 108.68 1159.4 108.68 
L 1011.90625 108.68 
Q 1009.90625 108.68 1009.90625 110.68 
L 1009.90625 168.3925 
Q 1009.90625 170.3925 1011.90625 170.3925 
z
" style="fill: #ffffff; opacity: 0.8; stroke: #cccccc; stroke-linejoin: miter"/>
    </g>
    <g id="line2d_18">
     <path d="M 1013.90625 116.778437 
L 1023.90625 116.778437 
L 1033.90625 116.778437 
" style="fill: none; stroke: #4169e1; stroke-linecap: square"/>
    </g>
    <g id="text_15">
     <!-- Truth -->
     <g transform="translate(1041.90625 120.278437) scale(0.1 -0.1)">
      <defs>
       <path id="DejaVuSans-54" d="M -19 4666 
L 3928 4666 
L 3928 4134 
L 2272 4134 
L 2272 0 
L 1638 0 
L 1638 4134 
L -19 4134 
L -19 4666 
z
" transform="scale(0.015625)"/>
       <path id="DejaVuSans-72" d="M 2631 2963 
Q 2534 3019 2420 3045 
Q 2306 3072 2169 3072 
Q 1681 3072 1420 2755 
Q 1159 2438 1159 1844 
L 1159 0 
L 581 0 
L 581 3500 
L 1159 3500 
L 1159 2956 
Q 1341 3275 1631 3429 
Q 1922 3584 2338 3584 
Q 2397 3584 2469 3576 
Q 2541 3569 2628 3553 
L 2631 2963 
z
" transform="scale(0.015625)"/>
       <path id="DejaVuSans-68" d="M 3513 2113 
L 3513 0 
L 2938 0 
L 2938 2094 
Q 2938 2591 2744 2837 
Q 2550 3084 2163 3084 
Q 1697 3084 1428 2787 
Q 1159 2491 1159 1978 
L 1159 0 
L 581 0 
L 581 4863 
L 1159 4863 
L 1159 2956 
Q 1366 3272 1645 3428 
Q 1925 3584 2291 3584 
Q 2894 3584 3203 3211 
Q 3513 2838 3513 2113 
z
" transform="scale(0.015625)"/>
      </defs>
      <use xlink:href="#DejaVuSans-54"/>
      <use xlink:href="#DejaVuSans-72" x="46.333984"/>
      <use xlink:href="#DejaVuSans-75" x="87.447266"/>
      <use xlink:href="#DejaVuSans-74" x="150.826172"/>
      <use xlink:href="#DejaVuSans-68" x="190.035156"/>
     </g>
    </g>
    <g id="line2d_19">
     <path d="M 1013.90625 131.456562 
L 1023.90625 131.456562 
L 1033.90625 131.456562 
" style="fill: none; stroke: #ff6347; stroke-linecap: square"/>
    </g>
    <g id="text_16">
     <!-- Gossip predictions -->
     <g transform="translate(1041.90625 134.956562) scale(0.1 -0.1)">
      <defs>
       <path id="DejaVuSans-47" d="M 3809 666 
L 3809 1919 
L 2778 1919 
L 2778 2438 
L 4434 2438 
L 4434 434 
Q 4069 175 3628 42 
Q 3188 -91 2688 -91 
Q 1594 -91 976 548 
Q 359 1188 359 2328 
Q 359 3472 976 4111 
Q 1594 4750 2688 4750 
Q 3144 4750 3555 4637 
Q 3966 4525 4313 4306 
L 4313 3634 
Q 3963 3931 3569 4081 
Q 3175 4231 2741 4231 
Q 1884 4231 1454 3753 
Q 1025 3275 1025 2328 
Q 1025 1384 1454 906 
Q 1884 428 2741 428 
Q 3075 428 3337 486 
Q 3600 544 3809 666 
z
" transform="scale(0.015625)"/>
       <path id="DejaVuSans-73" d="M 2834 3397 
L 2834 2853 
Q 2591 2978 2328 3040 
Q 2066 3103 1784 3103 
Q 1356 3103 1142 2972 
Q 928 2841 928 2578 
Q 928 2378 1081 2264 
Q 1234 2150 1697 2047 
L 1894 2003 
Q 2506 1872 2764 1633 
Q 3022 1394 3022 966 
Q 3022 478 2636 193 
Q 2250 -91 1575 -91 
Q 1294 -91 989 -36 
Q 684 19 347 128 
L 347 722 
Q 666 556 975 473 
Q 1284 391 1588 391 
Q 1994 391 2212 530 
Q 2431 669 2431 922 
Q 2431 1156 2273 1281 
Q 2116 1406 1581 1522 
L 1381 1569 
Q 847 1681 609 1914 
Q 372 2147 372 2553 
Q 372 3047 722 3315 
Q 1072 3584 1716 3584 
Q 2034 3584 2315 3537 
Q 2597 3491 2834 3397 
z
" transform="scale(0.015625)"/>
       <path id="DejaVuSans-70" d="M 1159 525 
L 1159 -1331 
L 581 -1331 
L 581 3500 
L 1159 3500 
L 1159 2969 
Q 1341 3281 1617 3432 
Q 1894 3584 2278 3584 
Q 2916 3584 3314 3078 
Q 3713 2572 3713 1747 
Q 3713 922 3314 415 
Q 2916 -91 2278 -91 
Q 1894 -91 1617 61 
Q 1341 213 1159 525 
z
M 3116 1747 
Q 3116 2381 2855 2742 
Q 2594 3103 2138 3103 
Q 1681 3103 1420 2742 
Q 1159 2381 1159 1747 
Q 1159 1113 1420 752 
Q 1681 391 2138 391 
Q 2594 391 2855 752 
Q 3116 1113 3116 1747 
z
" transform="scale(0.015625)"/>
       <path id="DejaVuSans-65" d="M 3597 1894 
L 3597 1613 
L 953 1613 
Q 991 1019 1311 708 
Q 1631 397 2203 397 
Q 2534 397 2845 478 
Q 3156 559 3463 722 
L 3463 178 
Q 3153 47 2828 -22 
Q 2503 -91 2169 -91 
Q 1331 -91 842 396 
Q 353 884 353 1716 
Q 353 2575 817 3079 
Q 1281 3584 2069 3584 
Q 2775 3584 3186 3129 
Q 3597 2675 3597 1894 
z
M 3022 2063 
Q 3016 2534 2758 2815 
Q 2500 3097 2075 3097 
Q 1594 3097 1305 2825 
Q 1016 2553 972 2059 
L 3022 2063 
z
" transform="scale(0.015625)"/>
       <path id="DejaVuSans-64" d="M 2906 2969 
L 2906 4863 
L 3481 4863 
L 3481 0 
L 2906 0 
L 2906 525 
Q 2725 213 2448 61 
Q 2172 -91 1784 -91 
Q 1150 -91 751 415 
Q 353 922 353 1747 
Q 353 2572 751 3078 
Q 1150 3584 1784 3584 
Q 2172 3584 2448 3432 
Q 2725 3281 2906 2969 
z
M 947 1747 
Q 947 1113 1208 752 
Q 1469 391 1925 391 
Q 2381 391 2643 752 
Q 2906 1113 2906 1747 
Q 2906 2381 2643 2742 
Q 2381 3103 1925 3103 
Q 1469 3103 1208 2742 
Q 947 2381 947 1747 
z
" transform="scale(0.015625)"/>
      </defs>
      <use xlink:href="#DejaVuSans-47"/>
      <use xlink:href="#DejaVuSans-6f" x="77.490234"/>
      <use xlink:href="#DejaVuSans-73" x="138.671875"/>
      <use xlink:href="#DejaVuSans-73" x="190.771484"/>
      <use xlink:href="#DejaVuSans-69" x="242.871094"/>
      <use xlink:href="#DejaVuSans-70" x="270.654297"/>
      <use xlink:href="#DejaVuSans-20" x="334.130859"/>
      <use xlink:href="#DejaVuSans-70" x="365.917969"/>
      <use xlink:href="#DejaVuSans-72" x="429.394531"/>
      <use xlink:href="#DejaVuSans-65" x="468.257812"/>
      <use xlink:href="#DejaVuSans-64" x="529.78125"/>
      <use xlink:href="#DejaVuSans-69" x="593.257812"/>
      <use xlink:href="#DejaVuSans-63" x="621.041016"/>
      <use xlink:href="#DejaVuSans-74" x="676.021484"/>
      <use xlink:href="#DejaVuSans-69" x="715.230469"/>
      <use xlink:href="#DejaVuSans-6f" x="743.013672"/>
      <use xlink:href="#DejaVuSans-6e" x="804.195312"/>
      <use xlink:href="#DejaVuSans-73" x="867.574219"/>
     </g>
    </g>
    <g id="line2d_20">
     <path d="M 1013.90625 146.134687 
L 1023.90625 146.134687 
L 1033.90625 146.134687 
" style="fill: none; stroke: #da70d6; stroke-linecap: square"/>
    </g>
    <g id="text_17">
     <!-- Centralized predictions -->
     <g transform="translate(1041.90625 149.634687) scale(0.1 -0.1)">
      <defs>
       <path id="DejaVuSans-43" d="M 4122 4306 
L 4122 3641 
Q 3803 3938 3442 4084 
Q 3081 4231 2675 4231 
Q 1875 4231 1450 3742 
Q 1025 3253 1025 2328 
Q 1025 1406 1450 917 
Q 1875 428 2675 428 
Q 3081 428 3442 575 
Q 3803 722 4122 1019 
L 4122 359 
Q 3791 134 3420 21 
Q 3050 -91 2638 -91 
Q 1578 -91 968 557 
Q 359 1206 359 2328 
Q 359 3453 968 4101 
Q 1578 4750 2638 4750 
Q 3056 4750 3426 4639 
Q 3797 4528 4122 4306 
z
" transform="scale(0.015625)"/>
       <path id="DejaVuSans-61" d="M 2194 1759 
Q 1497 1759 1228 1600 
Q 959 1441 959 1056 
Q 959 750 1161 570 
Q 1363 391 1709 391 
Q 2188 391 2477 730 
Q 2766 1069 2766 1631 
L 2766 1759 
L 2194 1759 
z
M 3341 1997 
L 3341 0 
L 2766 0 
L 2766 531 
Q 2569 213 2275 61 
Q 1981 -91 1556 -91 
Q 1019 -91 701 211 
Q 384 513 384 1019 
Q 384 1609 779 1909 
Q 1175 2209 1959 2209 
L 2766 2209 
L 2766 2266 
Q 2766 2663 2505 2880 
Q 2244 3097 1772 3097 
Q 1472 3097 1187 3025 
Q 903 2953 641 2809 
L 641 3341 
Q 956 3463 1253 3523 
Q 1550 3584 1831 3584 
Q 2591 3584 2966 3190 
Q 3341 2797 3341 1997 
z
" transform="scale(0.015625)"/>
       <path id="DejaVuSans-6c" d="M 603 4863 
L 1178 4863 
L 1178 0 
L 603 0 
L 603 4863 
z
" transform="scale(0.015625)"/>
       <path id="DejaVuSans-7a" d="M 353 3500 
L 3084 3500 
L 3084 2975 
L 922 459 
L 3084 459 
L 3084 0 
L 275 0 
L 275 525 
L 2438 3041 
L 353 3041 
L 353 3500 
z
" transform="scale(0.015625)"/>
      </defs>
      <use xlink:href="#DejaVuSans-43"/>
      <use xlink:href="#DejaVuSans-65" x="69.824219"/>
      <use xlink:href="#DejaVuSans-6e" x="131.347656"/>
      <use xlink:href="#DejaVuSans-74" x="194.726562"/>
      <use xlink:href="#DejaVuSans-72" x="233.935547"/>
      <use xlink:href="#DejaVuSans-61" x="275.048828"/>
      <use xlink:href="#DejaVuSans-6c" x="336.328125"/>
      <use xlink:href="#DejaVuSans-69" x="364.111328"/>
      <use xlink:href="#DejaVuSans-7a" x="391.894531"/>
      <use xlink:href="#DejaVuSans-65" x="444.384766"/>
      <use xlink:href="#DejaVuSans-64" x="505.908203"/>
      <use xlink:href="#DejaVuSans-20" x="569.384766"/>
      <use xlink:href="#DejaVuSans-70" x="601.171875"/>
      <use xlink:href="#DejaVuSans-72" x="664.648438"/>
      <use xlink:href="#DejaVuSans-65" x="703.511719"/>
      <use xlink:href="#DejaVuSans-64" x="765.035156"/>
      <use xlink:href="#DejaVuSans-69" x="828.511719"/>
      <use xlink:href="#DejaVuSans-63" x="856.294922"/>
      <use xlink:href="#DejaVuSans-74" x="911.275391"/>
      <use xlink:href="#DejaVuSans-69" x="950.484375"/>
      <use xlink:href="#DejaVuSans-6f" x="978.267578"/>
      <use xlink:href="#DejaVuSans-6e" x="1039.449219"/>
      <use xlink:href="#DejaVuSans-73" x="1102.828125"/>
     </g>
    </g>
    <g id="line2d_21">
     <path d="M 1013.90625 160.812812 
L 1023.90625 160.812812 
L 1033.90625 160.812812 
" style="fill: none; stroke: #8fbc8f; stroke-linecap: square"/>
    </g>
    <g id="text_18">
     <!-- Single predictions -->
     <g transform="translate(1041.90625 164.312812) scale(0.1 -0.1)">
      <defs>
       <path id="DejaVuSans-53" d="M 3425 4513 
L 3425 3897 
Q 3066 4069 2747 4153 
Q 2428 4238 2131 4238 
Q 1616 4238 1336 4038 
Q 1056 3838 1056 3469 
Q 1056 3159 1242 3001 
Q 1428 2844 1947 2747 
L 2328 2669 
Q 3034 2534 3370 2195 
Q 3706 1856 3706 1288 
Q 3706 609 3251 259 
Q 2797 -91 1919 -91 
Q 1588 -91 1214 -16 
Q 841 59 441 206 
L 441 856 
Q 825 641 1194 531 
Q 1563 422 1919 422 
Q 2459 422 2753 634 
Q 3047 847 3047 1241 
Q 3047 1584 2836 1778 
Q 2625 1972 2144 2069 
L 1759 2144 
Q 1053 2284 737 2584 
Q 422 2884 422 3419 
Q 422 4038 858 4394 
Q 1294 4750 2059 4750 
Q 2388 4750 2728 4690 
Q 3069 4631 3425 4513 
z
" transform="scale(0.015625)"/>
       <path id="DejaVuSans-67" d="M 2906 1791 
Q 2906 2416 2648 2759 
Q 2391 3103 1925 3103 
Q 1463 3103 1205 2759 
Q 947 2416 947 1791 
Q 947 1169 1205 825 
Q 1463 481 1925 481 
Q 2391 481 2648 825 
Q 2906 1169 2906 1791 
z
M 3481 434 
Q 3481 -459 3084 -895 
Q 2688 -1331 1869 -1331 
Q 1566 -1331 1297 -1286 
Q 1028 -1241 775 -1147 
L 775 -588 
Q 1028 -725 1275 -790 
Q 1522 -856 1778 -856 
Q 2344 -856 2625 -561 
Q 2906 -266 2906 331 
L 2906 616 
Q 2728 306 2450 153 
Q 2172 0 1784 0 
Q 1141 0 747 490 
Q 353 981 353 1791 
Q 353 2603 747 3093 
Q 1141 3584 1784 3584 
Q 2172 3584 2450 3431 
Q 2728 3278 2906 2969 
L 2906 3500 
L 3481 3500 
L 3481 434 
z
" transform="scale(0.015625)"/>
      </defs>
      <use xlink:href="#DejaVuSans-53"/>
      <use xlink:href="#DejaVuSans-69" x="63.476562"/>
      <use xlink:href="#DejaVuSans-6e" x="91.259766"/>
      <use xlink:href="#DejaVuSans-67" x="154.638672"/>
      <use xlink:href="#DejaVuSans-6c" x="218.115234"/>
      <use xlink:href="#DejaVuSans-65" x="245.898438"/>
      <use xlink:href="#DejaVuSans-20" x="307.421875"/>
      <use xlink:href="#DejaVuSans-70" x="339.208984"/>
      <use xlink:href="#DejaVuSans-72" x="402.685547"/>
      <use xlink:href="#DejaVuSans-65" x="441.548828"/>
      <use xlink:href="#DejaVuSans-64" x="503.072266"/>
      <use xlink:href="#DejaVuSans-69" x="566.548828"/>
      <use xlink:href="#DejaVuSans-63" x="594.332031"/>
      <use xlink:href="#DejaVuSans-74" x="649.3125"/>
      <use xlink:href="#DejaVuSans-69" x="688.521484"/>
      <use xlink:href="#DejaVuSans-6f" x="716.304688"/>
      <use xlink:href="#DejaVuSans-6e" x="777.486328"/>
      <use xlink:href="#DejaVuSans-73" x="840.865234"/>
     </g>
    </g>
   </g>
  </g>
 </g>
 <defs>
  <clipPath id="pf491f468d0">
   <rect x="162" y="103.68" width="1004.4" height="665.28"/>
  </clipPath>
 </defs>
</svg>
