<?xml version="1.0" encoding="utf-8" standalone="no"?>
<!DOCTYPE svg PUBLIC "-//W3C//DTD SVG 1.1//EN"
  "http://www.w3.org/Graphics/SVG/1.1/DTD/svg11.dtd">
<svg xmlns:xlink="http://www.w3.org/1999/xlink" width="1296pt" height="864pt" viewBox="0 0 1296 864" xmlns="http://www.w3.org/2000/svg" version="1.1">
 <metadata>
  <rdf:RDF xmlns:dc="http://purl.org/dc/elements/1.1/" xmlns:cc="http://creativecommons.org/ns#" xmlns:rdf="http://www.w3.org/1999/02/22-rdf-syntax-ns#">
   <cc:Work>
    <dc:type rdf:resource="http://purl.org/dc/dcmitype/StillImage"/>
    <dc:date>2023-12-10T13:02:43.073139</dc:date>
    <dc:format>image/svg+xml</dc:format>
    <dc:creator>
     <cc:Agent>
      <dc:title>Matplotlib v3.8.0, https://matplotlib.org/</dc:title>
     </cc:Agent>
    </dc:creator>
   </cc:Work>
  </rdf:RDF>
 </metadata>
 <defs>
  <style type="text/css">*{stroke-linejoin: round; stroke-linecap: butt}</style>
 </defs>
 <g id="figure_1">
  <g id="patch_1">
   <path d="M 0 864 
L 1296 864 
L 1296 0 
L 0 0 
z
" style="fill: #ffffff"/>
  </g>
  <g id="axes_1">
   <g id="patch_2">
    <path d="M 162 768.96 
L 1166.4 768.96 
L 1166.4 103.68 
L 162 103.68 
z
" style="fill: #ffffff"/>
   </g>
   <g id="matplotlib.axis_1">
    <g id="xtick_1">
     <g id="line2d_1">
      <defs>
       <path id="macc9e4fa31" d="M 0 0 
L 0 3.5 
" style="stroke: #000000; stroke-width: 0.8"/>
      </defs>
      <g>
       <use xlink:href="#macc9e4fa31" x="207.654545" y="768.96" style="stroke: #000000; stroke-width: 0.8"/>
      </g>
     </g>
     <g id="text_1">
      <!-- 0 -->
      <g transform="translate(204.473295 783.558437) scale(0.1 -0.1)">
       <defs>
        <path id="DejaVuSans-30" d="M 2034 4250 
Q 1547 4250 1301 3770 
Q 1056 3291 1056 2328 
Q 1056 1369 1301 889 
Q 1547 409 2034 409 
Q 2525 409 2770 889 
Q 3016 1369 3016 2328 
Q 3016 3291 2770 3770 
Q 2525 4250 2034 4250 
z
M 2034 4750 
Q 2819 4750 3233 4129 
Q 3647 3509 3647 2328 
Q 3647 1150 3233 529 
Q 2819 -91 2034 -91 
Q 1250 -91 836 529 
Q 422 1150 422 2328 
Q 422 3509 836 4129 
Q 1250 4750 2034 4750 
z
" transform="scale(0.015625)"/>
       </defs>
       <use xlink:href="#DejaVuSans-30"/>
      </g>
     </g>
    </g>
    <g id="xtick_2">
     <g id="line2d_2">
      <g>
       <use xlink:href="#macc9e4fa31" x="390.638696" y="768.96" style="stroke: #000000; stroke-width: 0.8"/>
      </g>
     </g>
     <g id="text_2">
      <!-- 100 -->
      <g transform="translate(381.094946 783.558437) scale(0.1 -0.1)">
       <defs>
        <path id="DejaVuSans-31" d="M 794 531 
L 1825 531 
L 1825 4091 
L 703 3866 
L 703 4441 
L 1819 4666 
L 2450 4666 
L 2450 531 
L 3481 531 
L 3481 0 
L 794 0 
L 794 531 
z
" transform="scale(0.015625)"/>
       </defs>
       <use xlink:href="#DejaVuSans-31"/>
       <use xlink:href="#DejaVuSans-30" x="63.623047"/>
       <use xlink:href="#DejaVuSans-30" x="127.246094"/>
      </g>
     </g>
    </g>
    <g id="xtick_3">
     <g id="line2d_3">
      <g>
       <use xlink:href="#macc9e4fa31" x="573.622846" y="768.96" style="stroke: #000000; stroke-width: 0.8"/>
      </g>
     </g>
     <g id="text_3">
      <!-- 200 -->
      <g transform="translate(564.079096 783.558437) scale(0.1 -0.1)">
       <defs>
        <path id="DejaVuSans-32" d="M 1228 531 
L 3431 531 
L 3431 0 
L 469 0 
L 469 531 
Q 828 903 1448 1529 
Q 2069 2156 2228 2338 
Q 2531 2678 2651 2914 
Q 2772 3150 2772 3378 
Q 2772 3750 2511 3984 
Q 2250 4219 1831 4219 
Q 1534 4219 1204 4116 
Q 875 4013 500 3803 
L 500 4441 
Q 881 4594 1212 4672 
Q 1544 4750 1819 4750 
Q 2544 4750 2975 4387 
Q 3406 4025 3406 3419 
Q 3406 3131 3298 2873 
Q 3191 2616 2906 2266 
Q 2828 2175 2409 1742 
Q 1991 1309 1228 531 
z
" transform="scale(0.015625)"/>
       </defs>
       <use xlink:href="#DejaVuSans-32"/>
       <use xlink:href="#DejaVuSans-30" x="63.623047"/>
       <use xlink:href="#DejaVuSans-30" x="127.246094"/>
      </g>
     </g>
    </g>
    <g id="xtick_4">
     <g id="line2d_4">
      <g>
       <use xlink:href="#macc9e4fa31" x="756.606996" y="768.96" style="stroke: #000000; stroke-width: 0.8"/>
      </g>
     </g>
     <g id="text_4">
      <!-- 300 -->
      <g transform="translate(747.063246 783.558437) scale(0.1 -0.1)">
       <defs>
        <path id="DejaVuSans-33" d="M 2597 2516 
Q 3050 2419 3304 2112 
Q 3559 1806 3559 1356 
Q 3559 666 3084 287 
Q 2609 -91 1734 -91 
Q 1441 -91 1130 -33 
Q 819 25 488 141 
L 488 750 
Q 750 597 1062 519 
Q 1375 441 1716 441 
Q 2309 441 2620 675 
Q 2931 909 2931 1356 
Q 2931 1769 2642 2001 
Q 2353 2234 1838 2234 
L 1294 2234 
L 1294 2753 
L 1863 2753 
Q 2328 2753 2575 2939 
Q 2822 3125 2822 3475 
Q 2822 3834 2567 4026 
Q 2313 4219 1838 4219 
Q 1578 4219 1281 4162 
Q 984 4106 628 3988 
L 628 4550 
Q 988 4650 1302 4700 
Q 1616 4750 1894 4750 
Q 2613 4750 3031 4423 
Q 3450 4097 3450 3541 
Q 3450 3153 3228 2886 
Q 3006 2619 2597 2516 
z
" transform="scale(0.015625)"/>
       </defs>
       <use xlink:href="#DejaVuSans-33"/>
       <use xlink:href="#DejaVuSans-30" x="63.623047"/>
       <use xlink:href="#DejaVuSans-30" x="127.246094"/>
      </g>
     </g>
    </g>
    <g id="xtick_5">
     <g id="line2d_5">
      <g>
       <use xlink:href="#macc9e4fa31" x="939.591146" y="768.96" style="stroke: #000000; stroke-width: 0.8"/>
      </g>
     </g>
     <g id="text_5">
      <!-- 400 -->
      <g transform="translate(930.047396 783.558437) scale(0.1 -0.1)">
       <defs>
        <path id="DejaVuSans-34" d="M 2419 4116 
L 825 1625 
L 2419 1625 
L 2419 4116 
z
M 2253 4666 
L 3047 4666 
L 3047 1625 
L 3713 1625 
L 3713 1100 
L 3047 1100 
L 3047 0 
L 2419 0 
L 2419 1100 
L 313 1100 
L 313 1709 
L 2253 4666 
z
" transform="scale(0.015625)"/>
       </defs>
       <use xlink:href="#DejaVuSans-34"/>
       <use xlink:href="#DejaVuSans-30" x="63.623047"/>
       <use xlink:href="#DejaVuSans-30" x="127.246094"/>
      </g>
     </g>
    </g>
    <g id="xtick_6">
     <g id="line2d_6">
      <g>
       <use xlink:href="#macc9e4fa31" x="1122.575296" y="768.96" style="stroke: #000000; stroke-width: 0.8"/>
      </g>
     </g>
     <g id="text_6">
      <!-- 500 -->
      <g transform="translate(1113.031546 783.558437) scale(0.1 -0.1)">
       <defs>
        <path id="DejaVuSans-35" d="M 691 4666 
L 3169 4666 
L 3169 4134 
L 1269 4134 
L 1269 2991 
Q 1406 3038 1543 3061 
Q 1681 3084 1819 3084 
Q 2600 3084 3056 2656 
Q 3513 2228 3513 1497 
Q 3513 744 3044 326 
Q 2575 -91 1722 -91 
Q 1428 -91 1123 -41 
Q 819 9 494 109 
L 494 744 
Q 775 591 1075 516 
Q 1375 441 1709 441 
Q 2250 441 2565 725 
Q 2881 1009 2881 1497 
Q 2881 1984 2565 2268 
Q 2250 2553 1709 2553 
Q 1456 2553 1204 2497 
Q 953 2441 691 2322 
L 691 4666 
z
" transform="scale(0.015625)"/>
       </defs>
       <use xlink:href="#DejaVuSans-35"/>
       <use xlink:href="#DejaVuSans-30" x="63.623047"/>
       <use xlink:href="#DejaVuSans-30" x="127.246094"/>
      </g>
     </g>
    </g>
   </g>
   <g id="matplotlib.axis_2">
    <g id="ytick_1">
     <g id="line2d_7">
      <defs>
       <path id="m6f8d5f17d5" d="M 0 0 
L -3.5 0 
" style="stroke: #000000; stroke-width: 0.8"/>
      </defs>
      <g>
       <use xlink:href="#m6f8d5f17d5" x="162" y="738.72" style="stroke: #000000; stroke-width: 0.8"/>
      </g>
     </g>
     <g id="text_7">
      <!-- 0 -->
      <g transform="translate(148.6375 742.519219) scale(0.1 -0.1)">
       <use xlink:href="#DejaVuSans-30"/>
      </g>
     </g>
    </g>
    <g id="ytick_2">
     <g id="line2d_8">
      <g>
       <use xlink:href="#m6f8d5f17d5" x="162" y="638.589298" style="stroke: #000000; stroke-width: 0.8"/>
      </g>
     </g>
     <g id="text_8">
      <!-- 20 -->
      <g transform="translate(142.275 642.388516) scale(0.1 -0.1)">
       <use xlink:href="#DejaVuSans-32"/>
       <use xlink:href="#DejaVuSans-30" x="63.623047"/>
      </g>
     </g>
    </g>
    <g id="ytick_3">
     <g id="line2d_9">
      <g>
       <use xlink:href="#m6f8d5f17d5" x="162" y="538.458595" style="stroke: #000000; stroke-width: 0.8"/>
      </g>
     </g>
     <g id="text_9">
      <!-- 40 -->
      <g transform="translate(142.275 542.257814) scale(0.1 -0.1)">
       <use xlink:href="#DejaVuSans-34"/>
       <use xlink:href="#DejaVuSans-30" x="63.623047"/>
      </g>
     </g>
    </g>
    <g id="ytick_4">
     <g id="line2d_10">
      <g>
       <use xlink:href="#m6f8d5f17d5" x="162" y="438.327893" style="stroke: #000000; stroke-width: 0.8"/>
      </g>
     </g>
     <g id="text_10">
      <!-- 60 -->
      <g transform="translate(142.275 442.127112) scale(0.1 -0.1)">
       <defs>
        <path id="DejaVuSans-36" d="M 2113 2584 
Q 1688 2584 1439 2293 
Q 1191 2003 1191 1497 
Q 1191 994 1439 701 
Q 1688 409 2113 409 
Q 2538 409 2786 701 
Q 3034 994 3034 1497 
Q 3034 2003 2786 2293 
Q 2538 2584 2113 2584 
z
M 3366 4563 
L 3366 3988 
Q 3128 4100 2886 4159 
Q 2644 4219 2406 4219 
Q 1781 4219 1451 3797 
Q 1122 3375 1075 2522 
Q 1259 2794 1537 2939 
Q 1816 3084 2150 3084 
Q 2853 3084 3261 2657 
Q 3669 2231 3669 1497 
Q 3669 778 3244 343 
Q 2819 -91 2113 -91 
Q 1303 -91 875 529 
Q 447 1150 447 2328 
Q 447 3434 972 4092 
Q 1497 4750 2381 4750 
Q 2619 4750 2861 4703 
Q 3103 4656 3366 4563 
z
" transform="scale(0.015625)"/>
       </defs>
       <use xlink:href="#DejaVuSans-36"/>
       <use xlink:href="#DejaVuSans-30" x="63.623047"/>
      </g>
     </g>
    </g>
    <g id="ytick_5">
     <g id="line2d_11">
      <g>
       <use xlink:href="#m6f8d5f17d5" x="162" y="338.19719" style="stroke: #000000; stroke-width: 0.8"/>
      </g>
     </g>
     <g id="text_11">
      <!-- 80 -->
      <g transform="translate(142.275 341.996409) scale(0.1 -0.1)">
       <defs>
        <path id="DejaVuSans-38" d="M 2034 2216 
Q 1584 2216 1326 1975 
Q 1069 1734 1069 1313 
Q 1069 891 1326 650 
Q 1584 409 2034 409 
Q 2484 409 2743 651 
Q 3003 894 3003 1313 
Q 3003 1734 2745 1975 
Q 2488 2216 2034 2216 
z
M 1403 2484 
Q 997 2584 770 2862 
Q 544 3141 544 3541 
Q 544 4100 942 4425 
Q 1341 4750 2034 4750 
Q 2731 4750 3128 4425 
Q 3525 4100 3525 3541 
Q 3525 3141 3298 2862 
Q 3072 2584 2669 2484 
Q 3125 2378 3379 2068 
Q 3634 1759 3634 1313 
Q 3634 634 3220 271 
Q 2806 -91 2034 -91 
Q 1263 -91 848 271 
Q 434 634 434 1313 
Q 434 1759 690 2068 
Q 947 2378 1403 2484 
z
M 1172 3481 
Q 1172 3119 1398 2916 
Q 1625 2713 2034 2713 
Q 2441 2713 2670 2916 
Q 2900 3119 2900 3481 
Q 2900 3844 2670 4047 
Q 2441 4250 2034 4250 
Q 1625 4250 1398 4047 
Q 1172 3844 1172 3481 
z
" transform="scale(0.015625)"/>
       </defs>
       <use xlink:href="#DejaVuSans-38"/>
       <use xlink:href="#DejaVuSans-30" x="63.623047"/>
      </g>
     </g>
    </g>
    <g id="ytick_6">
     <g id="line2d_12">
      <g>
       <use xlink:href="#m6f8d5f17d5" x="162" y="238.066488" style="stroke: #000000; stroke-width: 0.8"/>
      </g>
     </g>
     <g id="text_12">
      <!-- 100 -->
      <g transform="translate(135.9125 241.865707) scale(0.1 -0.1)">
       <use xlink:href="#DejaVuSans-31"/>
       <use xlink:href="#DejaVuSans-30" x="63.623047"/>
       <use xlink:href="#DejaVuSans-30" x="127.246094"/>
      </g>
     </g>
    </g>
    <g id="ytick_7">
     <g id="line2d_13">
      <g>
       <use xlink:href="#m6f8d5f17d5" x="162" y="137.935786" style="stroke: #000000; stroke-width: 0.8"/>
      </g>
     </g>
     <g id="text_13">
      <!-- 120 -->
      <g transform="translate(135.9125 141.735004) scale(0.1 -0.1)">
       <use xlink:href="#DejaVuSans-31"/>
       <use xlink:href="#DejaVuSans-32" x="63.623047"/>
       <use xlink:href="#DejaVuSans-30" x="127.246094"/>
      </g>
     </g>
    </g>
   </g>
   <g id="line2d_14">
    <path d="M 207.654545 152.955391 
L 211.314228 152.955391 
L 213.14407 448.340963 
L 214.973911 293.138374 
L 218.633594 538.458595 
L 220.463436 538.458595 
L 222.293277 152.955391 
L 224.123119 358.223331 
L 227.782802 152.955391 
L 233.272326 152.955391 
L 235.102168 503.412849 
L 236.932009 152.955391 
L 238.761851 218.040348 
L 240.591692 152.955391 
L 244.251375 152.955391 
L 246.081217 283.125304 
L 247.911058 353.216796 
L 249.7409 172.981532 
L 251.570741 323.177585 
L 253.400583 152.955391 
L 255.230424 152.955391 
L 257.060266 333.190655 
L 258.890107 683.648114 
L 260.719949 478.380174 
L 262.54979 152.955391 
L 264.379632 528.445525 
L 266.209473 393.269077 
L 268.039315 468.367104 
L 269.869156 152.955391 
L 271.698998 428.314823 
L 273.528839 458.354033 
L 275.358681 593.530482 
L 277.188522 453.347498 
L 279.018364 613.556622 
L 280.848206 633.582762 
L 282.678047 643.595833 
L 284.507889 157.961926 
L 286.33773 553.478201 
L 288.167572 708.680789 
L 289.997413 708.680789 
L 291.827255 508.419385 
L 293.657096 538.458595 
L 295.486938 648.602368 
L 297.316779 543.46513 
L 299.146621 678.641579 
L 300.976462 568.497806 
L 302.806304 373.242936 
L 304.636145 673.635043 
L 306.465987 488.393244 
L 308.295828 633.582762 
L 310.12567 613.556622 
L 311.955511 618.563157 
L 313.785353 703.674254 
L 315.615194 578.510876 
L 317.445036 608.550087 
L 319.274877 583.517411 
L 321.104719 613.556622 
L 322.93456 423.308287 
L 324.764402 608.550087 
L 326.594243 543.46513 
L 328.424085 698.667719 
L 330.253926 643.595833 
L 332.083768 563.491271 
L 333.913609 708.680789 
L 335.743451 678.641579 
L 337.573292 683.648114 
L 339.403134 548.471665 
L 341.232975 623.569692 
L 343.062817 598.537017 
L 344.892658 453.347498 
L 346.7225 648.602368 
L 348.552341 493.399779 
L 350.382183 493.399779 
L 352.212024 408.288682 
L 354.041866 167.974996 
L 355.871707 353.216796 
L 357.701549 152.955391 
L 359.53139 152.955391 
L 361.361232 293.138374 
L 363.191073 228.053418 
L 365.020915 152.955391 
L 366.850756 167.974996 
L 368.680598 423.308287 
L 370.510439 258.092629 
L 372.340281 152.955391 
L 375.999964 152.955391 
L 379.659647 593.530482 
L 383.31933 418.301752 
L 385.149171 498.406314 
L 386.979013 152.955391 
L 388.808854 273.112234 
L 390.638696 152.955391 
L 392.468537 152.955391 
L 394.298379 393.269077 
L 396.12822 152.955391 
L 401.617745 152.955391 
L 403.447586 353.216796 
L 405.277428 152.955391 
L 407.107269 303.151445 
L 408.937111 152.955391 
L 410.766952 543.46513 
L 412.596794 177.988067 
L 414.426635 152.955391 
L 419.91616 152.955391 
L 421.746001 423.308287 
L 423.575843 378.249471 
L 425.405684 152.955391 
L 427.235526 152.955391 
L 429.065367 458.354033 
L 430.895209 152.955391 
L 434.554892 152.955391 
L 436.384733 593.530482 
L 438.214575 152.955391 
L 440.044416 328.18412 
L 441.874258 308.15798 
L 443.704099 418.301752 
L 445.533941 152.955391 
L 447.363782 543.46513 
L 449.193624 643.595833 
L 451.023465 693.661184 
L 452.853307 378.249471 
L 454.683148 693.661184 
L 456.51299 708.680789 
L 458.342831 628.576227 
L 460.172673 152.955391 
L 462.002514 453.347498 
L 463.832356 613.556622 
L 465.662197 683.648114 
L 467.492039 613.556622 
L 469.32188 638.589298 
L 471.151722 678.641579 
L 472.981563 448.340963 
L 474.811405 152.955391 
L 476.641246 513.42592 
L 478.471088 563.491271 
L 480.300929 658.615438 
L 482.130771 448.340963 
L 483.960612 643.595833 
L 485.790454 548.471665 
L 487.620295 568.497806 
L 489.450137 673.635043 
L 491.279978 468.367104 
L 493.10982 578.510876 
L 494.939661 548.471665 
L 496.769503 698.667719 
L 498.599344 558.484736 
L 500.429186 238.066488 
L 502.259027 593.530482 
L 504.088869 593.530482 
L 505.91871 558.484736 
L 507.748552 553.478201 
L 509.578393 558.484736 
L 511.408235 152.955391 
L 513.238076 498.406314 
L 515.067918 618.563157 
L 516.897759 593.530482 
L 518.727601 152.955391 
L 520.557442 403.282147 
L 522.387284 518.432455 
L 524.217125 403.282147 
L 526.046967 578.510876 
L 527.876808 463.360568 
L 529.70665 518.432455 
L 531.536491 508.419385 
L 533.366333 453.347498 
L 535.196174 428.314823 
L 537.026016 228.053418 
L 538.855857 588.523946 
L 540.685699 152.955391 
L 542.51554 603.543552 
L 544.345382 713.687324 
L 546.175223 573.504341 
L 548.005065 177.988067 
L 549.834906 152.955391 
L 551.664748 513.42592 
L 553.494589 508.419385 
L 555.324431 488.393244 
L 557.154272 568.497806 
L 558.984114 152.955391 
L 560.813955 548.471665 
L 562.643797 152.955391 
L 564.473638 343.203726 
L 566.30348 313.164515 
L 568.133321 323.177585 
L 569.963163 338.19719 
L 571.793004 573.504341 
L 573.622846 478.380174 
L 575.452687 593.530482 
L 577.282529 152.955391 
L 579.11237 598.537017 
L 580.942212 393.269077 
L 582.772053 573.504341 
L 584.601895 458.354033 
L 586.431736 573.504341 
L 588.261578 558.484736 
L 590.091419 608.550087 
L 591.921261 152.955391 
L 593.751102 618.563157 
L 595.580944 152.955391 
L 597.410785 283.125304 
L 599.240627 523.43899 
L 601.070468 483.386709 
L 602.90031 473.373639 
L 604.730151 528.445525 
L 606.559993 478.380174 
L 608.389834 563.491271 
L 610.219676 508.419385 
L 612.049517 438.327893 
L 613.879359 152.955391 
L 615.7092 608.550087 
L 617.539042 653.608903 
L 619.368883 448.340963 
L 621.198725 458.354033 
L 623.028566 448.340963 
L 624.858408 443.334428 
L 626.688249 603.543552 
L 628.518091 503.412849 
L 630.347932 593.530482 
L 632.177774 543.46513 
L 634.007615 663.621973 
L 635.837457 548.471665 
L 637.667298 598.537017 
L 639.49714 408.288682 
L 641.326981 543.46513 
L 643.156823 533.45206 
L 646.816506 623.569692 
L 648.646347 553.478201 
L 650.476189 438.327893 
L 652.30603 538.458595 
L 654.135872 583.517411 
L 655.965713 663.621973 
L 657.795555 463.360568 
L 659.625396 678.641579 
L 661.455238 693.661184 
L 663.285079 538.458595 
L 665.114921 593.530482 
L 666.944762 583.517411 
L 668.774604 563.491271 
L 670.604445 348.210261 
L 672.434287 473.373639 
L 674.264128 508.419385 
L 676.09397 343.203726 
L 677.923811 423.308287 
L 679.753653 483.386709 
L 681.583494 438.327893 
L 683.413336 268.105699 
L 685.243177 578.510876 
L 687.073019 508.419385 
L 688.90286 543.46513 
L 690.732702 558.484736 
L 692.562543 388.262542 
L 694.392385 533.45206 
L 696.222226 528.445525 
L 698.052068 448.340963 
L 699.881909 448.340963 
L 701.711751 568.497806 
L 703.541592 423.308287 
L 705.371434 633.582762 
L 707.201275 563.491271 
L 709.031117 678.641579 
L 710.860958 708.680789 
L 712.6908 563.491271 
L 714.520641 598.537017 
L 716.350483 433.321358 
L 718.180324 653.608903 
L 720.010166 653.608903 
L 721.840007 333.190655 
L 725.49969 703.674254 
L 727.329532 633.582762 
L 729.159373 613.556622 
L 730.989215 613.556622 
L 732.819056 688.654649 
L 734.648898 508.419385 
L 736.478739 448.340963 
L 738.308581 152.955391 
L 740.138422 378.249471 
L 741.968264 673.635043 
L 743.798105 488.393244 
L 745.627947 588.523946 
L 747.457788 613.556622 
L 749.28763 528.445525 
L 751.117471 233.059953 
L 752.947313 273.112234 
L 754.777154 563.491271 
L 756.606996 303.151445 
L 758.436837 263.099164 
L 760.266679 318.17105 
L 762.09652 508.419385 
L 763.926362 633.582762 
L 765.756203 588.523946 
L 767.586045 152.955391 
L 769.415886 673.635043 
L 771.245728 663.621973 
L 773.075569 523.43899 
L 774.905411 418.301752 
L 776.735252 663.621973 
L 778.565094 528.445525 
L 780.394935 263.099164 
L 782.224777 152.955391 
L 784.054618 638.589298 
L 785.88446 528.445525 
L 787.714301 653.608903 
L 789.544143 182.994602 
L 791.373984 638.589298 
L 793.203826 613.556622 
L 795.033667 408.288682 
L 796.863509 152.955391 
L 798.69335 483.386709 
L 800.523192 598.537017 
L 802.353033 628.576227 
L 804.182875 433.321358 
L 806.012716 598.537017 
L 807.842558 693.661184 
L 809.672399 628.576227 
L 811.502241 152.955391 
L 813.332082 152.955391 
L 815.161924 663.621973 
L 816.991765 638.589298 
L 818.821607 703.674254 
L 820.651448 678.641579 
L 822.48129 733.713465 
L 824.311131 738.72 
L 826.140973 438.327893 
L 827.970814 643.595833 
L 829.800656 648.602368 
L 831.630497 648.602368 
L 833.460339 608.550087 
L 835.29018 688.654649 
L 837.120022 698.667719 
L 838.949863 648.602368 
L 840.779705 693.661184 
L 842.609546 598.537017 
L 844.439388 738.72 
L 846.269229 663.621973 
L 848.099071 718.69386 
L 849.928912 658.615438 
L 851.758754 643.595833 
L 853.588595 683.648114 
L 855.418437 728.70693 
L 857.248278 698.667719 
L 859.07812 573.504341 
L 860.907961 663.621973 
L 862.737803 688.654649 
L 864.567644 733.713465 
L 866.397486 628.576227 
L 868.227327 648.602368 
L 870.057169 663.621973 
L 871.88701 648.602368 
L 873.716852 623.569692 
L 875.546693 473.373639 
L 877.376535 613.556622 
L 879.206376 308.15798 
L 881.036218 152.955391 
L 882.866059 308.15798 
L 884.695901 152.955391 
L 886.525742 493.399779 
L 888.355584 152.955391 
L 890.185425 378.249471 
L 892.015267 152.955391 
L 893.845108 152.955391 
L 895.67495 293.138374 
L 897.504791 152.955391 
L 899.334633 348.210261 
L 901.164474 303.151445 
L 902.994316 152.955391 
L 904.824157 152.955391 
L 906.653999 298.14491 
L 908.48384 463.360568 
L 910.313682 152.955391 
L 915.803206 152.955391 
L 917.633048 363.229866 
L 919.462889 428.314823 
L 921.292731 353.216796 
L 923.122572 218.040348 
L 924.952414 373.242936 
L 926.782255 152.955391 
L 932.27178 152.955391 
L 934.101621 343.203726 
L 935.931463 218.040348 
L 937.761304 152.955391 
L 939.591146 338.19719 
L 941.420987 393.269077 
L 943.250829 152.955391 
L 946.910512 152.955391 
L 948.740353 323.177585 
L 950.570195 263.099164 
L 952.400036 563.491271 
L 954.229878 152.955391 
L 956.059719 318.17105 
L 957.889561 152.955391 
L 959.719402 378.249471 
L 961.549244 693.661184 
L 963.379085 468.367104 
L 965.208927 152.955391 
L 967.038768 378.249471 
L 968.86861 563.491271 
L 970.698451 548.471665 
L 972.528293 278.118769 
L 974.358134 638.589298 
L 976.187976 533.45206 
L 978.017817 703.674254 
L 979.847659 543.46513 
L 981.6775 678.641579 
L 983.507342 708.680789 
L 985.337183 608.550087 
L 987.167025 563.491271 
L 988.996866 618.563157 
L 990.826708 663.621973 
L 992.656549 363.229866 
L 994.486391 573.504341 
L 996.316232 698.667719 
L 998.146074 673.635043 
L 999.975915 673.635043 
L 1001.805757 533.45206 
L 1003.635598 518.432455 
L 1005.46544 638.589298 
L 1007.295281 708.680789 
L 1009.125123 468.367104 
L 1010.954964 393.269077 
L 1012.784806 713.687324 
L 1014.614647 678.641579 
L 1016.444489 688.654649 
L 1018.27433 613.556622 
L 1020.104172 713.687324 
L 1021.934013 738.72 
L 1023.763855 738.72 
L 1025.593696 728.70693 
L 1027.423538 708.680789 
L 1029.253379 658.615438 
L 1031.083221 723.700395 
L 1032.913062 728.70693 
L 1034.742904 653.608903 
L 1036.572745 473.373639 
L 1038.402587 408.288682 
L 1040.232428 728.70693 
L 1042.06227 663.621973 
L 1043.892111 603.543552 
L 1045.721953 668.628508 
L 1047.551794 563.491271 
L 1049.381636 558.484736 
L 1051.211478 713.687324 
L 1053.041319 643.595833 
L 1054.871161 463.360568 
L 1056.701002 167.974996 
L 1058.530844 152.955391 
L 1060.360685 152.955391 
L 1062.190527 182.994602 
L 1064.020368 152.955391 
L 1067.680051 152.955391 
L 1069.509893 258.092629 
L 1071.339734 152.955391 
L 1074.999417 152.955391 
L 1076.829259 268.105699 
L 1078.6591 363.229866 
L 1080.488942 393.269077 
L 1082.318783 338.19719 
L 1084.148625 223.046883 
L 1085.978466 152.955391 
L 1087.808308 293.138374 
L 1089.638149 152.955391 
L 1091.467991 152.955391 
L 1093.297832 368.236401 
L 1095.127674 368.236401 
L 1096.957515 383.256007 
L 1098.787357 663.621973 
L 1100.617198 293.138374 
L 1102.44704 313.164515 
L 1104.276881 152.955391 
L 1106.106723 152.955391 
L 1107.936564 378.249471 
L 1109.766406 328.18412 
L 1111.596247 223.046883 
L 1113.426089 443.334428 
L 1115.25593 343.203726 
L 1117.085772 152.955391 
L 1120.745455 152.955391 
L 1120.745455 152.955391 
" clip-path="url(#pa176c00aad)" style="fill: none; stroke: #4169e1; stroke-linecap: square"/>
   </g>
   <g id="line2d_15">
    <path d="M 207.654545 215.705604 
L 209.484387 219.274105 
L 211.314228 219.302027 
L 213.14407 217.730686 
L 214.973911 273.006009 
L 216.803753 243.232724 
L 218.633594 265.449033 
L 220.463436 328.69294 
L 222.293277 346.236745 
L 224.123119 239.888553 
L 225.95296 290.707184 
L 227.782802 245.053338 
L 229.612643 186.691368 
L 231.442485 194.574162 
L 233.272326 188.160188 
L 235.102168 193.121995 
L 236.932009 266.646618 
L 238.761851 238.437112 
L 240.591692 225.152368 
L 242.421534 250.498678 
L 244.251375 195.07202 
L 246.081217 193.773824 
L 249.7409 235.195041 
L 251.570741 215.075471 
L 253.400583 242.050838 
L 255.230424 228.284929 
L 257.060266 204.559998 
L 258.890107 303.284828 
L 260.719949 335.119748 
L 262.54979 293.162859 
L 264.379632 344.957686 
L 266.209473 506.176199 
L 269.869156 300.891453 
L 271.698998 428.761363 
L 273.528839 461.612662 
L 275.358681 468.859346 
L 277.188522 324.317646 
L 279.018364 468.137292 
L 280.848206 517.730512 
L 282.678047 543.355353 
L 284.507889 506.83477 
L 286.33773 532.52785 
L 288.167572 584.896603 
L 289.997413 619.593956 
L 291.827255 623.223887 
L 293.657096 574.399847 
L 295.486938 548.156446 
L 297.316779 610.389923 
L 299.146621 577.115355 
L 300.976462 624.934475 
L 302.806304 609.910524 
L 304.636145 557.069887 
L 306.465987 621.332771 
L 308.295828 578.665 
L 310.12567 592.105234 
L 311.955511 631.9532 
L 313.785353 616.224986 
L 315.615194 648.367496 
L 317.445036 624.263585 
L 319.274877 620.1209 
L 321.104719 615.653657 
L 322.93456 603.906785 
L 324.764402 575.214757 
L 326.594243 605.083247 
L 328.424085 583.001296 
L 330.253926 613.769388 
L 332.083768 618.721578 
L 333.913609 603.555087 
L 335.743451 638.050789 
L 337.573292 612.694386 
L 339.403134 617.102157 
L 341.232975 598.093809 
L 343.062817 603.788202 
L 344.892658 582.532716 
L 346.7225 468.122033 
L 348.552341 536.00506 
L 350.382183 419.656804 
L 352.212024 314.593879 
L 354.041866 294.40078 
L 355.871707 210.192159 
L 357.701549 245.805892 
L 359.53139 211.949901 
L 361.361232 202.765244 
L 363.191073 233.557619 
L 365.020915 220.295068 
L 366.850756 202.35967 
L 368.680598 215.161491 
L 370.510439 256.996418 
L 372.340281 239.046848 
L 374.170122 205.492574 
L 375.999964 227.065304 
L 377.829805 220.996591 
L 379.659647 272.654178 
L 381.489488 340.002946 
L 383.31933 350.029385 
L 385.149171 299.785578 
L 386.979013 348.305676 
L 388.808854 238.447998 
L 390.638696 237.967673 
L 392.468537 211.964263 
L 394.298379 209.693767 
L 396.12822 272.627363 
L 397.958062 217.829692 
L 399.787903 211.661782 
L 401.617745 211.555901 
L 403.447586 214.448279 
L 405.277428 239.948408 
L 407.107269 197.965659 
L 408.937111 218.093097 
L 410.766952 204.151063 
L 412.596794 267.304367 
L 414.426635 249.920646 
L 416.256477 220.854767 
L 418.086318 256.733738 
L 419.91616 191.992438 
L 421.746001 189.714761 
L 423.575843 236.528645 
L 425.405684 252.038087 
L 427.235526 219.993619 
L 429.065367 235.812302 
L 430.895209 287.372066 
L 432.72505 226.931195 
L 434.554892 225.526201 
L 436.384733 263.782925 
L 438.214575 310.464686 
L 440.044416 273.459099 
L 441.874258 299.901353 
L 443.704099 396.789793 
L 445.533941 287.125238 
L 447.363782 329.789037 
L 449.193624 407.762635 
L 451.023465 446.603389 
L 452.853307 335.345377 
L 454.683148 486.54891 
L 456.51299 576.993946 
L 458.342831 579.247684 
L 460.172673 487.50788 
L 462.002514 535.060739 
L 463.832356 534.299953 
L 465.662197 512.756635 
L 469.32188 566.328722 
L 471.151722 539.69602 
L 472.981563 542.253947 
L 474.811405 494.866079 
L 476.641246 432.393289 
L 478.471088 466.863371 
L 480.300929 479.321649 
L 482.130771 538.570588 
L 483.960612 488.894348 
L 485.790454 516.540566 
L 487.620295 500.032583 
L 489.450137 492.38678 
L 491.279978 562.146246 
L 493.10982 504.998896 
L 494.939661 509.424152 
L 496.769503 500.634297 
L 498.599344 495.244361 
L 500.429186 502.20667 
L 502.259027 473.875507 
L 504.088869 530.575361 
L 505.91871 516.661802 
L 507.748552 470.879118 
L 509.578393 523.013649 
L 511.408235 517.076735 
L 513.238076 434.802765 
L 515.067918 518.196131 
L 516.897759 543.242672 
L 518.727601 474.396493 
L 520.557442 450.977595 
L 522.387284 458.903476 
L 524.217125 459.885784 
L 526.046967 434.767184 
L 527.876808 466.390303 
L 529.70665 438.861961 
L 531.536491 452.988945 
L 533.366333 452.189504 
L 535.196174 427.761866 
L 537.026016 414.572099 
L 538.855857 345.159136 
L 540.685699 409.112932 
L 542.51554 318.640833 
L 546.175223 561.867829 
L 548.005065 518.013607 
L 549.834906 396.394456 
L 551.664748 385.462217 
L 553.494589 407.809923 
L 555.324431 419.060743 
L 557.154272 423.466613 
L 558.984114 430.649489 
L 560.813955 325.006793 
L 562.643797 401.76176 
L 564.473638 310.978014 
L 566.30348 347.959117 
L 568.133321 346.398852 
L 569.963163 339.051539 
L 571.793004 360.091729 
L 573.622846 418.954192 
L 575.452687 424.574226 
L 577.282529 438.603903 
L 579.11237 338.016901 
L 580.942212 404.956887 
L 582.772053 432.613761 
L 584.601895 398.620415 
L 586.431736 409.794363 
L 588.261578 421.89976 
L 590.091419 422.300884 
L 591.921261 432.833202 
L 593.751102 393.513193 
L 595.580944 420.094521 
L 597.410785 391.009543 
L 599.240627 324.392665 
L 601.070468 409.003612 
L 602.90031 329.430139 
L 606.559993 393.053952 
L 608.389834 395.800877 
L 610.219676 399.60956 
L 612.049517 402.852624 
L 613.879359 392.194027 
L 615.7092 389.92185 
L 617.539042 431.02907 
L 619.368883 427.28918 
L 621.198725 334.454283 
L 623.028566 462.7977 
L 624.858408 469.495438 
L 626.688249 444.916541 
L 628.518091 466.49523 
L 630.347932 461.807829 
L 632.177774 473.233495 
L 634.007615 496.198747 
L 635.837457 495.878142 
L 637.667298 525.970943 
L 639.49714 513.913922 
L 641.326981 481.83332 
L 643.156823 451.911527 
L 644.986664 459.752324 
L 646.816506 522.720889 
L 648.646347 530.027256 
L 650.476189 507.102434 
L 652.30603 486.990083 
L 654.135872 485.880924 
L 655.965713 492.044021 
L 657.795555 561.006185 
L 659.625396 504.207133 
L 661.455238 541.393735 
L 663.285079 554.63249 
L 665.114921 513.079933 
L 666.944762 540.302547 
L 668.774604 518.440591 
L 670.604445 485.268323 
L 672.434287 464.76667 
L 674.264128 461.609053 
L 676.09397 452.935775 
L 677.923811 434.215374 
L 679.753653 439.697287 
L 681.583494 453.618008 
L 683.413336 441.756269 
L 685.243177 419.940301 
L 687.073019 480.655903 
L 688.90286 492.031721 
L 690.732702 473.693996 
L 692.562543 519.510064 
L 694.392385 492.666858 
L 696.222226 524.236349 
L 698.052068 500.078591 
L 699.881909 465.080323 
L 701.711751 476.907342 
L 703.541592 512.9853 
L 705.371434 477.204934 
L 707.201275 549.106726 
L 709.031117 531.007692 
L 710.860958 586.816061 
L 712.6908 595.498583 
L 714.520641 557.12044 
L 716.350483 539.285939 
L 718.180324 492.817277 
L 720.010166 531.003681 
L 721.840007 547.700987 
L 723.669849 463.785623 
L 725.49969 481.215639 
L 727.329532 553.180437 
L 729.159373 570.08985 
L 730.989215 517.204274 
L 732.819056 507.066147 
L 734.648898 522.874192 
L 736.478739 476.611775 
L 738.308581 460.898897 
L 740.138422 375.93207 
L 741.968264 409.220265 
L 743.798105 489.029202 
L 745.627947 464.14368 
L 747.457788 472.547174 
L 749.28763 474.515208 
L 751.117471 461.246775 
L 752.947313 399.378469 
L 754.777154 397.801398 
L 756.606996 435.524837 
L 758.436837 384.05348 
L 760.266679 353.086048 
L 762.09652 367.208257 
L 763.926362 349.312621 
L 765.756203 412.267646 
L 767.586045 438.80224 
L 769.415886 390.825282 
L 771.245728 466.26093 
L 773.075569 489.834983 
L 774.905411 403.309993 
L 776.735252 403.40113 
L 778.565094 454.618803 
L 780.394935 416.032058 
L 782.224777 365.398988 
L 784.054618 383.822045 
L 785.88446 445.99606 
L 787.714301 366.149823 
L 789.544143 351.932351 
L 791.373984 406.836706 
L 793.203826 444.795075 
L 795.033667 451.468539 
L 796.863509 332.848412 
L 798.69335 425.614746 
L 800.523192 454.567925 
L 802.353033 441.260646 
L 804.182875 346.011918 
L 806.012716 427.659499 
L 807.842558 496.05826 
L 809.672399 523.786275 
L 811.502241 498.478468 
L 813.332082 567.527759 
L 815.161924 507.184825 
L 816.991765 591.936365 
L 818.821607 620.768337 
L 820.651448 643.569687 
L 822.48129 631.443186 
L 824.311131 641.076885 
L 826.140973 644.547115 
L 827.970814 631.628861 
L 829.800656 661.277595 
L 831.630497 667.099833 
L 833.460339 646.764747 
L 835.29018 635.177748 
L 837.120022 659.885454 
L 838.949863 663.424973 
L 840.779705 647.218143 
L 842.609546 655.639236 
L 844.439388 637.402045 
L 846.269229 665.691057 
L 848.099071 659.032844 
L 849.928912 665.418007 
L 851.758754 666.968646 
L 853.588595 651.728015 
L 855.418437 657.822166 
L 857.248278 660.517287 
L 859.07812 660.927416 
L 860.907961 644.03353 
L 862.737803 656.359104 
L 864.567644 642.918985 
L 866.397486 653.007799 
L 868.227327 642.144668 
L 870.057169 641.535457 
L 871.88701 644.006945 
L 873.716852 567.019665 
L 875.546693 530.969132 
L 877.376535 383.345502 
L 879.206376 348.332452 
L 881.036218 235.881858 
L 882.866059 202.959895 
L 884.695901 223.671936 
L 886.525742 200.625228 
L 888.355584 235.076975 
L 890.185425 197.26108 
L 892.015267 221.103008 
L 893.845108 195.501467 
L 895.67495 197.681856 
L 897.504791 223.089472 
L 899.334633 199.082611 
L 901.164474 231.175092 
L 902.994316 239.492032 
L 904.824157 205.333942 
L 906.653999 206.967812 
L 908.48384 234.467201 
L 910.313682 265.834095 
L 912.143523 211.041122 
L 913.973365 209.750451 
L 915.803206 210.602088 
L 917.633048 203.539799 
L 919.462889 244.638711 
L 921.292731 253.997699 
L 924.952414 215.662518 
L 926.782255 247.20974 
L 928.612097 198.680245 
L 930.441938 197.612797 
L 932.27178 173.587792 
L 934.101621 177.554953 
L 935.931463 212.207806 
L 937.761304 209.60473 
L 939.591146 201.424535 
L 941.420987 222.33562 
L 943.250829 237.242353 
L 945.08067 209.507023 
L 946.910512 200.734776 
L 948.740353 193.757094 
L 950.570195 210.534441 
L 952.400036 208.994039 
L 954.229878 266.617054 
L 956.059719 249.231842 
L 957.889561 248.421802 
L 959.719402 316.151049 
L 961.549244 265.841849 
L 963.379085 378.3819 
L 965.208927 310.096125 
L 967.038768 393.947987 
L 968.86861 538.716156 
L 972.528293 306.910357 
L 976.187976 592.490496 
L 978.017817 530.805975 
L 979.847659 454.535076 
L 981.6775 572.304674 
L 983.507342 575.257194 
L 985.337183 614.136574 
L 987.167025 577.122001 
L 988.996866 598.504358 
L 990.826708 611.678178 
L 992.656549 598.893527 
L 994.486391 495.935151 
L 996.316232 568.046453 
L 998.146074 648.959776 
L 999.975915 633.778149 
L 1001.805757 608.298723 
L 1003.635598 624.220681 
L 1005.46544 617.280145 
L 1007.295281 635.346024 
L 1009.125123 658.884659 
L 1010.954964 626.981815 
L 1012.784806 579.842389 
L 1014.614647 647.759555 
L 1016.444489 638.255696 
L 1018.27433 645.178194 
L 1020.104172 636.841888 
L 1021.934013 650.932852 
L 1023.763855 668.134451 
L 1025.593696 675.768021 
L 1027.423538 682.872584 
L 1029.253379 679.448687 
L 1031.083221 664.289768 
L 1032.913062 665.443055 
L 1034.742904 667.984701 
L 1036.572745 653.126066 
L 1038.402587 615.948928 
L 1040.232428 539.335002 
L 1042.06227 591.457807 
L 1043.892111 581.370301 
L 1045.721953 582.508843 
L 1047.551794 629.277053 
L 1049.381636 512.698938 
L 1051.211478 454.959901 
L 1053.041319 490.776841 
L 1054.871161 465.991031 
L 1056.701002 331.637076 
L 1058.530844 251.015825 
L 1060.360685 226.473826 
L 1062.190527 213.952026 
L 1064.020368 213.717498 
L 1065.85021 207.256962 
L 1067.680051 206.813535 
L 1069.509893 207.061012 
L 1071.339734 233.833592 
L 1073.169576 211.511134 
L 1074.999417 212.419493 
L 1076.829259 212.939237 
L 1078.6591 254.901742 
L 1080.488942 267.871629 
L 1082.318783 263.978302 
L 1084.148625 249.17363 
L 1085.978466 237.475927 
L 1087.808308 223.977549 
L 1089.638149 249.354454 
L 1091.467991 218.631596 
L 1093.297832 212.086111 
L 1095.127674 254.196934 
L 1096.957515 254.800176 
L 1098.787357 255.666213 
L 1100.617198 369.751058 
L 1102.44704 281.882226 
L 1104.276881 277.735082 
L 1106.106723 251.687402 
L 1107.936564 190.862767 
L 1109.766406 247.280404 
L 1111.596247 262.613949 
L 1113.426089 232.487459 
L 1115.25593 307.39454 
L 1117.085772 298.937456 
L 1118.915613 254.628443 
L 1120.745455 271.096931 
L 1120.745455 271.096931 
" clip-path="url(#pa176c00aad)" style="fill: none; stroke: #ff6347; stroke-linecap: square"/>
   </g>
   <g id="line2d_16">
    <path d="M 207.654545 274.65974 
L 209.484387 238.994213 
L 211.314228 216.534017 
L 213.14407 168.862996 
L 214.973911 243.941237 
L 216.803753 223.168425 
L 218.633594 272.034014 
L 220.463436 362.422461 
L 222.293277 392.881303 
L 224.123119 236.579027 
L 225.95296 301.134423 
L 227.782802 238.3467 
L 229.612643 184.743482 
L 231.442485 208.438428 
L 233.272326 169.781936 
L 235.102168 136.945495 
L 236.932009 272.033785 
L 238.761851 179.644663 
L 240.591692 216.474583 
L 242.421534 218.426365 
L 244.251375 160.444415 
L 246.081217 174.995574 
L 247.911058 227.025083 
L 249.7409 288.93275 
L 251.570741 274.309934 
L 253.400583 336.738759 
L 255.230424 253.892352 
L 257.060266 219.039653 
L 258.890107 319.319056 
L 260.719949 374.25775 
L 262.54979 333.235613 
L 264.379632 442.817415 
L 266.209473 524.392918 
L 268.039315 450.870777 
L 269.869156 429.013557 
L 271.698998 396.640788 
L 273.528839 429.816092 
L 275.358681 431.187931 
L 277.188522 425.193759 
L 279.018364 520.413056 
L 280.848206 603.09408 
L 282.678047 673.993645 
L 284.507889 617.869761 
L 286.33773 521.024301 
L 288.167572 611.612728 
L 289.997413 738.72 
L 291.827255 709.683829 
L 293.657096 738.72 
L 297.316779 738.72 
L 299.146621 593.231601 
L 300.976462 737.949694 
L 302.806304 738.72 
L 304.636145 602.79837 
L 306.465987 738.72 
L 308.295828 531.2185 
L 311.955511 738.72 
L 313.785353 680.86208 
L 315.615194 738.72 
L 317.445036 732.692578 
L 319.274877 738.72 
L 321.104719 738.72 
L 322.93456 699.987362 
L 324.764402 582.271564 
L 326.594243 645.07955 
L 328.424085 606.285645 
L 330.253926 716.426438 
L 332.083768 738.72 
L 339.403134 738.72 
L 341.232975 727.925136 
L 343.062817 656.006442 
L 344.892658 612.668718 
L 346.7225 440.820255 
L 348.552341 529.46857 
L 350.382183 431.654181 
L 352.212024 449.389122 
L 354.041866 357.015853 
L 355.871707 183.885505 
L 357.701549 170.031437 
L 359.53139 180.288356 
L 361.361232 174.443859 
L 363.191073 209.516113 
L 365.020915 189.013429 
L 366.850756 183.411406 
L 368.680598 217.740197 
L 370.510439 266.008769 
L 372.340281 225.786359 
L 374.170122 214.521044 
L 375.999964 221.20167 
L 377.829805 211.494098 
L 379.659647 242.523676 
L 381.489488 364.035514 
L 383.31933 392.454186 
L 385.149171 460.412804 
L 386.979013 489.568045 
L 388.808854 282.014311 
L 390.638696 265.688221 
L 392.468537 188.984476 
L 394.298379 147.288433 
L 396.12822 207.425143 
L 399.787903 143.901978 
L 401.617745 143.366382 
L 403.447586 133.92 
L 405.277428 190.155667 
L 407.107269 187.665921 
L 408.937111 225.371771 
L 410.766952 195.18703 
L 412.596794 295.088552 
L 414.426635 217.180155 
L 416.256477 188.332456 
L 418.086318 234.00204 
L 419.91616 143.363174 
L 421.746001 147.957183 
L 423.575843 258.897207 
L 425.405684 281.351902 
L 427.235526 251.049438 
L 429.065367 244.88447 
L 430.895209 302.88124 
L 432.72505 228.919951 
L 434.554892 255.462318 
L 436.384733 240.75333 
L 438.214575 347.235554 
L 440.044416 297.885018 
L 441.874258 359.173592 
L 443.704099 388.218233 
L 445.533941 373.954161 
L 447.363782 304.167939 
L 449.193624 435.234694 
L 451.023465 508.312452 
L 452.853307 381.317976 
L 454.683148 528.837157 
L 456.51299 665.174756 
L 458.342831 591.908568 
L 460.172673 635.703479 
L 462.002514 485.40566 
L 463.832356 546.997917 
L 465.662197 571.457048 
L 467.492039 593.621304 
L 469.32188 588.934715 
L 471.151722 738.72 
L 472.981563 738.72 
L 474.811405 528.102403 
L 476.641246 388.140541 
L 478.471088 437.653318 
L 480.300929 435.740115 
L 482.130771 450.524829 
L 485.790454 559.749891 
L 487.620295 569.081836 
L 489.450137 545.845843 
L 491.279978 686.893698 
L 493.10982 518.044241 
L 494.939661 551.531996 
L 496.769503 537.606997 
L 498.599344 562.408257 
L 500.429186 631.064197 
L 502.259027 404.600472 
L 504.088869 524.836555 
L 505.91871 512.370885 
L 507.748552 477.073288 
L 509.578393 677.160449 
L 511.408235 654.840588 
L 513.238076 367.045577 
L 515.067918 471.538968 
L 516.897759 525.88057 
L 518.727601 499.822003 
L 520.557442 412.371847 
L 522.387284 497.825455 
L 524.217125 487.842866 
L 526.046967 432.298829 
L 527.876808 525.134127 
L 529.70665 490.898651 
L 531.536491 486.943999 
L 533.366333 490.033569 
L 535.196174 474.895897 
L 537.026016 456.684545 
L 538.855857 376.426184 
L 540.685699 443.327572 
L 542.51554 296.873337 
L 544.345382 425.294637 
L 546.175223 579.76273 
L 548.005065 467.825511 
L 549.834906 373.077697 
L 551.664748 290.575978 
L 553.494589 409.322479 
L 555.324431 388.158608 
L 557.154272 415.43233 
L 558.984114 532.480333 
L 560.813955 388.357728 
L 562.643797 462.489337 
L 564.473638 363.732995 
L 566.30348 369.054195 
L 568.133321 383.212004 
L 569.963163 323.691982 
L 571.793004 380.374552 
L 573.622846 447.587511 
L 575.452687 432.031413 
L 577.282529 490.57096 
L 579.11237 341.183151 
L 580.942212 445.88823 
L 582.772053 439.912393 
L 584.601895 435.785875 
L 586.431736 477.979336 
L 588.261578 489.825969 
L 590.091419 522.175878 
L 591.921261 541.883342 
L 593.751102 386.841772 
L 595.580944 489.886129 
L 597.410785 405.286335 
L 599.240627 338.564568 
L 601.070468 432.037753 
L 602.90031 382.316364 
L 604.730151 435.897409 
L 606.559993 506.316592 
L 608.389834 486.911627 
L 610.219676 528.776099 
L 612.049517 506.625184 
L 613.879359 472.282432 
L 615.7092 358.24327 
L 617.539042 462.462332 
L 619.368883 462.254713 
L 621.198725 412.623182 
L 623.028566 506.072552 
L 624.858408 497.290967 
L 626.688249 471.566738 
L 628.518091 510.386044 
L 630.347932 514.686759 
L 632.177774 576.728459 
L 634.007615 613.035703 
L 635.837457 637.39685 
L 637.667298 664.240456 
L 639.49714 675.706095 
L 641.326981 517.532194 
L 643.156823 502.470171 
L 644.986664 482.768474 
L 646.816506 493.544068 
L 648.646347 594.572491 
L 650.476189 582.191103 
L 652.30603 487.923003 
L 654.135872 505.263791 
L 655.965713 510.025752 
L 657.795555 548.962686 
L 659.625396 521.032628 
L 661.455238 590.709722 
L 663.285079 677.903377 
L 665.114921 608.670254 
L 666.944762 645.623741 
L 668.774604 659.532926 
L 670.604445 592.45759 
L 672.434287 443.807209 
L 674.264128 462.911068 
L 676.09397 472.798509 
L 677.923811 414.144104 
L 679.753653 438.537536 
L 681.583494 454.104063 
L 683.413336 451.604138 
L 685.243177 396.671536 
L 687.073019 492.094345 
L 688.90286 495.4846 
L 690.732702 516.90206 
L 692.562543 644.599817 
L 694.392385 519.490144 
L 696.222226 558.867812 
L 698.052068 578.197013 
L 699.881909 541.836857 
L 701.711751 536.6842 
L 703.541592 571.958764 
L 705.371434 494.473072 
L 707.201275 573.247868 
L 709.031117 558.912407 
L 710.860958 587.952006 
L 712.6908 738.72 
L 714.520641 668.670014 
L 716.350483 738.72 
L 718.180324 524.292364 
L 721.840007 611.202188 
L 723.669849 452.313013 
L 725.49969 514.558647 
L 727.329532 608.573521 
L 729.159373 567.634978 
L 730.989215 665.001275 
L 732.819056 738.72 
L 734.648898 738.72 
L 736.478739 606.709888 
L 738.308581 530.497459 
L 740.138422 382.85028 
L 741.968264 429.637999 
L 743.798105 487.605091 
L 745.627947 431.899767 
L 747.457788 560.958133 
L 749.28763 614.546655 
L 751.117471 560.393088 
L 752.947313 405.300124 
L 754.777154 404.503376 
L 756.606996 454.900887 
L 758.436837 356.165438 
L 760.266679 335.9092 
L 762.09652 349.985573 
L 763.926362 389.527621 
L 765.756203 458.114272 
L 767.586045 506.09377 
L 769.415886 426.695563 
L 771.245728 553.897201 
L 773.075569 545.596284 
L 774.905411 486.119081 
L 776.735252 542.618039 
L 778.565094 575.703123 
L 780.394935 519.74253 
L 784.054618 333.095736 
L 785.88446 462.965193 
L 787.714301 442.174963 
L 789.544143 357.537927 
L 791.373984 448.477727 
L 793.203826 518.271054 
L 795.033667 523.366817 
L 796.863509 418.24927 
L 798.69335 399.518766 
L 800.523192 464.099734 
L 802.353033 472.485639 
L 804.182875 398.55315 
L 806.012716 521.485871 
L 807.842558 661.991713 
L 809.672399 738.72 
L 811.502241 738.72 
L 813.332082 517.691169 
L 815.161924 535.893449 
L 816.991765 631.457968 
L 818.821607 567.868093 
L 820.651448 681.206706 
L 822.48129 738.72 
L 871.88701 738.72 
L 873.716852 684.250163 
L 875.546693 676.199216 
L 877.376535 443.651137 
L 879.206376 474.964766 
L 881.036218 242.802208 
L 882.866059 202.931514 
L 884.695901 185.017735 
L 886.525742 189.149792 
L 888.355584 260.457012 
L 890.185425 220.18128 
L 892.015267 231.174328 
L 893.845108 219.891824 
L 895.67495 186.497175 
L 897.504791 269.245416 
L 899.334633 200.871407 
L 901.164474 276.781727 
L 902.994316 282.290933 
L 904.824157 231.880435 
L 906.653999 254.246513 
L 908.48384 215.283606 
L 910.313682 325.903464 
L 912.143523 246.666428 
L 915.803206 188.313511 
L 917.633048 156.625037 
L 919.462889 209.922451 
L 921.292731 248.588493 
L 923.122572 302.75924 
L 924.952414 278.248791 
L 926.782255 354.383251 
L 928.612097 232.244833 
L 930.441938 180.345575 
L 932.27178 150.035167 
L 934.101621 173.819876 
L 935.931463 243.309232 
L 937.761304 220.882039 
L 939.591146 204.590785 
L 941.420987 269.564894 
L 943.250829 308.943192 
L 945.08067 262.098712 
L 946.910512 222.510676 
L 948.740353 194.290933 
L 950.570195 253.084184 
L 952.400036 263.176321 
L 954.229878 393.815979 
L 956.059719 331.766028 
L 957.889561 332.984316 
L 959.719402 304.135853 
L 961.549244 355.900696 
L 963.379085 452.613603 
L 965.208927 383.015825 
L 967.038768 450.069332 
L 968.86861 505.936934 
L 970.698451 496.867479 
L 972.528293 434.098644 
L 974.358134 462.550375 
L 976.187976 599.515304 
L 978.017817 566.00701 
L 979.847659 619.485878 
L 981.6775 698.494888 
L 983.507342 723.060884 
L 985.337183 738.72 
L 992.656549 738.72 
L 994.486391 551.978784 
L 996.316232 614.232133 
L 998.146074 738.72 
L 1003.635598 738.72 
L 1005.46544 681.023743 
L 1007.295281 738.72 
L 1009.125123 738.72 
L 1010.954964 713.781642 
L 1012.784806 530.49425 
L 1014.614647 738.72 
L 1038.402587 738.72 
L 1040.232428 562.187995 
L 1042.06227 738.72 
L 1043.892111 648.502063 
L 1045.721953 648.125423 
L 1047.551794 700.011846 
L 1049.381636 554.510852 
L 1051.211478 520.320008 
L 1053.041319 545.958734 
L 1054.871161 531.485725 
L 1056.701002 429.301351 
L 1058.530844 216.260604 
L 1060.360685 140.087184 
L 1062.190527 171.184141 
L 1064.020368 188.589674 
L 1065.85021 169.294162 
L 1067.680051 165.560651 
L 1069.509893 170.233422 
L 1071.339734 218.184884 
L 1073.169576 184.927438 
L 1074.999417 181.521885 
L 1076.829259 199.310684 
L 1078.6591 231.361875 
L 1082.318783 314.664504 
L 1084.148625 363.259545 
L 1087.808308 247.599195 
L 1089.638149 257.00845 
L 1091.467991 220.64392 
L 1093.297832 160.923021 
L 1095.127674 225.902096 
L 1096.957515 226.746781 
L 1098.787357 291.700035 
L 1100.617198 429.077403 
L 1102.44704 329.553782 
L 1104.276881 327.827018 
L 1106.106723 239.696194 
L 1107.936564 181.301183 
L 1109.766406 269.820584 
L 1111.596247 264.440331 
L 1113.426089 264.403509 
L 1115.25593 363.437313 
L 1117.085772 336.24835 
L 1118.915613 250.828508 
L 1120.745455 252.116505 
L 1120.745455 252.116505 
" clip-path="url(#pa176c00aad)" style="fill: none; stroke: #da70d6; stroke-linecap: square"/>
   </g>
   <g id="line2d_17">
    <path d="M 207.654545 268.51112 
L 209.484387 266.956509 
L 211.314228 220.264244 
L 213.14407 256.668116 
L 214.973911 279.030451 
L 216.803753 243.004804 
L 218.633594 257.658942 
L 220.463436 342.974086 
L 222.293277 391.627453 
L 224.123119 281.774435 
L 225.95296 291.136173 
L 227.782802 237.742655 
L 229.612643 217.237374 
L 231.442485 184.0182 
L 233.272326 199.566144 
L 235.102168 190.230151 
L 236.932009 336.367562 
L 238.761851 257.949314 
L 240.591692 228.510099 
L 242.421534 210.893033 
L 244.251375 214.455957 
L 246.081217 206.93332 
L 247.911058 231.627572 
L 249.7409 285.203823 
L 251.570741 263.311003 
L 253.400583 262.663261 
L 255.230424 210.046667 
L 257.060266 283.243714 
L 258.890107 425.815909 
L 260.719949 458.608978 
L 262.54979 210.181426 
L 264.379632 476.821991 
L 266.209473 567.829209 
L 268.039315 541.874843 
L 269.869156 240.928577 
L 271.698998 485.552775 
L 273.528839 562.639787 
L 275.358681 529.831688 
L 277.188522 317.505738 
L 279.018364 555.739835 
L 280.848206 597.840431 
L 282.678047 588.507216 
L 284.507889 552.046163 
L 286.33773 453.264592 
L 288.167572 591.199205 
L 289.997413 614.262881 
L 291.827255 649.788991 
L 293.657096 612.598999 
L 295.486938 613.863094 
L 297.316779 627.505341 
L 299.146621 615.151703 
L 300.976462 635.358495 
L 302.806304 606.198709 
L 304.636145 625.952048 
L 306.465987 615.984776 
L 308.295828 477.172447 
L 310.12567 655.354632 
L 311.955511 598.630494 
L 313.785353 583.024949 
L 315.615194 607.932196 
L 317.445036 549.130255 
L 319.274877 631.894033 
L 321.104719 625.030129 
L 322.93456 600.310171 
L 324.764402 587.050828 
L 326.594243 606.126889 
L 328.424085 571.610886 
L 330.253926 622.082012 
L 332.083768 585.530995 
L 333.913609 602.361627 
L 335.743451 626.64299 
L 337.573292 587.928993 
L 339.403134 592.884821 
L 341.232975 582.347347 
L 343.062817 596.39766 
L 344.892658 554.528289 
L 346.7225 479.133797 
L 348.552341 481.17601 
L 350.382183 542.613016 
L 352.212024 297.087774 
L 354.041866 297.356221 
L 355.871707 230.195955 
L 357.701549 265.435206 
L 359.53139 234.361395 
L 361.361232 236.518141 
L 363.191073 251.343401 
L 365.020915 215.357173 
L 366.850756 192.629982 
L 368.680598 215.805069 
L 370.510439 287.606786 
L 372.340281 227.75724 
L 374.170122 205.876185 
L 375.999964 261.463805 
L 377.829805 270.117984 
L 379.659647 284.291453 
L 381.489488 318.020249 
L 383.31933 373.35577 
L 385.149171 271.391543 
L 386.979013 315.258389 
L 388.808854 272.683436 
L 390.638696 246.291794 
L 392.468537 184.667623 
L 394.298379 180.748628 
L 396.12822 233.722057 
L 397.958062 224.867115 
L 399.787903 226.03166 
L 401.617745 192.145035 
L 403.447586 215.382994 
L 405.277428 247.095837 
L 407.107269 195.37641 
L 408.937111 234.184468 
L 410.766952 176.561721 
L 412.596794 339.844161 
L 414.426635 233.1475 
L 416.256477 195.233631 
L 418.086318 208.31933 
L 419.91616 199.677374 
L 421.746001 187.293961 
L 423.575843 248.001866 
L 425.405684 283.150361 
L 427.235526 268.371625 
L 429.065367 261.304371 
L 430.895209 240.129805 
L 432.72505 279.538698 
L 434.554892 310.007241 
L 436.384733 361.487861 
L 438.214575 235.358944 
L 440.044416 279.179953 
L 441.874258 445.527499 
L 443.704099 452.092675 
L 445.533941 212.256736 
L 447.363782 330.33422 
L 449.193624 441.147449 
L 451.023465 491.988597 
L 452.853307 297.923826 
L 454.683148 550.976575 
L 456.51299 630.073925 
L 458.342831 479.781978 
L 460.172673 530.688558 
L 462.002514 529.1811 
L 463.832356 471.022318 
L 465.662197 549.945739 
L 467.492039 549.160946 
L 469.32188 539.802035 
L 471.151722 566.047918 
L 474.811405 440.23401 
L 476.641246 501.404766 
L 478.471088 519.702557 
L 480.300929 499.616065 
L 482.130771 525.337888 
L 483.960612 507.589157 
L 485.790454 549.091906 
L 487.620295 447.84513 
L 489.450137 568.083561 
L 491.279978 560.931147 
L 493.10982 550.163078 
L 494.939661 522.657368 
L 496.769503 536.693825 
L 498.599344 476.743879 
L 500.429186 520.215082 
L 502.259027 490.357764 
L 504.088869 515.952697 
L 505.91871 561.554195 
L 507.748552 535.158236 
L 509.578393 506.431029 
L 511.408235 497.537126 
L 513.238076 487.520408 
L 515.067918 517.486949 
L 516.897759 543.839135 
L 518.727601 543.425578 
L 520.557442 448.813133 
L 522.387284 393.843863 
L 524.217125 372.275258 
L 526.046967 443.946131 
L 527.876808 489.861721 
L 529.70665 458.434017 
L 531.536491 468.808602 
L 533.366333 437.499996 
L 535.196174 465.742255 
L 537.026016 426.625759 
L 538.855857 321.273626 
L 540.685699 361.532246 
L 542.51554 404.375875 
L 544.345382 349.905054 
L 546.175223 612.205581 
L 548.005065 395.062876 
L 549.834906 405.539121 
L 551.664748 428.225767 
L 553.494589 431.94356 
L 555.324431 468.208625 
L 557.154272 460.952621 
L 558.984114 293.327067 
L 560.813955 258.796902 
L 562.643797 399.797221 
L 564.473638 298.281578 
L 566.30348 412.655802 
L 568.133321 359.207816 
L 569.963163 358.174363 
L 571.793004 381.27298 
L 573.622846 402.845557 
L 575.452687 433.74477 
L 577.282529 326.16939 
L 579.11237 411.428538 
L 580.942212 366.080572 
L 582.772053 431.597802 
L 584.601895 457.017412 
L 586.431736 509.071462 
L 588.261578 389.214254 
L 590.091419 499.102222 
L 591.921261 309.706938 
L 593.751102 475.491443 
L 595.580944 456.131264 
L 597.410785 431.470893 
L 599.240627 333.488056 
L 601.070468 424.720252 
L 602.90031 344.997067 
L 604.730151 425.865355 
L 606.559993 263.98342 
L 608.389834 429.348925 
L 610.219676 443.974626 
L 612.049517 503.033039 
L 613.879359 296.91161 
L 615.7092 419.694944 
L 617.539042 454.390654 
L 619.368883 493.099533 
L 621.198725 358.435553 
L 623.028566 489.351412 
L 624.858408 576.745151 
L 626.688249 534.619222 
L 628.518091 402.410037 
L 630.347932 533.999898 
L 632.177774 570.239849 
L 634.007615 499.037307 
L 635.837457 513.380255 
L 637.667298 515.637383 
L 639.49714 594.35433 
L 641.326981 535.898128 
L 643.156823 442.236594 
L 644.986664 543.872328 
L 646.816506 534.641548 
L 648.646347 530.427463 
L 650.476189 432.638226 
L 652.30603 523.141704 
L 654.135872 534.753827 
L 655.965713 529.944655 
L 657.795555 532.825842 
L 659.625396 478.971423 
L 661.455238 536.954347 
L 663.285079 486.551546 
L 665.114921 520.771189 
L 666.944762 538.087112 
L 668.774604 562.257036 
L 670.604445 526.661714 
L 672.434287 478.239743 
L 674.264128 451.911431 
L 676.09397 493.406635 
L 677.923811 492.263901 
L 679.753653 496.707625 
L 681.583494 497.104585 
L 683.413336 509.294187 
L 685.243177 479.753197 
L 687.073019 489.21927 
L 688.90286 532.039522 
L 690.732702 549.637987 
L 692.562543 573.120577 
L 694.392385 529.39655 
L 696.222226 534.47098 
L 698.052068 519.744382 
L 699.881909 557.434743 
L 701.711751 572.025837 
L 703.541592 590.460659 
L 705.371434 542.367716 
L 707.201275 586.882199 
L 709.031117 568.953437 
L 710.860958 527.598491 
L 712.6908 617.757366 
L 714.520641 521.43759 
L 716.350483 472.94169 
L 718.180324 582.270629 
L 720.010166 601.905232 
L 721.840007 591.145395 
L 723.669849 445.91025 
L 725.49969 481.066882 
L 727.329532 625.367101 
L 729.159373 553.276158 
L 730.989215 528.061131 
L 732.819056 543.256557 
L 734.648898 575.136072 
L 736.478739 417.378802 
L 738.308581 322.660171 
L 740.138422 413.66439 
L 741.968264 447.945817 
L 743.798105 533.060103 
L 745.627947 374.835362 
L 747.457788 478.146829 
L 749.28763 560.476242 
L 751.117471 499.42573 
L 752.947313 397.862857 
L 754.777154 405.32541 
L 756.606996 445.92001 
L 758.436837 520.044609 
L 760.266679 394.076558 
L 762.09652 443.025568 
L 763.926362 529.58486 
L 765.756203 550.954593 
L 767.586045 353.248117 
L 769.415886 451.150225 
L 773.075569 595.144603 
L 774.905411 498.517868 
L 776.735252 465.47505 
L 778.565094 553.211128 
L 780.394935 415.269153 
L 782.224777 306.140194 
L 784.054618 505.981491 
L 785.88446 518.741047 
L 787.714301 505.834624 
L 789.544143 171.813625 
L 791.373984 428.739629 
L 793.203826 512.224725 
L 795.033667 521.113128 
L 796.863509 194.915757 
L 798.69335 534.424551 
L 800.523192 556.408432 
L 802.353033 524.946237 
L 804.182875 260.603612 
L 806.012716 519.405557 
L 807.842558 614.14705 
L 809.672399 568.628095 
L 811.502241 609.493749 
L 813.332082 473.612121 
L 815.161924 491.158332 
L 816.991765 586.979352 
L 820.651448 663.278106 
L 822.48129 566.525627 
L 824.311131 645.266753 
L 826.140973 515.910566 
L 827.970814 640.694191 
L 829.800656 651.07504 
L 831.630497 671.482404 
L 833.460339 669.849518 
L 835.29018 624.190295 
L 837.120022 669.82786 
L 838.949863 689.936506 
L 840.779705 682.335394 
L 842.609546 654.66601 
L 844.439388 619.265578 
L 846.269229 669.296872 
L 848.099071 665.618956 
L 849.928912 667.013031 
L 851.758754 676.636718 
L 853.588595 672.401324 
L 855.418437 653.648838 
L 859.07812 606.847215 
L 860.907961 626.487701 
L 862.737803 664.617679 
L 864.567644 589.127724 
L 866.397486 613.574384 
L 868.227327 566.22391 
L 870.057169 599.610749 
L 871.88701 594.556277 
L 873.716852 535.120651 
L 875.546693 540.830962 
L 877.376535 447.895015 
L 879.206376 478.820526 
L 881.036218 280.616154 
L 882.866059 211.930917 
L 884.695901 249.343873 
L 886.525742 221.830543 
L 888.355584 264.062411 
L 890.185425 221.980122 
L 892.015267 253.546365 
L 893.845108 206.729578 
L 895.67495 217.117971 
L 897.504791 266.275536 
L 899.334633 230.004283 
L 901.164474 261.601008 
L 902.994316 318.082586 
L 906.653999 222.805861 
L 908.48384 260.157702 
L 910.313682 339.239429 
L 912.143523 248.743878 
L 913.973365 240.119262 
L 915.803206 252.228804 
L 917.633048 213.443588 
L 919.462889 232.882872 
L 921.292731 259.233186 
L 923.122572 274.430254 
L 924.952414 253.614126 
L 926.782255 262.663109 
L 928.612097 234.116401 
L 930.441938 238.980844 
L 932.27178 206.440963 
L 934.101621 213.762914 
L 935.931463 252.085871 
L 937.761304 232.356826 
L 939.591146 217.082524 
L 941.420987 277.027562 
L 943.250829 290.480028 
L 945.08067 252.570054 
L 946.910512 222.516405 
L 948.740353 211.250784 
L 950.570195 259.446706 
L 952.400036 285.680596 
L 954.229878 364.913124 
L 956.059719 277.415031 
L 957.889561 239.103761 
L 959.719402 362.355159 
L 961.549244 385.686013 
L 963.379085 535.742896 
L 965.208927 258.797436 
L 967.038768 413.756406 
L 968.86861 533.600932 
L 970.698451 527.502865 
L 972.528293 212.80891 
L 974.358134 528.510441 
L 976.187976 584.779549 
L 978.017817 564.900467 
L 979.847659 417.540719 
L 981.6775 572.409257 
L 983.507342 627.364863 
L 985.337183 543.556803 
L 987.167025 492.089227 
L 988.996866 612.587206 
L 990.826708 653.171435 
L 992.656549 590.845684 
L 994.486391 456.92488 
L 996.316232 600.028698 
L 998.146074 660.776667 
L 999.975915 625.648975 
L 1001.805757 601.047962 
L 1003.635598 623.777082 
L 1005.46544 616.922699 
L 1007.295281 660.651176 
L 1009.125123 689.710352 
L 1010.954964 635.866475 
L 1012.784806 548.958045 
L 1014.614647 650.665092 
L 1016.444489 641.55001 
L 1018.27433 647.956545 
L 1020.104172 664.607743 
L 1021.934013 662.873406 
L 1023.763855 675.867787 
L 1025.593696 623.480999 
L 1027.423538 636.349665 
L 1029.253379 650.444878 
L 1031.083221 673.427172 
L 1032.913062 683.156057 
L 1034.742904 653.127298 
L 1036.572745 645.898901 
L 1038.402587 630.658642 
L 1040.232428 603.407189 
L 1042.06227 629.885997 
L 1043.892111 525.430936 
L 1045.721953 621.07182 
L 1047.551794 643.241595 
L 1049.381636 549.435811 
L 1051.211478 462.16029 
L 1053.041319 653.274136 
L 1054.871161 552.612011 
L 1056.701002 287.725807 
L 1058.530844 223.192642 
L 1060.360685 248.209886 
L 1064.020368 224.840835 
L 1065.85021 208.046299 
L 1067.680051 201.651539 
L 1069.509893 199.803347 
L 1071.339734 217.675186 
L 1073.169576 222.351548 
L 1074.999417 216.716904 
L 1076.829259 223.352763 
L 1078.6591 266.576756 
L 1080.488942 306.346533 
L 1082.318783 268.452908 
L 1084.148625 274.478458 
L 1085.978466 306.692749 
L 1087.808308 275.842161 
L 1089.638149 274.20199 
L 1091.467991 264.743537 
L 1093.297832 237.102476 
L 1095.127674 255.930306 
L 1096.957515 244.535427 
L 1098.787357 256.306927 
L 1100.617198 331.238415 
L 1102.44704 300.203031 
L 1104.276881 210.512822 
L 1106.106723 255.317323 
L 1107.936564 242.912138 
L 1109.766406 258.176127 
L 1111.596247 231.033687 
L 1113.426089 251.08435 
L 1115.25593 250.595431 
L 1117.085772 250.382598 
L 1118.915613 261.971746 
L 1120.745455 232.719314 
L 1120.745455 232.719314 
" clip-path="url(#pa176c00aad)" style="fill: none; stroke: #8fbc8f; stroke-linecap: square"/>
   </g>
   <g id="patch_3">
    <path d="M 162 768.96 
L 162 103.68 
" style="fill: none; stroke: #000000; stroke-width: 0.8; stroke-linejoin: miter; stroke-linecap: square"/>
   </g>
   <g id="patch_4">
    <path d="M 1166.4 768.96 
L 1166.4 103.68 
" style="fill: none; stroke: #000000; stroke-width: 0.8; stroke-linejoin: miter; stroke-linecap: square"/>
   </g>
   <g id="patch_5">
    <path d="M 162 768.96 
L 1166.4 768.96 
" style="fill: none; stroke: #000000; stroke-width: 0.8; stroke-linejoin: miter; stroke-linecap: square"/>
   </g>
   <g id="patch_6">
    <path d="M 162 103.68 
L 1166.4 103.68 
" style="fill: none; stroke: #000000; stroke-width: 0.8; stroke-linejoin: miter; stroke-linecap: square"/>
   </g>
   <g id="text_14">
    <!-- Function 1 -->
    <g transform="translate(632.957813 97.68) scale(0.12 -0.12)">
     <defs>
      <path id="DejaVuSans-46" d="M 628 4666 
L 3309 4666 
L 3309 4134 
L 1259 4134 
L 1259 2759 
L 3109 2759 
L 3109 2228 
L 1259 2228 
L 1259 0 
L 628 0 
L 628 4666 
z
" transform="scale(0.015625)"/>
      <path id="DejaVuSans-75" d="M 544 1381 
L 544 3500 
L 1119 3500 
L 1119 1403 
Q 1119 906 1312 657 
Q 1506 409 1894 409 
Q 2359 409 2629 706 
Q 2900 1003 2900 1516 
L 2900 3500 
L 3475 3500 
L 3475 0 
L 2900 0 
L 2900 538 
Q 2691 219 2414 64 
Q 2138 -91 1772 -91 
Q 1169 -91 856 284 
Q 544 659 544 1381 
z
M 1991 3584 
L 1991 3584 
z
" transform="scale(0.015625)"/>
      <path id="DejaVuSans-6e" d="M 3513 2113 
L 3513 0 
L 2938 0 
L 2938 2094 
Q 2938 2591 2744 2837 
Q 2550 3084 2163 3084 
Q 1697 3084 1428 2787 
Q 1159 2491 1159 1978 
L 1159 0 
L 581 0 
L 581 3500 
L 1159 3500 
L 1159 2956 
Q 1366 3272 1645 3428 
Q 1925 3584 2291 3584 
Q 2894 3584 3203 3211 
Q 3513 2838 3513 2113 
z
" transform="scale(0.015625)"/>
      <path id="DejaVuSans-63" d="M 3122 3366 
L 3122 2828 
Q 2878 2963 2633 3030 
Q 2388 3097 2138 3097 
Q 1578 3097 1268 2742 
Q 959 2388 959 1747 
Q 959 1106 1268 751 
Q 1578 397 2138 397 
Q 2388 397 2633 464 
Q 2878 531 3122 666 
L 3122 134 
Q 2881 22 2623 -34 
Q 2366 -91 2075 -91 
Q 1284 -91 818 406 
Q 353 903 353 1747 
Q 353 2603 823 3093 
Q 1294 3584 2113 3584 
Q 2378 3584 2631 3529 
Q 2884 3475 3122 3366 
z
" transform="scale(0.015625)"/>
      <path id="DejaVuSans-74" d="M 1172 4494 
L 1172 3500 
L 2356 3500 
L 2356 3053 
L 1172 3053 
L 1172 1153 
Q 1172 725 1289 603 
Q 1406 481 1766 481 
L 2356 481 
L 2356 0 
L 1766 0 
Q 1100 0 847 248 
Q 594 497 594 1153 
L 594 3053 
L 172 3053 
L 172 3500 
L 594 3500 
L 594 4494 
L 1172 4494 
z
" transform="scale(0.015625)"/>
      <path id="DejaVuSans-69" d="M 603 3500 
L 1178 3500 
L 1178 0 
L 603 0 
L 603 3500 
z
M 603 4863 
L 1178 4863 
L 1178 4134 
L 603 4134 
L 603 4863 
z
" transform="scale(0.015625)"/>
      <path id="DejaVuSans-6f" d="M 1959 3097 
Q 1497 3097 1228 2736 
Q 959 2375 959 1747 
Q 959 1119 1226 758 
Q 1494 397 1959 397 
Q 2419 397 2687 759 
Q 2956 1122 2956 1747 
Q 2956 2369 2687 2733 
Q 2419 3097 1959 3097 
z
M 1959 3584 
Q 2709 3584 3137 3096 
Q 3566 2609 3566 1747 
Q 3566 888 3137 398 
Q 2709 -91 1959 -91 
Q 1206 -91 779 398 
Q 353 888 353 1747 
Q 353 2609 779 3096 
Q 1206 3584 1959 3584 
z
" transform="scale(0.015625)"/>
      <path id="DejaVuSans-20" transform="scale(0.015625)"/>
     </defs>
     <use xlink:href="#DejaVuSans-46"/>
     <use xlink:href="#DejaVuSans-75" x="52.019531"/>
     <use xlink:href="#DejaVuSans-6e" x="115.398438"/>
     <use xlink:href="#DejaVuSans-63" x="178.777344"/>
     <use xlink:href="#DejaVuSans-74" x="233.757812"/>
     <use xlink:href="#DejaVuSans-69" x="272.966797"/>
     <use xlink:href="#DejaVuSans-6f" x="300.75"/>
     <use xlink:href="#DejaVuSans-6e" x="361.931641"/>
     <use xlink:href="#DejaVuSans-20" x="425.310547"/>
     <use xlink:href="#DejaVuSans-31" x="457.097656"/>
    </g>
   </g>
   <g id="legend_1">
    <g id="patch_7">
     <path d="M 590.453125 170.3925 
L 737.946875 170.3925 
Q 739.946875 170.3925 739.946875 168.3925 
L 739.946875 110.68 
Q 739.946875 108.68 737.946875 108.68 
L 590.453125 108.68 
Q 588.453125 108.68 588.453125 110.68 
L 588.453125 168.3925 
Q 588.453125 170.3925 590.453125 170.3925 
z
" style="fill: #ffffff; opacity: 0.8; stroke: #cccccc; stroke-linejoin: miter"/>
    </g>
    <g id="line2d_18">
     <path d="M 592.453125 116.778437 
L 602.453125 116.778437 
L 612.453125 116.778437 
" style="fill: none; stroke: #4169e1; stroke-linecap: square"/>
    </g>
    <g id="text_15">
     <!-- Truth -->
     <g transform="translate(620.453125 120.278437) scale(0.1 -0.1)">
      <defs>
       <path id="DejaVuSans-54" d="M -19 4666 
L 3928 4666 
L 3928 4134 
L 2272 4134 
L 2272 0 
L 1638 0 
L 1638 4134 
L -19 4134 
L -19 4666 
z
" transform="scale(0.015625)"/>
       <path id="DejaVuSans-72" d="M 2631 2963 
Q 2534 3019 2420 3045 
Q 2306 3072 2169 3072 
Q 1681 3072 1420 2755 
Q 1159 2438 1159 1844 
L 1159 0 
L 581 0 
L 581 3500 
L 1159 3500 
L 1159 2956 
Q 1341 3275 1631 3429 
Q 1922 3584 2338 3584 
Q 2397 3584 2469 3576 
Q 2541 3569 2628 3553 
L 2631 2963 
z
" transform="scale(0.015625)"/>
       <path id="DejaVuSans-68" d="M 3513 2113 
L 3513 0 
L 2938 0 
L 2938 2094 
Q 2938 2591 2744 2837 
Q 2550 3084 2163 3084 
Q 1697 3084 1428 2787 
Q 1159 2491 1159 1978 
L 1159 0 
L 581 0 
L 581 4863 
L 1159 4863 
L 1159 2956 
Q 1366 3272 1645 3428 
Q 1925 3584 2291 3584 
Q 2894 3584 3203 3211 
Q 3513 2838 3513 2113 
z
" transform="scale(0.015625)"/>
      </defs>
      <use xlink:href="#DejaVuSans-54"/>
      <use xlink:href="#DejaVuSans-72" x="46.333984"/>
      <use xlink:href="#DejaVuSans-75" x="87.447266"/>
      <use xlink:href="#DejaVuSans-74" x="150.826172"/>
      <use xlink:href="#DejaVuSans-68" x="190.035156"/>
     </g>
    </g>
    <g id="line2d_19">
     <path d="M 592.453125 131.456562 
L 602.453125 131.456562 
L 612.453125 131.456562 
" style="fill: none; stroke: #ff6347; stroke-linecap: square"/>
    </g>
    <g id="text_16">
     <!-- Gossip predictions -->
     <g transform="translate(620.453125 134.956562) scale(0.1 -0.1)">
      <defs>
       <path id="DejaVuSans-47" d="M 3809 666 
L 3809 1919 
L 2778 1919 
L 2778 2438 
L 4434 2438 
L 4434 434 
Q 4069 175 3628 42 
Q 3188 -91 2688 -91 
Q 1594 -91 976 548 
Q 359 1188 359 2328 
Q 359 3472 976 4111 
Q 1594 4750 2688 4750 
Q 3144 4750 3555 4637 
Q 3966 4525 4313 4306 
L 4313 3634 
Q 3963 3931 3569 4081 
Q 3175 4231 2741 4231 
Q 1884 4231 1454 3753 
Q 1025 3275 1025 2328 
Q 1025 1384 1454 906 
Q 1884 428 2741 428 
Q 3075 428 3337 486 
Q 3600 544 3809 666 
z
" transform="scale(0.015625)"/>
       <path id="DejaVuSans-73" d="M 2834 3397 
L 2834 2853 
Q 2591 2978 2328 3040 
Q 2066 3103 1784 3103 
Q 1356 3103 1142 2972 
Q 928 2841 928 2578 
Q 928 2378 1081 2264 
Q 1234 2150 1697 2047 
L 1894 2003 
Q 2506 1872 2764 1633 
Q 3022 1394 3022 966 
Q 3022 478 2636 193 
Q 2250 -91 1575 -91 
Q 1294 -91 989 -36 
Q 684 19 347 128 
L 347 722 
Q 666 556 975 473 
Q 1284 391 1588 391 
Q 1994 391 2212 530 
Q 2431 669 2431 922 
Q 2431 1156 2273 1281 
Q 2116 1406 1581 1522 
L 1381 1569 
Q 847 1681 609 1914 
Q 372 2147 372 2553 
Q 372 3047 722 3315 
Q 1072 3584 1716 3584 
Q 2034 3584 2315 3537 
Q 2597 3491 2834 3397 
z
" transform="scale(0.015625)"/>
       <path id="DejaVuSans-70" d="M 1159 525 
L 1159 -1331 
L 581 -1331 
L 581 3500 
L 1159 3500 
L 1159 2969 
Q 1341 3281 1617 3432 
Q 1894 3584 2278 3584 
Q 2916 3584 3314 3078 
Q 3713 2572 3713 1747 
Q 3713 922 3314 415 
Q 2916 -91 2278 -91 
Q 1894 -91 1617 61 
Q 1341 213 1159 525 
z
M 3116 1747 
Q 3116 2381 2855 2742 
Q 2594 3103 2138 3103 
Q 1681 3103 1420 2742 
Q 1159 2381 1159 1747 
Q 1159 1113 1420 752 
Q 1681 391 2138 391 
Q 2594 391 2855 752 
Q 3116 1113 3116 1747 
z
" transform="scale(0.015625)"/>
       <path id="DejaVuSans-65" d="M 3597 1894 
L 3597 1613 
L 953 1613 
Q 991 1019 1311 708 
Q 1631 397 2203 397 
Q 2534 397 2845 478 
Q 3156 559 3463 722 
L 3463 178 
Q 3153 47 2828 -22 
Q 2503 -91 2169 -91 
Q 1331 -91 842 396 
Q 353 884 353 1716 
Q 353 2575 817 3079 
Q 1281 3584 2069 3584 
Q 2775 3584 3186 3129 
Q 3597 2675 3597 1894 
z
M 3022 2063 
Q 3016 2534 2758 2815 
Q 2500 3097 2075 3097 
Q 1594 3097 1305 2825 
Q 1016 2553 972 2059 
L 3022 2063 
z
" transform="scale(0.015625)"/>
       <path id="DejaVuSans-64" d="M 2906 2969 
L 2906 4863 
L 3481 4863 
L 3481 0 
L 2906 0 
L 2906 525 
Q 2725 213 2448 61 
Q 2172 -91 1784 -91 
Q 1150 -91 751 415 
Q 353 922 353 1747 
Q 353 2572 751 3078 
Q 1150 3584 1784 3584 
Q 2172 3584 2448 3432 
Q 2725 3281 2906 2969 
z
M 947 1747 
Q 947 1113 1208 752 
Q 1469 391 1925 391 
Q 2381 391 2643 752 
Q 2906 1113 2906 1747 
Q 2906 2381 2643 2742 
Q 2381 3103 1925 3103 
Q 1469 3103 1208 2742 
Q 947 2381 947 1747 
z
" transform="scale(0.015625)"/>
      </defs>
      <use xlink:href="#DejaVuSans-47"/>
      <use xlink:href="#DejaVuSans-6f" x="77.490234"/>
      <use xlink:href="#DejaVuSans-73" x="138.671875"/>
      <use xlink:href="#DejaVuSans-73" x="190.771484"/>
      <use xlink:href="#DejaVuSans-69" x="242.871094"/>
      <use xlink:href="#DejaVuSans-70" x="270.654297"/>
      <use xlink:href="#DejaVuSans-20" x="334.130859"/>
      <use xlink:href="#DejaVuSans-70" x="365.917969"/>
      <use xlink:href="#DejaVuSans-72" x="429.394531"/>
      <use xlink:href="#DejaVuSans-65" x="468.257812"/>
      <use xlink:href="#DejaVuSans-64" x="529.78125"/>
      <use xlink:href="#DejaVuSans-69" x="593.257812"/>
      <use xlink:href="#DejaVuSans-63" x="621.041016"/>
      <use xlink:href="#DejaVuSans-74" x="676.021484"/>
      <use xlink:href="#DejaVuSans-69" x="715.230469"/>
      <use xlink:href="#DejaVuSans-6f" x="743.013672"/>
      <use xlink:href="#DejaVuSans-6e" x="804.195312"/>
      <use xlink:href="#DejaVuSans-73" x="867.574219"/>
     </g>
    </g>
    <g id="line2d_20">
     <path d="M 592.453125 146.134687 
L 602.453125 146.134687 
L 612.453125 146.134687 
" style="fill: none; stroke: #da70d6; stroke-linecap: square"/>
    </g>
    <g id="text_17">
     <!-- Centralized predictions -->
     <g transform="translate(620.453125 149.634687) scale(0.1 -0.1)">
      <defs>
       <path id="DejaVuSans-43" d="M 4122 4306 
L 4122 3641 
Q 3803 3938 3442 4084 
Q 3081 4231 2675 4231 
Q 1875 4231 1450 3742 
Q 1025 3253 1025 2328 
Q 1025 1406 1450 917 
Q 1875 428 2675 428 
Q 3081 428 3442 575 
Q 3803 722 4122 1019 
L 4122 359 
Q 3791 134 3420 21 
Q 3050 -91 2638 -91 
Q 1578 -91 968 557 
Q 359 1206 359 2328 
Q 359 3453 968 4101 
Q 1578 4750 2638 4750 
Q 3056 4750 3426 4639 
Q 3797 4528 4122 4306 
z
" transform="scale(0.015625)"/>
       <path id="DejaVuSans-61" d="M 2194 1759 
Q 1497 1759 1228 1600 
Q 959 1441 959 1056 
Q 959 750 1161 570 
Q 1363 391 1709 391 
Q 2188 391 2477 730 
Q 2766 1069 2766 1631 
L 2766 1759 
L 2194 1759 
z
M 3341 1997 
L 3341 0 
L 2766 0 
L 2766 531 
Q 2569 213 2275 61 
Q 1981 -91 1556 -91 
Q 1019 -91 701 211 
Q 384 513 384 1019 
Q 384 1609 779 1909 
Q 1175 2209 1959 2209 
L 2766 2209 
L 2766 2266 
Q 2766 2663 2505 2880 
Q 2244 3097 1772 3097 
Q 1472 3097 1187 3025 
Q 903 2953 641 2809 
L 641 3341 
Q 956 3463 1253 3523 
Q 1550 3584 1831 3584 
Q 2591 3584 2966 3190 
Q 3341 2797 3341 1997 
z
" transform="scale(0.015625)"/>
       <path id="DejaVuSans-6c" d="M 603 4863 
L 1178 4863 
L 1178 0 
L 603 0 
L 603 4863 
z
" transform="scale(0.015625)"/>
       <path id="DejaVuSans-7a" d="M 353 3500 
L 3084 3500 
L 3084 2975 
L 922 459 
L 3084 459 
L 3084 0 
L 275 0 
L 275 525 
L 2438 3041 
L 353 3041 
L 353 3500 
z
" transform="scale(0.015625)"/>
      </defs>
      <use xlink:href="#DejaVuSans-43"/>
      <use xlink:href="#DejaVuSans-65" x="69.824219"/>
      <use xlink:href="#DejaVuSans-6e" x="131.347656"/>
      <use xlink:href="#DejaVuSans-74" x="194.726562"/>
      <use xlink:href="#DejaVuSans-72" x="233.935547"/>
      <use xlink:href="#DejaVuSans-61" x="275.048828"/>
      <use xlink:href="#DejaVuSans-6c" x="336.328125"/>
      <use xlink:href="#DejaVuSans-69" x="364.111328"/>
      <use xlink:href="#DejaVuSans-7a" x="391.894531"/>
      <use xlink:href="#DejaVuSans-65" x="444.384766"/>
      <use xlink:href="#DejaVuSans-64" x="505.908203"/>
      <use xlink:href="#DejaVuSans-20" x="569.384766"/>
      <use xlink:href="#DejaVuSans-70" x="601.171875"/>
      <use xlink:href="#DejaVuSans-72" x="664.648438"/>
      <use xlink:href="#DejaVuSans-65" x="703.511719"/>
      <use xlink:href="#DejaVuSans-64" x="765.035156"/>
      <use xlink:href="#DejaVuSans-69" x="828.511719"/>
      <use xlink:href="#DejaVuSans-63" x="856.294922"/>
      <use xlink:href="#DejaVuSans-74" x="911.275391"/>
      <use xlink:href="#DejaVuSans-69" x="950.484375"/>
      <use xlink:href="#DejaVuSans-6f" x="978.267578"/>
      <use xlink:href="#DejaVuSans-6e" x="1039.449219"/>
      <use xlink:href="#DejaVuSans-73" x="1102.828125"/>
     </g>
    </g>
    <g id="line2d_21">
     <path d="M 592.453125 160.812812 
L 602.453125 160.812812 
L 612.453125 160.812812 
" style="fill: none; stroke: #8fbc8f; stroke-linecap: square"/>
    </g>
    <g id="text_18">
     <!-- Single predictions -->
     <g transform="translate(620.453125 164.312812) scale(0.1 -0.1)">
      <defs>
       <path id="DejaVuSans-53" d="M 3425 4513 
L 3425 3897 
Q 3066 4069 2747 4153 
Q 2428 4238 2131 4238 
Q 1616 4238 1336 4038 
Q 1056 3838 1056 3469 
Q 1056 3159 1242 3001 
Q 1428 2844 1947 2747 
L 2328 2669 
Q 3034 2534 3370 2195 
Q 3706 1856 3706 1288 
Q 3706 609 3251 259 
Q 2797 -91 1919 -91 
Q 1588 -91 1214 -16 
Q 841 59 441 206 
L 441 856 
Q 825 641 1194 531 
Q 1563 422 1919 422 
Q 2459 422 2753 634 
Q 3047 847 3047 1241 
Q 3047 1584 2836 1778 
Q 2625 1972 2144 2069 
L 1759 2144 
Q 1053 2284 737 2584 
Q 422 2884 422 3419 
Q 422 4038 858 4394 
Q 1294 4750 2059 4750 
Q 2388 4750 2728 4690 
Q 3069 4631 3425 4513 
z
" transform="scale(0.015625)"/>
       <path id="DejaVuSans-67" d="M 2906 1791 
Q 2906 2416 2648 2759 
Q 2391 3103 1925 3103 
Q 1463 3103 1205 2759 
Q 947 2416 947 1791 
Q 947 1169 1205 825 
Q 1463 481 1925 481 
Q 2391 481 2648 825 
Q 2906 1169 2906 1791 
z
M 3481 434 
Q 3481 -459 3084 -895 
Q 2688 -1331 1869 -1331 
Q 1566 -1331 1297 -1286 
Q 1028 -1241 775 -1147 
L 775 -588 
Q 1028 -725 1275 -790 
Q 1522 -856 1778 -856 
Q 2344 -856 2625 -561 
Q 2906 -266 2906 331 
L 2906 616 
Q 2728 306 2450 153 
Q 2172 0 1784 0 
Q 1141 0 747 490 
Q 353 981 353 1791 
Q 353 2603 747 3093 
Q 1141 3584 1784 3584 
Q 2172 3584 2450 3431 
Q 2728 3278 2906 2969 
L 2906 3500 
L 3481 3500 
L 3481 434 
z
" transform="scale(0.015625)"/>
      </defs>
      <use xlink:href="#DejaVuSans-53"/>
      <use xlink:href="#DejaVuSans-69" x="63.476562"/>
      <use xlink:href="#DejaVuSans-6e" x="91.259766"/>
      <use xlink:href="#DejaVuSans-67" x="154.638672"/>
      <use xlink:href="#DejaVuSans-6c" x="218.115234"/>
      <use xlink:href="#DejaVuSans-65" x="245.898438"/>
      <use xlink:href="#DejaVuSans-20" x="307.421875"/>
      <use xlink:href="#DejaVuSans-70" x="339.208984"/>
      <use xlink:href="#DejaVuSans-72" x="402.685547"/>
      <use xlink:href="#DejaVuSans-65" x="441.548828"/>
      <use xlink:href="#DejaVuSans-64" x="503.072266"/>
      <use xlink:href="#DejaVuSans-69" x="566.548828"/>
      <use xlink:href="#DejaVuSans-63" x="594.332031"/>
      <use xlink:href="#DejaVuSans-74" x="649.3125"/>
      <use xlink:href="#DejaVuSans-69" x="688.521484"/>
      <use xlink:href="#DejaVuSans-6f" x="716.304688"/>
      <use xlink:href="#DejaVuSans-6e" x="777.486328"/>
      <use xlink:href="#DejaVuSans-73" x="840.865234"/>
     </g>
    </g>
   </g>
  </g>
 </g>
 <defs>
  <clipPath id="pa176c00aad">
   <rect x="162" y="103.68" width="1004.4" height="665.28"/>
  </clipPath>
 </defs>
</svg>
