<?xml version="1.0" encoding="utf-8" standalone="no"?>
<!DOCTYPE svg PUBLIC "-//W3C//DTD SVG 1.1//EN"
  "http://www.w3.org/Graphics/SVG/1.1/DTD/svg11.dtd">
<svg xmlns:xlink="http://www.w3.org/1999/xlink" width="1296pt" height="864pt" viewBox="0 0 1296 864" xmlns="http://www.w3.org/2000/svg" version="1.1">
 <metadata>
  <rdf:RDF xmlns:dc="http://purl.org/dc/elements/1.1/" xmlns:cc="http://creativecommons.org/ns#" xmlns:rdf="http://www.w3.org/1999/02/22-rdf-syntax-ns#">
   <cc:Work>
    <dc:type rdf:resource="http://purl.org/dc/dcmitype/StillImage"/>
    <dc:date>2023-12-24T17:10:56.592940</dc:date>
    <dc:format>image/svg+xml</dc:format>
    <dc:creator>
     <cc:Agent>
      <dc:title>Matplotlib v3.8.0, https://matplotlib.org/</dc:title>
     </cc:Agent>
    </dc:creator>
   </cc:Work>
  </rdf:RDF>
 </metadata>
 <defs>
  <style type="text/css">*{stroke-linejoin: round; stroke-linecap: butt}</style>
 </defs>
 <g id="figure_1">
  <g id="patch_1">
   <path d="M 0 864 
L 1296 864 
L 1296 0 
L 0 0 
z
" style="fill: #ffffff"/>
  </g>
  <g id="axes_1">
   <g id="patch_2">
    <path d="M 162 768.96 
L 1166.4 768.96 
L 1166.4 103.68 
L 162 103.68 
z
" style="fill: #ffffff"/>
   </g>
   <g id="matplotlib.axis_1">
    <g id="xtick_1">
     <g id="line2d_1">
      <defs>
       <path id="m7ef552d527" d="M 0 0 
L 0 3.5 
" style="stroke: #000000; stroke-width: 0.8"/>
      </defs>
      <g>
       <use xlink:href="#m7ef552d527" x="207.654545" y="768.96" style="stroke: #000000; stroke-width: 0.8"/>
      </g>
     </g>
     <g id="text_1">
      <!-- 0 -->
      <g transform="translate(204.473295 783.558437) scale(0.1 -0.1)">
       <defs>
        <path id="DejaVuSans-30" d="M 2034 4250 
Q 1547 4250 1301 3770 
Q 1056 3291 1056 2328 
Q 1056 1369 1301 889 
Q 1547 409 2034 409 
Q 2525 409 2770 889 
Q 3016 1369 3016 2328 
Q 3016 3291 2770 3770 
Q 2525 4250 2034 4250 
z
M 2034 4750 
Q 2819 4750 3233 4129 
Q 3647 3509 3647 2328 
Q 3647 1150 3233 529 
Q 2819 -91 2034 -91 
Q 1250 -91 836 529 
Q 422 1150 422 2328 
Q 422 3509 836 4129 
Q 1250 4750 2034 4750 
z
" transform="scale(0.015625)"/>
       </defs>
       <use xlink:href="#DejaVuSans-30"/>
      </g>
     </g>
    </g>
    <g id="xtick_2">
     <g id="line2d_2">
      <g>
       <use xlink:href="#m7ef552d527" x="390.638696" y="768.96" style="stroke: #000000; stroke-width: 0.8"/>
      </g>
     </g>
     <g id="text_2">
      <!-- 100 -->
      <g transform="translate(381.094946 783.558437) scale(0.1 -0.1)">
       <defs>
        <path id="DejaVuSans-31" d="M 794 531 
L 1825 531 
L 1825 4091 
L 703 3866 
L 703 4441 
L 1819 4666 
L 2450 4666 
L 2450 531 
L 3481 531 
L 3481 0 
L 794 0 
L 794 531 
z
" transform="scale(0.015625)"/>
       </defs>
       <use xlink:href="#DejaVuSans-31"/>
       <use xlink:href="#DejaVuSans-30" x="63.623047"/>
       <use xlink:href="#DejaVuSans-30" x="127.246094"/>
      </g>
     </g>
    </g>
    <g id="xtick_3">
     <g id="line2d_3">
      <g>
       <use xlink:href="#m7ef552d527" x="573.622846" y="768.96" style="stroke: #000000; stroke-width: 0.8"/>
      </g>
     </g>
     <g id="text_3">
      <!-- 200 -->
      <g transform="translate(564.079096 783.558437) scale(0.1 -0.1)">
       <defs>
        <path id="DejaVuSans-32" d="M 1228 531 
L 3431 531 
L 3431 0 
L 469 0 
L 469 531 
Q 828 903 1448 1529 
Q 2069 2156 2228 2338 
Q 2531 2678 2651 2914 
Q 2772 3150 2772 3378 
Q 2772 3750 2511 3984 
Q 2250 4219 1831 4219 
Q 1534 4219 1204 4116 
Q 875 4013 500 3803 
L 500 4441 
Q 881 4594 1212 4672 
Q 1544 4750 1819 4750 
Q 2544 4750 2975 4387 
Q 3406 4025 3406 3419 
Q 3406 3131 3298 2873 
Q 3191 2616 2906 2266 
Q 2828 2175 2409 1742 
Q 1991 1309 1228 531 
z
" transform="scale(0.015625)"/>
       </defs>
       <use xlink:href="#DejaVuSans-32"/>
       <use xlink:href="#DejaVuSans-30" x="63.623047"/>
       <use xlink:href="#DejaVuSans-30" x="127.246094"/>
      </g>
     </g>
    </g>
    <g id="xtick_4">
     <g id="line2d_4">
      <g>
       <use xlink:href="#m7ef552d527" x="756.606996" y="768.96" style="stroke: #000000; stroke-width: 0.8"/>
      </g>
     </g>
     <g id="text_4">
      <!-- 300 -->
      <g transform="translate(747.063246 783.558437) scale(0.1 -0.1)">
       <defs>
        <path id="DejaVuSans-33" d="M 2597 2516 
Q 3050 2419 3304 2112 
Q 3559 1806 3559 1356 
Q 3559 666 3084 287 
Q 2609 -91 1734 -91 
Q 1441 -91 1130 -33 
Q 819 25 488 141 
L 488 750 
Q 750 597 1062 519 
Q 1375 441 1716 441 
Q 2309 441 2620 675 
Q 2931 909 2931 1356 
Q 2931 1769 2642 2001 
Q 2353 2234 1838 2234 
L 1294 2234 
L 1294 2753 
L 1863 2753 
Q 2328 2753 2575 2939 
Q 2822 3125 2822 3475 
Q 2822 3834 2567 4026 
Q 2313 4219 1838 4219 
Q 1578 4219 1281 4162 
Q 984 4106 628 3988 
L 628 4550 
Q 988 4650 1302 4700 
Q 1616 4750 1894 4750 
Q 2613 4750 3031 4423 
Q 3450 4097 3450 3541 
Q 3450 3153 3228 2886 
Q 3006 2619 2597 2516 
z
" transform="scale(0.015625)"/>
       </defs>
       <use xlink:href="#DejaVuSans-33"/>
       <use xlink:href="#DejaVuSans-30" x="63.623047"/>
       <use xlink:href="#DejaVuSans-30" x="127.246094"/>
      </g>
     </g>
    </g>
    <g id="xtick_5">
     <g id="line2d_5">
      <g>
       <use xlink:href="#m7ef552d527" x="939.591146" y="768.96" style="stroke: #000000; stroke-width: 0.8"/>
      </g>
     </g>
     <g id="text_5">
      <!-- 400 -->
      <g transform="translate(930.047396 783.558437) scale(0.1 -0.1)">
       <defs>
        <path id="DejaVuSans-34" d="M 2419 4116 
L 825 1625 
L 2419 1625 
L 2419 4116 
z
M 2253 4666 
L 3047 4666 
L 3047 1625 
L 3713 1625 
L 3713 1100 
L 3047 1100 
L 3047 0 
L 2419 0 
L 2419 1100 
L 313 1100 
L 313 1709 
L 2253 4666 
z
" transform="scale(0.015625)"/>
       </defs>
       <use xlink:href="#DejaVuSans-34"/>
       <use xlink:href="#DejaVuSans-30" x="63.623047"/>
       <use xlink:href="#DejaVuSans-30" x="127.246094"/>
      </g>
     </g>
    </g>
    <g id="xtick_6">
     <g id="line2d_6">
      <g>
       <use xlink:href="#m7ef552d527" x="1122.575296" y="768.96" style="stroke: #000000; stroke-width: 0.8"/>
      </g>
     </g>
     <g id="text_6">
      <!-- 500 -->
      <g transform="translate(1113.031546 783.558437) scale(0.1 -0.1)">
       <defs>
        <path id="DejaVuSans-35" d="M 691 4666 
L 3169 4666 
L 3169 4134 
L 1269 4134 
L 1269 2991 
Q 1406 3038 1543 3061 
Q 1681 3084 1819 3084 
Q 2600 3084 3056 2656 
Q 3513 2228 3513 1497 
Q 3513 744 3044 326 
Q 2575 -91 1722 -91 
Q 1428 -91 1123 -41 
Q 819 9 494 109 
L 494 744 
Q 775 591 1075 516 
Q 1375 441 1709 441 
Q 2250 441 2565 725 
Q 2881 1009 2881 1497 
Q 2881 1984 2565 2268 
Q 2250 2553 1709 2553 
Q 1456 2553 1204 2497 
Q 953 2441 691 2322 
L 691 4666 
z
" transform="scale(0.015625)"/>
       </defs>
       <use xlink:href="#DejaVuSans-35"/>
       <use xlink:href="#DejaVuSans-30" x="63.623047"/>
       <use xlink:href="#DejaVuSans-30" x="127.246094"/>
      </g>
     </g>
    </g>
   </g>
   <g id="matplotlib.axis_2">
    <g id="ytick_1">
     <g id="line2d_7">
      <defs>
       <path id="m397902ecd9" d="M 0 0 
L -3.5 0 
" style="stroke: #000000; stroke-width: 0.8"/>
      </defs>
      <g>
       <use xlink:href="#m397902ecd9" x="162" y="738.72" style="stroke: #000000; stroke-width: 0.8"/>
      </g>
     </g>
     <g id="text_7">
      <!-- 0 -->
      <g transform="translate(148.6375 742.519219) scale(0.1 -0.1)">
       <use xlink:href="#DejaVuSans-30"/>
      </g>
     </g>
    </g>
    <g id="ytick_2">
     <g id="line2d_8">
      <g>
       <use xlink:href="#m397902ecd9" x="162" y="631.675752" style="stroke: #000000; stroke-width: 0.8"/>
      </g>
     </g>
     <g id="text_8">
      <!-- 20 -->
      <g transform="translate(142.275 635.474971) scale(0.1 -0.1)">
       <use xlink:href="#DejaVuSans-32"/>
       <use xlink:href="#DejaVuSans-30" x="63.623047"/>
      </g>
     </g>
    </g>
    <g id="ytick_3">
     <g id="line2d_9">
      <g>
       <use xlink:href="#m397902ecd9" x="162" y="524.631504" style="stroke: #000000; stroke-width: 0.8"/>
      </g>
     </g>
     <g id="text_9">
      <!-- 40 -->
      <g transform="translate(142.275 528.430723) scale(0.1 -0.1)">
       <use xlink:href="#DejaVuSans-34"/>
       <use xlink:href="#DejaVuSans-30" x="63.623047"/>
      </g>
     </g>
    </g>
    <g id="ytick_4">
     <g id="line2d_10">
      <g>
       <use xlink:href="#m397902ecd9" x="162" y="417.587257" style="stroke: #000000; stroke-width: 0.8"/>
      </g>
     </g>
     <g id="text_10">
      <!-- 60 -->
      <g transform="translate(142.275 421.386475) scale(0.1 -0.1)">
       <defs>
        <path id="DejaVuSans-36" d="M 2113 2584 
Q 1688 2584 1439 2293 
Q 1191 2003 1191 1497 
Q 1191 994 1439 701 
Q 1688 409 2113 409 
Q 2538 409 2786 701 
Q 3034 994 3034 1497 
Q 3034 2003 2786 2293 
Q 2538 2584 2113 2584 
z
M 3366 4563 
L 3366 3988 
Q 3128 4100 2886 4159 
Q 2644 4219 2406 4219 
Q 1781 4219 1451 3797 
Q 1122 3375 1075 2522 
Q 1259 2794 1537 2939 
Q 1816 3084 2150 3084 
Q 2853 3084 3261 2657 
Q 3669 2231 3669 1497 
Q 3669 778 3244 343 
Q 2819 -91 2113 -91 
Q 1303 -91 875 529 
Q 447 1150 447 2328 
Q 447 3434 972 4092 
Q 1497 4750 2381 4750 
Q 2619 4750 2861 4703 
Q 3103 4656 3366 4563 
z
" transform="scale(0.015625)"/>
       </defs>
       <use xlink:href="#DejaVuSans-36"/>
       <use xlink:href="#DejaVuSans-30" x="63.623047"/>
      </g>
     </g>
    </g>
    <g id="ytick_5">
     <g id="line2d_11">
      <g>
       <use xlink:href="#m397902ecd9" x="162" y="310.543009" style="stroke: #000000; stroke-width: 0.8"/>
      </g>
     </g>
     <g id="text_11">
      <!-- 80 -->
      <g transform="translate(142.275 314.342228) scale(0.1 -0.1)">
       <defs>
        <path id="DejaVuSans-38" d="M 2034 2216 
Q 1584 2216 1326 1975 
Q 1069 1734 1069 1313 
Q 1069 891 1326 650 
Q 1584 409 2034 409 
Q 2484 409 2743 651 
Q 3003 894 3003 1313 
Q 3003 1734 2745 1975 
Q 2488 2216 2034 2216 
z
M 1403 2484 
Q 997 2584 770 2862 
Q 544 3141 544 3541 
Q 544 4100 942 4425 
Q 1341 4750 2034 4750 
Q 2731 4750 3128 4425 
Q 3525 4100 3525 3541 
Q 3525 3141 3298 2862 
Q 3072 2584 2669 2484 
Q 3125 2378 3379 2068 
Q 3634 1759 3634 1313 
Q 3634 634 3220 271 
Q 2806 -91 2034 -91 
Q 1263 -91 848 271 
Q 434 634 434 1313 
Q 434 1759 690 2068 
Q 947 2378 1403 2484 
z
M 1172 3481 
Q 1172 3119 1398 2916 
Q 1625 2713 2034 2713 
Q 2441 2713 2670 2916 
Q 2900 3119 2900 3481 
Q 2900 3844 2670 4047 
Q 2441 4250 2034 4250 
Q 1625 4250 1398 4047 
Q 1172 3844 1172 3481 
z
" transform="scale(0.015625)"/>
       </defs>
       <use xlink:href="#DejaVuSans-38"/>
       <use xlink:href="#DejaVuSans-30" x="63.623047"/>
      </g>
     </g>
    </g>
    <g id="ytick_6">
     <g id="line2d_12">
      <g>
       <use xlink:href="#m397902ecd9" x="162" y="203.498761" style="stroke: #000000; stroke-width: 0.8"/>
      </g>
     </g>
     <g id="text_12">
      <!-- 100 -->
      <g transform="translate(135.9125 207.29798) scale(0.1 -0.1)">
       <use xlink:href="#DejaVuSans-31"/>
       <use xlink:href="#DejaVuSans-30" x="63.623047"/>
       <use xlink:href="#DejaVuSans-30" x="127.246094"/>
      </g>
     </g>
    </g>
   </g>
   <g id="line2d_13">
    <path d="M 207.654545 620.971327 
L 209.484387 717.31115 
L 211.314228 620.971327 
L 213.14407 637.027965 
L 214.973911 711.958938 
L 216.803753 679.845664 
L 218.633594 738.72 
L 220.463436 706.606726 
L 222.293277 631.675752 
L 224.123119 706.606726 
L 225.95296 594.210265 
L 227.782802 690.550088 
L 229.612643 738.72 
L 231.442485 690.550088 
L 233.272326 578.153628 
L 235.102168 722.663363 
L 236.932009 711.958938 
L 238.761851 679.845664 
L 240.591692 508.574867 
L 242.421534 519.279292 
L 244.251375 262.373097 
L 246.081217 224.907611 
L 247.911058 192.794336 
L 249.7409 133.92 
L 253.400583 133.92 
L 255.230424 187.442124 
L 257.060266 133.92 
L 258.890107 133.92 
L 260.719949 208.850973 
L 262.54979 133.92 
L 264.379632 133.92 
L 266.209473 289.134159 
L 268.039315 133.92 
L 269.869156 133.92 
L 271.698998 149.976637 
L 273.528839 230.259823 
L 275.358681 133.92 
L 277.188522 133.92 
L 279.018364 262.373097 
L 280.848206 428.291681 
L 282.678047 278.429735 
L 284.507889 364.065133 
L 286.33773 374.769558 
L 288.167572 182.089912 
L 291.827255 401.530619 
L 293.657096 133.92 
L 299.146621 133.92 
L 300.976462 149.976637 
L 302.806304 449.700531 
L 304.636145 412.235044 
L 306.465987 219.555398 
L 308.295828 369.417345 
L 310.12567 492.51823 
L 311.955511 342.656283 
L 313.785353 444.348319 
L 315.615194 390.826195 
L 317.445036 348.008496 
L 319.274877 433.643894 
L 321.104719 513.92708 
L 322.93456 273.077522 
L 324.764402 551.392566 
L 326.594243 417.587257 
L 328.424085 465.757168 
L 330.253926 535.335929 
L 332.083768 481.813805 
L 333.913609 562.096991 
L 335.743451 390.826195 
L 337.573292 396.178407 
L 339.403134 412.235044 
L 341.232975 192.794336 
L 343.062817 342.656283 
L 344.892658 508.574867 
L 346.7225 396.178407 
L 348.552341 476.461593 
L 350.382183 519.279292 
L 352.212024 390.826195 
L 354.041866 658.436814 
L 355.871707 524.631504 
L 357.701549 471.109381 
L 359.53139 513.92708 
L 361.361232 294.486372 
L 363.191073 310.543009 
L 365.020915 133.92 
L 366.850756 481.813805 
L 368.680598 305.190796 
L 370.510439 208.850973 
L 372.340281 235.612035 
L 374.170122 133.92 
L 375.999964 230.259823 
L 377.829805 133.92 
L 381.489488 133.92 
L 383.31933 144.624425 
L 385.149171 208.850973 
L 386.979013 224.907611 
L 388.808854 262.373097 
L 390.638696 160.681062 
L 392.468537 305.190796 
L 394.298379 133.92 
L 396.12822 133.92 
L 397.958062 438.996106 
L 399.787903 476.461593 
L 401.617745 567.449204 
L 403.447586 524.631504 
L 405.277428 637.027965 
L 407.107269 658.436814 
L 408.937111 562.096991 
L 410.766952 583.505841 
L 412.596794 503.222655 
L 414.426635 198.146549 
L 416.256477 674.493451 
L 418.086318 620.971327 
L 419.91616 428.291681 
L 421.746001 631.675752 
L 423.575843 631.675752 
L 425.405684 679.845664 
L 427.235526 658.436814 
L 429.065367 503.222655 
L 430.895209 267.72531 
L 432.72505 497.870442 
L 434.554892 299.838584 
L 436.384733 658.436814 
L 438.214575 578.153628 
L 440.044416 546.040354 
L 441.874258 460.404956 
L 443.704099 562.096991 
L 445.533941 481.813805 
L 447.363782 556.744779 
L 449.193624 481.813805 
L 451.023465 663.789027 
L 452.853307 535.335929 
L 454.683148 385.473982 
L 456.51299 353.360708 
L 458.342831 588.858053 
L 460.172673 503.222655 
L 462.002514 599.562478 
L 463.832356 647.732389 
L 465.662197 604.91469 
L 467.492039 583.505841 
L 469.32188 685.197876 
L 471.151722 529.983717 
L 472.981563 604.91469 
L 474.811405 615.619115 
L 476.641246 701.254513 
L 480.300929 465.757168 
L 482.130771 455.052743 
L 483.960612 519.279292 
L 485.790454 588.858053 
L 487.620295 540.688142 
L 489.450137 497.870442 
L 491.279978 546.040354 
L 493.10982 476.461593 
L 494.939661 455.052743 
L 496.769503 642.380177 
L 498.599344 444.348319 
L 500.429186 524.631504 
L 502.259027 513.92708 
L 504.088869 594.210265 
L 505.91871 449.700531 
L 507.748552 594.210265 
L 509.578393 663.789027 
L 511.408235 637.027965 
L 513.238076 556.744779 
L 515.067918 637.027965 
L 516.897759 572.801416 
L 518.727601 556.744779 
L 520.557442 642.380177 
L 522.387284 642.380177 
L 524.217125 551.392566 
L 526.046967 637.027965 
L 527.876808 546.040354 
L 529.70665 674.493451 
L 531.536491 588.858053 
L 533.366333 637.027965 
L 535.196174 385.473982 
L 537.026016 690.550088 
L 538.855857 706.606726 
L 540.685699 508.574867 
L 542.51554 626.32354 
L 544.345382 706.606726 
L 546.175223 535.335929 
L 548.005065 583.505841 
L 549.834906 674.493451 
L 551.664748 642.380177 
L 553.494589 701.254513 
L 555.324431 658.436814 
L 557.154272 647.732389 
L 558.984114 717.31115 
L 560.813955 679.845664 
L 562.643797 738.72 
L 564.473638 546.040354 
L 566.30348 685.197876 
L 568.133321 674.493451 
L 569.963163 722.663363 
L 571.793004 711.958938 
L 573.622846 669.141239 
L 575.452687 695.902301 
L 577.282529 674.493451 
L 579.11237 647.732389 
L 580.942212 738.72 
L 582.772053 695.902301 
L 584.601895 562.096991 
L 586.431736 267.72531 
L 588.261578 460.404956 
L 590.091419 572.801416 
L 591.921261 572.801416 
L 593.751102 257.020885 
L 595.580944 257.020885 
L 597.410785 497.870442 
L 599.240627 176.737699 
L 601.070468 305.190796 
L 602.90031 246.31646 
L 604.730151 133.92 
L 608.389834 492.51823 
L 610.219676 214.203186 
L 612.049517 133.92 
L 613.879359 133.92 
L 615.7092 182.089912 
L 617.539042 133.92 
L 619.368883 417.587257 
L 621.198725 219.555398 
L 623.028566 326.599646 
L 624.858408 133.92 
L 626.688249 176.737699 
L 628.518091 267.72531 
L 630.347932 133.92 
L 632.177774 273.077522 
L 634.007615 133.92 
L 635.837457 267.72531 
L 637.667298 133.92 
L 639.49714 262.373097 
L 641.326981 214.203186 
L 643.156823 417.587257 
L 644.986664 166.033274 
L 646.816506 278.429735 
L 648.646347 133.92 
L 650.476189 133.92 
L 652.30603 433.643894 
L 654.135872 160.681062 
L 655.965713 294.486372 
L 657.795555 556.744779 
L 659.625396 385.473982 
L 661.455238 364.065133 
L 663.285079 224.907611 
L 665.114921 176.737699 
L 666.944762 214.203186 
L 668.774604 166.033274 
L 670.604445 155.32885 
L 672.434287 133.92 
L 674.264128 198.146549 
L 676.09397 364.065133 
L 677.923811 299.838584 
L 679.753653 460.404956 
L 681.583494 642.380177 
L 683.413336 422.939469 
L 685.243177 406.882832 
L 687.073019 572.801416 
L 688.90286 594.210265 
L 690.732702 620.971327 
L 692.562543 524.631504 
L 694.392385 583.505841 
L 696.222226 433.643894 
L 698.052068 406.882832 
L 699.881909 658.436814 
L 701.711751 524.631504 
L 703.541592 556.744779 
L 705.371434 658.436814 
L 707.201275 508.574867 
L 709.031117 551.392566 
L 710.860958 422.939469 
L 712.6908 364.065133 
L 714.520641 358.71292 
L 716.350483 604.91469 
L 718.180324 620.971327 
L 720.010166 599.562478 
L 721.840007 631.675752 
L 723.669849 406.882832 
L 725.49969 706.606726 
L 727.329532 604.91469 
L 729.159373 663.789027 
L 730.989215 567.449204 
L 732.819056 594.210265 
L 734.648898 669.141239 
L 736.478739 599.562478 
L 738.308581 519.279292 
L 740.138422 583.505841 
L 741.968264 637.027965 
L 743.798105 599.562478 
L 745.627947 637.027965 
L 747.457788 738.72 
L 749.28763 711.958938 
L 751.117471 728.015575 
L 752.947313 685.197876 
L 754.777154 695.902301 
L 756.606996 588.858053 
L 758.436837 663.789027 
L 760.266679 508.574867 
L 762.09652 722.663363 
L 763.926362 626.32354 
L 765.756203 626.32354 
L 767.586045 133.92 
L 769.415886 481.813805 
L 771.245728 224.907611 
L 773.075569 487.166018 
L 774.905411 133.92 
L 776.735252 160.681062 
L 778.565094 133.92 
L 782.224777 133.92 
L 784.054618 192.794336 
L 785.88446 176.737699 
L 787.714301 133.92 
L 789.544143 155.32885 
L 791.373984 133.92 
L 796.863509 133.92 
L 798.69335 390.826195 
L 800.523192 133.92 
L 806.012716 133.92 
L 807.842558 305.190796 
L 809.672399 133.92 
L 815.161924 133.92 
L 816.991765 224.907611 
L 818.821607 133.92 
L 822.48129 133.92 
L 824.311131 315.895221 
L 826.140973 348.008496 
L 827.970814 283.781947 
L 829.800656 133.92 
L 831.630497 422.939469 
L 833.460339 465.757168 
L 835.29018 214.203186 
L 837.120022 417.587257 
L 838.949863 230.259823 
L 840.779705 342.656283 
L 842.609546 417.587257 
L 844.439388 455.052743 
L 846.269229 524.631504 
L 848.099071 406.882832 
L 849.928912 497.870442 
L 851.758754 620.971327 
L 853.588595 251.668673 
L 855.418437 567.449204 
L 857.248278 604.91469 
L 859.07812 594.210265 
L 860.907961 551.392566 
L 862.737803 572.801416 
L 864.567644 417.587257 
L 866.397486 706.606726 
L 868.227327 599.562478 
L 870.057169 406.882832 
L 871.88701 604.91469 
L 873.716852 551.392566 
L 875.546693 337.304071 
L 877.376535 305.190796 
L 879.206376 551.392566 
L 881.036218 578.153628 
L 882.866059 562.096991 
L 884.695901 588.858053 
L 886.525742 460.404956 
L 888.355584 583.505841 
L 890.185425 610.266903 
L 892.015267 235.612035 
L 893.845108 540.688142 
L 895.67495 551.392566 
L 897.504791 503.222655 
L 899.334633 321.247434 
L 901.164474 396.178407 
L 902.994316 669.141239 
L 904.824157 620.971327 
L 906.653999 369.417345 
L 908.48384 620.971327 
L 910.313682 551.392566 
L 912.143523 610.266903 
L 913.973365 540.688142 
L 915.803206 503.222655 
L 917.633048 481.813805 
L 919.462889 642.380177 
L 921.292731 711.958938 
L 923.122572 685.197876 
L 924.952414 610.266903 
L 926.782255 690.550088 
L 928.612097 717.31115 
L 930.441938 733.367788 
L 932.27178 653.084602 
L 934.101621 738.72 
L 935.931463 647.732389 
L 937.761304 465.757168 
L 939.591146 444.348319 
L 941.420987 133.92 
L 943.250829 679.845664 
L 945.08067 519.279292 
L 946.910512 481.813805 
L 950.570195 219.555398 
L 952.400036 133.92 
L 956.059719 133.92 
L 957.889561 476.461593 
L 959.719402 133.92 
L 961.549244 133.92 
L 963.379085 139.272212 
L 965.208927 133.92 
L 970.698451 133.92 
L 972.528293 230.259823 
L 974.358134 133.92 
L 976.187976 348.008496 
L 978.017817 529.983717 
L 979.847659 246.31646 
L 981.6775 449.700531 
L 983.507342 444.348319 
L 985.337183 166.033274 
L 987.167025 187.442124 
L 988.996866 133.92 
L 990.826708 235.612035 
L 992.656549 133.92 
L 994.486391 267.72531 
L 996.316232 133.92 
L 998.146074 364.065133 
L 999.975915 133.92 
L 1001.805757 133.92 
L 1003.635598 326.599646 
L 1005.46544 273.077522 
L 1007.295281 133.92 
L 1009.125123 133.92 
L 1010.954964 203.498761 
L 1012.784806 299.838584 
L 1014.614647 331.951858 
L 1016.444489 503.222655 
L 1018.27433 214.203186 
L 1020.104172 133.92 
L 1021.934013 326.599646 
L 1023.763855 214.203186 
L 1025.593696 235.612035 
L 1027.423538 144.624425 
L 1029.253379 417.587257 
L 1031.083221 348.008496 
L 1032.913062 546.040354 
L 1034.742904 428.291681 
L 1036.572745 198.146549 
L 1038.402587 508.574867 
L 1040.232428 497.870442 
L 1042.06227 299.838584 
L 1043.892111 321.247434 
L 1045.721953 257.020885 
L 1047.551794 380.12177 
L 1049.381636 176.737699 
L 1051.211478 208.850973 
L 1053.041319 133.92 
L 1054.871161 294.486372 
L 1056.701002 198.146549 
L 1058.530844 299.838584 
L 1060.360685 262.373097 
L 1062.190527 364.065133 
L 1064.020368 289.134159 
L 1065.85021 144.624425 
L 1067.680051 133.92 
L 1069.509893 198.146549 
L 1071.339734 133.92 
L 1082.318783 133.92 
L 1084.148625 198.146549 
L 1085.978466 133.92 
L 1087.808308 251.668673 
L 1089.638149 133.92 
L 1091.467991 133.92 
L 1093.297832 224.907611 
L 1095.127674 133.92 
L 1096.957515 133.92 
L 1098.787357 396.178407 
L 1100.617198 337.304071 
L 1102.44704 620.971327 
L 1104.276881 551.392566 
L 1106.106723 594.210265 
L 1107.936564 546.040354 
L 1109.766406 637.027965 
L 1111.596247 331.951858 
L 1113.426089 658.436814 
L 1115.25593 733.367788 
L 1117.085772 599.562478 
L 1118.915613 572.801416 
L 1120.745455 481.813805 
L 1120.745455 481.813805 
" clip-path="url(#p49934c83b8)" style="fill: none; stroke: #4169e1; stroke-linecap: square"/>
   </g>
   <g id="line2d_14">
    <path d="M 207.654545 553.485398 
L 209.484387 575.299934 
L 211.314228 633.128192 
L 213.14407 629.075097 
L 214.973911 616.021035 
L 216.803753 650.473544 
L 218.633594 639.567634 
L 220.463436 666.559419 
L 222.293277 677.772974 
L 224.123119 652.273278 
L 225.95296 667.635827 
L 227.782802 627.520746 
L 229.612643 626.570117 
L 231.442485 653.967696 
L 233.272326 635.510956 
L 235.102168 602.835988 
L 236.932009 625.046728 
L 238.761851 634.583041 
L 240.591692 625.180623 
L 242.421534 561.71364 
L 244.251375 531.188406 
L 246.081217 373.877699 
L 247.911058 241.129749 
L 249.7409 193.998494 
L 251.570741 157.262019 
L 253.400583 149.060972 
L 255.230424 145.08875 
L 257.060266 152.677979 
L 258.890107 143.408343 
L 260.719949 140.491724 
L 262.54979 156.769927 
L 264.379632 148.933366 
L 266.209473 146.887494 
L 268.039315 187.888645 
L 269.869156 159.944863 
L 271.698998 152.762301 
L 273.528839 151.225713 
L 275.358681 168.899953 
L 277.188522 153.797896 
L 279.018364 153.118089 
L 280.848206 184.925924 
L 282.678047 267.811266 
L 284.507889 251.190056 
L 286.33773 296.733597 
L 288.167572 301.506945 
L 289.997413 225.027132 
L 291.827255 231.210564 
L 293.657096 279.764439 
L 295.486938 200.659114 
L 297.316779 178.141454 
L 299.146621 158.572305 
L 300.976462 145.802653 
L 302.806304 153.79516 
L 304.636145 267.700687 
L 306.465987 321.393007 
L 308.295828 296.535837 
L 310.12567 329.56792 
L 311.955511 377.809496 
L 313.785353 357.669404 
L 315.615194 403.419729 
L 317.445036 389.413374 
L 319.274877 363.998042 
L 321.104719 389.794438 
L 322.93456 428.597325 
L 324.764402 353.204558 
L 326.594243 441.549751 
L 328.424085 413.777595 
L 330.253926 438.014719 
L 332.083768 477.062345 
L 333.913609 462.517061 
L 335.743451 499.293512 
L 337.573292 448.962515 
L 339.403134 424.732925 
L 341.232975 418.759339 
L 343.062817 307.797852 
L 344.892658 316.511858 
L 346.7225 380.695081 
L 348.552341 386.269391 
L 350.382183 441.20017 
L 352.212024 469.60354 
L 354.041866 428.843698 
L 355.871707 525.57559 
L 357.701549 509.006933 
L 359.53139 474.376928 
L 361.361232 496.861145 
L 363.191073 370.929719 
L 365.020915 317.41176 
L 366.850756 233.330591 
L 368.680598 322.449999 
L 370.510439 283.734743 
L 372.340281 262.226503 
L 374.170122 237.887559 
L 375.999964 177.093405 
L 377.829805 188.81754 
L 379.659647 165.171266 
L 383.31933 158.744258 
L 385.149171 159.691692 
L 386.979013 180.745447 
L 388.808854 194.590058 
L 390.638696 217.188856 
L 392.468537 191.15407 
L 394.298379 227.532511 
L 396.12822 188.653754 
L 397.958062 177.114108 
L 399.787903 272.520667 
L 401.617745 360.322071 
L 403.447586 468.47223 
L 405.277428 494.034443 
L 407.107269 548.162627 
L 408.937111 573.579704 
L 410.766952 552.469526 
L 412.596794 552.241426 
L 414.426635 518.399173 
L 416.256477 368.782088 
L 418.086318 494.447643 
L 419.91616 517.421257 
L 421.746001 459.185097 
L 423.575843 537.134122 
L 425.405684 538.7309 
L 427.235526 584.603942 
L 429.065367 597.659944 
L 430.895209 538.379665 
L 432.72505 400.991017 
L 434.554892 416.563422 
L 436.384733 290.332355 
L 438.214575 458.37799 
L 440.044416 489.14729 
L 441.874258 506.37211 
L 443.704099 471.135351 
L 445.533941 484.423434 
L 447.363782 449.336576 
L 449.193624 476.288844 
L 451.023465 458.90622 
L 452.853307 527.308223 
L 454.683148 506.669505 
L 456.51299 436.058151 
L 458.342831 399.07416 
L 460.172673 445.262554 
L 462.002514 435.417647 
L 463.832356 498.922371 
L 465.662197 537.913258 
L 467.492039 530.522687 
L 469.32188 517.338486 
L 471.151722 550.389394 
L 472.981563 499.558015 
L 474.811405 513.594138 
L 476.641246 533.804894 
L 478.471088 589.815981 
L 480.300929 578.03769 
L 482.130771 534.112538 
L 483.960612 512.85843 
L 485.790454 474.762137 
L 487.620295 497.599978 
L 489.450137 503.394465 
L 491.279978 497.464367 
L 493.10982 512.846404 
L 494.939661 480.021901 
L 496.769503 459.715716 
L 498.599344 529.593853 
L 500.429186 471.473131 
L 502.259027 495.964917 
L 504.088869 503.945746 
L 505.91871 510.046938 
L 507.748552 475.439882 
L 511.408235 564.077712 
L 513.238076 575.072539 
L 515.067918 566.278652 
L 516.897759 592.343604 
L 520.557442 542.15568 
L 522.387284 576.098558 
L 524.217125 572.441718 
L 526.046967 542.736219 
L 527.876808 570.039507 
L 529.70665 541.326379 
L 531.536491 571.418803 
L 533.366333 565.324787 
L 535.196174 561.793696 
L 537.026016 499.670861 
L 538.855857 556.40557 
L 540.685699 594.707962 
L 542.51554 568.392707 
L 544.345382 608.566447 
L 546.175223 635.039158 
L 548.005065 574.149963 
L 549.834906 587.109576 
L 551.664748 620.855491 
L 553.494589 596.753538 
L 555.324431 628.466924 
L 557.154272 636.735398 
L 558.984114 624.715696 
L 560.813955 651.141928 
L 562.643797 644.770465 
L 564.473638 663.158731 
L 566.30348 635.976087 
L 568.133321 641.165086 
L 569.963163 628.424038 
L 571.793004 643.552811 
L 573.622846 667.801307 
L 575.452687 656.917794 
L 577.282529 665.297976 
L 579.11237 651.579711 
L 580.942212 628.789932 
L 582.772053 653.066461 
L 584.601895 639.701151 
L 586.431736 592.061063 
L 588.261578 456.113533 
L 590.091419 459.900532 
L 591.921261 471.255301 
L 593.751102 487.269389 
L 595.580944 359.017421 
L 597.410785 298.654762 
L 599.240627 332.008169 
L 601.070468 216.896647 
L 602.90031 249.187468 
L 604.730151 221.020078 
L 606.559993 174.942426 
L 608.389834 207.675522 
L 610.219676 311.452589 
L 612.049517 236.196862 
L 613.879359 193.809514 
L 615.7092 168.151055 
L 617.539042 160.017711 
L 619.368883 151.297622 
L 621.198725 245.786392 
L 623.028566 206.423996 
L 624.858408 254.261436 
L 626.688249 187.823392 
L 628.518091 173.424294 
L 630.347932 197.502839 
L 632.177774 169.450439 
L 634.007615 203.173027 
L 635.837457 172.056187 
L 637.667298 198.131073 
L 639.49714 166.806591 
L 641.326981 192.767835 
L 643.156823 187.760304 
L 644.986664 282.73647 
L 646.816506 209.266175 
L 648.646347 243.365418 
L 650.476189 186.139474 
L 652.30603 163.082804 
L 654.135872 260.602366 
L 655.965713 207.582298 
L 657.795555 260.935695 
L 659.625396 384.038662 
L 661.455238 370.510353 
L 663.285079 393.236471 
L 665.114921 346.886823 
L 666.944762 247.349727 
L 668.774604 217.909007 
L 670.604445 190.911107 
L 672.434287 182.095097 
L 674.264128 175.078036 
L 676.09397 191.122832 
L 677.923811 271.453344 
L 679.753653 291.831785 
L 681.583494 372.864482 
L 683.413336 481.179345 
L 685.243177 449.72299 
L 687.073019 444.297746 
L 688.90286 505.338067 
L 690.732702 507.677864 
L 692.562543 547.233466 
L 694.392385 538.129311 
L 696.222226 549.017142 
L 699.881909 454.243839 
L 701.711751 531.057736 
L 703.541592 501.59472 
L 705.371434 515.061003 
L 707.201275 560.223072 
L 709.031117 506.918553 
L 710.860958 503.92247 
L 712.6908 465.551099 
L 714.520641 394.381337 
L 716.350483 360.336486 
L 718.180324 446.71923 
L 720.010166 511.957751 
L 721.840007 557.121453 
L 723.669849 584.25383 
L 725.49969 493.658319 
L 727.329532 585.639169 
L 729.159373 581.388458 
L 730.989215 602.248343 
L 732.819056 581.982431 
L 734.648898 563.046385 
L 736.478739 592.773659 
L 738.308581 571.388351 
L 740.138422 536.14175 
L 741.968264 552.308639 
L 743.798105 559.016954 
L 745.627947 558.469858 
L 747.457788 580.729293 
L 749.28763 630.828903 
L 751.117471 644.004957 
L 752.947313 664.252224 
L 754.777154 666.265832 
L 756.606996 652.094547 
L 758.436837 604.658834 
L 760.266679 588.569999 
L 762.09652 533.862899 
L 763.926362 595.006133 
L 765.756203 583.951413 
L 767.586045 569.381026 
L 769.415886 376.156122 
L 771.245728 392.939321 
L 773.075569 264.815183 
L 774.905411 332.3925 
L 776.735252 204.90464 
L 778.565094 183.64802 
L 780.394935 160.298201 
L 782.224777 143.337782 
L 784.054618 138.149396 
L 785.88446 150.540107 
L 787.714301 151.885919 
L 789.544143 143.534398 
L 791.373984 149.506473 
L 793.203826 144.813895 
L 795.033667 145.217867 
L 796.863509 143.782384 
L 798.69335 141.443404 
L 800.523192 220.60749 
L 802.353033 166.546886 
L 804.182875 162.170569 
L 806.012716 153.69675 
L 807.842558 146.17849 
L 809.672399 200.2139 
L 811.502241 168.828249 
L 813.332082 161.391453 
L 815.161924 147.769429 
L 816.991765 140.157456 
L 818.821607 165.798315 
L 820.651448 157.558516 
L 822.48129 159.394991 
L 824.311131 153.265378 
L 826.140973 212.628131 
L 827.970814 260.288188 
L 829.800656 281.31091 
L 831.630497 220.62954 
L 833.460339 299.055181 
L 835.29018 356.056129 
L 837.120022 302.126072 
L 838.949863 370.235212 
L 840.779705 294.405153 
L 842.609546 319.061868 
L 844.439388 356.577907 
L 846.269229 385.703511 
L 848.099071 439.581137 
L 849.928912 421.679899 
L 851.758754 451.162557 
L 853.588595 504.251267 
L 855.418437 373.846706 
L 857.248278 460.383763 
L 859.07812 501.130354 
L 860.907961 522.041558 
L 862.737803 529.707086 
L 864.567644 535.472315 
L 866.397486 474.160344 
L 868.227327 565.140666 
L 870.057169 561.916708 
L 871.88701 482.2277 
L 873.716852 549.144953 
L 875.546693 510.113457 
L 877.376535 421.411251 
L 879.206376 404.681382 
L 881.036218 443.491782 
L 882.866059 467.309315 
L 884.695901 501.466134 
L 886.525742 515.211558 
L 888.355584 477.654031 
L 890.185425 500.020115 
L 892.015267 509.132192 
L 893.845108 384.992139 
L 895.67495 459.39474 
L 897.504791 470.942451 
L 899.334633 476.125365 
L 901.164474 408.340937 
L 902.994316 398.272402 
L 904.824157 497.518126 
L 906.653999 543.199135 
L 908.48384 463.728365 
L 910.313682 546.272945 
L 912.143523 515.454624 
L 913.973365 545.501527 
L 915.803206 535.456308 
L 917.633048 506.954405 
L 919.462889 493.686883 
L 921.292731 533.330973 
L 923.122572 595.326211 
L 924.952414 619.52783 
L 926.782255 610.792632 
L 928.612097 636.442617 
L 932.27178 648.300198 
L 934.101621 641.103457 
L 935.931463 652.600605 
L 937.761304 622.707769 
L 939.591146 530.548861 
L 941.420987 495.903462 
L 943.250829 355.775149 
L 945.08067 460.015766 
L 946.910512 448.689028 
L 948.740353 465.099106 
L 950.570195 414.335634 
L 952.400036 282.660641 
L 954.229878 193.822417 
L 956.059719 158.772433 
L 957.889561 147.504906 
L 959.719402 262.613529 
L 961.549244 177.202351 
L 963.379085 169.844039 
L 965.208927 155.15461 
L 967.038768 143.172567 
L 968.86861 144.782004 
L 970.698451 145.649607 
L 972.528293 145.6532 
L 974.358134 170.427844 
L 976.187976 154.501346 
L 978.017817 217.253374 
L 979.847659 342.885894 
L 981.6775 277.508802 
L 983.507342 362.622013 
L 985.337183 374.226504 
L 987.167025 259.643948 
L 988.996866 221.795763 
L 990.826708 168.948914 
L 992.656549 178.043534 
L 994.486391 156.579763 
L 996.316232 201.396293 
L 998.146074 169.901084 
L 999.975915 255.330923 
L 1001.805757 184.343058 
L 1003.635598 173.371455 
L 1005.46544 222.866884 
L 1007.295281 237.027918 
L 1009.125123 208.434424 
L 1010.954964 185.699609 
L 1012.784806 189.157362 
L 1014.614647 237.40004 
L 1016.444489 289.967176 
L 1018.27433 383.669562 
L 1020.104172 298.090475 
L 1021.934013 239.753475 
L 1023.763855 273.601302 
L 1025.593696 228.96387 
L 1027.423538 259.522099 
L 1029.253379 215.4042 
L 1031.083221 305.870889 
L 1032.913062 310.319809 
L 1034.742904 418.498368 
L 1036.572745 417.271956 
L 1038.402587 330.178391 
L 1040.232428 415.899704 
L 1042.06227 411.784174 
L 1043.892111 376.396798 
L 1045.721953 386.020711 
L 1047.551794 331.398352 
L 1049.381636 339.409602 
L 1051.211478 259.414133 
L 1053.041319 250.626299 
L 1054.871161 206.881706 
L 1056.701002 254.399374 
L 1058.530844 243.110041 
L 1060.360685 292.337434 
L 1062.190527 266.422088 
L 1064.020368 302.224074 
L 1065.85021 282.155115 
L 1067.680051 218.331354 
L 1069.509893 195.518341 
L 1071.339734 187.290343 
L 1073.169576 167.962687 
L 1074.999417 163.140666 
L 1076.829259 154.694042 
L 1078.6591 150.823619 
L 1080.488942 149.091639 
L 1082.318783 148.825359 
L 1084.148625 154.551572 
L 1085.978466 178.945234 
L 1087.808308 171.460009 
L 1089.638149 216.311493 
L 1091.467991 178.2749 
L 1093.297832 170.50841 
L 1095.127674 185.598707 
L 1096.957515 166.296981 
L 1098.787357 168.799175 
L 1100.617198 261.369598 
L 1102.44704 298.463086 
L 1104.276881 451.759817 
L 1106.106723 488.042706 
L 1107.936564 532.630177 
L 1109.766406 532.468923 
L 1111.596247 547.840507 
L 1113.426089 445.894462 
L 1115.25593 531.788075 
L 1117.085772 596.143303 
L 1118.915613 577.327543 
L 1120.745455 551.440261 
L 1120.745455 551.440261 
" clip-path="url(#p49934c83b8)" style="fill: none; stroke: #ff6347; stroke-linecap: square"/>
   </g>
   <g id="line2d_15">
    <path d="M 207.654545 616.902501 
L 209.484387 576.689898 
L 211.314228 627.432748 
L 213.14407 604.300637 
L 214.973911 631.412321 
L 216.803753 678.270711 
L 218.633594 641.033457 
L 220.463436 708.052461 
L 222.293277 707.042569 
L 224.123119 664.74747 
L 225.95296 703.021948 
L 227.782802 593.282259 
L 231.442485 674.134438 
L 233.272326 592.663468 
L 235.102168 604.783194 
L 236.932009 627.709359 
L 238.761851 591.676415 
L 240.591692 558.232081 
L 242.421534 573.798963 
L 244.251375 510.707512 
L 246.081217 382.499256 
L 247.911058 275.909737 
L 249.7409 220.477637 
L 251.570741 168.506802 
L 253.400583 155.972641 
L 255.230424 177.152247 
L 257.060266 189.001906 
L 258.890107 172.96193 
L 260.719949 169.936691 
L 262.54979 206.111289 
L 264.379632 181.775244 
L 266.209473 178.519783 
L 268.039315 223.528233 
L 269.869156 214.627044 
L 271.698998 203.156898 
L 273.528839 223.440603 
L 275.358681 217.027479 
L 277.188522 163.373624 
L 279.018364 173.975351 
L 282.678047 256.548679 
L 284.507889 307.026046 
L 286.33773 337.180343 
L 288.167572 363.283812 
L 289.997413 234.263202 
L 291.827255 281.323242 
L 293.657096 317.177658 
L 295.486938 223.477395 
L 297.316779 197.633549 
L 299.146621 210.621542 
L 300.976462 194.616274 
L 302.806304 200.702439 
L 304.636145 216.564216 
L 306.465987 323.582248 
L 308.295828 305.308113 
L 310.12567 413.546759 
L 311.955511 432.260719 
L 313.785353 407.63614 
L 315.615194 439.136086 
L 317.445036 439.84517 
L 319.274877 389.20757 
L 321.104719 436.29795 
L 322.93456 475.500766 
L 324.764402 412.081835 
L 326.594243 501.405944 
L 328.424085 492.785449 
L 330.253926 443.954392 
L 332.083768 490.555537 
L 333.913609 482.135701 
L 335.743451 506.822143 
L 337.573292 507.212845 
L 339.403134 478.203577 
L 341.232975 480.632514 
L 343.062817 364.20156 
L 344.892658 375.326454 
L 346.7225 416.511032 
L 348.552341 387.230871 
L 350.382183 460.856949 
L 352.212024 511.592633 
L 354.041866 464.948244 
L 355.871707 539.04616 
L 359.53139 511.30124 
L 361.361232 525.297346 
L 363.191073 457.800187 
L 365.020915 376.907592 
L 366.850756 332.809498 
L 368.680598 404.212606 
L 370.510439 380.214953 
L 372.340281 309.391609 
L 374.170122 323.719532 
L 375.999964 247.280513 
L 377.829805 264.698357 
L 379.659647 236.20511 
L 381.489488 242.447834 
L 383.31933 247.113624 
L 385.149171 226.786267 
L 386.979013 263.815523 
L 388.808854 223.291273 
L 390.638696 262.766657 
L 392.468537 251.478957 
L 394.298379 285.112691 
L 397.958062 228.825238 
L 399.787903 324.053801 
L 401.617745 397.777921 
L 403.447586 453.451555 
L 407.107269 556.478091 
L 408.937111 573.586707 
L 410.766952 562.937684 
L 412.596794 461.432261 
L 414.426635 372.266996 
L 416.256477 149.299689 
L 418.086318 376.738294 
L 419.91616 450.582018 
L 421.746001 413.792908 
L 423.575843 524.104907 
L 425.405684 546.094827 
L 427.235526 544.674309 
L 429.065367 571.180944 
L 430.895209 530.727715 
L 432.72505 410.768486 
L 434.554892 439.195663 
L 436.384733 352.18346 
L 438.214575 457.519493 
L 440.044416 507.61894 
L 441.874258 484.689713 
L 443.704099 518.414098 
L 445.533941 528.708916 
L 447.363782 471.856359 
L 449.193624 488.534941 
L 451.023465 485.866185 
L 452.853307 521.455956 
L 454.683148 519.388033 
L 456.51299 448.376566 
L 458.342831 435.300657 
L 460.172673 444.200417 
L 462.002514 439.147356 
L 463.832356 505.763273 
L 465.662197 548.518374 
L 467.492039 536.334324 
L 469.32188 540.997705 
L 471.151722 556.755539 
L 472.981563 522.882252 
L 474.811405 531.095263 
L 476.641246 551.982048 
L 478.471088 590.554171 
L 480.300929 580.6435 
L 482.130771 554.69419 
L 483.960612 540.670665 
L 485.790454 509.81451 
L 487.620295 524.471149 
L 489.450137 532.235025 
L 491.279978 517.894811 
L 493.10982 524.162361 
L 494.939661 503.176308 
L 496.769503 495.54012 
L 498.599344 558.986001 
L 500.429186 512.27885 
L 502.259027 518.631989 
L 504.088869 541.614301 
L 507.748552 491.172909 
L 509.578393 520.370993 
L 511.408235 559.876594 
L 513.238076 554.889439 
L 515.067918 588.439136 
L 516.897759 606.757586 
L 518.727601 582.90857 
L 520.557442 552.208208 
L 522.387284 578.100738 
L 524.217125 578.518777 
L 526.046967 578.40289 
L 527.876808 603.718607 
L 529.70665 579.920144 
L 531.536491 601.414857 
L 533.366333 588.379875 
L 535.196174 623.067834 
L 537.026016 567.783656 
L 538.855857 579.010073 
L 540.685699 604.787308 
L 542.51554 546.936868 
L 544.345382 637.350697 
L 546.175223 674.619062 
L 548.005065 590.06265 
L 549.834906 584.160218 
L 551.664748 620.302719 
L 553.494589 607.560099 
L 555.324431 649.477477 
L 557.154272 661.538443 
L 558.984114 659.025648 
L 560.813955 688.460948 
L 562.643797 655.395431 
L 564.473638 689.149488 
L 566.30348 650.409864 
L 568.133321 667.395539 
L 569.963163 656.514527 
L 573.622846 684.804541 
L 575.452687 678.999902 
L 577.282529 696.475041 
L 579.11237 661.357037 
L 580.942212 632.370545 
L 582.772053 681.382334 
L 584.601895 633.72042 
L 586.431736 596.846262 
L 588.261578 387.153409 
L 590.091419 295.048535 
L 591.921261 373.836783 
L 593.751102 419.531329 
L 597.410785 194.449507 
L 599.240627 331.303086 
L 601.070468 235.988445 
L 602.90031 288.145116 
L 606.559993 199.084305 
L 610.219676 329.275099 
L 612.049517 242.822038 
L 613.879359 228.599058 
L 615.7092 216.84736 
L 617.539042 208.027839 
L 619.368883 186.06928 
L 621.198725 270.326118 
L 623.028566 264.244281 
L 624.858408 298.655701 
L 626.688249 274.46425 
L 628.518091 186.653127 
L 630.347932 226.265672 
L 632.177774 186.913648 
L 634.007615 224.997527 
L 635.837457 222.916701 
L 637.667298 228.328409 
L 639.49714 204.122421 
L 641.326981 201.892754 
L 643.156823 230.072476 
L 644.986664 286.789667 
L 646.816506 252.79692 
L 648.646347 254.844425 
L 650.476189 225.813802 
L 652.30603 188.790181 
L 654.135872 270.643848 
L 655.965713 164.426002 
L 657.795555 264.421215 
L 659.625396 407.633813 
L 661.455238 381.181865 
L 663.285079 395.102672 
L 665.114921 376.835234 
L 666.944762 311.333435 
L 668.774604 287.605247 
L 670.604445 225.423632 
L 672.434287 206.80355 
L 674.264128 224.484651 
L 676.09397 234.664643 
L 677.923811 297.753389 
L 679.753653 352.795155 
L 681.583494 372.6118 
L 683.413336 462.04951 
L 685.243177 436.495587 
L 687.073019 452.819728 
L 688.90286 516.401057 
L 690.732702 501.021327 
L 692.562543 528.55248 
L 694.392385 560.238874 
L 696.222226 559.762422 
L 699.881909 476.427823 
L 701.711751 546.858507 
L 703.541592 515.33696 
L 705.371434 553.273836 
L 707.201275 613.719613 
L 709.031117 563.726437 
L 710.860958 575.297719 
L 712.6908 514.34808 
L 714.520641 443.040605 
L 716.350483 404.461653 
L 718.180324 475.93912 
L 720.010166 540.278943 
L 721.840007 584.131471 
L 723.669849 615.528106 
L 725.49969 542.492153 
L 727.329532 581.134245 
L 729.159373 589.767113 
L 730.989215 590.41363 
L 732.819056 629.771309 
L 734.648898 595.800684 
L 736.478739 624.512433 
L 738.308581 578.006534 
L 740.138422 528.633944 
L 741.968264 561.01064 
L 743.798105 588.479449 
L 745.627947 596.110002 
L 747.457788 622.595393 
L 749.28763 671.414955 
L 751.117471 682.514205 
L 752.947313 700.319958 
L 754.777154 694.390779 
L 756.606996 692.583424 
L 758.436837 643.858904 
L 760.266679 610.781882 
L 762.09652 550.289514 
L 763.926362 539.46373 
L 765.756203 527.199727 
L 767.586045 543.377805 
L 769.415886 293.878433 
L 771.245728 291.948693 
L 773.075569 204.311524 
L 774.905411 300.324755 
L 776.735252 227.824067 
L 778.565094 169.80153 
L 780.394935 178.564374 
L 782.224777 171.529958 
L 784.054618 171.392796 
L 785.88446 186.011867 
L 787.714301 183.686363 
L 789.544143 172.996394 
L 791.373984 191.8977 
L 793.203826 185.274321 
L 795.033667 179.231685 
L 796.863509 206.698851 
L 798.69335 189.399876 
L 800.523192 243.821045 
L 802.353033 196.099778 
L 804.182875 160.921902 
L 806.012716 198.274809 
L 807.842558 170.775833 
L 809.672399 209.642012 
L 811.502241 209.420896 
L 813.332082 179.272642 
L 815.161924 195.740315 
L 816.991765 157.985886 
L 818.821607 206.654668 
L 820.651448 198.28563 
L 822.48129 198.575634 
L 824.311131 202.910137 
L 826.140973 250.429275 
L 827.970814 272.127271 
L 829.800656 297.34321 
L 831.630497 239.57605 
L 833.460339 296.36711 
L 835.29018 363.389899 
L 837.120022 292.110723 
L 838.949863 389.375031 
L 840.779705 350.189447 
L 842.609546 336.553049 
L 844.439388 385.843409 
L 846.269229 379.590518 
L 848.099071 427.839974 
L 849.928912 450.152647 
L 851.758754 474.81908 
L 853.588595 517.06208 
L 855.418437 410.537447 
L 857.248278 462.463527 
L 859.07812 472.925111 
L 860.907961 471.880125 
L 862.737803 547.994819 
L 864.567644 568.101264 
L 866.397486 515.357785 
L 868.227327 555.566918 
L 870.057169 574.326816 
L 871.88701 484.437766 
L 873.716852 574.040171 
L 875.546693 531.706305 
L 877.376535 405.747684 
L 879.206376 413.482609 
L 881.036218 474.919206 
L 882.866059 454.511814 
L 884.695901 505.320672 
L 886.525742 594.972996 
L 888.355584 542.77987 
L 890.185425 530.453391 
L 892.015267 532.917446 
L 893.845108 428.818278 
L 895.67495 516.620418 
L 897.504791 550.046796 
L 899.334633 493.957062 
L 901.164474 459.730539 
L 902.994316 440.708445 
L 904.824157 533.786559 
L 906.653999 546.222168 
L 908.48384 496.541985 
L 910.313682 592.402579 
L 912.143523 561.627541 
L 913.973365 537.927468 
L 915.803206 542.583826 
L 917.633048 518.999578 
L 919.462889 515.160148 
L 921.292731 565.663118 
L 923.122572 622.250732 
L 924.952414 638.63732 
L 926.782255 663.775398 
L 928.612097 674.026033 
L 930.441938 668.544249 
L 932.27178 681.243299 
L 934.101621 672.736118 
L 935.931463 668.296401 
L 937.761304 636.836932 
L 939.591146 544.221173 
L 941.420987 349.806831 
L 943.250829 215.927734 
L 945.08067 459.364951 
L 946.910512 395.040809 
L 948.740353 421.152118 
L 950.570195 466.000376 
L 952.400036 324.944107 
L 954.229878 207.94127 
L 956.059719 156.236878 
L 957.889561 167.953826 
L 959.719402 234.489015 
L 961.549244 180.984981 
L 963.379085 142.243304 
L 965.208927 202.239191 
L 967.038768 156.979202 
L 968.86861 160.743375 
L 970.698451 163.886828 
L 974.358134 210.862218 
L 976.187976 194.461308 
L 978.017817 238.10741 
L 979.847659 318.929688 
L 981.6775 282.186965 
L 983.507342 372.860031 
L 985.337183 404.03608 
L 987.167025 298.650801 
L 988.996866 290.373884 
L 990.826708 226.799456 
L 992.656549 193.385655 
L 994.486391 178.274819 
L 996.316232 217.840528 
L 998.146074 205.984498 
L 999.975915 243.203633 
L 1001.805757 227.342346 
L 1003.635598 169.459912 
L 1005.46544 237.337155 
L 1007.295281 206.130848 
L 1009.125123 189.48134 
L 1010.954964 209.365443 
L 1012.784806 217.31242 
L 1014.614647 244.940513 
L 1016.444489 317.972454 
L 1018.27433 370.550697 
L 1020.104172 319.155827 
L 1021.934013 244.711597 
L 1023.763855 287.134471 
L 1025.593696 272.250917 
L 1027.423538 265.437046 
L 1029.253379 248.369764 
L 1031.083221 318.850715 
L 1032.913062 326.848979 
L 1034.742904 377.322018 
L 1036.572745 399.005069 
L 1038.402587 300.562737 
L 1040.232428 431.577237 
L 1042.06227 415.440157 
L 1043.892111 345.383514 
L 1045.721953 403.734724 
L 1047.551794 349.298038 
L 1049.381636 349.545411 
L 1051.211478 267.636863 
L 1053.041319 224.740721 
L 1054.871161 217.335083 
L 1056.701002 249.09604 
L 1058.530844 237.519561 
L 1060.360685 286.866149 
L 1062.190527 306.046925 
L 1064.020368 330.495876 
L 1065.85021 343.547937 
L 1067.680051 220.722683 
L 1069.509893 230.858206 
L 1071.339734 244.919116 
L 1073.169576 185.615204 
L 1074.999417 196.24429 
L 1076.829259 177.735032 
L 1078.6591 175.796227 
L 1082.318783 196.34413 
L 1084.148625 221.925616 
L 1085.978466 236.76658 
L 1087.808308 200.849687 
L 1089.638149 242.295032 
L 1091.467991 164.736709 
L 1093.297832 199.3318 
L 1095.127674 216.184744 
L 1096.957515 183.271652 
L 1098.787357 209.747936 
L 1100.617198 278.207842 
L 1102.44704 312.998856 
L 1104.276881 456.666264 
L 1106.106723 495.047415 
L 1107.936564 519.845743 
L 1109.766406 580.050905 
L 1111.596247 593.297041 
L 1113.426089 505.905621 
L 1115.25593 531.534312 
L 1117.085772 583.84653 
L 1118.915613 548.394401 
L 1120.745455 628.386777 
L 1120.745455 628.386777 
" clip-path="url(#p49934c83b8)" style="fill: none; stroke: #da70d6; stroke-linecap: square"/>
   </g>
   <g id="line2d_16">
    <path d="M 207.654545 627.318086 
L 209.484387 631.181577 
L 211.314228 610.772919 
L 213.14407 570.935051 
L 214.973911 617.132469 
L 216.803753 652.13186 
L 218.633594 677.773168 
L 220.463436 684.397828 
L 222.293277 698.629692 
L 224.123119 673.698896 
L 225.95296 645.568792 
L 227.782802 583.632835 
L 229.612643 590.961062 
L 231.442485 636.419924 
L 233.272326 639.793436 
L 235.102168 600.871825 
L 236.932009 602.874954 
L 238.761851 577.412162 
L 240.591692 571.48184 
L 242.421534 520.867332 
L 244.251375 487.788922 
L 246.081217 342.605526 
L 247.911058 229.246197 
L 251.570741 211.156836 
L 253.400583 207.328473 
L 255.230424 202.970857 
L 257.060266 201.087628 
L 258.890107 191.879937 
L 260.719949 187.607665 
L 262.54979 197.591613 
L 264.379632 199.54863 
L 266.209473 202.405713 
L 268.039315 218.251074 
L 269.869156 205.742393 
L 271.698998 209.883261 
L 273.528839 206.847242 
L 275.358681 216.904691 
L 277.188522 213.154198 
L 279.018364 218.72426 
L 280.848206 225.160782 
L 282.678047 248.584674 
L 284.507889 243.915086 
L 286.33773 244.084139 
L 288.167572 243.659138 
L 289.997413 227.688375 
L 291.827255 230.112248 
L 293.657096 245.797172 
L 295.486938 227.187381 
L 299.146621 216.154241 
L 300.976462 205.85289 
L 302.806304 204.596097 
L 304.636145 263.585708 
L 306.465987 335.588057 
L 308.295828 347.220152 
L 311.955511 418.642921 
L 313.785353 404.550243 
L 315.615194 433.769316 
L 317.445036 412.130203 
L 319.274877 406.954087 
L 321.104719 429.234113 
L 322.93456 461.693252 
L 324.764402 400.82864 
L 326.594243 473.413304 
L 328.424085 454.196411 
L 330.253926 477.411946 
L 332.083768 485.100157 
L 333.913609 486.772744 
L 335.743451 523.77556 
L 337.573292 513.300949 
L 341.232975 459.740319 
L 343.062817 350.349762 
L 344.892658 347.374954 
L 346.7225 404.77579 
L 348.552341 411.400068 
L 350.382183 470.713432 
L 352.212024 489.197394 
L 354.041866 472.992406 
L 355.871707 504.437532 
L 357.701549 502.592788 
L 359.53139 515.417342 
L 361.361232 522.997833 
L 363.191073 424.368092 
L 365.020915 332.704023 
L 366.850756 247.880857 
L 368.680598 298.884372 
L 370.510439 314.424498 
L 372.340281 269.116447 
L 374.170122 233.971238 
L 375.999964 187.895628 
L 377.829805 200.715424 
L 379.659647 175.701492 
L 381.489488 187.51832 
L 383.31933 184.420969 
L 385.149171 191.992027 
L 386.979013 213.773284 
L 388.808854 219.059141 
L 390.638696 234.043637 
L 392.468537 223.307566 
L 394.298379 234.842924 
L 396.12822 223.503202 
L 397.958062 227.397513 
L 399.787903 286.311785 
L 401.617745 391.545611 
L 403.447586 520.514239 
L 405.277428 554.158283 
L 407.107269 572.376353 
L 408.937111 596.836309 
L 410.766952 607.553617 
L 412.596794 558.214012 
L 414.426635 512.529245 
L 416.256477 425.183121 
L 418.086318 493.650418 
L 419.91616 507.408808 
L 421.746001 396.974754 
L 423.575843 525.600723 
L 425.405684 504.412848 
L 427.235526 569.672612 
L 429.065367 602.49293 
L 430.895209 536.855449 
L 432.72505 431.727915 
L 434.554892 396.477129 
L 436.384733 249.116253 
L 438.214575 417.353297 
L 440.044416 418.746681 
L 441.874258 505.750329 
L 443.704099 488.055202 
L 445.533941 479.957894 
L 447.363782 458.617013 
L 449.193624 477.121534 
L 451.023465 449.702593 
L 452.853307 496.33369 
L 454.683148 465.411568 
L 456.51299 438.799959 
L 458.342831 422.181792 
L 460.172673 410.177718 
L 462.002514 377.445296 
L 463.832356 482.374356 
L 465.662197 501.353921 
L 467.492039 524.740123 
L 469.32188 512.733416 
L 471.151722 504.753323 
L 472.981563 479.783021 
L 474.811405 462.723457 
L 476.641246 460.510226 
L 478.471088 556.886637 
L 480.300929 557.679656 
L 482.130771 573.783967 
L 483.960612 558.675356 
L 485.790454 508.700167 
L 487.620295 513.309974 
L 489.450137 518.867418 
L 491.279978 513.046553 
L 493.10982 509.140502 
L 494.939661 484.108153 
L 496.769503 484.513677 
L 498.599344 511.481707 
L 500.429186 485.55164 
L 502.259027 518.929793 
L 504.088869 505.344968 
L 505.91871 494.413363 
L 507.748552 490.295628 
L 509.578393 512.216517 
L 511.408235 538.944013 
L 513.238076 580.358121 
L 515.067918 572.156339 
L 516.897759 570.442407 
L 518.727601 554.706298 
L 520.557442 536.802426 
L 522.387284 542.626844 
L 526.046967 541.065327 
L 527.876808 563.43729 
L 529.70665 551.993951 
L 531.536491 541.834315 
L 533.366333 552.339694 
L 535.196174 546.507966 
L 538.855857 548.225368 
L 540.685699 559.400284 
L 542.51554 588.30079 
L 544.345382 629.632718 
L 546.175223 640.684713 
L 548.005065 660.930821 
L 549.834906 648.981853 
L 551.664748 635.575525 
L 553.494589 636.607955 
L 555.324431 649.815216 
L 557.154272 658.986809 
L 558.984114 653.08062 
L 560.813955 629.450455 
L 562.643797 598.831067 
L 564.473638 611.063189 
L 566.30348 618.922056 
L 568.133321 644.281261 
L 569.963163 662.017948 
L 571.793004 664.758322 
L 573.622846 676.896275 
L 575.452687 667.628252 
L 577.282529 649.743001 
L 579.11237 634.912664 
L 580.942212 628.49855 
L 582.772053 661.834189 
L 584.601895 653.680944 
L 586.431736 599.337073 
L 588.261578 483.936752 
L 590.091419 503.201605 
L 591.921261 523.67668 
L 593.751102 547.787483 
L 595.580944 424.438694 
L 597.410785 291.721329 
L 599.240627 259.467748 
L 601.070468 222.91813 
L 602.90031 235.356985 
L 604.730151 228.539358 
L 606.559993 218.525806 
L 608.389834 221.56113 
L 610.219676 256.31229 
L 612.049517 225.875298 
L 613.879359 203.63727 
L 615.7092 197.118794 
L 617.539042 200.893625 
L 619.368883 199.34254 
L 621.198725 239.167954 
L 623.028566 224.437569 
L 624.858408 236.737873 
L 626.688249 219.747237 
L 628.518091 220.720886 
L 630.347932 224.739374 
L 632.177774 220.59622 
L 634.007615 231.464103 
L 635.837457 220.56245 
L 637.667298 226.334682 
L 639.49714 211.729821 
L 641.326981 222.273686 
L 643.156823 217.381634 
L 644.986664 248.403983 
L 646.816506 231.277124 
L 648.646347 239.62693 
L 650.476189 223.454895 
L 652.30603 211.632554 
L 654.135872 253.184232 
L 655.965713 230.489515 
L 657.795555 288.192361 
L 659.625396 414.190734 
L 661.455238 441.453791 
L 663.285079 481.834774 
L 666.944762 293.4979 
L 670.604445 230.681885 
L 672.434287 225.780073 
L 674.264128 228.842348 
L 676.09397 250.206851 
L 677.923811 319.868873 
L 679.753653 352.476322 
L 681.583494 415.14072 
L 683.413336 505.707147 
L 685.243177 490.53024 
L 687.073019 516.82122 
L 688.90286 554.64915 
L 690.732702 536.972092 
L 692.562543 560.850937 
L 694.392385 555.414055 
L 696.222226 549.062836 
L 698.052068 538.79599 
L 699.881909 513.101822 
L 701.711751 525.738253 
L 703.541592 507.965173 
L 705.371434 527.311449 
L 707.201275 540.661844 
L 709.031117 494.33929 
L 710.860958 508.865831 
L 712.6908 474.136456 
L 714.520641 397.199056 
L 716.350483 383.542895 
L 718.180324 474.59582 
L 720.010166 530.480709 
L 721.840007 603.119683 
L 723.669849 593.342469 
L 725.49969 485.579142 
L 727.329532 646.401666 
L 729.159373 620.229871 
L 730.989215 601.300644 
L 732.819056 613.946314 
L 734.648898 590.757463 
L 736.478739 581.522363 
L 738.308581 563.679008 
L 740.138422 539.664042 
L 741.968264 529.300786 
L 743.798105 554.513908 
L 745.627947 595.926473 
L 747.457788 614.464172 
L 749.28763 617.809724 
L 751.117471 644.530166 
L 752.947313 658.647156 
L 754.777154 714.600322 
L 756.606996 687.82786 
L 758.436837 635.426348 
L 760.266679 593.25636 
L 762.09652 554.203609 
L 763.926362 590.193809 
L 765.756203 567.513221 
L 767.586045 547.242756 
L 769.415886 374.727335 
L 771.245728 413.992158 
L 773.075569 292.347643 
L 774.905411 273.764802 
L 776.735252 205.021752 
L 778.565094 200.234847 
L 780.394935 183.407915 
L 782.224777 179.490451 
L 784.054618 160.286032 
L 785.88446 173.336828 
L 787.714301 170.471537 
L 789.544143 161.964356 
L 791.373984 177.001283 
L 793.203826 171.762631 
L 795.033667 175.697123 
L 796.863509 175.076485 
L 798.69335 175.806027 
L 800.523192 239.235208 
L 802.353033 197.537712 
L 804.182875 203.580184 
L 806.012716 202.194927 
L 807.842558 201.99145 
L 809.672399 233.795161 
L 811.502241 214.260639 
L 813.332082 205.101174 
L 815.161924 192.960327 
L 816.991765 185.91505 
L 818.821607 204.609654 
L 820.651448 203.803384 
L 822.48129 209.501135 
L 824.311131 209.010063 
L 826.140973 262.102775 
L 829.800656 288.460396 
L 831.630497 226.637753 
L 833.460339 316.612514 
L 835.29018 388.489379 
L 837.120022 322.757725 
L 838.949863 379.670675 
L 840.779705 309.785576 
L 842.609546 326.110004 
L 846.269229 381.07541 
L 848.099071 410.67516 
L 849.928912 401.246475 
L 851.758754 439.56613 
L 853.588595 458.081636 
L 855.418437 334.494641 
L 857.248278 451.638172 
L 859.07812 473.431434 
L 860.907961 499.237365 
L 862.737803 519.671871 
L 864.567644 530.366884 
L 866.397486 492.372718 
L 868.227327 533.517565 
L 870.057169 542.946964 
L 871.88701 488.773821 
L 873.716852 548.499182 
L 875.546693 468.655065 
L 877.376535 459.384694 
L 879.206376 413.069429 
L 881.036218 426.487568 
L 882.866059 453.718876 
L 884.695901 512.877765 
L 886.525742 516.758927 
L 888.355584 506.918104 
L 890.185425 494.453503 
L 892.015267 479.597573 
L 893.845108 402.402449 
L 895.67495 512.868434 
L 897.504791 562.967146 
L 899.334633 544.172662 
L 901.164474 433.603448 
L 902.994316 436.004536 
L 904.824157 589.947365 
L 906.653999 541.425341 
L 908.48384 537.782466 
L 910.313682 598.84589 
L 912.143523 568.446822 
L 913.973365 575.972003 
L 915.803206 533.990996 
L 917.633048 548.956667 
L 919.462889 523.183505 
L 921.292731 567.896705 
L 923.122572 589.830008 
L 924.952414 629.777404 
L 926.782255 638.923312 
L 928.612097 636.288356 
L 930.441938 604.488065 
L 932.27178 610.729727 
L 934.101621 637.779292 
L 935.931463 656.249033 
L 937.761304 618.469767 
L 939.591146 529.993068 
L 941.420987 491.952739 
L 943.250829 342.541458 
L 945.08067 535.486709 
L 946.910512 457.190309 
L 948.740353 428.239393 
L 950.570195 431.267674 
L 952.400036 246.356968 
L 954.229878 209.656835 
L 956.059719 192.913654 
L 957.889561 184.770673 
L 959.719402 255.227776 
L 961.549244 183.36557 
L 963.379085 179.80418 
L 965.208927 167.770849 
L 967.038768 175.469064 
L 968.86861 177.546991 
L 970.698451 180.828912 
L 972.528293 181.551064 
L 974.358134 202.908626 
L 976.187976 196.685421 
L 978.017817 230.202206 
L 979.847659 301.814344 
L 981.6775 242.687489 
L 985.337183 393.445296 
L 987.167025 287.35228 
L 988.996866 236.215972 
L 990.826708 206.346248 
L 992.656549 213.895541 
L 994.486391 196.865704 
L 996.316232 229.787985 
L 998.146074 210.161668 
L 999.975915 269.007093 
L 1001.805757 232.775002 
L 1003.635598 207.190126 
L 1005.46544 269.029307 
L 1007.295281 258.846702 
L 1009.125123 225.480473 
L 1010.954964 226.955443 
L 1012.784806 236.599691 
L 1014.614647 286.302638 
L 1016.444489 326.086034 
L 1018.27433 387.857349 
L 1020.104172 290.981047 
L 1021.934013 235.29455 
L 1023.763855 310.748935 
L 1025.593696 282.222491 
L 1027.423538 300.338353 
L 1029.253379 250.251115 
L 1031.083221 329.29376 
L 1032.913062 337.585336 
L 1034.742904 418.425847 
L 1036.572745 392.971457 
L 1038.402587 333.747376 
L 1040.232428 431.929942 
L 1042.06227 452.188861 
L 1043.892111 422.325752 
L 1045.721953 374.623616 
L 1047.551794 305.133833 
L 1049.381636 339.604789 
L 1051.211478 275.473874 
L 1053.041319 276.920913 
L 1054.871161 251.296265 
L 1056.701002 294.565712 
L 1058.530844 276.13604 
L 1060.360685 309.076982 
L 1062.190527 272.833661 
L 1064.020368 315.495782 
L 1065.85021 302.770802 
L 1067.680051 228.618005 
L 1069.509893 226.427008 
L 1071.339734 214.611241 
L 1073.169576 171.581654 
L 1074.999417 171.274091 
L 1076.829259 147.829333 
L 1078.6591 146.100252 
L 1080.488942 144.576526 
L 1082.318783 144.042579 
L 1084.148625 158.882767 
L 1085.978466 191.432028 
L 1087.808308 168.264125 
L 1089.638149 246.272931 
L 1091.467991 176.211715 
L 1093.297832 190.159268 
L 1095.127674 224.221597 
L 1096.957515 191.460816 
L 1098.787357 218.306813 
L 1100.617198 304.283829 
L 1102.44704 354.869203 
L 1104.276881 529.802964 
L 1106.106723 512.837523 
L 1107.936564 565.440899 
L 1109.766406 535.299526 
L 1111.596247 553.330738 
L 1113.426089 481.667946 
L 1115.25593 551.583323 
L 1117.085772 549.051096 
L 1118.915613 579.431716 
L 1120.745455 480.455029 
L 1120.745455 480.455029 
" clip-path="url(#p49934c83b8)" style="fill: none; stroke: #8fbc8f; stroke-linecap: square"/>
   </g>
   <g id="patch_3">
    <path d="M 162 768.96 
L 162 103.68 
" style="fill: none; stroke: #000000; stroke-width: 0.8; stroke-linejoin: miter; stroke-linecap: square"/>
   </g>
   <g id="patch_4">
    <path d="M 1166.4 768.96 
L 1166.4 103.68 
" style="fill: none; stroke: #000000; stroke-width: 0.8; stroke-linejoin: miter; stroke-linecap: square"/>
   </g>
   <g id="patch_5">
    <path d="M 162 768.96 
L 1166.4 768.96 
" style="fill: none; stroke: #000000; stroke-width: 0.8; stroke-linejoin: miter; stroke-linecap: square"/>
   </g>
   <g id="patch_6">
    <path d="M 162 103.68 
L 1166.4 103.68 
" style="fill: none; stroke: #000000; stroke-width: 0.8; stroke-linejoin: miter; stroke-linecap: square"/>
   </g>
   <g id="text_13">
    <!-- Function 1 -->
    <g transform="translate(632.957813 97.68) scale(0.12 -0.12)">
     <defs>
      <path id="DejaVuSans-46" d="M 628 4666 
L 3309 4666 
L 3309 4134 
L 1259 4134 
L 1259 2759 
L 3109 2759 
L 3109 2228 
L 1259 2228 
L 1259 0 
L 628 0 
L 628 4666 
z
" transform="scale(0.015625)"/>
      <path id="DejaVuSans-75" d="M 544 1381 
L 544 3500 
L 1119 3500 
L 1119 1403 
Q 1119 906 1312 657 
Q 1506 409 1894 409 
Q 2359 409 2629 706 
Q 2900 1003 2900 1516 
L 2900 3500 
L 3475 3500 
L 3475 0 
L 2900 0 
L 2900 538 
Q 2691 219 2414 64 
Q 2138 -91 1772 -91 
Q 1169 -91 856 284 
Q 544 659 544 1381 
z
M 1991 3584 
L 1991 3584 
z
" transform="scale(0.015625)"/>
      <path id="DejaVuSans-6e" d="M 3513 2113 
L 3513 0 
L 2938 0 
L 2938 2094 
Q 2938 2591 2744 2837 
Q 2550 3084 2163 3084 
Q 1697 3084 1428 2787 
Q 1159 2491 1159 1978 
L 1159 0 
L 581 0 
L 581 3500 
L 1159 3500 
L 1159 2956 
Q 1366 3272 1645 3428 
Q 1925 3584 2291 3584 
Q 2894 3584 3203 3211 
Q 3513 2838 3513 2113 
z
" transform="scale(0.015625)"/>
      <path id="DejaVuSans-63" d="M 3122 3366 
L 3122 2828 
Q 2878 2963 2633 3030 
Q 2388 3097 2138 3097 
Q 1578 3097 1268 2742 
Q 959 2388 959 1747 
Q 959 1106 1268 751 
Q 1578 397 2138 397 
Q 2388 397 2633 464 
Q 2878 531 3122 666 
L 3122 134 
Q 2881 22 2623 -34 
Q 2366 -91 2075 -91 
Q 1284 -91 818 406 
Q 353 903 353 1747 
Q 353 2603 823 3093 
Q 1294 3584 2113 3584 
Q 2378 3584 2631 3529 
Q 2884 3475 3122 3366 
z
" transform="scale(0.015625)"/>
      <path id="DejaVuSans-74" d="M 1172 4494 
L 1172 3500 
L 2356 3500 
L 2356 3053 
L 1172 3053 
L 1172 1153 
Q 1172 725 1289 603 
Q 1406 481 1766 481 
L 2356 481 
L 2356 0 
L 1766 0 
Q 1100 0 847 248 
Q 594 497 594 1153 
L 594 3053 
L 172 3053 
L 172 3500 
L 594 3500 
L 594 4494 
L 1172 4494 
z
" transform="scale(0.015625)"/>
      <path id="DejaVuSans-69" d="M 603 3500 
L 1178 3500 
L 1178 0 
L 603 0 
L 603 3500 
z
M 603 4863 
L 1178 4863 
L 1178 4134 
L 603 4134 
L 603 4863 
z
" transform="scale(0.015625)"/>
      <path id="DejaVuSans-6f" d="M 1959 3097 
Q 1497 3097 1228 2736 
Q 959 2375 959 1747 
Q 959 1119 1226 758 
Q 1494 397 1959 397 
Q 2419 397 2687 759 
Q 2956 1122 2956 1747 
Q 2956 2369 2687 2733 
Q 2419 3097 1959 3097 
z
M 1959 3584 
Q 2709 3584 3137 3096 
Q 3566 2609 3566 1747 
Q 3566 888 3137 398 
Q 2709 -91 1959 -91 
Q 1206 -91 779 398 
Q 353 888 353 1747 
Q 353 2609 779 3096 
Q 1206 3584 1959 3584 
z
" transform="scale(0.015625)"/>
      <path id="DejaVuSans-20" transform="scale(0.015625)"/>
     </defs>
     <use xlink:href="#DejaVuSans-46"/>
     <use xlink:href="#DejaVuSans-75" x="52.019531"/>
     <use xlink:href="#DejaVuSans-6e" x="115.398438"/>
     <use xlink:href="#DejaVuSans-63" x="178.777344"/>
     <use xlink:href="#DejaVuSans-74" x="233.757812"/>
     <use xlink:href="#DejaVuSans-69" x="272.966797"/>
     <use xlink:href="#DejaVuSans-6f" x="300.75"/>
     <use xlink:href="#DejaVuSans-6e" x="361.931641"/>
     <use xlink:href="#DejaVuSans-20" x="425.310547"/>
     <use xlink:href="#DejaVuSans-31" x="457.097656"/>
    </g>
   </g>
   <g id="legend_1">
    <g id="patch_7">
     <path d="M 1011.90625 763.96 
L 1159.4 763.96 
Q 1161.4 763.96 1161.4 761.96 
L 1161.4 704.2475 
Q 1161.4 702.2475 1159.4 702.2475 
L 1011.90625 702.2475 
Q 1009.90625 702.2475 1009.90625 704.2475 
L 1009.90625 761.96 
Q 1009.90625 763.96 1011.90625 763.96 
z
" style="fill: #ffffff; opacity: 0.8; stroke: #cccccc; stroke-linejoin: miter"/>
    </g>
    <g id="line2d_17">
     <path d="M 1013.90625 710.345937 
L 1023.90625 710.345937 
L 1033.90625 710.345937 
" style="fill: none; stroke: #4169e1; stroke-linecap: square"/>
    </g>
    <g id="text_14">
     <!-- Truth -->
     <g transform="translate(1041.90625 713.845937) scale(0.1 -0.1)">
      <defs>
       <path id="DejaVuSans-54" d="M -19 4666 
L 3928 4666 
L 3928 4134 
L 2272 4134 
L 2272 0 
L 1638 0 
L 1638 4134 
L -19 4134 
L -19 4666 
z
" transform="scale(0.015625)"/>
       <path id="DejaVuSans-72" d="M 2631 2963 
Q 2534 3019 2420 3045 
Q 2306 3072 2169 3072 
Q 1681 3072 1420 2755 
Q 1159 2438 1159 1844 
L 1159 0 
L 581 0 
L 581 3500 
L 1159 3500 
L 1159 2956 
Q 1341 3275 1631 3429 
Q 1922 3584 2338 3584 
Q 2397 3584 2469 3576 
Q 2541 3569 2628 3553 
L 2631 2963 
z
" transform="scale(0.015625)"/>
       <path id="DejaVuSans-68" d="M 3513 2113 
L 3513 0 
L 2938 0 
L 2938 2094 
Q 2938 2591 2744 2837 
Q 2550 3084 2163 3084 
Q 1697 3084 1428 2787 
Q 1159 2491 1159 1978 
L 1159 0 
L 581 0 
L 581 4863 
L 1159 4863 
L 1159 2956 
Q 1366 3272 1645 3428 
Q 1925 3584 2291 3584 
Q 2894 3584 3203 3211 
Q 3513 2838 3513 2113 
z
" transform="scale(0.015625)"/>
      </defs>
      <use xlink:href="#DejaVuSans-54"/>
      <use xlink:href="#DejaVuSans-72" x="46.333984"/>
      <use xlink:href="#DejaVuSans-75" x="87.447266"/>
      <use xlink:href="#DejaVuSans-74" x="150.826172"/>
      <use xlink:href="#DejaVuSans-68" x="190.035156"/>
     </g>
    </g>
    <g id="line2d_18">
     <path d="M 1013.90625 725.024063 
L 1023.90625 725.024063 
L 1033.90625 725.024063 
" style="fill: none; stroke: #ff6347; stroke-linecap: square"/>
    </g>
    <g id="text_15">
     <!-- Gossip predictions -->
     <g transform="translate(1041.90625 728.524063) scale(0.1 -0.1)">
      <defs>
       <path id="DejaVuSans-47" d="M 3809 666 
L 3809 1919 
L 2778 1919 
L 2778 2438 
L 4434 2438 
L 4434 434 
Q 4069 175 3628 42 
Q 3188 -91 2688 -91 
Q 1594 -91 976 548 
Q 359 1188 359 2328 
Q 359 3472 976 4111 
Q 1594 4750 2688 4750 
Q 3144 4750 3555 4637 
Q 3966 4525 4313 4306 
L 4313 3634 
Q 3963 3931 3569 4081 
Q 3175 4231 2741 4231 
Q 1884 4231 1454 3753 
Q 1025 3275 1025 2328 
Q 1025 1384 1454 906 
Q 1884 428 2741 428 
Q 3075 428 3337 486 
Q 3600 544 3809 666 
z
" transform="scale(0.015625)"/>
       <path id="DejaVuSans-73" d="M 2834 3397 
L 2834 2853 
Q 2591 2978 2328 3040 
Q 2066 3103 1784 3103 
Q 1356 3103 1142 2972 
Q 928 2841 928 2578 
Q 928 2378 1081 2264 
Q 1234 2150 1697 2047 
L 1894 2003 
Q 2506 1872 2764 1633 
Q 3022 1394 3022 966 
Q 3022 478 2636 193 
Q 2250 -91 1575 -91 
Q 1294 -91 989 -36 
Q 684 19 347 128 
L 347 722 
Q 666 556 975 473 
Q 1284 391 1588 391 
Q 1994 391 2212 530 
Q 2431 669 2431 922 
Q 2431 1156 2273 1281 
Q 2116 1406 1581 1522 
L 1381 1569 
Q 847 1681 609 1914 
Q 372 2147 372 2553 
Q 372 3047 722 3315 
Q 1072 3584 1716 3584 
Q 2034 3584 2315 3537 
Q 2597 3491 2834 3397 
z
" transform="scale(0.015625)"/>
       <path id="DejaVuSans-70" d="M 1159 525 
L 1159 -1331 
L 581 -1331 
L 581 3500 
L 1159 3500 
L 1159 2969 
Q 1341 3281 1617 3432 
Q 1894 3584 2278 3584 
Q 2916 3584 3314 3078 
Q 3713 2572 3713 1747 
Q 3713 922 3314 415 
Q 2916 -91 2278 -91 
Q 1894 -91 1617 61 
Q 1341 213 1159 525 
z
M 3116 1747 
Q 3116 2381 2855 2742 
Q 2594 3103 2138 3103 
Q 1681 3103 1420 2742 
Q 1159 2381 1159 1747 
Q 1159 1113 1420 752 
Q 1681 391 2138 391 
Q 2594 391 2855 752 
Q 3116 1113 3116 1747 
z
" transform="scale(0.015625)"/>
       <path id="DejaVuSans-65" d="M 3597 1894 
L 3597 1613 
L 953 1613 
Q 991 1019 1311 708 
Q 1631 397 2203 397 
Q 2534 397 2845 478 
Q 3156 559 3463 722 
L 3463 178 
Q 3153 47 2828 -22 
Q 2503 -91 2169 -91 
Q 1331 -91 842 396 
Q 353 884 353 1716 
Q 353 2575 817 3079 
Q 1281 3584 2069 3584 
Q 2775 3584 3186 3129 
Q 3597 2675 3597 1894 
z
M 3022 2063 
Q 3016 2534 2758 2815 
Q 2500 3097 2075 3097 
Q 1594 3097 1305 2825 
Q 1016 2553 972 2059 
L 3022 2063 
z
" transform="scale(0.015625)"/>
       <path id="DejaVuSans-64" d="M 2906 2969 
L 2906 4863 
L 3481 4863 
L 3481 0 
L 2906 0 
L 2906 525 
Q 2725 213 2448 61 
Q 2172 -91 1784 -91 
Q 1150 -91 751 415 
Q 353 922 353 1747 
Q 353 2572 751 3078 
Q 1150 3584 1784 3584 
Q 2172 3584 2448 3432 
Q 2725 3281 2906 2969 
z
M 947 1747 
Q 947 1113 1208 752 
Q 1469 391 1925 391 
Q 2381 391 2643 752 
Q 2906 1113 2906 1747 
Q 2906 2381 2643 2742 
Q 2381 3103 1925 3103 
Q 1469 3103 1208 2742 
Q 947 2381 947 1747 
z
" transform="scale(0.015625)"/>
      </defs>
      <use xlink:href="#DejaVuSans-47"/>
      <use xlink:href="#DejaVuSans-6f" x="77.490234"/>
      <use xlink:href="#DejaVuSans-73" x="138.671875"/>
      <use xlink:href="#DejaVuSans-73" x="190.771484"/>
      <use xlink:href="#DejaVuSans-69" x="242.871094"/>
      <use xlink:href="#DejaVuSans-70" x="270.654297"/>
      <use xlink:href="#DejaVuSans-20" x="334.130859"/>
      <use xlink:href="#DejaVuSans-70" x="365.917969"/>
      <use xlink:href="#DejaVuSans-72" x="429.394531"/>
      <use xlink:href="#DejaVuSans-65" x="468.257812"/>
      <use xlink:href="#DejaVuSans-64" x="529.78125"/>
      <use xlink:href="#DejaVuSans-69" x="593.257812"/>
      <use xlink:href="#DejaVuSans-63" x="621.041016"/>
      <use xlink:href="#DejaVuSans-74" x="676.021484"/>
      <use xlink:href="#DejaVuSans-69" x="715.230469"/>
      <use xlink:href="#DejaVuSans-6f" x="743.013672"/>
      <use xlink:href="#DejaVuSans-6e" x="804.195312"/>
      <use xlink:href="#DejaVuSans-73" x="867.574219"/>
     </g>
    </g>
    <g id="line2d_19">
     <path d="M 1013.90625 739.702188 
L 1023.90625 739.702188 
L 1033.90625 739.702188 
" style="fill: none; stroke: #da70d6; stroke-linecap: square"/>
    </g>
    <g id="text_16">
     <!-- Centralized predictions -->
     <g transform="translate(1041.90625 743.202188) scale(0.1 -0.1)">
      <defs>
       <path id="DejaVuSans-43" d="M 4122 4306 
L 4122 3641 
Q 3803 3938 3442 4084 
Q 3081 4231 2675 4231 
Q 1875 4231 1450 3742 
Q 1025 3253 1025 2328 
Q 1025 1406 1450 917 
Q 1875 428 2675 428 
Q 3081 428 3442 575 
Q 3803 722 4122 1019 
L 4122 359 
Q 3791 134 3420 21 
Q 3050 -91 2638 -91 
Q 1578 -91 968 557 
Q 359 1206 359 2328 
Q 359 3453 968 4101 
Q 1578 4750 2638 4750 
Q 3056 4750 3426 4639 
Q 3797 4528 4122 4306 
z
" transform="scale(0.015625)"/>
       <path id="DejaVuSans-61" d="M 2194 1759 
Q 1497 1759 1228 1600 
Q 959 1441 959 1056 
Q 959 750 1161 570 
Q 1363 391 1709 391 
Q 2188 391 2477 730 
Q 2766 1069 2766 1631 
L 2766 1759 
L 2194 1759 
z
M 3341 1997 
L 3341 0 
L 2766 0 
L 2766 531 
Q 2569 213 2275 61 
Q 1981 -91 1556 -91 
Q 1019 -91 701 211 
Q 384 513 384 1019 
Q 384 1609 779 1909 
Q 1175 2209 1959 2209 
L 2766 2209 
L 2766 2266 
Q 2766 2663 2505 2880 
Q 2244 3097 1772 3097 
Q 1472 3097 1187 3025 
Q 903 2953 641 2809 
L 641 3341 
Q 956 3463 1253 3523 
Q 1550 3584 1831 3584 
Q 2591 3584 2966 3190 
Q 3341 2797 3341 1997 
z
" transform="scale(0.015625)"/>
       <path id="DejaVuSans-6c" d="M 603 4863 
L 1178 4863 
L 1178 0 
L 603 0 
L 603 4863 
z
" transform="scale(0.015625)"/>
       <path id="DejaVuSans-7a" d="M 353 3500 
L 3084 3500 
L 3084 2975 
L 922 459 
L 3084 459 
L 3084 0 
L 275 0 
L 275 525 
L 2438 3041 
L 353 3041 
L 353 3500 
z
" transform="scale(0.015625)"/>
      </defs>
      <use xlink:href="#DejaVuSans-43"/>
      <use xlink:href="#DejaVuSans-65" x="69.824219"/>
      <use xlink:href="#DejaVuSans-6e" x="131.347656"/>
      <use xlink:href="#DejaVuSans-74" x="194.726562"/>
      <use xlink:href="#DejaVuSans-72" x="233.935547"/>
      <use xlink:href="#DejaVuSans-61" x="275.048828"/>
      <use xlink:href="#DejaVuSans-6c" x="336.328125"/>
      <use xlink:href="#DejaVuSans-69" x="364.111328"/>
      <use xlink:href="#DejaVuSans-7a" x="391.894531"/>
      <use xlink:href="#DejaVuSans-65" x="444.384766"/>
      <use xlink:href="#DejaVuSans-64" x="505.908203"/>
      <use xlink:href="#DejaVuSans-20" x="569.384766"/>
      <use xlink:href="#DejaVuSans-70" x="601.171875"/>
      <use xlink:href="#DejaVuSans-72" x="664.648438"/>
      <use xlink:href="#DejaVuSans-65" x="703.511719"/>
      <use xlink:href="#DejaVuSans-64" x="765.035156"/>
      <use xlink:href="#DejaVuSans-69" x="828.511719"/>
      <use xlink:href="#DejaVuSans-63" x="856.294922"/>
      <use xlink:href="#DejaVuSans-74" x="911.275391"/>
      <use xlink:href="#DejaVuSans-69" x="950.484375"/>
      <use xlink:href="#DejaVuSans-6f" x="978.267578"/>
      <use xlink:href="#DejaVuSans-6e" x="1039.449219"/>
      <use xlink:href="#DejaVuSans-73" x="1102.828125"/>
     </g>
    </g>
    <g id="line2d_20">
     <path d="M 1013.90625 754.380312 
L 1023.90625 754.380312 
L 1033.90625 754.380312 
" style="fill: none; stroke: #8fbc8f; stroke-linecap: square"/>
    </g>
    <g id="text_17">
     <!-- Single predictions -->
     <g transform="translate(1041.90625 757.880312) scale(0.1 -0.1)">
      <defs>
       <path id="DejaVuSans-53" d="M 3425 4513 
L 3425 3897 
Q 3066 4069 2747 4153 
Q 2428 4238 2131 4238 
Q 1616 4238 1336 4038 
Q 1056 3838 1056 3469 
Q 1056 3159 1242 3001 
Q 1428 2844 1947 2747 
L 2328 2669 
Q 3034 2534 3370 2195 
Q 3706 1856 3706 1288 
Q 3706 609 3251 259 
Q 2797 -91 1919 -91 
Q 1588 -91 1214 -16 
Q 841 59 441 206 
L 441 856 
Q 825 641 1194 531 
Q 1563 422 1919 422 
Q 2459 422 2753 634 
Q 3047 847 3047 1241 
Q 3047 1584 2836 1778 
Q 2625 1972 2144 2069 
L 1759 2144 
Q 1053 2284 737 2584 
Q 422 2884 422 3419 
Q 422 4038 858 4394 
Q 1294 4750 2059 4750 
Q 2388 4750 2728 4690 
Q 3069 4631 3425 4513 
z
" transform="scale(0.015625)"/>
       <path id="DejaVuSans-67" d="M 2906 1791 
Q 2906 2416 2648 2759 
Q 2391 3103 1925 3103 
Q 1463 3103 1205 2759 
Q 947 2416 947 1791 
Q 947 1169 1205 825 
Q 1463 481 1925 481 
Q 2391 481 2648 825 
Q 2906 1169 2906 1791 
z
M 3481 434 
Q 3481 -459 3084 -895 
Q 2688 -1331 1869 -1331 
Q 1566 -1331 1297 -1286 
Q 1028 -1241 775 -1147 
L 775 -588 
Q 1028 -725 1275 -790 
Q 1522 -856 1778 -856 
Q 2344 -856 2625 -561 
Q 2906 -266 2906 331 
L 2906 616 
Q 2728 306 2450 153 
Q 2172 0 1784 0 
Q 1141 0 747 490 
Q 353 981 353 1791 
Q 353 2603 747 3093 
Q 1141 3584 1784 3584 
Q 2172 3584 2450 3431 
Q 2728 3278 2906 2969 
L 2906 3500 
L 3481 3500 
L 3481 434 
z
" transform="scale(0.015625)"/>
      </defs>
      <use xlink:href="#DejaVuSans-53"/>
      <use xlink:href="#DejaVuSans-69" x="63.476562"/>
      <use xlink:href="#DejaVuSans-6e" x="91.259766"/>
      <use xlink:href="#DejaVuSans-67" x="154.638672"/>
      <use xlink:href="#DejaVuSans-6c" x="218.115234"/>
      <use xlink:href="#DejaVuSans-65" x="245.898438"/>
      <use xlink:href="#DejaVuSans-20" x="307.421875"/>
      <use xlink:href="#DejaVuSans-70" x="339.208984"/>
      <use xlink:href="#DejaVuSans-72" x="402.685547"/>
      <use xlink:href="#DejaVuSans-65" x="441.548828"/>
      <use xlink:href="#DejaVuSans-64" x="503.072266"/>
      <use xlink:href="#DejaVuSans-69" x="566.548828"/>
      <use xlink:href="#DejaVuSans-63" x="594.332031"/>
      <use xlink:href="#DejaVuSans-74" x="649.3125"/>
      <use xlink:href="#DejaVuSans-69" x="688.521484"/>
      <use xlink:href="#DejaVuSans-6f" x="716.304688"/>
      <use xlink:href="#DejaVuSans-6e" x="777.486328"/>
      <use xlink:href="#DejaVuSans-73" x="840.865234"/>
     </g>
    </g>
   </g>
  </g>
 </g>
 <defs>
  <clipPath id="p49934c83b8">
   <rect x="162" y="103.68" width="1004.4" height="665.28"/>
  </clipPath>
 </defs>
</svg>
