<?xml version="1.0" encoding="utf-8" standalone="no"?>
<!DOCTYPE svg PUBLIC "-//W3C//DTD SVG 1.1//EN"
  "http://www.w3.org/Graphics/SVG/1.1/DTD/svg11.dtd">
<svg xmlns:xlink="http://www.w3.org/1999/xlink" width="1296pt" height="864pt" viewBox="0 0 1296 864" xmlns="http://www.w3.org/2000/svg" version="1.1">
 <metadata>
  <rdf:RDF xmlns:dc="http://purl.org/dc/elements/1.1/" xmlns:cc="http://creativecommons.org/ns#" xmlns:rdf="http://www.w3.org/1999/02/22-rdf-syntax-ns#">
   <cc:Work>
    <dc:type rdf:resource="http://purl.org/dc/dcmitype/StillImage"/>
    <dc:date>2023-12-18T18:17:28.098662</dc:date>
    <dc:format>image/svg+xml</dc:format>
    <dc:creator>
     <cc:Agent>
      <dc:title>Matplotlib v3.8.0, https://matplotlib.org/</dc:title>
     </cc:Agent>
    </dc:creator>
   </cc:Work>
  </rdf:RDF>
 </metadata>
 <defs>
  <style type="text/css">*{stroke-linejoin: round; stroke-linecap: butt}</style>
 </defs>
 <g id="figure_1">
  <g id="patch_1">
   <path d="M 0 864 
L 1296 864 
L 1296 0 
L 0 0 
z
" style="fill: #ffffff"/>
  </g>
  <g id="axes_1">
   <g id="patch_2">
    <path d="M 162 768.96 
L 1166.4 768.96 
L 1166.4 103.68 
L 162 103.68 
z
" style="fill: #ffffff"/>
   </g>
   <g id="matplotlib.axis_1">
    <g id="xtick_1">
     <g id="line2d_1">
      <defs>
       <path id="md5e99aec10" d="M 0 0 
L 0 3.5 
" style="stroke: #000000; stroke-width: 0.8"/>
      </defs>
      <g>
       <use xlink:href="#md5e99aec10" x="207.654545" y="768.96" style="stroke: #000000; stroke-width: 0.8"/>
      </g>
     </g>
     <g id="text_1">
      <!-- 0 -->
      <g transform="translate(204.473295 783.558437) scale(0.1 -0.1)">
       <defs>
        <path id="DejaVuSans-30" d="M 2034 4250 
Q 1547 4250 1301 3770 
Q 1056 3291 1056 2328 
Q 1056 1369 1301 889 
Q 1547 409 2034 409 
Q 2525 409 2770 889 
Q 3016 1369 3016 2328 
Q 3016 3291 2770 3770 
Q 2525 4250 2034 4250 
z
M 2034 4750 
Q 2819 4750 3233 4129 
Q 3647 3509 3647 2328 
Q 3647 1150 3233 529 
Q 2819 -91 2034 -91 
Q 1250 -91 836 529 
Q 422 1150 422 2328 
Q 422 3509 836 4129 
Q 1250 4750 2034 4750 
z
" transform="scale(0.015625)"/>
       </defs>
       <use xlink:href="#DejaVuSans-30"/>
      </g>
     </g>
    </g>
    <g id="xtick_2">
     <g id="line2d_2">
      <g>
       <use xlink:href="#md5e99aec10" x="390.638696" y="768.96" style="stroke: #000000; stroke-width: 0.8"/>
      </g>
     </g>
     <g id="text_2">
      <!-- 100 -->
      <g transform="translate(381.094946 783.558437) scale(0.1 -0.1)">
       <defs>
        <path id="DejaVuSans-31" d="M 794 531 
L 1825 531 
L 1825 4091 
L 703 3866 
L 703 4441 
L 1819 4666 
L 2450 4666 
L 2450 531 
L 3481 531 
L 3481 0 
L 794 0 
L 794 531 
z
" transform="scale(0.015625)"/>
       </defs>
       <use xlink:href="#DejaVuSans-31"/>
       <use xlink:href="#DejaVuSans-30" x="63.623047"/>
       <use xlink:href="#DejaVuSans-30" x="127.246094"/>
      </g>
     </g>
    </g>
    <g id="xtick_3">
     <g id="line2d_3">
      <g>
       <use xlink:href="#md5e99aec10" x="573.622846" y="768.96" style="stroke: #000000; stroke-width: 0.8"/>
      </g>
     </g>
     <g id="text_3">
      <!-- 200 -->
      <g transform="translate(564.079096 783.558437) scale(0.1 -0.1)">
       <defs>
        <path id="DejaVuSans-32" d="M 1228 531 
L 3431 531 
L 3431 0 
L 469 0 
L 469 531 
Q 828 903 1448 1529 
Q 2069 2156 2228 2338 
Q 2531 2678 2651 2914 
Q 2772 3150 2772 3378 
Q 2772 3750 2511 3984 
Q 2250 4219 1831 4219 
Q 1534 4219 1204 4116 
Q 875 4013 500 3803 
L 500 4441 
Q 881 4594 1212 4672 
Q 1544 4750 1819 4750 
Q 2544 4750 2975 4387 
Q 3406 4025 3406 3419 
Q 3406 3131 3298 2873 
Q 3191 2616 2906 2266 
Q 2828 2175 2409 1742 
Q 1991 1309 1228 531 
z
" transform="scale(0.015625)"/>
       </defs>
       <use xlink:href="#DejaVuSans-32"/>
       <use xlink:href="#DejaVuSans-30" x="63.623047"/>
       <use xlink:href="#DejaVuSans-30" x="127.246094"/>
      </g>
     </g>
    </g>
    <g id="xtick_4">
     <g id="line2d_4">
      <g>
       <use xlink:href="#md5e99aec10" x="756.606996" y="768.96" style="stroke: #000000; stroke-width: 0.8"/>
      </g>
     </g>
     <g id="text_4">
      <!-- 300 -->
      <g transform="translate(747.063246 783.558437) scale(0.1 -0.1)">
       <defs>
        <path id="DejaVuSans-33" d="M 2597 2516 
Q 3050 2419 3304 2112 
Q 3559 1806 3559 1356 
Q 3559 666 3084 287 
Q 2609 -91 1734 -91 
Q 1441 -91 1130 -33 
Q 819 25 488 141 
L 488 750 
Q 750 597 1062 519 
Q 1375 441 1716 441 
Q 2309 441 2620 675 
Q 2931 909 2931 1356 
Q 2931 1769 2642 2001 
Q 2353 2234 1838 2234 
L 1294 2234 
L 1294 2753 
L 1863 2753 
Q 2328 2753 2575 2939 
Q 2822 3125 2822 3475 
Q 2822 3834 2567 4026 
Q 2313 4219 1838 4219 
Q 1578 4219 1281 4162 
Q 984 4106 628 3988 
L 628 4550 
Q 988 4650 1302 4700 
Q 1616 4750 1894 4750 
Q 2613 4750 3031 4423 
Q 3450 4097 3450 3541 
Q 3450 3153 3228 2886 
Q 3006 2619 2597 2516 
z
" transform="scale(0.015625)"/>
       </defs>
       <use xlink:href="#DejaVuSans-33"/>
       <use xlink:href="#DejaVuSans-30" x="63.623047"/>
       <use xlink:href="#DejaVuSans-30" x="127.246094"/>
      </g>
     </g>
    </g>
    <g id="xtick_5">
     <g id="line2d_5">
      <g>
       <use xlink:href="#md5e99aec10" x="939.591146" y="768.96" style="stroke: #000000; stroke-width: 0.8"/>
      </g>
     </g>
     <g id="text_5">
      <!-- 400 -->
      <g transform="translate(930.047396 783.558437) scale(0.1 -0.1)">
       <defs>
        <path id="DejaVuSans-34" d="M 2419 4116 
L 825 1625 
L 2419 1625 
L 2419 4116 
z
M 2253 4666 
L 3047 4666 
L 3047 1625 
L 3713 1625 
L 3713 1100 
L 3047 1100 
L 3047 0 
L 2419 0 
L 2419 1100 
L 313 1100 
L 313 1709 
L 2253 4666 
z
" transform="scale(0.015625)"/>
       </defs>
       <use xlink:href="#DejaVuSans-34"/>
       <use xlink:href="#DejaVuSans-30" x="63.623047"/>
       <use xlink:href="#DejaVuSans-30" x="127.246094"/>
      </g>
     </g>
    </g>
    <g id="xtick_6">
     <g id="line2d_6">
      <g>
       <use xlink:href="#md5e99aec10" x="1122.575296" y="768.96" style="stroke: #000000; stroke-width: 0.8"/>
      </g>
     </g>
     <g id="text_6">
      <!-- 500 -->
      <g transform="translate(1113.031546 783.558437) scale(0.1 -0.1)">
       <defs>
        <path id="DejaVuSans-35" d="M 691 4666 
L 3169 4666 
L 3169 4134 
L 1269 4134 
L 1269 2991 
Q 1406 3038 1543 3061 
Q 1681 3084 1819 3084 
Q 2600 3084 3056 2656 
Q 3513 2228 3513 1497 
Q 3513 744 3044 326 
Q 2575 -91 1722 -91 
Q 1428 -91 1123 -41 
Q 819 9 494 109 
L 494 744 
Q 775 591 1075 516 
Q 1375 441 1709 441 
Q 2250 441 2565 725 
Q 2881 1009 2881 1497 
Q 2881 1984 2565 2268 
Q 2250 2553 1709 2553 
Q 1456 2553 1204 2497 
Q 953 2441 691 2322 
L 691 4666 
z
" transform="scale(0.015625)"/>
       </defs>
       <use xlink:href="#DejaVuSans-35"/>
       <use xlink:href="#DejaVuSans-30" x="63.623047"/>
       <use xlink:href="#DejaVuSans-30" x="127.246094"/>
      </g>
     </g>
    </g>
   </g>
   <g id="matplotlib.axis_2">
    <g id="ytick_1">
     <g id="line2d_7">
      <defs>
       <path id="m1b5c048117" d="M 0 0 
L -3.5 0 
" style="stroke: #000000; stroke-width: 0.8"/>
      </defs>
      <g>
       <use xlink:href="#m1b5c048117" x="162" y="738.72" style="stroke: #000000; stroke-width: 0.8"/>
      </g>
     </g>
     <g id="text_7">
      <!-- 0 -->
      <g transform="translate(148.6375 742.519219) scale(0.1 -0.1)">
       <use xlink:href="#DejaVuSans-30"/>
      </g>
     </g>
    </g>
    <g id="ytick_2">
     <g id="line2d_8">
      <g>
       <use xlink:href="#m1b5c048117" x="162" y="648.674847" style="stroke: #000000; stroke-width: 0.8"/>
      </g>
     </g>
     <g id="text_8">
      <!-- 25 -->
      <g transform="translate(142.275 652.474066) scale(0.1 -0.1)">
       <use xlink:href="#DejaVuSans-32"/>
       <use xlink:href="#DejaVuSans-35" x="63.623047"/>
      </g>
     </g>
    </g>
    <g id="ytick_3">
     <g id="line2d_9">
      <g>
       <use xlink:href="#m1b5c048117" x="162" y="558.629694" style="stroke: #000000; stroke-width: 0.8"/>
      </g>
     </g>
     <g id="text_9">
      <!-- 50 -->
      <g transform="translate(142.275 562.428912) scale(0.1 -0.1)">
       <use xlink:href="#DejaVuSans-35"/>
       <use xlink:href="#DejaVuSans-30" x="63.623047"/>
      </g>
     </g>
    </g>
    <g id="ytick_4">
     <g id="line2d_10">
      <g>
       <use xlink:href="#m1b5c048117" x="162" y="468.58454" style="stroke: #000000; stroke-width: 0.8"/>
      </g>
     </g>
     <g id="text_10">
      <!-- 75 -->
      <g transform="translate(142.275 472.383759) scale(0.1 -0.1)">
       <defs>
        <path id="DejaVuSans-37" d="M 525 4666 
L 3525 4666 
L 3525 4397 
L 1831 0 
L 1172 0 
L 2766 4134 
L 525 4134 
L 525 4666 
z
" transform="scale(0.015625)"/>
       </defs>
       <use xlink:href="#DejaVuSans-37"/>
       <use xlink:href="#DejaVuSans-35" x="63.623047"/>
      </g>
     </g>
    </g>
    <g id="ytick_5">
     <g id="line2d_11">
      <g>
       <use xlink:href="#m1b5c048117" x="162" y="378.539387" style="stroke: #000000; stroke-width: 0.8"/>
      </g>
     </g>
     <g id="text_11">
      <!-- 100 -->
      <g transform="translate(135.9125 382.338606) scale(0.1 -0.1)">
       <use xlink:href="#DejaVuSans-31"/>
       <use xlink:href="#DejaVuSans-30" x="63.623047"/>
       <use xlink:href="#DejaVuSans-30" x="127.246094"/>
      </g>
     </g>
    </g>
    <g id="ytick_6">
     <g id="line2d_12">
      <g>
       <use xlink:href="#m1b5c048117" x="162" y="288.494234" style="stroke: #000000; stroke-width: 0.8"/>
      </g>
     </g>
     <g id="text_12">
      <!-- 125 -->
      <g transform="translate(135.9125 292.293453) scale(0.1 -0.1)">
       <use xlink:href="#DejaVuSans-31"/>
       <use xlink:href="#DejaVuSans-32" x="63.623047"/>
       <use xlink:href="#DejaVuSans-35" x="127.246094"/>
      </g>
     </g>
    </g>
    <g id="ytick_7">
     <g id="line2d_13">
      <g>
       <use xlink:href="#m1b5c048117" x="162" y="198.449081" style="stroke: #000000; stroke-width: 0.8"/>
      </g>
     </g>
     <g id="text_13">
      <!-- 150 -->
      <g transform="translate(135.9125 202.248299) scale(0.1 -0.1)">
       <use xlink:href="#DejaVuSans-31"/>
       <use xlink:href="#DejaVuSans-35" x="63.623047"/>
       <use xlink:href="#DejaVuSans-30" x="127.246094"/>
      </g>
     </g>
    </g>
    <g id="ytick_8">
     <g id="line2d_14">
      <g>
       <use xlink:href="#m1b5c048117" x="162" y="108.403927" style="stroke: #000000; stroke-width: 0.8"/>
      </g>
     </g>
     <g id="text_14">
      <!-- 175 -->
      <g transform="translate(135.9125 112.203146) scale(0.1 -0.1)">
       <use xlink:href="#DejaVuSans-31"/>
       <use xlink:href="#DejaVuSans-37" x="63.623047"/>
       <use xlink:href="#DejaVuSans-35" x="127.246094"/>
      </g>
     </g>
    </g>
   </g>
   <g id="line2d_15">
    <path d="M 207.654545 655.878459 
L 209.484387 717.109163 
L 211.314228 630.665816 
L 213.14407 655.878459 
L 214.973911 731.516388 
L 216.803753 695.498326 
L 218.633594 735.118194 
L 220.463436 706.303745 
L 222.293277 645.073041 
L 224.123119 706.303745 
L 225.95296 623.462204 
L 227.782802 695.498326 
L 229.612643 731.516388 
L 231.442485 681.091102 
L 233.272326 641.471235 
L 235.102168 713.507357 
L 236.932009 691.89652 
L 238.761851 601.851367 
L 240.591692 472.186346 
L 242.421534 439.770091 
L 244.251375 140.820183 
L 246.081217 299.299652 
L 247.911058 191.245468 
L 249.7409 140.820183 
L 258.890107 140.820183 
L 260.719949 306.503264 
L 262.54979 140.820183 
L 264.379632 140.820183 
L 266.209473 191.245468 
L 268.039315 223.661723 
L 269.869156 155.227407 
L 273.528839 302.901458 
L 275.358681 140.820183 
L 277.188522 140.820183 
L 279.018364 324.512295 
L 280.848206 472.186346 
L 282.678047 241.670754 
L 284.507889 248.874366 
L 286.33773 349.724938 
L 288.167572 140.820183 
L 289.997413 158.829213 
L 291.827255 263.281591 
L 293.657096 140.820183 
L 297.316779 140.820183 
L 299.146621 173.236438 
L 300.976462 176.838244 
L 302.806304 479.389959 
L 304.636145 461.380928 
L 306.465987 212.856305 
L 308.295828 184.041856 
L 310.12567 360.530356 
L 311.955511 299.299652 
L 313.785353 356.92855 
L 315.615194 292.09604 
L 317.445036 338.91952 
L 319.274877 400.150224 
L 321.104719 443.371897 
L 322.93456 266.883397 
L 324.764402 569.435112 
L 326.594243 479.389959 
L 328.424085 450.57551 
L 330.253926 551.426081 
L 332.083768 490.195377 
L 333.913609 475.788153 
L 335.743451 432.566479 
L 337.573292 493.797183 
L 339.403134 475.788153 
L 341.232975 338.91952 
L 343.062817 270.485203 
L 344.892658 511.806214 
L 346.7225 227.26353 
L 348.552341 432.566479 
L 350.382183 565.833306 
L 352.212024 277.688815 
L 354.041866 601.851367 
L 355.871707 421.761061 
L 357.701549 515.40802 
L 359.53139 482.991765 
L 361.361232 364.132163 
L 363.191073 360.530356 
L 365.020915 234.467142 
L 366.850756 515.40802 
L 368.680598 436.168285 
L 370.510439 324.512295 
L 372.340281 335.317714 
L 374.170122 140.820183 
L 375.999964 248.874366 
L 377.829805 292.09604 
L 379.659647 140.820183 
L 381.489488 140.820183 
L 383.31933 241.670754 
L 385.149171 310.105071 
L 386.979013 140.820183 
L 388.808854 356.92855 
L 390.638696 155.227407 
L 392.468537 252.476173 
L 394.298379 140.820183 
L 396.12822 140.820183 
L 397.958062 493.797183 
L 399.787903 457.779122 
L 401.617745 490.195377 
L 403.447586 526.213438 
L 405.277428 583.842336 
L 407.107269 601.851367 
L 408.937111 591.045949 
L 410.766952 627.06401 
L 412.596794 547.824275 
L 414.426635 389.344805 
L 416.256477 605.453173 
L 418.086318 637.869428 
L 419.91616 490.195377 
L 421.746001 565.833306 
L 423.575843 605.453173 
L 425.405684 630.665816 
L 427.235526 587.444143 
L 429.065367 511.806214 
L 430.895209 360.530356 
L 432.72505 486.593571 
L 434.554892 443.371897 
L 436.384733 645.073041 
L 438.214575 587.444143 
L 440.044416 555.027887 
L 441.874258 468.58454 
L 443.704099 601.851367 
L 445.533941 522.611632 
L 447.363782 555.027887 
L 449.193624 508.204408 
L 451.023465 663.082071 
L 452.853307 522.611632 
L 454.683148 461.380928 
L 456.51299 450.57551 
L 458.342831 634.267622 
L 460.172673 529.815244 
L 462.002514 630.665816 
L 463.832356 616.258592 
L 465.662197 630.665816 
L 467.492039 364.132163 
L 469.32188 634.267622 
L 471.151722 515.40802 
L 472.981563 612.656785 
L 474.811405 648.674847 
L 476.641246 681.091102 
L 478.471088 605.453173 
L 480.300929 519.009826 
L 482.130771 472.186346 
L 483.960612 515.40802 
L 485.790454 605.453173 
L 487.620295 540.620663 
L 489.450137 504.602602 
L 491.279978 537.018857 
L 493.10982 544.222469 
L 494.939661 407.353836 
L 496.769503 544.222469 
L 498.599344 547.824275 
L 500.429186 562.2315 
L 502.259027 551.426081 
L 504.088869 591.045949 
L 505.91871 479.389959 
L 507.748552 558.629694 
L 509.578393 666.683877 
L 511.408235 565.833306 
L 513.238076 576.638724 
L 515.067918 652.276653 
L 516.897759 540.620663 
L 518.727601 576.638724 
L 520.557442 670.285684 
L 524.217125 576.638724 
L 526.046967 526.213438 
L 527.876808 591.045949 
L 529.70665 677.489296 
L 531.536491 591.045949 
L 533.366333 641.471235 
L 535.196174 335.317714 
L 537.026016 576.638724 
L 538.855857 591.045949 
L 540.685699 576.638724 
L 542.51554 630.665816 
L 544.345382 706.303745 
L 546.175223 583.842336 
L 548.005065 616.258592 
L 549.834906 634.267622 
L 551.664748 663.082071 
L 553.494589 713.507357 
L 555.324431 670.285684 
L 557.154272 645.073041 
L 558.984114 717.109163 
L 560.813955 681.091102 
L 562.643797 738.72 
L 564.473638 609.054979 
L 566.30348 717.109163 
L 568.133321 691.89652 
L 571.793004 720.710969 
L 573.622846 681.091102 
L 575.452687 670.285684 
L 577.282529 677.489296 
L 579.11237 670.285684 
L 580.942212 713.507357 
L 582.772053 702.701939 
L 584.601895 565.833306 
L 586.431736 410.955642 
L 588.261578 454.177316 
L 590.091419 569.435112 
L 591.921261 616.258592 
L 593.751102 259.679785 
L 595.580944 338.91952 
L 597.410785 450.57551 
L 599.240627 155.227407 
L 601.070468 385.742999 
L 602.90031 256.077979 
L 604.730151 140.820183 
L 606.559993 187.643662 
L 608.389834 515.40802 
L 610.219676 140.820183 
L 617.539042 140.820183 
L 619.368883 454.177316 
L 621.198725 295.697846 
L 623.028566 302.901458 
L 624.858408 155.227407 
L 626.688249 252.476173 
L 628.518091 202.050887 
L 630.347932 256.077979 
L 632.177774 292.09604 
L 634.007615 140.820183 
L 635.837457 302.901458 
L 637.667298 212.856305 
L 639.49714 212.856305 
L 641.326981 194.847274 
L 643.156823 385.742999 
L 644.986664 140.820183 
L 650.476189 140.820183 
L 652.30603 418.159254 
L 654.135872 176.838244 
L 655.965713 299.299652 
L 657.795555 522.611632 
L 659.625396 328.114101 
L 661.455238 353.326744 
L 663.285079 284.892428 
L 665.114921 176.838244 
L 666.944762 288.494234 
L 668.774604 180.44005 
L 670.604445 241.670754 
L 672.434287 140.820183 
L 674.264128 227.26353 
L 676.09397 436.168285 
L 677.923811 295.697846 
L 679.753653 493.797183 
L 681.583494 601.851367 
L 683.413336 439.770091 
L 685.243177 436.168285 
L 687.073019 558.629694 
L 688.90286 598.249561 
L 690.732702 645.073041 
L 692.562543 565.833306 
L 694.392385 565.833306 
L 696.222226 454.177316 
L 698.052068 392.946612 
L 699.881909 641.471235 
L 701.711751 519.009826 
L 703.541592 515.40802 
L 705.371434 623.462204 
L 707.201275 382.141193 
L 709.031117 515.40802 
L 710.860958 421.761061 
L 712.6908 414.557448 
L 714.520641 501.000795 
L 716.350483 627.06401 
L 718.180324 580.24053 
L 720.010166 619.860398 
L 721.840007 655.878459 
L 723.669849 475.788153 
L 725.49969 720.710969 
L 727.329532 641.471235 
L 729.159373 659.480265 
L 732.819056 609.054979 
L 734.648898 684.692908 
L 736.478739 609.054979 
L 738.308581 565.833306 
L 740.138422 583.842336 
L 741.968264 666.683877 
L 743.798105 652.276653 
L 745.627947 673.88749 
L 747.457788 738.72 
L 749.28763 717.109163 
L 751.117471 691.89652 
L 752.947313 702.701939 
L 754.777154 706.303745 
L 758.436837 583.842336 
L 760.266679 565.833306 
L 762.09652 717.109163 
L 763.926362 490.195377 
L 765.756203 594.647755 
L 767.586045 191.245468 
L 769.415886 418.159254 
L 771.245728 252.476173 
L 773.075569 400.150224 
L 774.905411 176.838244 
L 776.735252 140.820183 
L 796.863509 140.820183 
L 798.69335 306.503264 
L 800.523192 140.820183 
L 806.012716 140.820183 
L 807.842558 292.09604 
L 809.672399 140.820183 
L 811.502241 140.820183 
L 813.332082 158.829213 
L 815.161924 140.820183 
L 816.991765 155.227407 
L 818.821607 140.820183 
L 822.48129 140.820183 
L 824.311131 346.123132 
L 826.140973 421.761061 
L 829.800656 140.820183 
L 831.630497 277.688815 
L 833.460339 454.177316 
L 835.29018 140.820183 
L 837.120022 335.317714 
L 838.949863 140.820183 
L 840.779705 230.865336 
L 842.609546 479.389959 
L 844.439388 367.733969 
L 846.269229 371.335775 
L 848.099071 396.548418 
L 849.928912 403.75203 
L 851.758754 519.009826 
L 853.588595 194.847274 
L 855.418437 580.24053 
L 857.248278 580.24053 
L 859.07812 555.027887 
L 860.907961 508.204408 
L 862.737803 533.417051 
L 864.567644 508.204408 
L 866.397486 670.285684 
L 870.057169 428.964673 
L 871.88701 619.860398 
L 873.716852 634.267622 
L 875.546693 428.964673 
L 877.376535 418.159254 
L 879.206376 547.824275 
L 881.036218 504.602602 
L 882.866059 385.742999 
L 884.695901 461.380928 
L 886.525742 468.58454 
L 888.355584 627.06401 
L 890.185425 641.471235 
L 892.015267 216.458111 
L 893.845108 537.018857 
L 895.67495 562.2315 
L 897.504791 569.435112 
L 899.334633 446.973704 
L 901.164474 490.195377 
L 902.994316 677.489296 
L 904.824157 645.073041 
L 906.653999 515.40802 
L 908.48384 634.267622 
L 910.313682 598.249561 
L 912.143523 655.878459 
L 913.973365 583.842336 
L 915.803206 558.629694 
L 917.633048 555.027887 
L 919.462889 630.665816 
L 921.292731 720.710969 
L 923.122572 677.489296 
L 924.952414 619.860398 
L 926.782255 691.89652 
L 928.612097 706.303745 
L 930.441938 673.88749 
L 932.27178 623.462204 
L 934.101621 702.701939 
L 935.931463 670.285684 
L 937.761304 587.444143 
L 939.591146 562.2315 
L 941.420987 155.227407 
L 943.250829 663.082071 
L 945.08067 501.000795 
L 946.910512 436.168285 
L 948.740353 266.883397 
L 950.570195 155.227407 
L 952.400036 140.820183 
L 954.229878 140.820183 
L 956.059719 212.856305 
L 957.889561 306.503264 
L 961.549244 140.820183 
L 963.379085 166.032825 
L 965.208927 140.820183 
L 970.698451 140.820183 
L 972.528293 256.077979 
L 974.358134 140.820183 
L 976.187976 371.335775 
L 978.017817 392.946612 
L 979.847659 227.26353 
L 981.6775 425.362867 
L 983.507342 486.593571 
L 985.337183 263.281591 
L 987.167025 252.476173 
L 988.996866 140.820183 
L 990.826708 238.068948 
L 992.656549 140.820183 
L 994.486391 140.820183 
L 996.316232 284.892428 
L 998.146074 356.92855 
L 999.975915 140.820183 
L 1001.805757 140.820183 
L 1003.635598 288.494234 
L 1005.46544 360.530356 
L 1007.295281 140.820183 
L 1009.125123 140.820183 
L 1010.954964 194.847274 
L 1012.784806 310.105071 
L 1014.614647 392.946612 
L 1016.444489 565.833306 
L 1018.27433 270.485203 
L 1020.104172 140.820183 
L 1021.934013 400.150224 
L 1023.763855 346.123132 
L 1025.593696 302.901458 
L 1027.423538 292.09604 
L 1029.253379 338.91952 
L 1031.083221 356.92855 
L 1032.913062 461.380928 
L 1034.742904 428.964673 
L 1036.572745 140.820183 
L 1038.402587 479.389959 
L 1040.232428 501.000795 
L 1042.06227 230.865336 
L 1043.892111 389.344805 
L 1045.721953 331.715907 
L 1047.551794 407.353836 
L 1049.381636 299.299652 
L 1051.211478 270.485203 
L 1053.041319 140.820183 
L 1054.871161 342.521326 
L 1056.701002 342.521326 
L 1058.530844 382.141193 
L 1060.360685 140.820183 
L 1062.190527 396.548418 
L 1064.020368 342.521326 
L 1067.680051 140.820183 
L 1069.509893 292.09604 
L 1071.339734 194.847274 
L 1073.169576 140.820183 
L 1076.829259 140.820183 
L 1078.6591 202.050887 
L 1080.488942 140.820183 
L 1082.318783 140.820183 
L 1084.148625 328.114101 
L 1085.978466 184.041856 
L 1087.808308 320.910489 
L 1089.638149 140.820183 
L 1091.467991 140.820183 
L 1093.297832 338.91952 
L 1095.127674 274.087009 
L 1096.957515 230.865336 
L 1098.787357 306.503264 
L 1100.617198 270.485203 
L 1102.44704 569.435112 
L 1104.276881 598.249561 
L 1106.106723 551.426081 
L 1107.936564 583.842336 
L 1109.766406 659.480265 
L 1111.596247 439.770091 
L 1113.426089 634.267622 
L 1115.25593 681.091102 
L 1117.085772 493.797183 
L 1118.915613 587.444143 
L 1120.745455 490.195377 
L 1120.745455 490.195377 
" clip-path="url(#pf3d64efc7b)" style="fill: none; stroke: #4169e1; stroke-linecap: square"/>
   </g>
   <g id="line2d_16">
    <path d="M 207.654545 629.593459 
L 209.484387 629.90492 
L 211.314228 667.685729 
L 213.14407 656.103716 
L 214.973911 648.299963 
L 216.803753 677.656963 
L 218.633594 668.403798 
L 220.463436 689.367209 
L 222.293277 694.156151 
L 224.123119 674.03228 
L 225.95296 682.816065 
L 227.782802 642.81645 
L 229.612643 643.716957 
L 231.442485 662.152326 
L 233.272326 637.647833 
L 235.102168 621.706065 
L 236.932009 639.707965 
L 238.761851 623.020414 
L 240.591692 584.673526 
L 242.421534 497.551391 
L 244.251375 436.651102 
L 246.081217 237.593166 
L 247.911058 233.757893 
L 249.7409 185.111087 
L 251.570741 147.283934 
L 253.400583 145.410485 
L 255.230424 141.952287 
L 257.060266 135.26771 
L 258.890107 133.92 
L 260.719949 134.153467 
L 262.54979 194.812375 
L 264.379632 157.52014 
L 266.209473 147.245463 
L 268.039315 167.247753 
L 269.869156 178.663329 
L 271.698998 151.163119 
L 273.528839 173.521071 
L 275.358681 211.483259 
L 277.188522 155.563483 
L 279.018364 152.698404 
L 280.848206 220.070524 
L 282.678047 319.799928 
L 284.507889 238.169304 
L 286.33773 237.693687 
L 288.167572 270.039044 
L 289.997413 168.08808 
L 291.827255 162.652285 
L 293.657096 202.970244 
L 295.486938 161.279734 
L 297.316779 153.016948 
L 299.146621 153.846172 
L 302.806304 167.361464 
L 304.636145 306.838048 
L 306.465987 357.736011 
L 308.295828 284.818617 
L 310.12567 262.337777 
L 311.955511 296.985787 
L 313.785353 259.244013 
L 315.615194 297.711249 
L 317.445036 281.414472 
L 319.274877 298.559324 
L 321.104719 335.235247 
L 322.93456 376.437033 
L 324.764402 310.33513 
L 326.594243 435.852517 
L 328.424085 434.652428 
L 330.253926 422.689184 
L 332.083768 487.20043 
L 333.913609 462.803135 
L 335.743451 457.492262 
L 337.573292 445.804144 
L 339.403134 454.968261 
L 341.232975 453.158702 
L 343.062817 383.047031 
L 344.892658 325.020173 
L 346.7225 410.156838 
L 348.552341 282.654132 
L 350.382183 364.323558 
L 352.212024 458.196455 
L 354.041866 333.284525 
L 355.871707 473.211308 
L 357.701549 439.286258 
L 359.53139 433.052511 
L 361.361232 452.463001 
L 363.191073 367.05591 
L 365.020915 340.753975 
L 366.850756 286.598966 
L 368.680598 402.66818 
L 370.510439 395.3832 
L 372.340281 340.546175 
L 374.170122 338.004421 
L 375.999964 209.359856 
L 377.829805 225.789469 
L 379.659647 243.269352 
L 381.489488 182.397916 
L 383.31933 174.132822 
L 385.149171 206.995291 
L 386.979013 246.662863 
L 388.808854 179.971743 
L 390.638696 271.331355 
L 392.468537 195.389667 
L 394.298379 228.011799 
L 396.12822 192.708317 
L 397.958062 173.045015 
L 399.787903 338.840021 
L 401.617745 372.802773 
L 403.447586 425.739502 
L 405.277428 485.200795 
L 407.107269 523.183016 
L 408.937111 555.492952 
L 410.766952 564.006915 
L 412.596794 570.261465 
L 414.426635 529.123789 
L 416.256477 418.222815 
L 418.086318 501.458413 
L 419.91616 544.882611 
L 421.746001 489.7975 
L 423.575843 517.528016 
L 425.405684 542.334359 
L 427.235526 553.484125 
L 429.065367 565.470836 
L 430.895209 526.645734 
L 432.72505 394.067147 
L 434.554892 418.679718 
L 436.384733 383.083551 
L 438.214575 474.888525 
L 440.044416 516.502326 
L 441.874258 524.86544 
L 443.704099 471.195679 
L 445.533941 515.48352 
L 447.363782 481.543617 
L 449.193624 489.082481 
L 451.023465 477.197554 
L 452.853307 538.124677 
L 454.683148 513.604726 
L 456.51299 461.561414 
L 458.342831 443.635097 
L 460.172673 498.727133 
L 462.002514 479.105243 
L 463.832356 538.184143 
L 465.662197 557.755787 
L 467.492039 561.5656 
L 469.32188 393.026385 
L 471.151722 505.967458 
L 472.981563 477.619833 
L 474.811405 523.390679 
L 476.641246 554.158941 
L 478.471088 590.105789 
L 480.300929 596.578705 
L 482.130771 588.344663 
L 483.960612 537.994094 
L 485.790454 503.479813 
L 487.620295 523.865623 
L 489.450137 516.934484 
L 491.279978 504.37639 
L 493.10982 513.245582 
L 494.939661 500.187729 
L 496.769503 431.628518 
L 498.599344 482.498341 
L 500.429186 500.67464 
L 502.259027 505.954323 
L 504.088869 526.812713 
L 505.91871 538.98123 
L 507.748552 496.688422 
L 509.578393 509.313058 
L 511.408235 564.354615 
L 513.238076 549.275157 
L 515.067918 570.892245 
L 516.897759 604.261479 
L 518.727601 558.141134 
L 520.557442 559.169901 
L 522.387284 595.958834 
L 524.217125 577.718714 
L 526.046967 572.928772 
L 527.876808 548.644321 
L 529.70665 552.731953 
L 531.536491 580.235639 
L 533.366333 572.101705 
L 535.196174 582.536946 
L 537.026016 440.759522 
L 538.855857 485.705018 
L 540.685699 509.848498 
L 542.51554 524.247369 
L 544.345382 590.527271 
L 546.175223 642.903155 
L 548.005065 624.520031 
L 549.834906 634.200538 
L 551.664748 640.760104 
L 553.494589 620.258536 
L 555.324431 653.537651 
L 557.154272 657.061312 
L 558.984114 653.101858 
L 560.813955 670.075293 
L 562.643797 655.56897 
L 564.473638 676.254768 
L 566.30348 658.6154 
L 568.133321 673.226825 
L 569.963163 673.076484 
L 571.793004 673.80323 
L 573.622846 688.993919 
L 575.452687 676.453294 
L 577.282529 671.495665 
L 579.11237 662.359832 
L 580.942212 637.400056 
L 582.772053 643.004328 
L 584.601895 633.973673 
L 586.431736 584.211772 
L 588.261578 488.826069 
L 590.091419 466.319095 
L 591.921261 511.004318 
L 593.751102 524.545756 
L 595.580944 336.907408 
L 597.410785 324.591958 
L 599.240627 371.879624 
L 601.070468 197.145613 
L 602.90031 293.059365 
L 604.730151 235.485206 
L 606.559993 167.320739 
L 608.389834 169.262997 
L 610.219676 316.933559 
L 612.049517 169.7983 
L 613.879359 165.927688 
L 615.7092 166.63908 
L 617.539042 145.391359 
L 619.368883 145.330189 
L 621.198725 282.130371 
L 623.028566 238.805621 
L 624.858408 258.065468 
L 626.688249 198.169118 
L 628.518091 206.449821 
L 630.347932 192.25996 
L 632.177774 207.180888 
L 634.007615 230.792515 
L 635.837457 172.95664 
L 637.667298 223.104382 
L 639.49714 196.839161 
L 641.326981 193.305504 
L 643.156823 186.640217 
L 644.986664 271.405 
L 646.816506 179.832586 
L 648.646347 171.922363 
L 650.476189 164.717542 
L 652.30603 152.173764 
L 654.135872 269.450157 
L 655.965713 201.47376 
L 657.795555 261.054919 
L 659.625396 393.508322 
L 661.455238 327.968212 
L 663.285079 347.496315 
L 665.114921 327.306503 
L 666.944762 236.217757 
L 668.774604 261.778402 
L 670.604445 211.728927 
L 672.434287 227.955521 
L 674.264128 199.596684 
L 676.09397 218.178939 
L 677.923811 322.044902 
L 679.753653 283.598496 
L 681.583494 390.267818 
L 683.413336 468.612377 
L 685.243177 430.544777 
L 687.073019 440.41435 
L 688.90286 497.29715 
L 690.732702 510.389407 
L 692.562543 551.295677 
L 694.392385 566.915975 
L 696.222226 564.486929 
L 698.052068 509.414541 
L 699.881909 428.899958 
L 701.711751 505.897688 
L 703.541592 490.947906 
L 705.371434 498.872418 
L 707.201275 556.666056 
L 709.031117 442.968277 
L 710.860958 450.129928 
L 714.520641 368.202688 
L 716.350483 407.386839 
L 718.180324 491.627861 
L 720.010166 528.504632 
L 721.840007 575.508117 
L 723.669849 609.436836 
L 725.49969 541.682337 
L 727.329532 618.223919 
L 729.159373 619.836573 
L 730.989215 620.09021 
L 732.819056 630.109753 
L 734.648898 605.371518 
L 736.478739 623.042563 
L 740.138422 576.11341 
L 741.968264 575.481517 
L 743.798105 591.218617 
L 745.627947 601.153674 
L 747.457788 624.722075 
L 749.28763 661.330838 
L 751.117471 665.173118 
L 752.947313 664.040642 
L 754.777154 666.074304 
L 756.606996 654.134253 
L 758.436837 615.598023 
L 760.266679 564.334321 
L 762.09652 539.463689 
L 763.926362 597.015328 
L 765.756203 526.076631 
L 767.586045 531.700057 
L 769.415886 276.586609 
L 771.245728 323.698597 
L 773.075569 252.792573 
L 774.905411 280.9363 
L 776.735252 196.002517 
L 778.565094 160.488926 
L 780.394935 153.605506 
L 782.224777 145.183064 
L 784.054618 139.436145 
L 785.88446 138.372575 
L 787.714301 138.724863 
L 789.544143 138.602689 
L 791.373984 146.419481 
L 793.203826 148.469569 
L 796.863509 148.182847 
L 798.69335 142.355798 
L 800.523192 197.491307 
L 802.353033 157.268482 
L 804.182875 146.278785 
L 806.012716 153.616883 
L 807.842558 150.482944 
L 809.672399 200.571385 
L 811.502241 164.508037 
L 813.332082 149.716758 
L 815.161924 156.219805 
L 816.991765 147.22161 
L 818.821607 150.141812 
L 820.651448 153.348902 
L 822.48129 152.648556 
L 824.311131 152.734733 
L 826.140973 223.986972 
L 827.970814 289.510237 
L 829.800656 258.638363 
L 831.630497 215.734573 
L 833.460339 245.925421 
L 835.29018 327.436125 
L 837.120022 217.700519 
L 838.949863 288.731026 
L 840.779705 214.72904 
L 842.609546 212.509238 
L 844.439388 332.621388 
L 846.269229 308.692674 
L 848.099071 335.250801 
L 849.928912 369.663669 
L 851.758754 364.673813 
L 853.588595 423.758937 
L 855.418437 294.952819 
L 857.248278 425.796989 
L 859.07812 465.434059 
L 860.907961 479.179025 
L 862.737803 508.490154 
L 864.567644 507.78713 
L 866.397486 493.006073 
L 868.227327 540.76805 
L 870.057169 538.882015 
L 871.88701 483.474279 
L 873.716852 538.443853 
L 875.546693 534.602287 
L 877.376535 473.25239 
L 879.206376 451.325373 
L 881.036218 488.285353 
L 882.866059 460.974862 
L 884.695901 415.586834 
L 886.525742 416.219387 
L 888.355584 408.763622 
L 890.185425 460.901491 
L 892.015267 495.595888 
L 893.845108 387.871184 
L 895.67495 488.499254 
L 897.504791 500.519243 
L 899.334633 498.432525 
L 901.164474 483.051231 
L 902.994316 472.764023 
L 904.824157 542.001046 
L 906.653999 563.526242 
L 908.48384 558.731244 
L 910.313682 600.117652 
L 912.143523 584.475315 
L 913.973365 592.237684 
L 915.803206 589.924204 
L 917.633048 570.181004 
L 919.462889 560.800431 
L 921.292731 565.871887 
L 923.122572 617.154124 
L 924.952414 634.045168 
L 926.782255 640.247355 
L 928.612097 653.000411 
L 930.441938 640.213088 
L 932.27178 631.65853 
L 934.101621 610.962737 
L 935.931463 611.404045 
L 937.761304 601.414593 
L 939.591146 572.586047 
L 941.420987 540.975754 
L 943.250829 315.586289 
L 945.08067 469.677761 
L 948.740353 409.896359 
L 950.570195 328.922304 
L 952.400036 207.066189 
L 954.229878 162.909549 
L 956.059719 149.200636 
L 957.889561 169.383688 
L 959.719402 203.897516 
L 961.549244 184.675206 
L 963.379085 153.794786 
L 965.208927 154.754978 
L 967.038768 151.804493 
L 968.86861 149.52484 
L 970.698451 150.283003 
L 972.528293 149.715439 
L 974.358134 180.983541 
L 976.187976 152.693568 
L 978.017817 229.362531 
L 979.847659 276.224428 
L 981.6775 229.857934 
L 983.507342 322.559347 
L 985.337183 365.461928 
L 987.167025 278.005271 
L 988.996866 258.755261 
L 990.826708 186.525242 
L 992.656549 188.969113 
L 994.486391 159.018877 
L 996.316232 154.768882 
L 998.146074 203.773748 
L 999.975915 248.785168 
L 1001.805757 179.533388 
L 1003.635598 173.111186 
L 1007.295281 254.598532 
L 1009.125123 198.701178 
L 1010.954964 198.080469 
L 1012.784806 198.557625 
L 1014.614647 230.04452 
L 1016.444489 292.453769 
L 1018.27433 398.834226 
L 1020.104172 319.617464 
L 1021.934013 251.334615 
L 1023.763855 336.707769 
L 1025.593696 290.589031 
L 1027.423538 291.235956 
L 1031.083221 303.25328 
L 1032.913062 304.200337 
L 1034.742904 364.973643 
L 1036.572745 376.1815 
L 1038.402587 266.059559 
L 1040.232428 389.115103 
L 1042.06227 410.593104 
L 1043.892111 312.000723 
L 1045.721953 371.269961 
L 1047.551794 329.790384 
L 1049.381636 341.358197 
L 1051.211478 312.462023 
L 1053.041319 288.15258 
L 1054.871161 240.696822 
L 1056.701002 289.760192 
L 1058.530844 297.829026 
L 1060.360685 331.948357 
L 1062.190527 227.351849 
L 1064.020368 304.51943 
L 1065.85021 283.685331 
L 1067.680051 234.874445 
L 1069.509893 217.873421 
L 1071.339734 247.059943 
L 1073.169576 204.196329 
L 1074.999417 175.079275 
L 1076.829259 164.223569 
L 1078.6591 157.441328 
L 1080.488942 179.318113 
L 1082.318783 163.41314 
L 1084.148625 165.330337 
L 1085.978466 240.284573 
L 1087.808308 200.543081 
L 1089.638149 261.8349 
L 1091.467991 191.985219 
L 1093.297832 177.899726 
L 1095.127674 249.969428 
L 1096.957515 239.375493 
L 1098.787357 242.954051 
L 1100.617198 278.229422 
L 1102.44704 258.411766 
L 1104.276881 402.067503 
L 1106.106723 467.658175 
L 1107.936564 509.285826 
L 1109.766406 547.306395 
L 1111.596247 572.137717 
L 1113.426089 486.960066 
L 1115.25593 536.226936 
L 1117.085772 572.844259 
L 1118.915613 519.786413 
L 1120.745455 504.8838 
L 1120.745455 504.8838 
" clip-path="url(#pf3d64efc7b)" style="fill: none; stroke: #ff6347; stroke-linecap: square"/>
   </g>
   <g id="line2d_17">
    <path d="M 207.654545 640.514718 
L 209.484387 600.269573 
L 211.314228 646.476733 
L 213.14407 643.05285 
L 214.973911 659.810494 
L 216.803753 684.283744 
L 218.633594 674.845696 
L 222.293277 699.487038 
L 224.123119 685.531002 
L 225.95296 714.174845 
L 227.782802 656.886734 
L 229.612643 666.441789 
L 231.442485 691.573085 
L 233.272326 642.158245 
L 235.102168 658.018976 
L 236.932009 641.457749 
L 238.761851 657.273399 
L 240.591692 586.477658 
L 242.421534 327.080099 
L 244.251375 290.667815 
L 246.081217 182.030514 
L 247.911058 217.575487 
L 249.7409 227.625986 
L 251.570741 166.281241 
L 253.400583 193.559306 
L 255.230424 196.6789 
L 257.060266 174.434713 
L 258.890107 166.926902 
L 260.719949 175.363139 
L 262.54979 218.17696 
L 264.379632 207.602865 
L 266.209473 184.23916 
L 268.039315 241.124844 
L 269.869156 244.88169 
L 271.698998 238.715433 
L 273.528839 236.228145 
L 275.358681 262.504028 
L 277.188522 189.291339 
L 279.018364 177.236423 
L 280.848206 260.648441 
L 282.678047 292.801441 
L 284.507889 248.489322 
L 286.33773 253.923908 
L 288.167572 305.46558 
L 289.997413 217.454027 
L 291.827255 196.504294 
L 293.657096 257.839531 
L 295.486938 216.851179 
L 297.316779 219.899162 
L 299.146621 224.569155 
L 300.976462 208.318819 
L 302.806304 234.600198 
L 306.465987 341.140751 
L 308.295828 279.372216 
L 310.12567 318.075199 
L 311.955511 374.125339 
L 313.785353 323.249937 
L 315.615194 361.195033 
L 317.445036 373.481712 
L 319.274877 375.532652 
L 321.104719 406.623318 
L 322.93456 429.791616 
L 324.764402 377.293077 
L 326.594243 445.084289 
L 328.424085 462.873702 
L 330.253926 487.792506 
L 332.083768 486.724923 
L 333.913609 461.742505 
L 335.743451 501.210163 
L 337.573292 506.78635 
L 339.403134 519.109701 
L 341.232975 501.840957 
L 343.062817 477.246935 
L 344.892658 422.5741 
L 346.7225 418.355981 
L 348.552341 347.965859 
L 350.382183 387.870992 
L 352.212024 500.415068 
L 354.041866 379.691387 
L 355.871707 484.161681 
L 357.701549 474.03424 
L 359.53139 528.854269 
L 361.361232 526.219415 
L 363.191073 419.882775 
L 365.020915 421.638309 
L 366.850756 388.130839 
L 368.680598 451.985598 
L 370.510439 473.425292 
L 372.340281 405.558841 
L 374.170122 452.834443 
L 375.999964 319.085349 
L 377.829805 297.459453 
L 379.659647 317.552537 
L 381.489488 288.916485 
L 383.31933 245.544004 
L 385.149171 252.898974 
L 386.979013 244.22207 
L 388.808854 181.720379 
L 390.638696 282.668449 
L 392.468537 269.806787 
L 394.298379 259.140525 
L 396.12822 286.111862 
L 397.958062 227.307002 
L 399.787903 372.969822 
L 401.617745 416.464533 
L 403.447586 484.457307 
L 405.277428 536.113528 
L 407.107269 555.04329 
L 408.937111 527.233385 
L 410.766952 563.665852 
L 412.596794 569.17962 
L 414.426635 476.314552 
L 416.256477 276.015253 
L 418.086318 465.064513 
L 419.91616 515.323273 
L 421.746001 445.014738 
L 423.575843 535.459376 
L 425.405684 577.358813 
L 427.235526 548.797465 
L 429.065367 577.923011 
L 430.895209 496.938294 
L 432.72505 450.301703 
L 434.554892 394.267501 
L 436.384733 401.560752 
L 438.214575 422.207192 
L 440.044416 464.763832 
L 441.874258 546.742225 
L 443.704099 462.619956 
L 445.533941 524.374462 
L 447.363782 494.67098 
L 449.193624 532.991763 
L 451.023465 543.228394 
L 452.853307 555.293038 
L 454.683148 534.658167 
L 458.342831 468.058581 
L 460.172673 492.153134 
L 462.002514 499.252818 
L 465.662197 553.38877 
L 467.492039 535.519776 
L 469.32188 499.92736 
L 471.151722 443.766504 
L 472.981563 449.384324 
L 474.811405 502.58733 
L 476.641246 543.43805 
L 478.471088 638.039678 
L 480.300929 614.290544 
L 482.130771 600.833165 
L 483.960612 537.111065 
L 485.790454 541.1425 
L 487.620295 519.737266 
L 489.450137 551.036901 
L 491.279978 579.280324 
L 493.10982 578.688208 
L 494.939661 510.199028 
L 496.769503 461.444323 
L 498.599344 502.83712 
L 500.429186 523.799149 
L 502.259027 569.370123 
L 504.088869 601.621377 
L 505.91871 594.970352 
L 507.748552 525.878476 
L 509.578393 528.113282 
L 511.408235 523.967201 
L 513.238076 562.388738 
L 515.067918 576.612728 
L 516.897759 638.799441 
L 518.727601 603.280073 
L 520.557442 611.652475 
L 522.387284 585.624787 
L 524.217125 583.942623 
L 526.046967 565.288756 
L 527.876808 609.302694 
L 529.70665 588.894612 
L 531.536491 610.080971 
L 533.366333 605.813554 
L 535.196174 627.470509 
L 537.026016 575.22777 
L 538.855857 496.898558 
L 540.685699 501.979179 
L 542.51554 578.753788 
L 544.345382 646.032271 
L 546.175223 666.634359 
L 548.005065 632.013409 
L 549.834906 643.99222 
L 551.664748 659.383035 
L 553.494589 649.016686 
L 555.324431 666.088374 
L 557.154272 668.952497 
L 558.984114 667.672916 
L 560.813955 660.403848 
L 562.643797 656.233049 
L 564.473638 659.260449 
L 566.30348 665.989901 
L 568.133321 672.264826 
L 569.963163 694.849746 
L 571.793004 667.907839 
L 573.622846 711.763096 
L 575.452687 691.426337 
L 577.282529 676.853631 
L 579.11237 671.270875 
L 580.942212 663.40901 
L 582.772053 675.615592 
L 584.601895 669.995272 
L 586.431736 617.866766 
L 588.261578 426.902878 
L 590.091419 420.120309 
L 591.921261 471.507271 
L 593.751102 558.096548 
L 595.580944 364.21265 
L 597.410785 281.318211 
L 599.240627 366.059362 
L 601.070468 200.547423 
L 602.90031 281.191805 
L 604.730151 248.607704 
L 606.559993 219.997759 
L 608.389834 231.538421 
L 610.219676 275.631418 
L 612.049517 152.498573 
L 613.879359 159.97198 
L 615.7092 211.875723 
L 617.539042 187.460153 
L 619.368883 202.306557 
L 621.198725 307.462852 
L 623.028566 238.511919 
L 624.858408 297.962412 
L 628.518091 222.223331 
L 630.347932 239.634406 
L 632.177774 238.415411 
L 634.007615 272.577115 
L 635.837457 254.629639 
L 637.667298 265.000825 
L 639.49714 254.434918 
L 641.326981 242.965373 
L 643.156823 242.973562 
L 644.986664 297.087215 
L 646.816506 233.958549 
L 648.646347 194.81919 
L 650.476189 204.682883 
L 652.30603 191.998849 
L 654.135872 279.469988 
L 655.965713 226.325156 
L 657.795555 239.094597 
L 659.625396 399.995651 
L 661.455238 329.948007 
L 663.285079 392.053222 
L 665.114921 361.523414 
L 666.944762 298.532834 
L 668.774604 302.648728 
L 670.604445 281.048526 
L 672.434287 270.953511 
L 674.264128 257.730272 
L 676.09397 249.563665 
L 677.923811 351.589127 
L 679.753653 332.093037 
L 681.583494 394.314848 
L 683.413336 473.78739 
L 685.243177 458.056006 
L 687.073019 488.179529 
L 688.90286 496.392879 
L 690.732702 512.997839 
L 692.562543 535.321304 
L 694.392385 600.706031 
L 696.222226 610.838584 
L 698.052068 497.221636 
L 699.881909 455.005056 
L 701.711751 522.708759 
L 703.541592 513.1182 
L 705.371434 535.786878 
L 707.201275 584.049134 
L 709.031117 493.393975 
L 710.860958 471.145804 
L 712.6908 451.706625 
L 714.520641 451.727537 
L 716.350483 472.822527 
L 718.180324 520.716254 
L 720.010166 590.283761 
L 721.840007 621.610683 
L 723.669849 630.379781 
L 725.49969 588.323201 
L 727.329532 616.38159 
L 730.989215 649.871425 
L 732.819056 662.264004 
L 734.648898 641.649034 
L 736.478739 635.06361 
L 738.308581 614.555475 
L 740.138422 552.856381 
L 741.968264 633.542339 
L 743.798105 626.660355 
L 745.627947 630.115187 
L 747.457788 631.3589 
L 749.28763 693.625976 
L 751.117471 681.899215 
L 752.947313 681.281481 
L 754.777154 682.468902 
L 756.606996 695.07659 
L 758.436837 672.326264 
L 760.266679 632.441431 
L 762.09652 615.156825 
L 763.926362 660.330669 
L 765.756203 496.384965 
L 767.586045 521.407339 
L 769.415886 250.507644 
L 771.245728 211.899465 
L 773.075569 276.802269 
L 774.905411 263.759516 
L 776.735252 223.892112 
L 778.565094 152.541826 
L 780.394935 194.488391 
L 782.224777 181.375456 
L 784.054618 173.517334 
L 785.88446 161.888902 
L 787.714301 163.243811 
L 789.544143 174.076544 
L 791.373984 182.232599 
L 793.203826 183.4777 
L 795.033667 191.464316 
L 796.863509 204.270139 
L 798.69335 204.594179 
L 800.523192 244.311049 
L 802.353033 212.663124 
L 804.182875 158.312377 
L 806.012716 191.245084 
L 807.842558 187.160846 
L 809.672399 231.688295 
L 811.502241 214.970531 
L 813.332082 202.750407 
L 815.161924 203.714722 
L 816.991765 171.497968 
L 818.821607 186.025004 
L 820.651448 173.616096 
L 822.48129 180.290066 
L 824.311131 189.30343 
L 826.140973 280.529547 
L 827.970814 297.886651 
L 829.800656 314.059495 
L 831.630497 208.435607 
L 833.460339 265.731067 
L 835.29018 314.497492 
L 837.120022 200.616781 
L 838.949863 275.472256 
L 840.779705 266.597224 
L 842.609546 228.08418 
L 844.439388 345.989114 
L 846.269229 328.916973 
L 848.099071 382.13163 
L 849.928912 412.830548 
L 851.758754 410.386897 
L 853.588595 446.849358 
L 855.418437 337.528832 
L 857.248278 421.241998 
L 859.07812 458.682706 
L 860.907961 466.100604 
L 862.737803 527.641828 
L 864.567644 556.449998 
L 866.397486 520.820416 
L 868.227327 521.289025 
L 870.057169 575.583095 
L 871.88701 511.754813 
L 873.716852 522.927043 
L 875.546693 505.087534 
L 877.376535 465.721578 
L 879.206376 547.055739 
L 881.036218 549.512278 
L 882.866059 484.568434 
L 884.695901 488.166448 
L 886.525742 520.571506 
L 888.355584 496.178428 
L 890.185425 549.762398 
L 892.015267 533.43031 
L 893.845108 468.396827 
L 895.67495 587.645733 
L 897.504791 539.899159 
L 899.334633 498.108897 
L 901.164474 536.764258 
L 902.994316 480.840277 
L 904.824157 585.969628 
L 906.653999 585.212923 
L 908.48384 594.893684 
L 910.313682 611.902457 
L 912.143523 603.546116 
L 913.973365 603.925637 
L 915.803206 579.61335 
L 917.633048 614.972409 
L 919.462889 610.472198 
L 921.292731 607.974138 
L 923.122572 625.721082 
L 926.782255 658.613483 
L 928.612097 690.606346 
L 930.441938 656.439249 
L 932.27178 658.254867 
L 934.101621 669.965745 
L 935.931463 680.011834 
L 939.591146 603.721368 
L 941.420987 528.349057 
L 943.250829 257.972422 
L 945.08067 322.75404 
L 946.910512 436.289827 
L 948.740353 430.491467 
L 950.570195 362.651562 
L 952.400036 213.025305 
L 954.229878 194.281524 
L 956.059719 181.338633 
L 957.889561 203.894328 
L 959.719402 241.036855 
L 961.549244 231.479944 
L 963.379085 200.809633 
L 965.208927 202.788879 
L 967.038768 190.251696 
L 968.86861 185.96301 
L 972.528293 200.683722 
L 974.358134 229.059157 
L 976.187976 226.571264 
L 978.017817 277.359885 
L 979.847659 296.096245 
L 981.6775 264.122632 
L 983.507342 328.238969 
L 985.337183 397.725946 
L 987.167025 310.27484 
L 988.996866 287.232535 
L 990.826708 246.606585 
L 992.656549 243.684349 
L 994.486391 193.625641 
L 996.316232 176.19 
L 998.146074 224.163391 
L 999.975915 289.727821 
L 1001.805757 244.763253 
L 1003.635598 209.093414 
L 1005.46544 222.615465 
L 1007.295281 280.37676 
L 1009.125123 206.24889 
L 1010.954964 189.554703 
L 1012.784806 240.447252 
L 1014.614647 245.775547 
L 1016.444489 302.618418 
L 1018.27433 392.839551 
L 1020.104172 378.248653 
L 1021.934013 289.329421 
L 1023.763855 352.435416 
L 1025.593696 326.165578 
L 1027.423538 337.083278 
L 1029.253379 353.395993 
L 1031.083221 359.372971 
L 1032.913062 370.782226 
L 1034.742904 393.558802 
L 1036.572745 401.096429 
L 1038.402587 252.352844 
L 1040.232428 375.477555 
L 1042.06227 437.239605 
L 1043.892111 293.439408 
L 1045.721953 384.634527 
L 1047.551794 382.661437 
L 1049.381636 357.709438 
L 1051.211478 361.249553 
L 1053.041319 337.855455 
L 1054.871161 226.15819 
L 1056.701002 295.232067 
L 1058.530844 326.89016 
L 1060.360685 369.59813 
L 1062.190527 302.055801 
L 1064.020368 289.922376 
L 1065.85021 325.87924 
L 1067.680051 255.236993 
L 1069.509893 230.086014 
L 1071.339734 280.887716 
L 1073.169576 233.131798 
L 1074.999417 190.176402 
L 1076.829259 197.131104 
L 1078.6591 149.318634 
L 1080.488942 166.285143 
L 1082.318783 184.759019 
L 1084.148625 176.104099 
L 1085.978466 244.519509 
L 1087.808308 218.979145 
L 1089.638149 280.61891 
L 1091.467991 191.005901 
L 1093.297832 192.533382 
L 1095.127674 240.104307 
L 1096.957515 253.723966 
L 1098.787357 260.359685 
L 1100.617198 319.305983 
L 1102.44704 300.108871 
L 1104.276881 398.417855 
L 1106.106723 520.265259 
L 1107.936564 536.939152 
L 1109.766406 578.01673 
L 1111.596247 594.060928 
L 1113.426089 528.982063 
L 1115.25593 581.81485 
L 1117.085772 599.551696 
L 1118.915613 571.962562 
L 1120.745455 635.101889 
L 1120.745455 635.101889 
" clip-path="url(#pf3d64efc7b)" style="fill: none; stroke: #da70d6; stroke-linecap: square"/>
   </g>
   <g id="line2d_18">
    <path d="M 207.654545 623.107538 
L 209.484387 652.034056 
L 211.314228 650.99034 
L 213.14407 655.137719 
L 214.973911 664.79168 
L 216.803753 697.066333 
L 218.633594 691.946914 
L 220.463436 690.312256 
L 222.293277 697.398915 
L 224.123119 695.41304 
L 225.95296 691.801674 
L 229.612643 656.205975 
L 231.442485 680.31323 
L 233.272326 610.609995 
L 235.102168 616.379928 
L 236.932009 633.530661 
L 238.761851 605.808292 
L 240.591692 508.87502 
L 242.421534 470.177478 
L 244.251375 399.314679 
L 246.081217 250.649109 
L 247.911058 212.106662 
L 249.7409 190.574142 
L 251.570741 179.047164 
L 253.400583 174.667795 
L 255.230424 172.215131 
L 257.060266 171.043401 
L 258.890107 169.576814 
L 260.719949 168.954951 
L 262.54979 195.377631 
L 264.379632 180.475718 
L 266.209473 176.876495 
L 268.039315 180.351676 
L 269.869156 188.905855 
L 271.698998 191.919708 
L 273.528839 207.773019 
L 275.358681 229.037393 
L 277.188522 197.923451 
L 279.018364 198.930358 
L 280.848206 241.158919 
L 282.678047 313.305702 
L 284.507889 256.194932 
L 286.33773 225.519015 
L 288.167572 263.009873 
L 289.997413 201.621436 
L 291.827255 198.414236 
L 293.657096 213.995554 
L 295.486938 207.473821 
L 297.316779 206.923459 
L 299.146621 198.835279 
L 300.976462 192.025449 
L 302.806304 191.562088 
L 304.636145 318.390802 
L 306.465987 400.692177 
L 308.295828 297.128819 
L 310.12567 278.3666 
L 311.955511 357.526699 
L 313.785353 332.52062 
L 315.615194 346.659094 
L 317.445036 341.046551 
L 319.274877 359.557716 
L 321.104719 400.935728 
L 322.93456 432.392066 
L 324.764402 358.93294 
L 326.594243 437.406598 
L 328.424085 474.316538 
L 330.253926 491.060133 
L 332.083768 479.008679 
L 333.913609 465.519576 
L 335.743451 514.810339 
L 337.573292 516.745232 
L 339.403134 477.988801 
L 341.232975 465.997638 
L 343.062817 458.476362 
L 344.892658 363.435692 
L 346.7225 395.549891 
L 348.552341 368.685065 
L 352.212024 472.90623 
L 354.041866 368.401613 
L 355.871707 508.097045 
L 357.701549 412.671496 
L 359.53139 470.501325 
L 361.361232 441.826582 
L 363.191073 354.003759 
L 365.020915 348.905744 
L 366.850756 333.13314 
L 368.680598 428.267873 
L 370.510439 432.140408 
L 372.340281 329.885903 
L 374.170122 363.778005 
L 375.999964 238.376884 
L 377.829805 197.037454 
L 379.659647 210.540764 
L 381.489488 192.661602 
L 383.31933 181.145946 
L 385.149171 196.690496 
L 386.979013 230.179005 
L 388.808854 211.512882 
L 390.638696 264.471293 
L 392.468537 213.409854 
L 394.298379 229.123514 
L 396.12822 219.336325 
L 397.958062 213.014533 
L 399.787903 333.294088 
L 401.617745 370.721441 
L 403.447586 422.885306 
L 405.277428 499.90054 
L 407.107269 534.064676 
L 408.937111 549.021822 
L 410.766952 568.703165 
L 412.596794 551.909406 
L 414.426635 480.733491 
L 416.256477 391.973751 
L 419.91616 485.613016 
L 421.746001 373.186086 
L 423.575843 491.100747 
L 425.405684 545.239791 
L 427.235526 539.064768 
L 429.065367 558.509003 
L 430.895209 529.826539 
L 432.72505 409.184032 
L 434.554892 422.731283 
L 436.384733 344.352814 
L 438.214575 422.034922 
L 441.874258 482.435111 
L 443.704099 439.900509 
L 445.533941 491.910654 
L 447.363782 440.881421 
L 449.193624 478.280223 
L 451.023465 464.226193 
L 452.853307 481.911377 
L 454.683148 454.818442 
L 456.51299 460.93694 
L 458.342831 456.563452 
L 460.172673 483.67466 
L 462.002514 423.418493 
L 463.832356 508.231214 
L 465.662197 475.949733 
L 467.492039 488.201897 
L 469.32188 375.751472 
L 471.151722 459.248044 
L 472.981563 373.650574 
L 474.811405 461.285217 
L 476.641246 422.817294 
L 478.471088 539.470037 
L 480.300929 535.885516 
L 482.130771 574.151765 
L 483.960612 578.181553 
L 485.790454 497.291242 
L 487.620295 497.879195 
L 489.450137 505.308195 
L 493.10982 497.131283 
L 494.939661 478.663645 
L 496.769503 427.467941 
L 498.599344 469.454517 
L 500.429186 472.207808 
L 502.259027 510.859652 
L 504.088869 509.186872 
L 505.91871 502.206243 
L 507.748552 493.574681 
L 509.578393 497.755262 
L 511.408235 515.145013 
L 513.238076 538.722661 
L 515.067918 533.189822 
L 516.897759 560.799208 
L 518.727601 533.170091 
L 520.557442 518.623023 
L 522.387284 547.442336 
L 524.217125 556.810764 
L 526.046967 537.727446 
L 527.876808 583.9691 
L 529.70665 538.770461 
L 531.536491 561.755498 
L 533.366333 557.202692 
L 535.196174 553.1892 
L 537.026016 620.13033 
L 538.855857 516.09828 
L 540.685699 514.453461 
L 542.51554 565.944035 
L 544.345382 624.225615 
L 546.175223 662.222345 
L 548.005065 675.917559 
L 549.834906 670.93414 
L 551.664748 668.635382 
L 553.494589 645.135186 
L 555.324431 668.579166 
L 557.154272 687.51213 
L 558.984114 685.380262 
L 560.813955 685.516544 
L 562.643797 676.39433 
L 564.473638 671.399968 
L 566.30348 671.006844 
L 568.133321 688.443829 
L 569.963163 695.146763 
L 571.793004 685.046237 
L 573.622846 690.035557 
L 575.452687 684.173842 
L 577.282529 679.316201 
L 579.11237 683.764919 
L 580.942212 677.99075 
L 582.772053 676.947048 
L 584.601895 665.461454 
L 586.431736 612.265297 
L 588.261578 462.18325 
L 590.091419 465.68525 
L 591.921261 484.319909 
L 593.751102 518.812358 
L 595.580944 409.414559 
L 597.410785 325.369851 
L 599.240627 314.797185 
L 601.070468 188.103781 
L 602.90031 251.830732 
L 604.730151 220.428144 
L 606.559993 196.570355 
L 608.389834 189.335746 
L 610.219676 294.202049 
L 612.049517 183.446758 
L 613.879359 172.346923 
L 615.7092 177.023896 
L 617.539042 171.317262 
L 619.368883 172.331974 
L 621.198725 262.929193 
L 623.028566 223.324714 
L 624.858408 238.9345 
L 626.688249 218.187567 
L 628.518091 220.317566 
L 630.347932 217.181704 
L 634.007615 258.122846 
L 635.837457 225.641134 
L 637.667298 240.722268 
L 639.49714 214.459135 
L 641.326981 208.813561 
L 643.156823 205.101342 
L 644.986664 254.557093 
L 646.816506 215.146455 
L 648.646347 213.705974 
L 650.476189 206.7078 
L 652.30603 185.446009 
L 654.135872 282.808952 
L 655.965713 210.433923 
L 657.795555 292.955602 
L 659.625396 420.344267 
L 661.455238 385.192995 
L 663.285079 382.898449 
L 665.114921 328.771029 
L 666.944762 268.010665 
L 668.774604 321.171133 
L 670.604445 270.593418 
L 672.434287 282.091185 
L 674.264128 253.474012 
L 676.09397 276.525219 
L 677.923811 379.019263 
L 679.753653 370.185561 
L 681.583494 408.67217 
L 683.413336 475.74119 
L 685.243177 474.082246 
L 687.073019 502.340921 
L 688.90286 506.564865 
L 690.732702 511.855911 
L 692.562543 562.269133 
L 694.392385 548.456004 
L 696.222226 536.17537 
L 698.052068 564.605091 
L 699.881909 504.179526 
L 701.711751 484.337084 
L 703.541592 440.804616 
L 705.371434 509.135499 
L 707.201275 552.015189 
L 709.031117 416.217079 
L 710.860958 454.789699 
L 712.6908 430.630486 
L 714.520641 386.290228 
L 716.350483 410.232022 
L 718.180324 515.182495 
L 720.010166 554.728195 
L 721.840007 615.014041 
L 723.669849 610.546709 
L 725.49969 548.690844 
L 727.329532 666.513847 
L 729.159373 662.21544 
L 730.989215 643.895512 
L 732.819056 666.452534 
L 734.648898 618.013301 
L 736.478739 611.827863 
L 738.308581 599.457509 
L 740.138422 535.340279 
L 741.968264 547.267044 
L 745.627947 616.757319 
L 747.457788 641.235006 
L 749.28763 675.768709 
L 751.117471 676.748322 
L 752.947313 684.007251 
L 754.777154 707.009641 
L 758.436837 674.321475 
L 760.266679 605.380339 
L 762.09652 571.200319 
L 763.926362 585.554288 
L 765.756203 579.356979 
L 767.586045 473.032086 
L 769.415886 315.043842 
L 771.245728 364.235019 
L 773.075569 270.79204 
L 774.905411 263.645476 
L 776.735252 193.279948 
L 778.565094 182.35318 
L 782.224777 168.596068 
L 784.054618 164.90803 
L 785.88446 162.523571 
L 787.714301 161.530898 
L 789.544143 160.828849 
L 791.373984 162.783967 
L 793.203826 166.364119 
L 795.033667 168.416846 
L 796.863509 168.744732 
L 798.69335 173.277053 
L 800.523192 221.529416 
L 802.353033 195.544157 
L 804.182875 190.0179 
L 806.012716 186.051274 
L 807.842558 191.127746 
L 809.672399 239.843636 
L 811.502241 217.424734 
L 813.332082 204.745097 
L 815.161924 190.55617 
L 816.991765 182.790435 
L 818.821607 183.857743 
L 820.651448 187.025481 
L 822.48129 194.172485 
L 824.311131 197.177435 
L 826.140973 249.242923 
L 827.970814 316.471242 
L 829.800656 279.381779 
L 831.630497 218.706272 
L 833.460339 276.827275 
L 835.29018 325.152927 
L 837.120022 242.221995 
L 838.949863 314.575919 
L 840.779705 238.687679 
L 842.609546 235.400679 
L 844.439388 351.157807 
L 846.269229 342.724318 
L 848.099071 355.464685 
L 849.928912 372.060274 
L 851.758754 383.188633 
L 853.588595 410.323749 
L 855.418437 274.53729 
L 857.248278 423.68194 
L 859.07812 459.34065 
L 860.907961 486.838661 
L 862.737803 510.32685 
L 864.567644 502.977293 
L 866.397486 483.495219 
L 868.227327 522.864967 
L 870.057169 508.923851 
L 871.88701 489.626302 
L 873.716852 548.53634 
L 875.546693 488.474082 
L 877.376535 477.763001 
L 879.206376 529.013362 
L 881.036218 471.144457 
L 882.866059 426.333913 
L 884.695901 453.853331 
L 886.525742 451.364037 
L 888.355584 400.757331 
L 890.185425 445.134466 
L 892.015267 493.819359 
L 893.845108 439.322861 
L 895.67495 531.798282 
L 897.504791 589.133066 
L 899.334633 567.069462 
L 901.164474 509.674621 
L 902.994316 503.811711 
L 904.824157 574.2832 
L 906.653999 550.279687 
L 908.48384 573.19575 
L 910.313682 598.591764 
L 912.143523 565.303953 
L 913.973365 586.940373 
L 915.803206 580.042402 
L 917.633048 572.254862 
L 919.462889 558.042056 
L 921.292731 585.625309 
L 923.122572 641.165648 
L 924.952414 668.003379 
L 926.782255 661.842295 
L 928.612097 658.43016 
L 930.441938 662.535344 
L 932.27178 640.642312 
L 934.101621 654.502116 
L 935.931463 661.608876 
L 937.761304 656.053793 
L 939.591146 564.384444 
L 941.420987 523.231984 
L 943.250829 350.276344 
L 945.08067 560.544967 
L 946.910512 410.494672 
L 948.740353 364.996368 
L 950.570195 322.642611 
L 952.400036 203.960609 
L 954.229878 185.792417 
L 956.059719 175.295924 
L 957.889561 186.652528 
L 959.719402 217.4299 
L 961.549244 198.986252 
L 963.379085 176.362462 
L 965.208927 171.516215 
L 967.038768 167.120908 
L 968.86861 169.525043 
L 970.698451 171.183382 
L 972.528293 171.216852 
L 974.358134 210.650133 
L 976.187976 193.656309 
L 978.017817 274.612859 
L 979.847659 288.107843 
L 981.6775 260.517088 
L 985.337183 407.376287 
L 987.167025 316.12107 
L 988.996866 267.55978 
L 990.826708 234.842898 
L 992.656549 217.676996 
L 994.486391 195.415772 
L 996.316232 196.366127 
L 998.146074 240.21428 
L 999.975915 291.536528 
L 1001.805757 242.971254 
L 1003.635598 208.835985 
L 1005.46544 245.786704 
L 1007.295281 269.865373 
L 1009.125123 207.370388 
L 1010.954964 203.419481 
L 1012.784806 220.172199 
L 1014.614647 265.466604 
L 1016.444489 328.021715 
L 1018.27433 406.834417 
L 1020.104172 300.472839 
L 1021.934013 249.278811 
L 1023.763855 351.933831 
L 1025.593696 347.145071 
L 1027.423538 325.331297 
L 1029.253379 317.233773 
L 1031.083221 330.633513 
L 1032.913062 352.113135 
L 1034.742904 378.463214 
L 1036.572745 387.228711 
L 1038.402587 276.334951 
L 1040.232428 380.256532 
L 1042.06227 447.357456 
L 1043.892111 329.895961 
L 1045.721953 384.149155 
L 1047.551794 348.713441 
L 1049.381636 338.513673 
L 1051.211478 329.982934 
L 1053.041319 300.05427 
L 1054.871161 244.245483 
L 1056.701002 312.701371 
L 1058.530844 345.260382 
L 1060.360685 356.488574 
L 1062.190527 249.973386 
L 1064.020368 335.960626 
L 1065.85021 328.103109 
L 1067.680051 246.172242 
L 1069.509893 238.245367 
L 1071.339734 266.612723 
L 1073.169576 227.732661 
L 1074.999417 197.998415 
L 1076.829259 180.349202 
L 1078.6591 167.391802 
L 1080.488942 174.204654 
L 1082.318783 168.515332 
L 1084.148625 173.008962 
L 1085.978466 228.962648 
L 1087.808308 228.220424 
L 1089.638149 299.874635 
L 1093.297832 208.518815 
L 1095.127674 278.131264 
L 1096.957515 260.740827 
L 1098.787357 267.176989 
L 1100.617198 307.225731 
L 1102.44704 297.643374 
L 1104.276881 426.677436 
L 1106.106723 541.546341 
L 1107.936564 548.5449 
L 1109.766406 565.247578 
L 1111.596247 564.671084 
L 1113.426089 497.167336 
L 1115.25593 578.573233 
L 1117.085772 574.291829 
L 1118.915613 530.704952 
L 1120.745455 454.970597 
L 1120.745455 454.970597 
" clip-path="url(#pf3d64efc7b)" style="fill: none; stroke: #8fbc8f; stroke-linecap: square"/>
   </g>
   <g id="patch_3">
    <path d="M 162 768.96 
L 162 103.68 
" style="fill: none; stroke: #000000; stroke-width: 0.8; stroke-linejoin: miter; stroke-linecap: square"/>
   </g>
   <g id="patch_4">
    <path d="M 1166.4 768.96 
L 1166.4 103.68 
" style="fill: none; stroke: #000000; stroke-width: 0.8; stroke-linejoin: miter; stroke-linecap: square"/>
   </g>
   <g id="patch_5">
    <path d="M 162 768.96 
L 1166.4 768.96 
" style="fill: none; stroke: #000000; stroke-width: 0.8; stroke-linejoin: miter; stroke-linecap: square"/>
   </g>
   <g id="patch_6">
    <path d="M 162 103.68 
L 1166.4 103.68 
" style="fill: none; stroke: #000000; stroke-width: 0.8; stroke-linejoin: miter; stroke-linecap: square"/>
   </g>
   <g id="text_15">
    <!-- Function 1 -->
    <g transform="translate(632.957813 97.68) scale(0.12 -0.12)">
     <defs>
      <path id="DejaVuSans-46" d="M 628 4666 
L 3309 4666 
L 3309 4134 
L 1259 4134 
L 1259 2759 
L 3109 2759 
L 3109 2228 
L 1259 2228 
L 1259 0 
L 628 0 
L 628 4666 
z
" transform="scale(0.015625)"/>
      <path id="DejaVuSans-75" d="M 544 1381 
L 544 3500 
L 1119 3500 
L 1119 1403 
Q 1119 906 1312 657 
Q 1506 409 1894 409 
Q 2359 409 2629 706 
Q 2900 1003 2900 1516 
L 2900 3500 
L 3475 3500 
L 3475 0 
L 2900 0 
L 2900 538 
Q 2691 219 2414 64 
Q 2138 -91 1772 -91 
Q 1169 -91 856 284 
Q 544 659 544 1381 
z
M 1991 3584 
L 1991 3584 
z
" transform="scale(0.015625)"/>
      <path id="DejaVuSans-6e" d="M 3513 2113 
L 3513 0 
L 2938 0 
L 2938 2094 
Q 2938 2591 2744 2837 
Q 2550 3084 2163 3084 
Q 1697 3084 1428 2787 
Q 1159 2491 1159 1978 
L 1159 0 
L 581 0 
L 581 3500 
L 1159 3500 
L 1159 2956 
Q 1366 3272 1645 3428 
Q 1925 3584 2291 3584 
Q 2894 3584 3203 3211 
Q 3513 2838 3513 2113 
z
" transform="scale(0.015625)"/>
      <path id="DejaVuSans-63" d="M 3122 3366 
L 3122 2828 
Q 2878 2963 2633 3030 
Q 2388 3097 2138 3097 
Q 1578 3097 1268 2742 
Q 959 2388 959 1747 
Q 959 1106 1268 751 
Q 1578 397 2138 397 
Q 2388 397 2633 464 
Q 2878 531 3122 666 
L 3122 134 
Q 2881 22 2623 -34 
Q 2366 -91 2075 -91 
Q 1284 -91 818 406 
Q 353 903 353 1747 
Q 353 2603 823 3093 
Q 1294 3584 2113 3584 
Q 2378 3584 2631 3529 
Q 2884 3475 3122 3366 
z
" transform="scale(0.015625)"/>
      <path id="DejaVuSans-74" d="M 1172 4494 
L 1172 3500 
L 2356 3500 
L 2356 3053 
L 1172 3053 
L 1172 1153 
Q 1172 725 1289 603 
Q 1406 481 1766 481 
L 2356 481 
L 2356 0 
L 1766 0 
Q 1100 0 847 248 
Q 594 497 594 1153 
L 594 3053 
L 172 3053 
L 172 3500 
L 594 3500 
L 594 4494 
L 1172 4494 
z
" transform="scale(0.015625)"/>
      <path id="DejaVuSans-69" d="M 603 3500 
L 1178 3500 
L 1178 0 
L 603 0 
L 603 3500 
z
M 603 4863 
L 1178 4863 
L 1178 4134 
L 603 4134 
L 603 4863 
z
" transform="scale(0.015625)"/>
      <path id="DejaVuSans-6f" d="M 1959 3097 
Q 1497 3097 1228 2736 
Q 959 2375 959 1747 
Q 959 1119 1226 758 
Q 1494 397 1959 397 
Q 2419 397 2687 759 
Q 2956 1122 2956 1747 
Q 2956 2369 2687 2733 
Q 2419 3097 1959 3097 
z
M 1959 3584 
Q 2709 3584 3137 3096 
Q 3566 2609 3566 1747 
Q 3566 888 3137 398 
Q 2709 -91 1959 -91 
Q 1206 -91 779 398 
Q 353 888 353 1747 
Q 353 2609 779 3096 
Q 1206 3584 1959 3584 
z
" transform="scale(0.015625)"/>
      <path id="DejaVuSans-20" transform="scale(0.015625)"/>
     </defs>
     <use xlink:href="#DejaVuSans-46"/>
     <use xlink:href="#DejaVuSans-75" x="52.019531"/>
     <use xlink:href="#DejaVuSans-6e" x="115.398438"/>
     <use xlink:href="#DejaVuSans-63" x="178.777344"/>
     <use xlink:href="#DejaVuSans-74" x="233.757812"/>
     <use xlink:href="#DejaVuSans-69" x="272.966797"/>
     <use xlink:href="#DejaVuSans-6f" x="300.75"/>
     <use xlink:href="#DejaVuSans-6e" x="361.931641"/>
     <use xlink:href="#DejaVuSans-20" x="425.310547"/>
     <use xlink:href="#DejaVuSans-31" x="457.097656"/>
    </g>
   </g>
   <g id="legend_1">
    <g id="patch_7">
     <path d="M 1011.90625 763.96 
L 1159.4 763.96 
Q 1161.4 763.96 1161.4 761.96 
L 1161.4 704.2475 
Q 1161.4 702.2475 1159.4 702.2475 
L 1011.90625 702.2475 
Q 1009.90625 702.2475 1009.90625 704.2475 
L 1009.90625 761.96 
Q 1009.90625 763.96 1011.90625 763.96 
z
" style="fill: #ffffff; opacity: 0.8; stroke: #cccccc; stroke-linejoin: miter"/>
    </g>
    <g id="line2d_19">
     <path d="M 1013.90625 710.345937 
L 1023.90625 710.345937 
L 1033.90625 710.345937 
" style="fill: none; stroke: #4169e1; stroke-linecap: square"/>
    </g>
    <g id="text_16">
     <!-- Truth -->
     <g transform="translate(1041.90625 713.845937) scale(0.1 -0.1)">
      <defs>
       <path id="DejaVuSans-54" d="M -19 4666 
L 3928 4666 
L 3928 4134 
L 2272 4134 
L 2272 0 
L 1638 0 
L 1638 4134 
L -19 4134 
L -19 4666 
z
" transform="scale(0.015625)"/>
       <path id="DejaVuSans-72" d="M 2631 2963 
Q 2534 3019 2420 3045 
Q 2306 3072 2169 3072 
Q 1681 3072 1420 2755 
Q 1159 2438 1159 1844 
L 1159 0 
L 581 0 
L 581 3500 
L 1159 3500 
L 1159 2956 
Q 1341 3275 1631 3429 
Q 1922 3584 2338 3584 
Q 2397 3584 2469 3576 
Q 2541 3569 2628 3553 
L 2631 2963 
z
" transform="scale(0.015625)"/>
       <path id="DejaVuSans-68" d="M 3513 2113 
L 3513 0 
L 2938 0 
L 2938 2094 
Q 2938 2591 2744 2837 
Q 2550 3084 2163 3084 
Q 1697 3084 1428 2787 
Q 1159 2491 1159 1978 
L 1159 0 
L 581 0 
L 581 4863 
L 1159 4863 
L 1159 2956 
Q 1366 3272 1645 3428 
Q 1925 3584 2291 3584 
Q 2894 3584 3203 3211 
Q 3513 2838 3513 2113 
z
" transform="scale(0.015625)"/>
      </defs>
      <use xlink:href="#DejaVuSans-54"/>
      <use xlink:href="#DejaVuSans-72" x="46.333984"/>
      <use xlink:href="#DejaVuSans-75" x="87.447266"/>
      <use xlink:href="#DejaVuSans-74" x="150.826172"/>
      <use xlink:href="#DejaVuSans-68" x="190.035156"/>
     </g>
    </g>
    <g id="line2d_20">
     <path d="M 1013.90625 725.024063 
L 1023.90625 725.024063 
L 1033.90625 725.024063 
" style="fill: none; stroke: #ff6347; stroke-linecap: square"/>
    </g>
    <g id="text_17">
     <!-- Gossip predictions -->
     <g transform="translate(1041.90625 728.524063) scale(0.1 -0.1)">
      <defs>
       <path id="DejaVuSans-47" d="M 3809 666 
L 3809 1919 
L 2778 1919 
L 2778 2438 
L 4434 2438 
L 4434 434 
Q 4069 175 3628 42 
Q 3188 -91 2688 -91 
Q 1594 -91 976 548 
Q 359 1188 359 2328 
Q 359 3472 976 4111 
Q 1594 4750 2688 4750 
Q 3144 4750 3555 4637 
Q 3966 4525 4313 4306 
L 4313 3634 
Q 3963 3931 3569 4081 
Q 3175 4231 2741 4231 
Q 1884 4231 1454 3753 
Q 1025 3275 1025 2328 
Q 1025 1384 1454 906 
Q 1884 428 2741 428 
Q 3075 428 3337 486 
Q 3600 544 3809 666 
z
" transform="scale(0.015625)"/>
       <path id="DejaVuSans-73" d="M 2834 3397 
L 2834 2853 
Q 2591 2978 2328 3040 
Q 2066 3103 1784 3103 
Q 1356 3103 1142 2972 
Q 928 2841 928 2578 
Q 928 2378 1081 2264 
Q 1234 2150 1697 2047 
L 1894 2003 
Q 2506 1872 2764 1633 
Q 3022 1394 3022 966 
Q 3022 478 2636 193 
Q 2250 -91 1575 -91 
Q 1294 -91 989 -36 
Q 684 19 347 128 
L 347 722 
Q 666 556 975 473 
Q 1284 391 1588 391 
Q 1994 391 2212 530 
Q 2431 669 2431 922 
Q 2431 1156 2273 1281 
Q 2116 1406 1581 1522 
L 1381 1569 
Q 847 1681 609 1914 
Q 372 2147 372 2553 
Q 372 3047 722 3315 
Q 1072 3584 1716 3584 
Q 2034 3584 2315 3537 
Q 2597 3491 2834 3397 
z
" transform="scale(0.015625)"/>
       <path id="DejaVuSans-70" d="M 1159 525 
L 1159 -1331 
L 581 -1331 
L 581 3500 
L 1159 3500 
L 1159 2969 
Q 1341 3281 1617 3432 
Q 1894 3584 2278 3584 
Q 2916 3584 3314 3078 
Q 3713 2572 3713 1747 
Q 3713 922 3314 415 
Q 2916 -91 2278 -91 
Q 1894 -91 1617 61 
Q 1341 213 1159 525 
z
M 3116 1747 
Q 3116 2381 2855 2742 
Q 2594 3103 2138 3103 
Q 1681 3103 1420 2742 
Q 1159 2381 1159 1747 
Q 1159 1113 1420 752 
Q 1681 391 2138 391 
Q 2594 391 2855 752 
Q 3116 1113 3116 1747 
z
" transform="scale(0.015625)"/>
       <path id="DejaVuSans-65" d="M 3597 1894 
L 3597 1613 
L 953 1613 
Q 991 1019 1311 708 
Q 1631 397 2203 397 
Q 2534 397 2845 478 
Q 3156 559 3463 722 
L 3463 178 
Q 3153 47 2828 -22 
Q 2503 -91 2169 -91 
Q 1331 -91 842 396 
Q 353 884 353 1716 
Q 353 2575 817 3079 
Q 1281 3584 2069 3584 
Q 2775 3584 3186 3129 
Q 3597 2675 3597 1894 
z
M 3022 2063 
Q 3016 2534 2758 2815 
Q 2500 3097 2075 3097 
Q 1594 3097 1305 2825 
Q 1016 2553 972 2059 
L 3022 2063 
z
" transform="scale(0.015625)"/>
       <path id="DejaVuSans-64" d="M 2906 2969 
L 2906 4863 
L 3481 4863 
L 3481 0 
L 2906 0 
L 2906 525 
Q 2725 213 2448 61 
Q 2172 -91 1784 -91 
Q 1150 -91 751 415 
Q 353 922 353 1747 
Q 353 2572 751 3078 
Q 1150 3584 1784 3584 
Q 2172 3584 2448 3432 
Q 2725 3281 2906 2969 
z
M 947 1747 
Q 947 1113 1208 752 
Q 1469 391 1925 391 
Q 2381 391 2643 752 
Q 2906 1113 2906 1747 
Q 2906 2381 2643 2742 
Q 2381 3103 1925 3103 
Q 1469 3103 1208 2742 
Q 947 2381 947 1747 
z
" transform="scale(0.015625)"/>
      </defs>
      <use xlink:href="#DejaVuSans-47"/>
      <use xlink:href="#DejaVuSans-6f" x="77.490234"/>
      <use xlink:href="#DejaVuSans-73" x="138.671875"/>
      <use xlink:href="#DejaVuSans-73" x="190.771484"/>
      <use xlink:href="#DejaVuSans-69" x="242.871094"/>
      <use xlink:href="#DejaVuSans-70" x="270.654297"/>
      <use xlink:href="#DejaVuSans-20" x="334.130859"/>
      <use xlink:href="#DejaVuSans-70" x="365.917969"/>
      <use xlink:href="#DejaVuSans-72" x="429.394531"/>
      <use xlink:href="#DejaVuSans-65" x="468.257812"/>
      <use xlink:href="#DejaVuSans-64" x="529.78125"/>
      <use xlink:href="#DejaVuSans-69" x="593.257812"/>
      <use xlink:href="#DejaVuSans-63" x="621.041016"/>
      <use xlink:href="#DejaVuSans-74" x="676.021484"/>
      <use xlink:href="#DejaVuSans-69" x="715.230469"/>
      <use xlink:href="#DejaVuSans-6f" x="743.013672"/>
      <use xlink:href="#DejaVuSans-6e" x="804.195312"/>
      <use xlink:href="#DejaVuSans-73" x="867.574219"/>
     </g>
    </g>
    <g id="line2d_21">
     <path d="M 1013.90625 739.702188 
L 1023.90625 739.702188 
L 1033.90625 739.702188 
" style="fill: none; stroke: #da70d6; stroke-linecap: square"/>
    </g>
    <g id="text_18">
     <!-- Centralized predictions -->
     <g transform="translate(1041.90625 743.202188) scale(0.1 -0.1)">
      <defs>
       <path id="DejaVuSans-43" d="M 4122 4306 
L 4122 3641 
Q 3803 3938 3442 4084 
Q 3081 4231 2675 4231 
Q 1875 4231 1450 3742 
Q 1025 3253 1025 2328 
Q 1025 1406 1450 917 
Q 1875 428 2675 428 
Q 3081 428 3442 575 
Q 3803 722 4122 1019 
L 4122 359 
Q 3791 134 3420 21 
Q 3050 -91 2638 -91 
Q 1578 -91 968 557 
Q 359 1206 359 2328 
Q 359 3453 968 4101 
Q 1578 4750 2638 4750 
Q 3056 4750 3426 4639 
Q 3797 4528 4122 4306 
z
" transform="scale(0.015625)"/>
       <path id="DejaVuSans-61" d="M 2194 1759 
Q 1497 1759 1228 1600 
Q 959 1441 959 1056 
Q 959 750 1161 570 
Q 1363 391 1709 391 
Q 2188 391 2477 730 
Q 2766 1069 2766 1631 
L 2766 1759 
L 2194 1759 
z
M 3341 1997 
L 3341 0 
L 2766 0 
L 2766 531 
Q 2569 213 2275 61 
Q 1981 -91 1556 -91 
Q 1019 -91 701 211 
Q 384 513 384 1019 
Q 384 1609 779 1909 
Q 1175 2209 1959 2209 
L 2766 2209 
L 2766 2266 
Q 2766 2663 2505 2880 
Q 2244 3097 1772 3097 
Q 1472 3097 1187 3025 
Q 903 2953 641 2809 
L 641 3341 
Q 956 3463 1253 3523 
Q 1550 3584 1831 3584 
Q 2591 3584 2966 3190 
Q 3341 2797 3341 1997 
z
" transform="scale(0.015625)"/>
       <path id="DejaVuSans-6c" d="M 603 4863 
L 1178 4863 
L 1178 0 
L 603 0 
L 603 4863 
z
" transform="scale(0.015625)"/>
       <path id="DejaVuSans-7a" d="M 353 3500 
L 3084 3500 
L 3084 2975 
L 922 459 
L 3084 459 
L 3084 0 
L 275 0 
L 275 525 
L 2438 3041 
L 353 3041 
L 353 3500 
z
" transform="scale(0.015625)"/>
      </defs>
      <use xlink:href="#DejaVuSans-43"/>
      <use xlink:href="#DejaVuSans-65" x="69.824219"/>
      <use xlink:href="#DejaVuSans-6e" x="131.347656"/>
      <use xlink:href="#DejaVuSans-74" x="194.726562"/>
      <use xlink:href="#DejaVuSans-72" x="233.935547"/>
      <use xlink:href="#DejaVuSans-61" x="275.048828"/>
      <use xlink:href="#DejaVuSans-6c" x="336.328125"/>
      <use xlink:href="#DejaVuSans-69" x="364.111328"/>
      <use xlink:href="#DejaVuSans-7a" x="391.894531"/>
      <use xlink:href="#DejaVuSans-65" x="444.384766"/>
      <use xlink:href="#DejaVuSans-64" x="505.908203"/>
      <use xlink:href="#DejaVuSans-20" x="569.384766"/>
      <use xlink:href="#DejaVuSans-70" x="601.171875"/>
      <use xlink:href="#DejaVuSans-72" x="664.648438"/>
      <use xlink:href="#DejaVuSans-65" x="703.511719"/>
      <use xlink:href="#DejaVuSans-64" x="765.035156"/>
      <use xlink:href="#DejaVuSans-69" x="828.511719"/>
      <use xlink:href="#DejaVuSans-63" x="856.294922"/>
      <use xlink:href="#DejaVuSans-74" x="911.275391"/>
      <use xlink:href="#DejaVuSans-69" x="950.484375"/>
      <use xlink:href="#DejaVuSans-6f" x="978.267578"/>
      <use xlink:href="#DejaVuSans-6e" x="1039.449219"/>
      <use xlink:href="#DejaVuSans-73" x="1102.828125"/>
     </g>
    </g>
    <g id="line2d_22">
     <path d="M 1013.90625 754.380312 
L 1023.90625 754.380312 
L 1033.90625 754.380312 
" style="fill: none; stroke: #8fbc8f; stroke-linecap: square"/>
    </g>
    <g id="text_19">
     <!-- Single predictions -->
     <g transform="translate(1041.90625 757.880312) scale(0.1 -0.1)">
      <defs>
       <path id="DejaVuSans-53" d="M 3425 4513 
L 3425 3897 
Q 3066 4069 2747 4153 
Q 2428 4238 2131 4238 
Q 1616 4238 1336 4038 
Q 1056 3838 1056 3469 
Q 1056 3159 1242 3001 
Q 1428 2844 1947 2747 
L 2328 2669 
Q 3034 2534 3370 2195 
Q 3706 1856 3706 1288 
Q 3706 609 3251 259 
Q 2797 -91 1919 -91 
Q 1588 -91 1214 -16 
Q 841 59 441 206 
L 441 856 
Q 825 641 1194 531 
Q 1563 422 1919 422 
Q 2459 422 2753 634 
Q 3047 847 3047 1241 
Q 3047 1584 2836 1778 
Q 2625 1972 2144 2069 
L 1759 2144 
Q 1053 2284 737 2584 
Q 422 2884 422 3419 
Q 422 4038 858 4394 
Q 1294 4750 2059 4750 
Q 2388 4750 2728 4690 
Q 3069 4631 3425 4513 
z
" transform="scale(0.015625)"/>
       <path id="DejaVuSans-67" d="M 2906 1791 
Q 2906 2416 2648 2759 
Q 2391 3103 1925 3103 
Q 1463 3103 1205 2759 
Q 947 2416 947 1791 
Q 947 1169 1205 825 
Q 1463 481 1925 481 
Q 2391 481 2648 825 
Q 2906 1169 2906 1791 
z
M 3481 434 
Q 3481 -459 3084 -895 
Q 2688 -1331 1869 -1331 
Q 1566 -1331 1297 -1286 
Q 1028 -1241 775 -1147 
L 775 -588 
Q 1028 -725 1275 -790 
Q 1522 -856 1778 -856 
Q 2344 -856 2625 -561 
Q 2906 -266 2906 331 
L 2906 616 
Q 2728 306 2450 153 
Q 2172 0 1784 0 
Q 1141 0 747 490 
Q 353 981 353 1791 
Q 353 2603 747 3093 
Q 1141 3584 1784 3584 
Q 2172 3584 2450 3431 
Q 2728 3278 2906 2969 
L 2906 3500 
L 3481 3500 
L 3481 434 
z
" transform="scale(0.015625)"/>
      </defs>
      <use xlink:href="#DejaVuSans-53"/>
      <use xlink:href="#DejaVuSans-69" x="63.476562"/>
      <use xlink:href="#DejaVuSans-6e" x="91.259766"/>
      <use xlink:href="#DejaVuSans-67" x="154.638672"/>
      <use xlink:href="#DejaVuSans-6c" x="218.115234"/>
      <use xlink:href="#DejaVuSans-65" x="245.898438"/>
      <use xlink:href="#DejaVuSans-20" x="307.421875"/>
      <use xlink:href="#DejaVuSans-70" x="339.208984"/>
      <use xlink:href="#DejaVuSans-72" x="402.685547"/>
      <use xlink:href="#DejaVuSans-65" x="441.548828"/>
      <use xlink:href="#DejaVuSans-64" x="503.072266"/>
      <use xlink:href="#DejaVuSans-69" x="566.548828"/>
      <use xlink:href="#DejaVuSans-63" x="594.332031"/>
      <use xlink:href="#DejaVuSans-74" x="649.3125"/>
      <use xlink:href="#DejaVuSans-69" x="688.521484"/>
      <use xlink:href="#DejaVuSans-6f" x="716.304688"/>
      <use xlink:href="#DejaVuSans-6e" x="777.486328"/>
      <use xlink:href="#DejaVuSans-73" x="840.865234"/>
     </g>
    </g>
   </g>
  </g>
 </g>
 <defs>
  <clipPath id="pf3d64efc7b">
   <rect x="162" y="103.68" width="1004.4" height="665.28"/>
  </clipPath>
 </defs>
</svg>
