<?xml version="1.0" encoding="utf-8" standalone="no"?>
<!DOCTYPE svg PUBLIC "-//W3C//DTD SVG 1.1//EN"
  "http://www.w3.org/Graphics/SVG/1.1/DTD/svg11.dtd">
<svg xmlns:xlink="http://www.w3.org/1999/xlink" width="1296pt" height="864pt" viewBox="0 0 1296 864" xmlns="http://www.w3.org/2000/svg" version="1.1">
 <metadata>
  <rdf:RDF xmlns:dc="http://purl.org/dc/elements/1.1/" xmlns:cc="http://creativecommons.org/ns#" xmlns:rdf="http://www.w3.org/1999/02/22-rdf-syntax-ns#">
   <cc:Work>
    <dc:type rdf:resource="http://purl.org/dc/dcmitype/StillImage"/>
    <dc:date>2023-12-18T18:16:36.527350</dc:date>
    <dc:format>image/svg+xml</dc:format>
    <dc:creator>
     <cc:Agent>
      <dc:title>Matplotlib v3.8.0, https://matplotlib.org/</dc:title>
     </cc:Agent>
    </dc:creator>
   </cc:Work>
  </rdf:RDF>
 </metadata>
 <defs>
  <style type="text/css">*{stroke-linejoin: round; stroke-linecap: butt}</style>
 </defs>
 <g id="figure_1">
  <g id="patch_1">
   <path d="M 0 864 
L 1296 864 
L 1296 0 
L 0 0 
z
" style="fill: #ffffff"/>
  </g>
  <g id="axes_1">
   <g id="patch_2">
    <path d="M 162 406.08 
L 618.545455 406.08 
L 618.545455 103.68 
L 162 103.68 
z
" style="fill: #ffffff"/>
   </g>
   <g id="matplotlib.axis_1">
    <g id="xtick_1">
     <g id="line2d_1">
      <defs>
       <path id="mca71be3dd9" d="M 0 0 
L 0 3.5 
" style="stroke: #000000; stroke-width: 0.8"/>
      </defs>
      <g>
       <use xlink:href="#mca71be3dd9" x="182.752066" y="406.08" style="stroke: #000000; stroke-width: 0.8"/>
      </g>
     </g>
     <g id="text_1">
      <!-- 0 -->
      <g transform="translate(179.570816 420.678437) scale(0.1 -0.1)">
       <defs>
        <path id="DejaVuSans-30" d="M 2034 4250 
Q 1547 4250 1301 3770 
Q 1056 3291 1056 2328 
Q 1056 1369 1301 889 
Q 1547 409 2034 409 
Q 2525 409 2770 889 
Q 3016 1369 3016 2328 
Q 3016 3291 2770 3770 
Q 2525 4250 2034 4250 
z
M 2034 4750 
Q 2819 4750 3233 4129 
Q 3647 3509 3647 2328 
Q 3647 1150 3233 529 
Q 2819 -91 2034 -91 
Q 1250 -91 836 529 
Q 422 1150 422 2328 
Q 422 3509 836 4129 
Q 1250 4750 2034 4750 
z
" transform="scale(0.015625)"/>
       </defs>
       <use xlink:href="#DejaVuSans-30"/>
      </g>
     </g>
    </g>
    <g id="xtick_2">
     <g id="line2d_2">
      <g>
       <use xlink:href="#mca71be3dd9" x="266.598798" y="406.08" style="stroke: #000000; stroke-width: 0.8"/>
      </g>
     </g>
     <g id="text_2">
      <!-- 20 -->
      <g transform="translate(260.236298 420.678437) scale(0.1 -0.1)">
       <defs>
        <path id="DejaVuSans-32" d="M 1228 531 
L 3431 531 
L 3431 0 
L 469 0 
L 469 531 
Q 828 903 1448 1529 
Q 2069 2156 2228 2338 
Q 2531 2678 2651 2914 
Q 2772 3150 2772 3378 
Q 2772 3750 2511 3984 
Q 2250 4219 1831 4219 
Q 1534 4219 1204 4116 
Q 875 4013 500 3803 
L 500 4441 
Q 881 4594 1212 4672 
Q 1544 4750 1819 4750 
Q 2544 4750 2975 4387 
Q 3406 4025 3406 3419 
Q 3406 3131 3298 2873 
Q 3191 2616 2906 2266 
Q 2828 2175 2409 1742 
Q 1991 1309 1228 531 
z
" transform="scale(0.015625)"/>
       </defs>
       <use xlink:href="#DejaVuSans-32"/>
       <use xlink:href="#DejaVuSans-30" x="63.623047"/>
      </g>
     </g>
    </g>
    <g id="xtick_3">
     <g id="line2d_3">
      <g>
       <use xlink:href="#mca71be3dd9" x="350.44553" y="406.08" style="stroke: #000000; stroke-width: 0.8"/>
      </g>
     </g>
     <g id="text_3">
      <!-- 40 -->
      <g transform="translate(344.08303 420.678437) scale(0.1 -0.1)">
       <defs>
        <path id="DejaVuSans-34" d="M 2419 4116 
L 825 1625 
L 2419 1625 
L 2419 4116 
z
M 2253 4666 
L 3047 4666 
L 3047 1625 
L 3713 1625 
L 3713 1100 
L 3047 1100 
L 3047 0 
L 2419 0 
L 2419 1100 
L 313 1100 
L 313 1709 
L 2253 4666 
z
" transform="scale(0.015625)"/>
       </defs>
       <use xlink:href="#DejaVuSans-34"/>
       <use xlink:href="#DejaVuSans-30" x="63.623047"/>
      </g>
     </g>
    </g>
    <g id="xtick_4">
     <g id="line2d_4">
      <g>
       <use xlink:href="#mca71be3dd9" x="434.292261" y="406.08" style="stroke: #000000; stroke-width: 0.8"/>
      </g>
     </g>
     <g id="text_4">
      <!-- 60 -->
      <g transform="translate(427.929761 420.678437) scale(0.1 -0.1)">
       <defs>
        <path id="DejaVuSans-36" d="M 2113 2584 
Q 1688 2584 1439 2293 
Q 1191 2003 1191 1497 
Q 1191 994 1439 701 
Q 1688 409 2113 409 
Q 2538 409 2786 701 
Q 3034 994 3034 1497 
Q 3034 2003 2786 2293 
Q 2538 2584 2113 2584 
z
M 3366 4563 
L 3366 3988 
Q 3128 4100 2886 4159 
Q 2644 4219 2406 4219 
Q 1781 4219 1451 3797 
Q 1122 3375 1075 2522 
Q 1259 2794 1537 2939 
Q 1816 3084 2150 3084 
Q 2853 3084 3261 2657 
Q 3669 2231 3669 1497 
Q 3669 778 3244 343 
Q 2819 -91 2113 -91 
Q 1303 -91 875 529 
Q 447 1150 447 2328 
Q 447 3434 972 4092 
Q 1497 4750 2381 4750 
Q 2619 4750 2861 4703 
Q 3103 4656 3366 4563 
z
" transform="scale(0.015625)"/>
       </defs>
       <use xlink:href="#DejaVuSans-36"/>
       <use xlink:href="#DejaVuSans-30" x="63.623047"/>
      </g>
     </g>
    </g>
    <g id="xtick_5">
     <g id="line2d_5">
      <g>
       <use xlink:href="#mca71be3dd9" x="518.138993" y="406.08" style="stroke: #000000; stroke-width: 0.8"/>
      </g>
     </g>
     <g id="text_5">
      <!-- 80 -->
      <g transform="translate(511.776493 420.678437) scale(0.1 -0.1)">
       <defs>
        <path id="DejaVuSans-38" d="M 2034 2216 
Q 1584 2216 1326 1975 
Q 1069 1734 1069 1313 
Q 1069 891 1326 650 
Q 1584 409 2034 409 
Q 2484 409 2743 651 
Q 3003 894 3003 1313 
Q 3003 1734 2745 1975 
Q 2488 2216 2034 2216 
z
M 1403 2484 
Q 997 2584 770 2862 
Q 544 3141 544 3541 
Q 544 4100 942 4425 
Q 1341 4750 2034 4750 
Q 2731 4750 3128 4425 
Q 3525 4100 3525 3541 
Q 3525 3141 3298 2862 
Q 3072 2584 2669 2484 
Q 3125 2378 3379 2068 
Q 3634 1759 3634 1313 
Q 3634 634 3220 271 
Q 2806 -91 2034 -91 
Q 1263 -91 848 271 
Q 434 634 434 1313 
Q 434 1759 690 2068 
Q 947 2378 1403 2484 
z
M 1172 3481 
Q 1172 3119 1398 2916 
Q 1625 2713 2034 2713 
Q 2441 2713 2670 2916 
Q 2900 3119 2900 3481 
Q 2900 3844 2670 4047 
Q 2441 4250 2034 4250 
Q 1625 4250 1398 4047 
Q 1172 3844 1172 3481 
z
" transform="scale(0.015625)"/>
       </defs>
       <use xlink:href="#DejaVuSans-38"/>
       <use xlink:href="#DejaVuSans-30" x="63.623047"/>
      </g>
     </g>
    </g>
    <g id="xtick_6">
     <g id="line2d_6">
      <g>
       <use xlink:href="#mca71be3dd9" x="601.985725" y="406.08" style="stroke: #000000; stroke-width: 0.8"/>
      </g>
     </g>
     <g id="text_6">
      <!-- 100 -->
      <g transform="translate(592.441975 420.678437) scale(0.1 -0.1)">
       <defs>
        <path id="DejaVuSans-31" d="M 794 531 
L 1825 531 
L 1825 4091 
L 703 3866 
L 703 4441 
L 1819 4666 
L 2450 4666 
L 2450 531 
L 3481 531 
L 3481 0 
L 794 0 
L 794 531 
z
" transform="scale(0.015625)"/>
       </defs>
       <use xlink:href="#DejaVuSans-31"/>
       <use xlink:href="#DejaVuSans-30" x="63.623047"/>
       <use xlink:href="#DejaVuSans-30" x="127.246094"/>
      </g>
     </g>
    </g>
   </g>
   <g id="matplotlib.axis_2">
    <g id="ytick_1">
     <g id="line2d_7">
      <defs>
       <path id="ma5451b2eee" d="M 0 0 
L -3.5 0 
" style="stroke: #000000; stroke-width: 0.8"/>
      </defs>
      <g>
       <use xlink:href="#ma5451b2eee" x="162" y="398.261647" style="stroke: #000000; stroke-width: 0.8"/>
      </g>
     </g>
     <g id="text_7">
      <!-- 0 -->
      <g transform="translate(148.6375 402.060866) scale(0.1 -0.1)">
       <use xlink:href="#DejaVuSans-30"/>
      </g>
     </g>
    </g>
    <g id="ytick_2">
     <g id="line2d_8">
      <g>
       <use xlink:href="#ma5451b2eee" x="162" y="343.883906" style="stroke: #000000; stroke-width: 0.8"/>
      </g>
     </g>
     <g id="text_8">
      <!-- 2 -->
      <g transform="translate(148.6375 347.683124) scale(0.1 -0.1)">
       <use xlink:href="#DejaVuSans-32"/>
      </g>
     </g>
    </g>
    <g id="ytick_3">
     <g id="line2d_9">
      <g>
       <use xlink:href="#ma5451b2eee" x="162" y="289.506164" style="stroke: #000000; stroke-width: 0.8"/>
      </g>
     </g>
     <g id="text_9">
      <!-- 4 -->
      <g transform="translate(148.6375 293.305383) scale(0.1 -0.1)">
       <use xlink:href="#DejaVuSans-34"/>
      </g>
     </g>
    </g>
    <g id="ytick_4">
     <g id="line2d_10">
      <g>
       <use xlink:href="#ma5451b2eee" x="162" y="235.128423" style="stroke: #000000; stroke-width: 0.8"/>
      </g>
     </g>
     <g id="text_10">
      <!-- 6 -->
      <g transform="translate(148.6375 238.927641) scale(0.1 -0.1)">
       <use xlink:href="#DejaVuSans-36"/>
      </g>
     </g>
    </g>
    <g id="ytick_5">
     <g id="line2d_11">
      <g>
       <use xlink:href="#ma5451b2eee" x="162" y="180.750681" style="stroke: #000000; stroke-width: 0.8"/>
      </g>
     </g>
     <g id="text_11">
      <!-- 8 -->
      <g transform="translate(148.6375 184.5499) scale(0.1 -0.1)">
       <use xlink:href="#DejaVuSans-38"/>
      </g>
     </g>
    </g>
    <g id="ytick_6">
     <g id="line2d_12">
      <g>
       <use xlink:href="#ma5451b2eee" x="162" y="126.37294" style="stroke: #000000; stroke-width: 0.8"/>
      </g>
     </g>
     <g id="text_12">
      <!-- 10 -->
      <g transform="translate(142.275 130.172158) scale(0.1 -0.1)">
       <use xlink:href="#DejaVuSans-31"/>
       <use xlink:href="#DejaVuSans-30" x="63.623047"/>
      </g>
     </g>
    </g>
   </g>
   <g id="line2d_13">
    <path d="M 182.752066 117.425455 
L 186.944403 314.010157 
L 191.136739 354.582557 
L 195.329076 371.096083 
L 199.521412 385.05598 
L 203.713749 373.754165 
L 207.906086 370.319526 
L 212.098422 381.480001 
L 216.290759 387.589261 
L 220.483095 385.727301 
L 224.675432 382.174645 
L 228.867769 388.339874 
L 233.060105 389.12907 
L 237.252442 380.667717 
L 241.444778 387.298773 
L 245.637115 380.984033 
L 249.829452 387.445076 
L 254.021788 386.950416 
L 258.214125 390.536102 
L 262.406461 375.030729 
L 266.598798 387.044683 
L 270.791134 386.500952 
L 274.983471 389.927483 
L 279.175808 390.907149 
L 283.368144 390.643512 
L 287.560481 391.084667 
L 291.752817 391.172434 
L 295.945154 391.134758 
L 300.137491 374.972575 
L 304.329827 391.083693 
L 308.522164 388.210162 
L 312.7145 391.122071 
L 316.906837 387.323832 
L 321.099174 387.395868 
L 325.29151 382.91605 
L 329.483847 388.921193 
L 333.676183 378.305163 
L 337.86852 390.361547 
L 342.060856 384.15407 
L 346.253193 389.258637 
L 350.44553 388.994556 
L 354.637866 390.803007 
L 358.830203 390.705838 
L 363.022539 391.063665 
L 367.214876 391.17632 
L 371.407213 390.543168 
L 375.599549 388.518984 
L 379.791886 391.13474 
L 383.984222 390.950665 
L 388.176559 391.146681 
L 392.368896 390.848284 
L 396.561232 391.415687 
L 400.753569 391.107919 
L 404.945905 391.048366 
L 409.138242 391.114889 
L 413.330579 390.427274 
L 417.522915 391.105515 
L 421.715252 390.279142 
L 425.907588 391.167939 
L 430.099925 390.012666 
L 434.292261 391.398246 
L 438.484598 391.079927 
L 442.676935 389.993669 
L 446.869271 391.235417 
L 451.061608 389.833404 
L 455.253944 391.287787 
L 459.446281 390.046438 
L 463.638618 391.232799 
L 467.830954 391.063252 
L 472.023291 389.848872 
L 476.215627 391.063958 
L 480.407964 391.466563 
L 484.600301 390.985123 
L 488.792637 389.871041 
L 492.984974 391.280704 
L 497.17731 391.303415 
L 501.369647 389.87421 
L 505.561983 391.142577 
L 509.75432 391.155825 
L 513.946657 391.066743 
L 518.138993 391.463159 
L 522.33133 391.02602 
L 526.523666 391.419472 
L 530.716003 389.972008 
L 534.90834 391.173591 
L 539.100676 389.816206 
L 543.293013 391.204516 
L 547.485349 390.069601 
L 551.677686 391.11499 
L 555.870023 390.096396 
L 560.062359 391.107607 
L 564.254696 391.338496 
L 568.447032 389.879374 
L 572.639369 391.370801 
L 576.831705 390.958394 
L 581.024042 391.271895 
L 585.216379 391.357728 
L 589.408715 391.302622 
L 593.601052 391.472983 
L 597.793388 391.626788 
" clip-path="url(#p8c651c75f3)" style="fill: none; stroke: #4169e1; stroke-linecap: square"/>
   </g>
   <g id="line2d_14">
    <path d="M 182.752066 281.315452 
L 186.944403 336.496478 
L 191.136739 366.107654 
L 195.329076 376.778087 
L 199.521412 388.773888 
L 203.713749 379.978663 
L 207.906086 378.004689 
L 212.098422 385.965065 
L 216.290759 390.126739 
L 220.483095 389.139543 
L 224.675432 388.529302 
L 228.867769 391.164685 
L 233.060105 391.46585 
L 237.252442 385.663176 
L 241.444778 390.376713 
L 245.637115 385.549957 
L 249.829452 390.251845 
L 254.021788 389.669344 
L 258.214125 391.862434 
L 262.406461 380.874842 
L 266.598798 389.557066 
L 270.791134 389.06668 
L 274.983471 391.893956 
L 279.175808 391.998081 
L 283.368144 392.254986 
L 287.560481 392.157028 
L 291.752817 392.104522 
L 295.945154 391.892152 
L 300.137491 381.105063 
L 304.329827 391.844518 
L 308.522164 390.776434 
L 312.7145 392.298398 
L 316.906837 389.583714 
L 321.099174 390.125354 
L 325.29151 386.877453 
L 329.483847 390.970079 
L 333.676183 384.058328 
L 337.86852 391.864659 
L 342.060856 387.720614 
L 346.253193 391.199662 
L 350.44553 390.568561 
L 354.637866 392.086672 
L 358.830203 391.86352 
L 363.022539 391.866432 
L 367.214876 392.051519 
L 371.407213 391.27089 
L 375.599549 390.54812 
L 379.791886 392.146462 
L 383.984222 392.225454 
L 388.176559 392.149614 
L 392.368896 392.138117 
L 396.561232 392.284706 
L 400.753569 391.976226 
L 404.945905 392.042428 
L 409.138242 391.88704 
L 413.330579 391.915478 
L 417.522915 392.178917 
L 421.715252 391.47829 
L 425.907588 391.951205 
L 430.099925 391.734352 
L 434.292261 391.93823 
L 438.484598 391.773388 
L 442.676935 391.488117 
L 446.869271 392.170428 
L 451.061608 391.882201 
L 455.253944 392.179903 
L 459.446281 391.679836 
L 463.638618 391.664974 
L 467.830954 391.822241 
L 472.023291 391.735056 
L 476.215627 391.918672 
L 480.407964 392.053702 
L 484.600301 391.852191 
L 488.792637 391.423737 
L 492.984974 392.231262 
L 497.17731 391.897905 
L 501.369647 391.509168 
L 505.561983 392.132626 
L 509.75432 392.334545 
L 513.946657 392.011132 
L 518.138993 391.797165 
L 522.33133 391.843503 
L 526.523666 391.924335 
L 530.716003 391.674526 
L 534.90834 392.184607 
L 539.100676 391.866744 
L 543.293013 391.983526 
L 547.485349 391.684625 
L 551.677686 391.466901 
L 555.870023 391.418958 
L 560.062359 391.870389 
L 564.254696 392.185061 
L 568.447032 391.702941 
L 572.639369 392.089154 
L 576.831705 391.97107 
L 581.024042 391.730661 
L 585.216379 392.140211 
L 589.408715 391.994882 
L 593.601052 392.169519 
L 597.793388 392.191621 
" clip-path="url(#p8c651c75f3)" style="fill: none; stroke: #ff6347; stroke-linecap: square"/>
   </g>
   <g id="patch_3">
    <path d="M 162 406.08 
L 162 103.68 
" style="fill: none; stroke: #000000; stroke-width: 0.8; stroke-linejoin: miter; stroke-linecap: square"/>
   </g>
   <g id="patch_4">
    <path d="M 618.545455 406.08 
L 618.545455 103.68 
" style="fill: none; stroke: #000000; stroke-width: 0.8; stroke-linejoin: miter; stroke-linecap: square"/>
   </g>
   <g id="patch_5">
    <path d="M 162 406.08 
L 618.545455 406.08 
" style="fill: none; stroke: #000000; stroke-width: 0.8; stroke-linejoin: miter; stroke-linecap: square"/>
   </g>
   <g id="patch_6">
    <path d="M 162 103.68 
L 618.545455 103.68 
" style="fill: none; stroke: #000000; stroke-width: 0.8; stroke-linejoin: miter; stroke-linecap: square"/>
   </g>
   <g id="text_13">
    <!-- MSLE -->
    <g transform="translate(374.152415 97.68) scale(0.12 -0.12)">
     <defs>
      <path id="DejaVuSans-4d" d="M 628 4666 
L 1569 4666 
L 2759 1491 
L 3956 4666 
L 4897 4666 
L 4897 0 
L 4281 0 
L 4281 4097 
L 3078 897 
L 2444 897 
L 1241 4097 
L 1241 0 
L 628 0 
L 628 4666 
z
" transform="scale(0.015625)"/>
      <path id="DejaVuSans-53" d="M 3425 4513 
L 3425 3897 
Q 3066 4069 2747 4153 
Q 2428 4238 2131 4238 
Q 1616 4238 1336 4038 
Q 1056 3838 1056 3469 
Q 1056 3159 1242 3001 
Q 1428 2844 1947 2747 
L 2328 2669 
Q 3034 2534 3370 2195 
Q 3706 1856 3706 1288 
Q 3706 609 3251 259 
Q 2797 -91 1919 -91 
Q 1588 -91 1214 -16 
Q 841 59 441 206 
L 441 856 
Q 825 641 1194 531 
Q 1563 422 1919 422 
Q 2459 422 2753 634 
Q 3047 847 3047 1241 
Q 3047 1584 2836 1778 
Q 2625 1972 2144 2069 
L 1759 2144 
Q 1053 2284 737 2584 
Q 422 2884 422 3419 
Q 422 4038 858 4394 
Q 1294 4750 2059 4750 
Q 2388 4750 2728 4690 
Q 3069 4631 3425 4513 
z
" transform="scale(0.015625)"/>
      <path id="DejaVuSans-4c" d="M 628 4666 
L 1259 4666 
L 1259 531 
L 3531 531 
L 3531 0 
L 628 0 
L 628 4666 
z
" transform="scale(0.015625)"/>
      <path id="DejaVuSans-45" d="M 628 4666 
L 3578 4666 
L 3578 4134 
L 1259 4134 
L 1259 2753 
L 3481 2753 
L 3481 2222 
L 1259 2222 
L 1259 531 
L 3634 531 
L 3634 0 
L 628 0 
L 628 4666 
z
" transform="scale(0.015625)"/>
     </defs>
     <use xlink:href="#DejaVuSans-4d"/>
     <use xlink:href="#DejaVuSans-53" x="86.279297"/>
     <use xlink:href="#DejaVuSans-4c" x="149.755859"/>
     <use xlink:href="#DejaVuSans-45" x="205.46875"/>
    </g>
   </g>
   <g id="legend_1">
    <g id="patch_7">
     <path d="M 530.164205 141.03625 
L 611.545455 141.03625 
Q 613.545455 141.03625 613.545455 139.03625 
L 613.545455 110.68 
Q 613.545455 108.68 611.545455 108.68 
L 530.164205 108.68 
Q 528.164205 108.68 528.164205 110.68 
L 528.164205 139.03625 
Q 528.164205 141.03625 530.164205 141.03625 
z
" style="fill: #ffffff; opacity: 0.8; stroke: #cccccc; stroke-linejoin: miter"/>
    </g>
    <g id="line2d_15">
     <path d="M 532.164205 116.778437 
L 542.164205 116.778437 
L 552.164205 116.778437 
" style="fill: none; stroke: #4169e1; stroke-linecap: square"/>
    </g>
    <g id="text_14">
     <!-- Training -->
     <g transform="translate(560.164205 120.278437) scale(0.1 -0.1)">
      <defs>
       <path id="DejaVuSans-54" d="M -19 4666 
L 3928 4666 
L 3928 4134 
L 2272 4134 
L 2272 0 
L 1638 0 
L 1638 4134 
L -19 4134 
L -19 4666 
z
" transform="scale(0.015625)"/>
       <path id="DejaVuSans-72" d="M 2631 2963 
Q 2534 3019 2420 3045 
Q 2306 3072 2169 3072 
Q 1681 3072 1420 2755 
Q 1159 2438 1159 1844 
L 1159 0 
L 581 0 
L 581 3500 
L 1159 3500 
L 1159 2956 
Q 1341 3275 1631 3429 
Q 1922 3584 2338 3584 
Q 2397 3584 2469 3576 
Q 2541 3569 2628 3553 
L 2631 2963 
z
" transform="scale(0.015625)"/>
       <path id="DejaVuSans-61" d="M 2194 1759 
Q 1497 1759 1228 1600 
Q 959 1441 959 1056 
Q 959 750 1161 570 
Q 1363 391 1709 391 
Q 2188 391 2477 730 
Q 2766 1069 2766 1631 
L 2766 1759 
L 2194 1759 
z
M 3341 1997 
L 3341 0 
L 2766 0 
L 2766 531 
Q 2569 213 2275 61 
Q 1981 -91 1556 -91 
Q 1019 -91 701 211 
Q 384 513 384 1019 
Q 384 1609 779 1909 
Q 1175 2209 1959 2209 
L 2766 2209 
L 2766 2266 
Q 2766 2663 2505 2880 
Q 2244 3097 1772 3097 
Q 1472 3097 1187 3025 
Q 903 2953 641 2809 
L 641 3341 
Q 956 3463 1253 3523 
Q 1550 3584 1831 3584 
Q 2591 3584 2966 3190 
Q 3341 2797 3341 1997 
z
" transform="scale(0.015625)"/>
       <path id="DejaVuSans-69" d="M 603 3500 
L 1178 3500 
L 1178 0 
L 603 0 
L 603 3500 
z
M 603 4863 
L 1178 4863 
L 1178 4134 
L 603 4134 
L 603 4863 
z
" transform="scale(0.015625)"/>
       <path id="DejaVuSans-6e" d="M 3513 2113 
L 3513 0 
L 2938 0 
L 2938 2094 
Q 2938 2591 2744 2837 
Q 2550 3084 2163 3084 
Q 1697 3084 1428 2787 
Q 1159 2491 1159 1978 
L 1159 0 
L 581 0 
L 581 3500 
L 1159 3500 
L 1159 2956 
Q 1366 3272 1645 3428 
Q 1925 3584 2291 3584 
Q 2894 3584 3203 3211 
Q 3513 2838 3513 2113 
z
" transform="scale(0.015625)"/>
       <path id="DejaVuSans-67" d="M 2906 1791 
Q 2906 2416 2648 2759 
Q 2391 3103 1925 3103 
Q 1463 3103 1205 2759 
Q 947 2416 947 1791 
Q 947 1169 1205 825 
Q 1463 481 1925 481 
Q 2391 481 2648 825 
Q 2906 1169 2906 1791 
z
M 3481 434 
Q 3481 -459 3084 -895 
Q 2688 -1331 1869 -1331 
Q 1566 -1331 1297 -1286 
Q 1028 -1241 775 -1147 
L 775 -588 
Q 1028 -725 1275 -790 
Q 1522 -856 1778 -856 
Q 2344 -856 2625 -561 
Q 2906 -266 2906 331 
L 2906 616 
Q 2728 306 2450 153 
Q 2172 0 1784 0 
Q 1141 0 747 490 
Q 353 981 353 1791 
Q 353 2603 747 3093 
Q 1141 3584 1784 3584 
Q 2172 3584 2450 3431 
Q 2728 3278 2906 2969 
L 2906 3500 
L 3481 3500 
L 3481 434 
z
" transform="scale(0.015625)"/>
      </defs>
      <use xlink:href="#DejaVuSans-54"/>
      <use xlink:href="#DejaVuSans-72" x="46.333984"/>
      <use xlink:href="#DejaVuSans-61" x="87.447266"/>
      <use xlink:href="#DejaVuSans-69" x="148.726562"/>
      <use xlink:href="#DejaVuSans-6e" x="176.509766"/>
      <use xlink:href="#DejaVuSans-69" x="239.888672"/>
      <use xlink:href="#DejaVuSans-6e" x="267.671875"/>
      <use xlink:href="#DejaVuSans-67" x="331.050781"/>
     </g>
    </g>
    <g id="line2d_16">
     <path d="M 532.164205 131.456562 
L 542.164205 131.456562 
L 552.164205 131.456562 
" style="fill: none; stroke: #ff6347; stroke-linecap: square"/>
    </g>
    <g id="text_15">
     <!-- Validation -->
     <g transform="translate(560.164205 134.956562) scale(0.1 -0.1)">
      <defs>
       <path id="DejaVuSans-56" d="M 1831 0 
L 50 4666 
L 709 4666 
L 2188 738 
L 3669 4666 
L 4325 4666 
L 2547 0 
L 1831 0 
z
" transform="scale(0.015625)"/>
       <path id="DejaVuSans-6c" d="M 603 4863 
L 1178 4863 
L 1178 0 
L 603 0 
L 603 4863 
z
" transform="scale(0.015625)"/>
       <path id="DejaVuSans-64" d="M 2906 2969 
L 2906 4863 
L 3481 4863 
L 3481 0 
L 2906 0 
L 2906 525 
Q 2725 213 2448 61 
Q 2172 -91 1784 -91 
Q 1150 -91 751 415 
Q 353 922 353 1747 
Q 353 2572 751 3078 
Q 1150 3584 1784 3584 
Q 2172 3584 2448 3432 
Q 2725 3281 2906 2969 
z
M 947 1747 
Q 947 1113 1208 752 
Q 1469 391 1925 391 
Q 2381 391 2643 752 
Q 2906 1113 2906 1747 
Q 2906 2381 2643 2742 
Q 2381 3103 1925 3103 
Q 1469 3103 1208 2742 
Q 947 2381 947 1747 
z
" transform="scale(0.015625)"/>
       <path id="DejaVuSans-74" d="M 1172 4494 
L 1172 3500 
L 2356 3500 
L 2356 3053 
L 1172 3053 
L 1172 1153 
Q 1172 725 1289 603 
Q 1406 481 1766 481 
L 2356 481 
L 2356 0 
L 1766 0 
Q 1100 0 847 248 
Q 594 497 594 1153 
L 594 3053 
L 172 3053 
L 172 3500 
L 594 3500 
L 594 4494 
L 1172 4494 
z
" transform="scale(0.015625)"/>
       <path id="DejaVuSans-6f" d="M 1959 3097 
Q 1497 3097 1228 2736 
Q 959 2375 959 1747 
Q 959 1119 1226 758 
Q 1494 397 1959 397 
Q 2419 397 2687 759 
Q 2956 1122 2956 1747 
Q 2956 2369 2687 2733 
Q 2419 3097 1959 3097 
z
M 1959 3584 
Q 2709 3584 3137 3096 
Q 3566 2609 3566 1747 
Q 3566 888 3137 398 
Q 2709 -91 1959 -91 
Q 1206 -91 779 398 
Q 353 888 353 1747 
Q 353 2609 779 3096 
Q 1206 3584 1959 3584 
z
" transform="scale(0.015625)"/>
      </defs>
      <use xlink:href="#DejaVuSans-56"/>
      <use xlink:href="#DejaVuSans-61" x="60.658203"/>
      <use xlink:href="#DejaVuSans-6c" x="121.9375"/>
      <use xlink:href="#DejaVuSans-69" x="149.720703"/>
      <use xlink:href="#DejaVuSans-64" x="177.503906"/>
      <use xlink:href="#DejaVuSans-61" x="240.980469"/>
      <use xlink:href="#DejaVuSans-74" x="302.259766"/>
      <use xlink:href="#DejaVuSans-69" x="341.46875"/>
      <use xlink:href="#DejaVuSans-6f" x="369.251953"/>
      <use xlink:href="#DejaVuSans-6e" x="430.433594"/>
     </g>
    </g>
   </g>
  </g>
  <g id="axes_2">
   <g id="patch_8">
    <path d="M 709.854545 406.08 
L 1166.4 406.08 
L 1166.4 103.68 
L 709.854545 103.68 
z
" style="fill: #ffffff"/>
   </g>
   <g id="matplotlib.axis_3">
    <g id="xtick_7">
     <g id="line2d_17">
      <g>
       <use xlink:href="#mca71be3dd9" x="730.606612" y="406.08" style="stroke: #000000; stroke-width: 0.8"/>
      </g>
     </g>
     <g id="text_16">
      <!-- 0 -->
      <g transform="translate(727.425362 420.678437) scale(0.1 -0.1)">
       <use xlink:href="#DejaVuSans-30"/>
      </g>
     </g>
    </g>
    <g id="xtick_8">
     <g id="line2d_18">
      <g>
       <use xlink:href="#mca71be3dd9" x="814.453343" y="406.08" style="stroke: #000000; stroke-width: 0.8"/>
      </g>
     </g>
     <g id="text_17">
      <!-- 20 -->
      <g transform="translate(808.090843 420.678437) scale(0.1 -0.1)">
       <use xlink:href="#DejaVuSans-32"/>
       <use xlink:href="#DejaVuSans-30" x="63.623047"/>
      </g>
     </g>
    </g>
    <g id="xtick_9">
     <g id="line2d_19">
      <g>
       <use xlink:href="#mca71be3dd9" x="898.300075" y="406.08" style="stroke: #000000; stroke-width: 0.8"/>
      </g>
     </g>
     <g id="text_18">
      <!-- 40 -->
      <g transform="translate(891.937575 420.678437) scale(0.1 -0.1)">
       <use xlink:href="#DejaVuSans-34"/>
       <use xlink:href="#DejaVuSans-30" x="63.623047"/>
      </g>
     </g>
    </g>
    <g id="xtick_10">
     <g id="line2d_20">
      <g>
       <use xlink:href="#mca71be3dd9" x="982.146807" y="406.08" style="stroke: #000000; stroke-width: 0.8"/>
      </g>
     </g>
     <g id="text_19">
      <!-- 60 -->
      <g transform="translate(975.784307 420.678437) scale(0.1 -0.1)">
       <use xlink:href="#DejaVuSans-36"/>
       <use xlink:href="#DejaVuSans-30" x="63.623047"/>
      </g>
     </g>
    </g>
    <g id="xtick_11">
     <g id="line2d_21">
      <g>
       <use xlink:href="#mca71be3dd9" x="1065.993539" y="406.08" style="stroke: #000000; stroke-width: 0.8"/>
      </g>
     </g>
     <g id="text_20">
      <!-- 80 -->
      <g transform="translate(1059.631039 420.678437) scale(0.1 -0.1)">
       <use xlink:href="#DejaVuSans-38"/>
       <use xlink:href="#DejaVuSans-30" x="63.623047"/>
      </g>
     </g>
    </g>
    <g id="xtick_12">
     <g id="line2d_22">
      <g>
       <use xlink:href="#mca71be3dd9" x="1149.84027" y="406.08" style="stroke: #000000; stroke-width: 0.8"/>
      </g>
     </g>
     <g id="text_21">
      <!-- 100 -->
      <g transform="translate(1140.29652 420.678437) scale(0.1 -0.1)">
       <use xlink:href="#DejaVuSans-31"/>
       <use xlink:href="#DejaVuSans-30" x="63.623047"/>
       <use xlink:href="#DejaVuSans-30" x="127.246094"/>
      </g>
     </g>
    </g>
   </g>
   <g id="matplotlib.axis_4">
    <g id="ytick_7">
     <g id="line2d_23">
      <g>
       <use xlink:href="#ma5451b2eee" x="709.854545" y="348.359759" style="stroke: #000000; stroke-width: 0.8"/>
      </g>
     </g>
     <g id="text_22">
      <!-- 10000 -->
      <g transform="translate(671.042045 352.158978) scale(0.1 -0.1)">
       <use xlink:href="#DejaVuSans-31"/>
       <use xlink:href="#DejaVuSans-30" x="63.623047"/>
       <use xlink:href="#DejaVuSans-30" x="127.246094"/>
       <use xlink:href="#DejaVuSans-30" x="190.869141"/>
       <use xlink:href="#DejaVuSans-30" x="254.492188"/>
      </g>
     </g>
    </g>
    <g id="ytick_8">
     <g id="line2d_24">
      <g>
       <use xlink:href="#ma5451b2eee" x="709.854545" y="285.649187" style="stroke: #000000; stroke-width: 0.8"/>
      </g>
     </g>
     <g id="text_23">
      <!-- 20000 -->
      <g transform="translate(671.042045 289.448405) scale(0.1 -0.1)">
       <use xlink:href="#DejaVuSans-32"/>
       <use xlink:href="#DejaVuSans-30" x="63.623047"/>
       <use xlink:href="#DejaVuSans-30" x="127.246094"/>
       <use xlink:href="#DejaVuSans-30" x="190.869141"/>
       <use xlink:href="#DejaVuSans-30" x="254.492188"/>
      </g>
     </g>
    </g>
    <g id="ytick_9">
     <g id="line2d_25">
      <g>
       <use xlink:href="#ma5451b2eee" x="709.854545" y="222.938614" style="stroke: #000000; stroke-width: 0.8"/>
      </g>
     </g>
     <g id="text_24">
      <!-- 30000 -->
      <g transform="translate(671.042045 226.737833) scale(0.1 -0.1)">
       <defs>
        <path id="DejaVuSans-33" d="M 2597 2516 
Q 3050 2419 3304 2112 
Q 3559 1806 3559 1356 
Q 3559 666 3084 287 
Q 2609 -91 1734 -91 
Q 1441 -91 1130 -33 
Q 819 25 488 141 
L 488 750 
Q 750 597 1062 519 
Q 1375 441 1716 441 
Q 2309 441 2620 675 
Q 2931 909 2931 1356 
Q 2931 1769 2642 2001 
Q 2353 2234 1838 2234 
L 1294 2234 
L 1294 2753 
L 1863 2753 
Q 2328 2753 2575 2939 
Q 2822 3125 2822 3475 
Q 2822 3834 2567 4026 
Q 2313 4219 1838 4219 
Q 1578 4219 1281 4162 
Q 984 4106 628 3988 
L 628 4550 
Q 988 4650 1302 4700 
Q 1616 4750 1894 4750 
Q 2613 4750 3031 4423 
Q 3450 4097 3450 3541 
Q 3450 3153 3228 2886 
Q 3006 2619 2597 2516 
z
" transform="scale(0.015625)"/>
       </defs>
       <use xlink:href="#DejaVuSans-33"/>
       <use xlink:href="#DejaVuSans-30" x="63.623047"/>
       <use xlink:href="#DejaVuSans-30" x="127.246094"/>
       <use xlink:href="#DejaVuSans-30" x="190.869141"/>
       <use xlink:href="#DejaVuSans-30" x="254.492188"/>
      </g>
     </g>
    </g>
    <g id="ytick_10">
     <g id="line2d_26">
      <g>
       <use xlink:href="#ma5451b2eee" x="709.854545" y="160.228041" style="stroke: #000000; stroke-width: 0.8"/>
      </g>
     </g>
     <g id="text_25">
      <!-- 40000 -->
      <g transform="translate(671.042045 164.02726) scale(0.1 -0.1)">
       <use xlink:href="#DejaVuSans-34"/>
       <use xlink:href="#DejaVuSans-30" x="63.623047"/>
       <use xlink:href="#DejaVuSans-30" x="127.246094"/>
       <use xlink:href="#DejaVuSans-30" x="190.869141"/>
       <use xlink:href="#DejaVuSans-30" x="254.492188"/>
      </g>
     </g>
    </g>
   </g>
   <g id="line2d_27">
    <path d="M 730.606612 125.598112 
L 734.798948 178.796666 
L 738.991285 233.338268 
L 743.183621 287.119492 
L 747.375958 335.682021 
L 751.568295 279.959892 
L 755.760631 285.249039 
L 759.952968 315.328337 
L 764.145304 354.793441 
L 768.337641 343.622141 
L 772.529977 333.364461 
L 776.722314 365.996771 
L 780.914651 371.215356 
L 785.106987 310.697694 
L 789.299324 351.163001 
L 793.49166 311.184956 
L 797.683997 352.16152 
L 801.876334 346.974744 
L 806.06867 381.488845 
L 810.261007 284.978282 
L 814.453343 347.040136 
L 818.64568 343.052859 
L 822.838017 374.472583 
L 827.030353 386.990524 
L 831.22269 385.874753 
L 835.415026 388.61872 
L 839.607363 388.25659 
L 843.799699 388.699163 
L 847.992036 284.883603 
L 852.184373 387.712095 
L 856.376709 357.726232 
L 860.569046 387.690076 
L 864.761382 349.655014 
L 868.953719 349.84107 
L 873.146056 321.221949 
L 877.338392 362.819957 
L 881.530729 299.138941 
L 885.723065 380.16744 
L 889.915402 328.368198 
L 894.107739 365.019873 
L 898.300075 363.707486 
L 902.492412 383.435996 
L 906.684748 383.021127 
L 910.877085 388.079587 
L 915.069421 387.820713 
L 919.261758 381.885269 
L 923.454095 360.287411 
L 927.646431 387.974775 
L 931.838768 387.038788 
L 936.031104 387.002359 
L 940.223441 387.287944 
L 944.415778 388.831736 
L 948.608114 388.321732 
L 952.800451 388.699568 
L 956.992787 388.554803 
L 961.185124 379.570597 
L 965.377461 388.01181 
L 969.569797 378.491843 
L 973.762134 388.26752 
L 977.95447 376.154619 
L 982.146807 389.676978 
L 986.339144 387.328934 
L 990.53148 375.424317 
L 994.723817 388.861144 
L 998.916153 374.200575 
L 1003.10849 388.576549 
L 1007.300826 374.870663 
L 1011.493163 388.797766 
L 1015.6855 387.648019 
L 1019.877836 374.861627 
L 1024.070173 387.467977 
L 1028.262509 388.814938 
L 1032.454846 387.174389 
L 1036.647183 374.795126 
L 1040.839519 387.387975 
L 1045.031856 388.745379 
L 1049.224192 374.336998 
L 1053.416529 387.12785 
L 1057.608866 388.564977 
L 1061.801202 387.400018 
L 1065.993539 389.188486 
L 1070.185875 386.843832 
L 1074.378212 389.333586 
L 1078.570548 375.053292 
L 1082.762885 387.253728 
L 1086.955222 374.638303 
L 1091.147558 386.87665 
L 1095.339895 375.065853 
L 1099.532231 386.922422 
L 1103.724568 374.978447 
L 1107.916905 387.344424 
L 1112.109241 388.919868 
L 1116.301578 375.205837 
L 1120.493914 388.742053 
L 1124.686251 387.315573 
L 1128.878588 389.111138 
L 1133.070924 389.657548 
L 1137.263261 388.611682 
L 1141.455597 388.901155 
L 1145.647934 389.375282 
" clip-path="url(#p551539cb16)" style="fill: none; stroke: #4169e1; stroke-linecap: square"/>
   </g>
   <g id="line2d_28">
    <path d="M 730.606612 117.425455 
L 734.798948 170.032986 
L 738.991285 235.230119 
L 743.183621 295.160727 
L 747.375958 349.706395 
L 751.568295 287.710821 
L 755.760631 295.381463 
L 759.952968 326.637668 
L 764.145304 366.522909 
L 768.337641 355.448044 
L 772.529977 344.84888 
L 776.722314 376.627156 
L 780.914651 381.393656 
L 785.106987 321.212346 
L 789.299324 362.756922 
L 793.49166 321.461982 
L 797.683997 363.916084 
L 801.876334 358.256278 
L 806.06867 388.793826 
L 810.261007 293.997348 
L 814.453343 357.969591 
L 818.64568 354.816358 
L 822.838017 383.777062 
L 827.030353 391.312813 
L 831.22269 391.057232 
L 835.415026 391.945731 
L 839.607363 391.474471 
L 843.799699 391.995411 
L 847.992036 293.70289 
L 852.184373 391.80525 
L 856.376709 368.232951 
L 860.569046 391.704476 
L 864.761382 362.007362 
L 868.953719 362.242462 
L 873.146056 332.405602 
L 877.338392 374.304357 
L 881.530729 311.119343 
L 885.723065 387.618224 
L 889.915402 340.758436 
L 894.107739 374.850408 
L 898.300075 374.69011 
L 902.492412 389.900665 
L 906.684748 389.770441 
L 910.877085 392.044339 
L 915.069421 392.004476 
L 919.261758 387.908304 
L 923.454095 372.550338 
L 927.646431 391.81016 
L 931.838768 390.863375 
L 936.031104 390.824602 
L 940.223441 390.970313 
L 944.415778 391.122569 
L 948.608114 391.733335 
L 952.800451 389.226078 
L 956.992787 391.492255 
L 961.185124 387.713511 
L 965.377461 390.803478 
L 969.569797 386.905667 
L 973.762134 391.961154 
L 977.95447 384.795863 
L 982.146807 391.713366 
L 986.339144 391.712564 
L 990.53148 385.223686 
L 994.723817 391.692309 
L 998.916153 383.823531 
L 1003.10849 391.248953 
L 1007.300826 385.388353 
L 1011.493163 392.007295 
L 1015.6855 391.68001 
L 1019.877836 385.313795 
L 1024.070173 391.693948 
L 1028.262509 391.66254 
L 1032.454846 390.74066 
L 1036.647183 385.261003 
L 1040.839519 390.214677 
L 1045.031856 391.937293 
L 1049.224192 384.925571 
L 1053.416529 391.317445 
L 1057.608866 391.865795 
L 1061.801202 390.588644 
L 1065.993539 392.071917 
L 1070.185875 391.589442 
L 1074.378212 391.85097 
L 1078.570548 384.872139 
L 1082.762885 391.28459 
L 1086.955222 383.985262 
L 1091.147558 391.522199 
L 1095.339895 384.876732 
L 1099.532231 390.994226 
L 1103.724568 385.372981 
L 1107.916905 391.485512 
L 1112.109241 392.043662 
L 1116.301578 385.030615 
L 1120.493914 391.620046 
L 1124.686251 388.967671 
L 1128.878588 391.923785 
L 1133.070924 389.645272 
L 1137.263261 392.334545 
L 1141.455597 389.949924 
L 1145.647934 391.896959 
" clip-path="url(#p551539cb16)" style="fill: none; stroke: #ff6347; stroke-linecap: square"/>
   </g>
   <g id="patch_9">
    <path d="M 709.854545 406.08 
L 709.854545 103.68 
" style="fill: none; stroke: #000000; stroke-width: 0.8; stroke-linejoin: miter; stroke-linecap: square"/>
   </g>
   <g id="patch_10">
    <path d="M 1166.4 406.08 
L 1166.4 103.68 
" style="fill: none; stroke: #000000; stroke-width: 0.8; stroke-linejoin: miter; stroke-linecap: square"/>
   </g>
   <g id="patch_11">
    <path d="M 709.854545 406.08 
L 1166.4 406.08 
" style="fill: none; stroke: #000000; stroke-width: 0.8; stroke-linejoin: miter; stroke-linecap: square"/>
   </g>
   <g id="patch_12">
    <path d="M 709.854545 103.68 
L 1166.4 103.68 
" style="fill: none; stroke: #000000; stroke-width: 0.8; stroke-linejoin: miter; stroke-linecap: square"/>
   </g>
   <g id="text_26">
    <!-- LOSS -->
    <g transform="translate(922.660398 97.68) scale(0.12 -0.12)">
     <defs>
      <path id="DejaVuSans-4f" d="M 2522 4238 
Q 1834 4238 1429 3725 
Q 1025 3213 1025 2328 
Q 1025 1447 1429 934 
Q 1834 422 2522 422 
Q 3209 422 3611 934 
Q 4013 1447 4013 2328 
Q 4013 3213 3611 3725 
Q 3209 4238 2522 4238 
z
M 2522 4750 
Q 3503 4750 4090 4092 
Q 4678 3434 4678 2328 
Q 4678 1225 4090 567 
Q 3503 -91 2522 -91 
Q 1538 -91 948 565 
Q 359 1222 359 2328 
Q 359 3434 948 4092 
Q 1538 4750 2522 4750 
z
" transform="scale(0.015625)"/>
     </defs>
     <use xlink:href="#DejaVuSans-4c"/>
     <use xlink:href="#DejaVuSans-4f" x="52.087891"/>
     <use xlink:href="#DejaVuSans-53" x="130.798828"/>
     <use xlink:href="#DejaVuSans-53" x="194.275391"/>
    </g>
   </g>
   <g id="legend_2">
    <g id="patch_13">
     <path d="M 1078.01875 141.03625 
L 1159.4 141.03625 
Q 1161.4 141.03625 1161.4 139.03625 
L 1161.4 110.68 
Q 1161.4 108.68 1159.4 108.68 
L 1078.01875 108.68 
Q 1076.01875 108.68 1076.01875 110.68 
L 1076.01875 139.03625 
Q 1076.01875 141.03625 1078.01875 141.03625 
z
" style="fill: #ffffff; opacity: 0.8; stroke: #cccccc; stroke-linejoin: miter"/>
    </g>
    <g id="line2d_29">
     <path d="M 1080.01875 116.778437 
L 1090.01875 116.778437 
L 1100.01875 116.778437 
" style="fill: none; stroke: #4169e1; stroke-linecap: square"/>
    </g>
    <g id="text_27">
     <!-- Training -->
     <g transform="translate(1108.01875 120.278437) scale(0.1 -0.1)">
      <use xlink:href="#DejaVuSans-54"/>
      <use xlink:href="#DejaVuSans-72" x="46.333984"/>
      <use xlink:href="#DejaVuSans-61" x="87.447266"/>
      <use xlink:href="#DejaVuSans-69" x="148.726562"/>
      <use xlink:href="#DejaVuSans-6e" x="176.509766"/>
      <use xlink:href="#DejaVuSans-69" x="239.888672"/>
      <use xlink:href="#DejaVuSans-6e" x="267.671875"/>
      <use xlink:href="#DejaVuSans-67" x="331.050781"/>
     </g>
    </g>
    <g id="line2d_30">
     <path d="M 1080.01875 131.456562 
L 1090.01875 131.456562 
L 1100.01875 131.456562 
" style="fill: none; stroke: #ff6347; stroke-linecap: square"/>
    </g>
    <g id="text_28">
     <!-- Validation -->
     <g transform="translate(1108.01875 134.956562) scale(0.1 -0.1)">
      <use xlink:href="#DejaVuSans-56"/>
      <use xlink:href="#DejaVuSans-61" x="60.658203"/>
      <use xlink:href="#DejaVuSans-6c" x="121.9375"/>
      <use xlink:href="#DejaVuSans-69" x="149.720703"/>
      <use xlink:href="#DejaVuSans-64" x="177.503906"/>
      <use xlink:href="#DejaVuSans-61" x="240.980469"/>
      <use xlink:href="#DejaVuSans-74" x="302.259766"/>
      <use xlink:href="#DejaVuSans-69" x="341.46875"/>
      <use xlink:href="#DejaVuSans-6f" x="369.251953"/>
      <use xlink:href="#DejaVuSans-6e" x="430.433594"/>
     </g>
    </g>
   </g>
  </g>
  <g id="axes_3">
   <g id="patch_14">
    <path d="M 162 768.96 
L 618.545455 768.96 
L 618.545455 466.56 
L 162 466.56 
z
" style="fill: #ffffff"/>
   </g>
   <g id="matplotlib.axis_5">
    <g id="xtick_13">
     <g id="line2d_31">
      <g>
       <use xlink:href="#mca71be3dd9" x="182.752066" y="768.96" style="stroke: #000000; stroke-width: 0.8"/>
      </g>
     </g>
     <g id="text_29">
      <!-- 0 -->
      <g transform="translate(179.570816 783.558437) scale(0.1 -0.1)">
       <use xlink:href="#DejaVuSans-30"/>
      </g>
     </g>
    </g>
    <g id="xtick_14">
     <g id="line2d_32">
      <g>
       <use xlink:href="#mca71be3dd9" x="266.598798" y="768.96" style="stroke: #000000; stroke-width: 0.8"/>
      </g>
     </g>
     <g id="text_30">
      <!-- 20 -->
      <g transform="translate(260.236298 783.558437) scale(0.1 -0.1)">
       <use xlink:href="#DejaVuSans-32"/>
       <use xlink:href="#DejaVuSans-30" x="63.623047"/>
      </g>
     </g>
    </g>
    <g id="xtick_15">
     <g id="line2d_33">
      <g>
       <use xlink:href="#mca71be3dd9" x="350.44553" y="768.96" style="stroke: #000000; stroke-width: 0.8"/>
      </g>
     </g>
     <g id="text_31">
      <!-- 40 -->
      <g transform="translate(344.08303 783.558437) scale(0.1 -0.1)">
       <use xlink:href="#DejaVuSans-34"/>
       <use xlink:href="#DejaVuSans-30" x="63.623047"/>
      </g>
     </g>
    </g>
    <g id="xtick_16">
     <g id="line2d_34">
      <g>
       <use xlink:href="#mca71be3dd9" x="434.292261" y="768.96" style="stroke: #000000; stroke-width: 0.8"/>
      </g>
     </g>
     <g id="text_32">
      <!-- 60 -->
      <g transform="translate(427.929761 783.558437) scale(0.1 -0.1)">
       <use xlink:href="#DejaVuSans-36"/>
       <use xlink:href="#DejaVuSans-30" x="63.623047"/>
      </g>
     </g>
    </g>
    <g id="xtick_17">
     <g id="line2d_35">
      <g>
       <use xlink:href="#mca71be3dd9" x="518.138993" y="768.96" style="stroke: #000000; stroke-width: 0.8"/>
      </g>
     </g>
     <g id="text_33">
      <!-- 80 -->
      <g transform="translate(511.776493 783.558437) scale(0.1 -0.1)">
       <use xlink:href="#DejaVuSans-38"/>
       <use xlink:href="#DejaVuSans-30" x="63.623047"/>
      </g>
     </g>
    </g>
    <g id="xtick_18">
     <g id="line2d_36">
      <g>
       <use xlink:href="#mca71be3dd9" x="601.985725" y="768.96" style="stroke: #000000; stroke-width: 0.8"/>
      </g>
     </g>
     <g id="text_34">
      <!-- 100 -->
      <g transform="translate(592.441975 783.558437) scale(0.1 -0.1)">
       <use xlink:href="#DejaVuSans-31"/>
       <use xlink:href="#DejaVuSans-30" x="63.623047"/>
       <use xlink:href="#DejaVuSans-30" x="127.246094"/>
      </g>
     </g>
    </g>
   </g>
   <g id="matplotlib.axis_6">
    <g id="ytick_11">
     <g id="line2d_37">
      <g>
       <use xlink:href="#ma5451b2eee" x="162" y="761.115729" style="stroke: #000000; stroke-width: 0.8"/>
      </g>
     </g>
     <g id="text_35">
      <!-- 40 -->
      <g transform="translate(142.275 764.914948) scale(0.1 -0.1)">
       <use xlink:href="#DejaVuSans-34"/>
       <use xlink:href="#DejaVuSans-30" x="63.623047"/>
      </g>
     </g>
    </g>
    <g id="ytick_12">
     <g id="line2d_38">
      <g>
       <use xlink:href="#ma5451b2eee" x="162" y="724.493494" style="stroke: #000000; stroke-width: 0.8"/>
      </g>
     </g>
     <g id="text_36">
      <!-- 60 -->
      <g transform="translate(142.275 728.292713) scale(0.1 -0.1)">
       <use xlink:href="#DejaVuSans-36"/>
       <use xlink:href="#DejaVuSans-30" x="63.623047"/>
      </g>
     </g>
    </g>
    <g id="ytick_13">
     <g id="line2d_39">
      <g>
       <use xlink:href="#ma5451b2eee" x="162" y="687.871259" style="stroke: #000000; stroke-width: 0.8"/>
      </g>
     </g>
     <g id="text_37">
      <!-- 80 -->
      <g transform="translate(142.275 691.670478) scale(0.1 -0.1)">
       <use xlink:href="#DejaVuSans-38"/>
       <use xlink:href="#DejaVuSans-30" x="63.623047"/>
      </g>
     </g>
    </g>
    <g id="ytick_14">
     <g id="line2d_40">
      <g>
       <use xlink:href="#ma5451b2eee" x="162" y="651.249024" style="stroke: #000000; stroke-width: 0.8"/>
      </g>
     </g>
     <g id="text_38">
      <!-- 100 -->
      <g transform="translate(135.9125 655.048243) scale(0.1 -0.1)">
       <use xlink:href="#DejaVuSans-31"/>
       <use xlink:href="#DejaVuSans-30" x="63.623047"/>
       <use xlink:href="#DejaVuSans-30" x="127.246094"/>
      </g>
     </g>
    </g>
    <g id="ytick_15">
     <g id="line2d_41">
      <g>
       <use xlink:href="#ma5451b2eee" x="162" y="614.626789" style="stroke: #000000; stroke-width: 0.8"/>
      </g>
     </g>
     <g id="text_39">
      <!-- 120 -->
      <g transform="translate(135.9125 618.426008) scale(0.1 -0.1)">
       <use xlink:href="#DejaVuSans-31"/>
       <use xlink:href="#DejaVuSans-32" x="63.623047"/>
       <use xlink:href="#DejaVuSans-30" x="127.246094"/>
      </g>
     </g>
    </g>
    <g id="ytick_16">
     <g id="line2d_42">
      <g>
       <use xlink:href="#ma5451b2eee" x="162" y="578.004554" style="stroke: #000000; stroke-width: 0.8"/>
      </g>
     </g>
     <g id="text_40">
      <!-- 140 -->
      <g transform="translate(135.9125 581.803773) scale(0.1 -0.1)">
       <use xlink:href="#DejaVuSans-31"/>
       <use xlink:href="#DejaVuSans-34" x="63.623047"/>
       <use xlink:href="#DejaVuSans-30" x="127.246094"/>
      </g>
     </g>
    </g>
    <g id="ytick_17">
     <g id="line2d_43">
      <g>
       <use xlink:href="#ma5451b2eee" x="162" y="541.382319" style="stroke: #000000; stroke-width: 0.8"/>
      </g>
     </g>
     <g id="text_41">
      <!-- 160 -->
      <g transform="translate(135.9125 545.181538) scale(0.1 -0.1)">
       <use xlink:href="#DejaVuSans-31"/>
       <use xlink:href="#DejaVuSans-36" x="63.623047"/>
       <use xlink:href="#DejaVuSans-30" x="127.246094"/>
      </g>
     </g>
    </g>
    <g id="ytick_18">
     <g id="line2d_44">
      <g>
       <use xlink:href="#ma5451b2eee" x="162" y="504.760084" style="stroke: #000000; stroke-width: 0.8"/>
      </g>
     </g>
     <g id="text_42">
      <!-- 180 -->
      <g transform="translate(135.9125 508.559303) scale(0.1 -0.1)">
       <use xlink:href="#DejaVuSans-31"/>
       <use xlink:href="#DejaVuSans-38" x="63.623047"/>
       <use xlink:href="#DejaVuSans-30" x="127.246094"/>
      </g>
     </g>
    </g>
    <g id="ytick_19">
     <g id="line2d_45">
      <g>
       <use xlink:href="#ma5451b2eee" x="162" y="468.137849" style="stroke: #000000; stroke-width: 0.8"/>
      </g>
     </g>
     <g id="text_43">
      <!-- 200 -->
      <g transform="translate(135.9125 471.937068) scale(0.1 -0.1)">
       <use xlink:href="#DejaVuSans-32"/>
       <use xlink:href="#DejaVuSans-30" x="63.623047"/>
       <use xlink:href="#DejaVuSans-30" x="127.246094"/>
      </g>
     </g>
    </g>
   </g>
   <g id="line2d_46">
    <path d="M 182.752066 493.610185 
L 186.944403 534.08897 
L 191.136739 576.363661 
L 195.329076 619.048157 
L 199.521412 673.811505 
L 203.713749 619.526695 
L 207.906086 618.742208 
L 212.098422 653.104667 
L 216.290759 694.560687 
L 220.483095 682.038991 
L 224.675432 670.113895 
L 228.867769 708.60654 
L 233.060105 716.159988 
L 237.252442 647.861903 
L 241.444778 691.171107 
L 245.637115 648.816995 
L 249.829452 692.063654 
L 254.021788 686.249785 
L 258.214125 732.877244 
L 262.406461 624.021882 
L 266.598798 686.358921 
L 270.791134 681.876936 
L 274.983471 721.662062 
L 279.175808 743.953003 
L 283.368144 742.078115 
L 287.560481 749.652958 
L 291.752817 748.338928 
L 295.945154 749.487641 
L 300.137491 624.015847 
L 304.329827 747.153146 
L 308.522164 698.449285 
L 312.7145 747.601934 
L 316.906837 689.142721 
L 321.099174 689.142847 
L 325.29151 659.013702 
L 329.483847 705.352724 
L 333.676183 637.177773 
L 337.86852 730.379652 
L 342.060856 666.350862 
L 346.253193 707.999364 
L 350.44553 706.651107 
L 354.637866 737.040155 
L 358.830203 736.504178 
L 363.022539 747.239237 
L 367.214876 746.979069 
L 371.407213 733.804095 
L 375.599549 702.033917 
L 379.791886 748.330539 
L 383.984222 744.82919 
L 388.176559 744.86464 
L 392.368896 745.786531 
L 396.561232 749.93717 
L 400.753569 748.551905 
L 404.945905 749.320361 
L 409.138242 748.403143 
L 413.330579 729.526613 
L 417.522915 747.287365 
L 421.715252 727.273075 
L 425.907588 748.556844 
L 430.099925 724.093364 
L 434.292261 751.475318 
L 438.484598 745.401462 
L 442.676935 723.24314 
L 446.869271 749.669129 
L 451.061608 721.131226 
L 455.253944 748.78567 
L 459.446281 721.774201 
L 463.638618 749.548656 
L 467.830954 746.081213 
L 472.023291 721.933853 
L 476.215627 745.43133 
L 480.407964 748.695401 
L 484.600301 745.731076 
L 488.792637 721.513802 
L 492.984974 745.370874 
L 497.17731 749.284576 
L 501.369647 721.438495 
L 505.561983 744.582538 
L 509.75432 749.404141 
L 513.946657 745.769767 
L 518.138993 750.456927 
L 522.33133 744.613992 
L 526.523666 750.179526 
L 530.716003 722.496876 
L 534.90834 745.318038 
L 539.100676 721.543803 
L 543.293013 744.340496 
L 547.485349 722.698307 
L 551.677686 744.136419 
L 555.870023 722.397024 
L 560.062359 745.172384 
L 564.254696 750.087553 
L 568.447032 722.977035 
L 572.639369 749.722991 
L 576.831705 745.627312 
L 581.024042 750.188816 
L 585.216379 751.380571 
L 589.408715 748.783672 
L 593.601052 750.369997 
L 597.793388 750.856344 
" clip-path="url(#pff47c609de)" style="fill: none; stroke: #4169e1; stroke-linecap: square"/>
   </g>
   <g id="line2d_47">
    <path d="M 182.752066 480.305455 
L 186.944403 519.068103 
L 191.136739 569.54804 
L 195.329076 620.264297 
L 199.521412 680.709761 
L 203.713749 617.000255 
L 207.906086 622.700112 
L 212.098422 655.446057 
L 216.290759 701.671375 
L 220.483095 686.610959 
L 224.675432 675.025802 
L 228.867769 717.156823 
L 233.060105 725.624087 
L 237.252442 649.984085 
L 241.444778 697.827175 
L 245.637115 650.168828 
L 249.829452 698.526876 
L 254.021788 691.916869 
L 258.214125 741.456759 
L 262.406461 622.791227 
L 266.598798 691.187145 
L 270.791134 686.118045 
L 274.983471 731.531641 
L 279.175808 748.913484 
L 283.368144 749.116374 
L 287.560481 752.638308 
L 291.752817 750.079897 
L 295.945154 752.326073 
L 300.137491 622.752766 
L 304.329827 751.494206 
L 308.522164 706.06145 
L 312.7145 752.38574 
L 316.906837 695.452382 
L 321.099174 696.860599 
L 325.29151 661.574817 
L 329.483847 714.167338 
L 333.676183 639.834612 
L 337.86852 739.028907 
L 342.060856 670.636802 
L 346.253193 716.213215 
L 350.44553 714.09507 
L 354.637866 744.654625 
L 358.830203 744.194954 
L 363.022539 752.020585 
L 367.214876 751.264499 
L 371.407213 738.857688 
L 375.599549 710.822016 
L 379.791886 753.213932 
L 383.984222 749.047089 
L 388.176559 747.198835 
L 392.368896 748.79751 
L 396.561232 749.78291 
L 400.753569 751.950726 
L 404.945905 743.512918 
L 409.138242 751.151389 
L 413.330579 739.079682 
L 417.522915 747.542274 
L 421.715252 736.345707 
L 425.907588 752.988152 
L 430.099925 733.219676 
L 434.292261 752.278595 
L 438.484598 750.022696 
L 442.676935 733.083718 
L 446.869271 751.32351 
L 451.061608 731.945482 
L 455.253944 748.727959 
L 459.446281 733.526016 
L 463.638618 752.725399 
L 467.830954 752.561814 
L 472.023291 733.234855 
L 476.215627 750.843009 
L 480.407964 753.942615 
L 484.600301 747.857646 
L 488.792637 733.144439 
L 492.984974 748.150525 
L 497.17731 752.165226 
L 501.369647 732.060192 
L 505.561983 750.867304 
L 509.75432 753.36843 
L 513.946657 747.246656 
L 518.138993 752.548067 
L 522.33133 749.978403 
L 526.523666 752.438086 
L 530.716003 732.885039 
L 534.90834 749.99785 
L 539.100676 731.658205 
L 543.293013 750.242923 
L 547.485349 732.528532 
L 551.677686 748.458276 
L 555.870023 733.203485 
L 560.062359 748.988148 
L 564.254696 752.920927 
L 568.447032 732.532506 
L 572.639369 750.947465 
L 576.831705 742.610271 
L 581.024042 752.302288 
L 585.216379 745.708941 
L 589.408715 755.214545 
L 593.601052 746.586148 
L 597.793388 752.276408 
" clip-path="url(#pff47c609de)" style="fill: none; stroke: #ff6347; stroke-linecap: square"/>
   </g>
   <g id="patch_15">
    <path d="M 162 768.96 
L 162 466.56 
" style="fill: none; stroke: #000000; stroke-width: 0.8; stroke-linejoin: miter; stroke-linecap: square"/>
   </g>
   <g id="patch_16">
    <path d="M 618.545455 768.96 
L 618.545455 466.56 
" style="fill: none; stroke: #000000; stroke-width: 0.8; stroke-linejoin: miter; stroke-linecap: square"/>
   </g>
   <g id="patch_17">
    <path d="M 162 768.96 
L 618.545455 768.96 
" style="fill: none; stroke: #000000; stroke-width: 0.8; stroke-linejoin: miter; stroke-linecap: square"/>
   </g>
   <g id="patch_18">
    <path d="M 162 466.56 
L 618.545455 466.56 
" style="fill: none; stroke: #000000; stroke-width: 0.8; stroke-linejoin: miter; stroke-linecap: square"/>
   </g>
   <g id="text_44">
    <!-- MAE -->
    <g transform="translate(377.200227 460.56) scale(0.12 -0.12)">
     <defs>
      <path id="DejaVuSans-41" d="M 2188 4044 
L 1331 1722 
L 3047 1722 
L 2188 4044 
z
M 1831 4666 
L 2547 4666 
L 4325 0 
L 3669 0 
L 3244 1197 
L 1141 1197 
L 716 0 
L 50 0 
L 1831 4666 
z
" transform="scale(0.015625)"/>
     </defs>
     <use xlink:href="#DejaVuSans-4d"/>
     <use xlink:href="#DejaVuSans-41" x="86.279297"/>
     <use xlink:href="#DejaVuSans-45" x="154.6875"/>
    </g>
   </g>
   <g id="legend_3">
    <g id="patch_19">
     <path d="M 530.164205 503.91625 
L 611.545455 503.91625 
Q 613.545455 503.91625 613.545455 501.91625 
L 613.545455 473.56 
Q 613.545455 471.56 611.545455 471.56 
L 530.164205 471.56 
Q 528.164205 471.56 528.164205 473.56 
L 528.164205 501.91625 
Q 528.164205 503.91625 530.164205 503.91625 
z
" style="fill: #ffffff; opacity: 0.8; stroke: #cccccc; stroke-linejoin: miter"/>
    </g>
    <g id="line2d_48">
     <path d="M 532.164205 479.658437 
L 542.164205 479.658437 
L 552.164205 479.658437 
" style="fill: none; stroke: #4169e1; stroke-linecap: square"/>
    </g>
    <g id="text_45">
     <!-- Training -->
     <g transform="translate(560.164205 483.158437) scale(0.1 -0.1)">
      <use xlink:href="#DejaVuSans-54"/>
      <use xlink:href="#DejaVuSans-72" x="46.333984"/>
      <use xlink:href="#DejaVuSans-61" x="87.447266"/>
      <use xlink:href="#DejaVuSans-69" x="148.726562"/>
      <use xlink:href="#DejaVuSans-6e" x="176.509766"/>
      <use xlink:href="#DejaVuSans-69" x="239.888672"/>
      <use xlink:href="#DejaVuSans-6e" x="267.671875"/>
      <use xlink:href="#DejaVuSans-67" x="331.050781"/>
     </g>
    </g>
    <g id="line2d_49">
     <path d="M 532.164205 494.336563 
L 542.164205 494.336563 
L 552.164205 494.336563 
" style="fill: none; stroke: #ff6347; stroke-linecap: square"/>
    </g>
    <g id="text_46">
     <!-- Validation -->
     <g transform="translate(560.164205 497.836563) scale(0.1 -0.1)">
      <use xlink:href="#DejaVuSans-56"/>
      <use xlink:href="#DejaVuSans-61" x="60.658203"/>
      <use xlink:href="#DejaVuSans-6c" x="121.9375"/>
      <use xlink:href="#DejaVuSans-69" x="149.720703"/>
      <use xlink:href="#DejaVuSans-64" x="177.503906"/>
      <use xlink:href="#DejaVuSans-61" x="240.980469"/>
      <use xlink:href="#DejaVuSans-74" x="302.259766"/>
      <use xlink:href="#DejaVuSans-69" x="341.46875"/>
      <use xlink:href="#DejaVuSans-6f" x="369.251953"/>
      <use xlink:href="#DejaVuSans-6e" x="430.433594"/>
     </g>
    </g>
   </g>
  </g>
  <g id="axes_4">
   <g id="patch_20">
    <path d="M 709.854545 768.96 
L 1166.4 768.96 
L 1166.4 466.56 
L 709.854545 466.56 
z
" style="fill: #ffffff"/>
   </g>
   <g id="matplotlib.axis_7">
    <g id="xtick_19">
     <g id="line2d_50">
      <g>
       <use xlink:href="#mca71be3dd9" x="730.606612" y="768.96" style="stroke: #000000; stroke-width: 0.8"/>
      </g>
     </g>
     <g id="text_47">
      <!-- 0 -->
      <g transform="translate(727.425362 783.558437) scale(0.1 -0.1)">
       <use xlink:href="#DejaVuSans-30"/>
      </g>
     </g>
    </g>
    <g id="xtick_20">
     <g id="line2d_51">
      <g>
       <use xlink:href="#mca71be3dd9" x="814.453343" y="768.96" style="stroke: #000000; stroke-width: 0.8"/>
      </g>
     </g>
     <g id="text_48">
      <!-- 20 -->
      <g transform="translate(808.090843 783.558437) scale(0.1 -0.1)">
       <use xlink:href="#DejaVuSans-32"/>
       <use xlink:href="#DejaVuSans-30" x="63.623047"/>
      </g>
     </g>
    </g>
    <g id="xtick_21">
     <g id="line2d_52">
      <g>
       <use xlink:href="#mca71be3dd9" x="898.300075" y="768.96" style="stroke: #000000; stroke-width: 0.8"/>
      </g>
     </g>
     <g id="text_49">
      <!-- 40 -->
      <g transform="translate(891.937575 783.558437) scale(0.1 -0.1)">
       <use xlink:href="#DejaVuSans-34"/>
       <use xlink:href="#DejaVuSans-30" x="63.623047"/>
      </g>
     </g>
    </g>
    <g id="xtick_22">
     <g id="line2d_53">
      <g>
       <use xlink:href="#mca71be3dd9" x="982.146807" y="768.96" style="stroke: #000000; stroke-width: 0.8"/>
      </g>
     </g>
     <g id="text_50">
      <!-- 60 -->
      <g transform="translate(975.784307 783.558437) scale(0.1 -0.1)">
       <use xlink:href="#DejaVuSans-36"/>
       <use xlink:href="#DejaVuSans-30" x="63.623047"/>
      </g>
     </g>
    </g>
    <g id="xtick_23">
     <g id="line2d_54">
      <g>
       <use xlink:href="#mca71be3dd9" x="1065.993539" y="768.96" style="stroke: #000000; stroke-width: 0.8"/>
      </g>
     </g>
     <g id="text_51">
      <!-- 80 -->
      <g transform="translate(1059.631039 783.558437) scale(0.1 -0.1)">
       <use xlink:href="#DejaVuSans-38"/>
       <use xlink:href="#DejaVuSans-30" x="63.623047"/>
      </g>
     </g>
    </g>
    <g id="xtick_24">
     <g id="line2d_55">
      <g>
       <use xlink:href="#mca71be3dd9" x="1149.84027" y="768.96" style="stroke: #000000; stroke-width: 0.8"/>
      </g>
     </g>
     <g id="text_52">
      <!-- 100 -->
      <g transform="translate(1140.29652 783.558437) scale(0.1 -0.1)">
       <use xlink:href="#DejaVuSans-31"/>
       <use xlink:href="#DejaVuSans-30" x="63.623047"/>
       <use xlink:href="#DejaVuSans-30" x="127.246094"/>
      </g>
     </g>
    </g>
   </g>
   <g id="matplotlib.axis_8">
    <g id="ytick_20">
     <g id="line2d_56">
      <g>
       <use xlink:href="#ma5451b2eee" x="709.854545" y="746.136867" style="stroke: #000000; stroke-width: 0.8"/>
      </g>
     </g>
     <g id="text_53">
      <!-- 60 -->
      <g transform="translate(690.129545 749.936085) scale(0.1 -0.1)">
       <use xlink:href="#DejaVuSans-36"/>
       <use xlink:href="#DejaVuSans-30" x="63.623047"/>
      </g>
     </g>
    </g>
    <g id="ytick_21">
     <g id="line2d_57">
      <g>
       <use xlink:href="#ma5451b2eee" x="709.854545" y="712.141301" style="stroke: #000000; stroke-width: 0.8"/>
      </g>
     </g>
     <g id="text_54">
      <!-- 80 -->
      <g transform="translate(690.129545 715.94052) scale(0.1 -0.1)">
       <use xlink:href="#DejaVuSans-38"/>
       <use xlink:href="#DejaVuSans-30" x="63.623047"/>
      </g>
     </g>
    </g>
    <g id="ytick_22">
     <g id="line2d_58">
      <g>
       <use xlink:href="#ma5451b2eee" x="709.854545" y="678.145735" style="stroke: #000000; stroke-width: 0.8"/>
      </g>
     </g>
     <g id="text_55">
      <!-- 100 -->
      <g transform="translate(683.767045 681.944954) scale(0.1 -0.1)">
       <use xlink:href="#DejaVuSans-31"/>
       <use xlink:href="#DejaVuSans-30" x="63.623047"/>
       <use xlink:href="#DejaVuSans-30" x="127.246094"/>
      </g>
     </g>
    </g>
    <g id="ytick_23">
     <g id="line2d_59">
      <g>
       <use xlink:href="#ma5451b2eee" x="709.854545" y="644.150169" style="stroke: #000000; stroke-width: 0.8"/>
      </g>
     </g>
     <g id="text_56">
      <!-- 120 -->
      <g transform="translate(683.767045 647.949388) scale(0.1 -0.1)">
       <use xlink:href="#DejaVuSans-31"/>
       <use xlink:href="#DejaVuSans-32" x="63.623047"/>
       <use xlink:href="#DejaVuSans-30" x="127.246094"/>
      </g>
     </g>
    </g>
    <g id="ytick_24">
     <g id="line2d_60">
      <g>
       <use xlink:href="#ma5451b2eee" x="709.854545" y="610.154604" style="stroke: #000000; stroke-width: 0.8"/>
      </g>
     </g>
     <g id="text_57">
      <!-- 140 -->
      <g transform="translate(683.767045 613.953822) scale(0.1 -0.1)">
       <use xlink:href="#DejaVuSans-31"/>
       <use xlink:href="#DejaVuSans-34" x="63.623047"/>
       <use xlink:href="#DejaVuSans-30" x="127.246094"/>
      </g>
     </g>
    </g>
    <g id="ytick_25">
     <g id="line2d_61">
      <g>
       <use xlink:href="#ma5451b2eee" x="709.854545" y="576.159038" style="stroke: #000000; stroke-width: 0.8"/>
      </g>
     </g>
     <g id="text_58">
      <!-- 160 -->
      <g transform="translate(683.767045 579.958256) scale(0.1 -0.1)">
       <use xlink:href="#DejaVuSans-31"/>
       <use xlink:href="#DejaVuSans-36" x="63.623047"/>
       <use xlink:href="#DejaVuSans-30" x="127.246094"/>
      </g>
     </g>
    </g>
    <g id="ytick_26">
     <g id="line2d_62">
      <g>
       <use xlink:href="#ma5451b2eee" x="709.854545" y="542.163472" style="stroke: #000000; stroke-width: 0.8"/>
      </g>
     </g>
     <g id="text_59">
      <!-- 180 -->
      <g transform="translate(683.767045 545.962691) scale(0.1 -0.1)">
       <use xlink:href="#DejaVuSans-31"/>
       <use xlink:href="#DejaVuSans-38" x="63.623047"/>
       <use xlink:href="#DejaVuSans-30" x="127.246094"/>
      </g>
     </g>
    </g>
    <g id="ytick_27">
     <g id="line2d_63">
      <g>
       <use xlink:href="#ma5451b2eee" x="709.854545" y="508.167906" style="stroke: #000000; stroke-width: 0.8"/>
      </g>
     </g>
     <g id="text_60">
      <!-- 200 -->
      <g transform="translate(683.767045 511.967125) scale(0.1 -0.1)">
       <use xlink:href="#DejaVuSans-32"/>
       <use xlink:href="#DejaVuSans-30" x="63.623047"/>
       <use xlink:href="#DejaVuSans-30" x="127.246094"/>
      </g>
     </g>
    </g>
    <g id="ytick_28">
     <g id="line2d_64">
      <g>
       <use xlink:href="#ma5451b2eee" x="709.854545" y="474.17234" style="stroke: #000000; stroke-width: 0.8"/>
      </g>
     </g>
     <g id="text_61">
      <!-- 220 -->
      <g transform="translate(683.767045 477.971559) scale(0.1 -0.1)">
       <use xlink:href="#DejaVuSans-32"/>
       <use xlink:href="#DejaVuSans-32" x="63.623047"/>
       <use xlink:href="#DejaVuSans-30" x="127.246094"/>
      </g>
     </g>
    </g>
   </g>
   <g id="line2d_65">
    <path d="M 730.606612 485.460086 
L 734.798948 520.992419 
L 738.991285 561.966294 
L 743.183621 609.151767 
L 747.375958 661.754466 
L 751.568295 602.346973 
L 755.760631 607.355452 
L 759.952968 638.097536 
L 764.145304 687.100928 
L 768.337641 671.841932 
L 772.529977 658.911508 
L 776.722314 704.017309 
L 780.914651 712.616122 
L 785.106987 633.078462 
L 789.299324 681.988275 
L 793.49166 633.601071 
L 797.683997 683.378643 
L 801.876334 676.278938 
L 806.06867 731.380288 
L 810.261007 607.096528 
L 814.453343 676.366617 
L 818.64568 671.099563 
L 822.838017 718.271432 
L 827.030353 742.794455 
L 831.22269 740.381804 
L 835.415026 746.417779 
L 839.607363 745.600836 
L 843.799699 746.600146 
L 847.992036 607.006061 
L 852.184373 744.384593 
L 856.376709 691.352799 
L 860.569046 744.335709 
L 864.761382 679.910303 
L 868.953719 680.165285 
L 873.146056 644.664504 
L 877.338392 699.025417 
L 881.530729 621.033641 
L 885.723065 728.801312 
L 889.915402 652.923366 
L 894.107739 702.464047 
L 898.300075 700.403063 
L 902.492412 735.28789 
L 906.684748 734.444057 
L 910.877085 745.20389 
L 915.069421 744.626075 
L 919.261758 732.165167 
L 923.454095 695.162555 
L 927.646431 744.969553 
L 931.838768 742.900069 
L 936.031104 742.820346 
L 940.223441 743.44696 
L 944.415778 746.901412 
L 948.608114 745.747313 
L 952.800451 746.601066 
L 956.992787 746.273111 
L 961.185124 727.654553 
L 965.377461 745.052297 
L 969.569797 725.609105 
L 973.762134 745.625398 
L 977.95447 721.290539 
L 982.146807 748.843664 
L 986.339144 743.537207 
L 990.53148 719.970977 
L 994.723817 746.96836 
L 998.916153 717.789778 
L 1003.10849 746.322307 
L 1007.300826 718.979578 
L 1011.493163 746.824127 
L 1015.6855 744.242402 
L 1019.877836 718.963459 
L 1024.070173 743.843913 
L 1028.262509 746.863188 
L 1032.454846 743.197353 
L 1036.647183 718.844903 
L 1040.839519 743.66733 
L 1045.031856 746.705065 
L 1049.224192 718.031117 
L 1053.416529 743.095228 
L 1057.608866 746.296124 
L 1061.801202 743.693896 
L 1065.993539 747.716591 
L 1070.185875 742.474119 
L 1074.378212 748.050045 
L 1078.570548 719.305756 
L 1082.762885 743.371686 
L 1086.955222 718.565761 
L 1091.147558 742.545697 
L 1095.339895 719.328218 
L 1099.532231 742.645618 
L 1103.724568 719.171976 
L 1107.916905 743.571333 
L 1112.109241 747.10218 
L 1116.301578 719.578842 
L 1120.493914 746.697511 
L 1124.686251 743.507782 
L 1128.878588 747.539289 
L 1133.070924 748.798593 
L 1137.263261 746.401841 
L 1141.455597 747.059521 
L 1145.647934 748.146075 
" clip-path="url(#pf334f0d7d8)" style="fill: none; stroke: #4169e1; stroke-linecap: square"/>
   </g>
   <g id="line2d_66">
    <path d="M 730.606612 480.305455 
L 734.798948 514.878238 
L 738.991285 563.49336 
L 743.183621 617.033316 
L 747.375958 679.980682 
L 751.568295 609.722475 
L 755.760631 617.253465 
L 759.952968 650.891677 
L 764.145304 704.860844 
L 768.337641 688.040156 
L 772.529977 673.452385 
L 776.722314 722.151723 
L 780.914651 731.192598 
L 785.106987 644.653637 
L 789.299324 698.928064 
L 793.49166 644.936462 
L 797.683997 700.728722 
L 801.876334 692.133606 
L 806.06867 746.815173 
L 810.261007 615.876494 
L 814.453343 691.710802 
L 818.64568 687.133712 
L 822.838017 735.986374 
L 827.030353 752.714838 
L 831.22269 752.099727 
L 835.415026 754.25545 
L 839.607363 753.105962 
L 843.799699 754.37745 
L 847.992036 615.584604 
L 852.184373 753.911324 
L 856.376709 707.637469 
L 860.569046 753.665238 
L 864.761382 697.775158 
L 868.953719 698.135819 
L 873.146056 657.747682 
L 877.338392 717.973331 
L 881.530729 633.530614 
L 885.723065 744.176355 
L 889.915402 668.138568 
L 894.107739 718.943449 
L 898.300075 718.657913 
L 902.492412 749.364055 
L 906.684748 749.060766 
L 910.877085 754.497763 
L 915.069421 754.399729 
L 919.261758 744.821222 
L 923.454095 714.904919 
L 927.646431 753.923333 
L 931.838768 751.635774 
L 936.031104 751.543245 
L 940.223441 751.89143 
L 944.415778 752.256598 
L 948.608114 753.735649 
L 952.800451 747.802876 
L 956.992787 753.149088 
L 961.185124 744.387738 
L 965.377461 751.492876 
L 969.569797 742.609028 
L 973.762134 754.293311 
L 977.95447 738.099192 
L 982.146807 753.686921 
L 986.339144 753.684963 
L 990.53148 738.998633 
L 994.723817 753.635567 
L 998.916153 736.081873 
L 1003.10849 752.560775 
L 1007.300826 739.346799 
L 1011.493163 754.406661 
L 1015.6855 753.605591 
L 1019.877836 739.18902 
L 1024.070173 753.639567 
L 1028.262509 753.563022 
L 1032.454846 751.343242 
L 1036.647183 739.077441 
L 1040.839519 750.099253 
L 1045.031856 754.234747 
L 1049.224192 738.371111 
L 1053.416529 752.726023 
L 1057.608866 754.05948 
L 1061.801202 750.982069 
L 1065.993539 754.565639 
L 1070.185875 753.38511 
L 1074.378212 754.023182 
L 1078.570548 738.259013 
L 1082.762885 752.646716 
L 1086.955222 736.414898 
L 1091.147558 753.221742 
L 1095.339895 738.268649 
L 1099.532231 751.948692 
L 1103.724568 739.314255 
L 1107.916905 753.132735 
L 1112.109241 754.496096 
L 1116.301578 738.591818 
L 1120.493914 753.459555 
L 1124.686251 747.21125 
L 1128.878588 754.201606 
L 1133.070924 748.770121 
L 1137.263261 755.214545 
L 1141.455597 749.479026 
L 1145.647934 754.135838 
" clip-path="url(#pf334f0d7d8)" style="fill: none; stroke: #ff6347; stroke-linecap: square"/>
   </g>
   <g id="patch_21">
    <path d="M 709.854545 768.96 
L 709.854545 466.56 
" style="fill: none; stroke: #000000; stroke-width: 0.8; stroke-linejoin: miter; stroke-linecap: square"/>
   </g>
   <g id="patch_22">
    <path d="M 1166.4 768.96 
L 1166.4 466.56 
" style="fill: none; stroke: #000000; stroke-width: 0.8; stroke-linejoin: miter; stroke-linecap: square"/>
   </g>
   <g id="patch_23">
    <path d="M 709.854545 768.96 
L 1166.4 768.96 
" style="fill: none; stroke: #000000; stroke-width: 0.8; stroke-linejoin: miter; stroke-linecap: square"/>
   </g>
   <g id="patch_24">
    <path d="M 709.854545 466.56 
L 1166.4 466.56 
" style="fill: none; stroke: #000000; stroke-width: 0.8; stroke-linejoin: miter; stroke-linecap: square"/>
   </g>
   <g id="text_62">
    <!-- ROOT_MEAN_SQUARED_ERROR -->
    <g transform="translate(843.656335 460.56) scale(0.12 -0.12)">
     <defs>
      <path id="DejaVuSans-52" d="M 2841 2188 
Q 3044 2119 3236 1894 
Q 3428 1669 3622 1275 
L 4263 0 
L 3584 0 
L 2988 1197 
Q 2756 1666 2539 1819 
Q 2322 1972 1947 1972 
L 1259 1972 
L 1259 0 
L 628 0 
L 628 4666 
L 2053 4666 
Q 2853 4666 3247 4331 
Q 3641 3997 3641 3322 
Q 3641 2881 3436 2590 
Q 3231 2300 2841 2188 
z
M 1259 4147 
L 1259 2491 
L 2053 2491 
Q 2509 2491 2742 2702 
Q 2975 2913 2975 3322 
Q 2975 3731 2742 3939 
Q 2509 4147 2053 4147 
L 1259 4147 
z
" transform="scale(0.015625)"/>
      <path id="DejaVuSans-5f" d="M 3263 -1063 
L 3263 -1509 
L -63 -1509 
L -63 -1063 
L 3263 -1063 
z
" transform="scale(0.015625)"/>
      <path id="DejaVuSans-4e" d="M 628 4666 
L 1478 4666 
L 3547 763 
L 3547 4666 
L 4159 4666 
L 4159 0 
L 3309 0 
L 1241 3903 
L 1241 0 
L 628 0 
L 628 4666 
z
" transform="scale(0.015625)"/>
      <path id="DejaVuSans-51" d="M 2522 4238 
Q 1834 4238 1429 3725 
Q 1025 3213 1025 2328 
Q 1025 1447 1429 934 
Q 1834 422 2522 422 
Q 3209 422 3611 934 
Q 4013 1447 4013 2328 
Q 4013 3213 3611 3725 
Q 3209 4238 2522 4238 
z
M 3406 84 
L 4238 -825 
L 3475 -825 
L 2784 -78 
Q 2681 -84 2626 -87 
Q 2572 -91 2522 -91 
Q 1538 -91 948 567 
Q 359 1225 359 2328 
Q 359 3434 948 4092 
Q 1538 4750 2522 4750 
Q 3503 4750 4090 4092 
Q 4678 3434 4678 2328 
Q 4678 1516 4351 937 
Q 4025 359 3406 84 
z
" transform="scale(0.015625)"/>
      <path id="DejaVuSans-55" d="M 556 4666 
L 1191 4666 
L 1191 1831 
Q 1191 1081 1462 751 
Q 1734 422 2344 422 
Q 2950 422 3222 751 
Q 3494 1081 3494 1831 
L 3494 4666 
L 4128 4666 
L 4128 1753 
Q 4128 841 3676 375 
Q 3225 -91 2344 -91 
Q 1459 -91 1007 375 
Q 556 841 556 1753 
L 556 4666 
z
" transform="scale(0.015625)"/>
      <path id="DejaVuSans-44" d="M 1259 4147 
L 1259 519 
L 2022 519 
Q 2988 519 3436 956 
Q 3884 1394 3884 2338 
Q 3884 3275 3436 3711 
Q 2988 4147 2022 4147 
L 1259 4147 
z
M 628 4666 
L 1925 4666 
Q 3281 4666 3915 4102 
Q 4550 3538 4550 2338 
Q 4550 1131 3912 565 
Q 3275 0 1925 0 
L 628 0 
L 628 4666 
z
" transform="scale(0.015625)"/>
     </defs>
     <use xlink:href="#DejaVuSans-52"/>
     <use xlink:href="#DejaVuSans-4f" x="69.482422"/>
     <use xlink:href="#DejaVuSans-4f" x="148.193359"/>
     <use xlink:href="#DejaVuSans-54" x="226.904297"/>
     <use xlink:href="#DejaVuSans-5f" x="287.988281"/>
     <use xlink:href="#DejaVuSans-4d" x="337.988281"/>
     <use xlink:href="#DejaVuSans-45" x="424.267578"/>
     <use xlink:href="#DejaVuSans-41" x="487.451172"/>
     <use xlink:href="#DejaVuSans-4e" x="555.859375"/>
     <use xlink:href="#DejaVuSans-5f" x="630.664062"/>
     <use xlink:href="#DejaVuSans-53" x="680.664062"/>
     <use xlink:href="#DejaVuSans-51" x="744.140625"/>
     <use xlink:href="#DejaVuSans-55" x="822.851562"/>
     <use xlink:href="#DejaVuSans-41" x="896.044922"/>
     <use xlink:href="#DejaVuSans-52" x="964.453125"/>
     <use xlink:href="#DejaVuSans-45" x="1033.935547"/>
     <use xlink:href="#DejaVuSans-44" x="1097.119141"/>
     <use xlink:href="#DejaVuSans-5f" x="1174.121094"/>
     <use xlink:href="#DejaVuSans-45" x="1224.121094"/>
     <use xlink:href="#DejaVuSans-52" x="1287.304688"/>
     <use xlink:href="#DejaVuSans-52" x="1356.787109"/>
     <use xlink:href="#DejaVuSans-4f" x="1426.269531"/>
     <use xlink:href="#DejaVuSans-52" x="1504.980469"/>
    </g>
   </g>
   <g id="legend_4">
    <g id="patch_25">
     <path d="M 1078.01875 503.91625 
L 1159.4 503.91625 
Q 1161.4 503.91625 1161.4 501.91625 
L 1161.4 473.56 
Q 1161.4 471.56 1159.4 471.56 
L 1078.01875 471.56 
Q 1076.01875 471.56 1076.01875 473.56 
L 1076.01875 501.91625 
Q 1076.01875 503.91625 1078.01875 503.91625 
z
" style="fill: #ffffff; opacity: 0.8; stroke: #cccccc; stroke-linejoin: miter"/>
    </g>
    <g id="line2d_67">
     <path d="M 1080.01875 479.658437 
L 1090.01875 479.658437 
L 1100.01875 479.658437 
" style="fill: none; stroke: #4169e1; stroke-linecap: square"/>
    </g>
    <g id="text_63">
     <!-- Training -->
     <g transform="translate(1108.01875 483.158437) scale(0.1 -0.1)">
      <use xlink:href="#DejaVuSans-54"/>
      <use xlink:href="#DejaVuSans-72" x="46.333984"/>
      <use xlink:href="#DejaVuSans-61" x="87.447266"/>
      <use xlink:href="#DejaVuSans-69" x="148.726562"/>
      <use xlink:href="#DejaVuSans-6e" x="176.509766"/>
      <use xlink:href="#DejaVuSans-69" x="239.888672"/>
      <use xlink:href="#DejaVuSans-6e" x="267.671875"/>
      <use xlink:href="#DejaVuSans-67" x="331.050781"/>
     </g>
    </g>
    <g id="line2d_68">
     <path d="M 1080.01875 494.336563 
L 1090.01875 494.336563 
L 1100.01875 494.336563 
" style="fill: none; stroke: #ff6347; stroke-linecap: square"/>
    </g>
    <g id="text_64">
     <!-- Validation -->
     <g transform="translate(1108.01875 497.836563) scale(0.1 -0.1)">
      <use xlink:href="#DejaVuSans-56"/>
      <use xlink:href="#DejaVuSans-61" x="60.658203"/>
      <use xlink:href="#DejaVuSans-6c" x="121.9375"/>
      <use xlink:href="#DejaVuSans-69" x="149.720703"/>
      <use xlink:href="#DejaVuSans-64" x="177.503906"/>
      <use xlink:href="#DejaVuSans-61" x="240.980469"/>
      <use xlink:href="#DejaVuSans-74" x="302.259766"/>
      <use xlink:href="#DejaVuSans-69" x="341.46875"/>
      <use xlink:href="#DejaVuSans-6f" x="369.251953"/>
      <use xlink:href="#DejaVuSans-6e" x="430.433594"/>
     </g>
    </g>
   </g>
  </g>
 </g>
 <defs>
  <clipPath id="p8c651c75f3">
   <rect x="162" y="103.68" width="456.545455" height="302.4"/>
  </clipPath>
  <clipPath id="p551539cb16">
   <rect x="709.854545" y="103.68" width="456.545455" height="302.4"/>
  </clipPath>
  <clipPath id="pff47c609de">
   <rect x="162" y="466.56" width="456.545455" height="302.4"/>
  </clipPath>
  <clipPath id="pf334f0d7d8">
   <rect x="709.854545" y="466.56" width="456.545455" height="302.4"/>
  </clipPath>
 </defs>
</svg>
