<?xml version="1.0" encoding="utf-8" standalone="no"?>
<!DOCTYPE svg PUBLIC "-//W3C//DTD SVG 1.1//EN"
  "http://www.w3.org/Graphics/SVG/1.1/DTD/svg11.dtd">
<svg xmlns:xlink="http://www.w3.org/1999/xlink" width="1296pt" height="864pt" viewBox="0 0 1296 864" xmlns="http://www.w3.org/2000/svg" version="1.1">
 <metadata>
  <rdf:RDF xmlns:dc="http://purl.org/dc/elements/1.1/" xmlns:cc="http://creativecommons.org/ns#" xmlns:rdf="http://www.w3.org/1999/02/22-rdf-syntax-ns#">
   <cc:Work>
    <dc:type rdf:resource="http://purl.org/dc/dcmitype/StillImage"/>
    <dc:date>2023-12-24T17:34:51.008208</dc:date>
    <dc:format>image/svg+xml</dc:format>
    <dc:creator>
     <cc:Agent>
      <dc:title>Matplotlib v3.8.0, https://matplotlib.org/</dc:title>
     </cc:Agent>
    </dc:creator>
   </cc:Work>
  </rdf:RDF>
 </metadata>
 <defs>
  <style type="text/css">*{stroke-linejoin: round; stroke-linecap: butt}</style>
 </defs>
 <g id="figure_1">
  <g id="patch_1">
   <path d="M 0 864 
L 1296 864 
L 1296 0 
L 0 0 
z
" style="fill: #ffffff"/>
  </g>
  <g id="axes_1">
   <g id="patch_2">
    <path d="M 162 768.96 
L 1166.4 768.96 
L 1166.4 103.68 
L 162 103.68 
z
" style="fill: #ffffff"/>
   </g>
   <g id="matplotlib.axis_1">
    <g id="xtick_1">
     <g id="line2d_1">
      <defs>
       <path id="m24cc549377" d="M 0 0 
L 0 3.5 
" style="stroke: #000000; stroke-width: 0.8"/>
      </defs>
      <g>
       <use xlink:href="#m24cc549377" x="207.654545" y="768.96" style="stroke: #000000; stroke-width: 0.8"/>
      </g>
     </g>
     <g id="text_1">
      <!-- 0 -->
      <g transform="translate(204.473295 783.558437) scale(0.1 -0.1)">
       <defs>
        <path id="DejaVuSans-30" d="M 2034 4250 
Q 1547 4250 1301 3770 
Q 1056 3291 1056 2328 
Q 1056 1369 1301 889 
Q 1547 409 2034 409 
Q 2525 409 2770 889 
Q 3016 1369 3016 2328 
Q 3016 3291 2770 3770 
Q 2525 4250 2034 4250 
z
M 2034 4750 
Q 2819 4750 3233 4129 
Q 3647 3509 3647 2328 
Q 3647 1150 3233 529 
Q 2819 -91 2034 -91 
Q 1250 -91 836 529 
Q 422 1150 422 2328 
Q 422 3509 836 4129 
Q 1250 4750 2034 4750 
z
" transform="scale(0.015625)"/>
       </defs>
       <use xlink:href="#DejaVuSans-30"/>
      </g>
     </g>
    </g>
    <g id="xtick_2">
     <g id="line2d_2">
      <g>
       <use xlink:href="#m24cc549377" x="390.638696" y="768.96" style="stroke: #000000; stroke-width: 0.8"/>
      </g>
     </g>
     <g id="text_2">
      <!-- 100 -->
      <g transform="translate(381.094946 783.558437) scale(0.1 -0.1)">
       <defs>
        <path id="DejaVuSans-31" d="M 794 531 
L 1825 531 
L 1825 4091 
L 703 3866 
L 703 4441 
L 1819 4666 
L 2450 4666 
L 2450 531 
L 3481 531 
L 3481 0 
L 794 0 
L 794 531 
z
" transform="scale(0.015625)"/>
       </defs>
       <use xlink:href="#DejaVuSans-31"/>
       <use xlink:href="#DejaVuSans-30" x="63.623047"/>
       <use xlink:href="#DejaVuSans-30" x="127.246094"/>
      </g>
     </g>
    </g>
    <g id="xtick_3">
     <g id="line2d_3">
      <g>
       <use xlink:href="#m24cc549377" x="573.622846" y="768.96" style="stroke: #000000; stroke-width: 0.8"/>
      </g>
     </g>
     <g id="text_3">
      <!-- 200 -->
      <g transform="translate(564.079096 783.558437) scale(0.1 -0.1)">
       <defs>
        <path id="DejaVuSans-32" d="M 1228 531 
L 3431 531 
L 3431 0 
L 469 0 
L 469 531 
Q 828 903 1448 1529 
Q 2069 2156 2228 2338 
Q 2531 2678 2651 2914 
Q 2772 3150 2772 3378 
Q 2772 3750 2511 3984 
Q 2250 4219 1831 4219 
Q 1534 4219 1204 4116 
Q 875 4013 500 3803 
L 500 4441 
Q 881 4594 1212 4672 
Q 1544 4750 1819 4750 
Q 2544 4750 2975 4387 
Q 3406 4025 3406 3419 
Q 3406 3131 3298 2873 
Q 3191 2616 2906 2266 
Q 2828 2175 2409 1742 
Q 1991 1309 1228 531 
z
" transform="scale(0.015625)"/>
       </defs>
       <use xlink:href="#DejaVuSans-32"/>
       <use xlink:href="#DejaVuSans-30" x="63.623047"/>
       <use xlink:href="#DejaVuSans-30" x="127.246094"/>
      </g>
     </g>
    </g>
    <g id="xtick_4">
     <g id="line2d_4">
      <g>
       <use xlink:href="#m24cc549377" x="756.606996" y="768.96" style="stroke: #000000; stroke-width: 0.8"/>
      </g>
     </g>
     <g id="text_4">
      <!-- 300 -->
      <g transform="translate(747.063246 783.558437) scale(0.1 -0.1)">
       <defs>
        <path id="DejaVuSans-33" d="M 2597 2516 
Q 3050 2419 3304 2112 
Q 3559 1806 3559 1356 
Q 3559 666 3084 287 
Q 2609 -91 1734 -91 
Q 1441 -91 1130 -33 
Q 819 25 488 141 
L 488 750 
Q 750 597 1062 519 
Q 1375 441 1716 441 
Q 2309 441 2620 675 
Q 2931 909 2931 1356 
Q 2931 1769 2642 2001 
Q 2353 2234 1838 2234 
L 1294 2234 
L 1294 2753 
L 1863 2753 
Q 2328 2753 2575 2939 
Q 2822 3125 2822 3475 
Q 2822 3834 2567 4026 
Q 2313 4219 1838 4219 
Q 1578 4219 1281 4162 
Q 984 4106 628 3988 
L 628 4550 
Q 988 4650 1302 4700 
Q 1616 4750 1894 4750 
Q 2613 4750 3031 4423 
Q 3450 4097 3450 3541 
Q 3450 3153 3228 2886 
Q 3006 2619 2597 2516 
z
" transform="scale(0.015625)"/>
       </defs>
       <use xlink:href="#DejaVuSans-33"/>
       <use xlink:href="#DejaVuSans-30" x="63.623047"/>
       <use xlink:href="#DejaVuSans-30" x="127.246094"/>
      </g>
     </g>
    </g>
    <g id="xtick_5">
     <g id="line2d_5">
      <g>
       <use xlink:href="#m24cc549377" x="939.591146" y="768.96" style="stroke: #000000; stroke-width: 0.8"/>
      </g>
     </g>
     <g id="text_5">
      <!-- 400 -->
      <g transform="translate(930.047396 783.558437) scale(0.1 -0.1)">
       <defs>
        <path id="DejaVuSans-34" d="M 2419 4116 
L 825 1625 
L 2419 1625 
L 2419 4116 
z
M 2253 4666 
L 3047 4666 
L 3047 1625 
L 3713 1625 
L 3713 1100 
L 3047 1100 
L 3047 0 
L 2419 0 
L 2419 1100 
L 313 1100 
L 313 1709 
L 2253 4666 
z
" transform="scale(0.015625)"/>
       </defs>
       <use xlink:href="#DejaVuSans-34"/>
       <use xlink:href="#DejaVuSans-30" x="63.623047"/>
       <use xlink:href="#DejaVuSans-30" x="127.246094"/>
      </g>
     </g>
    </g>
    <g id="xtick_6">
     <g id="line2d_6">
      <g>
       <use xlink:href="#m24cc549377" x="1122.575296" y="768.96" style="stroke: #000000; stroke-width: 0.8"/>
      </g>
     </g>
     <g id="text_6">
      <!-- 500 -->
      <g transform="translate(1113.031546 783.558437) scale(0.1 -0.1)">
       <defs>
        <path id="DejaVuSans-35" d="M 691 4666 
L 3169 4666 
L 3169 4134 
L 1269 4134 
L 1269 2991 
Q 1406 3038 1543 3061 
Q 1681 3084 1819 3084 
Q 2600 3084 3056 2656 
Q 3513 2228 3513 1497 
Q 3513 744 3044 326 
Q 2575 -91 1722 -91 
Q 1428 -91 1123 -41 
Q 819 9 494 109 
L 494 744 
Q 775 591 1075 516 
Q 1375 441 1709 441 
Q 2250 441 2565 725 
Q 2881 1009 2881 1497 
Q 2881 1984 2565 2268 
Q 2250 2553 1709 2553 
Q 1456 2553 1204 2497 
Q 953 2441 691 2322 
L 691 4666 
z
" transform="scale(0.015625)"/>
       </defs>
       <use xlink:href="#DejaVuSans-35"/>
       <use xlink:href="#DejaVuSans-30" x="63.623047"/>
       <use xlink:href="#DejaVuSans-30" x="127.246094"/>
      </g>
     </g>
    </g>
   </g>
   <g id="matplotlib.axis_2">
    <g id="ytick_1">
     <g id="line2d_7">
      <defs>
       <path id="m95a3456ea4" d="M 0 0 
L -3.5 0 
" style="stroke: #000000; stroke-width: 0.8"/>
      </defs>
      <g>
       <use xlink:href="#m95a3456ea4" x="162" y="755.065946" style="stroke: #000000; stroke-width: 0.8"/>
      </g>
     </g>
     <g id="text_7">
      <!-- 0 -->
      <g transform="translate(148.6375 758.865165) scale(0.1 -0.1)">
       <use xlink:href="#DejaVuSans-30"/>
      </g>
     </g>
    </g>
    <g id="ytick_2">
     <g id="line2d_8">
      <g>
       <use xlink:href="#m95a3456ea4" x="162" y="629.3279" style="stroke: #000000; stroke-width: 0.8"/>
      </g>
     </g>
     <g id="text_8">
      <!-- 100 -->
      <g transform="translate(135.9125 633.127119) scale(0.1 -0.1)">
       <use xlink:href="#DejaVuSans-31"/>
       <use xlink:href="#DejaVuSans-30" x="63.623047"/>
       <use xlink:href="#DejaVuSans-30" x="127.246094"/>
      </g>
     </g>
    </g>
    <g id="ytick_3">
     <g id="line2d_9">
      <g>
       <use xlink:href="#m95a3456ea4" x="162" y="503.589854" style="stroke: #000000; stroke-width: 0.8"/>
      </g>
     </g>
     <g id="text_9">
      <!-- 200 -->
      <g transform="translate(135.9125 507.389073) scale(0.1 -0.1)">
       <use xlink:href="#DejaVuSans-32"/>
       <use xlink:href="#DejaVuSans-30" x="63.623047"/>
       <use xlink:href="#DejaVuSans-30" x="127.246094"/>
      </g>
     </g>
    </g>
    <g id="ytick_4">
     <g id="line2d_10">
      <g>
       <use xlink:href="#m95a3456ea4" x="162" y="377.851809" style="stroke: #000000; stroke-width: 0.8"/>
      </g>
     </g>
     <g id="text_10">
      <!-- 300 -->
      <g transform="translate(135.9125 381.651027) scale(0.1 -0.1)">
       <use xlink:href="#DejaVuSans-33"/>
       <use xlink:href="#DejaVuSans-30" x="63.623047"/>
       <use xlink:href="#DejaVuSans-30" x="127.246094"/>
      </g>
     </g>
    </g>
    <g id="ytick_5">
     <g id="line2d_11">
      <g>
       <use xlink:href="#m95a3456ea4" x="162" y="252.113763" style="stroke: #000000; stroke-width: 0.8"/>
      </g>
     </g>
     <g id="text_11">
      <!-- 400 -->
      <g transform="translate(135.9125 255.912982) scale(0.1 -0.1)">
       <use xlink:href="#DejaVuSans-34"/>
       <use xlink:href="#DejaVuSans-30" x="63.623047"/>
       <use xlink:href="#DejaVuSans-30" x="127.246094"/>
      </g>
     </g>
    </g>
    <g id="ytick_6">
     <g id="line2d_12">
      <g>
       <use xlink:href="#m95a3456ea4" x="162" y="126.375717" style="stroke: #000000; stroke-width: 0.8"/>
      </g>
     </g>
     <g id="text_12">
      <!-- 500 -->
      <g transform="translate(135.9125 130.174936) scale(0.1 -0.1)">
       <use xlink:href="#DejaVuSans-35"/>
       <use xlink:href="#DejaVuSans-30" x="63.623047"/>
       <use xlink:href="#DejaVuSans-30" x="127.246094"/>
      </g>
     </g>
    </g>
   </g>
   <g id="line2d_13">
    <path d="M 207.654545 585.319584 
L 209.484387 717.344532 
L 211.314228 708.542869 
L 213.14407 687.167401 
L 214.973911 651.960748 
L 216.803753 567.716258 
L 218.633594 631.842661 
L 220.463436 689.682162 
L 222.293277 677.108358 
L 224.123119 688.424782 
L 225.95296 687.167401 
L 227.782802 629.3279 
L 231.442485 687.167401 
L 233.272326 668.306694 
L 235.102168 668.306694 
L 236.932009 633.100042 
L 238.761851 594.121247 
L 240.591692 457.066778 
L 242.421534 545.08341 
L 244.251375 167.869272 
L 246.081217 140.206902 
L 247.911058 133.92 
L 249.7409 152.780707 
L 251.570741 133.92 
L 253.400583 133.92 
L 255.230424 254.628524 
L 257.060266 133.92 
L 268.039315 133.92 
L 269.869156 228.223534 
L 271.698998 247.084241 
L 273.528839 322.527069 
L 275.358681 133.92 
L 277.188522 193.016881 
L 279.018364 322.527069 
L 280.848206 299.89422 
L 282.678047 133.92 
L 284.507889 150.265946 
L 286.33773 133.92 
L 293.657096 133.92 
L 295.486938 272.23185 
L 297.316779 133.92 
L 300.976462 133.92 
L 302.806304 242.054719 
L 304.636145 231.995676 
L 306.465987 385.396091 
L 308.295828 133.92 
L 310.12567 369.050146 
L 311.955511 367.792765 
L 313.785353 238.282578 
L 315.615194 133.92 
L 317.445036 211.877588 
L 319.274877 379.109189 
L 321.104719 370.307526 
L 322.93456 406.771559 
L 324.764402 415.573222 
L 326.594243 345.159917 
L 328.424085 460.838919 
L 330.253926 522.450561 
L 332.083768 529.994844 
L 333.913609 438.206071 
L 335.743451 502.332474 
L 337.573292 394.197755 
L 339.403134 503.589854 
L 341.232975 433.176549 
L 343.062817 279.776133 
L 344.892658 507.361996 
L 346.7225 348.932058 
L 348.552341 484.729148 
L 350.382183 493.530811 
L 352.212024 518.67842 
L 354.041866 475.927484 
L 355.871707 503.589854 
L 357.701549 498.560333 
L 359.53139 562.686736 
L 361.361232 472.155343 
L 363.191073 477.184865 
L 365.020915 372.822287 
L 366.850756 472.155343 
L 368.680598 345.159917 
L 370.510439 370.307526 
L 372.340281 181.700457 
L 374.170122 133.92 
L 375.999964 243.3121 
L 377.829805 133.92 
L 379.659647 133.92 
L 381.489488 286.063035 
L 383.31933 318.754927 
L 385.149171 283.548274 
L 386.979013 186.729979 
L 388.808854 133.92 
L 397.958062 133.92 
L 399.787903 214.392349 
L 401.617745 133.92 
L 405.277428 293.607318 
L 407.107269 213.134969 
L 408.937111 465.868441 
L 410.766952 597.893389 
L 412.596794 440.720832 
L 414.426635 418.087983 
L 416.256477 607.952432 
L 418.086318 633.100042 
L 419.91616 563.944116 
L 421.746001 472.155343 
L 423.575843 532.509605 
L 425.405684 562.686736 
L 427.235526 420.602744 
L 429.065367 619.268857 
L 430.895209 458.324158 
L 432.72505 545.08341 
L 434.554892 453.294636 
L 436.384733 508.619376 
L 438.214575 380.36657 
L 440.044416 478.442245 
L 441.874258 543.826029 
L 443.704099 503.589854 
L 445.533941 521.193181 
L 447.363782 283.548274 
L 449.193624 540.053888 
L 451.023465 425.632266 
L 452.853307 517.42104 
L 454.683148 584.062204 
L 456.51299 570.231019 
L 458.342831 567.716258 
L 460.172673 469.640582 
L 462.002514 503.589854 
L 463.832356 601.66553 
L 465.662197 497.302952 
L 467.492039 333.843493 
L 469.32188 542.568649 
L 471.151722 491.01605 
L 472.981563 601.66553 
L 474.811405 504.847235 
L 476.641246 610.467193 
L 478.471088 668.306694 
L 480.300929 565.201497 
L 482.130771 654.475509 
L 483.960612 609.209813 
L 485.790454 619.268857 
L 487.620295 651.960748 
L 489.450137 602.922911 
L 491.279978 618.011476 
L 493.10982 562.686736 
L 494.939661 434.433929 
L 496.769503 507.361996 
L 498.599344 552.627692 
L 500.429186 521.193181 
L 502.259027 394.197755 
L 504.088869 606.695052 
L 505.91871 540.053888 
L 507.748552 540.053888 
L 509.578393 519.9358 
L 511.408235 513.648898 
L 513.238076 502.332474 
L 515.067918 585.319584 
L 516.897759 460.838919 
L 518.727601 677.108358 
L 522.387284 519.9358 
L 524.217125 376.594428 
L 526.046967 561.429356 
L 527.876808 501.075094 
L 529.70665 421.860125 
L 531.536491 662.019792 
L 533.366333 605.437672 
L 535.196174 702.255967 
L 537.026016 698.483825 
L 538.855857 689.682162 
L 540.685699 582.804823 
L 542.51554 663.277173 
L 544.345382 738.72 
L 546.175223 669.564075 
L 548.005065 659.505031 
L 549.834906 658.247651 
L 553.494589 699.741206 
L 555.324431 674.593597 
L 557.154272 655.73289 
L 558.984114 699.741206 
L 560.813955 697.226445 
L 562.643797 618.011476 
L 564.473638 571.488399 
L 566.30348 663.277173 
L 568.133321 631.842661 
L 569.963163 683.39526 
L 571.793004 716.087152 
L 573.622846 690.939543 
L 575.452687 674.593597 
L 577.282529 731.175717 
L 579.11237 683.39526 
L 580.942212 697.226445 
L 582.772053 670.821455 
L 584.601895 667.049314 
L 586.431736 579.032682 
L 588.261578 572.74578 
L 590.091419 469.640582 
L 591.921261 423.117505 
L 593.751102 355.21896 
L 595.580944 294.864699 
L 597.410785 201.818545 
L 599.240627 133.92 
L 601.070468 140.206902 
L 602.90031 298.63684 
L 604.730151 133.92 
L 606.559993 133.92 
L 608.389834 341.387775 
L 610.219676 201.818545 
L 613.879359 133.92 
L 617.539042 327.55659 
L 619.368883 270.97447 
L 621.198725 269.717089 
L 623.028566 171.641414 
L 624.858408 224.451393 
L 626.688249 215.64973 
L 628.518091 298.63684 
L 630.347932 234.510437 
L 632.177774 317.497547 
L 634.007615 180.443077 
L 635.837457 201.818545 
L 637.667298 231.995676 
L 639.49714 133.92 
L 644.986664 133.92 
L 646.816506 206.848067 
L 648.646347 133.92 
L 650.476189 213.134969 
L 652.30603 156.552848 
L 654.135872 340.130395 
L 655.965713 365.278004 
L 657.795555 401.742037 
L 659.625396 206.848067 
L 661.455238 279.776133 
L 663.285079 198.046403 
L 665.114921 133.92 
L 666.944762 166.611892 
L 668.774604 247.084241 
L 670.604445 170.384033 
L 672.434287 133.92 
L 674.264128 356.476341 
L 676.09397 215.64973 
L 677.923811 167.869272 
L 679.753653 365.278004 
L 681.583494 413.058462 
L 683.413336 565.201497 
L 685.243177 533.766985 
L 687.073019 524.965322 
L 688.90286 527.480083 
L 690.732702 485.986528 
L 692.562543 548.855551 
L 694.392385 425.632266 
L 696.222226 543.826029 
L 698.052068 522.450561 
L 699.881909 560.171975 
L 701.711751 447.007734 
L 703.541592 483.471767 
L 705.371434 548.855551 
L 707.201275 535.024366 
L 710.860958 595.378628 
L 712.6908 602.922911 
L 714.520641 509.876757 
L 716.350483 523.707942 
L 718.180324 574.00316 
L 720.010166 639.386944 
L 721.840007 590.349106 
L 723.669849 496.045572 
L 727.329532 540.053888 
L 729.159373 547.59817 
L 730.989215 499.817713 
L 732.819056 687.167401 
L 734.648898 659.505031 
L 736.478739 616.754096 
L 738.308581 584.062204 
L 740.138422 568.973638 
L 741.968264 576.517921 
L 745.627947 624.298378 
L 747.457788 708.542869 
L 749.28763 695.969064 
L 751.117471 656.99027 
L 752.947313 721.116674 
L 754.777154 723.631435 
L 756.606996 532.509605 
L 758.436837 684.65264 
L 760.266679 635.614802 
L 762.09652 557.657214 
L 763.926362 519.9358 
L 765.756203 438.206071 
L 767.586045 424.374886 
L 769.415886 381.62395 
L 771.245728 143.979044 
L 773.075569 244.56948 
L 774.905411 133.92 
L 791.373984 133.92 
L 793.203826 184.215218 
L 795.033667 133.92 
L 796.863509 165.354511 
L 798.69335 176.670936 
L 800.523192 133.92 
L 804.182875 133.92 
L 806.012716 250.856383 
L 807.842558 254.628524 
L 809.672399 133.92 
L 811.502241 196.789023 
L 813.332082 133.92 
L 822.48129 133.92 
L 824.311131 252.113763 
L 826.140973 228.223534 
L 827.970814 235.767817 
L 829.800656 237.025198 
L 831.630497 318.754927 
L 833.460339 133.92 
L 835.29018 311.210644 
L 837.120022 133.92 
L 838.949863 216.90711 
L 840.779705 255.885904 
L 842.609546 133.92 
L 844.439388 265.944948 
L 846.269229 335.100873 
L 848.099071 411.801081 
L 849.928912 389.168233 
L 851.758754 557.657214 
L 853.588595 414.315842 
L 855.418437 443.235593 
L 857.248278 494.788191 
L 859.07812 467.125821 
L 860.907961 566.458877 
L 862.737803 337.615634 
L 864.567644 542.568649 
L 866.397486 562.686736 
L 868.227327 464.61106 
L 870.057169 562.686736 
L 871.88701 548.855551 
L 873.716852 612.981954 
L 875.546693 555.142453 
L 877.376535 402.999418 
L 879.206376 548.855551 
L 881.036218 523.707942 
L 882.866059 524.965322 
L 884.695901 499.817713 
L 886.525742 487.243909 
L 888.355584 548.855551 
L 890.185425 641.901705 
L 892.015267 508.619376 
L 893.845108 439.463451 
L 895.67495 610.467193 
L 897.504791 600.40815 
L 899.334633 514.906279 
L 901.164474 541.311268 
L 902.994316 532.509605 
L 904.824157 558.914595 
L 906.653999 550.112931 
L 908.48384 607.952432 
L 910.313682 635.614802 
L 912.143523 601.66553 
L 913.973365 513.648898 
L 915.803206 606.695052 
L 917.633048 509.876757 
L 919.462889 543.826029 
L 921.292731 692.196923 
L 923.122572 503.589854 
L 924.952414 618.011476 
L 926.782255 607.952432 
L 928.612097 626.813139 
L 930.441938 693.454304 
L 932.27178 591.606486 
L 934.101621 550.112931 
L 935.931463 348.932058 
L 937.761304 523.707942 
L 939.591146 367.792765 
L 941.420987 478.442245 
L 943.250829 438.206071 
L 945.08067 374.079667 
L 946.910512 491.01605 
L 948.740353 414.315842 
L 950.570195 133.92 
L 952.400036 140.206902 
L 954.229878 133.92 
L 956.059719 133.92 
L 957.889561 287.320416 
L 959.719402 133.92 
L 974.358134 133.92 
L 976.187976 141.464283 
L 978.017817 283.548274 
L 979.847659 133.92 
L 981.6775 489.758669 
L 983.507342 177.928316 
L 985.337183 358.991102 
L 987.167025 346.417297 
L 988.996866 174.156175 
L 990.826708 135.17738 
L 992.656549 133.92 
L 999.975915 133.92 
L 1001.805757 244.56948 
L 1003.635598 185.472599 
L 1005.46544 347.674678 
L 1007.295281 303.666362 
L 1009.125123 283.548274 
L 1010.954964 135.17738 
L 1012.784806 243.3121 
L 1014.614647 133.92 
L 1016.444489 182.957838 
L 1018.27433 190.502121 
L 1020.104172 203.075925 
L 1021.934013 174.156175 
L 1023.763855 133.92 
L 1025.593696 235.767817 
L 1027.423538 190.502121 
L 1029.253379 133.92 
L 1031.083221 133.92 
L 1032.913062 400.484657 
L 1034.742904 248.341622 
L 1036.572745 205.590686 
L 1038.402587 146.493805 
L 1040.232428 284.805655 
L 1042.06227 379.109189 
L 1043.892111 311.210644 
L 1045.721953 395.455135 
L 1047.551794 452.037256 
L 1049.381636 376.594428 
L 1051.211478 244.56948 
L 1053.041319 381.62395 
L 1054.871161 282.290894 
L 1056.701002 435.69131 
L 1058.530844 464.61106 
L 1060.360685 253.371143 
L 1062.190527 137.692141 
L 1064.020368 133.92 
L 1065.85021 160.32499 
L 1067.680051 233.253056 
L 1069.509893 216.90711 
L 1071.339734 199.303784 
L 1073.169576 133.92 
L 1074.999417 133.92 
L 1076.829259 298.63684 
L 1078.6591 133.92 
L 1080.488942 149.008565 
L 1082.318783 133.92 
L 1085.978466 133.92 
L 1087.808308 291.092557 
L 1089.638149 133.92 
L 1093.297832 133.92 
L 1095.127674 151.523326 
L 1096.957515 133.92 
L 1098.787357 375.337048 
L 1100.617198 154.038087 
L 1102.44704 270.97447 
L 1104.276881 235.767817 
L 1106.106723 351.446819 
L 1107.936564 245.826861 
L 1109.766406 418.087983 
L 1111.596247 375.337048 
L 1113.426089 518.67842 
L 1115.25593 413.058462 
L 1117.085772 508.619376 
L 1118.915613 547.59817 
L 1120.745455 570.231019 
L 1120.745455 570.231019 
" clip-path="url(#p11cbf81d68)" style="fill: none; stroke: #4169e1; stroke-linecap: square"/>
   </g>
   <g id="line2d_14">
    <path d="M 207.654545 647.771482 
L 209.484387 610.230705 
L 211.314228 665.644402 
L 213.14407 682.733282 
L 214.973911 682.537871 
L 216.803753 676.910746 
L 218.633594 619.42389 
L 220.463436 632.111362 
L 222.293277 658.302369 
L 224.123119 665.919502 
L 225.95296 676.459129 
L 227.782802 679.386861 
L 229.612643 645.710319 
L 231.442485 642.767919 
L 233.272326 642.530875 
L 235.102168 636.987587 
L 236.932009 639.472552 
L 238.761851 621.442786 
L 240.591692 591.551422 
L 242.421534 431.272328 
L 244.251375 471.745221 
L 246.081217 288.888573 
L 247.911058 203.746479 
L 249.7409 171.663861 
L 251.570741 170.672784 
L 253.400583 169.348329 
L 255.230424 168.835062 
L 257.060266 191.349878 
L 258.890107 175.581011 
L 260.719949 169.216866 
L 262.54979 167.607996 
L 264.379632 169.144189 
L 266.209473 169.68351 
L 269.869156 169.740608 
L 271.698998 186.136361 
L 273.528839 198.765997 
L 275.358681 243.102818 
L 277.188522 193.171752 
L 279.018364 187.230813 
L 280.848206 246.967398 
L 282.678047 263.459158 
L 284.507889 205.134249 
L 286.33773 176.935435 
L 288.167572 170.784102 
L 289.997413 170.099849 
L 291.827255 169.962745 
L 293.657096 172.360701 
L 295.486938 173.184092 
L 297.316779 216.858377 
L 299.146621 188.203434 
L 300.976462 182.696178 
L 302.806304 180.426654 
L 304.636145 211.175837 
L 306.465987 220.703311 
L 308.295828 317.980077 
L 310.12567 236.159405 
L 311.955511 328.877592 
L 313.785353 341.173505 
L 315.615194 306.104915 
L 317.445036 221.213316 
L 319.274877 209.279867 
L 321.104719 297.969509 
L 324.764402 406.832686 
L 326.594243 419.554914 
L 328.424085 386.327116 
L 330.253926 435.795337 
L 332.083768 481.503119 
L 333.913609 514.262124 
L 335.743451 477.172643 
L 337.573292 502.81416 
L 339.403134 442.7187 
L 341.232975 491.081225 
L 343.062817 459.706459 
L 344.892658 372.403685 
L 346.7225 449.322729 
L 348.552341 382.804241 
L 350.382183 455.555047 
L 352.212024 473.093812 
L 354.041866 506.024533 
L 355.871707 495.19699 
L 357.701549 507.380069 
L 359.53139 491.824111 
L 361.361232 526.561625 
L 363.191073 487.667614 
L 365.020915 480.197831 
L 366.850756 413.172772 
L 368.680598 454.728049 
L 370.510439 368.209257 
L 372.340281 378.102379 
L 374.170122 252.403895 
L 375.999964 194.03244 
L 377.829805 204.99419 
L 379.659647 185.581461 
L 381.489488 181.929808 
L 385.149171 283.123724 
L 386.979013 297.990268 
L 388.808854 232.684495 
L 390.638696 188.165829 
L 392.468537 178.835397 
L 394.298379 177.885915 
L 396.12822 181.668608 
L 397.958062 183.031858 
L 399.787903 183.303687 
L 401.617745 206.903169 
L 403.447586 190.054317 
L 405.277428 204.15664 
L 407.107269 245.413016 
L 408.937111 226.357033 
L 410.766952 377.210264 
L 412.596794 497.772954 
L 414.426635 461.948317 
L 416.256477 435.940614 
L 418.086318 524.547871 
L 419.91616 574.737623 
L 421.746001 569.120911 
L 423.575843 499.518525 
L 425.405684 513.500705 
L 427.235526 529.279011 
L 429.065367 442.921976 
L 430.895209 539.836759 
L 432.72505 445.285704 
L 434.554892 502.320655 
L 436.384733 437.014441 
L 438.214575 462.119131 
L 440.044416 388.504893 
L 443.704099 482.932388 
L 445.533941 483.043188 
L 447.363782 493.405526 
L 449.193624 331.221443 
L 451.023465 433.183475 
L 452.853307 392.933045 
L 454.683148 475.741091 
L 456.51299 521.982382 
L 458.342831 547.371794 
L 460.172673 555.296115 
L 462.002514 481.114889 
L 463.832356 470.950935 
L 465.662197 519.670035 
L 467.492039 472.367062 
L 469.32188 373.776565 
L 471.151722 461.754844 
L 472.981563 452.004294 
L 474.811405 534.912933 
L 476.641246 495.263124 
L 478.471088 562.204359 
L 480.300929 615.341346 
L 482.130771 601.118784 
L 483.960612 639.439341 
L 485.790454 635.788763 
L 487.620295 630.071602 
L 489.450137 651.684421 
L 491.279978 628.39041 
L 493.10982 631.205932 
L 494.939661 605.759 
L 496.769503 508.66784 
L 498.599344 515.975712 
L 500.429186 532.562578 
L 502.259027 532.228605 
L 504.088869 462.866832 
L 505.91871 538.289937 
L 507.748552 531.368607 
L 509.578393 546.7097 
L 511.408235 539.67383 
L 513.238076 529.881723 
L 515.067918 521.661283 
L 516.897759 556.903431 
L 518.727601 510.497331 
L 520.557442 597.382434 
L 522.387284 591.13731 
L 524.217125 557.203156 
L 526.046967 466.279081 
L 527.876808 519.859478 
L 529.70665 500.610406 
L 531.536491 476.513658 
L 533.366333 577.817799 
L 535.196174 579.651779 
L 537.026016 648.454939 
L 538.855857 679.262242 
L 540.685699 677.427269 
L 542.51554 666.301958 
L 544.345382 674.658772 
L 546.175223 698.582682 
L 548.005065 687.983036 
L 549.834906 693.962927 
L 551.664748 694.725133 
L 553.494589 678.83503 
L 555.324431 680.077186 
L 557.154272 674.794763 
L 558.984114 665.888229 
L 560.813955 681.049979 
L 562.643797 682.862419 
L 566.30348 616.538204 
L 568.133321 642.57506 
L 569.963163 631.223506 
L 571.793004 662.927976 
L 573.622846 688.954093 
L 575.452687 687.68592 
L 577.282529 685.16301 
L 579.11237 699.013861 
L 580.942212 684.234753 
L 582.772053 683.002688 
L 584.601895 641.507641 
L 586.431736 642.873759 
L 588.261578 588.386061 
L 590.091419 566.415229 
L 593.751102 400.677669 
L 595.580944 354.833512 
L 597.410785 285.849993 
L 599.240627 206.153453 
L 601.070468 176.696683 
L 602.90031 171.505231 
L 604.730151 223.716834 
L 606.559993 189.090023 
L 608.389834 173.652539 
L 610.219676 238.288833 
L 612.049517 206.501374 
L 613.879359 185.994039 
L 615.7092 173.202203 
L 617.539042 195.079963 
L 619.368883 263.118259 
L 621.198725 262.851419 
L 623.028566 263.937199 
L 624.858408 195.859533 
L 626.688249 194.345673 
L 628.518091 193.42804 
L 630.347932 243.947927 
L 632.177774 229.664142 
L 634.007615 290.304968 
L 635.837457 214.737047 
L 637.667298 200.470414 
L 639.49714 202.727582 
L 641.326981 181.172878 
L 643.156823 173.645095 
L 644.986664 175.01882 
L 646.816506 176.0782 
L 648.646347 194.883536 
L 650.476189 182.929788 
L 652.30603 204.233576 
L 654.135872 196.601997 
L 655.965713 269.790342 
L 657.795555 327.382266 
L 659.625396 399.255557 
L 661.455238 308.087953 
L 663.285079 310.585983 
L 665.114921 243.433318 
L 666.944762 208.646572 
L 668.774604 197.942261 
L 670.604445 225.33568 
L 672.434287 212.844837 
L 674.264128 202.446813 
L 676.09397 290.983388 
L 677.923811 264.353691 
L 679.753653 257.777347 
L 681.583494 319.05496 
L 683.413336 376.018692 
L 685.243177 495.672958 
L 687.073019 518.79722 
L 688.90286 539.793628 
L 690.732702 544.2614 
L 692.562543 522.439242 
L 694.392385 544.025238 
L 696.222226 474.95613 
L 698.052068 516.457168 
L 699.881909 513.094477 
L 701.711751 539.243121 
L 703.541592 487.139479 
L 705.371434 489.207376 
L 707.201275 515.45596 
L 709.031117 519.437557 
L 710.860958 537.152201 
L 712.6908 559.255781 
L 714.520641 570.681489 
L 716.350483 532.885461 
L 718.180324 540.686972 
L 720.010166 560.590712 
L 721.840007 600.796304 
L 723.669849 601.219962 
L 725.49969 541.31925 
L 727.329532 518.839583 
L 729.159373 512.72267 
L 730.989215 520.068069 
L 732.819056 499.446155 
L 734.648898 603.241429 
L 736.478739 631.413008 
L 738.308581 629.295504 
L 741.968264 578.362876 
L 743.798105 569.540895 
L 745.627947 578.189645 
L 747.457788 600.792812 
L 749.28763 659.312719 
L 751.117471 677.511064 
L 752.947313 668.431116 
L 754.777154 689.447473 
L 756.606996 693.068375 
L 758.436837 611.322385 
L 760.266679 611.148118 
L 762.09652 594.608958 
L 763.926362 565.615878 
L 765.756203 512.785754 
L 767.586045 455.68438 
L 769.415886 408.542014 
L 771.245728 366.44874 
L 773.075569 233.720046 
L 774.905411 199.519858 
L 776.735252 176.666561 
L 778.565094 171.129605 
L 780.394935 169.666243 
L 782.224777 169.486853 
L 784.054618 168.898607 
L 785.88446 168.616379 
L 789.544143 168.498999 
L 791.373984 170.383112 
L 793.203826 171.054779 
L 795.033667 179.295594 
L 796.863509 173.991443 
L 798.69335 174.503865 
L 800.523192 176.76606 
L 802.353033 171.824564 
L 804.182875 170.018768 
L 806.012716 171.707529 
L 807.842558 204.041408 
L 809.672399 221.513041 
L 811.502241 188.244645 
L 813.332082 186.172162 
L 815.161924 175.605685 
L 816.991765 172.341131 
L 818.821607 171.603771 
L 820.651448 174.273517 
L 822.48129 175.283588 
L 824.311131 175.463861 
L 826.140973 208.621745 
L 827.970814 220.868465 
L 829.800656 229.231726 
L 831.630497 228.16705 
L 833.460339 270.7069 
L 835.29018 220.779902 
L 837.120022 275.611175 
L 838.949863 217.607902 
L 840.779705 229.861529 
L 842.609546 234.413854 
L 844.439388 206.498227 
L 846.269229 233.44085 
L 848.099071 287.024297 
L 849.928912 376.445084 
L 851.758754 393.255218 
L 853.588595 492.728026 
L 855.418437 439.587892 
L 857.248278 450.364266 
L 859.07812 470.481432 
L 860.907961 460.239353 
L 862.737803 514.366113 
L 864.567644 420.111925 
L 866.397486 496.148237 
L 868.227327 521.79739 
L 870.057169 501.932674 
L 871.88701 531.403776 
L 873.716852 527.062402 
L 875.546693 560.35219 
L 877.376535 549.978437 
L 879.206376 479.584682 
L 881.036218 521.922943 
L 882.866059 511.862921 
L 884.695901 522.823961 
L 886.525742 503.130079 
L 888.355584 485.324608 
L 890.185425 511.221779 
L 892.015267 561.998108 
L 893.845108 544.052866 
L 895.67495 494.577643 
L 897.504791 565.53357 
L 899.334633 578.609935 
L 901.164474 545.608514 
L 902.994316 545.072128 
L 904.824157 524.120903 
L 906.653999 536.445174 
L 908.48384 544.208274 
L 910.313682 583.535852 
L 912.143523 613.811686 
L 913.973365 611.58793 
L 915.803206 549.314176 
L 917.633048 582.533397 
L 919.462889 524.279611 
L 921.292731 534.431746 
L 923.122572 620.138045 
L 924.952414 555.572222 
L 926.782255 598.070323 
L 928.612097 611.634908 
L 930.441938 610.570434 
L 932.27178 653.864336 
L 934.101621 604.859748 
L 935.931463 543.750666 
L 937.761304 417.691023 
L 939.591146 484.228928 
L 941.420987 405.011465 
L 943.250829 457.966184 
L 946.910512 374.102883 
L 948.740353 423.321338 
L 950.570195 387.824515 
L 952.400036 260.49126 
L 954.229878 190.316821 
L 956.059719 172.4173 
L 957.889561 171.086321 
L 959.719402 210.305748 
L 961.549244 185.247738 
L 963.379085 173.700159 
L 965.208927 170.051116 
L 967.038768 171.998314 
L 968.86861 172.782948 
L 970.698451 172.89937 
L 972.528293 172.884788 
L 974.358134 171.537348 
L 976.187976 171.067864 
L 978.017817 171.948929 
L 979.847659 213.966149 
L 981.6775 189.547574 
L 983.507342 350.210045 
L 985.337183 251.464659 
L 987.167025 327.154949 
L 988.996866 307.643142 
L 992.656549 187.297696 
L 994.486391 174.125707 
L 996.316232 176.393543 
L 998.146074 177.542483 
L 999.975915 177.756063 
L 1001.805757 177.743707 
L 1003.635598 213.211982 
L 1005.46544 211.407644 
L 1007.295281 283.679929 
L 1009.125123 292.687076 
L 1010.954964 323.073297 
L 1012.784806 238.17717 
L 1014.614647 246.905926 
L 1016.444489 208.11999 
L 1018.27433 208.471518 
L 1020.104172 208.502638 
L 1021.934013 215.98706 
L 1023.763855 209.736074 
L 1025.593696 200.892623 
L 1027.423538 229.419327 
L 1029.253379 230.41263 
L 1031.083221 215.021193 
L 1032.913062 196.892973 
L 1034.742904 302.358292 
L 1036.572745 280.300604 
L 1038.402587 272.673821 
L 1040.232428 217.393248 
L 1042.06227 263.04965 
L 1043.892111 346.050689 
L 1045.721953 358.654424 
L 1047.551794 393.060057 
L 1049.381636 423.952523 
L 1051.211478 405.232258 
L 1053.041319 343.711865 
L 1054.871161 380.226281 
L 1056.701002 337.027657 
L 1058.530844 416.692655 
L 1060.360685 442.615881 
L 1064.020368 226.801844 
L 1065.85021 180.065917 
L 1067.680051 178.517521 
L 1069.509893 211.034206 
L 1071.339734 218.769544 
L 1073.169576 214.099224 
L 1074.999417 191.435064 
L 1076.829259 182.877333 
L 1078.6591 231.727531 
L 1080.488942 201.068867 
L 1082.318783 191.132845 
L 1084.148625 185.803597 
L 1085.978466 186.296987 
L 1087.808308 186.395143 
L 1089.638149 240.405827 
L 1091.467991 205.369701 
L 1093.297832 191.418027 
L 1095.127674 183.094942 
L 1096.957515 186.437928 
L 1098.787357 188.311912 
L 1100.617198 290.131909 
L 1102.44704 234.546238 
L 1104.276881 279.682773 
L 1106.106723 241.113564 
L 1107.936564 319.170882 
L 1109.766406 272.819789 
L 1111.596247 372.643357 
L 1113.426089 369.318329 
L 1115.25593 466.471383 
L 1117.085772 428.688114 
L 1118.915613 480.447443 
L 1120.745455 495.309132 
L 1120.745455 495.309132 
" clip-path="url(#p11cbf81d68)" style="fill: none; stroke: #ff6347; stroke-linecap: square"/>
   </g>
   <g id="line2d_15">
    <path d="M 207.654545 657.231929 
L 209.484387 594.957541 
L 211.314228 654.532588 
L 213.14407 663.378187 
L 214.973911 670.77301 
L 216.803753 683.673463 
L 218.633594 644.053724 
L 220.463436 648.07137 
L 222.293277 664.185203 
L 224.123119 660.982093 
L 225.95296 674.968354 
L 227.782802 677.660025 
L 229.612643 649.488187 
L 231.442485 654.888672 
L 233.272326 653.785836 
L 235.102168 637.20771 
L 236.932009 627.091894 
L 238.761851 575.140666 
L 240.591692 515.038586 
L 242.421534 414.322173 
L 244.251375 477.001235 
L 246.081217 236.440559 
L 247.911058 223.411276 
L 249.7409 179.024418 
L 251.570741 175.516086 
L 253.400583 175.409641 
L 255.230424 175.444713 
L 257.060266 180.16649 
L 258.890107 177.953258 
L 260.719949 177.289342 
L 262.54979 175.738951 
L 264.379632 175.684808 
L 269.869156 176.035569 
L 271.698998 178.424852 
L 273.528839 181.298393 
L 275.358681 212.326351 
L 277.188522 184.80569 
L 279.018364 182.297375 
L 280.848206 227.642809 
L 282.678047 221.061822 
L 284.507889 191.808349 
L 286.33773 180.79614 
L 288.167572 176.832099 
L 289.997413 175.95656 
L 291.827255 175.830507 
L 293.657096 176.112006 
L 295.486938 176.224245 
L 297.316779 203.150137 
L 299.146621 183.364008 
L 300.976462 180.54319 
L 302.806304 178.355898 
L 304.636145 185.831609 
L 306.465987 189.295238 
L 308.295828 295.254176 
L 310.12567 212.900476 
L 311.955511 313.470959 
L 313.785353 326.453735 
L 315.615194 258.152781 
L 317.445036 212.311885 
L 319.274877 192.000555 
L 321.104719 287.40188 
L 322.93456 340.020344 
L 324.764402 419.204922 
L 326.594243 446.801272 
L 328.424085 393.983791 
L 330.253926 462.8082 
L 332.083768 492.021133 
L 333.913609 515.335625 
L 335.743451 498.832238 
L 337.573292 514.560967 
L 339.403134 469.883593 
L 341.232975 502.181594 
L 343.062817 488.433639 
L 344.892658 361.948333 
L 346.7225 471.880694 
L 348.552341 372.267655 
L 350.382183 480.903573 
L 352.212024 494.332809 
L 354.041866 514.928419 
L 355.871707 513.117366 
L 357.701549 523.864692 
L 359.53139 517.333397 
L 361.361232 529.433996 
L 363.191073 511.840397 
L 365.020915 498.115676 
L 366.850756 435.631948 
L 368.680598 475.322547 
L 370.510439 362.977168 
L 372.340281 368.386421 
L 374.170122 228.735727 
L 375.999964 202.682648 
L 377.829805 188.876405 
L 379.659647 183.435342 
L 381.489488 182.409537 
L 383.31933 214.08871 
L 385.149171 270.422793 
L 386.979013 266.900723 
L 388.808854 215.529663 
L 390.638696 188.899774 
L 392.468537 178.606315 
L 394.298379 176.736859 
L 396.12822 177.079062 
L 399.787903 177.376217 
L 401.617745 184.841606 
L 403.447586 180.762717 
L 405.277428 186.965086 
L 407.107269 231.316871 
L 408.937111 208.464764 
L 412.596794 502.948712 
L 414.426635 501.542122 
L 416.256477 427.662194 
L 418.086318 525.02925 
L 419.91616 565.836096 
L 421.746001 555.242029 
L 423.575843 519.508986 
L 425.405684 525.699152 
L 427.235526 522.287422 
L 429.065367 472.860816 
L 430.895209 541.292312 
L 432.72505 488.614564 
L 434.554892 511.180318 
L 436.384733 494.941757 
L 438.214575 494.801737 
L 440.044416 424.250713 
L 441.874258 473.444381 
L 443.704099 495.135076 
L 445.533941 501.811763 
L 447.363782 512.881492 
L 449.193624 334.609479 
L 451.023465 462.516283 
L 452.853307 411.852615 
L 454.683148 492.648979 
L 456.51299 524.131302 
L 458.342831 541.665597 
L 460.172673 557.963271 
L 462.002514 524.227674 
L 463.832356 518.193031 
L 465.662197 537.798005 
L 467.492039 513.096722 
L 469.32188 407.63597 
L 471.151722 506.74451 
L 472.981563 482.171506 
L 474.811405 544.966681 
L 476.641246 529.21326 
L 478.471088 551.707604 
L 480.300929 615.426542 
L 482.130771 579.957548 
L 483.960612 641.189852 
L 485.790454 634.909876 
L 487.620295 631.21494 
L 489.450137 654.478809 
L 491.279978 621.908855 
L 493.10982 637.259675 
L 494.939661 598.299664 
L 496.769503 517.387157 
L 498.599344 529.417112 
L 500.429186 536.012028 
L 502.259027 521.965613 
L 504.088869 471.152063 
L 505.91871 540.450637 
L 507.748552 543.374618 
L 509.578393 539.921523 
L 511.408235 546.457135 
L 513.238076 529.281697 
L 515.067918 524.351425 
L 516.897759 545.103363 
L 518.727601 520.01314 
L 520.557442 590.184662 
L 522.387284 595.471652 
L 524.217125 565.564671 
L 526.046967 480.90929 
L 527.876808 539.587704 
L 529.70665 520.69369 
L 531.536491 496.079838 
L 533.366333 588.058151 
L 535.196174 584.527697 
L 537.026016 634.6255 
L 538.855857 668.201382 
L 540.685699 665.177192 
L 542.51554 666.536844 
L 544.345382 684.101126 
L 546.175223 699.670644 
L 548.005065 676.229931 
L 551.664748 691.21435 
L 553.494589 680.97452 
L 555.324431 684.275034 
L 557.154272 682.297848 
L 558.984114 678.797636 
L 560.813955 691.587923 
L 562.643797 681.937927 
L 564.473638 650.034291 
L 566.30348 628.657029 
L 568.133321 644.103339 
L 569.963163 623.592742 
L 571.793004 665.038994 
L 573.622846 689.941371 
L 575.452687 685.87834 
L 577.282529 686.827783 
L 579.11237 708.036159 
L 580.942212 690.164395 
L 582.772053 688.780756 
L 584.601895 673.756085 
L 586.431736 663.999174 
L 588.261578 563.902617 
L 590.091419 525.72137 
L 591.921261 483.790199 
L 593.751102 351.406375 
L 595.580944 311.089926 
L 597.410785 246.515642 
L 599.240627 199.42811 
L 601.070468 181.846425 
L 602.90031 177.124994 
L 604.730151 200.532347 
L 606.559993 184.117983 
L 608.389834 181.653183 
L 610.219676 222.71931 
L 612.049517 197.574464 
L 613.879359 193.579418 
L 615.7092 179.43949 
L 617.539042 184.338815 
L 619.368883 245.608369 
L 621.198725 226.145641 
L 623.028566 225.105217 
L 624.858408 189.851788 
L 626.688249 184.599247 
L 628.518091 181.883147 
L 630.347932 227.170217 
L 632.177774 199.402477 
L 634.007615 253.407367 
L 635.837457 197.971501 
L 637.667298 191.680339 
L 639.49714 188.202282 
L 641.326981 182.402707 
L 643.156823 179.738909 
L 644.986664 177.883421 
L 646.816506 177.695243 
L 648.646347 184.090892 
L 650.476189 181.061982 
L 652.30603 187.051999 
L 654.135872 185.060635 
L 655.965713 262.656603 
L 657.795555 308.203568 
L 659.625396 378.59458 
L 661.455238 270.216542 
L 663.285079 294.800233 
L 665.114921 214.367561 
L 666.944762 197.165761 
L 668.774604 188.307652 
L 670.604445 208.97097 
L 672.434287 198.903024 
L 674.264128 195.664794 
L 676.09397 289.806091 
L 677.923811 246.665255 
L 679.753653 237.720502 
L 683.413336 360.001327 
L 685.243177 498.360624 
L 687.073019 519.148633 
L 688.90286 529.332732 
L 690.732702 542.499406 
L 692.562543 524.717668 
L 694.392385 540.085717 
L 696.222226 501.429461 
L 698.052068 524.67235 
L 699.881909 530.524476 
L 701.711751 534.887953 
L 703.541592 517.599336 
L 705.371434 516.422384 
L 707.201275 537.222748 
L 709.031117 530.706591 
L 710.860958 536.56785 
L 712.6908 564.436259 
L 714.520641 574.000551 
L 716.350483 532.857008 
L 718.180324 538.110431 
L 720.010166 555.670148 
L 721.840007 594.162795 
L 723.669849 594.900078 
L 725.49969 543.595757 
L 727.329532 547.375305 
L 729.159373 529.361281 
L 730.989215 526.790611 
L 732.819056 521.211887 
L 734.648898 624.487966 
L 736.478739 634.404418 
L 738.308581 646.334318 
L 740.138422 607.210803 
L 741.968264 587.211775 
L 743.798105 580.965068 
L 745.627947 578.25952 
L 747.457788 605.351334 
L 749.28763 649.861415 
L 751.117471 663.992171 
L 752.947313 677.013276 
L 754.777154 698.570489 
L 756.606996 706.065353 
L 758.436837 589.219294 
L 760.266679 659.790405 
L 762.09652 617.286443 
L 763.926362 581.075848 
L 765.756203 526.85876 
L 767.586045 448.027629 
L 769.415886 376.487984 
L 771.245728 360.754228 
L 773.075569 228.081711 
L 774.905411 199.023513 
L 776.735252 178.459119 
L 778.565094 177.26605 
L 780.394935 175.881082 
L 782.224777 175.810477 
L 785.88446 176.090825 
L 787.714301 176.221827 
L 789.544143 176.191743 
L 791.373984 176.489589 
L 793.203826 176.639816 
L 795.033667 178.702706 
L 796.863509 178.01404 
L 798.69335 177.822716 
L 800.523192 177.424412 
L 802.353033 176.47612 
L 804.182875 176.017994 
L 806.012716 176.004334 
L 807.842558 191.693654 
L 809.672399 199.757113 
L 811.502241 184.454431 
L 813.332082 182.355931 
L 815.161924 178.477154 
L 816.991765 177.814427 
L 818.821607 176.776306 
L 820.651448 177.133052 
L 824.311131 177.435579 
L 826.140973 202.225674 
L 827.970814 196.123956 
L 829.800656 208.013699 
L 831.630497 209.869264 
L 833.460339 266.161943 
L 835.29018 208.399685 
L 837.120022 277.838835 
L 838.949863 203.939799 
L 840.779705 225.752096 
L 842.609546 219.422255 
L 844.439388 199.242005 
L 846.269229 239.938646 
L 848.099071 288.001292 
L 849.928912 364.619921 
L 851.758754 391.681459 
L 853.588595 501.56975 
L 855.418437 465.778189 
L 857.248278 469.71865 
L 859.07812 507.80178 
L 860.907961 490.457024 
L 862.737803 519.219199 
L 864.567644 426.906876 
L 866.397486 506.438952 
L 868.227327 531.699433 
L 870.057169 506.395477 
L 871.88701 538.27407 
L 873.716852 542.783495 
L 875.546693 550.906354 
L 877.376535 566.013971 
L 879.206376 507.592574 
L 881.036218 548.063549 
L 882.866059 532.286164 
L 884.695901 530.898605 
L 886.525742 529.13688 
L 888.355584 519.109839 
L 890.185425 528.166178 
L 892.015267 554.510003 
L 895.67495 516.317723 
L 897.504791 572.217644 
L 899.334633 573.417888 
L 901.164474 538.276602 
L 902.994316 552.972543 
L 904.824157 536.467506 
L 906.653999 536.070009 
L 908.48384 545.370971 
L 910.313682 578.051159 
L 912.143523 617.11372 
L 913.973365 617.724097 
L 915.803206 561.762695 
L 917.633048 590.065267 
L 919.462889 544.123855 
L 921.292731 540.43289 
L 923.122572 628.075326 
L 924.952414 558.176352 
L 926.782255 610.192755 
L 928.612097 636.010756 
L 930.441938 606.874663 
L 932.27178 654.542689 
L 934.101621 623.306083 
L 935.931463 572.463494 
L 937.761304 424.902273 
L 939.591146 523.019679 
L 941.420987 429.142978 
L 943.250829 497.312219 
L 946.910512 388.916588 
L 948.740353 435.438303 
L 950.570195 392.520429 
L 952.400036 249.474676 
L 954.229878 202.27598 
L 956.059719 176.819283 
L 957.889561 175.867882 
L 959.719402 191.163542 
L 961.549244 183.245015 
L 963.379085 181.421683 
L 965.208927 176.484216 
L 967.038768 176.41837 
L 972.528293 176.851745 
L 976.187976 176.032576 
L 978.017817 175.893208 
L 979.847659 194.4926 
L 981.6775 181.810432 
L 983.507342 335.897595 
L 985.337183 224.753804 
L 987.167025 318.260079 
L 988.996866 293.8826 
L 990.826708 223.349305 
L 992.656549 195.629492 
L 994.486391 178.296229 
L 996.316232 177.226105 
L 999.975915 177.410521 
L 1001.805757 177.834995 
L 1003.635598 192.740064 
L 1005.46544 189.283419 
L 1007.295281 272.917869 
L 1009.125123 275.758333 
L 1010.954964 296.432088 
L 1012.784806 213.879159 
L 1014.614647 234.499769 
L 1016.444489 190.420234 
L 1018.27433 191.168761 
L 1020.104172 190.876633 
L 1021.934013 197.698367 
L 1023.763855 193.691964 
L 1025.593696 189.3744 
L 1027.423538 224.620883 
L 1029.253379 207.307842 
L 1031.083221 197.814175 
L 1032.913062 186.386203 
L 1034.742904 295.427312 
L 1036.572745 270.56477 
L 1038.402587 255.841469 
L 1040.232428 199.968659 
L 1042.06227 253.62133 
L 1043.892111 322.151942 
L 1045.721953 331.154445 
L 1047.551794 384.478459 
L 1049.381636 444.552296 
L 1051.211478 421.041684 
L 1053.041319 329.806737 
L 1054.871161 369.591424 
L 1056.701002 323.55341 
L 1058.530844 423.073185 
L 1060.360685 467.207938 
L 1062.190527 310.854474 
L 1064.020368 248.547335 
L 1065.85021 203.902156 
L 1067.680051 182.010236 
L 1069.509893 193.667137 
L 1071.339734 196.182512 
L 1073.169576 194.135738 
L 1074.999417 184.690765 
L 1076.829259 180.989536 
L 1078.6591 218.176309 
L 1080.488942 198.232892 
L 1082.318783 197.510113 
L 1084.148625 181.842012 
L 1085.978466 181.44674 
L 1087.808308 181.305416 
L 1089.638149 238.870939 
L 1091.467991 200.491941 
L 1093.297832 195.392275 
L 1095.127674 179.591099 
L 1096.957515 178.882786 
L 1098.787357 179.384848 
L 1100.617198 286.556195 
L 1102.44704 216.425884 
L 1104.276881 280.568404 
L 1106.106723 217.614579 
L 1107.936564 302.3284 
L 1109.766406 256.077458 
L 1111.596247 355.509783 
L 1113.426089 364.462058 
L 1115.25593 488.267103 
L 1117.085772 460.791357 
L 1118.915613 511.183023 
L 1120.745455 515.923487 
L 1120.745455 515.923487 
" clip-path="url(#p11cbf81d68)" style="fill: none; stroke: #da70d6; stroke-linecap: square"/>
   </g>
   <g id="line2d_16">
    <path d="M 207.654545 632.381944 
L 209.484387 594.509094 
L 211.314228 674.714824 
L 213.14407 670.941858 
L 214.973911 675.393796 
L 216.803753 659.542914 
L 218.633594 592.106016 
L 220.463436 609.672419 
L 222.293277 654.005575 
L 224.123119 662.325906 
L 225.95296 674.569163 
L 227.782802 671.593168 
L 229.612643 636.728863 
L 231.442485 622.591045 
L 233.272326 635.916677 
L 235.102168 645.160474 
L 236.932009 635.446972 
L 240.591692 566.880012 
L 242.421534 434.215687 
L 244.251375 494.544931 
L 246.081217 249.2596 
L 247.911058 179.990285 
L 249.7409 164.467231 
L 251.570741 164.608057 
L 253.400583 164.337341 
L 255.230424 164.244749 
L 257.060266 172.713226 
L 258.890107 166.175255 
L 260.719949 164.127905 
L 262.54979 163.96302 
L 264.379632 164.366811 
L 268.039315 164.503915 
L 269.869156 164.49954 
L 271.698998 169.244149 
L 273.528839 175.793632 
L 275.358681 227.216763 
L 277.188522 178.898289 
L 279.018364 170.243322 
L 280.848206 237.56072 
L 282.678047 260.178872 
L 284.507889 190.909864 
L 286.33773 166.176329 
L 288.167572 164.389527 
L 289.997413 164.270688 
L 291.827255 164.268079 
L 293.657096 164.952639 
L 295.486938 165.142658 
L 297.316779 204.670521 
L 299.146621 176.809958 
L 300.976462 166.412625 
L 302.806304 165.245151 
L 304.636145 186.998163 
L 306.465987 198.517192 
L 308.295828 314.777034 
L 310.12567 206.580881 
L 311.955511 321.189912 
L 313.785353 337.134638 
L 317.445036 205.224961 
L 319.274877 186.822955 
L 321.104719 296.341568 
L 324.764402 406.846539 
L 326.594243 421.601918 
L 328.424085 387.977313 
L 330.253926 442.976638 
L 332.083768 485.729971 
L 333.913609 500.593906 
L 335.743451 454.485422 
L 337.573292 490.156436 
L 339.403134 439.391004 
L 341.232975 486.375104 
L 343.062817 455.213055 
L 344.892658 346.915023 
L 346.7225 461.481481 
L 348.552341 384.263651 
L 350.382183 460.67035 
L 352.212024 475.619528 
L 354.041866 492.850663 
L 355.871707 475.118522 
L 357.701549 489.09554 
L 359.53139 464.803727 
L 361.361232 500.61549 
L 363.191073 464.153241 
L 365.020915 461.522251 
L 366.850756 415.186584 
L 368.680598 456.590636 
L 370.510439 375.867505 
L 372.340281 376.188834 
L 374.170122 226.209492 
L 375.999964 176.994835 
L 377.829805 185.519912 
L 379.659647 170.324134 
L 381.489488 166.706403 
L 385.149171 290.510719 
L 386.979013 295.589127 
L 388.808854 216.443075 
L 390.638696 169.503123 
L 392.468537 165.383406 
L 394.298379 165.25931 
L 396.12822 166.850298 
L 397.958062 167.270359 
L 399.787903 167.329491 
L 401.617745 188.711904 
L 403.447586 172.111703 
L 405.277428 181.65395 
L 407.107269 245.35753 
L 408.937111 215.042566 
L 410.766952 365.31795 
L 412.596794 489.747254 
L 414.426635 452.664181 
L 416.256477 439.75201 
L 418.086318 515.876059 
L 419.91616 576.758323 
L 421.746001 569.284779 
L 423.575843 498.179508 
L 425.405684 499.456938 
L 427.235526 516.772415 
L 429.065367 438.109469 
L 430.895209 529.994115 
L 432.72505 448.752556 
L 434.554892 491.147762 
L 436.384733 440.242925 
L 438.214575 463.394796 
L 440.044416 396.085744 
L 441.874258 444.869021 
L 443.704099 489.767495 
L 445.533941 476.759931 
L 447.363782 483.695995 
L 449.193624 303.248949 
L 451.023465 440.465944 
L 452.853307 382.161583 
L 454.683148 473.685607 
L 456.51299 512.251421 
L 458.342831 526.953194 
L 460.172673 529.750375 
L 462.002514 466.444945 
L 463.832356 474.189684 
L 465.662197 511.777984 
L 467.492039 470.504935 
L 469.32188 384.505204 
L 471.151722 477.602585 
L 472.981563 462.559644 
L 474.811405 515.108865 
L 476.641246 486.888774 
L 478.471088 541.323624 
L 480.300929 609.829793 
L 482.130771 590.039557 
L 483.960612 631.489829 
L 485.790454 619.841917 
L 487.620295 619.378544 
L 489.450137 639.074479 
L 491.279978 614.826094 
L 493.10982 616.760696 
L 494.939661 580.546101 
L 496.769503 461.67762 
L 498.599344 489.345861 
L 500.429186 510.015626 
L 502.259027 501.406687 
L 504.088869 442.058237 
L 505.91871 514.365288 
L 507.748552 520.926417 
L 509.578393 511.894367 
L 511.408235 503.674504 
L 513.238076 498.48685 
L 515.067918 492.782207 
L 516.897759 522.198878 
L 518.727601 476.076253 
L 520.557442 566.407267 
L 522.387284 565.929533 
L 524.217125 509.139588 
L 526.046967 433.40047 
L 527.876808 499.623972 
L 529.70665 494.886789 
L 531.536491 455.501364 
L 533.366333 560.458558 
L 535.196174 566.416937 
L 537.026016 618.298433 
L 538.855857 646.393661 
L 540.685699 647.426871 
L 542.51554 643.310157 
L 544.345382 664.099287 
L 546.175223 688.237511 
L 548.005065 664.223067 
L 549.834906 677.130518 
L 551.664748 674.780081 
L 553.494589 663.774822 
L 555.324431 669.23064 
L 557.154272 667.68894 
L 558.984114 656.460206 
L 560.813955 671.359453 
L 562.643797 675.152718 
L 564.473638 633.851667 
L 566.30348 585.184917 
L 568.133321 616.36362 
L 569.963163 617.839396 
L 571.793004 655.374225 
L 573.622846 677.724989 
L 575.452687 672.870004 
L 577.282529 673.872238 
L 579.11237 683.577398 
L 580.942212 664.982078 
L 582.772053 678.79119 
L 584.601895 601.837025 
L 586.431736 633.321871 
L 588.261578 555.674023 
L 590.091419 537.77573 
L 593.751102 424.121437 
L 597.410785 266.185427 
L 599.240627 184.062228 
L 601.070468 165.5278 
L 602.90031 164.711317 
L 604.730151 211.852378 
L 606.559993 178.139363 
L 608.389834 165.184868 
L 610.219676 230.081094 
L 612.049517 189.335183 
L 613.879359 168.725049 
L 615.7092 165.058585 
L 617.539042 178.176009 
L 619.368883 258.870226 
L 621.198725 251.885218 
L 623.028566 236.678044 
L 624.858408 175.106002 
L 626.688249 171.999158 
L 628.518091 171.621575 
L 630.347932 231.447759 
L 632.177774 214.987195 
L 634.007615 274.660926 
L 635.837457 196.951491 
L 637.667298 176.452636 
L 639.49714 178.400946 
L 641.326981 167.541574 
L 643.156823 164.802067 
L 644.986664 165.481025 
L 646.816506 165.709186 
L 648.646347 176.204099 
L 650.476189 168.750183 
L 652.30603 181.278824 
L 654.135872 172.127666 
L 655.965713 261.428885 
L 657.795555 318.424658 
L 659.625396 390.466787 
L 661.455238 271.104513 
L 663.285079 304.535108 
L 665.114921 234.830115 
L 666.944762 184.669737 
L 668.774604 171.968959 
L 670.604445 214.920082 
L 672.434287 190.624183 
L 674.264128 177.057574 
L 676.09397 293.395964 
L 677.923811 257.011169 
L 679.753653 238.795614 
L 681.583494 315.356378 
L 683.413336 366.42046 
L 685.243177 489.865171 
L 687.073019 505.562877 
L 690.732702 510.945001 
L 692.562543 495.1991 
L 694.392385 511.673977 
L 696.222226 457.009104 
L 698.052068 496.708778 
L 699.881909 499.304485 
L 701.711751 510.318171 
L 703.541592 466.185932 
L 705.371434 482.036033 
L 707.201275 507.1092 
L 709.031117 507.7202 
L 710.860958 511.284403 
L 712.6908 534.713628 
L 714.520641 548.721996 
L 716.350483 517.311736 
L 718.180324 518.395866 
L 720.010166 536.824176 
L 721.840007 585.122082 
L 723.669849 580.205471 
L 725.49969 501.417815 
L 727.329532 499.879492 
L 729.159373 505.021464 
L 730.989215 509.658726 
L 732.819056 491.345015 
L 734.648898 608.17974 
L 736.478739 623.366145 
L 738.308581 595.859633 
L 740.138422 559.586108 
L 741.968264 542.905346 
L 743.798105 538.827589 
L 745.627947 548.795038 
L 747.457788 572.613108 
L 749.28763 645.376011 
L 751.117471 659.850074 
L 752.947313 644.357737 
L 754.777154 665.583112 
L 756.606996 664.928213 
L 758.436837 514.425974 
L 760.266679 554.045488 
L 762.09652 554.364207 
L 763.926362 535.03394 
L 765.756203 508.216027 
L 767.586045 460.035789 
L 771.245728 355.424022 
L 773.075569 209.1202 
L 774.905411 178.342275 
L 776.735252 165.94905 
L 778.565094 164.46512 
L 787.714301 163.999589 
L 789.544143 164.004347 
L 791.373984 164.485726 
L 793.203826 164.617727 
L 795.033667 167.085328 
L 796.863509 165.311496 
L 798.69335 165.034717 
L 800.523192 165.498753 
L 802.353033 164.459787 
L 804.182875 164.17376 
L 806.012716 164.73787 
L 809.672399 208.652251 
L 811.502241 173.239041 
L 813.332082 168.222297 
L 815.161924 165.182028 
L 816.991765 164.440908 
L 818.821607 164.376519 
L 820.651448 165.154707 
L 822.48129 165.368134 
L 824.311131 165.402976 
L 826.140973 194.634539 
L 827.970814 204.309937 
L 829.800656 211.901993 
L 831.630497 212.205671 
L 833.460339 269.658035 
L 835.29018 196.291949 
L 837.120022 271.787155 
L 838.949863 195.130461 
L 840.779705 221.522289 
L 842.609546 233.76237 
L 844.439388 183.454259 
L 846.269229 227.10675 
L 848.099071 292.098446 
L 849.928912 374.931377 
L 851.758754 393.600453 
L 853.588595 496.103744 
L 855.418437 443.92257 
L 857.248278 444.133387 
L 859.07812 473.412858 
L 860.907961 455.045886 
L 862.737803 501.26377 
L 864.567644 415.048367 
L 866.397486 491.178748 
L 868.227327 514.44869 
L 870.057169 477.076291 
L 871.88701 507.178039 
L 873.716852 510.803829 
L 875.546693 531.550453 
L 877.376535 523.835932 
L 879.206376 458.752142 
L 881.036218 503.457835 
L 882.866059 507.522277 
L 884.695901 508.192524 
L 886.525742 484.829875 
L 888.355584 474.559381 
L 890.185425 498.105085 
L 892.015267 545.704253 
L 893.845108 535.253525 
L 895.67495 476.117388 
L 897.504791 545.491191 
L 899.334633 569.83214 
L 901.164474 515.459011 
L 902.994316 518.054488 
L 904.824157 511.210344 
L 906.653999 519.935033 
L 908.48384 525.184197 
L 910.313682 553.122118 
L 912.143523 587.526197 
L 913.973365 577.72584 
L 915.803206 516.15349 
L 917.633048 542.668416 
L 919.462889 508.990551 
L 921.292731 512.660085 
L 923.122572 611.5158 
L 924.952414 506.939863 
L 926.782255 555.623142 
L 928.612097 567.646958 
L 930.441938 570.281958 
L 932.27178 625.13166 
L 934.101621 570.750521 
L 935.931463 524.714502 
L 937.761304 413.646938 
L 939.591146 490.34446 
L 941.420987 419.604415 
L 943.250829 473.968046 
L 945.08067 421.618648 
L 946.910512 358.601355 
L 948.740353 434.611362 
L 950.570195 381.370195 
L 952.400036 223.809925 
L 954.229878 173.472152 
L 956.059719 164.497315 
L 957.889561 164.351922 
L 959.719402 188.98592 
L 961.549244 170.600644 
L 963.379085 164.487798 
L 965.208927 164.053387 
L 967.038768 164.493286 
L 968.86861 164.629315 
L 972.528293 164.647504 
L 974.358134 164.276061 
L 976.187976 164.170345 
L 978.017817 164.273605 
L 979.847659 190.245104 
L 981.6775 172.119723 
L 983.507342 331.681334 
L 985.337183 212.987197 
L 987.167025 310.616528 
L 988.996866 300.793051 
L 990.826708 214.900512 
L 992.656549 169.221701 
L 994.486391 164.502572 
L 996.316232 165.161499 
L 998.146074 165.376767 
L 1001.805757 165.412569 
L 1003.635598 191.813721 
L 1005.46544 182.206702 
L 1007.295281 276.168263 
L 1009.125123 283.779467 
L 1010.954964 309.158384 
L 1012.784806 211.482355 
L 1014.614647 239.805839 
L 1016.444489 183.456331 
L 1018.27433 177.949152 
L 1020.104172 179.357143 
L 1021.934013 189.011207 
L 1023.763855 179.788946 
L 1025.593696 172.997065 
L 1027.423538 225.206021 
L 1029.253379 220.433132 
L 1031.083221 187.542971 
L 1032.913062 169.080261 
L 1034.742904 287.48534 
L 1036.572745 256.5385 
L 1038.402587 248.763984 
L 1040.232428 189.741622 
L 1042.06227 263.17812 
L 1043.892111 343.865507 
L 1045.721953 348.801324 
L 1047.551794 393.587598 
L 1049.381636 433.567773 
L 1051.211478 406.143943 
L 1053.041319 305.900046 
L 1054.871161 372.986904 
L 1056.701002 332.615429 
L 1058.530844 424.238626 
L 1060.360685 451.492179 
L 1062.190527 281.529666 
L 1064.020368 199.472813 
L 1065.85021 165.407081 
L 1067.680051 165.630254 
L 1069.509893 193.205558 
L 1071.339734 201.471852 
L 1073.169576 189.706741 
L 1074.999417 169.881818 
L 1076.829259 165.560455 
L 1078.6591 222.546098 
L 1080.488942 182.935774 
L 1082.318783 168.04943 
L 1084.148625 166.864803 
L 1085.978466 167.047186 
L 1087.808308 167.093655 
L 1089.638149 236.335994 
L 1091.467991 187.201228 
L 1093.297832 169.042349 
L 1095.127674 165.57143 
L 1096.957515 166.498272 
L 1098.787357 167.71563 
L 1100.617198 274.205448 
L 1102.44704 205.473612 
L 1104.276881 269.588427 
L 1106.106723 233.518438 
L 1107.936564 308.578733 
L 1109.766406 257.576814 
L 1111.596247 359.199271 
L 1113.426089 364.307072 
L 1115.25593 478.496542 
L 1117.085772 438.313359 
L 1118.915613 483.870761 
L 1120.745455 494.697671 
L 1120.745455 494.697671 
" clip-path="url(#p11cbf81d68)" style="fill: none; stroke: #8fbc8f; stroke-linecap: square"/>
   </g>
   <g id="patch_3">
    <path d="M 162 768.96 
L 162 103.68 
" style="fill: none; stroke: #000000; stroke-width: 0.8; stroke-linejoin: miter; stroke-linecap: square"/>
   </g>
   <g id="patch_4">
    <path d="M 1166.4 768.96 
L 1166.4 103.68 
" style="fill: none; stroke: #000000; stroke-width: 0.8; stroke-linejoin: miter; stroke-linecap: square"/>
   </g>
   <g id="patch_5">
    <path d="M 162 768.96 
L 1166.4 768.96 
" style="fill: none; stroke: #000000; stroke-width: 0.8; stroke-linejoin: miter; stroke-linecap: square"/>
   </g>
   <g id="patch_6">
    <path d="M 162 103.68 
L 1166.4 103.68 
" style="fill: none; stroke: #000000; stroke-width: 0.8; stroke-linejoin: miter; stroke-linecap: square"/>
   </g>
   <g id="text_13">
    <!-- Function 1 -->
    <g transform="translate(632.957813 97.68) scale(0.12 -0.12)">
     <defs>
      <path id="DejaVuSans-46" d="M 628 4666 
L 3309 4666 
L 3309 4134 
L 1259 4134 
L 1259 2759 
L 3109 2759 
L 3109 2228 
L 1259 2228 
L 1259 0 
L 628 0 
L 628 4666 
z
" transform="scale(0.015625)"/>
      <path id="DejaVuSans-75" d="M 544 1381 
L 544 3500 
L 1119 3500 
L 1119 1403 
Q 1119 906 1312 657 
Q 1506 409 1894 409 
Q 2359 409 2629 706 
Q 2900 1003 2900 1516 
L 2900 3500 
L 3475 3500 
L 3475 0 
L 2900 0 
L 2900 538 
Q 2691 219 2414 64 
Q 2138 -91 1772 -91 
Q 1169 -91 856 284 
Q 544 659 544 1381 
z
M 1991 3584 
L 1991 3584 
z
" transform="scale(0.015625)"/>
      <path id="DejaVuSans-6e" d="M 3513 2113 
L 3513 0 
L 2938 0 
L 2938 2094 
Q 2938 2591 2744 2837 
Q 2550 3084 2163 3084 
Q 1697 3084 1428 2787 
Q 1159 2491 1159 1978 
L 1159 0 
L 581 0 
L 581 3500 
L 1159 3500 
L 1159 2956 
Q 1366 3272 1645 3428 
Q 1925 3584 2291 3584 
Q 2894 3584 3203 3211 
Q 3513 2838 3513 2113 
z
" transform="scale(0.015625)"/>
      <path id="DejaVuSans-63" d="M 3122 3366 
L 3122 2828 
Q 2878 2963 2633 3030 
Q 2388 3097 2138 3097 
Q 1578 3097 1268 2742 
Q 959 2388 959 1747 
Q 959 1106 1268 751 
Q 1578 397 2138 397 
Q 2388 397 2633 464 
Q 2878 531 3122 666 
L 3122 134 
Q 2881 22 2623 -34 
Q 2366 -91 2075 -91 
Q 1284 -91 818 406 
Q 353 903 353 1747 
Q 353 2603 823 3093 
Q 1294 3584 2113 3584 
Q 2378 3584 2631 3529 
Q 2884 3475 3122 3366 
z
" transform="scale(0.015625)"/>
      <path id="DejaVuSans-74" d="M 1172 4494 
L 1172 3500 
L 2356 3500 
L 2356 3053 
L 1172 3053 
L 1172 1153 
Q 1172 725 1289 603 
Q 1406 481 1766 481 
L 2356 481 
L 2356 0 
L 1766 0 
Q 1100 0 847 248 
Q 594 497 594 1153 
L 594 3053 
L 172 3053 
L 172 3500 
L 594 3500 
L 594 4494 
L 1172 4494 
z
" transform="scale(0.015625)"/>
      <path id="DejaVuSans-69" d="M 603 3500 
L 1178 3500 
L 1178 0 
L 603 0 
L 603 3500 
z
M 603 4863 
L 1178 4863 
L 1178 4134 
L 603 4134 
L 603 4863 
z
" transform="scale(0.015625)"/>
      <path id="DejaVuSans-6f" d="M 1959 3097 
Q 1497 3097 1228 2736 
Q 959 2375 959 1747 
Q 959 1119 1226 758 
Q 1494 397 1959 397 
Q 2419 397 2687 759 
Q 2956 1122 2956 1747 
Q 2956 2369 2687 2733 
Q 2419 3097 1959 3097 
z
M 1959 3584 
Q 2709 3584 3137 3096 
Q 3566 2609 3566 1747 
Q 3566 888 3137 398 
Q 2709 -91 1959 -91 
Q 1206 -91 779 398 
Q 353 888 353 1747 
Q 353 2609 779 3096 
Q 1206 3584 1959 3584 
z
" transform="scale(0.015625)"/>
      <path id="DejaVuSans-20" transform="scale(0.015625)"/>
     </defs>
     <use xlink:href="#DejaVuSans-46"/>
     <use xlink:href="#DejaVuSans-75" x="52.019531"/>
     <use xlink:href="#DejaVuSans-6e" x="115.398438"/>
     <use xlink:href="#DejaVuSans-63" x="178.777344"/>
     <use xlink:href="#DejaVuSans-74" x="233.757812"/>
     <use xlink:href="#DejaVuSans-69" x="272.966797"/>
     <use xlink:href="#DejaVuSans-6f" x="300.75"/>
     <use xlink:href="#DejaVuSans-6e" x="361.931641"/>
     <use xlink:href="#DejaVuSans-20" x="425.310547"/>
     <use xlink:href="#DejaVuSans-31" x="457.097656"/>
    </g>
   </g>
   <g id="legend_1">
    <g id="patch_7">
     <path d="M 1011.90625 763.96 
L 1159.4 763.96 
Q 1161.4 763.96 1161.4 761.96 
L 1161.4 704.2475 
Q 1161.4 702.2475 1159.4 702.2475 
L 1011.90625 702.2475 
Q 1009.90625 702.2475 1009.90625 704.2475 
L 1009.90625 761.96 
Q 1009.90625 763.96 1011.90625 763.96 
z
" style="fill: #ffffff; opacity: 0.8; stroke: #cccccc; stroke-linejoin: miter"/>
    </g>
    <g id="line2d_17">
     <path d="M 1013.90625 710.345937 
L 1023.90625 710.345937 
L 1033.90625 710.345937 
" style="fill: none; stroke: #4169e1; stroke-linecap: square"/>
    </g>
    <g id="text_14">
     <!-- Truth -->
     <g transform="translate(1041.90625 713.845937) scale(0.1 -0.1)">
      <defs>
       <path id="DejaVuSans-54" d="M -19 4666 
L 3928 4666 
L 3928 4134 
L 2272 4134 
L 2272 0 
L 1638 0 
L 1638 4134 
L -19 4134 
L -19 4666 
z
" transform="scale(0.015625)"/>
       <path id="DejaVuSans-72" d="M 2631 2963 
Q 2534 3019 2420 3045 
Q 2306 3072 2169 3072 
Q 1681 3072 1420 2755 
Q 1159 2438 1159 1844 
L 1159 0 
L 581 0 
L 581 3500 
L 1159 3500 
L 1159 2956 
Q 1341 3275 1631 3429 
Q 1922 3584 2338 3584 
Q 2397 3584 2469 3576 
Q 2541 3569 2628 3553 
L 2631 2963 
z
" transform="scale(0.015625)"/>
       <path id="DejaVuSans-68" d="M 3513 2113 
L 3513 0 
L 2938 0 
L 2938 2094 
Q 2938 2591 2744 2837 
Q 2550 3084 2163 3084 
Q 1697 3084 1428 2787 
Q 1159 2491 1159 1978 
L 1159 0 
L 581 0 
L 581 4863 
L 1159 4863 
L 1159 2956 
Q 1366 3272 1645 3428 
Q 1925 3584 2291 3584 
Q 2894 3584 3203 3211 
Q 3513 2838 3513 2113 
z
" transform="scale(0.015625)"/>
      </defs>
      <use xlink:href="#DejaVuSans-54"/>
      <use xlink:href="#DejaVuSans-72" x="46.333984"/>
      <use xlink:href="#DejaVuSans-75" x="87.447266"/>
      <use xlink:href="#DejaVuSans-74" x="150.826172"/>
      <use xlink:href="#DejaVuSans-68" x="190.035156"/>
     </g>
    </g>
    <g id="line2d_18">
     <path d="M 1013.90625 725.024063 
L 1023.90625 725.024063 
L 1033.90625 725.024063 
" style="fill: none; stroke: #ff6347; stroke-linecap: square"/>
    </g>
    <g id="text_15">
     <!-- Gossip predictions -->
     <g transform="translate(1041.90625 728.524063) scale(0.1 -0.1)">
      <defs>
       <path id="DejaVuSans-47" d="M 3809 666 
L 3809 1919 
L 2778 1919 
L 2778 2438 
L 4434 2438 
L 4434 434 
Q 4069 175 3628 42 
Q 3188 -91 2688 -91 
Q 1594 -91 976 548 
Q 359 1188 359 2328 
Q 359 3472 976 4111 
Q 1594 4750 2688 4750 
Q 3144 4750 3555 4637 
Q 3966 4525 4313 4306 
L 4313 3634 
Q 3963 3931 3569 4081 
Q 3175 4231 2741 4231 
Q 1884 4231 1454 3753 
Q 1025 3275 1025 2328 
Q 1025 1384 1454 906 
Q 1884 428 2741 428 
Q 3075 428 3337 486 
Q 3600 544 3809 666 
z
" transform="scale(0.015625)"/>
       <path id="DejaVuSans-73" d="M 2834 3397 
L 2834 2853 
Q 2591 2978 2328 3040 
Q 2066 3103 1784 3103 
Q 1356 3103 1142 2972 
Q 928 2841 928 2578 
Q 928 2378 1081 2264 
Q 1234 2150 1697 2047 
L 1894 2003 
Q 2506 1872 2764 1633 
Q 3022 1394 3022 966 
Q 3022 478 2636 193 
Q 2250 -91 1575 -91 
Q 1294 -91 989 -36 
Q 684 19 347 128 
L 347 722 
Q 666 556 975 473 
Q 1284 391 1588 391 
Q 1994 391 2212 530 
Q 2431 669 2431 922 
Q 2431 1156 2273 1281 
Q 2116 1406 1581 1522 
L 1381 1569 
Q 847 1681 609 1914 
Q 372 2147 372 2553 
Q 372 3047 722 3315 
Q 1072 3584 1716 3584 
Q 2034 3584 2315 3537 
Q 2597 3491 2834 3397 
z
" transform="scale(0.015625)"/>
       <path id="DejaVuSans-70" d="M 1159 525 
L 1159 -1331 
L 581 -1331 
L 581 3500 
L 1159 3500 
L 1159 2969 
Q 1341 3281 1617 3432 
Q 1894 3584 2278 3584 
Q 2916 3584 3314 3078 
Q 3713 2572 3713 1747 
Q 3713 922 3314 415 
Q 2916 -91 2278 -91 
Q 1894 -91 1617 61 
Q 1341 213 1159 525 
z
M 3116 1747 
Q 3116 2381 2855 2742 
Q 2594 3103 2138 3103 
Q 1681 3103 1420 2742 
Q 1159 2381 1159 1747 
Q 1159 1113 1420 752 
Q 1681 391 2138 391 
Q 2594 391 2855 752 
Q 3116 1113 3116 1747 
z
" transform="scale(0.015625)"/>
       <path id="DejaVuSans-65" d="M 3597 1894 
L 3597 1613 
L 953 1613 
Q 991 1019 1311 708 
Q 1631 397 2203 397 
Q 2534 397 2845 478 
Q 3156 559 3463 722 
L 3463 178 
Q 3153 47 2828 -22 
Q 2503 -91 2169 -91 
Q 1331 -91 842 396 
Q 353 884 353 1716 
Q 353 2575 817 3079 
Q 1281 3584 2069 3584 
Q 2775 3584 3186 3129 
Q 3597 2675 3597 1894 
z
M 3022 2063 
Q 3016 2534 2758 2815 
Q 2500 3097 2075 3097 
Q 1594 3097 1305 2825 
Q 1016 2553 972 2059 
L 3022 2063 
z
" transform="scale(0.015625)"/>
       <path id="DejaVuSans-64" d="M 2906 2969 
L 2906 4863 
L 3481 4863 
L 3481 0 
L 2906 0 
L 2906 525 
Q 2725 213 2448 61 
Q 2172 -91 1784 -91 
Q 1150 -91 751 415 
Q 353 922 353 1747 
Q 353 2572 751 3078 
Q 1150 3584 1784 3584 
Q 2172 3584 2448 3432 
Q 2725 3281 2906 2969 
z
M 947 1747 
Q 947 1113 1208 752 
Q 1469 391 1925 391 
Q 2381 391 2643 752 
Q 2906 1113 2906 1747 
Q 2906 2381 2643 2742 
Q 2381 3103 1925 3103 
Q 1469 3103 1208 2742 
Q 947 2381 947 1747 
z
" transform="scale(0.015625)"/>
      </defs>
      <use xlink:href="#DejaVuSans-47"/>
      <use xlink:href="#DejaVuSans-6f" x="77.490234"/>
      <use xlink:href="#DejaVuSans-73" x="138.671875"/>
      <use xlink:href="#DejaVuSans-73" x="190.771484"/>
      <use xlink:href="#DejaVuSans-69" x="242.871094"/>
      <use xlink:href="#DejaVuSans-70" x="270.654297"/>
      <use xlink:href="#DejaVuSans-20" x="334.130859"/>
      <use xlink:href="#DejaVuSans-70" x="365.917969"/>
      <use xlink:href="#DejaVuSans-72" x="429.394531"/>
      <use xlink:href="#DejaVuSans-65" x="468.257812"/>
      <use xlink:href="#DejaVuSans-64" x="529.78125"/>
      <use xlink:href="#DejaVuSans-69" x="593.257812"/>
      <use xlink:href="#DejaVuSans-63" x="621.041016"/>
      <use xlink:href="#DejaVuSans-74" x="676.021484"/>
      <use xlink:href="#DejaVuSans-69" x="715.230469"/>
      <use xlink:href="#DejaVuSans-6f" x="743.013672"/>
      <use xlink:href="#DejaVuSans-6e" x="804.195312"/>
      <use xlink:href="#DejaVuSans-73" x="867.574219"/>
     </g>
    </g>
    <g id="line2d_19">
     <path d="M 1013.90625 739.702188 
L 1023.90625 739.702188 
L 1033.90625 739.702188 
" style="fill: none; stroke: #da70d6; stroke-linecap: square"/>
    </g>
    <g id="text_16">
     <!-- Centralized predictions -->
     <g transform="translate(1041.90625 743.202188) scale(0.1 -0.1)">
      <defs>
       <path id="DejaVuSans-43" d="M 4122 4306 
L 4122 3641 
Q 3803 3938 3442 4084 
Q 3081 4231 2675 4231 
Q 1875 4231 1450 3742 
Q 1025 3253 1025 2328 
Q 1025 1406 1450 917 
Q 1875 428 2675 428 
Q 3081 428 3442 575 
Q 3803 722 4122 1019 
L 4122 359 
Q 3791 134 3420 21 
Q 3050 -91 2638 -91 
Q 1578 -91 968 557 
Q 359 1206 359 2328 
Q 359 3453 968 4101 
Q 1578 4750 2638 4750 
Q 3056 4750 3426 4639 
Q 3797 4528 4122 4306 
z
" transform="scale(0.015625)"/>
       <path id="DejaVuSans-61" d="M 2194 1759 
Q 1497 1759 1228 1600 
Q 959 1441 959 1056 
Q 959 750 1161 570 
Q 1363 391 1709 391 
Q 2188 391 2477 730 
Q 2766 1069 2766 1631 
L 2766 1759 
L 2194 1759 
z
M 3341 1997 
L 3341 0 
L 2766 0 
L 2766 531 
Q 2569 213 2275 61 
Q 1981 -91 1556 -91 
Q 1019 -91 701 211 
Q 384 513 384 1019 
Q 384 1609 779 1909 
Q 1175 2209 1959 2209 
L 2766 2209 
L 2766 2266 
Q 2766 2663 2505 2880 
Q 2244 3097 1772 3097 
Q 1472 3097 1187 3025 
Q 903 2953 641 2809 
L 641 3341 
Q 956 3463 1253 3523 
Q 1550 3584 1831 3584 
Q 2591 3584 2966 3190 
Q 3341 2797 3341 1997 
z
" transform="scale(0.015625)"/>
       <path id="DejaVuSans-6c" d="M 603 4863 
L 1178 4863 
L 1178 0 
L 603 0 
L 603 4863 
z
" transform="scale(0.015625)"/>
       <path id="DejaVuSans-7a" d="M 353 3500 
L 3084 3500 
L 3084 2975 
L 922 459 
L 3084 459 
L 3084 0 
L 275 0 
L 275 525 
L 2438 3041 
L 353 3041 
L 353 3500 
z
" transform="scale(0.015625)"/>
      </defs>
      <use xlink:href="#DejaVuSans-43"/>
      <use xlink:href="#DejaVuSans-65" x="69.824219"/>
      <use xlink:href="#DejaVuSans-6e" x="131.347656"/>
      <use xlink:href="#DejaVuSans-74" x="194.726562"/>
      <use xlink:href="#DejaVuSans-72" x="233.935547"/>
      <use xlink:href="#DejaVuSans-61" x="275.048828"/>
      <use xlink:href="#DejaVuSans-6c" x="336.328125"/>
      <use xlink:href="#DejaVuSans-69" x="364.111328"/>
      <use xlink:href="#DejaVuSans-7a" x="391.894531"/>
      <use xlink:href="#DejaVuSans-65" x="444.384766"/>
      <use xlink:href="#DejaVuSans-64" x="505.908203"/>
      <use xlink:href="#DejaVuSans-20" x="569.384766"/>
      <use xlink:href="#DejaVuSans-70" x="601.171875"/>
      <use xlink:href="#DejaVuSans-72" x="664.648438"/>
      <use xlink:href="#DejaVuSans-65" x="703.511719"/>
      <use xlink:href="#DejaVuSans-64" x="765.035156"/>
      <use xlink:href="#DejaVuSans-69" x="828.511719"/>
      <use xlink:href="#DejaVuSans-63" x="856.294922"/>
      <use xlink:href="#DejaVuSans-74" x="911.275391"/>
      <use xlink:href="#DejaVuSans-69" x="950.484375"/>
      <use xlink:href="#DejaVuSans-6f" x="978.267578"/>
      <use xlink:href="#DejaVuSans-6e" x="1039.449219"/>
      <use xlink:href="#DejaVuSans-73" x="1102.828125"/>
     </g>
    </g>
    <g id="line2d_20">
     <path d="M 1013.90625 754.380312 
L 1023.90625 754.380312 
L 1033.90625 754.380312 
" style="fill: none; stroke: #8fbc8f; stroke-linecap: square"/>
    </g>
    <g id="text_17">
     <!-- Single predictions -->
     <g transform="translate(1041.90625 757.880312) scale(0.1 -0.1)">
      <defs>
       <path id="DejaVuSans-53" d="M 3425 4513 
L 3425 3897 
Q 3066 4069 2747 4153 
Q 2428 4238 2131 4238 
Q 1616 4238 1336 4038 
Q 1056 3838 1056 3469 
Q 1056 3159 1242 3001 
Q 1428 2844 1947 2747 
L 2328 2669 
Q 3034 2534 3370 2195 
Q 3706 1856 3706 1288 
Q 3706 609 3251 259 
Q 2797 -91 1919 -91 
Q 1588 -91 1214 -16 
Q 841 59 441 206 
L 441 856 
Q 825 641 1194 531 
Q 1563 422 1919 422 
Q 2459 422 2753 634 
Q 3047 847 3047 1241 
Q 3047 1584 2836 1778 
Q 2625 1972 2144 2069 
L 1759 2144 
Q 1053 2284 737 2584 
Q 422 2884 422 3419 
Q 422 4038 858 4394 
Q 1294 4750 2059 4750 
Q 2388 4750 2728 4690 
Q 3069 4631 3425 4513 
z
" transform="scale(0.015625)"/>
       <path id="DejaVuSans-67" d="M 2906 1791 
Q 2906 2416 2648 2759 
Q 2391 3103 1925 3103 
Q 1463 3103 1205 2759 
Q 947 2416 947 1791 
Q 947 1169 1205 825 
Q 1463 481 1925 481 
Q 2391 481 2648 825 
Q 2906 1169 2906 1791 
z
M 3481 434 
Q 3481 -459 3084 -895 
Q 2688 -1331 1869 -1331 
Q 1566 -1331 1297 -1286 
Q 1028 -1241 775 -1147 
L 775 -588 
Q 1028 -725 1275 -790 
Q 1522 -856 1778 -856 
Q 2344 -856 2625 -561 
Q 2906 -266 2906 331 
L 2906 616 
Q 2728 306 2450 153 
Q 2172 0 1784 0 
Q 1141 0 747 490 
Q 353 981 353 1791 
Q 353 2603 747 3093 
Q 1141 3584 1784 3584 
Q 2172 3584 2450 3431 
Q 2728 3278 2906 2969 
L 2906 3500 
L 3481 3500 
L 3481 434 
z
" transform="scale(0.015625)"/>
      </defs>
      <use xlink:href="#DejaVuSans-53"/>
      <use xlink:href="#DejaVuSans-69" x="63.476562"/>
      <use xlink:href="#DejaVuSans-6e" x="91.259766"/>
      <use xlink:href="#DejaVuSans-67" x="154.638672"/>
      <use xlink:href="#DejaVuSans-6c" x="218.115234"/>
      <use xlink:href="#DejaVuSans-65" x="245.898438"/>
      <use xlink:href="#DejaVuSans-20" x="307.421875"/>
      <use xlink:href="#DejaVuSans-70" x="339.208984"/>
      <use xlink:href="#DejaVuSans-72" x="402.685547"/>
      <use xlink:href="#DejaVuSans-65" x="441.548828"/>
      <use xlink:href="#DejaVuSans-64" x="503.072266"/>
      <use xlink:href="#DejaVuSans-69" x="566.548828"/>
      <use xlink:href="#DejaVuSans-63" x="594.332031"/>
      <use xlink:href="#DejaVuSans-74" x="649.3125"/>
      <use xlink:href="#DejaVuSans-69" x="688.521484"/>
      <use xlink:href="#DejaVuSans-6f" x="716.304688"/>
      <use xlink:href="#DejaVuSans-6e" x="777.486328"/>
      <use xlink:href="#DejaVuSans-73" x="840.865234"/>
     </g>
    </g>
   </g>
  </g>
 </g>
 <defs>
  <clipPath id="p11cbf81d68">
   <rect x="162" y="103.68" width="1004.4" height="665.28"/>
  </clipPath>
 </defs>
</svg>
