<?xml version="1.0" encoding="utf-8" standalone="no"?>
<!DOCTYPE svg PUBLIC "-//W3C//DTD SVG 1.1//EN"
  "http://www.w3.org/Graphics/SVG/1.1/DTD/svg11.dtd">
<svg xmlns:xlink="http://www.w3.org/1999/xlink" width="1296pt" height="864pt" viewBox="0 0 1296 864" xmlns="http://www.w3.org/2000/svg" version="1.1">
 <metadata>
  <rdf:RDF xmlns:dc="http://purl.org/dc/elements/1.1/" xmlns:cc="http://creativecommons.org/ns#" xmlns:rdf="http://www.w3.org/1999/02/22-rdf-syntax-ns#">
   <cc:Work>
    <dc:type rdf:resource="http://purl.org/dc/dcmitype/StillImage"/>
    <dc:date>2023-12-10T12:52:19.059906</dc:date>
    <dc:format>image/svg+xml</dc:format>
    <dc:creator>
     <cc:Agent>
      <dc:title>Matplotlib v3.8.0, https://matplotlib.org/</dc:title>
     </cc:Agent>
    </dc:creator>
   </cc:Work>
  </rdf:RDF>
 </metadata>
 <defs>
  <style type="text/css">*{stroke-linejoin: round; stroke-linecap: butt}</style>
 </defs>
 <g id="figure_1">
  <g id="patch_1">
   <path d="M 0 864 
L 1296 864 
L 1296 0 
L 0 0 
z
" style="fill: #ffffff"/>
  </g>
  <g id="axes_1">
   <g id="patch_2">
    <path d="M 162 406.08 
L 618.545455 406.08 
L 618.545455 103.68 
L 162 103.68 
z
" style="fill: #ffffff"/>
   </g>
   <g id="matplotlib.axis_1">
    <g id="xtick_1">
     <g id="line2d_1">
      <defs>
       <path id="m7882fcdfe3" d="M 0 0 
L 0 3.5 
" style="stroke: #000000; stroke-width: 0.8"/>
      </defs>
      <g>
       <use xlink:href="#m7882fcdfe3" x="182.752066" y="406.08" style="stroke: #000000; stroke-width: 0.8"/>
      </g>
     </g>
     <g id="text_1">
      <!-- 0 -->
      <g transform="translate(179.570816 420.678437) scale(0.1 -0.1)">
       <defs>
        <path id="DejaVuSans-30" d="M 2034 4250 
Q 1547 4250 1301 3770 
Q 1056 3291 1056 2328 
Q 1056 1369 1301 889 
Q 1547 409 2034 409 
Q 2525 409 2770 889 
Q 3016 1369 3016 2328 
Q 3016 3291 2770 3770 
Q 2525 4250 2034 4250 
z
M 2034 4750 
Q 2819 4750 3233 4129 
Q 3647 3509 3647 2328 
Q 3647 1150 3233 529 
Q 2819 -91 2034 -91 
Q 1250 -91 836 529 
Q 422 1150 422 2328 
Q 422 3509 836 4129 
Q 1250 4750 2034 4750 
z
" transform="scale(0.015625)"/>
       </defs>
       <use xlink:href="#DejaVuSans-30"/>
      </g>
     </g>
    </g>
    <g id="xtick_2">
     <g id="line2d_2">
      <g>
       <use xlink:href="#m7882fcdfe3" x="266.598798" y="406.08" style="stroke: #000000; stroke-width: 0.8"/>
      </g>
     </g>
     <g id="text_2">
      <!-- 20 -->
      <g transform="translate(260.236298 420.678437) scale(0.1 -0.1)">
       <defs>
        <path id="DejaVuSans-32" d="M 1228 531 
L 3431 531 
L 3431 0 
L 469 0 
L 469 531 
Q 828 903 1448 1529 
Q 2069 2156 2228 2338 
Q 2531 2678 2651 2914 
Q 2772 3150 2772 3378 
Q 2772 3750 2511 3984 
Q 2250 4219 1831 4219 
Q 1534 4219 1204 4116 
Q 875 4013 500 3803 
L 500 4441 
Q 881 4594 1212 4672 
Q 1544 4750 1819 4750 
Q 2544 4750 2975 4387 
Q 3406 4025 3406 3419 
Q 3406 3131 3298 2873 
Q 3191 2616 2906 2266 
Q 2828 2175 2409 1742 
Q 1991 1309 1228 531 
z
" transform="scale(0.015625)"/>
       </defs>
       <use xlink:href="#DejaVuSans-32"/>
       <use xlink:href="#DejaVuSans-30" x="63.623047"/>
      </g>
     </g>
    </g>
    <g id="xtick_3">
     <g id="line2d_3">
      <g>
       <use xlink:href="#m7882fcdfe3" x="350.44553" y="406.08" style="stroke: #000000; stroke-width: 0.8"/>
      </g>
     </g>
     <g id="text_3">
      <!-- 40 -->
      <g transform="translate(344.08303 420.678437) scale(0.1 -0.1)">
       <defs>
        <path id="DejaVuSans-34" d="M 2419 4116 
L 825 1625 
L 2419 1625 
L 2419 4116 
z
M 2253 4666 
L 3047 4666 
L 3047 1625 
L 3713 1625 
L 3713 1100 
L 3047 1100 
L 3047 0 
L 2419 0 
L 2419 1100 
L 313 1100 
L 313 1709 
L 2253 4666 
z
" transform="scale(0.015625)"/>
       </defs>
       <use xlink:href="#DejaVuSans-34"/>
       <use xlink:href="#DejaVuSans-30" x="63.623047"/>
      </g>
     </g>
    </g>
    <g id="xtick_4">
     <g id="line2d_4">
      <g>
       <use xlink:href="#m7882fcdfe3" x="434.292261" y="406.08" style="stroke: #000000; stroke-width: 0.8"/>
      </g>
     </g>
     <g id="text_4">
      <!-- 60 -->
      <g transform="translate(427.929761 420.678437) scale(0.1 -0.1)">
       <defs>
        <path id="DejaVuSans-36" d="M 2113 2584 
Q 1688 2584 1439 2293 
Q 1191 2003 1191 1497 
Q 1191 994 1439 701 
Q 1688 409 2113 409 
Q 2538 409 2786 701 
Q 3034 994 3034 1497 
Q 3034 2003 2786 2293 
Q 2538 2584 2113 2584 
z
M 3366 4563 
L 3366 3988 
Q 3128 4100 2886 4159 
Q 2644 4219 2406 4219 
Q 1781 4219 1451 3797 
Q 1122 3375 1075 2522 
Q 1259 2794 1537 2939 
Q 1816 3084 2150 3084 
Q 2853 3084 3261 2657 
Q 3669 2231 3669 1497 
Q 3669 778 3244 343 
Q 2819 -91 2113 -91 
Q 1303 -91 875 529 
Q 447 1150 447 2328 
Q 447 3434 972 4092 
Q 1497 4750 2381 4750 
Q 2619 4750 2861 4703 
Q 3103 4656 3366 4563 
z
" transform="scale(0.015625)"/>
       </defs>
       <use xlink:href="#DejaVuSans-36"/>
       <use xlink:href="#DejaVuSans-30" x="63.623047"/>
      </g>
     </g>
    </g>
    <g id="xtick_5">
     <g id="line2d_5">
      <g>
       <use xlink:href="#m7882fcdfe3" x="518.138993" y="406.08" style="stroke: #000000; stroke-width: 0.8"/>
      </g>
     </g>
     <g id="text_5">
      <!-- 80 -->
      <g transform="translate(511.776493 420.678437) scale(0.1 -0.1)">
       <defs>
        <path id="DejaVuSans-38" d="M 2034 2216 
Q 1584 2216 1326 1975 
Q 1069 1734 1069 1313 
Q 1069 891 1326 650 
Q 1584 409 2034 409 
Q 2484 409 2743 651 
Q 3003 894 3003 1313 
Q 3003 1734 2745 1975 
Q 2488 2216 2034 2216 
z
M 1403 2484 
Q 997 2584 770 2862 
Q 544 3141 544 3541 
Q 544 4100 942 4425 
Q 1341 4750 2034 4750 
Q 2731 4750 3128 4425 
Q 3525 4100 3525 3541 
Q 3525 3141 3298 2862 
Q 3072 2584 2669 2484 
Q 3125 2378 3379 2068 
Q 3634 1759 3634 1313 
Q 3634 634 3220 271 
Q 2806 -91 2034 -91 
Q 1263 -91 848 271 
Q 434 634 434 1313 
Q 434 1759 690 2068 
Q 947 2378 1403 2484 
z
M 1172 3481 
Q 1172 3119 1398 2916 
Q 1625 2713 2034 2713 
Q 2441 2713 2670 2916 
Q 2900 3119 2900 3481 
Q 2900 3844 2670 4047 
Q 2441 4250 2034 4250 
Q 1625 4250 1398 4047 
Q 1172 3844 1172 3481 
z
" transform="scale(0.015625)"/>
       </defs>
       <use xlink:href="#DejaVuSans-38"/>
       <use xlink:href="#DejaVuSans-30" x="63.623047"/>
      </g>
     </g>
    </g>
    <g id="xtick_6">
     <g id="line2d_6">
      <g>
       <use xlink:href="#m7882fcdfe3" x="601.985725" y="406.08" style="stroke: #000000; stroke-width: 0.8"/>
      </g>
     </g>
     <g id="text_6">
      <!-- 100 -->
      <g transform="translate(592.441975 420.678437) scale(0.1 -0.1)">
       <defs>
        <path id="DejaVuSans-31" d="M 794 531 
L 1825 531 
L 1825 4091 
L 703 3866 
L 703 4441 
L 1819 4666 
L 2450 4666 
L 2450 531 
L 3481 531 
L 3481 0 
L 794 0 
L 794 531 
z
" transform="scale(0.015625)"/>
       </defs>
       <use xlink:href="#DejaVuSans-31"/>
       <use xlink:href="#DejaVuSans-30" x="63.623047"/>
       <use xlink:href="#DejaVuSans-30" x="127.246094"/>
      </g>
     </g>
    </g>
   </g>
   <g id="matplotlib.axis_2">
    <g id="ytick_1">
     <g id="line2d_7">
      <defs>
       <path id="md176abf264" d="M 0 0 
L -3.5 0 
" style="stroke: #000000; stroke-width: 0.8"/>
      </defs>
      <g>
       <use xlink:href="#md176abf264" x="162" y="374.142618" style="stroke: #000000; stroke-width: 0.8"/>
      </g>
     </g>
     <g id="text_7">
      <!-- 0.50 -->
      <g transform="translate(132.734375 377.941837) scale(0.1 -0.1)">
       <defs>
        <path id="DejaVuSans-2e" d="M 684 794 
L 1344 794 
L 1344 0 
L 684 0 
L 684 794 
z
" transform="scale(0.015625)"/>
        <path id="DejaVuSans-35" d="M 691 4666 
L 3169 4666 
L 3169 4134 
L 1269 4134 
L 1269 2991 
Q 1406 3038 1543 3061 
Q 1681 3084 1819 3084 
Q 2600 3084 3056 2656 
Q 3513 2228 3513 1497 
Q 3513 744 3044 326 
Q 2575 -91 1722 -91 
Q 1428 -91 1123 -41 
Q 819 9 494 109 
L 494 744 
Q 775 591 1075 516 
Q 1375 441 1709 441 
Q 2250 441 2565 725 
Q 2881 1009 2881 1497 
Q 2881 1984 2565 2268 
Q 2250 2553 1709 2553 
Q 1456 2553 1204 2497 
Q 953 2441 691 2322 
L 691 4666 
z
" transform="scale(0.015625)"/>
       </defs>
       <use xlink:href="#DejaVuSans-30"/>
       <use xlink:href="#DejaVuSans-2e" x="63.623047"/>
       <use xlink:href="#DejaVuSans-35" x="95.410156"/>
       <use xlink:href="#DejaVuSans-30" x="159.033203"/>
      </g>
     </g>
    </g>
    <g id="ytick_2">
     <g id="line2d_8">
      <g>
       <use xlink:href="#md176abf264" x="162" y="338.136569" style="stroke: #000000; stroke-width: 0.8"/>
      </g>
     </g>
     <g id="text_8">
      <!-- 0.75 -->
      <g transform="translate(132.734375 341.935787) scale(0.1 -0.1)">
       <defs>
        <path id="DejaVuSans-37" d="M 525 4666 
L 3525 4666 
L 3525 4397 
L 1831 0 
L 1172 0 
L 2766 4134 
L 525 4134 
L 525 4666 
z
" transform="scale(0.015625)"/>
       </defs>
       <use xlink:href="#DejaVuSans-30"/>
       <use xlink:href="#DejaVuSans-2e" x="63.623047"/>
       <use xlink:href="#DejaVuSans-37" x="95.410156"/>
       <use xlink:href="#DejaVuSans-35" x="159.033203"/>
      </g>
     </g>
    </g>
    <g id="ytick_3">
     <g id="line2d_9">
      <g>
       <use xlink:href="#md176abf264" x="162" y="302.130519" style="stroke: #000000; stroke-width: 0.8"/>
      </g>
     </g>
     <g id="text_9">
      <!-- 1.00 -->
      <g transform="translate(132.734375 305.929738) scale(0.1 -0.1)">
       <use xlink:href="#DejaVuSans-31"/>
       <use xlink:href="#DejaVuSans-2e" x="63.623047"/>
       <use xlink:href="#DejaVuSans-30" x="95.410156"/>
       <use xlink:href="#DejaVuSans-30" x="159.033203"/>
      </g>
     </g>
    </g>
    <g id="ytick_4">
     <g id="line2d_10">
      <g>
       <use xlink:href="#md176abf264" x="162" y="266.124469" style="stroke: #000000; stroke-width: 0.8"/>
      </g>
     </g>
     <g id="text_10">
      <!-- 1.25 -->
      <g transform="translate(132.734375 269.923688) scale(0.1 -0.1)">
       <use xlink:href="#DejaVuSans-31"/>
       <use xlink:href="#DejaVuSans-2e" x="63.623047"/>
       <use xlink:href="#DejaVuSans-32" x="95.410156"/>
       <use xlink:href="#DejaVuSans-35" x="159.033203"/>
      </g>
     </g>
    </g>
    <g id="ytick_5">
     <g id="line2d_11">
      <g>
       <use xlink:href="#md176abf264" x="162" y="230.11842" style="stroke: #000000; stroke-width: 0.8"/>
      </g>
     </g>
     <g id="text_11">
      <!-- 1.50 -->
      <g transform="translate(132.734375 233.917638) scale(0.1 -0.1)">
       <use xlink:href="#DejaVuSans-31"/>
       <use xlink:href="#DejaVuSans-2e" x="63.623047"/>
       <use xlink:href="#DejaVuSans-35" x="95.410156"/>
       <use xlink:href="#DejaVuSans-30" x="159.033203"/>
      </g>
     </g>
    </g>
    <g id="ytick_6">
     <g id="line2d_12">
      <g>
       <use xlink:href="#md176abf264" x="162" y="194.11237" style="stroke: #000000; stroke-width: 0.8"/>
      </g>
     </g>
     <g id="text_12">
      <!-- 1.75 -->
      <g transform="translate(132.734375 197.911589) scale(0.1 -0.1)">
       <use xlink:href="#DejaVuSans-31"/>
       <use xlink:href="#DejaVuSans-2e" x="63.623047"/>
       <use xlink:href="#DejaVuSans-37" x="95.410156"/>
       <use xlink:href="#DejaVuSans-35" x="159.033203"/>
      </g>
     </g>
    </g>
    <g id="ytick_7">
     <g id="line2d_13">
      <g>
       <use xlink:href="#md176abf264" x="162" y="158.10632" style="stroke: #000000; stroke-width: 0.8"/>
      </g>
     </g>
     <g id="text_13">
      <!-- 2.00 -->
      <g transform="translate(132.734375 161.905539) scale(0.1 -0.1)">
       <use xlink:href="#DejaVuSans-32"/>
       <use xlink:href="#DejaVuSans-2e" x="63.623047"/>
       <use xlink:href="#DejaVuSans-30" x="95.410156"/>
       <use xlink:href="#DejaVuSans-30" x="159.033203"/>
      </g>
     </g>
    </g>
    <g id="ytick_8">
     <g id="line2d_14">
      <g>
       <use xlink:href="#md176abf264" x="162" y="122.10027" style="stroke: #000000; stroke-width: 0.8"/>
      </g>
     </g>
     <g id="text_14">
      <!-- 2.25 -->
      <g transform="translate(132.734375 125.899489) scale(0.1 -0.1)">
       <use xlink:href="#DejaVuSans-32"/>
       <use xlink:href="#DejaVuSans-2e" x="63.623047"/>
       <use xlink:href="#DejaVuSans-32" x="95.410156"/>
       <use xlink:href="#DejaVuSans-35" x="159.033203"/>
      </g>
     </g>
    </g>
   </g>
   <g id="line2d_15">
    <path d="M 182.752066 125.911793 
L 186.944403 125.520031 
L 191.136739 128.078387 
L 195.329076 117.425455 
L 199.521412 381.908618 
L 203.713749 384.396796 
L 207.906086 383.776419 
L 212.098422 385.391483 
L 216.290759 385.889973 
L 220.483095 373.674771 
L 224.675432 386.141018 
L 228.867769 385.802651 
L 233.060105 386.518977 
L 237.252442 376.661477 
L 241.444778 386.163767 
L 245.637115 385.732103 
L 249.829452 386.173506 
L 254.021788 379.471136 
L 258.214125 386.366632 
L 262.406461 379.424046 
L 266.598798 386.774997 
L 270.791134 386.712751 
L 274.983471 387.475811 
L 279.175808 387.471643 
L 283.368144 387.782922 
L 287.560481 386.971432 
L 291.752817 387.035692 
L 295.945154 387.68138 
L 300.137491 387.095152 
L 304.329827 386.633005 
L 308.522164 385.357252 
L 312.7145 388.279347 
L 316.906837 389.340547 
L 321.099174 388.044548 
L 325.29151 387.713683 
L 329.483847 389.553584 
L 333.676183 388.880048 
L 337.86852 388.824356 
L 342.060856 389.459524 
L 346.253193 388.926044 
L 350.44553 390.140349 
L 354.637866 387.293858 
L 358.830203 388.765565 
L 363.022539 388.796821 
L 367.214876 390.347338 
L 371.407213 388.331021 
L 375.599549 389.853085 
L 379.791886 386.130837 
L 383.984222 389.541356 
L 388.176559 389.694632 
L 392.368896 389.540686 
L 396.561232 387.282458 
L 400.753569 388.187943 
L 404.945905 388.712676 
L 409.138242 390.198316 
L 413.330579 389.027375 
L 417.522915 390.086786 
L 421.715252 389.089544 
L 425.907588 389.013503 
L 430.099925 389.453519 
L 434.292261 388.352302 
L 438.484598 388.430198 
L 442.676935 388.516812 
L 446.869271 389.202499 
L 451.061608 387.174731 
L 455.253944 387.916128 
L 459.446281 389.016404 
L 463.638618 389.116599 
L 467.830954 388.760728 
L 472.023291 388.433975 
L 476.215627 388.797864 
L 480.407964 388.280806 
L 484.600301 388.819686 
L 488.792637 388.581625 
L 492.984974 388.60849 
L 497.17731 389.90506 
L 501.369647 388.801058 
L 505.561983 387.650952 
L 509.75432 388.600051 
L 513.946657 388.22684 
L 518.138993 387.395082 
L 522.33133 388.879915 
L 526.523666 389.201967 
L 530.716003 388.047187 
L 534.90834 388.832722 
L 539.100676 387.583692 
L 543.293013 389.586038 
L 547.485349 388.697086 
L 551.677686 389.284979 
L 555.870023 388.304894 
L 560.062359 389.477633 
L 564.254696 388.822218 
L 568.447032 390.004589 
L 572.639369 389.015984 
L 576.831705 390.203878 
L 581.024042 390.748261 
L 585.216379 387.907187 
L 589.408715 390.514994 
L 593.601052 388.140801 
L 597.793388 390.19371 
" clip-path="url(#p19747c8971)" style="fill: none; stroke: #4169e1; stroke-linecap: square"/>
   </g>
   <g id="line2d_16">
    <path d="M 182.752066 378.427092 
L 186.944403 381.52313 
L 191.136739 383.060878 
L 195.329076 380.960716 
L 199.521412 384.289073 
L 203.713749 384.201524 
L 207.906086 377.037492 
L 212.098422 385.740018 
L 216.290759 378.731546 
L 220.483095 386.080257 
L 224.675432 383.961132 
L 228.867769 385.815802 
L 233.060105 382.857889 
L 237.252442 378.089553 
L 241.444778 382.788788 
L 245.637115 386.789101 
L 249.829452 383.307464 
L 254.021788 387.784394 
L 258.214125 384.686858 
L 262.406461 384.568336 
L 266.598798 388.26365 
L 270.791134 385.536089 
L 274.983471 380.175178 
L 279.175808 387.251253 
L 283.368144 389.070689 
L 287.560481 387.772852 
L 291.752817 387.453191 
L 295.945154 388.151901 
L 300.137491 386.307227 
L 304.329827 390.477316 
L 308.522164 384.66122 
L 312.7145 388.542685 
L 316.906837 388.429078 
L 321.099174 386.077338 
L 325.29151 385.894625 
L 329.483847 388.842409 
L 333.676183 388.616508 
L 337.86852 389.343092 
L 342.060856 387.467926 
L 346.253193 380.372548 
L 350.44553 386.955439 
L 354.637866 383.890464 
L 358.830203 389.325103 
L 363.022539 388.788069 
L 367.214876 386.541181 
L 371.407213 390.346287 
L 375.599549 387.331694 
L 379.791886 387.550397 
L 383.984222 390.174854 
L 388.176559 390.883961 
L 392.368896 388.155215 
L 396.561232 389.649718 
L 400.753569 387.116837 
L 404.945905 390.599714 
L 409.138242 386.992529 
L 413.330579 388.480521 
L 417.522915 391.261366 
L 421.715252 386.781624 
L 425.907588 386.593035 
L 430.099925 389.00024 
L 434.292261 388.630024 
L 438.484598 387.327535 
L 442.676935 385.874173 
L 446.869271 387.272457 
L 451.061608 387.115463 
L 455.253944 388.76035 
L 459.446281 388.914116 
L 463.638618 386.182232 
L 467.830954 386.025745 
L 472.023291 386.635396 
L 476.215627 384.600566 
L 480.407964 387.270409 
L 484.600301 384.52252 
L 488.792637 389.426444 
L 492.984974 383.546165 
L 497.17731 384.293095 
L 501.369647 388.549622 
L 505.561983 386.265545 
L 509.75432 385.995648 
L 513.946657 386.832882 
L 518.138993 388.732515 
L 522.33133 387.195278 
L 526.523666 386.814722 
L 530.716003 383.858877 
L 534.90834 391.009342 
L 539.100676 385.497738 
L 543.293013 390.830702 
L 547.485349 383.001276 
L 551.677686 389.379194 
L 555.870023 382.490948 
L 560.062359 392.334545 
L 564.254696 388.032233 
L 568.447032 389.885389 
L 572.639369 385.764441 
L 576.831705 387.457577 
L 581.024042 391.832669 
L 585.216379 389.093888 
L 589.408715 388.759182 
L 593.601052 388.482787 
L 597.793388 387.66649 
" clip-path="url(#p19747c8971)" style="fill: none; stroke: #ff6347; stroke-linecap: square"/>
   </g>
   <g id="patch_3">
    <path d="M 162 406.08 
L 162 103.68 
" style="fill: none; stroke: #000000; stroke-width: 0.8; stroke-linejoin: miter; stroke-linecap: square"/>
   </g>
   <g id="patch_4">
    <path d="M 618.545455 406.08 
L 618.545455 103.68 
" style="fill: none; stroke: #000000; stroke-width: 0.8; stroke-linejoin: miter; stroke-linecap: square"/>
   </g>
   <g id="patch_5">
    <path d="M 162 406.08 
L 618.545455 406.08 
" style="fill: none; stroke: #000000; stroke-width: 0.8; stroke-linejoin: miter; stroke-linecap: square"/>
   </g>
   <g id="patch_6">
    <path d="M 162 103.68 
L 618.545455 103.68 
" style="fill: none; stroke: #000000; stroke-width: 0.8; stroke-linejoin: miter; stroke-linecap: square"/>
   </g>
   <g id="text_15">
    <!-- MSLE -->
    <g transform="translate(374.152415 97.68) scale(0.12 -0.12)">
     <defs>
      <path id="DejaVuSans-4d" d="M 628 4666 
L 1569 4666 
L 2759 1491 
L 3956 4666 
L 4897 4666 
L 4897 0 
L 4281 0 
L 4281 4097 
L 3078 897 
L 2444 897 
L 1241 4097 
L 1241 0 
L 628 0 
L 628 4666 
z
" transform="scale(0.015625)"/>
      <path id="DejaVuSans-53" d="M 3425 4513 
L 3425 3897 
Q 3066 4069 2747 4153 
Q 2428 4238 2131 4238 
Q 1616 4238 1336 4038 
Q 1056 3838 1056 3469 
Q 1056 3159 1242 3001 
Q 1428 2844 1947 2747 
L 2328 2669 
Q 3034 2534 3370 2195 
Q 3706 1856 3706 1288 
Q 3706 609 3251 259 
Q 2797 -91 1919 -91 
Q 1588 -91 1214 -16 
Q 841 59 441 206 
L 441 856 
Q 825 641 1194 531 
Q 1563 422 1919 422 
Q 2459 422 2753 634 
Q 3047 847 3047 1241 
Q 3047 1584 2836 1778 
Q 2625 1972 2144 2069 
L 1759 2144 
Q 1053 2284 737 2584 
Q 422 2884 422 3419 
Q 422 4038 858 4394 
Q 1294 4750 2059 4750 
Q 2388 4750 2728 4690 
Q 3069 4631 3425 4513 
z
" transform="scale(0.015625)"/>
      <path id="DejaVuSans-4c" d="M 628 4666 
L 1259 4666 
L 1259 531 
L 3531 531 
L 3531 0 
L 628 0 
L 628 4666 
z
" transform="scale(0.015625)"/>
      <path id="DejaVuSans-45" d="M 628 4666 
L 3578 4666 
L 3578 4134 
L 1259 4134 
L 1259 2753 
L 3481 2753 
L 3481 2222 
L 1259 2222 
L 1259 531 
L 3634 531 
L 3634 0 
L 628 0 
L 628 4666 
z
" transform="scale(0.015625)"/>
     </defs>
     <use xlink:href="#DejaVuSans-4d"/>
     <use xlink:href="#DejaVuSans-53" x="86.279297"/>
     <use xlink:href="#DejaVuSans-4c" x="149.755859"/>
     <use xlink:href="#DejaVuSans-45" x="205.46875"/>
    </g>
   </g>
   <g id="legend_1">
    <g id="patch_7">
     <path d="M 530.164205 141.03625 
L 611.545455 141.03625 
Q 613.545455 141.03625 613.545455 139.03625 
L 613.545455 110.68 
Q 613.545455 108.68 611.545455 108.68 
L 530.164205 108.68 
Q 528.164205 108.68 528.164205 110.68 
L 528.164205 139.03625 
Q 528.164205 141.03625 530.164205 141.03625 
z
" style="fill: #ffffff; opacity: 0.8; stroke: #cccccc; stroke-linejoin: miter"/>
    </g>
    <g id="line2d_17">
     <path d="M 532.164205 116.778437 
L 542.164205 116.778437 
L 552.164205 116.778437 
" style="fill: none; stroke: #4169e1; stroke-linecap: square"/>
    </g>
    <g id="text_16">
     <!-- Training -->
     <g transform="translate(560.164205 120.278437) scale(0.1 -0.1)">
      <defs>
       <path id="DejaVuSans-54" d="M -19 4666 
L 3928 4666 
L 3928 4134 
L 2272 4134 
L 2272 0 
L 1638 0 
L 1638 4134 
L -19 4134 
L -19 4666 
z
" transform="scale(0.015625)"/>
       <path id="DejaVuSans-72" d="M 2631 2963 
Q 2534 3019 2420 3045 
Q 2306 3072 2169 3072 
Q 1681 3072 1420 2755 
Q 1159 2438 1159 1844 
L 1159 0 
L 581 0 
L 581 3500 
L 1159 3500 
L 1159 2956 
Q 1341 3275 1631 3429 
Q 1922 3584 2338 3584 
Q 2397 3584 2469 3576 
Q 2541 3569 2628 3553 
L 2631 2963 
z
" transform="scale(0.015625)"/>
       <path id="DejaVuSans-61" d="M 2194 1759 
Q 1497 1759 1228 1600 
Q 959 1441 959 1056 
Q 959 750 1161 570 
Q 1363 391 1709 391 
Q 2188 391 2477 730 
Q 2766 1069 2766 1631 
L 2766 1759 
L 2194 1759 
z
M 3341 1997 
L 3341 0 
L 2766 0 
L 2766 531 
Q 2569 213 2275 61 
Q 1981 -91 1556 -91 
Q 1019 -91 701 211 
Q 384 513 384 1019 
Q 384 1609 779 1909 
Q 1175 2209 1959 2209 
L 2766 2209 
L 2766 2266 
Q 2766 2663 2505 2880 
Q 2244 3097 1772 3097 
Q 1472 3097 1187 3025 
Q 903 2953 641 2809 
L 641 3341 
Q 956 3463 1253 3523 
Q 1550 3584 1831 3584 
Q 2591 3584 2966 3190 
Q 3341 2797 3341 1997 
z
" transform="scale(0.015625)"/>
       <path id="DejaVuSans-69" d="M 603 3500 
L 1178 3500 
L 1178 0 
L 603 0 
L 603 3500 
z
M 603 4863 
L 1178 4863 
L 1178 4134 
L 603 4134 
L 603 4863 
z
" transform="scale(0.015625)"/>
       <path id="DejaVuSans-6e" d="M 3513 2113 
L 3513 0 
L 2938 0 
L 2938 2094 
Q 2938 2591 2744 2837 
Q 2550 3084 2163 3084 
Q 1697 3084 1428 2787 
Q 1159 2491 1159 1978 
L 1159 0 
L 581 0 
L 581 3500 
L 1159 3500 
L 1159 2956 
Q 1366 3272 1645 3428 
Q 1925 3584 2291 3584 
Q 2894 3584 3203 3211 
Q 3513 2838 3513 2113 
z
" transform="scale(0.015625)"/>
       <path id="DejaVuSans-67" d="M 2906 1791 
Q 2906 2416 2648 2759 
Q 2391 3103 1925 3103 
Q 1463 3103 1205 2759 
Q 947 2416 947 1791 
Q 947 1169 1205 825 
Q 1463 481 1925 481 
Q 2391 481 2648 825 
Q 2906 1169 2906 1791 
z
M 3481 434 
Q 3481 -459 3084 -895 
Q 2688 -1331 1869 -1331 
Q 1566 -1331 1297 -1286 
Q 1028 -1241 775 -1147 
L 775 -588 
Q 1028 -725 1275 -790 
Q 1522 -856 1778 -856 
Q 2344 -856 2625 -561 
Q 2906 -266 2906 331 
L 2906 616 
Q 2728 306 2450 153 
Q 2172 0 1784 0 
Q 1141 0 747 490 
Q 353 981 353 1791 
Q 353 2603 747 3093 
Q 1141 3584 1784 3584 
Q 2172 3584 2450 3431 
Q 2728 3278 2906 2969 
L 2906 3500 
L 3481 3500 
L 3481 434 
z
" transform="scale(0.015625)"/>
      </defs>
      <use xlink:href="#DejaVuSans-54"/>
      <use xlink:href="#DejaVuSans-72" x="46.333984"/>
      <use xlink:href="#DejaVuSans-61" x="87.447266"/>
      <use xlink:href="#DejaVuSans-69" x="148.726562"/>
      <use xlink:href="#DejaVuSans-6e" x="176.509766"/>
      <use xlink:href="#DejaVuSans-69" x="239.888672"/>
      <use xlink:href="#DejaVuSans-6e" x="267.671875"/>
      <use xlink:href="#DejaVuSans-67" x="331.050781"/>
     </g>
    </g>
    <g id="line2d_18">
     <path d="M 532.164205 131.456562 
L 542.164205 131.456562 
L 552.164205 131.456562 
" style="fill: none; stroke: #ff6347; stroke-linecap: square"/>
    </g>
    <g id="text_17">
     <!-- Validation -->
     <g transform="translate(560.164205 134.956562) scale(0.1 -0.1)">
      <defs>
       <path id="DejaVuSans-56" d="M 1831 0 
L 50 4666 
L 709 4666 
L 2188 738 
L 3669 4666 
L 4325 4666 
L 2547 0 
L 1831 0 
z
" transform="scale(0.015625)"/>
       <path id="DejaVuSans-6c" d="M 603 4863 
L 1178 4863 
L 1178 0 
L 603 0 
L 603 4863 
z
" transform="scale(0.015625)"/>
       <path id="DejaVuSans-64" d="M 2906 2969 
L 2906 4863 
L 3481 4863 
L 3481 0 
L 2906 0 
L 2906 525 
Q 2725 213 2448 61 
Q 2172 -91 1784 -91 
Q 1150 -91 751 415 
Q 353 922 353 1747 
Q 353 2572 751 3078 
Q 1150 3584 1784 3584 
Q 2172 3584 2448 3432 
Q 2725 3281 2906 2969 
z
M 947 1747 
Q 947 1113 1208 752 
Q 1469 391 1925 391 
Q 2381 391 2643 752 
Q 2906 1113 2906 1747 
Q 2906 2381 2643 2742 
Q 2381 3103 1925 3103 
Q 1469 3103 1208 2742 
Q 947 2381 947 1747 
z
" transform="scale(0.015625)"/>
       <path id="DejaVuSans-74" d="M 1172 4494 
L 1172 3500 
L 2356 3500 
L 2356 3053 
L 1172 3053 
L 1172 1153 
Q 1172 725 1289 603 
Q 1406 481 1766 481 
L 2356 481 
L 2356 0 
L 1766 0 
Q 1100 0 847 248 
Q 594 497 594 1153 
L 594 3053 
L 172 3053 
L 172 3500 
L 594 3500 
L 594 4494 
L 1172 4494 
z
" transform="scale(0.015625)"/>
       <path id="DejaVuSans-6f" d="M 1959 3097 
Q 1497 3097 1228 2736 
Q 959 2375 959 1747 
Q 959 1119 1226 758 
Q 1494 397 1959 397 
Q 2419 397 2687 759 
Q 2956 1122 2956 1747 
Q 2956 2369 2687 2733 
Q 2419 3097 1959 3097 
z
M 1959 3584 
Q 2709 3584 3137 3096 
Q 3566 2609 3566 1747 
Q 3566 888 3137 398 
Q 2709 -91 1959 -91 
Q 1206 -91 779 398 
Q 353 888 353 1747 
Q 353 2609 779 3096 
Q 1206 3584 1959 3584 
z
" transform="scale(0.015625)"/>
      </defs>
      <use xlink:href="#DejaVuSans-56"/>
      <use xlink:href="#DejaVuSans-61" x="60.658203"/>
      <use xlink:href="#DejaVuSans-6c" x="121.9375"/>
      <use xlink:href="#DejaVuSans-69" x="149.720703"/>
      <use xlink:href="#DejaVuSans-64" x="177.503906"/>
      <use xlink:href="#DejaVuSans-61" x="240.980469"/>
      <use xlink:href="#DejaVuSans-74" x="302.259766"/>
      <use xlink:href="#DejaVuSans-69" x="341.46875"/>
      <use xlink:href="#DejaVuSans-6f" x="369.251953"/>
      <use xlink:href="#DejaVuSans-6e" x="430.433594"/>
     </g>
    </g>
   </g>
  </g>
  <g id="axes_2">
   <g id="patch_8">
    <path d="M 709.854545 406.08 
L 1166.4 406.08 
L 1166.4 103.68 
L 709.854545 103.68 
z
" style="fill: #ffffff"/>
   </g>
   <g id="matplotlib.axis_3">
    <g id="xtick_7">
     <g id="line2d_19">
      <g>
       <use xlink:href="#m7882fcdfe3" x="730.606612" y="406.08" style="stroke: #000000; stroke-width: 0.8"/>
      </g>
     </g>
     <g id="text_18">
      <!-- 0 -->
      <g transform="translate(727.425362 420.678437) scale(0.1 -0.1)">
       <use xlink:href="#DejaVuSans-30"/>
      </g>
     </g>
    </g>
    <g id="xtick_8">
     <g id="line2d_20">
      <g>
       <use xlink:href="#m7882fcdfe3" x="814.453343" y="406.08" style="stroke: #000000; stroke-width: 0.8"/>
      </g>
     </g>
     <g id="text_19">
      <!-- 20 -->
      <g transform="translate(808.090843 420.678437) scale(0.1 -0.1)">
       <use xlink:href="#DejaVuSans-32"/>
       <use xlink:href="#DejaVuSans-30" x="63.623047"/>
      </g>
     </g>
    </g>
    <g id="xtick_9">
     <g id="line2d_21">
      <g>
       <use xlink:href="#m7882fcdfe3" x="898.300075" y="406.08" style="stroke: #000000; stroke-width: 0.8"/>
      </g>
     </g>
     <g id="text_20">
      <!-- 40 -->
      <g transform="translate(891.937575 420.678437) scale(0.1 -0.1)">
       <use xlink:href="#DejaVuSans-34"/>
       <use xlink:href="#DejaVuSans-30" x="63.623047"/>
      </g>
     </g>
    </g>
    <g id="xtick_10">
     <g id="line2d_22">
      <g>
       <use xlink:href="#m7882fcdfe3" x="982.146807" y="406.08" style="stroke: #000000; stroke-width: 0.8"/>
      </g>
     </g>
     <g id="text_21">
      <!-- 60 -->
      <g transform="translate(975.784307 420.678437) scale(0.1 -0.1)">
       <use xlink:href="#DejaVuSans-36"/>
       <use xlink:href="#DejaVuSans-30" x="63.623047"/>
      </g>
     </g>
    </g>
    <g id="xtick_11">
     <g id="line2d_23">
      <g>
       <use xlink:href="#m7882fcdfe3" x="1065.993539" y="406.08" style="stroke: #000000; stroke-width: 0.8"/>
      </g>
     </g>
     <g id="text_22">
      <!-- 80 -->
      <g transform="translate(1059.631039 420.678437) scale(0.1 -0.1)">
       <use xlink:href="#DejaVuSans-38"/>
       <use xlink:href="#DejaVuSans-30" x="63.623047"/>
      </g>
     </g>
    </g>
    <g id="xtick_12">
     <g id="line2d_24">
      <g>
       <use xlink:href="#m7882fcdfe3" x="1149.84027" y="406.08" style="stroke: #000000; stroke-width: 0.8"/>
      </g>
     </g>
     <g id="text_23">
      <!-- 100 -->
      <g transform="translate(1140.29652 420.678437) scale(0.1 -0.1)">
       <use xlink:href="#DejaVuSans-31"/>
       <use xlink:href="#DejaVuSans-30" x="63.623047"/>
       <use xlink:href="#DejaVuSans-30" x="127.246094"/>
      </g>
     </g>
    </g>
   </g>
   <g id="matplotlib.axis_4">
    <g id="ytick_9">
     <g id="line2d_25">
      <g>
       <use xlink:href="#md176abf264" x="709.854545" y="395.236383" style="stroke: #000000; stroke-width: 0.8"/>
      </g>
     </g>
     <g id="text_24">
      <!-- 1000 -->
      <g transform="translate(677.404545 399.035602) scale(0.1 -0.1)">
       <use xlink:href="#DejaVuSans-31"/>
       <use xlink:href="#DejaVuSans-30" x="63.623047"/>
       <use xlink:href="#DejaVuSans-30" x="127.246094"/>
       <use xlink:href="#DejaVuSans-30" x="190.869141"/>
      </g>
     </g>
    </g>
    <g id="ytick_10">
     <g id="line2d_26">
      <g>
       <use xlink:href="#md176abf264" x="709.854545" y="353.245546" style="stroke: #000000; stroke-width: 0.8"/>
      </g>
     </g>
     <g id="text_25">
      <!-- 1500 -->
      <g transform="translate(677.404545 357.044764) scale(0.1 -0.1)">
       <use xlink:href="#DejaVuSans-31"/>
       <use xlink:href="#DejaVuSans-35" x="63.623047"/>
       <use xlink:href="#DejaVuSans-30" x="127.246094"/>
       <use xlink:href="#DejaVuSans-30" x="190.869141"/>
      </g>
     </g>
    </g>
    <g id="ytick_11">
     <g id="line2d_27">
      <g>
       <use xlink:href="#md176abf264" x="709.854545" y="311.254708" style="stroke: #000000; stroke-width: 0.8"/>
      </g>
     </g>
     <g id="text_26">
      <!-- 2000 -->
      <g transform="translate(677.404545 315.053927) scale(0.1 -0.1)">
       <use xlink:href="#DejaVuSans-32"/>
       <use xlink:href="#DejaVuSans-30" x="63.623047"/>
       <use xlink:href="#DejaVuSans-30" x="127.246094"/>
       <use xlink:href="#DejaVuSans-30" x="190.869141"/>
      </g>
     </g>
    </g>
    <g id="ytick_12">
     <g id="line2d_28">
      <g>
       <use xlink:href="#md176abf264" x="709.854545" y="269.263871" style="stroke: #000000; stroke-width: 0.8"/>
      </g>
     </g>
     <g id="text_27">
      <!-- 2500 -->
      <g transform="translate(677.404545 273.06309) scale(0.1 -0.1)">
       <use xlink:href="#DejaVuSans-32"/>
       <use xlink:href="#DejaVuSans-35" x="63.623047"/>
       <use xlink:href="#DejaVuSans-30" x="127.246094"/>
       <use xlink:href="#DejaVuSans-30" x="190.869141"/>
      </g>
     </g>
    </g>
    <g id="ytick_13">
     <g id="line2d_29">
      <g>
       <use xlink:href="#md176abf264" x="709.854545" y="227.273034" style="stroke: #000000; stroke-width: 0.8"/>
      </g>
     </g>
     <g id="text_28">
      <!-- 3000 -->
      <g transform="translate(677.404545 231.072253) scale(0.1 -0.1)">
       <defs>
        <path id="DejaVuSans-33" d="M 2597 2516 
Q 3050 2419 3304 2112 
Q 3559 1806 3559 1356 
Q 3559 666 3084 287 
Q 2609 -91 1734 -91 
Q 1441 -91 1130 -33 
Q 819 25 488 141 
L 488 750 
Q 750 597 1062 519 
Q 1375 441 1716 441 
Q 2309 441 2620 675 
Q 2931 909 2931 1356 
Q 2931 1769 2642 2001 
Q 2353 2234 1838 2234 
L 1294 2234 
L 1294 2753 
L 1863 2753 
Q 2328 2753 2575 2939 
Q 2822 3125 2822 3475 
Q 2822 3834 2567 4026 
Q 2313 4219 1838 4219 
Q 1578 4219 1281 4162 
Q 984 4106 628 3988 
L 628 4550 
Q 988 4650 1302 4700 
Q 1616 4750 1894 4750 
Q 2613 4750 3031 4423 
Q 3450 4097 3450 3541 
Q 3450 3153 3228 2886 
Q 3006 2619 2597 2516 
z
" transform="scale(0.015625)"/>
       </defs>
       <use xlink:href="#DejaVuSans-33"/>
       <use xlink:href="#DejaVuSans-30" x="63.623047"/>
       <use xlink:href="#DejaVuSans-30" x="127.246094"/>
       <use xlink:href="#DejaVuSans-30" x="190.869141"/>
      </g>
     </g>
    </g>
    <g id="ytick_14">
     <g id="line2d_30">
      <g>
       <use xlink:href="#md176abf264" x="709.854545" y="185.282197" style="stroke: #000000; stroke-width: 0.8"/>
      </g>
     </g>
     <g id="text_29">
      <!-- 3500 -->
      <g transform="translate(677.404545 189.081415) scale(0.1 -0.1)">
       <use xlink:href="#DejaVuSans-33"/>
       <use xlink:href="#DejaVuSans-35" x="63.623047"/>
       <use xlink:href="#DejaVuSans-30" x="127.246094"/>
       <use xlink:href="#DejaVuSans-30" x="190.869141"/>
      </g>
     </g>
    </g>
    <g id="ytick_15">
     <g id="line2d_31">
      <g>
       <use xlink:href="#md176abf264" x="709.854545" y="143.291359" style="stroke: #000000; stroke-width: 0.8"/>
      </g>
     </g>
     <g id="text_30">
      <!-- 4000 -->
      <g transform="translate(677.404545 147.090578) scale(0.1 -0.1)">
       <use xlink:href="#DejaVuSans-34"/>
       <use xlink:href="#DejaVuSans-30" x="63.623047"/>
       <use xlink:href="#DejaVuSans-30" x="127.246094"/>
       <use xlink:href="#DejaVuSans-30" x="190.869141"/>
      </g>
     </g>
    </g>
   </g>
   <g id="line2d_32">
    <path d="M 730.606612 117.691301 
L 734.798948 119.046325 
L 738.991285 119.853542 
L 743.183621 117.425455 
L 747.375958 351.150125 
L 751.568295 363.876721 
L 755.760631 356.805059 
L 759.952968 369.160862 
L 764.145304 369.834407 
L 768.337641 314.544572 
L 772.529977 369.851548 
L 776.722314 369.185805 
L 780.914651 370.21621 
L 785.106987 334.530437 
L 789.299324 369.778105 
L 793.49166 369.445654 
L 797.683997 369.728323 
L 801.876334 337.244115 
L 806.06867 372.024072 
L 810.261007 336.45449 
L 814.453343 371.696336 
L 818.64568 371.299709 
L 822.838017 373.68233 
L 827.030353 372.818473 
L 831.22269 372.742047 
L 835.415026 372.212036 
L 839.607363 366.778713 
L 843.799699 371.738788 
L 847.992036 371.620023 
L 852.184373 366.29221 
L 856.376709 368.206668 
L 860.569046 373.96096 
L 864.761382 377.634728 
L 868.953719 373.049239 
L 873.146056 373.207401 
L 877.338392 377.470527 
L 881.530729 375.976726 
L 885.723065 376.200284 
L 889.915402 377.252792 
L 894.107739 375.926144 
L 898.300075 378.391107 
L 902.492412 368.070577 
L 906.684748 375.614965 
L 910.877085 375.736806 
L 915.069421 379.694073 
L 919.261758 374.351539 
L 923.454095 378.275109 
L 927.646431 363.230087 
L 931.838768 377.381461 
L 936.031104 377.252443 
L 940.223441 377.110437 
L 944.415778 370.073886 
L 948.608114 370.088813 
L 952.800451 373.424275 
L 956.992787 379.036623 
L 961.185124 376.128737 
L 965.377461 378.683566 
L 969.569797 376.433622 
L 973.762134 376.267586 
L 977.95447 376.568011 
L 982.146807 374.51738 
L 986.339144 372.732318 
L 990.53148 374.342302 
L 994.723817 377.380805 
L 998.916153 370.429055 
L 1003.10849 374.667649 
L 1007.300826 375.865249 
L 1011.493163 376.702954 
L 1015.6855 375.446017 
L 1019.877836 375.198562 
L 1024.070173 376.74107 
L 1028.262509 375.807645 
L 1032.454846 375.925396 
L 1036.647183 373.840001 
L 1040.839519 376.489494 
L 1045.031856 378.847501 
L 1049.224192 375.910151 
L 1053.416529 372.358778 
L 1057.608866 375.093801 
L 1061.801202 374.559709 
L 1065.993539 371.986294 
L 1070.185875 376.272189 
L 1074.378212 377.137481 
L 1078.570548 372.652714 
L 1082.762885 375.552245 
L 1086.955222 372.208171 
L 1091.147558 377.321406 
L 1095.339895 374.883201 
L 1099.532231 376.327415 
L 1103.724568 374.351662 
L 1107.916905 375.814657 
L 1112.109241 375.510603 
L 1116.301578 378.388749 
L 1120.493914 376.534437 
L 1124.686251 377.627911 
L 1128.878588 380.121496 
L 1133.070924 372.94337 
L 1137.263261 379.290342 
L 1141.455597 374.407595 
L 1145.647934 377.77169 
" clip-path="url(#p355d3fa173)" style="fill: none; stroke: #4169e1; stroke-linecap: square"/>
   </g>
   <g id="line2d_33">
    <path d="M 730.606612 355.621534 
L 734.798948 360.125226 
L 738.991285 352.355506 
L 743.183621 371.22397 
L 747.375958 380.354568 
L 751.568295 384.23137 
L 755.760631 384.081285 
L 759.952968 383.752484 
L 764.145304 383.627034 
L 768.337641 382.476725 
L 772.529977 385.868377 
L 776.722314 382.99914 
L 780.914651 385.133312 
L 785.106987 380.434582 
L 789.299324 384.143964 
L 793.49166 383.031904 
L 797.683997 385.38215 
L 801.876334 373.135496 
L 806.06867 384.313004 
L 810.261007 383.039224 
L 814.453343 386.16423 
L 818.64568 386.266183 
L 822.838017 385.221291 
L 827.030353 386.167039 
L 831.22269 383.637122 
L 835.415026 385.883129 
L 839.607363 388.656041 
L 843.799699 388.807602 
L 847.992036 379.614408 
L 852.184373 384.939258 
L 856.376709 378.548634 
L 860.569046 385.897287 
L 864.761382 391.502746 
L 868.953719 387.799802 
L 873.146056 385.174195 
L 877.338392 388.395424 
L 881.530729 388.502512 
L 885.723065 385.843927 
L 889.915402 386.410301 
L 894.107739 384.490717 
L 898.300075 392.334545 
L 902.492412 387.240932 
L 906.684748 389.050731 
L 910.877085 388.203943 
L 915.069421 386.74918 
L 919.261758 387.562158 
L 923.454095 389.533051 
L 927.646431 386.880114 
L 931.838768 388.90324 
L 936.031104 386.751835 
L 940.223441 389.384074 
L 944.415778 384.209462 
L 948.608114 387.001904 
L 952.800451 387.597157 
L 956.992787 389.912189 
L 961.185124 390.762144 
L 965.377461 389.835363 
L 969.569797 390.051478 
L 973.762134 389.293716 
L 977.95447 390.872627 
L 982.146807 388.129721 
L 986.339144 388.437004 
L 990.53148 387.817619 
L 994.723817 388.811477 
L 998.916153 388.803625 
L 1003.10849 387.026703 
L 1007.300826 386.000449 
L 1011.493163 388.355217 
L 1015.6855 389.55703 
L 1019.877836 386.818327 
L 1024.070173 385.399404 
L 1028.262509 388.771752 
L 1032.454846 389.198519 
L 1036.647183 386.460185 
L 1040.839519 386.458986 
L 1045.031856 388.538424 
L 1049.224192 389.66416 
L 1053.416529 385.558817 
L 1057.608866 388.399319 
L 1061.801202 389.181901 
L 1065.993539 384.015224 
L 1070.185875 389.002056 
L 1074.378212 389.831498 
L 1078.570548 387.426251 
L 1082.762885 382.616445 
L 1086.955222 386.943387 
L 1091.147558 389.346676 
L 1095.339895 386.883138 
L 1099.532231 390.212737 
L 1103.724568 387.778191 
L 1107.916905 383.389339 
L 1112.109241 388.561419 
L 1116.301578 389.037229 
L 1120.493914 389.498257 
L 1124.686251 390.759787 
L 1128.878588 386.711638 
L 1133.070924 387.717665 
L 1137.263261 387.746534 
L 1141.455597 380.361805 
L 1145.647934 391.424218 
" clip-path="url(#p355d3fa173)" style="fill: none; stroke: #ff6347; stroke-linecap: square"/>
   </g>
   <g id="patch_9">
    <path d="M 709.854545 406.08 
L 709.854545 103.68 
" style="fill: none; stroke: #000000; stroke-width: 0.8; stroke-linejoin: miter; stroke-linecap: square"/>
   </g>
   <g id="patch_10">
    <path d="M 1166.4 406.08 
L 1166.4 103.68 
" style="fill: none; stroke: #000000; stroke-width: 0.8; stroke-linejoin: miter; stroke-linecap: square"/>
   </g>
   <g id="patch_11">
    <path d="M 709.854545 406.08 
L 1166.4 406.08 
" style="fill: none; stroke: #000000; stroke-width: 0.8; stroke-linejoin: miter; stroke-linecap: square"/>
   </g>
   <g id="patch_12">
    <path d="M 709.854545 103.68 
L 1166.4 103.68 
" style="fill: none; stroke: #000000; stroke-width: 0.8; stroke-linejoin: miter; stroke-linecap: square"/>
   </g>
   <g id="text_31">
    <!-- LOSS -->
    <g transform="translate(922.660398 97.68) scale(0.12 -0.12)">
     <defs>
      <path id="DejaVuSans-4f" d="M 2522 4238 
Q 1834 4238 1429 3725 
Q 1025 3213 1025 2328 
Q 1025 1447 1429 934 
Q 1834 422 2522 422 
Q 3209 422 3611 934 
Q 4013 1447 4013 2328 
Q 4013 3213 3611 3725 
Q 3209 4238 2522 4238 
z
M 2522 4750 
Q 3503 4750 4090 4092 
Q 4678 3434 4678 2328 
Q 4678 1225 4090 567 
Q 3503 -91 2522 -91 
Q 1538 -91 948 565 
Q 359 1222 359 2328 
Q 359 3434 948 4092 
Q 1538 4750 2522 4750 
z
" transform="scale(0.015625)"/>
     </defs>
     <use xlink:href="#DejaVuSans-4c"/>
     <use xlink:href="#DejaVuSans-4f" x="52.087891"/>
     <use xlink:href="#DejaVuSans-53" x="130.798828"/>
     <use xlink:href="#DejaVuSans-53" x="194.275391"/>
    </g>
   </g>
   <g id="legend_2">
    <g id="patch_13">
     <path d="M 1078.01875 141.03625 
L 1159.4 141.03625 
Q 1161.4 141.03625 1161.4 139.03625 
L 1161.4 110.68 
Q 1161.4 108.68 1159.4 108.68 
L 1078.01875 108.68 
Q 1076.01875 108.68 1076.01875 110.68 
L 1076.01875 139.03625 
Q 1076.01875 141.03625 1078.01875 141.03625 
z
" style="fill: #ffffff; opacity: 0.8; stroke: #cccccc; stroke-linejoin: miter"/>
    </g>
    <g id="line2d_34">
     <path d="M 1080.01875 116.778437 
L 1090.01875 116.778437 
L 1100.01875 116.778437 
" style="fill: none; stroke: #4169e1; stroke-linecap: square"/>
    </g>
    <g id="text_32">
     <!-- Training -->
     <g transform="translate(1108.01875 120.278437) scale(0.1 -0.1)">
      <use xlink:href="#DejaVuSans-54"/>
      <use xlink:href="#DejaVuSans-72" x="46.333984"/>
      <use xlink:href="#DejaVuSans-61" x="87.447266"/>
      <use xlink:href="#DejaVuSans-69" x="148.726562"/>
      <use xlink:href="#DejaVuSans-6e" x="176.509766"/>
      <use xlink:href="#DejaVuSans-69" x="239.888672"/>
      <use xlink:href="#DejaVuSans-6e" x="267.671875"/>
      <use xlink:href="#DejaVuSans-67" x="331.050781"/>
     </g>
    </g>
    <g id="line2d_35">
     <path d="M 1080.01875 131.456562 
L 1090.01875 131.456562 
L 1100.01875 131.456562 
" style="fill: none; stroke: #ff6347; stroke-linecap: square"/>
    </g>
    <g id="text_33">
     <!-- Validation -->
     <g transform="translate(1108.01875 134.956562) scale(0.1 -0.1)">
      <use xlink:href="#DejaVuSans-56"/>
      <use xlink:href="#DejaVuSans-61" x="60.658203"/>
      <use xlink:href="#DejaVuSans-6c" x="121.9375"/>
      <use xlink:href="#DejaVuSans-69" x="149.720703"/>
      <use xlink:href="#DejaVuSans-64" x="177.503906"/>
      <use xlink:href="#DejaVuSans-61" x="240.980469"/>
      <use xlink:href="#DejaVuSans-74" x="302.259766"/>
      <use xlink:href="#DejaVuSans-69" x="341.46875"/>
      <use xlink:href="#DejaVuSans-6f" x="369.251953"/>
      <use xlink:href="#DejaVuSans-6e" x="430.433594"/>
     </g>
    </g>
   </g>
  </g>
  <g id="axes_3">
   <g id="patch_14">
    <path d="M 162 768.96 
L 618.545455 768.96 
L 618.545455 466.56 
L 162 466.56 
z
" style="fill: #ffffff"/>
   </g>
   <g id="matplotlib.axis_5">
    <g id="xtick_13">
     <g id="line2d_36">
      <g>
       <use xlink:href="#m7882fcdfe3" x="182.752066" y="768.96" style="stroke: #000000; stroke-width: 0.8"/>
      </g>
     </g>
     <g id="text_34">
      <!-- 0 -->
      <g transform="translate(179.570816 783.558437) scale(0.1 -0.1)">
       <use xlink:href="#DejaVuSans-30"/>
      </g>
     </g>
    </g>
    <g id="xtick_14">
     <g id="line2d_37">
      <g>
       <use xlink:href="#m7882fcdfe3" x="266.598798" y="768.96" style="stroke: #000000; stroke-width: 0.8"/>
      </g>
     </g>
     <g id="text_35">
      <!-- 20 -->
      <g transform="translate(260.236298 783.558437) scale(0.1 -0.1)">
       <use xlink:href="#DejaVuSans-32"/>
       <use xlink:href="#DejaVuSans-30" x="63.623047"/>
      </g>
     </g>
    </g>
    <g id="xtick_15">
     <g id="line2d_38">
      <g>
       <use xlink:href="#m7882fcdfe3" x="350.44553" y="768.96" style="stroke: #000000; stroke-width: 0.8"/>
      </g>
     </g>
     <g id="text_36">
      <!-- 40 -->
      <g transform="translate(344.08303 783.558437) scale(0.1 -0.1)">
       <use xlink:href="#DejaVuSans-34"/>
       <use xlink:href="#DejaVuSans-30" x="63.623047"/>
      </g>
     </g>
    </g>
    <g id="xtick_16">
     <g id="line2d_39">
      <g>
       <use xlink:href="#m7882fcdfe3" x="434.292261" y="768.96" style="stroke: #000000; stroke-width: 0.8"/>
      </g>
     </g>
     <g id="text_37">
      <!-- 60 -->
      <g transform="translate(427.929761 783.558437) scale(0.1 -0.1)">
       <use xlink:href="#DejaVuSans-36"/>
       <use xlink:href="#DejaVuSans-30" x="63.623047"/>
      </g>
     </g>
    </g>
    <g id="xtick_17">
     <g id="line2d_40">
      <g>
       <use xlink:href="#m7882fcdfe3" x="518.138993" y="768.96" style="stroke: #000000; stroke-width: 0.8"/>
      </g>
     </g>
     <g id="text_38">
      <!-- 80 -->
      <g transform="translate(511.776493 783.558437) scale(0.1 -0.1)">
       <use xlink:href="#DejaVuSans-38"/>
       <use xlink:href="#DejaVuSans-30" x="63.623047"/>
      </g>
     </g>
    </g>
    <g id="xtick_18">
     <g id="line2d_41">
      <g>
       <use xlink:href="#m7882fcdfe3" x="601.985725" y="768.96" style="stroke: #000000; stroke-width: 0.8"/>
      </g>
     </g>
     <g id="text_39">
      <!-- 100 -->
      <g transform="translate(592.441975 783.558437) scale(0.1 -0.1)">
       <use xlink:href="#DejaVuSans-31"/>
       <use xlink:href="#DejaVuSans-30" x="63.623047"/>
       <use xlink:href="#DejaVuSans-30" x="127.246094"/>
      </g>
     </g>
    </g>
   </g>
   <g id="matplotlib.axis_6">
    <g id="ytick_16">
     <g id="line2d_42">
      <g>
       <use xlink:href="#md176abf264" x="162" y="762.289416" style="stroke: #000000; stroke-width: 0.8"/>
      </g>
     </g>
     <g id="text_40">
      <!-- 25 -->
      <g transform="translate(142.275 766.088635) scale(0.1 -0.1)">
       <use xlink:href="#DejaVuSans-32"/>
       <use xlink:href="#DejaVuSans-35" x="63.623047"/>
      </g>
     </g>
    </g>
    <g id="ytick_17">
     <g id="line2d_43">
      <g>
       <use xlink:href="#md176abf264" x="162" y="709.95655" style="stroke: #000000; stroke-width: 0.8"/>
      </g>
     </g>
     <g id="text_41">
      <!-- 30 -->
      <g transform="translate(142.275 713.755769) scale(0.1 -0.1)">
       <use xlink:href="#DejaVuSans-33"/>
       <use xlink:href="#DejaVuSans-30" x="63.623047"/>
      </g>
     </g>
    </g>
    <g id="ytick_18">
     <g id="line2d_44">
      <g>
       <use xlink:href="#md176abf264" x="162" y="657.623684" style="stroke: #000000; stroke-width: 0.8"/>
      </g>
     </g>
     <g id="text_42">
      <!-- 35 -->
      <g transform="translate(142.275 661.422903) scale(0.1 -0.1)">
       <use xlink:href="#DejaVuSans-33"/>
       <use xlink:href="#DejaVuSans-35" x="63.623047"/>
      </g>
     </g>
    </g>
    <g id="ytick_19">
     <g id="line2d_45">
      <g>
       <use xlink:href="#md176abf264" x="162" y="605.290818" style="stroke: #000000; stroke-width: 0.8"/>
      </g>
     </g>
     <g id="text_43">
      <!-- 40 -->
      <g transform="translate(142.275 609.090037) scale(0.1 -0.1)">
       <use xlink:href="#DejaVuSans-34"/>
       <use xlink:href="#DejaVuSans-30" x="63.623047"/>
      </g>
     </g>
    </g>
    <g id="ytick_20">
     <g id="line2d_46">
      <g>
       <use xlink:href="#md176abf264" x="162" y="552.957952" style="stroke: #000000; stroke-width: 0.8"/>
      </g>
     </g>
     <g id="text_44">
      <!-- 45 -->
      <g transform="translate(142.275 556.757171) scale(0.1 -0.1)">
       <use xlink:href="#DejaVuSans-34"/>
       <use xlink:href="#DejaVuSans-35" x="63.623047"/>
      </g>
     </g>
    </g>
    <g id="ytick_21">
     <g id="line2d_47">
      <g>
       <use xlink:href="#md176abf264" x="162" y="500.625086" style="stroke: #000000; stroke-width: 0.8"/>
      </g>
     </g>
     <g id="text_45">
      <!-- 50 -->
      <g transform="translate(142.275 504.424304) scale(0.1 -0.1)">
       <use xlink:href="#DejaVuSans-35"/>
       <use xlink:href="#DejaVuSans-30" x="63.623047"/>
      </g>
     </g>
    </g>
   </g>
   <g id="line2d_48">
    <path d="M 182.752066 480.305455 
L 186.944403 480.814841 
L 191.136739 483.430087 
L 195.329076 482.365957 
L 199.521412 697.782766 
L 203.713749 715.6133 
L 207.906086 704.653891 
L 212.098422 722.122428 
L 216.290759 723.719361 
L 220.483095 658.996168 
L 224.675432 723.611778 
L 228.867769 724.37444 
L 233.060105 725.833705 
L 237.252442 677.458683 
L 241.444778 724.872108 
L 245.637115 723.494194 
L 249.829452 724.874743 
L 254.021788 682.99757 
L 258.214125 727.342259 
L 262.406461 682.314382 
L 266.598798 728.067011 
L 270.791134 725.997984 
L 274.983471 730.292471 
L 279.175808 728.441544 
L 283.368144 728.431044 
L 287.560481 727.458786 
L 291.752817 717.982917 
L 295.945154 727.38582 
L 300.137491 727.416503 
L 304.329827 718.479426 
L 308.522164 722.241809 
L 312.7145 730.545867 
L 316.906837 736.361186 
L 321.099174 728.816098 
L 325.29151 729.560773 
L 329.483847 737.01377 
L 333.676183 734.230712 
L 337.86852 733.9536 
L 342.060856 735.377629 
L 346.253193 734.225821 
L 350.44553 737.930629 
L 354.637866 721.252643 
L 358.830203 733.837293 
L 363.022539 732.976751 
L 367.214876 739.554712 
L 371.407213 731.055992 
L 375.599549 737.937996 
L 379.791886 713.734604 
L 383.984222 736.469867 
L 388.176559 735.837926 
L 392.368896 735.957566 
L 396.561232 724.924472 
L 400.753569 723.91606 
L 404.945905 729.845051 
L 409.138242 739.120888 
L 413.330579 734.598897 
L 417.522915 738.281167 
L 421.715252 734.106999 
L 425.907588 734.770323 
L 430.099925 734.536392 
L 434.292261 730.952322 
L 438.484598 726.952853 
L 442.676935 731.849397 
L 446.869271 734.845565 
L 451.061608 726.132856 
L 455.253944 729.793246 
L 459.446281 733.900737 
L 463.638618 734.173936 
L 467.830954 731.539585 
L 472.023291 730.867577 
L 476.215627 733.802058 
L 480.407964 731.835782 
L 484.600301 732.794764 
L 488.792637 730.366176 
L 492.984974 734.983831 
L 497.17731 739.286823 
L 501.369647 733.514545 
L 505.561983 729.094587 
L 509.75432 732.310013 
L 513.946657 732.511503 
L 518.138993 729.201471 
L 522.33133 734.170103 
L 526.523666 734.660065 
L 530.716003 729.365011 
L 534.90834 733.876781 
L 539.100676 728.37297 
L 543.293013 736.102561 
L 547.485349 732.234651 
L 551.677686 734.439589 
L 555.870023 732.029467 
L 560.062359 733.971108 
L 564.254696 734.052119 
L 568.447032 737.93043 
L 572.639369 734.609897 
L 576.831705 737.023293 
L 581.024042 740.830913 
L 585.216379 729.555742 
L 589.408715 739.222042 
L 593.601052 731.501036 
L 597.793388 736.432695 
" clip-path="url(#pa1d1446d7c)" style="fill: none; stroke: #4169e1; stroke-linecap: square"/>
   </g>
   <g id="line2d_49">
    <path d="M 182.752066 690.472906 
L 186.944403 697.062946 
L 191.136739 692.499511 
L 195.329076 711.08037 
L 199.521412 737.83772 
L 203.713749 739.11388 
L 207.906086 733.091021 
L 212.098422 742.340186 
L 216.290759 736.938548 
L 220.483095 736.216392 
L 224.675432 743.307493 
L 228.867769 738.145935 
L 233.060105 735.879509 
L 237.252442 726.653961 
L 241.444778 735.079137 
L 245.637115 739.164647 
L 249.829452 739.205153 
L 254.021788 725.310564 
L 258.214125 741.280209 
L 262.406461 736.176026 
L 266.598798 744.692434 
L 270.791134 745.781398 
L 274.983471 737.836262 
L 279.175808 746.728821 
L 283.368144 739.717174 
L 287.560481 743.049905 
L 291.752817 748.364423 
L 295.945154 746.879465 
L 300.137491 732.765678 
L 304.329827 742.90537 
L 308.522164 729.208019 
L 312.7145 742.880835 
L 316.906837 754.870197 
L 321.099174 744.79297 
L 325.29151 741.708684 
L 329.483847 745.483344 
L 333.676183 750.19335 
L 337.86852 743.383793 
L 342.060856 745.604223 
L 346.253193 736.445272 
L 350.44553 751.487657 
L 354.637866 744.748891 
L 358.830203 747.694271 
L 363.022539 749.296893 
L 367.214876 749.851437 
L 371.407213 745.45278 
L 375.599549 745.023048 
L 379.791886 746.010398 
L 383.984222 750.175263 
L 388.176559 752.952273 
L 392.368896 750.902949 
L 396.561232 746.731037 
L 400.753569 742.898063 
L 404.945905 747.748951 
L 409.138242 750.539396 
L 413.330579 748.964622 
L 417.522915 748.906249 
L 421.715252 749.298011 
L 425.907588 744.666142 
L 430.099925 751.688928 
L 434.292261 746.973992 
L 438.484598 746.213146 
L 442.676935 745.457831 
L 446.869271 748.76387 
L 451.061608 748.603405 
L 455.253944 746.785537 
L 459.446281 744.08922 
L 463.638618 749.68618 
L 467.830954 750.942317 
L 472.023291 744.149988 
L 476.215627 737.673281 
L 480.407964 750.042946 
L 484.600301 747.719565 
L 488.792637 745.522552 
L 492.984974 743.556057 
L 497.17731 745.896088 
L 501.369647 748.657685 
L 505.561983 748.286066 
L 509.75432 748.987301 
L 513.946657 747.330039 
L 518.138993 742.126079 
L 522.33133 750.716551 
L 526.523666 749.636571 
L 530.716003 746.919731 
L 534.90834 744.857851 
L 539.100676 746.518846 
L 543.293013 750.037775 
L 547.485349 742.874427 
L 551.677686 752.562866 
L 555.870023 741.469382 
L 560.062359 741.823054 
L 564.254696 745.691742 
L 568.447032 749.1296 
L 572.639369 746.015289 
L 576.831705 747.90239 
L 581.024042 749.305737 
L 585.216379 746.187713 
L 589.408715 746.115146 
L 593.601052 736.896425 
L 597.793388 755.214545 
" clip-path="url(#pa1d1446d7c)" style="fill: none; stroke: #ff6347; stroke-linecap: square"/>
   </g>
   <g id="patch_15">
    <path d="M 162 768.96 
L 162 466.56 
" style="fill: none; stroke: #000000; stroke-width: 0.8; stroke-linejoin: miter; stroke-linecap: square"/>
   </g>
   <g id="patch_16">
    <path d="M 618.545455 768.96 
L 618.545455 466.56 
" style="fill: none; stroke: #000000; stroke-width: 0.8; stroke-linejoin: miter; stroke-linecap: square"/>
   </g>
   <g id="patch_17">
    <path d="M 162 768.96 
L 618.545455 768.96 
" style="fill: none; stroke: #000000; stroke-width: 0.8; stroke-linejoin: miter; stroke-linecap: square"/>
   </g>
   <g id="patch_18">
    <path d="M 162 466.56 
L 618.545455 466.56 
" style="fill: none; stroke: #000000; stroke-width: 0.8; stroke-linejoin: miter; stroke-linecap: square"/>
   </g>
   <g id="text_46">
    <!-- MAE -->
    <g transform="translate(377.200227 460.56) scale(0.12 -0.12)">
     <defs>
      <path id="DejaVuSans-41" d="M 2188 4044 
L 1331 1722 
L 3047 1722 
L 2188 4044 
z
M 1831 4666 
L 2547 4666 
L 4325 0 
L 3669 0 
L 3244 1197 
L 1141 1197 
L 716 0 
L 50 0 
L 1831 4666 
z
" transform="scale(0.015625)"/>
     </defs>
     <use xlink:href="#DejaVuSans-4d"/>
     <use xlink:href="#DejaVuSans-41" x="86.279297"/>
     <use xlink:href="#DejaVuSans-45" x="154.6875"/>
    </g>
   </g>
   <g id="legend_3">
    <g id="patch_19">
     <path d="M 530.164205 503.91625 
L 611.545455 503.91625 
Q 613.545455 503.91625 613.545455 501.91625 
L 613.545455 473.56 
Q 613.545455 471.56 611.545455 471.56 
L 530.164205 471.56 
Q 528.164205 471.56 528.164205 473.56 
L 528.164205 501.91625 
Q 528.164205 503.91625 530.164205 503.91625 
z
" style="fill: #ffffff; opacity: 0.8; stroke: #cccccc; stroke-linejoin: miter"/>
    </g>
    <g id="line2d_50">
     <path d="M 532.164205 479.658437 
L 542.164205 479.658437 
L 552.164205 479.658437 
" style="fill: none; stroke: #4169e1; stroke-linecap: square"/>
    </g>
    <g id="text_47">
     <!-- Training -->
     <g transform="translate(560.164205 483.158437) scale(0.1 -0.1)">
      <use xlink:href="#DejaVuSans-54"/>
      <use xlink:href="#DejaVuSans-72" x="46.333984"/>
      <use xlink:href="#DejaVuSans-61" x="87.447266"/>
      <use xlink:href="#DejaVuSans-69" x="148.726562"/>
      <use xlink:href="#DejaVuSans-6e" x="176.509766"/>
      <use xlink:href="#DejaVuSans-69" x="239.888672"/>
      <use xlink:href="#DejaVuSans-6e" x="267.671875"/>
      <use xlink:href="#DejaVuSans-67" x="331.050781"/>
     </g>
    </g>
    <g id="line2d_51">
     <path d="M 532.164205 494.336563 
L 542.164205 494.336563 
L 552.164205 494.336563 
" style="fill: none; stroke: #ff6347; stroke-linecap: square"/>
    </g>
    <g id="text_48">
     <!-- Validation -->
     <g transform="translate(560.164205 497.836563) scale(0.1 -0.1)">
      <use xlink:href="#DejaVuSans-56"/>
      <use xlink:href="#DejaVuSans-61" x="60.658203"/>
      <use xlink:href="#DejaVuSans-6c" x="121.9375"/>
      <use xlink:href="#DejaVuSans-69" x="149.720703"/>
      <use xlink:href="#DejaVuSans-64" x="177.503906"/>
      <use xlink:href="#DejaVuSans-61" x="240.980469"/>
      <use xlink:href="#DejaVuSans-74" x="302.259766"/>
      <use xlink:href="#DejaVuSans-69" x="341.46875"/>
      <use xlink:href="#DejaVuSans-6f" x="369.251953"/>
      <use xlink:href="#DejaVuSans-6e" x="430.433594"/>
     </g>
    </g>
   </g>
  </g>
  <g id="axes_4">
   <g id="patch_20">
    <path d="M 709.854545 768.96 
L 1166.4 768.96 
L 1166.4 466.56 
L 709.854545 466.56 
z
" style="fill: #ffffff"/>
   </g>
   <g id="matplotlib.axis_7">
    <g id="xtick_19">
     <g id="line2d_52">
      <g>
       <use xlink:href="#m7882fcdfe3" x="730.606612" y="768.96" style="stroke: #000000; stroke-width: 0.8"/>
      </g>
     </g>
     <g id="text_49">
      <!-- 0 -->
      <g transform="translate(727.425362 783.558437) scale(0.1 -0.1)">
       <use xlink:href="#DejaVuSans-30"/>
      </g>
     </g>
    </g>
    <g id="xtick_20">
     <g id="line2d_53">
      <g>
       <use xlink:href="#m7882fcdfe3" x="814.453343" y="768.96" style="stroke: #000000; stroke-width: 0.8"/>
      </g>
     </g>
     <g id="text_50">
      <!-- 20 -->
      <g transform="translate(808.090843 783.558437) scale(0.1 -0.1)">
       <use xlink:href="#DejaVuSans-32"/>
       <use xlink:href="#DejaVuSans-30" x="63.623047"/>
      </g>
     </g>
    </g>
    <g id="xtick_21">
     <g id="line2d_54">
      <g>
       <use xlink:href="#m7882fcdfe3" x="898.300075" y="768.96" style="stroke: #000000; stroke-width: 0.8"/>
      </g>
     </g>
     <g id="text_51">
      <!-- 40 -->
      <g transform="translate(891.937575 783.558437) scale(0.1 -0.1)">
       <use xlink:href="#DejaVuSans-34"/>
       <use xlink:href="#DejaVuSans-30" x="63.623047"/>
      </g>
     </g>
    </g>
    <g id="xtick_22">
     <g id="line2d_55">
      <g>
       <use xlink:href="#m7882fcdfe3" x="982.146807" y="768.96" style="stroke: #000000; stroke-width: 0.8"/>
      </g>
     </g>
     <g id="text_52">
      <!-- 60 -->
      <g transform="translate(975.784307 783.558437) scale(0.1 -0.1)">
       <use xlink:href="#DejaVuSans-36"/>
       <use xlink:href="#DejaVuSans-30" x="63.623047"/>
      </g>
     </g>
    </g>
    <g id="xtick_23">
     <g id="line2d_56">
      <g>
       <use xlink:href="#m7882fcdfe3" x="1065.993539" y="768.96" style="stroke: #000000; stroke-width: 0.8"/>
      </g>
     </g>
     <g id="text_53">
      <!-- 80 -->
      <g transform="translate(1059.631039 783.558437) scale(0.1 -0.1)">
       <use xlink:href="#DejaVuSans-38"/>
       <use xlink:href="#DejaVuSans-30" x="63.623047"/>
      </g>
     </g>
    </g>
    <g id="xtick_24">
     <g id="line2d_57">
      <g>
       <use xlink:href="#m7882fcdfe3" x="1149.84027" y="768.96" style="stroke: #000000; stroke-width: 0.8"/>
      </g>
     </g>
     <g id="text_54">
      <!-- 100 -->
      <g transform="translate(1140.29652 783.558437) scale(0.1 -0.1)">
       <use xlink:href="#DejaVuSans-31"/>
       <use xlink:href="#DejaVuSans-30" x="63.623047"/>
       <use xlink:href="#DejaVuSans-30" x="127.246094"/>
      </g>
     </g>
    </g>
   </g>
   <g id="matplotlib.axis_8">
    <g id="ytick_22">
     <g id="line2d_58">
      <g>
       <use xlink:href="#md176abf264" x="709.854545" y="731.925238" style="stroke: #000000; stroke-width: 0.8"/>
      </g>
     </g>
     <g id="text_55">
      <!-- 35 -->
      <g transform="translate(690.129545 735.724457) scale(0.1 -0.1)">
       <use xlink:href="#DejaVuSans-33"/>
       <use xlink:href="#DejaVuSans-35" x="63.623047"/>
      </g>
     </g>
    </g>
    <g id="ytick_23">
     <g id="line2d_59">
      <g>
       <use xlink:href="#md176abf264" x="709.854545" y="690.858289" style="stroke: #000000; stroke-width: 0.8"/>
      </g>
     </g>
     <g id="text_56">
      <!-- 40 -->
      <g transform="translate(690.129545 694.657508) scale(0.1 -0.1)">
       <use xlink:href="#DejaVuSans-34"/>
       <use xlink:href="#DejaVuSans-30" x="63.623047"/>
      </g>
     </g>
    </g>
    <g id="ytick_24">
     <g id="line2d_60">
      <g>
       <use xlink:href="#md176abf264" x="709.854545" y="649.79134" style="stroke: #000000; stroke-width: 0.8"/>
      </g>
     </g>
     <g id="text_57">
      <!-- 45 -->
      <g transform="translate(690.129545 653.590559) scale(0.1 -0.1)">
       <use xlink:href="#DejaVuSans-34"/>
       <use xlink:href="#DejaVuSans-35" x="63.623047"/>
      </g>
     </g>
    </g>
    <g id="ytick_25">
     <g id="line2d_61">
      <g>
       <use xlink:href="#md176abf264" x="709.854545" y="608.724391" style="stroke: #000000; stroke-width: 0.8"/>
      </g>
     </g>
     <g id="text_58">
      <!-- 50 -->
      <g transform="translate(690.129545 612.52361) scale(0.1 -0.1)">
       <use xlink:href="#DejaVuSans-35"/>
       <use xlink:href="#DejaVuSans-30" x="63.623047"/>
      </g>
     </g>
    </g>
    <g id="ytick_26">
     <g id="line2d_62">
      <g>
       <use xlink:href="#md176abf264" x="709.854545" y="567.657442" style="stroke: #000000; stroke-width: 0.8"/>
      </g>
     </g>
     <g id="text_59">
      <!-- 55 -->
      <g transform="translate(690.129545 571.456661) scale(0.1 -0.1)">
       <use xlink:href="#DejaVuSans-35"/>
       <use xlink:href="#DejaVuSans-35" x="63.623047"/>
      </g>
     </g>
    </g>
    <g id="ytick_27">
     <g id="line2d_63">
      <g>
       <use xlink:href="#md176abf264" x="709.854545" y="526.590493" style="stroke: #000000; stroke-width: 0.8"/>
      </g>
     </g>
     <g id="text_60">
      <!-- 60 -->
      <g transform="translate(690.129545 530.389712) scale(0.1 -0.1)">
       <use xlink:href="#DejaVuSans-36"/>
       <use xlink:href="#DejaVuSans-30" x="63.623047"/>
      </g>
     </g>
    </g>
    <g id="ytick_28">
     <g id="line2d_64">
      <g>
       <use xlink:href="#md176abf264" x="709.854545" y="485.523544" style="stroke: #000000; stroke-width: 0.8"/>
      </g>
     </g>
     <g id="text_61">
      <!-- 65 -->
      <g transform="translate(690.129545 489.322763) scale(0.1 -0.1)">
       <use xlink:href="#DejaVuSans-36"/>
       <use xlink:href="#DejaVuSans-35" x="63.623047"/>
      </g>
     </g>
    </g>
   </g>
   <g id="line2d_65">
    <path d="M 730.606612 480.503533 
L 734.798948 481.514415 
L 738.991285 482.117486 
L 743.183621 480.305455 
L 747.375958 698.655908 
L 751.568295 715.009278 
L 755.760631 705.817058 
L 759.952968 722.06343 
L 764.145304 722.974647 
L 768.337641 655.694964 
L 772.529977 722.997864 
L 776.722314 722.097112 
L 780.914651 723.492433 
L 785.106987 678.479081 
L 789.299324 722.898386 
L 793.49166 722.44837 
L 797.683997 722.83096 
L 801.876334 681.691228 
L 806.06867 725.956538 
L 810.261007 680.753411 
L 814.453343 725.508308 
L 818.64568 724.966772 
L 822.838017 728.235065 
L 827.030353 727.045874 
L 831.22269 726.940914 
L 835.415026 726.213927 
L 839.607363 718.862845 
L 843.799699 725.566334 
L 847.992036 725.404036 
L 852.184373 718.213372 
L 856.376709 720.777299 
L 860.569046 728.619692 
L 864.761382 733.739181 
L 868.953719 727.363075 
L 873.146056 727.580673 
L 877.338392 733.508392 
L 881.530729 731.417447 
L 885.723065 731.729384 
L 889.915402 733.202658 
L 894.107739 731.346888 
L 898.300075 734.804643 
L 902.492412 720.594292 
L 906.684748 730.913321 
L 910.877085 731.083013 
L 915.069421 736.649447 
L 919.261758 729.159661 
L 923.454095 734.640967 
L 927.646431 714.157247 
L 931.838768 733.383285 
L 936.031104 733.202188 
L 940.223441 733.002951 
L 944.415778 723.299305 
L 948.608114 723.319545 
L 952.800451 727.879326 
L 956.992787 735.717113 
L 961.185124 731.62953 
L 965.377461 735.217687 
L 969.569797 732.055358 
L 973.762134 731.823379 
L 977.95447 732.243285 
L 982.146807 729.389258 
L 986.339144 726.927535 
L 990.53148 729.146909 
L 994.723817 733.382376 
L 998.916153 723.781467 
L 1003.10849 729.597457 
L 1007.300826 731.262011 
L 1011.493163 732.432089 
L 1015.6855 730.678209 
L 1019.877836 730.334188 
L 1024.070173 732.485415 
L 1028.262509 731.181708 
L 1032.454846 731.345854 
L 1036.647183 728.452663 
L 1040.839519 732.133468 
L 1045.031856 735.449447 
L 1049.224192 731.324611 
L 1053.416529 726.415013 
L 1057.608866 730.188653 
L 1061.801202 729.44788 
L 1065.993539 725.90484 
L 1070.185875 731.829802 
L 1074.378212 733.040893 
L 1078.570548 726.81825 
L 1082.762885 730.826031 
L 1086.955222 726.208632 
L 1091.147558 733.298972 
L 1095.339895 729.896329 
L 1099.532231 731.90694 
L 1103.724568 729.159849 
L 1107.916905 731.191483 
L 1112.109241 730.768068 
L 1116.301578 734.801322 
L 1120.493914 732.196319 
L 1124.686251 733.729593 
L 1128.878588 737.257249 
L 1133.070924 727.217509 
L 1137.263261 736.076549 
L 1141.455597 729.237269 
L 1145.647934 733.931807 
" clip-path="url(#p394bd585c1)" style="fill: none; stroke: #4169e1; stroke-linecap: square"/>
   </g>
   <g id="line2d_66">
    <path d="M 730.606612 704.304838 
L 734.798948 710.098834 
L 738.991285 700.16888 
L 743.183621 724.863472 
L 747.375958 737.589238 
L 751.568295 743.169803 
L 755.760631 742.951672 
L 759.952968 742.474367 
L 764.145304 742.292487 
L 768.337641 740.630189 
L 772.529977 745.560372 
L 776.722314 741.383902 
L 780.914651 744.484351 
L 785.106987 737.703317 
L 789.299324 743.042722 
L 793.49166 741.431213 
L 797.683997 744.848142 
L 801.876334 727.481728 
L 806.06867 743.288518 
L 810.261007 741.441803 
L 814.453343 745.994659 
L 818.64568 746.144456 
L 822.838017 744.612936 
L 827.030353 745.998764 
L 831.22269 742.307087 
L 835.415026 745.582022 
L 839.607363 749.68007 
L 843.799699 749.905845 
L 847.992036 736.536309 
L 852.184373 744.200988 
L 856.376709 735.027034 
L 860.569046 745.602795 
L 864.761382 753.952947 
L 868.953719 748.408007 
L 873.146056 744.544101 
L 877.338392 749.292247 
L 881.530729 749.451537 
L 885.723065 745.524529 
L 889.915402 746.356383 
L 894.107739 743.547161 
L 898.300075 755.214545 
L 902.492412 747.580978 
L 906.684748 750.268446 
L 910.877085 749.007662 
L 915.069421 746.855307 
L 919.261758 748.056028 
L 923.454095 750.989198 
L 927.646431 747.048341 
L 931.838768 750.048404 
L 936.031104 746.859224 
L 940.223441 750.766367 
L 944.415778 743.137939 
L 948.608114 747.227996 
L 952.800451 748.10785 
L 956.992787 751.557114 
L 961.185124 752.834723 
L 965.377461 751.441939 
L 969.569797 751.766096 
L 973.762134 750.631297 
L 977.95447 753.00125 
L 982.146807 748.897438 
L 986.339144 749.354096 
L 990.53148 748.434419 
L 994.723817 749.91161 
L 998.916153 749.899924 
L 1003.10849 747.264592 
L 1007.300826 745.754158 
L 1011.493163 749.232467 
L 1015.6855 751.025072 
L 1019.877836 746.957229 
L 1024.070173 744.873396 
L 1028.262509 749.852425 
L 1032.454846 750.489083 
L 1036.647183 746.429761 
L 1040.839519 746.428007 
L 1045.031856 749.504957 
L 1049.224192 751.185459 
L 1053.416529 745.106722 
L 1057.608866 749.298044 
L 1061.801202 750.464268 
L 1065.993539 742.855704 
L 1070.185875 750.195788 
L 1074.378212 751.436143 
L 1078.570548 747.854942 
L 1082.762885 740.831557 
L 1086.955222 747.141678 
L 1091.147558 750.710441 
L 1095.339895 747.05279 
L 1099.532231 752.008195 
L 1103.724568 748.375986 
L 1107.916905 741.948184 
L 1112.109241 749.539172 
L 1116.301578 750.2483 
L 1120.493914 750.937125 
L 1124.686251 752.831182 
L 1128.878588 746.800007 
L 1133.070924 748.286315 
L 1137.263261 748.329083 
L 1141.455597 737.599546 
L 1145.647934 753.834169 
" clip-path="url(#p394bd585c1)" style="fill: none; stroke: #ff6347; stroke-linecap: square"/>
   </g>
   <g id="patch_21">
    <path d="M 709.854545 768.96 
L 709.854545 466.56 
" style="fill: none; stroke: #000000; stroke-width: 0.8; stroke-linejoin: miter; stroke-linecap: square"/>
   </g>
   <g id="patch_22">
    <path d="M 1166.4 768.96 
L 1166.4 466.56 
" style="fill: none; stroke: #000000; stroke-width: 0.8; stroke-linejoin: miter; stroke-linecap: square"/>
   </g>
   <g id="patch_23">
    <path d="M 709.854545 768.96 
L 1166.4 768.96 
" style="fill: none; stroke: #000000; stroke-width: 0.8; stroke-linejoin: miter; stroke-linecap: square"/>
   </g>
   <g id="patch_24">
    <path d="M 709.854545 466.56 
L 1166.4 466.56 
" style="fill: none; stroke: #000000; stroke-width: 0.8; stroke-linejoin: miter; stroke-linecap: square"/>
   </g>
   <g id="text_62">
    <!-- ROOT_MEAN_SQUARED_ERROR -->
    <g transform="translate(843.656335 460.56) scale(0.12 -0.12)">
     <defs>
      <path id="DejaVuSans-52" d="M 2841 2188 
Q 3044 2119 3236 1894 
Q 3428 1669 3622 1275 
L 4263 0 
L 3584 0 
L 2988 1197 
Q 2756 1666 2539 1819 
Q 2322 1972 1947 1972 
L 1259 1972 
L 1259 0 
L 628 0 
L 628 4666 
L 2053 4666 
Q 2853 4666 3247 4331 
Q 3641 3997 3641 3322 
Q 3641 2881 3436 2590 
Q 3231 2300 2841 2188 
z
M 1259 4147 
L 1259 2491 
L 2053 2491 
Q 2509 2491 2742 2702 
Q 2975 2913 2975 3322 
Q 2975 3731 2742 3939 
Q 2509 4147 2053 4147 
L 1259 4147 
z
" transform="scale(0.015625)"/>
      <path id="DejaVuSans-5f" d="M 3263 -1063 
L 3263 -1509 
L -63 -1509 
L -63 -1063 
L 3263 -1063 
z
" transform="scale(0.015625)"/>
      <path id="DejaVuSans-4e" d="M 628 4666 
L 1478 4666 
L 3547 763 
L 3547 4666 
L 4159 4666 
L 4159 0 
L 3309 0 
L 1241 3903 
L 1241 0 
L 628 0 
L 628 4666 
z
" transform="scale(0.015625)"/>
      <path id="DejaVuSans-51" d="M 2522 4238 
Q 1834 4238 1429 3725 
Q 1025 3213 1025 2328 
Q 1025 1447 1429 934 
Q 1834 422 2522 422 
Q 3209 422 3611 934 
Q 4013 1447 4013 2328 
Q 4013 3213 3611 3725 
Q 3209 4238 2522 4238 
z
M 3406 84 
L 4238 -825 
L 3475 -825 
L 2784 -78 
Q 2681 -84 2626 -87 
Q 2572 -91 2522 -91 
Q 1538 -91 948 567 
Q 359 1225 359 2328 
Q 359 3434 948 4092 
Q 1538 4750 2522 4750 
Q 3503 4750 4090 4092 
Q 4678 3434 4678 2328 
Q 4678 1516 4351 937 
Q 4025 359 3406 84 
z
" transform="scale(0.015625)"/>
      <path id="DejaVuSans-55" d="M 556 4666 
L 1191 4666 
L 1191 1831 
Q 1191 1081 1462 751 
Q 1734 422 2344 422 
Q 2950 422 3222 751 
Q 3494 1081 3494 1831 
L 3494 4666 
L 4128 4666 
L 4128 1753 
Q 4128 841 3676 375 
Q 3225 -91 2344 -91 
Q 1459 -91 1007 375 
Q 556 841 556 1753 
L 556 4666 
z
" transform="scale(0.015625)"/>
      <path id="DejaVuSans-44" d="M 1259 4147 
L 1259 519 
L 2022 519 
Q 2988 519 3436 956 
Q 3884 1394 3884 2338 
Q 3884 3275 3436 3711 
Q 2988 4147 2022 4147 
L 1259 4147 
z
M 628 4666 
L 1925 4666 
Q 3281 4666 3915 4102 
Q 4550 3538 4550 2338 
Q 4550 1131 3912 565 
Q 3275 0 1925 0 
L 628 0 
L 628 4666 
z
" transform="scale(0.015625)"/>
     </defs>
     <use xlink:href="#DejaVuSans-52"/>
     <use xlink:href="#DejaVuSans-4f" x="69.482422"/>
     <use xlink:href="#DejaVuSans-4f" x="148.193359"/>
     <use xlink:href="#DejaVuSans-54" x="226.904297"/>
     <use xlink:href="#DejaVuSans-5f" x="287.988281"/>
     <use xlink:href="#DejaVuSans-4d" x="337.988281"/>
     <use xlink:href="#DejaVuSans-45" x="424.267578"/>
     <use xlink:href="#DejaVuSans-41" x="487.451172"/>
     <use xlink:href="#DejaVuSans-4e" x="555.859375"/>
     <use xlink:href="#DejaVuSans-5f" x="630.664062"/>
     <use xlink:href="#DejaVuSans-53" x="680.664062"/>
     <use xlink:href="#DejaVuSans-51" x="744.140625"/>
     <use xlink:href="#DejaVuSans-55" x="822.851562"/>
     <use xlink:href="#DejaVuSans-41" x="896.044922"/>
     <use xlink:href="#DejaVuSans-52" x="964.453125"/>
     <use xlink:href="#DejaVuSans-45" x="1033.935547"/>
     <use xlink:href="#DejaVuSans-44" x="1097.119141"/>
     <use xlink:href="#DejaVuSans-5f" x="1174.121094"/>
     <use xlink:href="#DejaVuSans-45" x="1224.121094"/>
     <use xlink:href="#DejaVuSans-52" x="1287.304688"/>
     <use xlink:href="#DejaVuSans-52" x="1356.787109"/>
     <use xlink:href="#DejaVuSans-4f" x="1426.269531"/>
     <use xlink:href="#DejaVuSans-52" x="1504.980469"/>
    </g>
   </g>
   <g id="legend_4">
    <g id="patch_25">
     <path d="M 1078.01875 503.91625 
L 1159.4 503.91625 
Q 1161.4 503.91625 1161.4 501.91625 
L 1161.4 473.56 
Q 1161.4 471.56 1159.4 471.56 
L 1078.01875 471.56 
Q 1076.01875 471.56 1076.01875 473.56 
L 1076.01875 501.91625 
Q 1076.01875 503.91625 1078.01875 503.91625 
z
" style="fill: #ffffff; opacity: 0.8; stroke: #cccccc; stroke-linejoin: miter"/>
    </g>
    <g id="line2d_67">
     <path d="M 1080.01875 479.658437 
L 1090.01875 479.658437 
L 1100.01875 479.658437 
" style="fill: none; stroke: #4169e1; stroke-linecap: square"/>
    </g>
    <g id="text_63">
     <!-- Training -->
     <g transform="translate(1108.01875 483.158437) scale(0.1 -0.1)">
      <use xlink:href="#DejaVuSans-54"/>
      <use xlink:href="#DejaVuSans-72" x="46.333984"/>
      <use xlink:href="#DejaVuSans-61" x="87.447266"/>
      <use xlink:href="#DejaVuSans-69" x="148.726562"/>
      <use xlink:href="#DejaVuSans-6e" x="176.509766"/>
      <use xlink:href="#DejaVuSans-69" x="239.888672"/>
      <use xlink:href="#DejaVuSans-6e" x="267.671875"/>
      <use xlink:href="#DejaVuSans-67" x="331.050781"/>
     </g>
    </g>
    <g id="line2d_68">
     <path d="M 1080.01875 494.336563 
L 1090.01875 494.336563 
L 1100.01875 494.336563 
" style="fill: none; stroke: #ff6347; stroke-linecap: square"/>
    </g>
    <g id="text_64">
     <!-- Validation -->
     <g transform="translate(1108.01875 497.836563) scale(0.1 -0.1)">
      <use xlink:href="#DejaVuSans-56"/>
      <use xlink:href="#DejaVuSans-61" x="60.658203"/>
      <use xlink:href="#DejaVuSans-6c" x="121.9375"/>
      <use xlink:href="#DejaVuSans-69" x="149.720703"/>
      <use xlink:href="#DejaVuSans-64" x="177.503906"/>
      <use xlink:href="#DejaVuSans-61" x="240.980469"/>
      <use xlink:href="#DejaVuSans-74" x="302.259766"/>
      <use xlink:href="#DejaVuSans-69" x="341.46875"/>
      <use xlink:href="#DejaVuSans-6f" x="369.251953"/>
      <use xlink:href="#DejaVuSans-6e" x="430.433594"/>
     </g>
    </g>
   </g>
  </g>
 </g>
 <defs>
  <clipPath id="p19747c8971">
   <rect x="162" y="103.68" width="456.545455" height="302.4"/>
  </clipPath>
  <clipPath id="p355d3fa173">
   <rect x="709.854545" y="103.68" width="456.545455" height="302.4"/>
  </clipPath>
  <clipPath id="pa1d1446d7c">
   <rect x="162" y="466.56" width="456.545455" height="302.4"/>
  </clipPath>
  <clipPath id="p394bd585c1">
   <rect x="709.854545" y="466.56" width="456.545455" height="302.4"/>
  </clipPath>
 </defs>
</svg>
