<?xml version="1.0" encoding="utf-8" standalone="no"?>
<!DOCTYPE svg PUBLIC "-//W3C//DTD SVG 1.1//EN"
  "http://www.w3.org/Graphics/SVG/1.1/DTD/svg11.dtd">
<svg xmlns:xlink="http://www.w3.org/1999/xlink" width="1296pt" height="864pt" viewBox="0 0 1296 864" xmlns="http://www.w3.org/2000/svg" version="1.1">
 <metadata>
  <rdf:RDF xmlns:dc="http://purl.org/dc/elements/1.1/" xmlns:cc="http://creativecommons.org/ns#" xmlns:rdf="http://www.w3.org/1999/02/22-rdf-syntax-ns#">
   <cc:Work>
    <dc:type rdf:resource="http://purl.org/dc/dcmitype/StillImage"/>
    <dc:date>2023-12-29T13:15:50.035174</dc:date>
    <dc:format>image/svg+xml</dc:format>
    <dc:creator>
     <cc:Agent>
      <dc:title>Matplotlib v3.8.0, https://matplotlib.org/</dc:title>
     </cc:Agent>
    </dc:creator>
   </cc:Work>
  </rdf:RDF>
 </metadata>
 <defs>
  <style type="text/css">*{stroke-linejoin: round; stroke-linecap: butt}</style>
 </defs>
 <g id="figure_1">
  <g id="patch_1">
   <path d="M 0 864 
L 1296 864 
L 1296 0 
L 0 0 
z
" style="fill: #ffffff"/>
  </g>
  <g id="axes_1">
   <g id="patch_2">
    <path d="M 162 768.96 
L 1166.4 768.96 
L 1166.4 103.68 
L 162 103.68 
z
" style="fill: #ffffff"/>
   </g>
   <g id="matplotlib.axis_1">
    <g id="xtick_1">
     <g id="line2d_1">
      <defs>
       <path id="mdd46977e57" d="M 0 0 
L 0 3.5 
" style="stroke: #000000; stroke-width: 0.8"/>
      </defs>
      <g>
       <use xlink:href="#mdd46977e57" x="207.654545" y="768.96" style="stroke: #000000; stroke-width: 0.8"/>
      </g>
     </g>
     <g id="text_1">
      <!-- 0 -->
      <g transform="translate(204.473295 783.558437) scale(0.1 -0.1)">
       <defs>
        <path id="DejaVuSans-30" d="M 2034 4250 
Q 1547 4250 1301 3770 
Q 1056 3291 1056 2328 
Q 1056 1369 1301 889 
Q 1547 409 2034 409 
Q 2525 409 2770 889 
Q 3016 1369 3016 2328 
Q 3016 3291 2770 3770 
Q 2525 4250 2034 4250 
z
M 2034 4750 
Q 2819 4750 3233 4129 
Q 3647 3509 3647 2328 
Q 3647 1150 3233 529 
Q 2819 -91 2034 -91 
Q 1250 -91 836 529 
Q 422 1150 422 2328 
Q 422 3509 836 4129 
Q 1250 4750 2034 4750 
z
" transform="scale(0.015625)"/>
       </defs>
       <use xlink:href="#DejaVuSans-30"/>
      </g>
     </g>
    </g>
    <g id="xtick_2">
     <g id="line2d_2">
      <g>
       <use xlink:href="#mdd46977e57" x="390.638696" y="768.96" style="stroke: #000000; stroke-width: 0.8"/>
      </g>
     </g>
     <g id="text_2">
      <!-- 100 -->
      <g transform="translate(381.094946 783.558437) scale(0.1 -0.1)">
       <defs>
        <path id="DejaVuSans-31" d="M 794 531 
L 1825 531 
L 1825 4091 
L 703 3866 
L 703 4441 
L 1819 4666 
L 2450 4666 
L 2450 531 
L 3481 531 
L 3481 0 
L 794 0 
L 794 531 
z
" transform="scale(0.015625)"/>
       </defs>
       <use xlink:href="#DejaVuSans-31"/>
       <use xlink:href="#DejaVuSans-30" x="63.623047"/>
       <use xlink:href="#DejaVuSans-30" x="127.246094"/>
      </g>
     </g>
    </g>
    <g id="xtick_3">
     <g id="line2d_3">
      <g>
       <use xlink:href="#mdd46977e57" x="573.622846" y="768.96" style="stroke: #000000; stroke-width: 0.8"/>
      </g>
     </g>
     <g id="text_3">
      <!-- 200 -->
      <g transform="translate(564.079096 783.558437) scale(0.1 -0.1)">
       <defs>
        <path id="DejaVuSans-32" d="M 1228 531 
L 3431 531 
L 3431 0 
L 469 0 
L 469 531 
Q 828 903 1448 1529 
Q 2069 2156 2228 2338 
Q 2531 2678 2651 2914 
Q 2772 3150 2772 3378 
Q 2772 3750 2511 3984 
Q 2250 4219 1831 4219 
Q 1534 4219 1204 4116 
Q 875 4013 500 3803 
L 500 4441 
Q 881 4594 1212 4672 
Q 1544 4750 1819 4750 
Q 2544 4750 2975 4387 
Q 3406 4025 3406 3419 
Q 3406 3131 3298 2873 
Q 3191 2616 2906 2266 
Q 2828 2175 2409 1742 
Q 1991 1309 1228 531 
z
" transform="scale(0.015625)"/>
       </defs>
       <use xlink:href="#DejaVuSans-32"/>
       <use xlink:href="#DejaVuSans-30" x="63.623047"/>
       <use xlink:href="#DejaVuSans-30" x="127.246094"/>
      </g>
     </g>
    </g>
    <g id="xtick_4">
     <g id="line2d_4">
      <g>
       <use xlink:href="#mdd46977e57" x="756.606996" y="768.96" style="stroke: #000000; stroke-width: 0.8"/>
      </g>
     </g>
     <g id="text_4">
      <!-- 300 -->
      <g transform="translate(747.063246 783.558437) scale(0.1 -0.1)">
       <defs>
        <path id="DejaVuSans-33" d="M 2597 2516 
Q 3050 2419 3304 2112 
Q 3559 1806 3559 1356 
Q 3559 666 3084 287 
Q 2609 -91 1734 -91 
Q 1441 -91 1130 -33 
Q 819 25 488 141 
L 488 750 
Q 750 597 1062 519 
Q 1375 441 1716 441 
Q 2309 441 2620 675 
Q 2931 909 2931 1356 
Q 2931 1769 2642 2001 
Q 2353 2234 1838 2234 
L 1294 2234 
L 1294 2753 
L 1863 2753 
Q 2328 2753 2575 2939 
Q 2822 3125 2822 3475 
Q 2822 3834 2567 4026 
Q 2313 4219 1838 4219 
Q 1578 4219 1281 4162 
Q 984 4106 628 3988 
L 628 4550 
Q 988 4650 1302 4700 
Q 1616 4750 1894 4750 
Q 2613 4750 3031 4423 
Q 3450 4097 3450 3541 
Q 3450 3153 3228 2886 
Q 3006 2619 2597 2516 
z
" transform="scale(0.015625)"/>
       </defs>
       <use xlink:href="#DejaVuSans-33"/>
       <use xlink:href="#DejaVuSans-30" x="63.623047"/>
       <use xlink:href="#DejaVuSans-30" x="127.246094"/>
      </g>
     </g>
    </g>
    <g id="xtick_5">
     <g id="line2d_5">
      <g>
       <use xlink:href="#mdd46977e57" x="939.591146" y="768.96" style="stroke: #000000; stroke-width: 0.8"/>
      </g>
     </g>
     <g id="text_5">
      <!-- 400 -->
      <g transform="translate(930.047396 783.558437) scale(0.1 -0.1)">
       <defs>
        <path id="DejaVuSans-34" d="M 2419 4116 
L 825 1625 
L 2419 1625 
L 2419 4116 
z
M 2253 4666 
L 3047 4666 
L 3047 1625 
L 3713 1625 
L 3713 1100 
L 3047 1100 
L 3047 0 
L 2419 0 
L 2419 1100 
L 313 1100 
L 313 1709 
L 2253 4666 
z
" transform="scale(0.015625)"/>
       </defs>
       <use xlink:href="#DejaVuSans-34"/>
       <use xlink:href="#DejaVuSans-30" x="63.623047"/>
       <use xlink:href="#DejaVuSans-30" x="127.246094"/>
      </g>
     </g>
    </g>
    <g id="xtick_6">
     <g id="line2d_6">
      <g>
       <use xlink:href="#mdd46977e57" x="1122.575296" y="768.96" style="stroke: #000000; stroke-width: 0.8"/>
      </g>
     </g>
     <g id="text_6">
      <!-- 500 -->
      <g transform="translate(1113.031546 783.558437) scale(0.1 -0.1)">
       <defs>
        <path id="DejaVuSans-35" d="M 691 4666 
L 3169 4666 
L 3169 4134 
L 1269 4134 
L 1269 2991 
Q 1406 3038 1543 3061 
Q 1681 3084 1819 3084 
Q 2600 3084 3056 2656 
Q 3513 2228 3513 1497 
Q 3513 744 3044 326 
Q 2575 -91 1722 -91 
Q 1428 -91 1123 -41 
Q 819 9 494 109 
L 494 744 
Q 775 591 1075 516 
Q 1375 441 1709 441 
Q 2250 441 2565 725 
Q 2881 1009 2881 1497 
Q 2881 1984 2565 2268 
Q 2250 2553 1709 2553 
Q 1456 2553 1204 2497 
Q 953 2441 691 2322 
L 691 4666 
z
" transform="scale(0.015625)"/>
       </defs>
       <use xlink:href="#DejaVuSans-35"/>
       <use xlink:href="#DejaVuSans-30" x="63.623047"/>
       <use xlink:href="#DejaVuSans-30" x="127.246094"/>
      </g>
     </g>
    </g>
   </g>
   <g id="matplotlib.axis_2">
    <g id="ytick_1">
     <g id="line2d_7">
      <defs>
       <path id="m278c8a3db6" d="M 0 0 
L -3.5 0 
" style="stroke: #000000; stroke-width: 0.8"/>
      </defs>
      <g>
       <use xlink:href="#m278c8a3db6" x="162" y="738.72" style="stroke: #000000; stroke-width: 0.8"/>
      </g>
     </g>
     <g id="text_7">
      <!-- 0 -->
      <g transform="translate(148.6375 742.519219) scale(0.1 -0.1)">
       <use xlink:href="#DejaVuSans-30"/>
      </g>
     </g>
    </g>
    <g id="ytick_2">
     <g id="line2d_8">
      <g>
       <use xlink:href="#m278c8a3db6" x="162" y="634.881283" style="stroke: #000000; stroke-width: 0.8"/>
      </g>
     </g>
     <g id="text_8">
      <!-- 20 -->
      <g transform="translate(142.275 638.680502) scale(0.1 -0.1)">
       <use xlink:href="#DejaVuSans-32"/>
       <use xlink:href="#DejaVuSans-30" x="63.623047"/>
      </g>
     </g>
    </g>
    <g id="ytick_3">
     <g id="line2d_9">
      <g>
       <use xlink:href="#m278c8a3db6" x="162" y="531.042566" style="stroke: #000000; stroke-width: 0.8"/>
      </g>
     </g>
     <g id="text_9">
      <!-- 40 -->
      <g transform="translate(142.275 534.841785) scale(0.1 -0.1)">
       <use xlink:href="#DejaVuSans-34"/>
       <use xlink:href="#DejaVuSans-30" x="63.623047"/>
      </g>
     </g>
    </g>
    <g id="ytick_4">
     <g id="line2d_10">
      <g>
       <use xlink:href="#m278c8a3db6" x="162" y="427.203849" style="stroke: #000000; stroke-width: 0.8"/>
      </g>
     </g>
     <g id="text_10">
      <!-- 60 -->
      <g transform="translate(142.275 431.003068) scale(0.1 -0.1)">
       <defs>
        <path id="DejaVuSans-36" d="M 2113 2584 
Q 1688 2584 1439 2293 
Q 1191 2003 1191 1497 
Q 1191 994 1439 701 
Q 1688 409 2113 409 
Q 2538 409 2786 701 
Q 3034 994 3034 1497 
Q 3034 2003 2786 2293 
Q 2538 2584 2113 2584 
z
M 3366 4563 
L 3366 3988 
Q 3128 4100 2886 4159 
Q 2644 4219 2406 4219 
Q 1781 4219 1451 3797 
Q 1122 3375 1075 2522 
Q 1259 2794 1537 2939 
Q 1816 3084 2150 3084 
Q 2853 3084 3261 2657 
Q 3669 2231 3669 1497 
Q 3669 778 3244 343 
Q 2819 -91 2113 -91 
Q 1303 -91 875 529 
Q 447 1150 447 2328 
Q 447 3434 972 4092 
Q 1497 4750 2381 4750 
Q 2619 4750 2861 4703 
Q 3103 4656 3366 4563 
z
" transform="scale(0.015625)"/>
       </defs>
       <use xlink:href="#DejaVuSans-36"/>
       <use xlink:href="#DejaVuSans-30" x="63.623047"/>
      </g>
     </g>
    </g>
    <g id="ytick_5">
     <g id="line2d_11">
      <g>
       <use xlink:href="#m278c8a3db6" x="162" y="323.365132" style="stroke: #000000; stroke-width: 0.8"/>
      </g>
     </g>
     <g id="text_11">
      <!-- 80 -->
      <g transform="translate(142.275 327.164351) scale(0.1 -0.1)">
       <defs>
        <path id="DejaVuSans-38" d="M 2034 2216 
Q 1584 2216 1326 1975 
Q 1069 1734 1069 1313 
Q 1069 891 1326 650 
Q 1584 409 2034 409 
Q 2484 409 2743 651 
Q 3003 894 3003 1313 
Q 3003 1734 2745 1975 
Q 2488 2216 2034 2216 
z
M 1403 2484 
Q 997 2584 770 2862 
Q 544 3141 544 3541 
Q 544 4100 942 4425 
Q 1341 4750 2034 4750 
Q 2731 4750 3128 4425 
Q 3525 4100 3525 3541 
Q 3525 3141 3298 2862 
Q 3072 2584 2669 2484 
Q 3125 2378 3379 2068 
Q 3634 1759 3634 1313 
Q 3634 634 3220 271 
Q 2806 -91 2034 -91 
Q 1263 -91 848 271 
Q 434 634 434 1313 
Q 434 1759 690 2068 
Q 947 2378 1403 2484 
z
M 1172 3481 
Q 1172 3119 1398 2916 
Q 1625 2713 2034 2713 
Q 2441 2713 2670 2916 
Q 2900 3119 2900 3481 
Q 2900 3844 2670 4047 
Q 2441 4250 2034 4250 
Q 1625 4250 1398 4047 
Q 1172 3844 1172 3481 
z
" transform="scale(0.015625)"/>
       </defs>
       <use xlink:href="#DejaVuSans-38"/>
       <use xlink:href="#DejaVuSans-30" x="63.623047"/>
      </g>
     </g>
    </g>
    <g id="ytick_6">
     <g id="line2d_12">
      <g>
       <use xlink:href="#m278c8a3db6" x="162" y="219.526415" style="stroke: #000000; stroke-width: 0.8"/>
      </g>
     </g>
     <g id="text_12">
      <!-- 100 -->
      <g transform="translate(135.9125 223.325634) scale(0.1 -0.1)">
       <use xlink:href="#DejaVuSans-31"/>
       <use xlink:href="#DejaVuSans-30" x="63.623047"/>
       <use xlink:href="#DejaVuSans-30" x="127.246094"/>
      </g>
     </g>
    </g>
    <g id="ytick_7">
     <g id="line2d_13">
      <g>
       <use xlink:href="#m278c8a3db6" x="162" y="115.687698" style="stroke: #000000; stroke-width: 0.8"/>
      </g>
     </g>
     <g id="text_13">
      <!-- 120 -->
      <g transform="translate(135.9125 119.486917) scale(0.1 -0.1)">
       <use xlink:href="#DejaVuSans-31"/>
       <use xlink:href="#DejaVuSans-32" x="63.623047"/>
       <use xlink:href="#DejaVuSans-30" x="127.246094"/>
      </g>
     </g>
    </g>
   </g>
   <g id="line2d_14">
    <path d="M 207.654545 717.952257 
L 209.484387 733.528064 
L 211.314228 733.528064 
L 213.14407 712.760321 
L 214.973911 582.961925 
L 216.803753 468.739336 
L 218.633594 541.426438 
L 220.463436 660.840962 
L 222.293277 624.497411 
L 224.123119 707.568385 
L 225.95296 442.779657 
L 227.782802 733.528064 
L 229.612643 520.658694 
L 231.442485 691.992577 
L 233.272326 660.840962 
L 235.102168 671.224834 
L 236.932009 634.881283 
L 238.761851 650.457091 
L 240.591692 297.405453 
L 242.421534 531.042566 
L 244.251375 463.5474 
L 246.081217 177.990929 
L 253.400583 177.990929 
L 255.230424 328.557068 
L 257.060266 177.990929 
L 271.698998 177.990929 
L 273.528839 276.63771 
L 275.358681 349.324812 
L 277.188522 177.990929 
L 279.018364 442.779657 
L 280.848206 292.213517 
L 282.678047 177.990929 
L 293.657096 177.990929 
L 295.486938 370.092555 
L 297.316779 188.3748 
L 299.146621 177.990929 
L 302.806304 177.990929 
L 304.636145 442.779657 
L 306.465987 458.355464 
L 308.295828 177.990929 
L 310.12567 177.990929 
L 311.955511 209.142544 
L 313.785353 177.990929 
L 315.615194 401.24417 
L 317.445036 370.092555 
L 319.274877 177.990929 
L 321.104719 390.860298 
L 322.93456 551.81031 
L 324.764402 541.426438 
L 326.594243 525.85063 
L 328.424085 333.749004 
L 330.253926 422.011913 
L 332.083768 572.578053 
L 333.913609 525.85063 
L 335.743451 349.324812 
L 337.573292 370.092555 
L 339.403134 281.829646 
L 341.232975 364.900619 
L 343.062817 188.3748 
L 344.892658 515.466759 
L 346.7225 442.779657 
L 348.552341 375.284491 
L 350.382183 546.618374 
L 352.212024 515.466759 
L 354.041866 645.265155 
L 355.871707 557.002245 
L 357.701549 660.840962 
L 359.53139 494.699015 
L 361.361232 525.85063 
L 363.191073 525.85063 
L 365.020915 546.618374 
L 366.850756 582.961925 
L 368.680598 608.921604 
L 370.510439 281.829646 
L 372.340281 229.910287 
L 374.170122 209.142544 
L 375.999964 416.819978 
L 377.829805 245.486095 
L 379.659647 240.294159 
L 381.489488 536.234502 
L 383.31933 510.274823 
L 385.149171 608.921604 
L 386.979013 541.426438 
L 388.808854 494.699015 
L 390.638696 390.860298 
L 392.468537 364.900619 
L 394.298379 505.082887 
L 396.12822 416.819978 
L 397.958062 422.011913 
L 399.787903 598.537732 
L 401.617745 479.123208 
L 403.447586 458.355464 
L 405.277428 349.324812 
L 407.107269 557.002245 
L 408.937111 510.274823 
L 410.766952 723.144192 
L 412.596794 645.265155 
L 414.426635 479.123208 
L 416.256477 676.41677 
L 418.086318 634.881283 
L 419.91616 588.15386 
L 421.746001 375.284491 
L 423.575843 541.426438 
L 425.405684 551.81031 
L 427.235526 593.345796 
L 429.065367 598.537732 
L 430.895209 375.284491 
L 432.72505 333.749004 
L 434.554892 593.345796 
L 438.214575 276.63771 
L 440.044416 655.649026 
L 441.874258 442.779657 
L 443.704099 614.11354 
L 445.533941 645.265155 
L 447.363782 499.890951 
L 449.193624 551.81031 
L 451.023465 551.81031 
L 452.853307 499.890951 
L 454.683148 671.224834 
L 456.51299 650.457091 
L 458.342831 572.578053 
L 460.172673 582.961925 
L 462.002514 546.618374 
L 463.832356 640.073219 
L 465.662197 629.689347 
L 467.492039 333.749004 
L 469.32188 494.699015 
L 471.151722 541.426438 
L 472.981563 660.840962 
L 474.811405 546.618374 
L 476.641246 645.265155 
L 478.471088 733.528064 
L 480.300929 650.457091 
L 482.130771 691.992577 
L 483.960612 562.194181 
L 485.790454 681.608706 
L 487.620295 691.992577 
L 489.450137 598.537732 
L 491.279978 733.528064 
L 493.10982 468.739336 
L 494.939661 588.15386 
L 496.769503 614.11354 
L 498.599344 546.618374 
L 500.429186 577.769989 
L 502.259027 536.234502 
L 504.088869 650.457091 
L 505.91871 510.274823 
L 507.748552 614.11354 
L 509.578393 515.466759 
L 511.408235 582.961925 
L 513.238076 463.5474 
L 515.067918 520.658694 
L 516.897759 447.971593 
L 518.727601 691.992577 
L 520.557442 494.699015 
L 522.387284 640.073219 
L 524.217125 686.800642 
L 526.046967 479.123208 
L 527.876808 473.931272 
L 529.70665 572.578053 
L 531.536491 525.85063 
L 533.366333 650.457091 
L 535.196174 691.992577 
L 537.026016 629.689347 
L 538.855857 717.952257 
L 540.685699 666.032898 
L 542.51554 707.568385 
L 544.345382 712.760321 
L 546.175223 562.194181 
L 548.005065 557.002245 
L 549.834906 650.457091 
L 551.664748 640.073219 
L 553.494589 723.144192 
L 555.324431 629.689347 
L 557.154272 681.608706 
L 558.984114 691.992577 
L 560.813955 686.800642 
L 562.643797 671.224834 
L 564.473638 650.457091 
L 566.30348 619.305476 
L 568.133321 608.921604 
L 569.963163 733.528064 
L 571.793004 691.992577 
L 573.622846 738.72 
L 575.452687 697.184513 
L 577.282529 728.336128 
L 579.11237 660.840962 
L 580.942212 666.032898 
L 582.772053 660.840962 
L 584.601895 640.073219 
L 586.431736 640.073219 
L 588.261578 453.163528 
L 590.091419 354.516747 
L 591.921261 224.718351 
L 593.751102 245.486095 
L 595.580944 177.990929 
L 601.070468 177.990929 
L 602.90031 281.829646 
L 604.730151 177.990929 
L 606.559993 177.990929 
L 608.389834 250.67803 
L 610.219676 177.990929 
L 612.049517 359.708683 
L 613.879359 364.900619 
L 615.7092 177.990929 
L 617.539042 177.990929 
L 619.368883 551.81031 
L 621.198725 406.436106 
L 623.028566 177.990929 
L 624.858408 370.092555 
L 626.688249 266.253838 
L 628.518091 177.990929 
L 630.347932 390.860298 
L 634.007615 177.990929 
L 644.986664 177.990929 
L 646.816506 188.3748 
L 648.646347 177.990929 
L 654.135872 177.990929 
L 655.965713 323.365132 
L 657.795555 261.061902 
L 659.625396 177.990929 
L 661.455238 177.990929 
L 663.285079 240.294159 
L 665.114921 183.182864 
L 666.944762 271.445774 
L 668.774604 203.950608 
L 670.604445 276.63771 
L 672.434287 177.990929 
L 674.264128 250.67803 
L 676.09397 245.486095 
L 677.923811 177.990929 
L 679.753653 577.769989 
L 681.583494 364.900619 
L 683.413336 593.345796 
L 685.243177 562.194181 
L 687.073019 499.890951 
L 688.90286 582.961925 
L 690.732702 582.961925 
L 692.562543 650.457091 
L 694.392385 396.052234 
L 696.222226 603.729668 
L 698.052068 640.073219 
L 699.881909 427.203849 
L 701.711751 489.507079 
L 703.541592 499.890951 
L 705.371434 598.537732 
L 707.201275 588.15386 
L 709.031117 593.345796 
L 710.860958 437.587721 
L 712.6908 619.305476 
L 714.520641 634.881283 
L 716.350483 582.961925 
L 718.180324 525.85063 
L 720.010166 728.336128 
L 721.840007 510.274823 
L 723.669849 525.85063 
L 725.49969 499.890951 
L 727.329532 562.194181 
L 729.159373 567.386117 
L 730.989215 510.274823 
L 732.819056 650.457091 
L 736.478739 619.305476 
L 738.308581 541.426438 
L 740.138422 640.073219 
L 741.968264 588.15386 
L 743.798105 531.042566 
L 745.627947 723.144192 
L 747.457788 707.568385 
L 749.28763 733.528064 
L 751.117471 738.72 
L 752.947313 686.800642 
L 754.777154 681.608706 
L 756.606996 515.466759 
L 758.436837 660.840962 
L 760.266679 645.265155 
L 762.09652 619.305476 
L 763.926362 603.729668 
L 765.756203 323.365132 
L 767.586045 380.476427 
L 769.415886 401.24417 
L 771.245728 177.990929 
L 773.075569 193.566736 
L 774.905411 177.990929 
L 780.394935 177.990929 
L 782.224777 354.516747 
L 784.054618 177.990929 
L 785.88446 463.5474 
L 787.714301 328.557068 
L 789.544143 177.990929 
L 791.373984 354.516747 
L 793.203826 209.142544 
L 795.033667 177.990929 
L 796.863509 183.182864 
L 798.69335 318.173196 
L 800.523192 177.990929 
L 806.012716 177.990929 
L 807.842558 229.910287 
L 809.672399 266.253838 
L 811.502241 177.990929 
L 813.332082 177.990929 
L 815.161924 266.253838 
L 816.991765 177.990929 
L 818.821607 214.33448 
L 820.651448 411.628042 
L 822.48129 177.990929 
L 824.311131 183.182864 
L 826.140973 354.516747 
L 827.970814 177.990929 
L 831.630497 177.990929 
L 833.460339 193.566736 
L 835.29018 292.213517 
L 837.120022 177.990929 
L 838.949863 235.102223 
L 840.779705 318.173196 
L 842.609546 177.990929 
L 844.439388 177.990929 
L 846.269229 536.234502 
L 848.099071 422.011913 
L 849.928912 437.587721 
L 851.758754 318.173196 
L 853.588595 297.405453 
L 855.418437 406.436106 
L 857.248278 354.516747 
L 859.07812 453.163528 
L 860.907961 660.840962 
L 862.737803 546.618374 
L 864.567644 697.184513 
L 866.397486 463.5474 
L 868.227327 354.516747 
L 870.057169 468.739336 
L 871.88701 562.194181 
L 873.716852 629.689347 
L 875.546693 619.305476 
L 877.376535 479.123208 
L 879.206376 562.194181 
L 881.036218 551.81031 
L 882.866059 676.41677 
L 884.695901 520.658694 
L 886.525742 640.073219 
L 888.355584 375.284491 
L 890.185425 531.042566 
L 892.015267 380.476427 
L 893.845108 479.123208 
L 895.67495 432.395785 
L 897.504791 499.890951 
L 899.334633 541.426438 
L 901.164474 416.819978 
L 902.994316 603.729668 
L 904.824157 515.466759 
L 906.653999 442.779657 
L 908.48384 650.457091 
L 910.313682 505.082887 
L 912.143523 666.032898 
L 913.973365 577.769989 
L 915.803206 546.618374 
L 917.633048 598.537732 
L 919.462889 557.002245 
L 921.292731 660.840962 
L 923.122572 551.81031 
L 924.952414 671.224834 
L 926.782255 536.234502 
L 928.612097 723.144192 
L 930.441938 660.840962 
L 932.27178 401.24417 
L 934.101621 629.689347 
L 935.931463 473.931272 
L 937.761304 645.265155 
L 939.591146 525.85063 
L 941.420987 588.15386 
L 943.250829 177.990929 
L 945.08067 177.990929 
L 946.910512 203.950608 
L 948.740353 177.990929 
L 965.208927 177.990929 
L 967.038768 359.708683 
L 968.86861 177.990929 
L 970.698451 177.990929 
L 972.528293 505.082887 
L 974.358134 183.182864 
L 976.187976 302.597389 
L 978.017817 177.990929 
L 979.847659 214.33448 
L 981.6775 468.739336 
L 983.507342 344.132876 
L 985.337183 370.092555 
L 987.167025 177.990929 
L 992.656549 177.990929 
L 994.486391 281.829646 
L 996.316232 177.990929 
L 999.975915 177.990929 
L 1001.805757 209.142544 
L 1003.635598 177.990929 
L 1005.46544 177.990929 
L 1007.295281 235.102223 
L 1009.125123 240.294159 
L 1010.954964 177.990929 
L 1012.784806 245.486095 
L 1014.614647 177.990929 
L 1016.444489 177.990929 
L 1018.27433 255.869966 
L 1020.104172 177.990929 
L 1021.934013 557.002245 
L 1023.763855 536.234502 
L 1025.593696 411.628042 
L 1027.423538 354.516747 
L 1029.253379 177.990929 
L 1031.083221 271.445774 
L 1032.913062 287.021581 
L 1034.742904 349.324812 
L 1036.572745 245.486095 
L 1038.402587 312.981261 
L 1040.232428 328.557068 
L 1042.06227 499.890951 
L 1043.892111 401.24417 
L 1045.721953 416.819978 
L 1047.551794 598.537732 
L 1049.381636 442.779657 
L 1051.211478 312.981261 
L 1053.041319 245.486095 
L 1054.871161 479.123208 
L 1056.701002 489.507079 
L 1058.530844 660.840962 
L 1060.360685 489.507079 
L 1062.190527 359.708683 
L 1064.020368 494.699015 
L 1065.85021 468.739336 
L 1067.680051 572.578053 
L 1069.509893 401.24417 
L 1071.339734 396.052234 
L 1073.169576 328.557068 
L 1074.999417 499.890951 
L 1076.829259 447.971593 
L 1078.6591 354.516747 
L 1080.488942 546.618374 
L 1082.318783 484.315144 
L 1084.148625 177.990929 
L 1085.978466 177.990929 
L 1087.808308 447.971593 
L 1089.638149 333.749004 
L 1091.467991 323.365132 
L 1093.297832 338.94094 
L 1095.127674 505.082887 
L 1096.957515 177.990929 
L 1098.787357 634.881283 
L 1100.617198 567.386117 
L 1102.44704 557.002245 
L 1104.276881 536.234502 
L 1106.106723 427.203849 
L 1107.936564 505.082887 
L 1109.766406 255.869966 
L 1111.596247 473.931272 
L 1113.426089 422.011913 
L 1115.25593 349.324812 
L 1117.085772 531.042566 
L 1118.915613 557.002245 
L 1120.745455 546.618374 
L 1120.745455 546.618374 
" clip-path="url(#pe4337024da)" style="fill: none; stroke: #4169e1; stroke-linecap: square"/>
   </g>
   <g id="line2d_15">
    <path d="M 207.654545 687.238842 
L 209.484387 676.673966 
L 211.314228 672.390977 
L 213.14407 669.02082 
L 214.973911 695.699569 
L 216.803753 682.427333 
L 218.633594 649.9425 
L 220.463436 611.721897 
L 222.293277 611.161624 
L 224.123119 603.882172 
L 225.95296 632.457159 
L 227.782802 595.884169 
L 229.612643 632.69151 
L 231.442485 579.423534 
L 233.272326 595.30119 
L 235.102168 585.982031 
L 236.932009 555.667661 
L 238.761851 538.996481 
L 240.591692 466.732646 
L 242.421534 291.036427 
L 244.251375 333.902419 
L 246.081217 359.695849 
L 247.911058 244.397694 
L 249.7409 241.798597 
L 251.570741 211.483692 
L 253.400583 202.148768 
L 255.230424 200.065291 
L 257.060266 241.853498 
L 258.890107 218.146555 
L 260.719949 220.149185 
L 262.54979 217.7424 
L 264.379632 221.040677 
L 266.209473 222.915679 
L 268.039315 220.072774 
L 269.869156 213.21946 
L 271.698998 208.361725 
L 273.528839 205.073985 
L 275.358681 227.663374 
L 277.188522 254.866532 
L 279.018364 230.891222 
L 280.848206 289.872488 
L 282.678047 258.184773 
L 284.507889 220.426622 
L 286.33773 214.28247 
L 288.167572 211.567351 
L 289.997413 214.78181 
L 291.827255 213.814898 
L 293.657096 214.986601 
L 295.486938 212.303528 
L 297.316779 251.661659 
L 299.146621 214.220359 
L 300.976462 207.276296 
L 302.806304 210.650072 
L 304.636145 204.654343 
L 306.465987 266.19652 
L 308.295828 332.305488 
L 310.12567 272.16571 
L 311.955511 277.936327 
L 313.785353 257.171594 
L 315.615194 228.481982 
L 317.445036 288.104872 
L 319.274877 312.871379 
L 321.104719 277.768296 
L 322.93456 351.362577 
L 324.764402 430.042536 
L 326.594243 480.87589 
L 328.424085 523.723542 
L 330.253926 485.32652 
L 332.083768 460.153502 
L 333.913609 491.970131 
L 335.743451 493.728775 
L 337.573292 469.82631 
L 339.403134 465.07307 
L 341.232975 383.456308 
L 343.062817 357.925381 
L 344.892658 305.840447 
L 346.7225 385.660282 
L 348.552341 418.495061 
L 350.382183 412.394759 
L 352.212024 496.098622 
L 354.041866 496.731195 
L 355.871707 540.804817 
L 357.701549 551.917181 
L 359.53139 568.137623 
L 363.191073 536.100517 
L 365.020915 539.19224 
L 366.850756 531.86866 
L 368.680598 564.950119 
L 370.510439 593.583563 
L 372.340281 487.595318 
L 374.170122 366.982353 
L 375.999964 286.550999 
L 377.829805 304.911601 
L 379.659647 269.093574 
L 381.489488 276.354449 
L 383.31933 392.674061 
L 385.149171 425.191396 
L 386.979013 522.960311 
L 388.808854 538.222416 
L 390.638696 514.000169 
L 392.468537 470.376175 
L 394.298379 400.648653 
L 396.12822 427.98443 
L 397.958062 398.382014 
L 399.787903 397.97172 
L 401.617745 489.41938 
L 403.447586 460.585919 
L 405.277428 455.118268 
L 407.107269 425.681368 
L 408.937111 473.83668 
L 410.766952 476.865798 
L 412.596794 579.860912 
L 414.426635 543.882855 
L 416.256477 342.498156 
L 418.086318 470.80366 
L 419.91616 507.467132 
L 421.746001 557.369205 
L 423.575843 546.841465 
L 425.405684 519.465581 
L 427.235526 495.956358 
L 429.065367 508.054608 
L 430.895209 552.603685 
L 434.554892 397.486679 
L 436.384733 459.75014 
L 438.214575 394.499866 
L 440.044416 337.172611 
L 441.874258 507.771803 
L 443.704099 416.167737 
L 445.533941 498.735924 
L 447.363782 561.030757 
L 449.193624 505.500727 
L 451.023465 535.783884 
L 452.853307 533.738137 
L 454.683148 491.228786 
L 456.51299 551.410394 
L 458.342831 567.650958 
L 460.172673 547.215158 
L 462.002514 569.915835 
L 463.832356 540.646134 
L 465.662197 552.010901 
L 467.492039 560.891959 
L 469.32188 465.106443 
L 471.151722 474.053909 
L 472.981563 471.390879 
L 474.811405 515.270088 
L 476.641246 498.043063 
L 478.471088 549.864106 
L 480.300929 609.876059 
L 482.130771 615.490796 
L 483.960612 636.123871 
L 485.790454 615.208951 
L 489.450137 625.057912 
L 491.279978 602.63087 
L 493.10982 634.44748 
L 494.939661 591.269588 
L 496.769503 580.510498 
L 498.599344 580.962058 
L 500.429186 548.172168 
L 502.259027 566.908702 
L 504.088869 556.122082 
L 505.91871 561.33824 
L 507.748552 549.426837 
L 509.578393 557.237616 
L 511.408235 560.818401 
L 513.238076 548.078447 
L 515.067918 545.776237 
L 518.727601 516.081427 
L 520.557442 547.529236 
L 522.387284 530.409676 
L 524.217125 557.772864 
L 526.046967 598.096482 
L 527.876808 547.261147 
L 529.70665 553.135506 
L 531.536491 556.363117 
L 533.366333 529.722994 
L 537.026016 581.021425 
L 538.855857 579.281636 
L 540.685699 617.287476 
L 542.51554 630.585346 
L 544.345382 642.798221 
L 546.175223 657.539056 
L 548.005065 648.534703 
L 549.834906 636.063602 
L 551.664748 636.314966 
L 553.494589 623.725278 
L 555.324431 647.647004 
L 557.154272 651.908301 
L 558.984114 655.370331 
L 560.813955 660.548487 
L 562.643797 652.415891 
L 564.473638 656.072729 
L 566.30348 651.661433 
L 568.133321 644.719836 
L 569.963163 639.062744 
L 571.793004 651.591381 
L 573.622846 653.718658 
L 575.452687 665.001449 
L 577.282529 672.497942 
L 579.11237 672.919753 
L 580.942212 665.981022 
L 582.772053 656.81461 
L 588.261578 596.036752 
L 590.091419 463.473644 
L 591.921261 316.402491 
L 593.751102 267.758672 
L 595.580944 223.933572 
L 597.410785 203.209757 
L 599.240627 187.551241 
L 601.070468 195.422368 
L 602.90031 200.05626 
L 604.730151 230.896847 
L 606.559993 212.988645 
L 608.389834 215.424544 
L 610.219676 233.598181 
L 612.049517 218.229699 
L 613.879359 265.677652 
L 615.7092 292.255505 
L 617.539042 255.254882 
L 619.368883 254.778833 
L 621.198725 337.862878 
L 623.028566 330.937234 
L 624.858408 262.176406 
L 626.688249 326.23323 
L 628.518091 261.616857 
L 630.347932 240.001708 
L 632.177774 292.870788 
L 634.007615 271.093906 
L 635.837457 240.29408 
L 637.667298 236.146932 
L 639.49714 230.150411 
L 641.326981 231.276957 
L 643.156823 231.751778 
L 644.986664 233.753893 
L 646.816506 231.363627 
L 648.646347 227.343711 
L 650.476189 217.18392 
L 652.30603 216.199064 
L 654.135872 212.849926 
L 655.965713 206.430277 
L 657.795555 241.441976 
L 659.625396 247.019132 
L 661.455238 237.547905 
L 663.285079 244.424907 
L 665.114921 247.111743 
L 666.944762 233.250631 
L 668.774604 261.489665 
L 670.604445 258.417014 
L 672.434287 280.167633 
L 674.264128 274.88479 
L 676.09397 291.802193 
L 677.923811 303.406173 
L 679.753653 282.367726 
L 681.583494 400.733778 
L 683.413336 384.252456 
L 685.243177 484.926544 
L 687.073019 539.503466 
L 688.90286 524.161821 
L 690.732702 560.4291 
L 692.562543 557.684511 
L 694.392385 567.022089 
L 696.222226 541.805043 
L 698.052068 556.900286 
L 699.881909 569.383994 
L 701.711751 513.880602 
L 703.541592 533.270703 
L 705.371434 518.9562 
L 707.201275 516.388078 
L 709.031117 532.060855 
L 710.860958 536.014936 
L 712.6908 514.44746 
L 714.520641 522.150932 
L 716.350483 527.838782 
L 718.180324 543.646177 
L 720.010166 566.772973 
L 721.840007 611.37614 
L 723.669849 572.336166 
L 725.49969 550.114271 
L 727.329532 533.554558 
L 729.159373 519.975201 
L 730.989215 538.367097 
L 732.819056 520.515737 
L 734.648898 580.360094 
L 736.478739 587.064598 
L 738.308581 568.446275 
L 740.138422 558.127762 
L 741.968264 579.825401 
L 743.798105 575.777995 
L 745.627947 559.239196 
L 747.457788 614.409377 
L 749.28763 624.365278 
L 751.117471 636.763197 
L 752.947313 653.819439 
L 754.777154 644.459856 
L 756.606996 628.38153 
L 758.436837 554.647907 
L 760.266679 572.145695 
L 762.09652 560.64217 
L 763.926362 529.264394 
L 765.756203 468.851297 
L 767.586045 298.062209 
L 769.415886 300.454971 
L 771.245728 323.537085 
L 773.075569 227.374132 
L 774.905411 198.598523 
L 776.735252 190.77596 
L 778.565094 188.197421 
L 780.394935 194.039537 
L 782.224777 194.308973 
L 784.054618 241.649975 
L 785.88446 213.160717 
L 787.714301 304.204341 
L 789.544143 302.50759 
L 791.373984 259.671901 
L 793.203826 325.019064 
L 795.033667 262.971287 
L 796.863509 241.53332 
L 798.69335 233.870469 
L 800.523192 250.315824 
L 802.353033 216.275038 
L 804.182875 211.93637 
L 806.012716 217.244288 
L 807.842558 215.500003 
L 809.672399 229.978696 
L 811.502241 240.997299 
L 813.332082 228.988135 
L 815.161924 229.972833 
L 816.991765 250.600947 
L 818.821607 234.480365 
L 820.651448 247.529722 
L 822.48129 311.865687 
L 824.311131 259.277095 
L 826.140973 243.471066 
L 827.970814 277.325521 
L 829.800656 222.608731 
L 831.630497 209.222757 
L 833.460339 213.227264 
L 835.29018 208.757759 
L 837.120022 244.19223 
L 838.949863 231.575943 
L 840.779705 250.369617 
L 842.609546 285.782103 
L 844.439388 249.573587 
L 846.269229 252.664063 
L 848.099071 369.235128 
L 849.928912 401.547197 
L 851.758754 445.89277 
L 853.588595 428.365729 
L 855.418437 388.831961 
L 857.248278 403.249256 
L 859.07812 386.311096 
L 860.907961 430.757639 
L 862.737803 497.89963 
L 864.567644 509.359464 
L 866.397486 551.516314 
L 868.227327 550.725355 
L 870.057169 502.445763 
L 871.88701 503.996625 
L 873.716852 488.387247 
L 875.546693 510.332358 
L 877.376535 536.312378 
L 879.206376 534.479324 
L 881.036218 546.391638 
L 882.866059 540.919056 
L 884.695901 553.888102 
L 886.525742 541.60762 
L 888.355584 546.625504 
L 890.185425 505.213921 
L 892.015267 485.272728 
L 893.845108 468.173132 
L 897.504791 455.721549 
L 899.334633 430.565445 
L 901.164474 483.809723 
L 902.994316 432.745513 
L 904.824157 525.238932 
L 906.653999 513.893476 
L 908.48384 470.232148 
L 910.313682 575.146679 
L 912.143523 519.824044 
L 913.973365 576.584461 
L 915.803206 573.180848 
L 917.633048 552.213612 
L 919.462889 584.498497 
L 921.292731 566.219762 
L 923.122572 590.901371 
L 924.952414 584.502152 
L 926.782255 602.749169 
L 928.612097 578.92555 
L 930.441938 606.515275 
L 932.27178 615.198197 
L 934.101621 532.27436 
L 935.931463 565.779165 
L 937.761304 510.220674 
L 939.591146 546.560581 
L 941.420987 483.89768 
L 943.250829 439.079662 
L 945.08067 299.041559 
L 946.910512 212.681538 
L 948.740353 210.087789 
L 950.570195 177.401037 
L 952.400036 186.334342 
L 956.059719 197.271584 
L 957.889561 198.176108 
L 959.719402 200.295116 
L 965.208927 208.379788 
L 967.038768 218.307258 
L 968.86861 269.810697 
L 970.698451 242.503322 
L 972.528293 241.210408 
L 974.358134 326.515223 
L 976.187976 244.808582 
L 978.017817 266.851375 
L 979.847659 243.91 
L 981.6775 232.522456 
L 983.507342 304.08008 
L 985.337183 304.379423 
L 987.167025 335.154018 
L 988.996866 290.426729 
L 990.826708 250.999476 
L 992.656549 242.179381 
L 994.486391 232.468268 
L 996.316232 260.55052 
L 998.146074 244.771189 
L 999.975915 240.858779 
L 1001.805757 225.859316 
L 1003.635598 224.12529 
L 1005.46544 210.103277 
L 1007.295281 200.481844 
L 1009.125123 217.154014 
L 1010.954964 229.668024 
L 1012.784806 225.560805 
L 1014.614647 249.843657 
L 1016.444489 234.135508 
L 1018.27433 229.810823 
L 1020.104172 255.293463 
L 1021.934013 241.421022 
L 1023.763855 370.684309 
L 1025.593696 459.689772 
L 1027.423538 460.798929 
L 1029.253379 462.981156 
L 1031.083221 377.784877 
L 1032.913062 341.505417 
L 1034.742904 317.792888 
L 1036.572745 322.090598 
L 1038.402587 298.421602 
L 1040.232428 330.683166 
L 1042.06227 349.797058 
L 1043.892111 415.078584 
L 1045.721953 429.209826 
L 1047.551794 447.467895 
L 1049.381636 505.014656 
L 1051.211478 480.584747 
L 1053.041319 447.145201 
L 1054.871161 410.17284 
L 1056.701002 427.270258 
L 1058.530844 453.438788 
L 1060.360685 504.109379 
L 1062.190527 506.178714 
L 1064.020368 462.846636 
L 1065.85021 484.56218 
L 1067.680051 439.44163 
L 1069.509893 489.471706 
L 1071.339734 476.09815 
L 1073.169576 445.949454 
L 1074.999417 394.66354 
L 1076.829259 411.162589 
L 1078.6591 414.815605 
L 1080.488942 387.345189 
L 1082.318783 467.948298 
L 1084.148625 460.435099 
L 1085.978466 368.417471 
L 1087.808308 353.464869 
L 1089.638149 380.689337 
L 1091.467991 333.249822 
L 1093.297832 345.833469 
L 1095.127674 369.525717 
L 1096.957515 402.213063 
L 1098.787357 319.507544 
L 1100.617198 468.089473 
L 1102.44704 503.808789 
L 1104.276881 498.562625 
L 1106.106723 545.244197 
L 1107.936564 497.463668 
L 1109.766406 501.808773 
L 1111.596247 426.029056 
L 1113.426089 447.468964 
L 1115.25593 443.752927 
L 1117.085772 402.623951 
L 1118.915613 468.528247 
L 1120.745455 485.247158 
L 1120.745455 485.247158 
" clip-path="url(#pe4337024da)" style="fill: none; stroke: #ff6347; stroke-linecap: square"/>
   </g>
   <g id="line2d_16">
    <path d="M 207.654545 738.72 
L 209.484387 730.839168 
L 211.314228 672.457935 
L 213.14407 630.513065 
L 214.973911 669.094621 
L 216.803753 668.98513 
L 218.633594 610.013936 
L 220.463436 596.950863 
L 222.293277 605.200387 
L 224.123119 586.397029 
L 225.95296 606.036899 
L 227.782802 569.355949 
L 229.612643 667.94919 
L 231.442485 514.023421 
L 233.272326 589.884133 
L 235.102168 580.059117 
L 236.932009 459.487497 
L 238.761851 529.317592 
L 240.591692 449.871689 
L 242.421534 349.92421 
L 244.251375 322.332623 
L 246.081217 412.196405 
L 247.911058 176.440066 
L 249.7409 176.009887 
L 251.570741 180.704146 
L 253.400583 162.814839 
L 255.230424 188.696722 
L 257.060266 199.771454 
L 258.890107 169.542546 
L 260.719949 133.92 
L 262.54979 170.410588 
L 264.379632 187.164952 
L 266.209473 193.558655 
L 268.039315 199.087367 
L 269.869156 230.48584 
L 271.698998 218.642924 
L 273.528839 216.606308 
L 275.358681 238.46265 
L 279.018364 187.232449 
L 280.848206 257.864753 
L 282.678047 264.926938 
L 284.507889 220.934519 
L 286.33773 202.620459 
L 288.167572 195.009816 
L 289.997413 158.868085 
L 291.827255 179.57958 
L 295.486938 185.826485 
L 297.316779 233.785859 
L 299.146621 234.346676 
L 300.976462 238.304601 
L 302.806304 203.522013 
L 304.636145 211.969763 
L 308.295828 306.792823 
L 310.12567 288.974578 
L 311.955511 254.737954 
L 313.785353 324.762699 
L 315.615194 253.732658 
L 317.445036 296.117213 
L 319.274877 310.599828 
L 321.104719 253.710832 
L 322.93456 369.429778 
L 324.764402 437.835826 
L 326.594243 463.83989 
L 328.424085 532.922163 
L 330.253926 432.586613 
L 332.083768 426.744298 
L 333.913609 479.767842 
L 335.743451 463.8042 
L 337.573292 449.005706 
L 339.403134 412.245761 
L 341.232975 389.371309 
L 343.062817 386.578393 
L 344.892658 346.617496 
L 346.7225 393.140326 
L 348.552341 369.058065 
L 350.382183 331.994301 
L 352.212024 494.517932 
L 354.041866 504.028929 
L 355.871707 547.319138 
L 357.701549 566.364283 
L 361.361232 553.561328 
L 363.191073 548.341169 
L 365.020915 527.11138 
L 366.850756 525.492168 
L 368.680598 588.242134 
L 370.510439 591.613949 
L 372.340281 527.708857 
L 374.170122 386.780767 
L 375.999964 455.573204 
L 377.829805 436.936847 
L 379.659647 405.913117 
L 381.489488 415.677864 
L 383.31933 536.721008 
L 385.149171 546.093187 
L 386.979013 571.698186 
L 388.808854 411.828138 
L 390.638696 561.221109 
L 392.468537 562.080913 
L 394.298379 484.463825 
L 396.12822 486.41391 
L 397.958062 443.165649 
L 399.787903 463.268933 
L 401.617745 563.534629 
L 403.447586 507.335583 
L 405.277428 507.14943 
L 407.107269 466.385552 
L 408.937111 509.655698 
L 410.766952 327.059839 
L 412.596794 383.394395 
L 414.426635 486.278281 
L 416.256477 367.852891 
L 418.086318 448.09928 
L 419.91616 396.013573 
L 421.746001 499.688537 
L 423.575843 485.293365 
L 425.405684 485.459931 
L 427.235526 437.297746 
L 429.065367 437.401983 
L 430.895209 521.120939 
L 434.554892 399.739653 
L 436.384733 368.379523 
L 438.214575 420.75465 
L 440.044416 314.180018 
L 441.874258 401.291228 
L 443.704099 440.981481 
L 445.533941 421.328875 
L 447.363782 436.042978 
L 449.193624 502.85885 
L 451.023465 531.894744 
L 452.853307 497.046917 
L 454.683148 470.365836 
L 456.51299 484.604207 
L 458.342831 512.015958 
L 460.172673 524.097849 
L 462.002514 566.535424 
L 463.832356 523.523683 
L 465.662197 504.73504 
L 467.492039 472.430201 
L 469.32188 424.799897 
L 471.151722 436.891988 
L 472.981563 467.383203 
L 474.811405 418.14151 
L 478.471088 538.917278 
L 480.300929 633.519218 
L 482.130771 611.872697 
L 483.960612 659.259713 
L 485.790454 651.686408 
L 487.620295 643.438518 
L 489.450137 655.56206 
L 491.279978 620.043791 
L 493.10982 661.006449 
L 494.939661 538.451885 
L 496.769503 574.31296 
L 498.599344 623.900459 
L 500.429186 536.808985 
L 502.259027 572.581638 
L 504.088869 563.865244 
L 505.91871 526.08814 
L 507.748552 535.362122 
L 509.578393 548.566142 
L 511.408235 535.07284 
L 513.238076 538.314275 
L 515.067918 519.806793 
L 516.897759 513.786565 
L 518.727601 510.585078 
L 520.557442 528.344223 
L 522.387284 490.61685 
L 524.217125 507.73847 
L 526.046967 589.684759 
L 527.876808 544.661891 
L 529.70665 546.899971 
L 531.536491 560.998315 
L 533.366333 529.703763 
L 535.196174 551.199028 
L 537.026016 623.082485 
L 538.855857 612.428929 
L 540.685699 644.806238 
L 542.51554 652.880036 
L 544.345382 670.699251 
L 546.175223 677.739526 
L 548.005065 642.527368 
L 549.834906 599.003433 
L 551.664748 615.404384 
L 553.494589 614.312765 
L 555.324431 652.815737 
L 557.154272 641.595928 
L 558.984114 656.343755 
L 560.813955 649.08535 
L 562.643797 583.352235 
L 564.473638 564.939127 
L 566.30348 631.823011 
L 568.133321 626.742611 
L 569.963163 618.682033 
L 571.793004 657.015731 
L 573.622846 646.670911 
L 575.452687 677.496708 
L 577.282529 667.650536 
L 579.11237 680.987882 
L 580.942212 658.831188 
L 582.772053 643.193621 
L 584.601895 572.971631 
L 586.431736 567.725289 
L 588.261578 511.113949 
L 590.091419 358.046869 
L 591.921261 161.762643 
L 593.751102 197.941847 
L 595.580944 145.831007 
L 597.410785 135.281045 
L 599.240627 181.272885 
L 601.070468 180.351011 
L 602.90031 179.834796 
L 604.730151 191.258188 
L 606.559993 210.136154 
L 608.389834 197.800157 
L 610.219676 230.736659 
L 612.049517 180.594581 
L 613.879359 216.573312 
L 615.7092 243.247975 
L 617.539042 212.384572 
L 619.368883 218.205853 
L 621.198725 288.68696 
L 623.028566 288.821679 
L 624.858408 209.506928 
L 626.688249 324.598312 
L 628.518091 235.739133 
L 630.347932 200.466079 
L 632.177774 260.221231 
L 634.007615 251.336608 
L 635.837457 227.736576 
L 639.49714 193.435504 
L 641.326981 148.827089 
L 643.156823 157.433125 
L 644.986664 162.743618 
L 648.646347 185.025108 
L 650.476189 185.49577 
L 652.30603 191.438578 
L 654.135872 196.387578 
L 655.965713 182.760093 
L 657.795555 241.850567 
L 661.455238 255.899041 
L 663.285079 269.074085 
L 665.114921 295.073138 
L 666.944762 270.317722 
L 668.774604 287.124571 
L 670.604445 260.676642 
L 672.434287 250.508613 
L 674.264128 250.524933 
L 676.09397 262.078646 
L 679.753653 301.040426 
L 681.583494 382.736213 
L 683.413336 332.830893 
L 685.243177 389.241304 
L 687.073019 503.461061 
L 690.732702 546.249097 
L 692.562543 564.900407 
L 694.392385 574.705587 
L 696.222226 526.089823 
L 698.052068 538.532553 
L 699.881909 533.887769 
L 701.711751 468.66249 
L 703.541592 534.151996 
L 705.371434 528.443271 
L 707.201275 529.523056 
L 709.031117 549.234207 
L 710.860958 549.544126 
L 712.6908 539.76706 
L 714.520641 551.079896 
L 716.350483 548.281752 
L 718.180324 565.878252 
L 720.010166 609.481064 
L 721.840007 626.782024 
L 723.669849 527.790575 
L 725.49969 506.913683 
L 727.329532 535.935258 
L 729.159373 557.08735 
L 730.989215 554.48754 
L 732.819056 563.518903 
L 734.648898 586.89528 
L 736.478739 598.428306 
L 738.308581 582.805262 
L 740.138422 554.21749 
L 741.968264 573.146921 
L 743.798105 585.507487 
L 745.627947 566.407143 
L 747.457788 638.120123 
L 749.28763 635.756604 
L 751.117471 650.388632 
L 752.947313 666.937982 
L 754.777154 661.655396 
L 756.606996 659.161279 
L 758.436837 642.033296 
L 760.266679 530.583253 
L 762.09652 528.404848 
L 763.926362 527.636903 
L 765.756203 482.989689 
L 767.586045 206.75917 
L 769.415886 278.775493 
L 771.245728 254.911055 
L 773.075569 189.651196 
L 774.905411 194.542522 
L 776.735252 214.169578 
L 778.565094 175.0404 
L 780.394935 171.491938 
L 784.054618 213.256101 
L 785.88446 174.345815 
L 787.714301 217.107946 
L 789.544143 284.015478 
L 791.373984 197.370533 
L 793.203826 273.84416 
L 795.033667 231.619952 
L 796.863509 216.204649 
L 798.69335 247.639921 
L 800.523192 245.211034 
L 802.353033 211.682065 
L 804.182875 172.412228 
L 806.012716 204.853588 
L 807.842558 182.493944 
L 809.672399 188.765051 
L 811.502241 222.717425 
L 813.332082 195.168856 
L 815.161924 183.982459 
L 816.991765 200.184719 
L 818.821607 173.971686 
L 820.651448 167.024493 
L 822.48129 242.536199 
L 824.311131 208.743697 
L 826.140973 187.31904 
L 827.970814 277.020632 
L 829.800656 226.187179 
L 831.630497 171.961055 
L 833.460339 234.177021 
L 835.29018 219.21202 
L 837.120022 265.50051 
L 838.949863 252.589673 
L 840.779705 295.250953 
L 842.609546 320.240432 
L 844.439388 272.196329 
L 846.269229 235.891637 
L 848.099071 399.475207 
L 849.928912 397.650195 
L 851.758754 383.704235 
L 853.588595 386.938104 
L 855.418437 390.48605 
L 857.248278 386.39325 
L 859.07812 328.381471 
L 860.907961 377.420175 
L 862.737803 454.305067 
L 864.567644 524.480831 
L 866.397486 565.220784 
L 868.227327 583.396887 
L 870.057169 453.039783 
L 871.88701 435.151664 
L 873.716852 458.792655 
L 875.546693 459.323941 
L 877.376535 546.436478 
L 879.206376 563.009759 
L 881.036218 566.92207 
L 882.866059 561.360204 
L 884.695901 559.151635 
L 886.525742 580.053572 
L 888.355584 546.580505 
L 890.185425 497.948194 
L 892.015267 484.893409 
L 893.845108 461.169195 
L 895.67495 473.593486 
L 897.504791 475.746243 
L 899.334633 435.139325 
L 901.164474 478.586217 
L 902.994316 411.597581 
L 904.824157 511.661932 
L 906.653999 503.008501 
L 908.48384 507.859106 
L 910.313682 565.296897 
L 912.143523 500.178153 
L 913.973365 539.036191 
L 915.803206 496.219298 
L 917.633048 538.966198 
L 919.462889 573.015174 
L 921.292731 558.251389 
L 923.122572 597.008141 
L 924.952414 586.100568 
L 926.782255 596.232264 
L 928.612097 580.623975 
L 930.441938 605.568337 
L 932.27178 614.442353 
L 934.101621 521.355557 
L 935.931463 537.412266 
L 937.761304 424.732954 
L 939.591146 405.972218 
L 941.420987 355.584986 
L 943.250829 325.214981 
L 945.08067 302.346055 
L 946.910512 175.813375 
L 948.740353 207.766803 
L 950.570195 193.08126 
L 952.400036 184.850462 
L 954.229878 195.103378 
L 956.059719 191.104813 
L 957.889561 205.14889 
L 959.719402 195.007875 
L 961.549244 196.251235 
L 963.379085 196.533149 
L 965.208927 200.111676 
L 967.038768 196.91627 
L 968.86861 220.716023 
L 970.698451 200.297057 
L 972.528293 211.478978 
L 974.358134 317.023715 
L 976.187976 205.313 
L 978.017817 238.629136 
L 979.847659 246.463702 
L 981.6775 190.186702 
L 983.507342 266.611172 
L 985.337183 234.458935 
L 987.167025 271.192103 
L 988.996866 255.555492 
L 990.826708 198.215284 
L 992.656549 174.986489 
L 994.486391 157.124632 
L 996.316232 187.429357 
L 998.146074 190.762215 
L 999.975915 180.728626 
L 1001.805757 201.760498 
L 1003.635598 196.506689 
L 1005.46544 192.23437 
L 1007.295281 142.342636 
L 1009.125123 221.456517 
L 1010.954964 227.857351 
L 1012.784806 231.468755 
L 1014.614647 263.566407 
L 1016.444489 274.091018 
L 1018.27433 252.30867 
L 1020.104172 277.540095 
L 1021.934013 222.830634 
L 1023.763855 346.879961 
L 1025.593696 405.442416 
L 1027.423538 352.489836 
L 1029.253379 416.135217 
L 1031.083221 327.417015 
L 1032.913062 302.44948 
L 1034.742904 265.444064 
L 1036.572745 248.105869 
L 1038.402587 236.498205 
L 1040.232428 288.364603 
L 1042.06227 285.981824 
L 1043.892111 350.190636 
L 1045.721953 384.159567 
L 1047.551794 403.258762 
L 1049.381636 461.36032 
L 1051.211478 388.549096 
L 1053.041319 381.032332 
L 1054.871161 375.031493 
L 1056.701002 404.161148 
L 1058.530844 401.104421 
L 1060.360685 445.17224 
L 1062.190527 497.265057 
L 1064.020368 383.539967 
L 1065.85021 486.504699 
L 1067.680051 426.099545 
L 1069.509893 459.298749 
L 1071.339734 449.200415 
L 1073.169576 390.859189 
L 1074.999417 363.398161 
L 1076.829259 389.41401 
L 1078.6591 402.464199 
L 1080.488942 359.570162 
L 1082.318783 484.093102 
L 1084.148625 460.559339 
L 1087.808308 235.77312 
L 1089.638149 305.559524 
L 1091.467991 294.176971 
L 1093.297832 295.009839 
L 1095.127674 383.889695 
L 1096.957515 360.421212 
L 1098.787357 310.655719 
L 1100.617198 444.133691 
L 1102.44704 514.80618 
L 1104.276881 495.237016 
L 1106.106723 560.225855 
L 1107.936564 518.761312 
L 1109.766406 506.912891 
L 1111.596247 400.361115 
L 1113.426089 446.980557 
L 1115.25593 455.766666 
L 1117.085772 400.147451 
L 1118.915613 487.414255 
L 1120.745455 480.107252 
L 1120.745455 480.107252 
" clip-path="url(#pe4337024da)" style="fill: none; stroke: #da70d6; stroke-linecap: square"/>
   </g>
   <g id="line2d_17">
    <path d="M 207.654545 658.999699 
L 209.484387 690.831911 
L 211.314228 674.760823 
L 213.14407 655.052935 
L 214.973911 647.012559 
L 216.803753 656.590028 
L 218.633594 670.938271 
L 220.463436 632.256607 
L 222.293277 668.969415 
L 224.123119 652.256168 
L 225.95296 638.185086 
L 227.782802 581.434462 
L 229.612643 684.990528 
L 231.442485 563.915531 
L 233.272326 683.144031 
L 235.102168 579.290202 
L 236.932009 543.317918 
L 238.761851 434.96553 
L 240.591692 319.635369 
L 242.421534 236.685686 
L 244.251375 279.343441 
L 246.081217 339.186174 
L 247.911058 234.47783 
L 249.7409 217.077643 
L 251.570741 205.490934 
L 253.400583 202.861138 
L 255.230424 202.452983 
L 257.060266 218.48436 
L 258.890107 210.224171 
L 260.719949 211.565489 
L 262.54979 210.272417 
L 264.379632 209.556363 
L 266.209473 211.796819 
L 268.039315 212.942221 
L 269.869156 212.193725 
L 271.698998 214.946276 
L 273.528839 216.262046 
L 275.358681 230.620597 
L 277.188522 247.641268 
L 279.018364 235.411429 
L 280.848206 257.979982 
L 282.678047 249.392207 
L 284.507889 231.201418 
L 286.33773 223.642032 
L 288.167572 217.439532 
L 289.997413 217.220719 
L 291.827255 215.568016 
L 293.657096 217.383403 
L 295.486938 217.867136 
L 297.316779 235.711683 
L 299.146621 225.662923 
L 300.976462 214.349809 
L 302.806304 206.129706 
L 304.636145 203.324749 
L 306.465987 244.235486 
L 308.295828 311.125945 
L 310.12567 247.845979 
L 311.955511 254.396623 
L 313.785353 250.928176 
L 315.615194 220.852286 
L 317.445036 266.965891 
L 319.274877 321.788958 
L 321.104719 286.107748 
L 322.93456 358.74078 
L 324.764402 447.637828 
L 328.424085 531.032346 
L 330.253926 493.202856 
L 332.083768 480.800906 
L 333.913609 532.246315 
L 335.743451 540.309517 
L 337.573292 515.528354 
L 339.403134 511.481344 
L 341.232975 419.530541 
L 343.062817 380.621008 
L 344.892658 330.80917 
L 346.7225 390.111327 
L 348.552341 424.594611 
L 350.382183 430.852171 
L 352.212024 517.737042 
L 354.041866 505.944869 
L 355.871707 536.993138 
L 357.701549 576.303914 
L 359.53139 537.220943 
L 361.361232 557.787263 
L 363.191073 546.235728 
L 365.020915 559.144743 
L 366.850756 562.599762 
L 368.680598 579.34751 
L 370.510439 591.530102 
L 372.340281 446.205482 
L 374.170122 330.934065 
L 375.999964 294.723845 
L 377.829805 306.174846 
L 379.659647 284.660429 
L 381.489488 291.451554 
L 383.31933 434.85248 
L 385.149171 438.621616 
L 386.979013 515.937222 
L 388.808854 587.259645 
L 390.638696 494.395276 
L 392.468537 530.622409 
L 394.298379 445.10401 
L 396.12822 433.187853 
L 397.958062 417.908695 
L 399.787903 442.552803 
L 401.617745 522.339839 
L 403.447586 512.487076 
L 405.277428 488.471996 
L 407.107269 505.920904 
L 408.937111 511.354113 
L 410.766952 517.695965 
L 412.596794 582.590242 
L 414.426635 486.029086 
L 416.256477 281.948876 
L 418.086318 449.161081 
L 419.91616 567.945667 
L 421.746001 599.281356 
L 423.575843 554.145793 
L 425.405684 545.2969 
L 427.235526 476.06042 
L 429.065367 513.556661 
L 430.895209 598.304164 
L 432.72505 493.603009 
L 434.554892 399.890294 
L 436.384733 487.213663 
L 438.214575 384.960785 
L 440.044416 300.207677 
L 441.874258 532.153941 
L 443.704099 412.630802 
L 447.363782 590.135546 
L 449.193624 531.10436 
L 451.023465 573.58019 
L 452.853307 564.819263 
L 454.683148 499.533895 
L 456.51299 541.840693 
L 458.342831 556.64503 
L 460.172673 546.793337 
L 462.002514 593.063169 
L 463.832356 574.090602 
L 465.662197 582.588816 
L 467.492039 602.346173 
L 469.32188 457.000638 
L 471.151722 513.206101 
L 472.981563 487.944254 
L 474.811405 487.841067 
L 476.641246 489.457882 
L 478.471088 574.358374 
L 480.300929 610.01756 
L 482.130771 621.419948 
L 483.960612 637.09111 
L 485.790454 602.822579 
L 487.620295 608.876298 
L 489.450137 631.515271 
L 491.279978 595.934842 
L 493.10982 640.398626 
L 494.939661 582.510544 
L 496.769503 583.947009 
L 500.429186 546.342402 
L 502.259027 551.979371 
L 504.088869 551.55137 
L 505.91871 519.51868 
L 507.748552 536.054904 
L 509.578393 523.786801 
L 511.408235 538.326891 
L 513.238076 521.044944 
L 515.067918 526.014463 
L 516.897759 512.794064 
L 518.727601 514.649854 
L 520.557442 528.542299 
L 522.387284 516.949569 
L 524.217125 523.478862 
L 526.046967 572.326481 
L 527.876808 525.960274 
L 529.70665 537.679682 
L 531.536491 565.77453 
L 533.366333 534.927645 
L 535.196174 540.407278 
L 537.026016 592.397471 
L 538.855857 589.493684 
L 540.685699 639.531465 
L 542.51554 663.382415 
L 544.345382 674.333769 
L 546.175223 665.395012 
L 548.005065 652.406225 
L 549.834906 620.320278 
L 551.664748 643.546499 
L 553.494589 642.905637 
L 555.324431 664.754225 
L 557.154272 663.387545 
L 558.984114 680.449441 
L 560.813955 671.736989 
L 562.643797 674.537415 
L 564.473638 664.082719 
L 566.30348 655.948963 
L 568.133321 640.919951 
L 569.963163 628.080236 
L 571.793004 680.737509 
L 573.622846 685.939566 
L 575.452687 683.407728 
L 577.282529 666.407874 
L 579.11237 664.013924 
L 580.942212 656.372755 
L 582.772053 639.87842 
L 584.601895 624.544678 
L 586.431736 621.74077 
L 588.261578 603.9955 
L 591.921261 250.23478 
L 593.751102 285.93631 
L 597.410785 205.272834 
L 599.240627 199.655195 
L 602.90031 199.050489 
L 604.730151 211.448715 
L 606.559993 202.074298 
L 608.389834 201.202929 
L 610.219676 212.197646 
L 612.049517 207.432642 
L 613.879359 243.316543 
L 615.7092 273.861193 
L 617.539042 236.757303 
L 619.368883 238.276635 
L 621.198725 337.088635 
L 623.028566 311.858517 
L 624.858408 243.301649 
L 626.688249 304.564765 
L 628.518091 254.748887 
L 630.347932 235.581441 
L 632.177774 260.656441 
L 634.007615 258.367857 
L 635.837457 239.878279 
L 637.667298 233.091988 
L 639.49714 227.912054 
L 641.326981 229.306769 
L 643.156823 225.971733 
L 644.986664 227.227333 
L 646.816506 226.580044 
L 648.646347 225.078299 
L 650.476189 221.406844 
L 652.30603 212.232306 
L 654.135872 206.479712 
L 655.965713 205.966191 
L 657.795555 229.982142 
L 659.625396 247.22519 
L 661.455238 239.732232 
L 663.285079 241.222886 
L 665.114921 250.287146 
L 666.944762 242.788563 
L 668.774604 265.779175 
L 670.604445 274.277508 
L 672.434287 294.08947 
L 674.264128 284.560688 
L 676.09397 298.10289 
L 677.923811 318.37153 
L 679.753653 304.898213 
L 681.583494 426.932472 
L 683.413336 402.67806 
L 685.243177 502.98214 
L 687.073019 545.343444 
L 688.90286 537.798436 
L 690.732702 539.801066 
L 692.562543 556.504173 
L 694.392385 561.703635 
L 696.222226 546.147593 
L 698.052068 542.52795 
L 699.881909 557.313392 
L 701.711751 523.955347 
L 703.541592 519.751437 
L 705.371434 519.018112 
L 707.201275 515.341587 
L 709.031117 563.982395 
L 710.860958 526.66599 
L 712.6908 508.961628 
L 714.520641 500.040761 
L 716.350483 511.343497 
L 718.180324 555.776671 
L 720.010166 567.647156 
L 721.840007 590.658683 
L 723.669849 592.110735 
L 725.49969 548.049056 
L 727.329532 533.455332 
L 729.159373 516.297765 
L 730.989215 538.366186 
L 732.819056 513.077601 
L 734.648898 578.521089 
L 736.478739 608.37167 
L 738.308581 537.966943 
L 740.138422 555.640051 
L 741.968264 570.136906 
L 743.798105 594.719616 
L 745.627947 527.482577 
L 747.457788 612.843937 
L 749.28763 649.243142 
L 751.117471 632.634826 
L 752.947313 636.34815 
L 754.777154 594.703187 
L 756.606996 681.702723 
L 758.436837 659.402333 
L 760.266679 588.450807 
L 762.09652 561.506449 
L 763.926362 481.023284 
L 765.756203 382.359193 
L 767.586045 218.732525 
L 769.415886 239.336951 
L 771.245728 359.827993 
L 773.075569 234.380108 
L 774.905411 200.38238 
L 776.735252 195.745755 
L 778.565094 194.399129 
L 782.224777 194.733607 
L 784.054618 226.041013 
L 785.88446 214.441074 
L 787.714301 279.048297 
L 789.544143 312.539674 
L 791.373984 254.999072 
L 793.203826 319.078791 
L 795.033667 269.034632 
L 796.863509 244.938904 
L 798.69335 239.871902 
L 800.523192 251.572058 
L 802.353033 230.615686 
L 804.182875 218.913826 
L 806.012716 215.1885 
L 807.842558 215.151344 
L 811.502241 232.049021 
L 813.332082 226.312192 
L 815.161924 223.119559 
L 816.991765 233.40872 
L 818.821607 222.595461 
L 820.651448 226.815692 
L 822.48129 256.052456 
L 824.311131 236.704224 
L 826.140973 237.570246 
L 827.970814 259.90133 
L 829.800656 219.218794 
L 831.630497 216.328831 
L 833.460339 215.024826 
L 835.29018 213.295197 
L 837.120022 238.42185 
L 838.949863 239.46038 
L 840.779705 254.906104 
L 842.609546 288.844574 
L 844.439388 267.782399 
L 846.269229 267.064959 
L 848.099071 350.893658 
L 849.928912 357.442519 
L 851.758754 402.550631 
L 853.588595 406.797678 
L 855.418437 376.830759 
L 857.248278 388.956697 
L 859.07812 381.07226 
L 860.907961 418.701595 
L 862.737803 480.499503 
L 864.567644 500.319625 
L 866.397486 513.400315 
L 868.227327 533.22622 
L 870.057169 497.612706 
L 871.88701 498.263995 
L 873.716852 488.061702 
L 875.546693 509.066004 
L 877.376535 523.158843 
L 879.206376 543.791987 
L 881.036218 546.57084 
L 882.866059 570.421969 
L 884.695901 535.959282 
L 886.525742 566.501398 
L 888.355584 528.271358 
L 890.185425 510.47486 
L 892.015267 524.317078 
L 893.845108 487.794761 
L 895.67495 404.966724 
L 897.504791 407.934008 
L 899.334633 424.237991 
L 901.164474 482.103604 
L 902.994316 447.461557 
L 904.824157 531.999695 
L 906.653999 548.138062 
L 908.48384 442.418718 
L 910.313682 608.888647 
L 912.143523 597.042523 
L 913.973365 541.051556 
L 915.803206 632.719535 
L 917.633048 567.546147 
L 919.462889 588.291223 
L 921.292731 562.859255 
L 923.122572 567.694729 
L 924.952414 619.521169 
L 926.782255 557.718735 
L 928.612097 622.514736 
L 930.441938 559.924175 
L 932.27178 611.153781 
L 934.101621 579.003485 
L 935.931463 598.355322 
L 939.591146 522.519318 
L 941.420987 534.758861 
L 943.250829 313.229624 
L 945.08067 256.130648 
L 946.910512 207.229317 
L 948.740353 208.098904 
L 950.570195 196.897653 
L 952.400036 198.512369 
L 954.229878 199.282453 
L 956.059719 199.699837 
L 957.889561 199.904905 
L 959.719402 200.97861 
L 961.549244 203.448336 
L 963.379085 206.336081 
L 965.208927 208.30829 
L 967.038768 213.102013 
L 968.86861 251.928481 
L 970.698451 246.363129 
L 972.528293 249.169552 
L 974.358134 331.034717 
L 976.187976 254.808026 
L 978.017817 273.02785 
L 979.847659 234.54707 
L 981.6775 228.480041 
L 983.507342 268.219867 
L 985.337183 279.510917 
L 987.167025 317.65714 
L 988.996866 285.929616 
L 990.826708 237.828631 
L 992.656549 225.941074 
L 994.486391 220.59905 
L 996.316232 235.624974 
L 998.146074 231.230849 
L 999.975915 227.839882 
L 1001.805757 221.990121 
L 1003.635598 214.273914 
L 1005.46544 207.746641 
L 1007.295281 210.127875 
L 1009.125123 222.823147 
L 1010.954964 236.650313 
L 1012.784806 237.822214 
L 1014.614647 257.211206 
L 1016.444489 253.815485 
L 1018.27433 246.249761 
L 1020.104172 272.191893 
L 1021.934013 271.395864 
L 1023.763855 364.964552 
L 1025.593696 417.133184 
L 1027.423538 429.009611 
L 1029.253379 435.989364 
L 1031.083221 314.715009 
L 1032.913062 332.107313 
L 1034.742904 335.42789 
L 1036.572745 340.755852 
L 1038.402587 313.417738 
L 1040.232428 329.147673 
L 1042.06227 338.394145 
L 1043.892111 386.39115 
L 1045.721953 418.9355 
L 1047.551794 438.595631 
L 1049.381636 513.855687 
L 1051.211478 507.918385 
L 1053.041319 441.795196 
L 1054.871161 404.601626 
L 1056.701002 411.38051 
L 1058.530844 420.371331 
L 1060.360685 473.477524 
L 1062.190527 476.889683 
L 1064.020368 441.253076 
L 1065.85021 489.710404 
L 1067.680051 424.186377 
L 1069.509893 467.195881 
L 1071.339734 427.555004 
L 1073.169576 390.579731 
L 1074.999417 370.226322 
L 1076.829259 389.381607 
L 1078.6591 387.84758 
L 1080.488942 367.440775 
L 1082.318783 433.066682 
L 1084.148625 431.449629 
L 1085.978466 288.951445 
L 1087.808308 309.840162 
L 1089.638149 372.777926 
L 1091.467991 351.178146 
L 1093.297832 386.20268 
L 1096.957515 418.698822 
L 1098.787357 319.385184 
L 1100.617198 450.270515 
L 1102.44704 448.029663 
L 1104.276881 465.929269 
L 1106.106723 543.581056 
L 1107.936564 495.058409 
L 1109.766406 512.592759 
L 1111.596247 423.207621 
L 1113.426089 457.234583 
L 1115.25593 455.228784 
L 1117.085772 432.085708 
L 1118.915613 497.413896 
L 1120.745455 527.392184 
L 1120.745455 527.392184 
" clip-path="url(#pe4337024da)" style="fill: none; stroke: #8fbc8f; stroke-linecap: square"/>
   </g>
   <g id="patch_3">
    <path d="M 162 768.96 
L 162 103.68 
" style="fill: none; stroke: #000000; stroke-width: 0.8; stroke-linejoin: miter; stroke-linecap: square"/>
   </g>
   <g id="patch_4">
    <path d="M 1166.4 768.96 
L 1166.4 103.68 
" style="fill: none; stroke: #000000; stroke-width: 0.8; stroke-linejoin: miter; stroke-linecap: square"/>
   </g>
   <g id="patch_5">
    <path d="M 162 768.96 
L 1166.4 768.96 
" style="fill: none; stroke: #000000; stroke-width: 0.8; stroke-linejoin: miter; stroke-linecap: square"/>
   </g>
   <g id="patch_6">
    <path d="M 162 103.68 
L 1166.4 103.68 
" style="fill: none; stroke: #000000; stroke-width: 0.8; stroke-linejoin: miter; stroke-linecap: square"/>
   </g>
   <g id="text_14">
    <!-- Function 1 -->
    <g transform="translate(632.957813 97.68) scale(0.12 -0.12)">
     <defs>
      <path id="DejaVuSans-46" d="M 628 4666 
L 3309 4666 
L 3309 4134 
L 1259 4134 
L 1259 2759 
L 3109 2759 
L 3109 2228 
L 1259 2228 
L 1259 0 
L 628 0 
L 628 4666 
z
" transform="scale(0.015625)"/>
      <path id="DejaVuSans-75" d="M 544 1381 
L 544 3500 
L 1119 3500 
L 1119 1403 
Q 1119 906 1312 657 
Q 1506 409 1894 409 
Q 2359 409 2629 706 
Q 2900 1003 2900 1516 
L 2900 3500 
L 3475 3500 
L 3475 0 
L 2900 0 
L 2900 538 
Q 2691 219 2414 64 
Q 2138 -91 1772 -91 
Q 1169 -91 856 284 
Q 544 659 544 1381 
z
M 1991 3584 
L 1991 3584 
z
" transform="scale(0.015625)"/>
      <path id="DejaVuSans-6e" d="M 3513 2113 
L 3513 0 
L 2938 0 
L 2938 2094 
Q 2938 2591 2744 2837 
Q 2550 3084 2163 3084 
Q 1697 3084 1428 2787 
Q 1159 2491 1159 1978 
L 1159 0 
L 581 0 
L 581 3500 
L 1159 3500 
L 1159 2956 
Q 1366 3272 1645 3428 
Q 1925 3584 2291 3584 
Q 2894 3584 3203 3211 
Q 3513 2838 3513 2113 
z
" transform="scale(0.015625)"/>
      <path id="DejaVuSans-63" d="M 3122 3366 
L 3122 2828 
Q 2878 2963 2633 3030 
Q 2388 3097 2138 3097 
Q 1578 3097 1268 2742 
Q 959 2388 959 1747 
Q 959 1106 1268 751 
Q 1578 397 2138 397 
Q 2388 397 2633 464 
Q 2878 531 3122 666 
L 3122 134 
Q 2881 22 2623 -34 
Q 2366 -91 2075 -91 
Q 1284 -91 818 406 
Q 353 903 353 1747 
Q 353 2603 823 3093 
Q 1294 3584 2113 3584 
Q 2378 3584 2631 3529 
Q 2884 3475 3122 3366 
z
" transform="scale(0.015625)"/>
      <path id="DejaVuSans-74" d="M 1172 4494 
L 1172 3500 
L 2356 3500 
L 2356 3053 
L 1172 3053 
L 1172 1153 
Q 1172 725 1289 603 
Q 1406 481 1766 481 
L 2356 481 
L 2356 0 
L 1766 0 
Q 1100 0 847 248 
Q 594 497 594 1153 
L 594 3053 
L 172 3053 
L 172 3500 
L 594 3500 
L 594 4494 
L 1172 4494 
z
" transform="scale(0.015625)"/>
      <path id="DejaVuSans-69" d="M 603 3500 
L 1178 3500 
L 1178 0 
L 603 0 
L 603 3500 
z
M 603 4863 
L 1178 4863 
L 1178 4134 
L 603 4134 
L 603 4863 
z
" transform="scale(0.015625)"/>
      <path id="DejaVuSans-6f" d="M 1959 3097 
Q 1497 3097 1228 2736 
Q 959 2375 959 1747 
Q 959 1119 1226 758 
Q 1494 397 1959 397 
Q 2419 397 2687 759 
Q 2956 1122 2956 1747 
Q 2956 2369 2687 2733 
Q 2419 3097 1959 3097 
z
M 1959 3584 
Q 2709 3584 3137 3096 
Q 3566 2609 3566 1747 
Q 3566 888 3137 398 
Q 2709 -91 1959 -91 
Q 1206 -91 779 398 
Q 353 888 353 1747 
Q 353 2609 779 3096 
Q 1206 3584 1959 3584 
z
" transform="scale(0.015625)"/>
      <path id="DejaVuSans-20" transform="scale(0.015625)"/>
     </defs>
     <use xlink:href="#DejaVuSans-46"/>
     <use xlink:href="#DejaVuSans-75" x="52.019531"/>
     <use xlink:href="#DejaVuSans-6e" x="115.398438"/>
     <use xlink:href="#DejaVuSans-63" x="178.777344"/>
     <use xlink:href="#DejaVuSans-74" x="233.757812"/>
     <use xlink:href="#DejaVuSans-69" x="272.966797"/>
     <use xlink:href="#DejaVuSans-6f" x="300.75"/>
     <use xlink:href="#DejaVuSans-6e" x="361.931641"/>
     <use xlink:href="#DejaVuSans-20" x="425.310547"/>
     <use xlink:href="#DejaVuSans-31" x="457.097656"/>
    </g>
   </g>
   <g id="legend_1">
    <g id="patch_7">
     <path d="M 1011.90625 170.3925 
L 1159.4 170.3925 
Q 1161.4 170.3925 1161.4 168.3925 
L 1161.4 110.68 
Q 1161.4 108.68 1159.4 108.68 
L 1011.90625 108.68 
Q 1009.90625 108.68 1009.90625 110.68 
L 1009.90625 168.3925 
Q 1009.90625 170.3925 1011.90625 170.3925 
z
" style="fill: #ffffff; opacity: 0.8; stroke: #cccccc; stroke-linejoin: miter"/>
    </g>
    <g id="line2d_18">
     <path d="M 1013.90625 116.778437 
L 1023.90625 116.778437 
L 1033.90625 116.778437 
" style="fill: none; stroke: #4169e1; stroke-linecap: square"/>
    </g>
    <g id="text_15">
     <!-- Truth -->
     <g transform="translate(1041.90625 120.278437) scale(0.1 -0.1)">
      <defs>
       <path id="DejaVuSans-54" d="M -19 4666 
L 3928 4666 
L 3928 4134 
L 2272 4134 
L 2272 0 
L 1638 0 
L 1638 4134 
L -19 4134 
L -19 4666 
z
" transform="scale(0.015625)"/>
       <path id="DejaVuSans-72" d="M 2631 2963 
Q 2534 3019 2420 3045 
Q 2306 3072 2169 3072 
Q 1681 3072 1420 2755 
Q 1159 2438 1159 1844 
L 1159 0 
L 581 0 
L 581 3500 
L 1159 3500 
L 1159 2956 
Q 1341 3275 1631 3429 
Q 1922 3584 2338 3584 
Q 2397 3584 2469 3576 
Q 2541 3569 2628 3553 
L 2631 2963 
z
" transform="scale(0.015625)"/>
       <path id="DejaVuSans-68" d="M 3513 2113 
L 3513 0 
L 2938 0 
L 2938 2094 
Q 2938 2591 2744 2837 
Q 2550 3084 2163 3084 
Q 1697 3084 1428 2787 
Q 1159 2491 1159 1978 
L 1159 0 
L 581 0 
L 581 4863 
L 1159 4863 
L 1159 2956 
Q 1366 3272 1645 3428 
Q 1925 3584 2291 3584 
Q 2894 3584 3203 3211 
Q 3513 2838 3513 2113 
z
" transform="scale(0.015625)"/>
      </defs>
      <use xlink:href="#DejaVuSans-54"/>
      <use xlink:href="#DejaVuSans-72" x="46.333984"/>
      <use xlink:href="#DejaVuSans-75" x="87.447266"/>
      <use xlink:href="#DejaVuSans-74" x="150.826172"/>
      <use xlink:href="#DejaVuSans-68" x="190.035156"/>
     </g>
    </g>
    <g id="line2d_19">
     <path d="M 1013.90625 131.456562 
L 1023.90625 131.456562 
L 1033.90625 131.456562 
" style="fill: none; stroke: #ff6347; stroke-linecap: square"/>
    </g>
    <g id="text_16">
     <!-- Gossip predictions -->
     <g transform="translate(1041.90625 134.956562) scale(0.1 -0.1)">
      <defs>
       <path id="DejaVuSans-47" d="M 3809 666 
L 3809 1919 
L 2778 1919 
L 2778 2438 
L 4434 2438 
L 4434 434 
Q 4069 175 3628 42 
Q 3188 -91 2688 -91 
Q 1594 -91 976 548 
Q 359 1188 359 2328 
Q 359 3472 976 4111 
Q 1594 4750 2688 4750 
Q 3144 4750 3555 4637 
Q 3966 4525 4313 4306 
L 4313 3634 
Q 3963 3931 3569 4081 
Q 3175 4231 2741 4231 
Q 1884 4231 1454 3753 
Q 1025 3275 1025 2328 
Q 1025 1384 1454 906 
Q 1884 428 2741 428 
Q 3075 428 3337 486 
Q 3600 544 3809 666 
z
" transform="scale(0.015625)"/>
       <path id="DejaVuSans-73" d="M 2834 3397 
L 2834 2853 
Q 2591 2978 2328 3040 
Q 2066 3103 1784 3103 
Q 1356 3103 1142 2972 
Q 928 2841 928 2578 
Q 928 2378 1081 2264 
Q 1234 2150 1697 2047 
L 1894 2003 
Q 2506 1872 2764 1633 
Q 3022 1394 3022 966 
Q 3022 478 2636 193 
Q 2250 -91 1575 -91 
Q 1294 -91 989 -36 
Q 684 19 347 128 
L 347 722 
Q 666 556 975 473 
Q 1284 391 1588 391 
Q 1994 391 2212 530 
Q 2431 669 2431 922 
Q 2431 1156 2273 1281 
Q 2116 1406 1581 1522 
L 1381 1569 
Q 847 1681 609 1914 
Q 372 2147 372 2553 
Q 372 3047 722 3315 
Q 1072 3584 1716 3584 
Q 2034 3584 2315 3537 
Q 2597 3491 2834 3397 
z
" transform="scale(0.015625)"/>
       <path id="DejaVuSans-70" d="M 1159 525 
L 1159 -1331 
L 581 -1331 
L 581 3500 
L 1159 3500 
L 1159 2969 
Q 1341 3281 1617 3432 
Q 1894 3584 2278 3584 
Q 2916 3584 3314 3078 
Q 3713 2572 3713 1747 
Q 3713 922 3314 415 
Q 2916 -91 2278 -91 
Q 1894 -91 1617 61 
Q 1341 213 1159 525 
z
M 3116 1747 
Q 3116 2381 2855 2742 
Q 2594 3103 2138 3103 
Q 1681 3103 1420 2742 
Q 1159 2381 1159 1747 
Q 1159 1113 1420 752 
Q 1681 391 2138 391 
Q 2594 391 2855 752 
Q 3116 1113 3116 1747 
z
" transform="scale(0.015625)"/>
       <path id="DejaVuSans-65" d="M 3597 1894 
L 3597 1613 
L 953 1613 
Q 991 1019 1311 708 
Q 1631 397 2203 397 
Q 2534 397 2845 478 
Q 3156 559 3463 722 
L 3463 178 
Q 3153 47 2828 -22 
Q 2503 -91 2169 -91 
Q 1331 -91 842 396 
Q 353 884 353 1716 
Q 353 2575 817 3079 
Q 1281 3584 2069 3584 
Q 2775 3584 3186 3129 
Q 3597 2675 3597 1894 
z
M 3022 2063 
Q 3016 2534 2758 2815 
Q 2500 3097 2075 3097 
Q 1594 3097 1305 2825 
Q 1016 2553 972 2059 
L 3022 2063 
z
" transform="scale(0.015625)"/>
       <path id="DejaVuSans-64" d="M 2906 2969 
L 2906 4863 
L 3481 4863 
L 3481 0 
L 2906 0 
L 2906 525 
Q 2725 213 2448 61 
Q 2172 -91 1784 -91 
Q 1150 -91 751 415 
Q 353 922 353 1747 
Q 353 2572 751 3078 
Q 1150 3584 1784 3584 
Q 2172 3584 2448 3432 
Q 2725 3281 2906 2969 
z
M 947 1747 
Q 947 1113 1208 752 
Q 1469 391 1925 391 
Q 2381 391 2643 752 
Q 2906 1113 2906 1747 
Q 2906 2381 2643 2742 
Q 2381 3103 1925 3103 
Q 1469 3103 1208 2742 
Q 947 2381 947 1747 
z
" transform="scale(0.015625)"/>
      </defs>
      <use xlink:href="#DejaVuSans-47"/>
      <use xlink:href="#DejaVuSans-6f" x="77.490234"/>
      <use xlink:href="#DejaVuSans-73" x="138.671875"/>
      <use xlink:href="#DejaVuSans-73" x="190.771484"/>
      <use xlink:href="#DejaVuSans-69" x="242.871094"/>
      <use xlink:href="#DejaVuSans-70" x="270.654297"/>
      <use xlink:href="#DejaVuSans-20" x="334.130859"/>
      <use xlink:href="#DejaVuSans-70" x="365.917969"/>
      <use xlink:href="#DejaVuSans-72" x="429.394531"/>
      <use xlink:href="#DejaVuSans-65" x="468.257812"/>
      <use xlink:href="#DejaVuSans-64" x="529.78125"/>
      <use xlink:href="#DejaVuSans-69" x="593.257812"/>
      <use xlink:href="#DejaVuSans-63" x="621.041016"/>
      <use xlink:href="#DejaVuSans-74" x="676.021484"/>
      <use xlink:href="#DejaVuSans-69" x="715.230469"/>
      <use xlink:href="#DejaVuSans-6f" x="743.013672"/>
      <use xlink:href="#DejaVuSans-6e" x="804.195312"/>
      <use xlink:href="#DejaVuSans-73" x="867.574219"/>
     </g>
    </g>
    <g id="line2d_20">
     <path d="M 1013.90625 146.134687 
L 1023.90625 146.134687 
L 1033.90625 146.134687 
" style="fill: none; stroke: #da70d6; stroke-linecap: square"/>
    </g>
    <g id="text_17">
     <!-- Centralized predictions -->
     <g transform="translate(1041.90625 149.634687) scale(0.1 -0.1)">
      <defs>
       <path id="DejaVuSans-43" d="M 4122 4306 
L 4122 3641 
Q 3803 3938 3442 4084 
Q 3081 4231 2675 4231 
Q 1875 4231 1450 3742 
Q 1025 3253 1025 2328 
Q 1025 1406 1450 917 
Q 1875 428 2675 428 
Q 3081 428 3442 575 
Q 3803 722 4122 1019 
L 4122 359 
Q 3791 134 3420 21 
Q 3050 -91 2638 -91 
Q 1578 -91 968 557 
Q 359 1206 359 2328 
Q 359 3453 968 4101 
Q 1578 4750 2638 4750 
Q 3056 4750 3426 4639 
Q 3797 4528 4122 4306 
z
" transform="scale(0.015625)"/>
       <path id="DejaVuSans-61" d="M 2194 1759 
Q 1497 1759 1228 1600 
Q 959 1441 959 1056 
Q 959 750 1161 570 
Q 1363 391 1709 391 
Q 2188 391 2477 730 
Q 2766 1069 2766 1631 
L 2766 1759 
L 2194 1759 
z
M 3341 1997 
L 3341 0 
L 2766 0 
L 2766 531 
Q 2569 213 2275 61 
Q 1981 -91 1556 -91 
Q 1019 -91 701 211 
Q 384 513 384 1019 
Q 384 1609 779 1909 
Q 1175 2209 1959 2209 
L 2766 2209 
L 2766 2266 
Q 2766 2663 2505 2880 
Q 2244 3097 1772 3097 
Q 1472 3097 1187 3025 
Q 903 2953 641 2809 
L 641 3341 
Q 956 3463 1253 3523 
Q 1550 3584 1831 3584 
Q 2591 3584 2966 3190 
Q 3341 2797 3341 1997 
z
" transform="scale(0.015625)"/>
       <path id="DejaVuSans-6c" d="M 603 4863 
L 1178 4863 
L 1178 0 
L 603 0 
L 603 4863 
z
" transform="scale(0.015625)"/>
       <path id="DejaVuSans-7a" d="M 353 3500 
L 3084 3500 
L 3084 2975 
L 922 459 
L 3084 459 
L 3084 0 
L 275 0 
L 275 525 
L 2438 3041 
L 353 3041 
L 353 3500 
z
" transform="scale(0.015625)"/>
      </defs>
      <use xlink:href="#DejaVuSans-43"/>
      <use xlink:href="#DejaVuSans-65" x="69.824219"/>
      <use xlink:href="#DejaVuSans-6e" x="131.347656"/>
      <use xlink:href="#DejaVuSans-74" x="194.726562"/>
      <use xlink:href="#DejaVuSans-72" x="233.935547"/>
      <use xlink:href="#DejaVuSans-61" x="275.048828"/>
      <use xlink:href="#DejaVuSans-6c" x="336.328125"/>
      <use xlink:href="#DejaVuSans-69" x="364.111328"/>
      <use xlink:href="#DejaVuSans-7a" x="391.894531"/>
      <use xlink:href="#DejaVuSans-65" x="444.384766"/>
      <use xlink:href="#DejaVuSans-64" x="505.908203"/>
      <use xlink:href="#DejaVuSans-20" x="569.384766"/>
      <use xlink:href="#DejaVuSans-70" x="601.171875"/>
      <use xlink:href="#DejaVuSans-72" x="664.648438"/>
      <use xlink:href="#DejaVuSans-65" x="703.511719"/>
      <use xlink:href="#DejaVuSans-64" x="765.035156"/>
      <use xlink:href="#DejaVuSans-69" x="828.511719"/>
      <use xlink:href="#DejaVuSans-63" x="856.294922"/>
      <use xlink:href="#DejaVuSans-74" x="911.275391"/>
      <use xlink:href="#DejaVuSans-69" x="950.484375"/>
      <use xlink:href="#DejaVuSans-6f" x="978.267578"/>
      <use xlink:href="#DejaVuSans-6e" x="1039.449219"/>
      <use xlink:href="#DejaVuSans-73" x="1102.828125"/>
     </g>
    </g>
    <g id="line2d_21">
     <path d="M 1013.90625 160.812812 
L 1023.90625 160.812812 
L 1033.90625 160.812812 
" style="fill: none; stroke: #8fbc8f; stroke-linecap: square"/>
    </g>
    <g id="text_18">
     <!-- Single predictions -->
     <g transform="translate(1041.90625 164.312812) scale(0.1 -0.1)">
      <defs>
       <path id="DejaVuSans-53" d="M 3425 4513 
L 3425 3897 
Q 3066 4069 2747 4153 
Q 2428 4238 2131 4238 
Q 1616 4238 1336 4038 
Q 1056 3838 1056 3469 
Q 1056 3159 1242 3001 
Q 1428 2844 1947 2747 
L 2328 2669 
Q 3034 2534 3370 2195 
Q 3706 1856 3706 1288 
Q 3706 609 3251 259 
Q 2797 -91 1919 -91 
Q 1588 -91 1214 -16 
Q 841 59 441 206 
L 441 856 
Q 825 641 1194 531 
Q 1563 422 1919 422 
Q 2459 422 2753 634 
Q 3047 847 3047 1241 
Q 3047 1584 2836 1778 
Q 2625 1972 2144 2069 
L 1759 2144 
Q 1053 2284 737 2584 
Q 422 2884 422 3419 
Q 422 4038 858 4394 
Q 1294 4750 2059 4750 
Q 2388 4750 2728 4690 
Q 3069 4631 3425 4513 
z
" transform="scale(0.015625)"/>
       <path id="DejaVuSans-67" d="M 2906 1791 
Q 2906 2416 2648 2759 
Q 2391 3103 1925 3103 
Q 1463 3103 1205 2759 
Q 947 2416 947 1791 
Q 947 1169 1205 825 
Q 1463 481 1925 481 
Q 2391 481 2648 825 
Q 2906 1169 2906 1791 
z
M 3481 434 
Q 3481 -459 3084 -895 
Q 2688 -1331 1869 -1331 
Q 1566 -1331 1297 -1286 
Q 1028 -1241 775 -1147 
L 775 -588 
Q 1028 -725 1275 -790 
Q 1522 -856 1778 -856 
Q 2344 -856 2625 -561 
Q 2906 -266 2906 331 
L 2906 616 
Q 2728 306 2450 153 
Q 2172 0 1784 0 
Q 1141 0 747 490 
Q 353 981 353 1791 
Q 353 2603 747 3093 
Q 1141 3584 1784 3584 
Q 2172 3584 2450 3431 
Q 2728 3278 2906 2969 
L 2906 3500 
L 3481 3500 
L 3481 434 
z
" transform="scale(0.015625)"/>
      </defs>
      <use xlink:href="#DejaVuSans-53"/>
      <use xlink:href="#DejaVuSans-69" x="63.476562"/>
      <use xlink:href="#DejaVuSans-6e" x="91.259766"/>
      <use xlink:href="#DejaVuSans-67" x="154.638672"/>
      <use xlink:href="#DejaVuSans-6c" x="218.115234"/>
      <use xlink:href="#DejaVuSans-65" x="245.898438"/>
      <use xlink:href="#DejaVuSans-20" x="307.421875"/>
      <use xlink:href="#DejaVuSans-70" x="339.208984"/>
      <use xlink:href="#DejaVuSans-72" x="402.685547"/>
      <use xlink:href="#DejaVuSans-65" x="441.548828"/>
      <use xlink:href="#DejaVuSans-64" x="503.072266"/>
      <use xlink:href="#DejaVuSans-69" x="566.548828"/>
      <use xlink:href="#DejaVuSans-63" x="594.332031"/>
      <use xlink:href="#DejaVuSans-74" x="649.3125"/>
      <use xlink:href="#DejaVuSans-69" x="688.521484"/>
      <use xlink:href="#DejaVuSans-6f" x="716.304688"/>
      <use xlink:href="#DejaVuSans-6e" x="777.486328"/>
      <use xlink:href="#DejaVuSans-73" x="840.865234"/>
     </g>
    </g>
   </g>
  </g>
 </g>
 <defs>
  <clipPath id="pe4337024da">
   <rect x="162" y="103.68" width="1004.4" height="665.28"/>
  </clipPath>
 </defs>
</svg>
