<?xml version="1.0" encoding="utf-8" standalone="no"?>
<!DOCTYPE svg PUBLIC "-//W3C//DTD SVG 1.1//EN"
  "http://www.w3.org/Graphics/SVG/1.1/DTD/svg11.dtd">
<svg xmlns:xlink="http://www.w3.org/1999/xlink" width="1296pt" height="864pt" viewBox="0 0 1296 864" xmlns="http://www.w3.org/2000/svg" version="1.1">
 <metadata>
  <rdf:RDF xmlns:dc="http://purl.org/dc/elements/1.1/" xmlns:cc="http://creativecommons.org/ns#" xmlns:rdf="http://www.w3.org/1999/02/22-rdf-syntax-ns#">
   <cc:Work>
    <dc:type rdf:resource="http://purl.org/dc/dcmitype/StillImage"/>
    <dc:date>2023-12-23T14:20:31.351054</dc:date>
    <dc:format>image/svg+xml</dc:format>
    <dc:creator>
     <cc:Agent>
      <dc:title>Matplotlib v3.8.0, https://matplotlib.org/</dc:title>
     </cc:Agent>
    </dc:creator>
   </cc:Work>
  </rdf:RDF>
 </metadata>
 <defs>
  <style type="text/css">*{stroke-linejoin: round; stroke-linecap: butt}</style>
 </defs>
 <g id="figure_1">
  <g id="patch_1">
   <path d="M 0 864 
L 1296 864 
L 1296 0 
L 0 0 
z
" style="fill: #ffffff"/>
  </g>
  <g id="axes_1">
   <g id="patch_2">
    <path d="M 162 406.08 
L 618.545455 406.08 
L 618.545455 103.68 
L 162 103.68 
z
" style="fill: #ffffff"/>
   </g>
   <g id="matplotlib.axis_1">
    <g id="xtick_1">
     <g id="line2d_1">
      <defs>
       <path id="mb1c37a3027" d="M 0 0 
L 0 3.5 
" style="stroke: #000000; stroke-width: 0.8"/>
      </defs>
      <g>
       <use xlink:href="#mb1c37a3027" x="182.752066" y="406.08" style="stroke: #000000; stroke-width: 0.8"/>
      </g>
     </g>
     <g id="text_1">
      <!-- 0 -->
      <g transform="translate(179.570816 420.678437) scale(0.1 -0.1)">
       <defs>
        <path id="DejaVuSans-30" d="M 2034 4250 
Q 1547 4250 1301 3770 
Q 1056 3291 1056 2328 
Q 1056 1369 1301 889 
Q 1547 409 2034 409 
Q 2525 409 2770 889 
Q 3016 1369 3016 2328 
Q 3016 3291 2770 3770 
Q 2525 4250 2034 4250 
z
M 2034 4750 
Q 2819 4750 3233 4129 
Q 3647 3509 3647 2328 
Q 3647 1150 3233 529 
Q 2819 -91 2034 -91 
Q 1250 -91 836 529 
Q 422 1150 422 2328 
Q 422 3509 836 4129 
Q 1250 4750 2034 4750 
z
" transform="scale(0.015625)"/>
       </defs>
       <use xlink:href="#DejaVuSans-30"/>
      </g>
     </g>
    </g>
    <g id="xtick_2">
     <g id="line2d_2">
      <g>
       <use xlink:href="#mb1c37a3027" x="266.598798" y="406.08" style="stroke: #000000; stroke-width: 0.8"/>
      </g>
     </g>
     <g id="text_2">
      <!-- 20 -->
      <g transform="translate(260.236298 420.678437) scale(0.1 -0.1)">
       <defs>
        <path id="DejaVuSans-32" d="M 1228 531 
L 3431 531 
L 3431 0 
L 469 0 
L 469 531 
Q 828 903 1448 1529 
Q 2069 2156 2228 2338 
Q 2531 2678 2651 2914 
Q 2772 3150 2772 3378 
Q 2772 3750 2511 3984 
Q 2250 4219 1831 4219 
Q 1534 4219 1204 4116 
Q 875 4013 500 3803 
L 500 4441 
Q 881 4594 1212 4672 
Q 1544 4750 1819 4750 
Q 2544 4750 2975 4387 
Q 3406 4025 3406 3419 
Q 3406 3131 3298 2873 
Q 3191 2616 2906 2266 
Q 2828 2175 2409 1742 
Q 1991 1309 1228 531 
z
" transform="scale(0.015625)"/>
       </defs>
       <use xlink:href="#DejaVuSans-32"/>
       <use xlink:href="#DejaVuSans-30" x="63.623047"/>
      </g>
     </g>
    </g>
    <g id="xtick_3">
     <g id="line2d_3">
      <g>
       <use xlink:href="#mb1c37a3027" x="350.44553" y="406.08" style="stroke: #000000; stroke-width: 0.8"/>
      </g>
     </g>
     <g id="text_3">
      <!-- 40 -->
      <g transform="translate(344.08303 420.678437) scale(0.1 -0.1)">
       <defs>
        <path id="DejaVuSans-34" d="M 2419 4116 
L 825 1625 
L 2419 1625 
L 2419 4116 
z
M 2253 4666 
L 3047 4666 
L 3047 1625 
L 3713 1625 
L 3713 1100 
L 3047 1100 
L 3047 0 
L 2419 0 
L 2419 1100 
L 313 1100 
L 313 1709 
L 2253 4666 
z
" transform="scale(0.015625)"/>
       </defs>
       <use xlink:href="#DejaVuSans-34"/>
       <use xlink:href="#DejaVuSans-30" x="63.623047"/>
      </g>
     </g>
    </g>
    <g id="xtick_4">
     <g id="line2d_4">
      <g>
       <use xlink:href="#mb1c37a3027" x="434.292261" y="406.08" style="stroke: #000000; stroke-width: 0.8"/>
      </g>
     </g>
     <g id="text_4">
      <!-- 60 -->
      <g transform="translate(427.929761 420.678437) scale(0.1 -0.1)">
       <defs>
        <path id="DejaVuSans-36" d="M 2113 2584 
Q 1688 2584 1439 2293 
Q 1191 2003 1191 1497 
Q 1191 994 1439 701 
Q 1688 409 2113 409 
Q 2538 409 2786 701 
Q 3034 994 3034 1497 
Q 3034 2003 2786 2293 
Q 2538 2584 2113 2584 
z
M 3366 4563 
L 3366 3988 
Q 3128 4100 2886 4159 
Q 2644 4219 2406 4219 
Q 1781 4219 1451 3797 
Q 1122 3375 1075 2522 
Q 1259 2794 1537 2939 
Q 1816 3084 2150 3084 
Q 2853 3084 3261 2657 
Q 3669 2231 3669 1497 
Q 3669 778 3244 343 
Q 2819 -91 2113 -91 
Q 1303 -91 875 529 
Q 447 1150 447 2328 
Q 447 3434 972 4092 
Q 1497 4750 2381 4750 
Q 2619 4750 2861 4703 
Q 3103 4656 3366 4563 
z
" transform="scale(0.015625)"/>
       </defs>
       <use xlink:href="#DejaVuSans-36"/>
       <use xlink:href="#DejaVuSans-30" x="63.623047"/>
      </g>
     </g>
    </g>
    <g id="xtick_5">
     <g id="line2d_5">
      <g>
       <use xlink:href="#mb1c37a3027" x="518.138993" y="406.08" style="stroke: #000000; stroke-width: 0.8"/>
      </g>
     </g>
     <g id="text_5">
      <!-- 80 -->
      <g transform="translate(511.776493 420.678437) scale(0.1 -0.1)">
       <defs>
        <path id="DejaVuSans-38" d="M 2034 2216 
Q 1584 2216 1326 1975 
Q 1069 1734 1069 1313 
Q 1069 891 1326 650 
Q 1584 409 2034 409 
Q 2484 409 2743 651 
Q 3003 894 3003 1313 
Q 3003 1734 2745 1975 
Q 2488 2216 2034 2216 
z
M 1403 2484 
Q 997 2584 770 2862 
Q 544 3141 544 3541 
Q 544 4100 942 4425 
Q 1341 4750 2034 4750 
Q 2731 4750 3128 4425 
Q 3525 4100 3525 3541 
Q 3525 3141 3298 2862 
Q 3072 2584 2669 2484 
Q 3125 2378 3379 2068 
Q 3634 1759 3634 1313 
Q 3634 634 3220 271 
Q 2806 -91 2034 -91 
Q 1263 -91 848 271 
Q 434 634 434 1313 
Q 434 1759 690 2068 
Q 947 2378 1403 2484 
z
M 1172 3481 
Q 1172 3119 1398 2916 
Q 1625 2713 2034 2713 
Q 2441 2713 2670 2916 
Q 2900 3119 2900 3481 
Q 2900 3844 2670 4047 
Q 2441 4250 2034 4250 
Q 1625 4250 1398 4047 
Q 1172 3844 1172 3481 
z
" transform="scale(0.015625)"/>
       </defs>
       <use xlink:href="#DejaVuSans-38"/>
       <use xlink:href="#DejaVuSans-30" x="63.623047"/>
      </g>
     </g>
    </g>
    <g id="xtick_6">
     <g id="line2d_6">
      <g>
       <use xlink:href="#mb1c37a3027" x="601.985725" y="406.08" style="stroke: #000000; stroke-width: 0.8"/>
      </g>
     </g>
     <g id="text_6">
      <!-- 100 -->
      <g transform="translate(592.441975 420.678437) scale(0.1 -0.1)">
       <defs>
        <path id="DejaVuSans-31" d="M 794 531 
L 1825 531 
L 1825 4091 
L 703 3866 
L 703 4441 
L 1819 4666 
L 2450 4666 
L 2450 531 
L 3481 531 
L 3481 0 
L 794 0 
L 794 531 
z
" transform="scale(0.015625)"/>
       </defs>
       <use xlink:href="#DejaVuSans-31"/>
       <use xlink:href="#DejaVuSans-30" x="63.623047"/>
       <use xlink:href="#DejaVuSans-30" x="127.246094"/>
      </g>
     </g>
    </g>
   </g>
   <g id="matplotlib.axis_2">
    <g id="ytick_1">
     <g id="line2d_7">
      <defs>
       <path id="m7e378801f5" d="M 0 0 
L -3.5 0 
" style="stroke: #000000; stroke-width: 0.8"/>
      </defs>
      <g>
       <use xlink:href="#m7e378801f5" x="162" y="382.515263" style="stroke: #000000; stroke-width: 0.8"/>
      </g>
     </g>
     <g id="text_7">
      <!-- 0.5 -->
      <g transform="translate(139.096875 386.314482) scale(0.1 -0.1)">
       <defs>
        <path id="DejaVuSans-2e" d="M 684 794 
L 1344 794 
L 1344 0 
L 684 0 
L 684 794 
z
" transform="scale(0.015625)"/>
        <path id="DejaVuSans-35" d="M 691 4666 
L 3169 4666 
L 3169 4134 
L 1269 4134 
L 1269 2991 
Q 1406 3038 1543 3061 
Q 1681 3084 1819 3084 
Q 2600 3084 3056 2656 
Q 3513 2228 3513 1497 
Q 3513 744 3044 326 
Q 2575 -91 1722 -91 
Q 1428 -91 1123 -41 
Q 819 9 494 109 
L 494 744 
Q 775 591 1075 516 
Q 1375 441 1709 441 
Q 2250 441 2565 725 
Q 2881 1009 2881 1497 
Q 2881 1984 2565 2268 
Q 2250 2553 1709 2553 
Q 1456 2553 1204 2497 
Q 953 2441 691 2322 
L 691 4666 
z
" transform="scale(0.015625)"/>
       </defs>
       <use xlink:href="#DejaVuSans-30"/>
       <use xlink:href="#DejaVuSans-2e" x="63.623047"/>
       <use xlink:href="#DejaVuSans-35" x="95.410156"/>
      </g>
     </g>
    </g>
    <g id="ytick_2">
     <g id="line2d_8">
      <g>
       <use xlink:href="#m7e378801f5" x="162" y="337.360184" style="stroke: #000000; stroke-width: 0.8"/>
      </g>
     </g>
     <g id="text_8">
      <!-- 1.0 -->
      <g transform="translate(139.096875 341.159402) scale(0.1 -0.1)">
       <use xlink:href="#DejaVuSans-31"/>
       <use xlink:href="#DejaVuSans-2e" x="63.623047"/>
       <use xlink:href="#DejaVuSans-30" x="95.410156"/>
      </g>
     </g>
    </g>
    <g id="ytick_3">
     <g id="line2d_9">
      <g>
       <use xlink:href="#m7e378801f5" x="162" y="292.205104" style="stroke: #000000; stroke-width: 0.8"/>
      </g>
     </g>
     <g id="text_9">
      <!-- 1.5 -->
      <g transform="translate(139.096875 296.004323) scale(0.1 -0.1)">
       <use xlink:href="#DejaVuSans-31"/>
       <use xlink:href="#DejaVuSans-2e" x="63.623047"/>
       <use xlink:href="#DejaVuSans-35" x="95.410156"/>
      </g>
     </g>
    </g>
    <g id="ytick_4">
     <g id="line2d_10">
      <g>
       <use xlink:href="#m7e378801f5" x="162" y="247.050025" style="stroke: #000000; stroke-width: 0.8"/>
      </g>
     </g>
     <g id="text_10">
      <!-- 2.0 -->
      <g transform="translate(139.096875 250.849244) scale(0.1 -0.1)">
       <use xlink:href="#DejaVuSans-32"/>
       <use xlink:href="#DejaVuSans-2e" x="63.623047"/>
       <use xlink:href="#DejaVuSans-30" x="95.410156"/>
      </g>
     </g>
    </g>
    <g id="ytick_5">
     <g id="line2d_11">
      <g>
       <use xlink:href="#m7e378801f5" x="162" y="201.894946" style="stroke: #000000; stroke-width: 0.8"/>
      </g>
     </g>
     <g id="text_11">
      <!-- 2.5 -->
      <g transform="translate(139.096875 205.694165) scale(0.1 -0.1)">
       <use xlink:href="#DejaVuSans-32"/>
       <use xlink:href="#DejaVuSans-2e" x="63.623047"/>
       <use xlink:href="#DejaVuSans-35" x="95.410156"/>
      </g>
     </g>
    </g>
    <g id="ytick_6">
     <g id="line2d_12">
      <g>
       <use xlink:href="#m7e378801f5" x="162" y="156.739867" style="stroke: #000000; stroke-width: 0.8"/>
      </g>
     </g>
     <g id="text_12">
      <!-- 3.0 -->
      <g transform="translate(139.096875 160.539085) scale(0.1 -0.1)">
       <defs>
        <path id="DejaVuSans-33" d="M 2597 2516 
Q 3050 2419 3304 2112 
Q 3559 1806 3559 1356 
Q 3559 666 3084 287 
Q 2609 -91 1734 -91 
Q 1441 -91 1130 -33 
Q 819 25 488 141 
L 488 750 
Q 750 597 1062 519 
Q 1375 441 1716 441 
Q 2309 441 2620 675 
Q 2931 909 2931 1356 
Q 2931 1769 2642 2001 
Q 2353 2234 1838 2234 
L 1294 2234 
L 1294 2753 
L 1863 2753 
Q 2328 2753 2575 2939 
Q 2822 3125 2822 3475 
Q 2822 3834 2567 4026 
Q 2313 4219 1838 4219 
Q 1578 4219 1281 4162 
Q 984 4106 628 3988 
L 628 4550 
Q 988 4650 1302 4700 
Q 1616 4750 1894 4750 
Q 2613 4750 3031 4423 
Q 3450 4097 3450 3541 
Q 3450 3153 3228 2886 
Q 3006 2619 2597 2516 
z
" transform="scale(0.015625)"/>
       </defs>
       <use xlink:href="#DejaVuSans-33"/>
       <use xlink:href="#DejaVuSans-2e" x="63.623047"/>
       <use xlink:href="#DejaVuSans-30" x="95.410156"/>
      </g>
     </g>
    </g>
    <g id="ytick_7">
     <g id="line2d_13">
      <g>
       <use xlink:href="#m7e378801f5" x="162" y="111.584787" style="stroke: #000000; stroke-width: 0.8"/>
      </g>
     </g>
     <g id="text_13">
      <!-- 3.5 -->
      <g transform="translate(139.096875 115.384006) scale(0.1 -0.1)">
       <use xlink:href="#DejaVuSans-33"/>
       <use xlink:href="#DejaVuSans-2e" x="63.623047"/>
       <use xlink:href="#DejaVuSans-35" x="95.410156"/>
      </g>
     </g>
    </g>
   </g>
   <g id="line2d_14">
    <path d="M 182.752066 117.425455 
L 186.944403 358.150491 
L 191.136739 377.855061 
L 195.329076 380.568756 
L 199.521412 381.807427 
L 203.713749 377.83065 
L 207.906086 379.831223 
L 212.098422 380.678002 
L 216.290759 382.143697 
L 220.483095 381.60672 
L 224.675432 376.96594 
L 228.867769 381.607334 
L 233.060105 381.585275 
L 237.252442 382.57479 
L 241.444778 382.841685 
L 245.637115 375.126553 
L 249.829452 381.637731 
L 254.021788 381.948642 
L 258.214125 382.666127 
L 262.406461 382.225609 
L 266.598798 381.235585 
L 270.791134 382.064547 
L 274.983471 382.749153 
L 279.175808 382.208863 
L 283.368144 383.698369 
L 287.560481 379.110123 
L 291.752817 382.142793 
L 295.945154 382.570222 
L 300.137491 382.771032 
L 304.329827 383.077903 
L 308.522164 382.005986 
L 312.7145 383.435726 
L 316.906837 382.619853 
L 321.099174 383.891489 
L 325.29151 383.567947 
L 329.483847 380.868595 
L 333.676183 382.291054 
L 337.86852 383.32967 
L 342.060856 383.622265 
L 346.253193 383.561299 
L 350.44553 382.337896 
L 354.637866 382.262342 
L 358.830203 383.659399 
L 363.022539 383.348757 
L 367.214876 384.061747 
L 371.407213 381.620958 
L 375.599549 382.931582 
L 379.791886 383.205491 
L 383.984222 383.493953 
L 388.176559 383.096708 
L 392.368896 382.421821 
L 396.561232 383.071632 
L 400.753569 383.306491 
L 404.945905 383.723101 
L 409.138242 383.277159 
L 413.330579 382.986967 
L 417.522915 384.181054 
L 421.715252 383.763989 
L 425.907588 384.05978 
L 430.099925 384.412567 
L 434.292261 381.6129 
L 438.484598 383.514443 
L 442.676935 384.118793 
L 446.869271 384.051167 
L 451.061608 384.485312 
L 455.253944 383.397104 
L 459.446281 384.035137 
L 463.638618 384.273174 
L 467.830954 384.209088 
L 472.023291 383.986357 
L 476.215627 380.881379 
L 480.407964 382.757561 
L 484.600301 382.785447 
L 488.792637 383.598363 
L 492.984974 383.948362 
L 497.17731 382.055315 
L 501.369647 382.686076 
L 505.561983 383.066524 
L 509.75432 383.457966 
L 513.946657 382.403304 
L 518.138993 382.031738 
L 522.33133 382.410926 
L 526.523666 384.369816 
L 530.716003 383.564862 
L 534.90834 383.901856 
L 539.100676 382.122483 
L 543.293013 383.739876 
L 547.485349 383.640855 
L 551.677686 383.134806 
L 555.870023 383.54136 
L 560.062359 383.566937 
L 564.254696 384.330252 
L 568.447032 384.783737 
L 572.639369 384.696497 
L 576.831705 384.634976 
L 581.024042 382.40015 
L 585.216379 383.001062 
L 589.408715 383.14312 
L 593.601052 383.690144 
L 597.793388 384.122421 
" clip-path="url(#p93ca15dea6)" style="fill: none; stroke: #4169e1; stroke-linecap: square"/>
   </g>
   <g id="line2d_15">
    <path d="M 182.752066 355.30716 
L 186.944403 380.697311 
L 191.136739 388.193722 
L 195.329076 388.252759 
L 199.521412 389.334876 
L 203.713749 388.639658 
L 207.906086 391.55115 
L 212.098422 391.870639 
L 216.290759 388.97716 
L 220.483095 387.50897 
L 224.675432 389.929582 
L 228.867769 388.983741 
L 233.060105 387.475141 
L 237.252442 390.180234 
L 241.444778 389.657915 
L 245.637115 389.989418 
L 249.829452 388.750064 
L 254.021788 390.293587 
L 258.214125 391.110373 
L 262.406461 390.588027 
L 266.598798 390.767192 
L 270.791134 389.953549 
L 274.983471 386.339655 
L 279.175808 390.59422 
L 283.368144 391.274288 
L 287.560481 391.0943 
L 291.752817 387.302845 
L 295.945154 388.850883 
L 300.137491 389.447247 
L 304.329827 389.730791 
L 308.522164 391.264847 
L 312.7145 389.025187 
L 316.906837 390.591087 
L 321.099174 391.766455 
L 325.29151 390.475923 
L 329.483847 389.920006 
L 333.676183 390.43825 
L 337.86852 390.097814 
L 342.060856 389.949738 
L 346.253193 389.870556 
L 350.44553 388.414515 
L 354.637866 389.466803 
L 358.830203 391.671891 
L 363.022539 391.792805 
L 367.214876 388.74587 
L 371.407213 390.324391 
L 375.599549 389.388355 
L 379.791886 390.688302 
L 383.984222 391.728062 
L 388.176559 388.196017 
L 392.368896 390.663719 
L 396.561232 389.865315 
L 400.753569 389.634809 
L 404.945905 386.101018 
L 409.138242 389.496759 
L 413.330579 392.267033 
L 417.522915 387.225286 
L 421.715252 391.279181 
L 425.907588 388.660516 
L 430.099925 389.229567 
L 434.292261 391.746972 
L 438.484598 389.989897 
L 442.676935 387.795737 
L 446.869271 389.228184 
L 451.061608 385.300305 
L 455.253944 390.64529 
L 459.446281 388.034942 
L 463.638618 389.107214 
L 467.830954 390.556241 
L 472.023291 391.75721 
L 476.215627 389.016461 
L 480.407964 389.405056 
L 484.600301 388.551548 
L 488.792637 392.334545 
L 492.984974 386.889414 
L 497.17731 388.858553 
L 501.369647 391.277391 
L 505.561983 388.371193 
L 509.75432 388.47641 
L 513.946657 390.359776 
L 518.138993 390.846552 
L 522.33133 389.515182 
L 526.523666 389.527078 
L 530.716003 390.397007 
L 534.90834 389.524378 
L 539.100676 390.64651 
L 543.293013 387.744491 
L 547.485349 388.702934 
L 551.677686 387.324582 
L 555.870023 385.883505 
L 560.062359 391.508846 
L 564.254696 390.27651 
L 568.447032 391.367434 
L 572.639369 389.587038 
L 576.831705 390.17075 
L 581.024042 390.606278 
L 585.216379 390.090687 
L 589.408715 390.49451 
L 593.601052 391.586949 
L 597.793388 391.199213 
" clip-path="url(#p93ca15dea6)" style="fill: none; stroke: #ff6347; stroke-linecap: square"/>
   </g>
   <g id="patch_3">
    <path d="M 162 406.08 
L 162 103.68 
" style="fill: none; stroke: #000000; stroke-width: 0.8; stroke-linejoin: miter; stroke-linecap: square"/>
   </g>
   <g id="patch_4">
    <path d="M 618.545455 406.08 
L 618.545455 103.68 
" style="fill: none; stroke: #000000; stroke-width: 0.8; stroke-linejoin: miter; stroke-linecap: square"/>
   </g>
   <g id="patch_5">
    <path d="M 162 406.08 
L 618.545455 406.08 
" style="fill: none; stroke: #000000; stroke-width: 0.8; stroke-linejoin: miter; stroke-linecap: square"/>
   </g>
   <g id="patch_6">
    <path d="M 162 103.68 
L 618.545455 103.68 
" style="fill: none; stroke: #000000; stroke-width: 0.8; stroke-linejoin: miter; stroke-linecap: square"/>
   </g>
   <g id="text_14">
    <!-- MSLE -->
    <g transform="translate(374.152415 97.68) scale(0.12 -0.12)">
     <defs>
      <path id="DejaVuSans-4d" d="M 628 4666 
L 1569 4666 
L 2759 1491 
L 3956 4666 
L 4897 4666 
L 4897 0 
L 4281 0 
L 4281 4097 
L 3078 897 
L 2444 897 
L 1241 4097 
L 1241 0 
L 628 0 
L 628 4666 
z
" transform="scale(0.015625)"/>
      <path id="DejaVuSans-53" d="M 3425 4513 
L 3425 3897 
Q 3066 4069 2747 4153 
Q 2428 4238 2131 4238 
Q 1616 4238 1336 4038 
Q 1056 3838 1056 3469 
Q 1056 3159 1242 3001 
Q 1428 2844 1947 2747 
L 2328 2669 
Q 3034 2534 3370 2195 
Q 3706 1856 3706 1288 
Q 3706 609 3251 259 
Q 2797 -91 1919 -91 
Q 1588 -91 1214 -16 
Q 841 59 441 206 
L 441 856 
Q 825 641 1194 531 
Q 1563 422 1919 422 
Q 2459 422 2753 634 
Q 3047 847 3047 1241 
Q 3047 1584 2836 1778 
Q 2625 1972 2144 2069 
L 1759 2144 
Q 1053 2284 737 2584 
Q 422 2884 422 3419 
Q 422 4038 858 4394 
Q 1294 4750 2059 4750 
Q 2388 4750 2728 4690 
Q 3069 4631 3425 4513 
z
" transform="scale(0.015625)"/>
      <path id="DejaVuSans-4c" d="M 628 4666 
L 1259 4666 
L 1259 531 
L 3531 531 
L 3531 0 
L 628 0 
L 628 4666 
z
" transform="scale(0.015625)"/>
      <path id="DejaVuSans-45" d="M 628 4666 
L 3578 4666 
L 3578 4134 
L 1259 4134 
L 1259 2753 
L 3481 2753 
L 3481 2222 
L 1259 2222 
L 1259 531 
L 3634 531 
L 3634 0 
L 628 0 
L 628 4666 
z
" transform="scale(0.015625)"/>
     </defs>
     <use xlink:href="#DejaVuSans-4d"/>
     <use xlink:href="#DejaVuSans-53" x="86.279297"/>
     <use xlink:href="#DejaVuSans-4c" x="149.755859"/>
     <use xlink:href="#DejaVuSans-45" x="205.46875"/>
    </g>
   </g>
   <g id="legend_1">
    <g id="patch_7">
     <path d="M 530.164205 141.03625 
L 611.545455 141.03625 
Q 613.545455 141.03625 613.545455 139.03625 
L 613.545455 110.68 
Q 613.545455 108.68 611.545455 108.68 
L 530.164205 108.68 
Q 528.164205 108.68 528.164205 110.68 
L 528.164205 139.03625 
Q 528.164205 141.03625 530.164205 141.03625 
z
" style="fill: #ffffff; opacity: 0.8; stroke: #cccccc; stroke-linejoin: miter"/>
    </g>
    <g id="line2d_16">
     <path d="M 532.164205 116.778437 
L 542.164205 116.778437 
L 552.164205 116.778437 
" style="fill: none; stroke: #4169e1; stroke-linecap: square"/>
    </g>
    <g id="text_15">
     <!-- Training -->
     <g transform="translate(560.164205 120.278437) scale(0.1 -0.1)">
      <defs>
       <path id="DejaVuSans-54" d="M -19 4666 
L 3928 4666 
L 3928 4134 
L 2272 4134 
L 2272 0 
L 1638 0 
L 1638 4134 
L -19 4134 
L -19 4666 
z
" transform="scale(0.015625)"/>
       <path id="DejaVuSans-72" d="M 2631 2963 
Q 2534 3019 2420 3045 
Q 2306 3072 2169 3072 
Q 1681 3072 1420 2755 
Q 1159 2438 1159 1844 
L 1159 0 
L 581 0 
L 581 3500 
L 1159 3500 
L 1159 2956 
Q 1341 3275 1631 3429 
Q 1922 3584 2338 3584 
Q 2397 3584 2469 3576 
Q 2541 3569 2628 3553 
L 2631 2963 
z
" transform="scale(0.015625)"/>
       <path id="DejaVuSans-61" d="M 2194 1759 
Q 1497 1759 1228 1600 
Q 959 1441 959 1056 
Q 959 750 1161 570 
Q 1363 391 1709 391 
Q 2188 391 2477 730 
Q 2766 1069 2766 1631 
L 2766 1759 
L 2194 1759 
z
M 3341 1997 
L 3341 0 
L 2766 0 
L 2766 531 
Q 2569 213 2275 61 
Q 1981 -91 1556 -91 
Q 1019 -91 701 211 
Q 384 513 384 1019 
Q 384 1609 779 1909 
Q 1175 2209 1959 2209 
L 2766 2209 
L 2766 2266 
Q 2766 2663 2505 2880 
Q 2244 3097 1772 3097 
Q 1472 3097 1187 3025 
Q 903 2953 641 2809 
L 641 3341 
Q 956 3463 1253 3523 
Q 1550 3584 1831 3584 
Q 2591 3584 2966 3190 
Q 3341 2797 3341 1997 
z
" transform="scale(0.015625)"/>
       <path id="DejaVuSans-69" d="M 603 3500 
L 1178 3500 
L 1178 0 
L 603 0 
L 603 3500 
z
M 603 4863 
L 1178 4863 
L 1178 4134 
L 603 4134 
L 603 4863 
z
" transform="scale(0.015625)"/>
       <path id="DejaVuSans-6e" d="M 3513 2113 
L 3513 0 
L 2938 0 
L 2938 2094 
Q 2938 2591 2744 2837 
Q 2550 3084 2163 3084 
Q 1697 3084 1428 2787 
Q 1159 2491 1159 1978 
L 1159 0 
L 581 0 
L 581 3500 
L 1159 3500 
L 1159 2956 
Q 1366 3272 1645 3428 
Q 1925 3584 2291 3584 
Q 2894 3584 3203 3211 
Q 3513 2838 3513 2113 
z
" transform="scale(0.015625)"/>
       <path id="DejaVuSans-67" d="M 2906 1791 
Q 2906 2416 2648 2759 
Q 2391 3103 1925 3103 
Q 1463 3103 1205 2759 
Q 947 2416 947 1791 
Q 947 1169 1205 825 
Q 1463 481 1925 481 
Q 2391 481 2648 825 
Q 2906 1169 2906 1791 
z
M 3481 434 
Q 3481 -459 3084 -895 
Q 2688 -1331 1869 -1331 
Q 1566 -1331 1297 -1286 
Q 1028 -1241 775 -1147 
L 775 -588 
Q 1028 -725 1275 -790 
Q 1522 -856 1778 -856 
Q 2344 -856 2625 -561 
Q 2906 -266 2906 331 
L 2906 616 
Q 2728 306 2450 153 
Q 2172 0 1784 0 
Q 1141 0 747 490 
Q 353 981 353 1791 
Q 353 2603 747 3093 
Q 1141 3584 1784 3584 
Q 2172 3584 2450 3431 
Q 2728 3278 2906 2969 
L 2906 3500 
L 3481 3500 
L 3481 434 
z
" transform="scale(0.015625)"/>
      </defs>
      <use xlink:href="#DejaVuSans-54"/>
      <use xlink:href="#DejaVuSans-72" x="46.333984"/>
      <use xlink:href="#DejaVuSans-61" x="87.447266"/>
      <use xlink:href="#DejaVuSans-69" x="148.726562"/>
      <use xlink:href="#DejaVuSans-6e" x="176.509766"/>
      <use xlink:href="#DejaVuSans-69" x="239.888672"/>
      <use xlink:href="#DejaVuSans-6e" x="267.671875"/>
      <use xlink:href="#DejaVuSans-67" x="331.050781"/>
     </g>
    </g>
    <g id="line2d_17">
     <path d="M 532.164205 131.456562 
L 542.164205 131.456562 
L 552.164205 131.456562 
" style="fill: none; stroke: #ff6347; stroke-linecap: square"/>
    </g>
    <g id="text_16">
     <!-- Validation -->
     <g transform="translate(560.164205 134.956562) scale(0.1 -0.1)">
      <defs>
       <path id="DejaVuSans-56" d="M 1831 0 
L 50 4666 
L 709 4666 
L 2188 738 
L 3669 4666 
L 4325 4666 
L 2547 0 
L 1831 0 
z
" transform="scale(0.015625)"/>
       <path id="DejaVuSans-6c" d="M 603 4863 
L 1178 4863 
L 1178 0 
L 603 0 
L 603 4863 
z
" transform="scale(0.015625)"/>
       <path id="DejaVuSans-64" d="M 2906 2969 
L 2906 4863 
L 3481 4863 
L 3481 0 
L 2906 0 
L 2906 525 
Q 2725 213 2448 61 
Q 2172 -91 1784 -91 
Q 1150 -91 751 415 
Q 353 922 353 1747 
Q 353 2572 751 3078 
Q 1150 3584 1784 3584 
Q 2172 3584 2448 3432 
Q 2725 3281 2906 2969 
z
M 947 1747 
Q 947 1113 1208 752 
Q 1469 391 1925 391 
Q 2381 391 2643 752 
Q 2906 1113 2906 1747 
Q 2906 2381 2643 2742 
Q 2381 3103 1925 3103 
Q 1469 3103 1208 2742 
Q 947 2381 947 1747 
z
" transform="scale(0.015625)"/>
       <path id="DejaVuSans-74" d="M 1172 4494 
L 1172 3500 
L 2356 3500 
L 2356 3053 
L 1172 3053 
L 1172 1153 
Q 1172 725 1289 603 
Q 1406 481 1766 481 
L 2356 481 
L 2356 0 
L 1766 0 
Q 1100 0 847 248 
Q 594 497 594 1153 
L 594 3053 
L 172 3053 
L 172 3500 
L 594 3500 
L 594 4494 
L 1172 4494 
z
" transform="scale(0.015625)"/>
       <path id="DejaVuSans-6f" d="M 1959 3097 
Q 1497 3097 1228 2736 
Q 959 2375 959 1747 
Q 959 1119 1226 758 
Q 1494 397 1959 397 
Q 2419 397 2687 759 
Q 2956 1122 2956 1747 
Q 2956 2369 2687 2733 
Q 2419 3097 1959 3097 
z
M 1959 3584 
Q 2709 3584 3137 3096 
Q 3566 2609 3566 1747 
Q 3566 888 3137 398 
Q 2709 -91 1959 -91 
Q 1206 -91 779 398 
Q 353 888 353 1747 
Q 353 2609 779 3096 
Q 1206 3584 1959 3584 
z
" transform="scale(0.015625)"/>
      </defs>
      <use xlink:href="#DejaVuSans-56"/>
      <use xlink:href="#DejaVuSans-61" x="60.658203"/>
      <use xlink:href="#DejaVuSans-6c" x="121.9375"/>
      <use xlink:href="#DejaVuSans-69" x="149.720703"/>
      <use xlink:href="#DejaVuSans-64" x="177.503906"/>
      <use xlink:href="#DejaVuSans-61" x="240.980469"/>
      <use xlink:href="#DejaVuSans-74" x="302.259766"/>
      <use xlink:href="#DejaVuSans-69" x="341.46875"/>
      <use xlink:href="#DejaVuSans-6f" x="369.251953"/>
      <use xlink:href="#DejaVuSans-6e" x="430.433594"/>
     </g>
    </g>
   </g>
  </g>
  <g id="axes_2">
   <g id="patch_8">
    <path d="M 709.854545 406.08 
L 1166.4 406.08 
L 1166.4 103.68 
L 709.854545 103.68 
z
" style="fill: #ffffff"/>
   </g>
   <g id="matplotlib.axis_3">
    <g id="xtick_7">
     <g id="line2d_18">
      <g>
       <use xlink:href="#mb1c37a3027" x="730.606612" y="406.08" style="stroke: #000000; stroke-width: 0.8"/>
      </g>
     </g>
     <g id="text_17">
      <!-- 0 -->
      <g transform="translate(727.425362 420.678437) scale(0.1 -0.1)">
       <use xlink:href="#DejaVuSans-30"/>
      </g>
     </g>
    </g>
    <g id="xtick_8">
     <g id="line2d_19">
      <g>
       <use xlink:href="#mb1c37a3027" x="814.453343" y="406.08" style="stroke: #000000; stroke-width: 0.8"/>
      </g>
     </g>
     <g id="text_18">
      <!-- 20 -->
      <g transform="translate(808.090843 420.678437) scale(0.1 -0.1)">
       <use xlink:href="#DejaVuSans-32"/>
       <use xlink:href="#DejaVuSans-30" x="63.623047"/>
      </g>
     </g>
    </g>
    <g id="xtick_9">
     <g id="line2d_20">
      <g>
       <use xlink:href="#mb1c37a3027" x="898.300075" y="406.08" style="stroke: #000000; stroke-width: 0.8"/>
      </g>
     </g>
     <g id="text_19">
      <!-- 40 -->
      <g transform="translate(891.937575 420.678437) scale(0.1 -0.1)">
       <use xlink:href="#DejaVuSans-34"/>
       <use xlink:href="#DejaVuSans-30" x="63.623047"/>
      </g>
     </g>
    </g>
    <g id="xtick_10">
     <g id="line2d_21">
      <g>
       <use xlink:href="#mb1c37a3027" x="982.146807" y="406.08" style="stroke: #000000; stroke-width: 0.8"/>
      </g>
     </g>
     <g id="text_20">
      <!-- 60 -->
      <g transform="translate(975.784307 420.678437) scale(0.1 -0.1)">
       <use xlink:href="#DejaVuSans-36"/>
       <use xlink:href="#DejaVuSans-30" x="63.623047"/>
      </g>
     </g>
    </g>
    <g id="xtick_11">
     <g id="line2d_22">
      <g>
       <use xlink:href="#mb1c37a3027" x="1065.993539" y="406.08" style="stroke: #000000; stroke-width: 0.8"/>
      </g>
     </g>
     <g id="text_21">
      <!-- 80 -->
      <g transform="translate(1059.631039 420.678437) scale(0.1 -0.1)">
       <use xlink:href="#DejaVuSans-38"/>
       <use xlink:href="#DejaVuSans-30" x="63.623047"/>
      </g>
     </g>
    </g>
    <g id="xtick_12">
     <g id="line2d_23">
      <g>
       <use xlink:href="#mb1c37a3027" x="1149.84027" y="406.08" style="stroke: #000000; stroke-width: 0.8"/>
      </g>
     </g>
     <g id="text_22">
      <!-- 100 -->
      <g transform="translate(1140.29652 420.678437) scale(0.1 -0.1)">
       <use xlink:href="#DejaVuSans-31"/>
       <use xlink:href="#DejaVuSans-30" x="63.623047"/>
       <use xlink:href="#DejaVuSans-30" x="127.246094"/>
      </g>
     </g>
    </g>
   </g>
   <g id="matplotlib.axis_4">
    <g id="ytick_8">
     <g id="line2d_24">
      <g>
       <use xlink:href="#m7e378801f5" x="709.854545" y="374.206868" style="stroke: #000000; stroke-width: 0.8"/>
      </g>
     </g>
     <g id="text_23">
      <!-- 500 -->
      <g transform="translate(683.767045 378.006086) scale(0.1 -0.1)">
       <use xlink:href="#DejaVuSans-35"/>
       <use xlink:href="#DejaVuSans-30" x="63.623047"/>
       <use xlink:href="#DejaVuSans-30" x="127.246094"/>
      </g>
     </g>
    </g>
    <g id="ytick_9">
     <g id="line2d_25">
      <g>
       <use xlink:href="#m7e378801f5" x="709.854545" y="336.300077" style="stroke: #000000; stroke-width: 0.8"/>
      </g>
     </g>
     <g id="text_24">
      <!-- 750 -->
      <g transform="translate(683.767045 340.099296) scale(0.1 -0.1)">
       <defs>
        <path id="DejaVuSans-37" d="M 525 4666 
L 3525 4666 
L 3525 4397 
L 1831 0 
L 1172 0 
L 2766 4134 
L 525 4134 
L 525 4666 
z
" transform="scale(0.015625)"/>
       </defs>
       <use xlink:href="#DejaVuSans-37"/>
       <use xlink:href="#DejaVuSans-35" x="63.623047"/>
       <use xlink:href="#DejaVuSans-30" x="127.246094"/>
      </g>
     </g>
    </g>
    <g id="ytick_10">
     <g id="line2d_26">
      <g>
       <use xlink:href="#m7e378801f5" x="709.854545" y="298.393287" style="stroke: #000000; stroke-width: 0.8"/>
      </g>
     </g>
     <g id="text_25">
      <!-- 1000 -->
      <g transform="translate(677.404545 302.192505) scale(0.1 -0.1)">
       <use xlink:href="#DejaVuSans-31"/>
       <use xlink:href="#DejaVuSans-30" x="63.623047"/>
       <use xlink:href="#DejaVuSans-30" x="127.246094"/>
       <use xlink:href="#DejaVuSans-30" x="190.869141"/>
      </g>
     </g>
    </g>
    <g id="ytick_11">
     <g id="line2d_27">
      <g>
       <use xlink:href="#m7e378801f5" x="709.854545" y="260.486496" style="stroke: #000000; stroke-width: 0.8"/>
      </g>
     </g>
     <g id="text_26">
      <!-- 1250 -->
      <g transform="translate(677.404545 264.285715) scale(0.1 -0.1)">
       <use xlink:href="#DejaVuSans-31"/>
       <use xlink:href="#DejaVuSans-32" x="63.623047"/>
       <use xlink:href="#DejaVuSans-35" x="127.246094"/>
       <use xlink:href="#DejaVuSans-30" x="190.869141"/>
      </g>
     </g>
    </g>
    <g id="ytick_12">
     <g id="line2d_28">
      <g>
       <use xlink:href="#m7e378801f5" x="709.854545" y="222.579706" style="stroke: #000000; stroke-width: 0.8"/>
      </g>
     </g>
     <g id="text_27">
      <!-- 1500 -->
      <g transform="translate(677.404545 226.378924) scale(0.1 -0.1)">
       <use xlink:href="#DejaVuSans-31"/>
       <use xlink:href="#DejaVuSans-35" x="63.623047"/>
       <use xlink:href="#DejaVuSans-30" x="127.246094"/>
       <use xlink:href="#DejaVuSans-30" x="190.869141"/>
      </g>
     </g>
    </g>
    <g id="ytick_13">
     <g id="line2d_29">
      <g>
       <use xlink:href="#m7e378801f5" x="709.854545" y="184.672915" style="stroke: #000000; stroke-width: 0.8"/>
      </g>
     </g>
     <g id="text_28">
      <!-- 1750 -->
      <g transform="translate(677.404545 188.472134) scale(0.1 -0.1)">
       <use xlink:href="#DejaVuSans-31"/>
       <use xlink:href="#DejaVuSans-37" x="63.623047"/>
       <use xlink:href="#DejaVuSans-35" x="127.246094"/>
       <use xlink:href="#DejaVuSans-30" x="190.869141"/>
      </g>
     </g>
    </g>
    <g id="ytick_14">
     <g id="line2d_30">
      <g>
       <use xlink:href="#m7e378801f5" x="709.854545" y="146.766125" style="stroke: #000000; stroke-width: 0.8"/>
      </g>
     </g>
     <g id="text_29">
      <!-- 2000 -->
      <g transform="translate(677.404545 150.565344) scale(0.1 -0.1)">
       <use xlink:href="#DejaVuSans-32"/>
       <use xlink:href="#DejaVuSans-30" x="63.623047"/>
       <use xlink:href="#DejaVuSans-30" x="127.246094"/>
       <use xlink:href="#DejaVuSans-30" x="190.869141"/>
      </g>
     </g>
    </g>
    <g id="ytick_15">
     <g id="line2d_31">
      <g>
       <use xlink:href="#m7e378801f5" x="709.854545" y="108.859334" style="stroke: #000000; stroke-width: 0.8"/>
      </g>
     </g>
     <g id="text_30">
      <!-- 2250 -->
      <g transform="translate(677.404545 112.658553) scale(0.1 -0.1)">
       <use xlink:href="#DejaVuSans-32"/>
       <use xlink:href="#DejaVuSans-32" x="63.623047"/>
       <use xlink:href="#DejaVuSans-35" x="127.246094"/>
       <use xlink:href="#DejaVuSans-30" x="190.869141"/>
      </g>
     </g>
    </g>
   </g>
   <g id="line2d_32">
    <path d="M 730.606612 117.425455 
L 734.798948 328.179778 
L 738.991285 367.128876 
L 743.183621 371.732395 
L 747.375958 374.973407 
L 751.568295 365.756559 
L 755.760631 371.809781 
L 759.952968 372.681633 
L 764.145304 375.471336 
L 768.337641 375.133053 
L 772.529977 363.920792 
L 776.722314 375.197136 
L 780.914651 375.546566 
L 785.106987 378.243418 
L 789.299324 378.679651 
L 793.49166 349.796357 
L 797.683997 373.922502 
L 801.876334 374.939461 
L 806.06867 376.853323 
L 810.261007 375.918888 
L 814.453343 372.837309 
L 818.64568 374.908791 
L 822.838017 377.271089 
L 827.030353 376.018523 
L 831.22269 378.633027 
L 835.415026 356.293623 
L 839.607363 375.212707 
L 843.799699 376.424262 
L 847.992036 376.218482 
L 852.184373 378.399177 
L 856.376709 376.859098 
L 860.569046 377.316057 
L 864.761382 378.665557 
L 868.953719 380.244264 
L 873.146056 378.522555 
L 877.338392 373.056027 
L 881.530729 377.978445 
L 885.723065 378.954286 
L 889.915402 379.050358 
L 894.107739 378.782937 
L 898.300075 375.692409 
L 902.492412 376.94182 
L 906.684748 379.4038 
L 910.877085 378.487225 
L 915.069421 379.697041 
L 919.261758 374.950057 
L 923.454095 379.246662 
L 927.646431 378.340767 
L 931.838768 378.533207 
L 936.031104 379.263223 
L 940.223441 377.769916 
L 944.415778 379.037216 
L 948.608114 378.344682 
L 952.800451 380.102456 
L 956.992787 378.788481 
L 961.185124 380.075507 
L 965.377461 380.005801 
L 969.569797 380.834702 
L 973.762134 380.038993 
L 977.95447 381.09987 
L 982.146807 375.542647 
L 986.339144 379.654067 
L 990.53148 381.113835 
L 994.723817 380.089611 
L 998.916153 381.042801 
L 1003.10849 379.238716 
L 1007.300826 381.490922 
L 1011.493163 381.841708 
L 1015.6855 381.257646 
L 1019.877836 380.328514 
L 1024.070173 372.17258 
L 1028.262509 378.522874 
L 1032.454846 378.297118 
L 1036.647183 381.099393 
L 1040.839519 380.434256 
L 1045.031856 378.877857 
L 1049.224192 379.611204 
L 1053.416529 379.860292 
L 1057.608866 380.735715 
L 1061.801202 379.320393 
L 1065.993539 378.916134 
L 1070.185875 379.764724 
L 1074.378212 382.600121 
L 1078.570548 381.215246 
L 1082.762885 381.24786 
L 1086.955222 380.089602 
L 1091.147558 382.931357 
L 1095.339895 380.937914 
L 1099.532231 379.685875 
L 1103.724568 381.000137 
L 1107.916905 380.274828 
L 1112.109241 381.95082 
L 1116.301578 381.748001 
L 1120.493914 382.391393 
L 1124.686251 383.09645 
L 1128.878588 380.560313 
L 1133.070924 380.057442 
L 1137.263261 380.945008 
L 1141.455597 382.359997 
L 1145.647934 380.781507 
" clip-path="url(#p5a3c39f1a0)" style="fill: none; stroke: #4169e1; stroke-linecap: square"/>
   </g>
   <g id="line2d_33">
    <path d="M 730.606612 265.710489 
L 734.798948 360.341598 
L 738.991285 385.759994 
L 743.183621 384.459178 
L 747.375958 386.996435 
L 751.568295 386.627107 
L 755.760631 389.153771 
L 759.952968 385.103353 
L 764.145304 389.933535 
L 768.337641 390.156645 
L 772.529977 387.422229 
L 776.722314 387.916345 
L 780.914651 390.367335 
L 785.106987 389.552737 
L 789.299324 391.063507 
L 793.49166 388.887711 
L 797.683997 385.76761 
L 801.876334 387.46734 
L 806.06867 389.120756 
L 810.261007 389.45554 
L 814.453343 384.57121 
L 818.64568 386.723077 
L 822.838017 389.914341 
L 827.030353 390.856555 
L 831.22269 386.850462 
L 835.415026 388.920334 
L 839.607363 389.48137 
L 843.799699 390.723507 
L 847.992036 390.763857 
L 852.184373 390.7614 
L 856.376709 390.731734 
L 860.569046 387.396075 
L 864.761382 386.035572 
L 868.953719 387.795901 
L 873.146056 386.330687 
L 877.338392 389.811828 
L 881.530729 390.018974 
L 885.723065 386.694147 
L 889.915402 384.517417 
L 894.107739 387.112089 
L 898.300075 390.383808 
L 902.492412 390.679571 
L 906.684748 390.645125 
L 910.877085 387.796582 
L 915.069421 391.907317 
L 919.261758 387.547707 
L 923.454095 390.506297 
L 927.646431 388.915989 
L 931.838768 390.945834 
L 936.031104 387.305876 
L 940.223441 391.236308 
L 944.415778 390.710925 
L 948.608114 390.888919 
L 952.800451 390.820972 
L 956.992787 390.144123 
L 961.185124 384.757967 
L 965.377461 387.489931 
L 969.569797 389.771006 
L 973.762134 392.101677 
L 977.95447 387.206935 
L 982.146807 390.882019 
L 986.339144 391.395931 
L 990.53148 391.620216 
L 994.723817 391.872552 
L 998.916153 390.862812 
L 1003.10849 391.075042 
L 1007.300826 388.856075 
L 1011.493163 388.488445 
L 1015.6855 390.209947 
L 1019.877836 390.94558 
L 1024.070173 389.425315 
L 1028.262509 387.927534 
L 1032.454846 389.065723 
L 1036.647183 389.731244 
L 1040.839519 382.663372 
L 1045.031856 391.252661 
L 1049.224192 389.885495 
L 1053.416529 390.897262 
L 1057.608866 390.190554 
L 1061.801202 392.334545 
L 1065.993539 385.686253 
L 1070.185875 384.938705 
L 1074.378212 392.190456 
L 1078.570548 390.573684 
L 1082.762885 390.671973 
L 1086.955222 391.74463 
L 1091.147558 389.997415 
L 1095.339895 382.871336 
L 1099.532231 380.125537 
L 1103.724568 390.129547 
L 1107.916905 389.178305 
L 1112.109241 389.558239 
L 1116.301578 389.898613 
L 1120.493914 389.064659 
L 1124.686251 387.002149 
L 1128.878588 384.457364 
L 1133.070924 392.004559 
L 1137.263261 392.293321 
L 1141.455597 384.657319 
L 1145.647934 385.063128 
" clip-path="url(#p5a3c39f1a0)" style="fill: none; stroke: #ff6347; stroke-linecap: square"/>
   </g>
   <g id="patch_9">
    <path d="M 709.854545 406.08 
L 709.854545 103.68 
" style="fill: none; stroke: #000000; stroke-width: 0.8; stroke-linejoin: miter; stroke-linecap: square"/>
   </g>
   <g id="patch_10">
    <path d="M 1166.4 406.08 
L 1166.4 103.68 
" style="fill: none; stroke: #000000; stroke-width: 0.8; stroke-linejoin: miter; stroke-linecap: square"/>
   </g>
   <g id="patch_11">
    <path d="M 709.854545 406.08 
L 1166.4 406.08 
" style="fill: none; stroke: #000000; stroke-width: 0.8; stroke-linejoin: miter; stroke-linecap: square"/>
   </g>
   <g id="patch_12">
    <path d="M 709.854545 103.68 
L 1166.4 103.68 
" style="fill: none; stroke: #000000; stroke-width: 0.8; stroke-linejoin: miter; stroke-linecap: square"/>
   </g>
   <g id="text_31">
    <!-- LOSS -->
    <g transform="translate(922.660398 97.68) scale(0.12 -0.12)">
     <defs>
      <path id="DejaVuSans-4f" d="M 2522 4238 
Q 1834 4238 1429 3725 
Q 1025 3213 1025 2328 
Q 1025 1447 1429 934 
Q 1834 422 2522 422 
Q 3209 422 3611 934 
Q 4013 1447 4013 2328 
Q 4013 3213 3611 3725 
Q 3209 4238 2522 4238 
z
M 2522 4750 
Q 3503 4750 4090 4092 
Q 4678 3434 4678 2328 
Q 4678 1225 4090 567 
Q 3503 -91 2522 -91 
Q 1538 -91 948 565 
Q 359 1222 359 2328 
Q 359 3434 948 4092 
Q 1538 4750 2522 4750 
z
" transform="scale(0.015625)"/>
     </defs>
     <use xlink:href="#DejaVuSans-4c"/>
     <use xlink:href="#DejaVuSans-4f" x="52.087891"/>
     <use xlink:href="#DejaVuSans-53" x="130.798828"/>
     <use xlink:href="#DejaVuSans-53" x="194.275391"/>
    </g>
   </g>
   <g id="legend_2">
    <g id="patch_13">
     <path d="M 1078.01875 141.03625 
L 1159.4 141.03625 
Q 1161.4 141.03625 1161.4 139.03625 
L 1161.4 110.68 
Q 1161.4 108.68 1159.4 108.68 
L 1078.01875 108.68 
Q 1076.01875 108.68 1076.01875 110.68 
L 1076.01875 139.03625 
Q 1076.01875 141.03625 1078.01875 141.03625 
z
" style="fill: #ffffff; opacity: 0.8; stroke: #cccccc; stroke-linejoin: miter"/>
    </g>
    <g id="line2d_34">
     <path d="M 1080.01875 116.778437 
L 1090.01875 116.778437 
L 1100.01875 116.778437 
" style="fill: none; stroke: #4169e1; stroke-linecap: square"/>
    </g>
    <g id="text_32">
     <!-- Training -->
     <g transform="translate(1108.01875 120.278437) scale(0.1 -0.1)">
      <use xlink:href="#DejaVuSans-54"/>
      <use xlink:href="#DejaVuSans-72" x="46.333984"/>
      <use xlink:href="#DejaVuSans-61" x="87.447266"/>
      <use xlink:href="#DejaVuSans-69" x="148.726562"/>
      <use xlink:href="#DejaVuSans-6e" x="176.509766"/>
      <use xlink:href="#DejaVuSans-69" x="239.888672"/>
      <use xlink:href="#DejaVuSans-6e" x="267.671875"/>
      <use xlink:href="#DejaVuSans-67" x="331.050781"/>
     </g>
    </g>
    <g id="line2d_35">
     <path d="M 1080.01875 131.456562 
L 1090.01875 131.456562 
L 1100.01875 131.456562 
" style="fill: none; stroke: #ff6347; stroke-linecap: square"/>
    </g>
    <g id="text_33">
     <!-- Validation -->
     <g transform="translate(1108.01875 134.956562) scale(0.1 -0.1)">
      <use xlink:href="#DejaVuSans-56"/>
      <use xlink:href="#DejaVuSans-61" x="60.658203"/>
      <use xlink:href="#DejaVuSans-6c" x="121.9375"/>
      <use xlink:href="#DejaVuSans-69" x="149.720703"/>
      <use xlink:href="#DejaVuSans-64" x="177.503906"/>
      <use xlink:href="#DejaVuSans-61" x="240.980469"/>
      <use xlink:href="#DejaVuSans-74" x="302.259766"/>
      <use xlink:href="#DejaVuSans-69" x="341.46875"/>
      <use xlink:href="#DejaVuSans-6f" x="369.251953"/>
      <use xlink:href="#DejaVuSans-6e" x="430.433594"/>
     </g>
    </g>
   </g>
  </g>
  <g id="axes_3">
   <g id="patch_14">
    <path d="M 162 768.96 
L 618.545455 768.96 
L 618.545455 466.56 
L 162 466.56 
z
" style="fill: #ffffff"/>
   </g>
   <g id="matplotlib.axis_5">
    <g id="xtick_13">
     <g id="line2d_36">
      <g>
       <use xlink:href="#mb1c37a3027" x="182.752066" y="768.96" style="stroke: #000000; stroke-width: 0.8"/>
      </g>
     </g>
     <g id="text_34">
      <!-- 0 -->
      <g transform="translate(179.570816 783.558437) scale(0.1 -0.1)">
       <use xlink:href="#DejaVuSans-30"/>
      </g>
     </g>
    </g>
    <g id="xtick_14">
     <g id="line2d_37">
      <g>
       <use xlink:href="#mb1c37a3027" x="266.598798" y="768.96" style="stroke: #000000; stroke-width: 0.8"/>
      </g>
     </g>
     <g id="text_35">
      <!-- 20 -->
      <g transform="translate(260.236298 783.558437) scale(0.1 -0.1)">
       <use xlink:href="#DejaVuSans-32"/>
       <use xlink:href="#DejaVuSans-30" x="63.623047"/>
      </g>
     </g>
    </g>
    <g id="xtick_15">
     <g id="line2d_38">
      <g>
       <use xlink:href="#mb1c37a3027" x="350.44553" y="768.96" style="stroke: #000000; stroke-width: 0.8"/>
      </g>
     </g>
     <g id="text_36">
      <!-- 40 -->
      <g transform="translate(344.08303 783.558437) scale(0.1 -0.1)">
       <use xlink:href="#DejaVuSans-34"/>
       <use xlink:href="#DejaVuSans-30" x="63.623047"/>
      </g>
     </g>
    </g>
    <g id="xtick_16">
     <g id="line2d_39">
      <g>
       <use xlink:href="#mb1c37a3027" x="434.292261" y="768.96" style="stroke: #000000; stroke-width: 0.8"/>
      </g>
     </g>
     <g id="text_37">
      <!-- 60 -->
      <g transform="translate(427.929761 783.558437) scale(0.1 -0.1)">
       <use xlink:href="#DejaVuSans-36"/>
       <use xlink:href="#DejaVuSans-30" x="63.623047"/>
      </g>
     </g>
    </g>
    <g id="xtick_17">
     <g id="line2d_40">
      <g>
       <use xlink:href="#mb1c37a3027" x="518.138993" y="768.96" style="stroke: #000000; stroke-width: 0.8"/>
      </g>
     </g>
     <g id="text_38">
      <!-- 80 -->
      <g transform="translate(511.776493 783.558437) scale(0.1 -0.1)">
       <use xlink:href="#DejaVuSans-38"/>
       <use xlink:href="#DejaVuSans-30" x="63.623047"/>
      </g>
     </g>
    </g>
    <g id="xtick_18">
     <g id="line2d_41">
      <g>
       <use xlink:href="#mb1c37a3027" x="601.985725" y="768.96" style="stroke: #000000; stroke-width: 0.8"/>
      </g>
     </g>
     <g id="text_39">
      <!-- 100 -->
      <g transform="translate(592.441975 783.558437) scale(0.1 -0.1)">
       <use xlink:href="#DejaVuSans-31"/>
       <use xlink:href="#DejaVuSans-30" x="63.623047"/>
       <use xlink:href="#DejaVuSans-30" x="127.246094"/>
      </g>
     </g>
    </g>
   </g>
   <g id="matplotlib.axis_6">
    <g id="ytick_16">
     <g id="line2d_42">
      <g>
       <use xlink:href="#m7e378801f5" x="162" y="760.685286" style="stroke: #000000; stroke-width: 0.8"/>
      </g>
     </g>
     <g id="text_40">
      <!-- 15 -->
      <g transform="translate(142.275 764.484505) scale(0.1 -0.1)">
       <use xlink:href="#DejaVuSans-31"/>
       <use xlink:href="#DejaVuSans-35" x="63.623047"/>
      </g>
     </g>
    </g>
    <g id="ytick_17">
     <g id="line2d_43">
      <g>
       <use xlink:href="#m7e378801f5" x="162" y="702.836682" style="stroke: #000000; stroke-width: 0.8"/>
      </g>
     </g>
     <g id="text_41">
      <!-- 20 -->
      <g transform="translate(142.275 706.635901) scale(0.1 -0.1)">
       <use xlink:href="#DejaVuSans-32"/>
       <use xlink:href="#DejaVuSans-30" x="63.623047"/>
      </g>
     </g>
    </g>
    <g id="ytick_18">
     <g id="line2d_44">
      <g>
       <use xlink:href="#m7e378801f5" x="162" y="644.988079" style="stroke: #000000; stroke-width: 0.8"/>
      </g>
     </g>
     <g id="text_42">
      <!-- 25 -->
      <g transform="translate(142.275 648.787297) scale(0.1 -0.1)">
       <use xlink:href="#DejaVuSans-32"/>
       <use xlink:href="#DejaVuSans-35" x="63.623047"/>
      </g>
     </g>
    </g>
    <g id="ytick_19">
     <g id="line2d_45">
      <g>
       <use xlink:href="#m7e378801f5" x="162" y="587.139475" style="stroke: #000000; stroke-width: 0.8"/>
      </g>
     </g>
     <g id="text_43">
      <!-- 30 -->
      <g transform="translate(142.275 590.938694) scale(0.1 -0.1)">
       <use xlink:href="#DejaVuSans-33"/>
       <use xlink:href="#DejaVuSans-30" x="63.623047"/>
      </g>
     </g>
    </g>
    <g id="ytick_20">
     <g id="line2d_46">
      <g>
       <use xlink:href="#m7e378801f5" x="162" y="529.290871" style="stroke: #000000; stroke-width: 0.8"/>
      </g>
     </g>
     <g id="text_44">
      <!-- 35 -->
      <g transform="translate(142.275 533.09009) scale(0.1 -0.1)">
       <use xlink:href="#DejaVuSans-33"/>
       <use xlink:href="#DejaVuSans-35" x="63.623047"/>
      </g>
     </g>
    </g>
    <g id="ytick_21">
     <g id="line2d_47">
      <g>
       <use xlink:href="#m7e378801f5" x="162" y="471.442267" style="stroke: #000000; stroke-width: 0.8"/>
      </g>
     </g>
     <g id="text_45">
      <!-- 40 -->
      <g transform="translate(142.275 475.241486) scale(0.1 -0.1)">
       <use xlink:href="#DejaVuSans-34"/>
       <use xlink:href="#DejaVuSans-30" x="63.623047"/>
      </g>
     </g>
    </g>
   </g>
   <g id="line2d_48">
    <path d="M 182.752066 480.305455 
L 186.944403 652.674737 
L 191.136739 708.994616 
L 195.329076 718.390534 
L 199.521412 724.021032 
L 203.713749 712.107721 
L 207.906086 720.520643 
L 212.098422 721.336655 
L 216.290759 727.423111 
L 220.483095 724.079953 
L 224.675432 705.337613 
L 228.867769 724.182368 
L 233.060105 725.165585 
L 237.252442 729.508555 
L 241.444778 730.987364 
L 245.637115 699.564404 
L 249.829452 725.512353 
L 254.021788 724.747053 
L 258.214125 728.693471 
L 262.406461 728.258079 
L 266.598798 721.597051 
L 270.791134 725.206961 
L 274.983471 728.480277 
L 279.175808 726.250136 
L 283.368144 730.598116 
L 287.560481 704.824434 
L 291.752817 726.039855 
L 295.945154 727.191336 
L 300.137491 726.740056 
L 304.329827 731.624718 
L 308.522164 727.738125 
L 312.7145 729.318223 
L 316.906837 730.126335 
L 321.099174 733.123343 
L 325.29151 731.157527 
L 329.483847 721.433244 
L 333.676183 728.348247 
L 337.86852 729.922873 
L 342.060856 731.090397 
L 346.253193 729.143383 
L 350.44553 726.064284 
L 354.637866 727.65952 
L 358.830203 731.748119 
L 363.022539 731.124734 
L 367.214876 731.988324 
L 371.407213 724.710002 
L 375.599549 731.444779 
L 379.791886 730.106871 
L 383.984222 730.071232 
L 388.176559 730.773883 
L 392.368896 729.789408 
L 396.561232 731.491474 
L 400.753569 729.119064 
L 404.945905 732.519996 
L 409.138242 730.150366 
L 413.330579 733.480395 
L 417.522915 732.897151 
L 421.715252 733.42271 
L 425.907588 732.538356 
L 430.099925 734.264276 
L 434.292261 726.604849 
L 438.484598 731.577581 
L 442.676935 734.561812 
L 446.869271 732.853413 
L 451.061608 733.658126 
L 455.253944 731.364917 
L 459.446281 735.228604 
L 463.638618 735.379236 
L 467.830954 733.395921 
L 472.023291 733.589938 
L 476.215627 721.124851 
L 480.407964 730.013018 
L 484.600301 730.183622 
L 488.792637 733.627342 
L 492.984974 733.816549 
L 497.17731 730.388717 
L 501.369647 731.281612 
L 505.561983 732.947619 
L 509.75432 733.776165 
L 513.946657 730.840042 
L 518.138993 730.669901 
L 522.33133 731.762706 
L 526.523666 735.710734 
L 530.716003 734.07251 
L 534.90834 734.382051 
L 539.100676 731.875007 
L 543.293013 736.02535 
L 547.485349 733.576124 
L 551.677686 731.107897 
L 555.870023 733.194886 
L 560.062359 732.662971 
L 564.254696 734.711893 
L 568.447032 734.948986 
L 572.639369 736.492166 
L 576.831705 736.384278 
L 581.024042 732.403303 
L 585.216379 731.641533 
L 589.408715 734.15705 
L 593.601052 736.175387 
L 597.793388 732.593856 
" clip-path="url(#p9f9198057e)" style="fill: none; stroke: #4169e1; stroke-linecap: square"/>
   </g>
   <g id="line2d_49">
    <path d="M 182.752066 587.207994 
L 186.944403 688.995047 
L 191.136739 728.897043 
L 195.329076 724.669596 
L 199.521412 731.641974 
L 203.713749 730.947444 
L 207.906086 744.087112 
L 212.098422 729.624984 
L 216.290759 740.824368 
L 220.483095 744.515663 
L 224.675432 732.361264 
L 228.867769 733.000912 
L 233.060105 743.06307 
L 237.252442 738.466346 
L 241.444778 743.106874 
L 245.637115 739.588279 
L 249.829452 728.991889 
L 254.021788 734.070678 
L 258.214125 739.709628 
L 262.406461 739.9973 
L 266.598798 728.212708 
L 270.791134 730.595821 
L 274.983471 741.983816 
L 279.175808 743.793438 
L 283.368144 734.005072 
L 287.560481 736.266614 
L 291.752817 747.233694 
L 295.945154 744.664641 
L 300.137491 749.466218 
L 304.329827 751.234133 
L 308.522164 749.495027 
L 312.7145 732.329112 
L 316.906837 730.617712 
L 321.099174 735.007818 
L 325.29151 731.025122 
L 329.483847 741.264393 
L 333.676183 738.78297 
L 337.86852 730.653638 
L 342.060856 726.947071 
L 346.253193 730.627289 
L 350.44553 742.011819 
L 354.637866 740.996913 
L 358.830203 742.826684 
L 363.022539 733.859801 
L 367.214876 746.508225 
L 371.407213 733.496614 
L 375.599549 741.361027 
L 379.791886 735.53148 
L 383.984222 744.657866 
L 388.176559 730.72251 
L 392.368896 746.901711 
L 396.561232 742.334049 
L 400.753569 741.976798 
L 404.945905 742.798658 
L 409.138242 739.706098 
L 413.330579 729.343623 
L 417.522915 731.668963 
L 421.715252 738.103247 
L 425.907588 748.511534 
L 430.099925 731.785258 
L 434.292261 745.84556 
L 438.484598 742.993028 
L 442.676935 752.261408 
L 446.869271 746.912722 
L 451.061608 743.13693 
L 455.253944 743.740035 
L 459.446281 736.633023 
L 463.638618 735.441974 
L 467.830954 741.793241 
L 472.023291 747.122253 
L 476.215627 741.165796 
L 480.407964 735.112021 
L 484.600301 736.503641 
L 488.792637 740.793959 
L 492.984974 721.967917 
L 497.17731 746.13897 
L 501.369647 738.870093 
L 505.561983 739.471763 
L 509.75432 739.431688 
L 513.946657 745.317816 
L 518.138993 729.895178 
L 522.33133 726.712626 
L 526.523666 750.343423 
L 530.716003 741.344189 
L 534.90834 738.8612 
L 539.100676 747.163387 
L 543.293013 737.377095 
L 547.485349 723.703283 
L 551.677686 716.906275 
L 555.870023 737.378948 
L 560.062359 738.294661 
L 564.254696 737.575768 
L 568.447032 740.17 
L 572.639369 735.877851 
L 576.831705 731.669095 
L 581.024042 726.362482 
L 585.216379 745.874425 
L 589.408715 755.214545 
L 593.601052 727.470005 
L 597.793388 729.466098 
" clip-path="url(#p9f9198057e)" style="fill: none; stroke: #ff6347; stroke-linecap: square"/>
   </g>
   <g id="patch_15">
    <path d="M 162 768.96 
L 162 466.56 
" style="fill: none; stroke: #000000; stroke-width: 0.8; stroke-linejoin: miter; stroke-linecap: square"/>
   </g>
   <g id="patch_16">
    <path d="M 618.545455 768.96 
L 618.545455 466.56 
" style="fill: none; stroke: #000000; stroke-width: 0.8; stroke-linejoin: miter; stroke-linecap: square"/>
   </g>
   <g id="patch_17">
    <path d="M 162 768.96 
L 618.545455 768.96 
" style="fill: none; stroke: #000000; stroke-width: 0.8; stroke-linejoin: miter; stroke-linecap: square"/>
   </g>
   <g id="patch_18">
    <path d="M 162 466.56 
L 618.545455 466.56 
" style="fill: none; stroke: #000000; stroke-width: 0.8; stroke-linejoin: miter; stroke-linecap: square"/>
   </g>
   <g id="text_46">
    <!-- MAE -->
    <g transform="translate(377.200227 460.56) scale(0.12 -0.12)">
     <defs>
      <path id="DejaVuSans-41" d="M 2188 4044 
L 1331 1722 
L 3047 1722 
L 2188 4044 
z
M 1831 4666 
L 2547 4666 
L 4325 0 
L 3669 0 
L 3244 1197 
L 1141 1197 
L 716 0 
L 50 0 
L 1831 4666 
z
" transform="scale(0.015625)"/>
     </defs>
     <use xlink:href="#DejaVuSans-4d"/>
     <use xlink:href="#DejaVuSans-41" x="86.279297"/>
     <use xlink:href="#DejaVuSans-45" x="154.6875"/>
    </g>
   </g>
   <g id="legend_3">
    <g id="patch_19">
     <path d="M 530.164205 503.91625 
L 611.545455 503.91625 
Q 613.545455 503.91625 613.545455 501.91625 
L 613.545455 473.56 
Q 613.545455 471.56 611.545455 471.56 
L 530.164205 471.56 
Q 528.164205 471.56 528.164205 473.56 
L 528.164205 501.91625 
Q 528.164205 503.91625 530.164205 503.91625 
z
" style="fill: #ffffff; opacity: 0.8; stroke: #cccccc; stroke-linejoin: miter"/>
    </g>
    <g id="line2d_50">
     <path d="M 532.164205 479.658437 
L 542.164205 479.658437 
L 552.164205 479.658437 
" style="fill: none; stroke: #4169e1; stroke-linecap: square"/>
    </g>
    <g id="text_47">
     <!-- Training -->
     <g transform="translate(560.164205 483.158437) scale(0.1 -0.1)">
      <use xlink:href="#DejaVuSans-54"/>
      <use xlink:href="#DejaVuSans-72" x="46.333984"/>
      <use xlink:href="#DejaVuSans-61" x="87.447266"/>
      <use xlink:href="#DejaVuSans-69" x="148.726562"/>
      <use xlink:href="#DejaVuSans-6e" x="176.509766"/>
      <use xlink:href="#DejaVuSans-69" x="239.888672"/>
      <use xlink:href="#DejaVuSans-6e" x="267.671875"/>
      <use xlink:href="#DejaVuSans-67" x="331.050781"/>
     </g>
    </g>
    <g id="line2d_51">
     <path d="M 532.164205 494.336563 
L 542.164205 494.336563 
L 552.164205 494.336563 
" style="fill: none; stroke: #ff6347; stroke-linecap: square"/>
    </g>
    <g id="text_48">
     <!-- Validation -->
     <g transform="translate(560.164205 497.836563) scale(0.1 -0.1)">
      <use xlink:href="#DejaVuSans-56"/>
      <use xlink:href="#DejaVuSans-61" x="60.658203"/>
      <use xlink:href="#DejaVuSans-6c" x="121.9375"/>
      <use xlink:href="#DejaVuSans-69" x="149.720703"/>
      <use xlink:href="#DejaVuSans-64" x="177.503906"/>
      <use xlink:href="#DejaVuSans-61" x="240.980469"/>
      <use xlink:href="#DejaVuSans-74" x="302.259766"/>
      <use xlink:href="#DejaVuSans-69" x="341.46875"/>
      <use xlink:href="#DejaVuSans-6f" x="369.251953"/>
      <use xlink:href="#DejaVuSans-6e" x="430.433594"/>
     </g>
    </g>
   </g>
  </g>
  <g id="axes_4">
   <g id="patch_20">
    <path d="M 709.854545 768.96 
L 1166.4 768.96 
L 1166.4 466.56 
L 709.854545 466.56 
z
" style="fill: #ffffff"/>
   </g>
   <g id="matplotlib.axis_7">
    <g id="xtick_19">
     <g id="line2d_52">
      <g>
       <use xlink:href="#mb1c37a3027" x="730.606612" y="768.96" style="stroke: #000000; stroke-width: 0.8"/>
      </g>
     </g>
     <g id="text_49">
      <!-- 0 -->
      <g transform="translate(727.425362 783.558437) scale(0.1 -0.1)">
       <use xlink:href="#DejaVuSans-30"/>
      </g>
     </g>
    </g>
    <g id="xtick_20">
     <g id="line2d_53">
      <g>
       <use xlink:href="#mb1c37a3027" x="814.453343" y="768.96" style="stroke: #000000; stroke-width: 0.8"/>
      </g>
     </g>
     <g id="text_50">
      <!-- 20 -->
      <g transform="translate(808.090843 783.558437) scale(0.1 -0.1)">
       <use xlink:href="#DejaVuSans-32"/>
       <use xlink:href="#DejaVuSans-30" x="63.623047"/>
      </g>
     </g>
    </g>
    <g id="xtick_21">
     <g id="line2d_54">
      <g>
       <use xlink:href="#mb1c37a3027" x="898.300075" y="768.96" style="stroke: #000000; stroke-width: 0.8"/>
      </g>
     </g>
     <g id="text_51">
      <!-- 40 -->
      <g transform="translate(891.937575 783.558437) scale(0.1 -0.1)">
       <use xlink:href="#DejaVuSans-34"/>
       <use xlink:href="#DejaVuSans-30" x="63.623047"/>
      </g>
     </g>
    </g>
    <g id="xtick_22">
     <g id="line2d_55">
      <g>
       <use xlink:href="#mb1c37a3027" x="982.146807" y="768.96" style="stroke: #000000; stroke-width: 0.8"/>
      </g>
     </g>
     <g id="text_52">
      <!-- 60 -->
      <g transform="translate(975.784307 783.558437) scale(0.1 -0.1)">
       <use xlink:href="#DejaVuSans-36"/>
       <use xlink:href="#DejaVuSans-30" x="63.623047"/>
      </g>
     </g>
    </g>
    <g id="xtick_23">
     <g id="line2d_56">
      <g>
       <use xlink:href="#mb1c37a3027" x="1065.993539" y="768.96" style="stroke: #000000; stroke-width: 0.8"/>
      </g>
     </g>
     <g id="text_53">
      <!-- 80 -->
      <g transform="translate(1059.631039 783.558437) scale(0.1 -0.1)">
       <use xlink:href="#DejaVuSans-38"/>
       <use xlink:href="#DejaVuSans-30" x="63.623047"/>
      </g>
     </g>
    </g>
    <g id="xtick_24">
     <g id="line2d_57">
      <g>
       <use xlink:href="#mb1c37a3027" x="1149.84027" y="768.96" style="stroke: #000000; stroke-width: 0.8"/>
      </g>
     </g>
     <g id="text_54">
      <!-- 100 -->
      <g transform="translate(1140.29652 783.558437) scale(0.1 -0.1)">
       <use xlink:href="#DejaVuSans-31"/>
       <use xlink:href="#DejaVuSans-30" x="63.623047"/>
       <use xlink:href="#DejaVuSans-30" x="127.246094"/>
      </g>
     </g>
    </g>
   </g>
   <g id="matplotlib.axis_8">
    <g id="ytick_22">
     <g id="line2d_58">
      <g>
       <use xlink:href="#m7e378801f5" x="709.854545" y="750.235559" style="stroke: #000000; stroke-width: 0.8"/>
      </g>
     </g>
     <g id="text_55">
      <!-- 20 -->
      <g transform="translate(690.129545 754.034777) scale(0.1 -0.1)">
       <use xlink:href="#DejaVuSans-32"/>
       <use xlink:href="#DejaVuSans-30" x="63.623047"/>
      </g>
     </g>
    </g>
    <g id="ytick_23">
     <g id="line2d_59">
      <g>
       <use xlink:href="#m7e378801f5" x="709.854545" y="699.94091" style="stroke: #000000; stroke-width: 0.8"/>
      </g>
     </g>
     <g id="text_56">
      <!-- 25 -->
      <g transform="translate(690.129545 703.740129) scale(0.1 -0.1)">
       <use xlink:href="#DejaVuSans-32"/>
       <use xlink:href="#DejaVuSans-35" x="63.623047"/>
      </g>
     </g>
    </g>
    <g id="ytick_24">
     <g id="line2d_60">
      <g>
       <use xlink:href="#m7e378801f5" x="709.854545" y="649.646261" style="stroke: #000000; stroke-width: 0.8"/>
      </g>
     </g>
     <g id="text_57">
      <!-- 30 -->
      <g transform="translate(690.129545 653.44548) scale(0.1 -0.1)">
       <use xlink:href="#DejaVuSans-33"/>
       <use xlink:href="#DejaVuSans-30" x="63.623047"/>
      </g>
     </g>
    </g>
    <g id="ytick_25">
     <g id="line2d_61">
      <g>
       <use xlink:href="#m7e378801f5" x="709.854545" y="599.351613" style="stroke: #000000; stroke-width: 0.8"/>
      </g>
     </g>
     <g id="text_58">
      <!-- 35 -->
      <g transform="translate(690.129545 603.150831) scale(0.1 -0.1)">
       <use xlink:href="#DejaVuSans-33"/>
       <use xlink:href="#DejaVuSans-35" x="63.623047"/>
      </g>
     </g>
    </g>
    <g id="ytick_26">
     <g id="line2d_62">
      <g>
       <use xlink:href="#m7e378801f5" x="709.854545" y="549.056964" style="stroke: #000000; stroke-width: 0.8"/>
      </g>
     </g>
     <g id="text_59">
      <!-- 40 -->
      <g transform="translate(690.129545 552.856183) scale(0.1 -0.1)">
       <use xlink:href="#DejaVuSans-34"/>
       <use xlink:href="#DejaVuSans-30" x="63.623047"/>
      </g>
     </g>
    </g>
    <g id="ytick_27">
     <g id="line2d_63">
      <g>
       <use xlink:href="#m7e378801f5" x="709.854545" y="498.762315" style="stroke: #000000; stroke-width: 0.8"/>
      </g>
     </g>
     <g id="text_60">
      <!-- 45 -->
      <g transform="translate(690.129545 502.561534) scale(0.1 -0.1)">
       <use xlink:href="#DejaVuSans-34"/>
       <use xlink:href="#DejaVuSans-35" x="63.623047"/>
      </g>
     </g>
    </g>
   </g>
   <g id="line2d_64">
    <path d="M 730.606612 480.305455 
L 734.798948 666.273326 
L 738.991285 716.224374 
L 743.183621 722.848474 
L 747.375958 727.629616 
L 751.568295 714.285506 
L 755.760631 722.96146 
L 759.952968 724.238376 
L 764.145304 728.373261 
L 768.337641 727.86777 
L 772.529977 711.716382 
L 776.722314 727.96345 
L 780.914651 728.485824 
L 785.106987 732.559391 
L 789.299324 733.225448 
L 793.49166 692.801765 
L 797.683997 726.068211 
L 801.876334 727.579023 
L 806.06867 730.450287 
L 810.261007 729.043769 
L 814.453343 724.46713 
L 818.64568 727.533303 
L 822.838017 731.08202 
L 827.030353 729.193323 
L 831.22269 733.154173 
L 835.415026 701.324788 
L 839.607363 727.986704 
L 843.799699 729.803358 
L 847.992036 729.493755 
L 852.184373 732.79697 
L 856.376709 730.458997 
L 860.569046 731.150111 
L 864.761382 733.203902 
L 868.953719 735.63132 
L 873.146056 732.985356 
L 877.338392 724.788915 
L 881.530729 732.155797 
L 885.723065 733.64583 
L 889.915402 733.793082 
L 894.107739 733.383463 
L 898.300075 728.704217 
L 902.492412 730.583955 
L 906.684748 734.335639 
L 910.877085 732.931405 
L 915.069421 734.786834 
L 919.261758 727.594813 
L 923.454095 734.094262 
L 927.646431 732.707851 
L 931.838768 733.001626 
L 936.031104 734.119683 
L 940.223441 731.838692 
L 944.415778 733.772937 
L 948.608114 732.713818 
L 952.800451 735.412159 
L 956.992787 733.391943 
L 961.185124 735.370545 
L 965.377461 735.262912 
L 969.569797 736.546237 
L 973.762134 735.314158 
L 977.95447 736.958388 
L 982.146807 728.479954 
L 986.339144 734.720662 
L 990.53148 736.980107 
L 994.723817 735.392321 
L 998.916153 736.869615 
L 1003.10849 734.08206 
L 1007.300826 737.567655 
L 1011.493163 738.115681 
L 1015.6855 737.204006 
L 1019.877836 735.76163 
L 1024.070173 723.491949 
L 1028.262509 732.985836 
L 1032.454846 732.641276 
L 1036.647183 736.95764 
L 1040.839519 735.925305 
L 1045.031856 733.528758 
L 1049.224192 734.654662 
L 1053.416529 735.038418 
L 1057.608866 736.392577 
L 1061.801202 734.207478 
L 1065.993539 733.58739 
L 1070.185875 734.891109 
L 1074.378212 739.30534 
L 1078.570548 737.137968 
L 1082.762885 737.188753 
L 1086.955222 735.392302 
L 1091.147558 739.827043 
L 1095.339895 736.706554 
L 1099.532231 734.769643 
L 1103.724568 736.803271 
L 1107.916905 735.678594 
L 1112.109241 738.286416 
L 1116.301578 737.969139 
L 1120.493914 738.977262 
L 1124.686251 740.08753 
L 1128.878588 736.120579 
L 1133.070924 735.342649 
L 1137.263261 736.717586 
L 1141.455597 738.927954 
L 1145.647934 736.463642 
" clip-path="url(#p02685f53ca)" style="fill: none; stroke: #4169e1; stroke-linecap: square"/>
   </g>
   <g id="line2d_65">
    <path d="M 730.606612 600.712621 
L 734.798948 706.784957 
L 738.991285 744.335573 
L 743.183621 742.250144 
L 747.375958 746.337466 
L 751.568295 745.737447 
L 755.760631 749.877953 
L 759.952968 743.280253 
L 764.145304 751.173058 
L 768.337641 751.545168 
L 772.529977 747.031401 
L 776.722314 747.839625 
L 780.914651 751.897191 
L 785.106987 750.53954 
L 789.299324 753.064824 
L 793.49166 749.437963 
L 797.683997 744.347852 
L 801.876334 747.105055 
L 806.06867 749.823292 
L 810.261007 750.378167 
L 814.453343 742.428937 
L 818.64568 745.893198 
L 822.838017 751.141075 
L 827.030353 752.717004 
L 831.22269 746.100099 
L 835.415026 749.491856 
L 839.607363 750.421048 
L 843.799699 752.493718 
L 847.992036 752.561406 
L 852.184373 752.557281 
L 856.376709 752.507513 
L 860.569046 746.988693 
L 864.761382 744.780071 
L 868.953719 747.642318 
L 873.146056 745.257147 
L 877.338392 750.970359 
L 881.530729 751.315475 
L 885.723065 745.846231 
L 889.915402 742.343061 
L 894.107739 746.525718 
L 898.300075 751.924742 
L 902.492412 752.420025 
L 906.684748 752.362276 
L 910.877085 747.64343 
L 915.069421 754.489357 
L 919.261758 747.236344 
L 923.454095 752.129704 
L 927.646431 749.484681 
L 931.838768 752.86698 
L 936.031104 746.841537 
L 940.223441 753.355721 
L 944.415778 752.472614 
L 948.608114 752.771357 
L 952.800451 752.657259 
L 956.992787 751.524255 
L 961.185124 742.727316 
L 965.377461 747.14195 
L 969.569797 750.902422 
L 973.762134 754.818932 
L 977.95447 746.680222 
L 982.146807 752.759769 
L 986.339144 753.624803 
L 990.53148 754.003513 
L 994.723817 754.430457 
L 998.916153 752.727498 
L 1003.10849 753.084221 
L 1007.300826 749.385701 
L 1011.493163 748.779465 
L 1015.6855 751.634152 
L 1019.877836 752.866538 
L 1024.070173 750.328015 
L 1028.262509 747.857967 
L 1032.454846 749.732236 
L 1036.647183 750.836269 
L 1040.839519 739.404857 
L 1045.031856 753.383253 
L 1049.224192 751.093014 
L 1053.416529 752.785363 
L 1057.608866 751.601766 
L 1061.801202 755.214545 
L 1065.993539 744.216793 
L 1070.185875 743.016485 
L 1074.378212 754.969676 
L 1078.570548 752.242575 
L 1082.762885 752.407286 
L 1086.955222 754.213906 
L 1091.147558 751.27952 
L 1095.339895 739.732399 
L 1099.532231 735.447826 
L 1103.724568 751.499928 
L 1107.916905 749.918569 
L 1112.109241 750.548691 
L 1116.301578 751.114867 
L 1120.493914 749.730471 
L 1124.686251 746.346752 
L 1128.878588 742.247246 
L 1133.070924 754.654183 
L 1137.263261 755.144459 
L 1141.455597 742.566461 
L 1145.647934 743.215788 
" clip-path="url(#p02685f53ca)" style="fill: none; stroke: #ff6347; stroke-linecap: square"/>
   </g>
   <g id="patch_21">
    <path d="M 709.854545 768.96 
L 709.854545 466.56 
" style="fill: none; stroke: #000000; stroke-width: 0.8; stroke-linejoin: miter; stroke-linecap: square"/>
   </g>
   <g id="patch_22">
    <path d="M 1166.4 768.96 
L 1166.4 466.56 
" style="fill: none; stroke: #000000; stroke-width: 0.8; stroke-linejoin: miter; stroke-linecap: square"/>
   </g>
   <g id="patch_23">
    <path d="M 709.854545 768.96 
L 1166.4 768.96 
" style="fill: none; stroke: #000000; stroke-width: 0.8; stroke-linejoin: miter; stroke-linecap: square"/>
   </g>
   <g id="patch_24">
    <path d="M 709.854545 466.56 
L 1166.4 466.56 
" style="fill: none; stroke: #000000; stroke-width: 0.8; stroke-linejoin: miter; stroke-linecap: square"/>
   </g>
   <g id="text_61">
    <!-- ROOT_MEAN_SQUARED_ERROR -->
    <g transform="translate(843.656335 460.56) scale(0.12 -0.12)">
     <defs>
      <path id="DejaVuSans-52" d="M 2841 2188 
Q 3044 2119 3236 1894 
Q 3428 1669 3622 1275 
L 4263 0 
L 3584 0 
L 2988 1197 
Q 2756 1666 2539 1819 
Q 2322 1972 1947 1972 
L 1259 1972 
L 1259 0 
L 628 0 
L 628 4666 
L 2053 4666 
Q 2853 4666 3247 4331 
Q 3641 3997 3641 3322 
Q 3641 2881 3436 2590 
Q 3231 2300 2841 2188 
z
M 1259 4147 
L 1259 2491 
L 2053 2491 
Q 2509 2491 2742 2702 
Q 2975 2913 2975 3322 
Q 2975 3731 2742 3939 
Q 2509 4147 2053 4147 
L 1259 4147 
z
" transform="scale(0.015625)"/>
      <path id="DejaVuSans-5f" d="M 3263 -1063 
L 3263 -1509 
L -63 -1509 
L -63 -1063 
L 3263 -1063 
z
" transform="scale(0.015625)"/>
      <path id="DejaVuSans-4e" d="M 628 4666 
L 1478 4666 
L 3547 763 
L 3547 4666 
L 4159 4666 
L 4159 0 
L 3309 0 
L 1241 3903 
L 1241 0 
L 628 0 
L 628 4666 
z
" transform="scale(0.015625)"/>
      <path id="DejaVuSans-51" d="M 2522 4238 
Q 1834 4238 1429 3725 
Q 1025 3213 1025 2328 
Q 1025 1447 1429 934 
Q 1834 422 2522 422 
Q 3209 422 3611 934 
Q 4013 1447 4013 2328 
Q 4013 3213 3611 3725 
Q 3209 4238 2522 4238 
z
M 3406 84 
L 4238 -825 
L 3475 -825 
L 2784 -78 
Q 2681 -84 2626 -87 
Q 2572 -91 2522 -91 
Q 1538 -91 948 567 
Q 359 1225 359 2328 
Q 359 3434 948 4092 
Q 1538 4750 2522 4750 
Q 3503 4750 4090 4092 
Q 4678 3434 4678 2328 
Q 4678 1516 4351 937 
Q 4025 359 3406 84 
z
" transform="scale(0.015625)"/>
      <path id="DejaVuSans-55" d="M 556 4666 
L 1191 4666 
L 1191 1831 
Q 1191 1081 1462 751 
Q 1734 422 2344 422 
Q 2950 422 3222 751 
Q 3494 1081 3494 1831 
L 3494 4666 
L 4128 4666 
L 4128 1753 
Q 4128 841 3676 375 
Q 3225 -91 2344 -91 
Q 1459 -91 1007 375 
Q 556 841 556 1753 
L 556 4666 
z
" transform="scale(0.015625)"/>
      <path id="DejaVuSans-44" d="M 1259 4147 
L 1259 519 
L 2022 519 
Q 2988 519 3436 956 
Q 3884 1394 3884 2338 
Q 3884 3275 3436 3711 
Q 2988 4147 2022 4147 
L 1259 4147 
z
M 628 4666 
L 1925 4666 
Q 3281 4666 3915 4102 
Q 4550 3538 4550 2338 
Q 4550 1131 3912 565 
Q 3275 0 1925 0 
L 628 0 
L 628 4666 
z
" transform="scale(0.015625)"/>
     </defs>
     <use xlink:href="#DejaVuSans-52"/>
     <use xlink:href="#DejaVuSans-4f" x="69.482422"/>
     <use xlink:href="#DejaVuSans-4f" x="148.193359"/>
     <use xlink:href="#DejaVuSans-54" x="226.904297"/>
     <use xlink:href="#DejaVuSans-5f" x="287.988281"/>
     <use xlink:href="#DejaVuSans-4d" x="337.988281"/>
     <use xlink:href="#DejaVuSans-45" x="424.267578"/>
     <use xlink:href="#DejaVuSans-41" x="487.451172"/>
     <use xlink:href="#DejaVuSans-4e" x="555.859375"/>
     <use xlink:href="#DejaVuSans-5f" x="630.664062"/>
     <use xlink:href="#DejaVuSans-53" x="680.664062"/>
     <use xlink:href="#DejaVuSans-51" x="744.140625"/>
     <use xlink:href="#DejaVuSans-55" x="822.851562"/>
     <use xlink:href="#DejaVuSans-41" x="896.044922"/>
     <use xlink:href="#DejaVuSans-52" x="964.453125"/>
     <use xlink:href="#DejaVuSans-45" x="1033.935547"/>
     <use xlink:href="#DejaVuSans-44" x="1097.119141"/>
     <use xlink:href="#DejaVuSans-5f" x="1174.121094"/>
     <use xlink:href="#DejaVuSans-45" x="1224.121094"/>
     <use xlink:href="#DejaVuSans-52" x="1287.304688"/>
     <use xlink:href="#DejaVuSans-52" x="1356.787109"/>
     <use xlink:href="#DejaVuSans-4f" x="1426.269531"/>
     <use xlink:href="#DejaVuSans-52" x="1504.980469"/>
    </g>
   </g>
   <g id="legend_4">
    <g id="patch_25">
     <path d="M 1078.01875 503.91625 
L 1159.4 503.91625 
Q 1161.4 503.91625 1161.4 501.91625 
L 1161.4 473.56 
Q 1161.4 471.56 1159.4 471.56 
L 1078.01875 471.56 
Q 1076.01875 471.56 1076.01875 473.56 
L 1076.01875 501.91625 
Q 1076.01875 503.91625 1078.01875 503.91625 
z
" style="fill: #ffffff; opacity: 0.8; stroke: #cccccc; stroke-linejoin: miter"/>
    </g>
    <g id="line2d_66">
     <path d="M 1080.01875 479.658437 
L 1090.01875 479.658437 
L 1100.01875 479.658437 
" style="fill: none; stroke: #4169e1; stroke-linecap: square"/>
    </g>
    <g id="text_62">
     <!-- Training -->
     <g transform="translate(1108.01875 483.158437) scale(0.1 -0.1)">
      <use xlink:href="#DejaVuSans-54"/>
      <use xlink:href="#DejaVuSans-72" x="46.333984"/>
      <use xlink:href="#DejaVuSans-61" x="87.447266"/>
      <use xlink:href="#DejaVuSans-69" x="148.726562"/>
      <use xlink:href="#DejaVuSans-6e" x="176.509766"/>
      <use xlink:href="#DejaVuSans-69" x="239.888672"/>
      <use xlink:href="#DejaVuSans-6e" x="267.671875"/>
      <use xlink:href="#DejaVuSans-67" x="331.050781"/>
     </g>
    </g>
    <g id="line2d_67">
     <path d="M 1080.01875 494.336563 
L 1090.01875 494.336563 
L 1100.01875 494.336563 
" style="fill: none; stroke: #ff6347; stroke-linecap: square"/>
    </g>
    <g id="text_63">
     <!-- Validation -->
     <g transform="translate(1108.01875 497.836563) scale(0.1 -0.1)">
      <use xlink:href="#DejaVuSans-56"/>
      <use xlink:href="#DejaVuSans-61" x="60.658203"/>
      <use xlink:href="#DejaVuSans-6c" x="121.9375"/>
      <use xlink:href="#DejaVuSans-69" x="149.720703"/>
      <use xlink:href="#DejaVuSans-64" x="177.503906"/>
      <use xlink:href="#DejaVuSans-61" x="240.980469"/>
      <use xlink:href="#DejaVuSans-74" x="302.259766"/>
      <use xlink:href="#DejaVuSans-69" x="341.46875"/>
      <use xlink:href="#DejaVuSans-6f" x="369.251953"/>
      <use xlink:href="#DejaVuSans-6e" x="430.433594"/>
     </g>
    </g>
   </g>
  </g>
 </g>
 <defs>
  <clipPath id="p93ca15dea6">
   <rect x="162" y="103.68" width="456.545455" height="302.4"/>
  </clipPath>
  <clipPath id="p5a3c39f1a0">
   <rect x="709.854545" y="103.68" width="456.545455" height="302.4"/>
  </clipPath>
  <clipPath id="p9f9198057e">
   <rect x="162" y="466.56" width="456.545455" height="302.4"/>
  </clipPath>
  <clipPath id="p02685f53ca">
   <rect x="709.854545" y="466.56" width="456.545455" height="302.4"/>
  </clipPath>
 </defs>
</svg>
