<?xml version="1.0" encoding="utf-8" standalone="no"?>
<!DOCTYPE svg PUBLIC "-//W3C//DTD SVG 1.1//EN"
  "http://www.w3.org/Graphics/SVG/1.1/DTD/svg11.dtd">
<svg xmlns:xlink="http://www.w3.org/1999/xlink" width="1296pt" height="864pt" viewBox="0 0 1296 864" xmlns="http://www.w3.org/2000/svg" version="1.1">
 <metadata>
  <rdf:RDF xmlns:dc="http://purl.org/dc/elements/1.1/" xmlns:cc="http://creativecommons.org/ns#" xmlns:rdf="http://www.w3.org/1999/02/22-rdf-syntax-ns#">
   <cc:Work>
    <dc:type rdf:resource="http://purl.org/dc/dcmitype/StillImage"/>
    <dc:date>2023-12-10T12:57:44.169949</dc:date>
    <dc:format>image/svg+xml</dc:format>
    <dc:creator>
     <cc:Agent>
      <dc:title>Matplotlib v3.8.0, https://matplotlib.org/</dc:title>
     </cc:Agent>
    </dc:creator>
   </cc:Work>
  </rdf:RDF>
 </metadata>
 <defs>
  <style type="text/css">*{stroke-linejoin: round; stroke-linecap: butt}</style>
 </defs>
 <g id="figure_1">
  <g id="patch_1">
   <path d="M 0 864 
L 1296 864 
L 1296 0 
L 0 0 
z
" style="fill: #ffffff"/>
  </g>
  <g id="axes_1">
   <g id="patch_2">
    <path d="M 162 406.08 
L 618.545455 406.08 
L 618.545455 103.68 
L 162 103.68 
z
" style="fill: #ffffff"/>
   </g>
   <g id="matplotlib.axis_1">
    <g id="xtick_1">
     <g id="line2d_1">
      <defs>
       <path id="m01a38a393a" d="M 0 0 
L 0 3.5 
" style="stroke: #000000; stroke-width: 0.8"/>
      </defs>
      <g>
       <use xlink:href="#m01a38a393a" x="182.752066" y="406.08" style="stroke: #000000; stroke-width: 0.8"/>
      </g>
     </g>
     <g id="text_1">
      <!-- 0 -->
      <g transform="translate(179.570816 420.678437) scale(0.1 -0.1)">
       <defs>
        <path id="DejaVuSans-30" d="M 2034 4250 
Q 1547 4250 1301 3770 
Q 1056 3291 1056 2328 
Q 1056 1369 1301 889 
Q 1547 409 2034 409 
Q 2525 409 2770 889 
Q 3016 1369 3016 2328 
Q 3016 3291 2770 3770 
Q 2525 4250 2034 4250 
z
M 2034 4750 
Q 2819 4750 3233 4129 
Q 3647 3509 3647 2328 
Q 3647 1150 3233 529 
Q 2819 -91 2034 -91 
Q 1250 -91 836 529 
Q 422 1150 422 2328 
Q 422 3509 836 4129 
Q 1250 4750 2034 4750 
z
" transform="scale(0.015625)"/>
       </defs>
       <use xlink:href="#DejaVuSans-30"/>
      </g>
     </g>
    </g>
    <g id="xtick_2">
     <g id="line2d_2">
      <g>
       <use xlink:href="#m01a38a393a" x="266.598798" y="406.08" style="stroke: #000000; stroke-width: 0.8"/>
      </g>
     </g>
     <g id="text_2">
      <!-- 20 -->
      <g transform="translate(260.236298 420.678437) scale(0.1 -0.1)">
       <defs>
        <path id="DejaVuSans-32" d="M 1228 531 
L 3431 531 
L 3431 0 
L 469 0 
L 469 531 
Q 828 903 1448 1529 
Q 2069 2156 2228 2338 
Q 2531 2678 2651 2914 
Q 2772 3150 2772 3378 
Q 2772 3750 2511 3984 
Q 2250 4219 1831 4219 
Q 1534 4219 1204 4116 
Q 875 4013 500 3803 
L 500 4441 
Q 881 4594 1212 4672 
Q 1544 4750 1819 4750 
Q 2544 4750 2975 4387 
Q 3406 4025 3406 3419 
Q 3406 3131 3298 2873 
Q 3191 2616 2906 2266 
Q 2828 2175 2409 1742 
Q 1991 1309 1228 531 
z
" transform="scale(0.015625)"/>
       </defs>
       <use xlink:href="#DejaVuSans-32"/>
       <use xlink:href="#DejaVuSans-30" x="63.623047"/>
      </g>
     </g>
    </g>
    <g id="xtick_3">
     <g id="line2d_3">
      <g>
       <use xlink:href="#m01a38a393a" x="350.44553" y="406.08" style="stroke: #000000; stroke-width: 0.8"/>
      </g>
     </g>
     <g id="text_3">
      <!-- 40 -->
      <g transform="translate(344.08303 420.678437) scale(0.1 -0.1)">
       <defs>
        <path id="DejaVuSans-34" d="M 2419 4116 
L 825 1625 
L 2419 1625 
L 2419 4116 
z
M 2253 4666 
L 3047 4666 
L 3047 1625 
L 3713 1625 
L 3713 1100 
L 3047 1100 
L 3047 0 
L 2419 0 
L 2419 1100 
L 313 1100 
L 313 1709 
L 2253 4666 
z
" transform="scale(0.015625)"/>
       </defs>
       <use xlink:href="#DejaVuSans-34"/>
       <use xlink:href="#DejaVuSans-30" x="63.623047"/>
      </g>
     </g>
    </g>
    <g id="xtick_4">
     <g id="line2d_4">
      <g>
       <use xlink:href="#m01a38a393a" x="434.292261" y="406.08" style="stroke: #000000; stroke-width: 0.8"/>
      </g>
     </g>
     <g id="text_4">
      <!-- 60 -->
      <g transform="translate(427.929761 420.678437) scale(0.1 -0.1)">
       <defs>
        <path id="DejaVuSans-36" d="M 2113 2584 
Q 1688 2584 1439 2293 
Q 1191 2003 1191 1497 
Q 1191 994 1439 701 
Q 1688 409 2113 409 
Q 2538 409 2786 701 
Q 3034 994 3034 1497 
Q 3034 2003 2786 2293 
Q 2538 2584 2113 2584 
z
M 3366 4563 
L 3366 3988 
Q 3128 4100 2886 4159 
Q 2644 4219 2406 4219 
Q 1781 4219 1451 3797 
Q 1122 3375 1075 2522 
Q 1259 2794 1537 2939 
Q 1816 3084 2150 3084 
Q 2853 3084 3261 2657 
Q 3669 2231 3669 1497 
Q 3669 778 3244 343 
Q 2819 -91 2113 -91 
Q 1303 -91 875 529 
Q 447 1150 447 2328 
Q 447 3434 972 4092 
Q 1497 4750 2381 4750 
Q 2619 4750 2861 4703 
Q 3103 4656 3366 4563 
z
" transform="scale(0.015625)"/>
       </defs>
       <use xlink:href="#DejaVuSans-36"/>
       <use xlink:href="#DejaVuSans-30" x="63.623047"/>
      </g>
     </g>
    </g>
    <g id="xtick_5">
     <g id="line2d_5">
      <g>
       <use xlink:href="#m01a38a393a" x="518.138993" y="406.08" style="stroke: #000000; stroke-width: 0.8"/>
      </g>
     </g>
     <g id="text_5">
      <!-- 80 -->
      <g transform="translate(511.776493 420.678437) scale(0.1 -0.1)">
       <defs>
        <path id="DejaVuSans-38" d="M 2034 2216 
Q 1584 2216 1326 1975 
Q 1069 1734 1069 1313 
Q 1069 891 1326 650 
Q 1584 409 2034 409 
Q 2484 409 2743 651 
Q 3003 894 3003 1313 
Q 3003 1734 2745 1975 
Q 2488 2216 2034 2216 
z
M 1403 2484 
Q 997 2584 770 2862 
Q 544 3141 544 3541 
Q 544 4100 942 4425 
Q 1341 4750 2034 4750 
Q 2731 4750 3128 4425 
Q 3525 4100 3525 3541 
Q 3525 3141 3298 2862 
Q 3072 2584 2669 2484 
Q 3125 2378 3379 2068 
Q 3634 1759 3634 1313 
Q 3634 634 3220 271 
Q 2806 -91 2034 -91 
Q 1263 -91 848 271 
Q 434 634 434 1313 
Q 434 1759 690 2068 
Q 947 2378 1403 2484 
z
M 1172 3481 
Q 1172 3119 1398 2916 
Q 1625 2713 2034 2713 
Q 2441 2713 2670 2916 
Q 2900 3119 2900 3481 
Q 2900 3844 2670 4047 
Q 2441 4250 2034 4250 
Q 1625 4250 1398 4047 
Q 1172 3844 1172 3481 
z
" transform="scale(0.015625)"/>
       </defs>
       <use xlink:href="#DejaVuSans-38"/>
       <use xlink:href="#DejaVuSans-30" x="63.623047"/>
      </g>
     </g>
    </g>
    <g id="xtick_6">
     <g id="line2d_6">
      <g>
       <use xlink:href="#m01a38a393a" x="601.985725" y="406.08" style="stroke: #000000; stroke-width: 0.8"/>
      </g>
     </g>
     <g id="text_6">
      <!-- 100 -->
      <g transform="translate(592.441975 420.678437) scale(0.1 -0.1)">
       <defs>
        <path id="DejaVuSans-31" d="M 794 531 
L 1825 531 
L 1825 4091 
L 703 3866 
L 703 4441 
L 1819 4666 
L 2450 4666 
L 2450 531 
L 3481 531 
L 3481 0 
L 794 0 
L 794 531 
z
" transform="scale(0.015625)"/>
       </defs>
       <use xlink:href="#DejaVuSans-31"/>
       <use xlink:href="#DejaVuSans-30" x="63.623047"/>
       <use xlink:href="#DejaVuSans-30" x="127.246094"/>
      </g>
     </g>
    </g>
   </g>
   <g id="matplotlib.axis_2">
    <g id="ytick_1">
     <g id="line2d_7">
      <defs>
       <path id="m5bef78d4f2" d="M 0 0 
L -3.5 0 
" style="stroke: #000000; stroke-width: 0.8"/>
      </defs>
      <g>
       <use xlink:href="#m5bef78d4f2" x="162" y="368.690446" style="stroke: #000000; stroke-width: 0.8"/>
      </g>
     </g>
     <g id="text_7">
      <!-- 0.6 -->
      <g transform="translate(139.096875 372.489665) scale(0.1 -0.1)">
       <defs>
        <path id="DejaVuSans-2e" d="M 684 794 
L 1344 794 
L 1344 0 
L 684 0 
L 684 794 
z
" transform="scale(0.015625)"/>
       </defs>
       <use xlink:href="#DejaVuSans-30"/>
       <use xlink:href="#DejaVuSans-2e" x="63.623047"/>
       <use xlink:href="#DejaVuSans-36" x="95.410156"/>
      </g>
     </g>
    </g>
    <g id="ytick_2">
     <g id="line2d_8">
      <g>
       <use xlink:href="#m5bef78d4f2" x="162" y="331.094769" style="stroke: #000000; stroke-width: 0.8"/>
      </g>
     </g>
     <g id="text_8">
      <!-- 0.8 -->
      <g transform="translate(139.096875 334.893988) scale(0.1 -0.1)">
       <use xlink:href="#DejaVuSans-30"/>
       <use xlink:href="#DejaVuSans-2e" x="63.623047"/>
       <use xlink:href="#DejaVuSans-38" x="95.410156"/>
      </g>
     </g>
    </g>
    <g id="ytick_3">
     <g id="line2d_9">
      <g>
       <use xlink:href="#m5bef78d4f2" x="162" y="293.499092" style="stroke: #000000; stroke-width: 0.8"/>
      </g>
     </g>
     <g id="text_9">
      <!-- 1.0 -->
      <g transform="translate(139.096875 297.298311) scale(0.1 -0.1)">
       <use xlink:href="#DejaVuSans-31"/>
       <use xlink:href="#DejaVuSans-2e" x="63.623047"/>
       <use xlink:href="#DejaVuSans-30" x="95.410156"/>
      </g>
     </g>
    </g>
    <g id="ytick_4">
     <g id="line2d_10">
      <g>
       <use xlink:href="#m5bef78d4f2" x="162" y="255.903415" style="stroke: #000000; stroke-width: 0.8"/>
      </g>
     </g>
     <g id="text_10">
      <!-- 1.2 -->
      <g transform="translate(139.096875 259.702633) scale(0.1 -0.1)">
       <use xlink:href="#DejaVuSans-31"/>
       <use xlink:href="#DejaVuSans-2e" x="63.623047"/>
       <use xlink:href="#DejaVuSans-32" x="95.410156"/>
      </g>
     </g>
    </g>
    <g id="ytick_5">
     <g id="line2d_11">
      <g>
       <use xlink:href="#m5bef78d4f2" x="162" y="218.307737" style="stroke: #000000; stroke-width: 0.8"/>
      </g>
     </g>
     <g id="text_11">
      <!-- 1.4 -->
      <g transform="translate(139.096875 222.106956) scale(0.1 -0.1)">
       <use xlink:href="#DejaVuSans-31"/>
       <use xlink:href="#DejaVuSans-2e" x="63.623047"/>
       <use xlink:href="#DejaVuSans-34" x="95.410156"/>
      </g>
     </g>
    </g>
    <g id="ytick_6">
     <g id="line2d_12">
      <g>
       <use xlink:href="#m5bef78d4f2" x="162" y="180.71206" style="stroke: #000000; stroke-width: 0.8"/>
      </g>
     </g>
     <g id="text_12">
      <!-- 1.6 -->
      <g transform="translate(139.096875 184.511279) scale(0.1 -0.1)">
       <use xlink:href="#DejaVuSans-31"/>
       <use xlink:href="#DejaVuSans-2e" x="63.623047"/>
       <use xlink:href="#DejaVuSans-36" x="95.410156"/>
      </g>
     </g>
    </g>
    <g id="ytick_7">
     <g id="line2d_13">
      <g>
       <use xlink:href="#m5bef78d4f2" x="162" y="143.116383" style="stroke: #000000; stroke-width: 0.8"/>
      </g>
     </g>
     <g id="text_13">
      <!-- 1.8 -->
      <g transform="translate(139.096875 146.915602) scale(0.1 -0.1)">
       <use xlink:href="#DejaVuSans-31"/>
       <use xlink:href="#DejaVuSans-2e" x="63.623047"/>
       <use xlink:href="#DejaVuSans-38" x="95.410156"/>
      </g>
     </g>
    </g>
    <g id="ytick_8">
     <g id="line2d_14">
      <g>
       <use xlink:href="#m5bef78d4f2" x="162" y="105.520706" style="stroke: #000000; stroke-width: 0.8"/>
      </g>
     </g>
     <g id="text_14">
      <!-- 2.0 -->
      <g transform="translate(139.096875 109.319925) scale(0.1 -0.1)">
       <use xlink:href="#DejaVuSans-32"/>
       <use xlink:href="#DejaVuSans-2e" x="63.623047"/>
       <use xlink:href="#DejaVuSans-30" x="95.410156"/>
      </g>
     </g>
    </g>
   </g>
   <g id="line2d_15">
    <path d="M 182.752066 117.425455 
L 186.944403 335.872574 
L 191.136739 349.480132 
L 195.329076 350.030032 
L 199.521412 346.936747 
L 203.713749 351.014863 
L 207.906086 357.908429 
L 212.098422 362.459056 
L 216.290759 352.829761 
L 220.483095 361.675712 
L 224.675432 361.466661 
L 228.867769 341.20529 
L 233.060105 355.540942 
L 237.252442 358.102141 
L 241.444778 362.217052 
L 245.637115 357.622806 
L 249.829452 349.79958 
L 254.021788 354.823391 
L 258.214125 358.018781 
L 262.406461 359.860333 
L 266.598798 362.657071 
L 270.791134 364.315241 
L 274.983471 365.733392 
L 279.175808 341.611382 
L 283.368144 354.310152 
L 287.560481 360.047312 
L 291.752817 360.992122 
L 295.945154 365.492419 
L 300.137491 339.189487 
L 304.329827 360.616943 
L 308.522164 363.46335 
L 312.7145 332.911154 
L 316.906837 355.880603 
L 321.099174 357.254283 
L 325.29151 360.715217 
L 329.483847 364.230055 
L 333.676183 340.585788 
L 337.86852 353.901897 
L 342.060856 357.913471 
L 346.253193 359.102166 
L 350.44553 333.865589 
L 354.637866 355.234267 
L 358.830203 360.580831 
L 363.022539 363.257469 
L 367.214876 365.565516 
L 371.407213 366.439178 
L 375.599549 350.905273 
L 379.791886 356.446727 
L 383.984222 360.410289 
L 388.176559 346.388517 
L 392.368896 357.043887 
L 396.561232 344.956697 
L 400.753569 355.058515 
L 404.945905 362.365219 
L 409.138242 364.65144 
L 413.330579 339.972035 
L 417.522915 361.243526 
L 421.715252 354.124271 
L 425.907588 361.483669 
L 430.099925 363.84068 
L 434.292261 353.02586 
L 438.484598 359.186378 
L 442.676935 365.408061 
L 446.869271 353.005569 
L 451.061608 354.820993 
L 455.253944 340.471526 
L 459.446281 357.219191 
L 463.638618 344.86574 
L 467.830954 347.953557 
L 472.023291 355.602129 
L 476.215627 353.735882 
L 480.407964 359.402634 
L 484.600301 361.417676 
L 488.792637 364.645905 
L 492.984974 365.533561 
L 497.17731 367.469399 
L 501.369647 342.867942 
L 505.561983 357.124592 
L 509.75432 342.629625 
L 513.946657 343.003157 
L 518.138993 355.142761 
L 522.33133 360.068152 
L 526.523666 363.204752 
L 530.716003 364.601861 
L 534.90834 342.048241 
L 539.100676 358.667021 
L 543.293013 356.988414 
L 547.485349 343.991843 
L 551.677686 357.104604 
L 555.870023 353.244962 
L 560.062359 362.526775 
L 564.254696 358.172292 
L 568.447032 363.416672 
L 572.639369 366.846054 
L 576.831705 356.578983 
L 581.024042 362.80935 
L 585.216379 344.175304 
L 589.408715 358.679615 
L 593.601052 359.399194 
L 597.793388 357.208054 
" clip-path="url(#p834c1a0368)" style="fill: none; stroke: #4169e1; stroke-linecap: square"/>
   </g>
   <g id="line2d_16">
    <path d="M 182.752066 323.522171 
L 186.944403 374.692474 
L 191.136739 370.732295 
L 195.329076 376.102187 
L 199.521412 379.516533 
L 203.713749 385.206187 
L 207.906086 388.938065 
L 212.098422 387.010014 
L 216.290759 386.621043 
L 220.483095 392.334545 
L 224.675432 390.18648 
L 228.867769 371.821216 
L 233.060105 387.041981 
L 237.252442 389.868948 
L 241.444778 385.155678 
L 245.637115 388.863959 
L 249.829452 385.390634 
L 254.021788 384.730169 
L 258.214125 388.334541 
L 262.406461 391.044613 
L 266.598798 387.774854 
L 270.791134 387.955726 
L 274.983471 387.633555 
L 279.175808 385.228237 
L 283.368144 386.464607 
L 287.560481 387.587079 
L 291.752817 390.490281 
L 295.945154 392.239364 
L 300.137491 385.340068 
L 304.329827 385.53452 
L 308.522164 390.210362 
L 312.7145 387.896769 
L 316.906837 385.133067 
L 321.099174 384.730471 
L 325.29151 384.803804 
L 329.483847 385.387048 
L 333.676183 379.570796 
L 337.86852 385.03523 
L 342.060856 381.895459 
L 346.253193 387.354785 
L 350.44553 381.981184 
L 354.637866 382.723082 
L 358.830203 384.088594 
L 363.022539 388.227718 
L 367.214876 383.649999 
L 371.407213 383.385093 
L 375.599549 370.443469 
L 379.791886 382.547857 
L 383.984222 383.645058 
L 388.176559 381.991918 
L 392.368896 385.642351 
L 396.561232 380.326957 
L 400.753569 386.517974 
L 404.945905 390.426629 
L 409.138242 387.184769 
L 413.330579 386.584943 
L 417.522915 380.32419 
L 421.715252 381.789611 
L 425.907588 380.894471 
L 430.099925 388.199293 
L 434.292261 376.588189 
L 438.484598 387.590592 
L 442.676935 387.72649 
L 446.869271 380.111318 
L 451.061608 385.10937 
L 455.253944 379.675624 
L 459.446281 383.933727 
L 463.638618 384.892363 
L 467.830954 379.257219 
L 472.023291 386.876962 
L 476.215627 378.510659 
L 480.407964 380.349714 
L 484.600301 386.364653 
L 488.792637 388.464248 
L 492.984974 382.841065 
L 497.17731 392.08322 
L 501.369647 382.325909 
L 505.561983 383.843666 
L 509.75432 380.619045 
L 513.946657 378.726075 
L 518.138993 384.572512 
L 522.33133 384.740544 
L 526.523666 385.063723 
L 530.716003 387.78831 
L 534.90834 378.266695 
L 539.100676 386.078403 
L 543.293013 387.194159 
L 547.485349 377.508674 
L 551.677686 381.160664 
L 555.870023 386.276564 
L 560.062359 391.870628 
L 564.254696 387.160994 
L 568.447032 391.608815 
L 572.639369 392.253218 
L 576.831705 386.731104 
L 581.024042 389.902001 
L 585.216379 380.564916 
L 589.408715 388.145937 
L 593.601052 388.379896 
L 597.793388 387.307603 
" clip-path="url(#p834c1a0368)" style="fill: none; stroke: #ff6347; stroke-linecap: square"/>
   </g>
   <g id="patch_3">
    <path d="M 162 406.08 
L 162 103.68 
" style="fill: none; stroke: #000000; stroke-width: 0.8; stroke-linejoin: miter; stroke-linecap: square"/>
   </g>
   <g id="patch_4">
    <path d="M 618.545455 406.08 
L 618.545455 103.68 
" style="fill: none; stroke: #000000; stroke-width: 0.8; stroke-linejoin: miter; stroke-linecap: square"/>
   </g>
   <g id="patch_5">
    <path d="M 162 406.08 
L 618.545455 406.08 
" style="fill: none; stroke: #000000; stroke-width: 0.8; stroke-linejoin: miter; stroke-linecap: square"/>
   </g>
   <g id="patch_6">
    <path d="M 162 103.68 
L 618.545455 103.68 
" style="fill: none; stroke: #000000; stroke-width: 0.8; stroke-linejoin: miter; stroke-linecap: square"/>
   </g>
   <g id="text_15">
    <!-- MSLE -->
    <g transform="translate(374.152415 97.68) scale(0.12 -0.12)">
     <defs>
      <path id="DejaVuSans-4d" d="M 628 4666 
L 1569 4666 
L 2759 1491 
L 3956 4666 
L 4897 4666 
L 4897 0 
L 4281 0 
L 4281 4097 
L 3078 897 
L 2444 897 
L 1241 4097 
L 1241 0 
L 628 0 
L 628 4666 
z
" transform="scale(0.015625)"/>
      <path id="DejaVuSans-53" d="M 3425 4513 
L 3425 3897 
Q 3066 4069 2747 4153 
Q 2428 4238 2131 4238 
Q 1616 4238 1336 4038 
Q 1056 3838 1056 3469 
Q 1056 3159 1242 3001 
Q 1428 2844 1947 2747 
L 2328 2669 
Q 3034 2534 3370 2195 
Q 3706 1856 3706 1288 
Q 3706 609 3251 259 
Q 2797 -91 1919 -91 
Q 1588 -91 1214 -16 
Q 841 59 441 206 
L 441 856 
Q 825 641 1194 531 
Q 1563 422 1919 422 
Q 2459 422 2753 634 
Q 3047 847 3047 1241 
Q 3047 1584 2836 1778 
Q 2625 1972 2144 2069 
L 1759 2144 
Q 1053 2284 737 2584 
Q 422 2884 422 3419 
Q 422 4038 858 4394 
Q 1294 4750 2059 4750 
Q 2388 4750 2728 4690 
Q 3069 4631 3425 4513 
z
" transform="scale(0.015625)"/>
      <path id="DejaVuSans-4c" d="M 628 4666 
L 1259 4666 
L 1259 531 
L 3531 531 
L 3531 0 
L 628 0 
L 628 4666 
z
" transform="scale(0.015625)"/>
      <path id="DejaVuSans-45" d="M 628 4666 
L 3578 4666 
L 3578 4134 
L 1259 4134 
L 1259 2753 
L 3481 2753 
L 3481 2222 
L 1259 2222 
L 1259 531 
L 3634 531 
L 3634 0 
L 628 0 
L 628 4666 
z
" transform="scale(0.015625)"/>
     </defs>
     <use xlink:href="#DejaVuSans-4d"/>
     <use xlink:href="#DejaVuSans-53" x="86.279297"/>
     <use xlink:href="#DejaVuSans-4c" x="149.755859"/>
     <use xlink:href="#DejaVuSans-45" x="205.46875"/>
    </g>
   </g>
   <g id="legend_1">
    <g id="patch_7">
     <path d="M 530.164205 141.03625 
L 611.545455 141.03625 
Q 613.545455 141.03625 613.545455 139.03625 
L 613.545455 110.68 
Q 613.545455 108.68 611.545455 108.68 
L 530.164205 108.68 
Q 528.164205 108.68 528.164205 110.68 
L 528.164205 139.03625 
Q 528.164205 141.03625 530.164205 141.03625 
z
" style="fill: #ffffff; opacity: 0.8; stroke: #cccccc; stroke-linejoin: miter"/>
    </g>
    <g id="line2d_17">
     <path d="M 532.164205 116.778437 
L 542.164205 116.778437 
L 552.164205 116.778437 
" style="fill: none; stroke: #4169e1; stroke-linecap: square"/>
    </g>
    <g id="text_16">
     <!-- Training -->
     <g transform="translate(560.164205 120.278437) scale(0.1 -0.1)">
      <defs>
       <path id="DejaVuSans-54" d="M -19 4666 
L 3928 4666 
L 3928 4134 
L 2272 4134 
L 2272 0 
L 1638 0 
L 1638 4134 
L -19 4134 
L -19 4666 
z
" transform="scale(0.015625)"/>
       <path id="DejaVuSans-72" d="M 2631 2963 
Q 2534 3019 2420 3045 
Q 2306 3072 2169 3072 
Q 1681 3072 1420 2755 
Q 1159 2438 1159 1844 
L 1159 0 
L 581 0 
L 581 3500 
L 1159 3500 
L 1159 2956 
Q 1341 3275 1631 3429 
Q 1922 3584 2338 3584 
Q 2397 3584 2469 3576 
Q 2541 3569 2628 3553 
L 2631 2963 
z
" transform="scale(0.015625)"/>
       <path id="DejaVuSans-61" d="M 2194 1759 
Q 1497 1759 1228 1600 
Q 959 1441 959 1056 
Q 959 750 1161 570 
Q 1363 391 1709 391 
Q 2188 391 2477 730 
Q 2766 1069 2766 1631 
L 2766 1759 
L 2194 1759 
z
M 3341 1997 
L 3341 0 
L 2766 0 
L 2766 531 
Q 2569 213 2275 61 
Q 1981 -91 1556 -91 
Q 1019 -91 701 211 
Q 384 513 384 1019 
Q 384 1609 779 1909 
Q 1175 2209 1959 2209 
L 2766 2209 
L 2766 2266 
Q 2766 2663 2505 2880 
Q 2244 3097 1772 3097 
Q 1472 3097 1187 3025 
Q 903 2953 641 2809 
L 641 3341 
Q 956 3463 1253 3523 
Q 1550 3584 1831 3584 
Q 2591 3584 2966 3190 
Q 3341 2797 3341 1997 
z
" transform="scale(0.015625)"/>
       <path id="DejaVuSans-69" d="M 603 3500 
L 1178 3500 
L 1178 0 
L 603 0 
L 603 3500 
z
M 603 4863 
L 1178 4863 
L 1178 4134 
L 603 4134 
L 603 4863 
z
" transform="scale(0.015625)"/>
       <path id="DejaVuSans-6e" d="M 3513 2113 
L 3513 0 
L 2938 0 
L 2938 2094 
Q 2938 2591 2744 2837 
Q 2550 3084 2163 3084 
Q 1697 3084 1428 2787 
Q 1159 2491 1159 1978 
L 1159 0 
L 581 0 
L 581 3500 
L 1159 3500 
L 1159 2956 
Q 1366 3272 1645 3428 
Q 1925 3584 2291 3584 
Q 2894 3584 3203 3211 
Q 3513 2838 3513 2113 
z
" transform="scale(0.015625)"/>
       <path id="DejaVuSans-67" d="M 2906 1791 
Q 2906 2416 2648 2759 
Q 2391 3103 1925 3103 
Q 1463 3103 1205 2759 
Q 947 2416 947 1791 
Q 947 1169 1205 825 
Q 1463 481 1925 481 
Q 2391 481 2648 825 
Q 2906 1169 2906 1791 
z
M 3481 434 
Q 3481 -459 3084 -895 
Q 2688 -1331 1869 -1331 
Q 1566 -1331 1297 -1286 
Q 1028 -1241 775 -1147 
L 775 -588 
Q 1028 -725 1275 -790 
Q 1522 -856 1778 -856 
Q 2344 -856 2625 -561 
Q 2906 -266 2906 331 
L 2906 616 
Q 2728 306 2450 153 
Q 2172 0 1784 0 
Q 1141 0 747 490 
Q 353 981 353 1791 
Q 353 2603 747 3093 
Q 1141 3584 1784 3584 
Q 2172 3584 2450 3431 
Q 2728 3278 2906 2969 
L 2906 3500 
L 3481 3500 
L 3481 434 
z
" transform="scale(0.015625)"/>
      </defs>
      <use xlink:href="#DejaVuSans-54"/>
      <use xlink:href="#DejaVuSans-72" x="46.333984"/>
      <use xlink:href="#DejaVuSans-61" x="87.447266"/>
      <use xlink:href="#DejaVuSans-69" x="148.726562"/>
      <use xlink:href="#DejaVuSans-6e" x="176.509766"/>
      <use xlink:href="#DejaVuSans-69" x="239.888672"/>
      <use xlink:href="#DejaVuSans-6e" x="267.671875"/>
      <use xlink:href="#DejaVuSans-67" x="331.050781"/>
     </g>
    </g>
    <g id="line2d_18">
     <path d="M 532.164205 131.456562 
L 542.164205 131.456562 
L 552.164205 131.456562 
" style="fill: none; stroke: #ff6347; stroke-linecap: square"/>
    </g>
    <g id="text_17">
     <!-- Validation -->
     <g transform="translate(560.164205 134.956562) scale(0.1 -0.1)">
      <defs>
       <path id="DejaVuSans-56" d="M 1831 0 
L 50 4666 
L 709 4666 
L 2188 738 
L 3669 4666 
L 4325 4666 
L 2547 0 
L 1831 0 
z
" transform="scale(0.015625)"/>
       <path id="DejaVuSans-6c" d="M 603 4863 
L 1178 4863 
L 1178 0 
L 603 0 
L 603 4863 
z
" transform="scale(0.015625)"/>
       <path id="DejaVuSans-64" d="M 2906 2969 
L 2906 4863 
L 3481 4863 
L 3481 0 
L 2906 0 
L 2906 525 
Q 2725 213 2448 61 
Q 2172 -91 1784 -91 
Q 1150 -91 751 415 
Q 353 922 353 1747 
Q 353 2572 751 3078 
Q 1150 3584 1784 3584 
Q 2172 3584 2448 3432 
Q 2725 3281 2906 2969 
z
M 947 1747 
Q 947 1113 1208 752 
Q 1469 391 1925 391 
Q 2381 391 2643 752 
Q 2906 1113 2906 1747 
Q 2906 2381 2643 2742 
Q 2381 3103 1925 3103 
Q 1469 3103 1208 2742 
Q 947 2381 947 1747 
z
" transform="scale(0.015625)"/>
       <path id="DejaVuSans-74" d="M 1172 4494 
L 1172 3500 
L 2356 3500 
L 2356 3053 
L 1172 3053 
L 1172 1153 
Q 1172 725 1289 603 
Q 1406 481 1766 481 
L 2356 481 
L 2356 0 
L 1766 0 
Q 1100 0 847 248 
Q 594 497 594 1153 
L 594 3053 
L 172 3053 
L 172 3500 
L 594 3500 
L 594 4494 
L 1172 4494 
z
" transform="scale(0.015625)"/>
       <path id="DejaVuSans-6f" d="M 1959 3097 
Q 1497 3097 1228 2736 
Q 959 2375 959 1747 
Q 959 1119 1226 758 
Q 1494 397 1959 397 
Q 2419 397 2687 759 
Q 2956 1122 2956 1747 
Q 2956 2369 2687 2733 
Q 2419 3097 1959 3097 
z
M 1959 3584 
Q 2709 3584 3137 3096 
Q 3566 2609 3566 1747 
Q 3566 888 3137 398 
Q 2709 -91 1959 -91 
Q 1206 -91 779 398 
Q 353 888 353 1747 
Q 353 2609 779 3096 
Q 1206 3584 1959 3584 
z
" transform="scale(0.015625)"/>
      </defs>
      <use xlink:href="#DejaVuSans-56"/>
      <use xlink:href="#DejaVuSans-61" x="60.658203"/>
      <use xlink:href="#DejaVuSans-6c" x="121.9375"/>
      <use xlink:href="#DejaVuSans-69" x="149.720703"/>
      <use xlink:href="#DejaVuSans-64" x="177.503906"/>
      <use xlink:href="#DejaVuSans-61" x="240.980469"/>
      <use xlink:href="#DejaVuSans-74" x="302.259766"/>
      <use xlink:href="#DejaVuSans-69" x="341.46875"/>
      <use xlink:href="#DejaVuSans-6f" x="369.251953"/>
      <use xlink:href="#DejaVuSans-6e" x="430.433594"/>
     </g>
    </g>
   </g>
  </g>
  <g id="axes_2">
   <g id="patch_8">
    <path d="M 709.854545 406.08 
L 1166.4 406.08 
L 1166.4 103.68 
L 709.854545 103.68 
z
" style="fill: #ffffff"/>
   </g>
   <g id="matplotlib.axis_3">
    <g id="xtick_7">
     <g id="line2d_19">
      <g>
       <use xlink:href="#m01a38a393a" x="730.606612" y="406.08" style="stroke: #000000; stroke-width: 0.8"/>
      </g>
     </g>
     <g id="text_18">
      <!-- 0 -->
      <g transform="translate(727.425362 420.678437) scale(0.1 -0.1)">
       <use xlink:href="#DejaVuSans-30"/>
      </g>
     </g>
    </g>
    <g id="xtick_8">
     <g id="line2d_20">
      <g>
       <use xlink:href="#m01a38a393a" x="814.453343" y="406.08" style="stroke: #000000; stroke-width: 0.8"/>
      </g>
     </g>
     <g id="text_19">
      <!-- 20 -->
      <g transform="translate(808.090843 420.678437) scale(0.1 -0.1)">
       <use xlink:href="#DejaVuSans-32"/>
       <use xlink:href="#DejaVuSans-30" x="63.623047"/>
      </g>
     </g>
    </g>
    <g id="xtick_9">
     <g id="line2d_21">
      <g>
       <use xlink:href="#m01a38a393a" x="898.300075" y="406.08" style="stroke: #000000; stroke-width: 0.8"/>
      </g>
     </g>
     <g id="text_20">
      <!-- 40 -->
      <g transform="translate(891.937575 420.678437) scale(0.1 -0.1)">
       <use xlink:href="#DejaVuSans-34"/>
       <use xlink:href="#DejaVuSans-30" x="63.623047"/>
      </g>
     </g>
    </g>
    <g id="xtick_10">
     <g id="line2d_22">
      <g>
       <use xlink:href="#m01a38a393a" x="982.146807" y="406.08" style="stroke: #000000; stroke-width: 0.8"/>
      </g>
     </g>
     <g id="text_21">
      <!-- 60 -->
      <g transform="translate(975.784307 420.678437) scale(0.1 -0.1)">
       <use xlink:href="#DejaVuSans-36"/>
       <use xlink:href="#DejaVuSans-30" x="63.623047"/>
      </g>
     </g>
    </g>
    <g id="xtick_11">
     <g id="line2d_23">
      <g>
       <use xlink:href="#m01a38a393a" x="1065.993539" y="406.08" style="stroke: #000000; stroke-width: 0.8"/>
      </g>
     </g>
     <g id="text_22">
      <!-- 80 -->
      <g transform="translate(1059.631039 420.678437) scale(0.1 -0.1)">
       <use xlink:href="#DejaVuSans-38"/>
       <use xlink:href="#DejaVuSans-30" x="63.623047"/>
      </g>
     </g>
    </g>
    <g id="xtick_12">
     <g id="line2d_24">
      <g>
       <use xlink:href="#m01a38a393a" x="1149.84027" y="406.08" style="stroke: #000000; stroke-width: 0.8"/>
      </g>
     </g>
     <g id="text_23">
      <!-- 100 -->
      <g transform="translate(1140.29652 420.678437) scale(0.1 -0.1)">
       <use xlink:href="#DejaVuSans-31"/>
       <use xlink:href="#DejaVuSans-30" x="63.623047"/>
       <use xlink:href="#DejaVuSans-30" x="127.246094"/>
      </g>
     </g>
    </g>
   </g>
   <g id="matplotlib.axis_4">
    <g id="ytick_9">
     <g id="line2d_25">
      <g>
       <use xlink:href="#m5bef78d4f2" x="709.854545" y="374.841977" style="stroke: #000000; stroke-width: 0.8"/>
      </g>
     </g>
     <g id="text_24">
      <!-- 80 -->
      <g transform="translate(690.129545 378.641196) scale(0.1 -0.1)">
       <use xlink:href="#DejaVuSans-38"/>
       <use xlink:href="#DejaVuSans-30" x="63.623047"/>
      </g>
     </g>
    </g>
    <g id="ytick_10">
     <g id="line2d_26">
      <g>
       <use xlink:href="#m5bef78d4f2" x="709.854545" y="339.072361" style="stroke: #000000; stroke-width: 0.8"/>
      </g>
     </g>
     <g id="text_25">
      <!-- 100 -->
      <g transform="translate(683.767045 342.87158) scale(0.1 -0.1)">
       <use xlink:href="#DejaVuSans-31"/>
       <use xlink:href="#DejaVuSans-30" x="63.623047"/>
       <use xlink:href="#DejaVuSans-30" x="127.246094"/>
      </g>
     </g>
    </g>
    <g id="ytick_11">
     <g id="line2d_27">
      <g>
       <use xlink:href="#m5bef78d4f2" x="709.854545" y="303.302744" style="stroke: #000000; stroke-width: 0.8"/>
      </g>
     </g>
     <g id="text_26">
      <!-- 120 -->
      <g transform="translate(683.767045 307.101963) scale(0.1 -0.1)">
       <use xlink:href="#DejaVuSans-31"/>
       <use xlink:href="#DejaVuSans-32" x="63.623047"/>
       <use xlink:href="#DejaVuSans-30" x="127.246094"/>
      </g>
     </g>
    </g>
    <g id="ytick_12">
     <g id="line2d_28">
      <g>
       <use xlink:href="#m5bef78d4f2" x="709.854545" y="267.533128" style="stroke: #000000; stroke-width: 0.8"/>
      </g>
     </g>
     <g id="text_27">
      <!-- 140 -->
      <g transform="translate(683.767045 271.332347) scale(0.1 -0.1)">
       <use xlink:href="#DejaVuSans-31"/>
       <use xlink:href="#DejaVuSans-34" x="63.623047"/>
       <use xlink:href="#DejaVuSans-30" x="127.246094"/>
      </g>
     </g>
    </g>
    <g id="ytick_13">
     <g id="line2d_29">
      <g>
       <use xlink:href="#m5bef78d4f2" x="709.854545" y="231.763512" style="stroke: #000000; stroke-width: 0.8"/>
      </g>
     </g>
     <g id="text_28">
      <!-- 160 -->
      <g transform="translate(683.767045 235.56273) scale(0.1 -0.1)">
       <use xlink:href="#DejaVuSans-31"/>
       <use xlink:href="#DejaVuSans-36" x="63.623047"/>
       <use xlink:href="#DejaVuSans-30" x="127.246094"/>
      </g>
     </g>
    </g>
    <g id="ytick_14">
     <g id="line2d_30">
      <g>
       <use xlink:href="#m5bef78d4f2" x="709.854545" y="195.993895" style="stroke: #000000; stroke-width: 0.8"/>
      </g>
     </g>
     <g id="text_29">
      <!-- 180 -->
      <g transform="translate(683.767045 199.793114) scale(0.1 -0.1)">
       <use xlink:href="#DejaVuSans-31"/>
       <use xlink:href="#DejaVuSans-38" x="63.623047"/>
       <use xlink:href="#DejaVuSans-30" x="127.246094"/>
      </g>
     </g>
    </g>
    <g id="ytick_15">
     <g id="line2d_31">
      <g>
       <use xlink:href="#m5bef78d4f2" x="709.854545" y="160.224279" style="stroke: #000000; stroke-width: 0.8"/>
      </g>
     </g>
     <g id="text_30">
      <!-- 200 -->
      <g transform="translate(683.767045 164.023497) scale(0.1 -0.1)">
       <use xlink:href="#DejaVuSans-32"/>
       <use xlink:href="#DejaVuSans-30" x="63.623047"/>
       <use xlink:href="#DejaVuSans-30" x="127.246094"/>
      </g>
     </g>
    </g>
    <g id="ytick_16">
     <g id="line2d_32">
      <g>
       <use xlink:href="#m5bef78d4f2" x="709.854545" y="124.454662" style="stroke: #000000; stroke-width: 0.8"/>
      </g>
     </g>
     <g id="text_31">
      <!-- 220 -->
      <g transform="translate(683.767045 128.253881) scale(0.1 -0.1)">
       <use xlink:href="#DejaVuSans-32"/>
       <use xlink:href="#DejaVuSans-32" x="63.623047"/>
       <use xlink:href="#DejaVuSans-30" x="127.246094"/>
      </g>
     </g>
    </g>
   </g>
   <g id="line2d_33">
    <path d="M 730.606612 117.425455 
L 734.798948 331.704361 
L 738.991285 347.778269 
L 743.183621 350.83627 
L 747.375958 348.719667 
L 751.568295 353.992773 
L 755.760631 364.995031 
L 759.952968 372.171687 
L 764.145304 353.799178 
L 768.337641 369.441194 
L 772.529977 371.152963 
L 776.722314 329.756724 
L 780.914651 358.599361 
L 785.106987 363.220004 
L 789.299324 373.181801 
L 793.49166 364.981222 
L 797.683997 352.077599 
L 801.876334 363.823141 
L 806.06867 369.197767 
L 810.261007 372.244892 
L 814.453343 377.091701 
L 818.64568 376.964038 
L 822.838017 381.658077 
L 827.030353 329.12923 
L 831.22269 358.708699 
L 835.415026 369.738342 
L 839.607363 373.219488 
L 843.799699 380.38344 
L 847.992036 329.37012 
L 852.184373 375.172787 
L 856.376709 378.097912 
L 860.569046 317.209796 
L 864.761382 366.129642 
L 868.953719 362.189013 
L 873.146056 374.112705 
L 877.338392 377.326695 
L 881.530729 331.846992 
L 885.723065 362.914819 
L 889.915402 368.295653 
L 894.107739 371.922924 
L 898.300075 321.354568 
L 902.492412 367.655033 
L 906.684748 373.116714 
L 910.877085 376.61568 
L 915.069421 377.969021 
L 919.261758 378.579459 
L 923.454095 350.656019 
L 927.646431 365.191383 
L 931.838768 370.949256 
L 936.031104 342.348982 
L 940.223441 367.244236 
L 944.415778 340.424515 
L 948.608114 360.788501 
L 952.800451 373.125119 
L 956.992787 377.525558 
L 961.185124 315.91828 
L 965.377461 372.365473 
L 969.569797 363.202374 
L 973.762134 372.448872 
L 977.95447 377.472452 
L 982.146807 359.501489 
L 986.339144 370.715721 
L 990.53148 378.484408 
L 994.723817 360.81399 
L 998.916153 361.087818 
L 1003.10849 327.272347 
L 1007.300826 367.072882 
L 1011.493163 337.514563 
L 1015.6855 341.945307 
L 1019.877836 365.097587 
L 1024.070173 360.574056 
L 1028.262509 369.88826 
L 1032.454846 374.100725 
L 1036.647183 377.176859 
L 1040.839519 380.234478 
L 1045.031856 381.837386 
L 1049.224192 322.718361 
L 1053.416529 363.909296 
L 1057.608866 335.52333 
L 1061.801202 332.794421 
L 1065.993539 364.529572 
L 1070.185875 371.500037 
L 1074.378212 374.496949 
L 1078.570548 377.554335 
L 1082.762885 332.169656 
L 1086.955222 363.82995 
L 1091.147558 366.373738 
L 1095.339895 337.369666 
L 1099.532231 367.057708 
L 1103.724568 360.126185 
L 1107.916905 375.28278 
L 1112.109241 363.433862 
L 1116.301578 376.066673 
L 1120.493914 378.096411 
L 1124.686251 365.275845 
L 1128.878588 375.891839 
L 1133.070924 339.251383 
L 1137.263261 368.48974 
L 1141.455597 370.842443 
L 1145.647934 366.228991 
" clip-path="url(#p197b2ed1ce)" style="fill: none; stroke: #4169e1; stroke-linecap: square"/>
   </g>
   <g id="line2d_34">
    <path d="M 730.606612 315.30424 
L 734.798948 368.553653 
L 738.991285 374.612277 
L 743.183621 372.376485 
L 747.375958 377.451848 
L 751.568295 379.679848 
L 755.760631 383.147895 
L 759.952968 387.616423 
L 764.145304 387.300909 
L 768.337641 387.101733 
L 772.529977 385.08482 
L 776.722314 374.792255 
L 780.914651 385.37576 
L 785.106987 386.62443 
L 789.299324 390.937459 
L 793.49166 390.097621 
L 797.683997 381.616705 
L 801.876334 385.507079 
L 806.06867 384.857331 
L 810.261007 385.115672 
L 814.453343 391.719114 
L 818.64568 391.858552 
L 822.838017 388.054906 
L 827.030353 386.933503 
L 831.22269 382.581299 
L 835.415026 389.161408 
L 839.607363 390.082448 
L 843.799699 389.14528 
L 847.992036 387.352351 
L 852.184373 390.883929 
L 856.376709 387.72834 
L 860.569046 383.738943 
L 864.761382 389.10414 
L 868.953719 384.514922 
L 873.146056 392.334545 
L 877.338392 391.888449 
L 881.530729 379.382769 
L 885.723065 380.250074 
L 889.915402 385.533837 
L 894.107739 386.565401 
L 898.300075 378.618688 
L 902.492412 384.001828 
L 906.684748 384.560742 
L 910.877085 384.267961 
L 915.069421 388.095841 
L 919.261758 386.062828 
L 923.454095 378.257614 
L 927.646431 381.4084 
L 931.838768 385.282114 
L 936.031104 378.668479 
L 940.223441 380.815674 
L 944.415778 378.936072 
L 948.608114 382.539614 
L 952.800451 385.169897 
L 956.992787 389.13465 
L 961.185124 380.100907 
L 965.377461 389.173061 
L 969.569797 382.550871 
L 973.762134 387.188897 
L 977.95447 388.031587 
L 982.146807 383.152562 
L 986.339144 386.877381 
L 990.53148 382.386749 
L 994.723817 382.827797 
L 998.916153 385.297205 
L 1003.10849 380.202521 
L 1007.300826 382.829912 
L 1011.493163 370.735002 
L 1015.6855 377.597604 
L 1019.877836 375.172555 
L 1024.070173 381.708318 
L 1028.262509 384.465596 
L 1032.454846 385.32515 
L 1036.647183 387.34299 
L 1040.839519 389.331644 
L 1045.031856 384.070668 
L 1049.224192 377.220592 
L 1053.416529 381.601218 
L 1057.608866 378.038406 
L 1061.801202 379.322403 
L 1065.993539 380.558015 
L 1070.185875 382.783682 
L 1074.378212 382.342307 
L 1078.570548 384.933866 
L 1082.762885 379.283065 
L 1086.955222 385.833932 
L 1091.147558 384.012881 
L 1095.339895 378.570508 
L 1099.532231 380.479201 
L 1103.724568 388.999401 
L 1107.916905 389.179856 
L 1112.109241 386.196194 
L 1116.301578 389.987724 
L 1120.493914 390.55155 
L 1124.686251 386.582758 
L 1128.878588 389.699254 
L 1133.070924 376.187554 
L 1137.263261 389.132945 
L 1141.455597 390.81292 
L 1145.647934 390.767619 
" clip-path="url(#p197b2ed1ce)" style="fill: none; stroke: #ff6347; stroke-linecap: square"/>
   </g>
   <g id="patch_9">
    <path d="M 709.854545 406.08 
L 709.854545 103.68 
" style="fill: none; stroke: #000000; stroke-width: 0.8; stroke-linejoin: miter; stroke-linecap: square"/>
   </g>
   <g id="patch_10">
    <path d="M 1166.4 406.08 
L 1166.4 103.68 
" style="fill: none; stroke: #000000; stroke-width: 0.8; stroke-linejoin: miter; stroke-linecap: square"/>
   </g>
   <g id="patch_11">
    <path d="M 709.854545 406.08 
L 1166.4 406.08 
" style="fill: none; stroke: #000000; stroke-width: 0.8; stroke-linejoin: miter; stroke-linecap: square"/>
   </g>
   <g id="patch_12">
    <path d="M 709.854545 103.68 
L 1166.4 103.68 
" style="fill: none; stroke: #000000; stroke-width: 0.8; stroke-linejoin: miter; stroke-linecap: square"/>
   </g>
   <g id="text_32">
    <!-- LOSS -->
    <g transform="translate(922.660398 97.68) scale(0.12 -0.12)">
     <defs>
      <path id="DejaVuSans-4f" d="M 2522 4238 
Q 1834 4238 1429 3725 
Q 1025 3213 1025 2328 
Q 1025 1447 1429 934 
Q 1834 422 2522 422 
Q 3209 422 3611 934 
Q 4013 1447 4013 2328 
Q 4013 3213 3611 3725 
Q 3209 4238 2522 4238 
z
M 2522 4750 
Q 3503 4750 4090 4092 
Q 4678 3434 4678 2328 
Q 4678 1225 4090 567 
Q 3503 -91 2522 -91 
Q 1538 -91 948 565 
Q 359 1222 359 2328 
Q 359 3434 948 4092 
Q 1538 4750 2522 4750 
z
" transform="scale(0.015625)"/>
     </defs>
     <use xlink:href="#DejaVuSans-4c"/>
     <use xlink:href="#DejaVuSans-4f" x="52.087891"/>
     <use xlink:href="#DejaVuSans-53" x="130.798828"/>
     <use xlink:href="#DejaVuSans-53" x="194.275391"/>
    </g>
   </g>
   <g id="legend_2">
    <g id="patch_13">
     <path d="M 1078.01875 141.03625 
L 1159.4 141.03625 
Q 1161.4 141.03625 1161.4 139.03625 
L 1161.4 110.68 
Q 1161.4 108.68 1159.4 108.68 
L 1078.01875 108.68 
Q 1076.01875 108.68 1076.01875 110.68 
L 1076.01875 139.03625 
Q 1076.01875 141.03625 1078.01875 141.03625 
z
" style="fill: #ffffff; opacity: 0.8; stroke: #cccccc; stroke-linejoin: miter"/>
    </g>
    <g id="line2d_35">
     <path d="M 1080.01875 116.778437 
L 1090.01875 116.778437 
L 1100.01875 116.778437 
" style="fill: none; stroke: #4169e1; stroke-linecap: square"/>
    </g>
    <g id="text_33">
     <!-- Training -->
     <g transform="translate(1108.01875 120.278437) scale(0.1 -0.1)">
      <use xlink:href="#DejaVuSans-54"/>
      <use xlink:href="#DejaVuSans-72" x="46.333984"/>
      <use xlink:href="#DejaVuSans-61" x="87.447266"/>
      <use xlink:href="#DejaVuSans-69" x="148.726562"/>
      <use xlink:href="#DejaVuSans-6e" x="176.509766"/>
      <use xlink:href="#DejaVuSans-69" x="239.888672"/>
      <use xlink:href="#DejaVuSans-6e" x="267.671875"/>
      <use xlink:href="#DejaVuSans-67" x="331.050781"/>
     </g>
    </g>
    <g id="line2d_36">
     <path d="M 1080.01875 131.456562 
L 1090.01875 131.456562 
L 1100.01875 131.456562 
" style="fill: none; stroke: #ff6347; stroke-linecap: square"/>
    </g>
    <g id="text_34">
     <!-- Validation -->
     <g transform="translate(1108.01875 134.956562) scale(0.1 -0.1)">
      <use xlink:href="#DejaVuSans-56"/>
      <use xlink:href="#DejaVuSans-61" x="60.658203"/>
      <use xlink:href="#DejaVuSans-6c" x="121.9375"/>
      <use xlink:href="#DejaVuSans-69" x="149.720703"/>
      <use xlink:href="#DejaVuSans-64" x="177.503906"/>
      <use xlink:href="#DejaVuSans-61" x="240.980469"/>
      <use xlink:href="#DejaVuSans-74" x="302.259766"/>
      <use xlink:href="#DejaVuSans-69" x="341.46875"/>
      <use xlink:href="#DejaVuSans-6f" x="369.251953"/>
      <use xlink:href="#DejaVuSans-6e" x="430.433594"/>
     </g>
    </g>
   </g>
  </g>
  <g id="axes_3">
   <g id="patch_14">
    <path d="M 162 768.96 
L 618.545455 768.96 
L 618.545455 466.56 
L 162 466.56 
z
" style="fill: #ffffff"/>
   </g>
   <g id="matplotlib.axis_5">
    <g id="xtick_13">
     <g id="line2d_37">
      <g>
       <use xlink:href="#m01a38a393a" x="182.752066" y="768.96" style="stroke: #000000; stroke-width: 0.8"/>
      </g>
     </g>
     <g id="text_35">
      <!-- 0 -->
      <g transform="translate(179.570816 783.558437) scale(0.1 -0.1)">
       <use xlink:href="#DejaVuSans-30"/>
      </g>
     </g>
    </g>
    <g id="xtick_14">
     <g id="line2d_38">
      <g>
       <use xlink:href="#m01a38a393a" x="266.598798" y="768.96" style="stroke: #000000; stroke-width: 0.8"/>
      </g>
     </g>
     <g id="text_36">
      <!-- 20 -->
      <g transform="translate(260.236298 783.558437) scale(0.1 -0.1)">
       <use xlink:href="#DejaVuSans-32"/>
       <use xlink:href="#DejaVuSans-30" x="63.623047"/>
      </g>
     </g>
    </g>
    <g id="xtick_15">
     <g id="line2d_39">
      <g>
       <use xlink:href="#m01a38a393a" x="350.44553" y="768.96" style="stroke: #000000; stroke-width: 0.8"/>
      </g>
     </g>
     <g id="text_37">
      <!-- 40 -->
      <g transform="translate(344.08303 783.558437) scale(0.1 -0.1)">
       <use xlink:href="#DejaVuSans-34"/>
       <use xlink:href="#DejaVuSans-30" x="63.623047"/>
      </g>
     </g>
    </g>
    <g id="xtick_16">
     <g id="line2d_40">
      <g>
       <use xlink:href="#m01a38a393a" x="434.292261" y="768.96" style="stroke: #000000; stroke-width: 0.8"/>
      </g>
     </g>
     <g id="text_38">
      <!-- 60 -->
      <g transform="translate(427.929761 783.558437) scale(0.1 -0.1)">
       <use xlink:href="#DejaVuSans-36"/>
       <use xlink:href="#DejaVuSans-30" x="63.623047"/>
      </g>
     </g>
    </g>
    <g id="xtick_17">
     <g id="line2d_41">
      <g>
       <use xlink:href="#m01a38a393a" x="518.138993" y="768.96" style="stroke: #000000; stroke-width: 0.8"/>
      </g>
     </g>
     <g id="text_39">
      <!-- 80 -->
      <g transform="translate(511.776493 783.558437) scale(0.1 -0.1)">
       <use xlink:href="#DejaVuSans-38"/>
       <use xlink:href="#DejaVuSans-30" x="63.623047"/>
      </g>
     </g>
    </g>
    <g id="xtick_18">
     <g id="line2d_42">
      <g>
       <use xlink:href="#m01a38a393a" x="601.985725" y="768.96" style="stroke: #000000; stroke-width: 0.8"/>
      </g>
     </g>
     <g id="text_40">
      <!-- 100 -->
      <g transform="translate(592.441975 783.558437) scale(0.1 -0.1)">
       <use xlink:href="#DejaVuSans-31"/>
       <use xlink:href="#DejaVuSans-30" x="63.623047"/>
       <use xlink:href="#DejaVuSans-30" x="127.246094"/>
      </g>
     </g>
    </g>
   </g>
   <g id="matplotlib.axis_6">
    <g id="ytick_17">
     <g id="line2d_43">
      <g>
       <use xlink:href="#m5bef78d4f2" x="162" y="747.338564" style="stroke: #000000; stroke-width: 0.8"/>
      </g>
     </g>
     <g id="text_41">
      <!-- 7 -->
      <g transform="translate(148.6375 751.137783) scale(0.1 -0.1)">
       <defs>
        <path id="DejaVuSans-37" d="M 525 4666 
L 3525 4666 
L 3525 4397 
L 1831 0 
L 1172 0 
L 2766 4134 
L 525 4134 
L 525 4666 
z
" transform="scale(0.015625)"/>
       </defs>
       <use xlink:href="#DejaVuSans-37"/>
      </g>
     </g>
    </g>
    <g id="ytick_18">
     <g id="line2d_44">
      <g>
       <use xlink:href="#m5bef78d4f2" x="162" y="694.233946" style="stroke: #000000; stroke-width: 0.8"/>
      </g>
     </g>
     <g id="text_42">
      <!-- 8 -->
      <g transform="translate(148.6375 698.033164) scale(0.1 -0.1)">
       <use xlink:href="#DejaVuSans-38"/>
      </g>
     </g>
    </g>
    <g id="ytick_19">
     <g id="line2d_45">
      <g>
       <use xlink:href="#m5bef78d4f2" x="162" y="641.129327" style="stroke: #000000; stroke-width: 0.8"/>
      </g>
     </g>
     <g id="text_43">
      <!-- 9 -->
      <g transform="translate(148.6375 644.928546) scale(0.1 -0.1)">
       <defs>
        <path id="DejaVuSans-39" d="M 703 97 
L 703 672 
Q 941 559 1184 500 
Q 1428 441 1663 441 
Q 2288 441 2617 861 
Q 2947 1281 2994 2138 
Q 2813 1869 2534 1725 
Q 2256 1581 1919 1581 
Q 1219 1581 811 2004 
Q 403 2428 403 3163 
Q 403 3881 828 4315 
Q 1253 4750 1959 4750 
Q 2769 4750 3195 4129 
Q 3622 3509 3622 2328 
Q 3622 1225 3098 567 
Q 2575 -91 1691 -91 
Q 1453 -91 1209 -44 
Q 966 3 703 97 
z
M 1959 2075 
Q 2384 2075 2632 2365 
Q 2881 2656 2881 3163 
Q 2881 3666 2632 3958 
Q 2384 4250 1959 4250 
Q 1534 4250 1286 3958 
Q 1038 3666 1038 3163 
Q 1038 2656 1286 2365 
Q 1534 2075 1959 2075 
z
" transform="scale(0.015625)"/>
       </defs>
       <use xlink:href="#DejaVuSans-39"/>
      </g>
     </g>
    </g>
    <g id="ytick_20">
     <g id="line2d_46">
      <g>
       <use xlink:href="#m5bef78d4f2" x="162" y="588.024709" style="stroke: #000000; stroke-width: 0.8"/>
      </g>
     </g>
     <g id="text_44">
      <!-- 10 -->
      <g transform="translate(142.275 591.823927) scale(0.1 -0.1)">
       <use xlink:href="#DejaVuSans-31"/>
       <use xlink:href="#DejaVuSans-30" x="63.623047"/>
      </g>
     </g>
    </g>
    <g id="ytick_21">
     <g id="line2d_47">
      <g>
       <use xlink:href="#m5bef78d4f2" x="162" y="534.92009" style="stroke: #000000; stroke-width: 0.8"/>
      </g>
     </g>
     <g id="text_45">
      <!-- 11 -->
      <g transform="translate(142.275 538.719309) scale(0.1 -0.1)">
       <use xlink:href="#DejaVuSans-31"/>
       <use xlink:href="#DejaVuSans-31" x="63.623047"/>
      </g>
     </g>
    </g>
    <g id="ytick_22">
     <g id="line2d_48">
      <g>
       <use xlink:href="#m5bef78d4f2" x="162" y="481.815471" style="stroke: #000000; stroke-width: 0.8"/>
      </g>
     </g>
     <g id="text_46">
      <!-- 12 -->
      <g transform="translate(142.275 485.61469) scale(0.1 -0.1)">
       <use xlink:href="#DejaVuSans-31"/>
       <use xlink:href="#DejaVuSans-32" x="63.623047"/>
      </g>
     </g>
    </g>
   </g>
   <g id="line2d_49">
    <path d="M 182.752066 480.305455 
L 186.944403 663.810117 
L 191.136739 696.354913 
L 195.329076 699.716594 
L 199.521412 690.547431 
L 203.713749 698.424982 
L 207.906086 718.179228 
L 212.098422 728.885452 
L 216.290759 707.682596 
L 220.483095 724.09048 
L 224.675432 726.094205 
L 228.867769 670.873203 
L 233.060105 712.721345 
L 237.252442 713.568602 
L 241.444778 728.949188 
L 245.637115 721.226862 
L 249.829452 693.948716 
L 254.021788 714.898096 
L 258.214125 723.079109 
L 262.406461 728.601235 
L 266.598798 736.893311 
L 270.791134 735.766876 
L 274.983471 744.386395 
L 279.175808 685.610553 
L 283.368144 709.967625 
L 287.560481 726.497386 
L 291.752817 730.40537 
L 295.945154 740.94039 
L 300.137491 686.582168 
L 304.329827 730.848433 
L 308.522164 737.591724 
L 312.7145 671.984293 
L 316.906837 720.041654 
L 321.099174 713.005739 
L 325.29151 730.086892 
L 329.483847 735.259317 
L 333.676183 683.919634 
L 337.86852 712.093707 
L 342.060856 723.906843 
L 346.253193 727.391008 
L 350.44553 674.850721 
L 354.637866 720.089437 
L 358.830203 728.727871 
L 363.022539 734.959451 
L 367.214876 737.999641 
L 371.407213 739.204195 
L 375.599549 700.684335 
L 379.791886 714.795009 
L 383.984222 724.765977 
L 388.176559 690.8672 
L 392.368896 717.667136 
L 396.561232 690.169572 
L 400.753569 711.761783 
L 404.945905 728.893378 
L 409.138242 735.97781 
L 413.330579 665.582168 
L 417.522915 726.660005 
L 421.715252 713.006144 
L 425.907588 726.674996 
L 430.099925 734.782701 
L 434.292261 708.316209 
L 438.484598 724.235374 
L 442.676935 737.664678 
L 446.869271 709.086613 
L 451.061608 712.854919 
L 455.253944 679.684082 
L 459.446281 719.627053 
L 463.638618 685.369384 
L 467.830954 691.175878 
L 472.023291 715.177654 
L 476.215627 709.371514 
L 480.407964 723.760531 
L 484.600301 730.383592 
L 488.792637 734.330243 
L 492.984974 740.823325 
L 497.17731 743.909197 
L 501.369647 671.149266 
L 505.561983 716.386083 
L 509.75432 684.518404 
L 513.946657 683.340717 
L 518.138993 716.131898 
L 522.33133 725.687276 
L 526.523666 732.989151 
L 530.716003 738.41647 
L 534.90834 679.709151 
L 539.100676 713.837322 
L 543.293013 720.257982 
L 547.485349 684.182783 
L 551.677686 720.104681 
L 555.870023 710.641729 
L 560.062359 731.520359 
L 564.254696 715.321434 
L 568.447032 733.139768 
L 572.639369 737.773842 
L 576.831705 719.664935 
L 581.024042 734.60147 
L 585.216379 691.721573 
L 589.408715 723.534479 
L 593.601052 726.675097 
L 597.793388 721.409385 
" clip-path="url(#p0689727b85)" style="fill: none; stroke: #4169e1; stroke-linecap: square"/>
   </g>
   <g id="line2d_50">
    <path d="M 182.752066 615.904259 
L 186.944403 712.744641 
L 191.136739 714.446322 
L 195.329076 718.424448 
L 199.521412 725.496574 
L 203.713749 731.804424 
L 207.906086 737.130226 
L 212.098422 744.301109 
L 216.290759 742.017346 
L 220.483095 747.669855 
L 224.675432 741.68023 
L 228.867769 716.750242 
L 233.060105 738.761182 
L 237.252442 747.436637 
L 241.444778 748.810117 
L 245.637115 747.435219 
L 249.829452 734.095607 
L 254.021788 737.280995 
L 258.214125 741.620191 
L 262.406461 746.446639 
L 266.598798 755.214545 
L 270.791134 752.972412 
L 274.983471 747.166246 
L 279.175808 740.857333 
L 283.368144 735.10399 
L 287.560481 745.617259 
L 291.752817 748.508098 
L 295.945154 750.264576 
L 300.137491 741.594059 
L 304.329827 750.11206 
L 308.522164 744.503257 
L 312.7145 735.160864 
L 316.906837 751.34728 
L 321.099174 733.922124 
L 325.29151 748.523317 
L 329.483847 752.224924 
L 333.676183 729.565911 
L 337.86852 733.113028 
L 342.060856 735.684047 
L 346.253193 742.813376 
L 350.44553 727.558236 
L 354.637866 740.377426 
L 358.830203 744.826875 
L 363.022539 738.546171 
L 367.214876 749.795254 
L 371.407213 738.310674 
L 375.599549 729.079572 
L 379.791886 731.912576 
L 383.984222 741.857739 
L 388.176559 727.507567 
L 392.368896 731.8222 
L 396.561232 728.854761 
L 400.753569 735.176184 
L 404.945905 741.842394 
L 409.138242 749.505947 
L 413.330579 731.342521 
L 417.522915 741.934289 
L 421.715252 729.157666 
L 425.907588 745.429292 
L 430.099925 746.320078 
L 434.292261 733.193097 
L 438.484598 748.015454 
L 442.676935 735.793312 
L 446.869271 731.174736 
L 451.061608 738.659412 
L 455.253944 730.026827 
L 459.446281 736.970519 
L 463.638618 722.191235 
L 467.830954 724.387586 
L 472.023291 727.818752 
L 476.215627 730.882517 
L 480.407964 736.146457 
L 484.600301 741.05077 
L 488.792637 749.669908 
L 492.984974 748.015327 
L 497.17731 745.02054 
L 501.369647 725.283361 
L 505.561983 730.236673 
L 509.75432 730.190865 
L 513.946657 730.183217 
L 518.138993 733.99837 
L 522.33133 733.340953 
L 526.523666 733.973149 
L 530.716003 741.34228 
L 534.90834 730.939948 
L 539.100676 739.065302 
L 543.293013 737.935271 
L 547.485349 726.793834 
L 551.677686 739.57352 
L 555.870023 741.414701 
L 560.062359 746.293084 
L 564.254696 739.184899 
L 568.447032 747.722247 
L 572.639369 751.476829 
L 576.831705 736.720765 
L 581.024042 746.911454 
L 585.216379 721.842776 
L 589.408715 744.938369 
L 593.601052 751.64155 
L 597.793388 747.079416 
" clip-path="url(#p0689727b85)" style="fill: none; stroke: #ff6347; stroke-linecap: square"/>
   </g>
   <g id="patch_15">
    <path d="M 162 768.96 
L 162 466.56 
" style="fill: none; stroke: #000000; stroke-width: 0.8; stroke-linejoin: miter; stroke-linecap: square"/>
   </g>
   <g id="patch_16">
    <path d="M 618.545455 768.96 
L 618.545455 466.56 
" style="fill: none; stroke: #000000; stroke-width: 0.8; stroke-linejoin: miter; stroke-linecap: square"/>
   </g>
   <g id="patch_17">
    <path d="M 162 768.96 
L 618.545455 768.96 
" style="fill: none; stroke: #000000; stroke-width: 0.8; stroke-linejoin: miter; stroke-linecap: square"/>
   </g>
   <g id="patch_18">
    <path d="M 162 466.56 
L 618.545455 466.56 
" style="fill: none; stroke: #000000; stroke-width: 0.8; stroke-linejoin: miter; stroke-linecap: square"/>
   </g>
   <g id="text_47">
    <!-- MAE -->
    <g transform="translate(377.200227 460.56) scale(0.12 -0.12)">
     <defs>
      <path id="DejaVuSans-41" d="M 2188 4044 
L 1331 1722 
L 3047 1722 
L 2188 4044 
z
M 1831 4666 
L 2547 4666 
L 4325 0 
L 3669 0 
L 3244 1197 
L 1141 1197 
L 716 0 
L 50 0 
L 1831 4666 
z
" transform="scale(0.015625)"/>
     </defs>
     <use xlink:href="#DejaVuSans-4d"/>
     <use xlink:href="#DejaVuSans-41" x="86.279297"/>
     <use xlink:href="#DejaVuSans-45" x="154.6875"/>
    </g>
   </g>
   <g id="legend_3">
    <g id="patch_19">
     <path d="M 530.164205 503.91625 
L 611.545455 503.91625 
Q 613.545455 503.91625 613.545455 501.91625 
L 613.545455 473.56 
Q 613.545455 471.56 611.545455 471.56 
L 530.164205 471.56 
Q 528.164205 471.56 528.164205 473.56 
L 528.164205 501.91625 
Q 528.164205 503.91625 530.164205 503.91625 
z
" style="fill: #ffffff; opacity: 0.8; stroke: #cccccc; stroke-linejoin: miter"/>
    </g>
    <g id="line2d_51">
     <path d="M 532.164205 479.658437 
L 542.164205 479.658437 
L 552.164205 479.658437 
" style="fill: none; stroke: #4169e1; stroke-linecap: square"/>
    </g>
    <g id="text_48">
     <!-- Training -->
     <g transform="translate(560.164205 483.158437) scale(0.1 -0.1)">
      <use xlink:href="#DejaVuSans-54"/>
      <use xlink:href="#DejaVuSans-72" x="46.333984"/>
      <use xlink:href="#DejaVuSans-61" x="87.447266"/>
      <use xlink:href="#DejaVuSans-69" x="148.726562"/>
      <use xlink:href="#DejaVuSans-6e" x="176.509766"/>
      <use xlink:href="#DejaVuSans-69" x="239.888672"/>
      <use xlink:href="#DejaVuSans-6e" x="267.671875"/>
      <use xlink:href="#DejaVuSans-67" x="331.050781"/>
     </g>
    </g>
    <g id="line2d_52">
     <path d="M 532.164205 494.336563 
L 542.164205 494.336563 
L 552.164205 494.336563 
" style="fill: none; stroke: #ff6347; stroke-linecap: square"/>
    </g>
    <g id="text_49">
     <!-- Validation -->
     <g transform="translate(560.164205 497.836563) scale(0.1 -0.1)">
      <use xlink:href="#DejaVuSans-56"/>
      <use xlink:href="#DejaVuSans-61" x="60.658203"/>
      <use xlink:href="#DejaVuSans-6c" x="121.9375"/>
      <use xlink:href="#DejaVuSans-69" x="149.720703"/>
      <use xlink:href="#DejaVuSans-64" x="177.503906"/>
      <use xlink:href="#DejaVuSans-61" x="240.980469"/>
      <use xlink:href="#DejaVuSans-74" x="302.259766"/>
      <use xlink:href="#DejaVuSans-69" x="341.46875"/>
      <use xlink:href="#DejaVuSans-6f" x="369.251953"/>
      <use xlink:href="#DejaVuSans-6e" x="430.433594"/>
     </g>
    </g>
   </g>
  </g>
  <g id="axes_4">
   <g id="patch_20">
    <path d="M 709.854545 768.96 
L 1166.4 768.96 
L 1166.4 466.56 
L 709.854545 466.56 
z
" style="fill: #ffffff"/>
   </g>
   <g id="matplotlib.axis_7">
    <g id="xtick_19">
     <g id="line2d_53">
      <g>
       <use xlink:href="#m01a38a393a" x="730.606612" y="768.96" style="stroke: #000000; stroke-width: 0.8"/>
      </g>
     </g>
     <g id="text_50">
      <!-- 0 -->
      <g transform="translate(727.425362 783.558437) scale(0.1 -0.1)">
       <use xlink:href="#DejaVuSans-30"/>
      </g>
     </g>
    </g>
    <g id="xtick_20">
     <g id="line2d_54">
      <g>
       <use xlink:href="#m01a38a393a" x="814.453343" y="768.96" style="stroke: #000000; stroke-width: 0.8"/>
      </g>
     </g>
     <g id="text_51">
      <!-- 20 -->
      <g transform="translate(808.090843 783.558437) scale(0.1 -0.1)">
       <use xlink:href="#DejaVuSans-32"/>
       <use xlink:href="#DejaVuSans-30" x="63.623047"/>
      </g>
     </g>
    </g>
    <g id="xtick_21">
     <g id="line2d_55">
      <g>
       <use xlink:href="#m01a38a393a" x="898.300075" y="768.96" style="stroke: #000000; stroke-width: 0.8"/>
      </g>
     </g>
     <g id="text_52">
      <!-- 40 -->
      <g transform="translate(891.937575 783.558437) scale(0.1 -0.1)">
       <use xlink:href="#DejaVuSans-34"/>
       <use xlink:href="#DejaVuSans-30" x="63.623047"/>
      </g>
     </g>
    </g>
    <g id="xtick_22">
     <g id="line2d_56">
      <g>
       <use xlink:href="#m01a38a393a" x="982.146807" y="768.96" style="stroke: #000000; stroke-width: 0.8"/>
      </g>
     </g>
     <g id="text_53">
      <!-- 60 -->
      <g transform="translate(975.784307 783.558437) scale(0.1 -0.1)">
       <use xlink:href="#DejaVuSans-36"/>
       <use xlink:href="#DejaVuSans-30" x="63.623047"/>
      </g>
     </g>
    </g>
    <g id="xtick_23">
     <g id="line2d_57">
      <g>
       <use xlink:href="#m01a38a393a" x="1065.993539" y="768.96" style="stroke: #000000; stroke-width: 0.8"/>
      </g>
     </g>
     <g id="text_54">
      <!-- 80 -->
      <g transform="translate(1059.631039 783.558437) scale(0.1 -0.1)">
       <use xlink:href="#DejaVuSans-38"/>
       <use xlink:href="#DejaVuSans-30" x="63.623047"/>
      </g>
     </g>
    </g>
    <g id="xtick_24">
     <g id="line2d_58">
      <g>
       <use xlink:href="#m01a38a393a" x="1149.84027" y="768.96" style="stroke: #000000; stroke-width: 0.8"/>
      </g>
     </g>
     <g id="text_55">
      <!-- 100 -->
      <g transform="translate(1140.29652 783.558437) scale(0.1 -0.1)">
       <use xlink:href="#DejaVuSans-31"/>
       <use xlink:href="#DejaVuSans-30" x="63.623047"/>
       <use xlink:href="#DejaVuSans-30" x="127.246094"/>
      </g>
     </g>
    </g>
   </g>
   <g id="matplotlib.axis_8">
    <g id="ytick_23">
     <g id="line2d_59">
      <g>
       <use xlink:href="#m5bef78d4f2" x="709.854545" y="729.31671" style="stroke: #000000; stroke-width: 0.8"/>
      </g>
     </g>
     <g id="text_56">
      <!-- 9 -->
      <g transform="translate(696.492045 733.115928) scale(0.1 -0.1)">
       <use xlink:href="#DejaVuSans-39"/>
      </g>
     </g>
    </g>
    <g id="ytick_24">
     <g id="line2d_60">
      <g>
       <use xlink:href="#m5bef78d4f2" x="709.854545" y="687.566421" style="stroke: #000000; stroke-width: 0.8"/>
      </g>
     </g>
     <g id="text_57">
      <!-- 10 -->
      <g transform="translate(690.129545 691.365639) scale(0.1 -0.1)">
       <use xlink:href="#DejaVuSans-31"/>
       <use xlink:href="#DejaVuSans-30" x="63.623047"/>
      </g>
     </g>
    </g>
    <g id="ytick_25">
     <g id="line2d_61">
      <g>
       <use xlink:href="#m5bef78d4f2" x="709.854545" y="645.816132" style="stroke: #000000; stroke-width: 0.8"/>
      </g>
     </g>
     <g id="text_58">
      <!-- 11 -->
      <g transform="translate(690.129545 649.61535) scale(0.1 -0.1)">
       <use xlink:href="#DejaVuSans-31"/>
       <use xlink:href="#DejaVuSans-31" x="63.623047"/>
      </g>
     </g>
    </g>
    <g id="ytick_26">
     <g id="line2d_62">
      <g>
       <use xlink:href="#m5bef78d4f2" x="709.854545" y="604.065843" style="stroke: #000000; stroke-width: 0.8"/>
      </g>
     </g>
     <g id="text_59">
      <!-- 12 -->
      <g transform="translate(690.129545 607.865061) scale(0.1 -0.1)">
       <use xlink:href="#DejaVuSans-31"/>
       <use xlink:href="#DejaVuSans-32" x="63.623047"/>
      </g>
     </g>
    </g>
    <g id="ytick_27">
     <g id="line2d_63">
      <g>
       <use xlink:href="#m5bef78d4f2" x="709.854545" y="562.315554" style="stroke: #000000; stroke-width: 0.8"/>
      </g>
     </g>
     <g id="text_60">
      <!-- 13 -->
      <g transform="translate(690.129545 566.114772) scale(0.1 -0.1)">
       <defs>
        <path id="DejaVuSans-33" d="M 2597 2516 
Q 3050 2419 3304 2112 
Q 3559 1806 3559 1356 
Q 3559 666 3084 287 
Q 2609 -91 1734 -91 
Q 1441 -91 1130 -33 
Q 819 25 488 141 
L 488 750 
Q 750 597 1062 519 
Q 1375 441 1716 441 
Q 2309 441 2620 675 
Q 2931 909 2931 1356 
Q 2931 1769 2642 2001 
Q 2353 2234 1838 2234 
L 1294 2234 
L 1294 2753 
L 1863 2753 
Q 2328 2753 2575 2939 
Q 2822 3125 2822 3475 
Q 2822 3834 2567 4026 
Q 2313 4219 1838 4219 
Q 1578 4219 1281 4162 
Q 984 4106 628 3988 
L 628 4550 
Q 988 4650 1302 4700 
Q 1616 4750 1894 4750 
Q 2613 4750 3031 4423 
Q 3450 4097 3450 3541 
Q 3450 3153 3228 2886 
Q 3006 2619 2597 2516 
z
" transform="scale(0.015625)"/>
       </defs>
       <use xlink:href="#DejaVuSans-31"/>
       <use xlink:href="#DejaVuSans-33" x="63.623047"/>
      </g>
     </g>
    </g>
    <g id="ytick_28">
     <g id="line2d_64">
      <g>
       <use xlink:href="#m5bef78d4f2" x="709.854545" y="520.565265" style="stroke: #000000; stroke-width: 0.8"/>
      </g>
     </g>
     <g id="text_61">
      <!-- 14 -->
      <g transform="translate(690.129545 524.364483) scale(0.1 -0.1)">
       <use xlink:href="#DejaVuSans-31"/>
       <use xlink:href="#DejaVuSans-34" x="63.623047"/>
      </g>
     </g>
    </g>
    <g id="ytick_29">
     <g id="line2d_65">
      <g>
       <use xlink:href="#m5bef78d4f2" x="709.854545" y="478.814976" style="stroke: #000000; stroke-width: 0.8"/>
      </g>
     </g>
     <g id="text_62">
      <!-- 15 -->
      <g transform="translate(690.129545 482.614194) scale(0.1 -0.1)">
       <defs>
        <path id="DejaVuSans-35" d="M 691 4666 
L 3169 4666 
L 3169 4134 
L 1269 4134 
L 1269 2991 
Q 1406 3038 1543 3061 
Q 1681 3084 1819 3084 
Q 2600 3084 3056 2656 
Q 3513 2228 3513 1497 
Q 3513 744 3044 326 
Q 2575 -91 1722 -91 
Q 1428 -91 1123 -41 
Q 819 9 494 109 
L 494 744 
Q 775 591 1075 516 
Q 1375 441 1709 441 
Q 2250 441 2565 725 
Q 2881 1009 2881 1497 
Q 2881 1984 2565 2268 
Q 2250 2553 1709 2553 
Q 1456 2553 1204 2497 
Q 953 2441 691 2322 
L 691 4666 
z
" transform="scale(0.015625)"/>
       </defs>
       <use xlink:href="#DejaVuSans-31"/>
       <use xlink:href="#DejaVuSans-35" x="63.623047"/>
      </g>
     </g>
    </g>
   </g>
   <g id="line2d_66">
    <path d="M 730.606612 480.305455 
L 734.798948 679.053284 
L 738.991285 697.854722 
L 743.183621 701.53079 
L 747.375958 698.982834 
L 751.568295 705.360709 
L 755.760631 719.007226 
L 759.952968 728.174821 
L 764.145304 705.124758 
L 768.337641 724.660805 
L 772.529977 726.859972 
L 776.722314 676.831222 
L 780.914651 711.016915 
L 785.106987 716.77314 
L 789.299324 729.483141 
L 793.49166 718.989786 
L 797.683997 703.032617 
L 801.876334 717.530802 
L 806.06867 724.349084 
L 810.261007 728.269504 
L 814.453343 734.59084 
L 818.64568 734.422935 
L 822.838017 740.646722 
L 827.030353 676.117756 
L 831.22269 711.152171 
L 835.415026 725.041646 
L 839.607363 729.532035 
L 843.799699 738.946212 
L 847.992036 676.391532 
L 852.184373 732.075334 
L 856.376709 735.916719 
L 860.569046 662.783955 
L 864.761382 720.442042 
L 868.953719 715.481384 
L 873.146056 730.692916 
L 877.338392 734.900053 
L 881.530729 679.21645 
L 885.723065 716.390308 
L 889.915402 723.196167 
L 894.107739 727.853346 
L 898.300075 667.374482 
L 902.492412 722.379537 
L 906.684748 729.398691 
L 910.877085 733.965209 
L 915.069421 735.746624 
L 919.261758 736.552942 
L 923.454095 701.313195 
L 927.646431 719.255121 
L 931.838768 726.597583 
L 936.031104 691.408562 
L 940.223441 721.85679 
L 944.415778 689.14764 
L 948.608114 713.733493 
L 952.800451 729.409601 
L 956.992787 735.161924 
L 961.185124 661.363274 
L 965.377461 728.425464 
L 969.569797 716.751002 
L 973.762134 728.533406 
L 977.95447 735.091967 
L 982.146807 712.134117 
L 986.339144 726.297011 
L 990.53148 736.427282 
L 994.723817 713.765267 
L 998.916153 714.106412 
L 1003.10849 674.013431 
L 1007.300826 721.638956 
L 1011.493163 685.752117 
L 1015.6855 690.933316 
L 1019.877836 719.136668 
L 1024.070173 713.466566 
L 1028.262509 725.233919 
L 1032.454846 730.677308 
L 1036.647183 734.702843 
L 1040.839519 738.748007 
L 1045.031856 740.886574 
L 1049.224192 668.89554 
L 1053.416529 717.639142 
L 1057.608866 683.444331 
L 1061.801202 680.301999 
L 1065.993539 718.420136 
L 1070.185875 727.307426 
L 1074.378212 731.193405 
L 1078.570548 735.199868 
L 1082.762885 679.585865 
L 1086.955222 717.539363 
L 1091.147558 720.751413 
L 1095.339895 685.583734 
L 1099.532231 721.619685 
L 1103.724568 712.909617 
L 1107.916905 732.21907 
L 1112.109241 717.041621 
L 1116.301578 733.245013 
L 1120.493914 735.914728 
L 1124.686251 719.361829 
L 1128.878588 733.015951 
L 1133.070924 687.775416 
L 1137.263261 723.443903 
L 1141.455597 726.460058 
L 1145.647934 720.56794 
" clip-path="url(#p027092e971)" style="fill: none; stroke: #4169e1; stroke-linecap: square"/>
   </g>
   <g id="line2d_67">
    <path d="M 730.606612 660.689385 
L 734.798948 723.525526 
L 738.991285 731.343751 
L 743.183621 728.439718 
L 747.375958 735.064852 
L 751.568295 738.01093 
L 755.760631 742.644379 
L 759.952968 748.703326 
L 764.145304 748.272117 
L 768.337641 748.000212 
L 772.529977 745.258152 
L 776.722314 731.578507 
L 780.914651 745.652412 
L 785.106987 747.349417 
L 789.299324 753.273945 
L 793.49166 752.112507 
L 797.683997 740.591377 
L 801.876334 745.830509 
L 806.06867 744.950174 
L 810.261007 745.299959 
L 814.453343 754.358378 
L 818.64568 754.552164 
L 822.838017 749.303436 
L 827.030353 747.770672 
L 831.22269 741.883332 
L 835.415026 750.822303 
L 839.607363 752.091564 
L 843.799699 750.800126 
L 847.992036 748.342393 
L 852.184373 753.199807 
L 856.376709 748.85638 
L 860.569046 743.439986 
L 864.761382 750.743507 
L 868.953719 744.487151 
L 873.146056 755.214545 
L 877.338392 754.593732 
L 881.530729 737.61675 
L 885.723065 738.768752 
L 889.915402 745.866782 
L 894.107739 747.268988 
L 898.300075 736.604822 
L 902.492412 743.79439 
L 906.684748 744.549065 
L 910.877085 744.153531 
L 915.069421 749.359497 
L 919.261758 746.585185 
L 923.454095 736.127585 
L 927.646431 740.312982 
L 931.838768 745.525478 
L 936.031104 736.670678 
L 940.223441 739.521994 
L 944.415778 737.024803 
L 948.608114 741.827431 
L 952.800451 745.37342 
L 956.992787 750.785473 
L 961.185124 738.570348 
L 965.377461 750.838309 
L 969.569797 741.842521 
L 973.762134 748.119183 
L 977.95447 749.271503 
L 982.146807 742.65067 
L 986.339144 747.694145 
L 990.53148 741.622417 
L 994.723817 742.214245 
L 998.916153 745.545903 
L 1003.10849 738.705484 
L 1007.300826 742.217072 
L 1011.493163 726.321816 
L 1015.6855 735.256845 
L 1019.877836 732.075015 
L 1024.070173 740.713891 
L 1028.262509 744.420499 
L 1032.454846 745.583808 
L 1036.647183 748.329612 
L 1040.839519 751.056542 
L 1045.031856 743.887241 
L 1049.224192 734.760417 
L 1053.416529 740.570673 
L 1057.608866 735.838162 
L 1061.801202 737.53668 
L 1065.993539 739.178659 
L 1070.185875 742.154998 
L 1074.378212 741.562812 
L 1078.570548 745.053775 
L 1082.762885 737.484521 
L 1086.955222 746.274141 
L 1091.147558 743.809281 
L 1095.339895 736.541116 
L 1099.532231 739.073704 
L 1103.724568 750.599492 
L 1107.916905 750.847666 
L 1112.109241 746.766508 
L 1116.301578 751.960807 
L 1120.493914 752.739811 
L 1124.686251 747.292639 
L 1128.878588 751.562924 
L 1133.070924 733.403442 
L 1137.263261 750.783124 
L 1141.455597 753.101501 
L 1145.647934 753.038751 
" clip-path="url(#p027092e971)" style="fill: none; stroke: #ff6347; stroke-linecap: square"/>
   </g>
   <g id="patch_21">
    <path d="M 709.854545 768.96 
L 709.854545 466.56 
" style="fill: none; stroke: #000000; stroke-width: 0.8; stroke-linejoin: miter; stroke-linecap: square"/>
   </g>
   <g id="patch_22">
    <path d="M 1166.4 768.96 
L 1166.4 466.56 
" style="fill: none; stroke: #000000; stroke-width: 0.8; stroke-linejoin: miter; stroke-linecap: square"/>
   </g>
   <g id="patch_23">
    <path d="M 709.854545 768.96 
L 1166.4 768.96 
" style="fill: none; stroke: #000000; stroke-width: 0.8; stroke-linejoin: miter; stroke-linecap: square"/>
   </g>
   <g id="patch_24">
    <path d="M 709.854545 466.56 
L 1166.4 466.56 
" style="fill: none; stroke: #000000; stroke-width: 0.8; stroke-linejoin: miter; stroke-linecap: square"/>
   </g>
   <g id="text_63">
    <!-- ROOT_MEAN_SQUARED_ERROR -->
    <g transform="translate(843.656335 460.56) scale(0.12 -0.12)">
     <defs>
      <path id="DejaVuSans-52" d="M 2841 2188 
Q 3044 2119 3236 1894 
Q 3428 1669 3622 1275 
L 4263 0 
L 3584 0 
L 2988 1197 
Q 2756 1666 2539 1819 
Q 2322 1972 1947 1972 
L 1259 1972 
L 1259 0 
L 628 0 
L 628 4666 
L 2053 4666 
Q 2853 4666 3247 4331 
Q 3641 3997 3641 3322 
Q 3641 2881 3436 2590 
Q 3231 2300 2841 2188 
z
M 1259 4147 
L 1259 2491 
L 2053 2491 
Q 2509 2491 2742 2702 
Q 2975 2913 2975 3322 
Q 2975 3731 2742 3939 
Q 2509 4147 2053 4147 
L 1259 4147 
z
" transform="scale(0.015625)"/>
      <path id="DejaVuSans-5f" d="M 3263 -1063 
L 3263 -1509 
L -63 -1509 
L -63 -1063 
L 3263 -1063 
z
" transform="scale(0.015625)"/>
      <path id="DejaVuSans-4e" d="M 628 4666 
L 1478 4666 
L 3547 763 
L 3547 4666 
L 4159 4666 
L 4159 0 
L 3309 0 
L 1241 3903 
L 1241 0 
L 628 0 
L 628 4666 
z
" transform="scale(0.015625)"/>
      <path id="DejaVuSans-51" d="M 2522 4238 
Q 1834 4238 1429 3725 
Q 1025 3213 1025 2328 
Q 1025 1447 1429 934 
Q 1834 422 2522 422 
Q 3209 422 3611 934 
Q 4013 1447 4013 2328 
Q 4013 3213 3611 3725 
Q 3209 4238 2522 4238 
z
M 3406 84 
L 4238 -825 
L 3475 -825 
L 2784 -78 
Q 2681 -84 2626 -87 
Q 2572 -91 2522 -91 
Q 1538 -91 948 567 
Q 359 1225 359 2328 
Q 359 3434 948 4092 
Q 1538 4750 2522 4750 
Q 3503 4750 4090 4092 
Q 4678 3434 4678 2328 
Q 4678 1516 4351 937 
Q 4025 359 3406 84 
z
" transform="scale(0.015625)"/>
      <path id="DejaVuSans-55" d="M 556 4666 
L 1191 4666 
L 1191 1831 
Q 1191 1081 1462 751 
Q 1734 422 2344 422 
Q 2950 422 3222 751 
Q 3494 1081 3494 1831 
L 3494 4666 
L 4128 4666 
L 4128 1753 
Q 4128 841 3676 375 
Q 3225 -91 2344 -91 
Q 1459 -91 1007 375 
Q 556 841 556 1753 
L 556 4666 
z
" transform="scale(0.015625)"/>
      <path id="DejaVuSans-44" d="M 1259 4147 
L 1259 519 
L 2022 519 
Q 2988 519 3436 956 
Q 3884 1394 3884 2338 
Q 3884 3275 3436 3711 
Q 2988 4147 2022 4147 
L 1259 4147 
z
M 628 4666 
L 1925 4666 
Q 3281 4666 3915 4102 
Q 4550 3538 4550 2338 
Q 4550 1131 3912 565 
Q 3275 0 1925 0 
L 628 0 
L 628 4666 
z
" transform="scale(0.015625)"/>
     </defs>
     <use xlink:href="#DejaVuSans-52"/>
     <use xlink:href="#DejaVuSans-4f" x="69.482422"/>
     <use xlink:href="#DejaVuSans-4f" x="148.193359"/>
     <use xlink:href="#DejaVuSans-54" x="226.904297"/>
     <use xlink:href="#DejaVuSans-5f" x="287.988281"/>
     <use xlink:href="#DejaVuSans-4d" x="337.988281"/>
     <use xlink:href="#DejaVuSans-45" x="424.267578"/>
     <use xlink:href="#DejaVuSans-41" x="487.451172"/>
     <use xlink:href="#DejaVuSans-4e" x="555.859375"/>
     <use xlink:href="#DejaVuSans-5f" x="630.664062"/>
     <use xlink:href="#DejaVuSans-53" x="680.664062"/>
     <use xlink:href="#DejaVuSans-51" x="744.140625"/>
     <use xlink:href="#DejaVuSans-55" x="822.851562"/>
     <use xlink:href="#DejaVuSans-41" x="896.044922"/>
     <use xlink:href="#DejaVuSans-52" x="964.453125"/>
     <use xlink:href="#DejaVuSans-45" x="1033.935547"/>
     <use xlink:href="#DejaVuSans-44" x="1097.119141"/>
     <use xlink:href="#DejaVuSans-5f" x="1174.121094"/>
     <use xlink:href="#DejaVuSans-45" x="1224.121094"/>
     <use xlink:href="#DejaVuSans-52" x="1287.304688"/>
     <use xlink:href="#DejaVuSans-52" x="1356.787109"/>
     <use xlink:href="#DejaVuSans-4f" x="1426.269531"/>
     <use xlink:href="#DejaVuSans-52" x="1504.980469"/>
    </g>
   </g>
   <g id="legend_4">
    <g id="patch_25">
     <path d="M 1078.01875 503.91625 
L 1159.4 503.91625 
Q 1161.4 503.91625 1161.4 501.91625 
L 1161.4 473.56 
Q 1161.4 471.56 1159.4 471.56 
L 1078.01875 471.56 
Q 1076.01875 471.56 1076.01875 473.56 
L 1076.01875 501.91625 
Q 1076.01875 503.91625 1078.01875 503.91625 
z
" style="fill: #ffffff; opacity: 0.8; stroke: #cccccc; stroke-linejoin: miter"/>
    </g>
    <g id="line2d_68">
     <path d="M 1080.01875 479.658437 
L 1090.01875 479.658437 
L 1100.01875 479.658437 
" style="fill: none; stroke: #4169e1; stroke-linecap: square"/>
    </g>
    <g id="text_64">
     <!-- Training -->
     <g transform="translate(1108.01875 483.158437) scale(0.1 -0.1)">
      <use xlink:href="#DejaVuSans-54"/>
      <use xlink:href="#DejaVuSans-72" x="46.333984"/>
      <use xlink:href="#DejaVuSans-61" x="87.447266"/>
      <use xlink:href="#DejaVuSans-69" x="148.726562"/>
      <use xlink:href="#DejaVuSans-6e" x="176.509766"/>
      <use xlink:href="#DejaVuSans-69" x="239.888672"/>
      <use xlink:href="#DejaVuSans-6e" x="267.671875"/>
      <use xlink:href="#DejaVuSans-67" x="331.050781"/>
     </g>
    </g>
    <g id="line2d_69">
     <path d="M 1080.01875 494.336563 
L 1090.01875 494.336563 
L 1100.01875 494.336563 
" style="fill: none; stroke: #ff6347; stroke-linecap: square"/>
    </g>
    <g id="text_65">
     <!-- Validation -->
     <g transform="translate(1108.01875 497.836563) scale(0.1 -0.1)">
      <use xlink:href="#DejaVuSans-56"/>
      <use xlink:href="#DejaVuSans-61" x="60.658203"/>
      <use xlink:href="#DejaVuSans-6c" x="121.9375"/>
      <use xlink:href="#DejaVuSans-69" x="149.720703"/>
      <use xlink:href="#DejaVuSans-64" x="177.503906"/>
      <use xlink:href="#DejaVuSans-61" x="240.980469"/>
      <use xlink:href="#DejaVuSans-74" x="302.259766"/>
      <use xlink:href="#DejaVuSans-69" x="341.46875"/>
      <use xlink:href="#DejaVuSans-6f" x="369.251953"/>
      <use xlink:href="#DejaVuSans-6e" x="430.433594"/>
     </g>
    </g>
   </g>
  </g>
 </g>
 <defs>
  <clipPath id="p834c1a0368">
   <rect x="162" y="103.68" width="456.545455" height="302.4"/>
  </clipPath>
  <clipPath id="p197b2ed1ce">
   <rect x="709.854545" y="103.68" width="456.545455" height="302.4"/>
  </clipPath>
  <clipPath id="p0689727b85">
   <rect x="162" y="466.56" width="456.545455" height="302.4"/>
  </clipPath>
  <clipPath id="p027092e971">
   <rect x="709.854545" y="466.56" width="456.545455" height="302.4"/>
  </clipPath>
 </defs>
</svg>
