<?xml version="1.0" encoding="utf-8" standalone="no"?>
<!DOCTYPE svg PUBLIC "-//W3C//DTD SVG 1.1//EN"
  "http://www.w3.org/Graphics/SVG/1.1/DTD/svg11.dtd">
<svg xmlns:xlink="http://www.w3.org/1999/xlink" width="1296pt" height="864pt" viewBox="0 0 1296 864" xmlns="http://www.w3.org/2000/svg" version="1.1">
 <metadata>
  <rdf:RDF xmlns:dc="http://purl.org/dc/elements/1.1/" xmlns:cc="http://creativecommons.org/ns#" xmlns:rdf="http://www.w3.org/1999/02/22-rdf-syntax-ns#">
   <cc:Work>
    <dc:type rdf:resource="http://purl.org/dc/dcmitype/StillImage"/>
    <dc:date>2023-12-10T12:42:14.618674</dc:date>
    <dc:format>image/svg+xml</dc:format>
    <dc:creator>
     <cc:Agent>
      <dc:title>Matplotlib v3.8.0, https://matplotlib.org/</dc:title>
     </cc:Agent>
    </dc:creator>
   </cc:Work>
  </rdf:RDF>
 </metadata>
 <defs>
  <style type="text/css">*{stroke-linejoin: round; stroke-linecap: butt}</style>
 </defs>
 <g id="figure_1">
  <g id="patch_1">
   <path d="M 0 864 
L 1296 864 
L 1296 0 
L 0 0 
z
" style="fill: #ffffff"/>
  </g>
  <g id="axes_1">
   <g id="patch_2">
    <path d="M 162 768.96 
L 1166.4 768.96 
L 1166.4 103.68 
L 162 103.68 
z
" style="fill: #ffffff"/>
   </g>
   <g id="matplotlib.axis_1">
    <g id="xtick_1">
     <g id="line2d_1">
      <defs>
       <path id="m488f492be8" d="M 0 0 
L 0 3.5 
" style="stroke: #000000; stroke-width: 0.8"/>
      </defs>
      <g>
       <use xlink:href="#m488f492be8" x="207.654545" y="768.96" style="stroke: #000000; stroke-width: 0.8"/>
      </g>
     </g>
     <g id="text_1">
      <!-- 0 -->
      <g transform="translate(204.473295 783.558437) scale(0.1 -0.1)">
       <defs>
        <path id="DejaVuSans-30" d="M 2034 4250 
Q 1547 4250 1301 3770 
Q 1056 3291 1056 2328 
Q 1056 1369 1301 889 
Q 1547 409 2034 409 
Q 2525 409 2770 889 
Q 3016 1369 3016 2328 
Q 3016 3291 2770 3770 
Q 2525 4250 2034 4250 
z
M 2034 4750 
Q 2819 4750 3233 4129 
Q 3647 3509 3647 2328 
Q 3647 1150 3233 529 
Q 2819 -91 2034 -91 
Q 1250 -91 836 529 
Q 422 1150 422 2328 
Q 422 3509 836 4129 
Q 1250 4750 2034 4750 
z
" transform="scale(0.015625)"/>
       </defs>
       <use xlink:href="#DejaVuSans-30"/>
      </g>
     </g>
    </g>
    <g id="xtick_2">
     <g id="line2d_2">
      <g>
       <use xlink:href="#m488f492be8" x="390.638696" y="768.96" style="stroke: #000000; stroke-width: 0.8"/>
      </g>
     </g>
     <g id="text_2">
      <!-- 100 -->
      <g transform="translate(381.094946 783.558437) scale(0.1 -0.1)">
       <defs>
        <path id="DejaVuSans-31" d="M 794 531 
L 1825 531 
L 1825 4091 
L 703 3866 
L 703 4441 
L 1819 4666 
L 2450 4666 
L 2450 531 
L 3481 531 
L 3481 0 
L 794 0 
L 794 531 
z
" transform="scale(0.015625)"/>
       </defs>
       <use xlink:href="#DejaVuSans-31"/>
       <use xlink:href="#DejaVuSans-30" x="63.623047"/>
       <use xlink:href="#DejaVuSans-30" x="127.246094"/>
      </g>
     </g>
    </g>
    <g id="xtick_3">
     <g id="line2d_3">
      <g>
       <use xlink:href="#m488f492be8" x="573.622846" y="768.96" style="stroke: #000000; stroke-width: 0.8"/>
      </g>
     </g>
     <g id="text_3">
      <!-- 200 -->
      <g transform="translate(564.079096 783.558437) scale(0.1 -0.1)">
       <defs>
        <path id="DejaVuSans-32" d="M 1228 531 
L 3431 531 
L 3431 0 
L 469 0 
L 469 531 
Q 828 903 1448 1529 
Q 2069 2156 2228 2338 
Q 2531 2678 2651 2914 
Q 2772 3150 2772 3378 
Q 2772 3750 2511 3984 
Q 2250 4219 1831 4219 
Q 1534 4219 1204 4116 
Q 875 4013 500 3803 
L 500 4441 
Q 881 4594 1212 4672 
Q 1544 4750 1819 4750 
Q 2544 4750 2975 4387 
Q 3406 4025 3406 3419 
Q 3406 3131 3298 2873 
Q 3191 2616 2906 2266 
Q 2828 2175 2409 1742 
Q 1991 1309 1228 531 
z
" transform="scale(0.015625)"/>
       </defs>
       <use xlink:href="#DejaVuSans-32"/>
       <use xlink:href="#DejaVuSans-30" x="63.623047"/>
       <use xlink:href="#DejaVuSans-30" x="127.246094"/>
      </g>
     </g>
    </g>
    <g id="xtick_4">
     <g id="line2d_4">
      <g>
       <use xlink:href="#m488f492be8" x="756.606996" y="768.96" style="stroke: #000000; stroke-width: 0.8"/>
      </g>
     </g>
     <g id="text_4">
      <!-- 300 -->
      <g transform="translate(747.063246 783.558437) scale(0.1 -0.1)">
       <defs>
        <path id="DejaVuSans-33" d="M 2597 2516 
Q 3050 2419 3304 2112 
Q 3559 1806 3559 1356 
Q 3559 666 3084 287 
Q 2609 -91 1734 -91 
Q 1441 -91 1130 -33 
Q 819 25 488 141 
L 488 750 
Q 750 597 1062 519 
Q 1375 441 1716 441 
Q 2309 441 2620 675 
Q 2931 909 2931 1356 
Q 2931 1769 2642 2001 
Q 2353 2234 1838 2234 
L 1294 2234 
L 1294 2753 
L 1863 2753 
Q 2328 2753 2575 2939 
Q 2822 3125 2822 3475 
Q 2822 3834 2567 4026 
Q 2313 4219 1838 4219 
Q 1578 4219 1281 4162 
Q 984 4106 628 3988 
L 628 4550 
Q 988 4650 1302 4700 
Q 1616 4750 1894 4750 
Q 2613 4750 3031 4423 
Q 3450 4097 3450 3541 
Q 3450 3153 3228 2886 
Q 3006 2619 2597 2516 
z
" transform="scale(0.015625)"/>
       </defs>
       <use xlink:href="#DejaVuSans-33"/>
       <use xlink:href="#DejaVuSans-30" x="63.623047"/>
       <use xlink:href="#DejaVuSans-30" x="127.246094"/>
      </g>
     </g>
    </g>
    <g id="xtick_5">
     <g id="line2d_5">
      <g>
       <use xlink:href="#m488f492be8" x="939.591146" y="768.96" style="stroke: #000000; stroke-width: 0.8"/>
      </g>
     </g>
     <g id="text_5">
      <!-- 400 -->
      <g transform="translate(930.047396 783.558437) scale(0.1 -0.1)">
       <defs>
        <path id="DejaVuSans-34" d="M 2419 4116 
L 825 1625 
L 2419 1625 
L 2419 4116 
z
M 2253 4666 
L 3047 4666 
L 3047 1625 
L 3713 1625 
L 3713 1100 
L 3047 1100 
L 3047 0 
L 2419 0 
L 2419 1100 
L 313 1100 
L 313 1709 
L 2253 4666 
z
" transform="scale(0.015625)"/>
       </defs>
       <use xlink:href="#DejaVuSans-34"/>
       <use xlink:href="#DejaVuSans-30" x="63.623047"/>
       <use xlink:href="#DejaVuSans-30" x="127.246094"/>
      </g>
     </g>
    </g>
    <g id="xtick_6">
     <g id="line2d_6">
      <g>
       <use xlink:href="#m488f492be8" x="1122.575296" y="768.96" style="stroke: #000000; stroke-width: 0.8"/>
      </g>
     </g>
     <g id="text_6">
      <!-- 500 -->
      <g transform="translate(1113.031546 783.558437) scale(0.1 -0.1)">
       <defs>
        <path id="DejaVuSans-35" d="M 691 4666 
L 3169 4666 
L 3169 4134 
L 1269 4134 
L 1269 2991 
Q 1406 3038 1543 3061 
Q 1681 3084 1819 3084 
Q 2600 3084 3056 2656 
Q 3513 2228 3513 1497 
Q 3513 744 3044 326 
Q 2575 -91 1722 -91 
Q 1428 -91 1123 -41 
Q 819 9 494 109 
L 494 744 
Q 775 591 1075 516 
Q 1375 441 1709 441 
Q 2250 441 2565 725 
Q 2881 1009 2881 1497 
Q 2881 1984 2565 2268 
Q 2250 2553 1709 2553 
Q 1456 2553 1204 2497 
Q 953 2441 691 2322 
L 691 4666 
z
" transform="scale(0.015625)"/>
       </defs>
       <use xlink:href="#DejaVuSans-35"/>
       <use xlink:href="#DejaVuSans-30" x="63.623047"/>
       <use xlink:href="#DejaVuSans-30" x="127.246094"/>
      </g>
     </g>
    </g>
   </g>
   <g id="matplotlib.axis_2">
    <g id="ytick_1">
     <g id="line2d_7">
      <defs>
       <path id="m38dd32b2d1" d="M 0 0 
L -3.5 0 
" style="stroke: #000000; stroke-width: 0.8"/>
      </defs>
      <g>
       <use xlink:href="#m38dd32b2d1" x="162" y="738.72" style="stroke: #000000; stroke-width: 0.8"/>
      </g>
     </g>
     <g id="text_7">
      <!-- 0 -->
      <g transform="translate(148.6375 742.519219) scale(0.1 -0.1)">
       <use xlink:href="#DejaVuSans-30"/>
      </g>
     </g>
    </g>
    <g id="ytick_2">
     <g id="line2d_8">
      <g>
       <use xlink:href="#m38dd32b2d1" x="162" y="617.8717" style="stroke: #000000; stroke-width: 0.8"/>
      </g>
     </g>
     <g id="text_8">
      <!-- 5 -->
      <g transform="translate(148.6375 621.670919) scale(0.1 -0.1)">
       <use xlink:href="#DejaVuSans-35"/>
      </g>
     </g>
    </g>
    <g id="ytick_3">
     <g id="line2d_9">
      <g>
       <use xlink:href="#m38dd32b2d1" x="162" y="497.0234" style="stroke: #000000; stroke-width: 0.8"/>
      </g>
     </g>
     <g id="text_9">
      <!-- 10 -->
      <g transform="translate(142.275 500.822619) scale(0.1 -0.1)">
       <use xlink:href="#DejaVuSans-31"/>
       <use xlink:href="#DejaVuSans-30" x="63.623047"/>
      </g>
     </g>
    </g>
    <g id="ytick_4">
     <g id="line2d_10">
      <g>
       <use xlink:href="#m38dd32b2d1" x="162" y="376.175101" style="stroke: #000000; stroke-width: 0.8"/>
      </g>
     </g>
     <g id="text_10">
      <!-- 15 -->
      <g transform="translate(142.275 379.974319) scale(0.1 -0.1)">
       <use xlink:href="#DejaVuSans-31"/>
       <use xlink:href="#DejaVuSans-35" x="63.623047"/>
      </g>
     </g>
    </g>
    <g id="ytick_5">
     <g id="line2d_11">
      <g>
       <use xlink:href="#m38dd32b2d1" x="162" y="255.326801" style="stroke: #000000; stroke-width: 0.8"/>
      </g>
     </g>
     <g id="text_11">
      <!-- 20 -->
      <g transform="translate(142.275 259.12602) scale(0.1 -0.1)">
       <use xlink:href="#DejaVuSans-32"/>
       <use xlink:href="#DejaVuSans-30" x="63.623047"/>
      </g>
     </g>
    </g>
    <g id="ytick_6">
     <g id="line2d_12">
      <g>
       <use xlink:href="#m38dd32b2d1" x="162" y="134.478501" style="stroke: #000000; stroke-width: 0.8"/>
      </g>
     </g>
     <g id="text_12">
      <!-- 25 -->
      <g transform="translate(142.275 138.27772) scale(0.1 -0.1)">
       <use xlink:href="#DejaVuSans-32"/>
       <use xlink:href="#DejaVuSans-35" x="63.623047"/>
      </g>
     </g>
    </g>
   </g>
   <g id="line2d_13">
    <path d="M 207.654545 158.648161 
L 209.484387 158.648161 
L 211.314228 303.666121 
L 213.14407 400.344761 
L 214.973911 158.648161 
L 216.803753 231.157141 
L 218.633594 158.648161 
L 220.463436 303.666121 
L 222.293277 158.648161 
L 224.123119 352.005441 
L 225.95296 158.648161 
L 227.782802 569.53238 
L 229.612643 231.157141 
L 231.442485 158.648161 
L 233.272326 352.005441 
L 235.102168 158.648161 
L 236.932009 303.666121 
L 238.761851 376.175101 
L 240.591692 158.648161 
L 242.421534 158.648161 
L 244.251375 472.85374 
L 246.081217 182.817821 
L 247.911058 158.648161 
L 249.7409 400.344761 
L 251.570741 158.648161 
L 255.230424 158.648161 
L 257.060266 521.19306 
L 258.890107 158.648161 
L 260.719949 400.344761 
L 262.54979 448.684081 
L 264.379632 424.514421 
L 266.209473 642.04136 
L 268.039315 424.514421 
L 269.869156 617.8717 
L 271.698998 255.326801 
L 273.528839 666.21102 
L 275.358681 738.72 
L 277.188522 521.19306 
L 279.018364 738.72 
L 280.848206 521.19306 
L 282.678047 593.70204 
L 284.507889 424.514421 
L 286.33773 593.70204 
L 288.167572 497.0234 
L 289.997413 738.72 
L 291.827255 569.53238 
L 293.657096 593.70204 
L 295.486938 738.72 
L 297.316779 666.21102 
L 299.146621 690.38068 
L 300.976462 472.85374 
L 302.806304 617.8717 
L 304.636145 666.21102 
L 306.465987 545.36272 
L 308.295828 738.72 
L 310.12567 666.21102 
L 311.955511 617.8717 
L 313.785353 593.70204 
L 315.615194 593.70204 
L 319.274877 352.005441 
L 321.104719 593.70204 
L 322.93456 158.648161 
L 324.764402 424.514421 
L 326.594243 497.0234 
L 328.424085 642.04136 
L 330.253926 303.666121 
L 332.083768 642.04136 
L 333.913609 424.514421 
L 335.743451 521.19306 
L 337.573292 376.175101 
L 339.403134 714.55034 
L 341.232975 545.36272 
L 343.062817 690.38068 
L 344.892658 714.55034 
L 346.7225 182.817821 
L 348.552341 690.38068 
L 350.382183 424.514421 
L 352.212024 521.19306 
L 354.041866 376.175101 
L 355.871707 738.72 
L 357.701549 158.648161 
L 361.361232 158.648161 
L 363.191073 545.36272 
L 365.020915 158.648161 
L 366.850756 690.38068 
L 368.680598 206.987481 
L 370.510439 424.514421 
L 372.340281 448.684081 
L 374.170122 158.648161 
L 375.999964 158.648161 
L 377.829805 182.817821 
L 379.659647 158.648161 
L 381.489488 158.648161 
L 383.31933 182.817821 
L 385.149171 617.8717 
L 386.979013 327.835781 
L 388.808854 158.648161 
L 390.638696 738.72 
L 392.468537 231.157141 
L 394.298379 448.684081 
L 396.12822 352.005441 
L 397.958062 158.648161 
L 399.787903 158.648161 
L 401.617745 714.55034 
L 403.447586 400.344761 
L 405.277428 497.0234 
L 407.107269 158.648161 
L 408.937111 352.005441 
L 410.766952 158.648161 
L 412.596794 497.0234 
L 414.426635 158.648161 
L 416.256477 303.666121 
L 418.086318 400.344761 
L 419.91616 158.648161 
L 423.575843 158.648161 
L 425.405684 206.987481 
L 427.235526 206.987481 
L 429.065367 352.005441 
L 430.895209 158.648161 
L 432.72505 158.648161 
L 434.554892 666.21102 
L 436.384733 738.72 
L 438.214575 327.835781 
L 440.044416 158.648161 
L 441.874258 617.8717 
L 443.704099 617.8717 
L 445.533941 569.53238 
L 447.363782 182.817821 
L 449.193624 521.19306 
L 451.023465 448.684081 
L 452.853307 666.21102 
L 454.683148 738.72 
L 456.51299 569.53238 
L 460.172673 182.817821 
L 462.002514 521.19306 
L 463.832356 158.648161 
L 465.662197 497.0234 
L 467.492039 472.85374 
L 469.32188 642.04136 
L 471.151722 690.38068 
L 472.981563 424.514421 
L 474.811405 231.157141 
L 476.641246 642.04136 
L 478.471088 279.496461 
L 480.300929 376.175101 
L 482.130771 448.684081 
L 483.960612 303.666121 
L 485.790454 448.684081 
L 487.620295 158.648161 
L 489.450137 158.648161 
L 491.279978 472.85374 
L 493.10982 472.85374 
L 494.939661 521.19306 
L 496.769503 521.19306 
L 498.599344 158.648161 
L 500.429186 182.817821 
L 502.259027 617.8717 
L 504.088869 400.344761 
L 505.91871 255.326801 
L 507.748552 497.0234 
L 509.578393 569.53238 
L 511.408235 617.8717 
L 513.238076 303.666121 
L 515.067918 497.0234 
L 516.897759 376.175101 
L 518.727601 521.19306 
L 520.557442 569.53238 
L 522.387284 472.85374 
L 524.217125 279.496461 
L 526.046967 593.70204 
L 527.876808 521.19306 
L 529.70665 617.8717 
L 531.536491 545.36272 
L 533.366333 448.684081 
L 535.196174 521.19306 
L 537.026016 569.53238 
L 538.855857 376.175101 
L 540.685699 642.04136 
L 542.51554 400.344761 
L 544.345382 714.55034 
L 546.175223 617.8717 
L 548.005065 158.648161 
L 549.834906 206.987481 
L 551.664748 352.005441 
L 553.494589 738.72 
L 555.324431 279.496461 
L 557.154272 714.55034 
L 558.984114 593.70204 
L 560.813955 690.38068 
L 562.643797 448.684081 
L 564.473638 593.70204 
L 566.30348 569.53238 
L 568.133321 666.21102 
L 569.963163 617.8717 
L 571.793004 376.175101 
L 573.622846 666.21102 
L 575.452687 690.38068 
L 577.282529 738.72 
L 579.11237 642.04136 
L 580.942212 472.85374 
L 582.772053 279.496461 
L 584.601895 497.0234 
L 586.431736 545.36272 
L 588.261578 545.36272 
L 590.091419 714.55034 
L 591.921261 424.514421 
L 593.751102 545.36272 
L 595.580944 376.175101 
L 597.410785 352.005441 
L 599.240627 690.38068 
L 601.070468 569.53238 
L 602.90031 182.817821 
L 604.730151 400.344761 
L 606.559993 521.19306 
L 608.389834 231.157141 
L 610.219676 352.005441 
L 612.049517 545.36272 
L 613.879359 666.21102 
L 617.539042 472.85374 
L 619.368883 158.648161 
L 621.198725 617.8717 
L 623.028566 158.648161 
L 626.688249 545.36272 
L 628.518091 690.38068 
L 630.347932 158.648161 
L 632.177774 617.8717 
L 634.007615 569.53238 
L 635.837457 497.0234 
L 637.667298 545.36272 
L 639.49714 738.72 
L 641.326981 303.666121 
L 643.156823 448.684081 
L 644.986664 206.987481 
L 646.816506 327.835781 
L 648.646347 472.85374 
L 650.476189 642.04136 
L 652.30603 158.648161 
L 654.135872 182.817821 
L 655.965713 569.53238 
L 657.795555 303.666121 
L 659.625396 158.648161 
L 661.455238 593.70204 
L 663.285079 158.648161 
L 665.114921 593.70204 
L 666.944762 279.496461 
L 668.774604 158.648161 
L 670.604445 400.344761 
L 672.434287 158.648161 
L 674.264128 158.648161 
L 676.09397 376.175101 
L 677.923811 231.157141 
L 679.753653 158.648161 
L 681.583494 158.648161 
L 683.413336 182.817821 
L 685.243177 376.175101 
L 687.073019 327.835781 
L 688.90286 158.648161 
L 690.732702 158.648161 
L 692.562543 182.817821 
L 694.392385 497.0234 
L 696.222226 352.005441 
L 698.052068 593.70204 
L 699.881909 521.19306 
L 701.711751 279.496461 
L 703.541592 545.36272 
L 705.371434 666.21102 
L 707.201275 690.38068 
L 709.031117 738.72 
L 710.860958 617.8717 
L 712.6908 690.38068 
L 714.520641 569.53238 
L 716.350483 666.21102 
L 718.180324 593.70204 
L 720.010166 617.8717 
L 721.840007 327.835781 
L 723.669849 521.19306 
L 725.49969 569.53238 
L 727.329532 593.70204 
L 729.159373 569.53238 
L 730.989215 497.0234 
L 732.819056 497.0234 
L 736.478739 593.70204 
L 738.308581 690.38068 
L 740.138422 158.648161 
L 741.968264 666.21102 
L 743.798105 617.8717 
L 745.627947 593.70204 
L 747.457788 738.72 
L 749.28763 521.19306 
L 751.117471 521.19306 
L 752.947313 376.175101 
L 754.777154 642.04136 
L 756.606996 424.514421 
L 758.436837 327.835781 
L 760.266679 400.344761 
L 762.09652 738.72 
L 763.926362 738.72 
L 765.756203 497.0234 
L 767.586045 642.04136 
L 769.415886 738.72 
L 771.245728 569.53238 
L 773.075569 472.85374 
L 774.905411 738.72 
L 776.735252 738.72 
L 778.565094 497.0234 
L 780.394935 617.8717 
L 782.224777 231.157141 
L 784.054618 666.21102 
L 785.88446 569.53238 
L 787.714301 666.21102 
L 789.544143 690.38068 
L 791.373984 666.21102 
L 793.203826 593.70204 
L 795.033667 400.344761 
L 796.863509 642.04136 
L 798.69335 545.36272 
L 800.523192 738.72 
L 802.353033 690.38068 
L 804.182875 448.684081 
L 806.012716 497.0234 
L 807.842558 521.19306 
L 809.672399 617.8717 
L 811.502241 376.175101 
L 813.332082 521.19306 
L 815.161924 690.38068 
L 816.991765 642.04136 
L 818.821607 690.38068 
L 820.651448 545.36272 
L 822.48129 714.55034 
L 824.311131 738.72 
L 826.140973 376.175101 
L 827.970814 738.72 
L 829.800656 714.55034 
L 831.630497 569.53238 
L 833.460339 472.85374 
L 835.29018 738.72 
L 837.120022 738.72 
L 838.949863 690.38068 
L 840.779705 738.72 
L 844.439388 738.72 
L 846.269229 593.70204 
L 848.099071 714.55034 
L 849.928912 472.85374 
L 851.758754 690.38068 
L 853.588595 738.72 
L 855.418437 738.72 
L 857.248278 690.38068 
L 859.07812 738.72 
L 860.907961 738.72 
L 862.737803 690.38068 
L 864.567644 738.72 
L 866.397486 690.38068 
L 868.227327 738.72 
L 870.057169 738.72 
L 871.88701 424.514421 
L 873.716852 714.55034 
L 875.546693 714.55034 
L 877.376535 545.36272 
L 879.206376 279.496461 
L 881.036218 617.8717 
L 882.866059 472.85374 
L 884.695901 158.648161 
L 886.525742 158.648161 
L 888.355584 327.835781 
L 890.185425 158.648161 
L 892.015267 327.835781 
L 893.845108 158.648161 
L 895.67495 327.835781 
L 897.504791 424.514421 
L 899.334633 158.648161 
L 901.164474 376.175101 
L 902.994316 303.666121 
L 904.824157 158.648161 
L 908.48384 158.648161 
L 910.313682 352.005441 
L 912.143523 158.648161 
L 913.973365 231.157141 
L 915.803206 327.835781 
L 917.633048 472.85374 
L 919.462889 448.684081 
L 921.292731 472.85374 
L 923.122572 158.648161 
L 924.952414 376.175101 
L 926.782255 158.648161 
L 928.612097 231.157141 
L 930.441938 352.005441 
L 932.27178 158.648161 
L 934.101621 182.817821 
L 935.931463 255.326801 
L 937.761304 158.648161 
L 939.591146 158.648161 
L 943.250829 448.684081 
L 945.08067 158.648161 
L 946.910512 158.648161 
L 948.740353 231.157141 
L 950.570195 158.648161 
L 957.889561 158.648161 
L 959.719402 424.514421 
L 961.549244 158.648161 
L 963.379085 714.55034 
L 965.208927 714.55034 
L 967.038768 690.38068 
L 968.86861 545.36272 
L 970.698451 545.36272 
L 972.528293 666.21102 
L 974.358134 738.72 
L 976.187976 714.55034 
L 978.017817 738.72 
L 983.507342 738.72 
L 985.337183 690.38068 
L 987.167025 593.70204 
L 988.996866 738.72 
L 990.826708 738.72 
L 992.656549 569.53238 
L 994.486391 617.8717 
L 996.316232 569.53238 
L 998.146074 738.72 
L 999.975915 448.684081 
L 1001.805757 666.21102 
L 1003.635598 738.72 
L 1009.125123 738.72 
L 1010.954964 617.8717 
L 1012.784806 738.72 
L 1014.614647 738.72 
L 1016.444489 666.21102 
L 1018.27433 738.72 
L 1023.763855 738.72 
L 1025.593696 714.55034 
L 1027.423538 521.19306 
L 1029.253379 738.72 
L 1031.083221 666.21102 
L 1032.913062 666.21102 
L 1034.742904 738.72 
L 1036.572745 666.21102 
L 1038.402587 738.72 
L 1040.232428 497.0234 
L 1042.06227 593.70204 
L 1043.892111 738.72 
L 1047.551794 738.72 
L 1049.381636 617.8717 
L 1051.211478 714.55034 
L 1053.041319 472.85374 
L 1054.871161 472.85374 
L 1056.701002 400.344761 
L 1058.530844 714.55034 
L 1060.360685 158.648161 
L 1062.190527 158.648161 
L 1064.020368 376.175101 
L 1065.85021 472.85374 
L 1067.680051 158.648161 
L 1076.829259 158.648161 
L 1078.6591 327.835781 
L 1080.488942 666.21102 
L 1082.318783 158.648161 
L 1084.148625 400.344761 
L 1085.978466 472.85374 
L 1087.808308 158.648161 
L 1089.638149 352.005441 
L 1091.467991 327.835781 
L 1093.297832 376.175101 
L 1095.127674 448.684081 
L 1096.957515 279.496461 
L 1098.787357 376.175101 
L 1100.617198 158.648161 
L 1102.44704 158.648161 
L 1104.276881 206.987481 
L 1106.106723 158.648161 
L 1109.766406 158.648161 
L 1111.596247 327.835781 
L 1113.426089 158.648161 
L 1115.25593 158.648161 
L 1117.085772 279.496461 
L 1118.915613 352.005441 
L 1120.745455 497.0234 
L 1120.745455 497.0234 
" clip-path="url(#pbb83755f34)" style="fill: none; stroke: #4169e1; stroke-linecap: square"/>
   </g>
   <g id="line2d_14">
    <path d="M 207.654545 170.988154 
L 209.484387 170.499817 
L 211.314228 171.36078 
L 214.973911 213.460885 
L 216.803753 198.155096 
L 218.633594 197.283807 
L 220.463436 177.386876 
L 222.293277 175.874106 
L 224.123119 170.337499 
L 225.95296 199.035283 
L 227.782802 185.024534 
L 229.612643 239.070431 
L 231.442485 227.639298 
L 233.272326 226.362975 
L 235.102168 283.242683 
L 236.932009 174.479582 
L 238.761851 242.036365 
L 240.591692 279.848526 
L 242.421534 213.701296 
L 244.251375 221.43286 
L 246.081217 301.557462 
L 247.911058 211.32535 
L 249.7409 234.481825 
L 251.570741 315.050646 
L 253.400583 217.924468 
L 255.230424 233.952551 
L 257.060266 228.948722 
L 258.890107 320.655711 
L 260.719949 253.886407 
L 262.54979 355.298431 
L 264.379632 390.987113 
L 266.209473 382.853764 
L 268.039315 457.063764 
L 269.869156 445.714505 
L 271.698998 482.597683 
L 273.528839 444.804077 
L 275.358681 476.287427 
L 277.188522 515.979799 
L 279.018364 487.897128 
L 280.848206 555.141342 
L 282.678047 540.201414 
L 284.507889 533.794786 
L 286.33773 528.260255 
L 288.167572 518.617732 
L 289.997413 508.362633 
L 291.827255 526.575186 
L 293.657096 530.99502 
L 295.486938 547.918572 
L 297.316779 590.621433 
L 299.146621 573.768656 
L 300.976462 588.128589 
L 302.806304 563.21967 
L 304.636145 559.670595 
L 306.465987 562.228947 
L 308.295828 527.048286 
L 310.12567 586.179862 
L 311.955511 592.863286 
L 313.785353 590.929139 
L 315.615194 594.682552 
L 317.445036 582.580054 
L 319.274877 550.04045 
L 321.104719 499.48719 
L 322.93456 516.722516 
L 324.764402 401.753483 
L 326.594243 446.653815 
L 328.424085 485.08072 
L 330.253926 511.648385 
L 332.083768 516.350028 
L 333.913609 571.928057 
L 335.743451 542.354098 
L 337.573292 521.994232 
L 339.403134 504.530043 
L 341.232975 562.019273 
L 343.062817 555.040659 
L 344.892658 572.344075 
L 346.7225 591.312552 
L 348.552341 349.121749 
L 350.382183 442.112968 
L 352.212024 347.066475 
L 354.041866 335.806972 
L 355.871707 329.092143 
L 357.701549 362.104468 
L 359.53139 241.063794 
L 361.361232 200.845674 
L 363.191073 181.017387 
L 365.020915 198.155373 
L 366.850756 165.04361 
L 368.680598 277.432704 
L 370.510439 227.979701 
L 372.340281 244.807756 
L 374.170122 272.904304 
L 375.999964 213.31696 
L 379.659647 171.130142 
L 381.489488 152.494599 
L 383.31933 154.223532 
L 385.149171 166.216254 
L 386.979013 258.56454 
L 388.808854 255.848238 
L 390.638696 234.387181 
L 392.468537 330.531522 
L 394.298379 237.037607 
L 396.12822 270.252449 
L 397.958062 285.359962 
L 399.787903 210.125506 
L 401.617745 195.142786 
L 403.447586 263.07662 
L 405.277428 245.964497 
L 407.107269 347.277105 
L 408.937111 330.793923 
L 410.766952 298.382603 
L 412.596794 218.098311 
L 414.426635 301.696223 
L 416.256477 223.239702 
L 419.91616 312.71725 
L 421.746001 215.226052 
L 423.575843 226.293871 
L 425.405684 207.951109 
L 427.235526 200.634306 
L 429.065367 210.167595 
L 430.895209 268.841514 
L 432.72505 231.338637 
L 434.554892 245.029174 
L 436.384733 377.510663 
L 438.214575 422.54609 
L 440.044416 411.869891 
L 441.874258 400.42048 
L 443.704099 460.21661 
L 445.533941 429.706752 
L 447.363782 461.026379 
L 449.193624 443.816339 
L 451.023465 461.858552 
L 452.853307 428.123933 
L 454.683148 458.010519 
L 456.51299 516.178214 
L 458.342831 511.305539 
L 460.172673 504.210823 
L 462.002514 447.753184 
L 463.832356 455.989704 
L 465.662197 352.229671 
L 467.492039 413.248557 
L 469.32188 431.40821 
L 471.151722 458.736893 
L 472.981563 510.969494 
L 474.811405 451.247308 
L 476.641246 333.521382 
L 478.471088 408.991063 
L 480.300929 258.186658 
L 482.130771 292.254627 
L 483.960612 346.210951 
L 485.790454 257.647796 
L 487.620295 323.307473 
L 489.450137 227.361915 
L 491.279978 212.25408 
L 493.10982 302.872279 
L 494.939661 309.394365 
L 496.769503 371.768566 
L 498.599344 417.127569 
L 500.429186 315.924333 
L 502.259027 291.122919 
L 504.088869 389.39694 
L 505.91871 326.995517 
L 507.748552 324.838637 
L 509.578393 423.067596 
L 511.408235 412.788133 
L 513.238076 459.737723 
L 515.067918 442.338166 
L 516.897759 478.916301 
L 518.727601 440.723976 
L 520.557442 450.368712 
L 522.387284 488.719367 
L 524.217125 456.440423 
L 526.046967 397.875623 
L 527.876808 453.680003 
L 529.70665 455.101127 
L 531.536491 492.107323 
L 533.366333 513.136538 
L 535.196174 480.270188 
L 537.026016 490.22384 
L 538.855857 494.921795 
L 540.685699 450.974534 
L 542.51554 493.531604 
L 544.345382 454.578953 
L 546.175223 504.905527 
L 548.005065 511.442525 
L 549.834906 379.161272 
L 551.664748 377.736115 
L 553.494589 381.859688 
L 555.324431 469.438632 
L 557.154272 419.334282 
L 558.984114 524.091711 
L 560.813955 532.32505 
L 562.643797 541.669283 
L 564.473638 514.317757 
L 566.30348 517.34452 
L 568.133321 518.110955 
L 569.963163 528.074403 
L 571.793004 529.789644 
L 573.622846 477.483906 
L 575.452687 513.590922 
L 577.282529 521.303378 
L 579.11237 524.319514 
L 580.942212 536.560923 
L 582.772053 513.523778 
L 584.601895 420.946767 
L 586.431736 418.142183 
L 588.261578 414.992749 
L 590.091419 422.280577 
L 591.921261 467.726663 
L 593.751102 446.705539 
L 595.580944 454.198651 
L 597.410785 433.177112 
L 599.240627 392.264681 
L 601.070468 450.15354 
L 602.90031 441.372211 
L 604.730151 388.903002 
L 606.559993 433.037521 
L 608.389834 423.030601 
L 610.219676 364.414054 
L 613.879359 433.289918 
L 615.7092 449.605181 
L 617.539042 473.591985 
L 619.368883 483.911625 
L 621.198725 425.129025 
L 623.028566 467.407905 
L 624.858408 378.019445 
L 626.688249 393.153373 
L 628.518091 447.99265 
L 630.347932 456.169724 
L 632.177774 414.746045 
L 634.007615 490.479764 
L 635.837457 493.113616 
L 637.667298 469.901314 
L 639.49714 514.019099 
L 641.326981 531.382721 
L 643.156823 470.365771 
L 644.986664 466.051114 
L 646.816506 401.052833 
L 648.646347 312.767822 
L 650.476189 325.215459 
L 652.30603 347.276644 
L 654.135872 260.352619 
L 655.965713 254.465607 
L 657.795555 342.278762 
L 659.625396 220.671427 
L 661.455238 214.285475 
L 663.285079 367.991112 
L 665.114921 206.941473 
L 666.944762 360.668915 
L 668.774604 313.447197 
L 670.604445 232.570151 
L 672.434287 322.200982 
L 674.264128 187.975993 
L 676.09397 207.478584 
L 677.923811 277.962116 
L 679.753653 216.762242 
L 681.583494 218.728267 
L 683.413336 227.610394 
L 685.243177 204.146755 
L 687.073019 261.47732 
L 688.90286 273.247241 
L 690.732702 249.731878 
L 692.562543 262.757286 
L 694.392385 244.871144 
L 696.222226 335.539961 
L 698.052068 298.183959 
L 699.881909 414.326812 
L 701.711751 463.797079 
L 703.541592 397.839066 
L 705.371434 460.367311 
L 707.201275 494.110597 
L 709.031117 525.655284 
L 710.860958 570.178506 
L 712.6908 557.966117 
L 714.520641 565.77491 
L 716.350483 547.021778 
L 718.180324 548.683151 
L 720.010166 538.283632 
L 721.840007 535.155819 
L 723.669849 486.261616 
L 725.49969 480.119994 
L 727.329532 501.27059 
L 729.159373 509.843732 
L 730.989215 533.260718 
L 732.819056 527.21828 
L 734.648898 514.927429 
L 736.478739 517.697138 
L 738.308581 526.759286 
L 740.138422 550.19727 
L 741.968264 459.38144 
L 743.798105 520.960878 
L 745.627947 528.393875 
L 747.457788 520.603557 
L 749.28763 569.244256 
L 751.117471 532.414507 
L 752.947313 520.513086 
L 754.777154 486.923589 
L 756.606996 496.14568 
L 758.436837 454.852556 
L 760.266679 378.833939 
L 762.09652 403.0686 
L 763.926362 432.772193 
L 765.756203 453.93383 
L 767.586045 465.356111 
L 769.415886 508.013794 
L 771.245728 508.797724 
L 773.075569 478.891983 
L 774.905411 484.301722 
L 776.735252 511.756166 
L 778.565094 502.438187 
L 780.394935 487.81265 
L 782.224777 515.014143 
L 784.054618 449.181384 
L 785.88446 467.630338 
L 787.714301 472.764076 
L 789.544143 476.878775 
L 791.373984 525.878408 
L 793.203826 521.978005 
L 795.033667 526.031874 
L 796.863509 499.989081 
L 798.69335 506.886143 
L 800.523192 489.726559 
L 802.353033 503.789124 
L 804.182875 528.176145 
L 806.012716 505.743002 
L 807.842558 526.077421 
L 809.672399 529.717544 
L 811.502241 543.823465 
L 813.332082 541.882841 
L 815.161924 553.231593 
L 816.991765 577.174614 
L 818.821607 561.552568 
L 820.651448 599.666235 
L 822.48129 614.927192 
L 824.311131 651.606631 
L 826.140973 704.406564 
L 827.970814 664.565568 
L 829.800656 713.401886 
L 831.630497 724.52937 
L 833.460339 689.469595 
L 835.29018 680.692138 
L 837.120022 699.764409 
L 838.949863 713.148233 
L 840.779705 714.739994 
L 842.609546 731.768547 
L 844.439388 736.516868 
L 846.269229 738.72 
L 848.099071 705.834922 
L 849.928912 715.478331 
L 851.758754 644.073285 
L 853.588595 653.566732 
L 855.418437 672.962015 
L 857.248278 672.576256 
L 859.07812 694.555539 
L 860.907961 712.814627 
L 862.737803 723.998397 
L 864.567644 700.879207 
L 866.397486 692.158036 
L 868.227327 663.177181 
L 870.057169 661.231232 
L 871.88701 659.638213 
L 873.716852 503.29703 
L 875.546693 485.643001 
L 877.376535 459.277692 
L 879.206376 377.990494 
L 881.036218 334.669548 
L 882.866059 330.751189 
L 884.695901 277.386604 
L 886.525742 206.031921 
L 888.355584 214.821018 
L 890.185425 180.879732 
L 892.015267 133.92 
L 893.845108 156.136082 
L 895.67495 145.084997 
L 897.504791 167.44528 
L 899.334633 191.541272 
L 901.164474 173.432836 
L 902.994316 217.042437 
L 904.824157 215.261549 
L 906.653999 184.156702 
L 908.48384 180.549288 
L 910.313682 168.366956 
L 912.143523 196.317874 
L 913.973365 189.197457 
L 915.803206 207.765049 
L 917.633048 221.285617 
L 919.462889 220.220846 
L 921.292731 237.616392 
L 923.122572 259.411857 
L 924.952414 228.696463 
L 926.782255 235.612196 
L 928.612097 205.518967 
L 930.441938 199.206682 
L 932.27178 190.915649 
L 934.101621 150.476619 
L 935.931463 172.520148 
L 937.761304 178.982626 
L 939.591146 139.696649 
L 941.420987 152.656364 
L 945.08067 248.799783 
L 946.910512 203.344247 
L 948.740353 221.276858 
L 950.570195 227.865695 
L 952.400036 168.003919 
L 954.229878 181.139091 
L 956.059719 189.034863 
L 957.889561 183.92021 
L 959.719402 190.71138 
L 961.549244 280.508217 
L 963.379085 228.96329 
L 965.208927 408.395728 
L 967.038768 491.686338 
L 970.698451 588.97261 
L 972.528293 579.227181 
L 974.358134 584.86395 
L 976.187976 597.092071 
L 979.847659 629.811534 
L 981.6775 635.935373 
L 983.507342 629.834285 
L 985.337183 620.874652 
L 987.167025 606.458616 
L 988.996866 589.572324 
L 990.826708 608.030821 
L 992.656549 619.627452 
L 994.486391 598.377119 
L 996.316232 592.164341 
L 998.146074 588.843899 
L 999.975915 613.785849 
L 1001.805757 597.042502 
L 1003.635598 606.814876 
L 1005.46544 636.871756 
L 1007.295281 653.076897 
L 1009.125123 705.789007 
L 1010.954964 705.925705 
L 1012.784806 666.239222 
L 1014.614647 662.804135 
L 1016.444489 670.699382 
L 1018.27433 660.75192 
L 1020.104172 668.573286 
L 1021.934013 678.535927 
L 1023.763855 691.358798 
L 1025.593696 703.270617 
L 1027.423538 687.119165 
L 1029.253379 631.067781 
L 1031.083221 649.286489 
L 1032.913062 648.131523 
L 1034.742904 643.342163 
L 1036.572745 669.212894 
L 1038.402587 662.352845 
L 1040.232428 664.433215 
L 1042.06227 591.481774 
L 1043.892111 569.713772 
L 1045.721953 599.811266 
L 1047.551794 608.554597 
L 1049.381636 619.282267 
L 1051.211478 533.699889 
L 1053.041319 523.136589 
L 1054.871161 441.002696 
L 1056.701002 372.11699 
L 1058.530844 322.817246 
L 1060.360685 331.518154 
L 1062.190527 236.141977 
L 1064.020368 206.492275 
L 1065.85021 228.087575 
L 1067.680051 213.580468 
L 1069.509893 187.046433 
L 1071.339734 170.971697 
L 1073.169576 156.147422 
L 1074.999417 139.095689 
L 1076.829259 139.704762 
L 1078.6591 158.54983 
L 1080.488942 190.358347 
L 1082.318783 262.543566 
L 1084.148625 230.328402 
L 1085.978466 274.879595 
L 1087.808308 303.477756 
L 1089.638149 234.293414 
L 1091.467991 255.660011 
L 1093.297832 243.350997 
L 1095.127674 235.694438 
L 1096.957515 250.779223 
L 1098.787357 239.757413 
L 1100.617198 246.521938 
L 1102.44704 218.230479 
L 1104.276881 194.270113 
L 1106.106723 188.913942 
L 1107.936564 145.567848 
L 1109.766406 151.263361 
L 1111.596247 169.744654 
L 1113.426089 206.224849 
L 1115.25593 168.654297 
L 1117.085772 184.619131 
L 1118.915613 230.687336 
L 1120.745455 252.628754 
L 1120.745455 252.628754 
" clip-path="url(#pbb83755f34)" style="fill: none; stroke: #ff6347; stroke-linecap: square"/>
   </g>
   <g id="line2d_15">
    <path d="M 207.654545 738.72 
L 1120.745455 738.72 
L 1120.745455 738.72 
" clip-path="url(#pbb83755f34)" style="fill: none; stroke: #da70d6; stroke-linecap: square"/>
   </g>
   <g id="line2d_16">
    <path d="M 207.654545 223.333054 
L 209.484387 218.02515 
L 211.314228 214.408516 
L 213.14407 228.759712 
L 214.973911 256.155678 
L 216.803753 220.01275 
L 218.633594 230.140775 
L 220.463436 216.129704 
L 222.293277 213.558985 
L 224.123119 208.875966 
L 225.95296 224.140634 
L 227.782802 216.077012 
L 229.612643 258.294717 
L 231.442485 225.689915 
L 233.272326 232.005657 
L 235.102168 292.007716 
L 236.932009 221.219279 
L 238.761851 238.257366 
L 240.591692 265.9114 
L 242.421534 241.818681 
L 244.251375 249.166831 
L 246.081217 278.739592 
L 247.911058 234.72219 
L 249.7409 282.578566 
L 251.570741 343.399038 
L 253.400583 266.836073 
L 255.230424 292.731762 
L 257.060266 308.979188 
L 258.890107 344.832793 
L 260.719949 298.995687 
L 262.54979 439.33722 
L 264.379632 450.853914 
L 266.209473 449.781398 
L 268.039315 515.364641 
L 269.869156 520.938496 
L 271.698998 560.550193 
L 273.528839 546.681433 
L 275.358681 559.384832 
L 277.188522 568.319628 
L 279.018364 553.640454 
L 280.848206 604.093895 
L 282.678047 580.820073 
L 284.507889 571.991629 
L 286.33773 567.971574 
L 288.167572 563.60752 
L 289.997413 572.503477 
L 291.827255 589.023124 
L 293.657096 600.806587 
L 295.486938 596.826443 
L 297.316779 599.51036 
L 299.146621 557.385408 
L 300.976462 540.890309 
L 302.806304 577.503549 
L 304.636145 556.919475 
L 306.465987 562.660696 
L 308.295828 562.335991 
L 310.12567 581.912734 
L 311.955511 581.478058 
L 313.785353 579.811959 
L 315.615194 592.763099 
L 317.445036 558.285302 
L 319.274877 545.440791 
L 321.104719 512.475372 
L 322.93456 547.546222 
L 324.764402 487.72015 
L 326.594243 493.137634 
L 328.424085 510.303441 
L 330.253926 513.740263 
L 332.083768 501.365649 
L 333.913609 553.302933 
L 335.743451 540.761022 
L 337.573292 562.741302 
L 339.403134 522.207121 
L 341.232975 572.19138 
L 343.062817 523.790079 
L 344.892658 563.759604 
L 346.7225 597.717048 
L 348.552341 383.216479 
L 350.382183 402.736012 
L 352.212024 320.696601 
L 354.041866 307.778146 
L 355.871707 301.056678 
L 357.701549 341.898345 
L 359.53139 234.493672 
L 361.361232 246.821726 
L 363.191073 221.276811 
L 365.020915 223.719557 
L 366.850756 196.739643 
L 368.680598 289.762463 
L 370.510439 278.529929 
L 372.340281 273.767572 
L 374.170122 320.076695 
L 375.999964 242.766127 
L 377.829805 237.701031 
L 379.659647 226.36339 
L 383.31933 207.363565 
L 385.149171 214.143763 
L 386.979013 290.602266 
L 388.808854 270.374291 
L 390.638696 264.447772 
L 392.468537 407.462872 
L 394.298379 233.710756 
L 396.12822 312.542163 
L 397.958062 325.953796 
L 399.787903 227.644369 
L 401.617745 227.743992 
L 403.447586 318.743346 
L 405.277428 249.819883 
L 407.107269 348.594688 
L 408.937111 413.525202 
L 410.766952 281.854613 
L 412.596794 254.577723 
L 414.426635 258.981699 
L 416.256477 266.793246 
L 418.086318 269.905086 
L 419.91616 286.013337 
L 421.746001 251.190712 
L 423.575843 256.985109 
L 425.405684 249.460396 
L 427.235526 236.081355 
L 429.065367 244.52189 
L 430.895209 270.961882 
L 432.72505 274.204138 
L 434.554892 283.567503 
L 436.384733 330.817527 
L 438.214575 392.401183 
L 440.044416 395.854762 
L 441.874258 407.774692 
L 443.704099 405.882197 
L 445.533941 385.996906 
L 447.363782 454.922743 
L 449.193624 430.659615 
L 451.023465 417.875518 
L 452.853307 385.79976 
L 454.683148 441.475982 
L 456.51299 506.011696 
L 458.342831 468.692504 
L 460.172673 486.645998 
L 462.002514 459.194919 
L 463.832356 426.502528 
L 465.662197 387.130435 
L 469.32188 365.566991 
L 471.151722 368.732123 
L 472.981563 446.131018 
L 474.811405 439.612091 
L 476.641246 355.364515 
L 478.471088 379.223876 
L 480.300929 327.974449 
L 482.130771 335.232336 
L 483.960612 322.320888 
L 485.790454 314.641232 
L 487.620295 331.819325 
L 489.450137 288.077693 
L 491.279978 301.121034 
L 493.10982 290.234526 
L 494.939661 321.456974 
L 496.769503 350.482574 
L 500.429186 294.706776 
L 502.259027 306.519709 
L 504.088869 356.616982 
L 505.91871 393.250506 
L 507.748552 340.485013 
L 509.578393 380.236946 
L 511.408235 401.332452 
L 513.238076 478.96496 
L 515.067918 536.135512 
L 516.897759 512.598759 
L 518.727601 501.0258 
L 520.557442 478.729735 
L 522.387284 503.494038 
L 524.217125 465.773938 
L 526.046967 434.450485 
L 527.876808 468.777996 
L 529.70665 518.519378 
L 531.536491 501.580013 
L 533.366333 501.816322 
L 535.196174 492.231309 
L 537.026016 457.973916 
L 538.855857 454.756345 
L 540.685699 432.488309 
L 542.51554 407.513052 
L 544.345382 457.575059 
L 546.175223 443.095704 
L 548.005065 461.799521 
L 549.834906 454.649923 
L 551.664748 411.330844 
L 553.494589 401.556222 
L 555.324431 493.867166 
L 557.154272 430.573362 
L 558.984114 486.777683 
L 560.813955 507.017366 
L 562.643797 499.171175 
L 564.473638 518.585831 
L 566.30348 496.710681 
L 568.133321 496.922027 
L 569.963163 482.428796 
L 571.793004 516.30024 
L 573.622846 514.639835 
L 575.452687 532.178752 
L 577.282529 517.487545 
L 579.11237 497.972991 
L 580.942212 492.420687 
L 582.772053 540.410662 
L 584.601895 441.533952 
L 586.431736 447.962109 
L 588.261578 454.97396 
L 590.091419 470.354892 
L 591.921261 506.111225 
L 593.751102 503.073998 
L 595.580944 491.247028 
L 597.410785 474.782471 
L 599.240627 445.792921 
L 601.070468 470.453177 
L 602.90031 502.872103 
L 604.730151 453.93323 
L 606.559993 483.826363 
L 608.389834 444.30592 
L 610.219676 399.574868 
L 612.049517 444.996844 
L 613.879359 420.081309 
L 615.7092 433.687438 
L 617.539042 463.681045 
L 619.368883 466.740908 
L 621.198725 425.948083 
L 623.028566 402.458767 
L 624.858408 346.882582 
L 626.688249 382.000731 
L 628.518091 359.926706 
L 630.347932 388.03441 
L 632.177774 402.348035 
L 634.007615 438.015903 
L 635.837457 447.647223 
L 637.667298 438.055595 
L 639.49714 454.774716 
L 641.326981 524.736995 
L 643.156823 450.352139 
L 644.986664 425.083156 
L 646.816506 364.24028 
L 648.646347 322.992288 
L 650.476189 362.922789 
L 652.30603 365.519093 
L 654.135872 369.853504 
L 655.965713 338.068084 
L 657.795555 345.607549 
L 659.625396 301.846878 
L 661.455238 298.246424 
L 663.285079 359.238871 
L 665.114921 292.876562 
L 666.944762 359.850641 
L 668.774604 345.760048 
L 670.604445 316.758235 
L 672.434287 342.017283 
L 674.264128 258.104601 
L 676.09397 260.796009 
L 677.923811 285.709815 
L 679.753653 265.001663 
L 681.583494 268.535179 
L 683.413336 266.059288 
L 685.243177 239.559459 
L 687.073019 263.913012 
L 688.90286 276.312336 
L 690.732702 287.739366 
L 692.562543 302.415429 
L 694.392385 283.639926 
L 696.222226 364.210661 
L 698.052068 385.387718 
L 699.881909 475.031826 
L 701.711751 523.237801 
L 703.541592 473.403529 
L 705.371434 516.640158 
L 707.201275 555.237495 
L 709.031117 576.281508 
L 710.860958 589.274991 
L 712.6908 569.302987 
L 714.520641 578.339871 
L 716.350483 565.215718 
L 718.180324 564.739989 
L 720.010166 559.396311 
L 721.840007 541.433897 
L 723.669849 531.393439 
L 725.49969 484.987759 
L 727.329532 522.744232 
L 729.159373 553.828242 
L 730.989215 570.813429 
L 732.819056 534.37885 
L 734.648898 521.935408 
L 736.478739 524.549184 
L 738.308581 542.75768 
L 740.138422 585.24378 
L 741.968264 476.153807 
L 743.798105 538.204801 
L 745.627947 540.024252 
L 747.457788 527.131589 
L 749.28763 593.045277 
L 751.117471 538.140838 
L 752.947313 558.765548 
L 754.777154 558.949603 
L 756.606996 551.615927 
L 758.436837 532.671422 
L 760.266679 397.355086 
L 762.09652 436.895973 
L 765.756203 519.464865 
L 767.586045 534.171677 
L 769.415886 560.161709 
L 771.245728 557.296665 
L 773.075569 523.477567 
L 774.905411 538.282941 
L 776.735252 555.774006 
L 778.565094 555.82255 
L 780.394935 538.929424 
L 782.224777 555.963362 
L 784.054618 489.179652 
L 785.88446 496.60744 
L 787.714301 518.663394 
L 789.544143 533.592822 
L 791.373984 583.254566 
L 793.203826 577.963465 
L 795.033667 580.8431 
L 796.863509 568.937714 
L 800.523192 519.190017 
L 802.353033 547.348085 
L 804.182875 572.465399 
L 806.012716 542.558275 
L 807.842558 558.303696 
L 809.672399 546.941229 
L 811.502241 589.9451 
L 813.332082 595.07356 
L 815.161924 604.180678 
L 816.991765 621.25009 
L 818.821607 606.877019 
L 820.651448 634.461119 
L 822.48129 644.596849 
L 824.311131 648.165291 
L 826.140973 640.871424 
L 827.970814 636.407967 
L 829.800656 671.436936 
L 831.630497 681.868845 
L 833.460339 685.752883 
L 835.29018 711.112498 
L 837.120022 703.136426 
L 838.949863 696.457803 
L 840.779705 698.765331 
L 842.609546 690.002211 
L 844.439388 695.692575 
L 846.269229 706.138534 
L 848.099071 695.17459 
L 849.928912 700.835951 
L 851.758754 687.691277 
L 853.588595 708.949661 
L 855.418437 714.36443 
L 857.248278 715.582144 
L 859.07812 728.60992 
L 860.907961 734.925431 
L 862.737803 736.901526 
L 864.567644 712.250663 
L 866.397486 691.61288 
L 868.227327 674.422577 
L 870.057169 678.587686 
L 871.88701 687.820518 
L 873.716852 571.570045 
L 875.546693 540.134753 
L 877.376535 470.038323 
L 879.206376 339.031849 
L 881.036218 458.003143 
L 882.866059 351.701734 
L 884.695901 289.673305 
L 886.525742 240.574258 
L 888.355584 270.530201 
L 890.185425 250.398853 
L 892.015267 208.579221 
L 893.845108 217.967295 
L 895.67495 203.416946 
L 897.504791 219.774782 
L 899.334633 244.484549 
L 901.164474 227.766857 
L 902.994316 280.366644 
L 904.824157 275.79302 
L 906.653999 251.193432 
L 908.48384 245.975146 
L 910.313682 223.625052 
L 912.143523 251.432829 
L 913.973365 244.869991 
L 915.803206 255.322514 
L 917.633048 276.687774 
L 919.462889 278.624342 
L 921.292731 288.21249 
L 923.122572 289.155003 
L 924.952414 256.313709 
L 926.782255 259.193205 
L 928.612097 231.825775 
L 930.441938 218.916216 
L 932.27178 245.513823 
L 934.101621 225.986937 
L 935.931463 220.100617 
L 937.761304 222.549908 
L 939.591146 206.456916 
L 941.420987 213.26685 
L 943.250829 226.188579 
L 945.08067 261.405727 
L 946.910512 291.356784 
L 948.740353 301.459039 
L 950.570195 297.306815 
L 952.400036 252.932737 
L 954.229878 266.075562 
L 956.059719 275.692476 
L 957.889561 273.586906 
L 959.719402 277.010843 
L 961.549244 370.26278 
L 963.379085 366.012778 
L 965.208927 461.458289 
L 967.038768 459.114152 
L 968.86861 485.707218 
L 970.698451 560.603946 
L 972.528293 565.46007 
L 974.358134 604.804849 
L 976.187976 605.916065 
L 978.017817 588.428227 
L 979.847659 591.908291 
L 981.6775 605.890733 
L 983.507342 596.992794 
L 985.337183 602.816903 
L 987.167025 609.3619 
L 988.996866 580.520769 
L 990.826708 623.882491 
L 992.656549 630.844243 
L 994.486391 617.686309 
L 996.316232 630.219438 
L 998.146074 630.746234 
L 999.975915 628.933618 
L 1001.805757 632.268144 
L 1003.635598 610.790123 
L 1005.46544 624.519742 
L 1007.295281 657.881252 
L 1009.125123 709.728551 
L 1010.954964 724.015315 
L 1012.784806 692.240482 
L 1014.614647 676.388245 
L 1016.444489 680.053573 
L 1018.27433 662.847111 
L 1020.104172 680.536942 
L 1021.934013 693.781697 
L 1023.763855 700.385036 
L 1025.593696 698.820654 
L 1027.423538 690.041788 
L 1029.253379 653.995266 
L 1031.083221 673.213317 
L 1032.913062 679.588562 
L 1034.742904 686.674554 
L 1036.572745 712.947453 
L 1038.402587 712.705428 
L 1040.232428 699.33748 
L 1042.06227 618.45067 
L 1043.892111 578.276023 
L 1045.721953 621.369259 
L 1047.551794 646.402884 
L 1049.381636 677.571712 
L 1051.211478 597.428992 
L 1054.871161 469.998931 
L 1056.701002 360.696714 
L 1058.530844 333.574028 
L 1060.360685 324.290371 
L 1062.190527 258.063203 
L 1064.020368 242.052177 
L 1065.85021 270.877519 
L 1067.680051 269.266371 
L 1069.509893 247.625432 
L 1071.339734 245.8959 
L 1073.169576 211.311566 
L 1074.999417 190.190174 
L 1078.6591 196.777629 
L 1080.488942 248.631518 
L 1082.318783 313.817057 
L 1084.148625 280.656244 
L 1085.978466 311.993711 
L 1087.808308 334.798305 
L 1089.638149 286.487475 
L 1091.467991 317.170876 
L 1093.297832 308.395701 
L 1095.127674 297.341297 
L 1096.957515 302.513253 
L 1098.787357 284.416296 
L 1100.617198 273.71345 
L 1102.44704 251.075923 
L 1104.276881 220.954296 
L 1106.106723 215.66852 
L 1107.936564 209.820324 
L 1109.766406 210.843374 
L 1111.596247 206.809351 
L 1113.426089 240.236898 
L 1115.25593 224.650684 
L 1117.085772 226.738136 
L 1118.915613 250.863725 
L 1120.745455 261.047991 
L 1120.745455 261.047991 
" clip-path="url(#pbb83755f34)" style="fill: none; stroke: #8fbc8f; stroke-linecap: square"/>
   </g>
   <g id="patch_3">
    <path d="M 162 768.96 
L 162 103.68 
" style="fill: none; stroke: #000000; stroke-width: 0.8; stroke-linejoin: miter; stroke-linecap: square"/>
   </g>
   <g id="patch_4">
    <path d="M 1166.4 768.96 
L 1166.4 103.68 
" style="fill: none; stroke: #000000; stroke-width: 0.8; stroke-linejoin: miter; stroke-linecap: square"/>
   </g>
   <g id="patch_5">
    <path d="M 162 768.96 
L 1166.4 768.96 
" style="fill: none; stroke: #000000; stroke-width: 0.8; stroke-linejoin: miter; stroke-linecap: square"/>
   </g>
   <g id="patch_6">
    <path d="M 162 103.68 
L 1166.4 103.68 
" style="fill: none; stroke: #000000; stroke-width: 0.8; stroke-linejoin: miter; stroke-linecap: square"/>
   </g>
   <g id="text_13">
    <!-- Function 1 -->
    <g transform="translate(632.957813 97.68) scale(0.12 -0.12)">
     <defs>
      <path id="DejaVuSans-46" d="M 628 4666 
L 3309 4666 
L 3309 4134 
L 1259 4134 
L 1259 2759 
L 3109 2759 
L 3109 2228 
L 1259 2228 
L 1259 0 
L 628 0 
L 628 4666 
z
" transform="scale(0.015625)"/>
      <path id="DejaVuSans-75" d="M 544 1381 
L 544 3500 
L 1119 3500 
L 1119 1403 
Q 1119 906 1312 657 
Q 1506 409 1894 409 
Q 2359 409 2629 706 
Q 2900 1003 2900 1516 
L 2900 3500 
L 3475 3500 
L 3475 0 
L 2900 0 
L 2900 538 
Q 2691 219 2414 64 
Q 2138 -91 1772 -91 
Q 1169 -91 856 284 
Q 544 659 544 1381 
z
M 1991 3584 
L 1991 3584 
z
" transform="scale(0.015625)"/>
      <path id="DejaVuSans-6e" d="M 3513 2113 
L 3513 0 
L 2938 0 
L 2938 2094 
Q 2938 2591 2744 2837 
Q 2550 3084 2163 3084 
Q 1697 3084 1428 2787 
Q 1159 2491 1159 1978 
L 1159 0 
L 581 0 
L 581 3500 
L 1159 3500 
L 1159 2956 
Q 1366 3272 1645 3428 
Q 1925 3584 2291 3584 
Q 2894 3584 3203 3211 
Q 3513 2838 3513 2113 
z
" transform="scale(0.015625)"/>
      <path id="DejaVuSans-63" d="M 3122 3366 
L 3122 2828 
Q 2878 2963 2633 3030 
Q 2388 3097 2138 3097 
Q 1578 3097 1268 2742 
Q 959 2388 959 1747 
Q 959 1106 1268 751 
Q 1578 397 2138 397 
Q 2388 397 2633 464 
Q 2878 531 3122 666 
L 3122 134 
Q 2881 22 2623 -34 
Q 2366 -91 2075 -91 
Q 1284 -91 818 406 
Q 353 903 353 1747 
Q 353 2603 823 3093 
Q 1294 3584 2113 3584 
Q 2378 3584 2631 3529 
Q 2884 3475 3122 3366 
z
" transform="scale(0.015625)"/>
      <path id="DejaVuSans-74" d="M 1172 4494 
L 1172 3500 
L 2356 3500 
L 2356 3053 
L 1172 3053 
L 1172 1153 
Q 1172 725 1289 603 
Q 1406 481 1766 481 
L 2356 481 
L 2356 0 
L 1766 0 
Q 1100 0 847 248 
Q 594 497 594 1153 
L 594 3053 
L 172 3053 
L 172 3500 
L 594 3500 
L 594 4494 
L 1172 4494 
z
" transform="scale(0.015625)"/>
      <path id="DejaVuSans-69" d="M 603 3500 
L 1178 3500 
L 1178 0 
L 603 0 
L 603 3500 
z
M 603 4863 
L 1178 4863 
L 1178 4134 
L 603 4134 
L 603 4863 
z
" transform="scale(0.015625)"/>
      <path id="DejaVuSans-6f" d="M 1959 3097 
Q 1497 3097 1228 2736 
Q 959 2375 959 1747 
Q 959 1119 1226 758 
Q 1494 397 1959 397 
Q 2419 397 2687 759 
Q 2956 1122 2956 1747 
Q 2956 2369 2687 2733 
Q 2419 3097 1959 3097 
z
M 1959 3584 
Q 2709 3584 3137 3096 
Q 3566 2609 3566 1747 
Q 3566 888 3137 398 
Q 2709 -91 1959 -91 
Q 1206 -91 779 398 
Q 353 888 353 1747 
Q 353 2609 779 3096 
Q 1206 3584 1959 3584 
z
" transform="scale(0.015625)"/>
      <path id="DejaVuSans-20" transform="scale(0.015625)"/>
     </defs>
     <use xlink:href="#DejaVuSans-46"/>
     <use xlink:href="#DejaVuSans-75" x="52.019531"/>
     <use xlink:href="#DejaVuSans-6e" x="115.398438"/>
     <use xlink:href="#DejaVuSans-63" x="178.777344"/>
     <use xlink:href="#DejaVuSans-74" x="233.757812"/>
     <use xlink:href="#DejaVuSans-69" x="272.966797"/>
     <use xlink:href="#DejaVuSans-6f" x="300.75"/>
     <use xlink:href="#DejaVuSans-6e" x="361.931641"/>
     <use xlink:href="#DejaVuSans-20" x="425.310547"/>
     <use xlink:href="#DejaVuSans-31" x="457.097656"/>
    </g>
   </g>
   <g id="legend_1">
    <g id="patch_7">
     <path d="M 1011.90625 467.17625 
L 1159.4 467.17625 
Q 1161.4 467.17625 1161.4 465.17625 
L 1161.4 407.46375 
Q 1161.4 405.46375 1159.4 405.46375 
L 1011.90625 405.46375 
Q 1009.90625 405.46375 1009.90625 407.46375 
L 1009.90625 465.17625 
Q 1009.90625 467.17625 1011.90625 467.17625 
z
" style="fill: #ffffff; opacity: 0.8; stroke: #cccccc; stroke-linejoin: miter"/>
    </g>
    <g id="line2d_17">
     <path d="M 1013.90625 413.562187 
L 1023.90625 413.562187 
L 1033.90625 413.562187 
" style="fill: none; stroke: #4169e1; stroke-linecap: square"/>
    </g>
    <g id="text_14">
     <!-- Truth -->
     <g transform="translate(1041.90625 417.062187) scale(0.1 -0.1)">
      <defs>
       <path id="DejaVuSans-54" d="M -19 4666 
L 3928 4666 
L 3928 4134 
L 2272 4134 
L 2272 0 
L 1638 0 
L 1638 4134 
L -19 4134 
L -19 4666 
z
" transform="scale(0.015625)"/>
       <path id="DejaVuSans-72" d="M 2631 2963 
Q 2534 3019 2420 3045 
Q 2306 3072 2169 3072 
Q 1681 3072 1420 2755 
Q 1159 2438 1159 1844 
L 1159 0 
L 581 0 
L 581 3500 
L 1159 3500 
L 1159 2956 
Q 1341 3275 1631 3429 
Q 1922 3584 2338 3584 
Q 2397 3584 2469 3576 
Q 2541 3569 2628 3553 
L 2631 2963 
z
" transform="scale(0.015625)"/>
       <path id="DejaVuSans-68" d="M 3513 2113 
L 3513 0 
L 2938 0 
L 2938 2094 
Q 2938 2591 2744 2837 
Q 2550 3084 2163 3084 
Q 1697 3084 1428 2787 
Q 1159 2491 1159 1978 
L 1159 0 
L 581 0 
L 581 4863 
L 1159 4863 
L 1159 2956 
Q 1366 3272 1645 3428 
Q 1925 3584 2291 3584 
Q 2894 3584 3203 3211 
Q 3513 2838 3513 2113 
z
" transform="scale(0.015625)"/>
      </defs>
      <use xlink:href="#DejaVuSans-54"/>
      <use xlink:href="#DejaVuSans-72" x="46.333984"/>
      <use xlink:href="#DejaVuSans-75" x="87.447266"/>
      <use xlink:href="#DejaVuSans-74" x="150.826172"/>
      <use xlink:href="#DejaVuSans-68" x="190.035156"/>
     </g>
    </g>
    <g id="line2d_18">
     <path d="M 1013.90625 428.240313 
L 1023.90625 428.240313 
L 1033.90625 428.240313 
" style="fill: none; stroke: #ff6347; stroke-linecap: square"/>
    </g>
    <g id="text_15">
     <!-- Gossip predictions -->
     <g transform="translate(1041.90625 431.740313) scale(0.1 -0.1)">
      <defs>
       <path id="DejaVuSans-47" d="M 3809 666 
L 3809 1919 
L 2778 1919 
L 2778 2438 
L 4434 2438 
L 4434 434 
Q 4069 175 3628 42 
Q 3188 -91 2688 -91 
Q 1594 -91 976 548 
Q 359 1188 359 2328 
Q 359 3472 976 4111 
Q 1594 4750 2688 4750 
Q 3144 4750 3555 4637 
Q 3966 4525 4313 4306 
L 4313 3634 
Q 3963 3931 3569 4081 
Q 3175 4231 2741 4231 
Q 1884 4231 1454 3753 
Q 1025 3275 1025 2328 
Q 1025 1384 1454 906 
Q 1884 428 2741 428 
Q 3075 428 3337 486 
Q 3600 544 3809 666 
z
" transform="scale(0.015625)"/>
       <path id="DejaVuSans-73" d="M 2834 3397 
L 2834 2853 
Q 2591 2978 2328 3040 
Q 2066 3103 1784 3103 
Q 1356 3103 1142 2972 
Q 928 2841 928 2578 
Q 928 2378 1081 2264 
Q 1234 2150 1697 2047 
L 1894 2003 
Q 2506 1872 2764 1633 
Q 3022 1394 3022 966 
Q 3022 478 2636 193 
Q 2250 -91 1575 -91 
Q 1294 -91 989 -36 
Q 684 19 347 128 
L 347 722 
Q 666 556 975 473 
Q 1284 391 1588 391 
Q 1994 391 2212 530 
Q 2431 669 2431 922 
Q 2431 1156 2273 1281 
Q 2116 1406 1581 1522 
L 1381 1569 
Q 847 1681 609 1914 
Q 372 2147 372 2553 
Q 372 3047 722 3315 
Q 1072 3584 1716 3584 
Q 2034 3584 2315 3537 
Q 2597 3491 2834 3397 
z
" transform="scale(0.015625)"/>
       <path id="DejaVuSans-70" d="M 1159 525 
L 1159 -1331 
L 581 -1331 
L 581 3500 
L 1159 3500 
L 1159 2969 
Q 1341 3281 1617 3432 
Q 1894 3584 2278 3584 
Q 2916 3584 3314 3078 
Q 3713 2572 3713 1747 
Q 3713 922 3314 415 
Q 2916 -91 2278 -91 
Q 1894 -91 1617 61 
Q 1341 213 1159 525 
z
M 3116 1747 
Q 3116 2381 2855 2742 
Q 2594 3103 2138 3103 
Q 1681 3103 1420 2742 
Q 1159 2381 1159 1747 
Q 1159 1113 1420 752 
Q 1681 391 2138 391 
Q 2594 391 2855 752 
Q 3116 1113 3116 1747 
z
" transform="scale(0.015625)"/>
       <path id="DejaVuSans-65" d="M 3597 1894 
L 3597 1613 
L 953 1613 
Q 991 1019 1311 708 
Q 1631 397 2203 397 
Q 2534 397 2845 478 
Q 3156 559 3463 722 
L 3463 178 
Q 3153 47 2828 -22 
Q 2503 -91 2169 -91 
Q 1331 -91 842 396 
Q 353 884 353 1716 
Q 353 2575 817 3079 
Q 1281 3584 2069 3584 
Q 2775 3584 3186 3129 
Q 3597 2675 3597 1894 
z
M 3022 2063 
Q 3016 2534 2758 2815 
Q 2500 3097 2075 3097 
Q 1594 3097 1305 2825 
Q 1016 2553 972 2059 
L 3022 2063 
z
" transform="scale(0.015625)"/>
       <path id="DejaVuSans-64" d="M 2906 2969 
L 2906 4863 
L 3481 4863 
L 3481 0 
L 2906 0 
L 2906 525 
Q 2725 213 2448 61 
Q 2172 -91 1784 -91 
Q 1150 -91 751 415 
Q 353 922 353 1747 
Q 353 2572 751 3078 
Q 1150 3584 1784 3584 
Q 2172 3584 2448 3432 
Q 2725 3281 2906 2969 
z
M 947 1747 
Q 947 1113 1208 752 
Q 1469 391 1925 391 
Q 2381 391 2643 752 
Q 2906 1113 2906 1747 
Q 2906 2381 2643 2742 
Q 2381 3103 1925 3103 
Q 1469 3103 1208 2742 
Q 947 2381 947 1747 
z
" transform="scale(0.015625)"/>
      </defs>
      <use xlink:href="#DejaVuSans-47"/>
      <use xlink:href="#DejaVuSans-6f" x="77.490234"/>
      <use xlink:href="#DejaVuSans-73" x="138.671875"/>
      <use xlink:href="#DejaVuSans-73" x="190.771484"/>
      <use xlink:href="#DejaVuSans-69" x="242.871094"/>
      <use xlink:href="#DejaVuSans-70" x="270.654297"/>
      <use xlink:href="#DejaVuSans-20" x="334.130859"/>
      <use xlink:href="#DejaVuSans-70" x="365.917969"/>
      <use xlink:href="#DejaVuSans-72" x="429.394531"/>
      <use xlink:href="#DejaVuSans-65" x="468.257812"/>
      <use xlink:href="#DejaVuSans-64" x="529.78125"/>
      <use xlink:href="#DejaVuSans-69" x="593.257812"/>
      <use xlink:href="#DejaVuSans-63" x="621.041016"/>
      <use xlink:href="#DejaVuSans-74" x="676.021484"/>
      <use xlink:href="#DejaVuSans-69" x="715.230469"/>
      <use xlink:href="#DejaVuSans-6f" x="743.013672"/>
      <use xlink:href="#DejaVuSans-6e" x="804.195312"/>
      <use xlink:href="#DejaVuSans-73" x="867.574219"/>
     </g>
    </g>
    <g id="line2d_19">
     <path d="M 1013.90625 442.918437 
L 1023.90625 442.918437 
L 1033.90625 442.918437 
" style="fill: none; stroke: #da70d6; stroke-linecap: square"/>
    </g>
    <g id="text_16">
     <!-- Centralized predictions -->
     <g transform="translate(1041.90625 446.418437) scale(0.1 -0.1)">
      <defs>
       <path id="DejaVuSans-43" d="M 4122 4306 
L 4122 3641 
Q 3803 3938 3442 4084 
Q 3081 4231 2675 4231 
Q 1875 4231 1450 3742 
Q 1025 3253 1025 2328 
Q 1025 1406 1450 917 
Q 1875 428 2675 428 
Q 3081 428 3442 575 
Q 3803 722 4122 1019 
L 4122 359 
Q 3791 134 3420 21 
Q 3050 -91 2638 -91 
Q 1578 -91 968 557 
Q 359 1206 359 2328 
Q 359 3453 968 4101 
Q 1578 4750 2638 4750 
Q 3056 4750 3426 4639 
Q 3797 4528 4122 4306 
z
" transform="scale(0.015625)"/>
       <path id="DejaVuSans-61" d="M 2194 1759 
Q 1497 1759 1228 1600 
Q 959 1441 959 1056 
Q 959 750 1161 570 
Q 1363 391 1709 391 
Q 2188 391 2477 730 
Q 2766 1069 2766 1631 
L 2766 1759 
L 2194 1759 
z
M 3341 1997 
L 3341 0 
L 2766 0 
L 2766 531 
Q 2569 213 2275 61 
Q 1981 -91 1556 -91 
Q 1019 -91 701 211 
Q 384 513 384 1019 
Q 384 1609 779 1909 
Q 1175 2209 1959 2209 
L 2766 2209 
L 2766 2266 
Q 2766 2663 2505 2880 
Q 2244 3097 1772 3097 
Q 1472 3097 1187 3025 
Q 903 2953 641 2809 
L 641 3341 
Q 956 3463 1253 3523 
Q 1550 3584 1831 3584 
Q 2591 3584 2966 3190 
Q 3341 2797 3341 1997 
z
" transform="scale(0.015625)"/>
       <path id="DejaVuSans-6c" d="M 603 4863 
L 1178 4863 
L 1178 0 
L 603 0 
L 603 4863 
z
" transform="scale(0.015625)"/>
       <path id="DejaVuSans-7a" d="M 353 3500 
L 3084 3500 
L 3084 2975 
L 922 459 
L 3084 459 
L 3084 0 
L 275 0 
L 275 525 
L 2438 3041 
L 353 3041 
L 353 3500 
z
" transform="scale(0.015625)"/>
      </defs>
      <use xlink:href="#DejaVuSans-43"/>
      <use xlink:href="#DejaVuSans-65" x="69.824219"/>
      <use xlink:href="#DejaVuSans-6e" x="131.347656"/>
      <use xlink:href="#DejaVuSans-74" x="194.726562"/>
      <use xlink:href="#DejaVuSans-72" x="233.935547"/>
      <use xlink:href="#DejaVuSans-61" x="275.048828"/>
      <use xlink:href="#DejaVuSans-6c" x="336.328125"/>
      <use xlink:href="#DejaVuSans-69" x="364.111328"/>
      <use xlink:href="#DejaVuSans-7a" x="391.894531"/>
      <use xlink:href="#DejaVuSans-65" x="444.384766"/>
      <use xlink:href="#DejaVuSans-64" x="505.908203"/>
      <use xlink:href="#DejaVuSans-20" x="569.384766"/>
      <use xlink:href="#DejaVuSans-70" x="601.171875"/>
      <use xlink:href="#DejaVuSans-72" x="664.648438"/>
      <use xlink:href="#DejaVuSans-65" x="703.511719"/>
      <use xlink:href="#DejaVuSans-64" x="765.035156"/>
      <use xlink:href="#DejaVuSans-69" x="828.511719"/>
      <use xlink:href="#DejaVuSans-63" x="856.294922"/>
      <use xlink:href="#DejaVuSans-74" x="911.275391"/>
      <use xlink:href="#DejaVuSans-69" x="950.484375"/>
      <use xlink:href="#DejaVuSans-6f" x="978.267578"/>
      <use xlink:href="#DejaVuSans-6e" x="1039.449219"/>
      <use xlink:href="#DejaVuSans-73" x="1102.828125"/>
     </g>
    </g>
    <g id="line2d_20">
     <path d="M 1013.90625 457.596563 
L 1023.90625 457.596563 
L 1033.90625 457.596563 
" style="fill: none; stroke: #8fbc8f; stroke-linecap: square"/>
    </g>
    <g id="text_17">
     <!-- Single predictions -->
     <g transform="translate(1041.90625 461.096563) scale(0.1 -0.1)">
      <defs>
       <path id="DejaVuSans-53" d="M 3425 4513 
L 3425 3897 
Q 3066 4069 2747 4153 
Q 2428 4238 2131 4238 
Q 1616 4238 1336 4038 
Q 1056 3838 1056 3469 
Q 1056 3159 1242 3001 
Q 1428 2844 1947 2747 
L 2328 2669 
Q 3034 2534 3370 2195 
Q 3706 1856 3706 1288 
Q 3706 609 3251 259 
Q 2797 -91 1919 -91 
Q 1588 -91 1214 -16 
Q 841 59 441 206 
L 441 856 
Q 825 641 1194 531 
Q 1563 422 1919 422 
Q 2459 422 2753 634 
Q 3047 847 3047 1241 
Q 3047 1584 2836 1778 
Q 2625 1972 2144 2069 
L 1759 2144 
Q 1053 2284 737 2584 
Q 422 2884 422 3419 
Q 422 4038 858 4394 
Q 1294 4750 2059 4750 
Q 2388 4750 2728 4690 
Q 3069 4631 3425 4513 
z
" transform="scale(0.015625)"/>
       <path id="DejaVuSans-67" d="M 2906 1791 
Q 2906 2416 2648 2759 
Q 2391 3103 1925 3103 
Q 1463 3103 1205 2759 
Q 947 2416 947 1791 
Q 947 1169 1205 825 
Q 1463 481 1925 481 
Q 2391 481 2648 825 
Q 2906 1169 2906 1791 
z
M 3481 434 
Q 3481 -459 3084 -895 
Q 2688 -1331 1869 -1331 
Q 1566 -1331 1297 -1286 
Q 1028 -1241 775 -1147 
L 775 -588 
Q 1028 -725 1275 -790 
Q 1522 -856 1778 -856 
Q 2344 -856 2625 -561 
Q 2906 -266 2906 331 
L 2906 616 
Q 2728 306 2450 153 
Q 2172 0 1784 0 
Q 1141 0 747 490 
Q 353 981 353 1791 
Q 353 2603 747 3093 
Q 1141 3584 1784 3584 
Q 2172 3584 2450 3431 
Q 2728 3278 2906 2969 
L 2906 3500 
L 3481 3500 
L 3481 434 
z
" transform="scale(0.015625)"/>
      </defs>
      <use xlink:href="#DejaVuSans-53"/>
      <use xlink:href="#DejaVuSans-69" x="63.476562"/>
      <use xlink:href="#DejaVuSans-6e" x="91.259766"/>
      <use xlink:href="#DejaVuSans-67" x="154.638672"/>
      <use xlink:href="#DejaVuSans-6c" x="218.115234"/>
      <use xlink:href="#DejaVuSans-65" x="245.898438"/>
      <use xlink:href="#DejaVuSans-20" x="307.421875"/>
      <use xlink:href="#DejaVuSans-70" x="339.208984"/>
      <use xlink:href="#DejaVuSans-72" x="402.685547"/>
      <use xlink:href="#DejaVuSans-65" x="441.548828"/>
      <use xlink:href="#DejaVuSans-64" x="503.072266"/>
      <use xlink:href="#DejaVuSans-69" x="566.548828"/>
      <use xlink:href="#DejaVuSans-63" x="594.332031"/>
      <use xlink:href="#DejaVuSans-74" x="649.3125"/>
      <use xlink:href="#DejaVuSans-69" x="688.521484"/>
      <use xlink:href="#DejaVuSans-6f" x="716.304688"/>
      <use xlink:href="#DejaVuSans-6e" x="777.486328"/>
      <use xlink:href="#DejaVuSans-73" x="840.865234"/>
     </g>
    </g>
   </g>
  </g>
 </g>
 <defs>
  <clipPath id="pbb83755f34">
   <rect x="162" y="103.68" width="1004.4" height="665.28"/>
  </clipPath>
 </defs>
</svg>
