<?xml version="1.0" encoding="utf-8" standalone="no"?>
<!DOCTYPE svg PUBLIC "-//W3C//DTD SVG 1.1//EN"
  "http://www.w3.org/Graphics/SVG/1.1/DTD/svg11.dtd">
<svg xmlns:xlink="http://www.w3.org/1999/xlink" width="1296pt" height="864pt" viewBox="0 0 1296 864" xmlns="http://www.w3.org/2000/svg" version="1.1">
 <metadata>
  <rdf:RDF xmlns:dc="http://purl.org/dc/elements/1.1/" xmlns:cc="http://creativecommons.org/ns#" xmlns:rdf="http://www.w3.org/1999/02/22-rdf-syntax-ns#">
   <cc:Work>
    <dc:type rdf:resource="http://purl.org/dc/dcmitype/StillImage"/>
    <dc:date>2023-12-10T12:42:14.184265</dc:date>
    <dc:format>image/svg+xml</dc:format>
    <dc:creator>
     <cc:Agent>
      <dc:title>Matplotlib v3.8.0, https://matplotlib.org/</dc:title>
     </cc:Agent>
    </dc:creator>
   </cc:Work>
  </rdf:RDF>
 </metadata>
 <defs>
  <style type="text/css">*{stroke-linejoin: round; stroke-linecap: butt}</style>
 </defs>
 <g id="figure_1">
  <g id="patch_1">
   <path d="M 0 864 
L 1296 864 
L 1296 0 
L 0 0 
z
" style="fill: #ffffff"/>
  </g>
  <g id="axes_1">
   <g id="patch_2">
    <path d="M 162 768.96 
L 1166.4 768.96 
L 1166.4 103.68 
L 162 103.68 
z
" style="fill: #ffffff"/>
   </g>
   <g id="matplotlib.axis_1">
    <g id="xtick_1">
     <g id="line2d_1">
      <defs>
       <path id="m7f5d285eaa" d="M 0 0 
L 0 3.5 
" style="stroke: #000000; stroke-width: 0.8"/>
      </defs>
      <g>
       <use xlink:href="#m7f5d285eaa" x="207.654545" y="768.96" style="stroke: #000000; stroke-width: 0.8"/>
      </g>
     </g>
     <g id="text_1">
      <!-- 0 -->
      <g transform="translate(204.473295 783.558437) scale(0.1 -0.1)">
       <defs>
        <path id="DejaVuSans-30" d="M 2034 4250 
Q 1547 4250 1301 3770 
Q 1056 3291 1056 2328 
Q 1056 1369 1301 889 
Q 1547 409 2034 409 
Q 2525 409 2770 889 
Q 3016 1369 3016 2328 
Q 3016 3291 2770 3770 
Q 2525 4250 2034 4250 
z
M 2034 4750 
Q 2819 4750 3233 4129 
Q 3647 3509 3647 2328 
Q 3647 1150 3233 529 
Q 2819 -91 2034 -91 
Q 1250 -91 836 529 
Q 422 1150 422 2328 
Q 422 3509 836 4129 
Q 1250 4750 2034 4750 
z
" transform="scale(0.015625)"/>
       </defs>
       <use xlink:href="#DejaVuSans-30"/>
      </g>
     </g>
    </g>
    <g id="xtick_2">
     <g id="line2d_2">
      <g>
       <use xlink:href="#m7f5d285eaa" x="390.638696" y="768.96" style="stroke: #000000; stroke-width: 0.8"/>
      </g>
     </g>
     <g id="text_2">
      <!-- 100 -->
      <g transform="translate(381.094946 783.558437) scale(0.1 -0.1)">
       <defs>
        <path id="DejaVuSans-31" d="M 794 531 
L 1825 531 
L 1825 4091 
L 703 3866 
L 703 4441 
L 1819 4666 
L 2450 4666 
L 2450 531 
L 3481 531 
L 3481 0 
L 794 0 
L 794 531 
z
" transform="scale(0.015625)"/>
       </defs>
       <use xlink:href="#DejaVuSans-31"/>
       <use xlink:href="#DejaVuSans-30" x="63.623047"/>
       <use xlink:href="#DejaVuSans-30" x="127.246094"/>
      </g>
     </g>
    </g>
    <g id="xtick_3">
     <g id="line2d_3">
      <g>
       <use xlink:href="#m7f5d285eaa" x="573.622846" y="768.96" style="stroke: #000000; stroke-width: 0.8"/>
      </g>
     </g>
     <g id="text_3">
      <!-- 200 -->
      <g transform="translate(564.079096 783.558437) scale(0.1 -0.1)">
       <defs>
        <path id="DejaVuSans-32" d="M 1228 531 
L 3431 531 
L 3431 0 
L 469 0 
L 469 531 
Q 828 903 1448 1529 
Q 2069 2156 2228 2338 
Q 2531 2678 2651 2914 
Q 2772 3150 2772 3378 
Q 2772 3750 2511 3984 
Q 2250 4219 1831 4219 
Q 1534 4219 1204 4116 
Q 875 4013 500 3803 
L 500 4441 
Q 881 4594 1212 4672 
Q 1544 4750 1819 4750 
Q 2544 4750 2975 4387 
Q 3406 4025 3406 3419 
Q 3406 3131 3298 2873 
Q 3191 2616 2906 2266 
Q 2828 2175 2409 1742 
Q 1991 1309 1228 531 
z
" transform="scale(0.015625)"/>
       </defs>
       <use xlink:href="#DejaVuSans-32"/>
       <use xlink:href="#DejaVuSans-30" x="63.623047"/>
       <use xlink:href="#DejaVuSans-30" x="127.246094"/>
      </g>
     </g>
    </g>
    <g id="xtick_4">
     <g id="line2d_4">
      <g>
       <use xlink:href="#m7f5d285eaa" x="756.606996" y="768.96" style="stroke: #000000; stroke-width: 0.8"/>
      </g>
     </g>
     <g id="text_4">
      <!-- 300 -->
      <g transform="translate(747.063246 783.558437) scale(0.1 -0.1)">
       <defs>
        <path id="DejaVuSans-33" d="M 2597 2516 
Q 3050 2419 3304 2112 
Q 3559 1806 3559 1356 
Q 3559 666 3084 287 
Q 2609 -91 1734 -91 
Q 1441 -91 1130 -33 
Q 819 25 488 141 
L 488 750 
Q 750 597 1062 519 
Q 1375 441 1716 441 
Q 2309 441 2620 675 
Q 2931 909 2931 1356 
Q 2931 1769 2642 2001 
Q 2353 2234 1838 2234 
L 1294 2234 
L 1294 2753 
L 1863 2753 
Q 2328 2753 2575 2939 
Q 2822 3125 2822 3475 
Q 2822 3834 2567 4026 
Q 2313 4219 1838 4219 
Q 1578 4219 1281 4162 
Q 984 4106 628 3988 
L 628 4550 
Q 988 4650 1302 4700 
Q 1616 4750 1894 4750 
Q 2613 4750 3031 4423 
Q 3450 4097 3450 3541 
Q 3450 3153 3228 2886 
Q 3006 2619 2597 2516 
z
" transform="scale(0.015625)"/>
       </defs>
       <use xlink:href="#DejaVuSans-33"/>
       <use xlink:href="#DejaVuSans-30" x="63.623047"/>
       <use xlink:href="#DejaVuSans-30" x="127.246094"/>
      </g>
     </g>
    </g>
    <g id="xtick_5">
     <g id="line2d_5">
      <g>
       <use xlink:href="#m7f5d285eaa" x="939.591146" y="768.96" style="stroke: #000000; stroke-width: 0.8"/>
      </g>
     </g>
     <g id="text_5">
      <!-- 400 -->
      <g transform="translate(930.047396 783.558437) scale(0.1 -0.1)">
       <defs>
        <path id="DejaVuSans-34" d="M 2419 4116 
L 825 1625 
L 2419 1625 
L 2419 4116 
z
M 2253 4666 
L 3047 4666 
L 3047 1625 
L 3713 1625 
L 3713 1100 
L 3047 1100 
L 3047 0 
L 2419 0 
L 2419 1100 
L 313 1100 
L 313 1709 
L 2253 4666 
z
" transform="scale(0.015625)"/>
       </defs>
       <use xlink:href="#DejaVuSans-34"/>
       <use xlink:href="#DejaVuSans-30" x="63.623047"/>
       <use xlink:href="#DejaVuSans-30" x="127.246094"/>
      </g>
     </g>
    </g>
    <g id="xtick_6">
     <g id="line2d_6">
      <g>
       <use xlink:href="#m7f5d285eaa" x="1122.575296" y="768.96" style="stroke: #000000; stroke-width: 0.8"/>
      </g>
     </g>
     <g id="text_6">
      <!-- 500 -->
      <g transform="translate(1113.031546 783.558437) scale(0.1 -0.1)">
       <defs>
        <path id="DejaVuSans-35" d="M 691 4666 
L 3169 4666 
L 3169 4134 
L 1269 4134 
L 1269 2991 
Q 1406 3038 1543 3061 
Q 1681 3084 1819 3084 
Q 2600 3084 3056 2656 
Q 3513 2228 3513 1497 
Q 3513 744 3044 326 
Q 2575 -91 1722 -91 
Q 1428 -91 1123 -41 
Q 819 9 494 109 
L 494 744 
Q 775 591 1075 516 
Q 1375 441 1709 441 
Q 2250 441 2565 725 
Q 2881 1009 2881 1497 
Q 2881 1984 2565 2268 
Q 2250 2553 1709 2553 
Q 1456 2553 1204 2497 
Q 953 2441 691 2322 
L 691 4666 
z
" transform="scale(0.015625)"/>
       </defs>
       <use xlink:href="#DejaVuSans-35"/>
       <use xlink:href="#DejaVuSans-30" x="63.623047"/>
       <use xlink:href="#DejaVuSans-30" x="127.246094"/>
      </g>
     </g>
    </g>
   </g>
   <g id="matplotlib.axis_2">
    <g id="ytick_1">
     <g id="line2d_7">
      <defs>
       <path id="m6c3703bf5f" d="M 0 0 
L -3.5 0 
" style="stroke: #000000; stroke-width: 0.8"/>
      </defs>
      <g>
       <use xlink:href="#m6c3703bf5f" x="162" y="738.72" style="stroke: #000000; stroke-width: 0.8"/>
      </g>
     </g>
     <g id="text_7">
      <!-- 0 -->
      <g transform="translate(148.6375 742.519219) scale(0.1 -0.1)">
       <use xlink:href="#DejaVuSans-30"/>
      </g>
     </g>
    </g>
    <g id="ytick_2">
     <g id="line2d_8">
      <g>
       <use xlink:href="#m6c3703bf5f" x="162" y="650.3419" style="stroke: #000000; stroke-width: 0.8"/>
      </g>
     </g>
     <g id="text_8">
      <!-- 20 -->
      <g transform="translate(142.275 654.141118) scale(0.1 -0.1)">
       <use xlink:href="#DejaVuSans-32"/>
       <use xlink:href="#DejaVuSans-30" x="63.623047"/>
      </g>
     </g>
    </g>
    <g id="ytick_3">
     <g id="line2d_9">
      <g>
       <use xlink:href="#m6c3703bf5f" x="162" y="561.963799" style="stroke: #000000; stroke-width: 0.8"/>
      </g>
     </g>
     <g id="text_9">
      <!-- 40 -->
      <g transform="translate(142.275 565.763018) scale(0.1 -0.1)">
       <use xlink:href="#DejaVuSans-34"/>
       <use xlink:href="#DejaVuSans-30" x="63.623047"/>
      </g>
     </g>
    </g>
    <g id="ytick_4">
     <g id="line2d_10">
      <g>
       <use xlink:href="#m6c3703bf5f" x="162" y="473.585699" style="stroke: #000000; stroke-width: 0.8"/>
      </g>
     </g>
     <g id="text_10">
      <!-- 60 -->
      <g transform="translate(142.275 477.384918) scale(0.1 -0.1)">
       <defs>
        <path id="DejaVuSans-36" d="M 2113 2584 
Q 1688 2584 1439 2293 
Q 1191 2003 1191 1497 
Q 1191 994 1439 701 
Q 1688 409 2113 409 
Q 2538 409 2786 701 
Q 3034 994 3034 1497 
Q 3034 2003 2786 2293 
Q 2538 2584 2113 2584 
z
M 3366 4563 
L 3366 3988 
Q 3128 4100 2886 4159 
Q 2644 4219 2406 4219 
Q 1781 4219 1451 3797 
Q 1122 3375 1075 2522 
Q 1259 2794 1537 2939 
Q 1816 3084 2150 3084 
Q 2853 3084 3261 2657 
Q 3669 2231 3669 1497 
Q 3669 778 3244 343 
Q 2819 -91 2113 -91 
Q 1303 -91 875 529 
Q 447 1150 447 2328 
Q 447 3434 972 4092 
Q 1497 4750 2381 4750 
Q 2619 4750 2861 4703 
Q 3103 4656 3366 4563 
z
" transform="scale(0.015625)"/>
       </defs>
       <use xlink:href="#DejaVuSans-36"/>
       <use xlink:href="#DejaVuSans-30" x="63.623047"/>
      </g>
     </g>
    </g>
    <g id="ytick_5">
     <g id="line2d_11">
      <g>
       <use xlink:href="#m6c3703bf5f" x="162" y="385.207599" style="stroke: #000000; stroke-width: 0.8"/>
      </g>
     </g>
     <g id="text_11">
      <!-- 80 -->
      <g transform="translate(142.275 389.006817) scale(0.1 -0.1)">
       <defs>
        <path id="DejaVuSans-38" d="M 2034 2216 
Q 1584 2216 1326 1975 
Q 1069 1734 1069 1313 
Q 1069 891 1326 650 
Q 1584 409 2034 409 
Q 2484 409 2743 651 
Q 3003 894 3003 1313 
Q 3003 1734 2745 1975 
Q 2488 2216 2034 2216 
z
M 1403 2484 
Q 997 2584 770 2862 
Q 544 3141 544 3541 
Q 544 4100 942 4425 
Q 1341 4750 2034 4750 
Q 2731 4750 3128 4425 
Q 3525 4100 3525 3541 
Q 3525 3141 3298 2862 
Q 3072 2584 2669 2484 
Q 3125 2378 3379 2068 
Q 3634 1759 3634 1313 
Q 3634 634 3220 271 
Q 2806 -91 2034 -91 
Q 1263 -91 848 271 
Q 434 634 434 1313 
Q 434 1759 690 2068 
Q 947 2378 1403 2484 
z
M 1172 3481 
Q 1172 3119 1398 2916 
Q 1625 2713 2034 2713 
Q 2441 2713 2670 2916 
Q 2900 3119 2900 3481 
Q 2900 3844 2670 4047 
Q 2441 4250 2034 4250 
Q 1625 4250 1398 4047 
Q 1172 3844 1172 3481 
z
" transform="scale(0.015625)"/>
       </defs>
       <use xlink:href="#DejaVuSans-38"/>
       <use xlink:href="#DejaVuSans-30" x="63.623047"/>
      </g>
     </g>
    </g>
    <g id="ytick_6">
     <g id="line2d_12">
      <g>
       <use xlink:href="#m6c3703bf5f" x="162" y="296.829498" style="stroke: #000000; stroke-width: 0.8"/>
      </g>
     </g>
     <g id="text_12">
      <!-- 100 -->
      <g transform="translate(135.9125 300.628717) scale(0.1 -0.1)">
       <use xlink:href="#DejaVuSans-31"/>
       <use xlink:href="#DejaVuSans-30" x="63.623047"/>
       <use xlink:href="#DejaVuSans-30" x="127.246094"/>
      </g>
     </g>
    </g>
    <g id="ytick_7">
     <g id="line2d_13">
      <g>
       <use xlink:href="#m6c3703bf5f" x="162" y="208.451398" style="stroke: #000000; stroke-width: 0.8"/>
      </g>
     </g>
     <g id="text_13">
      <!-- 120 -->
      <g transform="translate(135.9125 212.250617) scale(0.1 -0.1)">
       <use xlink:href="#DejaVuSans-31"/>
       <use xlink:href="#DejaVuSans-32" x="63.623047"/>
       <use xlink:href="#DejaVuSans-30" x="127.246094"/>
      </g>
     </g>
    </g>
    <g id="ytick_8">
     <g id="line2d_14">
      <g>
       <use xlink:href="#m6c3703bf5f" x="162" y="120.073297" style="stroke: #000000; stroke-width: 0.8"/>
      </g>
     </g>
     <g id="text_14">
      <!-- 140 -->
      <g transform="translate(135.9125 123.872516) scale(0.1 -0.1)">
       <use xlink:href="#DejaVuSans-31"/>
       <use xlink:href="#DejaVuSans-34" x="63.623047"/>
       <use xlink:href="#DejaVuSans-30" x="127.246094"/>
      </g>
     </g>
    </g>
   </g>
   <g id="line2d_15">
    <path d="M 207.654545 610.571754 
L 209.484387 398.464314 
L 211.314228 614.990659 
L 213.14407 575.220514 
L 214.973911 637.085185 
L 216.803753 553.125989 
L 218.633594 637.085185 
L 220.463436 663.598615 
L 222.293277 561.963799 
L 224.123119 610.571754 
L 225.95296 610.571754 
L 227.782802 482.423509 
L 229.612643 712.20657 
L 231.442485 681.274235 
L 233.272326 672.436425 
L 235.102168 495.680224 
L 236.932009 597.315039 
L 238.761851 310.086213 
L 240.591692 592.896134 
L 242.421534 177.519063 
L 244.251375 177.519063 
L 246.081217 283.572783 
L 247.911058 181.937968 
L 249.7409 354.275263 
L 251.570741 177.519063 
L 266.209473 177.519063 
L 268.039315 199.613588 
L 269.869156 318.924023 
L 271.698998 376.369789 
L 273.528839 371.950884 
L 275.358681 177.519063 
L 277.188522 177.519063 
L 279.018364 270.316068 
L 280.848206 301.248403 
L 282.678047 367.531978 
L 284.507889 177.519063 
L 286.33773 287.991688 
L 288.167572 217.289208 
L 289.997413 177.519063 
L 291.827255 177.519063 
L 293.657096 323.342928 
L 295.486938 177.519063 
L 299.146621 177.519063 
L 300.976462 447.072269 
L 302.806304 438.234459 
L 304.636145 181.937968 
L 306.465987 177.519063 
L 308.295828 491.261319 
L 310.12567 270.316068 
L 311.955511 407.302124 
L 313.785353 588.477229 
L 315.615194 177.519063 
L 317.445036 345.437453 
L 319.274877 349.856358 
L 321.104719 544.288179 
L 322.93456 438.234459 
L 324.764402 442.653364 
L 326.594243 557.544894 
L 328.424085 495.680224 
L 330.253926 672.436425 
L 332.083768 526.612559 
L 333.913609 460.328984 
L 335.743451 314.505118 
L 337.573292 522.193654 
L 339.403134 508.936939 
L 341.232975 478.004604 
L 343.062817 517.774749 
L 344.892658 464.747889 
L 346.7225 407.302124 
L 348.552341 495.680224 
L 350.382183 491.261319 
L 352.212024 606.152849 
L 354.041866 610.571754 
L 355.871707 513.355844 
L 357.701549 469.166794 
L 359.53139 685.69314 
L 361.361232 628.247375 
L 363.191073 495.680224 
L 365.020915 438.234459 
L 366.850756 447.072269 
L 368.680598 522.193654 
L 370.510439 694.53095 
L 372.340281 579.639419 
L 374.170122 420.558839 
L 375.999964 424.977744 
L 377.829805 526.612559 
L 379.659647 504.518034 
L 381.489488 495.680224 
L 383.31933 345.437453 
L 385.149171 491.261319 
L 386.979013 336.599643 
L 388.808854 305.667308 
L 390.638696 323.342928 
L 392.468537 416.139934 
L 394.298379 411.721029 
L 396.12822 478.004604 
L 397.958062 376.369789 
L 399.787903 531.031464 
L 401.617745 332.180738 
L 403.447586 310.086213 
L 405.277428 504.518034 
L 407.107269 424.977744 
L 408.937111 597.315039 
L 410.766952 645.922995 
L 412.596794 482.423509 
L 414.426635 553.125989 
L 416.256477 628.247375 
L 418.086318 690.112045 
L 419.91616 455.910079 
L 421.746001 447.072269 
L 423.575843 645.922995 
L 425.405684 495.680224 
L 427.235526 575.220514 
L 429.065367 491.261319 
L 430.895209 181.937968 
L 432.72505 310.086213 
L 434.554892 177.519063 
L 436.384733 341.018548 
L 438.214575 438.234459 
L 440.044416 376.369789 
L 441.874258 460.328984 
L 443.704099 561.963799 
L 445.533941 526.612559 
L 447.363782 358.694168 
L 449.193624 504.518034 
L 451.023465 177.519063 
L 452.853307 478.004604 
L 454.683148 535.450369 
L 456.51299 632.66628 
L 458.342831 447.072269 
L 460.172673 619.409565 
L 462.002514 575.220514 
L 463.832356 588.477229 
L 465.662197 274.734973 
L 469.32188 592.896134 
L 471.151722 411.721029 
L 472.981563 654.760805 
L 474.811405 539.869274 
L 476.641246 566.382704 
L 478.471088 526.612559 
L 480.300929 597.315039 
L 482.130771 566.382704 
L 483.960612 592.896134 
L 485.790454 561.963799 
L 487.620295 579.639419 
L 489.450137 681.274235 
L 491.279978 535.450369 
L 493.10982 522.193654 
L 494.939661 398.464314 
L 496.769503 531.031464 
L 498.599344 584.058324 
L 500.429186 491.261319 
L 502.259027 411.721029 
L 505.91871 570.801609 
L 507.748552 579.639419 
L 509.578393 420.558839 
L 511.408235 455.910079 
L 513.238076 610.571754 
L 515.067918 628.247375 
L 516.897759 358.694168 
L 518.727601 637.085185 
L 522.387284 531.031464 
L 524.217125 341.018548 
L 526.046967 588.477229 
L 527.876808 522.193654 
L 529.70665 566.382704 
L 531.536491 654.760805 
L 533.366333 685.69314 
L 535.196174 659.17971 
L 537.026016 694.53095 
L 538.855857 676.85533 
L 540.685699 539.869274 
L 542.51554 619.409565 
L 544.345382 738.72 
L 546.175223 738.72 
L 548.005065 659.17971 
L 549.834906 663.598615 
L 551.664748 698.949855 
L 553.494589 690.112045 
L 555.324431 637.085185 
L 557.154272 610.571754 
L 558.984114 606.152849 
L 560.813955 694.53095 
L 562.643797 411.721029 
L 564.473638 614.990659 
L 566.30348 681.274235 
L 568.133321 341.018548 
L 569.963163 681.274235 
L 571.793004 606.152849 
L 573.622846 623.82847 
L 575.452687 486.842414 
L 577.282529 738.72 
L 579.11237 641.50409 
L 580.942212 690.112045 
L 582.772053 544.288179 
L 584.601895 548.707084 
L 586.431736 544.288179 
L 588.261578 486.842414 
L 590.091419 579.639419 
L 591.921261 283.572783 
L 593.751102 177.519063 
L 595.580944 221.708113 
L 597.410785 177.519063 
L 599.240627 226.127018 
L 601.070468 177.519063 
L 602.90031 283.572783 
L 604.730151 177.519063 
L 619.368883 177.519063 
L 621.198725 367.531978 
L 623.028566 336.599643 
L 624.858408 243.802638 
L 626.688249 177.519063 
L 628.518091 177.519063 
L 630.347932 257.059353 
L 632.177774 389.626504 
L 634.007615 177.519063 
L 635.837457 402.883219 
L 637.667298 204.032493 
L 639.49714 177.519063 
L 641.326981 177.519063 
L 643.156823 451.491174 
L 644.986664 177.519063 
L 646.816506 486.842414 
L 648.646347 177.519063 
L 650.476189 363.113073 
L 652.30603 416.139934 
L 654.135872 345.437453 
L 655.965713 190.775778 
L 657.795555 398.464314 
L 659.625396 363.113073 
L 661.455238 230.545923 
L 663.285079 416.139934 
L 665.114921 177.519063 
L 666.944762 265.897163 
L 668.774604 336.599643 
L 670.604445 177.519063 
L 672.434287 177.519063 
L 674.264128 398.464314 
L 676.09397 261.478258 
L 677.923811 177.519063 
L 679.753653 217.289208 
L 681.583494 402.883219 
L 683.413336 495.680224 
L 685.243177 367.531978 
L 687.073019 650.3419 
L 688.90286 500.099129 
L 690.732702 597.315039 
L 692.562543 513.355844 
L 694.392385 619.409565 
L 696.222226 557.544894 
L 698.052068 637.085185 
L 699.881909 659.17971 
L 701.711751 610.571754 
L 703.541592 557.544894 
L 705.371434 654.760805 
L 707.201275 690.112045 
L 709.031117 641.50409 
L 710.860958 517.774749 
L 712.6908 681.274235 
L 714.520641 645.922995 
L 716.350483 623.82847 
L 718.180324 504.518034 
L 720.010166 681.274235 
L 721.840007 566.382704 
L 723.669849 539.869274 
L 725.49969 703.36876 
L 727.329532 690.112045 
L 729.159373 561.963799 
L 730.989215 637.085185 
L 732.819056 690.112045 
L 734.648898 654.760805 
L 736.478739 681.274235 
L 738.308581 716.625475 
L 740.138422 332.180738 
L 741.968264 469.166794 
L 743.798105 703.36876 
L 745.627947 628.247375 
L 747.457788 592.896134 
L 749.28763 729.88219 
L 751.117471 601.733944 
L 752.947313 729.88219 
L 754.777154 703.36876 
L 756.606996 584.058324 
L 758.436837 575.220514 
L 760.266679 548.707084 
L 762.09652 433.815554 
L 763.926362 672.436425 
L 765.756203 239.383733 
L 767.586045 478.004604 
L 769.415886 345.437453 
L 771.245728 341.018548 
L 773.075569 473.585699 
L 774.905411 177.519063 
L 776.735252 177.519063 
L 778.565094 358.694168 
L 780.394935 177.519063 
L 793.203826 177.519063 
L 795.033667 371.950884 
L 798.69335 195.194683 
L 800.523192 177.519063 
L 802.353033 261.478258 
L 804.182875 177.519063 
L 806.012716 261.478258 
L 807.842558 177.519063 
L 813.332082 177.519063 
L 815.161924 491.261319 
L 816.991765 177.519063 
L 822.48129 177.519063 
L 824.311131 279.153878 
L 826.140973 177.519063 
L 827.970814 310.086213 
L 829.800656 394.045409 
L 831.630497 287.991688 
L 833.460339 517.774749 
L 835.29018 482.423509 
L 837.120022 407.302124 
L 838.949863 195.194683 
L 840.779705 292.410593 
L 842.609546 371.950884 
L 844.439388 318.924023 
L 846.269229 177.519063 
L 848.099071 464.747889 
L 849.928912 363.113073 
L 851.758754 508.936939 
L 853.588595 469.166794 
L 855.418437 252.640448 
L 857.248278 460.328984 
L 859.07812 248.221543 
L 860.907961 531.031464 
L 862.737803 177.519063 
L 864.567644 513.355844 
L 866.397486 606.152849 
L 868.227327 517.774749 
L 870.057169 500.099129 
L 871.88701 548.707084 
L 873.716852 637.085185 
L 875.546693 606.152849 
L 877.376535 592.896134 
L 879.206376 632.66628 
L 881.036218 478.004604 
L 882.866059 526.612559 
L 884.695901 442.653364 
L 886.525742 522.193654 
L 888.355584 623.82847 
L 890.185425 663.598615 
L 892.015267 535.450369 
L 893.845108 579.639419 
L 895.67495 601.733944 
L 897.504791 588.477229 
L 899.334633 491.261319 
L 901.164474 637.085185 
L 902.994316 623.82847 
L 904.824157 637.085185 
L 906.653999 659.17971 
L 908.48384 601.733944 
L 910.313682 654.760805 
L 912.143523 729.88219 
L 913.973365 614.990659 
L 915.803206 597.315039 
L 917.633048 734.301095 
L 919.462889 628.247375 
L 921.292731 690.112045 
L 923.122572 460.328984 
L 924.952414 610.571754 
L 926.782255 332.180738 
L 928.612097 592.896134 
L 930.441938 570.801609 
L 932.27178 508.936939 
L 934.101621 681.274235 
L 935.931463 464.747889 
L 937.761304 659.17971 
L 939.591146 654.760805 
L 941.420987 420.558839 
L 943.250829 394.045409 
L 945.08067 394.045409 
L 946.910512 491.261319 
L 948.740353 314.505118 
L 950.570195 327.761833 
L 952.400036 212.870303 
L 954.229878 177.519063 
L 956.059719 177.519063 
L 957.889561 394.045409 
L 959.719402 557.544894 
L 961.549244 257.059353 
L 963.379085 177.519063 
L 972.528293 177.519063 
L 974.358134 380.788694 
L 976.187976 186.356873 
L 978.017817 323.342928 
L 979.847659 177.519063 
L 981.6775 592.896134 
L 983.507342 376.369789 
L 985.337183 292.410593 
L 987.167025 341.018548 
L 988.996866 491.261319 
L 990.826708 177.519063 
L 999.975915 177.519063 
L 1001.805757 257.059353 
L 1003.635598 177.519063 
L 1005.46544 442.653364 
L 1007.295281 433.815554 
L 1009.125123 186.356873 
L 1010.954964 177.519063 
L 1020.104172 177.519063 
L 1021.934013 234.964828 
L 1023.763855 270.316068 
L 1025.593696 177.519063 
L 1031.083221 177.519063 
L 1032.913062 557.544894 
L 1034.742904 341.018548 
L 1036.572745 177.519063 
L 1038.402587 177.519063 
L 1040.232428 394.045409 
L 1042.06227 500.099129 
L 1043.892111 411.721029 
L 1045.721953 429.396649 
L 1047.551794 486.842414 
L 1049.381636 508.936939 
L 1051.211478 575.220514 
L 1053.041319 575.220514 
L 1054.871161 455.910079 
L 1056.701002 433.815554 
L 1058.530844 438.234459 
L 1060.360685 287.991688 
L 1062.190527 451.491174 
L 1064.020368 296.829498 
L 1065.85021 398.464314 
L 1067.680051 341.018548 
L 1069.509893 420.558839 
L 1071.339734 385.207599 
L 1073.169576 363.113073 
L 1074.999417 424.977744 
L 1076.829259 482.423509 
L 1078.6591 314.505118 
L 1080.488942 177.519063 
L 1082.318783 177.519063 
L 1084.148625 482.423509 
L 1085.978466 451.491174 
L 1087.808308 610.571754 
L 1089.638149 358.694168 
L 1091.467991 349.856358 
L 1093.297832 336.599643 
L 1095.127674 363.113073 
L 1096.957515 177.519063 
L 1098.787357 208.451398 
L 1100.617198 332.180738 
L 1104.276881 296.829498 
L 1106.106723 535.450369 
L 1107.936564 407.302124 
L 1109.766406 371.950884 
L 1111.596247 424.977744 
L 1113.426089 451.491174 
L 1115.25593 389.626504 
L 1117.085772 659.17971 
L 1118.915613 407.302124 
L 1120.745455 632.66628 
L 1120.745455 632.66628 
" clip-path="url(#p308e7415fe)" style="fill: none; stroke: #4169e1; stroke-linecap: square"/>
   </g>
   <g id="line2d_16">
    <path d="M 207.654545 626.696238 
L 209.484387 593.414615 
L 211.314228 398.564038 
L 213.14407 506.082715 
L 214.973911 498.803449 
L 216.803753 509.912745 
L 218.633594 522.983866 
L 220.463436 557.42366 
L 222.293277 587.544779 
L 224.123119 520.722562 
L 225.95296 521.77183 
L 227.782802 522.952445 
L 229.612643 418.842346 
L 231.442485 553.043239 
L 233.272326 578.68278 
L 235.102168 578.885517 
L 236.932009 501.547127 
L 238.761851 513.727452 
L 240.591692 328.764981 
L 242.421534 369.514539 
L 244.251375 202.70792 
L 246.081217 141.589567 
L 247.911058 136.343466 
L 249.7409 134.166244 
L 251.570741 138.518396 
L 253.400583 134.649427 
L 255.230424 134.737217 
L 257.060266 134.07751 
L 258.890107 133.92 
L 268.039315 134.267385 
L 269.869156 134.533992 
L 271.698998 138.573417 
L 273.528839 149.298108 
L 275.358681 158.425315 
L 277.188522 141.140233 
L 279.018364 139.738288 
L 280.848206 138.819391 
L 282.678047 140.595961 
L 284.507889 157.119656 
L 286.33773 141.017516 
L 288.167572 147.457886 
L 289.997413 140.519229 
L 291.827255 138.535253 
L 293.657096 138.324341 
L 295.486938 145.452199 
L 297.316779 138.846227 
L 299.146621 140.475401 
L 300.976462 138.378552 
L 302.806304 161.455356 
L 304.636145 202.653574 
L 306.465987 187.476602 
L 308.295828 193.959788 
L 310.12567 252.761884 
L 311.955511 177.372982 
L 313.785353 252.501177 
L 315.615194 393.614145 
L 317.445036 235.072172 
L 319.274877 265.876766 
L 321.104719 271.391632 
L 322.93456 309.097698 
L 324.764402 339.291031 
L 326.594243 353.030761 
L 328.424085 439.572753 
L 330.253926 420.606004 
L 332.083768 512.392057 
L 333.913609 511.392096 
L 335.743451 479.24941 
L 337.573292 421.01677 
L 339.403134 420.847461 
L 341.232975 425.323139 
L 343.062817 419.034041 
L 344.892658 467.604794 
L 346.7225 443.389533 
L 348.552341 402.480544 
L 350.382183 437.070228 
L 352.212024 427.696777 
L 354.041866 470.4604 
L 355.871707 498.709624 
L 357.701549 485.023769 
L 359.53139 480.719827 
L 361.361232 543.41874 
L 363.191073 540.696959 
L 365.020915 484.511306 
L 366.850756 487.735537 
L 368.680598 423.45979 
L 370.510439 419.320101 
L 372.340281 562.938189 
L 374.170122 565.64313 
L 375.999964 458.864702 
L 377.829805 408.456847 
L 379.659647 421.461924 
L 381.489488 416.853481 
L 383.31933 417.536485 
L 385.149171 316.759376 
L 386.979013 359.87411 
L 388.808854 282.444626 
L 390.638696 235.8874 
L 392.468537 246.057233 
L 394.298379 279.909231 
L 396.12822 308.021257 
L 397.958062 372.370887 
L 399.787903 330.60264 
L 401.617745 399.502759 
L 403.447586 307.532242 
L 405.277428 253.508876 
L 407.107269 372.728689 
L 408.937111 328.451512 
L 410.766952 434.809666 
L 412.596794 494.658096 
L 414.426635 421.726643 
L 416.256477 455.164267 
L 418.086318 439.913125 
L 419.91616 448.262324 
L 421.746001 322.752705 
L 423.575843 229.046984 
L 425.405684 389.17781 
L 427.235526 291.139895 
L 429.065367 306.917171 
L 430.895209 288.506056 
L 432.72505 168.842538 
L 434.554892 155.432899 
L 436.384733 140.733647 
L 438.214575 144.683529 
L 440.044416 179.612035 
L 441.874258 167.619815 
L 443.704099 229.307455 
L 445.533941 316.297669 
L 447.363782 294.576319 
L 449.193624 225.754921 
L 451.023465 265.432422 
L 452.853307 170.487289 
L 454.683148 237.437482 
L 456.51299 288.930813 
L 458.342831 353.902998 
L 460.172673 287.947018 
L 462.002514 362.082214 
L 463.832356 364.809473 
L 465.662197 355.10755 
L 467.492039 237.616805 
L 469.32188 247.099623 
L 471.151722 346.366094 
L 472.981563 257.570889 
L 474.811405 388.588227 
L 476.641246 353.29194 
L 478.471088 386.294086 
L 480.300929 469.167333 
L 482.130771 446.479281 
L 485.790454 460.424933 
L 487.620295 464.963892 
L 489.450137 468.505081 
L 491.279978 505.759115 
L 493.10982 474.678389 
L 494.939661 473.233409 
L 496.769503 422.474444 
L 498.599344 407.54594 
L 500.429186 435.454741 
L 502.259027 414.256896 
L 504.088869 402.934564 
L 505.91871 417.622724 
L 507.748552 434.413329 
L 509.578393 452.850842 
L 511.408235 430.8701 
L 513.238076 450.569141 
L 515.067918 486.375481 
L 516.897759 477.141688 
L 518.727601 428.304464 
L 520.557442 524.637197 
L 522.387284 516.880294 
L 524.217125 467.135669 
L 526.046967 442.161247 
L 527.876808 499.05298 
L 529.70665 469.844201 
L 531.536491 467.170951 
L 533.366333 526.023971 
L 535.196174 533.705658 
L 537.026016 549.2538 
L 538.855857 574.239045 
L 540.685699 575.03455 
L 542.51554 559.82378 
L 544.345382 584.704091 
L 546.175223 642.559248 
L 548.005065 644.378829 
L 549.834906 642.880842 
L 551.664748 655.434014 
L 553.494589 653.91392 
L 555.324431 639.827 
L 557.154272 629.431665 
L 558.984114 607.168589 
L 560.813955 582.171359 
L 562.643797 593.236776 
L 564.473638 472.84926 
L 566.30348 560.767709 
L 568.133321 609.976103 
L 569.963163 419.083229 
L 571.793004 591.040556 
L 573.622846 590.660689 
L 577.282529 493.279262 
L 579.11237 582.010259 
L 580.942212 593.944694 
L 582.772053 592.70454 
L 584.601895 555.713405 
L 586.431736 516.46673 
L 588.261578 495.719365 
L 590.091419 438.43964 
L 591.921261 463.158125 
L 593.751102 279.288328 
L 595.580944 170.58108 
L 597.410785 151.26752 
L 599.240627 135.852057 
L 601.070468 136.143208 
L 602.90031 135.66407 
L 604.730151 138.028605 
L 606.559993 136.614388 
L 608.389834 136.907966 
L 610.219676 136.211579 
L 612.049517 135.671892 
L 617.539042 136.216703 
L 621.198725 136.909585 
L 623.028566 154.288795 
L 624.858408 155.655948 
L 626.688249 148.132158 
L 628.518091 144.434184 
L 630.347932 141.735749 
L 632.177774 141.844847 
L 634.007615 173.05606 
L 635.837457 143.987142 
L 637.667298 200.989675 
L 639.49714 151.234345 
L 641.326981 144.030025 
L 643.156823 143.630587 
L 644.986664 202.447078 
L 646.816506 147.436849 
L 648.646347 260.429901 
L 650.476189 168.99398 
L 652.30603 176.780432 
L 654.135872 251.375481 
L 655.965713 233.779627 
L 657.795555 212.403572 
L 659.625396 268.810386 
L 661.455238 248.951138 
L 663.285079 208.397996 
L 665.114921 282.663764 
L 666.944762 210.225743 
L 668.774604 208.99631 
L 670.604445 241.746211 
L 672.434287 183.327135 
L 674.264128 188.370382 
L 676.09397 254.265274 
L 677.923811 203.254417 
L 679.753653 197.503287 
L 681.583494 214.277743 
L 683.413336 272.765528 
L 685.243177 335.011701 
L 687.073019 330.043905 
L 688.90286 465.890543 
L 690.732702 457.602685 
L 694.392385 505.21368 
L 696.222226 498.926605 
L 698.052068 507.85765 
L 699.881909 511.745718 
L 701.711751 534.779806 
L 703.541592 514.137965 
L 705.371434 513.415821 
L 707.201275 526.403434 
L 709.031117 519.399945 
L 710.860958 515.388283 
L 712.6908 515.134437 
L 714.520641 561.163591 
L 716.350483 538.886625 
L 718.180324 541.665095 
L 720.010166 525.349143 
L 721.840007 577.837867 
L 723.669849 549.326756 
L 725.49969 491.812806 
L 727.329532 596.543639 
L 729.159373 598.29039 
L 730.989215 547.507623 
L 732.819056 576.054504 
L 734.648898 593.675457 
L 736.478739 564.621946 
L 738.308581 555.55104 
L 740.138422 568.689336 
L 741.968264 421.1376 
L 743.798105 465.965269 
L 745.627947 576.409491 
L 747.457788 524.295324 
L 749.28763 523.923211 
L 751.117471 567.218413 
L 752.947313 522.433408 
L 754.777154 566.317485 
L 756.606996 579.787995 
L 758.436837 529.740268 
L 760.266679 528.995923 
L 762.09652 489.789991 
L 763.926362 405.060306 
L 765.756203 488.966419 
L 767.586045 307.696393 
L 769.415886 339.670714 
L 773.075569 161.374713 
L 774.905411 215.102714 
L 776.735252 143.380972 
L 778.565094 140.306024 
L 780.394935 143.792547 
L 782.224777 135.285804 
L 784.054618 136.613579 
L 785.88446 135.272858 
L 787.714301 134.383494 
L 791.373984 134.532643 
L 795.033667 134.981573 
L 796.863509 143.278213 
L 798.69335 141.804795 
L 800.523192 140.750369 
L 802.353033 140.283908 
L 804.182875 139.000365 
L 806.012716 136.592003 
L 807.842558 140.228753 
L 809.672399 138.035078 
L 811.502241 138.051396 
L 813.332082 137.716553 
L 815.161924 136.829751 
L 816.991765 198.437018 
L 818.821607 145.231712 
L 820.651448 144.508893 
L 822.48129 144.616237 
L 824.311131 138.573551 
L 826.140973 144.791817 
L 827.970814 138.961527 
L 829.800656 151.102053 
L 831.630497 203.12199 
L 833.460339 196.536415 
L 835.29018 307.183306 
L 837.120022 333.241266 
L 838.949863 309.33585 
L 840.779705 251.442032 
L 842.609546 233.465417 
L 844.439388 247.830398 
L 846.269229 214.98057 
L 848.099071 196.224363 
L 849.928912 291.070951 
L 851.758754 258.449734 
L 853.588595 327.832396 
L 855.418437 368.588292 
L 857.248278 279.503656 
L 859.07812 353.793665 
L 860.907961 276.833103 
L 862.737803 349.37712 
L 864.567644 273.40504 
L 866.397486 354.113742 
L 868.227327 450.635523 
L 870.057169 418.731934 
L 871.88701 455.904752 
L 873.716852 480.820429 
L 875.546693 489.181849 
L 877.376535 490.083165 
L 879.206376 504.352399 
L 881.036218 521.15831 
L 882.866059 485.496012 
L 884.695901 496.286124 
L 886.525742 453.806453 
L 888.355584 440.616626 
L 890.185425 501.686768 
L 892.015267 495.815213 
L 893.845108 506.03919 
L 895.67495 532.683513 
L 897.504791 542.641423 
L 899.334633 510.821764 
L 901.164474 459.286813 
L 902.994316 525.718812 
L 904.824157 547.02948 
L 906.653999 553.951399 
L 908.48384 585.086133 
L 910.313682 563.750821 
L 912.143523 572.057541 
L 913.973365 597.665425 
L 915.803206 568.044783 
L 917.633048 562.62971 
L 919.462889 609.463117 
L 921.292731 577.503783 
L 923.122572 588.793227 
L 924.952414 531.728425 
L 926.782255 547.020917 
L 928.612097 411.498485 
L 930.441938 470.157063 
L 932.27178 504.721192 
L 934.101621 443.1649 
L 935.931463 539.757244 
L 937.761304 480.297919 
L 939.591146 530.233751 
L 941.420987 538.542376 
L 943.250829 427.687843 
L 945.08067 345.183152 
L 946.910512 280.268853 
L 948.740353 306.968483 
L 950.570195 171.356762 
L 952.400036 163.734933 
L 954.229878 146.001325 
L 956.059719 138.397162 
L 957.889561 135.711944 
L 959.719402 142.78532 
L 961.549244 222.841529 
L 963.379085 160.194738 
L 965.208927 147.302534 
L 967.038768 144.023283 
L 968.86861 135.754153 
L 970.698451 135.433739 
L 972.528293 135.667307 
L 974.358134 135.706145 
L 976.187976 151.01723 
L 978.017817 138.944131 
L 979.847659 154.263982 
L 981.6775 142.422832 
L 983.507342 274.774957 
L 985.337183 216.441851 
L 987.167025 181.375052 
L 988.996866 205.490504 
L 990.826708 279.972342 
L 992.656549 165.181649 
L 994.486391 150.429805 
L 996.316232 147.798393 
L 998.146074 138.908529 
L 999.975915 139.539917 
L 1001.805757 140.040092 
L 1003.635598 140.981779 
L 1005.46544 141.560169 
L 1007.295281 210.751439 
L 1009.125123 253.538443 
L 1010.954964 202.102054 
L 1012.784806 203.307685 
L 1014.614647 184.078914 
L 1016.444489 156.340333 
L 1018.27433 155.068253 
L 1020.104172 155.803613 
L 1021.934013 156.099348 
L 1023.763855 165.285487 
L 1025.593696 180.78638 
L 1027.423538 171.754447 
L 1029.253379 178.019642 
L 1031.083221 177.182972 
L 1032.913062 168.200295 
L 1034.742904 304.758424 
L 1036.572745 279.09316 
L 1038.402587 233.499973 
L 1040.232428 230.194526 
L 1042.06227 272.480715 
L 1043.892111 324.058937 
L 1045.721953 343.86839 
L 1049.381636 414.794122 
L 1051.211478 416.910322 
L 1053.041319 458.088481 
L 1054.871161 464.329436 
L 1056.701002 437.114764 
L 1058.530844 432.466573 
L 1060.360685 419.493928 
L 1062.190527 317.988876 
L 1064.020368 356.253104 
L 1065.85021 289.614828 
L 1067.680051 280.47218 
L 1069.509893 282.006417 
L 1071.339734 289.82837 
L 1073.169576 292.614897 
L 1074.999417 267.469362 
L 1076.829259 302.057023 
L 1078.6591 340.674973 
L 1080.488942 272.73532 
L 1082.318783 214.34308 
L 1084.148625 196.005393 
L 1085.978466 267.813341 
L 1087.808308 282.828253 
L 1089.638149 423.595791 
L 1091.467991 374.961 
L 1093.297832 346.632431 
L 1095.127674 331.294105 
L 1096.957515 295.722715 
L 1098.787357 221.4085 
L 1100.617198 200.865979 
L 1102.44704 244.687383 
L 1104.276881 227.499261 
L 1106.106723 238.579428 
L 1107.936564 377.97951 
L 1109.766406 357.843946 
L 1111.596247 346.695206 
L 1113.426089 393.268985 
L 1115.25593 388.318518 
L 1117.085772 362.669167 
L 1118.915613 483.30141 
L 1120.745455 377.329513 
L 1120.745455 377.329513 
" clip-path="url(#p308e7415fe)" style="fill: none; stroke: #ff6347; stroke-linecap: square"/>
   </g>
   <g id="line2d_17">
    <path d="M 207.654545 738.72 
L 209.484387 738.72 
L 211.314228 483.973187 
L 213.14407 698.801473 
L 214.973911 670.55573 
L 216.803753 675.814411 
L 218.633594 738.72 
L 222.293277 738.72 
L 224.123119 731.676215 
L 225.95296 735.06909 
L 227.782802 738.72 
L 229.612643 608.590164 
L 231.442485 738.72 
L 235.102168 738.72 
L 236.932009 570.188697 
L 238.761851 562.267407 
L 240.591692 427.723984 
L 242.421534 443.472502 
L 244.251375 266.696782 
L 246.081217 142.591535 
L 247.911058 177.363576 
L 249.7409 174.766013 
L 251.570741 200.280982 
L 253.400583 189.648463 
L 255.230424 150.815488 
L 257.060266 199.107143 
L 258.890107 156.859117 
L 260.719949 165.875744 
L 262.54979 177.632138 
L 264.379632 192.229574 
L 266.209473 188.963201 
L 268.039315 181.92873 
L 269.869156 200.9535 
L 273.528839 310.681595 
L 275.358681 353.804824 
L 277.188522 273.579879 
L 279.018364 234.592698 
L 280.848206 232.652886 
L 282.678047 286.302841 
L 284.507889 345.576218 
L 286.33773 260.572105 
L 288.167572 222.849182 
L 289.997413 199.863945 
L 291.827255 179.946844 
L 293.657096 167.412409 
L 295.486938 223.856611 
L 297.316779 197.110827 
L 299.146621 182.357567 
L 300.976462 173.277356 
L 302.806304 261.066076 
L 304.636145 336.726069 
L 306.465987 262.493643 
L 308.295828 274.430202 
L 310.12567 354.803488 
L 311.955511 285.756748 
L 313.785353 354.833156 
L 315.615194 455.001835 
L 317.445036 330.850333 
L 319.274877 349.350587 
L 321.104719 389.335555 
L 324.764402 454.237886 
L 326.594243 456.806506 
L 328.424085 516.171483 
L 330.253926 510.03531 
L 332.083768 578.173587 
L 335.743451 546.664682 
L 337.573292 495.414241 
L 339.403134 495.528058 
L 341.232975 500.722779 
L 343.062817 485.93594 
L 344.892658 537.073543 
L 346.7225 515.544478 
L 348.552341 482.981115 
L 350.382183 505.379365 
L 352.212024 505.053372 
L 355.871707 620.726189 
L 357.701549 590.848827 
L 359.53139 607.459899 
L 361.361232 700.017176 
L 363.191073 711.935488 
L 365.020915 633.111737 
L 368.680598 568.306198 
L 370.510439 511.287668 
L 372.340281 650.048785 
L 374.170122 610.9615 
L 375.999964 576.049683 
L 377.829805 576.053644 
L 379.659647 507.672056 
L 381.489488 505.81486 
L 383.31933 510.428124 
L 385.149171 454.712843 
L 386.979013 464.837887 
L 388.808854 410.330344 
L 390.638696 386.730575 
L 392.468537 385.811746 
L 394.298379 403.308616 
L 396.12822 432.342844 
L 397.958062 474.004219 
L 399.787903 463.018534 
L 401.617745 485.766951 
L 403.447586 420.908044 
L 405.277428 404.709618 
L 407.107269 451.673969 
L 408.937111 434.804238 
L 410.766952 532.393543 
L 412.596794 557.519289 
L 414.426635 475.259561 
L 416.256477 488.321007 
L 418.086318 515.183777 
L 419.91616 561.717539 
L 421.746001 429.041409 
L 423.575843 402.623017 
L 425.405684 434.160983 
L 427.235526 454.213949 
L 429.065367 472.162009 
L 430.895209 505.891221 
L 432.72505 271.255193 
L 434.554892 301.285218 
L 436.384733 229.933752 
L 438.214575 246.777591 
L 440.044416 310.156742 
L 441.874258 332.337776 
L 443.704099 407.711002 
L 445.533941 432.516907 
L 447.363782 460.880926 
L 449.193624 426.316577 
L 451.023465 454.276522 
L 452.853307 275.646655 
L 454.683148 332.669653 
L 456.51299 364.819452 
L 460.172673 495.154579 
L 462.002514 506.640506 
L 463.832356 486.075801 
L 465.662197 500.336017 
L 467.492039 341.715273 
L 469.32188 367.179604 
L 471.151722 367.801822 
L 472.981563 382.826746 
L 474.811405 462.88159 
L 476.641246 475.71793 
L 478.471088 520.543004 
L 480.300929 560.942244 
L 482.130771 565.850974 
L 483.960612 561.705587 
L 485.790454 568.184442 
L 489.450137 610.093654 
L 491.279978 680.589242 
L 493.10982 584.9945 
L 494.939661 558.66024 
L 496.769503 484.6305 
L 498.599344 496.242027 
L 500.429186 520.260552 
L 502.259027 502.65396 
L 504.088869 482.336798 
L 505.91871 513.588131 
L 507.748552 532.983311 
L 509.578393 525.219144 
L 511.408235 521.023186 
L 513.238076 528.091337 
L 515.067918 582.248024 
L 516.897759 577.209716 
L 518.727601 502.362186 
L 520.557442 614.092943 
L 522.387284 583.965275 
L 524.217125 530.442556 
L 526.046967 502.980796 
L 527.876808 575.561898 
L 529.70665 559.759674 
L 531.536491 558.595949 
L 533.366333 680.591438 
L 535.196174 738.72 
L 562.643797 738.72 
L 564.473638 546.765587 
L 566.30348 664.928345 
L 568.133321 738.72 
L 569.963163 490.252491 
L 571.793004 738.72 
L 573.622846 685.243093 
L 575.452687 616.397518 
L 577.282529 724.61903 
L 579.11237 738.72 
L 584.601895 738.72 
L 588.261578 507.184272 
L 590.091419 451.804643 
L 591.921261 503.615151 
L 593.751102 350.053111 
L 595.580944 254.559087 
L 597.410785 210.257434 
L 599.240627 145.608629 
L 601.070468 160.326491 
L 602.90031 144.972387 
L 604.730151 162.524818 
L 606.559993 174.04852 
L 608.389834 193.001008 
L 610.219676 181.971749 
L 612.049517 167.426434 
L 613.879359 170.179079 
L 615.7092 181.043412 
L 617.539042 177.605235 
L 619.368883 172.22138 
L 621.198725 188.31199 
L 623.028566 254.212781 
L 624.858408 292.107036 
L 626.688249 304.126463 
L 628.518091 244.103835 
L 630.347932 217.735441 
L 632.177774 236.928778 
L 634.007615 305.469949 
L 635.837457 245.513602 
L 637.667298 277.792929 
L 639.49714 201.173784 
L 641.326981 168.294693 
L 643.156823 157.655634 
L 644.986664 264.282822 
L 646.816506 196.861819 
L 648.646347 294.124726 
L 650.476189 212.588053 
L 652.30603 240.735782 
L 654.135872 320.08876 
L 655.965713 338.905045 
L 657.795555 267.236266 
L 659.625396 326.477144 
L 661.455238 312.542989 
L 663.285079 268.78763 
L 665.114921 347.313411 
L 666.944762 270.731756 
L 668.774604 267.265192 
L 670.604445 317.732181 
L 672.434287 249.152172 
L 674.264128 245.837656 
L 676.09397 335.046189 
L 677.923811 305.667848 
L 679.753653 272.105045 
L 681.583494 324.846419 
L 683.413336 384.25728 
L 685.243177 404.576719 
L 687.073019 422.240809 
L 688.90286 531.719322 
L 690.732702 538.077044 
L 692.562543 547.67491 
L 694.392385 594.886398 
L 696.222226 610.089777 
L 698.052068 608.270028 
L 699.881909 634.216952 
L 701.711751 738.72 
L 703.541592 718.020955 
L 705.371434 738.72 
L 718.180324 738.62931 
L 720.010166 698.85238 
L 721.840007 738.72 
L 723.669849 643.15747 
L 725.49969 636.694158 
L 727.329532 738.72 
L 740.138422 738.72 
L 741.968264 701.576648 
L 743.798105 591.843142 
L 745.627947 738.72 
L 747.457788 641.558234 
L 749.28763 737.231259 
L 751.117471 738.72 
L 760.266679 738.72 
L 762.09652 627.781706 
L 763.926362 475.550138 
L 765.756203 565.928701 
L 767.586045 376.434181 
L 769.415886 377.61773 
L 771.245728 250.042548 
L 773.075569 273.815402 
L 774.905411 340.715733 
L 776.735252 184.073655 
L 778.565094 134.153837 
L 780.394935 193.639206 
L 782.224777 180.843895 
L 784.054618 184.363794 
L 785.88446 185.490029 
L 787.714301 154.866376 
L 789.544143 161.648063 
L 791.373984 171.549131 
L 793.203826 165.555128 
L 795.033667 161.624261 
L 796.863509 237.172662 
L 798.69335 256.982688 
L 800.523192 257.25442 
L 802.353033 263.59756 
L 804.182875 232.928731 
L 806.012716 232.169029 
L 807.842558 222.530859 
L 809.672399 229.588458 
L 811.502241 187.917406 
L 813.332082 177.818439 
L 815.161924 148.197697 
L 816.991765 230.332449 
L 818.821607 184.034749 
L 820.651448 153.049012 
L 822.48129 176.368149 
L 824.311131 138.845957 
L 826.140973 189.609693 
L 827.970814 187.652553 
L 829.800656 225.362799 
L 831.630497 281.294353 
L 833.460339 294.097688 
L 835.29018 397.926178 
L 837.120022 396.69516 
L 838.949863 400.733574 
L 840.779705 345.608685 
L 842.609546 314.21626 
L 844.439388 334.647628 
L 846.269229 326.607144 
L 848.099071 286.177291 
L 849.928912 370.257855 
L 851.758754 347.297161 
L 853.588595 407.780991 
L 855.418437 463.260716 
L 857.248278 417.686375 
L 859.07812 465.837039 
L 860.907961 381.309096 
L 862.737803 440.817053 
L 864.567644 396.880079 
L 866.397486 449.349688 
L 868.227327 527.892225 
L 870.057169 431.649322 
L 871.88701 552.147116 
L 873.716852 570.217353 
L 875.546693 591.500055 
L 877.376535 637.846774 
L 879.206376 676.715739 
L 881.036218 738.72 
L 882.866059 598.557317 
L 884.695901 595.849662 
L 886.525742 557.158941 
L 888.355584 550.999691 
L 890.185425 627.021507 
L 892.015267 651.978323 
L 893.845108 649.394826 
L 895.67495 682.739363 
L 897.504791 672.473944 
L 899.334633 603.71106 
L 901.164474 572.233357 
L 902.994316 626.2946 
L 904.824157 635.998512 
L 906.653999 658.489728 
L 908.48384 738.72 
L 923.122572 738.72 
L 924.952414 682.960663 
L 926.782255 690.109297 
L 928.612097 496.333812 
L 930.441938 564.624474 
L 932.27178 610.167933 
L 934.101621 516.555076 
L 935.931463 701.359735 
L 937.761304 572.036757 
L 939.591146 687.378186 
L 941.420987 660.618436 
L 943.250829 491.284817 
L 945.08067 376.809548 
L 946.910512 331.037376 
L 948.740353 345.317973 
L 950.570195 290.70617 
L 952.400036 335.811488 
L 954.229878 196.044602 
L 956.059719 148.864753 
L 957.889561 168.940105 
L 959.719402 245.955924 
L 961.549244 308.104732 
L 963.379085 260.675875 
L 965.208927 256.40322 
L 967.038768 224.230697 
L 968.86861 180.281687 
L 970.698451 163.606012 
L 972.528293 181.068697 
L 974.358134 189.021593 
L 976.187976 256.168034 
L 978.017817 242.428405 
L 979.847659 246.087609 
L 981.6775 244.775409 
L 983.507342 347.324739 
L 985.337183 368.230659 
L 987.167025 340.557954 
L 988.996866 369.349207 
L 990.826708 383.257741 
L 992.656549 239.553852 
L 994.486391 180.852256 
L 996.316232 178.062053 
L 998.146074 140.955483 
L 999.975915 139.801063 
L 1001.805757 147.057639 
L 1003.635598 177.969476 
L 1005.46544 206.55501 
L 1007.295281 264.621307 
L 1009.125123 297.695937 
L 1010.954964 245.635442 
L 1012.784806 259.231383 
L 1014.614647 209.1993 
L 1016.444489 164.813025 
L 1018.27433 151.762098 
L 1020.104172 151.050135 
L 1021.934013 154.804073 
L 1023.763855 195.291104 
L 1025.593696 244.075583 
L 1027.423538 220.106314 
L 1029.253379 206.338096 
L 1031.083221 189.133253 
L 1032.913062 214.972479 
L 1034.742904 390.237798 
L 1036.572745 337.010207 
L 1038.402587 339.126678 
L 1040.232428 297.912513 
L 1042.06227 332.413429 
L 1043.892111 404.05989 
L 1045.721953 399.086666 
L 1047.551794 470.508038 
L 1049.381636 485.639716 
L 1051.211478 484.11148 
L 1053.041319 528.952584 
L 1054.871161 567.977828 
L 1056.701002 543.094247 
L 1058.530844 515.913591 
L 1060.360685 493.35918 
L 1062.190527 403.727339 
L 1064.020368 433.887903 
L 1065.85021 359.656219 
L 1067.680051 378.922074 
L 1069.509893 351.077464 
L 1071.339734 388.200251 
L 1073.169576 382.930854 
L 1074.999417 361.717264 
L 1076.829259 405.725846 
L 1078.6591 425.333961 
L 1080.488942 383.019183 
L 1082.318783 313.504162 
L 1084.148625 224.960596 
L 1085.978466 315.913199 
L 1087.808308 322.368674 
L 1089.638149 439.149647 
L 1091.467991 445.158012 
L 1093.297832 456.541989 
L 1095.127674 395.324333 
L 1096.957515 374.648846 
L 1098.787357 277.782612 
L 1100.617198 254.077523 
L 1102.44704 306.564291 
L 1104.276881 338.238797 
L 1106.106723 328.863188 
L 1107.936564 427.745021 
L 1109.766406 440.973214 
L 1113.426089 476.079997 
L 1115.25593 468.22487 
L 1117.085772 450.313222 
L 1118.915613 564.093587 
L 1120.745455 513.381197 
L 1120.745455 513.381197 
" clip-path="url(#p308e7415fe)" style="fill: none; stroke: #da70d6; stroke-linecap: square"/>
   </g>
   <g id="line2d_18">
    <path d="M 207.654545 668.593626 
L 209.484387 665.607033 
L 213.14407 449.756139 
L 214.973911 533.764101 
L 216.803753 554.56925 
L 218.633594 622.084905 
L 220.463436 628.366923 
L 222.293277 639.513801 
L 224.123119 660.865944 
L 225.95296 639.834846 
L 227.782802 611.831597 
L 229.612643 590.508893 
L 231.442485 580.550613 
L 233.272326 576.437844 
L 235.102168 650.294144 
L 236.932009 575.522976 
L 238.761851 431.552632 
L 240.591692 354.391036 
L 242.421534 392.939536 
L 244.251375 227.522355 
L 246.081217 206.409974 
L 247.911058 203.5011 
L 249.7409 209.880111 
L 251.570741 242.609717 
L 253.400583 217.018016 
L 255.230424 218.958839 
L 257.060266 214.257279 
L 258.890107 204.973506 
L 260.719949 201.889186 
L 262.54979 200.25273 
L 264.379632 207.878739 
L 266.209473 212.262852 
L 268.039315 214.248446 
L 269.869156 217.709684 
L 271.698998 217.098861 
L 273.528839 217.864968 
L 275.358681 222.361617 
L 277.188522 213.655155 
L 279.018364 225.855826 
L 280.848206 236.008802 
L 282.678047 240.079176 
L 284.507889 251.367154 
L 286.33773 223.738614 
L 288.167572 228.785333 
L 289.997413 218.386922 
L 291.827255 207.102383 
L 293.657096 218.506065 
L 295.486938 244.24523 
L 297.316779 228.342809 
L 299.146621 232.141182 
L 300.976462 212.721221 
L 302.806304 230.887981 
L 304.636145 265.09923 
L 306.465987 243.618427 
L 308.295828 264.65738 
L 310.12567 338.346276 
L 311.955511 315.034219 
L 313.785353 358.759438 
L 315.615194 422.659329 
L 317.445036 335.907436 
L 319.274877 332.652526 
L 321.104719 320.549152 
L 322.93456 388.454215 
L 324.764402 483.593842 
L 326.594243 509.501523 
L 328.424085 551.978059 
L 330.253926 568.02619 
L 332.083768 522.843483 
L 333.913609 514.782333 
L 335.743451 482.759886 
L 337.573292 476.404271 
L 339.403134 458.178058 
L 341.232975 525.129836 
L 343.062817 539.503937 
L 344.892658 543.354802 
L 346.7225 535.439952 
L 348.552341 537.501992 
L 350.382183 530.472577 
L 352.212024 549.062914 
L 354.041866 579.202289 
L 355.871707 579.194063 
L 357.701549 569.047947 
L 359.53139 536.414257 
L 361.361232 627.965133 
L 363.191073 580.625036 
L 365.020915 632.30144 
L 366.850756 652.608286 
L 368.680598 497.107353 
L 370.510439 454.806769 
L 372.340281 563.977797 
L 374.170122 590.520525 
L 375.999964 600.193892 
L 377.829805 509.057044 
L 379.659647 430.370162 
L 381.489488 432.556959 
L 383.31933 446.870325 
L 385.149171 396.094182 
L 386.979013 416.283553 
L 388.808854 370.660733 
L 390.638696 297.751497 
L 392.468537 316.765883 
L 394.298379 306.5473 
L 396.12822 350.527191 
L 397.958062 434.282419 
L 399.787903 432.055503 
L 401.617745 493.097866 
L 403.447586 428.025046 
L 405.277428 331.946564 
L 407.107269 418.490916 
L 408.937111 358.692078 
L 410.766952 451.542418 
L 412.596794 528.841852 
L 414.426635 337.59716 
L 416.256477 409.27902 
L 418.086318 408.452026 
L 419.91616 527.686825 
L 421.746001 469.998053 
L 423.575843 566.536843 
L 425.405684 588.910769 
L 427.235526 407.382092 
L 429.065367 472.953957 
L 430.895209 489.055491 
L 432.72505 220.452417 
L 434.554892 226.416617 
L 436.384733 193.549528 
L 438.214575 206.394668 
L 440.044416 241.182622 
L 441.874258 258.589477 
L 443.704099 270.620502 
L 445.533941 304.167864 
L 447.363782 295.824429 
L 449.193624 239.457566 
L 451.023465 300.294444 
L 452.853307 236.900931 
L 454.683148 310.524827 
L 456.51299 404.664172 
L 458.342831 471.399711 
L 460.172673 365.322593 
L 462.002514 481.381237 
L 463.832356 442.88356 
L 465.662197 352.94088 
L 467.492039 274.573215 
L 469.32188 307.425066 
L 471.151722 368.398282 
L 472.981563 287.679905 
L 474.811405 428.109465 
L 476.641246 356.25634 
L 478.471088 519.689191 
L 480.300929 542.152374 
L 482.130771 535.193522 
L 483.960612 556.01268 
L 485.790454 541.84494 
L 487.620295 542.554779 
L 489.450137 544.812712 
L 491.279978 555.810483 
L 493.10982 506.104847 
L 494.939661 552.123331 
L 496.769503 498.377394 
L 498.599344 402.849168 
L 500.429186 456.417249 
L 502.259027 438.993756 
L 504.088869 444.945752 
L 505.91871 433.015328 
L 507.748552 455.143365 
L 509.578393 478.852079 
L 511.408235 433.445783 
L 513.238076 437.318798 
L 515.067918 473.340112 
L 516.897759 539.605246 
L 518.727601 493.303266 
L 520.557442 592.536647 
L 522.387284 524.095386 
L 524.217125 512.151005 
L 526.046967 434.792843 
L 527.876808 457.064651 
L 531.536491 561.270227 
L 533.366333 586.18265 
L 535.196174 596.003969 
L 537.026016 585.804502 
L 538.855857 605.813986 
L 540.685699 633.385929 
L 542.51554 666.359748 
L 544.345382 636.91644 
L 546.175223 692.559351 
L 548.005065 686.255351 
L 549.834906 698.545654 
L 551.664748 692.241436 
L 553.494589 683.986331 
L 555.324431 663.974024 
L 557.154272 679.140638 
L 558.984114 655.753686 
L 560.813955 520.272233 
L 562.643797 544.254011 
L 564.473638 470.227676 
L 566.30348 594.802485 
L 568.133321 638.217969 
L 569.963163 444.48455 
L 571.793004 671.23945 
L 573.622846 668.36069 
L 575.452687 641.394116 
L 577.282529 624.482294 
L 579.11237 620.397473 
L 580.942212 486.548786 
L 582.772053 439.031987 
L 584.601895 555.86938 
L 586.431736 419.005857 
L 588.261578 434.093219 
L 590.091419 447.811742 
L 591.921261 439.085052 
L 593.751102 305.236651 
L 595.580944 238.835146 
L 597.410785 193.752753 
L 599.240627 199.311312 
L 601.070468 217.30094 
L 602.90031 221.714923 
L 604.730151 236.34614 
L 606.559993 222.137759 
L 608.389834 213.929718 
L 610.219676 200.751151 
L 612.049517 190.011761 
L 613.879359 188.556346 
L 615.7092 203.106111 
L 617.539042 215.790977 
L 619.368883 224.242766 
L 621.198725 229.102038 
L 623.028566 236.335285 
L 624.858408 222.14558 
L 626.688249 231.218374 
L 628.518091 215.733799 
L 630.347932 235.780427 
L 632.177774 273.614334 
L 634.007615 314.913996 
L 635.837457 246.030903 
L 637.667298 287.903831 
L 639.49714 246.337966 
L 641.326981 224.309452 
L 643.156823 221.21576 
L 644.986664 267.602261 
L 646.816506 239.681559 
L 648.646347 283.833322 
L 650.476189 242.126736 
L 652.30603 241.222336 
L 654.135872 271.274747 
L 655.965713 278.535639 
L 657.795555 282.924404 
L 659.625396 330.95262 
L 661.455238 356.260925 
L 663.285079 302.032311 
L 665.114921 347.595054 
L 666.944762 306.275231 
L 668.774604 295.971555 
L 670.604445 313.029543 
L 672.434287 277.425855 
L 674.264128 289.903382 
L 676.09397 338.942669 
L 677.923811 324.535512 
L 679.753653 299.58329 
L 681.583494 300.252437 
L 687.073019 391.252644 
L 688.90286 485.483235 
L 690.732702 491.871872 
L 692.562543 517.032359 
L 694.392385 526.81978 
L 696.222226 507.787188 
L 698.052068 512.50611 
L 699.881909 486.33575 
L 701.711751 501.501293 
L 703.541592 502.158438 
L 705.371434 526.037119 
L 707.201275 553.015746 
L 709.031117 608.400297 
L 710.860958 577.783234 
L 712.6908 612.786652 
L 714.520641 578.590624 
L 716.350483 508.395415 
L 718.180324 557.196734 
L 720.010166 556.901016 
L 721.840007 583.706776 
L 723.669849 565.85448 
L 725.49969 614.815332 
L 727.329532 598.841438 
L 729.159373 550.251284 
L 730.989215 664.247365 
L 732.819056 543.887156 
L 734.648898 620.276635 
L 736.478739 559.141552 
L 738.308581 526.706738 
L 740.138422 507.657543 
L 741.968264 545.234671 
L 743.798105 468.146503 
L 745.627947 500.858814 
L 747.457788 563.590479 
L 749.28763 551.356195 
L 751.117471 653.111242 
L 752.947313 602.397562 
L 754.777154 487.939032 
L 756.606996 558.678901 
L 758.436837 482.027762 
L 760.266679 297.472821 
L 762.09652 452.333743 
L 763.926362 428.404998 
L 765.756203 485.971576 
L 767.586045 295.856187 
L 769.415886 395.363474 
L 771.245728 274.285706 
L 773.075569 226.258771 
L 774.905411 284.743183 
L 776.735252 224.253083 
L 778.565094 223.930174 
L 780.394935 246.696746 
L 782.224777 210.693553 
L 784.054618 203.061947 
L 785.88446 193.002761 
L 787.714301 187.93278 
L 789.544143 186.988463 
L 791.373984 197.964927 
L 793.203826 202.130508 
L 795.033667 203.113663 
L 796.863509 228.689789 
L 798.69335 203.27596 
L 800.523192 197.532045 
L 802.353033 203.870196 
L 804.182875 211.37632 
L 806.012716 217.531339 
L 807.842558 231.930337 
L 809.672399 221.894279 
L 811.502241 216.065405 
L 813.332082 209.30779 
L 815.161924 202.116551 
L 816.991765 226.088584 
L 818.821607 200.547993 
L 820.651448 215.634209 
L 822.48129 226.416955 
L 824.311131 214.766691 
L 826.140973 229.849198 
L 827.970814 202.041235 
L 829.800656 224.109598 
L 831.630497 243.098092 
L 833.460339 248.91112 
L 835.29018 347.882429 
L 837.120022 423.482749 
L 838.949863 424.168348 
L 840.779705 337.420232 
L 842.609546 298.678957 
L 844.439388 301.810476 
L 846.269229 291.95964 
L 848.099071 261.963329 
L 849.928912 332.597438 
L 851.758754 368.411026 
L 853.588595 394.955608 
L 855.418437 445.313162 
L 857.248278 383.142508 
L 859.07812 368.008486 
L 860.907961 296.806506 
L 862.737803 330.695116 
L 864.567644 286.700256 
L 868.227327 497.029323 
L 870.057169 504.334228 
L 871.88701 491.14054 
L 873.716852 482.552463 
L 875.546693 485.410767 
L 877.376535 495.389933 
L 879.206376 508.390965 
L 881.036218 532.944322 
L 882.866059 543.63867 
L 884.695901 546.475617 
L 886.525742 544.900536 
L 890.185425 479.284034 
L 892.015267 480.775438 
L 893.845108 523.860976 
L 895.67495 526.642295 
L 897.504791 520.007818 
L 899.334633 523.475528 
L 901.164474 512.481398 
L 902.994316 502.240497 
L 904.824157 514.769875 
L 906.653999 547.638482 
L 908.48384 573.916035 
L 910.313682 595.516235 
L 912.143523 543.815026 
L 913.973365 599.478245 
L 915.803206 618.408061 
L 917.633048 594.490466 
L 919.462889 587.759147 
L 921.292731 587.909206 
L 923.122572 476.293472 
L 924.952414 476.351712 
L 926.782255 566.403067 
L 928.612097 493.506407 
L 930.441938 533.993454 
L 932.27178 520.699637 
L 934.101621 498.144838 
L 935.931463 540.137011 
L 937.761304 427.185915 
L 939.591146 513.294873 
L 941.420987 507.281114 
L 943.250829 504.953361 
L 945.08067 315.202854 
L 946.910512 291.143435 
L 948.740353 275.763439 
L 950.570195 253.96411 
L 952.400036 274.513138 
L 954.229878 260.8052 
L 956.059719 211.298576 
L 957.889561 209.630024 
L 959.719402 227.17996 
L 961.549244 260.348853 
L 963.379085 236.980427 
L 965.208927 211.342471 
L 967.038768 225.956899 
L 968.86861 205.652228 
L 970.698451 205.190149 
L 972.528293 206.488796 
L 974.358134 200.071081 
L 976.187976 210.409415 
L 978.017817 198.558758 
L 979.847659 226.609324 
L 981.6775 230.09288 
L 983.507342 381.713929 
L 985.337183 329.416967 
L 987.167025 261.860031 
L 988.996866 330.557565 
L 992.656549 218.681511 
L 994.486391 204.602454 
L 996.316232 216.443941 
L 998.146074 211.7854 
L 999.975915 214.416609 
L 1001.805757 216.145374 
L 1003.635598 203.246225 
L 1005.46544 223.274445 
L 1007.295281 254.024188 
L 1009.125123 318.231412 
L 1010.954964 245.704825 
L 1012.784806 256.395061 
L 1014.614647 250.744532 
L 1016.444489 246.566679 
L 1018.27433 247.605933 
L 1020.104172 242.951707 
L 1021.934013 240.955527 
L 1023.763855 241.70235 
L 1025.593696 264.369264 
L 1027.423538 264.108456 
L 1029.253379 273.896854 
L 1031.083221 278.066346 
L 1032.913062 252.519686 
L 1034.742904 311.682551 
L 1036.572745 329.159935 
L 1038.402587 250.126697 
L 1040.232428 256.212603 
L 1042.06227 307.317385 
L 1043.892111 366.130438 
L 1045.721953 417.734855 
L 1047.551794 462.857046 
L 1049.381636 463.432841 
L 1051.211478 465.957178 
L 1053.041319 471.019473 
L 1054.871161 475.168062 
L 1056.701002 449.101017 
L 1058.530844 436.245088 
L 1060.360685 419.764412 
L 1062.190527 331.638017 
L 1064.020368 342.954786 
L 1065.85021 324.567203 
L 1067.680051 322.208332 
L 1069.509893 338.542422 
L 1071.339734 345.590378 
L 1073.169576 342.833215 
L 1074.999417 325.4654 
L 1076.829259 334.472385 
L 1078.6591 344.893721 
L 1080.488942 317.903716 
L 1082.318783 260.602582 
L 1084.148625 268.549544 
L 1085.978466 344.839577 
L 1087.808308 348.697893 
L 1089.638149 408.738524 
L 1091.467991 342.357786 
L 1093.297832 311.324985 
L 1095.127674 306.921655 
L 1096.957515 309.152415 
L 1098.787357 274.218144 
L 1100.617198 276.096394 
L 1102.44704 306.803658 
L 1104.276881 331.061852 
L 1106.106723 320.14378 
L 1107.936564 354.654676 
L 1109.766406 377.76553 
L 1111.596247 357.231606 
L 1113.426089 360.128951 
L 1115.25593 402.965412 
L 1117.085772 418.549982 
L 1118.915613 462.588585 
L 1120.745455 327.574723 
L 1120.745455 327.574723 
" clip-path="url(#p308e7415fe)" style="fill: none; stroke: #8fbc8f; stroke-linecap: square"/>
   </g>
   <g id="patch_3">
    <path d="M 162 768.96 
L 162 103.68 
" style="fill: none; stroke: #000000; stroke-width: 0.8; stroke-linejoin: miter; stroke-linecap: square"/>
   </g>
   <g id="patch_4">
    <path d="M 1166.4 768.96 
L 1166.4 103.68 
" style="fill: none; stroke: #000000; stroke-width: 0.8; stroke-linejoin: miter; stroke-linecap: square"/>
   </g>
   <g id="patch_5">
    <path d="M 162 768.96 
L 1166.4 768.96 
" style="fill: none; stroke: #000000; stroke-width: 0.8; stroke-linejoin: miter; stroke-linecap: square"/>
   </g>
   <g id="patch_6">
    <path d="M 162 103.68 
L 1166.4 103.68 
" style="fill: none; stroke: #000000; stroke-width: 0.8; stroke-linejoin: miter; stroke-linecap: square"/>
   </g>
   <g id="text_15">
    <!-- Function 1 -->
    <g transform="translate(632.957813 97.68) scale(0.12 -0.12)">
     <defs>
      <path id="DejaVuSans-46" d="M 628 4666 
L 3309 4666 
L 3309 4134 
L 1259 4134 
L 1259 2759 
L 3109 2759 
L 3109 2228 
L 1259 2228 
L 1259 0 
L 628 0 
L 628 4666 
z
" transform="scale(0.015625)"/>
      <path id="DejaVuSans-75" d="M 544 1381 
L 544 3500 
L 1119 3500 
L 1119 1403 
Q 1119 906 1312 657 
Q 1506 409 1894 409 
Q 2359 409 2629 706 
Q 2900 1003 2900 1516 
L 2900 3500 
L 3475 3500 
L 3475 0 
L 2900 0 
L 2900 538 
Q 2691 219 2414 64 
Q 2138 -91 1772 -91 
Q 1169 -91 856 284 
Q 544 659 544 1381 
z
M 1991 3584 
L 1991 3584 
z
" transform="scale(0.015625)"/>
      <path id="DejaVuSans-6e" d="M 3513 2113 
L 3513 0 
L 2938 0 
L 2938 2094 
Q 2938 2591 2744 2837 
Q 2550 3084 2163 3084 
Q 1697 3084 1428 2787 
Q 1159 2491 1159 1978 
L 1159 0 
L 581 0 
L 581 3500 
L 1159 3500 
L 1159 2956 
Q 1366 3272 1645 3428 
Q 1925 3584 2291 3584 
Q 2894 3584 3203 3211 
Q 3513 2838 3513 2113 
z
" transform="scale(0.015625)"/>
      <path id="DejaVuSans-63" d="M 3122 3366 
L 3122 2828 
Q 2878 2963 2633 3030 
Q 2388 3097 2138 3097 
Q 1578 3097 1268 2742 
Q 959 2388 959 1747 
Q 959 1106 1268 751 
Q 1578 397 2138 397 
Q 2388 397 2633 464 
Q 2878 531 3122 666 
L 3122 134 
Q 2881 22 2623 -34 
Q 2366 -91 2075 -91 
Q 1284 -91 818 406 
Q 353 903 353 1747 
Q 353 2603 823 3093 
Q 1294 3584 2113 3584 
Q 2378 3584 2631 3529 
Q 2884 3475 3122 3366 
z
" transform="scale(0.015625)"/>
      <path id="DejaVuSans-74" d="M 1172 4494 
L 1172 3500 
L 2356 3500 
L 2356 3053 
L 1172 3053 
L 1172 1153 
Q 1172 725 1289 603 
Q 1406 481 1766 481 
L 2356 481 
L 2356 0 
L 1766 0 
Q 1100 0 847 248 
Q 594 497 594 1153 
L 594 3053 
L 172 3053 
L 172 3500 
L 594 3500 
L 594 4494 
L 1172 4494 
z
" transform="scale(0.015625)"/>
      <path id="DejaVuSans-69" d="M 603 3500 
L 1178 3500 
L 1178 0 
L 603 0 
L 603 3500 
z
M 603 4863 
L 1178 4863 
L 1178 4134 
L 603 4134 
L 603 4863 
z
" transform="scale(0.015625)"/>
      <path id="DejaVuSans-6f" d="M 1959 3097 
Q 1497 3097 1228 2736 
Q 959 2375 959 1747 
Q 959 1119 1226 758 
Q 1494 397 1959 397 
Q 2419 397 2687 759 
Q 2956 1122 2956 1747 
Q 2956 2369 2687 2733 
Q 2419 3097 1959 3097 
z
M 1959 3584 
Q 2709 3584 3137 3096 
Q 3566 2609 3566 1747 
Q 3566 888 3137 398 
Q 2709 -91 1959 -91 
Q 1206 -91 779 398 
Q 353 888 353 1747 
Q 353 2609 779 3096 
Q 1206 3584 1959 3584 
z
" transform="scale(0.015625)"/>
      <path id="DejaVuSans-20" transform="scale(0.015625)"/>
     </defs>
     <use xlink:href="#DejaVuSans-46"/>
     <use xlink:href="#DejaVuSans-75" x="52.019531"/>
     <use xlink:href="#DejaVuSans-6e" x="115.398438"/>
     <use xlink:href="#DejaVuSans-63" x="178.777344"/>
     <use xlink:href="#DejaVuSans-74" x="233.757812"/>
     <use xlink:href="#DejaVuSans-69" x="272.966797"/>
     <use xlink:href="#DejaVuSans-6f" x="300.75"/>
     <use xlink:href="#DejaVuSans-6e" x="361.931641"/>
     <use xlink:href="#DejaVuSans-20" x="425.310547"/>
     <use xlink:href="#DejaVuSans-31" x="457.097656"/>
    </g>
   </g>
   <g id="legend_1">
    <g id="patch_7">
     <path d="M 1011.90625 763.96 
L 1159.4 763.96 
Q 1161.4 763.96 1161.4 761.96 
L 1161.4 704.2475 
Q 1161.4 702.2475 1159.4 702.2475 
L 1011.90625 702.2475 
Q 1009.90625 702.2475 1009.90625 704.2475 
L 1009.90625 761.96 
Q 1009.90625 763.96 1011.90625 763.96 
z
" style="fill: #ffffff; opacity: 0.8; stroke: #cccccc; stroke-linejoin: miter"/>
    </g>
    <g id="line2d_19">
     <path d="M 1013.90625 710.345937 
L 1023.90625 710.345937 
L 1033.90625 710.345937 
" style="fill: none; stroke: #4169e1; stroke-linecap: square"/>
    </g>
    <g id="text_16">
     <!-- Truth -->
     <g transform="translate(1041.90625 713.845937) scale(0.1 -0.1)">
      <defs>
       <path id="DejaVuSans-54" d="M -19 4666 
L 3928 4666 
L 3928 4134 
L 2272 4134 
L 2272 0 
L 1638 0 
L 1638 4134 
L -19 4134 
L -19 4666 
z
" transform="scale(0.015625)"/>
       <path id="DejaVuSans-72" d="M 2631 2963 
Q 2534 3019 2420 3045 
Q 2306 3072 2169 3072 
Q 1681 3072 1420 2755 
Q 1159 2438 1159 1844 
L 1159 0 
L 581 0 
L 581 3500 
L 1159 3500 
L 1159 2956 
Q 1341 3275 1631 3429 
Q 1922 3584 2338 3584 
Q 2397 3584 2469 3576 
Q 2541 3569 2628 3553 
L 2631 2963 
z
" transform="scale(0.015625)"/>
       <path id="DejaVuSans-68" d="M 3513 2113 
L 3513 0 
L 2938 0 
L 2938 2094 
Q 2938 2591 2744 2837 
Q 2550 3084 2163 3084 
Q 1697 3084 1428 2787 
Q 1159 2491 1159 1978 
L 1159 0 
L 581 0 
L 581 4863 
L 1159 4863 
L 1159 2956 
Q 1366 3272 1645 3428 
Q 1925 3584 2291 3584 
Q 2894 3584 3203 3211 
Q 3513 2838 3513 2113 
z
" transform="scale(0.015625)"/>
      </defs>
      <use xlink:href="#DejaVuSans-54"/>
      <use xlink:href="#DejaVuSans-72" x="46.333984"/>
      <use xlink:href="#DejaVuSans-75" x="87.447266"/>
      <use xlink:href="#DejaVuSans-74" x="150.826172"/>
      <use xlink:href="#DejaVuSans-68" x="190.035156"/>
     </g>
    </g>
    <g id="line2d_20">
     <path d="M 1013.90625 725.024063 
L 1023.90625 725.024063 
L 1033.90625 725.024063 
" style="fill: none; stroke: #ff6347; stroke-linecap: square"/>
    </g>
    <g id="text_17">
     <!-- Gossip predictions -->
     <g transform="translate(1041.90625 728.524063) scale(0.1 -0.1)">
      <defs>
       <path id="DejaVuSans-47" d="M 3809 666 
L 3809 1919 
L 2778 1919 
L 2778 2438 
L 4434 2438 
L 4434 434 
Q 4069 175 3628 42 
Q 3188 -91 2688 -91 
Q 1594 -91 976 548 
Q 359 1188 359 2328 
Q 359 3472 976 4111 
Q 1594 4750 2688 4750 
Q 3144 4750 3555 4637 
Q 3966 4525 4313 4306 
L 4313 3634 
Q 3963 3931 3569 4081 
Q 3175 4231 2741 4231 
Q 1884 4231 1454 3753 
Q 1025 3275 1025 2328 
Q 1025 1384 1454 906 
Q 1884 428 2741 428 
Q 3075 428 3337 486 
Q 3600 544 3809 666 
z
" transform="scale(0.015625)"/>
       <path id="DejaVuSans-73" d="M 2834 3397 
L 2834 2853 
Q 2591 2978 2328 3040 
Q 2066 3103 1784 3103 
Q 1356 3103 1142 2972 
Q 928 2841 928 2578 
Q 928 2378 1081 2264 
Q 1234 2150 1697 2047 
L 1894 2003 
Q 2506 1872 2764 1633 
Q 3022 1394 3022 966 
Q 3022 478 2636 193 
Q 2250 -91 1575 -91 
Q 1294 -91 989 -36 
Q 684 19 347 128 
L 347 722 
Q 666 556 975 473 
Q 1284 391 1588 391 
Q 1994 391 2212 530 
Q 2431 669 2431 922 
Q 2431 1156 2273 1281 
Q 2116 1406 1581 1522 
L 1381 1569 
Q 847 1681 609 1914 
Q 372 2147 372 2553 
Q 372 3047 722 3315 
Q 1072 3584 1716 3584 
Q 2034 3584 2315 3537 
Q 2597 3491 2834 3397 
z
" transform="scale(0.015625)"/>
       <path id="DejaVuSans-70" d="M 1159 525 
L 1159 -1331 
L 581 -1331 
L 581 3500 
L 1159 3500 
L 1159 2969 
Q 1341 3281 1617 3432 
Q 1894 3584 2278 3584 
Q 2916 3584 3314 3078 
Q 3713 2572 3713 1747 
Q 3713 922 3314 415 
Q 2916 -91 2278 -91 
Q 1894 -91 1617 61 
Q 1341 213 1159 525 
z
M 3116 1747 
Q 3116 2381 2855 2742 
Q 2594 3103 2138 3103 
Q 1681 3103 1420 2742 
Q 1159 2381 1159 1747 
Q 1159 1113 1420 752 
Q 1681 391 2138 391 
Q 2594 391 2855 752 
Q 3116 1113 3116 1747 
z
" transform="scale(0.015625)"/>
       <path id="DejaVuSans-65" d="M 3597 1894 
L 3597 1613 
L 953 1613 
Q 991 1019 1311 708 
Q 1631 397 2203 397 
Q 2534 397 2845 478 
Q 3156 559 3463 722 
L 3463 178 
Q 3153 47 2828 -22 
Q 2503 -91 2169 -91 
Q 1331 -91 842 396 
Q 353 884 353 1716 
Q 353 2575 817 3079 
Q 1281 3584 2069 3584 
Q 2775 3584 3186 3129 
Q 3597 2675 3597 1894 
z
M 3022 2063 
Q 3016 2534 2758 2815 
Q 2500 3097 2075 3097 
Q 1594 3097 1305 2825 
Q 1016 2553 972 2059 
L 3022 2063 
z
" transform="scale(0.015625)"/>
       <path id="DejaVuSans-64" d="M 2906 2969 
L 2906 4863 
L 3481 4863 
L 3481 0 
L 2906 0 
L 2906 525 
Q 2725 213 2448 61 
Q 2172 -91 1784 -91 
Q 1150 -91 751 415 
Q 353 922 353 1747 
Q 353 2572 751 3078 
Q 1150 3584 1784 3584 
Q 2172 3584 2448 3432 
Q 2725 3281 2906 2969 
z
M 947 1747 
Q 947 1113 1208 752 
Q 1469 391 1925 391 
Q 2381 391 2643 752 
Q 2906 1113 2906 1747 
Q 2906 2381 2643 2742 
Q 2381 3103 1925 3103 
Q 1469 3103 1208 2742 
Q 947 2381 947 1747 
z
" transform="scale(0.015625)"/>
      </defs>
      <use xlink:href="#DejaVuSans-47"/>
      <use xlink:href="#DejaVuSans-6f" x="77.490234"/>
      <use xlink:href="#DejaVuSans-73" x="138.671875"/>
      <use xlink:href="#DejaVuSans-73" x="190.771484"/>
      <use xlink:href="#DejaVuSans-69" x="242.871094"/>
      <use xlink:href="#DejaVuSans-70" x="270.654297"/>
      <use xlink:href="#DejaVuSans-20" x="334.130859"/>
      <use xlink:href="#DejaVuSans-70" x="365.917969"/>
      <use xlink:href="#DejaVuSans-72" x="429.394531"/>
      <use xlink:href="#DejaVuSans-65" x="468.257812"/>
      <use xlink:href="#DejaVuSans-64" x="529.78125"/>
      <use xlink:href="#DejaVuSans-69" x="593.257812"/>
      <use xlink:href="#DejaVuSans-63" x="621.041016"/>
      <use xlink:href="#DejaVuSans-74" x="676.021484"/>
      <use xlink:href="#DejaVuSans-69" x="715.230469"/>
      <use xlink:href="#DejaVuSans-6f" x="743.013672"/>
      <use xlink:href="#DejaVuSans-6e" x="804.195312"/>
      <use xlink:href="#DejaVuSans-73" x="867.574219"/>
     </g>
    </g>
    <g id="line2d_21">
     <path d="M 1013.90625 739.702188 
L 1023.90625 739.702188 
L 1033.90625 739.702188 
" style="fill: none; stroke: #da70d6; stroke-linecap: square"/>
    </g>
    <g id="text_18">
     <!-- Centralized predictions -->
     <g transform="translate(1041.90625 743.202188) scale(0.1 -0.1)">
      <defs>
       <path id="DejaVuSans-43" d="M 4122 4306 
L 4122 3641 
Q 3803 3938 3442 4084 
Q 3081 4231 2675 4231 
Q 1875 4231 1450 3742 
Q 1025 3253 1025 2328 
Q 1025 1406 1450 917 
Q 1875 428 2675 428 
Q 3081 428 3442 575 
Q 3803 722 4122 1019 
L 4122 359 
Q 3791 134 3420 21 
Q 3050 -91 2638 -91 
Q 1578 -91 968 557 
Q 359 1206 359 2328 
Q 359 3453 968 4101 
Q 1578 4750 2638 4750 
Q 3056 4750 3426 4639 
Q 3797 4528 4122 4306 
z
" transform="scale(0.015625)"/>
       <path id="DejaVuSans-61" d="M 2194 1759 
Q 1497 1759 1228 1600 
Q 959 1441 959 1056 
Q 959 750 1161 570 
Q 1363 391 1709 391 
Q 2188 391 2477 730 
Q 2766 1069 2766 1631 
L 2766 1759 
L 2194 1759 
z
M 3341 1997 
L 3341 0 
L 2766 0 
L 2766 531 
Q 2569 213 2275 61 
Q 1981 -91 1556 -91 
Q 1019 -91 701 211 
Q 384 513 384 1019 
Q 384 1609 779 1909 
Q 1175 2209 1959 2209 
L 2766 2209 
L 2766 2266 
Q 2766 2663 2505 2880 
Q 2244 3097 1772 3097 
Q 1472 3097 1187 3025 
Q 903 2953 641 2809 
L 641 3341 
Q 956 3463 1253 3523 
Q 1550 3584 1831 3584 
Q 2591 3584 2966 3190 
Q 3341 2797 3341 1997 
z
" transform="scale(0.015625)"/>
       <path id="DejaVuSans-6c" d="M 603 4863 
L 1178 4863 
L 1178 0 
L 603 0 
L 603 4863 
z
" transform="scale(0.015625)"/>
       <path id="DejaVuSans-7a" d="M 353 3500 
L 3084 3500 
L 3084 2975 
L 922 459 
L 3084 459 
L 3084 0 
L 275 0 
L 275 525 
L 2438 3041 
L 353 3041 
L 353 3500 
z
" transform="scale(0.015625)"/>
      </defs>
      <use xlink:href="#DejaVuSans-43"/>
      <use xlink:href="#DejaVuSans-65" x="69.824219"/>
      <use xlink:href="#DejaVuSans-6e" x="131.347656"/>
      <use xlink:href="#DejaVuSans-74" x="194.726562"/>
      <use xlink:href="#DejaVuSans-72" x="233.935547"/>
      <use xlink:href="#DejaVuSans-61" x="275.048828"/>
      <use xlink:href="#DejaVuSans-6c" x="336.328125"/>
      <use xlink:href="#DejaVuSans-69" x="364.111328"/>
      <use xlink:href="#DejaVuSans-7a" x="391.894531"/>
      <use xlink:href="#DejaVuSans-65" x="444.384766"/>
      <use xlink:href="#DejaVuSans-64" x="505.908203"/>
      <use xlink:href="#DejaVuSans-20" x="569.384766"/>
      <use xlink:href="#DejaVuSans-70" x="601.171875"/>
      <use xlink:href="#DejaVuSans-72" x="664.648438"/>
      <use xlink:href="#DejaVuSans-65" x="703.511719"/>
      <use xlink:href="#DejaVuSans-64" x="765.035156"/>
      <use xlink:href="#DejaVuSans-69" x="828.511719"/>
      <use xlink:href="#DejaVuSans-63" x="856.294922"/>
      <use xlink:href="#DejaVuSans-74" x="911.275391"/>
      <use xlink:href="#DejaVuSans-69" x="950.484375"/>
      <use xlink:href="#DejaVuSans-6f" x="978.267578"/>
      <use xlink:href="#DejaVuSans-6e" x="1039.449219"/>
      <use xlink:href="#DejaVuSans-73" x="1102.828125"/>
     </g>
    </g>
    <g id="line2d_22">
     <path d="M 1013.90625 754.380312 
L 1023.90625 754.380312 
L 1033.90625 754.380312 
" style="fill: none; stroke: #8fbc8f; stroke-linecap: square"/>
    </g>
    <g id="text_19">
     <!-- Single predictions -->
     <g transform="translate(1041.90625 757.880312) scale(0.1 -0.1)">
      <defs>
       <path id="DejaVuSans-53" d="M 3425 4513 
L 3425 3897 
Q 3066 4069 2747 4153 
Q 2428 4238 2131 4238 
Q 1616 4238 1336 4038 
Q 1056 3838 1056 3469 
Q 1056 3159 1242 3001 
Q 1428 2844 1947 2747 
L 2328 2669 
Q 3034 2534 3370 2195 
Q 3706 1856 3706 1288 
Q 3706 609 3251 259 
Q 2797 -91 1919 -91 
Q 1588 -91 1214 -16 
Q 841 59 441 206 
L 441 856 
Q 825 641 1194 531 
Q 1563 422 1919 422 
Q 2459 422 2753 634 
Q 3047 847 3047 1241 
Q 3047 1584 2836 1778 
Q 2625 1972 2144 2069 
L 1759 2144 
Q 1053 2284 737 2584 
Q 422 2884 422 3419 
Q 422 4038 858 4394 
Q 1294 4750 2059 4750 
Q 2388 4750 2728 4690 
Q 3069 4631 3425 4513 
z
" transform="scale(0.015625)"/>
       <path id="DejaVuSans-67" d="M 2906 1791 
Q 2906 2416 2648 2759 
Q 2391 3103 1925 3103 
Q 1463 3103 1205 2759 
Q 947 2416 947 1791 
Q 947 1169 1205 825 
Q 1463 481 1925 481 
Q 2391 481 2648 825 
Q 2906 1169 2906 1791 
z
M 3481 434 
Q 3481 -459 3084 -895 
Q 2688 -1331 1869 -1331 
Q 1566 -1331 1297 -1286 
Q 1028 -1241 775 -1147 
L 775 -588 
Q 1028 -725 1275 -790 
Q 1522 -856 1778 -856 
Q 2344 -856 2625 -561 
Q 2906 -266 2906 331 
L 2906 616 
Q 2728 306 2450 153 
Q 2172 0 1784 0 
Q 1141 0 747 490 
Q 353 981 353 1791 
Q 353 2603 747 3093 
Q 1141 3584 1784 3584 
Q 2172 3584 2450 3431 
Q 2728 3278 2906 2969 
L 2906 3500 
L 3481 3500 
L 3481 434 
z
" transform="scale(0.015625)"/>
      </defs>
      <use xlink:href="#DejaVuSans-53"/>
      <use xlink:href="#DejaVuSans-69" x="63.476562"/>
      <use xlink:href="#DejaVuSans-6e" x="91.259766"/>
      <use xlink:href="#DejaVuSans-67" x="154.638672"/>
      <use xlink:href="#DejaVuSans-6c" x="218.115234"/>
      <use xlink:href="#DejaVuSans-65" x="245.898438"/>
      <use xlink:href="#DejaVuSans-20" x="307.421875"/>
      <use xlink:href="#DejaVuSans-70" x="339.208984"/>
      <use xlink:href="#DejaVuSans-72" x="402.685547"/>
      <use xlink:href="#DejaVuSans-65" x="441.548828"/>
      <use xlink:href="#DejaVuSans-64" x="503.072266"/>
      <use xlink:href="#DejaVuSans-69" x="566.548828"/>
      <use xlink:href="#DejaVuSans-63" x="594.332031"/>
      <use xlink:href="#DejaVuSans-74" x="649.3125"/>
      <use xlink:href="#DejaVuSans-69" x="688.521484"/>
      <use xlink:href="#DejaVuSans-6f" x="716.304688"/>
      <use xlink:href="#DejaVuSans-6e" x="777.486328"/>
      <use xlink:href="#DejaVuSans-73" x="840.865234"/>
     </g>
    </g>
   </g>
  </g>
 </g>
 <defs>
  <clipPath id="p308e7415fe">
   <rect x="162" y="103.68" width="1004.4" height="665.28"/>
  </clipPath>
 </defs>
</svg>
