<?xml version="1.0" encoding="utf-8" standalone="no"?>
<!DOCTYPE svg PUBLIC "-//W3C//DTD SVG 1.1//EN"
  "http://www.w3.org/Graphics/SVG/1.1/DTD/svg11.dtd">
<svg xmlns:xlink="http://www.w3.org/1999/xlink" width="1296pt" height="864pt" viewBox="0 0 1296 864" xmlns="http://www.w3.org/2000/svg" version="1.1">
 <metadata>
  <rdf:RDF xmlns:dc="http://purl.org/dc/elements/1.1/" xmlns:cc="http://creativecommons.org/ns#" xmlns:rdf="http://www.w3.org/1999/02/22-rdf-syntax-ns#">
   <cc:Work>
    <dc:type rdf:resource="http://purl.org/dc/dcmitype/StillImage"/>
    <dc:date>2023-12-24T17:34:44.987721</dc:date>
    <dc:format>image/svg+xml</dc:format>
    <dc:creator>
     <cc:Agent>
      <dc:title>Matplotlib v3.8.0, https://matplotlib.org/</dc:title>
     </cc:Agent>
    </dc:creator>
   </cc:Work>
  </rdf:RDF>
 </metadata>
 <defs>
  <style type="text/css">*{stroke-linejoin: round; stroke-linecap: butt}</style>
 </defs>
 <g id="figure_1">
  <g id="patch_1">
   <path d="M 0 864 
L 1296 864 
L 1296 0 
L 0 0 
z
" style="fill: #ffffff"/>
  </g>
  <g id="axes_1">
   <g id="patch_2">
    <path d="M 162 768.96 
L 1166.4 768.96 
L 1166.4 103.68 
L 162 103.68 
z
" style="fill: #ffffff"/>
   </g>
   <g id="matplotlib.axis_1">
    <g id="xtick_1">
     <g id="line2d_1">
      <defs>
       <path id="mb050753761" d="M 0 0 
L 0 3.5 
" style="stroke: #000000; stroke-width: 0.8"/>
      </defs>
      <g>
       <use xlink:href="#mb050753761" x="207.654545" y="768.96" style="stroke: #000000; stroke-width: 0.8"/>
      </g>
     </g>
     <g id="text_1">
      <!-- 0 -->
      <g transform="translate(204.473295 783.558437) scale(0.1 -0.1)">
       <defs>
        <path id="DejaVuSans-30" d="M 2034 4250 
Q 1547 4250 1301 3770 
Q 1056 3291 1056 2328 
Q 1056 1369 1301 889 
Q 1547 409 2034 409 
Q 2525 409 2770 889 
Q 3016 1369 3016 2328 
Q 3016 3291 2770 3770 
Q 2525 4250 2034 4250 
z
M 2034 4750 
Q 2819 4750 3233 4129 
Q 3647 3509 3647 2328 
Q 3647 1150 3233 529 
Q 2819 -91 2034 -91 
Q 1250 -91 836 529 
Q 422 1150 422 2328 
Q 422 3509 836 4129 
Q 1250 4750 2034 4750 
z
" transform="scale(0.015625)"/>
       </defs>
       <use xlink:href="#DejaVuSans-30"/>
      </g>
     </g>
    </g>
    <g id="xtick_2">
     <g id="line2d_2">
      <g>
       <use xlink:href="#mb050753761" x="390.638696" y="768.96" style="stroke: #000000; stroke-width: 0.8"/>
      </g>
     </g>
     <g id="text_2">
      <!-- 100 -->
      <g transform="translate(381.094946 783.558437) scale(0.1 -0.1)">
       <defs>
        <path id="DejaVuSans-31" d="M 794 531 
L 1825 531 
L 1825 4091 
L 703 3866 
L 703 4441 
L 1819 4666 
L 2450 4666 
L 2450 531 
L 3481 531 
L 3481 0 
L 794 0 
L 794 531 
z
" transform="scale(0.015625)"/>
       </defs>
       <use xlink:href="#DejaVuSans-31"/>
       <use xlink:href="#DejaVuSans-30" x="63.623047"/>
       <use xlink:href="#DejaVuSans-30" x="127.246094"/>
      </g>
     </g>
    </g>
    <g id="xtick_3">
     <g id="line2d_3">
      <g>
       <use xlink:href="#mb050753761" x="573.622846" y="768.96" style="stroke: #000000; stroke-width: 0.8"/>
      </g>
     </g>
     <g id="text_3">
      <!-- 200 -->
      <g transform="translate(564.079096 783.558437) scale(0.1 -0.1)">
       <defs>
        <path id="DejaVuSans-32" d="M 1228 531 
L 3431 531 
L 3431 0 
L 469 0 
L 469 531 
Q 828 903 1448 1529 
Q 2069 2156 2228 2338 
Q 2531 2678 2651 2914 
Q 2772 3150 2772 3378 
Q 2772 3750 2511 3984 
Q 2250 4219 1831 4219 
Q 1534 4219 1204 4116 
Q 875 4013 500 3803 
L 500 4441 
Q 881 4594 1212 4672 
Q 1544 4750 1819 4750 
Q 2544 4750 2975 4387 
Q 3406 4025 3406 3419 
Q 3406 3131 3298 2873 
Q 3191 2616 2906 2266 
Q 2828 2175 2409 1742 
Q 1991 1309 1228 531 
z
" transform="scale(0.015625)"/>
       </defs>
       <use xlink:href="#DejaVuSans-32"/>
       <use xlink:href="#DejaVuSans-30" x="63.623047"/>
       <use xlink:href="#DejaVuSans-30" x="127.246094"/>
      </g>
     </g>
    </g>
    <g id="xtick_4">
     <g id="line2d_4">
      <g>
       <use xlink:href="#mb050753761" x="756.606996" y="768.96" style="stroke: #000000; stroke-width: 0.8"/>
      </g>
     </g>
     <g id="text_4">
      <!-- 300 -->
      <g transform="translate(747.063246 783.558437) scale(0.1 -0.1)">
       <defs>
        <path id="DejaVuSans-33" d="M 2597 2516 
Q 3050 2419 3304 2112 
Q 3559 1806 3559 1356 
Q 3559 666 3084 287 
Q 2609 -91 1734 -91 
Q 1441 -91 1130 -33 
Q 819 25 488 141 
L 488 750 
Q 750 597 1062 519 
Q 1375 441 1716 441 
Q 2309 441 2620 675 
Q 2931 909 2931 1356 
Q 2931 1769 2642 2001 
Q 2353 2234 1838 2234 
L 1294 2234 
L 1294 2753 
L 1863 2753 
Q 2328 2753 2575 2939 
Q 2822 3125 2822 3475 
Q 2822 3834 2567 4026 
Q 2313 4219 1838 4219 
Q 1578 4219 1281 4162 
Q 984 4106 628 3988 
L 628 4550 
Q 988 4650 1302 4700 
Q 1616 4750 1894 4750 
Q 2613 4750 3031 4423 
Q 3450 4097 3450 3541 
Q 3450 3153 3228 2886 
Q 3006 2619 2597 2516 
z
" transform="scale(0.015625)"/>
       </defs>
       <use xlink:href="#DejaVuSans-33"/>
       <use xlink:href="#DejaVuSans-30" x="63.623047"/>
       <use xlink:href="#DejaVuSans-30" x="127.246094"/>
      </g>
     </g>
    </g>
    <g id="xtick_5">
     <g id="line2d_5">
      <g>
       <use xlink:href="#mb050753761" x="939.591146" y="768.96" style="stroke: #000000; stroke-width: 0.8"/>
      </g>
     </g>
     <g id="text_5">
      <!-- 400 -->
      <g transform="translate(930.047396 783.558437) scale(0.1 -0.1)">
       <defs>
        <path id="DejaVuSans-34" d="M 2419 4116 
L 825 1625 
L 2419 1625 
L 2419 4116 
z
M 2253 4666 
L 3047 4666 
L 3047 1625 
L 3713 1625 
L 3713 1100 
L 3047 1100 
L 3047 0 
L 2419 0 
L 2419 1100 
L 313 1100 
L 313 1709 
L 2253 4666 
z
" transform="scale(0.015625)"/>
       </defs>
       <use xlink:href="#DejaVuSans-34"/>
       <use xlink:href="#DejaVuSans-30" x="63.623047"/>
       <use xlink:href="#DejaVuSans-30" x="127.246094"/>
      </g>
     </g>
    </g>
    <g id="xtick_6">
     <g id="line2d_6">
      <g>
       <use xlink:href="#mb050753761" x="1122.575296" y="768.96" style="stroke: #000000; stroke-width: 0.8"/>
      </g>
     </g>
     <g id="text_6">
      <!-- 500 -->
      <g transform="translate(1113.031546 783.558437) scale(0.1 -0.1)">
       <defs>
        <path id="DejaVuSans-35" d="M 691 4666 
L 3169 4666 
L 3169 4134 
L 1269 4134 
L 1269 2991 
Q 1406 3038 1543 3061 
Q 1681 3084 1819 3084 
Q 2600 3084 3056 2656 
Q 3513 2228 3513 1497 
Q 3513 744 3044 326 
Q 2575 -91 1722 -91 
Q 1428 -91 1123 -41 
Q 819 9 494 109 
L 494 744 
Q 775 591 1075 516 
Q 1375 441 1709 441 
Q 2250 441 2565 725 
Q 2881 1009 2881 1497 
Q 2881 1984 2565 2268 
Q 2250 2553 1709 2553 
Q 1456 2553 1204 2497 
Q 953 2441 691 2322 
L 691 4666 
z
" transform="scale(0.015625)"/>
       </defs>
       <use xlink:href="#DejaVuSans-35"/>
       <use xlink:href="#DejaVuSans-30" x="63.623047"/>
       <use xlink:href="#DejaVuSans-30" x="127.246094"/>
      </g>
     </g>
    </g>
   </g>
   <g id="matplotlib.axis_2">
    <g id="ytick_1">
     <g id="line2d_7">
      <defs>
       <path id="m72e216e33a" d="M 0 0 
L -3.5 0 
" style="stroke: #000000; stroke-width: 0.8"/>
      </defs>
      <g>
       <use xlink:href="#m72e216e33a" x="162" y="738.72" style="stroke: #000000; stroke-width: 0.8"/>
      </g>
     </g>
     <g id="text_7">
      <!-- 0 -->
      <g transform="translate(148.6375 742.519219) scale(0.1 -0.1)">
       <use xlink:href="#DejaVuSans-30"/>
      </g>
     </g>
    </g>
    <g id="ytick_2">
     <g id="line2d_8">
      <g>
       <use xlink:href="#m72e216e33a" x="162" y="590.88696" style="stroke: #000000; stroke-width: 0.8"/>
      </g>
     </g>
     <g id="text_8">
      <!-- 50 -->
      <g transform="translate(142.275 594.686179) scale(0.1 -0.1)">
       <use xlink:href="#DejaVuSans-35"/>
       <use xlink:href="#DejaVuSans-30" x="63.623047"/>
      </g>
     </g>
    </g>
    <g id="ytick_3">
     <g id="line2d_9">
      <g>
       <use xlink:href="#m72e216e33a" x="162" y="443.05392" style="stroke: #000000; stroke-width: 0.8"/>
      </g>
     </g>
     <g id="text_9">
      <!-- 100 -->
      <g transform="translate(135.9125 446.853138) scale(0.1 -0.1)">
       <use xlink:href="#DejaVuSans-31"/>
       <use xlink:href="#DejaVuSans-30" x="63.623047"/>
       <use xlink:href="#DejaVuSans-30" x="127.246094"/>
      </g>
     </g>
    </g>
    <g id="ytick_4">
     <g id="line2d_10">
      <g>
       <use xlink:href="#m72e216e33a" x="162" y="295.220879" style="stroke: #000000; stroke-width: 0.8"/>
      </g>
     </g>
     <g id="text_10">
      <!-- 150 -->
      <g transform="translate(135.9125 299.020098) scale(0.1 -0.1)">
       <use xlink:href="#DejaVuSans-31"/>
       <use xlink:href="#DejaVuSans-35" x="63.623047"/>
       <use xlink:href="#DejaVuSans-30" x="127.246094"/>
      </g>
     </g>
    </g>
    <g id="ytick_5">
     <g id="line2d_11">
      <g>
       <use xlink:href="#m72e216e33a" x="162" y="147.387839" style="stroke: #000000; stroke-width: 0.8"/>
      </g>
     </g>
     <g id="text_11">
      <!-- 200 -->
      <g transform="translate(135.9125 151.187058) scale(0.1 -0.1)">
       <use xlink:href="#DejaVuSans-32"/>
       <use xlink:href="#DejaVuSans-30" x="63.623047"/>
       <use xlink:href="#DejaVuSans-30" x="127.246094"/>
      </g>
     </g>
    </g>
   </g>
   <g id="line2d_12">
    <path d="M 207.654545 700.28341 
L 209.484387 709.153392 
L 211.314228 691.413427 
L 213.14407 706.196731 
L 214.973911 629.32355 
L 216.803753 718.023374 
L 218.633594 602.713603 
L 220.463436 723.936696 
L 222.293277 602.713603 
L 224.123119 706.196731 
L 225.95296 688.456766 
L 227.782802 735.763339 
L 229.612643 715.066714 
L 231.442485 576.103656 
L 233.272326 700.28341 
L 235.102168 735.763339 
L 236.932009 703.24007 
L 238.761851 567.233673 
L 240.591692 383.920703 
L 242.421534 496.273814 
L 244.251375 221.304359 
L 246.081217 256.784289 
L 247.911058 265.654271 
L 249.7409 150.3445 
L 258.890107 150.3445 
L 260.719949 274.524254 
L 262.54979 227.217681 
L 264.379632 342.527452 
L 266.209473 514.013779 
L 268.039315 188.78109 
L 269.869156 150.3445 
L 271.698998 150.3445 
L 273.528839 212.434377 
L 275.358681 150.3445 
L 277.188522 351.397435 
L 279.018364 203.564394 
L 280.848206 274.524254 
L 282.678047 233.131002 
L 284.507889 274.524254 
L 286.33773 150.3445 
L 302.806304 150.3445 
L 304.636145 366.180739 
L 306.465987 150.3445 
L 315.615194 150.3445 
L 317.445036 454.880563 
L 319.274877 265.654271 
L 321.104719 342.527452 
L 322.93456 315.917505 
L 324.764402 280.437575 
L 326.594243 502.187136 
L 328.424085 528.797083 
L 330.253926 383.920703 
L 332.083768 380.964043 
L 333.913609 348.440774 
L 335.743451 564.277013 
L 337.573292 543.580387 
L 339.403134 351.397435 
L 341.232975 454.880563 
L 343.062817 446.01058 
L 344.892658 407.57399 
L 346.7225 584.973638 
L 348.552341 617.496907 
L 350.382183 493.317153 
L 352.212024 508.100457 
L 354.041866 537.667065 
L 355.871707 617.496907 
L 357.701549 641.150193 
L 359.53139 457.837224 
L 361.361232 602.713603 
L 363.191073 543.580387 
L 365.020915 472.620528 
L 366.850756 602.713603 
L 368.680598 573.146995 
L 370.510439 579.060317 
L 374.170122 378.007382 
L 375.999964 587.930299 
L 377.829805 658.890158 
L 379.659647 410.530651 
L 381.489488 508.100457 
L 383.31933 354.354095 
L 385.149171 410.530651 
L 386.979013 487.403832 
L 388.808854 579.060317 
L 390.638696 499.230475 
L 392.468537 475.577188 
L 394.298379 410.530651 
L 396.12822 339.570791 
L 397.958062 590.88696 
L 399.787903 534.710404 
L 401.617745 398.704007 
L 403.447586 638.193533 
L 407.107269 324.787487 
L 408.937111 605.670264 
L 410.766952 602.713603 
L 412.596794 661.846819 
L 414.426635 579.060317 
L 416.256477 602.713603 
L 418.086318 623.410229 
L 419.91616 641.150193 
L 421.746001 508.100457 
L 423.575843 425.313955 
L 425.405684 579.060317 
L 427.235526 673.673462 
L 429.065367 466.707206 
L 430.895209 599.756942 
L 432.72505 540.623726 
L 434.554892 460.793884 
L 436.384733 522.883761 
L 438.214575 596.800281 
L 440.044416 490.360492 
L 441.874258 549.493708 
L 443.704099 650.020176 
L 445.533941 576.103656 
L 447.363782 590.88696 
L 449.193624 567.233673 
L 451.023465 655.933497 
L 452.853307 561.320352 
L 454.683148 620.453568 
L 456.51299 537.667065 
L 458.342831 611.583585 
L 460.172673 596.800281 
L 462.002514 655.933497 
L 463.832356 685.500106 
L 465.662197 493.317153 
L 467.492039 522.883761 
L 469.32188 570.190334 
L 471.151722 590.88696 
L 472.981563 599.756942 
L 474.811405 697.326749 
L 476.641246 590.88696 
L 478.471088 723.936696 
L 480.300929 605.670264 
L 483.960612 564.277013 
L 485.790454 511.057118 
L 489.450137 691.413427 
L 491.279978 626.366889 
L 493.10982 570.190334 
L 494.939661 647.063515 
L 496.769503 496.273814 
L 498.599344 475.577188 
L 500.429186 596.800281 
L 502.259027 466.707206 
L 504.088869 579.060317 
L 505.91871 413.487311 
L 507.748552 516.97044 
L 509.578393 564.277013 
L 511.408235 499.230475 
L 513.238076 626.366889 
L 515.067918 673.673462 
L 516.897759 647.063515 
L 518.727601 650.020176 
L 520.557442 658.890158 
L 522.387284 626.366889 
L 524.217125 519.9271 
L 526.046967 514.013779 
L 527.876808 570.190334 
L 529.70665 685.500106 
L 531.536491 440.097259 
L 533.366333 451.923902 
L 535.196174 655.933497 
L 537.026016 697.326749 
L 538.855857 726.893357 
L 540.685699 688.456766 
L 542.51554 682.543445 
L 544.345382 679.586784 
L 546.175223 652.976837 
L 548.005065 623.410229 
L 549.834906 647.063515 
L 551.664748 655.933497 
L 553.494589 682.543445 
L 555.324431 726.893357 
L 557.154272 688.456766 
L 558.984114 735.763339 
L 560.813955 726.893357 
L 562.643797 723.936696 
L 564.473638 738.72 
L 566.30348 661.846819 
L 568.133321 694.370088 
L 569.963163 723.936696 
L 571.793004 691.413427 
L 573.622846 738.72 
L 575.452687 641.150193 
L 577.282529 682.543445 
L 579.11237 738.72 
L 580.942212 661.846819 
L 582.772053 688.456766 
L 584.601895 614.540246 
L 586.431736 661.846819 
L 588.261578 543.580387 
L 591.921261 410.530651 
L 593.751102 150.3445 
L 595.580944 514.013779 
L 597.410785 363.224078 
L 599.240627 150.3445 
L 601.070468 150.3445 
L 602.90031 212.434377 
L 604.730151 150.3445 
L 606.559993 150.3445 
L 608.389834 165.127804 
L 610.219676 150.3445 
L 619.368883 150.3445 
L 621.198725 182.867769 
L 623.028566 150.3445 
L 624.858408 386.877364 
L 626.688249 150.3445 
L 628.518091 256.784289 
L 630.347932 239.044324 
L 632.177774 271.567593 
L 634.007615 150.3445 
L 635.837457 150.3445 
L 637.667298 253.827628 
L 639.49714 150.3445 
L 650.476189 150.3445 
L 652.30603 250.870967 
L 654.135872 307.047522 
L 655.965713 150.3445 
L 657.795555 295.220879 
L 659.625396 156.257821 
L 661.455238 150.3445 
L 663.285079 375.050721 
L 665.114921 150.3445 
L 666.944762 150.3445 
L 668.774604 253.827628 
L 670.604445 150.3445 
L 674.264128 150.3445 
L 676.09397 321.830826 
L 677.923811 327.744148 
L 679.753653 437.140598 
L 681.583494 369.137399 
L 683.413336 289.307558 
L 685.243177 641.150193 
L 687.073019 540.623726 
L 688.90286 596.800281 
L 690.732702 573.146995 
L 692.562543 508.100457 
L 694.392385 451.923902 
L 696.222226 552.450369 
L 698.052068 395.747347 
L 699.881909 522.883761 
L 701.711751 505.143796 
L 703.541592 590.88696 
L 705.371434 496.273814 
L 707.201275 502.187136 
L 709.031117 584.973638 
L 710.860958 703.24007 
L 712.6908 582.016977 
L 714.520641 700.28341 
L 716.350483 614.540246 
L 718.180324 664.80348 
L 720.010166 605.670264 
L 721.840007 579.060317 
L 723.669849 650.020176 
L 725.49969 715.066714 
L 727.329532 679.586784 
L 729.159373 670.716801 
L 730.989215 682.543445 
L 732.819056 709.153392 
L 734.648898 661.846819 
L 736.478739 641.150193 
L 738.308581 525.840422 
L 740.138422 685.500106 
L 741.968264 611.583585 
L 743.798105 670.716801 
L 745.627947 697.326749 
L 747.457788 682.543445 
L 749.28763 729.850018 
L 751.117471 638.193533 
L 752.947313 712.110053 
L 754.777154 632.280211 
L 756.606996 658.890158 
L 758.436837 584.973638 
L 760.266679 623.410229 
L 762.09652 632.280211 
L 763.926362 632.280211 
L 765.756203 327.744148 
L 767.586045 511.057118 
L 769.415886 398.704007 
L 771.245728 425.313955 
L 773.075569 262.69761 
L 774.905411 150.3445 
L 782.224777 150.3445 
L 784.054618 321.830826 
L 785.88446 150.3445 
L 796.863509 150.3445 
L 798.69335 236.087663 
L 800.523192 230.174342 
L 802.353033 206.521055 
L 804.182875 150.3445 
L 806.012716 389.834025 
L 807.842558 330.700809 
L 809.672399 286.350897 
L 811.502241 224.26102 
L 813.332082 150.3445 
L 824.311131 150.3445 
L 826.140973 182.867769 
L 827.970814 150.3445 
L 829.800656 171.041125 
L 831.630497 150.3445 
L 833.460339 150.3445 
L 835.29018 348.440774 
L 837.120022 156.257821 
L 838.949863 150.3445 
L 840.779705 250.870967 
L 842.609546 253.827628 
L 844.439388 188.78109 
L 846.269229 203.564394 
L 848.099071 375.050721 
L 849.928912 404.617329 
L 851.758754 265.654271 
L 853.588595 236.087663 
L 855.418437 372.09406 
L 857.248278 620.453568 
L 859.07812 398.704007 
L 860.907961 454.880563 
L 864.567644 466.707206 
L 866.397486 537.667065 
L 868.227327 558.363691 
L 870.057169 558.363691 
L 871.88701 493.317153 
L 873.716852 451.923902 
L 875.546693 632.280211 
L 877.376535 525.840422 
L 881.036218 670.716801 
L 882.866059 644.106854 
L 884.695901 558.363691 
L 886.525742 700.28341 
L 888.355584 629.32355 
L 890.185425 514.013779 
L 892.015267 579.060317 
L 893.845108 617.496907 
L 895.67495 614.540246 
L 897.504791 617.496907 
L 899.334633 644.106854 
L 901.164474 658.890158 
L 902.994316 638.193533 
L 904.824157 632.280211 
L 906.653999 644.106854 
L 908.48384 682.543445 
L 910.313682 448.967241 
L 912.143523 605.670264 
L 913.973365 685.500106 
L 915.803206 567.233673 
L 917.633048 632.280211 
L 919.462889 650.020176 
L 921.292731 614.540246 
L 923.122572 650.020176 
L 924.952414 564.277013 
L 926.782255 691.413427 
L 928.612097 700.28341 
L 930.441938 729.850018 
L 932.27178 658.890158 
L 934.101621 641.150193 
L 935.931463 673.673462 
L 937.761304 614.540246 
L 939.591146 315.917505 
L 941.420987 516.97044 
L 943.250829 206.521055 
L 945.08067 197.651073 
L 946.910512 185.824429 
L 948.740353 224.26102 
L 950.570195 150.3445 
L 970.698451 150.3445 
L 972.528293 188.78109 
L 974.358134 197.651073 
L 976.187976 286.350897 
L 978.017817 448.967241 
L 979.847659 274.524254 
L 981.6775 150.3445 
L 983.507342 307.047522 
L 985.337183 292.264218 
L 987.167025 150.3445 
L 998.146074 150.3445 
L 999.975915 168.084465 
L 1001.805757 150.3445 
L 1007.295281 150.3445 
L 1009.125123 389.834025 
L 1010.954964 150.3445 
L 1012.784806 153.301161 
L 1014.614647 336.614131 
L 1016.444489 307.047522 
L 1018.27433 150.3445 
L 1021.934013 150.3445 
L 1023.763855 165.127804 
L 1025.593696 150.3445 
L 1027.423538 206.521055 
L 1029.253379 310.004183 
L 1031.083221 389.834025 
L 1032.913062 150.3445 
L 1034.742904 173.997786 
L 1036.572745 428.270615 
L 1038.402587 209.477716 
L 1040.232428 345.484113 
L 1042.06227 280.437575 
L 1043.892111 413.487311 
L 1045.721953 265.654271 
L 1047.551794 487.403832 
L 1049.381636 505.143796 
L 1051.211478 487.403832 
L 1053.041319 457.837224 
L 1054.871161 496.273814 
L 1056.701002 463.750545 
L 1058.530844 593.843621 
L 1060.360685 354.354095 
L 1062.190527 428.270615 
L 1064.020368 605.670264 
L 1065.85021 236.087663 
L 1067.680051 369.137399 
L 1069.509893 401.660668 
L 1071.339734 345.484113 
L 1073.169576 514.013779 
L 1074.999417 318.874166 
L 1076.829259 256.784289 
L 1078.6591 262.69761 
L 1080.488942 404.617329 
L 1082.318783 401.660668 
L 1084.148625 383.920703 
L 1085.978466 395.747347 
L 1087.808308 348.440774 
L 1089.638149 342.527452 
L 1091.467991 357.310756 
L 1093.297832 360.267417 
L 1095.127674 451.923902 
L 1096.957515 383.920703 
L 1098.787357 457.837224 
L 1100.617198 623.410229 
L 1102.44704 593.843621 
L 1104.276881 546.537048 
L 1106.106723 564.277013 
L 1107.936564 602.713603 
L 1109.766406 582.016977 
L 1111.596247 570.190334 
L 1113.426089 608.626925 
L 1115.25593 576.103656 
L 1117.085772 596.800281 
L 1118.915613 558.363691 
L 1120.745455 632.280211 
L 1120.745455 632.280211 
" clip-path="url(#p76e39c8b5b)" style="fill: none; stroke: #4169e1; stroke-linecap: square"/>
   </g>
   <g id="line2d_13">
    <path d="M 207.654545 678.414452 
L 209.484387 677.273548 
L 211.314228 687.776792 
L 213.14407 688.086648 
L 214.973911 694.569793 
L 216.803753 668.450362 
L 218.633594 690.574123 
L 220.463436 653.401415 
L 222.293277 680.099832 
L 224.123119 645.148798 
L 225.95296 662.70233 
L 227.782802 674.863919 
L 229.612643 678.35159 
L 231.442485 690.555818 
L 233.272326 591.345927 
L 235.102168 641.483955 
L 236.932009 659.909324 
L 238.761851 652.431756 
L 240.591692 559.266996 
L 242.421534 354.306589 
L 244.251375 328.40734 
L 246.081217 261.116192 
L 247.911058 224.685868 
L 251.570741 179.262534 
L 255.230424 164.682338 
L 257.060266 164.004078 
L 258.890107 165.944341 
L 260.719949 168.10048 
L 262.54979 182.419596 
L 264.379632 188.742021 
L 266.209473 231.309797 
L 268.039315 328.509841 
L 269.869156 265.711477 
L 271.698998 212.220802 
L 273.528839 177.688289 
L 275.358681 173.102974 
L 277.188522 169.533109 
L 279.018364 208.097962 
L 280.848206 193.64111 
L 282.678047 217.877735 
L 284.507889 200.055706 
L 286.33773 212.406586 
L 288.167572 190.069757 
L 291.827255 175.102789 
L 295.486938 176.522155 
L 297.316779 176.858036 
L 299.146621 176.638551 
L 300.976462 174.832325 
L 302.806304 177.216881 
L 304.636145 183.237532 
L 306.465987 233.635885 
L 308.295828 211.409408 
L 310.12567 212.45928 
L 311.955511 196.910825 
L 313.785353 189.187126 
L 315.615194 189.596455 
L 317.445036 191.376334 
L 319.274877 276.542972 
L 321.104719 275.491791 
L 322.93456 361.034757 
L 324.764402 353.020675 
L 326.594243 333.519508 
L 328.424085 406.598354 
L 330.253926 457.485078 
L 332.083768 447.129118 
L 333.913609 444.833934 
L 335.743451 412.445492 
L 339.403134 502.376371 
L 341.232975 453.09148 
L 343.062817 480.477812 
L 344.892658 466.881192 
L 346.7225 451.545905 
L 348.552341 509.913406 
L 350.382183 561.799023 
L 352.212024 539.030871 
L 354.041866 541.293775 
L 355.871707 536.252618 
L 357.701549 559.08622 
L 359.53139 584.091672 
L 361.361232 508.098134 
L 363.191073 542.762406 
L 365.020915 532.175885 
L 366.850756 498.100726 
L 368.680598 548.365178 
L 370.510439 553.03056 
L 372.340281 566.352181 
L 374.170122 530.702653 
L 375.999964 452.728484 
L 377.829805 500.798945 
L 379.659647 568.766446 
L 381.489488 481.159974 
L 383.31933 499.907201 
L 385.149171 422.38901 
L 386.979013 419.237926 
L 388.808854 444.600622 
L 390.638696 490.473483 
L 392.468537 492.1856 
L 394.298379 479.794454 
L 396.12822 453.141084 
L 397.958062 407.327729 
L 399.787903 472.889436 
L 401.617745 493.534969 
L 403.447586 443.924933 
L 405.277428 532.430154 
L 407.107269 485.706896 
L 408.937111 391.950328 
L 410.766952 486.331334 
L 414.426635 581.989908 
L 416.256477 505.670131 
L 418.086318 462.325563 
L 419.91616 508.465889 
L 421.746001 591.818552 
L 423.575843 556.007906 
L 425.405684 478.49611 
L 427.235526 495.117876 
L 429.065367 560.204295 
L 430.895209 494.633927 
L 432.72505 558.816635 
L 434.554892 537.12397 
L 436.384733 477.711356 
L 438.214575 486.732271 
L 440.044416 518.75474 
L 441.874258 492.908794 
L 443.704099 516.204386 
L 445.533941 568.907882 
L 447.363782 557.780455 
L 449.193624 569.94695 
L 451.023465 560.446755 
L 452.853307 593.1329 
L 454.683148 564.677713 
L 456.51299 588.140321 
L 458.342831 551.152093 
L 460.172673 565.931799 
L 462.002514 571.222104 
L 463.832356 603.443802 
L 465.662197 628.765917 
L 467.492039 519.349041 
L 469.32188 489.634884 
L 472.981563 531.734412 
L 474.811405 540.934637 
L 476.641246 605.842073 
L 478.471088 592.698882 
L 480.300929 661.61821 
L 482.130771 658.911509 
L 483.960612 625.54434 
L 485.790454 610.292652 
L 487.620295 544.448581 
L 489.450137 561.343214 
L 491.279978 610.888419 
L 493.10982 620.142917 
L 494.939661 621.280132 
L 496.769503 635.742172 
L 498.599344 564.458928 
L 500.429186 524.265794 
L 502.259027 550.74943 
L 504.088869 502.034308 
L 505.91871 537.41406 
L 507.748552 487.886337 
L 509.578393 493.822194 
L 511.408235 518.400565 
L 513.238076 504.007416 
L 515.067918 561.821422 
L 516.897759 612.770089 
L 518.727601 632.795955 
L 520.557442 661.054458 
L 522.387284 667.383469 
L 524.217125 650.636245 
L 526.046967 595.634903 
L 527.876808 559.351857 
L 529.70665 552.806688 
L 531.536491 603.527862 
L 533.366333 533.569512 
L 535.196174 478.101579 
L 537.026016 539.684814 
L 538.855857 588.759503 
L 540.685699 642.397805 
L 542.51554 685.62367 
L 544.345382 699.676276 
L 546.175223 704.790387 
L 548.005065 698.566905 
L 549.834906 685.358523 
L 551.664748 675.885922 
L 553.494589 664.810512 
L 555.324431 664.765922 
L 557.154272 685.248634 
L 558.984114 689.630328 
L 560.813955 705.763144 
L 562.643797 711.556951 
L 564.473638 710.366567 
L 566.30348 720.579841 
L 568.133321 703.512337 
L 569.963163 700.835175 
L 571.793004 702.20206 
L 573.622846 693.624271 
L 575.452687 709.276536 
L 577.282529 683.797897 
L 579.11237 678.864712 
L 580.942212 691.628725 
L 582.772053 658.951323 
L 584.601895 653.814849 
L 586.431736 605.909949 
L 588.261578 602.674477 
L 591.921261 439.102675 
L 593.751102 366.881849 
L 595.580944 287.259604 
L 597.410785 318.930469 
L 599.240627 281.882881 
L 601.070468 256.500831 
L 602.90031 205.258465 
L 604.730151 179.93335 
L 606.559993 171.776727 
L 608.389834 172.843427 
L 610.219676 172.501229 
L 612.049517 172.889038 
L 613.879359 172.811847 
L 615.7092 174.074572 
L 619.368883 174.643924 
L 621.198725 174.458592 
L 623.028566 176.144902 
L 624.858408 173.644084 
L 626.688249 223.380554 
L 628.518091 193.617786 
L 630.347932 226.306266 
L 632.177774 209.33804 
L 634.007615 228.409891 
L 635.837457 199.897622 
L 637.667298 187.049394 
L 639.49714 196.661338 
L 641.326981 188.660362 
L 643.156823 188.007232 
L 644.986664 182.458485 
L 646.816506 181.652279 
L 648.646347 182.612688 
L 650.476189 182.430694 
L 652.30603 180.729676 
L 654.135872 203.130117 
L 655.965713 243.894419 
L 657.795555 231.336957 
L 659.625396 266.648337 
L 661.455238 226.252309 
L 663.285079 220.041995 
L 665.114921 270.475538 
L 666.944762 232.939173 
L 668.774604 240.440094 
L 670.604445 244.947991 
L 672.434287 219.621567 
L 674.264128 225.161607 
L 676.09397 212.861075 
L 677.923811 266.249068 
L 679.753653 313.731048 
L 681.583494 399.948078 
L 683.413336 409.256827 
L 685.243177 389.910969 
L 687.073019 480.296156 
L 688.90286 514.230151 
L 690.732702 567.441067 
L 692.562543 589.440447 
L 694.392385 548.658922 
L 696.222226 516.684748 
L 698.052068 527.392854 
L 699.881909 477.690626 
L 701.711751 502.493083 
L 703.541592 508.207154 
L 705.371434 534.679478 
L 707.201275 523.498431 
L 709.031117 518.160936 
L 710.860958 518.065653 
L 712.6908 576.660049 
L 714.520641 565.583838 
L 716.350483 627.188604 
L 720.010166 637.98756 
L 721.840007 646.441407 
L 723.669849 608.747055 
L 725.49969 629.150026 
L 727.329532 652.162831 
L 729.159373 663.637599 
L 730.989215 671.805016 
L 732.819056 676.055639 
L 734.648898 679.915701 
L 736.478739 666.381949 
L 738.308581 638.160903 
L 740.138422 562.929482 
L 741.968264 618.448395 
L 743.798105 600.585909 
L 747.457788 662.693877 
L 749.28763 661.176973 
L 751.117471 685.936081 
L 752.947313 650.049534 
L 754.777154 673.538506 
L 756.606996 636.409333 
L 758.436837 617.087522 
L 760.266679 548.557571 
L 762.09652 557.661373 
L 763.926362 563.814673 
L 765.756203 561.599355 
L 767.586045 409.24936 
L 769.415886 396.131028 
L 771.245728 378.117305 
L 773.075569 379.491916 
L 774.905411 322.231268 
L 776.735252 230.476161 
L 778.565094 182.817465 
L 780.394935 167.663902 
L 782.224777 165.578413 
L 784.054618 166.606495 
L 785.88446 196.854882 
L 787.714301 185.921968 
L 789.544143 186.121016 
L 791.373984 175.545007 
L 793.203826 172.556631 
L 795.033667 172.849969 
L 796.863509 172.718729 
L 798.69335 170.760059 
L 800.523192 181.016066 
L 802.353033 188.631759 
L 804.182875 193.686632 
L 806.012716 184.126434 
L 807.842558 238.417134 
L 809.672399 262.89368 
L 811.502241 304.788521 
L 813.332082 270.596356 
L 815.161924 212.184349 
L 816.991765 187.070056 
L 818.821607 177.803964 
L 822.48129 180.42172 
L 824.311131 181.4489 
L 826.140973 181.338458 
L 827.970814 184.884818 
L 829.800656 186.268903 
L 831.630497 197.38733 
L 833.460339 196.563484 
L 835.29018 198.564382 
L 837.120022 252.556646 
L 838.949863 228.360716 
L 840.779705 232.328857 
L 842.609546 236.622502 
L 844.439388 250.345783 
L 846.269229 261.481534 
L 848.099071 257.256824 
L 849.928912 318.085915 
L 851.758754 373.755896 
L 853.588595 374.502325 
L 855.418437 363.63352 
L 857.248278 376.075532 
L 859.07812 445.570009 
L 860.907961 441.204856 
L 862.737803 462.084604 
L 864.567644 477.021276 
L 866.397486 463.17429 
L 868.227327 490.962666 
L 870.057169 514.685159 
L 871.88701 534.86754 
L 873.716852 522.106361 
L 875.546693 499.137696 
L 877.376535 542.596653 
L 879.206376 534.370756 
L 881.036218 570.445516 
L 882.866059 613.591758 
L 884.695901 621.907254 
L 886.525742 591.738597 
L 888.355584 625.194529 
L 890.185425 605.680257 
L 892.015267 572.498669 
L 893.845108 595.438021 
L 895.67495 586.119572 
L 897.504791 596.414536 
L 899.334633 618.484036 
L 901.164474 637.274776 
L 902.994316 647.020797 
L 904.824157 647.661036 
L 906.653999 643.914551 
L 908.48384 645.360427 
L 910.313682 654.718053 
L 912.143523 563.968065 
L 913.973365 579.138467 
L 915.803206 621.887381 
L 917.633048 581.539322 
L 919.462889 616.693396 
L 921.292731 633.445815 
L 923.122572 616.810402 
L 924.952414 637.355735 
L 926.782255 598.046077 
L 928.612097 632.496369 
L 930.441938 654.123047 
L 932.27178 673.433625 
L 934.101621 662.238581 
L 935.931463 619.040169 
L 937.761304 628.705508 
L 939.591146 585.568345 
L 941.420987 432.949882 
L 943.250829 454.724036 
L 945.08067 332.737574 
L 946.910512 228.155533 
L 948.740353 188.920857 
L 950.570195 182.247256 
L 952.400036 177.009397 
L 954.229878 174.468697 
L 956.059719 169.693809 
L 957.889561 168.294611 
L 959.719402 169.169121 
L 963.379085 172.389028 
L 965.208927 172.428233 
L 967.038768 174.372151 
L 968.86861 174.987927 
L 970.698451 175.337343 
L 972.528293 175.222254 
L 974.358134 177.683913 
L 976.187976 181.237536 
L 978.017817 203.914758 
L 979.847659 287.108153 
L 981.6775 290.217889 
L 983.507342 256.261856 
L 985.337183 247.408882 
L 988.996866 222.594244 
L 990.826708 198.4363 
L 992.656549 181.399499 
L 994.486391 178.464087 
L 996.316232 181.299028 
L 998.146074 182.681443 
L 999.975915 183.834224 
L 1001.805757 186.713692 
L 1003.635598 184.094131 
L 1005.46544 187.015106 
L 1007.295281 193.164335 
L 1009.125123 195.845026 
L 1010.954964 263.637718 
L 1012.784806 232.857199 
L 1014.614647 241.266241 
L 1016.444489 270.801584 
L 1018.27433 287.942331 
L 1020.104172 283.245582 
L 1021.934013 250.834875 
L 1023.763855 212.738046 
L 1025.593696 211.954939 
L 1027.423538 212.337876 
L 1029.253379 229.995821 
L 1031.083221 281.478335 
L 1032.913062 353.608208 
L 1034.742904 315.223545 
L 1036.572745 285.3248 
L 1038.402587 325.823645 
L 1040.232428 289.109051 
L 1042.06227 372.614756 
L 1043.892111 358.557917 
L 1045.721953 399.244644 
L 1047.551794 374.754067 
L 1049.381636 434.026012 
L 1051.211478 467.074149 
L 1053.041319 484.451073 
L 1054.871161 489.571926 
L 1056.701002 495.447193 
L 1058.530844 486.169596 
L 1060.360685 521.371955 
L 1062.190527 440.495828 
L 1064.020368 424.48368 
L 1065.85021 475.269346 
L 1067.680051 382.488684 
L 1069.509893 400.940158 
L 1071.339734 407.189091 
L 1073.169576 371.857838 
L 1074.999417 427.086706 
L 1076.829259 388.714382 
L 1078.6591 362.580985 
L 1080.488942 343.502795 
L 1082.318783 350.074526 
L 1084.148625 382.555183 
L 1085.978466 407.205242 
L 1087.808308 420.617747 
L 1089.638149 405.4578 
L 1091.467991 393.945677 
L 1093.297832 391.196229 
L 1095.127674 386.860739 
L 1096.957515 415.311787 
L 1098.787357 415.521144 
L 1100.617198 443.095222 
L 1102.44704 505.928167 
L 1104.276881 544.293092 
L 1106.106723 543.942977 
L 1107.936564 545.638717 
L 1109.766406 556.384301 
L 1111.596247 549.89159 
L 1113.426089 544.626763 
L 1115.25593 555.978029 
L 1117.085772 541.079772 
L 1118.915613 539.76151 
L 1120.745455 496.32511 
L 1120.745455 496.32511 
" clip-path="url(#p76e39c8b5b)" style="fill: none; stroke: #ff6347; stroke-linecap: square"/>
   </g>
   <g id="line2d_14">
    <path d="M 207.654545 674.393476 
L 209.484387 664.811375 
L 211.314228 677.209897 
L 213.14407 673.575089 
L 214.973911 683.720294 
L 216.803753 662.343288 
L 218.633594 679.756462 
L 220.463436 647.151016 
L 222.293277 667.642898 
L 224.123119 644.733694 
L 225.95296 654.976878 
L 227.782802 682.523617 
L 229.612643 678.746854 
L 231.442485 693.30068 
L 233.272326 607.005625 
L 235.102168 648.696319 
L 236.932009 666.345772 
L 238.761851 640.697994 
L 240.591692 575.870061 
L 242.421534 493.977615 
L 244.251375 464.419669 
L 246.081217 302.365842 
L 247.911058 288.149228 
L 249.7409 291.114416 
L 251.570741 206.639888 
L 253.400583 199.631353 
L 255.230424 182.770862 
L 257.060266 153.776132 
L 258.890107 148.481563 
L 260.719949 136.935401 
L 262.54979 202.685598 
L 264.379632 230.544285 
L 266.209473 296.745768 
L 268.039315 416.167349 
L 269.869156 319.765053 
L 271.698998 254.527543 
L 273.528839 213.346062 
L 275.358681 182.601996 
L 277.188522 159.823084 
L 279.018364 266.682489 
L 280.848206 245.320055 
L 282.678047 285.398337 
L 284.507889 286.184783 
L 286.33773 267.888414 
L 288.167572 223.649711 
L 289.997413 190.803238 
L 291.827255 184.850982 
L 293.657096 186.527142 
L 295.486938 191.295443 
L 297.316779 198.927603 
L 299.146621 189.015102 
L 300.976462 156.170208 
L 302.806304 152.59529 
L 304.636145 151.391936 
L 306.465987 268.648287 
L 308.295828 240.232925 
L 310.12567 249.643296 
L 311.955511 257.393748 
L 313.785353 223.004295 
L 315.615194 211.099557 
L 317.445036 204.776997 
L 319.274877 323.350753 
L 321.104719 292.738423 
L 322.93456 366.7918 
L 324.764402 397.540648 
L 326.594243 365.149724 
L 328.424085 463.873145 
L 330.253926 473.282636 
L 332.083768 446.737091 
L 333.913609 460.873377 
L 335.743451 426.633728 
L 337.573292 480.587036 
L 339.403134 501.06253 
L 341.232975 453.057801 
L 343.062817 504.135497 
L 344.892658 483.853524 
L 346.7225 444.817422 
L 348.552341 510.664437 
L 350.382183 545.30764 
L 352.212024 518.145349 
L 354.041866 531.692635 
L 355.871707 537.429309 
L 357.701549 549.333167 
L 359.53139 578.995531 
L 361.361232 537.828735 
L 363.191073 583.355451 
L 365.020915 535.525137 
L 366.850756 527.179708 
L 368.680598 586.716828 
L 370.510439 581.493417 
L 372.340281 573.776756 
L 374.170122 547.408716 
L 375.999964 482.070622 
L 377.829805 546.686108 
L 379.659647 587.370353 
L 381.489488 507.081534 
L 383.31933 544.980555 
L 385.149171 482.073577 
L 386.979013 425.611872 
L 388.808854 444.866936 
L 390.638696 498.035467 
L 394.298379 506.910683 
L 396.12822 498.280149 
L 397.958062 441.342502 
L 399.787903 515.491929 
L 401.617745 507.7752 
L 403.447586 455.397108 
L 405.277428 567.625565 
L 407.107269 502.226115 
L 408.937111 348.509394 
L 410.766952 503.998731 
L 412.596794 467.896462 
L 414.426635 513.844033 
L 416.256477 483.534425 
L 418.086318 499.921457 
L 419.91616 580.719795 
L 421.746001 586.288359 
L 423.575843 548.983119 
L 425.405684 490.025378 
L 427.235526 529.902199 
L 429.065367 548.224171 
L 430.895209 506.948647 
L 432.72505 558.348453 
L 434.554892 536.072924 
L 436.384733 478.076089 
L 438.214575 518.467515 
L 440.044416 536.7111 
L 441.874258 505.677914 
L 443.704099 530.03601 
L 445.533941 569.82559 
L 447.363782 545.285669 
L 449.193624 559.053331 
L 451.023465 562.451499 
L 452.853307 563.43759 
L 454.683148 555.433197 
L 456.51299 565.294763 
L 458.342831 554.590786 
L 460.172673 558.033956 
L 462.002514 569.136424 
L 463.832356 575.8839 
L 465.662197 629.295162 
L 467.492039 550.904389 
L 469.32188 545.076019 
L 471.151722 553.284626 
L 472.981563 537.646087 
L 474.811405 553.151706 
L 476.641246 617.086664 
L 478.471088 591.319354 
L 480.300929 656.921438 
L 482.130771 630.385243 
L 483.960612 607.516214 
L 485.790454 634.465472 
L 487.620295 544.216442 
L 489.450137 565.264062 
L 491.279978 595.275945 
L 493.10982 594.332871 
L 494.939661 599.831314 
L 496.769503 641.088623 
L 498.599344 554.530354 
L 500.429186 520.603984 
L 502.259027 563.062515 
L 504.088869 511.017868 
L 505.91871 531.510348 
L 507.748552 491.879201 
L 509.578393 502.765127 
L 511.408235 524.357467 
L 513.238076 500.95475 
L 516.897759 593.996989 
L 518.727601 612.488853 
L 520.557442 656.122868 
L 522.387284 660.107825 
L 524.217125 648.318018 
L 526.046967 585.061579 
L 527.876808 552.321002 
L 529.70665 542.979815 
L 531.536491 586.587054 
L 533.366333 522.952156 
L 535.196174 506.318345 
L 537.026016 588.687285 
L 538.855857 594.740282 
L 540.685699 651.109411 
L 542.51554 694.705344 
L 546.175223 697.279062 
L 548.005065 677.109696 
L 549.834906 652.870997 
L 551.664748 651.035468 
L 553.494589 649.977068 
L 555.324431 658.709236 
L 557.154272 683.330951 
L 558.984114 683.980957 
L 560.813955 711.128214 
L 562.643797 706.393422 
L 564.473638 704.228288 
L 566.30348 732.188128 
L 568.133321 699.143775 
L 569.963163 683.264648 
L 571.793004 700.419513 
L 573.622846 691.242435 
L 575.452687 712.813913 
L 577.282529 679.666626 
L 579.11237 669.897377 
L 580.942212 696.27323 
L 582.772053 657.634538 
L 584.601895 658.710149 
L 586.431736 607.204356 
L 588.261578 614.187153 
L 590.091419 502.508039 
L 591.921261 449.713061 
L 593.751102 391.654125 
L 595.580944 191.583593 
L 597.410785 379.727371 
L 599.240627 341.450871 
L 601.070468 252.761424 
L 602.90031 266.427904 
L 604.730151 234.706872 
L 606.559993 187.164257 
L 608.389834 173.695831 
L 610.219676 174.772818 
L 612.049517 146.618763 
L 613.879359 160.153191 
L 615.7092 181.260409 
L 617.539042 184.610654 
L 619.368883 195.590262 
L 621.198725 197.7538 
L 623.028566 192.004246 
L 624.858408 179.479763 
L 626.688249 277.514029 
L 628.518091 208.244586 
L 630.347932 267.034206 
L 632.177774 279.003864 
L 634.007615 274.754521 
L 635.837457 250.056776 
L 637.667298 217.198979 
L 639.49714 240.953909 
L 641.326981 182.291559 
L 643.156823 195.875975 
L 644.986664 213.272795 
L 646.816506 200.481772 
L 648.646347 207.953684 
L 650.476189 207.007305 
L 652.30603 173.202723 
L 654.135872 210.385837 
L 655.965713 243.068813 
L 657.795555 229.087114 
L 659.625396 310.851444 
L 661.455238 265.256898 
L 663.285079 242.629889 
L 665.114921 344.372297 
L 666.944762 253.800785 
L 668.774604 231.105471 
L 670.604445 282.645777 
L 672.434287 221.311984 
L 674.264128 246.40999 
L 676.09397 247.977152 
L 677.923811 306.071052 
L 679.753653 336.154859 
L 681.583494 398.351478 
L 683.413336 412.555189 
L 685.243177 378.747066 
L 687.073019 499.104987 
L 688.90286 500.033252 
L 690.732702 522.341726 
L 692.562543 568.439949 
L 694.392385 535.490466 
L 696.222226 510.792924 
L 698.052068 521.054864 
L 699.881909 464.01925 
L 701.711751 489.422325 
L 703.541592 498.645513 
L 705.371434 514.597861 
L 707.201275 512.572285 
L 709.031117 507.420099 
L 710.860958 550.375934 
L 712.6908 597.545244 
L 714.520641 584.523457 
L 716.350483 635.615658 
L 720.010166 644.885777 
L 721.840007 648.385962 
L 723.669849 603.07176 
L 725.49969 614.668068 
L 727.329532 650.149363 
L 729.159373 658.164595 
L 730.989215 671.279826 
L 732.819056 680.073587 
L 734.648898 683.584362 
L 736.478739 672.873403 
L 738.308581 660.23373 
L 740.138422 609.275634 
L 741.968264 623.097717 
L 743.798105 601.915957 
L 745.627947 620.777032 
L 747.457788 665.819618 
L 749.28763 667.804128 
L 751.117471 691.555384 
L 752.947313 672.175721 
L 754.777154 679.01195 
L 758.436837 649.674222 
L 760.266679 579.547807 
L 762.09652 596.75776 
L 763.926362 595.005243 
L 765.756203 553.46124 
L 767.586045 393.358955 
L 769.415886 401.707475 
L 771.245728 390.695745 
L 773.075569 385.447532 
L 774.905411 332.371961 
L 776.735252 249.443797 
L 778.565094 217.030158 
L 780.394935 171.401505 
L 782.224777 157.540939 
L 784.054618 147.259216 
L 785.88446 208.432445 
L 787.714301 159.259823 
L 789.544143 179.317529 
L 791.373984 194.923912 
L 793.203826 168.232713 
L 795.033667 179.684269 
L 796.863509 183.426474 
L 798.69335 162.107395 
L 800.523192 194.823215 
L 802.353033 201.567737 
L 804.182875 196.018855 
L 806.012716 200.393302 
L 807.842558 296.855172 
L 809.672399 302.259957 
L 811.502241 304.410367 
L 813.332082 299.291025 
L 815.161924 234.30237 
L 816.991765 192.395032 
L 818.821607 177.581411 
L 820.651448 181.572605 
L 822.48129 186.312394 
L 824.311131 194.571518 
L 826.140973 196.46396 
L 827.970814 184.685409 
L 829.800656 167.819414 
L 831.630497 167.480645 
L 833.460339 174.839994 
L 835.29018 189.994415 
L 837.120022 272.701425 
L 838.949863 238.741692 
L 840.779705 238.311024 
L 842.609546 277.538887 
L 844.439388 246.75909 
L 846.269229 232.16739 
L 848.099071 260.462475 
L 849.928912 326.837606 
L 851.758754 353.712063 
L 853.588595 341.815762 
L 855.418437 348.922061 
L 857.248278 377.250396 
L 859.07812 464.117624 
L 860.907961 426.706927 
L 862.737803 450.456963 
L 864.567644 482.281174 
L 866.397486 458.991628 
L 868.227327 488.566943 
L 870.057169 515.949959 
L 871.88701 523.759873 
L 873.716852 504.677419 
L 875.546693 478.877152 
L 877.376535 527.238741 
L 879.206376 510.925359 
L 881.036218 525.797856 
L 882.866059 596.678177 
L 884.695901 605.712661 
L 886.525742 604.899383 
L 888.355584 648.381901 
L 890.185425 621.97434 
L 892.015267 562.405696 
L 893.845108 614.095378 
L 895.67495 593.43569 
L 897.504791 587.054593 
L 899.334633 599.7145 
L 902.994316 635.908714 
L 904.824157 640.946555 
L 906.653999 643.862049 
L 908.48384 646.374676 
L 910.313682 653.312583 
L 912.143523 571.795483 
L 913.973365 594.225226 
L 915.803206 626.453747 
L 917.633048 572.232163 
L 919.462889 611.232049 
L 921.292731 640.374135 
L 923.122572 606.994955 
L 924.952414 633.393222 
L 926.782255 601.007836 
L 928.612097 633.247726 
L 930.441938 662.489573 
L 932.27178 680.636115 
L 934.101621 677.844688 
L 935.931463 644.645957 
L 937.761304 648.218213 
L 939.591146 620.950262 
L 941.420987 454.776234 
L 943.250829 504.416474 
L 945.08067 263.886122 
L 946.910512 182.995625 
L 948.740353 162.222033 
L 950.570195 178.51042 
L 952.400036 172.227652 
L 954.229878 168.868294 
L 956.059719 172.624393 
L 957.889561 165.583872 
L 959.719402 154.759505 
L 961.549244 147.679824 
L 963.379085 133.92 
L 965.208927 148.123756 
L 967.038768 169.049521 
L 968.86861 175.205381 
L 970.698451 186.42649 
L 972.528293 190.822772 
L 974.358134 188.748923 
L 976.187976 195.438675 
L 978.017817 229.304523 
L 979.847659 328.004642 
L 981.6775 300.080087 
L 983.507342 262.145853 
L 985.337183 323.166232 
L 987.167025 294.196903 
L 988.996866 228.790753 
L 990.826708 224.758459 
L 992.656549 188.457525 
L 994.486391 170.146313 
L 996.316232 187.839494 
L 998.146074 192.900998 
L 999.975915 201.611002 
L 1001.805757 212.674614 
L 1003.635598 176.70848 
L 1005.46544 168.593137 
L 1007.295281 161.580361 
L 1009.125123 167.213293 
L 1010.954964 280.265326 
L 1012.784806 238.251021 
L 1014.614647 237.978345 
L 1016.444489 331.33824 
L 1018.27433 282.972636 
L 1020.104172 246.159556 
L 1021.934013 246.85311 
L 1023.763855 220.315166 
L 1025.593696 217.053979 
L 1027.423538 218.486427 
L 1029.253379 248.781869 
L 1031.083221 304.038348 
L 1032.913062 340.977163 
L 1034.742904 291.019449 
L 1036.572745 276.192158 
L 1038.402587 347.29043 
L 1040.232428 278.391517 
L 1042.06227 346.274078 
L 1043.892111 359.161692 
L 1045.721953 395.833674 
L 1047.551794 358.31213 
L 1049.381636 418.599254 
L 1051.211478 451.751359 
L 1053.041319 450.128458 
L 1054.871161 470.551303 
L 1056.701002 478.971894 
L 1058.530844 470.601561 
L 1060.360685 508.869286 
L 1062.190527 448.204954 
L 1064.020368 447.477835 
L 1065.85021 510.451764 
L 1067.680051 334.564779 
L 1069.509893 410.39984 
L 1071.339734 428.996088 
L 1073.169576 387.999398 
L 1074.999417 463.794171 
L 1076.829259 390.674722 
L 1078.6591 328.534835 
L 1080.488942 326.287608 
L 1082.318783 357.016425 
L 1084.148625 383.794178 
L 1085.978466 403.535492 
L 1087.808308 432.842486 
L 1089.638149 410.000707 
L 1091.467991 379.686136 
L 1093.297832 384.235539 
L 1095.127674 377.254502 
L 1096.957515 415.38837 
L 1098.787357 418.162225 
L 1100.617198 449.346501 
L 1102.44704 525.539392 
L 1104.276881 545.375651 
L 1106.106723 546.123997 
L 1107.936564 561.736651 
L 1109.766406 565.722894 
L 1111.596247 559.106149 
L 1113.426089 560.855655 
L 1115.25593 574.776765 
L 1118.915613 556.482145 
L 1120.745455 547.109197 
L 1120.745455 547.109197 
" clip-path="url(#p76e39c8b5b)" style="fill: none; stroke: #da70d6; stroke-linecap: square"/>
   </g>
   <g id="line2d_15">
    <path d="M 207.654545 680.412908 
L 209.484387 678.699754 
L 211.314228 687.921459 
L 213.14407 684.512012 
L 214.973911 690.642822 
L 216.803753 675.952641 
L 218.633594 689.48632 
L 220.463436 661.127736 
L 222.293277 684.673417 
L 224.123119 655.053359 
L 225.95296 675.055168 
L 227.782802 683.056848 
L 229.612643 678.9129 
L 231.442485 684.191272 
L 233.272326 624.81545 
L 235.102168 656.154042 
L 236.932009 669.876934 
L 238.761851 660.358287 
L 240.591692 605.416266 
L 242.421534 422.67416 
L 244.251375 392.473143 
L 246.081217 265.574778 
L 247.911058 194.058605 
L 249.7409 175.261369 
L 251.570741 166.248462 
L 253.400583 164.419994 
L 255.230424 163.609095 
L 260.719949 163.535287 
L 262.54979 167.610802 
L 264.379632 169.062559 
L 266.209473 189.996941 
L 268.039315 308.606338 
L 269.869156 233.582965 
L 271.698998 189.562573 
L 273.528839 165.970463 
L 275.358681 165.919303 
L 277.188522 164.831578 
L 279.018364 179.454995 
L 280.848206 174.18745 
L 282.678047 187.308941 
L 284.507889 176.172603 
L 286.33773 182.418197 
L 288.167572 170.896306 
L 289.997413 167.246949 
L 291.827255 164.792238 
L 297.316779 164.997602 
L 300.976462 165.003016 
L 302.806304 165.548998 
L 304.636145 166.554342 
L 306.465987 190.577843 
L 308.295828 183.15249 
L 310.12567 182.918568 
L 311.955511 169.567713 
L 313.785353 167.594064 
L 315.615194 167.932201 
L 317.445036 168.917018 
L 319.274877 241.558857 
L 321.104719 261.433622 
L 322.93456 359.373146 
L 324.764402 344.034837 
L 326.594243 325.271572 
L 330.253926 447.385439 
L 332.083768 430.531963 
L 333.913609 430.206277 
L 335.743451 405.643922 
L 337.573292 448.114251 
L 339.403134 502.391123 
L 341.232975 449.077683 
L 343.062817 464.91801 
L 344.892658 450.873262 
L 346.7225 429.24201 
L 348.552341 505.689734 
L 350.382183 559.918176 
L 352.212024 531.683251 
L 354.041866 525.604921 
L 355.871707 528.059722 
L 357.701549 556.200074 
L 359.53139 590.890862 
L 361.361232 506.265943 
L 363.191073 544.658411 
L 365.020915 534.48113 
L 366.850756 489.506915 
L 368.680598 540.771568 
L 370.510439 554.699445 
L 372.340281 569.895789 
L 374.170122 503.129003 
L 375.999964 423.903116 
L 377.829805 487.329482 
L 379.659647 567.010207 
L 381.489488 479.961809 
L 383.31933 478.600755 
L 385.149171 414.048317 
L 386.979013 400.457946 
L 388.808854 417.333777 
L 390.638696 469.627324 
L 392.468537 478.769666 
L 394.298379 466.993912 
L 396.12822 438.738461 
L 397.958062 386.043638 
L 399.787903 458.420426 
L 401.617745 485.334516 
L 403.447586 438.612387 
L 405.277428 535.189752 
L 407.107269 491.714892 
L 408.937111 399.515357 
L 410.766952 500.999053 
L 412.596794 533.369946 
L 414.426635 584.801863 
L 416.256477 572.102807 
L 418.086318 543.033164 
L 419.91616 580.142221 
L 421.746001 614.373242 
L 423.575843 545.226004 
L 425.405684 436.900811 
L 427.235526 476.750112 
L 429.065367 550.514031 
L 430.895209 476.843162 
L 432.72505 529.509517 
L 434.554892 525.865077 
L 436.384733 450.10466 
L 438.214575 462.713981 
L 440.044416 506.87229 
L 441.874258 469.453946 
L 443.704099 495.308126 
L 445.533941 560.113512 
L 447.363782 548.442144 
L 449.193624 559.943395 
L 451.023465 556.453316 
L 452.853307 589.831245 
L 454.683148 564.201907 
L 456.51299 577.766394 
L 458.342831 540.74495 
L 460.172673 555.912612 
L 462.002514 567.520898 
L 463.832356 591.693076 
L 465.662197 622.642573 
L 467.492039 516.460617 
L 469.32188 482.922011 
L 471.151722 519.227997 
L 474.811405 553.79605 
L 476.641246 619.828521 
L 478.471088 609.019144 
L 480.300929 669.476543 
L 482.130771 664.883542 
L 483.960612 639.945238 
L 485.790454 629.08594 
L 487.620295 538.873938 
L 489.450137 560.645656 
L 491.279978 616.498048 
L 493.10982 622.036204 
L 494.939661 613.098617 
L 496.769503 634.994153 
L 498.599344 558.410047 
L 500.429186 504.290535 
L 502.259027 541.997886 
L 504.088869 487.951393 
L 505.91871 527.879939 
L 507.748552 469.095417 
L 509.578393 478.039253 
L 511.408235 519.404555 
L 513.238076 501.642552 
L 515.067918 560.25223 
L 516.897759 602.60835 
L 518.727601 609.419032 
L 520.557442 630.574512 
L 522.387284 642.986174 
L 524.217125 627.597493 
L 526.046967 572.67755 
L 527.876808 544.071758 
L 529.70665 553.837522 
L 531.536491 589.344521 
L 533.366333 514.562152 
L 535.196174 451.036353 
L 537.026016 546.00469 
L 540.685699 660.302841 
L 542.51554 688.36432 
L 544.345382 701.751583 
L 546.175223 706.458466 
L 548.005065 682.102637 
L 549.834906 664.870752 
L 551.664748 659.599548 
L 553.494589 653.100446 
L 555.324431 658.014334 
L 557.154272 684.990401 
L 558.984114 680.203873 
L 560.813955 697.326642 
L 562.643797 707.568669 
L 564.473638 696.36769 
L 566.30348 717.342766 
L 568.133321 698.648854 
L 569.963163 698.830143 
L 571.793004 707.381924 
L 573.622846 680.676036 
L 575.452687 695.629407 
L 577.282529 687.524492 
L 579.11237 678.561708 
L 580.942212 706.375807 
L 582.772053 657.179361 
L 584.601895 664.739309 
L 586.431736 658.362239 
L 588.261578 612.621457 
L 590.091419 550.920078 
L 591.921261 497.046612 
L 593.751102 409.719798 
L 595.580944 287.147223 
L 597.410785 311.781897 
L 599.240627 262.522835 
L 601.070468 225.892651 
L 602.90031 176.269239 
L 604.730151 168.145235 
L 606.559993 165.783867 
L 608.389834 165.916866 
L 612.049517 165.297256 
L 615.7092 165.385095 
L 621.198725 165.478528 
L 623.028566 166.61633 
L 624.858408 166.40059 
L 626.688249 189.529459 
L 628.518091 177.24756 
L 630.347932 196.723011 
L 632.177774 183.177529 
L 634.007615 194.316709 
L 635.837457 176.968117 
L 637.667298 171.33699 
L 639.49714 176.344221 
L 641.326981 171.975007 
L 643.156823 171.886943 
L 644.986664 169.047491 
L 646.816506 168.636402 
L 648.646347 168.913499 
L 652.30603 168.833826 
L 654.135872 180.504957 
L 655.965713 221.709989 
L 657.795555 204.61138 
L 659.625396 247.188495 
L 661.455238 196.037081 
L 663.285079 190.061817 
L 665.114921 232.09286 
L 666.944762 206.822333 
L 668.774604 217.343978 
L 670.604445 222.986294 
L 672.434287 197.435378 
L 674.264128 204.34299 
L 676.09397 187.597722 
L 679.753653 303.622161 
L 681.583494 377.064116 
L 683.413336 386.374534 
L 685.243177 369.674133 
L 687.073019 484.475751 
L 688.90286 511.018973 
L 690.732702 560.53535 
L 692.562543 582.341479 
L 694.392385 541.973862 
L 696.222226 511.267399 
L 698.052068 529.143702 
L 699.881909 470.806361 
L 701.711751 497.796831 
L 703.541592 500.253865 
L 705.371434 530.437128 
L 707.201275 513.86535 
L 709.031117 504.981405 
L 710.860958 522.602018 
L 712.6908 596.157843 
L 714.520641 591.526962 
L 716.350483 641.268857 
L 718.180324 645.704215 
L 720.010166 652.050218 
L 721.840007 649.6088 
L 723.669849 607.285879 
L 725.49969 624.435299 
L 727.329532 655.575453 
L 729.159373 660.819357 
L 730.989215 672.143458 
L 732.819056 671.669457 
L 734.648898 678.173154 
L 738.308581 648.954896 
L 740.138422 574.085501 
L 741.968264 609.721935 
L 743.798105 609.910437 
L 745.627947 632.214794 
L 747.457788 660.681638 
L 749.28763 657.033002 
L 751.117471 681.476434 
L 752.947313 659.15654 
L 754.777154 674.888338 
L 756.606996 660.833174 
L 758.436837 635.311379 
L 760.266679 592.205707 
L 762.09652 597.653249 
L 763.926362 600.921497 
L 765.756203 598.209417 
L 767.586045 455.639195 
L 769.415886 429.234769 
L 771.245728 395.188822 
L 773.075569 365.416489 
L 774.905411 270.981548 
L 776.735252 189.659977 
L 778.565094 168.544909 
L 780.394935 165.076869 
L 782.224777 164.727678 
L 784.054618 164.926365 
L 785.88446 174.855333 
L 787.714301 170.680656 
L 789.544143 169.95304 
L 791.373984 166.213678 
L 793.203826 165.51462 
L 796.863509 165.572052 
L 798.69335 165.558021 
L 800.523192 169.564915 
L 802.353033 173.170737 
L 804.182875 174.803 
L 806.012716 170.730508 
L 807.842558 197.014905 
L 811.502241 269.445786 
L 813.332082 228.99747 
L 815.161924 182.534819 
L 816.991765 171.72313 
L 818.821607 168.279678 
L 824.311131 169.097975 
L 826.140973 169.091568 
L 827.970814 171.072886 
L 829.800656 171.231466 
L 831.630497 173.89921 
L 833.460339 172.578196 
L 835.29018 173.258125 
L 837.120022 214.521535 
L 838.949863 200.898545 
L 840.779705 201.894686 
L 842.609546 201.822863 
L 844.439388 231.516695 
L 846.269229 252.686578 
L 848.099071 247.290771 
L 849.928912 304.095012 
L 851.758754 348.485708 
L 853.588595 349.107213 
L 855.418437 346.730868 
L 857.248278 355.809372 
L 859.07812 430.203029 
L 860.907961 428.442594 
L 862.737803 451.128478 
L 864.567644 466.697506 
L 866.397486 443.09714 
L 868.227327 477.197045 
L 870.057169 514.771261 
L 871.88701 537.24533 
L 873.716852 514.351961 
L 875.546693 481.072023 
L 877.376535 535.561139 
L 879.206376 531.889766 
L 881.036218 557.123252 
L 882.866059 593.399147 
L 884.695901 586.184098 
L 886.525742 572.233753 
L 888.355584 621.219024 
L 890.185425 619.459886 
L 892.015267 579.847033 
L 893.845108 597.334963 
L 895.67495 591.641126 
L 897.504791 599.474996 
L 899.334633 611.557441 
L 901.164474 627.222226 
L 902.994316 636.973779 
L 904.824157 638.24255 
L 906.653999 638.755091 
L 908.48384 637.037324 
L 910.313682 643.094145 
L 912.143523 543.116491 
L 913.973365 559.756562 
L 915.803206 605.896177 
L 917.633048 580.386722 
L 919.462889 609.672647 
L 921.292731 625.677791 
L 923.122572 607.984351 
L 924.952414 620.812932 
L 926.782255 595.247951 
L 930.441938 649.229399 
L 932.27178 666.905785 
L 934.101621 658.5114 
L 935.931463 634.547446 
L 937.761304 644.817287 
L 939.591146 604.910526 
L 941.420987 455.54795 
L 943.250829 482.669096 
L 945.08067 324.187186 
L 946.910512 216.711555 
L 948.740353 174.819692 
L 950.570195 168.726993 
L 952.400036 166.596299 
L 956.059719 165.032882 
L 957.889561 164.840646 
L 963.379085 165.204635 
L 965.208927 165.177972 
L 967.038768 165.554998 
L 972.528293 165.649785 
L 974.358134 167.080429 
L 976.187976 168.818938 
L 978.017817 180.376605 
L 979.847659 248.081909 
L 981.6775 261.300713 
L 983.507342 219.114023 
L 985.337183 201.902175 
L 987.167025 202.080379 
L 990.826708 174.260717 
L 992.656549 168.68851 
L 994.486391 167.815759 
L 996.316232 168.693924 
L 999.975915 169.143044 
L 1001.805757 170.385513 
L 1003.635598 169.639491 
L 1005.46544 170.243536 
L 1007.295281 170.546755 
L 1009.125123 171.150575 
L 1010.954964 223.428286 
L 1012.784806 204.018883 
L 1014.614647 210.421433 
L 1016.444489 234.187732 
L 1018.27433 276.910389 
L 1020.104172 270.38648 
L 1021.934013 231.235809 
L 1023.763855 187.594835 
L 1025.593696 189.430837 
L 1027.423538 189.307403 
L 1029.253379 211.689121 
L 1032.913062 332.724174 
L 1034.742904 286.564517 
L 1036.572745 266.2303 
L 1038.402587 301.649731 
L 1040.232428 279.027504 
L 1042.06227 363.460977 
L 1043.892111 343.417753 
L 1045.721953 378.310036 
L 1047.551794 353.117401 
L 1049.381636 415.424349 
L 1051.211478 453.607731 
L 1053.041319 475.582512 
L 1054.871161 478.118136 
L 1056.701002 479.471047 
L 1058.530844 466.145027 
L 1060.360685 516.436525 
L 1062.190527 408.875717 
L 1064.020368 416.448912 
L 1065.85021 485.054374 
L 1067.680051 343.315612 
L 1069.509893 387.070908 
L 1071.339734 390.184073 
L 1073.169576 346.055585 
L 1074.999417 405.974029 
L 1076.829259 359.718682 
L 1078.6591 338.994898 
L 1080.488942 326.985087 
L 1082.318783 329.63465 
L 1085.978466 386.042081 
L 1087.808308 401.658819 
L 1091.467991 371.203196 
L 1093.297832 370.608196 
L 1095.127674 364.324615 
L 1096.957515 392.904105 
L 1098.787357 391.323138 
L 1100.617198 416.947501 
L 1102.44704 488.8481 
L 1104.276881 533.270738 
L 1106.106723 535.846018 
L 1107.936564 542.067273 
L 1109.766406 560.351506 
L 1111.596247 559.259608 
L 1113.426089 552.361752 
L 1115.25593 565.577138 
L 1117.085772 554.81203 
L 1118.915613 557.904623 
L 1120.745455 527.292902 
L 1120.745455 527.292902 
" clip-path="url(#p76e39c8b5b)" style="fill: none; stroke: #8fbc8f; stroke-linecap: square"/>
   </g>
   <g id="patch_3">
    <path d="M 162 768.96 
L 162 103.68 
" style="fill: none; stroke: #000000; stroke-width: 0.8; stroke-linejoin: miter; stroke-linecap: square"/>
   </g>
   <g id="patch_4">
    <path d="M 1166.4 768.96 
L 1166.4 103.68 
" style="fill: none; stroke: #000000; stroke-width: 0.8; stroke-linejoin: miter; stroke-linecap: square"/>
   </g>
   <g id="patch_5">
    <path d="M 162 768.96 
L 1166.4 768.96 
" style="fill: none; stroke: #000000; stroke-width: 0.8; stroke-linejoin: miter; stroke-linecap: square"/>
   </g>
   <g id="patch_6">
    <path d="M 162 103.68 
L 1166.4 103.68 
" style="fill: none; stroke: #000000; stroke-width: 0.8; stroke-linejoin: miter; stroke-linecap: square"/>
   </g>
   <g id="text_12">
    <!-- Function 1 -->
    <g transform="translate(632.957813 97.68) scale(0.12 -0.12)">
     <defs>
      <path id="DejaVuSans-46" d="M 628 4666 
L 3309 4666 
L 3309 4134 
L 1259 4134 
L 1259 2759 
L 3109 2759 
L 3109 2228 
L 1259 2228 
L 1259 0 
L 628 0 
L 628 4666 
z
" transform="scale(0.015625)"/>
      <path id="DejaVuSans-75" d="M 544 1381 
L 544 3500 
L 1119 3500 
L 1119 1403 
Q 1119 906 1312 657 
Q 1506 409 1894 409 
Q 2359 409 2629 706 
Q 2900 1003 2900 1516 
L 2900 3500 
L 3475 3500 
L 3475 0 
L 2900 0 
L 2900 538 
Q 2691 219 2414 64 
Q 2138 -91 1772 -91 
Q 1169 -91 856 284 
Q 544 659 544 1381 
z
M 1991 3584 
L 1991 3584 
z
" transform="scale(0.015625)"/>
      <path id="DejaVuSans-6e" d="M 3513 2113 
L 3513 0 
L 2938 0 
L 2938 2094 
Q 2938 2591 2744 2837 
Q 2550 3084 2163 3084 
Q 1697 3084 1428 2787 
Q 1159 2491 1159 1978 
L 1159 0 
L 581 0 
L 581 3500 
L 1159 3500 
L 1159 2956 
Q 1366 3272 1645 3428 
Q 1925 3584 2291 3584 
Q 2894 3584 3203 3211 
Q 3513 2838 3513 2113 
z
" transform="scale(0.015625)"/>
      <path id="DejaVuSans-63" d="M 3122 3366 
L 3122 2828 
Q 2878 2963 2633 3030 
Q 2388 3097 2138 3097 
Q 1578 3097 1268 2742 
Q 959 2388 959 1747 
Q 959 1106 1268 751 
Q 1578 397 2138 397 
Q 2388 397 2633 464 
Q 2878 531 3122 666 
L 3122 134 
Q 2881 22 2623 -34 
Q 2366 -91 2075 -91 
Q 1284 -91 818 406 
Q 353 903 353 1747 
Q 353 2603 823 3093 
Q 1294 3584 2113 3584 
Q 2378 3584 2631 3529 
Q 2884 3475 3122 3366 
z
" transform="scale(0.015625)"/>
      <path id="DejaVuSans-74" d="M 1172 4494 
L 1172 3500 
L 2356 3500 
L 2356 3053 
L 1172 3053 
L 1172 1153 
Q 1172 725 1289 603 
Q 1406 481 1766 481 
L 2356 481 
L 2356 0 
L 1766 0 
Q 1100 0 847 248 
Q 594 497 594 1153 
L 594 3053 
L 172 3053 
L 172 3500 
L 594 3500 
L 594 4494 
L 1172 4494 
z
" transform="scale(0.015625)"/>
      <path id="DejaVuSans-69" d="M 603 3500 
L 1178 3500 
L 1178 0 
L 603 0 
L 603 3500 
z
M 603 4863 
L 1178 4863 
L 1178 4134 
L 603 4134 
L 603 4863 
z
" transform="scale(0.015625)"/>
      <path id="DejaVuSans-6f" d="M 1959 3097 
Q 1497 3097 1228 2736 
Q 959 2375 959 1747 
Q 959 1119 1226 758 
Q 1494 397 1959 397 
Q 2419 397 2687 759 
Q 2956 1122 2956 1747 
Q 2956 2369 2687 2733 
Q 2419 3097 1959 3097 
z
M 1959 3584 
Q 2709 3584 3137 3096 
Q 3566 2609 3566 1747 
Q 3566 888 3137 398 
Q 2709 -91 1959 -91 
Q 1206 -91 779 398 
Q 353 888 353 1747 
Q 353 2609 779 3096 
Q 1206 3584 1959 3584 
z
" transform="scale(0.015625)"/>
      <path id="DejaVuSans-20" transform="scale(0.015625)"/>
     </defs>
     <use xlink:href="#DejaVuSans-46"/>
     <use xlink:href="#DejaVuSans-75" x="52.019531"/>
     <use xlink:href="#DejaVuSans-6e" x="115.398438"/>
     <use xlink:href="#DejaVuSans-63" x="178.777344"/>
     <use xlink:href="#DejaVuSans-74" x="233.757812"/>
     <use xlink:href="#DejaVuSans-69" x="272.966797"/>
     <use xlink:href="#DejaVuSans-6f" x="300.75"/>
     <use xlink:href="#DejaVuSans-6e" x="361.931641"/>
     <use xlink:href="#DejaVuSans-20" x="425.310547"/>
     <use xlink:href="#DejaVuSans-31" x="457.097656"/>
    </g>
   </g>
   <g id="legend_1">
    <g id="patch_7">
     <path d="M 1011.90625 763.96 
L 1159.4 763.96 
Q 1161.4 763.96 1161.4 761.96 
L 1161.4 704.2475 
Q 1161.4 702.2475 1159.4 702.2475 
L 1011.90625 702.2475 
Q 1009.90625 702.2475 1009.90625 704.2475 
L 1009.90625 761.96 
Q 1009.90625 763.96 1011.90625 763.96 
z
" style="fill: #ffffff; opacity: 0.8; stroke: #cccccc; stroke-linejoin: miter"/>
    </g>
    <g id="line2d_16">
     <path d="M 1013.90625 710.345937 
L 1023.90625 710.345937 
L 1033.90625 710.345937 
" style="fill: none; stroke: #4169e1; stroke-linecap: square"/>
    </g>
    <g id="text_13">
     <!-- Truth -->
     <g transform="translate(1041.90625 713.845937) scale(0.1 -0.1)">
      <defs>
       <path id="DejaVuSans-54" d="M -19 4666 
L 3928 4666 
L 3928 4134 
L 2272 4134 
L 2272 0 
L 1638 0 
L 1638 4134 
L -19 4134 
L -19 4666 
z
" transform="scale(0.015625)"/>
       <path id="DejaVuSans-72" d="M 2631 2963 
Q 2534 3019 2420 3045 
Q 2306 3072 2169 3072 
Q 1681 3072 1420 2755 
Q 1159 2438 1159 1844 
L 1159 0 
L 581 0 
L 581 3500 
L 1159 3500 
L 1159 2956 
Q 1341 3275 1631 3429 
Q 1922 3584 2338 3584 
Q 2397 3584 2469 3576 
Q 2541 3569 2628 3553 
L 2631 2963 
z
" transform="scale(0.015625)"/>
       <path id="DejaVuSans-68" d="M 3513 2113 
L 3513 0 
L 2938 0 
L 2938 2094 
Q 2938 2591 2744 2837 
Q 2550 3084 2163 3084 
Q 1697 3084 1428 2787 
Q 1159 2491 1159 1978 
L 1159 0 
L 581 0 
L 581 4863 
L 1159 4863 
L 1159 2956 
Q 1366 3272 1645 3428 
Q 1925 3584 2291 3584 
Q 2894 3584 3203 3211 
Q 3513 2838 3513 2113 
z
" transform="scale(0.015625)"/>
      </defs>
      <use xlink:href="#DejaVuSans-54"/>
      <use xlink:href="#DejaVuSans-72" x="46.333984"/>
      <use xlink:href="#DejaVuSans-75" x="87.447266"/>
      <use xlink:href="#DejaVuSans-74" x="150.826172"/>
      <use xlink:href="#DejaVuSans-68" x="190.035156"/>
     </g>
    </g>
    <g id="line2d_17">
     <path d="M 1013.90625 725.024063 
L 1023.90625 725.024063 
L 1033.90625 725.024063 
" style="fill: none; stroke: #ff6347; stroke-linecap: square"/>
    </g>
    <g id="text_14">
     <!-- Gossip predictions -->
     <g transform="translate(1041.90625 728.524063) scale(0.1 -0.1)">
      <defs>
       <path id="DejaVuSans-47" d="M 3809 666 
L 3809 1919 
L 2778 1919 
L 2778 2438 
L 4434 2438 
L 4434 434 
Q 4069 175 3628 42 
Q 3188 -91 2688 -91 
Q 1594 -91 976 548 
Q 359 1188 359 2328 
Q 359 3472 976 4111 
Q 1594 4750 2688 4750 
Q 3144 4750 3555 4637 
Q 3966 4525 4313 4306 
L 4313 3634 
Q 3963 3931 3569 4081 
Q 3175 4231 2741 4231 
Q 1884 4231 1454 3753 
Q 1025 3275 1025 2328 
Q 1025 1384 1454 906 
Q 1884 428 2741 428 
Q 3075 428 3337 486 
Q 3600 544 3809 666 
z
" transform="scale(0.015625)"/>
       <path id="DejaVuSans-73" d="M 2834 3397 
L 2834 2853 
Q 2591 2978 2328 3040 
Q 2066 3103 1784 3103 
Q 1356 3103 1142 2972 
Q 928 2841 928 2578 
Q 928 2378 1081 2264 
Q 1234 2150 1697 2047 
L 1894 2003 
Q 2506 1872 2764 1633 
Q 3022 1394 3022 966 
Q 3022 478 2636 193 
Q 2250 -91 1575 -91 
Q 1294 -91 989 -36 
Q 684 19 347 128 
L 347 722 
Q 666 556 975 473 
Q 1284 391 1588 391 
Q 1994 391 2212 530 
Q 2431 669 2431 922 
Q 2431 1156 2273 1281 
Q 2116 1406 1581 1522 
L 1381 1569 
Q 847 1681 609 1914 
Q 372 2147 372 2553 
Q 372 3047 722 3315 
Q 1072 3584 1716 3584 
Q 2034 3584 2315 3537 
Q 2597 3491 2834 3397 
z
" transform="scale(0.015625)"/>
       <path id="DejaVuSans-70" d="M 1159 525 
L 1159 -1331 
L 581 -1331 
L 581 3500 
L 1159 3500 
L 1159 2969 
Q 1341 3281 1617 3432 
Q 1894 3584 2278 3584 
Q 2916 3584 3314 3078 
Q 3713 2572 3713 1747 
Q 3713 922 3314 415 
Q 2916 -91 2278 -91 
Q 1894 -91 1617 61 
Q 1341 213 1159 525 
z
M 3116 1747 
Q 3116 2381 2855 2742 
Q 2594 3103 2138 3103 
Q 1681 3103 1420 2742 
Q 1159 2381 1159 1747 
Q 1159 1113 1420 752 
Q 1681 391 2138 391 
Q 2594 391 2855 752 
Q 3116 1113 3116 1747 
z
" transform="scale(0.015625)"/>
       <path id="DejaVuSans-65" d="M 3597 1894 
L 3597 1613 
L 953 1613 
Q 991 1019 1311 708 
Q 1631 397 2203 397 
Q 2534 397 2845 478 
Q 3156 559 3463 722 
L 3463 178 
Q 3153 47 2828 -22 
Q 2503 -91 2169 -91 
Q 1331 -91 842 396 
Q 353 884 353 1716 
Q 353 2575 817 3079 
Q 1281 3584 2069 3584 
Q 2775 3584 3186 3129 
Q 3597 2675 3597 1894 
z
M 3022 2063 
Q 3016 2534 2758 2815 
Q 2500 3097 2075 3097 
Q 1594 3097 1305 2825 
Q 1016 2553 972 2059 
L 3022 2063 
z
" transform="scale(0.015625)"/>
       <path id="DejaVuSans-64" d="M 2906 2969 
L 2906 4863 
L 3481 4863 
L 3481 0 
L 2906 0 
L 2906 525 
Q 2725 213 2448 61 
Q 2172 -91 1784 -91 
Q 1150 -91 751 415 
Q 353 922 353 1747 
Q 353 2572 751 3078 
Q 1150 3584 1784 3584 
Q 2172 3584 2448 3432 
Q 2725 3281 2906 2969 
z
M 947 1747 
Q 947 1113 1208 752 
Q 1469 391 1925 391 
Q 2381 391 2643 752 
Q 2906 1113 2906 1747 
Q 2906 2381 2643 2742 
Q 2381 3103 1925 3103 
Q 1469 3103 1208 2742 
Q 947 2381 947 1747 
z
" transform="scale(0.015625)"/>
      </defs>
      <use xlink:href="#DejaVuSans-47"/>
      <use xlink:href="#DejaVuSans-6f" x="77.490234"/>
      <use xlink:href="#DejaVuSans-73" x="138.671875"/>
      <use xlink:href="#DejaVuSans-73" x="190.771484"/>
      <use xlink:href="#DejaVuSans-69" x="242.871094"/>
      <use xlink:href="#DejaVuSans-70" x="270.654297"/>
      <use xlink:href="#DejaVuSans-20" x="334.130859"/>
      <use xlink:href="#DejaVuSans-70" x="365.917969"/>
      <use xlink:href="#DejaVuSans-72" x="429.394531"/>
      <use xlink:href="#DejaVuSans-65" x="468.257812"/>
      <use xlink:href="#DejaVuSans-64" x="529.78125"/>
      <use xlink:href="#DejaVuSans-69" x="593.257812"/>
      <use xlink:href="#DejaVuSans-63" x="621.041016"/>
      <use xlink:href="#DejaVuSans-74" x="676.021484"/>
      <use xlink:href="#DejaVuSans-69" x="715.230469"/>
      <use xlink:href="#DejaVuSans-6f" x="743.013672"/>
      <use xlink:href="#DejaVuSans-6e" x="804.195312"/>
      <use xlink:href="#DejaVuSans-73" x="867.574219"/>
     </g>
    </g>
    <g id="line2d_18">
     <path d="M 1013.90625 739.702188 
L 1023.90625 739.702188 
L 1033.90625 739.702188 
" style="fill: none; stroke: #da70d6; stroke-linecap: square"/>
    </g>
    <g id="text_15">
     <!-- Centralized predictions -->
     <g transform="translate(1041.90625 743.202188) scale(0.1 -0.1)">
      <defs>
       <path id="DejaVuSans-43" d="M 4122 4306 
L 4122 3641 
Q 3803 3938 3442 4084 
Q 3081 4231 2675 4231 
Q 1875 4231 1450 3742 
Q 1025 3253 1025 2328 
Q 1025 1406 1450 917 
Q 1875 428 2675 428 
Q 3081 428 3442 575 
Q 3803 722 4122 1019 
L 4122 359 
Q 3791 134 3420 21 
Q 3050 -91 2638 -91 
Q 1578 -91 968 557 
Q 359 1206 359 2328 
Q 359 3453 968 4101 
Q 1578 4750 2638 4750 
Q 3056 4750 3426 4639 
Q 3797 4528 4122 4306 
z
" transform="scale(0.015625)"/>
       <path id="DejaVuSans-61" d="M 2194 1759 
Q 1497 1759 1228 1600 
Q 959 1441 959 1056 
Q 959 750 1161 570 
Q 1363 391 1709 391 
Q 2188 391 2477 730 
Q 2766 1069 2766 1631 
L 2766 1759 
L 2194 1759 
z
M 3341 1997 
L 3341 0 
L 2766 0 
L 2766 531 
Q 2569 213 2275 61 
Q 1981 -91 1556 -91 
Q 1019 -91 701 211 
Q 384 513 384 1019 
Q 384 1609 779 1909 
Q 1175 2209 1959 2209 
L 2766 2209 
L 2766 2266 
Q 2766 2663 2505 2880 
Q 2244 3097 1772 3097 
Q 1472 3097 1187 3025 
Q 903 2953 641 2809 
L 641 3341 
Q 956 3463 1253 3523 
Q 1550 3584 1831 3584 
Q 2591 3584 2966 3190 
Q 3341 2797 3341 1997 
z
" transform="scale(0.015625)"/>
       <path id="DejaVuSans-6c" d="M 603 4863 
L 1178 4863 
L 1178 0 
L 603 0 
L 603 4863 
z
" transform="scale(0.015625)"/>
       <path id="DejaVuSans-7a" d="M 353 3500 
L 3084 3500 
L 3084 2975 
L 922 459 
L 3084 459 
L 3084 0 
L 275 0 
L 275 525 
L 2438 3041 
L 353 3041 
L 353 3500 
z
" transform="scale(0.015625)"/>
      </defs>
      <use xlink:href="#DejaVuSans-43"/>
      <use xlink:href="#DejaVuSans-65" x="69.824219"/>
      <use xlink:href="#DejaVuSans-6e" x="131.347656"/>
      <use xlink:href="#DejaVuSans-74" x="194.726562"/>
      <use xlink:href="#DejaVuSans-72" x="233.935547"/>
      <use xlink:href="#DejaVuSans-61" x="275.048828"/>
      <use xlink:href="#DejaVuSans-6c" x="336.328125"/>
      <use xlink:href="#DejaVuSans-69" x="364.111328"/>
      <use xlink:href="#DejaVuSans-7a" x="391.894531"/>
      <use xlink:href="#DejaVuSans-65" x="444.384766"/>
      <use xlink:href="#DejaVuSans-64" x="505.908203"/>
      <use xlink:href="#DejaVuSans-20" x="569.384766"/>
      <use xlink:href="#DejaVuSans-70" x="601.171875"/>
      <use xlink:href="#DejaVuSans-72" x="664.648438"/>
      <use xlink:href="#DejaVuSans-65" x="703.511719"/>
      <use xlink:href="#DejaVuSans-64" x="765.035156"/>
      <use xlink:href="#DejaVuSans-69" x="828.511719"/>
      <use xlink:href="#DejaVuSans-63" x="856.294922"/>
      <use xlink:href="#DejaVuSans-74" x="911.275391"/>
      <use xlink:href="#DejaVuSans-69" x="950.484375"/>
      <use xlink:href="#DejaVuSans-6f" x="978.267578"/>
      <use xlink:href="#DejaVuSans-6e" x="1039.449219"/>
      <use xlink:href="#DejaVuSans-73" x="1102.828125"/>
     </g>
    </g>
    <g id="line2d_19">
     <path d="M 1013.90625 754.380312 
L 1023.90625 754.380312 
L 1033.90625 754.380312 
" style="fill: none; stroke: #8fbc8f; stroke-linecap: square"/>
    </g>
    <g id="text_16">
     <!-- Single predictions -->
     <g transform="translate(1041.90625 757.880312) scale(0.1 -0.1)">
      <defs>
       <path id="DejaVuSans-53" d="M 3425 4513 
L 3425 3897 
Q 3066 4069 2747 4153 
Q 2428 4238 2131 4238 
Q 1616 4238 1336 4038 
Q 1056 3838 1056 3469 
Q 1056 3159 1242 3001 
Q 1428 2844 1947 2747 
L 2328 2669 
Q 3034 2534 3370 2195 
Q 3706 1856 3706 1288 
Q 3706 609 3251 259 
Q 2797 -91 1919 -91 
Q 1588 -91 1214 -16 
Q 841 59 441 206 
L 441 856 
Q 825 641 1194 531 
Q 1563 422 1919 422 
Q 2459 422 2753 634 
Q 3047 847 3047 1241 
Q 3047 1584 2836 1778 
Q 2625 1972 2144 2069 
L 1759 2144 
Q 1053 2284 737 2584 
Q 422 2884 422 3419 
Q 422 4038 858 4394 
Q 1294 4750 2059 4750 
Q 2388 4750 2728 4690 
Q 3069 4631 3425 4513 
z
" transform="scale(0.015625)"/>
       <path id="DejaVuSans-67" d="M 2906 1791 
Q 2906 2416 2648 2759 
Q 2391 3103 1925 3103 
Q 1463 3103 1205 2759 
Q 947 2416 947 1791 
Q 947 1169 1205 825 
Q 1463 481 1925 481 
Q 2391 481 2648 825 
Q 2906 1169 2906 1791 
z
M 3481 434 
Q 3481 -459 3084 -895 
Q 2688 -1331 1869 -1331 
Q 1566 -1331 1297 -1286 
Q 1028 -1241 775 -1147 
L 775 -588 
Q 1028 -725 1275 -790 
Q 1522 -856 1778 -856 
Q 2344 -856 2625 -561 
Q 2906 -266 2906 331 
L 2906 616 
Q 2728 306 2450 153 
Q 2172 0 1784 0 
Q 1141 0 747 490 
Q 353 981 353 1791 
Q 353 2603 747 3093 
Q 1141 3584 1784 3584 
Q 2172 3584 2450 3431 
Q 2728 3278 2906 2969 
L 2906 3500 
L 3481 3500 
L 3481 434 
z
" transform="scale(0.015625)"/>
      </defs>
      <use xlink:href="#DejaVuSans-53"/>
      <use xlink:href="#DejaVuSans-69" x="63.476562"/>
      <use xlink:href="#DejaVuSans-6e" x="91.259766"/>
      <use xlink:href="#DejaVuSans-67" x="154.638672"/>
      <use xlink:href="#DejaVuSans-6c" x="218.115234"/>
      <use xlink:href="#DejaVuSans-65" x="245.898438"/>
      <use xlink:href="#DejaVuSans-20" x="307.421875"/>
      <use xlink:href="#DejaVuSans-70" x="339.208984"/>
      <use xlink:href="#DejaVuSans-72" x="402.685547"/>
      <use xlink:href="#DejaVuSans-65" x="441.548828"/>
      <use xlink:href="#DejaVuSans-64" x="503.072266"/>
      <use xlink:href="#DejaVuSans-69" x="566.548828"/>
      <use xlink:href="#DejaVuSans-63" x="594.332031"/>
      <use xlink:href="#DejaVuSans-74" x="649.3125"/>
      <use xlink:href="#DejaVuSans-69" x="688.521484"/>
      <use xlink:href="#DejaVuSans-6f" x="716.304688"/>
      <use xlink:href="#DejaVuSans-6e" x="777.486328"/>
      <use xlink:href="#DejaVuSans-73" x="840.865234"/>
     </g>
    </g>
   </g>
  </g>
 </g>
 <defs>
  <clipPath id="p76e39c8b5b">
   <rect x="162" y="103.68" width="1004.4" height="665.28"/>
  </clipPath>
 </defs>
</svg>
