<?xml version="1.0" encoding="utf-8" standalone="no"?>
<!DOCTYPE svg PUBLIC "-//W3C//DTD SVG 1.1//EN"
  "http://www.w3.org/Graphics/SVG/1.1/DTD/svg11.dtd">
<svg xmlns:xlink="http://www.w3.org/1999/xlink" width="1296pt" height="864pt" viewBox="0 0 1296 864" xmlns="http://www.w3.org/2000/svg" version="1.1">
 <metadata>
  <rdf:RDF xmlns:dc="http://purl.org/dc/elements/1.1/" xmlns:cc="http://creativecommons.org/ns#" xmlns:rdf="http://www.w3.org/1999/02/22-rdf-syntax-ns#">
   <cc:Work>
    <dc:type rdf:resource="http://purl.org/dc/dcmitype/StillImage"/>
    <dc:date>2023-12-10T12:42:26.195246</dc:date>
    <dc:format>image/svg+xml</dc:format>
    <dc:creator>
     <cc:Agent>
      <dc:title>Matplotlib v3.8.0, https://matplotlib.org/</dc:title>
     </cc:Agent>
    </dc:creator>
   </cc:Work>
  </rdf:RDF>
 </metadata>
 <defs>
  <style type="text/css">*{stroke-linejoin: round; stroke-linecap: butt}</style>
 </defs>
 <g id="figure_1">
  <g id="patch_1">
   <path d="M 0 864 
L 1296 864 
L 1296 0 
L 0 0 
z
" style="fill: #ffffff"/>
  </g>
  <g id="axes_1">
   <g id="patch_2">
    <path d="M 162 406.08 
L 618.545455 406.08 
L 618.545455 103.68 
L 162 103.68 
z
" style="fill: #ffffff"/>
   </g>
   <g id="matplotlib.axis_1">
    <g id="xtick_1">
     <g id="line2d_1">
      <defs>
       <path id="maa67f8951e" d="M 0 0 
L 0 3.5 
" style="stroke: #000000; stroke-width: 0.8"/>
      </defs>
      <g>
       <use xlink:href="#maa67f8951e" x="182.752066" y="406.08" style="stroke: #000000; stroke-width: 0.8"/>
      </g>
     </g>
     <g id="text_1">
      <!-- 0 -->
      <g transform="translate(179.570816 420.678437) scale(0.1 -0.1)">
       <defs>
        <path id="DejaVuSans-30" d="M 2034 4250 
Q 1547 4250 1301 3770 
Q 1056 3291 1056 2328 
Q 1056 1369 1301 889 
Q 1547 409 2034 409 
Q 2525 409 2770 889 
Q 3016 1369 3016 2328 
Q 3016 3291 2770 3770 
Q 2525 4250 2034 4250 
z
M 2034 4750 
Q 2819 4750 3233 4129 
Q 3647 3509 3647 2328 
Q 3647 1150 3233 529 
Q 2819 -91 2034 -91 
Q 1250 -91 836 529 
Q 422 1150 422 2328 
Q 422 3509 836 4129 
Q 1250 4750 2034 4750 
z
" transform="scale(0.015625)"/>
       </defs>
       <use xlink:href="#DejaVuSans-30"/>
      </g>
     </g>
    </g>
    <g id="xtick_2">
     <g id="line2d_2">
      <g>
       <use xlink:href="#maa67f8951e" x="266.598798" y="406.08" style="stroke: #000000; stroke-width: 0.8"/>
      </g>
     </g>
     <g id="text_2">
      <!-- 20 -->
      <g transform="translate(260.236298 420.678437) scale(0.1 -0.1)">
       <defs>
        <path id="DejaVuSans-32" d="M 1228 531 
L 3431 531 
L 3431 0 
L 469 0 
L 469 531 
Q 828 903 1448 1529 
Q 2069 2156 2228 2338 
Q 2531 2678 2651 2914 
Q 2772 3150 2772 3378 
Q 2772 3750 2511 3984 
Q 2250 4219 1831 4219 
Q 1534 4219 1204 4116 
Q 875 4013 500 3803 
L 500 4441 
Q 881 4594 1212 4672 
Q 1544 4750 1819 4750 
Q 2544 4750 2975 4387 
Q 3406 4025 3406 3419 
Q 3406 3131 3298 2873 
Q 3191 2616 2906 2266 
Q 2828 2175 2409 1742 
Q 1991 1309 1228 531 
z
" transform="scale(0.015625)"/>
       </defs>
       <use xlink:href="#DejaVuSans-32"/>
       <use xlink:href="#DejaVuSans-30" x="63.623047"/>
      </g>
     </g>
    </g>
    <g id="xtick_3">
     <g id="line2d_3">
      <g>
       <use xlink:href="#maa67f8951e" x="350.44553" y="406.08" style="stroke: #000000; stroke-width: 0.8"/>
      </g>
     </g>
     <g id="text_3">
      <!-- 40 -->
      <g transform="translate(344.08303 420.678437) scale(0.1 -0.1)">
       <defs>
        <path id="DejaVuSans-34" d="M 2419 4116 
L 825 1625 
L 2419 1625 
L 2419 4116 
z
M 2253 4666 
L 3047 4666 
L 3047 1625 
L 3713 1625 
L 3713 1100 
L 3047 1100 
L 3047 0 
L 2419 0 
L 2419 1100 
L 313 1100 
L 313 1709 
L 2253 4666 
z
" transform="scale(0.015625)"/>
       </defs>
       <use xlink:href="#DejaVuSans-34"/>
       <use xlink:href="#DejaVuSans-30" x="63.623047"/>
      </g>
     </g>
    </g>
    <g id="xtick_4">
     <g id="line2d_4">
      <g>
       <use xlink:href="#maa67f8951e" x="434.292261" y="406.08" style="stroke: #000000; stroke-width: 0.8"/>
      </g>
     </g>
     <g id="text_4">
      <!-- 60 -->
      <g transform="translate(427.929761 420.678437) scale(0.1 -0.1)">
       <defs>
        <path id="DejaVuSans-36" d="M 2113 2584 
Q 1688 2584 1439 2293 
Q 1191 2003 1191 1497 
Q 1191 994 1439 701 
Q 1688 409 2113 409 
Q 2538 409 2786 701 
Q 3034 994 3034 1497 
Q 3034 2003 2786 2293 
Q 2538 2584 2113 2584 
z
M 3366 4563 
L 3366 3988 
Q 3128 4100 2886 4159 
Q 2644 4219 2406 4219 
Q 1781 4219 1451 3797 
Q 1122 3375 1075 2522 
Q 1259 2794 1537 2939 
Q 1816 3084 2150 3084 
Q 2853 3084 3261 2657 
Q 3669 2231 3669 1497 
Q 3669 778 3244 343 
Q 2819 -91 2113 -91 
Q 1303 -91 875 529 
Q 447 1150 447 2328 
Q 447 3434 972 4092 
Q 1497 4750 2381 4750 
Q 2619 4750 2861 4703 
Q 3103 4656 3366 4563 
z
" transform="scale(0.015625)"/>
       </defs>
       <use xlink:href="#DejaVuSans-36"/>
       <use xlink:href="#DejaVuSans-30" x="63.623047"/>
      </g>
     </g>
    </g>
    <g id="xtick_5">
     <g id="line2d_5">
      <g>
       <use xlink:href="#maa67f8951e" x="518.138993" y="406.08" style="stroke: #000000; stroke-width: 0.8"/>
      </g>
     </g>
     <g id="text_5">
      <!-- 80 -->
      <g transform="translate(511.776493 420.678437) scale(0.1 -0.1)">
       <defs>
        <path id="DejaVuSans-38" d="M 2034 2216 
Q 1584 2216 1326 1975 
Q 1069 1734 1069 1313 
Q 1069 891 1326 650 
Q 1584 409 2034 409 
Q 2484 409 2743 651 
Q 3003 894 3003 1313 
Q 3003 1734 2745 1975 
Q 2488 2216 2034 2216 
z
M 1403 2484 
Q 997 2584 770 2862 
Q 544 3141 544 3541 
Q 544 4100 942 4425 
Q 1341 4750 2034 4750 
Q 2731 4750 3128 4425 
Q 3525 4100 3525 3541 
Q 3525 3141 3298 2862 
Q 3072 2584 2669 2484 
Q 3125 2378 3379 2068 
Q 3634 1759 3634 1313 
Q 3634 634 3220 271 
Q 2806 -91 2034 -91 
Q 1263 -91 848 271 
Q 434 634 434 1313 
Q 434 1759 690 2068 
Q 947 2378 1403 2484 
z
M 1172 3481 
Q 1172 3119 1398 2916 
Q 1625 2713 2034 2713 
Q 2441 2713 2670 2916 
Q 2900 3119 2900 3481 
Q 2900 3844 2670 4047 
Q 2441 4250 2034 4250 
Q 1625 4250 1398 4047 
Q 1172 3844 1172 3481 
z
" transform="scale(0.015625)"/>
       </defs>
       <use xlink:href="#DejaVuSans-38"/>
       <use xlink:href="#DejaVuSans-30" x="63.623047"/>
      </g>
     </g>
    </g>
    <g id="xtick_6">
     <g id="line2d_6">
      <g>
       <use xlink:href="#maa67f8951e" x="601.985725" y="406.08" style="stroke: #000000; stroke-width: 0.8"/>
      </g>
     </g>
     <g id="text_6">
      <!-- 100 -->
      <g transform="translate(592.441975 420.678437) scale(0.1 -0.1)">
       <defs>
        <path id="DejaVuSans-31" d="M 794 531 
L 1825 531 
L 1825 4091 
L 703 3866 
L 703 4441 
L 1819 4666 
L 2450 4666 
L 2450 531 
L 3481 531 
L 3481 0 
L 794 0 
L 794 531 
z
" transform="scale(0.015625)"/>
       </defs>
       <use xlink:href="#DejaVuSans-31"/>
       <use xlink:href="#DejaVuSans-30" x="63.623047"/>
       <use xlink:href="#DejaVuSans-30" x="127.246094"/>
      </g>
     </g>
    </g>
   </g>
   <g id="matplotlib.axis_2">
    <g id="ytick_1">
     <g id="line2d_7">
      <defs>
       <path id="m7f4d1441d9" d="M 0 0 
L -3.5 0 
" style="stroke: #000000; stroke-width: 0.8"/>
      </defs>
      <g>
       <use xlink:href="#m7f4d1441d9" x="162" y="382.086644" style="stroke: #000000; stroke-width: 0.8"/>
      </g>
     </g>
     <g id="text_7">
      <!-- 0.45 -->
      <g transform="translate(132.734375 385.885863) scale(0.1 -0.1)">
       <defs>
        <path id="DejaVuSans-2e" d="M 684 794 
L 1344 794 
L 1344 0 
L 684 0 
L 684 794 
z
" transform="scale(0.015625)"/>
        <path id="DejaVuSans-35" d="M 691 4666 
L 3169 4666 
L 3169 4134 
L 1269 4134 
L 1269 2991 
Q 1406 3038 1543 3061 
Q 1681 3084 1819 3084 
Q 2600 3084 3056 2656 
Q 3513 2228 3513 1497 
Q 3513 744 3044 326 
Q 2575 -91 1722 -91 
Q 1428 -91 1123 -41 
Q 819 9 494 109 
L 494 744 
Q 775 591 1075 516 
Q 1375 441 1709 441 
Q 2250 441 2565 725 
Q 2881 1009 2881 1497 
Q 2881 1984 2565 2268 
Q 2250 2553 1709 2553 
Q 1456 2553 1204 2497 
Q 953 2441 691 2322 
L 691 4666 
z
" transform="scale(0.015625)"/>
       </defs>
       <use xlink:href="#DejaVuSans-30"/>
       <use xlink:href="#DejaVuSans-2e" x="63.623047"/>
       <use xlink:href="#DejaVuSans-34" x="95.410156"/>
       <use xlink:href="#DejaVuSans-35" x="159.033203"/>
      </g>
     </g>
    </g>
    <g id="ytick_2">
     <g id="line2d_8">
      <g>
       <use xlink:href="#m7f4d1441d9" x="162" y="322.52322" style="stroke: #000000; stroke-width: 0.8"/>
      </g>
     </g>
     <g id="text_8">
      <!-- 0.50 -->
      <g transform="translate(132.734375 326.322438) scale(0.1 -0.1)">
       <use xlink:href="#DejaVuSans-30"/>
       <use xlink:href="#DejaVuSans-2e" x="63.623047"/>
       <use xlink:href="#DejaVuSans-35" x="95.410156"/>
       <use xlink:href="#DejaVuSans-30" x="159.033203"/>
      </g>
     </g>
    </g>
    <g id="ytick_3">
     <g id="line2d_9">
      <g>
       <use xlink:href="#m7f4d1441d9" x="162" y="262.959795" style="stroke: #000000; stroke-width: 0.8"/>
      </g>
     </g>
     <g id="text_9">
      <!-- 0.55 -->
      <g transform="translate(132.734375 266.759014) scale(0.1 -0.1)">
       <use xlink:href="#DejaVuSans-30"/>
       <use xlink:href="#DejaVuSans-2e" x="63.623047"/>
       <use xlink:href="#DejaVuSans-35" x="95.410156"/>
       <use xlink:href="#DejaVuSans-35" x="159.033203"/>
      </g>
     </g>
    </g>
    <g id="ytick_4">
     <g id="line2d_10">
      <g>
       <use xlink:href="#m7f4d1441d9" x="162" y="203.396371" style="stroke: #000000; stroke-width: 0.8"/>
      </g>
     </g>
     <g id="text_10">
      <!-- 0.60 -->
      <g transform="translate(132.734375 207.195589) scale(0.1 -0.1)">
       <use xlink:href="#DejaVuSans-30"/>
       <use xlink:href="#DejaVuSans-2e" x="63.623047"/>
       <use xlink:href="#DejaVuSans-36" x="95.410156"/>
       <use xlink:href="#DejaVuSans-30" x="159.033203"/>
      </g>
     </g>
    </g>
    <g id="ytick_5">
     <g id="line2d_11">
      <g>
       <use xlink:href="#m7f4d1441d9" x="162" y="143.832946" style="stroke: #000000; stroke-width: 0.8"/>
      </g>
     </g>
     <g id="text_11">
      <!-- 0.65 -->
      <g transform="translate(132.734375 147.632165) scale(0.1 -0.1)">
       <use xlink:href="#DejaVuSans-30"/>
       <use xlink:href="#DejaVuSans-2e" x="63.623047"/>
       <use xlink:href="#DejaVuSans-36" x="95.410156"/>
       <use xlink:href="#DejaVuSans-35" x="159.033203"/>
      </g>
     </g>
    </g>
   </g>
   <g id="line2d_12">
    <path d="M 182.752066 165.410725 
L 186.944403 117.425455 
L 191.136739 121.511445 
L 195.329076 251.148787 
L 199.521412 304.60763 
L 203.713749 315.526658 
L 207.906086 315.548101 
L 212.098422 320.62227 
L 216.290759 295.248301 
L 220.483095 318.034133 
L 224.675432 330.028072 
L 228.867769 283.418419 
L 233.060105 299.1244 
L 237.252442 332.898632 
L 241.444778 315.412978 
L 245.637115 337.490676 
L 249.829452 328.633602 
L 254.021788 305.242203 
L 258.214125 292.726057 
L 262.406461 311.781208 
L 266.598798 313.462396 
L 270.791134 326.186446 
L 274.983471 298.523129 
L 279.175808 296.953205 
L 283.368144 325.878177 
L 287.560481 307.860091 
L 291.752817 298.338444 
L 295.945154 324.418027 
L 300.137491 315.013503 
L 304.329827 311.542133 
L 308.522164 331.439547 
L 312.7145 314.781459 
L 316.906837 326.162943 
L 321.099174 326.59121 
L 325.29151 314.842736 
L 329.483847 313.650915 
L 333.676183 332.069292 
L 337.86852 313.785186 
L 342.060856 280.503162 
L 346.253193 320.801984 
L 350.44553 337.494368 
L 354.637866 337.400926 
L 358.830203 316.211218 
L 363.022539 327.615885 
L 367.214876 300.114141 
L 371.407213 340.096778 
L 375.599549 303.717225 
L 379.791886 314.467403 
L 383.984222 325.732616 
L 388.176559 335.375398 
L 392.368896 302.737213 
L 396.561232 342.210423 
L 400.753569 313.220695 
L 404.945905 300.054781 
L 409.138242 334.659382 
L 413.330579 319.163186 
L 417.522915 322.777844 
L 421.715252 302.268437 
L 425.907588 303.52679 
L 430.099925 314.810429 
L 434.292261 337.696875 
L 438.484598 290.182795 
L 442.676935 339.762947 
L 446.869271 325.824 
L 451.061608 344.533746 
L 455.253944 339.275852 
L 459.446281 305.401538 
L 463.638618 271.649318 
L 467.830954 284.13827 
L 472.023291 303.111765 
L 476.215627 349.77247 
L 480.407964 342.82373 
L 484.600301 316.76307 
L 488.792637 343.080946 
L 492.984974 271.468468 
L 497.17731 337.275424 
L 501.369647 325.169155 
L 505.561983 343.631307 
L 509.75432 354.965004 
L 513.946657 344.386695 
L 518.138993 261.054003 
L 522.33133 341.094932 
L 526.523666 352.792354 
L 530.716003 350.403883 
L 534.90834 343.826748 
L 539.100676 328.548254 
L 543.293013 339.328679 
L 547.485349 343.625662 
L 551.677686 340.975715 
L 555.870023 286.296542 
L 560.062359 342.875599 
L 564.254696 340.057334 
L 568.447032 340.587281 
L 572.639369 341.238895 
L 576.831705 290.780658 
L 581.024042 293.46593 
L 585.216379 288.848608 
L 589.408715 341.850214 
L 593.601052 293.537361 
L 597.793388 289.920999 
" clip-path="url(#p1ecce9a3ec)" style="fill: none; stroke: #4169e1; stroke-linecap: square"/>
   </g>
   <g id="line2d_13">
    <path d="M 182.752066 358.360612 
L 186.944403 355.21725 
L 191.136739 342.191429 
L 195.329076 349.805629 
L 199.521412 344.844145 
L 203.713749 363.263232 
L 207.906086 336.447185 
L 212.098422 334.234665 
L 216.290759 334.945497 
L 220.483095 344.706502 
L 224.675432 331.629344 
L 228.867769 335.050798 
L 233.060105 314.137726 
L 237.252442 377.807037 
L 241.444778 342.940427 
L 245.637115 370.658772 
L 249.829452 309.192858 
L 254.021788 360.885981 
L 258.214125 332.974323 
L 262.406461 345.656977 
L 266.598798 335.633288 
L 270.791134 326.725303 
L 274.983471 346.588102 
L 279.175808 329.522799 
L 283.368144 331.281454 
L 287.560481 306.25005 
L 291.752817 357.442231 
L 295.945154 369.668038 
L 300.137491 320.578318 
L 304.329827 342.990876 
L 308.522164 338.515351 
L 312.7145 370.694807 
L 316.906837 362.910266 
L 321.099174 331.682385 
L 325.29151 354.212527 
L 329.483847 302.747224 
L 333.676183 359.115645 
L 337.86852 321.904907 
L 342.060856 352.305969 
L 346.253193 358.491226 
L 350.44553 353.529245 
L 354.637866 369.82006 
L 358.830203 337.458049 
L 363.022539 373.643793 
L 367.214876 302.190047 
L 371.407213 367.276088 
L 375.599549 355.985845 
L 379.791886 356.304055 
L 383.984222 339.982921 
L 388.176559 360.448802 
L 392.368896 366.838341 
L 396.561232 392.334545 
L 400.753569 345.038912 
L 404.945905 365.77756 
L 409.138242 327.34532 
L 413.330579 334.450733 
L 417.522915 330.409973 
L 421.715252 360.118309 
L 425.907588 321.703323 
L 430.099925 363.371409 
L 434.292261 353.676971 
L 438.484598 359.986772 
L 442.676935 384.564525 
L 446.869271 340.483933 
L 451.061608 356.3168 
L 455.253944 319.317764 
L 459.446281 323.124101 
L 463.638618 343.446587 
L 467.830954 319.096938 
L 472.023291 332.163232 
L 476.215627 379.1212 
L 480.407964 339.803881 
L 484.600301 363.135175 
L 488.792637 370.414657 
L 492.984974 343.966025 
L 497.17731 349.35148 
L 501.369647 347.986229 
L 505.561983 340.61302 
L 509.75432 381.14726 
L 513.946657 353.960353 
L 518.138993 368.508417 
L 522.33133 383.499767 
L 526.523666 322.352381 
L 530.716003 374.455843 
L 534.90834 368.614144 
L 539.100676 319.304628 
L 543.293013 377.885888 
L 547.485349 366.435351 
L 551.677686 360.018014 
L 555.870023 361.237101 
L 560.062359 348.875639 
L 564.254696 355.056423 
L 568.447032 330.379512 
L 572.639369 385.872155 
L 576.831705 341.372136 
L 581.024042 347.538045 
L 585.216379 346.831899 
L 589.408715 338.699894 
L 593.601052 295.034931 
L 597.793388 325.023062 
" clip-path="url(#p1ecce9a3ec)" style="fill: none; stroke: #ff6347; stroke-linecap: square"/>
   </g>
   <g id="patch_3">
    <path d="M 162 406.08 
L 162 103.68 
" style="fill: none; stroke: #000000; stroke-width: 0.8; stroke-linejoin: miter; stroke-linecap: square"/>
   </g>
   <g id="patch_4">
    <path d="M 618.545455 406.08 
L 618.545455 103.68 
" style="fill: none; stroke: #000000; stroke-width: 0.8; stroke-linejoin: miter; stroke-linecap: square"/>
   </g>
   <g id="patch_5">
    <path d="M 162 406.08 
L 618.545455 406.08 
" style="fill: none; stroke: #000000; stroke-width: 0.8; stroke-linejoin: miter; stroke-linecap: square"/>
   </g>
   <g id="patch_6">
    <path d="M 162 103.68 
L 618.545455 103.68 
" style="fill: none; stroke: #000000; stroke-width: 0.8; stroke-linejoin: miter; stroke-linecap: square"/>
   </g>
   <g id="text_12">
    <!-- MSLE -->
    <g transform="translate(374.152415 97.68) scale(0.12 -0.12)">
     <defs>
      <path id="DejaVuSans-4d" d="M 628 4666 
L 1569 4666 
L 2759 1491 
L 3956 4666 
L 4897 4666 
L 4897 0 
L 4281 0 
L 4281 4097 
L 3078 897 
L 2444 897 
L 1241 4097 
L 1241 0 
L 628 0 
L 628 4666 
z
" transform="scale(0.015625)"/>
      <path id="DejaVuSans-53" d="M 3425 4513 
L 3425 3897 
Q 3066 4069 2747 4153 
Q 2428 4238 2131 4238 
Q 1616 4238 1336 4038 
Q 1056 3838 1056 3469 
Q 1056 3159 1242 3001 
Q 1428 2844 1947 2747 
L 2328 2669 
Q 3034 2534 3370 2195 
Q 3706 1856 3706 1288 
Q 3706 609 3251 259 
Q 2797 -91 1919 -91 
Q 1588 -91 1214 -16 
Q 841 59 441 206 
L 441 856 
Q 825 641 1194 531 
Q 1563 422 1919 422 
Q 2459 422 2753 634 
Q 3047 847 3047 1241 
Q 3047 1584 2836 1778 
Q 2625 1972 2144 2069 
L 1759 2144 
Q 1053 2284 737 2584 
Q 422 2884 422 3419 
Q 422 4038 858 4394 
Q 1294 4750 2059 4750 
Q 2388 4750 2728 4690 
Q 3069 4631 3425 4513 
z
" transform="scale(0.015625)"/>
      <path id="DejaVuSans-4c" d="M 628 4666 
L 1259 4666 
L 1259 531 
L 3531 531 
L 3531 0 
L 628 0 
L 628 4666 
z
" transform="scale(0.015625)"/>
      <path id="DejaVuSans-45" d="M 628 4666 
L 3578 4666 
L 3578 4134 
L 1259 4134 
L 1259 2753 
L 3481 2753 
L 3481 2222 
L 1259 2222 
L 1259 531 
L 3634 531 
L 3634 0 
L 628 0 
L 628 4666 
z
" transform="scale(0.015625)"/>
     </defs>
     <use xlink:href="#DejaVuSans-4d"/>
     <use xlink:href="#DejaVuSans-53" x="86.279297"/>
     <use xlink:href="#DejaVuSans-4c" x="149.755859"/>
     <use xlink:href="#DejaVuSans-45" x="205.46875"/>
    </g>
   </g>
   <g id="legend_1">
    <g id="patch_7">
     <path d="M 530.164205 141.03625 
L 611.545455 141.03625 
Q 613.545455 141.03625 613.545455 139.03625 
L 613.545455 110.68 
Q 613.545455 108.68 611.545455 108.68 
L 530.164205 108.68 
Q 528.164205 108.68 528.164205 110.68 
L 528.164205 139.03625 
Q 528.164205 141.03625 530.164205 141.03625 
z
" style="fill: #ffffff; opacity: 0.8; stroke: #cccccc; stroke-linejoin: miter"/>
    </g>
    <g id="line2d_14">
     <path d="M 532.164205 116.778437 
L 542.164205 116.778437 
L 552.164205 116.778437 
" style="fill: none; stroke: #4169e1; stroke-linecap: square"/>
    </g>
    <g id="text_13">
     <!-- Training -->
     <g transform="translate(560.164205 120.278437) scale(0.1 -0.1)">
      <defs>
       <path id="DejaVuSans-54" d="M -19 4666 
L 3928 4666 
L 3928 4134 
L 2272 4134 
L 2272 0 
L 1638 0 
L 1638 4134 
L -19 4134 
L -19 4666 
z
" transform="scale(0.015625)"/>
       <path id="DejaVuSans-72" d="M 2631 2963 
Q 2534 3019 2420 3045 
Q 2306 3072 2169 3072 
Q 1681 3072 1420 2755 
Q 1159 2438 1159 1844 
L 1159 0 
L 581 0 
L 581 3500 
L 1159 3500 
L 1159 2956 
Q 1341 3275 1631 3429 
Q 1922 3584 2338 3584 
Q 2397 3584 2469 3576 
Q 2541 3569 2628 3553 
L 2631 2963 
z
" transform="scale(0.015625)"/>
       <path id="DejaVuSans-61" d="M 2194 1759 
Q 1497 1759 1228 1600 
Q 959 1441 959 1056 
Q 959 750 1161 570 
Q 1363 391 1709 391 
Q 2188 391 2477 730 
Q 2766 1069 2766 1631 
L 2766 1759 
L 2194 1759 
z
M 3341 1997 
L 3341 0 
L 2766 0 
L 2766 531 
Q 2569 213 2275 61 
Q 1981 -91 1556 -91 
Q 1019 -91 701 211 
Q 384 513 384 1019 
Q 384 1609 779 1909 
Q 1175 2209 1959 2209 
L 2766 2209 
L 2766 2266 
Q 2766 2663 2505 2880 
Q 2244 3097 1772 3097 
Q 1472 3097 1187 3025 
Q 903 2953 641 2809 
L 641 3341 
Q 956 3463 1253 3523 
Q 1550 3584 1831 3584 
Q 2591 3584 2966 3190 
Q 3341 2797 3341 1997 
z
" transform="scale(0.015625)"/>
       <path id="DejaVuSans-69" d="M 603 3500 
L 1178 3500 
L 1178 0 
L 603 0 
L 603 3500 
z
M 603 4863 
L 1178 4863 
L 1178 4134 
L 603 4134 
L 603 4863 
z
" transform="scale(0.015625)"/>
       <path id="DejaVuSans-6e" d="M 3513 2113 
L 3513 0 
L 2938 0 
L 2938 2094 
Q 2938 2591 2744 2837 
Q 2550 3084 2163 3084 
Q 1697 3084 1428 2787 
Q 1159 2491 1159 1978 
L 1159 0 
L 581 0 
L 581 3500 
L 1159 3500 
L 1159 2956 
Q 1366 3272 1645 3428 
Q 1925 3584 2291 3584 
Q 2894 3584 3203 3211 
Q 3513 2838 3513 2113 
z
" transform="scale(0.015625)"/>
       <path id="DejaVuSans-67" d="M 2906 1791 
Q 2906 2416 2648 2759 
Q 2391 3103 1925 3103 
Q 1463 3103 1205 2759 
Q 947 2416 947 1791 
Q 947 1169 1205 825 
Q 1463 481 1925 481 
Q 2391 481 2648 825 
Q 2906 1169 2906 1791 
z
M 3481 434 
Q 3481 -459 3084 -895 
Q 2688 -1331 1869 -1331 
Q 1566 -1331 1297 -1286 
Q 1028 -1241 775 -1147 
L 775 -588 
Q 1028 -725 1275 -790 
Q 1522 -856 1778 -856 
Q 2344 -856 2625 -561 
Q 2906 -266 2906 331 
L 2906 616 
Q 2728 306 2450 153 
Q 2172 0 1784 0 
Q 1141 0 747 490 
Q 353 981 353 1791 
Q 353 2603 747 3093 
Q 1141 3584 1784 3584 
Q 2172 3584 2450 3431 
Q 2728 3278 2906 2969 
L 2906 3500 
L 3481 3500 
L 3481 434 
z
" transform="scale(0.015625)"/>
      </defs>
      <use xlink:href="#DejaVuSans-54"/>
      <use xlink:href="#DejaVuSans-72" x="46.333984"/>
      <use xlink:href="#DejaVuSans-61" x="87.447266"/>
      <use xlink:href="#DejaVuSans-69" x="148.726562"/>
      <use xlink:href="#DejaVuSans-6e" x="176.509766"/>
      <use xlink:href="#DejaVuSans-69" x="239.888672"/>
      <use xlink:href="#DejaVuSans-6e" x="267.671875"/>
      <use xlink:href="#DejaVuSans-67" x="331.050781"/>
     </g>
    </g>
    <g id="line2d_15">
     <path d="M 532.164205 131.456562 
L 542.164205 131.456562 
L 552.164205 131.456562 
" style="fill: none; stroke: #ff6347; stroke-linecap: square"/>
    </g>
    <g id="text_14">
     <!-- Validation -->
     <g transform="translate(560.164205 134.956562) scale(0.1 -0.1)">
      <defs>
       <path id="DejaVuSans-56" d="M 1831 0 
L 50 4666 
L 709 4666 
L 2188 738 
L 3669 4666 
L 4325 4666 
L 2547 0 
L 1831 0 
z
" transform="scale(0.015625)"/>
       <path id="DejaVuSans-6c" d="M 603 4863 
L 1178 4863 
L 1178 0 
L 603 0 
L 603 4863 
z
" transform="scale(0.015625)"/>
       <path id="DejaVuSans-64" d="M 2906 2969 
L 2906 4863 
L 3481 4863 
L 3481 0 
L 2906 0 
L 2906 525 
Q 2725 213 2448 61 
Q 2172 -91 1784 -91 
Q 1150 -91 751 415 
Q 353 922 353 1747 
Q 353 2572 751 3078 
Q 1150 3584 1784 3584 
Q 2172 3584 2448 3432 
Q 2725 3281 2906 2969 
z
M 947 1747 
Q 947 1113 1208 752 
Q 1469 391 1925 391 
Q 2381 391 2643 752 
Q 2906 1113 2906 1747 
Q 2906 2381 2643 2742 
Q 2381 3103 1925 3103 
Q 1469 3103 1208 2742 
Q 947 2381 947 1747 
z
" transform="scale(0.015625)"/>
       <path id="DejaVuSans-74" d="M 1172 4494 
L 1172 3500 
L 2356 3500 
L 2356 3053 
L 1172 3053 
L 1172 1153 
Q 1172 725 1289 603 
Q 1406 481 1766 481 
L 2356 481 
L 2356 0 
L 1766 0 
Q 1100 0 847 248 
Q 594 497 594 1153 
L 594 3053 
L 172 3053 
L 172 3500 
L 594 3500 
L 594 4494 
L 1172 4494 
z
" transform="scale(0.015625)"/>
       <path id="DejaVuSans-6f" d="M 1959 3097 
Q 1497 3097 1228 2736 
Q 959 2375 959 1747 
Q 959 1119 1226 758 
Q 1494 397 1959 397 
Q 2419 397 2687 759 
Q 2956 1122 2956 1747 
Q 2956 2369 2687 2733 
Q 2419 3097 1959 3097 
z
M 1959 3584 
Q 2709 3584 3137 3096 
Q 3566 2609 3566 1747 
Q 3566 888 3137 398 
Q 2709 -91 1959 -91 
Q 1206 -91 779 398 
Q 353 888 353 1747 
Q 353 2609 779 3096 
Q 1206 3584 1959 3584 
z
" transform="scale(0.015625)"/>
      </defs>
      <use xlink:href="#DejaVuSans-56"/>
      <use xlink:href="#DejaVuSans-61" x="60.658203"/>
      <use xlink:href="#DejaVuSans-6c" x="121.9375"/>
      <use xlink:href="#DejaVuSans-69" x="149.720703"/>
      <use xlink:href="#DejaVuSans-64" x="177.503906"/>
      <use xlink:href="#DejaVuSans-61" x="240.980469"/>
      <use xlink:href="#DejaVuSans-74" x="302.259766"/>
      <use xlink:href="#DejaVuSans-69" x="341.46875"/>
      <use xlink:href="#DejaVuSans-6f" x="369.251953"/>
      <use xlink:href="#DejaVuSans-6e" x="430.433594"/>
     </g>
    </g>
   </g>
  </g>
  <g id="axes_2">
   <g id="patch_8">
    <path d="M 709.854545 406.08 
L 1166.4 406.08 
L 1166.4 103.68 
L 709.854545 103.68 
z
" style="fill: #ffffff"/>
   </g>
   <g id="matplotlib.axis_3">
    <g id="xtick_7">
     <g id="line2d_16">
      <g>
       <use xlink:href="#maa67f8951e" x="730.606612" y="406.08" style="stroke: #000000; stroke-width: 0.8"/>
      </g>
     </g>
     <g id="text_15">
      <!-- 0 -->
      <g transform="translate(727.425362 420.678437) scale(0.1 -0.1)">
       <use xlink:href="#DejaVuSans-30"/>
      </g>
     </g>
    </g>
    <g id="xtick_8">
     <g id="line2d_17">
      <g>
       <use xlink:href="#maa67f8951e" x="814.453343" y="406.08" style="stroke: #000000; stroke-width: 0.8"/>
      </g>
     </g>
     <g id="text_16">
      <!-- 20 -->
      <g transform="translate(808.090843 420.678437) scale(0.1 -0.1)">
       <use xlink:href="#DejaVuSans-32"/>
       <use xlink:href="#DejaVuSans-30" x="63.623047"/>
      </g>
     </g>
    </g>
    <g id="xtick_9">
     <g id="line2d_18">
      <g>
       <use xlink:href="#maa67f8951e" x="898.300075" y="406.08" style="stroke: #000000; stroke-width: 0.8"/>
      </g>
     </g>
     <g id="text_17">
      <!-- 40 -->
      <g transform="translate(891.937575 420.678437) scale(0.1 -0.1)">
       <use xlink:href="#DejaVuSans-34"/>
       <use xlink:href="#DejaVuSans-30" x="63.623047"/>
      </g>
     </g>
    </g>
    <g id="xtick_10">
     <g id="line2d_19">
      <g>
       <use xlink:href="#maa67f8951e" x="982.146807" y="406.08" style="stroke: #000000; stroke-width: 0.8"/>
      </g>
     </g>
     <g id="text_18">
      <!-- 60 -->
      <g transform="translate(975.784307 420.678437) scale(0.1 -0.1)">
       <use xlink:href="#DejaVuSans-36"/>
       <use xlink:href="#DejaVuSans-30" x="63.623047"/>
      </g>
     </g>
    </g>
    <g id="xtick_11">
     <g id="line2d_20">
      <g>
       <use xlink:href="#maa67f8951e" x="1065.993539" y="406.08" style="stroke: #000000; stroke-width: 0.8"/>
      </g>
     </g>
     <g id="text_19">
      <!-- 80 -->
      <g transform="translate(1059.631039 420.678437) scale(0.1 -0.1)">
       <use xlink:href="#DejaVuSans-38"/>
       <use xlink:href="#DejaVuSans-30" x="63.623047"/>
      </g>
     </g>
    </g>
    <g id="xtick_12">
     <g id="line2d_21">
      <g>
       <use xlink:href="#maa67f8951e" x="1149.84027" y="406.08" style="stroke: #000000; stroke-width: 0.8"/>
      </g>
     </g>
     <g id="text_20">
      <!-- 100 -->
      <g transform="translate(1140.29652 420.678437) scale(0.1 -0.1)">
       <use xlink:href="#DejaVuSans-31"/>
       <use xlink:href="#DejaVuSans-30" x="63.623047"/>
       <use xlink:href="#DejaVuSans-30" x="127.246094"/>
      </g>
     </g>
    </g>
   </g>
   <g id="matplotlib.axis_4">
    <g id="ytick_6">
     <g id="line2d_22">
      <g>
       <use xlink:href="#m7f4d1441d9" x="709.854545" y="352.934969" style="stroke: #000000; stroke-width: 0.8"/>
      </g>
     </g>
     <g id="text_21">
      <!-- 18 -->
      <g transform="translate(690.129545 356.734187) scale(0.1 -0.1)">
       <use xlink:href="#DejaVuSans-31"/>
       <use xlink:href="#DejaVuSans-38" x="63.623047"/>
      </g>
     </g>
    </g>
    <g id="ytick_7">
     <g id="line2d_23">
      <g>
       <use xlink:href="#m7f4d1441d9" x="709.854545" y="297.546469" style="stroke: #000000; stroke-width: 0.8"/>
      </g>
     </g>
     <g id="text_22">
      <!-- 20 -->
      <g transform="translate(690.129545 301.345688) scale(0.1 -0.1)">
       <use xlink:href="#DejaVuSans-32"/>
       <use xlink:href="#DejaVuSans-30" x="63.623047"/>
      </g>
     </g>
    </g>
    <g id="ytick_8">
     <g id="line2d_24">
      <g>
       <use xlink:href="#m7f4d1441d9" x="709.854545" y="242.15797" style="stroke: #000000; stroke-width: 0.8"/>
      </g>
     </g>
     <g id="text_23">
      <!-- 22 -->
      <g transform="translate(690.129545 245.957189) scale(0.1 -0.1)">
       <use xlink:href="#DejaVuSans-32"/>
       <use xlink:href="#DejaVuSans-32" x="63.623047"/>
      </g>
     </g>
    </g>
    <g id="ytick_9">
     <g id="line2d_25">
      <g>
       <use xlink:href="#m7f4d1441d9" x="709.854545" y="186.769471" style="stroke: #000000; stroke-width: 0.8"/>
      </g>
     </g>
     <g id="text_24">
      <!-- 24 -->
      <g transform="translate(690.129545 190.568689) scale(0.1 -0.1)">
       <use xlink:href="#DejaVuSans-32"/>
       <use xlink:href="#DejaVuSans-34" x="63.623047"/>
      </g>
     </g>
    </g>
    <g id="ytick_10">
     <g id="line2d_26">
      <g>
       <use xlink:href="#m7f4d1441d9" x="709.854545" y="131.380971" style="stroke: #000000; stroke-width: 0.8"/>
      </g>
     </g>
     <g id="text_25">
      <!-- 26 -->
      <g transform="translate(690.129545 135.18019) scale(0.1 -0.1)">
       <use xlink:href="#DejaVuSans-32"/>
       <use xlink:href="#DejaVuSans-36" x="63.623047"/>
      </g>
     </g>
    </g>
   </g>
   <g id="line2d_27">
    <path d="M 730.606612 134.126954 
L 734.798948 117.425455 
L 738.991285 119.317137 
L 743.183621 144.050469 
L 747.375958 246.427461 
L 751.568295 275.772998 
L 755.760631 267.341932 
L 759.952968 285.319308 
L 764.145304 226.944906 
L 768.337641 280.787235 
L 772.529977 293.274495 
L 776.722314 207.98223 
L 780.914651 243.526286 
L 785.106987 299.974143 
L 789.299324 272.217668 
L 793.49166 302.778758 
L 797.683997 296.167324 
L 801.876334 259.818093 
L 806.06867 239.05834 
L 810.261007 271.031431 
L 814.453343 275.814411 
L 818.64568 297.576842 
L 822.838017 250.469446 
L 827.030353 247.971888 
L 831.22269 293.005364 
L 835.415026 266.797067 
L 839.607363 250.058486 
L 843.799699 292.79999 
L 847.992036 278.246416 
L 852.184373 275.780869 
L 856.376709 302.006756 
L 860.569046 274.902482 
L 864.761382 295.194543 
L 868.953719 278.413599 
L 873.146056 285.309694 
L 877.338392 276.106784 
L 881.530729 297.873758 
L 885.723065 282.60317 
L 889.915402 233.325875 
L 894.107739 278.724777 
L 898.300075 311.287949 
L 902.492412 312.33484 
L 906.684748 266.918559 
L 910.877085 300.846772 
L 915.069421 257.051563 
L 919.261758 316.246247 
L 923.454095 234.186302 
L 927.646431 284.716126 
L 931.838768 287.787179 
L 936.031104 308.961061 
L 940.223441 236.267881 
L 944.415778 310.253841 
L 948.608114 287.3272 
L 952.800451 242.525509 
L 956.992787 310.63802 
L 961.185124 264.769313 
L 965.377461 297.194776 
L 969.569797 244.584957 
L 973.762134 239.794159 
L 977.95447 284.105973 
L 982.146807 313.544477 
L 986.339144 242.677797 
L 990.53148 309.957929 
L 994.723817 297.501359 
L 998.916153 320.173765 
L 1003.10849 314.034988 
L 1007.300826 262.457691 
L 1011.493163 220.721137 
L 1015.6855 247.333791 
L 1019.877836 272.692226 
L 1024.070173 321.762932 
L 1028.262509 310.183904 
L 1032.454846 280.049251 
L 1036.647183 310.722008 
L 1040.839519 223.298879 
L 1045.031856 313.220833 
L 1049.224192 290.102023 
L 1053.416529 311.582171 
L 1057.608866 328.491527 
L 1061.801202 314.001604 
L 1065.993539 199.824257 
L 1070.185875 308.329514 
L 1074.378212 323.305722 
L 1078.570548 321.432105 
L 1082.762885 312.757896 
L 1086.955222 286.979838 
L 1091.147558 316.850696 
L 1095.339895 313.271596 
L 1099.532231 308.747499 
L 1103.724568 235.389231 
L 1107.916905 311.091026 
L 1112.109241 317.37084 
L 1116.301578 318.210402 
L 1120.493914 309.061477 
L 1124.686251 257.039203 
L 1128.878588 261.082085 
L 1133.070924 255.619014 
L 1137.263261 310.950307 
L 1141.455597 254.793133 
L 1145.647934 255.440633 
" clip-path="url(#p0bc28f85f1)" style="fill: none; stroke: #4169e1; stroke-linecap: square"/>
   </g>
   <g id="line2d_28">
    <path d="M 730.606612 337.891835 
L 734.798948 361.016613 
L 738.991285 359.815745 
L 743.183621 350.509461 
L 747.375958 359.714114 
L 751.568295 356.001003 
L 755.760631 338.648994 
L 759.952968 366.27225 
L 764.145304 353.254862 
L 768.337641 357.480722 
L 772.529977 352.191068 
L 776.722314 355.016971 
L 780.914651 358.683598 
L 785.106987 378.516315 
L 789.299324 356.650774 
L 793.49166 383.734764 
L 797.683997 364.977832 
L 801.876334 323.933624 
L 806.06867 357.262353 
L 810.261007 346.097665 
L 814.453343 349.619559 
L 818.64568 364.254004 
L 822.838017 328.776874 
L 827.030353 358.26519 
L 831.22269 361.1193 
L 835.415026 354.294939 
L 839.607363 339.530761 
L 843.799699 360.138068 
L 847.992036 364.501372 
L 852.184373 360.65668 
L 856.376709 373.52944 
L 860.569046 355.565586 
L 864.761382 367.850694 
L 868.953719 380.50836 
L 873.146056 359.308965 
L 877.338392 363.931998 
L 881.530729 370.131996 
L 885.723065 371.142809 
L 889.915402 370.105849 
L 894.107739 381.700355 
L 898.300075 366.532718 
L 902.492412 378.87984 
L 906.684748 379.236762 
L 910.877085 375.819933 
L 915.069421 357.315018 
L 919.261758 383.337538 
L 923.454095 377.111656 
L 927.646431 364.328009 
L 931.838768 377.556739 
L 936.031104 367.848106 
L 940.223441 357.448236 
L 944.415778 377.303455 
L 948.608114 368.806942 
L 952.800451 360.51126 
L 956.992787 361.605057 
L 961.185124 380.004433 
L 965.377461 371.598827 
L 969.569797 375.820725 
L 973.762134 359.664091 
L 977.95447 363.049491 
L 982.146807 376.363688 
L 986.339144 369.669799 
L 990.53148 369.922449 
L 994.723817 373.036024 
L 998.916153 367.079273 
L 1003.10849 372.82991 
L 1007.300826 372.300945 
L 1011.493163 366.028896 
L 1015.6855 370.659958 
L 1019.877836 370.055932 
L 1024.070173 388.42879 
L 1028.262509 360.22755 
L 1032.454846 373.58073 
L 1036.647183 390.923707 
L 1040.839519 360.133789 
L 1045.031856 381.516796 
L 1049.224192 380.142405 
L 1053.416529 386.193444 
L 1057.608866 384.18571 
L 1061.801202 389.199683 
L 1065.993539 328.888013 
L 1070.185875 383.735556 
L 1074.378212 380.804167 
L 1078.570548 391.046625 
L 1082.762885 391.429113 
L 1086.955222 383.968081 
L 1091.147558 374.513366 
L 1095.339895 383.013577 
L 1099.532231 392.334545 
L 1103.724568 373.232788 
L 1107.916905 373.487129 
L 1112.109241 373.604131 
L 1116.301578 376.227036 
L 1120.493914 387.931043 
L 1124.686251 368.74609 
L 1128.878588 370.359714 
L 1133.070924 376.567372 
L 1137.263261 383.629647 
L 1141.455597 366.96655 
L 1145.647934 375.827328 
" clip-path="url(#p0bc28f85f1)" style="fill: none; stroke: #ff6347; stroke-linecap: square"/>
   </g>
   <g id="patch_9">
    <path d="M 709.854545 406.08 
L 709.854545 103.68 
" style="fill: none; stroke: #000000; stroke-width: 0.8; stroke-linejoin: miter; stroke-linecap: square"/>
   </g>
   <g id="patch_10">
    <path d="M 1166.4 406.08 
L 1166.4 103.68 
" style="fill: none; stroke: #000000; stroke-width: 0.8; stroke-linejoin: miter; stroke-linecap: square"/>
   </g>
   <g id="patch_11">
    <path d="M 709.854545 406.08 
L 1166.4 406.08 
" style="fill: none; stroke: #000000; stroke-width: 0.8; stroke-linejoin: miter; stroke-linecap: square"/>
   </g>
   <g id="patch_12">
    <path d="M 709.854545 103.68 
L 1166.4 103.68 
" style="fill: none; stroke: #000000; stroke-width: 0.8; stroke-linejoin: miter; stroke-linecap: square"/>
   </g>
   <g id="text_26">
    <!-- LOSS -->
    <g transform="translate(922.660398 97.68) scale(0.12 -0.12)">
     <defs>
      <path id="DejaVuSans-4f" d="M 2522 4238 
Q 1834 4238 1429 3725 
Q 1025 3213 1025 2328 
Q 1025 1447 1429 934 
Q 1834 422 2522 422 
Q 3209 422 3611 934 
Q 4013 1447 4013 2328 
Q 4013 3213 3611 3725 
Q 3209 4238 2522 4238 
z
M 2522 4750 
Q 3503 4750 4090 4092 
Q 4678 3434 4678 2328 
Q 4678 1225 4090 567 
Q 3503 -91 2522 -91 
Q 1538 -91 948 565 
Q 359 1222 359 2328 
Q 359 3434 948 4092 
Q 1538 4750 2522 4750 
z
" transform="scale(0.015625)"/>
     </defs>
     <use xlink:href="#DejaVuSans-4c"/>
     <use xlink:href="#DejaVuSans-4f" x="52.087891"/>
     <use xlink:href="#DejaVuSans-53" x="130.798828"/>
     <use xlink:href="#DejaVuSans-53" x="194.275391"/>
    </g>
   </g>
   <g id="legend_2">
    <g id="patch_13">
     <path d="M 1078.01875 141.03625 
L 1159.4 141.03625 
Q 1161.4 141.03625 1161.4 139.03625 
L 1161.4 110.68 
Q 1161.4 108.68 1159.4 108.68 
L 1078.01875 108.68 
Q 1076.01875 108.68 1076.01875 110.68 
L 1076.01875 139.03625 
Q 1076.01875 141.03625 1078.01875 141.03625 
z
" style="fill: #ffffff; opacity: 0.8; stroke: #cccccc; stroke-linejoin: miter"/>
    </g>
    <g id="line2d_29">
     <path d="M 1080.01875 116.778437 
L 1090.01875 116.778437 
L 1100.01875 116.778437 
" style="fill: none; stroke: #4169e1; stroke-linecap: square"/>
    </g>
    <g id="text_27">
     <!-- Training -->
     <g transform="translate(1108.01875 120.278437) scale(0.1 -0.1)">
      <use xlink:href="#DejaVuSans-54"/>
      <use xlink:href="#DejaVuSans-72" x="46.333984"/>
      <use xlink:href="#DejaVuSans-61" x="87.447266"/>
      <use xlink:href="#DejaVuSans-69" x="148.726562"/>
      <use xlink:href="#DejaVuSans-6e" x="176.509766"/>
      <use xlink:href="#DejaVuSans-69" x="239.888672"/>
      <use xlink:href="#DejaVuSans-6e" x="267.671875"/>
      <use xlink:href="#DejaVuSans-67" x="331.050781"/>
     </g>
    </g>
    <g id="line2d_30">
     <path d="M 1080.01875 131.456562 
L 1090.01875 131.456562 
L 1100.01875 131.456562 
" style="fill: none; stroke: #ff6347; stroke-linecap: square"/>
    </g>
    <g id="text_28">
     <!-- Validation -->
     <g transform="translate(1108.01875 134.956562) scale(0.1 -0.1)">
      <use xlink:href="#DejaVuSans-56"/>
      <use xlink:href="#DejaVuSans-61" x="60.658203"/>
      <use xlink:href="#DejaVuSans-6c" x="121.9375"/>
      <use xlink:href="#DejaVuSans-69" x="149.720703"/>
      <use xlink:href="#DejaVuSans-64" x="177.503906"/>
      <use xlink:href="#DejaVuSans-61" x="240.980469"/>
      <use xlink:href="#DejaVuSans-74" x="302.259766"/>
      <use xlink:href="#DejaVuSans-69" x="341.46875"/>
      <use xlink:href="#DejaVuSans-6f" x="369.251953"/>
      <use xlink:href="#DejaVuSans-6e" x="430.433594"/>
     </g>
    </g>
   </g>
  </g>
  <g id="axes_3">
   <g id="patch_14">
    <path d="M 162 768.96 
L 618.545455 768.96 
L 618.545455 466.56 
L 162 466.56 
z
" style="fill: #ffffff"/>
   </g>
   <g id="matplotlib.axis_5">
    <g id="xtick_13">
     <g id="line2d_31">
      <g>
       <use xlink:href="#maa67f8951e" x="182.752066" y="768.96" style="stroke: #000000; stroke-width: 0.8"/>
      </g>
     </g>
     <g id="text_29">
      <!-- 0 -->
      <g transform="translate(179.570816 783.558437) scale(0.1 -0.1)">
       <use xlink:href="#DejaVuSans-30"/>
      </g>
     </g>
    </g>
    <g id="xtick_14">
     <g id="line2d_32">
      <g>
       <use xlink:href="#maa67f8951e" x="266.598798" y="768.96" style="stroke: #000000; stroke-width: 0.8"/>
      </g>
     </g>
     <g id="text_30">
      <!-- 20 -->
      <g transform="translate(260.236298 783.558437) scale(0.1 -0.1)">
       <use xlink:href="#DejaVuSans-32"/>
       <use xlink:href="#DejaVuSans-30" x="63.623047"/>
      </g>
     </g>
    </g>
    <g id="xtick_15">
     <g id="line2d_33">
      <g>
       <use xlink:href="#maa67f8951e" x="350.44553" y="768.96" style="stroke: #000000; stroke-width: 0.8"/>
      </g>
     </g>
     <g id="text_31">
      <!-- 40 -->
      <g transform="translate(344.08303 783.558437) scale(0.1 -0.1)">
       <use xlink:href="#DejaVuSans-34"/>
       <use xlink:href="#DejaVuSans-30" x="63.623047"/>
      </g>
     </g>
    </g>
    <g id="xtick_16">
     <g id="line2d_34">
      <g>
       <use xlink:href="#maa67f8951e" x="434.292261" y="768.96" style="stroke: #000000; stroke-width: 0.8"/>
      </g>
     </g>
     <g id="text_32">
      <!-- 60 -->
      <g transform="translate(427.929761 783.558437) scale(0.1 -0.1)">
       <use xlink:href="#DejaVuSans-36"/>
       <use xlink:href="#DejaVuSans-30" x="63.623047"/>
      </g>
     </g>
    </g>
    <g id="xtick_17">
     <g id="line2d_35">
      <g>
       <use xlink:href="#maa67f8951e" x="518.138993" y="768.96" style="stroke: #000000; stroke-width: 0.8"/>
      </g>
     </g>
     <g id="text_33">
      <!-- 80 -->
      <g transform="translate(511.776493 783.558437) scale(0.1 -0.1)">
       <use xlink:href="#DejaVuSans-38"/>
       <use xlink:href="#DejaVuSans-30" x="63.623047"/>
      </g>
     </g>
    </g>
    <g id="xtick_18">
     <g id="line2d_36">
      <g>
       <use xlink:href="#maa67f8951e" x="601.985725" y="768.96" style="stroke: #000000; stroke-width: 0.8"/>
      </g>
     </g>
     <g id="text_34">
      <!-- 100 -->
      <g transform="translate(592.441975 783.558437) scale(0.1 -0.1)">
       <use xlink:href="#DejaVuSans-31"/>
       <use xlink:href="#DejaVuSans-30" x="63.623047"/>
       <use xlink:href="#DejaVuSans-30" x="127.246094"/>
      </g>
     </g>
    </g>
   </g>
   <g id="matplotlib.axis_6">
    <g id="ytick_11">
     <g id="line2d_37">
      <g>
       <use xlink:href="#m7f4d1441d9" x="162" y="717.750404" style="stroke: #000000; stroke-width: 0.8"/>
      </g>
     </g>
     <g id="text_35">
      <!-- 3.4 -->
      <g transform="translate(139.096875 721.549623) scale(0.1 -0.1)">
       <defs>
        <path id="DejaVuSans-33" d="M 2597 2516 
Q 3050 2419 3304 2112 
Q 3559 1806 3559 1356 
Q 3559 666 3084 287 
Q 2609 -91 1734 -91 
Q 1441 -91 1130 -33 
Q 819 25 488 141 
L 488 750 
Q 750 597 1062 519 
Q 1375 441 1716 441 
Q 2309 441 2620 675 
Q 2931 909 2931 1356 
Q 2931 1769 2642 2001 
Q 2353 2234 1838 2234 
L 1294 2234 
L 1294 2753 
L 1863 2753 
Q 2328 2753 2575 2939 
Q 2822 3125 2822 3475 
Q 2822 3834 2567 4026 
Q 2313 4219 1838 4219 
Q 1578 4219 1281 4162 
Q 984 4106 628 3988 
L 628 4550 
Q 988 4650 1302 4700 
Q 1616 4750 1894 4750 
Q 2613 4750 3031 4423 
Q 3450 4097 3450 3541 
Q 3450 3153 3228 2886 
Q 3006 2619 2597 2516 
z
" transform="scale(0.015625)"/>
       </defs>
       <use xlink:href="#DejaVuSans-33"/>
       <use xlink:href="#DejaVuSans-2e" x="63.623047"/>
       <use xlink:href="#DejaVuSans-34" x="95.410156"/>
      </g>
     </g>
    </g>
    <g id="ytick_12">
     <g id="line2d_38">
      <g>
       <use xlink:href="#m7f4d1441d9" x="162" y="651.288955" style="stroke: #000000; stroke-width: 0.8"/>
      </g>
     </g>
     <g id="text_36">
      <!-- 3.6 -->
      <g transform="translate(139.096875 655.088174) scale(0.1 -0.1)">
       <use xlink:href="#DejaVuSans-33"/>
       <use xlink:href="#DejaVuSans-2e" x="63.623047"/>
       <use xlink:href="#DejaVuSans-36" x="95.410156"/>
      </g>
     </g>
    </g>
    <g id="ytick_13">
     <g id="line2d_39">
      <g>
       <use xlink:href="#m7f4d1441d9" x="162" y="584.827507" style="stroke: #000000; stroke-width: 0.8"/>
      </g>
     </g>
     <g id="text_37">
      <!-- 3.8 -->
      <g transform="translate(139.096875 588.626725) scale(0.1 -0.1)">
       <use xlink:href="#DejaVuSans-33"/>
       <use xlink:href="#DejaVuSans-2e" x="63.623047"/>
       <use xlink:href="#DejaVuSans-38" x="95.410156"/>
      </g>
     </g>
    </g>
    <g id="ytick_14">
     <g id="line2d_40">
      <g>
       <use xlink:href="#m7f4d1441d9" x="162" y="518.366058" style="stroke: #000000; stroke-width: 0.8"/>
      </g>
     </g>
     <g id="text_38">
      <!-- 4.0 -->
      <g transform="translate(139.096875 522.165277) scale(0.1 -0.1)">
       <use xlink:href="#DejaVuSans-34"/>
       <use xlink:href="#DejaVuSans-2e" x="63.623047"/>
       <use xlink:href="#DejaVuSans-30" x="95.410156"/>
      </g>
     </g>
    </g>
   </g>
   <g id="line2d_41">
    <path d="M 182.752066 488.842137 
L 186.944403 480.305455 
L 191.136739 480.671014 
L 195.329076 496.337285 
L 199.521412 585.280312 
L 203.713749 609.789799 
L 207.906086 603.482916 
L 212.098422 620.748964 
L 216.290759 563.633577 
L 220.483095 618.815716 
L 224.675432 631.579145 
L 228.867769 544.407106 
L 233.060105 579.719204 
L 237.252442 641.391243 
L 241.444778 604.566679 
L 245.637115 645.257026 
L 249.829452 632.932838 
L 254.021788 591.340478 
L 258.214125 569.41082 
L 262.406461 600.303012 
L 266.598798 605.713824 
L 270.791134 634.137186 
L 274.983471 579.856348 
L 279.175808 576.668996 
L 283.368144 625.56089 
L 287.560481 596.448084 
L 291.752817 579.475894 
L 295.945154 625.325265 
L 300.137491 608.905296 
L 304.329827 606.422125 
L 308.522164 638.973515 
L 312.7145 607.96763 
L 316.906837 628.951303 
L 321.099174 617.612081 
L 325.29151 614.635001 
L 329.483847 606.375935 
L 333.676183 639.120721 
L 337.86852 611.730891 
L 342.060856 559.726121 
L 346.253193 614.535966 
L 350.44553 647.808253 
L 354.637866 650.914317 
L 358.830203 605.147739 
L 363.022539 635.367046 
L 367.214876 585.79894 
L 371.407213 655.712457 
L 375.599549 577.78556 
L 379.791886 612.712845 
L 383.984222 625.985395 
L 388.176559 645.235475 
L 392.368896 578.172906 
L 396.561232 650.934282 
L 400.753569 614.218974 
L 404.945905 578.811327 
L 409.138242 648.012187 
L 413.330579 606.703939 
L 417.522915 629.885245 
L 421.715252 580.193622 
L 425.907588 579.616603 
L 430.099925 614.382105 
L 434.292261 651.045043 
L 438.484598 577.358044 
L 442.676935 649.283483 
L 446.869271 630.881778 
L 451.061608 661.675727 
L 455.253944 653.489947 
L 459.446281 597.105916 
L 463.638618 550.994933 
L 467.830954 572.015765 
L 472.023291 599.723458 
L 476.215627 664.797795 
L 480.407964 649.03225 
L 484.600301 614.030728 
L 488.792637 649.930223 
L 492.984974 550.696639 
L 497.17731 651.465824 
L 501.369647 627.574713 
L 505.561983 652.216512 
L 509.75432 673.562733 
L 513.946657 654.89189 
L 518.138993 528.292324 
L 522.33133 648.97988 
L 526.523666 667.78351 
L 530.716003 665.141487 
L 534.90834 651.438491 
L 539.100676 630.794468 
L 543.293013 654.671477 
L 547.485349 654.024579 
L 551.677686 650.356867 
L 555.870023 567.651399 
L 560.062359 652.456415 
L 564.254696 656.652024 
L 568.447032 659.195805 
L 572.639369 647.303649 
L 576.831705 582.74897 
L 581.024042 587.519618 
L 585.216379 579.808811 
L 589.408715 651.033397 
L 593.601052 581.125584 
L 597.793388 579.285033 
" clip-path="url(#pdfda12c06a)" style="fill: none; stroke: #4169e1; stroke-linecap: square"/>
   </g>
   <g id="line2d_42">
    <path d="M 182.752066 659.776231 
L 186.944403 703.393664 
L 191.136739 693.665072 
L 195.329076 674.851618 
L 199.521412 693.995295 
L 203.713749 691.048164 
L 207.906086 650.028624 
L 212.098422 697.933334 
L 216.290759 673.685696 
L 220.483095 680.577204 
L 224.675432 664.246445 
L 228.867769 684.170045 
L 233.060105 704.633665 
L 237.252442 737.559487 
L 241.444778 678.775554 
L 245.637115 738.191649 
L 249.829452 713.21622 
L 254.021788 648.172149 
L 258.214125 688.188342 
L 262.406461 666.415318 
L 266.598798 664.775215 
L 270.791134 682.803834 
L 274.983471 642.041548 
L 279.175808 694.228939 
L 283.368144 679.80457 
L 287.560481 700.733022 
L 291.752817 663.657701 
L 295.945154 691.908899 
L 300.137491 686.038326 
L 304.329827 696.897187 
L 308.522164 713.103954 
L 312.7145 687.035413 
L 316.906837 710.286994 
L 321.099174 724.156608 
L 325.29151 687.056567 
L 329.483847 702.698674 
L 333.676183 702.767206 
L 337.86852 705.040185 
L 342.060856 714.654529 
L 346.253193 725.574317 
L 350.44553 689.865049 
L 354.637866 720.780693 
L 358.830203 720.596329 
L 363.022539 723.447911 
L 367.214876 692.95598 
L 371.407213 727.454958 
L 375.599549 710.139075 
L 379.791886 703.213816 
L 383.984222 711.110889 
L 388.176559 696.212576 
L 392.368896 682.893916 
L 396.561232 728.603846 
L 400.753569 712.434634 
L 404.945905 689.886837 
L 409.138242 672.132902 
L 413.330579 713.462145 
L 417.522915 709.44464 
L 421.715252 723.590284 
L 425.907588 686.628418 
L 430.099925 699.461171 
L 434.292261 717.194903 
L 438.484598 704.31691 
L 442.676935 710.888099 
L 446.869271 730.143092 
L 451.061608 700.465706 
L 455.253944 692.695715 
L 459.446281 700.515936 
L 463.638618 692.615061 
L 467.830954 699.638959 
L 472.023291 701.031237 
L 476.215627 740.096296 
L 480.407964 670.388455 
L 484.600301 704.91437 
L 488.792637 738.531617 
L 492.984974 682.333218 
L 497.17731 718.04312 
L 501.369647 715.636722 
L 505.561983 724.034279 
L 509.75432 726.84601 
L 513.946657 755.214545 
L 518.138993 655.092417 
L 522.33133 737.999045 
L 526.523666 735.098183 
L 530.716003 740.902126 
L 534.90834 743.9906 
L 539.100676 713.35479 
L 543.293013 713.29426 
L 547.485349 718.291184 
L 551.677686 748.938403 
L 555.870023 718.512151 
L 560.062359 697.779156 
L 564.254696 705.835161 
L 568.447032 698.38034 
L 572.639369 742.845515 
L 576.831705 688.303857 
L 581.024042 697.467868 
L 585.216379 721.744584 
L 589.408715 710.581882 
L 593.601052 695.629536 
L 597.793388 718.816388 
" clip-path="url(#pdfda12c06a)" style="fill: none; stroke: #ff6347; stroke-linecap: square"/>
   </g>
   <g id="patch_15">
    <path d="M 162 768.96 
L 162 466.56 
" style="fill: none; stroke: #000000; stroke-width: 0.8; stroke-linejoin: miter; stroke-linecap: square"/>
   </g>
   <g id="patch_16">
    <path d="M 618.545455 768.96 
L 618.545455 466.56 
" style="fill: none; stroke: #000000; stroke-width: 0.8; stroke-linejoin: miter; stroke-linecap: square"/>
   </g>
   <g id="patch_17">
    <path d="M 162 768.96 
L 618.545455 768.96 
" style="fill: none; stroke: #000000; stroke-width: 0.8; stroke-linejoin: miter; stroke-linecap: square"/>
   </g>
   <g id="patch_18">
    <path d="M 162 466.56 
L 618.545455 466.56 
" style="fill: none; stroke: #000000; stroke-width: 0.8; stroke-linejoin: miter; stroke-linecap: square"/>
   </g>
   <g id="text_39">
    <!-- MAE -->
    <g transform="translate(377.200227 460.56) scale(0.12 -0.12)">
     <defs>
      <path id="DejaVuSans-41" d="M 2188 4044 
L 1331 1722 
L 3047 1722 
L 2188 4044 
z
M 1831 4666 
L 2547 4666 
L 4325 0 
L 3669 0 
L 3244 1197 
L 1141 1197 
L 716 0 
L 50 0 
L 1831 4666 
z
" transform="scale(0.015625)"/>
     </defs>
     <use xlink:href="#DejaVuSans-4d"/>
     <use xlink:href="#DejaVuSans-41" x="86.279297"/>
     <use xlink:href="#DejaVuSans-45" x="154.6875"/>
    </g>
   </g>
   <g id="legend_3">
    <g id="patch_19">
     <path d="M 530.164205 503.91625 
L 611.545455 503.91625 
Q 613.545455 503.91625 613.545455 501.91625 
L 613.545455 473.56 
Q 613.545455 471.56 611.545455 471.56 
L 530.164205 471.56 
Q 528.164205 471.56 528.164205 473.56 
L 528.164205 501.91625 
Q 528.164205 503.91625 530.164205 503.91625 
z
" style="fill: #ffffff; opacity: 0.8; stroke: #cccccc; stroke-linejoin: miter"/>
    </g>
    <g id="line2d_43">
     <path d="M 532.164205 479.658437 
L 542.164205 479.658437 
L 552.164205 479.658437 
" style="fill: none; stroke: #4169e1; stroke-linecap: square"/>
    </g>
    <g id="text_40">
     <!-- Training -->
     <g transform="translate(560.164205 483.158437) scale(0.1 -0.1)">
      <use xlink:href="#DejaVuSans-54"/>
      <use xlink:href="#DejaVuSans-72" x="46.333984"/>
      <use xlink:href="#DejaVuSans-61" x="87.447266"/>
      <use xlink:href="#DejaVuSans-69" x="148.726562"/>
      <use xlink:href="#DejaVuSans-6e" x="176.509766"/>
      <use xlink:href="#DejaVuSans-69" x="239.888672"/>
      <use xlink:href="#DejaVuSans-6e" x="267.671875"/>
      <use xlink:href="#DejaVuSans-67" x="331.050781"/>
     </g>
    </g>
    <g id="line2d_44">
     <path d="M 532.164205 494.336563 
L 542.164205 494.336563 
L 552.164205 494.336563 
" style="fill: none; stroke: #ff6347; stroke-linecap: square"/>
    </g>
    <g id="text_41">
     <!-- Validation -->
     <g transform="translate(560.164205 497.836563) scale(0.1 -0.1)">
      <use xlink:href="#DejaVuSans-56"/>
      <use xlink:href="#DejaVuSans-61" x="60.658203"/>
      <use xlink:href="#DejaVuSans-6c" x="121.9375"/>
      <use xlink:href="#DejaVuSans-69" x="149.720703"/>
      <use xlink:href="#DejaVuSans-64" x="177.503906"/>
      <use xlink:href="#DejaVuSans-61" x="240.980469"/>
      <use xlink:href="#DejaVuSans-74" x="302.259766"/>
      <use xlink:href="#DejaVuSans-69" x="341.46875"/>
      <use xlink:href="#DejaVuSans-6f" x="369.251953"/>
      <use xlink:href="#DejaVuSans-6e" x="430.433594"/>
     </g>
    </g>
   </g>
  </g>
  <g id="axes_4">
   <g id="patch_20">
    <path d="M 709.854545 768.96 
L 1166.4 768.96 
L 1166.4 466.56 
L 709.854545 466.56 
z
" style="fill: #ffffff"/>
   </g>
   <g id="matplotlib.axis_7">
    <g id="xtick_19">
     <g id="line2d_45">
      <g>
       <use xlink:href="#maa67f8951e" x="730.606612" y="768.96" style="stroke: #000000; stroke-width: 0.8"/>
      </g>
     </g>
     <g id="text_42">
      <!-- 0 -->
      <g transform="translate(727.425362 783.558437) scale(0.1 -0.1)">
       <use xlink:href="#DejaVuSans-30"/>
      </g>
     </g>
    </g>
    <g id="xtick_20">
     <g id="line2d_46">
      <g>
       <use xlink:href="#maa67f8951e" x="814.453343" y="768.96" style="stroke: #000000; stroke-width: 0.8"/>
      </g>
     </g>
     <g id="text_43">
      <!-- 20 -->
      <g transform="translate(808.090843 783.558437) scale(0.1 -0.1)">
       <use xlink:href="#DejaVuSans-32"/>
       <use xlink:href="#DejaVuSans-30" x="63.623047"/>
      </g>
     </g>
    </g>
    <g id="xtick_21">
     <g id="line2d_47">
      <g>
       <use xlink:href="#maa67f8951e" x="898.300075" y="768.96" style="stroke: #000000; stroke-width: 0.8"/>
      </g>
     </g>
     <g id="text_44">
      <!-- 40 -->
      <g transform="translate(891.937575 783.558437) scale(0.1 -0.1)">
       <use xlink:href="#DejaVuSans-34"/>
       <use xlink:href="#DejaVuSans-30" x="63.623047"/>
      </g>
     </g>
    </g>
    <g id="xtick_22">
     <g id="line2d_48">
      <g>
       <use xlink:href="#maa67f8951e" x="982.146807" y="768.96" style="stroke: #000000; stroke-width: 0.8"/>
      </g>
     </g>
     <g id="text_45">
      <!-- 60 -->
      <g transform="translate(975.784307 783.558437) scale(0.1 -0.1)">
       <use xlink:href="#DejaVuSans-36"/>
       <use xlink:href="#DejaVuSans-30" x="63.623047"/>
      </g>
     </g>
    </g>
    <g id="xtick_23">
     <g id="line2d_49">
      <g>
       <use xlink:href="#maa67f8951e" x="1065.993539" y="768.96" style="stroke: #000000; stroke-width: 0.8"/>
      </g>
     </g>
     <g id="text_46">
      <!-- 80 -->
      <g transform="translate(1059.631039 783.558437) scale(0.1 -0.1)">
       <use xlink:href="#DejaVuSans-38"/>
       <use xlink:href="#DejaVuSans-30" x="63.623047"/>
      </g>
     </g>
    </g>
    <g id="xtick_24">
     <g id="line2d_50">
      <g>
       <use xlink:href="#maa67f8951e" x="1149.84027" y="768.96" style="stroke: #000000; stroke-width: 0.8"/>
      </g>
     </g>
     <g id="text_47">
      <!-- 100 -->
      <g transform="translate(1140.29652 783.558437) scale(0.1 -0.1)">
       <use xlink:href="#DejaVuSans-31"/>
       <use xlink:href="#DejaVuSans-30" x="63.623047"/>
       <use xlink:href="#DejaVuSans-30" x="127.246094"/>
      </g>
     </g>
    </g>
   </g>
   <g id="matplotlib.axis_8">
    <g id="ytick_15">
     <g id="line2d_51">
      <g>
       <use xlink:href="#m7f4d1441d9" x="709.854545" y="722.411239" style="stroke: #000000; stroke-width: 0.8"/>
      </g>
     </g>
     <g id="text_48">
      <!-- 4.2 -->
      <g transform="translate(686.95142 726.210458) scale(0.1 -0.1)">
       <use xlink:href="#DejaVuSans-34"/>
       <use xlink:href="#DejaVuSans-2e" x="63.623047"/>
       <use xlink:href="#DejaVuSans-32" x="95.410156"/>
      </g>
     </g>
    </g>
    <g id="ytick_16">
     <g id="line2d_52">
      <g>
       <use xlink:href="#m7f4d1441d9" x="709.854545" y="671.344588" style="stroke: #000000; stroke-width: 0.8"/>
      </g>
     </g>
     <g id="text_49">
      <!-- 4.4 -->
      <g transform="translate(686.95142 675.143807) scale(0.1 -0.1)">
       <use xlink:href="#DejaVuSans-34"/>
       <use xlink:href="#DejaVuSans-2e" x="63.623047"/>
       <use xlink:href="#DejaVuSans-34" x="95.410156"/>
      </g>
     </g>
    </g>
    <g id="ytick_17">
     <g id="line2d_53">
      <g>
       <use xlink:href="#m7f4d1441d9" x="709.854545" y="620.277937" style="stroke: #000000; stroke-width: 0.8"/>
      </g>
     </g>
     <g id="text_50">
      <!-- 4.6 -->
      <g transform="translate(686.95142 624.077155) scale(0.1 -0.1)">
       <use xlink:href="#DejaVuSans-34"/>
       <use xlink:href="#DejaVuSans-2e" x="63.623047"/>
       <use xlink:href="#DejaVuSans-36" x="95.410156"/>
      </g>
     </g>
    </g>
    <g id="ytick_18">
     <g id="line2d_54">
      <g>
       <use xlink:href="#m7f4d1441d9" x="709.854545" y="569.211286" style="stroke: #000000; stroke-width: 0.8"/>
      </g>
     </g>
     <g id="text_51">
      <!-- 4.8 -->
      <g transform="translate(686.95142 573.010504) scale(0.1 -0.1)">
       <use xlink:href="#DejaVuSans-34"/>
       <use xlink:href="#DejaVuSans-2e" x="63.623047"/>
       <use xlink:href="#DejaVuSans-38" x="95.410156"/>
      </g>
     </g>
    </g>
    <g id="ytick_19">
     <g id="line2d_55">
      <g>
       <use xlink:href="#m7f4d1441d9" x="709.854545" y="518.144634" style="stroke: #000000; stroke-width: 0.8"/>
      </g>
     </g>
     <g id="text_52">
      <!-- 5.0 -->
      <g transform="translate(686.95142 521.943853) scale(0.1 -0.1)">
       <use xlink:href="#DejaVuSans-35"/>
       <use xlink:href="#DejaVuSans-2e" x="63.623047"/>
       <use xlink:href="#DejaVuSans-30" x="95.410156"/>
      </g>
     </g>
    </g>
    <g id="ytick_20">
     <g id="line2d_56">
      <g>
       <use xlink:href="#m7f4d1441d9" x="709.854545" y="467.077983" style="stroke: #000000; stroke-width: 0.8"/>
      </g>
     </g>
     <g id="text_53">
      <!-- 5.2 -->
      <g transform="translate(686.95142 470.877202) scale(0.1 -0.1)">
       <use xlink:href="#DejaVuSans-35"/>
       <use xlink:href="#DejaVuSans-2e" x="63.623047"/>
       <use xlink:href="#DejaVuSans-32" x="95.410156"/>
      </g>
     </g>
    </g>
   </g>
   <g id="line2d_57">
    <path d="M 730.606612 495.346622 
L 734.798948 480.305455 
L 738.991285 482.000491 
L 743.183621 504.366526 
L 747.375958 601.395384 
L 751.568295 630.698261 
L 755.760631 622.204449 
L 759.952968 640.390968 
L 764.145304 582.332126 
L 768.337641 635.779231 
L 772.529977 648.530845 
L 776.722314 564.061233 
L 780.914651 598.537368 
L 785.106987 655.43104 
L 789.299324 627.108879 
L 793.49166 658.332156 
L 797.683997 651.505134 
L 801.876334 614.676256 
L 806.06867 594.149291 
L 810.261007 625.913757 
L 814.453343 630.740143 
L 818.64568 652.957153 
L 822.838017 605.388619 
L 827.030353 602.919602 
L 831.22269 648.254467 
L 835.415026 621.657659 
L 839.607363 604.981966 
L 843.799699 648.043714 
L 847.992036 633.201855 
L 852.184373 630.706174 
L 856.376709 657.532851 
L 860.569046 629.818356 
L 864.761382 650.504086 
L 868.953719 633.371212 
L 873.146056 640.381106 
L 877.338392 631.035758 
L 881.530729 653.263239 
L 885.723065 637.624875 
L 889.915402 588.542593 
L 894.107739 633.686673 
L 898.300075 667.179536 
L 902.492412 668.272751 
L 906.684748 621.779533 
L 910.877085 656.33286 
L 915.069421 611.920147 
L 919.261758 672.36704 
L 923.454095 589.382441 
L 927.646431 639.776118 
L 931.838768 642.910025 
L 936.031104 664.753255 
L 940.223441 591.416802 
L 944.415778 666.100567 
L 948.608114 642.440061 
L 952.800451 597.553122 
L 956.992787 666.501254 
L 961.185124 619.624881 
L 965.377461 652.563406 
L 969.569797 599.579447 
L 973.762134 594.870795 
L 977.95447 639.154451 
L 982.146807 669.537393 
L 986.339144 597.702756 
L 990.53148 665.792046 
L 994.723817 652.879353 
L 998.916153 676.493228 
L 1003.10849 670.050579 
L 1007.300826 617.311829 
L 1011.493163 576.305261 
L 1015.6855 602.289533 
L 1019.877836 627.587365 
L 1024.070173 678.16708 
L 1028.262509 666.027637 
L 1032.454846 635.030089 
L 1036.647183 666.588915 
L 1040.839519 578.797898 
L 1045.031856 669.198921 
L 1049.224192 645.277743 
L 1053.416529 667.486717 
L 1057.608866 685.282411 
L 1061.801202 670.015636 
L 1065.993539 556.283812 
L 1070.185875 664.09567 
L 1074.378212 679.794544 
L 1078.570548 677.818381 
L 1082.762885 668.714955 
L 1086.955222 642.085274 
L 1091.147558 673.001126 
L 1095.339895 669.252005 
L 1099.532231 664.530813 
L 1103.724568 590.557717 
L 1107.916905 666.974018 
L 1112.109241 673.546942 
L 1116.301578 674.428673 
L 1120.493914 664.85784 
L 1124.686251 611.90785 
L 1128.878588 615.93761 
L 1133.070924 610.495522 
L 1137.263261 666.827063 
L 1141.455597 609.675033 
L 1145.647934 610.318251 
" clip-path="url(#pa3bbfc8e5a)" style="fill: none; stroke: #4169e1; stroke-linecap: square"/>
   </g>
   <g id="line2d_58">
    <path d="M 730.606612 695.299954 
L 734.798948 720.340645 
L 738.991285 719.025963 
L 743.183621 708.891416 
L 747.375958 718.914803 
L 751.568295 714.860205 
L 755.760631 696.110825 
L 759.952968 726.113534 
L 764.145304 711.871306 
L 768.337641 716.474154 
L 772.529977 710.715632 
L 776.722314 713.788175 
L 780.914651 717.787984 
L 785.106987 739.685272 
L 789.299324 715.568682 
L 793.49166 745.522812 
L 797.683997 724.688909 
L 801.876334 680.457608 
L 806.06867 716.235885 
L 810.261007 704.119818 
L 814.453343 707.927259 
L 818.64568 723.893014 
L 822.838017 685.585088 
L 827.030353 717.330804 
L 831.22269 720.453144 
L 835.415026 713.002385 
L 839.607363 697.055867 
L 843.799699 719.378679 
L 847.992036 724.164887 
L 852.184373 719.946411 
L 856.376709 734.136651 
L 860.569046 714.385736 
L 864.761382 727.853497 
L 868.953719 741.90981 
L 873.146056 718.471624 
L 877.338392 723.539202 
L 881.530729 730.373163 
L 885.723065 731.491459 
L 889.915402 730.344186 
L 894.107739 743.243242 
L 898.300075 726.400505 
L 902.492412 740.09083 
L 906.684748 740.489203 
L 910.877085 736.681519 
L 915.069421 716.293352 
L 919.261758 745.07732 
L 923.454095 738.119415 
L 927.646431 723.974345 
L 931.838768 738.615312 
L 936.031104 727.850575 
L 940.223441 716.438724 
L 944.415778 738.33309 
L 948.608114 728.908969 
L 952.800451 719.78728 
L 956.992787 720.985445 
L 961.185124 741.346584 
L 965.377461 731.996366 
L 969.569797 736.682372 
L 973.762134 718.860014 
L 977.95447 722.569931 
L 982.146807 737.286629 
L 986.339144 729.862168 
L 990.53148 730.141468 
L 994.723817 733.589252 
L 998.916153 727.002814 
L 1003.10849 733.360723 
L 1007.300826 732.774242 
L 1011.493163 725.845557 
L 1015.6855 730.957087 
L 1019.877836 730.289032 
L 1024.070173 750.801752 
L 1028.262509 719.47669 
L 1032.454846 734.193631 
L 1036.647183 753.618372 
L 1040.839519 719.374053 
L 1045.031856 743.037724 
L 1049.224192 741.500844 
L 1053.416529 748.284522 
L 1057.608866 746.028815 
L 1061.801202 751.671186 
L 1065.993539 685.703066 
L 1070.185875 745.523786 
L 1074.378212 742.24049 
L 1078.570548 753.757291 
L 1082.762885 754.189877 
L 1086.955222 745.78458 
L 1091.147558 735.229135 
L 1095.339895 744.714133 
L 1099.532231 755.214545 
L 1103.724568 733.807554 
L 1107.916905 734.089776 
L 1112.109241 734.219564 
L 1116.301578 737.134438 
L 1120.493914 750.240717 
L 1124.686251 728.841762 
L 1128.878588 730.624947 
L 1133.070924 737.513332 
L 1137.263261 745.404956 
L 1141.455597 726.878504 
L 1145.647934 736.689798 
" clip-path="url(#pa3bbfc8e5a)" style="fill: none; stroke: #ff6347; stroke-linecap: square"/>
   </g>
   <g id="patch_21">
    <path d="M 709.854545 768.96 
L 709.854545 466.56 
" style="fill: none; stroke: #000000; stroke-width: 0.8; stroke-linejoin: miter; stroke-linecap: square"/>
   </g>
   <g id="patch_22">
    <path d="M 1166.4 768.96 
L 1166.4 466.56 
" style="fill: none; stroke: #000000; stroke-width: 0.8; stroke-linejoin: miter; stroke-linecap: square"/>
   </g>
   <g id="patch_23">
    <path d="M 709.854545 768.96 
L 1166.4 768.96 
" style="fill: none; stroke: #000000; stroke-width: 0.8; stroke-linejoin: miter; stroke-linecap: square"/>
   </g>
   <g id="patch_24">
    <path d="M 709.854545 466.56 
L 1166.4 466.56 
" style="fill: none; stroke: #000000; stroke-width: 0.8; stroke-linejoin: miter; stroke-linecap: square"/>
   </g>
   <g id="text_54">
    <!-- ROOT_MEAN_SQUARED_ERROR -->
    <g transform="translate(843.656335 460.56) scale(0.12 -0.12)">
     <defs>
      <path id="DejaVuSans-52" d="M 2841 2188 
Q 3044 2119 3236 1894 
Q 3428 1669 3622 1275 
L 4263 0 
L 3584 0 
L 2988 1197 
Q 2756 1666 2539 1819 
Q 2322 1972 1947 1972 
L 1259 1972 
L 1259 0 
L 628 0 
L 628 4666 
L 2053 4666 
Q 2853 4666 3247 4331 
Q 3641 3997 3641 3322 
Q 3641 2881 3436 2590 
Q 3231 2300 2841 2188 
z
M 1259 4147 
L 1259 2491 
L 2053 2491 
Q 2509 2491 2742 2702 
Q 2975 2913 2975 3322 
Q 2975 3731 2742 3939 
Q 2509 4147 2053 4147 
L 1259 4147 
z
" transform="scale(0.015625)"/>
      <path id="DejaVuSans-5f" d="M 3263 -1063 
L 3263 -1509 
L -63 -1509 
L -63 -1063 
L 3263 -1063 
z
" transform="scale(0.015625)"/>
      <path id="DejaVuSans-4e" d="M 628 4666 
L 1478 4666 
L 3547 763 
L 3547 4666 
L 4159 4666 
L 4159 0 
L 3309 0 
L 1241 3903 
L 1241 0 
L 628 0 
L 628 4666 
z
" transform="scale(0.015625)"/>
      <path id="DejaVuSans-51" d="M 2522 4238 
Q 1834 4238 1429 3725 
Q 1025 3213 1025 2328 
Q 1025 1447 1429 934 
Q 1834 422 2522 422 
Q 3209 422 3611 934 
Q 4013 1447 4013 2328 
Q 4013 3213 3611 3725 
Q 3209 4238 2522 4238 
z
M 3406 84 
L 4238 -825 
L 3475 -825 
L 2784 -78 
Q 2681 -84 2626 -87 
Q 2572 -91 2522 -91 
Q 1538 -91 948 567 
Q 359 1225 359 2328 
Q 359 3434 948 4092 
Q 1538 4750 2522 4750 
Q 3503 4750 4090 4092 
Q 4678 3434 4678 2328 
Q 4678 1516 4351 937 
Q 4025 359 3406 84 
z
" transform="scale(0.015625)"/>
      <path id="DejaVuSans-55" d="M 556 4666 
L 1191 4666 
L 1191 1831 
Q 1191 1081 1462 751 
Q 1734 422 2344 422 
Q 2950 422 3222 751 
Q 3494 1081 3494 1831 
L 3494 4666 
L 4128 4666 
L 4128 1753 
Q 4128 841 3676 375 
Q 3225 -91 2344 -91 
Q 1459 -91 1007 375 
Q 556 841 556 1753 
L 556 4666 
z
" transform="scale(0.015625)"/>
      <path id="DejaVuSans-44" d="M 1259 4147 
L 1259 519 
L 2022 519 
Q 2988 519 3436 956 
Q 3884 1394 3884 2338 
Q 3884 3275 3436 3711 
Q 2988 4147 2022 4147 
L 1259 4147 
z
M 628 4666 
L 1925 4666 
Q 3281 4666 3915 4102 
Q 4550 3538 4550 2338 
Q 4550 1131 3912 565 
Q 3275 0 1925 0 
L 628 0 
L 628 4666 
z
" transform="scale(0.015625)"/>
     </defs>
     <use xlink:href="#DejaVuSans-52"/>
     <use xlink:href="#DejaVuSans-4f" x="69.482422"/>
     <use xlink:href="#DejaVuSans-4f" x="148.193359"/>
     <use xlink:href="#DejaVuSans-54" x="226.904297"/>
     <use xlink:href="#DejaVuSans-5f" x="287.988281"/>
     <use xlink:href="#DejaVuSans-4d" x="337.988281"/>
     <use xlink:href="#DejaVuSans-45" x="424.267578"/>
     <use xlink:href="#DejaVuSans-41" x="487.451172"/>
     <use xlink:href="#DejaVuSans-4e" x="555.859375"/>
     <use xlink:href="#DejaVuSans-5f" x="630.664062"/>
     <use xlink:href="#DejaVuSans-53" x="680.664062"/>
     <use xlink:href="#DejaVuSans-51" x="744.140625"/>
     <use xlink:href="#DejaVuSans-55" x="822.851562"/>
     <use xlink:href="#DejaVuSans-41" x="896.044922"/>
     <use xlink:href="#DejaVuSans-52" x="964.453125"/>
     <use xlink:href="#DejaVuSans-45" x="1033.935547"/>
     <use xlink:href="#DejaVuSans-44" x="1097.119141"/>
     <use xlink:href="#DejaVuSans-5f" x="1174.121094"/>
     <use xlink:href="#DejaVuSans-45" x="1224.121094"/>
     <use xlink:href="#DejaVuSans-52" x="1287.304688"/>
     <use xlink:href="#DejaVuSans-52" x="1356.787109"/>
     <use xlink:href="#DejaVuSans-4f" x="1426.269531"/>
     <use xlink:href="#DejaVuSans-52" x="1504.980469"/>
    </g>
   </g>
   <g id="legend_4">
    <g id="patch_25">
     <path d="M 1078.01875 503.91625 
L 1159.4 503.91625 
Q 1161.4 503.91625 1161.4 501.91625 
L 1161.4 473.56 
Q 1161.4 471.56 1159.4 471.56 
L 1078.01875 471.56 
Q 1076.01875 471.56 1076.01875 473.56 
L 1076.01875 501.91625 
Q 1076.01875 503.91625 1078.01875 503.91625 
z
" style="fill: #ffffff; opacity: 0.8; stroke: #cccccc; stroke-linejoin: miter"/>
    </g>
    <g id="line2d_59">
     <path d="M 1080.01875 479.658437 
L 1090.01875 479.658437 
L 1100.01875 479.658437 
" style="fill: none; stroke: #4169e1; stroke-linecap: square"/>
    </g>
    <g id="text_55">
     <!-- Training -->
     <g transform="translate(1108.01875 483.158437) scale(0.1 -0.1)">
      <use xlink:href="#DejaVuSans-54"/>
      <use xlink:href="#DejaVuSans-72" x="46.333984"/>
      <use xlink:href="#DejaVuSans-61" x="87.447266"/>
      <use xlink:href="#DejaVuSans-69" x="148.726562"/>
      <use xlink:href="#DejaVuSans-6e" x="176.509766"/>
      <use xlink:href="#DejaVuSans-69" x="239.888672"/>
      <use xlink:href="#DejaVuSans-6e" x="267.671875"/>
      <use xlink:href="#DejaVuSans-67" x="331.050781"/>
     </g>
    </g>
    <g id="line2d_60">
     <path d="M 1080.01875 494.336563 
L 1090.01875 494.336563 
L 1100.01875 494.336563 
" style="fill: none; stroke: #ff6347; stroke-linecap: square"/>
    </g>
    <g id="text_56">
     <!-- Validation -->
     <g transform="translate(1108.01875 497.836563) scale(0.1 -0.1)">
      <use xlink:href="#DejaVuSans-56"/>
      <use xlink:href="#DejaVuSans-61" x="60.658203"/>
      <use xlink:href="#DejaVuSans-6c" x="121.9375"/>
      <use xlink:href="#DejaVuSans-69" x="149.720703"/>
      <use xlink:href="#DejaVuSans-64" x="177.503906"/>
      <use xlink:href="#DejaVuSans-61" x="240.980469"/>
      <use xlink:href="#DejaVuSans-74" x="302.259766"/>
      <use xlink:href="#DejaVuSans-69" x="341.46875"/>
      <use xlink:href="#DejaVuSans-6f" x="369.251953"/>
      <use xlink:href="#DejaVuSans-6e" x="430.433594"/>
     </g>
    </g>
   </g>
  </g>
 </g>
 <defs>
  <clipPath id="p1ecce9a3ec">
   <rect x="162" y="103.68" width="456.545455" height="302.4"/>
  </clipPath>
  <clipPath id="p0bc28f85f1">
   <rect x="709.854545" y="103.68" width="456.545455" height="302.4"/>
  </clipPath>
  <clipPath id="pdfda12c06a">
   <rect x="162" y="466.56" width="456.545455" height="302.4"/>
  </clipPath>
  <clipPath id="pa3bbfc8e5a">
   <rect x="709.854545" y="466.56" width="456.545455" height="302.4"/>
  </clipPath>
 </defs>
</svg>
