<?xml version="1.0" encoding="utf-8" standalone="no"?>
<!DOCTYPE svg PUBLIC "-//W3C//DTD SVG 1.1//EN"
  "http://www.w3.org/Graphics/SVG/1.1/DTD/svg11.dtd">
<svg xmlns:xlink="http://www.w3.org/1999/xlink" width="1296pt" height="864pt" viewBox="0 0 1296 864" xmlns="http://www.w3.org/2000/svg" version="1.1">
 <metadata>
  <rdf:RDF xmlns:dc="http://purl.org/dc/elements/1.1/" xmlns:cc="http://creativecommons.org/ns#" xmlns:rdf="http://www.w3.org/1999/02/22-rdf-syntax-ns#">
   <cc:Work>
    <dc:type rdf:resource="http://purl.org/dc/dcmitype/StillImage"/>
    <dc:date>2023-12-24T18:19:53.106170</dc:date>
    <dc:format>image/svg+xml</dc:format>
    <dc:creator>
     <cc:Agent>
      <dc:title>Matplotlib v3.8.0, https://matplotlib.org/</dc:title>
     </cc:Agent>
    </dc:creator>
   </cc:Work>
  </rdf:RDF>
 </metadata>
 <defs>
  <style type="text/css">*{stroke-linejoin: round; stroke-linecap: butt}</style>
 </defs>
 <g id="figure_1">
  <g id="patch_1">
   <path d="M 0 864 
L 1296 864 
L 1296 0 
L 0 0 
z
" style="fill: #ffffff"/>
  </g>
  <g id="axes_1">
   <g id="patch_2">
    <path d="M 162 768.96 
L 1166.4 768.96 
L 1166.4 103.68 
L 162 103.68 
z
" style="fill: #ffffff"/>
   </g>
   <g id="matplotlib.axis_1">
    <g id="xtick_1">
     <g id="line2d_1">
      <defs>
       <path id="m3639ec608c" d="M 0 0 
L 0 3.5 
" style="stroke: #000000; stroke-width: 0.8"/>
      </defs>
      <g>
       <use xlink:href="#m3639ec608c" x="207.654545" y="768.96" style="stroke: #000000; stroke-width: 0.8"/>
      </g>
     </g>
     <g id="text_1">
      <!-- 0 -->
      <g transform="translate(204.473295 783.558437) scale(0.1 -0.1)">
       <defs>
        <path id="DejaVuSans-30" d="M 2034 4250 
Q 1547 4250 1301 3770 
Q 1056 3291 1056 2328 
Q 1056 1369 1301 889 
Q 1547 409 2034 409 
Q 2525 409 2770 889 
Q 3016 1369 3016 2328 
Q 3016 3291 2770 3770 
Q 2525 4250 2034 4250 
z
M 2034 4750 
Q 2819 4750 3233 4129 
Q 3647 3509 3647 2328 
Q 3647 1150 3233 529 
Q 2819 -91 2034 -91 
Q 1250 -91 836 529 
Q 422 1150 422 2328 
Q 422 3509 836 4129 
Q 1250 4750 2034 4750 
z
" transform="scale(0.015625)"/>
       </defs>
       <use xlink:href="#DejaVuSans-30"/>
      </g>
     </g>
    </g>
    <g id="xtick_2">
     <g id="line2d_2">
      <g>
       <use xlink:href="#m3639ec608c" x="390.638696" y="768.96" style="stroke: #000000; stroke-width: 0.8"/>
      </g>
     </g>
     <g id="text_2">
      <!-- 100 -->
      <g transform="translate(381.094946 783.558437) scale(0.1 -0.1)">
       <defs>
        <path id="DejaVuSans-31" d="M 794 531 
L 1825 531 
L 1825 4091 
L 703 3866 
L 703 4441 
L 1819 4666 
L 2450 4666 
L 2450 531 
L 3481 531 
L 3481 0 
L 794 0 
L 794 531 
z
" transform="scale(0.015625)"/>
       </defs>
       <use xlink:href="#DejaVuSans-31"/>
       <use xlink:href="#DejaVuSans-30" x="63.623047"/>
       <use xlink:href="#DejaVuSans-30" x="127.246094"/>
      </g>
     </g>
    </g>
    <g id="xtick_3">
     <g id="line2d_3">
      <g>
       <use xlink:href="#m3639ec608c" x="573.622846" y="768.96" style="stroke: #000000; stroke-width: 0.8"/>
      </g>
     </g>
     <g id="text_3">
      <!-- 200 -->
      <g transform="translate(564.079096 783.558437) scale(0.1 -0.1)">
       <defs>
        <path id="DejaVuSans-32" d="M 1228 531 
L 3431 531 
L 3431 0 
L 469 0 
L 469 531 
Q 828 903 1448 1529 
Q 2069 2156 2228 2338 
Q 2531 2678 2651 2914 
Q 2772 3150 2772 3378 
Q 2772 3750 2511 3984 
Q 2250 4219 1831 4219 
Q 1534 4219 1204 4116 
Q 875 4013 500 3803 
L 500 4441 
Q 881 4594 1212 4672 
Q 1544 4750 1819 4750 
Q 2544 4750 2975 4387 
Q 3406 4025 3406 3419 
Q 3406 3131 3298 2873 
Q 3191 2616 2906 2266 
Q 2828 2175 2409 1742 
Q 1991 1309 1228 531 
z
" transform="scale(0.015625)"/>
       </defs>
       <use xlink:href="#DejaVuSans-32"/>
       <use xlink:href="#DejaVuSans-30" x="63.623047"/>
       <use xlink:href="#DejaVuSans-30" x="127.246094"/>
      </g>
     </g>
    </g>
    <g id="xtick_4">
     <g id="line2d_4">
      <g>
       <use xlink:href="#m3639ec608c" x="756.606996" y="768.96" style="stroke: #000000; stroke-width: 0.8"/>
      </g>
     </g>
     <g id="text_4">
      <!-- 300 -->
      <g transform="translate(747.063246 783.558437) scale(0.1 -0.1)">
       <defs>
        <path id="DejaVuSans-33" d="M 2597 2516 
Q 3050 2419 3304 2112 
Q 3559 1806 3559 1356 
Q 3559 666 3084 287 
Q 2609 -91 1734 -91 
Q 1441 -91 1130 -33 
Q 819 25 488 141 
L 488 750 
Q 750 597 1062 519 
Q 1375 441 1716 441 
Q 2309 441 2620 675 
Q 2931 909 2931 1356 
Q 2931 1769 2642 2001 
Q 2353 2234 1838 2234 
L 1294 2234 
L 1294 2753 
L 1863 2753 
Q 2328 2753 2575 2939 
Q 2822 3125 2822 3475 
Q 2822 3834 2567 4026 
Q 2313 4219 1838 4219 
Q 1578 4219 1281 4162 
Q 984 4106 628 3988 
L 628 4550 
Q 988 4650 1302 4700 
Q 1616 4750 1894 4750 
Q 2613 4750 3031 4423 
Q 3450 4097 3450 3541 
Q 3450 3153 3228 2886 
Q 3006 2619 2597 2516 
z
" transform="scale(0.015625)"/>
       </defs>
       <use xlink:href="#DejaVuSans-33"/>
       <use xlink:href="#DejaVuSans-30" x="63.623047"/>
       <use xlink:href="#DejaVuSans-30" x="127.246094"/>
      </g>
     </g>
    </g>
    <g id="xtick_5">
     <g id="line2d_5">
      <g>
       <use xlink:href="#m3639ec608c" x="939.591146" y="768.96" style="stroke: #000000; stroke-width: 0.8"/>
      </g>
     </g>
     <g id="text_5">
      <!-- 400 -->
      <g transform="translate(930.047396 783.558437) scale(0.1 -0.1)">
       <defs>
        <path id="DejaVuSans-34" d="M 2419 4116 
L 825 1625 
L 2419 1625 
L 2419 4116 
z
M 2253 4666 
L 3047 4666 
L 3047 1625 
L 3713 1625 
L 3713 1100 
L 3047 1100 
L 3047 0 
L 2419 0 
L 2419 1100 
L 313 1100 
L 313 1709 
L 2253 4666 
z
" transform="scale(0.015625)"/>
       </defs>
       <use xlink:href="#DejaVuSans-34"/>
       <use xlink:href="#DejaVuSans-30" x="63.623047"/>
       <use xlink:href="#DejaVuSans-30" x="127.246094"/>
      </g>
     </g>
    </g>
    <g id="xtick_6">
     <g id="line2d_6">
      <g>
       <use xlink:href="#m3639ec608c" x="1122.575296" y="768.96" style="stroke: #000000; stroke-width: 0.8"/>
      </g>
     </g>
     <g id="text_6">
      <!-- 500 -->
      <g transform="translate(1113.031546 783.558437) scale(0.1 -0.1)">
       <defs>
        <path id="DejaVuSans-35" d="M 691 4666 
L 3169 4666 
L 3169 4134 
L 1269 4134 
L 1269 2991 
Q 1406 3038 1543 3061 
Q 1681 3084 1819 3084 
Q 2600 3084 3056 2656 
Q 3513 2228 3513 1497 
Q 3513 744 3044 326 
Q 2575 -91 1722 -91 
Q 1428 -91 1123 -41 
Q 819 9 494 109 
L 494 744 
Q 775 591 1075 516 
Q 1375 441 1709 441 
Q 2250 441 2565 725 
Q 2881 1009 2881 1497 
Q 2881 1984 2565 2268 
Q 2250 2553 1709 2553 
Q 1456 2553 1204 2497 
Q 953 2441 691 2322 
L 691 4666 
z
" transform="scale(0.015625)"/>
       </defs>
       <use xlink:href="#DejaVuSans-35"/>
       <use xlink:href="#DejaVuSans-30" x="63.623047"/>
       <use xlink:href="#DejaVuSans-30" x="127.246094"/>
      </g>
     </g>
    </g>
   </g>
   <g id="matplotlib.axis_2">
    <g id="ytick_1">
     <g id="line2d_7">
      <defs>
       <path id="m89e406a5d4" d="M 0 0 
L -3.5 0 
" style="stroke: #000000; stroke-width: 0.8"/>
      </defs>
      <g>
       <use xlink:href="#m89e406a5d4" x="162" y="743.786968" style="stroke: #000000; stroke-width: 0.8"/>
      </g>
     </g>
     <g id="text_7">
      <!-- 0 -->
      <g transform="translate(148.6375 747.586186) scale(0.1 -0.1)">
       <use xlink:href="#DejaVuSans-30"/>
      </g>
     </g>
    </g>
    <g id="ytick_2">
     <g id="line2d_8">
      <g>
       <use xlink:href="#m89e406a5d4" x="162" y="642.447613" style="stroke: #000000; stroke-width: 0.8"/>
      </g>
     </g>
     <g id="text_8">
      <!-- 20 -->
      <g transform="translate(142.275 646.246832) scale(0.1 -0.1)">
       <use xlink:href="#DejaVuSans-32"/>
       <use xlink:href="#DejaVuSans-30" x="63.623047"/>
      </g>
     </g>
    </g>
    <g id="ytick_3">
     <g id="line2d_9">
      <g>
       <use xlink:href="#m89e406a5d4" x="162" y="541.108258" style="stroke: #000000; stroke-width: 0.8"/>
      </g>
     </g>
     <g id="text_9">
      <!-- 40 -->
      <g transform="translate(142.275 544.907477) scale(0.1 -0.1)">
       <use xlink:href="#DejaVuSans-34"/>
       <use xlink:href="#DejaVuSans-30" x="63.623047"/>
      </g>
     </g>
    </g>
    <g id="ytick_4">
     <g id="line2d_10">
      <g>
       <use xlink:href="#m89e406a5d4" x="162" y="439.768903" style="stroke: #000000; stroke-width: 0.8"/>
      </g>
     </g>
     <g id="text_10">
      <!-- 60 -->
      <g transform="translate(142.275 443.568122) scale(0.1 -0.1)">
       <defs>
        <path id="DejaVuSans-36" d="M 2113 2584 
Q 1688 2584 1439 2293 
Q 1191 2003 1191 1497 
Q 1191 994 1439 701 
Q 1688 409 2113 409 
Q 2538 409 2786 701 
Q 3034 994 3034 1497 
Q 3034 2003 2786 2293 
Q 2538 2584 2113 2584 
z
M 3366 4563 
L 3366 3988 
Q 3128 4100 2886 4159 
Q 2644 4219 2406 4219 
Q 1781 4219 1451 3797 
Q 1122 3375 1075 2522 
Q 1259 2794 1537 2939 
Q 1816 3084 2150 3084 
Q 2853 3084 3261 2657 
Q 3669 2231 3669 1497 
Q 3669 778 3244 343 
Q 2819 -91 2113 -91 
Q 1303 -91 875 529 
Q 447 1150 447 2328 
Q 447 3434 972 4092 
Q 1497 4750 2381 4750 
Q 2619 4750 2861 4703 
Q 3103 4656 3366 4563 
z
" transform="scale(0.015625)"/>
       </defs>
       <use xlink:href="#DejaVuSans-36"/>
       <use xlink:href="#DejaVuSans-30" x="63.623047"/>
      </g>
     </g>
    </g>
    <g id="ytick_5">
     <g id="line2d_11">
      <g>
       <use xlink:href="#m89e406a5d4" x="162" y="338.429548" style="stroke: #000000; stroke-width: 0.8"/>
      </g>
     </g>
     <g id="text_11">
      <!-- 80 -->
      <g transform="translate(142.275 342.228767) scale(0.1 -0.1)">
       <defs>
        <path id="DejaVuSans-38" d="M 2034 2216 
Q 1584 2216 1326 1975 
Q 1069 1734 1069 1313 
Q 1069 891 1326 650 
Q 1584 409 2034 409 
Q 2484 409 2743 651 
Q 3003 894 3003 1313 
Q 3003 1734 2745 1975 
Q 2488 2216 2034 2216 
z
M 1403 2484 
Q 997 2584 770 2862 
Q 544 3141 544 3541 
Q 544 4100 942 4425 
Q 1341 4750 2034 4750 
Q 2731 4750 3128 4425 
Q 3525 4100 3525 3541 
Q 3525 3141 3298 2862 
Q 3072 2584 2669 2484 
Q 3125 2378 3379 2068 
Q 3634 1759 3634 1313 
Q 3634 634 3220 271 
Q 2806 -91 2034 -91 
Q 1263 -91 848 271 
Q 434 634 434 1313 
Q 434 1759 690 2068 
Q 947 2378 1403 2484 
z
M 1172 3481 
Q 1172 3119 1398 2916 
Q 1625 2713 2034 2713 
Q 2441 2713 2670 2916 
Q 2900 3119 2900 3481 
Q 2900 3844 2670 4047 
Q 2441 4250 2034 4250 
Q 1625 4250 1398 4047 
Q 1172 3844 1172 3481 
z
" transform="scale(0.015625)"/>
       </defs>
       <use xlink:href="#DejaVuSans-38"/>
       <use xlink:href="#DejaVuSans-30" x="63.623047"/>
      </g>
     </g>
    </g>
    <g id="ytick_6">
     <g id="line2d_12">
      <g>
       <use xlink:href="#m89e406a5d4" x="162" y="237.090193" style="stroke: #000000; stroke-width: 0.8"/>
      </g>
     </g>
     <g id="text_12">
      <!-- 100 -->
      <g transform="translate(135.9125 240.889412) scale(0.1 -0.1)">
       <use xlink:href="#DejaVuSans-31"/>
       <use xlink:href="#DejaVuSans-30" x="63.623047"/>
       <use xlink:href="#DejaVuSans-30" x="127.246094"/>
      </g>
     </g>
    </g>
    <g id="ytick_7">
     <g id="line2d_13">
      <g>
       <use xlink:href="#m89e406a5d4" x="162" y="135.750838" style="stroke: #000000; stroke-width: 0.8"/>
      </g>
     </g>
     <g id="text_13">
      <!-- 120 -->
      <g transform="translate(135.9125 139.550057) scale(0.1 -0.1)">
       <use xlink:href="#DejaVuSans-31"/>
       <use xlink:href="#DejaVuSans-32" x="63.623047"/>
       <use xlink:href="#DejaVuSans-30" x="127.246094"/>
      </g>
     </g>
    </g>
   </g>
   <g id="line2d_14">
    <path d="M 207.654545 733.653032 
L 209.484387 723.519097 
L 211.314228 738.72 
L 213.14407 718.452129 
L 214.973911 576.577032 
L 216.803753 470.170709 
L 218.633594 551.242193 
L 220.463436 667.782452 
L 222.293277 652.581548 
L 224.123119 693.11729 
L 225.95296 434.701935 
L 227.782802 738.72 
L 229.612643 556.309161 
L 231.442485 703.251226 
L 233.272326 703.251226 
L 235.102168 682.983355 
L 236.932009 581.644 
L 238.761851 612.045806 
L 240.591692 156.018709 
L 242.421534 465.103742 
L 246.081217 156.018709 
L 247.911058 252.291096 
L 249.7409 156.018709 
L 253.400583 156.018709 
L 255.230424 358.697419 
L 257.060266 156.018709 
L 258.890107 156.018709 
L 260.719949 186.420515 
L 262.54979 156.018709 
L 268.039315 156.018709 
L 269.869156 237.090193 
L 271.698998 156.018709 
L 273.528839 166.152644 
L 275.358681 384.032258 
L 277.188522 444.835871 
L 279.018364 571.510064 
L 280.848206 297.893806 
L 282.678047 156.018709 
L 284.507889 277.625935 
L 286.33773 156.018709 
L 288.167572 242.157161 
L 289.997413 318.161677 
L 291.827255 156.018709 
L 293.657096 156.018709 
L 295.486938 313.094709 
L 297.316779 166.152644 
L 299.146621 156.018709 
L 302.806304 156.018709 
L 304.636145 389.099225 
L 306.465987 505.639484 
L 308.295828 156.018709 
L 313.785353 156.018709 
L 315.615194 434.701935 
L 317.445036 409.367096 
L 319.274877 156.018709 
L 321.104719 348.563483 
L 322.93456 515.773419 
L 324.764402 551.242193 
L 326.594243 617.112774 
L 328.424085 267.491999 
L 330.253926 404.300129 
L 332.083768 566.443097 
L 333.913609 485.371613 
L 335.743451 368.831354 
L 337.573292 424.568 
L 339.403134 156.018709 
L 341.232975 247.224128 
L 343.062817 196.554451 
L 344.892658 429.634967 
L 346.7225 475.237677 
L 348.552341 409.367096 
L 350.382183 596.844903 
L 352.212024 581.644 
L 354.041866 682.983355 
L 355.871707 561.376129 
L 357.701549 693.11729 
L 359.53139 480.304645 
L 361.361232 520.840387 
L 363.191073 419.501032 
L 365.020915 536.04129 
L 366.850756 627.24671 
L 368.680598 677.916387 
L 370.510439 409.367096 
L 372.340281 404.300129 
L 374.170122 221.88929 
L 375.999964 389.099225 
L 377.829805 394.166193 
L 379.659647 373.898322 
L 381.489488 566.443097 
L 383.31933 561.376129 
L 385.149171 622.179742 
L 386.979013 566.443097 
L 388.808854 475.237677 
L 390.638696 409.367096 
L 392.468537 282.692903 
L 394.298379 546.175226 
L 396.12822 297.893806 
L 397.958062 439.768903 
L 399.787903 566.443097 
L 401.617745 449.902838 
L 403.447586 510.706451 
L 405.277428 500.572516 
L 407.107269 480.304645 
L 408.937111 495.505548 
L 410.766952 708.318194 
L 412.596794 657.648516 
L 414.426635 434.701935 
L 416.256477 672.849419 
L 418.086318 612.045806 
L 419.91616 601.911871 
L 421.746001 156.018709 
L 423.575843 439.768903 
L 425.405684 470.170709 
L 427.235526 672.849419 
L 429.065367 556.309161 
L 430.895209 373.898322 
L 432.72505 500.572516 
L 434.554892 591.777935 
L 436.384733 389.099225 
L 438.214575 378.96529 
L 440.044416 556.309161 
L 441.874258 465.103742 
L 443.704099 601.911871 
L 445.533941 688.050323 
L 447.363782 546.175226 
L 449.193624 612.045806 
L 451.023465 465.103742 
L 452.853307 500.572516 
L 454.683148 657.648516 
L 456.51299 667.782452 
L 458.342831 571.510064 
L 460.172673 601.911871 
L 462.002514 465.103742 
L 463.832356 601.911871 
L 465.662197 546.175226 
L 467.492039 373.898322 
L 469.32188 541.108258 
L 471.151722 505.639484 
L 472.981563 657.648516 
L 474.811405 586.710968 
L 476.641246 617.112774 
L 478.471088 738.72 
L 480.300929 647.514581 
L 482.130771 703.251226 
L 483.960612 510.706451 
L 485.790454 677.916387 
L 487.620295 708.318194 
L 489.450137 617.112774 
L 491.279978 733.653032 
L 493.10982 434.701935 
L 494.939661 338.429548 
L 496.769503 510.706451 
L 498.599344 465.103742 
L 500.429186 368.831354 
L 502.259027 515.773419 
L 504.088869 642.447613 
L 505.91871 500.572516 
L 507.748552 439.768903 
L 509.578393 525.907355 
L 511.408235 561.376129 
L 513.238076 409.367096 
L 515.067918 404.300129 
L 516.897759 530.974322 
L 518.727601 698.184258 
L 520.557442 454.969806 
L 522.387284 551.242193 
L 524.217125 733.653032 
L 526.046967 460.036774 
L 527.876808 495.505548 
L 529.70665 642.447613 
L 531.536491 520.840387 
L 533.366333 657.648516 
L 535.196174 738.72 
L 537.026016 642.447613 
L 538.855857 723.519097 
L 540.685699 693.11729 
L 542.51554 733.653032 
L 544.345382 723.519097 
L 546.175223 596.844903 
L 548.005065 662.715484 
L 549.834906 688.050323 
L 551.664748 647.514581 
L 553.494589 713.385161 
L 555.324431 622.179742 
L 557.154272 627.24671 
L 558.984114 708.318194 
L 560.813955 703.251226 
L 562.643797 662.715484 
L 564.473638 693.11729 
L 566.30348 596.844903 
L 568.133321 581.644 
L 569.963163 713.385161 
L 571.793004 672.849419 
L 573.622846 738.72 
L 575.452687 703.251226 
L 577.282529 738.72 
L 579.11237 667.782452 
L 580.942212 617.112774 
L 582.772053 647.514581 
L 584.601895 647.514581 
L 586.431736 688.050323 
L 588.261578 500.572516 
L 590.091419 373.898322 
L 591.921261 272.558967 
L 593.751102 247.224128 
L 595.580944 156.018709 
L 599.240627 156.018709 
L 601.070468 237.090193 
L 602.90031 156.018709 
L 606.559993 363.764387 
L 608.389834 368.831354 
L 610.219676 156.018709 
L 612.049517 358.697419 
L 613.879359 252.291096 
L 615.7092 156.018709 
L 617.539042 262.425032 
L 619.368883 561.376129 
L 621.198725 343.496516 
L 623.028566 156.018709 
L 624.858408 318.161677 
L 626.688249 252.291096 
L 628.518091 237.090193 
L 630.347932 490.43858 
L 632.177774 287.75987 
L 634.007615 156.018709 
L 654.135872 156.018709 
L 655.965713 318.161677 
L 657.795555 156.018709 
L 661.455238 156.018709 
L 663.285079 262.425032 
L 665.114921 156.018709 
L 666.944762 247.224128 
L 668.774604 257.358064 
L 670.604445 353.630451 
L 672.434287 156.018709 
L 674.264128 221.88929 
L 676.09397 302.960774 
L 677.923811 156.018709 
L 679.753653 586.710968 
L 681.583494 343.496516 
L 683.413336 637.380645 
L 685.243177 530.974322 
L 687.073019 439.768903 
L 688.90286 515.773419 
L 690.732702 530.974322 
L 692.562543 627.24671 
L 694.392385 414.434064 
L 696.222226 606.978839 
L 698.052068 612.045806 
L 699.881909 449.902838 
L 701.711751 449.902838 
L 703.541592 536.04129 
L 705.371434 571.510064 
L 707.201275 612.045806 
L 709.031117 601.911871 
L 710.860958 556.309161 
L 712.6908 591.777935 
L 714.520641 637.380645 
L 716.350483 632.313677 
L 718.180324 581.644 
L 720.010166 728.586065 
L 721.840007 586.710968 
L 725.49969 617.112774 
L 727.329532 667.782452 
L 729.159373 642.447613 
L 730.989215 449.902838 
L 732.819056 693.11729 
L 734.648898 632.313677 
L 736.478739 733.653032 
L 738.308581 576.577032 
L 740.138422 612.045806 
L 741.968264 596.844903 
L 743.798105 510.706451 
L 745.627947 723.519097 
L 747.457788 718.452129 
L 749.28763 703.251226 
L 751.117471 738.72 
L 752.947313 703.251226 
L 754.777154 688.050323 
L 756.606996 475.237677 
L 758.436837 672.849419 
L 760.266679 632.313677 
L 762.09652 657.648516 
L 763.926362 586.710968 
L 765.756203 323.228645 
L 767.586045 444.835871 
L 769.415886 404.300129 
L 771.245728 191.487483 
L 773.075569 166.152644 
L 774.905411 156.018709 
L 776.735252 156.018709 
L 778.565094 206.688386 
L 780.394935 156.018709 
L 782.224777 454.969806 
L 784.054618 338.429548 
L 785.88446 302.960774 
L 787.714301 363.764387 
L 789.544143 156.018709 
L 791.373984 394.166193 
L 793.203826 237.090193 
L 795.033667 186.420515 
L 796.863509 252.291096 
L 798.69335 156.018709 
L 807.842558 156.018709 
L 809.672399 171.219612 
L 811.502241 156.018709 
L 813.332082 156.018709 
L 815.161924 353.630451 
L 816.991765 292.826838 
L 818.821607 181.353548 
L 820.651448 333.36258 
L 822.48129 156.018709 
L 824.311131 348.563483 
L 826.140973 313.094709 
L 827.970814 156.018709 
L 833.460339 156.018709 
L 835.29018 191.487483 
L 837.120022 156.018709 
L 838.949863 313.094709 
L 840.779705 399.233161 
L 842.609546 156.018709 
L 844.439388 156.018709 
L 846.269229 414.434064 
L 848.099071 389.099225 
L 849.928912 389.099225 
L 851.758754 368.831354 
L 853.588595 434.701935 
L 855.418437 404.300129 
L 857.248278 505.639484 
L 859.07812 617.112774 
L 860.907961 606.978839 
L 862.737803 465.103742 
L 864.567644 622.179742 
L 866.397486 546.175226 
L 868.227327 449.902838 
L 870.057169 490.43858 
L 871.88701 606.978839 
L 873.716852 637.380645 
L 875.546693 642.447613 
L 877.376535 561.376129 
L 879.206376 617.112774 
L 881.036218 586.710968 
L 882.866059 672.849419 
L 884.695901 612.045806 
L 886.525742 672.849419 
L 888.355584 510.706451 
L 890.185425 530.974322 
L 892.015267 536.04129 
L 893.845108 642.447613 
L 895.67495 465.103742 
L 897.504791 586.710968 
L 899.334633 642.447613 
L 901.164474 414.434064 
L 902.994316 662.715484 
L 904.824157 586.710968 
L 906.653999 546.175226 
L 908.48384 667.782452 
L 910.313682 591.777935 
L 912.143523 652.581548 
L 913.973365 591.777935 
L 915.803206 525.907355 
L 917.633048 566.443097 
L 919.462889 510.706451 
L 921.292731 657.648516 
L 923.122572 505.639484 
L 924.952414 581.644 
L 926.782255 667.782452 
L 928.612097 733.653032 
L 930.441938 647.514581 
L 932.27178 292.826838 
L 934.101621 642.447613 
L 935.931463 530.974322 
L 937.761304 693.11729 
L 939.591146 515.773419 
L 941.420987 302.960774 
L 943.250829 156.018709 
L 945.08067 156.018709 
L 946.910512 292.826838 
L 948.740353 277.625935 
L 950.570195 156.018709 
L 952.400036 156.018709 
L 954.229878 191.487483 
L 956.059719 156.018709 
L 957.889561 247.224128 
L 959.719402 156.018709 
L 965.208927 156.018709 
L 967.038768 313.094709 
L 968.86861 176.28658 
L 970.698451 156.018709 
L 972.528293 358.697419 
L 974.358134 262.425032 
L 976.187976 323.228645 
L 978.017817 156.018709 
L 981.6775 404.300129 
L 983.507342 262.425032 
L 985.337183 156.018709 
L 990.826708 156.018709 
L 992.656549 171.219612 
L 994.486391 439.768903 
L 996.316232 156.018709 
L 998.146074 166.152644 
L 999.975915 156.018709 
L 1001.805757 186.420515 
L 1003.635598 313.094709 
L 1005.46544 156.018709 
L 1007.295281 232.023225 
L 1009.125123 156.018709 
L 1012.784806 156.018709 
L 1014.614647 262.425032 
L 1016.444489 211.755354 
L 1018.27433 156.018709 
L 1020.104172 156.018709 
L 1021.934013 384.032258 
L 1023.763855 556.309161 
L 1025.593696 363.764387 
L 1027.423538 196.554451 
L 1029.253379 156.018709 
L 1031.083221 373.898322 
L 1032.913062 237.090193 
L 1034.742904 292.826838 
L 1036.572745 201.621419 
L 1038.402587 368.831354 
L 1040.232428 237.090193 
L 1042.06227 525.907355 
L 1043.892111 394.166193 
L 1045.721953 515.773419 
L 1047.551794 561.376129 
L 1049.381636 444.835871 
L 1053.041319 166.152644 
L 1054.871161 541.108258 
L 1056.701002 480.304645 
L 1058.530844 698.184258 
L 1062.190527 399.233161 
L 1064.020368 515.773419 
L 1065.85021 429.634967 
L 1067.680051 495.505548 
L 1069.509893 308.027741 
L 1071.339734 460.036774 
L 1073.169576 596.844903 
L 1074.999417 363.764387 
L 1076.829259 485.371613 
L 1078.6591 470.170709 
L 1080.488942 662.715484 
L 1082.318783 530.974322 
L 1084.148625 378.96529 
L 1085.978466 313.094709 
L 1087.808308 505.639484 
L 1089.638149 368.831354 
L 1091.467991 429.634967 
L 1093.297832 394.166193 
L 1095.127674 490.43858 
L 1096.957515 156.018709 
L 1098.787357 586.710968 
L 1100.617198 627.24671 
L 1102.44704 581.644 
L 1104.276881 495.505548 
L 1106.106723 348.563483 
L 1107.936564 556.309161 
L 1109.766406 601.911871 
L 1111.596247 546.175226 
L 1113.426089 394.166193 
L 1115.25593 399.233161 
L 1117.085772 627.24671 
L 1118.915613 591.777935 
L 1120.745455 622.179742 
L 1120.745455 622.179742 
" clip-path="url(#p6fbe4b37f0)" style="fill: none; stroke: #4169e1; stroke-linecap: square"/>
   </g>
   <g id="line2d_15">
    <path d="M 207.654545 699.002249 
L 209.484387 695.873651 
L 211.314228 683.321181 
L 213.14407 672.326243 
L 214.973911 697.723064 
L 216.803753 689.265176 
L 218.633594 642.945092 
L 220.463436 606.994031 
L 222.293277 598.271602 
L 224.123119 613.634491 
L 225.95296 632.170382 
L 227.782802 533.736371 
L 229.612643 626.576894 
L 231.442485 604.197703 
L 233.272326 605.835386 
L 235.102168 620.854462 
L 236.932009 562.705941 
L 238.761851 497.649109 
L 240.591692 439.667503 
L 242.421534 133.92 
L 244.251375 242.40488 
L 246.081217 288.827563 
L 247.911058 207.961662 
L 249.7409 228.961095 
L 251.570741 174.800918 
L 253.400583 176.493284 
L 255.230424 166.285434 
L 257.060266 231.414325 
L 258.890107 198.011428 
L 260.719949 201.969997 
L 262.54979 199.173098 
L 264.379632 189.479244 
L 266.209473 192.374295 
L 269.869156 191.253874 
L 271.698998 212.891239 
L 273.528839 192.089541 
L 275.358681 194.963099 
L 279.018364 300.689661 
L 280.848206 403.446408 
L 282.678047 353.692072 
L 284.507889 272.326015 
L 286.33773 277.364646 
L 288.167572 212.973194 
L 289.997413 232.844899 
L 291.827255 256.310164 
L 293.657096 224.223453 
L 295.486938 218.690155 
L 297.316779 250.922916 
L 299.146621 219.540165 
L 300.976462 195.766564 
L 302.806304 189.2691 
L 304.636145 182.209086 
L 306.465987 270.749816 
L 308.295828 373.760545 
L 310.12567 311.255019 
L 311.955511 296.941391 
L 313.785353 242.21824 
L 315.615194 213.326836 
L 317.445036 310.353516 
L 319.274877 371.764638 
L 321.104719 319.529045 
L 322.93456 381.30243 
L 324.764402 420.036888 
L 326.594243 472.400555 
L 328.424085 537.334339 
L 330.253926 477.135297 
L 332.083768 489.45781 
L 333.913609 500.122383 
L 335.743451 468.161214 
L 337.573292 472.794556 
L 339.403134 484.149849 
L 341.232975 369.247893 
L 343.062817 343.564554 
L 344.892658 308.344929 
L 346.7225 353.769349 
L 348.552341 414.933988 
L 350.382183 438.15712 
L 352.212024 507.170626 
L 354.041866 529.319185 
L 355.871707 579.322168 
L 357.701549 561.58753 
L 359.53139 583.321356 
L 361.361232 543.360737 
L 363.191073 522.85657 
L 365.020915 509.59467 
L 366.850756 480.18784 
L 368.680598 546.3753 
L 370.510439 606.304191 
L 372.340281 554.046379 
L 374.170122 531.313874 
L 375.999964 398.078759 
L 377.829805 354.889268 
L 379.659647 358.456116 
L 381.489488 361.189346 
L 383.31933 454.378437 
L 385.149171 497.871063 
L 386.979013 556.450398 
L 388.808854 560.136331 
L 392.468537 485.798956 
L 394.298379 399.945819 
L 396.12822 431.887563 
L 397.958062 371.480773 
L 399.787903 398.564225 
L 401.617745 464.963123 
L 403.447586 440.216581 
L 405.277428 476.053281 
L 407.107269 481.729981 
L 408.937111 457.708621 
L 410.766952 463.242499 
L 412.596794 578.088073 
L 414.426635 573.300911 
L 416.256477 280.046963 
L 418.086318 426.637666 
L 419.91616 450.327921 
L 421.746001 529.424334 
L 423.575843 467.188794 
L 425.405684 424.909291 
L 427.235526 392.48933 
L 429.065367 492.74203 
L 430.895209 497.809153 
L 432.72505 462.047603 
L 434.554892 488.666657 
L 436.384733 481.958855 
L 438.214575 426.440337 
L 440.044416 423.324433 
L 441.874258 453.232965 
L 443.704099 423.975664 
L 445.533941 480.060308 
L 447.363782 548.145077 
L 449.193624 513.218267 
L 451.023465 548.876253 
L 452.853307 519.676185 
L 454.683148 477.111754 
L 456.51299 536.281452 
L 458.342831 553.874525 
L 460.172673 526.299829 
L 462.002514 541.944641 
L 463.832356 490.982864 
L 465.662197 503.350356 
L 467.492039 480.764384 
L 469.32188 419.952479 
L 471.151722 446.730011 
L 472.981563 435.412216 
L 474.811405 499.698577 
L 476.641246 455.090419 
L 478.471088 516.999899 
L 480.300929 607.556977 
L 482.130771 623.06436 
L 483.960612 644.844837 
L 485.790454 613.658652 
L 487.620295 621.988105 
L 489.450137 634.07842 
L 491.279978 601.646417 
L 493.10982 641.65845 
L 494.939661 598.871137 
L 496.769503 527.756381 
L 498.599344 512.01562 
L 500.429186 459.78082 
L 502.259027 444.205457 
L 504.088869 477.991917 
L 505.91871 520.197216 
L 507.748552 504.811315 
L 509.578393 507.580071 
L 511.408235 520.459781 
L 513.238076 502.025995 
L 515.067918 479.543915 
L 516.897759 474.063772 
L 518.727601 481.566381 
L 520.557442 540.025721 
L 522.387284 514.962937 
L 524.217125 542.562181 
L 526.046967 609.728401 
L 527.876808 539.374992 
L 529.70665 545.68255 
L 531.536491 577.765337 
L 533.366333 521.785224 
L 535.196174 551.202221 
L 537.026016 585.940931 
L 538.855857 572.405942 
L 540.685699 618.292961 
L 542.51554 644.241194 
L 544.345382 654.659507 
L 546.175223 677.557908 
L 549.834906 673.465863 
L 551.664748 670.63696 
L 553.494589 652.907502 
L 555.324431 673.65591 
L 557.154272 668.260432 
L 558.984114 654.232898 
L 560.813955 665.188743 
L 562.643797 650.176128 
L 564.473638 647.08195 
L 566.30348 670.379716 
L 568.133321 658.889415 
L 569.963163 634.99957 
L 571.793004 657.254205 
L 573.622846 649.74979 
L 575.452687 665.665371 
L 577.282529 672.636206 
L 579.11237 670.006402 
L 580.942212 673.724977 
L 586.431736 556.520542 
L 588.261578 555.16941 
L 590.091419 367.555798 
L 591.921261 242.828571 
L 593.751102 223.456713 
L 595.580944 263.651299 
L 597.410785 199.671708 
L 599.240627 177.612121 
L 601.070468 169.449815 
L 602.90031 198.032072 
L 604.730151 181.868587 
L 606.559993 221.2599 
L 608.389834 263.079935 
L 610.219676 298.533517 
L 612.049517 251.921333 
L 613.879359 298.769523 
L 615.7092 271.896835 
L 617.539042 233.242418 
L 619.368883 256.766096 
L 621.198725 347.737867 
L 623.028566 346.967338 
L 624.858408 285.936416 
L 626.688249 314.07805 
L 628.518091 252.902046 
L 630.347932 248.019437 
L 632.177774 326.028133 
L 634.007615 310.287102 
L 635.837457 262.507102 
L 637.667298 247.647355 
L 639.49714 214.781108 
L 641.326981 210.682675 
L 643.156823 210.161025 
L 644.986664 214.224859 
L 648.646347 216.292593 
L 650.476189 216.516422 
L 652.30603 199.40435 
L 654.135872 202.734341 
L 655.965713 199.916953 
L 657.795555 252.782206 
L 659.625396 227.527119 
L 661.455238 232.024346 
L 663.285079 219.672259 
L 665.114921 251.862921 
L 666.944762 239.969085 
L 668.774604 282.135069 
L 670.604445 296.926779 
L 672.434287 338.317827 
L 674.264128 302.627775 
L 676.09397 316.8942 
L 677.923811 333.146792 
L 679.753653 290.951312 
L 681.583494 420.705786 
L 683.413336 410.186876 
L 685.243177 507.026799 
L 687.073019 526.786261 
L 688.90286 499.34505 
L 690.732702 527.008312 
L 692.562543 503.566763 
L 694.392385 530.288628 
L 696.222226 505.922633 
L 698.052068 538.294949 
L 699.881909 557.570201 
L 701.711751 513.522157 
L 703.541592 521.389812 
L 705.371434 515.329762 
L 707.201275 508.177085 
L 709.031117 530.536116 
L 710.860958 531.111423 
L 712.6908 523.529952 
L 716.350483 533.277077 
L 718.180324 547.386957 
L 720.010166 553.673601 
L 721.840007 613.729503 
L 725.49969 595.078817 
L 727.329532 608.117942 
L 729.159373 601.87848 
L 730.989215 609.839948 
L 732.819056 559.555052 
L 734.648898 618.440344 
L 736.478739 600.328463 
L 738.308581 614.222294 
L 740.138422 591.291397 
L 741.968264 590.687657 
L 743.798105 594.736424 
L 745.627947 537.226638 
L 747.457788 606.32062 
L 749.28763 632.610077 
L 751.117471 640.437663 
L 752.947313 650.632407 
L 754.777154 644.87501 
L 756.606996 633.977165 
L 758.436837 530.633688 
L 760.266679 556.127372 
L 762.09652 553.337258 
L 763.926362 569.461756 
L 765.756203 411.53333 
L 767.586045 197.6332 
L 769.415886 269.906146 
L 771.245728 361.960957 
L 773.075569 269.447432 
L 774.905411 235.465518 
L 776.735252 188.132326 
L 778.565094 169.708668 
L 780.394935 189.771923 
L 782.224777 177.34569 
L 784.054618 278.208625 
L 785.88446 304.403448 
L 787.714301 320.208342 
L 789.544143 349.144666 
L 791.373984 259.484287 
L 793.203826 310.827114 
L 795.033667 280.465937 
L 796.863509 252.024627 
L 798.69335 259.749248 
L 800.523192 213.229612 
L 802.353033 207.260794 
L 804.182875 193.587419 
L 806.012716 194.667482 
L 807.842558 196.503693 
L 809.672399 199.275387 
L 811.502241 205.291793 
L 813.332082 207.405606 
L 815.161924 210.432442 
L 816.991765 268.14899 
L 818.821607 280.847761 
L 820.651448 262.849418 
L 822.48129 305.04138 
L 824.311131 248.911159 
L 826.140973 295.886572 
L 827.970814 297.008501 
L 829.800656 248.607695 
L 831.630497 232.68644 
L 833.460339 205.464632 
L 835.29018 204.343051 
L 837.120022 219.678947 
L 838.949863 214.168187 
L 840.779705 274.070375 
L 842.609546 340.370715 
L 844.439388 299.032706 
L 846.269229 291.837699 
L 848.099071 346.291752 
L 849.928912 370.880687 
L 851.758754 408.964242 
L 855.418437 430.678866 
L 857.248278 429.050073 
L 859.07812 454.117941 
L 860.907961 497.6004 
L 862.737803 518.463235 
L 864.567644 514.865519 
L 866.397486 543.96612 
L 868.227327 526.750619 
L 870.057169 496.617098 
L 871.88701 506.703426 
L 873.716852 514.009904 
L 875.546693 533.421657 
L 877.376535 555.710833 
L 879.206376 560.251783 
L 881.036218 568.035241 
L 882.866059 559.636659 
L 884.695901 569.570134 
L 886.525742 554.711237 
L 888.355584 556.913171 
L 890.185425 544.844601 
L 892.015267 528.283172 
L 893.845108 529.006539 
L 895.67495 538.711372 
L 897.504791 519.126818 
L 899.334633 537.120677 
L 901.164474 575.606506 
L 902.994316 498.781244 
L 904.824157 580.419376 
L 906.653999 571.969378 
L 908.48384 543.383874 
L 910.313682 608.638876 
L 912.143523 574.443909 
L 913.973365 584.091818 
L 915.803206 578.30995 
L 917.633048 545.169057 
L 919.462889 556.831062 
L 921.292731 522.275503 
L 923.122572 560.553411 
L 924.952414 535.151095 
L 926.782255 544.745695 
L 928.612097 583.167459 
L 930.441938 598.287181 
L 932.27178 607.914978 
L 934.101621 478.336513 
L 935.931463 560.20493 
L 937.761304 522.438562 
L 939.591146 573.698874 
L 943.250829 291.68183 
L 945.08067 231.372961 
L 946.910512 220.127765 
L 948.740353 222.910129 
L 950.570195 231.066481 
L 952.400036 207.937848 
L 954.229878 198.933303 
L 956.059719 195.023018 
L 957.889561 182.160531 
L 959.719402 222.32133 
L 961.549244 203.221314 
L 963.379085 208.196083 
L 965.208927 200.587011 
L 967.038768 201.528021 
L 968.86861 249.029916 
L 970.698451 231.859586 
L 972.528293 227.348906 
L 974.358134 276.717629 
L 976.187976 265.064168 
L 978.017817 292.582598 
L 979.847659 245.441226 
L 981.6775 264.064629 
L 983.507342 305.056225 
L 985.337183 290.656893 
L 987.167025 255.307069 
L 988.996866 240.478596 
L 990.826708 218.859593 
L 992.656549 215.862021 
L 994.486391 220.145045 
L 996.316232 299.139363 
L 998.146074 266.00166 
L 999.975915 266.461689 
L 1001.805757 245.689758 
L 1003.635598 217.571551 
L 1005.46544 268.465367 
L 1007.295281 229.970993 
L 1009.125123 255.763812 
L 1010.954964 226.805144 
L 1012.784806 222.088571 
L 1014.614647 218.745204 
L 1016.444489 257.311017 
L 1018.27433 269.153941 
L 1021.934013 258.175872 
L 1023.763855 323.216545 
L 1025.593696 420.662992 
L 1027.423538 434.852836 
L 1029.253379 392.327972 
L 1031.083221 359.691623 
L 1032.913062 359.216672 
L 1034.742904 325.509654 
L 1036.572745 347.714943 
L 1038.402587 319.355394 
L 1040.232428 353.690873 
L 1042.06227 340.605292 
L 1043.892111 419.027627 
L 1045.721953 429.930836 
L 1047.551794 468.147896 
L 1049.381636 502.01606 
L 1051.211478 486.980419 
L 1053.041319 459.523764 
L 1054.871161 400.260726 
L 1056.701002 436.460792 
L 1058.530844 445.655051 
L 1060.360685 523.775893 
L 1062.190527 517.125131 
L 1064.020368 475.219856 
L 1065.85021 494.584775 
L 1067.680051 446.298028 
L 1069.509893 452.364515 
L 1071.339734 417.904074 
L 1073.169576 429.869698 
L 1074.999417 474.379491 
L 1076.829259 432.807891 
L 1078.6591 464.612032 
L 1080.488942 466.056253 
L 1082.318783 520.714285 
L 1084.148625 509.522998 
L 1085.978466 470.88273 
L 1087.808308 442.629838 
L 1089.638149 439.539217 
L 1091.467991 408.329596 
L 1093.297832 421.141692 
L 1095.127674 420.842055 
L 1096.957515 429.682517 
L 1098.787357 350.853732 
L 1100.617198 448.266256 
L 1102.44704 515.486152 
L 1104.276881 515.863125 
L 1106.106723 514.209727 
L 1107.936564 465.321115 
L 1109.766406 482.16061 
L 1111.596247 502.676317 
L 1113.426089 505.269276 
L 1115.25593 467.182667 
L 1117.085772 447.666614 
L 1118.915613 502.413559 
L 1120.745455 490.743494 
L 1120.745455 490.743494 
" clip-path="url(#p6fbe4b37f0)" style="fill: none; stroke: #ff6347; stroke-linecap: square"/>
   </g>
   <g id="line2d_16">
    <path d="M 207.654545 701.602254 
L 209.484387 715.605014 
L 211.314228 717.587593 
L 213.14407 709.560388 
L 214.973911 726.381115 
L 216.803753 679.96427 
L 218.633594 603.119099 
L 220.463436 603.80662 
L 222.293277 612.357186 
L 224.123119 612.224512 
L 225.95296 643.488602 
L 227.782802 545.146384 
L 229.612643 623.638121 
L 231.442485 538.331384 
L 233.272326 570.912452 
L 235.102168 655.491231 
L 236.932009 555.896797 
L 238.761851 518.433546 
L 240.591692 523.705478 
L 242.421534 201.594204 
L 244.251375 291.428195 
L 246.081217 233.205538 
L 247.911058 189.656529 
L 249.7409 240.383923 
L 251.570741 187.257807 
L 253.400583 169.39121 
L 255.230424 202.376717 
L 257.060266 232.428205 
L 258.890107 204.109673 
L 260.719949 197.863446 
L 262.54979 236.837834 
L 264.379632 195.340825 
L 266.209473 199.028827 
L 268.039315 201.639472 
L 269.869156 223.171379 
L 271.698998 242.59902 
L 273.528839 228.234133 
L 275.358681 229.814854 
L 277.188522 250.577856 
L 279.018364 295.666493 
L 280.848206 395.352488 
L 282.678047 372.252346 
L 284.507889 333.004608 
L 286.33773 305.287708 
L 288.167572 225.632766 
L 289.997413 220.541637 
L 291.827255 277.916642 
L 293.657096 239.364862 
L 295.486938 231.859548 
L 297.316779 283.168472 
L 299.146621 237.307682 
L 300.976462 216.010081 
L 302.806304 224.96035 
L 304.636145 184.561148 
L 306.465987 247.200315 
L 308.295828 367.970211 
L 310.12567 288.49352 
L 311.955511 279.385952 
L 313.785353 287.791531 
L 315.615194 233.125864 
L 319.274877 371.888498 
L 321.104719 286.569246 
L 322.93456 386.945749 
L 324.764402 435.35881 
L 326.594243 474.085285 
L 328.424085 557.670151 
L 330.253926 488.000234 
L 332.083768 465.579968 
L 333.913609 473.661595 
L 335.743451 430.750789 
L 337.573292 447.34674 
L 339.403134 498.982053 
L 341.232975 368.696516 
L 343.062817 334.383226 
L 344.892658 293.00134 
L 346.7225 336.126658 
L 348.552341 412.017791 
L 350.382183 402.694009 
L 352.212024 511.646225 
L 354.041866 534.615278 
L 355.871707 579.804077 
L 357.701549 593.082552 
L 359.53139 631.784209 
L 361.361232 600.86805 
L 363.191073 522.339385 
L 365.020915 520.20315 
L 366.850756 504.162713 
L 368.680598 577.884867 
L 370.510439 630.894614 
L 372.340281 532.56177 
L 374.170122 494.997158 
L 375.999964 390.119562 
L 377.829805 411.913221 
L 379.659647 416.678851 
L 381.489488 427.42362 
L 383.31933 494.996346 
L 385.149171 496.372606 
L 386.979013 512.783115 
L 388.808854 497.680287 
L 390.638696 510.556265 
L 392.468537 492.458687 
L 394.298379 422.828897 
L 396.12822 495.760226 
L 397.958062 391.674846 
L 399.787903 445.162723 
L 401.617745 491.149538 
L 403.447586 450.695171 
L 405.277428 500.611908 
L 407.107269 501.228502 
L 408.937111 476.619967 
L 410.766952 500.877527 
L 412.596794 529.158329 
L 414.426635 492.619427 
L 416.256477 331.647329 
L 418.086318 543.40214 
L 419.91616 517.436559 
L 421.746001 538.330031 
L 423.575843 411.437188 
L 425.405684 385.829966 
L 427.235526 309.920973 
L 429.065367 448.936391 
L 430.895209 516.926816 
L 432.72505 443.148685 
L 434.554892 477.397532 
L 436.384733 466.146616 
L 438.214575 434.914901 
L 440.044416 432.149045 
L 441.874258 449.295677 
L 443.704099 426.982494 
L 445.533941 518.880161 
L 447.363782 550.404554 
L 449.193624 546.703331 
L 451.023465 568.100283 
L 452.853307 513.917801 
L 454.683148 481.937052 
L 456.51299 531.833107 
L 458.342831 545.847677 
L 460.172673 542.121713 
L 462.002514 570.453853 
L 463.832356 516.543562 
L 465.662197 515.748446 
L 467.492039 504.090191 
L 469.32188 455.642569 
L 471.151722 462.404763 
L 472.981563 458.505341 
L 474.811405 502.518902 
L 476.641246 523.360534 
L 478.471088 562.888619 
L 480.300929 619.995522 
L 482.130771 618.66714 
L 483.960612 662.922932 
L 485.790454 628.540831 
L 487.620295 635.541138 
L 489.450137 653.278492 
L 491.279978 594.508565 
L 493.10982 686.542858 
L 494.939661 578.553649 
L 496.769503 490.230601 
L 498.599344 530.030683 
L 500.429186 470.111988 
L 502.259027 449.574633 
L 504.088869 498.386334 
L 505.91871 504.081957 
L 507.748552 494.451386 
L 509.578393 494.971914 
L 511.408235 524.483468 
L 513.238076 497.349104 
L 515.067918 473.663644 
L 516.897759 464.443194 
L 518.727601 488.890602 
L 520.557442 533.596139 
L 522.387284 495.074513 
L 524.217125 553.388789 
L 526.046967 619.95037 
L 527.876808 522.716648 
L 529.70665 556.896722 
L 531.536491 593.928677 
L 533.366333 531.530957 
L 535.196174 608.409442 
L 537.026016 661.371639 
L 538.855857 618.007627 
L 540.685699 653.857423 
L 542.51554 685.166709 
L 544.345382 701.061082 
L 546.175223 728.425108 
L 548.005065 680.082573 
L 549.834906 672.111952 
L 551.664748 661.044332 
L 553.494589 632.419929 
L 555.324431 676.415446 
L 557.154272 644.942101 
L 558.984114 644.645546 
L 560.813955 671.732206 
L 564.473638 628.466173 
L 566.30348 687.872883 
L 568.133321 638.015108 
L 569.963163 606.938451 
L 571.793004 661.473985 
L 573.622846 647.01486 
L 575.452687 697.20514 
L 577.282529 702.141783 
L 579.11237 716.695379 
L 580.942212 678.174689 
L 582.772053 648.573807 
L 584.601895 606.708272 
L 586.431736 601.107197 
L 588.261578 565.047257 
L 590.091419 421.19591 
L 591.921261 317.088534 
L 593.751102 266.544726 
L 595.580944 183.449656 
L 597.410785 173.042139 
L 599.240627 178.274756 
L 601.070468 173.126761 
L 602.90031 193.658317 
L 604.730151 174.439196 
L 606.559993 238.28851 
L 608.389834 274.026576 
L 610.219676 333.987988 
L 612.049517 233.059257 
L 613.879359 314.376605 
L 615.7092 285.13902 
L 617.539042 222.85852 
L 619.368883 260.743606 
L 621.198725 382.33247 
L 623.028566 341.580785 
L 624.858408 309.117276 
L 626.688249 355.95178 
L 628.518091 252.892961 
L 630.347932 246.839173 
L 632.177774 321.902524 
L 634.007615 328.711649 
L 635.837457 278.84679 
L 637.667298 251.216871 
L 639.49714 210.561289 
L 641.326981 180.593224 
L 643.156823 200.245236 
L 644.986664 213.261311 
L 646.816506 219.723906 
L 648.646347 217.66027 
L 650.476189 228.442499 
L 652.30603 203.259856 
L 654.135872 203.123201 
L 655.965713 158.69716 
L 657.795555 239.174975 
L 659.625396 228.045714 
L 661.455238 219.664296 
L 663.285079 232.333957 
L 665.114921 266.245708 
L 666.944762 227.218358 
L 668.774604 257.401515 
L 670.604445 276.340096 
L 672.434287 307.36847 
L 674.264128 288.538866 
L 676.09397 275.865454 
L 677.923811 311.739479 
L 679.753653 273.399467 
L 681.583494 369.985911 
L 683.413336 369.091367 
L 685.243177 461.625613 
L 687.073019 520.067538 
L 688.90286 469.955617 
L 690.732702 545.751767 
L 692.562543 510.929855 
L 694.392385 535.237244 
L 696.222226 499.673024 
L 698.052068 543.264363 
L 699.881909 548.632669 
L 701.711751 499.31826 
L 703.541592 542.87504 
L 705.371434 550.286261 
L 707.201275 532.664484 
L 709.031117 545.650135 
L 710.860958 585.734923 
L 712.6908 573.090786 
L 714.520641 569.886143 
L 716.350483 563.926893 
L 718.180324 592.07045 
L 720.010166 611.112692 
L 721.840007 655.990759 
L 723.669849 631.620087 
L 725.49969 598.618634 
L 727.329532 625.839069 
L 729.159373 611.594988 
L 730.989215 615.733953 
L 732.819056 577.774634 
L 734.648898 629.654391 
L 736.478739 610.650276 
L 738.308581 611.424661 
L 740.138422 602.345293 
L 741.968264 594.404865 
L 743.798105 619.872455 
L 745.627947 566.161396 
L 747.457788 635.67474 
L 749.28763 657.823076 
L 751.117471 670.147348 
L 752.947313 719.295905 
L 754.777154 699.489194 
L 756.606996 688.996871 
L 758.436837 610.106562 
L 760.266679 581.111507 
L 762.09652 597.857972 
L 763.926362 546.127792 
L 765.756203 456.059959 
L 767.586045 279.622306 
L 769.415886 333.986905 
L 771.245728 310.844201 
L 773.075569 213.92066 
L 774.905411 199.059792 
L 776.735252 186.339141 
L 778.565094 163.439479 
L 780.394935 176.729213 
L 782.224777 196.300855 
L 785.88446 313.52416 
L 787.714301 292.658522 
L 789.544143 384.122485 
L 791.373984 262.952441 
L 793.203826 309.319224 
L 795.033667 292.531646 
L 796.863509 240.751946 
L 798.69335 275.438748 
L 800.523192 235.901579 
L 802.353033 222.748268 
L 804.182875 198.143793 
L 806.012716 186.936869 
L 807.842558 192.421535 
L 809.672399 192.52452 
L 811.502241 222.263266 
L 813.332082 200.306664 
L 815.161924 194.315579 
L 816.991765 249.217523 
L 818.821607 258.548766 
L 820.651448 244.233554 
L 822.48129 284.061392 
L 824.311131 245.082674 
L 826.140973 285.40947 
L 827.970814 290.986877 
L 829.800656 236.49749 
L 831.630497 218.832069 
L 833.460339 218.542753 
L 835.29018 218.722667 
L 837.120022 223.797598 
L 838.949863 216.798161 
L 840.779705 278.403423 
L 842.609546 324.052367 
L 846.269229 229.450194 
L 849.928912 361.80447 
L 851.758754 392.316258 
L 853.588595 419.884673 
L 855.418437 438.033009 
L 857.248278 385.098984 
L 859.07812 417.337813 
L 860.907961 464.824709 
L 862.737803 490.415811 
L 864.567644 511.861665 
L 866.397486 586.730751 
L 868.227327 559.822777 
L 870.057169 494.992171 
L 871.88701 522.64544 
L 873.716852 513.386101 
L 875.546693 526.416904 
L 877.376535 582.2578 
L 881.036218 618.004776 
L 882.866059 603.138331 
L 884.695901 619.682877 
L 886.525742 627.955898 
L 888.355584 625.441888 
L 890.185425 604.528034 
L 892.015267 527.728026 
L 893.845108 568.124154 
L 895.67495 586.764905 
L 897.504791 573.242595 
L 899.334633 554.80533 
L 901.164474 583.752121 
L 902.994316 506.083895 
L 904.824157 588.443411 
L 906.653999 585.474572 
L 908.48384 557.323969 
L 910.313682 630.885925 
L 912.143523 600.635493 
L 913.973365 597.811321 
L 915.803206 586.438671 
L 917.633048 553.871355 
L 919.462889 567.675124 
L 921.292731 557.069678 
L 923.122572 589.627822 
L 924.952414 584.917637 
L 926.782255 584.136535 
L 928.612097 625.678446 
L 930.441938 644.077246 
L 932.27178 628.061608 
L 934.101621 515.034048 
L 935.931463 509.116065 
L 937.761304 551.686836 
L 939.591146 537.611033 
L 941.420987 536.449981 
L 943.250829 353.411222 
L 945.08067 203.596528 
L 946.910512 142.204348 
L 948.740353 196.308355 
L 950.570195 196.980229 
L 952.400036 178.329688 
L 954.229878 175.671069 
L 956.059719 185.492107 
L 957.889561 186.80721 
L 959.719402 216.186593 
L 961.549244 199.765028 
L 963.379085 173.466834 
L 965.208927 191.619925 
L 967.038768 180.433683 
L 968.86861 220.763572 
L 970.698451 209.447478 
L 972.528293 212.221878 
L 974.358134 280.400257 
L 976.187976 272.854236 
L 978.017817 295.518433 
L 979.847659 234.774585 
L 981.6775 246.298388 
L 983.507342 293.516108 
L 985.337183 281.642722 
L 987.167025 262.2779 
L 988.996866 237.203693 
L 990.826708 208.368922 
L 992.656549 171.997873 
L 994.486391 191.748811 
L 996.316232 255.31368 
L 998.146074 233.66375 
L 999.975915 207.954626 
L 1001.805757 240.538013 
L 1003.635598 221.498458 
L 1005.46544 247.47065 
L 1007.295281 182.947181 
L 1009.125123 227.528935 
L 1010.954964 233.703027 
L 1012.784806 207.442138 
L 1014.614647 211.47578 
L 1016.444489 256.608719 
L 1018.27433 244.033112 
L 1020.104172 215.325063 
L 1021.934013 217.280766 
L 1023.763855 268.76856 
L 1025.593696 396.497342 
L 1027.423538 402.098136 
L 1029.253379 335.873217 
L 1031.083221 306.756824 
L 1032.913062 300.781551 
L 1034.742904 279.27048 
L 1036.572745 279.846638 
L 1038.402587 265.976262 
L 1040.232428 295.51074 
L 1042.06227 306.013317 
L 1043.892111 359.435785 
L 1045.721953 404.994772 
L 1047.551794 430.550154 
L 1049.381636 497.694822 
L 1051.211478 450.230464 
L 1054.871161 326.083453 
L 1056.701002 380.1788 
L 1058.530844 399.524525 
L 1060.360685 501.570817 
L 1062.190527 546.761666 
L 1064.020368 469.076536 
L 1065.85021 518.94959 
L 1067.680051 441.859329 
L 1069.509893 453.33709 
L 1071.339734 432.801165 
L 1073.169576 457.697778 
L 1074.999417 487.297858 
L 1076.829259 422.198773 
L 1078.6591 486.467835 
L 1080.488942 488.769062 
L 1082.318783 531.88804 
L 1084.148625 543.002263 
L 1085.978466 477.242321 
L 1087.808308 453.833612 
L 1089.638149 446.008481 
L 1091.467991 361.467102 
L 1093.297832 430.692957 
L 1095.127674 428.477782 
L 1096.957515 449.972113 
L 1098.787357 356.736922 
L 1100.617198 464.276192 
L 1102.44704 513.617971 
L 1104.276881 515.472351 
L 1106.106723 565.052108 
L 1107.936564 490.978631 
L 1109.766406 530.846597 
L 1111.596247 526.563534 
L 1113.426089 536.561548 
L 1115.25593 503.419825 
L 1117.085772 479.365799 
L 1118.915613 499.421245 
L 1120.745455 487.675932 
L 1120.745455 487.675932 
" clip-path="url(#p6fbe4b37f0)" style="fill: none; stroke: #da70d6; stroke-linecap: square"/>
   </g>
   <g id="line2d_17">
    <path d="M 207.654545 670.466919 
L 209.484387 677.837119 
L 211.314228 668.219315 
L 213.14407 649.337774 
L 214.973911 663.656644 
L 216.803753 668.077803 
L 218.633594 694.033236 
L 220.463436 660.443868 
L 222.293277 621.231985 
L 224.123119 629.92633 
L 225.95296 647.940426 
L 227.782802 586.372808 
L 229.612643 686.059649 
L 231.442485 673.894995 
L 233.272326 644.837212 
L 235.102168 642.965348 
L 236.932009 558.2022 
L 238.761851 432.370439 
L 240.591692 387.684888 
L 242.421534 207.927411 
L 244.251375 246.563504 
L 246.081217 253.707444 
L 247.911058 230.482205 
L 249.7409 227.122448 
L 251.570741 217.597065 
L 253.400583 216.250069 
L 255.230424 212.406662 
L 257.060266 224.708571 
L 258.890107 226.10273 
L 260.719949 225.057343 
L 262.54979 223.566424 
L 264.379632 217.897901 
L 266.209473 218.03301 
L 268.039315 217.414484 
L 269.869156 217.136572 
L 271.698998 223.313253 
L 273.528839 223.106086 
L 275.358681 222.270147 
L 277.188522 230.453599 
L 279.018364 249.05516 
L 280.848206 315.125718 
L 282.678047 290.204364 
L 284.507889 253.708179 
L 286.33773 232.10978 
L 288.167572 227.368003 
L 289.997413 232.5908 
L 291.827255 237.323687 
L 293.657096 234.301374 
L 295.486938 230.437517 
L 297.316779 229.338821 
L 299.146621 229.660145 
L 300.976462 222.05633 
L 302.806304 212.98599 
L 304.636145 209.75964 
L 306.465987 247.457893 
L 308.295828 344.370571 
L 310.12567 282.793143 
L 311.955511 261.941576 
L 313.785353 249.186365 
L 315.615194 222.91817 
L 319.274877 357.021019 
L 321.104719 296.19425 
L 326.594243 435.972524 
L 328.424085 542.419514 
L 330.253926 473.473137 
L 332.083768 494.673592 
L 333.913609 490.063521 
L 335.743451 466.915328 
L 337.573292 483.015665 
L 339.403134 500.673432 
L 341.232975 335.322883 
L 343.062817 292.546684 
L 344.892658 293.277473 
L 346.7225 338.402255 
L 348.552341 388.936089 
L 350.382183 412.445154 
L 352.212024 487.856871 
L 354.041866 527.024027 
L 355.871707 602.528377 
L 357.701549 608.889718 
L 359.53139 611.553856 
L 361.361232 550.748261 
L 363.191073 518.13677 
L 365.020915 519.436158 
L 366.850756 474.447394 
L 368.680598 561.227064 
L 370.510439 626.967841 
L 372.340281 539.057592 
L 374.170122 535.748727 
L 375.999964 415.880063 
L 377.829805 360.77992 
L 379.659647 379.522002 
L 381.489488 367.240659 
L 383.31933 460.950801 
L 385.149171 495.856639 
L 386.979013 527.429509 
L 388.808854 540.860905 
L 390.638696 466.943471 
L 392.468537 460.493942 
L 394.298379 398.170378 
L 396.12822 430.847743 
L 397.958062 336.119739 
L 399.787903 363.495521 
L 401.617745 458.359968 
L 403.447586 438.851396 
L 405.277428 456.32289 
L 407.107269 487.004599 
L 408.937111 474.351368 
L 410.766952 481.946214 
L 412.596794 613.596326 
L 414.426635 606.655291 
L 416.256477 415.531137 
L 418.086318 472.46378 
L 419.91616 556.201615 
L 421.746001 565.350006 
L 423.575843 484.302297 
L 425.405684 419.730273 
L 427.235526 375.970192 
L 429.065367 481.454311 
L 430.895209 480.458755 
L 432.72505 464.113114 
L 434.554892 499.375977 
L 436.384733 490.010869 
L 438.214575 418.354284 
L 440.044416 416.956492 
L 441.874258 462.785234 
L 443.704099 421.876134 
L 445.533941 465.528689 
L 447.363782 602.401289 
L 449.193624 532.403466 
L 451.023465 547.407098 
L 452.853307 526.99656 
L 454.683148 450.959165 
L 456.51299 550.74426 
L 458.342831 560.685911 
L 460.172673 537.747224 
L 462.002514 564.802339 
L 463.832356 525.816431 
L 465.662197 511.916637 
L 467.492039 502.62755 
L 469.32188 413.415738 
L 471.151722 456.972575 
L 472.981563 436.000724 
L 474.811405 508.769188 
L 476.641246 489.133799 
L 478.471088 525.6733 
L 480.300929 618.943138 
L 482.130771 633.563216 
L 483.960612 592.41205 
L 485.790454 589.77015 
L 487.620295 604.377326 
L 489.450137 641.123029 
L 491.279978 639.195546 
L 493.10982 614.205652 
L 494.939661 584.23347 
L 496.769503 541.492015 
L 498.599344 517.987821 
L 500.429186 424.15032 
L 502.259027 416.086303 
L 504.088869 459.565785 
L 505.91871 522.540175 
L 507.748552 505.949945 
L 509.578393 509.89046 
L 511.408235 528.041638 
L 513.238076 496.221608 
L 515.067918 475.513656 
L 516.897759 477.688878 
L 518.727601 489.407304 
L 520.557442 550.92601 
L 522.387284 568.116616 
L 524.217125 543.610042 
L 526.046967 591.822324 
L 527.876808 560.271499 
L 529.70665 560.504896 
L 531.536491 614.684353 
L 533.366333 542.284231 
L 535.196174 580.452679 
L 537.026016 588.793265 
L 538.855857 597.735078 
L 540.685699 546.610861 
L 542.51554 624.793383 
L 544.345382 631.643504 
L 546.175223 669.01632 
L 548.005065 669.273168 
L 549.834906 697.319655 
L 551.664748 690.32115 
L 553.494589 670.898824 
L 555.324431 671.321519 
L 557.154272 661.092335 
L 558.984114 659.165085 
L 560.813955 674.942454 
L 562.643797 636.267143 
L 564.473638 627.652782 
L 566.30348 675.184129 
L 568.133321 667.710615 
L 569.963163 652.924067 
L 571.793004 674.767948 
L 573.622846 656.701301 
L 575.452687 650.984291 
L 577.282529 656.095 
L 579.11237 651.41235 
L 580.942212 667.644965 
L 582.772053 678.694107 
L 584.601895 665.695582 
L 586.431736 592.812624 
L 588.261578 552.999504 
L 590.091419 329.429178 
L 591.921261 233.777327 
L 593.751102 238.025869 
L 595.580944 265.512213 
L 597.410785 231.208162 
L 599.240627 214.584146 
L 601.070468 210.492285 
L 602.90031 215.227104 
L 604.730151 215.548583 
L 606.559993 220.905717 
L 608.389834 241.143125 
L 610.219676 277.179166 
L 612.049517 261.429861 
L 613.879359 287.708881 
L 615.7092 270.17652 
L 617.539042 241.283686 
L 619.368883 251.864352 
L 621.198725 350.469588 
L 623.028566 341.264757 
L 624.858408 280.108893 
L 626.688249 264.158684 
L 628.518091 232.462804 
L 630.347932 229.540422 
L 632.177774 263.261859 
L 634.007615 261.752268 
L 635.837457 244.578614 
L 637.667298 230.294405 
L 639.49714 221.919597 
L 641.326981 223.945465 
L 643.156823 224.8869 
L 644.986664 224.323809 
L 646.816506 223.924512 
L 648.646347 222.730331 
L 650.476189 223.457331 
L 652.30603 218.381743 
L 654.135872 217.9221 
L 655.965713 218.694447 
L 657.795555 255.018024 
L 659.625396 243.548806 
L 663.285079 240.309429 
L 665.114921 257.789679 
L 666.944762 262.279098 
L 668.774604 285.896521 
L 670.604445 304.909016 
L 672.434287 338.639808 
L 674.264128 291.79819 
L 676.09397 301.498732 
L 677.923811 332.691286 
L 679.753653 293.491367 
L 681.583494 410.621313 
L 683.413336 429.848398 
L 685.243177 492.898556 
L 687.073019 520.04616 
L 688.90286 508.46468 
L 690.732702 536.989356 
L 692.562543 511.043239 
L 694.392385 556.226201 
L 696.222226 536.516473 
L 698.052068 545.74334 
L 699.881909 576.257486 
L 701.711751 543.312434 
L 703.541592 546.393991 
L 705.371434 541.970947 
L 707.201275 498.446525 
L 709.031117 547.458146 
L 710.860958 563.487237 
L 712.6908 544.859581 
L 714.520641 555.565383 
L 716.350483 532.267796 
L 718.180324 559.646594 
L 720.010166 584.525685 
L 721.840007 622.853868 
L 723.669849 651.09319 
L 725.49969 605.895731 
L 727.329532 634.69771 
L 729.159373 604.623635 
L 730.989215 600.416728 
L 732.819056 566.690778 
L 734.648898 659.679544 
L 736.478739 640.416691 
L 738.308581 635.307538 
L 740.138422 612.846518 
L 741.968264 621.547753 
L 743.798105 613.001178 
L 745.627947 558.374382 
L 747.457788 593.854338 
L 749.28763 620.302698 
L 751.117471 588.688135 
L 752.947313 637.166915 
L 754.777154 636.864881 
L 756.606996 604.459523 
L 758.436837 596.686966 
L 760.266679 634.945207 
L 762.09652 601.869376 
L 763.926362 556.782798 
L 765.756203 458.580434 
L 767.586045 235.56742 
L 769.415886 268.720509 
L 771.245728 382.095884 
L 773.075569 271.245411 
L 774.905411 228.121522 
L 776.735252 211.900669 
L 778.565094 204.765001 
L 780.394935 208.765784 
L 782.224777 208.446509 
L 784.054618 246.60421 
L 785.88446 292.126666 
L 787.714301 293.671861 
L 789.544143 332.542878 
L 791.373984 262.079237 
L 793.203826 293.875588 
L 795.033667 285.077824 
L 796.863509 254.8407 
L 798.69335 267.691706 
L 800.523192 228.690721 
L 802.353033 217.528254 
L 804.182875 212.350299 
L 806.012716 212.198954 
L 807.842558 213.250294 
L 809.672399 213.747241 
L 811.502241 214.779793 
L 813.332082 216.271292 
L 815.161924 218.263295 
L 816.991765 240.304906 
L 818.821607 264.592812 
L 820.651448 248.744118 
L 822.48129 274.514477 
L 824.311131 247.01812 
L 827.970814 290.627011 
L 829.800656 251.176202 
L 831.630497 242.823043 
L 833.460339 226.453473 
L 835.29018 219.474988 
L 837.120022 229.137065 
L 838.949863 231.722505 
L 840.779705 277.212025 
L 842.609546 352.581778 
L 844.439388 298.216406 
L 846.269229 278.403113 
L 848.099071 341.902999 
L 849.928912 361.315061 
L 851.758754 382.289328 
L 853.588595 399.118772 
L 855.418437 401.487921 
L 857.248278 398.925096 
L 859.07812 415.670112 
L 860.907961 483.862215 
L 862.737803 514.587917 
L 864.567644 517.602981 
L 866.397486 558.64319 
L 868.227327 524.969997 
L 870.057169 503.901734 
L 871.88701 522.005768 
L 873.716852 527.442614 
L 875.546693 526.001641 
L 877.376535 547.570002 
L 879.206376 574.367308 
L 881.036218 581.967663 
L 882.866059 577.75086 
L 884.695901 568.796783 
L 886.525742 564.197111 
L 888.355584 533.272148 
L 890.185425 532.170668 
L 892.015267 526.171794 
L 893.845108 530.298505 
L 895.67495 563.82615 
L 897.504791 539.858177 
L 899.334633 530.410613 
L 901.164474 606.775044 
L 902.994316 556.513352 
L 904.824157 601.603487 
L 906.653999 637.817247 
L 908.48384 594.227271 
L 910.313682 615.381171 
L 912.143523 564.171327 
L 913.973365 586.934401 
L 915.803206 579.311962 
L 917.633048 558.674928 
L 919.462889 580.448659 
L 921.292731 540.812911 
L 923.122572 565.207745 
L 924.952414 549.180838 
L 926.782255 548.669066 
L 928.612097 628.318741 
L 930.441938 603.005802 
L 932.27178 639.910215 
L 934.101621 560.266261 
L 935.931463 662.498942 
L 937.761304 619.717243 
L 939.591146 572.22943 
L 941.420987 440.654787 
L 943.250829 347.49869 
L 945.08067 214.747591 
L 946.910512 239.110609 
L 948.740353 228.48251 
L 950.570195 225.690366 
L 954.229878 215.733948 
L 956.059719 212.298768 
L 957.889561 209.959811 
L 959.719402 220.194837 
L 963.379085 225.454978 
L 965.208927 224.611347 
L 967.038768 220.841699 
L 968.86861 241.859688 
L 970.698451 246.990287 
L 972.528293 245.337198 
L 974.358134 286.814994 
L 976.187976 270.980759 
L 978.017817 265.321011 
L 979.847659 237.163527 
L 981.6775 231.152881 
L 983.507342 257.732543 
L 985.337183 254.382604 
L 988.996866 231.886183 
L 990.826708 222.80985 
L 992.656549 225.26625 
L 994.486391 228.370015 
L 996.316232 271.759947 
L 999.975915 250.878305 
L 1001.805757 253.936763 
L 1003.635598 223.739186 
L 1005.46544 253.516513 
L 1007.295281 250.102015 
L 1009.125123 262.901799 
L 1010.954964 244.157243 
L 1012.784806 237.31897 
L 1014.614647 238.099473 
L 1016.444489 266.310807 
L 1018.27433 288.401205 
L 1020.104172 277.077418 
L 1021.934013 269.973025 
L 1025.593696 384.603583 
L 1027.423538 405.208551 
L 1029.253379 379.062746 
L 1031.083221 335.433213 
L 1032.913062 343.771489 
L 1034.742904 327.406674 
L 1036.572745 338.268886 
L 1038.402587 309.161693 
L 1040.232428 338.442498 
L 1042.06227 327.400141 
L 1043.892111 391.18192 
L 1045.721953 411.16349 
L 1047.551794 433.919151 
L 1049.381636 492.02885 
L 1051.211478 486.088427 
L 1053.041319 501.052782 
L 1054.871161 398.596929 
L 1056.701002 407.158687 
L 1058.530844 410.684287 
L 1060.360685 492.463887 
L 1062.190527 512.610507 
L 1064.020368 488.206145 
L 1065.85021 504.827629 
L 1067.680051 453.354563 
L 1069.509893 425.65533 
L 1071.339734 403.524419 
L 1073.169576 409.219655 
L 1074.999417 464.782456 
L 1076.829259 434.340194 
L 1078.6591 437.703953 
L 1080.488942 440.504176 
L 1082.318783 496.748709 
L 1084.148625 491.311785 
L 1085.978466 459.667533 
L 1087.808308 449.092202 
L 1089.638149 427.769589 
L 1091.467991 398.466266 
L 1095.127674 411.007699 
L 1096.957515 415.090591 
L 1098.787357 334.539326 
L 1100.617198 451.707486 
L 1102.44704 515.911428 
L 1104.276881 481.648045 
L 1106.106723 526.439133 
L 1107.936564 482.336427 
L 1109.766406 472.383371 
L 1111.596247 492.532331 
L 1113.426089 469.596137 
L 1115.25593 454.853001 
L 1117.085772 472.232103 
L 1118.915613 537.62953 
L 1120.745455 485.540161 
L 1120.745455 485.540161 
" clip-path="url(#p6fbe4b37f0)" style="fill: none; stroke: #8fbc8f; stroke-linecap: square"/>
   </g>
   <g id="patch_3">
    <path d="M 162 768.96 
L 162 103.68 
" style="fill: none; stroke: #000000; stroke-width: 0.8; stroke-linejoin: miter; stroke-linecap: square"/>
   </g>
   <g id="patch_4">
    <path d="M 1166.4 768.96 
L 1166.4 103.68 
" style="fill: none; stroke: #000000; stroke-width: 0.8; stroke-linejoin: miter; stroke-linecap: square"/>
   </g>
   <g id="patch_5">
    <path d="M 162 768.96 
L 1166.4 768.96 
" style="fill: none; stroke: #000000; stroke-width: 0.8; stroke-linejoin: miter; stroke-linecap: square"/>
   </g>
   <g id="patch_6">
    <path d="M 162 103.68 
L 1166.4 103.68 
" style="fill: none; stroke: #000000; stroke-width: 0.8; stroke-linejoin: miter; stroke-linecap: square"/>
   </g>
   <g id="text_14">
    <!-- Function 1 -->
    <g transform="translate(632.957813 97.68) scale(0.12 -0.12)">
     <defs>
      <path id="DejaVuSans-46" d="M 628 4666 
L 3309 4666 
L 3309 4134 
L 1259 4134 
L 1259 2759 
L 3109 2759 
L 3109 2228 
L 1259 2228 
L 1259 0 
L 628 0 
L 628 4666 
z
" transform="scale(0.015625)"/>
      <path id="DejaVuSans-75" d="M 544 1381 
L 544 3500 
L 1119 3500 
L 1119 1403 
Q 1119 906 1312 657 
Q 1506 409 1894 409 
Q 2359 409 2629 706 
Q 2900 1003 2900 1516 
L 2900 3500 
L 3475 3500 
L 3475 0 
L 2900 0 
L 2900 538 
Q 2691 219 2414 64 
Q 2138 -91 1772 -91 
Q 1169 -91 856 284 
Q 544 659 544 1381 
z
M 1991 3584 
L 1991 3584 
z
" transform="scale(0.015625)"/>
      <path id="DejaVuSans-6e" d="M 3513 2113 
L 3513 0 
L 2938 0 
L 2938 2094 
Q 2938 2591 2744 2837 
Q 2550 3084 2163 3084 
Q 1697 3084 1428 2787 
Q 1159 2491 1159 1978 
L 1159 0 
L 581 0 
L 581 3500 
L 1159 3500 
L 1159 2956 
Q 1366 3272 1645 3428 
Q 1925 3584 2291 3584 
Q 2894 3584 3203 3211 
Q 3513 2838 3513 2113 
z
" transform="scale(0.015625)"/>
      <path id="DejaVuSans-63" d="M 3122 3366 
L 3122 2828 
Q 2878 2963 2633 3030 
Q 2388 3097 2138 3097 
Q 1578 3097 1268 2742 
Q 959 2388 959 1747 
Q 959 1106 1268 751 
Q 1578 397 2138 397 
Q 2388 397 2633 464 
Q 2878 531 3122 666 
L 3122 134 
Q 2881 22 2623 -34 
Q 2366 -91 2075 -91 
Q 1284 -91 818 406 
Q 353 903 353 1747 
Q 353 2603 823 3093 
Q 1294 3584 2113 3584 
Q 2378 3584 2631 3529 
Q 2884 3475 3122 3366 
z
" transform="scale(0.015625)"/>
      <path id="DejaVuSans-74" d="M 1172 4494 
L 1172 3500 
L 2356 3500 
L 2356 3053 
L 1172 3053 
L 1172 1153 
Q 1172 725 1289 603 
Q 1406 481 1766 481 
L 2356 481 
L 2356 0 
L 1766 0 
Q 1100 0 847 248 
Q 594 497 594 1153 
L 594 3053 
L 172 3053 
L 172 3500 
L 594 3500 
L 594 4494 
L 1172 4494 
z
" transform="scale(0.015625)"/>
      <path id="DejaVuSans-69" d="M 603 3500 
L 1178 3500 
L 1178 0 
L 603 0 
L 603 3500 
z
M 603 4863 
L 1178 4863 
L 1178 4134 
L 603 4134 
L 603 4863 
z
" transform="scale(0.015625)"/>
      <path id="DejaVuSans-6f" d="M 1959 3097 
Q 1497 3097 1228 2736 
Q 959 2375 959 1747 
Q 959 1119 1226 758 
Q 1494 397 1959 397 
Q 2419 397 2687 759 
Q 2956 1122 2956 1747 
Q 2956 2369 2687 2733 
Q 2419 3097 1959 3097 
z
M 1959 3584 
Q 2709 3584 3137 3096 
Q 3566 2609 3566 1747 
Q 3566 888 3137 398 
Q 2709 -91 1959 -91 
Q 1206 -91 779 398 
Q 353 888 353 1747 
Q 353 2609 779 3096 
Q 1206 3584 1959 3584 
z
" transform="scale(0.015625)"/>
      <path id="DejaVuSans-20" transform="scale(0.015625)"/>
     </defs>
     <use xlink:href="#DejaVuSans-46"/>
     <use xlink:href="#DejaVuSans-75" x="52.019531"/>
     <use xlink:href="#DejaVuSans-6e" x="115.398438"/>
     <use xlink:href="#DejaVuSans-63" x="178.777344"/>
     <use xlink:href="#DejaVuSans-74" x="233.757812"/>
     <use xlink:href="#DejaVuSans-69" x="272.966797"/>
     <use xlink:href="#DejaVuSans-6f" x="300.75"/>
     <use xlink:href="#DejaVuSans-6e" x="361.931641"/>
     <use xlink:href="#DejaVuSans-20" x="425.310547"/>
     <use xlink:href="#DejaVuSans-31" x="457.097656"/>
    </g>
   </g>
   <g id="legend_1">
    <g id="patch_7">
     <path d="M 1011.90625 763.96 
L 1159.4 763.96 
Q 1161.4 763.96 1161.4 761.96 
L 1161.4 704.2475 
Q 1161.4 702.2475 1159.4 702.2475 
L 1011.90625 702.2475 
Q 1009.90625 702.2475 1009.90625 704.2475 
L 1009.90625 761.96 
Q 1009.90625 763.96 1011.90625 763.96 
z
" style="fill: #ffffff; opacity: 0.8; stroke: #cccccc; stroke-linejoin: miter"/>
    </g>
    <g id="line2d_18">
     <path d="M 1013.90625 710.345937 
L 1023.90625 710.345937 
L 1033.90625 710.345937 
" style="fill: none; stroke: #4169e1; stroke-linecap: square"/>
    </g>
    <g id="text_15">
     <!-- Truth -->
     <g transform="translate(1041.90625 713.845937) scale(0.1 -0.1)">
      <defs>
       <path id="DejaVuSans-54" d="M -19 4666 
L 3928 4666 
L 3928 4134 
L 2272 4134 
L 2272 0 
L 1638 0 
L 1638 4134 
L -19 4134 
L -19 4666 
z
" transform="scale(0.015625)"/>
       <path id="DejaVuSans-72" d="M 2631 2963 
Q 2534 3019 2420 3045 
Q 2306 3072 2169 3072 
Q 1681 3072 1420 2755 
Q 1159 2438 1159 1844 
L 1159 0 
L 581 0 
L 581 3500 
L 1159 3500 
L 1159 2956 
Q 1341 3275 1631 3429 
Q 1922 3584 2338 3584 
Q 2397 3584 2469 3576 
Q 2541 3569 2628 3553 
L 2631 2963 
z
" transform="scale(0.015625)"/>
       <path id="DejaVuSans-68" d="M 3513 2113 
L 3513 0 
L 2938 0 
L 2938 2094 
Q 2938 2591 2744 2837 
Q 2550 3084 2163 3084 
Q 1697 3084 1428 2787 
Q 1159 2491 1159 1978 
L 1159 0 
L 581 0 
L 581 4863 
L 1159 4863 
L 1159 2956 
Q 1366 3272 1645 3428 
Q 1925 3584 2291 3584 
Q 2894 3584 3203 3211 
Q 3513 2838 3513 2113 
z
" transform="scale(0.015625)"/>
      </defs>
      <use xlink:href="#DejaVuSans-54"/>
      <use xlink:href="#DejaVuSans-72" x="46.333984"/>
      <use xlink:href="#DejaVuSans-75" x="87.447266"/>
      <use xlink:href="#DejaVuSans-74" x="150.826172"/>
      <use xlink:href="#DejaVuSans-68" x="190.035156"/>
     </g>
    </g>
    <g id="line2d_19">
     <path d="M 1013.90625 725.024063 
L 1023.90625 725.024063 
L 1033.90625 725.024063 
" style="fill: none; stroke: #ff6347; stroke-linecap: square"/>
    </g>
    <g id="text_16">
     <!-- Gossip predictions -->
     <g transform="translate(1041.90625 728.524063) scale(0.1 -0.1)">
      <defs>
       <path id="DejaVuSans-47" d="M 3809 666 
L 3809 1919 
L 2778 1919 
L 2778 2438 
L 4434 2438 
L 4434 434 
Q 4069 175 3628 42 
Q 3188 -91 2688 -91 
Q 1594 -91 976 548 
Q 359 1188 359 2328 
Q 359 3472 976 4111 
Q 1594 4750 2688 4750 
Q 3144 4750 3555 4637 
Q 3966 4525 4313 4306 
L 4313 3634 
Q 3963 3931 3569 4081 
Q 3175 4231 2741 4231 
Q 1884 4231 1454 3753 
Q 1025 3275 1025 2328 
Q 1025 1384 1454 906 
Q 1884 428 2741 428 
Q 3075 428 3337 486 
Q 3600 544 3809 666 
z
" transform="scale(0.015625)"/>
       <path id="DejaVuSans-73" d="M 2834 3397 
L 2834 2853 
Q 2591 2978 2328 3040 
Q 2066 3103 1784 3103 
Q 1356 3103 1142 2972 
Q 928 2841 928 2578 
Q 928 2378 1081 2264 
Q 1234 2150 1697 2047 
L 1894 2003 
Q 2506 1872 2764 1633 
Q 3022 1394 3022 966 
Q 3022 478 2636 193 
Q 2250 -91 1575 -91 
Q 1294 -91 989 -36 
Q 684 19 347 128 
L 347 722 
Q 666 556 975 473 
Q 1284 391 1588 391 
Q 1994 391 2212 530 
Q 2431 669 2431 922 
Q 2431 1156 2273 1281 
Q 2116 1406 1581 1522 
L 1381 1569 
Q 847 1681 609 1914 
Q 372 2147 372 2553 
Q 372 3047 722 3315 
Q 1072 3584 1716 3584 
Q 2034 3584 2315 3537 
Q 2597 3491 2834 3397 
z
" transform="scale(0.015625)"/>
       <path id="DejaVuSans-70" d="M 1159 525 
L 1159 -1331 
L 581 -1331 
L 581 3500 
L 1159 3500 
L 1159 2969 
Q 1341 3281 1617 3432 
Q 1894 3584 2278 3584 
Q 2916 3584 3314 3078 
Q 3713 2572 3713 1747 
Q 3713 922 3314 415 
Q 2916 -91 2278 -91 
Q 1894 -91 1617 61 
Q 1341 213 1159 525 
z
M 3116 1747 
Q 3116 2381 2855 2742 
Q 2594 3103 2138 3103 
Q 1681 3103 1420 2742 
Q 1159 2381 1159 1747 
Q 1159 1113 1420 752 
Q 1681 391 2138 391 
Q 2594 391 2855 752 
Q 3116 1113 3116 1747 
z
" transform="scale(0.015625)"/>
       <path id="DejaVuSans-65" d="M 3597 1894 
L 3597 1613 
L 953 1613 
Q 991 1019 1311 708 
Q 1631 397 2203 397 
Q 2534 397 2845 478 
Q 3156 559 3463 722 
L 3463 178 
Q 3153 47 2828 -22 
Q 2503 -91 2169 -91 
Q 1331 -91 842 396 
Q 353 884 353 1716 
Q 353 2575 817 3079 
Q 1281 3584 2069 3584 
Q 2775 3584 3186 3129 
Q 3597 2675 3597 1894 
z
M 3022 2063 
Q 3016 2534 2758 2815 
Q 2500 3097 2075 3097 
Q 1594 3097 1305 2825 
Q 1016 2553 972 2059 
L 3022 2063 
z
" transform="scale(0.015625)"/>
       <path id="DejaVuSans-64" d="M 2906 2969 
L 2906 4863 
L 3481 4863 
L 3481 0 
L 2906 0 
L 2906 525 
Q 2725 213 2448 61 
Q 2172 -91 1784 -91 
Q 1150 -91 751 415 
Q 353 922 353 1747 
Q 353 2572 751 3078 
Q 1150 3584 1784 3584 
Q 2172 3584 2448 3432 
Q 2725 3281 2906 2969 
z
M 947 1747 
Q 947 1113 1208 752 
Q 1469 391 1925 391 
Q 2381 391 2643 752 
Q 2906 1113 2906 1747 
Q 2906 2381 2643 2742 
Q 2381 3103 1925 3103 
Q 1469 3103 1208 2742 
Q 947 2381 947 1747 
z
" transform="scale(0.015625)"/>
      </defs>
      <use xlink:href="#DejaVuSans-47"/>
      <use xlink:href="#DejaVuSans-6f" x="77.490234"/>
      <use xlink:href="#DejaVuSans-73" x="138.671875"/>
      <use xlink:href="#DejaVuSans-73" x="190.771484"/>
      <use xlink:href="#DejaVuSans-69" x="242.871094"/>
      <use xlink:href="#DejaVuSans-70" x="270.654297"/>
      <use xlink:href="#DejaVuSans-20" x="334.130859"/>
      <use xlink:href="#DejaVuSans-70" x="365.917969"/>
      <use xlink:href="#DejaVuSans-72" x="429.394531"/>
      <use xlink:href="#DejaVuSans-65" x="468.257812"/>
      <use xlink:href="#DejaVuSans-64" x="529.78125"/>
      <use xlink:href="#DejaVuSans-69" x="593.257812"/>
      <use xlink:href="#DejaVuSans-63" x="621.041016"/>
      <use xlink:href="#DejaVuSans-74" x="676.021484"/>
      <use xlink:href="#DejaVuSans-69" x="715.230469"/>
      <use xlink:href="#DejaVuSans-6f" x="743.013672"/>
      <use xlink:href="#DejaVuSans-6e" x="804.195312"/>
      <use xlink:href="#DejaVuSans-73" x="867.574219"/>
     </g>
    </g>
    <g id="line2d_20">
     <path d="M 1013.90625 739.702188 
L 1023.90625 739.702188 
L 1033.90625 739.702188 
" style="fill: none; stroke: #da70d6; stroke-linecap: square"/>
    </g>
    <g id="text_17">
     <!-- Centralized predictions -->
     <g transform="translate(1041.90625 743.202188) scale(0.1 -0.1)">
      <defs>
       <path id="DejaVuSans-43" d="M 4122 4306 
L 4122 3641 
Q 3803 3938 3442 4084 
Q 3081 4231 2675 4231 
Q 1875 4231 1450 3742 
Q 1025 3253 1025 2328 
Q 1025 1406 1450 917 
Q 1875 428 2675 428 
Q 3081 428 3442 575 
Q 3803 722 4122 1019 
L 4122 359 
Q 3791 134 3420 21 
Q 3050 -91 2638 -91 
Q 1578 -91 968 557 
Q 359 1206 359 2328 
Q 359 3453 968 4101 
Q 1578 4750 2638 4750 
Q 3056 4750 3426 4639 
Q 3797 4528 4122 4306 
z
" transform="scale(0.015625)"/>
       <path id="DejaVuSans-61" d="M 2194 1759 
Q 1497 1759 1228 1600 
Q 959 1441 959 1056 
Q 959 750 1161 570 
Q 1363 391 1709 391 
Q 2188 391 2477 730 
Q 2766 1069 2766 1631 
L 2766 1759 
L 2194 1759 
z
M 3341 1997 
L 3341 0 
L 2766 0 
L 2766 531 
Q 2569 213 2275 61 
Q 1981 -91 1556 -91 
Q 1019 -91 701 211 
Q 384 513 384 1019 
Q 384 1609 779 1909 
Q 1175 2209 1959 2209 
L 2766 2209 
L 2766 2266 
Q 2766 2663 2505 2880 
Q 2244 3097 1772 3097 
Q 1472 3097 1187 3025 
Q 903 2953 641 2809 
L 641 3341 
Q 956 3463 1253 3523 
Q 1550 3584 1831 3584 
Q 2591 3584 2966 3190 
Q 3341 2797 3341 1997 
z
" transform="scale(0.015625)"/>
       <path id="DejaVuSans-6c" d="M 603 4863 
L 1178 4863 
L 1178 0 
L 603 0 
L 603 4863 
z
" transform="scale(0.015625)"/>
       <path id="DejaVuSans-7a" d="M 353 3500 
L 3084 3500 
L 3084 2975 
L 922 459 
L 3084 459 
L 3084 0 
L 275 0 
L 275 525 
L 2438 3041 
L 353 3041 
L 353 3500 
z
" transform="scale(0.015625)"/>
      </defs>
      <use xlink:href="#DejaVuSans-43"/>
      <use xlink:href="#DejaVuSans-65" x="69.824219"/>
      <use xlink:href="#DejaVuSans-6e" x="131.347656"/>
      <use xlink:href="#DejaVuSans-74" x="194.726562"/>
      <use xlink:href="#DejaVuSans-72" x="233.935547"/>
      <use xlink:href="#DejaVuSans-61" x="275.048828"/>
      <use xlink:href="#DejaVuSans-6c" x="336.328125"/>
      <use xlink:href="#DejaVuSans-69" x="364.111328"/>
      <use xlink:href="#DejaVuSans-7a" x="391.894531"/>
      <use xlink:href="#DejaVuSans-65" x="444.384766"/>
      <use xlink:href="#DejaVuSans-64" x="505.908203"/>
      <use xlink:href="#DejaVuSans-20" x="569.384766"/>
      <use xlink:href="#DejaVuSans-70" x="601.171875"/>
      <use xlink:href="#DejaVuSans-72" x="664.648438"/>
      <use xlink:href="#DejaVuSans-65" x="703.511719"/>
      <use xlink:href="#DejaVuSans-64" x="765.035156"/>
      <use xlink:href="#DejaVuSans-69" x="828.511719"/>
      <use xlink:href="#DejaVuSans-63" x="856.294922"/>
      <use xlink:href="#DejaVuSans-74" x="911.275391"/>
      <use xlink:href="#DejaVuSans-69" x="950.484375"/>
      <use xlink:href="#DejaVuSans-6f" x="978.267578"/>
      <use xlink:href="#DejaVuSans-6e" x="1039.449219"/>
      <use xlink:href="#DejaVuSans-73" x="1102.828125"/>
     </g>
    </g>
    <g id="line2d_21">
     <path d="M 1013.90625 754.380312 
L 1023.90625 754.380312 
L 1033.90625 754.380312 
" style="fill: none; stroke: #8fbc8f; stroke-linecap: square"/>
    </g>
    <g id="text_18">
     <!-- Single predictions -->
     <g transform="translate(1041.90625 757.880312) scale(0.1 -0.1)">
      <defs>
       <path id="DejaVuSans-53" d="M 3425 4513 
L 3425 3897 
Q 3066 4069 2747 4153 
Q 2428 4238 2131 4238 
Q 1616 4238 1336 4038 
Q 1056 3838 1056 3469 
Q 1056 3159 1242 3001 
Q 1428 2844 1947 2747 
L 2328 2669 
Q 3034 2534 3370 2195 
Q 3706 1856 3706 1288 
Q 3706 609 3251 259 
Q 2797 -91 1919 -91 
Q 1588 -91 1214 -16 
Q 841 59 441 206 
L 441 856 
Q 825 641 1194 531 
Q 1563 422 1919 422 
Q 2459 422 2753 634 
Q 3047 847 3047 1241 
Q 3047 1584 2836 1778 
Q 2625 1972 2144 2069 
L 1759 2144 
Q 1053 2284 737 2584 
Q 422 2884 422 3419 
Q 422 4038 858 4394 
Q 1294 4750 2059 4750 
Q 2388 4750 2728 4690 
Q 3069 4631 3425 4513 
z
" transform="scale(0.015625)"/>
       <path id="DejaVuSans-67" d="M 2906 1791 
Q 2906 2416 2648 2759 
Q 2391 3103 1925 3103 
Q 1463 3103 1205 2759 
Q 947 2416 947 1791 
Q 947 1169 1205 825 
Q 1463 481 1925 481 
Q 2391 481 2648 825 
Q 2906 1169 2906 1791 
z
M 3481 434 
Q 3481 -459 3084 -895 
Q 2688 -1331 1869 -1331 
Q 1566 -1331 1297 -1286 
Q 1028 -1241 775 -1147 
L 775 -588 
Q 1028 -725 1275 -790 
Q 1522 -856 1778 -856 
Q 2344 -856 2625 -561 
Q 2906 -266 2906 331 
L 2906 616 
Q 2728 306 2450 153 
Q 2172 0 1784 0 
Q 1141 0 747 490 
Q 353 981 353 1791 
Q 353 2603 747 3093 
Q 1141 3584 1784 3584 
Q 2172 3584 2450 3431 
Q 2728 3278 2906 2969 
L 2906 3500 
L 3481 3500 
L 3481 434 
z
" transform="scale(0.015625)"/>
      </defs>
      <use xlink:href="#DejaVuSans-53"/>
      <use xlink:href="#DejaVuSans-69" x="63.476562"/>
      <use xlink:href="#DejaVuSans-6e" x="91.259766"/>
      <use xlink:href="#DejaVuSans-67" x="154.638672"/>
      <use xlink:href="#DejaVuSans-6c" x="218.115234"/>
      <use xlink:href="#DejaVuSans-65" x="245.898438"/>
      <use xlink:href="#DejaVuSans-20" x="307.421875"/>
      <use xlink:href="#DejaVuSans-70" x="339.208984"/>
      <use xlink:href="#DejaVuSans-72" x="402.685547"/>
      <use xlink:href="#DejaVuSans-65" x="441.548828"/>
      <use xlink:href="#DejaVuSans-64" x="503.072266"/>
      <use xlink:href="#DejaVuSans-69" x="566.548828"/>
      <use xlink:href="#DejaVuSans-63" x="594.332031"/>
      <use xlink:href="#DejaVuSans-74" x="649.3125"/>
      <use xlink:href="#DejaVuSans-69" x="688.521484"/>
      <use xlink:href="#DejaVuSans-6f" x="716.304688"/>
      <use xlink:href="#DejaVuSans-6e" x="777.486328"/>
      <use xlink:href="#DejaVuSans-73" x="840.865234"/>
     </g>
    </g>
   </g>
  </g>
 </g>
 <defs>
  <clipPath id="p6fbe4b37f0">
   <rect x="162" y="103.68" width="1004.4" height="665.28"/>
  </clipPath>
 </defs>
</svg>
