<?xml version="1.0" encoding="utf-8" standalone="no"?>
<!DOCTYPE svg PUBLIC "-//W3C//DTD SVG 1.1//EN"
  "http://www.w3.org/Graphics/SVG/1.1/DTD/svg11.dtd">
<svg xmlns:xlink="http://www.w3.org/1999/xlink" width="1296pt" height="864pt" viewBox="0 0 1296 864" xmlns="http://www.w3.org/2000/svg" version="1.1">
 <metadata>
  <rdf:RDF xmlns:dc="http://purl.org/dc/elements/1.1/" xmlns:cc="http://creativecommons.org/ns#" xmlns:rdf="http://www.w3.org/1999/02/22-rdf-syntax-ns#">
   <cc:Work>
    <dc:type rdf:resource="http://purl.org/dc/dcmitype/StillImage"/>
    <dc:date>2023-12-18T18:20:42.422732</dc:date>
    <dc:format>image/svg+xml</dc:format>
    <dc:creator>
     <cc:Agent>
      <dc:title>Matplotlib v3.8.0, https://matplotlib.org/</dc:title>
     </cc:Agent>
    </dc:creator>
   </cc:Work>
  </rdf:RDF>
 </metadata>
 <defs>
  <style type="text/css">*{stroke-linejoin: round; stroke-linecap: butt}</style>
 </defs>
 <g id="figure_1">
  <g id="patch_1">
   <path d="M 0 864 
L 1296 864 
L 1296 0 
L 0 0 
z
" style="fill: #ffffff"/>
  </g>
  <g id="axes_1">
   <g id="patch_2">
    <path d="M 162 406.08 
L 618.545455 406.08 
L 618.545455 103.68 
L 162 103.68 
z
" style="fill: #ffffff"/>
   </g>
   <g id="matplotlib.axis_1">
    <g id="xtick_1">
     <g id="line2d_1">
      <defs>
       <path id="m219291b83d" d="M 0 0 
L 0 3.5 
" style="stroke: #000000; stroke-width: 0.8"/>
      </defs>
      <g>
       <use xlink:href="#m219291b83d" x="182.752066" y="406.08" style="stroke: #000000; stroke-width: 0.8"/>
      </g>
     </g>
     <g id="text_1">
      <!-- 0 -->
      <g transform="translate(179.570816 420.678437) scale(0.1 -0.1)">
       <defs>
        <path id="DejaVuSans-30" d="M 2034 4250 
Q 1547 4250 1301 3770 
Q 1056 3291 1056 2328 
Q 1056 1369 1301 889 
Q 1547 409 2034 409 
Q 2525 409 2770 889 
Q 3016 1369 3016 2328 
Q 3016 3291 2770 3770 
Q 2525 4250 2034 4250 
z
M 2034 4750 
Q 2819 4750 3233 4129 
Q 3647 3509 3647 2328 
Q 3647 1150 3233 529 
Q 2819 -91 2034 -91 
Q 1250 -91 836 529 
Q 422 1150 422 2328 
Q 422 3509 836 4129 
Q 1250 4750 2034 4750 
z
" transform="scale(0.015625)"/>
       </defs>
       <use xlink:href="#DejaVuSans-30"/>
      </g>
     </g>
    </g>
    <g id="xtick_2">
     <g id="line2d_2">
      <g>
       <use xlink:href="#m219291b83d" x="266.598798" y="406.08" style="stroke: #000000; stroke-width: 0.8"/>
      </g>
     </g>
     <g id="text_2">
      <!-- 20 -->
      <g transform="translate(260.236298 420.678437) scale(0.1 -0.1)">
       <defs>
        <path id="DejaVuSans-32" d="M 1228 531 
L 3431 531 
L 3431 0 
L 469 0 
L 469 531 
Q 828 903 1448 1529 
Q 2069 2156 2228 2338 
Q 2531 2678 2651 2914 
Q 2772 3150 2772 3378 
Q 2772 3750 2511 3984 
Q 2250 4219 1831 4219 
Q 1534 4219 1204 4116 
Q 875 4013 500 3803 
L 500 4441 
Q 881 4594 1212 4672 
Q 1544 4750 1819 4750 
Q 2544 4750 2975 4387 
Q 3406 4025 3406 3419 
Q 3406 3131 3298 2873 
Q 3191 2616 2906 2266 
Q 2828 2175 2409 1742 
Q 1991 1309 1228 531 
z
" transform="scale(0.015625)"/>
       </defs>
       <use xlink:href="#DejaVuSans-32"/>
       <use xlink:href="#DejaVuSans-30" x="63.623047"/>
      </g>
     </g>
    </g>
    <g id="xtick_3">
     <g id="line2d_3">
      <g>
       <use xlink:href="#m219291b83d" x="350.44553" y="406.08" style="stroke: #000000; stroke-width: 0.8"/>
      </g>
     </g>
     <g id="text_3">
      <!-- 40 -->
      <g transform="translate(344.08303 420.678437) scale(0.1 -0.1)">
       <defs>
        <path id="DejaVuSans-34" d="M 2419 4116 
L 825 1625 
L 2419 1625 
L 2419 4116 
z
M 2253 4666 
L 3047 4666 
L 3047 1625 
L 3713 1625 
L 3713 1100 
L 3047 1100 
L 3047 0 
L 2419 0 
L 2419 1100 
L 313 1100 
L 313 1709 
L 2253 4666 
z
" transform="scale(0.015625)"/>
       </defs>
       <use xlink:href="#DejaVuSans-34"/>
       <use xlink:href="#DejaVuSans-30" x="63.623047"/>
      </g>
     </g>
    </g>
    <g id="xtick_4">
     <g id="line2d_4">
      <g>
       <use xlink:href="#m219291b83d" x="434.292261" y="406.08" style="stroke: #000000; stroke-width: 0.8"/>
      </g>
     </g>
     <g id="text_4">
      <!-- 60 -->
      <g transform="translate(427.929761 420.678437) scale(0.1 -0.1)">
       <defs>
        <path id="DejaVuSans-36" d="M 2113 2584 
Q 1688 2584 1439 2293 
Q 1191 2003 1191 1497 
Q 1191 994 1439 701 
Q 1688 409 2113 409 
Q 2538 409 2786 701 
Q 3034 994 3034 1497 
Q 3034 2003 2786 2293 
Q 2538 2584 2113 2584 
z
M 3366 4563 
L 3366 3988 
Q 3128 4100 2886 4159 
Q 2644 4219 2406 4219 
Q 1781 4219 1451 3797 
Q 1122 3375 1075 2522 
Q 1259 2794 1537 2939 
Q 1816 3084 2150 3084 
Q 2853 3084 3261 2657 
Q 3669 2231 3669 1497 
Q 3669 778 3244 343 
Q 2819 -91 2113 -91 
Q 1303 -91 875 529 
Q 447 1150 447 2328 
Q 447 3434 972 4092 
Q 1497 4750 2381 4750 
Q 2619 4750 2861 4703 
Q 3103 4656 3366 4563 
z
" transform="scale(0.015625)"/>
       </defs>
       <use xlink:href="#DejaVuSans-36"/>
       <use xlink:href="#DejaVuSans-30" x="63.623047"/>
      </g>
     </g>
    </g>
    <g id="xtick_5">
     <g id="line2d_5">
      <g>
       <use xlink:href="#m219291b83d" x="518.138993" y="406.08" style="stroke: #000000; stroke-width: 0.8"/>
      </g>
     </g>
     <g id="text_5">
      <!-- 80 -->
      <g transform="translate(511.776493 420.678437) scale(0.1 -0.1)">
       <defs>
        <path id="DejaVuSans-38" d="M 2034 2216 
Q 1584 2216 1326 1975 
Q 1069 1734 1069 1313 
Q 1069 891 1326 650 
Q 1584 409 2034 409 
Q 2484 409 2743 651 
Q 3003 894 3003 1313 
Q 3003 1734 2745 1975 
Q 2488 2216 2034 2216 
z
M 1403 2484 
Q 997 2584 770 2862 
Q 544 3141 544 3541 
Q 544 4100 942 4425 
Q 1341 4750 2034 4750 
Q 2731 4750 3128 4425 
Q 3525 4100 3525 3541 
Q 3525 3141 3298 2862 
Q 3072 2584 2669 2484 
Q 3125 2378 3379 2068 
Q 3634 1759 3634 1313 
Q 3634 634 3220 271 
Q 2806 -91 2034 -91 
Q 1263 -91 848 271 
Q 434 634 434 1313 
Q 434 1759 690 2068 
Q 947 2378 1403 2484 
z
M 1172 3481 
Q 1172 3119 1398 2916 
Q 1625 2713 2034 2713 
Q 2441 2713 2670 2916 
Q 2900 3119 2900 3481 
Q 2900 3844 2670 4047 
Q 2441 4250 2034 4250 
Q 1625 4250 1398 4047 
Q 1172 3844 1172 3481 
z
" transform="scale(0.015625)"/>
       </defs>
       <use xlink:href="#DejaVuSans-38"/>
       <use xlink:href="#DejaVuSans-30" x="63.623047"/>
      </g>
     </g>
    </g>
    <g id="xtick_6">
     <g id="line2d_6">
      <g>
       <use xlink:href="#m219291b83d" x="601.985725" y="406.08" style="stroke: #000000; stroke-width: 0.8"/>
      </g>
     </g>
     <g id="text_6">
      <!-- 100 -->
      <g transform="translate(592.441975 420.678437) scale(0.1 -0.1)">
       <defs>
        <path id="DejaVuSans-31" d="M 794 531 
L 1825 531 
L 1825 4091 
L 703 3866 
L 703 4441 
L 1819 4666 
L 2450 4666 
L 2450 531 
L 3481 531 
L 3481 0 
L 794 0 
L 794 531 
z
" transform="scale(0.015625)"/>
       </defs>
       <use xlink:href="#DejaVuSans-31"/>
       <use xlink:href="#DejaVuSans-30" x="63.623047"/>
       <use xlink:href="#DejaVuSans-30" x="127.246094"/>
      </g>
     </g>
    </g>
   </g>
   <g id="matplotlib.axis_2">
    <g id="ytick_1">
     <g id="line2d_7">
      <defs>
       <path id="m84f2d66b01" d="M 0 0 
L -3.5 0 
" style="stroke: #000000; stroke-width: 0.8"/>
      </defs>
      <g>
       <use xlink:href="#m84f2d66b01" x="162" y="397.36394" style="stroke: #000000; stroke-width: 0.8"/>
      </g>
     </g>
     <g id="text_7">
      <!-- 0 -->
      <g transform="translate(148.6375 401.163158) scale(0.1 -0.1)">
       <use xlink:href="#DejaVuSans-30"/>
      </g>
     </g>
    </g>
    <g id="ytick_2">
     <g id="line2d_8">
      <g>
       <use xlink:href="#m84f2d66b01" x="162" y="338.327319" style="stroke: #000000; stroke-width: 0.8"/>
      </g>
     </g>
     <g id="text_8">
      <!-- 2 -->
      <g transform="translate(148.6375 342.126538) scale(0.1 -0.1)">
       <use xlink:href="#DejaVuSans-32"/>
      </g>
     </g>
    </g>
    <g id="ytick_3">
     <g id="line2d_9">
      <g>
       <use xlink:href="#m84f2d66b01" x="162" y="279.290699" style="stroke: #000000; stroke-width: 0.8"/>
      </g>
     </g>
     <g id="text_9">
      <!-- 4 -->
      <g transform="translate(148.6375 283.089918) scale(0.1 -0.1)">
       <use xlink:href="#DejaVuSans-34"/>
      </g>
     </g>
    </g>
    <g id="ytick_4">
     <g id="line2d_10">
      <g>
       <use xlink:href="#m84f2d66b01" x="162" y="220.254079" style="stroke: #000000; stroke-width: 0.8"/>
      </g>
     </g>
     <g id="text_10">
      <!-- 6 -->
      <g transform="translate(148.6375 224.053297) scale(0.1 -0.1)">
       <use xlink:href="#DejaVuSans-36"/>
      </g>
     </g>
    </g>
    <g id="ytick_5">
     <g id="line2d_11">
      <g>
       <use xlink:href="#m84f2d66b01" x="162" y="161.217458" style="stroke: #000000; stroke-width: 0.8"/>
      </g>
     </g>
     <g id="text_11">
      <!-- 8 -->
      <g transform="translate(148.6375 165.016677) scale(0.1 -0.1)">
       <use xlink:href="#DejaVuSans-38"/>
      </g>
     </g>
    </g>
   </g>
   <g id="line2d_12">
    <path d="M 182.752066 117.425455 
L 186.944403 242.31976 
L 191.136739 303.783125 
L 195.329076 290.169041 
L 199.521412 306.241715 
L 203.713749 314.244791 
L 207.906086 353.391957 
L 212.098422 354.611589 
L 216.290759 365.92666 
L 220.483095 377.0468 
L 224.675432 368.908294 
L 228.867769 371.105154 
L 233.060105 386.990737 
L 237.252442 384.254165 
L 241.444778 388.663436 
L 245.637115 388.286397 
L 249.829452 390.170274 
L 254.021788 390.488097 
L 258.214125 390.414709 
L 262.406461 389.531205 
L 266.598798 390.743667 
L 270.791134 390.633979 
L 274.983471 390.226539 
L 279.175808 390.786323 
L 283.368144 390.687415 
L 287.560481 390.696105 
L 291.752817 390.677887 
L 295.945154 390.597381 
L 300.137491 390.774596 
L 304.329827 390.754545 
L 308.522164 390.673571 
L 312.7145 390.6337 
L 316.906837 390.738914 
L 321.099174 390.772086 
L 325.29151 390.837826 
L 329.483847 390.653936 
L 333.676183 390.765934 
L 337.86852 390.972257 
L 342.060856 390.704946 
L 346.253193 390.882727 
L 350.44553 390.64116 
L 354.637866 390.601366 
L 358.830203 390.851238 
L 363.022539 390.677379 
L 367.214876 390.798981 
L 371.407213 390.998416 
L 375.599549 390.903623 
L 379.791886 390.900133 
L 383.984222 390.730161 
L 388.176559 390.987559 
L 392.368896 390.847631 
L 396.561232 390.878563 
L 400.753569 390.786479 
L 404.945905 390.841082 
L 409.138242 390.787137 
L 413.330579 390.698314 
L 417.522915 390.880367 
L 421.715252 390.962014 
L 425.907588 390.854447 
L 430.099925 390.854461 
L 434.292261 390.881429 
L 438.484598 390.822205 
L 442.676935 390.982602 
L 446.869271 390.983697 
L 451.061608 390.927716 
L 455.253944 390.874269 
L 459.446281 390.942098 
L 463.638618 391.114544 
L 467.830954 391.05015 
L 472.023291 391.003424 
L 476.215627 390.875066 
L 480.407964 390.950432 
L 484.600301 390.999145 
L 488.792637 391.177518 
L 492.984974 391.032456 
L 497.17731 390.956077 
L 501.369647 390.898125 
L 505.561983 391.10293 
L 509.75432 391.139804 
L 513.946657 391.013459 
L 518.138993 391.06853 
L 522.33133 391.009142 
L 526.523666 390.91902 
L 530.716003 391.148956 
L 534.90834 391.001566 
L 539.100676 391.154437 
L 543.293013 391.110764 
L 547.485349 391.031951 
L 551.677686 391.139374 
L 555.870023 391.078639 
L 560.062359 391.056629 
L 564.254696 391.206807 
L 568.447032 391.102441 
L 572.639369 390.960845 
L 576.831705 391.175729 
L 581.024042 391.209461 
L 585.216379 391.215454 
L 589.408715 391.286062 
L 593.601052 391.254557 
L 597.793388 391.342611 
" clip-path="url(#pc630b34ef8)" style="fill: none; stroke: #4169e1; stroke-linecap: square"/>
   </g>
   <g id="line2d_13">
    <path d="M 182.752066 303.897684 
L 186.944403 320.204566 
L 191.136739 347.12975 
L 195.329076 335.998596 
L 199.521412 346.610075 
L 203.713749 349.970534 
L 207.906086 371.02864 
L 212.098422 371.723624 
L 216.290759 379.155328 
L 220.483095 386.378603 
L 224.675432 382.332209 
L 228.867769 383.690055 
L 233.060105 390.352623 
L 237.252442 391.175265 
L 241.444778 391.798341 
L 245.637115 391.953144 
L 249.829452 392.193284 
L 254.021788 392.214714 
L 258.214125 392.00402 
L 262.406461 391.913236 
L 266.598798 392.100816 
L 270.791134 392.026236 
L 274.983471 392.097971 
L 279.175808 391.681232 
L 283.368144 392.196943 
L 287.560481 392.099663 
L 291.752817 392.216767 
L 295.945154 392.172321 
L 300.137491 392.008111 
L 304.329827 391.583412 
L 308.522164 392.219663 
L 312.7145 392.234661 
L 316.906837 392.147493 
L 321.099174 392.123726 
L 325.29151 391.592998 
L 329.483847 392.20156 
L 333.676183 392.080892 
L 337.86852 392.139167 
L 342.060856 391.785242 
L 346.253193 392.226298 
L 350.44553 392.183337 
L 354.637866 392.284659 
L 358.830203 391.952391 
L 363.022539 391.973582 
L 367.214876 392.033209 
L 371.407213 392.263088 
L 375.599549 391.987581 
L 379.791886 392.130402 
L 383.984222 391.921369 
L 388.176559 391.932926 
L 392.368896 391.430016 
L 396.561232 392.181634 
L 400.753569 392.116674 
L 404.945905 392.001375 
L 409.138242 392.224432 
L 413.330579 392.123585 
L 417.522915 392.082312 
L 421.715252 391.93781 
L 425.907588 392.013526 
L 430.099925 392.207167 
L 434.292261 392.016747 
L 438.484598 391.846314 
L 442.676935 391.908974 
L 446.869271 392.315669 
L 451.061608 392.21751 
L 455.253944 392.053252 
L 459.446281 392.117847 
L 463.638618 392.053697 
L 467.830954 392.240594 
L 472.023291 392.112206 
L 476.215627 392.036856 
L 480.407964 392.308046 
L 484.600301 392.175863 
L 488.792637 392.321227 
L 492.984974 392.071075 
L 497.17731 392.001193 
L 501.369647 392.300046 
L 505.561983 391.99423 
L 509.75432 391.896043 
L 513.946657 391.813187 
L 518.138993 392.194841 
L 522.33133 392.233839 
L 526.523666 392.16738 
L 530.716003 392.090487 
L 534.90834 392.120967 
L 539.100676 392.303675 
L 543.293013 392.334545 
L 547.485349 392.110311 
L 551.677686 392.191561 
L 555.870023 391.998614 
L 560.062359 392.171313 
L 564.254696 392.26084 
L 568.447032 391.988297 
L 572.639369 392.189595 
L 576.831705 392.24115 
L 581.024042 392.275973 
L 585.216379 392.317355 
L 589.408715 392.122325 
L 593.601052 391.987498 
L 597.793388 392.264573 
" clip-path="url(#pc630b34ef8)" style="fill: none; stroke: #ff6347; stroke-linecap: square"/>
   </g>
   <g id="patch_3">
    <path d="M 162 406.08 
L 162 103.68 
" style="fill: none; stroke: #000000; stroke-width: 0.8; stroke-linejoin: miter; stroke-linecap: square"/>
   </g>
   <g id="patch_4">
    <path d="M 618.545455 406.08 
L 618.545455 103.68 
" style="fill: none; stroke: #000000; stroke-width: 0.8; stroke-linejoin: miter; stroke-linecap: square"/>
   </g>
   <g id="patch_5">
    <path d="M 162 406.08 
L 618.545455 406.08 
" style="fill: none; stroke: #000000; stroke-width: 0.8; stroke-linejoin: miter; stroke-linecap: square"/>
   </g>
   <g id="patch_6">
    <path d="M 162 103.68 
L 618.545455 103.68 
" style="fill: none; stroke: #000000; stroke-width: 0.8; stroke-linejoin: miter; stroke-linecap: square"/>
   </g>
   <g id="text_12">
    <!-- MSLE -->
    <g transform="translate(374.152415 97.68) scale(0.12 -0.12)">
     <defs>
      <path id="DejaVuSans-4d" d="M 628 4666 
L 1569 4666 
L 2759 1491 
L 3956 4666 
L 4897 4666 
L 4897 0 
L 4281 0 
L 4281 4097 
L 3078 897 
L 2444 897 
L 1241 4097 
L 1241 0 
L 628 0 
L 628 4666 
z
" transform="scale(0.015625)"/>
      <path id="DejaVuSans-53" d="M 3425 4513 
L 3425 3897 
Q 3066 4069 2747 4153 
Q 2428 4238 2131 4238 
Q 1616 4238 1336 4038 
Q 1056 3838 1056 3469 
Q 1056 3159 1242 3001 
Q 1428 2844 1947 2747 
L 2328 2669 
Q 3034 2534 3370 2195 
Q 3706 1856 3706 1288 
Q 3706 609 3251 259 
Q 2797 -91 1919 -91 
Q 1588 -91 1214 -16 
Q 841 59 441 206 
L 441 856 
Q 825 641 1194 531 
Q 1563 422 1919 422 
Q 2459 422 2753 634 
Q 3047 847 3047 1241 
Q 3047 1584 2836 1778 
Q 2625 1972 2144 2069 
L 1759 2144 
Q 1053 2284 737 2584 
Q 422 2884 422 3419 
Q 422 4038 858 4394 
Q 1294 4750 2059 4750 
Q 2388 4750 2728 4690 
Q 3069 4631 3425 4513 
z
" transform="scale(0.015625)"/>
      <path id="DejaVuSans-4c" d="M 628 4666 
L 1259 4666 
L 1259 531 
L 3531 531 
L 3531 0 
L 628 0 
L 628 4666 
z
" transform="scale(0.015625)"/>
      <path id="DejaVuSans-45" d="M 628 4666 
L 3578 4666 
L 3578 4134 
L 1259 4134 
L 1259 2753 
L 3481 2753 
L 3481 2222 
L 1259 2222 
L 1259 531 
L 3634 531 
L 3634 0 
L 628 0 
L 628 4666 
z
" transform="scale(0.015625)"/>
     </defs>
     <use xlink:href="#DejaVuSans-4d"/>
     <use xlink:href="#DejaVuSans-53" x="86.279297"/>
     <use xlink:href="#DejaVuSans-4c" x="149.755859"/>
     <use xlink:href="#DejaVuSans-45" x="205.46875"/>
    </g>
   </g>
   <g id="legend_1">
    <g id="patch_7">
     <path d="M 530.164205 141.03625 
L 611.545455 141.03625 
Q 613.545455 141.03625 613.545455 139.03625 
L 613.545455 110.68 
Q 613.545455 108.68 611.545455 108.68 
L 530.164205 108.68 
Q 528.164205 108.68 528.164205 110.68 
L 528.164205 139.03625 
Q 528.164205 141.03625 530.164205 141.03625 
z
" style="fill: #ffffff; opacity: 0.8; stroke: #cccccc; stroke-linejoin: miter"/>
    </g>
    <g id="line2d_14">
     <path d="M 532.164205 116.778437 
L 542.164205 116.778437 
L 552.164205 116.778437 
" style="fill: none; stroke: #4169e1; stroke-linecap: square"/>
    </g>
    <g id="text_13">
     <!-- Training -->
     <g transform="translate(560.164205 120.278437) scale(0.1 -0.1)">
      <defs>
       <path id="DejaVuSans-54" d="M -19 4666 
L 3928 4666 
L 3928 4134 
L 2272 4134 
L 2272 0 
L 1638 0 
L 1638 4134 
L -19 4134 
L -19 4666 
z
" transform="scale(0.015625)"/>
       <path id="DejaVuSans-72" d="M 2631 2963 
Q 2534 3019 2420 3045 
Q 2306 3072 2169 3072 
Q 1681 3072 1420 2755 
Q 1159 2438 1159 1844 
L 1159 0 
L 581 0 
L 581 3500 
L 1159 3500 
L 1159 2956 
Q 1341 3275 1631 3429 
Q 1922 3584 2338 3584 
Q 2397 3584 2469 3576 
Q 2541 3569 2628 3553 
L 2631 2963 
z
" transform="scale(0.015625)"/>
       <path id="DejaVuSans-61" d="M 2194 1759 
Q 1497 1759 1228 1600 
Q 959 1441 959 1056 
Q 959 750 1161 570 
Q 1363 391 1709 391 
Q 2188 391 2477 730 
Q 2766 1069 2766 1631 
L 2766 1759 
L 2194 1759 
z
M 3341 1997 
L 3341 0 
L 2766 0 
L 2766 531 
Q 2569 213 2275 61 
Q 1981 -91 1556 -91 
Q 1019 -91 701 211 
Q 384 513 384 1019 
Q 384 1609 779 1909 
Q 1175 2209 1959 2209 
L 2766 2209 
L 2766 2266 
Q 2766 2663 2505 2880 
Q 2244 3097 1772 3097 
Q 1472 3097 1187 3025 
Q 903 2953 641 2809 
L 641 3341 
Q 956 3463 1253 3523 
Q 1550 3584 1831 3584 
Q 2591 3584 2966 3190 
Q 3341 2797 3341 1997 
z
" transform="scale(0.015625)"/>
       <path id="DejaVuSans-69" d="M 603 3500 
L 1178 3500 
L 1178 0 
L 603 0 
L 603 3500 
z
M 603 4863 
L 1178 4863 
L 1178 4134 
L 603 4134 
L 603 4863 
z
" transform="scale(0.015625)"/>
       <path id="DejaVuSans-6e" d="M 3513 2113 
L 3513 0 
L 2938 0 
L 2938 2094 
Q 2938 2591 2744 2837 
Q 2550 3084 2163 3084 
Q 1697 3084 1428 2787 
Q 1159 2491 1159 1978 
L 1159 0 
L 581 0 
L 581 3500 
L 1159 3500 
L 1159 2956 
Q 1366 3272 1645 3428 
Q 1925 3584 2291 3584 
Q 2894 3584 3203 3211 
Q 3513 2838 3513 2113 
z
" transform="scale(0.015625)"/>
       <path id="DejaVuSans-67" d="M 2906 1791 
Q 2906 2416 2648 2759 
Q 2391 3103 1925 3103 
Q 1463 3103 1205 2759 
Q 947 2416 947 1791 
Q 947 1169 1205 825 
Q 1463 481 1925 481 
Q 2391 481 2648 825 
Q 2906 1169 2906 1791 
z
M 3481 434 
Q 3481 -459 3084 -895 
Q 2688 -1331 1869 -1331 
Q 1566 -1331 1297 -1286 
Q 1028 -1241 775 -1147 
L 775 -588 
Q 1028 -725 1275 -790 
Q 1522 -856 1778 -856 
Q 2344 -856 2625 -561 
Q 2906 -266 2906 331 
L 2906 616 
Q 2728 306 2450 153 
Q 2172 0 1784 0 
Q 1141 0 747 490 
Q 353 981 353 1791 
Q 353 2603 747 3093 
Q 1141 3584 1784 3584 
Q 2172 3584 2450 3431 
Q 2728 3278 2906 2969 
L 2906 3500 
L 3481 3500 
L 3481 434 
z
" transform="scale(0.015625)"/>
      </defs>
      <use xlink:href="#DejaVuSans-54"/>
      <use xlink:href="#DejaVuSans-72" x="46.333984"/>
      <use xlink:href="#DejaVuSans-61" x="87.447266"/>
      <use xlink:href="#DejaVuSans-69" x="148.726562"/>
      <use xlink:href="#DejaVuSans-6e" x="176.509766"/>
      <use xlink:href="#DejaVuSans-69" x="239.888672"/>
      <use xlink:href="#DejaVuSans-6e" x="267.671875"/>
      <use xlink:href="#DejaVuSans-67" x="331.050781"/>
     </g>
    </g>
    <g id="line2d_15">
     <path d="M 532.164205 131.456562 
L 542.164205 131.456562 
L 552.164205 131.456562 
" style="fill: none; stroke: #ff6347; stroke-linecap: square"/>
    </g>
    <g id="text_14">
     <!-- Validation -->
     <g transform="translate(560.164205 134.956562) scale(0.1 -0.1)">
      <defs>
       <path id="DejaVuSans-56" d="M 1831 0 
L 50 4666 
L 709 4666 
L 2188 738 
L 3669 4666 
L 4325 4666 
L 2547 0 
L 1831 0 
z
" transform="scale(0.015625)"/>
       <path id="DejaVuSans-6c" d="M 603 4863 
L 1178 4863 
L 1178 0 
L 603 0 
L 603 4863 
z
" transform="scale(0.015625)"/>
       <path id="DejaVuSans-64" d="M 2906 2969 
L 2906 4863 
L 3481 4863 
L 3481 0 
L 2906 0 
L 2906 525 
Q 2725 213 2448 61 
Q 2172 -91 1784 -91 
Q 1150 -91 751 415 
Q 353 922 353 1747 
Q 353 2572 751 3078 
Q 1150 3584 1784 3584 
Q 2172 3584 2448 3432 
Q 2725 3281 2906 2969 
z
M 947 1747 
Q 947 1113 1208 752 
Q 1469 391 1925 391 
Q 2381 391 2643 752 
Q 2906 1113 2906 1747 
Q 2906 2381 2643 2742 
Q 2381 3103 1925 3103 
Q 1469 3103 1208 2742 
Q 947 2381 947 1747 
z
" transform="scale(0.015625)"/>
       <path id="DejaVuSans-74" d="M 1172 4494 
L 1172 3500 
L 2356 3500 
L 2356 3053 
L 1172 3053 
L 1172 1153 
Q 1172 725 1289 603 
Q 1406 481 1766 481 
L 2356 481 
L 2356 0 
L 1766 0 
Q 1100 0 847 248 
Q 594 497 594 1153 
L 594 3053 
L 172 3053 
L 172 3500 
L 594 3500 
L 594 4494 
L 1172 4494 
z
" transform="scale(0.015625)"/>
       <path id="DejaVuSans-6f" d="M 1959 3097 
Q 1497 3097 1228 2736 
Q 959 2375 959 1747 
Q 959 1119 1226 758 
Q 1494 397 1959 397 
Q 2419 397 2687 759 
Q 2956 1122 2956 1747 
Q 2956 2369 2687 2733 
Q 2419 3097 1959 3097 
z
M 1959 3584 
Q 2709 3584 3137 3096 
Q 3566 2609 3566 1747 
Q 3566 888 3137 398 
Q 2709 -91 1959 -91 
Q 1206 -91 779 398 
Q 353 888 353 1747 
Q 353 2609 779 3096 
Q 1206 3584 1959 3584 
z
" transform="scale(0.015625)"/>
      </defs>
      <use xlink:href="#DejaVuSans-56"/>
      <use xlink:href="#DejaVuSans-61" x="60.658203"/>
      <use xlink:href="#DejaVuSans-6c" x="121.9375"/>
      <use xlink:href="#DejaVuSans-69" x="149.720703"/>
      <use xlink:href="#DejaVuSans-64" x="177.503906"/>
      <use xlink:href="#DejaVuSans-61" x="240.980469"/>
      <use xlink:href="#DejaVuSans-74" x="302.259766"/>
      <use xlink:href="#DejaVuSans-69" x="341.46875"/>
      <use xlink:href="#DejaVuSans-6f" x="369.251953"/>
      <use xlink:href="#DejaVuSans-6e" x="430.433594"/>
     </g>
    </g>
   </g>
  </g>
  <g id="axes_2">
   <g id="patch_8">
    <path d="M 709.854545 406.08 
L 1166.4 406.08 
L 1166.4 103.68 
L 709.854545 103.68 
z
" style="fill: #ffffff"/>
   </g>
   <g id="matplotlib.axis_3">
    <g id="xtick_7">
     <g id="line2d_16">
      <g>
       <use xlink:href="#m219291b83d" x="730.606612" y="406.08" style="stroke: #000000; stroke-width: 0.8"/>
      </g>
     </g>
     <g id="text_15">
      <!-- 0 -->
      <g transform="translate(727.425362 420.678437) scale(0.1 -0.1)">
       <use xlink:href="#DejaVuSans-30"/>
      </g>
     </g>
    </g>
    <g id="xtick_8">
     <g id="line2d_17">
      <g>
       <use xlink:href="#m219291b83d" x="814.453343" y="406.08" style="stroke: #000000; stroke-width: 0.8"/>
      </g>
     </g>
     <g id="text_16">
      <!-- 20 -->
      <g transform="translate(808.090843 420.678437) scale(0.1 -0.1)">
       <use xlink:href="#DejaVuSans-32"/>
       <use xlink:href="#DejaVuSans-30" x="63.623047"/>
      </g>
     </g>
    </g>
    <g id="xtick_9">
     <g id="line2d_18">
      <g>
       <use xlink:href="#m219291b83d" x="898.300075" y="406.08" style="stroke: #000000; stroke-width: 0.8"/>
      </g>
     </g>
     <g id="text_17">
      <!-- 40 -->
      <g transform="translate(891.937575 420.678437) scale(0.1 -0.1)">
       <use xlink:href="#DejaVuSans-34"/>
       <use xlink:href="#DejaVuSans-30" x="63.623047"/>
      </g>
     </g>
    </g>
    <g id="xtick_10">
     <g id="line2d_19">
      <g>
       <use xlink:href="#m219291b83d" x="982.146807" y="406.08" style="stroke: #000000; stroke-width: 0.8"/>
      </g>
     </g>
     <g id="text_18">
      <!-- 60 -->
      <g transform="translate(975.784307 420.678437) scale(0.1 -0.1)">
       <use xlink:href="#DejaVuSans-36"/>
       <use xlink:href="#DejaVuSans-30" x="63.623047"/>
      </g>
     </g>
    </g>
    <g id="xtick_11">
     <g id="line2d_20">
      <g>
       <use xlink:href="#m219291b83d" x="1065.993539" y="406.08" style="stroke: #000000; stroke-width: 0.8"/>
      </g>
     </g>
     <g id="text_19">
      <!-- 80 -->
      <g transform="translate(1059.631039 420.678437) scale(0.1 -0.1)">
       <use xlink:href="#DejaVuSans-38"/>
       <use xlink:href="#DejaVuSans-30" x="63.623047"/>
      </g>
     </g>
    </g>
    <g id="xtick_12">
     <g id="line2d_21">
      <g>
       <use xlink:href="#m219291b83d" x="1149.84027" y="406.08" style="stroke: #000000; stroke-width: 0.8"/>
      </g>
     </g>
     <g id="text_20">
      <!-- 100 -->
      <g transform="translate(1140.29652 420.678437) scale(0.1 -0.1)">
       <use xlink:href="#DejaVuSans-31"/>
       <use xlink:href="#DejaVuSans-30" x="63.623047"/>
       <use xlink:href="#DejaVuSans-30" x="127.246094"/>
      </g>
     </g>
    </g>
   </g>
   <g id="matplotlib.axis_4">
    <g id="ytick_6">
     <g id="line2d_22">
      <g>
       <use xlink:href="#m84f2d66b01" x="709.854545" y="376.725841" style="stroke: #000000; stroke-width: 0.8"/>
      </g>
     </g>
     <g id="text_21">
      <!-- 2500 -->
      <g transform="translate(677.404545 380.52506) scale(0.1 -0.1)">
       <defs>
        <path id="DejaVuSans-35" d="M 691 4666 
L 3169 4666 
L 3169 4134 
L 1269 4134 
L 1269 2991 
Q 1406 3038 1543 3061 
Q 1681 3084 1819 3084 
Q 2600 3084 3056 2656 
Q 3513 2228 3513 1497 
Q 3513 744 3044 326 
Q 2575 -91 1722 -91 
Q 1428 -91 1123 -41 
Q 819 9 494 109 
L 494 744 
Q 775 591 1075 516 
Q 1375 441 1709 441 
Q 2250 441 2565 725 
Q 2881 1009 2881 1497 
Q 2881 1984 2565 2268 
Q 2250 2553 1709 2553 
Q 1456 2553 1204 2497 
Q 953 2441 691 2322 
L 691 4666 
z
" transform="scale(0.015625)"/>
       </defs>
       <use xlink:href="#DejaVuSans-32"/>
       <use xlink:href="#DejaVuSans-35" x="63.623047"/>
       <use xlink:href="#DejaVuSans-30" x="127.246094"/>
       <use xlink:href="#DejaVuSans-30" x="190.869141"/>
      </g>
     </g>
    </g>
    <g id="ytick_7">
     <g id="line2d_23">
      <g>
       <use xlink:href="#m84f2d66b01" x="709.854545" y="338.974025" style="stroke: #000000; stroke-width: 0.8"/>
      </g>
     </g>
     <g id="text_22">
      <!-- 5000 -->
      <g transform="translate(677.404545 342.773243) scale(0.1 -0.1)">
       <use xlink:href="#DejaVuSans-35"/>
       <use xlink:href="#DejaVuSans-30" x="63.623047"/>
       <use xlink:href="#DejaVuSans-30" x="127.246094"/>
       <use xlink:href="#DejaVuSans-30" x="190.869141"/>
      </g>
     </g>
    </g>
    <g id="ytick_8">
     <g id="line2d_24">
      <g>
       <use xlink:href="#m84f2d66b01" x="709.854545" y="301.222208" style="stroke: #000000; stroke-width: 0.8"/>
      </g>
     </g>
     <g id="text_23">
      <!-- 7500 -->
      <g transform="translate(677.404545 305.021427) scale(0.1 -0.1)">
       <defs>
        <path id="DejaVuSans-37" d="M 525 4666 
L 3525 4666 
L 3525 4397 
L 1831 0 
L 1172 0 
L 2766 4134 
L 525 4134 
L 525 4666 
z
" transform="scale(0.015625)"/>
       </defs>
       <use xlink:href="#DejaVuSans-37"/>
       <use xlink:href="#DejaVuSans-35" x="63.623047"/>
       <use xlink:href="#DejaVuSans-30" x="127.246094"/>
       <use xlink:href="#DejaVuSans-30" x="190.869141"/>
      </g>
     </g>
    </g>
    <g id="ytick_9">
     <g id="line2d_25">
      <g>
       <use xlink:href="#m84f2d66b01" x="709.854545" y="263.470392" style="stroke: #000000; stroke-width: 0.8"/>
      </g>
     </g>
     <g id="text_24">
      <!-- 10000 -->
      <g transform="translate(671.042045 267.26961) scale(0.1 -0.1)">
       <use xlink:href="#DejaVuSans-31"/>
       <use xlink:href="#DejaVuSans-30" x="63.623047"/>
       <use xlink:href="#DejaVuSans-30" x="127.246094"/>
       <use xlink:href="#DejaVuSans-30" x="190.869141"/>
       <use xlink:href="#DejaVuSans-30" x="254.492188"/>
      </g>
     </g>
    </g>
    <g id="ytick_10">
     <g id="line2d_26">
      <g>
       <use xlink:href="#m84f2d66b01" x="709.854545" y="225.718575" style="stroke: #000000; stroke-width: 0.8"/>
      </g>
     </g>
     <g id="text_25">
      <!-- 12500 -->
      <g transform="translate(671.042045 229.517794) scale(0.1 -0.1)">
       <use xlink:href="#DejaVuSans-31"/>
       <use xlink:href="#DejaVuSans-32" x="63.623047"/>
       <use xlink:href="#DejaVuSans-35" x="127.246094"/>
       <use xlink:href="#DejaVuSans-30" x="190.869141"/>
       <use xlink:href="#DejaVuSans-30" x="254.492188"/>
      </g>
     </g>
    </g>
    <g id="ytick_11">
     <g id="line2d_27">
      <g>
       <use xlink:href="#m84f2d66b01" x="709.854545" y="187.966759" style="stroke: #000000; stroke-width: 0.8"/>
      </g>
     </g>
     <g id="text_26">
      <!-- 15000 -->
      <g transform="translate(671.042045 191.765977) scale(0.1 -0.1)">
       <use xlink:href="#DejaVuSans-31"/>
       <use xlink:href="#DejaVuSans-35" x="63.623047"/>
       <use xlink:href="#DejaVuSans-30" x="127.246094"/>
       <use xlink:href="#DejaVuSans-30" x="190.869141"/>
       <use xlink:href="#DejaVuSans-30" x="254.492188"/>
      </g>
     </g>
    </g>
    <g id="ytick_12">
     <g id="line2d_28">
      <g>
       <use xlink:href="#m84f2d66b01" x="709.854545" y="150.214942" style="stroke: #000000; stroke-width: 0.8"/>
      </g>
     </g>
     <g id="text_27">
      <!-- 17500 -->
      <g transform="translate(671.042045 154.014161) scale(0.1 -0.1)">
       <use xlink:href="#DejaVuSans-31"/>
       <use xlink:href="#DejaVuSans-37" x="63.623047"/>
       <use xlink:href="#DejaVuSans-35" x="127.246094"/>
       <use xlink:href="#DejaVuSans-30" x="190.869141"/>
       <use xlink:href="#DejaVuSans-30" x="254.492188"/>
      </g>
     </g>
    </g>
    <g id="ytick_13">
     <g id="line2d_29">
      <g>
       <use xlink:href="#m84f2d66b01" x="709.854545" y="112.463126" style="stroke: #000000; stroke-width: 0.8"/>
      </g>
     </g>
     <g id="text_28">
      <!-- 20000 -->
      <g transform="translate(671.042045 116.262344) scale(0.1 -0.1)">
       <use xlink:href="#DejaVuSans-32"/>
       <use xlink:href="#DejaVuSans-30" x="63.623047"/>
       <use xlink:href="#DejaVuSans-30" x="127.246094"/>
       <use xlink:href="#DejaVuSans-30" x="190.869141"/>
       <use xlink:href="#DejaVuSans-30" x="254.492188"/>
      </g>
     </g>
    </g>
   </g>
   <g id="line2d_30">
    <path d="M 730.606612 117.425455 
L 734.798948 138.858606 
L 738.991285 170.436216 
L 743.183621 158.196856 
L 747.375958 169.859336 
L 751.568295 176.011555 
L 755.760631 227.963511 
L 759.952968 230.712934 
L 764.145304 259.176506 
L 768.337641 300.845022 
L 772.529977 270.102826 
L 776.722314 274.767918 
L 780.914651 354.088259 
L 785.106987 349.091593 
L 789.299324 367.07842 
L 793.49166 376.15253 
L 797.683997 384.538093 
L 801.876334 387.330511 
L 806.06867 384.608623 
L 810.261007 375.852842 
L 814.453343 388.435822 
L 818.64568 388.366046 
L 822.838017 384.908241 
L 827.030353 388.837337 
L 831.22269 388.302213 
L 835.415026 388.82309 
L 839.607363 388.280376 
L 843.799699 387.743084 
L 847.992036 389.413696 
L 852.184373 388.757384 
L 856.376709 388.492579 
L 860.569046 388.252271 
L 864.761382 388.267408 
L 868.953719 389.041868 
L 873.146056 388.532528 
L 877.338392 388.849059 
L 881.530729 389.136415 
L 885.723065 389.583704 
L 889.915402 388.013568 
L 894.107739 389.41647 
L 898.300075 388.217061 
L 902.492412 388.492367 
L 906.684748 389.141647 
L 910.877085 387.910215 
L 915.069421 389.084232 
L 919.261758 390.128649 
L 923.454095 389.26448 
L 927.646431 389.437735 
L 931.838768 388.629553 
L 936.031104 389.628004 
L 940.223441 388.537334 
L 944.415778 389.182403 
L 948.608114 389.059492 
L 952.800451 389.000887 
L 956.992787 388.58848 
L 961.185124 388.272421 
L 965.377461 389.208524 
L 969.569797 389.549612 
L 973.762134 389.004988 
L 977.95447 389.48081 
L 982.146807 389.128013 
L 986.339144 388.978151 
L 990.53148 389.560605 
L 994.723817 389.493806 
L 998.916153 389.881798 
L 1003.10849 388.673633 
L 1007.300826 389.136762 
L 1011.493163 389.78251 
L 1015.6855 389.614831 
L 1019.877836 389.811157 
L 1024.070173 389.431182 
L 1028.262509 389.0161 
L 1032.454846 390.073927 
L 1036.647183 390.4043 
L 1040.839519 389.398475 
L 1045.031856 389.41136 
L 1049.224192 389.340544 
L 1053.416529 390.009616 
L 1057.608866 390.124084 
L 1061.801202 389.601966 
L 1065.993539 389.671072 
L 1070.185875 389.781525 
L 1074.378212 388.902642 
L 1078.570548 390.032145 
L 1082.762885 389.225693 
L 1086.955222 390.31119 
L 1091.147558 389.910724 
L 1095.339895 390.08808 
L 1099.532231 389.791157 
L 1103.724568 389.227534 
L 1107.916905 389.683813 
L 1112.109241 390.407756 
L 1116.301578 389.987442 
L 1120.493914 389.192846 
L 1124.686251 389.900042 
L 1128.878588 390.476056 
L 1133.070924 390.289982 
L 1137.263261 390.427662 
L 1141.455597 391.384486 
L 1145.647934 390.74312 
" clip-path="url(#p140bacd928)" style="fill: none; stroke: #4169e1; stroke-linecap: square"/>
   </g>
   <g id="line2d_31">
    <path d="M 730.606612 140.176557 
L 734.798948 156.510412 
L 738.991285 195.995199 
L 743.183621 177.159903 
L 747.375958 195.01197 
L 751.568295 201.584281 
L 755.760631 260.118871 
L 759.952968 262.874562 
L 764.145304 293.765008 
L 768.337641 336.278044 
L 772.529977 309.158031 
L 776.722314 312.840212 
L 780.914651 377.492244 
L 785.106987 376.998167 
L 789.299324 384.661398 
L 793.49166 389.40584 
L 797.683997 390.962636 
L 801.876334 389.003523 
L 806.06867 390.488839 
L 810.261007 388.388288 
L 814.453343 391.398499 
L 818.64568 391.53566 
L 822.838017 389.816606 
L 827.030353 391.51993 
L 831.22269 390.606957 
L 835.415026 391.417031 
L 839.607363 391.402059 
L 843.799699 390.987097 
L 847.992036 391.748124 
L 852.184373 391.191755 
L 856.376709 390.773213 
L 860.569046 391.151387 
L 864.761382 391.99774 
L 868.953719 391.938535 
L 873.146056 389.845774 
L 877.338392 391.049314 
L 881.530729 391.979732 
L 885.723065 391.725858 
L 889.915402 391.708962 
L 894.107739 390.583707 
L 898.300075 391.793651 
L 902.492412 391.872585 
L 906.684748 391.908363 
L 910.877085 391.794894 
L 915.069421 391.641105 
L 919.261758 391.800483 
L 923.454095 391.558106 
L 927.646431 391.376302 
L 931.838768 391.725536 
L 936.031104 391.792282 
L 940.223441 391.170285 
L 944.415778 390.980662 
L 948.608114 391.627141 
L 952.800451 391.571885 
L 956.992787 391.172536 
L 961.185124 391.691692 
L 965.377461 391.191115 
L 969.569797 391.756176 
L 973.762134 391.827718 
L 977.95447 391.279996 
L 982.146807 391.546486 
L 986.339144 391.741578 
L 990.53148 391.581977 
L 994.723817 390.789469 
L 998.916153 390.065267 
L 1003.10849 391.928275 
L 1007.300826 391.437024 
L 1011.493163 391.694652 
L 1015.6855 391.673288 
L 1019.877836 392.231915 
L 1024.070173 392.151156 
L 1028.262509 391.067056 
L 1032.454846 392.334545 
L 1036.647183 391.690462 
L 1040.839519 391.915239 
L 1045.031856 391.825762 
L 1049.224192 391.378868 
L 1053.416529 391.895387 
L 1057.608866 391.706507 
L 1061.801202 391.868043 
L 1065.993539 391.735003 
L 1070.185875 390.355602 
L 1074.378212 391.870316 
L 1078.570548 391.32156 
L 1082.762885 392.113644 
L 1086.955222 391.99743 
L 1091.147558 389.758441 
L 1095.339895 391.888663 
L 1099.532231 391.61944 
L 1103.724568 391.428035 
L 1107.916905 391.943298 
L 1112.109241 391.88884 
L 1116.301578 391.639193 
L 1120.493914 392.0757 
L 1124.686251 391.448519 
L 1128.878588 391.358254 
L 1133.070924 392.32275 
L 1137.263261 392.127091 
L 1141.455597 391.42316 
L 1145.647934 392.252212 
" clip-path="url(#p140bacd928)" style="fill: none; stroke: #ff6347; stroke-linecap: square"/>
   </g>
   <g id="patch_9">
    <path d="M 709.854545 406.08 
L 709.854545 103.68 
" style="fill: none; stroke: #000000; stroke-width: 0.8; stroke-linejoin: miter; stroke-linecap: square"/>
   </g>
   <g id="patch_10">
    <path d="M 1166.4 406.08 
L 1166.4 103.68 
" style="fill: none; stroke: #000000; stroke-width: 0.8; stroke-linejoin: miter; stroke-linecap: square"/>
   </g>
   <g id="patch_11">
    <path d="M 709.854545 406.08 
L 1166.4 406.08 
" style="fill: none; stroke: #000000; stroke-width: 0.8; stroke-linejoin: miter; stroke-linecap: square"/>
   </g>
   <g id="patch_12">
    <path d="M 709.854545 103.68 
L 1166.4 103.68 
" style="fill: none; stroke: #000000; stroke-width: 0.8; stroke-linejoin: miter; stroke-linecap: square"/>
   </g>
   <g id="text_29">
    <!-- LOSS -->
    <g transform="translate(922.660398 97.68) scale(0.12 -0.12)">
     <defs>
      <path id="DejaVuSans-4f" d="M 2522 4238 
Q 1834 4238 1429 3725 
Q 1025 3213 1025 2328 
Q 1025 1447 1429 934 
Q 1834 422 2522 422 
Q 3209 422 3611 934 
Q 4013 1447 4013 2328 
Q 4013 3213 3611 3725 
Q 3209 4238 2522 4238 
z
M 2522 4750 
Q 3503 4750 4090 4092 
Q 4678 3434 4678 2328 
Q 4678 1225 4090 567 
Q 3503 -91 2522 -91 
Q 1538 -91 948 565 
Q 359 1222 359 2328 
Q 359 3434 948 4092 
Q 1538 4750 2522 4750 
z
" transform="scale(0.015625)"/>
     </defs>
     <use xlink:href="#DejaVuSans-4c"/>
     <use xlink:href="#DejaVuSans-4f" x="52.087891"/>
     <use xlink:href="#DejaVuSans-53" x="130.798828"/>
     <use xlink:href="#DejaVuSans-53" x="194.275391"/>
    </g>
   </g>
   <g id="legend_2">
    <g id="patch_13">
     <path d="M 1078.01875 141.03625 
L 1159.4 141.03625 
Q 1161.4 141.03625 1161.4 139.03625 
L 1161.4 110.68 
Q 1161.4 108.68 1159.4 108.68 
L 1078.01875 108.68 
Q 1076.01875 108.68 1076.01875 110.68 
L 1076.01875 139.03625 
Q 1076.01875 141.03625 1078.01875 141.03625 
z
" style="fill: #ffffff; opacity: 0.8; stroke: #cccccc; stroke-linejoin: miter"/>
    </g>
    <g id="line2d_32">
     <path d="M 1080.01875 116.778437 
L 1090.01875 116.778437 
L 1100.01875 116.778437 
" style="fill: none; stroke: #4169e1; stroke-linecap: square"/>
    </g>
    <g id="text_30">
     <!-- Training -->
     <g transform="translate(1108.01875 120.278437) scale(0.1 -0.1)">
      <use xlink:href="#DejaVuSans-54"/>
      <use xlink:href="#DejaVuSans-72" x="46.333984"/>
      <use xlink:href="#DejaVuSans-61" x="87.447266"/>
      <use xlink:href="#DejaVuSans-69" x="148.726562"/>
      <use xlink:href="#DejaVuSans-6e" x="176.509766"/>
      <use xlink:href="#DejaVuSans-69" x="239.888672"/>
      <use xlink:href="#DejaVuSans-6e" x="267.671875"/>
      <use xlink:href="#DejaVuSans-67" x="331.050781"/>
     </g>
    </g>
    <g id="line2d_33">
     <path d="M 1080.01875 131.456562 
L 1090.01875 131.456562 
L 1100.01875 131.456562 
" style="fill: none; stroke: #ff6347; stroke-linecap: square"/>
    </g>
    <g id="text_31">
     <!-- Validation -->
     <g transform="translate(1108.01875 134.956562) scale(0.1 -0.1)">
      <use xlink:href="#DejaVuSans-56"/>
      <use xlink:href="#DejaVuSans-61" x="60.658203"/>
      <use xlink:href="#DejaVuSans-6c" x="121.9375"/>
      <use xlink:href="#DejaVuSans-69" x="149.720703"/>
      <use xlink:href="#DejaVuSans-64" x="177.503906"/>
      <use xlink:href="#DejaVuSans-61" x="240.980469"/>
      <use xlink:href="#DejaVuSans-74" x="302.259766"/>
      <use xlink:href="#DejaVuSans-69" x="341.46875"/>
      <use xlink:href="#DejaVuSans-6f" x="369.251953"/>
      <use xlink:href="#DejaVuSans-6e" x="430.433594"/>
     </g>
    </g>
   </g>
  </g>
  <g id="axes_3">
   <g id="patch_14">
    <path d="M 162 768.96 
L 618.545455 768.96 
L 618.545455 466.56 
L 162 466.56 
z
" style="fill: #ffffff"/>
   </g>
   <g id="matplotlib.axis_5">
    <g id="xtick_13">
     <g id="line2d_34">
      <g>
       <use xlink:href="#m219291b83d" x="182.752066" y="768.96" style="stroke: #000000; stroke-width: 0.8"/>
      </g>
     </g>
     <g id="text_32">
      <!-- 0 -->
      <g transform="translate(179.570816 783.558437) scale(0.1 -0.1)">
       <use xlink:href="#DejaVuSans-30"/>
      </g>
     </g>
    </g>
    <g id="xtick_14">
     <g id="line2d_35">
      <g>
       <use xlink:href="#m219291b83d" x="266.598798" y="768.96" style="stroke: #000000; stroke-width: 0.8"/>
      </g>
     </g>
     <g id="text_33">
      <!-- 20 -->
      <g transform="translate(260.236298 783.558437) scale(0.1 -0.1)">
       <use xlink:href="#DejaVuSans-32"/>
       <use xlink:href="#DejaVuSans-30" x="63.623047"/>
      </g>
     </g>
    </g>
    <g id="xtick_15">
     <g id="line2d_36">
      <g>
       <use xlink:href="#m219291b83d" x="350.44553" y="768.96" style="stroke: #000000; stroke-width: 0.8"/>
      </g>
     </g>
     <g id="text_34">
      <!-- 40 -->
      <g transform="translate(344.08303 783.558437) scale(0.1 -0.1)">
       <use xlink:href="#DejaVuSans-34"/>
       <use xlink:href="#DejaVuSans-30" x="63.623047"/>
      </g>
     </g>
    </g>
    <g id="xtick_16">
     <g id="line2d_37">
      <g>
       <use xlink:href="#m219291b83d" x="434.292261" y="768.96" style="stroke: #000000; stroke-width: 0.8"/>
      </g>
     </g>
     <g id="text_35">
      <!-- 60 -->
      <g transform="translate(427.929761 783.558437) scale(0.1 -0.1)">
       <use xlink:href="#DejaVuSans-36"/>
       <use xlink:href="#DejaVuSans-30" x="63.623047"/>
      </g>
     </g>
    </g>
    <g id="xtick_17">
     <g id="line2d_38">
      <g>
       <use xlink:href="#m219291b83d" x="518.138993" y="768.96" style="stroke: #000000; stroke-width: 0.8"/>
      </g>
     </g>
     <g id="text_36">
      <!-- 80 -->
      <g transform="translate(511.776493 783.558437) scale(0.1 -0.1)">
       <use xlink:href="#DejaVuSans-38"/>
       <use xlink:href="#DejaVuSans-30" x="63.623047"/>
      </g>
     </g>
    </g>
    <g id="xtick_18">
     <g id="line2d_39">
      <g>
       <use xlink:href="#m219291b83d" x="601.985725" y="768.96" style="stroke: #000000; stroke-width: 0.8"/>
      </g>
     </g>
     <g id="text_37">
      <!-- 100 -->
      <g transform="translate(592.441975 783.558437) scale(0.1 -0.1)">
       <use xlink:href="#DejaVuSans-31"/>
       <use xlink:href="#DejaVuSans-30" x="63.623047"/>
       <use xlink:href="#DejaVuSans-30" x="127.246094"/>
      </g>
     </g>
    </g>
   </g>
   <g id="matplotlib.axis_6">
    <g id="ytick_14">
     <g id="line2d_40">
      <g>
       <use xlink:href="#m84f2d66b01" x="162" y="723.579293" style="stroke: #000000; stroke-width: 0.8"/>
      </g>
     </g>
     <g id="text_38">
      <!-- 40 -->
      <g transform="translate(142.275 727.378512) scale(0.1 -0.1)">
       <use xlink:href="#DejaVuSans-34"/>
       <use xlink:href="#DejaVuSans-30" x="63.623047"/>
      </g>
     </g>
    </g>
    <g id="ytick_15">
     <g id="line2d_41">
      <g>
       <use xlink:href="#m84f2d66b01" x="162" y="664.713694" style="stroke: #000000; stroke-width: 0.8"/>
      </g>
     </g>
     <g id="text_39">
      <!-- 60 -->
      <g transform="translate(142.275 668.512912) scale(0.1 -0.1)">
       <use xlink:href="#DejaVuSans-36"/>
       <use xlink:href="#DejaVuSans-30" x="63.623047"/>
      </g>
     </g>
    </g>
    <g id="ytick_16">
     <g id="line2d_42">
      <g>
       <use xlink:href="#m84f2d66b01" x="162" y="605.848094" style="stroke: #000000; stroke-width: 0.8"/>
      </g>
     </g>
     <g id="text_40">
      <!-- 80 -->
      <g transform="translate(142.275 609.647313) scale(0.1 -0.1)">
       <use xlink:href="#DejaVuSans-38"/>
       <use xlink:href="#DejaVuSans-30" x="63.623047"/>
      </g>
     </g>
    </g>
    <g id="ytick_17">
     <g id="line2d_43">
      <g>
       <use xlink:href="#m84f2d66b01" x="162" y="546.982495" style="stroke: #000000; stroke-width: 0.8"/>
      </g>
     </g>
     <g id="text_41">
      <!-- 100 -->
      <g transform="translate(135.9125 550.781713) scale(0.1 -0.1)">
       <use xlink:href="#DejaVuSans-31"/>
       <use xlink:href="#DejaVuSans-30" x="63.623047"/>
       <use xlink:href="#DejaVuSans-30" x="127.246094"/>
      </g>
     </g>
    </g>
    <g id="ytick_18">
     <g id="line2d_44">
      <g>
       <use xlink:href="#m84f2d66b01" x="162" y="488.116895" style="stroke: #000000; stroke-width: 0.8"/>
      </g>
     </g>
     <g id="text_42">
      <!-- 120 -->
      <g transform="translate(135.9125 491.916114) scale(0.1 -0.1)">
       <use xlink:href="#DejaVuSans-31"/>
       <use xlink:href="#DejaVuSans-32" x="63.623047"/>
       <use xlink:href="#DejaVuSans-30" x="127.246094"/>
      </g>
     </g>
    </g>
   </g>
   <g id="line2d_45">
    <path d="M 182.752066 480.305455 
L 186.944403 497.150922 
L 191.136739 522.290219 
L 195.329076 512.292651 
L 199.521412 521.734132 
L 203.713749 526.450943 
L 207.906086 568.821492 
L 212.098422 570.900237 
L 216.290759 595.361671 
L 220.483095 633.437976 
L 224.675432 605.82272 
L 228.867769 610.937621 
L 233.060105 690.835674 
L 237.252442 680.622657 
L 241.444778 707.018448 
L 245.637115 719.181148 
L 249.829452 735.68966 
L 254.021788 741.601898 
L 258.214125 734.460505 
L 262.406461 720.008159 
L 266.598798 744.893249 
L 270.791134 744.84168 
L 274.983471 734.810866 
L 279.175808 745.431068 
L 283.368144 744.133424 
L 287.560481 745.676977 
L 291.752817 744.883009 
L 295.945154 743.441021 
L 300.137491 747.498018 
L 304.329827 745.525953 
L 308.522164 744.768531 
L 312.7145 743.88885 
L 316.906837 744.827623 
L 321.099174 746.059584 
L 325.29151 744.954754 
L 329.483847 745.867411 
L 333.676183 746.985883 
L 337.86852 747.078691 
L 342.060856 743.743406 
L 346.253193 747.150992 
L 350.44553 744.540361 
L 354.637866 744.5858 
L 358.830203 747.100428 
L 363.022539 744.580107 
L 367.214876 746.134193 
L 371.407213 748.83899 
L 375.599549 746.683082 
L 379.791886 746.869148 
L 383.984222 745.179106 
L 388.176559 748.08447 
L 392.368896 745.69529 
L 396.561232 746.122752 
L 400.753569 746.599728 
L 404.945905 746.410069 
L 409.138242 745.38198 
L 413.330579 744.597039 
L 417.522915 746.562575 
L 421.715252 747.05015 
L 425.907588 746.200863 
L 430.099925 747.128559 
L 434.292261 746.311748 
L 438.484598 746.094155 
L 442.676935 746.499105 
L 446.869271 747.149639 
L 451.061608 748.508592 
L 455.253944 745.150947 
L 459.446281 746.035501 
L 463.638618 747.580508 
L 467.830954 746.960699 
L 472.023291 747.729495 
L 476.215627 747.08024 
L 480.407964 745.844607 
L 484.600301 748.344353 
L 488.792637 748.781661 
L 492.984974 747.250475 
L 497.17731 747.316567 
L 501.369647 746.423093 
L 505.561983 747.950726 
L 509.75432 748.936941 
L 513.946657 747.672424 
L 518.138993 747.911333 
L 522.33133 747.819547 
L 526.523666 745.86064 
L 530.716003 748.254099 
L 534.90834 746.60935 
L 539.100676 749.103498 
L 543.293013 747.830578 
L 547.485349 748.590773 
L 551.677686 747.79402 
L 555.870023 746.981762 
L 560.062359 748.12887 
L 564.254696 749.74907 
L 568.447032 748.6292 
L 572.639369 747.200338 
L 576.831705 748.926965 
L 581.024042 749.49881 
L 585.216379 749.396486 
L 589.408715 749.799157 
L 593.601052 751.000641 
L 597.793388 749.566474 
" clip-path="url(#p62f68ff33d)" style="fill: none; stroke: #4169e1; stroke-linecap: square"/>
   </g>
   <g id="line2d_46">
    <path d="M 182.752066 486.353222 
L 186.944403 498.864161 
L 191.136739 530.236707 
L 195.329076 515.054424 
L 199.521412 529.440908 
L 203.713749 534.77457 
L 207.906086 584.391244 
L 212.098422 586.840728 
L 216.290759 617.38029 
L 220.483095 663.987249 
L 224.675432 634.088016 
L 228.867769 639.269744 
L 233.060105 718.131894 
L 237.252442 718.907528 
L 241.444778 731.2741 
L 245.637115 742.745644 
L 249.829452 748.585064 
L 254.021788 743.291446 
L 258.214125 746.202435 
L 262.406461 740.141957 
L 266.598798 749.847644 
L 270.791134 750.413639 
L 274.983471 744.710708 
L 279.175808 749.140629 
L 283.368144 747.080229 
L 287.560481 751.361708 
L 291.752817 750.609883 
L 295.945154 747.829057 
L 300.137491 750.905941 
L 304.329827 752.844508 
L 308.522164 748.269307 
L 312.7145 748.134686 
L 316.906837 751.560276 
L 321.099174 752.99469 
L 325.29151 751.872979 
L 329.483847 750.375167 
L 333.676183 752.132682 
L 337.86852 752.086356 
L 342.060856 749.124753 
L 346.253193 746.476436 
L 350.44553 749.914258 
L 354.637866 750.808872 
L 358.830203 751.367299 
L 363.022539 750.76304 
L 367.214876 749.400831 
L 371.407213 749.922521 
L 375.599549 749.582591 
L 379.791886 748.770417 
L 383.984222 752.469306 
L 388.176559 751.503486 
L 392.368896 751.483551 
L 396.561232 747.805523 
L 400.753569 751.696799 
L 404.945905 752.011944 
L 409.138242 747.186887 
L 413.330579 752.056861 
L 417.522915 751.442143 
L 421.715252 749.942658 
L 425.907588 751.984173 
L 430.099925 749.828815 
L 434.292261 749.612423 
L 438.484598 751.994648 
L 442.676935 752.738861 
L 446.869271 747.430495 
L 451.061608 745.648706 
L 455.253944 751.259361 
L 459.446281 751.89567 
L 463.638618 748.630862 
L 467.830954 749.661095 
L 472.023291 751.708661 
L 476.215627 752.021943 
L 480.407964 749.755868 
L 484.600301 752.390077 
L 488.792637 750.803566 
L 492.984974 753.349778 
L 497.17731 750.090707 
L 501.369647 748.31456 
L 505.561983 752.836997 
L 509.75432 750.345341 
L 513.946657 750.802556 
L 518.138993 750.702292 
L 522.33133 747.444316 
L 526.523666 751.915919 
L 530.716003 752.790362 
L 534.90834 751.320541 
L 539.100676 751.517543 
L 543.293013 743.862229 
L 547.485349 754.66341 
L 551.677686 750.047649 
L 555.870023 752.978668 
L 560.062359 750.219523 
L 564.254696 752.672005 
L 568.447032 748.453514 
L 572.639369 750.9502 
L 576.831705 750.107672 
L 581.024042 749.365149 
L 585.216379 752.829031 
L 589.408715 753.230304 
L 593.601052 753.516218 
L 597.793388 755.214545 
" clip-path="url(#p62f68ff33d)" style="fill: none; stroke: #ff6347; stroke-linecap: square"/>
   </g>
   <g id="patch_15">
    <path d="M 162 768.96 
L 162 466.56 
" style="fill: none; stroke: #000000; stroke-width: 0.8; stroke-linejoin: miter; stroke-linecap: square"/>
   </g>
   <g id="patch_16">
    <path d="M 618.545455 768.96 
L 618.545455 466.56 
" style="fill: none; stroke: #000000; stroke-width: 0.8; stroke-linejoin: miter; stroke-linecap: square"/>
   </g>
   <g id="patch_17">
    <path d="M 162 768.96 
L 618.545455 768.96 
" style="fill: none; stroke: #000000; stroke-width: 0.8; stroke-linejoin: miter; stroke-linecap: square"/>
   </g>
   <g id="patch_18">
    <path d="M 162 466.56 
L 618.545455 466.56 
" style="fill: none; stroke: #000000; stroke-width: 0.8; stroke-linejoin: miter; stroke-linecap: square"/>
   </g>
   <g id="text_43">
    <!-- MAE -->
    <g transform="translate(377.200227 460.56) scale(0.12 -0.12)">
     <defs>
      <path id="DejaVuSans-41" d="M 2188 4044 
L 1331 1722 
L 3047 1722 
L 2188 4044 
z
M 1831 4666 
L 2547 4666 
L 4325 0 
L 3669 0 
L 3244 1197 
L 1141 1197 
L 716 0 
L 50 0 
L 1831 4666 
z
" transform="scale(0.015625)"/>
     </defs>
     <use xlink:href="#DejaVuSans-4d"/>
     <use xlink:href="#DejaVuSans-41" x="86.279297"/>
     <use xlink:href="#DejaVuSans-45" x="154.6875"/>
    </g>
   </g>
   <g id="legend_3">
    <g id="patch_19">
     <path d="M 530.164205 503.91625 
L 611.545455 503.91625 
Q 613.545455 503.91625 613.545455 501.91625 
L 613.545455 473.56 
Q 613.545455 471.56 611.545455 471.56 
L 530.164205 471.56 
Q 528.164205 471.56 528.164205 473.56 
L 528.164205 501.91625 
Q 528.164205 503.91625 530.164205 503.91625 
z
" style="fill: #ffffff; opacity: 0.8; stroke: #cccccc; stroke-linejoin: miter"/>
    </g>
    <g id="line2d_47">
     <path d="M 532.164205 479.658437 
L 542.164205 479.658437 
L 552.164205 479.658437 
" style="fill: none; stroke: #4169e1; stroke-linecap: square"/>
    </g>
    <g id="text_44">
     <!-- Training -->
     <g transform="translate(560.164205 483.158437) scale(0.1 -0.1)">
      <use xlink:href="#DejaVuSans-54"/>
      <use xlink:href="#DejaVuSans-72" x="46.333984"/>
      <use xlink:href="#DejaVuSans-61" x="87.447266"/>
      <use xlink:href="#DejaVuSans-69" x="148.726562"/>
      <use xlink:href="#DejaVuSans-6e" x="176.509766"/>
      <use xlink:href="#DejaVuSans-69" x="239.888672"/>
      <use xlink:href="#DejaVuSans-6e" x="267.671875"/>
      <use xlink:href="#DejaVuSans-67" x="331.050781"/>
     </g>
    </g>
    <g id="line2d_48">
     <path d="M 532.164205 494.336563 
L 542.164205 494.336563 
L 552.164205 494.336563 
" style="fill: none; stroke: #ff6347; stroke-linecap: square"/>
    </g>
    <g id="text_45">
     <!-- Validation -->
     <g transform="translate(560.164205 497.836563) scale(0.1 -0.1)">
      <use xlink:href="#DejaVuSans-56"/>
      <use xlink:href="#DejaVuSans-61" x="60.658203"/>
      <use xlink:href="#DejaVuSans-6c" x="121.9375"/>
      <use xlink:href="#DejaVuSans-69" x="149.720703"/>
      <use xlink:href="#DejaVuSans-64" x="177.503906"/>
      <use xlink:href="#DejaVuSans-61" x="240.980469"/>
      <use xlink:href="#DejaVuSans-74" x="302.259766"/>
      <use xlink:href="#DejaVuSans-69" x="341.46875"/>
      <use xlink:href="#DejaVuSans-6f" x="369.251953"/>
      <use xlink:href="#DejaVuSans-6e" x="430.433594"/>
     </g>
    </g>
   </g>
  </g>
  <g id="axes_4">
   <g id="patch_20">
    <path d="M 709.854545 768.96 
L 1166.4 768.96 
L 1166.4 466.56 
L 709.854545 466.56 
z
" style="fill: #ffffff"/>
   </g>
   <g id="matplotlib.axis_7">
    <g id="xtick_19">
     <g id="line2d_49">
      <g>
       <use xlink:href="#m219291b83d" x="730.606612" y="768.96" style="stroke: #000000; stroke-width: 0.8"/>
      </g>
     </g>
     <g id="text_46">
      <!-- 0 -->
      <g transform="translate(727.425362 783.558437) scale(0.1 -0.1)">
       <use xlink:href="#DejaVuSans-30"/>
      </g>
     </g>
    </g>
    <g id="xtick_20">
     <g id="line2d_50">
      <g>
       <use xlink:href="#m219291b83d" x="814.453343" y="768.96" style="stroke: #000000; stroke-width: 0.8"/>
      </g>
     </g>
     <g id="text_47">
      <!-- 20 -->
      <g transform="translate(808.090843 783.558437) scale(0.1 -0.1)">
       <use xlink:href="#DejaVuSans-32"/>
       <use xlink:href="#DejaVuSans-30" x="63.623047"/>
      </g>
     </g>
    </g>
    <g id="xtick_21">
     <g id="line2d_51">
      <g>
       <use xlink:href="#m219291b83d" x="898.300075" y="768.96" style="stroke: #000000; stroke-width: 0.8"/>
      </g>
     </g>
     <g id="text_48">
      <!-- 40 -->
      <g transform="translate(891.937575 783.558437) scale(0.1 -0.1)">
       <use xlink:href="#DejaVuSans-34"/>
       <use xlink:href="#DejaVuSans-30" x="63.623047"/>
      </g>
     </g>
    </g>
    <g id="xtick_22">
     <g id="line2d_52">
      <g>
       <use xlink:href="#m219291b83d" x="982.146807" y="768.96" style="stroke: #000000; stroke-width: 0.8"/>
      </g>
     </g>
     <g id="text_49">
      <!-- 60 -->
      <g transform="translate(975.784307 783.558437) scale(0.1 -0.1)">
       <use xlink:href="#DejaVuSans-36"/>
       <use xlink:href="#DejaVuSans-30" x="63.623047"/>
      </g>
     </g>
    </g>
    <g id="xtick_23">
     <g id="line2d_53">
      <g>
       <use xlink:href="#m219291b83d" x="1065.993539" y="768.96" style="stroke: #000000; stroke-width: 0.8"/>
      </g>
     </g>
     <g id="text_50">
      <!-- 80 -->
      <g transform="translate(1059.631039 783.558437) scale(0.1 -0.1)">
       <use xlink:href="#DejaVuSans-38"/>
       <use xlink:href="#DejaVuSans-30" x="63.623047"/>
      </g>
     </g>
    </g>
    <g id="xtick_24">
     <g id="line2d_54">
      <g>
       <use xlink:href="#m219291b83d" x="1149.84027" y="768.96" style="stroke: #000000; stroke-width: 0.8"/>
      </g>
     </g>
     <g id="text_51">
      <!-- 100 -->
      <g transform="translate(1140.29652 783.558437) scale(0.1 -0.1)">
       <use xlink:href="#DejaVuSans-31"/>
       <use xlink:href="#DejaVuSans-30" x="63.623047"/>
       <use xlink:href="#DejaVuSans-30" x="127.246094"/>
      </g>
     </g>
    </g>
   </g>
   <g id="matplotlib.axis_8">
    <g id="ytick_19">
     <g id="line2d_55">
      <g>
       <use xlink:href="#m84f2d66b01" x="709.854545" y="750.612374" style="stroke: #000000; stroke-width: 0.8"/>
      </g>
     </g>
     <g id="text_52">
      <!-- 40 -->
      <g transform="translate(690.129545 754.411593) scale(0.1 -0.1)">
       <use xlink:href="#DejaVuSans-34"/>
       <use xlink:href="#DejaVuSans-30" x="63.623047"/>
      </g>
     </g>
    </g>
    <g id="ytick_20">
     <g id="line2d_56">
      <g>
       <use xlink:href="#m84f2d66b01" x="709.854545" y="696.688343" style="stroke: #000000; stroke-width: 0.8"/>
      </g>
     </g>
     <g id="text_53">
      <!-- 60 -->
      <g transform="translate(690.129545 700.487562) scale(0.1 -0.1)">
       <use xlink:href="#DejaVuSans-36"/>
       <use xlink:href="#DejaVuSans-30" x="63.623047"/>
      </g>
     </g>
    </g>
    <g id="ytick_21">
     <g id="line2d_57">
      <g>
       <use xlink:href="#m84f2d66b01" x="709.854545" y="642.764312" style="stroke: #000000; stroke-width: 0.8"/>
      </g>
     </g>
     <g id="text_54">
      <!-- 80 -->
      <g transform="translate(690.129545 646.56353) scale(0.1 -0.1)">
       <use xlink:href="#DejaVuSans-38"/>
       <use xlink:href="#DejaVuSans-30" x="63.623047"/>
      </g>
     </g>
    </g>
    <g id="ytick_22">
     <g id="line2d_58">
      <g>
       <use xlink:href="#m84f2d66b01" x="709.854545" y="588.84028" style="stroke: #000000; stroke-width: 0.8"/>
      </g>
     </g>
     <g id="text_55">
      <!-- 100 -->
      <g transform="translate(683.767045 592.639499) scale(0.1 -0.1)">
       <use xlink:href="#DejaVuSans-31"/>
       <use xlink:href="#DejaVuSans-30" x="63.623047"/>
       <use xlink:href="#DejaVuSans-30" x="127.246094"/>
      </g>
     </g>
    </g>
    <g id="ytick_23">
     <g id="line2d_59">
      <g>
       <use xlink:href="#m84f2d66b01" x="709.854545" y="534.916249" style="stroke: #000000; stroke-width: 0.8"/>
      </g>
     </g>
     <g id="text_56">
      <!-- 120 -->
      <g transform="translate(683.767045 538.715468) scale(0.1 -0.1)">
       <use xlink:href="#DejaVuSans-31"/>
       <use xlink:href="#DejaVuSans-32" x="63.623047"/>
       <use xlink:href="#DejaVuSans-30" x="127.246094"/>
      </g>
     </g>
    </g>
    <g id="ytick_24">
     <g id="line2d_60">
      <g>
       <use xlink:href="#m84f2d66b01" x="709.854545" y="480.992217" style="stroke: #000000; stroke-width: 0.8"/>
      </g>
     </g>
     <g id="text_57">
      <!-- 140 -->
      <g transform="translate(683.767045 484.791436) scale(0.1 -0.1)">
       <use xlink:href="#DejaVuSans-31"/>
       <use xlink:href="#DejaVuSans-34" x="63.623047"/>
       <use xlink:href="#DejaVuSans-30" x="127.246094"/>
      </g>
     </g>
    </g>
   </g>
   <g id="line2d_61">
    <path d="M 730.606612 480.305455 
L 734.798948 494.203301 
L 738.991285 515.704311 
L 743.183621 507.214357 
L 747.375958 515.299445 
L 751.568295 519.642203 
L 755.760631 558.813853 
L 759.952968 561.030621 
L 764.145304 585.033833 
L 768.337641 624.574043 
L 772.529977 594.827805 
L 776.722314 599.122058 
L 780.914651 687.956749 
L 785.106987 681.043104 
L 789.299324 707.404043 
L 793.49166 722.630582 
L 797.683997 738.406566 
L 801.876334 744.142196 
L 806.06867 738.548059 
L 810.261007 722.100545 
L 814.453343 746.493648 
L 818.64568 746.343742 
L 822.838017 739.150998 
L 827.030353 747.360155 
L 831.22269 746.206784 
L 835.415026 747.329289 
L 839.607363 746.159976 
L 843.799699 745.014206 
L 847.992036 748.615946 
L 852.184373 747.187066 
L 856.376709 746.615723 
L 860.569046 746.099746 
L 864.761382 746.132185 
L 868.953719 747.804167 
L 873.146056 746.701738 
L 877.338392 747.385549 
L 881.530729 748.010015 
L 885.723065 748.989114 
L 889.915402 745.589559 
L 894.107739 748.622025 
L 898.300075 746.024345 
L 902.492412 746.615271 
L 906.684748 748.021411 
L 910.877085 745.369364 
L 915.069421 747.896353 
L 919.261758 750.193942 
L 923.454095 748.289453 
L 927.646431 748.668627 
L 931.838768 746.910898 
L 936.031104 749.086556 
L 940.223441 746.712085 
L 944.415778 748.110275 
L 948.608114 747.84251 
L 952.800451 747.715056 
L 956.992787 746.822301 
L 961.185124 746.142923 
L 965.377461 748.167265 
L 969.569797 748.914176 
L 973.762134 747.723973 
L 977.95447 748.763107 
L 982.146807 747.991707 
L 986.339144 747.665646 
L 990.53148 748.938336 
L 994.723817 748.791628 
L 998.916153 749.646523 
L 1003.10849 747.006057 
L 1007.300826 748.010766 
L 1011.493163 749.427109 
L 1015.6855 749.057572 
L 1019.877836 749.490373 
L 1024.070173 748.654269 
L 1028.262509 747.748123 
L 1032.454846 750.07235 
L 1036.647183 750.808523 
L 1040.839519 748.582591 
L 1045.031856 748.610824 
L 1049.224192 748.455765 
L 1053.416529 749.929633 
L 1057.608866 750.18379 
L 1061.801202 749.029277 
L 1065.993539 749.181385 
L 1070.185875 749.424938 
L 1074.378212 747.501731 
L 1078.570548 749.979609 
L 1082.762885 748.204744 
L 1086.955222 750.600536 
L 1091.147558 749.710527 
L 1095.339895 750.103782 
L 1099.532231 749.446208 
L 1103.724568 748.208766 
L 1107.916905 749.209453 
L 1112.109241 750.816247 
L 1116.301578 749.880459 
L 1120.493914 748.133057 
L 1124.686251 749.686882 
L 1128.878588 750.969075 
L 1133.070924 750.553214 
L 1137.263261 750.860772 
L 1141.455597 753.022905 
L 1145.647934 751.568774 
" clip-path="url(#p621a4b9b81)" style="fill: none; stroke: #4169e1; stroke-linecap: square"/>
   </g>
   <g id="line2d_62">
    <path d="M 730.606612 495.075238 
L 734.798948 506.060565 
L 738.991285 534.149405 
L 743.183621 520.458991 
L 747.375958 533.420473 
L 751.568295 538.324433 
L 755.760631 585.864671 
L 759.952968 588.308885 
L 764.145304 617.397838 
L 768.337641 664.436303 
L 772.529977 633.291711 
L 776.722314 637.262885 
L 780.914651 725.025767 
L 785.106987 724.137465 
L 789.299324 738.654038 
L 793.49166 748.598729 
L 797.683997 752.064232 
L 801.876334 747.720785 
L 806.06867 750.997709 
L 810.261007 746.391506 
L 814.453343 753.054902 
L 818.64568 753.36858 
L 822.838017 749.502407 
L 827.030353 753.332561 
L 831.22269 751.262604 
L 835.415026 753.097225 
L 839.607363 753.063027 
L 843.799699 752.119587 
L 847.992036 753.856334 
L 852.184373 752.58384 
L 856.376709 751.636563 
L 860.569046 752.492106 
L 864.761382 754.432305 
L 868.953719 754.295409 
L 873.146056 749.566864 
L 877.338392 752.260504 
L 881.530729 754.39065 
L 885.723065 753.805114 
L 889.915402 753.766267 
L 894.107739 751.210407 
L 898.300075 753.961151 
L 902.492412 754.143127 
L 906.684748 754.225706 
L 910.877085 753.96401 
L 915.069421 753.610374 
L 919.261758 753.976887 
L 923.454095 753.420006 
L 927.646431 753.004227 
L 931.838768 753.804374 
L 936.031104 753.957993 
L 940.223441 752.535047 
L 944.415778 752.105023 
L 948.608114 753.578315 
L 952.800451 753.451581 
L 956.992787 752.540159 
L 961.185124 753.726566 
L 965.377461 752.58239 
L 969.569797 753.874868 
L 973.762134 754.039647 
L 977.95447 752.784638 
L 982.146807 753.393377 
L 986.339144 753.841277 
L 990.53148 753.474723 
L 994.723817 751.673199 
L 998.916153 750.053117 
L 1003.10849 754.271702 
L 1007.300826 753.142912 
L 1011.493163 753.733365 
L 1015.6855 753.684273 
L 1019.877836 754.975559 
L 1024.070173 754.787885 
L 1028.262509 752.30073 
L 1032.454846 755.214545 
L 1036.647183 753.723738 
L 1040.839519 754.241587 
L 1045.031856 754.035142 
L 1049.224192 753.010079 
L 1053.416529 754.195756 
L 1057.608866 753.76062 
L 1061.801202 754.132646 
L 1065.993539 753.826147 
L 1070.185875 750.699685 
L 1074.378212 754.137891 
L 1078.570548 752.879354 
L 1082.762885 754.700831 
L 1086.955222 754.431585 
L 1091.147558 749.373996 
L 1095.339895 754.180236 
L 1099.532231 753.560645 
L 1103.724568 753.122373 
L 1107.916905 754.306414 
L 1112.109241 754.180637 
L 1116.301578 753.605982 
L 1120.493914 754.612851 
L 1124.686251 753.169191 
L 1128.878588 752.963034 
L 1133.070924 755.187053 
L 1137.263261 754.732036 
L 1141.455597 753.111234 
L 1145.647934 755.022778 
" clip-path="url(#p621a4b9b81)" style="fill: none; stroke: #ff6347; stroke-linecap: square"/>
   </g>
   <g id="patch_21">
    <path d="M 709.854545 768.96 
L 709.854545 466.56 
" style="fill: none; stroke: #000000; stroke-width: 0.8; stroke-linejoin: miter; stroke-linecap: square"/>
   </g>
   <g id="patch_22">
    <path d="M 1166.4 768.96 
L 1166.4 466.56 
" style="fill: none; stroke: #000000; stroke-width: 0.8; stroke-linejoin: miter; stroke-linecap: square"/>
   </g>
   <g id="patch_23">
    <path d="M 709.854545 768.96 
L 1166.4 768.96 
" style="fill: none; stroke: #000000; stroke-width: 0.8; stroke-linejoin: miter; stroke-linecap: square"/>
   </g>
   <g id="patch_24">
    <path d="M 709.854545 466.56 
L 1166.4 466.56 
" style="fill: none; stroke: #000000; stroke-width: 0.8; stroke-linejoin: miter; stroke-linecap: square"/>
   </g>
   <g id="text_58">
    <!-- ROOT_MEAN_SQUARED_ERROR -->
    <g transform="translate(843.656335 460.56) scale(0.12 -0.12)">
     <defs>
      <path id="DejaVuSans-52" d="M 2841 2188 
Q 3044 2119 3236 1894 
Q 3428 1669 3622 1275 
L 4263 0 
L 3584 0 
L 2988 1197 
Q 2756 1666 2539 1819 
Q 2322 1972 1947 1972 
L 1259 1972 
L 1259 0 
L 628 0 
L 628 4666 
L 2053 4666 
Q 2853 4666 3247 4331 
Q 3641 3997 3641 3322 
Q 3641 2881 3436 2590 
Q 3231 2300 2841 2188 
z
M 1259 4147 
L 1259 2491 
L 2053 2491 
Q 2509 2491 2742 2702 
Q 2975 2913 2975 3322 
Q 2975 3731 2742 3939 
Q 2509 4147 2053 4147 
L 1259 4147 
z
" transform="scale(0.015625)"/>
      <path id="DejaVuSans-5f" d="M 3263 -1063 
L 3263 -1509 
L -63 -1509 
L -63 -1063 
L 3263 -1063 
z
" transform="scale(0.015625)"/>
      <path id="DejaVuSans-4e" d="M 628 4666 
L 1478 4666 
L 3547 763 
L 3547 4666 
L 4159 4666 
L 4159 0 
L 3309 0 
L 1241 3903 
L 1241 0 
L 628 0 
L 628 4666 
z
" transform="scale(0.015625)"/>
      <path id="DejaVuSans-51" d="M 2522 4238 
Q 1834 4238 1429 3725 
Q 1025 3213 1025 2328 
Q 1025 1447 1429 934 
Q 1834 422 2522 422 
Q 3209 422 3611 934 
Q 4013 1447 4013 2328 
Q 4013 3213 3611 3725 
Q 3209 4238 2522 4238 
z
M 3406 84 
L 4238 -825 
L 3475 -825 
L 2784 -78 
Q 2681 -84 2626 -87 
Q 2572 -91 2522 -91 
Q 1538 -91 948 567 
Q 359 1225 359 2328 
Q 359 3434 948 4092 
Q 1538 4750 2522 4750 
Q 3503 4750 4090 4092 
Q 4678 3434 4678 2328 
Q 4678 1516 4351 937 
Q 4025 359 3406 84 
z
" transform="scale(0.015625)"/>
      <path id="DejaVuSans-55" d="M 556 4666 
L 1191 4666 
L 1191 1831 
Q 1191 1081 1462 751 
Q 1734 422 2344 422 
Q 2950 422 3222 751 
Q 3494 1081 3494 1831 
L 3494 4666 
L 4128 4666 
L 4128 1753 
Q 4128 841 3676 375 
Q 3225 -91 2344 -91 
Q 1459 -91 1007 375 
Q 556 841 556 1753 
L 556 4666 
z
" transform="scale(0.015625)"/>
      <path id="DejaVuSans-44" d="M 1259 4147 
L 1259 519 
L 2022 519 
Q 2988 519 3436 956 
Q 3884 1394 3884 2338 
Q 3884 3275 3436 3711 
Q 2988 4147 2022 4147 
L 1259 4147 
z
M 628 4666 
L 1925 4666 
Q 3281 4666 3915 4102 
Q 4550 3538 4550 2338 
Q 4550 1131 3912 565 
Q 3275 0 1925 0 
L 628 0 
L 628 4666 
z
" transform="scale(0.015625)"/>
     </defs>
     <use xlink:href="#DejaVuSans-52"/>
     <use xlink:href="#DejaVuSans-4f" x="69.482422"/>
     <use xlink:href="#DejaVuSans-4f" x="148.193359"/>
     <use xlink:href="#DejaVuSans-54" x="226.904297"/>
     <use xlink:href="#DejaVuSans-5f" x="287.988281"/>
     <use xlink:href="#DejaVuSans-4d" x="337.988281"/>
     <use xlink:href="#DejaVuSans-45" x="424.267578"/>
     <use xlink:href="#DejaVuSans-41" x="487.451172"/>
     <use xlink:href="#DejaVuSans-4e" x="555.859375"/>
     <use xlink:href="#DejaVuSans-5f" x="630.664062"/>
     <use xlink:href="#DejaVuSans-53" x="680.664062"/>
     <use xlink:href="#DejaVuSans-51" x="744.140625"/>
     <use xlink:href="#DejaVuSans-55" x="822.851562"/>
     <use xlink:href="#DejaVuSans-41" x="896.044922"/>
     <use xlink:href="#DejaVuSans-52" x="964.453125"/>
     <use xlink:href="#DejaVuSans-45" x="1033.935547"/>
     <use xlink:href="#DejaVuSans-44" x="1097.119141"/>
     <use xlink:href="#DejaVuSans-5f" x="1174.121094"/>
     <use xlink:href="#DejaVuSans-45" x="1224.121094"/>
     <use xlink:href="#DejaVuSans-52" x="1287.304688"/>
     <use xlink:href="#DejaVuSans-52" x="1356.787109"/>
     <use xlink:href="#DejaVuSans-4f" x="1426.269531"/>
     <use xlink:href="#DejaVuSans-52" x="1504.980469"/>
    </g>
   </g>
   <g id="legend_4">
    <g id="patch_25">
     <path d="M 1078.01875 503.91625 
L 1159.4 503.91625 
Q 1161.4 503.91625 1161.4 501.91625 
L 1161.4 473.56 
Q 1161.4 471.56 1159.4 471.56 
L 1078.01875 471.56 
Q 1076.01875 471.56 1076.01875 473.56 
L 1076.01875 501.91625 
Q 1076.01875 503.91625 1078.01875 503.91625 
z
" style="fill: #ffffff; opacity: 0.8; stroke: #cccccc; stroke-linejoin: miter"/>
    </g>
    <g id="line2d_63">
     <path d="M 1080.01875 479.658437 
L 1090.01875 479.658437 
L 1100.01875 479.658437 
" style="fill: none; stroke: #4169e1; stroke-linecap: square"/>
    </g>
    <g id="text_59">
     <!-- Training -->
     <g transform="translate(1108.01875 483.158437) scale(0.1 -0.1)">
      <use xlink:href="#DejaVuSans-54"/>
      <use xlink:href="#DejaVuSans-72" x="46.333984"/>
      <use xlink:href="#DejaVuSans-61" x="87.447266"/>
      <use xlink:href="#DejaVuSans-69" x="148.726562"/>
      <use xlink:href="#DejaVuSans-6e" x="176.509766"/>
      <use xlink:href="#DejaVuSans-69" x="239.888672"/>
      <use xlink:href="#DejaVuSans-6e" x="267.671875"/>
      <use xlink:href="#DejaVuSans-67" x="331.050781"/>
     </g>
    </g>
    <g id="line2d_64">
     <path d="M 1080.01875 494.336563 
L 1090.01875 494.336563 
L 1100.01875 494.336563 
" style="fill: none; stroke: #ff6347; stroke-linecap: square"/>
    </g>
    <g id="text_60">
     <!-- Validation -->
     <g transform="translate(1108.01875 497.836563) scale(0.1 -0.1)">
      <use xlink:href="#DejaVuSans-56"/>
      <use xlink:href="#DejaVuSans-61" x="60.658203"/>
      <use xlink:href="#DejaVuSans-6c" x="121.9375"/>
      <use xlink:href="#DejaVuSans-69" x="149.720703"/>
      <use xlink:href="#DejaVuSans-64" x="177.503906"/>
      <use xlink:href="#DejaVuSans-61" x="240.980469"/>
      <use xlink:href="#DejaVuSans-74" x="302.259766"/>
      <use xlink:href="#DejaVuSans-69" x="341.46875"/>
      <use xlink:href="#DejaVuSans-6f" x="369.251953"/>
      <use xlink:href="#DejaVuSans-6e" x="430.433594"/>
     </g>
    </g>
   </g>
  </g>
 </g>
 <defs>
  <clipPath id="pc630b34ef8">
   <rect x="162" y="103.68" width="456.545455" height="302.4"/>
  </clipPath>
  <clipPath id="p140bacd928">
   <rect x="709.854545" y="103.68" width="456.545455" height="302.4"/>
  </clipPath>
  <clipPath id="p62f68ff33d">
   <rect x="162" y="466.56" width="456.545455" height="302.4"/>
  </clipPath>
  <clipPath id="p621a4b9b81">
   <rect x="709.854545" y="466.56" width="456.545455" height="302.4"/>
  </clipPath>
 </defs>
</svg>
