<?xml version="1.0" encoding="utf-8" standalone="no"?>
<!DOCTYPE svg PUBLIC "-//W3C//DTD SVG 1.1//EN"
  "http://www.w3.org/Graphics/SVG/1.1/DTD/svg11.dtd">
<svg xmlns:xlink="http://www.w3.org/1999/xlink" width="1296pt" height="864pt" viewBox="0 0 1296 864" xmlns="http://www.w3.org/2000/svg" version="1.1">
 <metadata>
  <rdf:RDF xmlns:dc="http://purl.org/dc/elements/1.1/" xmlns:cc="http://creativecommons.org/ns#" xmlns:rdf="http://www.w3.org/1999/02/22-rdf-syntax-ns#">
   <cc:Work>
    <dc:type rdf:resource="http://purl.org/dc/dcmitype/StillImage"/>
    <dc:date>2023-12-24T17:34:34.164554</dc:date>
    <dc:format>image/svg+xml</dc:format>
    <dc:creator>
     <cc:Agent>
      <dc:title>Matplotlib v3.8.0, https://matplotlib.org/</dc:title>
     </cc:Agent>
    </dc:creator>
   </cc:Work>
  </rdf:RDF>
 </metadata>
 <defs>
  <style type="text/css">*{stroke-linejoin: round; stroke-linecap: butt}</style>
 </defs>
 <g id="figure_1">
  <g id="patch_1">
   <path d="M 0 864 
L 1296 864 
L 1296 0 
L 0 0 
z
" style="fill: #ffffff"/>
  </g>
  <g id="axes_1">
   <g id="patch_2">
    <path d="M 162 768.96 
L 1166.4 768.96 
L 1166.4 103.68 
L 162 103.68 
z
" style="fill: #ffffff"/>
   </g>
   <g id="matplotlib.axis_1">
    <g id="xtick_1">
     <g id="line2d_1">
      <defs>
       <path id="m49711b9f1c" d="M 0 0 
L 0 3.5 
" style="stroke: #000000; stroke-width: 0.8"/>
      </defs>
      <g>
       <use xlink:href="#m49711b9f1c" x="207.654545" y="768.96" style="stroke: #000000; stroke-width: 0.8"/>
      </g>
     </g>
     <g id="text_1">
      <!-- 0 -->
      <g transform="translate(204.473295 783.558437) scale(0.1 -0.1)">
       <defs>
        <path id="DejaVuSans-30" d="M 2034 4250 
Q 1547 4250 1301 3770 
Q 1056 3291 1056 2328 
Q 1056 1369 1301 889 
Q 1547 409 2034 409 
Q 2525 409 2770 889 
Q 3016 1369 3016 2328 
Q 3016 3291 2770 3770 
Q 2525 4250 2034 4250 
z
M 2034 4750 
Q 2819 4750 3233 4129 
Q 3647 3509 3647 2328 
Q 3647 1150 3233 529 
Q 2819 -91 2034 -91 
Q 1250 -91 836 529 
Q 422 1150 422 2328 
Q 422 3509 836 4129 
Q 1250 4750 2034 4750 
z
" transform="scale(0.015625)"/>
       </defs>
       <use xlink:href="#DejaVuSans-30"/>
      </g>
     </g>
    </g>
    <g id="xtick_2">
     <g id="line2d_2">
      <g>
       <use xlink:href="#m49711b9f1c" x="390.638696" y="768.96" style="stroke: #000000; stroke-width: 0.8"/>
      </g>
     </g>
     <g id="text_2">
      <!-- 100 -->
      <g transform="translate(381.094946 783.558437) scale(0.1 -0.1)">
       <defs>
        <path id="DejaVuSans-31" d="M 794 531 
L 1825 531 
L 1825 4091 
L 703 3866 
L 703 4441 
L 1819 4666 
L 2450 4666 
L 2450 531 
L 3481 531 
L 3481 0 
L 794 0 
L 794 531 
z
" transform="scale(0.015625)"/>
       </defs>
       <use xlink:href="#DejaVuSans-31"/>
       <use xlink:href="#DejaVuSans-30" x="63.623047"/>
       <use xlink:href="#DejaVuSans-30" x="127.246094"/>
      </g>
     </g>
    </g>
    <g id="xtick_3">
     <g id="line2d_3">
      <g>
       <use xlink:href="#m49711b9f1c" x="573.622846" y="768.96" style="stroke: #000000; stroke-width: 0.8"/>
      </g>
     </g>
     <g id="text_3">
      <!-- 200 -->
      <g transform="translate(564.079096 783.558437) scale(0.1 -0.1)">
       <defs>
        <path id="DejaVuSans-32" d="M 1228 531 
L 3431 531 
L 3431 0 
L 469 0 
L 469 531 
Q 828 903 1448 1529 
Q 2069 2156 2228 2338 
Q 2531 2678 2651 2914 
Q 2772 3150 2772 3378 
Q 2772 3750 2511 3984 
Q 2250 4219 1831 4219 
Q 1534 4219 1204 4116 
Q 875 4013 500 3803 
L 500 4441 
Q 881 4594 1212 4672 
Q 1544 4750 1819 4750 
Q 2544 4750 2975 4387 
Q 3406 4025 3406 3419 
Q 3406 3131 3298 2873 
Q 3191 2616 2906 2266 
Q 2828 2175 2409 1742 
Q 1991 1309 1228 531 
z
" transform="scale(0.015625)"/>
       </defs>
       <use xlink:href="#DejaVuSans-32"/>
       <use xlink:href="#DejaVuSans-30" x="63.623047"/>
       <use xlink:href="#DejaVuSans-30" x="127.246094"/>
      </g>
     </g>
    </g>
    <g id="xtick_4">
     <g id="line2d_4">
      <g>
       <use xlink:href="#m49711b9f1c" x="756.606996" y="768.96" style="stroke: #000000; stroke-width: 0.8"/>
      </g>
     </g>
     <g id="text_4">
      <!-- 300 -->
      <g transform="translate(747.063246 783.558437) scale(0.1 -0.1)">
       <defs>
        <path id="DejaVuSans-33" d="M 2597 2516 
Q 3050 2419 3304 2112 
Q 3559 1806 3559 1356 
Q 3559 666 3084 287 
Q 2609 -91 1734 -91 
Q 1441 -91 1130 -33 
Q 819 25 488 141 
L 488 750 
Q 750 597 1062 519 
Q 1375 441 1716 441 
Q 2309 441 2620 675 
Q 2931 909 2931 1356 
Q 2931 1769 2642 2001 
Q 2353 2234 1838 2234 
L 1294 2234 
L 1294 2753 
L 1863 2753 
Q 2328 2753 2575 2939 
Q 2822 3125 2822 3475 
Q 2822 3834 2567 4026 
Q 2313 4219 1838 4219 
Q 1578 4219 1281 4162 
Q 984 4106 628 3988 
L 628 4550 
Q 988 4650 1302 4700 
Q 1616 4750 1894 4750 
Q 2613 4750 3031 4423 
Q 3450 4097 3450 3541 
Q 3450 3153 3228 2886 
Q 3006 2619 2597 2516 
z
" transform="scale(0.015625)"/>
       </defs>
       <use xlink:href="#DejaVuSans-33"/>
       <use xlink:href="#DejaVuSans-30" x="63.623047"/>
       <use xlink:href="#DejaVuSans-30" x="127.246094"/>
      </g>
     </g>
    </g>
    <g id="xtick_5">
     <g id="line2d_5">
      <g>
       <use xlink:href="#m49711b9f1c" x="939.591146" y="768.96" style="stroke: #000000; stroke-width: 0.8"/>
      </g>
     </g>
     <g id="text_5">
      <!-- 400 -->
      <g transform="translate(930.047396 783.558437) scale(0.1 -0.1)">
       <defs>
        <path id="DejaVuSans-34" d="M 2419 4116 
L 825 1625 
L 2419 1625 
L 2419 4116 
z
M 2253 4666 
L 3047 4666 
L 3047 1625 
L 3713 1625 
L 3713 1100 
L 3047 1100 
L 3047 0 
L 2419 0 
L 2419 1100 
L 313 1100 
L 313 1709 
L 2253 4666 
z
" transform="scale(0.015625)"/>
       </defs>
       <use xlink:href="#DejaVuSans-34"/>
       <use xlink:href="#DejaVuSans-30" x="63.623047"/>
       <use xlink:href="#DejaVuSans-30" x="127.246094"/>
      </g>
     </g>
    </g>
    <g id="xtick_6">
     <g id="line2d_6">
      <g>
       <use xlink:href="#m49711b9f1c" x="1122.575296" y="768.96" style="stroke: #000000; stroke-width: 0.8"/>
      </g>
     </g>
     <g id="text_6">
      <!-- 500 -->
      <g transform="translate(1113.031546 783.558437) scale(0.1 -0.1)">
       <defs>
        <path id="DejaVuSans-35" d="M 691 4666 
L 3169 4666 
L 3169 4134 
L 1269 4134 
L 1269 2991 
Q 1406 3038 1543 3061 
Q 1681 3084 1819 3084 
Q 2600 3084 3056 2656 
Q 3513 2228 3513 1497 
Q 3513 744 3044 326 
Q 2575 -91 1722 -91 
Q 1428 -91 1123 -41 
Q 819 9 494 109 
L 494 744 
Q 775 591 1075 516 
Q 1375 441 1709 441 
Q 2250 441 2565 725 
Q 2881 1009 2881 1497 
Q 2881 1984 2565 2268 
Q 2250 2553 1709 2553 
Q 1456 2553 1204 2497 
Q 953 2441 691 2322 
L 691 4666 
z
" transform="scale(0.015625)"/>
       </defs>
       <use xlink:href="#DejaVuSans-35"/>
       <use xlink:href="#DejaVuSans-30" x="63.623047"/>
       <use xlink:href="#DejaVuSans-30" x="127.246094"/>
      </g>
     </g>
    </g>
   </g>
   <g id="matplotlib.axis_2">
    <g id="ytick_1">
     <g id="line2d_7">
      <defs>
       <path id="maf69440279" d="M 0 0 
L -3.5 0 
" style="stroke: #000000; stroke-width: 0.8"/>
      </defs>
      <g>
       <use xlink:href="#maf69440279" x="162" y="738.72" style="stroke: #000000; stroke-width: 0.8"/>
      </g>
     </g>
     <g id="text_7">
      <!-- 0 -->
      <g transform="translate(148.6375 742.519219) scale(0.1 -0.1)">
       <use xlink:href="#DejaVuSans-30"/>
      </g>
     </g>
    </g>
    <g id="ytick_2">
     <g id="line2d_8">
      <g>
       <use xlink:href="#maf69440279" x="162" y="628.337723" style="stroke: #000000; stroke-width: 0.8"/>
      </g>
     </g>
     <g id="text_8">
      <!-- 20 -->
      <g transform="translate(142.275 632.136942) scale(0.1 -0.1)">
       <use xlink:href="#DejaVuSans-32"/>
       <use xlink:href="#DejaVuSans-30" x="63.623047"/>
      </g>
     </g>
    </g>
    <g id="ytick_3">
     <g id="line2d_9">
      <g>
       <use xlink:href="#maf69440279" x="162" y="517.955446" style="stroke: #000000; stroke-width: 0.8"/>
      </g>
     </g>
     <g id="text_9">
      <!-- 40 -->
      <g transform="translate(142.275 521.754665) scale(0.1 -0.1)">
       <use xlink:href="#DejaVuSans-34"/>
       <use xlink:href="#DejaVuSans-30" x="63.623047"/>
      </g>
     </g>
    </g>
    <g id="ytick_4">
     <g id="line2d_10">
      <g>
       <use xlink:href="#maf69440279" x="162" y="407.57317" style="stroke: #000000; stroke-width: 0.8"/>
      </g>
     </g>
     <g id="text_10">
      <!-- 60 -->
      <g transform="translate(142.275 411.372388) scale(0.1 -0.1)">
       <defs>
        <path id="DejaVuSans-36" d="M 2113 2584 
Q 1688 2584 1439 2293 
Q 1191 2003 1191 1497 
Q 1191 994 1439 701 
Q 1688 409 2113 409 
Q 2538 409 2786 701 
Q 3034 994 3034 1497 
Q 3034 2003 2786 2293 
Q 2538 2584 2113 2584 
z
M 3366 4563 
L 3366 3988 
Q 3128 4100 2886 4159 
Q 2644 4219 2406 4219 
Q 1781 4219 1451 3797 
Q 1122 3375 1075 2522 
Q 1259 2794 1537 2939 
Q 1816 3084 2150 3084 
Q 2853 3084 3261 2657 
Q 3669 2231 3669 1497 
Q 3669 778 3244 343 
Q 2819 -91 2113 -91 
Q 1303 -91 875 529 
Q 447 1150 447 2328 
Q 447 3434 972 4092 
Q 1497 4750 2381 4750 
Q 2619 4750 2861 4703 
Q 3103 4656 3366 4563 
z
" transform="scale(0.015625)"/>
       </defs>
       <use xlink:href="#DejaVuSans-36"/>
       <use xlink:href="#DejaVuSans-30" x="63.623047"/>
      </g>
     </g>
    </g>
    <g id="ytick_5">
     <g id="line2d_11">
      <g>
       <use xlink:href="#maf69440279" x="162" y="297.190893" style="stroke: #000000; stroke-width: 0.8"/>
      </g>
     </g>
     <g id="text_11">
      <!-- 80 -->
      <g transform="translate(142.275 300.990112) scale(0.1 -0.1)">
       <defs>
        <path id="DejaVuSans-38" d="M 2034 2216 
Q 1584 2216 1326 1975 
Q 1069 1734 1069 1313 
Q 1069 891 1326 650 
Q 1584 409 2034 409 
Q 2484 409 2743 651 
Q 3003 894 3003 1313 
Q 3003 1734 2745 1975 
Q 2488 2216 2034 2216 
z
M 1403 2484 
Q 997 2584 770 2862 
Q 544 3141 544 3541 
Q 544 4100 942 4425 
Q 1341 4750 2034 4750 
Q 2731 4750 3128 4425 
Q 3525 4100 3525 3541 
Q 3525 3141 3298 2862 
Q 3072 2584 2669 2484 
Q 3125 2378 3379 2068 
Q 3634 1759 3634 1313 
Q 3634 634 3220 271 
Q 2806 -91 2034 -91 
Q 1263 -91 848 271 
Q 434 634 434 1313 
Q 434 1759 690 2068 
Q 947 2378 1403 2484 
z
M 1172 3481 
Q 1172 3119 1398 2916 
Q 1625 2713 2034 2713 
Q 2441 2713 2670 2916 
Q 2900 3119 2900 3481 
Q 2900 3844 2670 4047 
Q 2441 4250 2034 4250 
Q 1625 4250 1398 4047 
Q 1172 3844 1172 3481 
z
" transform="scale(0.015625)"/>
       </defs>
       <use xlink:href="#DejaVuSans-38"/>
       <use xlink:href="#DejaVuSans-30" x="63.623047"/>
      </g>
     </g>
    </g>
    <g id="ytick_6">
     <g id="line2d_12">
      <g>
       <use xlink:href="#maf69440279" x="162" y="186.808616" style="stroke: #000000; stroke-width: 0.8"/>
      </g>
     </g>
     <g id="text_12">
      <!-- 100 -->
      <g transform="translate(135.9125 190.607835) scale(0.1 -0.1)">
       <use xlink:href="#DejaVuSans-31"/>
       <use xlink:href="#DejaVuSans-30" x="63.623047"/>
       <use xlink:href="#DejaVuSans-30" x="127.246094"/>
      </g>
     </g>
    </g>
   </g>
   <g id="line2d_13">
    <path d="M 207.654545 341.343804 
L 209.484387 666.97152 
L 211.314228 711.124431 
L 213.14407 689.047975 
L 214.973911 683.528862 
L 216.803753 606.261268 
L 218.633594 650.414179 
L 220.463436 722.162658 
L 222.293277 666.97152 
L 224.123119 672.490634 
L 225.95296 689.047975 
L 227.782802 672.490634 
L 229.612643 733.200886 
L 231.442485 606.261268 
L 233.272326 622.818609 
L 235.102168 733.200886 
L 236.932009 644.895065 
L 238.761851 661.452406 
L 240.591692 368.939373 
L 242.421534 501.398105 
L 244.251375 402.054056 
L 246.081217 396.534942 
L 247.911058 236.480641 
L 249.7409 236.480641 
L 251.570741 418.611397 
L 253.400583 236.480641 
L 255.230424 440.687853 
L 257.060266 313.748234 
L 258.890107 241.999755 
L 260.719949 236.480641 
L 268.039315 236.480641 
L 269.869156 368.939373 
L 271.698998 379.977601 
L 273.528839 462.764308 
L 275.358681 374.458487 
L 277.188522 357.901145 
L 279.018364 291.671779 
L 280.848206 291.671779 
L 282.678047 236.480641 
L 284.507889 495.878991 
L 286.33773 341.343804 
L 288.167572 236.480641 
L 289.997413 302.710007 
L 291.827255 236.480641 
L 299.146621 236.480641 
L 300.976462 407.57317 
L 302.806304 286.152665 
L 304.636145 341.343804 
L 306.465987 567.627471 
L 308.295828 236.480641 
L 310.12567 556.589243 
L 311.955511 517.955446 
L 313.785353 335.82469 
L 315.615194 236.480641 
L 317.445036 236.480641 
L 319.274877 611.780382 
L 321.104719 468.283422 
L 322.93456 501.398105 
L 324.764402 468.283422 
L 326.594243 291.671779 
L 328.424085 551.07013 
L 330.253926 528.993674 
L 332.083768 545.551016 
L 333.913609 528.993674 
L 335.743451 567.627471 
L 337.573292 517.955446 
L 339.403134 528.993674 
L 341.232975 457.245194 
L 343.062817 335.82469 
L 344.892658 523.47456 
L 346.7225 446.206967 
L 348.552341 534.512788 
L 350.382183 506.917219 
L 352.212024 468.283422 
L 354.041866 468.283422 
L 355.871707 528.993674 
L 357.701549 517.955446 
L 359.53139 551.07013 
L 361.361232 484.840763 
L 363.191073 413.092284 
L 365.020915 495.878991 
L 366.850756 407.57317 
L 368.680598 236.480641 
L 370.510439 385.496714 
L 372.340281 253.037982 
L 374.170122 236.480641 
L 379.659647 236.480641 
L 381.489488 396.534942 
L 383.31933 346.862918 
L 385.149171 352.382031 
L 386.979013 236.480641 
L 397.958062 236.480641 
L 399.787903 368.939373 
L 401.617745 236.480641 
L 403.447586 247.518868 
L 405.277428 418.611397 
L 407.107269 335.82469 
L 408.937111 506.917219 
L 410.766952 628.337723 
L 412.596794 578.665699 
L 414.426635 479.32165 
L 416.256477 655.933292 
L 418.086318 683.528862 
L 419.91616 600.742154 
L 421.746001 578.665699 
L 423.575843 506.917219 
L 425.405684 573.146585 
L 427.235526 429.649625 
L 429.065367 727.681772 
L 430.895209 490.359877 
L 432.72505 479.32165 
L 434.554892 346.862918 
L 436.384733 600.742154 
L 438.214575 506.917219 
L 440.044416 506.917219 
L 441.874258 578.665699 
L 443.704099 506.917219 
L 445.533941 655.933292 
L 447.363782 379.977601 
L 449.193624 506.917219 
L 451.023465 479.32165 
L 452.853307 595.22304 
L 454.683148 628.337723 
L 458.342831 573.146585 
L 460.172673 556.589243 
L 462.002514 495.878991 
L 463.832356 666.97152 
L 465.662197 523.47456 
L 467.492039 490.359877 
L 469.32188 589.703926 
L 471.151722 600.742154 
L 472.981563 689.047975 
L 474.811405 528.993674 
L 476.641246 650.414179 
L 478.471088 705.605317 
L 480.300929 655.933292 
L 482.130771 705.605317 
L 483.960612 683.528862 
L 485.790454 639.375951 
L 487.620295 562.108357 
L 489.450137 622.818609 
L 491.279978 694.567089 
L 493.10982 584.184813 
L 494.939661 540.031902 
L 496.769503 512.436333 
L 498.599344 528.993674 
L 500.429186 595.22304 
L 502.259027 534.512788 
L 504.088869 595.22304 
L 505.91871 573.146585 
L 507.748552 578.665699 
L 509.578393 534.512788 
L 511.408235 584.184813 
L 513.238076 540.031902 
L 515.067918 512.436333 
L 516.897759 689.047975 
L 518.727601 683.528862 
L 520.557442 694.567089 
L 522.387284 622.818609 
L 524.217125 528.993674 
L 526.046967 584.184813 
L 527.876808 551.07013 
L 529.70665 545.551016 
L 531.536491 611.780382 
L 533.366333 727.681772 
L 535.196174 733.200886 
L 537.026016 689.047975 
L 538.855857 689.047975 
L 540.685699 528.993674 
L 542.51554 644.895065 
L 544.345382 716.643545 
L 546.175223 650.414179 
L 548.005065 661.452406 
L 549.834906 628.337723 
L 551.664748 738.72 
L 553.494589 700.086203 
L 555.324431 672.490634 
L 557.154272 650.414179 
L 558.984114 689.047975 
L 560.813955 705.605317 
L 562.643797 683.528862 
L 564.473638 556.589243 
L 566.30348 655.933292 
L 568.133321 517.955446 
L 569.963163 633.856837 
L 571.793004 716.643545 
L 573.622846 711.124431 
L 575.452687 689.047975 
L 577.282529 727.681772 
L 579.11237 661.452406 
L 580.942212 700.086203 
L 582.772053 694.567089 
L 584.601895 705.605317 
L 586.431736 506.917219 
L 588.261578 672.490634 
L 590.091419 473.802536 
L 591.921261 319.267348 
L 593.751102 462.764308 
L 595.580944 418.611397 
L 597.410785 346.862918 
L 599.240627 236.480641 
L 601.070468 407.57317 
L 602.90031 517.955446 
L 604.730151 330.305576 
L 606.559993 236.480641 
L 608.389834 402.054056 
L 610.219676 429.649625 
L 612.049517 379.977601 
L 613.879359 236.480641 
L 615.7092 335.82469 
L 617.539042 446.206967 
L 619.368883 374.458487 
L 621.198725 379.977601 
L 623.028566 236.480641 
L 624.858408 335.82469 
L 626.688249 341.343804 
L 628.518091 451.72608 
L 630.347932 407.57317 
L 632.177774 446.206967 
L 634.007615 391.015828 
L 635.837457 236.480641 
L 637.667298 440.687853 
L 639.49714 236.480641 
L 644.986664 236.480641 
L 646.816506 352.382031 
L 648.646347 341.343804 
L 650.476189 236.480641 
L 652.30603 236.480641 
L 654.135872 291.671779 
L 655.965713 490.359877 
L 657.795555 495.878991 
L 659.625396 264.07621 
L 661.455238 341.343804 
L 663.285079 424.130511 
L 665.114921 236.480641 
L 666.944762 236.480641 
L 668.774604 352.382031 
L 670.604445 407.57317 
L 672.434287 236.480641 
L 674.264128 468.283422 
L 676.09397 374.458487 
L 677.923811 391.015828 
L 679.753653 424.130511 
L 681.583494 512.436333 
L 683.413336 589.703926 
L 685.243177 639.375951 
L 687.073019 551.07013 
L 688.90286 556.589243 
L 690.732702 534.512788 
L 692.562543 650.414179 
L 694.392385 534.512788 
L 696.222226 534.512788 
L 698.052068 479.32165 
L 699.881909 617.299496 
L 701.711751 479.32165 
L 703.541592 589.703926 
L 705.371434 589.703926 
L 707.201275 584.184813 
L 709.031117 611.780382 
L 710.860958 545.551016 
L 712.6908 689.047975 
L 714.520641 705.605317 
L 716.350483 528.993674 
L 718.180324 528.993674 
L 720.010166 578.665699 
L 721.840007 655.933292 
L 725.49969 374.458487 
L 727.329532 313.748234 
L 729.159373 319.267348 
L 730.989215 363.420259 
L 732.819056 694.567089 
L 734.648898 617.299496 
L 736.478739 705.605317 
L 738.308581 611.780382 
L 740.138422 711.124431 
L 741.968264 666.97152 
L 743.798105 567.627471 
L 745.627947 628.337723 
L 747.457788 733.200886 
L 749.28763 683.528862 
L 751.117471 644.895065 
L 752.947313 722.162658 
L 754.777154 700.086203 
L 756.606996 534.512788 
L 758.436837 711.124431 
L 760.266679 644.895065 
L 762.09652 584.184813 
L 763.926362 484.840763 
L 765.756203 468.283422 
L 767.586045 363.420259 
L 769.415886 396.534942 
L 771.245728 236.480641 
L 773.075569 319.267348 
L 774.905411 236.480641 
L 776.735252 241.999755 
L 778.565094 258.557096 
L 780.394935 236.480641 
L 782.224777 236.480641 
L 784.054618 363.420259 
L 785.88446 391.015828 
L 787.714301 236.480641 
L 789.544143 341.343804 
L 791.373984 236.480641 
L 793.203826 286.152665 
L 795.033667 297.190893 
L 796.863509 363.420259 
L 798.69335 236.480641 
L 800.523192 236.480641 
L 802.353033 324.786462 
L 804.182875 236.480641 
L 806.012716 413.092284 
L 807.842558 440.687853 
L 809.672399 236.480641 
L 813.332082 236.480641 
L 815.161924 264.07621 
L 816.991765 236.480641 
L 822.48129 236.480641 
L 824.311131 319.267348 
L 826.140973 302.710007 
L 827.970814 391.015828 
L 829.800656 236.480641 
L 831.630497 446.206967 
L 833.460339 435.168739 
L 837.120022 236.480641 
L 838.949863 385.496714 
L 840.779705 501.398105 
L 842.609546 236.480641 
L 844.439388 495.878991 
L 846.269229 468.283422 
L 848.099071 330.305576 
L 849.928912 462.764308 
L 851.758754 650.414179 
L 853.588595 528.993674 
L 855.418437 512.436333 
L 857.248278 551.07013 
L 859.07812 446.206967 
L 860.907961 644.895065 
L 862.737803 413.092284 
L 864.567644 534.512788 
L 866.397486 606.261268 
L 868.227327 551.07013 
L 870.057169 644.895065 
L 871.88701 617.299496 
L 873.716852 595.22304 
L 875.546693 633.856837 
L 877.376535 457.245194 
L 879.206376 595.22304 
L 881.036218 584.184813 
L 882.866059 540.031902 
L 884.695901 457.245194 
L 886.525742 534.512788 
L 888.355584 545.551016 
L 890.185425 639.375951 
L 892.015267 562.108357 
L 893.845108 534.512788 
L 895.67495 606.261268 
L 897.504791 611.780382 
L 899.334633 523.47456 
L 901.164474 534.512788 
L 902.994316 523.47456 
L 904.824157 600.742154 
L 906.653999 490.359877 
L 908.48384 666.97152 
L 910.313682 600.742154 
L 912.143523 600.742154 
L 913.973365 595.22304 
L 915.803206 661.452406 
L 917.633048 512.436333 
L 919.462889 573.146585 
L 921.292731 711.124431 
L 923.122572 584.184813 
L 924.952414 666.97152 
L 926.782255 705.605317 
L 928.612097 562.108357 
L 930.441938 705.605317 
L 932.27178 578.665699 
L 934.101621 490.359877 
L 935.931463 617.299496 
L 937.761304 357.901145 
L 939.591146 308.229121 
L 941.420987 556.589243 
L 943.250829 495.878991 
L 945.08067 418.611397 
L 946.910512 457.245194 
L 948.740353 490.359877 
L 950.570195 540.031902 
L 952.400036 468.283422 
L 954.229878 236.480641 
L 968.86861 236.480641 
L 970.698451 280.633551 
L 972.528293 236.480641 
L 974.358134 330.305576 
L 976.187976 236.480641 
L 978.017817 611.780382 
L 979.847659 269.595324 
L 981.6775 584.184813 
L 983.507342 236.480641 
L 985.337183 551.07013 
L 987.167025 385.496714 
L 988.996866 368.939373 
L 990.826708 291.671779 
L 992.656549 236.480641 
L 996.316232 236.480641 
L 998.146074 241.999755 
L 999.975915 286.152665 
L 1001.805757 446.206967 
L 1003.635598 451.72608 
L 1005.46544 435.168739 
L 1007.295281 363.420259 
L 1009.125123 335.82469 
L 1010.954964 280.633551 
L 1012.784806 335.82469 
L 1014.614647 280.633551 
L 1016.444489 357.901145 
L 1018.27433 418.611397 
L 1020.104172 379.977601 
L 1021.934013 236.480641 
L 1023.763855 236.480641 
L 1025.593696 413.092284 
L 1027.423538 468.283422 
L 1029.253379 429.649625 
L 1031.083221 236.480641 
L 1032.913062 528.993674 
L 1034.742904 258.557096 
L 1036.572745 457.245194 
L 1038.402587 253.037982 
L 1040.232428 335.82469 
L 1042.06227 512.436333 
L 1043.892111 346.862918 
L 1045.721953 379.977601 
L 1047.551794 512.436333 
L 1049.381636 429.649625 
L 1051.211478 363.420259 
L 1053.041319 440.687853 
L 1054.871161 352.382031 
L 1056.701002 407.57317 
L 1058.530844 595.22304 
L 1062.190527 236.480641 
L 1065.85021 236.480641 
L 1067.680051 341.343804 
L 1069.509893 236.480641 
L 1071.339734 308.229121 
L 1073.169576 236.480641 
L 1074.999417 236.480641 
L 1076.829259 330.305576 
L 1078.6591 236.480641 
L 1093.297832 236.480641 
L 1095.127674 391.015828 
L 1096.957515 236.480641 
L 1098.787357 407.57317 
L 1100.617198 236.480641 
L 1102.44704 363.420259 
L 1104.276881 280.633551 
L 1106.106723 512.436333 
L 1107.936564 363.420259 
L 1109.766406 617.299496 
L 1111.596247 495.878991 
L 1113.426089 545.551016 
L 1115.25593 435.168739 
L 1117.085772 479.32165 
L 1118.915613 512.436333 
L 1120.745455 650.414179 
L 1120.745455 650.414179 
" clip-path="url(#pa5f2ee5216)" style="fill: none; stroke: #4169e1; stroke-linecap: square"/>
   </g>
   <g id="line2d_14">
    <path d="M 207.654545 579.194895 
L 209.484387 446.678255 
L 211.314228 573.432179 
L 213.14407 601.991294 
L 214.973911 623.59724 
L 216.803753 660.889908 
L 218.633594 659.039031 
L 220.463436 648.913331 
L 222.293277 656.205217 
L 224.123119 648.574439 
L 225.95296 658.037294 
L 227.782802 670.955263 
L 229.612643 653.136444 
L 231.442485 658.640889 
L 233.272326 618.633145 
L 235.102168 605.051983 
L 236.932009 629.937913 
L 238.761851 612.4193 
L 240.591692 599.745901 
L 242.421534 414.701843 
L 244.251375 445.043094 
L 246.081217 400.555282 
L 247.911058 350.877109 
L 249.7409 293.516298 
L 251.570741 271.246359 
L 253.400583 332.804824 
L 255.230424 265.843883 
L 257.060266 347.984072 
L 258.890107 314.339003 
L 260.719949 269.632547 
L 262.54979 266.905497 
L 264.379632 260.897094 
L 266.209473 256.014688 
L 268.039315 255.753495 
L 269.869156 255.622625 
L 271.698998 298.12669 
L 273.528839 314.222618 
L 275.358681 356.944968 
L 277.188522 343.809324 
L 279.018364 344.396766 
L 280.848206 321.668992 
L 282.678047 307.064975 
L 284.507889 280.638773 
L 286.33773 362.23207 
L 288.167572 328.259825 
L 289.997413 274.174767 
L 291.827255 290.120834 
L 293.657096 268.763701 
L 295.486938 260.626469 
L 297.316779 257.315093 
L 300.976462 247.364123 
L 302.806304 315.934035 
L 304.636145 299.001768 
L 306.465987 334.199677 
L 308.295828 447.519584 
L 310.12567 336.824111 
L 311.955511 475.185578 
L 313.785353 498.514899 
L 315.615194 415.850514 
L 317.445036 386.30461 
L 319.274877 341.675021 
L 321.104719 449.337743 
L 322.93456 442.607218 
L 324.764402 487.166108 
L 326.594243 508.537831 
L 328.424085 416.215712 
L 330.253926 476.662266 
L 332.083768 477.155619 
L 333.913609 493.875664 
L 335.743451 514.234281 
L 337.573292 538.486009 
L 339.403134 527.395905 
L 341.232975 530.918492 
L 343.062817 508.390686 
L 344.892658 447.0396 
L 346.7225 478.905354 
L 348.552341 443.9519 
L 350.382183 479.350662 
L 352.212024 511.713726 
L 354.041866 500.219937 
L 355.871707 507.54302 
L 357.701549 525.557323 
L 359.53139 492.49498 
L 361.361232 506.819908 
L 363.191073 480.978811 
L 365.020915 424.878951 
L 366.850756 475.021021 
L 368.680598 428.458488 
L 370.510439 341.783406 
L 372.340281 384.177192 
L 374.170122 314.096548 
L 375.999964 287.630049 
L 377.829805 287.943497 
L 379.659647 272.884382 
L 381.489488 280.310924 
L 383.31933 340.930813 
L 385.149171 347.866592 
L 386.979013 359.576813 
L 388.808854 310.650554 
L 390.638696 298.158355 
L 392.468537 291.824166 
L 394.298379 279.799739 
L 396.12822 288.44045 
L 397.958062 289.479621 
L 399.787903 290.740403 
L 401.617745 336.097294 
L 403.447586 305.001665 
L 405.277428 302.057004 
L 407.107269 360.878272 
L 408.937111 338.910327 
L 410.766952 440.99349 
L 412.596794 552.075741 
L 414.426635 549.036885 
L 416.256477 506.233098 
L 418.086318 551.275761 
L 419.91616 586.011552 
L 421.746001 579.442561 
L 423.575843 580.984464 
L 425.405684 544.162437 
L 427.235526 540.524307 
L 429.065367 458.344368 
L 430.895209 591.042103 
L 432.72505 506.171621 
L 434.554892 471.64339 
L 436.384733 442.24663 
L 438.214575 481.160189 
L 440.044416 469.42624 
L 441.874258 483.672849 
L 443.704099 538.180562 
L 445.533941 497.283571 
L 447.363782 555.898238 
L 449.193624 431.899808 
L 451.023465 451.935776 
L 452.853307 453.029771 
L 456.51299 560.824942 
L 458.342831 563.585615 
L 460.172673 555.708523 
L 462.002514 543.039472 
L 463.832356 492.36771 
L 465.662197 558.223014 
L 467.492039 493.178174 
L 469.32188 476.215506 
L 471.151722 526.226959 
L 472.981563 532.729999 
L 474.811405 567.925645 
L 476.641246 508.745737 
L 478.471088 584.312735 
L 480.300929 619.617145 
L 482.130771 617.042661 
L 483.960612 646.109413 
L 485.790454 653.012448 
L 487.620295 639.172109 
L 489.450137 619.931635 
L 491.279978 612.957223 
L 493.10982 617.891938 
L 494.939661 590.34215 
L 496.769503 568.639862 
L 498.599344 566.7831 
L 500.429186 545.205945 
L 502.259027 566.232155 
L 504.088869 550.073529 
L 505.91871 559.920115 
L 509.578393 554.137871 
L 511.408235 539.29102 
L 513.238076 560.063364 
L 516.897759 533.692618 
L 518.727601 599.492688 
L 520.557442 606.476437 
L 522.387284 621.231894 
L 524.217125 610.429278 
L 526.046967 566.840924 
L 527.876808 581.966242 
L 529.70665 559.413835 
L 531.536491 551.524448 
L 533.366333 579.975505 
L 535.196174 603.909859 
L 537.026016 632.290522 
L 538.855857 638.957434 
L 540.685699 647.021704 
L 542.51554 619.144825 
L 544.345382 628.083762 
L 546.175223 646.477191 
L 548.005065 640.724738 
L 549.834906 659.264769 
L 551.664748 664.494615 
L 553.494589 655.936319 
L 555.324431 652.753966 
L 557.154272 650.621137 
L 558.984114 659.998513 
L 560.813955 659.044168 
L 562.643797 656.251646 
L 564.473638 653.896769 
L 566.30348 632.178548 
L 568.133321 642.429187 
L 569.963163 588.703915 
L 571.793004 606.752831 
L 573.622846 640.406237 
L 575.452687 639.756655 
L 579.11237 680.440008 
L 580.942212 666.5846 
L 582.772053 654.190932 
L 584.601895 637.08425 
L 586.431736 635.609298 
L 588.261578 580.631182 
L 590.091419 611.86107 
L 591.921261 536.247406 
L 593.751102 370.933921 
L 595.580944 429.636972 
L 599.240627 330.381285 
L 601.070468 294.615725 
L 602.90031 343.432672 
L 604.730151 402.756809 
L 606.559993 345.582934 
L 608.389834 307.948558 
L 610.219676 358.350937 
L 612.049517 348.531932 
L 613.879359 340.791311 
L 615.7092 300.861951 
L 617.539042 328.04874 
L 619.368883 362.636681 
L 621.198725 352.234402 
L 623.028566 352.787821 
L 624.858408 302.134313 
L 626.688249 320.593398 
L 628.518091 316.671253 
L 630.347932 357.59296 
L 632.177774 371.307077 
L 634.007615 401.749261 
L 635.837457 392.493233 
L 637.667298 323.280698 
L 639.49714 368.214155 
L 641.326981 299.435223 
L 643.156823 276.810528 
L 644.986664 289.079431 
L 646.816506 270.631758 
L 648.646347 303.81735 
L 650.476189 315.470136 
L 652.30603 274.980367 
L 654.135872 281.221877 
L 655.965713 298.597199 
L 657.795555 367.466789 
L 659.625396 425.755145 
L 661.455238 369.413672 
L 663.285079 392.536583 
L 665.114921 406.980675 
L 666.944762 327.880016 
L 668.774604 320.362943 
L 670.604445 353.318586 
L 672.434287 352.131829 
L 674.264128 321.916752 
L 676.09397 405.984517 
L 677.923811 396.667728 
L 679.753653 402.192147 
L 681.583494 421.596672 
L 683.413336 452.210317 
L 685.243177 511.150833 
L 687.073019 561.842848 
L 688.90286 559.388487 
L 690.732702 568.371426 
L 692.562543 559.388508 
L 694.392385 590.688673 
L 696.222226 559.341326 
L 698.052068 553.490047 
L 699.881909 533.335862 
L 701.711751 556.911176 
L 703.541592 507.643847 
L 705.371434 550.5097 
L 707.201275 558.529262 
L 709.031117 551.098384 
L 710.860958 545.187775 
L 712.6908 520.003955 
L 714.520641 566.590395 
L 716.350483 591.470062 
L 718.180324 567.847809 
L 720.010166 559.836489 
L 721.840007 572.796766 
L 723.669849 587.337211 
L 725.49969 545.716961 
L 727.329532 470.951606 
L 729.159373 419.608587 
L 730.989215 341.997312 
L 732.819056 341.770521 
L 734.648898 538.924033 
L 736.478739 562.887388 
L 738.308581 609.671196 
L 740.138422 607.160221 
L 741.968264 622.293034 
L 743.798105 628.534197 
L 745.627947 588.732254 
L 747.457788 616.228365 
L 749.28763 625.935048 
L 751.117471 624.644148 
L 752.947313 624.432358 
L 754.777154 644.294464 
L 756.606996 633.632825 
L 758.436837 578.309964 
L 760.266679 610.344937 
L 762.09652 597.276518 
L 763.926362 570.309929 
L 767.586045 496.68615 
L 769.415886 377.434055 
L 771.245728 363.289305 
L 773.075569 284.580035 
L 774.905411 286.233849 
L 776.735252 256.335631 
L 778.565094 250.43936 
L 780.394935 258.462817 
L 782.224777 246.876266 
L 784.054618 249.025601 
L 785.88446 293.075138 
L 787.714301 309.628521 
L 789.544143 262.142549 
L 791.373984 310.436648 
L 793.203826 270.806335 
L 795.033667 278.239993 
L 796.863509 287.176004 
L 798.69335 299.54007 
L 800.523192 266.490064 
L 802.353033 263.90378 
L 804.182875 290.144624 
L 806.012716 263.620438 
L 807.842558 323.603578 
L 809.672399 358.446016 
L 811.502241 297.738459 
L 813.332082 289.27721 
L 818.821607 253.973906 
L 820.651448 261.198499 
L 822.48129 260.555013 
L 824.311131 256.993645 
L 826.140973 285.635333 
L 827.970814 274.214053 
L 829.800656 313.436723 
L 831.630497 278.365389 
L 833.460339 353.59279 
L 835.29018 378.492343 
L 837.120022 353.779411 
L 838.949863 324.604263 
L 840.779705 359.342864 
L 842.609546 405.143315 
L 844.439388 320.403577 
L 846.269229 413.819354 
L 848.099071 422.632474 
L 849.928912 371.357775 
L 851.758754 430.988454 
L 853.588595 539.748518 
L 855.418437 508.892018 
L 857.248278 507.041794 
L 859.07812 526.472993 
L 860.907961 463.008868 
L 862.737803 532.951442 
L 864.567644 462.038922 
L 866.397486 495.208156 
L 868.227327 549.97325 
L 870.057169 518.496696 
L 871.88701 571.809588 
L 873.716852 566.819933 
L 875.546693 559.042026 
L 877.376535 570.498255 
L 879.206376 512.740475 
L 881.036218 554.064688 
L 882.866059 551.831244 
L 884.695901 536.815984 
L 886.525742 487.503999 
L 890.185425 475.274361 
L 892.015267 507.949063 
L 893.845108 538.182498 
L 895.67495 533.287334 
L 897.504791 577.182746 
L 899.334633 580.803875 
L 901.164474 549.633885 
L 902.994316 546.843737 
L 904.824157 526.871098 
L 906.653999 544.656695 
L 908.48384 510.528526 
L 910.313682 591.051661 
L 912.143523 585.147653 
L 913.973365 588.913495 
L 915.803206 585.821994 
L 917.633048 597.98645 
L 919.462889 546.594945 
L 921.292731 551.996158 
L 923.122572 617.313959 
L 924.952414 580.924671 
L 926.782255 618.372837 
L 928.612097 643.424029 
L 930.441938 606.090175 
L 932.27178 632.304081 
L 934.101621 601.733154 
L 935.931463 527.89909 
L 937.761304 589.495968 
L 939.591146 457.519693 
L 941.420987 396.349564 
L 943.250829 497.150722 
L 945.08067 424.549902 
L 946.910512 396.096035 
L 948.740353 415.470473 
L 950.570195 393.98946 
L 952.400036 435.548991 
L 954.229878 422.619863 
L 956.059719 324.784441 
L 957.889561 299.904974 
L 961.549244 248.127743 
L 963.379085 246.203978 
L 965.208927 243.783765 
L 967.038768 251.416591 
L 970.698451 252.639519 
L 972.528293 269.911635 
L 974.358134 252.647562 
L 976.187976 288.591616 
L 978.017817 263.779015 
L 979.847659 399.144933 
L 981.6775 316.445514 
L 983.507342 457.535652 
L 985.337183 348.700826 
L 987.167025 435.500651 
L 988.996866 398.069676 
L 990.826708 353.267889 
L 992.656549 336.79131 
L 994.486391 279.90606 
L 996.316232 277.229792 
L 998.146074 265.529508 
L 999.975915 261.491525 
L 1001.805757 278.102175 
L 1003.635598 321.162607 
L 1005.46544 355.225803 
L 1007.295281 376.372778 
L 1009.125123 373.563155 
L 1010.954964 361.305115 
L 1012.784806 331.362516 
L 1014.614647 333.975034 
L 1016.444489 315.531866 
L 1018.27433 334.983761 
L 1020.104172 361.149402 
L 1021.934013 354.942041 
L 1023.763855 313.952414 
L 1025.593696 314.36073 
L 1027.423538 355.068911 
L 1029.253379 392.689159 
L 1031.083221 409.784845 
L 1032.913062 353.16481 
L 1034.742904 431.776959 
L 1036.572745 345.680707 
L 1038.402587 381.21295 
L 1040.232428 357.931715 
L 1042.06227 340.591259 
L 1043.892111 424.407368 
L 1045.721953 373.801273 
L 1047.551794 390.747898 
L 1049.381636 446.343816 
L 1051.211478 409.66147 
L 1053.041319 395.169017 
L 1054.871161 427.245034 
L 1056.701002 396.459885 
L 1058.530844 407.183191 
L 1060.360685 507.705155 
L 1062.190527 418.061768 
L 1064.020368 348.04117 
L 1065.85021 327.860099 
L 1067.680051 268.429915 
L 1069.509893 305.880238 
L 1071.339734 277.717102 
L 1073.169576 306.66988 
L 1074.999417 282.272754 
L 1076.829259 274.427749 
L 1078.6591 308.212278 
L 1080.488942 273.037106 
L 1082.318783 271.596904 
L 1084.148625 280.657763 
L 1085.978466 273.613347 
L 1087.808308 274.219569 
L 1089.638149 275.750092 
L 1091.467991 270.116783 
L 1093.297832 272.734606 
L 1095.127674 273.614484 
L 1096.957515 319.61103 
L 1098.787357 292.115971 
L 1100.617198 351.60439 
L 1102.44704 313.858261 
L 1104.276881 343.073874 
L 1106.106723 330.477459 
L 1107.936564 405.706186 
L 1109.766406 376.139965 
L 1111.596247 509.695556 
L 1113.426089 500.601115 
L 1115.25593 531.089743 
L 1117.085772 498.193177 
L 1118.915613 495.985502 
L 1120.745455 473.340301 
L 1120.745455 473.340301 
" clip-path="url(#pa5f2ee5216)" style="fill: none; stroke: #ff6347; stroke-linecap: square"/>
   </g>
   <g id="line2d_15">
    <path d="M 207.654545 542.86961 
L 209.484387 356.824035 
L 211.314228 489.808269 
L 213.14407 561.988014 
L 216.803753 671.701782 
L 218.633594 660.495892 
L 220.463436 662.963318 
L 222.293277 679.973484 
L 224.123119 660.213535 
L 225.95296 656.158904 
L 227.782802 666.280226 
L 229.612643 653.390215 
L 231.442485 683.441752 
L 233.272326 562.870903 
L 235.102168 553.277699 
L 236.932009 583.064206 
L 238.761851 534.834531 
L 240.591692 575.384819 
L 242.421534 418.804481 
L 246.081217 382.256627 
L 247.911058 349.666856 
L 249.7409 330.002234 
L 251.570741 265.663494 
L 253.400583 290.781374 
L 255.230424 273.537007 
L 258.890107 317.979954 
L 260.719949 240.197722 
L 262.54979 271.101509 
L 264.379632 243.529267 
L 266.209473 227.06431 
L 268.039315 229.68567 
L 269.869156 243.197966 
L 271.698998 259.151064 
L 273.528839 301.841498 
L 275.358681 336.705663 
L 277.188522 334.916852 
L 279.018364 351.254393 
L 280.848206 350.676509 
L 282.678047 324.936786 
L 284.507889 302.605075 
L 286.33773 334.618226 
L 288.167572 301.94803 
L 289.997413 240.089506 
L 291.827255 302.60019 
L 293.657096 273.360745 
L 295.486938 229.210108 
L 297.316779 211.917401 
L 299.146621 181.290429 
L 300.976462 204.963095 
L 302.806304 279.849426 
L 304.636145 270.363196 
L 306.465987 306.91023 
L 308.295828 441.183247 
L 310.12567 362.329591 
L 313.785353 494.856684 
L 315.615194 400.891215 
L 317.445036 399.788736 
L 319.274877 318.372396 
L 321.104719 388.249871 
L 322.93456 413.015164 
L 324.764402 452.987432 
L 326.594243 518.021324 
L 328.424085 424.842149 
L 330.253926 457.663953 
L 332.083768 457.43331 
L 333.913609 443.836483 
L 335.743451 505.566684 
L 337.573292 536.044427 
L 339.403134 528.846866 
L 341.232975 527.163619 
L 343.062817 509.036594 
L 344.892658 437.742033 
L 346.7225 455.24852 
L 348.552341 408.532126 
L 350.382183 429.151957 
L 352.212024 505.491627 
L 354.041866 489.647924 
L 355.871707 494.365079 
L 357.701549 509.277723 
L 359.53139 513.898747 
L 361.361232 524.386756 
L 363.191073 497.916741 
L 365.020915 433.409509 
L 366.850756 496.592797 
L 368.680598 480.132472 
L 370.510439 383.012035 
L 372.340281 387.345255 
L 374.170122 301.671215 
L 375.999964 227.195517 
L 377.829805 226.59119 
L 379.659647 194.645579 
L 381.489488 217.037841 
L 383.31933 321.896204 
L 385.149171 321.047822 
L 386.979013 289.556888 
L 388.808854 217.562753 
L 390.638696 213.511001 
L 392.468537 223.845528 
L 394.298379 184.476366 
L 396.12822 213.780489 
L 397.958062 220.738837 
L 399.787903 213.119654 
L 401.617745 301.968831 
L 403.447586 228.390191 
L 405.277428 200.666362 
L 407.107269 312.634828 
L 408.937111 282.738337 
L 412.596794 485.356959 
L 414.426635 433.745969 
L 416.256477 363.619512 
L 418.086318 489.791342 
L 419.91616 570.657611 
L 421.746001 595.43463 
L 423.575843 615.970067 
L 425.405684 536.564792 
L 427.235526 525.965661 
L 429.065367 462.964129 
L 430.895209 576.707237 
L 432.72505 482.34322 
L 434.554892 415.423018 
L 436.384733 435.349822 
L 438.214575 468.565226 
L 440.044416 473.581029 
L 441.874258 458.708703 
L 443.704099 521.836642 
L 445.533941 493.180216 
L 447.363782 540.0998 
L 449.193624 435.951538 
L 451.023465 482.321977 
L 452.853307 465.591637 
L 454.683148 476.72608 
L 456.51299 543.384669 
L 458.342831 550.56524 
L 460.172673 549.264392 
L 462.002514 531.187833 
L 463.832356 496.606672 
L 465.662197 533.114482 
L 469.32188 466.679 
L 471.151722 511.616584 
L 472.981563 503.342398 
L 474.811405 532.63052 
L 476.641246 528.644392 
L 478.471088 570.87478 
L 480.300929 607.133693 
L 482.130771 631.449257 
L 483.960612 659.521888 
L 485.790454 654.38321 
L 487.620295 636.155191 
L 489.450137 608.869259 
L 491.279978 592.603659 
L 493.10982 601.642244 
L 500.429186 538.959866 
L 502.259027 555.571126 
L 504.088869 542.567678 
L 505.91871 544.653705 
L 507.748552 543.730056 
L 509.578393 541.534887 
L 511.408235 537.270071 
L 513.238076 553.575926 
L 515.067918 542.558773 
L 516.897759 528.87352 
L 518.727601 582.568769 
L 520.557442 595.630557 
L 522.387284 612.441301 
L 524.217125 610.983708 
L 526.046967 569.538288 
L 527.876808 571.057211 
L 529.70665 546.701498 
L 531.536491 536.437732 
L 533.366333 561.260986 
L 535.196174 613.638691 
L 537.026016 638.314231 
L 538.855857 643.144677 
L 540.685699 649.885498 
L 542.51554 649.518005 
L 544.345382 642.297011 
L 546.175223 660.410156 
L 548.005065 652.911874 
L 549.834906 663.221105 
L 551.664748 654.240718 
L 553.494589 689.442691 
L 555.324431 676.266055 
L 557.154272 680.763225 
L 558.984114 663.956892 
L 560.813955 662.457839 
L 562.643797 659.641973 
L 564.473638 644.054915 
L 566.30348 616.51337 
L 568.133321 626.640054 
L 569.963163 592.267189 
L 571.793004 597.724089 
L 573.622846 653.985179 
L 575.452687 655.66862 
L 577.282529 659.525467 
L 579.11237 680.682416 
L 580.942212 654.861415 
L 582.772053 663.158855 
L 584.601895 648.377039 
L 586.431736 656.785553 
L 588.261578 546.385186 
L 590.091419 563.066745 
L 591.921261 426.730544 
L 593.751102 267.291454 
L 595.580944 350.044223 
L 597.410785 335.602278 
L 601.070468 312.976236 
L 602.90031 321.023568 
L 604.730151 394.788744 
L 606.559993 345.228389 
L 608.389834 316.11316 
L 610.219676 349.599568 
L 612.049517 322.929774 
L 613.879359 316.923645 
L 615.7092 323.639201 
L 617.539042 334.74219 
L 619.368883 374.02899 
L 621.198725 357.486302 
L 623.028566 357.446974 
L 624.858408 310.210278 
L 626.688249 298.498078 
L 628.518091 296.403988 
L 630.347932 331.084144 
L 632.177774 372.155038 
L 634.007615 398.182335 
L 635.837457 409.03171 
L 637.667298 322.567229 
L 639.49714 365.445756 
L 641.326981 265.498349 
L 643.156823 219.955385 
L 644.986664 263.434407 
L 646.816506 225.653035 
L 648.646347 284.574561 
L 650.476189 313.569025 
L 652.30603 257.992519 
L 654.135872 241.645799 
L 655.965713 216.961795 
L 657.795555 310.58773 
L 659.625396 394.992881 
L 661.455238 367.023398 
L 663.285079 390.690611 
L 665.114921 403.611928 
L 666.944762 311.172856 
L 668.774604 282.586666 
L 670.604445 289.12377 
L 672.434287 309.409394 
L 674.264128 297.08613 
L 676.09397 380.979843 
L 677.923811 396.657938 
L 679.753653 386.429543 
L 681.583494 399.705173 
L 683.413336 414.11998 
L 685.243177 470.229315 
L 687.073019 544.172269 
L 688.90286 552.456098 
L 690.732702 564.077525 
L 692.562543 545.887118 
L 694.392385 570.980849 
L 696.222226 541.817323 
L 698.052068 527.556356 
L 699.881909 500.536986 
L 701.711751 527.701816 
L 703.541592 493.07579 
L 705.371434 534.859354 
L 707.201275 564.28621 
L 709.031117 548.158628 
L 710.860958 572.907635 
L 712.6908 564.398984 
L 714.520641 592.721992 
L 716.350483 604.141755 
L 718.180324 643.1779 
L 720.010166 618.520634 
L 721.840007 588.402047 
L 723.669849 588.546012 
L 725.49969 552.393358 
L 727.329532 500.220611 
L 729.159373 428.557925 
L 730.989215 341.76471 
L 732.819056 350.934291 
L 734.648898 525.822159 
L 736.478739 559.239279 
L 738.308581 578.181241 
L 740.138422 610.68145 
L 741.968264 639.800626 
L 743.798105 650.497546 
L 745.627947 637.43149 
L 747.457788 637.566687 
L 749.28763 671.626872 
L 752.947313 648.74109 
L 754.777154 669.462268 
L 756.606996 660.902188 
L 758.436837 602.07074 
L 760.266679 623.586113 
L 762.09652 602.093689 
L 763.926362 555.98639 
L 765.756203 425.877046 
L 767.586045 352.401148 
L 769.415886 232.890303 
L 771.245728 294.94749 
L 773.075569 246.415399 
L 774.905411 244.713077 
L 776.735252 219.956143 
L 778.565094 167.348215 
L 780.394935 185.272535 
L 782.224777 187.851366 
L 784.054618 159.156455 
L 785.88446 209.043059 
L 787.714301 264.651735 
L 789.544143 239.549435 
L 791.373984 303.1774 
L 793.203826 278.924577 
L 795.033667 231.722578 
L 796.863509 296.237832 
L 798.69335 280.387391 
L 800.523192 261.167003 
L 802.353033 227.957578 
L 804.182875 228.479458 
L 806.012716 209.712905 
L 807.842558 274.208032 
L 809.672399 359.264081 
L 811.502241 295.124762 
L 813.332082 287.321654 
L 815.161924 248.850392 
L 816.991765 162.101284 
L 818.821607 189.980658 
L 820.651448 215.295517 
L 822.48129 228.171653 
L 824.311131 214.899285 
L 826.140973 267.273516 
L 827.970814 271.070434 
L 829.800656 305.72903 
L 831.630497 254.934925 
L 833.460339 316.653231 
L 835.29018 382.521146 
L 837.120022 343.537015 
L 838.949863 335.052354 
L 840.779705 360.166023 
L 842.609546 388.016153 
L 844.439388 290.061757 
L 846.269229 370.308456 
L 848.099071 409.961002 
L 849.928912 352.497743 
L 851.758754 435.11061 
L 853.588595 529.295564 
L 855.418437 505.084848 
L 857.248278 506.785401 
L 859.07812 518.3597 
L 860.907961 448.591977 
L 862.737803 530.417181 
L 864.567644 458.056395 
L 866.397486 500.979535 
L 868.227327 550.864855 
L 870.057169 526.066677 
L 871.88701 565.788258 
L 873.716852 570.723162 
L 875.546693 565.703474 
L 877.376535 581.844783 
L 879.206376 513.65326 
L 881.036218 548.675624 
L 882.866059 559.330505 
L 884.695901 518.924024 
L 886.525742 509.258417 
L 888.355584 513.211469 
L 890.185425 518.369447 
L 892.015267 538.703747 
L 893.845108 577.689584 
L 895.67495 580.461541 
L 897.504791 595.071558 
L 899.334633 588.838059 
L 901.164474 550.811505 
L 902.994316 549.247338 
L 904.824157 533.086144 
L 906.653999 547.639548 
L 908.48384 524.949818 
L 910.313682 580.514555 
L 912.143523 597.316509 
L 913.973365 591.563036 
L 915.803206 581.451194 
L 917.633048 590.037007 
L 919.462889 550.246549 
L 921.292731 571.505403 
L 923.122572 629.640192 
L 924.952414 600.238433 
L 928.612097 652.080988 
L 930.441938 593.008017 
L 932.27178 637.448543 
L 934.101621 607.68667 
L 935.931463 521.977976 
L 937.761304 576.073319 
L 939.591146 367.020787 
L 941.420987 226.221065 
L 943.250829 341.413534 
L 945.08067 399.922469 
L 946.910512 401.439771 
L 948.740353 407.715409 
L 950.570195 413.539402 
L 952.400036 440.61806 
L 954.229878 435.538695 
L 956.059719 348.19242 
L 957.889561 316.992364 
L 959.719402 239.456799 
L 961.549244 151.768526 
L 963.379085 133.92 
L 965.208927 150.697732 
L 967.038768 186.455166 
L 968.86861 196.987177 
L 970.698451 205.129504 
L 972.528293 241.583648 
L 974.358134 208.146001 
L 976.187976 219.648674 
L 978.017817 219.685729 
L 979.847659 305.399076 
L 981.6775 300.619875 
L 983.507342 358.853196 
L 985.337183 356.500397 
L 987.167025 373.98903 
L 988.996866 395.832547 
L 990.826708 298.156165 
L 992.656549 328.991569 
L 994.486391 270.529858 
L 996.316232 264.281021 
L 998.146074 241.678306 
L 999.975915 231.036057 
L 1001.805757 259.752528 
L 1003.635598 325.03717 
L 1005.46544 351.414991 
L 1007.295281 350.21678 
L 1009.125123 375.118901 
L 1010.954964 367.408429 
L 1012.784806 333.956296 
L 1014.614647 325.264045 
L 1016.444489 318.525077 
L 1018.27433 303.962705 
L 1020.104172 336.779519 
L 1021.934013 306.763527 
L 1023.763855 295.435431 
L 1025.593696 297.319068 
L 1027.423538 327.914375 
L 1029.253379 368.242157 
L 1031.083221 388.574414 
L 1032.913062 323.10132 
L 1034.742904 394.332762 
L 1036.572745 295.800335 
L 1038.402587 309.686208 
L 1040.232428 339.92436 
L 1042.06227 301.21957 
L 1043.892111 412.09162 
L 1045.721953 356.165137 
L 1047.551794 365.10439 
L 1049.381636 408.857912 
L 1051.211478 349.235675 
L 1053.041319 352.015612 
L 1054.871161 418.723593 
L 1056.701002 379.115365 
L 1058.530844 390.575763 
L 1060.360685 487.413721 
L 1062.190527 427.906375 
L 1064.020368 356.58158 
L 1065.85021 315.186795 
L 1067.680051 206.770686 
L 1069.509893 270.974934 
L 1071.339734 272.583019 
L 1073.169576 294.443126 
L 1074.999417 259.043269 
L 1076.829259 196.018536 
L 1078.6591 249.152218 
L 1080.488942 191.361868 
L 1082.318783 176.226665 
L 1084.148625 218.783028 
L 1085.978466 205.316377 
L 1087.808308 197.819642 
L 1089.638149 200.603116 
L 1091.467991 170.391745 
L 1093.297832 170.040485 
L 1095.127674 171.980377 
L 1096.957515 232.91203 
L 1098.787357 244.61362 
L 1100.617198 318.237399 
L 1102.44704 302.484058 
L 1104.276881 305.786886 
L 1106.106723 295.542469 
L 1107.936564 371.083234 
L 1109.766406 343.980491 
L 1111.596247 470.732204 
L 1113.426089 503.570052 
L 1115.25593 503.507543 
L 1117.085772 449.595694 
L 1118.915613 404.68988 
L 1120.745455 474.588746 
L 1120.745455 474.588746 
" clip-path="url(#pa5f2ee5216)" style="fill: none; stroke: #da70d6; stroke-linecap: square"/>
   </g>
   <g id="line2d_16">
    <path d="M 207.654545 515.470473 
L 209.484387 381.827509 
L 211.314228 521.188502 
L 213.14407 600.873298 
L 214.973911 645.660505 
L 216.803753 660.452764 
L 218.633594 662.483761 
L 220.463436 655.777779 
L 222.293277 662.385887 
L 224.123119 661.909909 
L 225.95296 662.851123 
L 227.782802 666.151287 
L 229.612643 620.701655 
L 231.442485 622.777134 
L 233.272326 572.740679 
L 235.102168 584.128399 
L 236.932009 626.559945 
L 238.761851 594.040325 
L 240.591692 586.151643 
L 242.421534 414.126528 
L 244.251375 377.094248 
L 246.081217 326.479605 
L 247.911058 307.894619 
L 249.7409 287.2942 
L 251.570741 273.705437 
L 253.400583 285.119558 
L 255.230424 272.535522 
L 257.060266 298.719816 
L 258.890107 287.001637 
L 260.719949 284.803625 
L 262.54979 271.026642 
L 264.379632 264.067073 
L 266.209473 264.052419 
L 268.039315 263.912117 
L 269.869156 264.239882 
L 273.528839 288.025817 
L 275.358681 310.834059 
L 277.188522 304.373421 
L 279.018364 307.29905 
L 280.848206 294.914477 
L 282.678047 286.745286 
L 284.507889 274.84836 
L 286.33773 306.250153 
L 288.167572 294.02403 
L 289.997413 293.653779 
L 291.827255 291.588154 
L 293.657096 276.581505 
L 295.486938 274.474993 
L 297.316779 271.194735 
L 299.146621 270.265549 
L 300.976462 258.883429 
L 302.806304 291.016923 
L 304.636145 298.585746 
L 306.465987 334.185992 
L 308.295828 471.116835 
L 310.12567 321.966102 
L 311.955511 479.937851 
L 313.785353 464.120001 
L 315.615194 383.171959 
L 317.445036 353.785558 
L 319.274877 318.331888 
L 321.104719 468.845515 
L 322.93456 410.377066 
L 324.764402 471.720994 
L 326.594243 483.122862 
L 328.424085 385.016226 
L 330.253926 474.129332 
L 332.083768 451.262224 
L 333.913609 476.553082 
L 335.743451 494.66579 
L 337.573292 519.144815 
L 339.403134 501.732775 
L 341.232975 507.004718 
L 343.062817 476.431475 
L 344.892658 406.521914 
L 346.7225 467.499128 
L 348.552341 414.30199 
L 350.382183 467.816071 
L 352.212024 475.161008 
L 354.041866 464.185689 
L 355.871707 471.129973 
L 357.701549 485.109325 
L 359.53139 459.287576 
L 361.361232 478.62077 
L 363.191073 457.027414 
L 365.020915 417.736572 
L 366.850756 465.194248 
L 368.680598 403.583232 
L 370.510439 335.005741 
L 372.340281 349.617211 
L 374.170122 301.434697 
L 375.999964 286.470956 
L 379.659647 267.780996 
L 381.489488 273.523532 
L 383.31933 323.78064 
L 385.149171 333.46987 
L 386.979013 347.256033 
L 388.808854 314.835829 
L 390.638696 291.126824 
L 392.468537 272.151544 
L 394.298379 263.428976 
L 396.12822 269.707667 
L 397.958062 272.038822 
L 399.787903 273.24377 
L 401.617745 312.373509 
L 403.447586 297.248538 
L 405.277428 299.785557 
L 407.107269 343.073748 
L 408.937111 335.161749 
L 410.766952 428.973252 
L 412.596794 545.564364 
L 414.426635 527.602611 
L 416.256477 458.940274 
L 418.086318 518.178195 
L 419.91616 582.180064 
L 421.746001 583.004139 
L 423.575843 560.513283 
L 425.405684 489.272241 
L 427.235526 468.421661 
L 429.065367 381.286217 
L 430.895209 502.564356 
L 432.72505 452.980842 
L 434.554892 412.51339 
L 436.384733 356.766559 
L 438.214575 416.121371 
L 440.044416 400.78502 
L 441.874258 396.559238 
L 443.704099 462.486651 
L 445.533941 407.690355 
L 447.363782 474.990136 
L 449.193624 368.825093 
L 451.023465 393.653694 
L 452.853307 390.896159 
L 454.683148 441.470084 
L 456.51299 506.822477 
L 458.342831 511.450301 
L 460.172673 488.476198 
L 462.002514 460.457323 
L 463.832356 416.136992 
L 465.662197 490.167993 
L 467.492039 446.169617 
L 469.32188 433.35639 
L 471.151722 489.944739 
L 472.981563 472.574344 
L 474.811405 515.2876 
L 476.641246 455.161378 
L 478.471088 549.26237 
L 480.300929 612.911821 
L 482.130771 627.897837 
L 485.790454 646.249168 
L 487.620295 640.166519 
L 489.450137 603.362767 
L 491.279978 587.557455 
L 493.10982 582.685333 
L 494.939661 562.332032 
L 496.769503 536.380845 
L 498.599344 535.399825 
L 500.429186 503.913817 
L 502.259027 523.434053 
L 504.088869 502.922017 
L 505.91871 513.256039 
L 507.748552 517.685748 
L 509.578393 514.636281 
L 511.408235 504.820265 
L 513.238076 521.566122 
L 515.067918 505.026466 
L 516.897759 493.426272 
L 518.727601 558.86368 
L 520.557442 589.394552 
L 522.387284 599.443296 
L 524.217125 580.643867 
L 526.046967 541.386963 
L 527.876808 565.584489 
L 529.70665 520.465853 
L 531.536491 516.655462 
L 533.366333 544.027693 
L 535.196174 559.23671 
L 537.026016 593.911834 
L 538.855857 625.743386 
L 540.685699 644.51156 
L 542.51554 626.978356 
L 544.345382 644.489212 
L 546.175223 664.843455 
L 548.005065 668.968473 
L 549.834906 674.478539 
L 551.664748 668.037019 
L 553.494589 646.685465 
L 555.324431 664.502968 
L 557.154272 676.110173 
L 560.813955 651.494573 
L 562.643797 645.792165 
L 564.473638 647.792082 
L 566.30348 599.053907 
L 568.133321 637.816647 
L 569.963163 566.905022 
L 571.793004 589.727401 
L 573.622846 646.017598 
L 575.452687 668.938667 
L 577.282529 684.578423 
L 579.11237 692.059383 
L 580.942212 661.275344 
L 582.772053 640.967393 
L 584.601895 623.762207 
L 586.431736 621.175185 
L 588.261578 543.769405 
L 590.091419 610.447122 
L 591.921261 502.30948 
L 593.751102 355.726925 
L 595.580944 364.666894 
L 597.410785 332.106514 
L 599.240627 302.20977 
L 601.070468 286.820659 
L 602.90031 294.930899 
L 604.730151 337.436944 
L 606.559993 302.638508 
L 608.389834 291.465873 
L 610.219676 297.674455 
L 612.049517 305.838889 
L 613.879359 308.959602 
L 615.7092 296.499319 
L 617.539042 296.824305 
L 619.368883 314.195585 
L 621.198725 308.846964 
L 623.028566 310.364097 
L 624.858408 289.685274 
L 626.688249 287.416017 
L 628.518091 285.779677 
L 630.347932 314.221902 
L 632.177774 323.408157 
L 634.007615 335.407741 
L 635.837457 327.981326 
L 637.667298 297.677571 
L 639.49714 315.883464 
L 641.326981 287.734518 
L 643.156823 286.120748 
L 644.986664 276.280605 
L 646.816506 269.016556 
L 648.646347 284.059333 
L 650.476189 294.662338 
L 652.30603 279.712366 
L 654.135872 275.067361 
L 655.965713 284.00733 
L 657.795555 375.64756 
L 659.625396 426.771536 
L 661.455238 353.042193 
L 663.285079 373.114121 
L 665.114921 391.564573 
L 666.944762 321.76007 
L 668.774604 315.097106 
L 670.604445 331.827509 
L 672.434287 363.349687 
L 674.264128 331.995224 
L 676.09397 415.673389 
L 677.923811 382.722504 
L 679.753653 401.708395 
L 681.583494 410.023658 
L 683.413336 445.602892 
L 685.243177 490.006216 
L 687.073019 525.212547 
L 688.90286 534.387729 
L 690.732702 547.799093 
L 692.562543 544.712866 
L 694.392385 553.624033 
L 696.222226 523.595872 
L 698.052068 520.8476 
L 699.881909 516.905328 
L 701.711751 525.691562 
L 703.541592 466.877158 
L 705.371434 508.97476 
L 707.201275 510.921515 
L 709.031117 499.855413 
L 710.860958 504.132608 
L 712.6908 491.069389 
L 716.350483 564.282441 
L 720.010166 536.996499 
L 721.840007 559.792192 
L 723.669849 586.747475 
L 725.49969 519.067295 
L 727.329532 396.924142 
L 729.159373 370.529605 
L 730.989215 339.80469 
L 732.819056 341.818734 
L 734.648898 525.408137 
L 736.478739 565.210438 
L 738.308581 611.009109 
L 740.138422 577.739618 
L 741.968264 591.487895 
L 743.798105 618.672811 
L 745.627947 579.33126 
L 747.457788 588.89122 
L 751.117471 649.728437 
L 752.947313 634.866459 
L 754.777154 621.241915 
L 756.606996 616.706717 
L 758.436837 546.277075 
L 760.266679 579.084258 
L 762.09652 598.521899 
L 763.926362 565.810669 
L 765.756203 508.327862 
L 767.586045 481.54042 
L 769.415886 389.233839 
L 771.245728 363.079315 
L 773.075569 290.379837 
L 774.905411 276.869983 
L 776.735252 257.912178 
L 778.565094 252.050604 
L 780.394935 252.027571 
L 782.224777 248.204126 
L 784.054618 246.632421 
L 787.714301 295.504993 
L 789.544143 279.713082 
L 791.373984 302.869678 
L 793.203826 274.090131 
L 795.033667 273.412116 
L 796.863509 276.230623 
L 798.69335 286.56094 
L 800.523192 271.671771 
L 802.353033 260.788457 
L 804.182875 269.633978 
L 806.012716 261.793731 
L 807.842558 303.392148 
L 809.672399 334.033184 
L 811.502241 296.344785 
L 813.332082 285.776266 
L 815.161924 261.680125 
L 816.991765 260.415595 
L 818.821607 258.682408 
L 820.651448 263.170225 
L 822.48129 262.648218 
L 824.311131 261.605763 
L 826.140973 279.607939 
L 827.970814 278.35023 
L 829.800656 321.626126 
L 831.630497 286.726085 
L 833.460339 357.584581 
L 835.29018 377.137029 
L 837.120022 352.510207 
L 838.949863 316.095306 
L 840.779705 343.372543 
L 842.609546 404.730282 
L 844.439388 311.258755 
L 846.269229 419.22743 
L 848.099071 402.033297 
L 849.928912 367.33634 
L 851.758754 428.266941 
L 853.588595 509.547758 
L 855.418437 471.98526 
L 857.248278 468.064042 
L 859.07812 487.004415 
L 860.907961 423.545301 
L 862.737803 493.969879 
L 864.567644 401.047645 
L 866.397486 467.657031 
L 868.227327 504.24474 
L 870.057169 479.310786 
L 871.88701 511.694862 
L 873.716852 511.005099 
L 875.546693 507.677049 
L 877.376535 521.073128 
L 879.206376 472.873897 
L 881.036218 517.323876 
L 882.866059 509.333347 
L 884.695901 499.226411 
L 886.525742 468.796081 
L 888.355584 479.480563 
L 890.185425 463.57273 
L 892.015267 498.659054 
L 893.845108 519.585596 
L 895.67495 522.761849 
L 897.504791 573.408062 
L 899.334633 576.962703 
L 901.164474 524.471161 
L 902.994316 513.222269 
L 904.824157 498.903404 
L 906.653999 523.653349 
L 908.48384 486.154981 
L 910.313682 567.481011 
L 912.143523 571.712898 
L 913.973365 558.397845 
L 915.803206 552.777378 
L 917.633048 563.318495 
L 919.462889 529.966442 
L 921.292731 541.101348 
L 923.122572 612.262376 
L 924.952414 596.206261 
L 926.782255 601.217116 
L 928.612097 642.897622 
L 930.441938 590.666177 
L 932.27178 604.294374 
L 934.101621 575.217337 
L 935.931463 498.599346 
L 937.761304 576.136733 
L 939.591146 420.634284 
L 941.420987 375.129975 
L 943.250829 493.698539 
L 945.08067 408.480797 
L 946.910512 375.49311 
L 948.740353 388.780383 
L 950.570195 381.795718 
L 952.400036 428.435624 
L 954.229878 396.007546 
L 956.059719 308.229121 
L 959.719402 252.600064 
L 961.549244 247.4216 
L 963.379085 248.410537 
L 965.208927 248.656697 
L 967.038768 252.616276 
L 968.86861 253.222708 
L 970.698451 252.988843 
L 972.528293 261.886199 
L 974.358134 255.134262 
L 976.187976 270.161291 
L 978.017817 262.359656 
L 979.847659 396.825189 
L 981.6775 296.010704 
L 983.507342 439.411743 
L 985.337183 322.860002 
L 987.167025 405.702797 
L 988.996866 353.485922 
L 990.826708 326.723323 
L 992.656549 324.116195 
L 994.486391 286.516011 
L 996.316232 272.099288 
L 998.146074 263.521191 
L 999.975915 262.6043 
L 1001.805757 271.852665 
L 1003.635598 316.83244 
L 1005.46544 369.686234 
L 1007.295281 395.691739 
L 1009.125123 375.351755 
L 1010.954964 363.946519 
L 1012.784806 324.63378 
L 1014.614647 324.818632 
L 1016.444489 301.375873 
L 1018.27433 326.691026 
L 1020.104172 368.562342 
L 1021.934013 370.102424 
L 1023.763855 322.342122 
L 1025.593696 306.210235 
L 1029.253379 406.066521 
L 1031.083221 406.718093 
L 1032.913062 341.530635 
L 1034.742904 437.600826 
L 1036.572745 319.360911 
L 1038.402587 397.639169 
L 1040.232428 327.298259 
L 1042.06227 347.279613 
L 1043.892111 430.311934 
L 1045.721953 351.535881 
L 1047.551794 389.061788 
L 1049.381636 437.385404 
L 1051.211478 393.420587 
L 1053.041319 395.079918 
L 1054.871161 423.202336 
L 1056.701002 380.510555 
L 1058.530844 401.165756 
L 1060.360685 475.000115 
L 1062.190527 382.30884 
L 1064.020368 330.646141 
L 1065.85021 306.012919 
L 1067.680051 256.429404 
L 1069.509893 276.464993 
L 1071.339734 264.521076 
L 1073.169576 284.307431 
L 1074.999417 264.14535 
L 1076.829259 258.665733 
L 1078.6591 280.291007 
L 1080.488942 269.183934 
L 1082.318783 268.251126 
L 1084.148625 266.450146 
L 1085.978466 263.020828 
L 1087.808308 263.927907 
L 1089.638149 264.47501 
L 1091.467991 259.399499 
L 1093.297832 257.339137 
L 1095.127674 254.372874 
L 1096.957515 296.814831 
L 1098.787357 282.284292 
L 1100.617198 342.360616 
L 1102.44704 303.080048 
L 1104.276881 330.440109 
L 1106.106723 310.461997 
L 1107.936564 402.603348 
L 1109.766406 358.823257 
L 1111.596247 495.518888 
L 1113.426089 461.905315 
L 1115.25593 494.213598 
L 1117.085772 459.241469 
L 1118.915613 464.647608 
L 1120.745455 456.4513 
L 1120.745455 456.4513 
" clip-path="url(#pa5f2ee5216)" style="fill: none; stroke: #8fbc8f; stroke-linecap: square"/>
   </g>
   <g id="patch_3">
    <path d="M 162 768.96 
L 162 103.68 
" style="fill: none; stroke: #000000; stroke-width: 0.8; stroke-linejoin: miter; stroke-linecap: square"/>
   </g>
   <g id="patch_4">
    <path d="M 1166.4 768.96 
L 1166.4 103.68 
" style="fill: none; stroke: #000000; stroke-width: 0.8; stroke-linejoin: miter; stroke-linecap: square"/>
   </g>
   <g id="patch_5">
    <path d="M 162 768.96 
L 1166.4 768.96 
" style="fill: none; stroke: #000000; stroke-width: 0.8; stroke-linejoin: miter; stroke-linecap: square"/>
   </g>
   <g id="patch_6">
    <path d="M 162 103.68 
L 1166.4 103.68 
" style="fill: none; stroke: #000000; stroke-width: 0.8; stroke-linejoin: miter; stroke-linecap: square"/>
   </g>
   <g id="text_13">
    <!-- Function 1 -->
    <g transform="translate(632.957813 97.68) scale(0.12 -0.12)">
     <defs>
      <path id="DejaVuSans-46" d="M 628 4666 
L 3309 4666 
L 3309 4134 
L 1259 4134 
L 1259 2759 
L 3109 2759 
L 3109 2228 
L 1259 2228 
L 1259 0 
L 628 0 
L 628 4666 
z
" transform="scale(0.015625)"/>
      <path id="DejaVuSans-75" d="M 544 1381 
L 544 3500 
L 1119 3500 
L 1119 1403 
Q 1119 906 1312 657 
Q 1506 409 1894 409 
Q 2359 409 2629 706 
Q 2900 1003 2900 1516 
L 2900 3500 
L 3475 3500 
L 3475 0 
L 2900 0 
L 2900 538 
Q 2691 219 2414 64 
Q 2138 -91 1772 -91 
Q 1169 -91 856 284 
Q 544 659 544 1381 
z
M 1991 3584 
L 1991 3584 
z
" transform="scale(0.015625)"/>
      <path id="DejaVuSans-6e" d="M 3513 2113 
L 3513 0 
L 2938 0 
L 2938 2094 
Q 2938 2591 2744 2837 
Q 2550 3084 2163 3084 
Q 1697 3084 1428 2787 
Q 1159 2491 1159 1978 
L 1159 0 
L 581 0 
L 581 3500 
L 1159 3500 
L 1159 2956 
Q 1366 3272 1645 3428 
Q 1925 3584 2291 3584 
Q 2894 3584 3203 3211 
Q 3513 2838 3513 2113 
z
" transform="scale(0.015625)"/>
      <path id="DejaVuSans-63" d="M 3122 3366 
L 3122 2828 
Q 2878 2963 2633 3030 
Q 2388 3097 2138 3097 
Q 1578 3097 1268 2742 
Q 959 2388 959 1747 
Q 959 1106 1268 751 
Q 1578 397 2138 397 
Q 2388 397 2633 464 
Q 2878 531 3122 666 
L 3122 134 
Q 2881 22 2623 -34 
Q 2366 -91 2075 -91 
Q 1284 -91 818 406 
Q 353 903 353 1747 
Q 353 2603 823 3093 
Q 1294 3584 2113 3584 
Q 2378 3584 2631 3529 
Q 2884 3475 3122 3366 
z
" transform="scale(0.015625)"/>
      <path id="DejaVuSans-74" d="M 1172 4494 
L 1172 3500 
L 2356 3500 
L 2356 3053 
L 1172 3053 
L 1172 1153 
Q 1172 725 1289 603 
Q 1406 481 1766 481 
L 2356 481 
L 2356 0 
L 1766 0 
Q 1100 0 847 248 
Q 594 497 594 1153 
L 594 3053 
L 172 3053 
L 172 3500 
L 594 3500 
L 594 4494 
L 1172 4494 
z
" transform="scale(0.015625)"/>
      <path id="DejaVuSans-69" d="M 603 3500 
L 1178 3500 
L 1178 0 
L 603 0 
L 603 3500 
z
M 603 4863 
L 1178 4863 
L 1178 4134 
L 603 4134 
L 603 4863 
z
" transform="scale(0.015625)"/>
      <path id="DejaVuSans-6f" d="M 1959 3097 
Q 1497 3097 1228 2736 
Q 959 2375 959 1747 
Q 959 1119 1226 758 
Q 1494 397 1959 397 
Q 2419 397 2687 759 
Q 2956 1122 2956 1747 
Q 2956 2369 2687 2733 
Q 2419 3097 1959 3097 
z
M 1959 3584 
Q 2709 3584 3137 3096 
Q 3566 2609 3566 1747 
Q 3566 888 3137 398 
Q 2709 -91 1959 -91 
Q 1206 -91 779 398 
Q 353 888 353 1747 
Q 353 2609 779 3096 
Q 1206 3584 1959 3584 
z
" transform="scale(0.015625)"/>
      <path id="DejaVuSans-20" transform="scale(0.015625)"/>
     </defs>
     <use xlink:href="#DejaVuSans-46"/>
     <use xlink:href="#DejaVuSans-75" x="52.019531"/>
     <use xlink:href="#DejaVuSans-6e" x="115.398438"/>
     <use xlink:href="#DejaVuSans-63" x="178.777344"/>
     <use xlink:href="#DejaVuSans-74" x="233.757812"/>
     <use xlink:href="#DejaVuSans-69" x="272.966797"/>
     <use xlink:href="#DejaVuSans-6f" x="300.75"/>
     <use xlink:href="#DejaVuSans-6e" x="361.931641"/>
     <use xlink:href="#DejaVuSans-20" x="425.310547"/>
     <use xlink:href="#DejaVuSans-31" x="457.097656"/>
    </g>
   </g>
   <g id="legend_1">
    <g id="patch_7">
     <path d="M 169 170.3925 
L 316.49375 170.3925 
Q 318.49375 170.3925 318.49375 168.3925 
L 318.49375 110.68 
Q 318.49375 108.68 316.49375 108.68 
L 169 108.68 
Q 167 108.68 167 110.68 
L 167 168.3925 
Q 167 170.3925 169 170.3925 
z
" style="fill: #ffffff; opacity: 0.8; stroke: #cccccc; stroke-linejoin: miter"/>
    </g>
    <g id="line2d_17">
     <path d="M 171 116.778437 
L 181 116.778437 
L 191 116.778437 
" style="fill: none; stroke: #4169e1; stroke-linecap: square"/>
    </g>
    <g id="text_14">
     <!-- Truth -->
     <g transform="translate(199 120.278437) scale(0.1 -0.1)">
      <defs>
       <path id="DejaVuSans-54" d="M -19 4666 
L 3928 4666 
L 3928 4134 
L 2272 4134 
L 2272 0 
L 1638 0 
L 1638 4134 
L -19 4134 
L -19 4666 
z
" transform="scale(0.015625)"/>
       <path id="DejaVuSans-72" d="M 2631 2963 
Q 2534 3019 2420 3045 
Q 2306 3072 2169 3072 
Q 1681 3072 1420 2755 
Q 1159 2438 1159 1844 
L 1159 0 
L 581 0 
L 581 3500 
L 1159 3500 
L 1159 2956 
Q 1341 3275 1631 3429 
Q 1922 3584 2338 3584 
Q 2397 3584 2469 3576 
Q 2541 3569 2628 3553 
L 2631 2963 
z
" transform="scale(0.015625)"/>
       <path id="DejaVuSans-68" d="M 3513 2113 
L 3513 0 
L 2938 0 
L 2938 2094 
Q 2938 2591 2744 2837 
Q 2550 3084 2163 3084 
Q 1697 3084 1428 2787 
Q 1159 2491 1159 1978 
L 1159 0 
L 581 0 
L 581 4863 
L 1159 4863 
L 1159 2956 
Q 1366 3272 1645 3428 
Q 1925 3584 2291 3584 
Q 2894 3584 3203 3211 
Q 3513 2838 3513 2113 
z
" transform="scale(0.015625)"/>
      </defs>
      <use xlink:href="#DejaVuSans-54"/>
      <use xlink:href="#DejaVuSans-72" x="46.333984"/>
      <use xlink:href="#DejaVuSans-75" x="87.447266"/>
      <use xlink:href="#DejaVuSans-74" x="150.826172"/>
      <use xlink:href="#DejaVuSans-68" x="190.035156"/>
     </g>
    </g>
    <g id="line2d_18">
     <path d="M 171 131.456562 
L 181 131.456562 
L 191 131.456562 
" style="fill: none; stroke: #ff6347; stroke-linecap: square"/>
    </g>
    <g id="text_15">
     <!-- Gossip predictions -->
     <g transform="translate(199 134.956562) scale(0.1 -0.1)">
      <defs>
       <path id="DejaVuSans-47" d="M 3809 666 
L 3809 1919 
L 2778 1919 
L 2778 2438 
L 4434 2438 
L 4434 434 
Q 4069 175 3628 42 
Q 3188 -91 2688 -91 
Q 1594 -91 976 548 
Q 359 1188 359 2328 
Q 359 3472 976 4111 
Q 1594 4750 2688 4750 
Q 3144 4750 3555 4637 
Q 3966 4525 4313 4306 
L 4313 3634 
Q 3963 3931 3569 4081 
Q 3175 4231 2741 4231 
Q 1884 4231 1454 3753 
Q 1025 3275 1025 2328 
Q 1025 1384 1454 906 
Q 1884 428 2741 428 
Q 3075 428 3337 486 
Q 3600 544 3809 666 
z
" transform="scale(0.015625)"/>
       <path id="DejaVuSans-73" d="M 2834 3397 
L 2834 2853 
Q 2591 2978 2328 3040 
Q 2066 3103 1784 3103 
Q 1356 3103 1142 2972 
Q 928 2841 928 2578 
Q 928 2378 1081 2264 
Q 1234 2150 1697 2047 
L 1894 2003 
Q 2506 1872 2764 1633 
Q 3022 1394 3022 966 
Q 3022 478 2636 193 
Q 2250 -91 1575 -91 
Q 1294 -91 989 -36 
Q 684 19 347 128 
L 347 722 
Q 666 556 975 473 
Q 1284 391 1588 391 
Q 1994 391 2212 530 
Q 2431 669 2431 922 
Q 2431 1156 2273 1281 
Q 2116 1406 1581 1522 
L 1381 1569 
Q 847 1681 609 1914 
Q 372 2147 372 2553 
Q 372 3047 722 3315 
Q 1072 3584 1716 3584 
Q 2034 3584 2315 3537 
Q 2597 3491 2834 3397 
z
" transform="scale(0.015625)"/>
       <path id="DejaVuSans-70" d="M 1159 525 
L 1159 -1331 
L 581 -1331 
L 581 3500 
L 1159 3500 
L 1159 2969 
Q 1341 3281 1617 3432 
Q 1894 3584 2278 3584 
Q 2916 3584 3314 3078 
Q 3713 2572 3713 1747 
Q 3713 922 3314 415 
Q 2916 -91 2278 -91 
Q 1894 -91 1617 61 
Q 1341 213 1159 525 
z
M 3116 1747 
Q 3116 2381 2855 2742 
Q 2594 3103 2138 3103 
Q 1681 3103 1420 2742 
Q 1159 2381 1159 1747 
Q 1159 1113 1420 752 
Q 1681 391 2138 391 
Q 2594 391 2855 752 
Q 3116 1113 3116 1747 
z
" transform="scale(0.015625)"/>
       <path id="DejaVuSans-65" d="M 3597 1894 
L 3597 1613 
L 953 1613 
Q 991 1019 1311 708 
Q 1631 397 2203 397 
Q 2534 397 2845 478 
Q 3156 559 3463 722 
L 3463 178 
Q 3153 47 2828 -22 
Q 2503 -91 2169 -91 
Q 1331 -91 842 396 
Q 353 884 353 1716 
Q 353 2575 817 3079 
Q 1281 3584 2069 3584 
Q 2775 3584 3186 3129 
Q 3597 2675 3597 1894 
z
M 3022 2063 
Q 3016 2534 2758 2815 
Q 2500 3097 2075 3097 
Q 1594 3097 1305 2825 
Q 1016 2553 972 2059 
L 3022 2063 
z
" transform="scale(0.015625)"/>
       <path id="DejaVuSans-64" d="M 2906 2969 
L 2906 4863 
L 3481 4863 
L 3481 0 
L 2906 0 
L 2906 525 
Q 2725 213 2448 61 
Q 2172 -91 1784 -91 
Q 1150 -91 751 415 
Q 353 922 353 1747 
Q 353 2572 751 3078 
Q 1150 3584 1784 3584 
Q 2172 3584 2448 3432 
Q 2725 3281 2906 2969 
z
M 947 1747 
Q 947 1113 1208 752 
Q 1469 391 1925 391 
Q 2381 391 2643 752 
Q 2906 1113 2906 1747 
Q 2906 2381 2643 2742 
Q 2381 3103 1925 3103 
Q 1469 3103 1208 2742 
Q 947 2381 947 1747 
z
" transform="scale(0.015625)"/>
      </defs>
      <use xlink:href="#DejaVuSans-47"/>
      <use xlink:href="#DejaVuSans-6f" x="77.490234"/>
      <use xlink:href="#DejaVuSans-73" x="138.671875"/>
      <use xlink:href="#DejaVuSans-73" x="190.771484"/>
      <use xlink:href="#DejaVuSans-69" x="242.871094"/>
      <use xlink:href="#DejaVuSans-70" x="270.654297"/>
      <use xlink:href="#DejaVuSans-20" x="334.130859"/>
      <use xlink:href="#DejaVuSans-70" x="365.917969"/>
      <use xlink:href="#DejaVuSans-72" x="429.394531"/>
      <use xlink:href="#DejaVuSans-65" x="468.257812"/>
      <use xlink:href="#DejaVuSans-64" x="529.78125"/>
      <use xlink:href="#DejaVuSans-69" x="593.257812"/>
      <use xlink:href="#DejaVuSans-63" x="621.041016"/>
      <use xlink:href="#DejaVuSans-74" x="676.021484"/>
      <use xlink:href="#DejaVuSans-69" x="715.230469"/>
      <use xlink:href="#DejaVuSans-6f" x="743.013672"/>
      <use xlink:href="#DejaVuSans-6e" x="804.195312"/>
      <use xlink:href="#DejaVuSans-73" x="867.574219"/>
     </g>
    </g>
    <g id="line2d_19">
     <path d="M 171 146.134687 
L 181 146.134687 
L 191 146.134687 
" style="fill: none; stroke: #da70d6; stroke-linecap: square"/>
    </g>
    <g id="text_16">
     <!-- Centralized predictions -->
     <g transform="translate(199 149.634687) scale(0.1 -0.1)">
      <defs>
       <path id="DejaVuSans-43" d="M 4122 4306 
L 4122 3641 
Q 3803 3938 3442 4084 
Q 3081 4231 2675 4231 
Q 1875 4231 1450 3742 
Q 1025 3253 1025 2328 
Q 1025 1406 1450 917 
Q 1875 428 2675 428 
Q 3081 428 3442 575 
Q 3803 722 4122 1019 
L 4122 359 
Q 3791 134 3420 21 
Q 3050 -91 2638 -91 
Q 1578 -91 968 557 
Q 359 1206 359 2328 
Q 359 3453 968 4101 
Q 1578 4750 2638 4750 
Q 3056 4750 3426 4639 
Q 3797 4528 4122 4306 
z
" transform="scale(0.015625)"/>
       <path id="DejaVuSans-61" d="M 2194 1759 
Q 1497 1759 1228 1600 
Q 959 1441 959 1056 
Q 959 750 1161 570 
Q 1363 391 1709 391 
Q 2188 391 2477 730 
Q 2766 1069 2766 1631 
L 2766 1759 
L 2194 1759 
z
M 3341 1997 
L 3341 0 
L 2766 0 
L 2766 531 
Q 2569 213 2275 61 
Q 1981 -91 1556 -91 
Q 1019 -91 701 211 
Q 384 513 384 1019 
Q 384 1609 779 1909 
Q 1175 2209 1959 2209 
L 2766 2209 
L 2766 2266 
Q 2766 2663 2505 2880 
Q 2244 3097 1772 3097 
Q 1472 3097 1187 3025 
Q 903 2953 641 2809 
L 641 3341 
Q 956 3463 1253 3523 
Q 1550 3584 1831 3584 
Q 2591 3584 2966 3190 
Q 3341 2797 3341 1997 
z
" transform="scale(0.015625)"/>
       <path id="DejaVuSans-6c" d="M 603 4863 
L 1178 4863 
L 1178 0 
L 603 0 
L 603 4863 
z
" transform="scale(0.015625)"/>
       <path id="DejaVuSans-7a" d="M 353 3500 
L 3084 3500 
L 3084 2975 
L 922 459 
L 3084 459 
L 3084 0 
L 275 0 
L 275 525 
L 2438 3041 
L 353 3041 
L 353 3500 
z
" transform="scale(0.015625)"/>
      </defs>
      <use xlink:href="#DejaVuSans-43"/>
      <use xlink:href="#DejaVuSans-65" x="69.824219"/>
      <use xlink:href="#DejaVuSans-6e" x="131.347656"/>
      <use xlink:href="#DejaVuSans-74" x="194.726562"/>
      <use xlink:href="#DejaVuSans-72" x="233.935547"/>
      <use xlink:href="#DejaVuSans-61" x="275.048828"/>
      <use xlink:href="#DejaVuSans-6c" x="336.328125"/>
      <use xlink:href="#DejaVuSans-69" x="364.111328"/>
      <use xlink:href="#DejaVuSans-7a" x="391.894531"/>
      <use xlink:href="#DejaVuSans-65" x="444.384766"/>
      <use xlink:href="#DejaVuSans-64" x="505.908203"/>
      <use xlink:href="#DejaVuSans-20" x="569.384766"/>
      <use xlink:href="#DejaVuSans-70" x="601.171875"/>
      <use xlink:href="#DejaVuSans-72" x="664.648438"/>
      <use xlink:href="#DejaVuSans-65" x="703.511719"/>
      <use xlink:href="#DejaVuSans-64" x="765.035156"/>
      <use xlink:href="#DejaVuSans-69" x="828.511719"/>
      <use xlink:href="#DejaVuSans-63" x="856.294922"/>
      <use xlink:href="#DejaVuSans-74" x="911.275391"/>
      <use xlink:href="#DejaVuSans-69" x="950.484375"/>
      <use xlink:href="#DejaVuSans-6f" x="978.267578"/>
      <use xlink:href="#DejaVuSans-6e" x="1039.449219"/>
      <use xlink:href="#DejaVuSans-73" x="1102.828125"/>
     </g>
    </g>
    <g id="line2d_20">
     <path d="M 171 160.812812 
L 181 160.812812 
L 191 160.812812 
" style="fill: none; stroke: #8fbc8f; stroke-linecap: square"/>
    </g>
    <g id="text_17">
     <!-- Single predictions -->
     <g transform="translate(199 164.312812) scale(0.1 -0.1)">
      <defs>
       <path id="DejaVuSans-53" d="M 3425 4513 
L 3425 3897 
Q 3066 4069 2747 4153 
Q 2428 4238 2131 4238 
Q 1616 4238 1336 4038 
Q 1056 3838 1056 3469 
Q 1056 3159 1242 3001 
Q 1428 2844 1947 2747 
L 2328 2669 
Q 3034 2534 3370 2195 
Q 3706 1856 3706 1288 
Q 3706 609 3251 259 
Q 2797 -91 1919 -91 
Q 1588 -91 1214 -16 
Q 841 59 441 206 
L 441 856 
Q 825 641 1194 531 
Q 1563 422 1919 422 
Q 2459 422 2753 634 
Q 3047 847 3047 1241 
Q 3047 1584 2836 1778 
Q 2625 1972 2144 2069 
L 1759 2144 
Q 1053 2284 737 2584 
Q 422 2884 422 3419 
Q 422 4038 858 4394 
Q 1294 4750 2059 4750 
Q 2388 4750 2728 4690 
Q 3069 4631 3425 4513 
z
" transform="scale(0.015625)"/>
       <path id="DejaVuSans-67" d="M 2906 1791 
Q 2906 2416 2648 2759 
Q 2391 3103 1925 3103 
Q 1463 3103 1205 2759 
Q 947 2416 947 1791 
Q 947 1169 1205 825 
Q 1463 481 1925 481 
Q 2391 481 2648 825 
Q 2906 1169 2906 1791 
z
M 3481 434 
Q 3481 -459 3084 -895 
Q 2688 -1331 1869 -1331 
Q 1566 -1331 1297 -1286 
Q 1028 -1241 775 -1147 
L 775 -588 
Q 1028 -725 1275 -790 
Q 1522 -856 1778 -856 
Q 2344 -856 2625 -561 
Q 2906 -266 2906 331 
L 2906 616 
Q 2728 306 2450 153 
Q 2172 0 1784 0 
Q 1141 0 747 490 
Q 353 981 353 1791 
Q 353 2603 747 3093 
Q 1141 3584 1784 3584 
Q 2172 3584 2450 3431 
Q 2728 3278 2906 2969 
L 2906 3500 
L 3481 3500 
L 3481 434 
z
" transform="scale(0.015625)"/>
      </defs>
      <use xlink:href="#DejaVuSans-53"/>
      <use xlink:href="#DejaVuSans-69" x="63.476562"/>
      <use xlink:href="#DejaVuSans-6e" x="91.259766"/>
      <use xlink:href="#DejaVuSans-67" x="154.638672"/>
      <use xlink:href="#DejaVuSans-6c" x="218.115234"/>
      <use xlink:href="#DejaVuSans-65" x="245.898438"/>
      <use xlink:href="#DejaVuSans-20" x="307.421875"/>
      <use xlink:href="#DejaVuSans-70" x="339.208984"/>
      <use xlink:href="#DejaVuSans-72" x="402.685547"/>
      <use xlink:href="#DejaVuSans-65" x="441.548828"/>
      <use xlink:href="#DejaVuSans-64" x="503.072266"/>
      <use xlink:href="#DejaVuSans-69" x="566.548828"/>
      <use xlink:href="#DejaVuSans-63" x="594.332031"/>
      <use xlink:href="#DejaVuSans-74" x="649.3125"/>
      <use xlink:href="#DejaVuSans-69" x="688.521484"/>
      <use xlink:href="#DejaVuSans-6f" x="716.304688"/>
      <use xlink:href="#DejaVuSans-6e" x="777.486328"/>
      <use xlink:href="#DejaVuSans-73" x="840.865234"/>
     </g>
    </g>
   </g>
  </g>
 </g>
 <defs>
  <clipPath id="pa5f2ee5216">
   <rect x="162" y="103.68" width="1004.4" height="665.28"/>
  </clipPath>
 </defs>
</svg>
