<?xml version="1.0" encoding="utf-8" standalone="no"?>
<!DOCTYPE svg PUBLIC "-//W3C//DTD SVG 1.1//EN"
  "http://www.w3.org/Graphics/SVG/1.1/DTD/svg11.dtd">
<svg xmlns:xlink="http://www.w3.org/1999/xlink" width="1296pt" height="864pt" viewBox="0 0 1296 864" xmlns="http://www.w3.org/2000/svg" version="1.1">
 <metadata>
  <rdf:RDF xmlns:dc="http://purl.org/dc/elements/1.1/" xmlns:cc="http://creativecommons.org/ns#" xmlns:rdf="http://www.w3.org/1999/02/22-rdf-syntax-ns#">
   <cc:Work>
    <dc:type rdf:resource="http://purl.org/dc/dcmitype/StillImage"/>
    <dc:date>2024-01-06T09:30:53.549606</dc:date>
    <dc:format>image/svg+xml</dc:format>
    <dc:creator>
     <cc:Agent>
      <dc:title>Matplotlib v3.8.0, https://matplotlib.org/</dc:title>
     </cc:Agent>
    </dc:creator>
   </cc:Work>
  </rdf:RDF>
 </metadata>
 <defs>
  <style type="text/css">*{stroke-linejoin: round; stroke-linecap: butt}</style>
 </defs>
 <g id="figure_1">
  <g id="patch_1">
   <path d="M 0 864 
L 1296 864 
L 1296 0 
L 0 0 
z
" style="fill: #ffffff"/>
  </g>
  <g id="axes_1">
   <g id="patch_2">
    <path d="M 162 768.96 
L 1166.4 768.96 
L 1166.4 103.68 
L 162 103.68 
z
" style="fill: #ffffff"/>
   </g>
   <g id="matplotlib.axis_1">
    <g id="xtick_1">
     <g id="line2d_1">
      <defs>
       <path id="m8d6772353c" d="M 0 0 
L 0 3.5 
" style="stroke: #000000; stroke-width: 0.8"/>
      </defs>
      <g>
       <use xlink:href="#m8d6772353c" x="207.654545" y="768.96" style="stroke: #000000; stroke-width: 0.8"/>
      </g>
     </g>
     <g id="text_1">
      <!-- 0 -->
      <g transform="translate(204.473295 783.558437) scale(0.1 -0.1)">
       <defs>
        <path id="DejaVuSans-30" d="M 2034 4250 
Q 1547 4250 1301 3770 
Q 1056 3291 1056 2328 
Q 1056 1369 1301 889 
Q 1547 409 2034 409 
Q 2525 409 2770 889 
Q 3016 1369 3016 2328 
Q 3016 3291 2770 3770 
Q 2525 4250 2034 4250 
z
M 2034 4750 
Q 2819 4750 3233 4129 
Q 3647 3509 3647 2328 
Q 3647 1150 3233 529 
Q 2819 -91 2034 -91 
Q 1250 -91 836 529 
Q 422 1150 422 2328 
Q 422 3509 836 4129 
Q 1250 4750 2034 4750 
z
" transform="scale(0.015625)"/>
       </defs>
       <use xlink:href="#DejaVuSans-30"/>
      </g>
     </g>
    </g>
    <g id="xtick_2">
     <g id="line2d_2">
      <g>
       <use xlink:href="#m8d6772353c" x="390.638696" y="768.96" style="stroke: #000000; stroke-width: 0.8"/>
      </g>
     </g>
     <g id="text_2">
      <!-- 100 -->
      <g transform="translate(381.094946 783.558437) scale(0.1 -0.1)">
       <defs>
        <path id="DejaVuSans-31" d="M 794 531 
L 1825 531 
L 1825 4091 
L 703 3866 
L 703 4441 
L 1819 4666 
L 2450 4666 
L 2450 531 
L 3481 531 
L 3481 0 
L 794 0 
L 794 531 
z
" transform="scale(0.015625)"/>
       </defs>
       <use xlink:href="#DejaVuSans-31"/>
       <use xlink:href="#DejaVuSans-30" x="63.623047"/>
       <use xlink:href="#DejaVuSans-30" x="127.246094"/>
      </g>
     </g>
    </g>
    <g id="xtick_3">
     <g id="line2d_3">
      <g>
       <use xlink:href="#m8d6772353c" x="573.622846" y="768.96" style="stroke: #000000; stroke-width: 0.8"/>
      </g>
     </g>
     <g id="text_3">
      <!-- 200 -->
      <g transform="translate(564.079096 783.558437) scale(0.1 -0.1)">
       <defs>
        <path id="DejaVuSans-32" d="M 1228 531 
L 3431 531 
L 3431 0 
L 469 0 
L 469 531 
Q 828 903 1448 1529 
Q 2069 2156 2228 2338 
Q 2531 2678 2651 2914 
Q 2772 3150 2772 3378 
Q 2772 3750 2511 3984 
Q 2250 4219 1831 4219 
Q 1534 4219 1204 4116 
Q 875 4013 500 3803 
L 500 4441 
Q 881 4594 1212 4672 
Q 1544 4750 1819 4750 
Q 2544 4750 2975 4387 
Q 3406 4025 3406 3419 
Q 3406 3131 3298 2873 
Q 3191 2616 2906 2266 
Q 2828 2175 2409 1742 
Q 1991 1309 1228 531 
z
" transform="scale(0.015625)"/>
       </defs>
       <use xlink:href="#DejaVuSans-32"/>
       <use xlink:href="#DejaVuSans-30" x="63.623047"/>
       <use xlink:href="#DejaVuSans-30" x="127.246094"/>
      </g>
     </g>
    </g>
    <g id="xtick_4">
     <g id="line2d_4">
      <g>
       <use xlink:href="#m8d6772353c" x="756.606996" y="768.96" style="stroke: #000000; stroke-width: 0.8"/>
      </g>
     </g>
     <g id="text_4">
      <!-- 300 -->
      <g transform="translate(747.063246 783.558437) scale(0.1 -0.1)">
       <defs>
        <path id="DejaVuSans-33" d="M 2597 2516 
Q 3050 2419 3304 2112 
Q 3559 1806 3559 1356 
Q 3559 666 3084 287 
Q 2609 -91 1734 -91 
Q 1441 -91 1130 -33 
Q 819 25 488 141 
L 488 750 
Q 750 597 1062 519 
Q 1375 441 1716 441 
Q 2309 441 2620 675 
Q 2931 909 2931 1356 
Q 2931 1769 2642 2001 
Q 2353 2234 1838 2234 
L 1294 2234 
L 1294 2753 
L 1863 2753 
Q 2328 2753 2575 2939 
Q 2822 3125 2822 3475 
Q 2822 3834 2567 4026 
Q 2313 4219 1838 4219 
Q 1578 4219 1281 4162 
Q 984 4106 628 3988 
L 628 4550 
Q 988 4650 1302 4700 
Q 1616 4750 1894 4750 
Q 2613 4750 3031 4423 
Q 3450 4097 3450 3541 
Q 3450 3153 3228 2886 
Q 3006 2619 2597 2516 
z
" transform="scale(0.015625)"/>
       </defs>
       <use xlink:href="#DejaVuSans-33"/>
       <use xlink:href="#DejaVuSans-30" x="63.623047"/>
       <use xlink:href="#DejaVuSans-30" x="127.246094"/>
      </g>
     </g>
    </g>
    <g id="xtick_5">
     <g id="line2d_5">
      <g>
       <use xlink:href="#m8d6772353c" x="939.591146" y="768.96" style="stroke: #000000; stroke-width: 0.8"/>
      </g>
     </g>
     <g id="text_5">
      <!-- 400 -->
      <g transform="translate(930.047396 783.558437) scale(0.1 -0.1)">
       <defs>
        <path id="DejaVuSans-34" d="M 2419 4116 
L 825 1625 
L 2419 1625 
L 2419 4116 
z
M 2253 4666 
L 3047 4666 
L 3047 1625 
L 3713 1625 
L 3713 1100 
L 3047 1100 
L 3047 0 
L 2419 0 
L 2419 1100 
L 313 1100 
L 313 1709 
L 2253 4666 
z
" transform="scale(0.015625)"/>
       </defs>
       <use xlink:href="#DejaVuSans-34"/>
       <use xlink:href="#DejaVuSans-30" x="63.623047"/>
       <use xlink:href="#DejaVuSans-30" x="127.246094"/>
      </g>
     </g>
    </g>
    <g id="xtick_6">
     <g id="line2d_6">
      <g>
       <use xlink:href="#m8d6772353c" x="1122.575296" y="768.96" style="stroke: #000000; stroke-width: 0.8"/>
      </g>
     </g>
     <g id="text_6">
      <!-- 500 -->
      <g transform="translate(1113.031546 783.558437) scale(0.1 -0.1)">
       <defs>
        <path id="DejaVuSans-35" d="M 691 4666 
L 3169 4666 
L 3169 4134 
L 1269 4134 
L 1269 2991 
Q 1406 3038 1543 3061 
Q 1681 3084 1819 3084 
Q 2600 3084 3056 2656 
Q 3513 2228 3513 1497 
Q 3513 744 3044 326 
Q 2575 -91 1722 -91 
Q 1428 -91 1123 -41 
Q 819 9 494 109 
L 494 744 
Q 775 591 1075 516 
Q 1375 441 1709 441 
Q 2250 441 2565 725 
Q 2881 1009 2881 1497 
Q 2881 1984 2565 2268 
Q 2250 2553 1709 2553 
Q 1456 2553 1204 2497 
Q 953 2441 691 2322 
L 691 4666 
z
" transform="scale(0.015625)"/>
       </defs>
       <use xlink:href="#DejaVuSans-35"/>
       <use xlink:href="#DejaVuSans-30" x="63.623047"/>
       <use xlink:href="#DejaVuSans-30" x="127.246094"/>
      </g>
     </g>
    </g>
   </g>
   <g id="matplotlib.axis_2">
    <g id="ytick_1">
     <g id="line2d_7">
      <defs>
       <path id="m63326deb19" d="M 0 0 
L -3.5 0 
" style="stroke: #000000; stroke-width: 0.8"/>
      </defs>
      <g>
       <use xlink:href="#m63326deb19" x="162" y="751.346305" style="stroke: #000000; stroke-width: 0.8"/>
      </g>
     </g>
     <g id="text_7">
      <!-- 0 -->
      <g transform="translate(148.6375 755.145524) scale(0.1 -0.1)">
       <use xlink:href="#DejaVuSans-30"/>
      </g>
     </g>
    </g>
    <g id="ytick_2">
     <g id="line2d_8">
      <g>
       <use xlink:href="#m63326deb19" x="162" y="625.083257" style="stroke: #000000; stroke-width: 0.8"/>
      </g>
     </g>
     <g id="text_8">
      <!-- 100 -->
      <g transform="translate(135.9125 628.882476) scale(0.1 -0.1)">
       <use xlink:href="#DejaVuSans-31"/>
       <use xlink:href="#DejaVuSans-30" x="63.623047"/>
       <use xlink:href="#DejaVuSans-30" x="127.246094"/>
      </g>
     </g>
    </g>
    <g id="ytick_3">
     <g id="line2d_9">
      <g>
       <use xlink:href="#m63326deb19" x="162" y="498.820209" style="stroke: #000000; stroke-width: 0.8"/>
      </g>
     </g>
     <g id="text_9">
      <!-- 200 -->
      <g transform="translate(135.9125 502.619428) scale(0.1 -0.1)">
       <use xlink:href="#DejaVuSans-32"/>
       <use xlink:href="#DejaVuSans-30" x="63.623047"/>
       <use xlink:href="#DejaVuSans-30" x="127.246094"/>
      </g>
     </g>
    </g>
    <g id="ytick_4">
     <g id="line2d_10">
      <g>
       <use xlink:href="#m63326deb19" x="162" y="372.557161" style="stroke: #000000; stroke-width: 0.8"/>
      </g>
     </g>
     <g id="text_10">
      <!-- 300 -->
      <g transform="translate(135.9125 376.35638) scale(0.1 -0.1)">
       <use xlink:href="#DejaVuSans-33"/>
       <use xlink:href="#DejaVuSans-30" x="63.623047"/>
       <use xlink:href="#DejaVuSans-30" x="127.246094"/>
      </g>
     </g>
    </g>
    <g id="ytick_5">
     <g id="line2d_11">
      <g>
       <use xlink:href="#m63326deb19" x="162" y="246.294113" style="stroke: #000000; stroke-width: 0.8"/>
      </g>
     </g>
     <g id="text_11">
      <!-- 400 -->
      <g transform="translate(135.9125 250.093331) scale(0.1 -0.1)">
       <use xlink:href="#DejaVuSans-34"/>
       <use xlink:href="#DejaVuSans-30" x="63.623047"/>
       <use xlink:href="#DejaVuSans-30" x="127.246094"/>
      </g>
     </g>
    </g>
    <g id="ytick_6">
     <g id="line2d_12">
      <g>
       <use xlink:href="#m63326deb19" x="162" y="120.031065" style="stroke: #000000; stroke-width: 0.8"/>
      </g>
     </g>
     <g id="text_12">
      <!-- 500 -->
      <g transform="translate(135.9125 123.830283) scale(0.1 -0.1)">
       <use xlink:href="#DejaVuSans-35"/>
       <use xlink:href="#DejaVuSans-30" x="63.623047"/>
       <use xlink:href="#DejaVuSans-30" x="127.246094"/>
      </g>
     </g>
    </g>
   </g>
   <g id="line2d_13">
    <path d="M 207.654545 564.476994 
L 209.484387 609.931691 
L 211.314228 680.638998 
L 213.14407 647.810605 
L 214.973911 664.224802 
L 216.803753 623.820626 
L 218.633594 635.184301 
L 220.463436 664.224802 
L 224.123119 633.92167 
L 225.95296 665.487432 
L 227.782802 527.86071 
L 229.612643 722.305804 
L 231.442485 669.275324 
L 233.272326 679.376367 
L 235.102168 598.568017 
L 236.932009 574.578038 
L 238.761851 450.840251 
L 240.591692 455.890772 
L 242.421534 290.48618 
L 244.251375 188.213111 
L 246.081217 133.92 
L 268.039315 133.92 
L 269.869156 202.102046 
L 271.698998 133.92 
L 273.528839 194.526263 
L 275.358681 133.92 
L 277.188522 133.92 
L 279.018364 209.677829 
L 280.848206 325.839833 
L 282.678047 133.92 
L 291.827255 133.92 
L 293.657096 183.162589 
L 297.316779 133.92 
L 299.146621 133.92 
L 300.976462 300.587223 
L 302.806304 290.48618 
L 304.636145 285.435658 
L 306.465987 190.738372 
L 308.295828 183.162589 
L 310.12567 347.304551 
L 311.955511 386.446096 
L 313.785353 387.708727 
L 315.615194 133.92 
L 319.274877 401.597662 
L 321.104719 439.476576 
L 322.93456 385.183466 
L 324.764402 385.183466 
L 326.594243 402.860292 
L 328.424085 488.719165 
L 330.253926 555.63858 
L 332.083768 501.34547 
L 335.743451 409.173445 
L 337.573292 409.173445 
L 339.403134 516.497035 
L 341.232975 409.173445 
L 343.062817 348.567182 
L 344.892658 495.032317 
L 346.7225 394.021879 
L 348.552341 515.234405 
L 350.382183 484.931273 
L 352.212024 505.133361 
L 355.871707 484.931273 
L 357.701549 482.406013 
L 359.53139 626.345887 
L 361.361232 548.062797 
L 363.191073 489.981795 
L 365.020915 401.597662 
L 366.850756 444.527098 
L 368.680598 388.971357 
L 370.510439 505.133361 
L 372.340281 328.365094 
L 374.170122 223.566764 
L 375.999964 209.677829 
L 377.829805 253.869896 
L 379.659647 261.445678 
L 381.489488 418.011858 
L 383.31933 380.132944 
L 385.149171 320.789311 
L 386.979013 253.869896 
L 388.808854 174.324175 
L 390.638696 133.92 
L 392.468537 133.92 
L 394.298379 178.112067 
L 396.12822 239.98096 
L 397.958062 227.354656 
L 399.787903 335.940877 
L 401.617745 171.798914 
L 403.447586 228.617286 
L 405.277428 387.708727 
L 407.107269 133.92 
L 408.937111 270.284092 
L 410.766952 375.082422 
L 412.596794 471.042338 
L 414.426635 505.133361 
L 416.256477 616.244843 
L 418.086318 669.275324 
L 419.91616 546.800167 
L 421.746001 460.941294 
L 423.575843 570.790146 
L 425.405684 529.12334 
L 427.235526 479.880752 
L 429.065367 561.951733 
L 430.895209 263.970939 
L 432.72505 392.759248 
L 434.554892 347.304551 
L 436.384733 452.102881 
L 438.214575 435.688685 
L 440.044416 455.890772 
L 441.874258 484.931273 
L 443.704099 543.012276 
L 445.533941 535.436493 
L 447.363782 320.789311 
L 449.193624 545.537537 
L 451.023465 296.799332 
L 452.853307 510.183883 
L 454.683148 520.284927 
L 456.51299 590.992234 
L 458.342831 545.537537 
L 460.172673 482.406013 
L 462.002514 482.406013 
L 463.832356 510.183883 
L 465.662197 267.758831 
L 467.492039 265.23357 
L 469.32188 521.547557 
L 471.151722 481.143382 
L 472.981563 632.65904 
L 474.811405 519.022296 
L 476.641246 530.385971 
L 478.471088 540.487015 
L 480.300929 536.699123 
L 482.130771 626.345887 
L 483.960612 609.931691 
L 485.790454 573.315407 
L 487.620295 621.295365 
L 489.450137 641.497453 
L 491.279978 592.254864 
L 493.10982 554.37595 
L 494.939661 464.729186 
L 496.769503 515.234405 
L 498.599344 553.113319 
L 500.429186 507.658622 
L 502.259027 366.244008 
L 504.088869 558.163841 
L 505.91871 521.547557 
L 507.748552 558.163841 
L 509.578393 484.931273 
L 511.408235 495.032317 
L 513.238076 525.335449 
L 515.067918 587.204342 
L 516.897759 471.042338 
L 518.727601 626.345887 
L 520.557442 617.507474 
L 522.387284 550.588058 
L 524.217125 311.950898 
L 526.046967 580.89119 
L 527.876808 529.12334 
L 529.70665 511.446514 
L 531.536491 652.861127 
L 533.366333 558.163841 
L 535.196174 692.002672 
L 537.026016 695.790564 
L 538.855857 686.95215 
L 540.685699 534.173862 
L 542.51554 613.719582 
L 544.345382 736.194739 
L 546.175223 698.315825 
L 548.005065 656.649019 
L 549.834906 656.649019 
L 551.664748 676.851106 
L 553.494589 703.366347 
L 555.324431 652.861127 
L 557.154272 647.810605 
L 558.984114 678.113737 
L 560.813955 693.265303 
L 562.643797 569.527516 
L 564.473638 598.568017 
L 566.30348 630.133779 
L 568.133321 492.507056 
L 569.963163 681.901628 
L 571.793004 680.638998 
L 573.622846 669.275324 
L 575.452687 621.295365 
L 577.282529 738.72 
L 579.11237 661.699541 
L 580.942212 689.477411 
L 582.772053 622.557996 
L 584.601895 628.871148 
L 586.431736 551.850689 
L 588.261578 555.63858 
L 590.091419 520.284927 
L 591.921261 370.0319 
L 593.751102 197.051524 
L 595.580944 285.435658 
L 597.410785 193.263633 
L 599.240627 138.970522 
L 601.070468 133.92 
L 602.90031 310.688267 
L 604.730151 133.92 
L 606.559993 133.92 
L 608.389834 272.809353 
L 610.219676 133.92 
L 613.879359 133.92 
L 615.7092 186.95048 
L 617.539042 204.627307 
L 619.368883 133.92 
L 621.198725 250.082004 
L 623.028566 218.516242 
L 624.858408 222.304134 
L 626.688249 221.041503 
L 628.518091 133.92 
L 630.347932 170.536284 
L 632.177774 280.385136 
L 634.007615 133.92 
L 635.837457 290.48618 
L 637.667298 311.950898 
L 639.49714 133.92 
L 644.986664 133.92 
L 646.816506 279.122505 
L 648.646347 133.92 
L 650.476189 272.809353 
L 652.30603 245.031482 
L 654.135872 304.375115 
L 655.965713 227.354656 
L 657.795555 386.446096 
L 659.625396 330.890355 
L 661.455238 213.46572 
L 663.285079 298.061962 
L 665.114921 133.92 
L 666.944762 189.475741 
L 668.774604 258.920418 
L 670.604445 146.546305 
L 672.434287 133.92 
L 674.264128 414.223967 
L 676.09397 251.344635 
L 677.923811 154.122088 
L 679.753653 245.031482 
L 681.583494 410.436075 
L 683.413336 546.800167 
L 685.243177 525.335449 
L 687.073019 584.679081 
L 688.90286 512.709144 
L 690.732702 517.759666 
L 692.562543 545.537537 
L 694.392385 460.941294 
L 696.222226 521.547557 
L 698.052068 550.588058 
L 699.881909 601.093278 
L 701.711751 539.224384 
L 703.541592 546.800167 
L 705.371434 603.618539 
L 707.201275 588.466973 
L 709.031117 601.093278 
L 710.860958 474.83023 
L 712.6908 559.426472 
L 714.520641 544.274906 
L 716.350483 574.578038 
L 718.180324 555.63858 
L 720.010166 637.709562 
L 721.840007 598.568017 
L 723.669849 546.800167 
L 725.49969 536.699123 
L 727.329532 572.052777 
L 729.159373 520.284927 
L 730.989215 548.062797 
L 732.819056 708.416868 
L 734.648898 628.871148 
L 736.478739 675.588476 
L 738.308581 676.851106 
L 740.138422 511.446514 
L 741.968264 606.1438 
L 743.798105 654.123758 
L 745.627947 626.345887 
L 747.457788 671.800585 
L 749.28763 700.841086 
L 751.117471 636.446931 
L 752.947313 727.356326 
L 754.777154 705.891608 
L 756.606996 585.941712 
L 758.436837 640.234823 
L 760.266679 598.568017 
L 762.09652 541.749645 
L 763.926362 522.810188 
L 765.756203 353.617704 
L 767.586045 366.244008 
L 769.415886 261.445678 
L 771.245728 203.364676 
L 773.075569 323.314572 
L 774.905411 133.92 
L 782.224777 133.92 
L 784.054618 169.273653 
L 785.88446 133.92 
L 791.373984 133.92 
L 793.203826 175.586806 
L 795.033667 279.122505 
L 796.863509 141.495783 
L 798.69335 171.798914 
L 800.523192 137.707891 
L 802.353033 193.263633 
L 804.182875 133.92 
L 806.012716 238.71833 
L 807.842558 133.92 
L 809.672399 133.92 
L 811.502241 137.707891 
L 813.332082 133.92 
L 815.161924 258.920418 
L 816.991765 133.92 
L 822.48129 133.92 
L 824.311131 218.516242 
L 826.140973 175.586806 
L 827.970814 282.910397 
L 829.800656 298.061962 
L 831.630497 303.112484 
L 833.460339 338.466138 
L 835.29018 378.870313 
L 837.120022 209.677829 
L 838.949863 276.597244 
L 840.779705 322.051942 
L 842.609546 168.011023 
L 844.439388 313.213528 
L 846.269229 222.304134 
L 848.099071 290.48618 
L 849.928912 392.759248 
L 851.758754 535.436493 
L 853.588595 449.57762 
L 855.418437 420.537119 
L 857.248278 482.406013 
L 859.07812 383.920835 
L 860.907961 559.426472 
L 862.737803 248.819374 
L 864.567644 524.072818 
L 866.397486 602.355908 
L 868.227327 515.234405 
L 870.057169 549.325428 
L 871.88701 515.234405 
L 873.716852 609.931691 
L 875.546693 607.40643 
L 877.376535 479.880752 
L 879.206376 534.173862 
L 881.036218 524.072818 
L 882.866059 529.12334 
L 884.695901 442.001837 
L 886.525742 468.517077 
L 890.185425 625.083257 
L 892.015267 522.810188 
L 893.845108 492.507056 
L 895.67495 630.133779 
L 897.504791 529.12334 
L 899.334633 483.668643 
L 901.164474 583.416451 
L 902.994316 568.264885 
L 904.824157 608.669061 
L 906.653999 577.103299 
L 908.48384 598.568017 
L 910.313682 627.608518 
L 912.143523 659.17428 
L 913.973365 598.568017 
L 915.803206 612.456952 
L 917.633048 593.517495 
L 919.462889 522.810188 
L 921.292731 661.699541 
L 923.122572 491.244426 
L 924.952414 632.65904 
L 926.782255 540.487015 
L 928.612097 565.739624 
L 930.441938 644.022714 
L 932.27178 587.204342 
L 934.101621 618.770104 
L 935.931463 570.790146 
L 937.761304 553.113319 
L 939.591146 418.011858 
L 941.420987 419.274489 
L 943.250829 352.355073 
L 945.08067 257.657787 
L 946.910512 460.941294 
L 948.740353 325.839833 
L 950.570195 325.839833 
L 952.400036 200.839415 
L 954.229878 133.92 
L 956.059719 133.92 
L 957.889561 185.68785 
L 959.719402 133.92 
L 972.528293 133.92 
L 974.358134 174.324175 
L 976.187976 155.384718 
L 978.017817 289.223549 
L 979.847659 133.92 
L 981.6775 545.537537 
L 983.507342 189.475741 
L 985.337183 287.960919 
L 987.167025 306.900376 
L 988.996866 337.203507 
L 990.826708 184.425219 
L 992.656549 133.92 
L 999.975915 133.92 
L 1001.805757 299.324593 
L 1003.635598 133.92 
L 1005.46544 304.375115 
L 1007.295281 327.102463 
L 1009.125123 248.819374 
L 1010.954964 133.92 
L 1012.784806 179.374697 
L 1014.614647 133.92 
L 1016.444489 133.92 
L 1018.27433 185.68785 
L 1020.104172 170.536284 
L 1021.934013 215.990981 
L 1023.763855 133.92 
L 1031.083221 133.92 
L 1032.913062 430.638163 
L 1034.742904 205.889937 
L 1036.572745 133.92 
L 1038.402587 138.970522 
L 1040.232428 348.567182 
L 1042.06227 459.678664 
L 1043.892111 348.567182 
L 1045.721953 409.173445 
L 1047.551794 323.314572 
L 1049.381636 377.607683 
L 1051.211478 315.738789 
L 1053.041319 486.193904 
L 1054.871161 387.708727 
L 1056.701002 442.001837 
L 1058.530844 457.153403 
L 1062.190527 181.899958 
L 1064.020368 175.586806 
L 1065.85021 200.839415 
L 1067.680051 295.536701 
L 1069.509893 303.112484 
L 1071.339734 257.657787 
L 1073.169576 170.536284 
L 1074.999417 241.243591 
L 1076.829259 387.708727 
L 1078.6591 200.839415 
L 1080.488942 155.384718 
L 1082.318783 133.92 
L 1084.148625 285.435658 
L 1087.808308 386.446096 
L 1089.638149 133.92 
L 1093.297832 133.92 
L 1095.127674 353.617704 
L 1096.957515 133.92 
L 1098.787357 358.668225 
L 1100.617198 250.082004 
L 1102.44704 309.425637 
L 1104.276881 233.667808 
L 1106.106723 498.820209 
L 1107.936564 356.142965 
L 1109.766406 468.517077 
L 1111.596247 421.799749 
L 1113.426089 495.032317 
L 1115.25593 395.284509 
L 1117.085772 500.082839 
L 1118.915613 464.729186 
L 1120.745455 560.689102 
L 1120.745455 560.689102 
" clip-path="url(#p3c089f2a7e)" style="fill: none; stroke: #4169e1; stroke-linecap: square"/>
   </g>
   <g id="line2d_14">
    <path d="M 207.654545 639.560881 
L 209.484387 598.344654 
L 211.314228 599.959529 
L 213.14407 629.236792 
L 214.973911 632.150479 
L 216.803753 644.353891 
L 218.633594 631.474447 
L 220.463436 633.535392 
L 222.293277 645.025963 
L 224.123119 641.993702 
L 225.95296 637.535511 
L 227.782802 639.517455 
L 229.612643 562.808097 
L 231.442485 636.217182 
L 233.272326 606.479696 
L 235.102168 638.491105 
L 236.932009 606.442647 
L 238.761851 578.142788 
L 240.591692 497.954925 
L 242.421534 427.585894 
L 244.251375 286.474492 
L 246.081217 213.885454 
L 247.911058 187.585995 
L 249.7409 184.489645 
L 251.570741 184.410037 
L 253.400583 184.978352 
L 255.230424 184.991684 
L 257.060266 183.50545 
L 258.890107 183.043254 
L 260.719949 182.842115 
L 262.54979 182.808206 
L 264.379632 184.658148 
L 268.039315 186.472563 
L 269.869156 186.48235 
L 271.698998 189.095233 
L 273.528839 184.590099 
L 275.358681 186.768183 
L 277.188522 183.477052 
L 279.018364 184.429882 
L 280.848206 192.215666 
L 282.678047 258.770642 
L 284.507889 206.963566 
L 286.33773 189.439482 
L 288.167572 183.424494 
L 289.997413 182.905616 
L 291.827255 182.843694 
L 293.657096 184.716756 
L 295.486938 190.710359 
L 297.316779 191.128281 
L 299.146621 188.693032 
L 300.976462 186.78036 
L 302.806304 256.648546 
L 304.636145 277.068342 
L 306.465987 284.921365 
L 308.295828 240.824165 
L 310.12567 220.877316 
L 311.955511 337.686242 
L 313.785353 389.179933 
L 315.615194 397.919125 
L 317.445036 260.33344 
L 319.274877 272.742961 
L 321.104719 373.916161 
L 322.93456 430.626565 
L 324.764402 416.072791 
L 328.424085 427.233322 
L 330.253926 461.476645 
L 332.083768 501.880107 
L 333.913609 498.772082 
L 335.743451 480.04332 
L 337.573292 455.040054 
L 339.403134 443.22948 
L 341.232975 487.406982 
L 343.062817 448.023646 
L 344.892658 405.857537 
L 346.7225 463.765856 
L 348.552341 415.247812 
L 350.382183 477.422421 
L 352.212024 473.30371 
L 354.041866 489.25124 
L 355.871707 486.557515 
L 357.701549 484.180161 
L 359.53139 457.138953 
L 361.361232 525.097974 
L 363.191073 520.351549 
L 365.020915 498.751294 
L 366.850756 450.159768 
L 368.680598 451.131902 
L 370.510439 401.233569 
L 372.340281 472.350456 
L 374.170122 353.234653 
L 375.999964 264.166145 
L 377.829805 217.574009 
L 379.659647 225.850003 
L 381.489488 253.336183 
L 383.31933 380.361441 
L 385.149171 378.277684 
L 386.979013 338.978272 
L 388.808854 262.394809 
L 390.638696 210.029668 
L 392.468537 190.857283 
L 394.298379 186.717629 
L 396.12822 194.978711 
L 397.958062 224.908579 
L 399.787903 232.909528 
L 401.617745 319.365076 
L 403.447586 233.58269 
L 405.277428 225.026488 
L 407.107269 343.804073 
L 408.937111 237.845686 
L 410.766952 274.297552 
L 412.596794 353.884849 
L 414.426635 426.655374 
L 416.256477 460.446365 
L 418.086318 516.886714 
L 419.91616 588.180195 
L 421.746001 553.760375 
L 423.575843 480.776515 
L 425.405684 524.501453 
L 429.065367 475.99834 
L 430.895209 513.837046 
L 432.72505 314.205006 
L 434.554892 366.818874 
L 436.384733 297.678603 
L 438.214575 378.852819 
L 440.044416 394.517791 
L 443.704099 438.894505 
L 445.533941 479.230382 
L 447.363782 476.204315 
L 449.193624 328.154283 
L 451.023465 456.518485 
L 452.853307 307.525988 
L 454.683148 447.540449 
L 456.51299 464.007859 
L 458.342831 518.951127 
L 460.172673 510.390687 
L 462.002514 468.329328 
L 463.832356 448.630955 
L 465.662197 447.753957 
L 467.492039 292.507051 
L 469.32188 260.538741 
L 471.151722 411.662485 
L 472.981563 436.433382 
L 474.811405 522.822865 
L 476.641246 491.21674 
L 478.471088 514.281344 
L 480.300929 515.857205 
L 482.130771 518.109868 
L 483.960612 570.908055 
L 485.790454 590.492632 
L 487.620295 589.146916 
L 489.450137 608.001014 
L 491.279978 609.818396 
L 493.10982 593.960887 
L 494.939661 570.658808 
L 496.769503 500.763168 
L 498.599344 507.024995 
L 500.429186 514.828293 
L 502.259027 506.148652 
L 504.088869 431.515508 
L 505.91871 499.451871 
L 507.748552 491.528487 
L 509.578393 517.160256 
L 511.408235 491.254136 
L 513.238076 498.397759 
L 515.067918 504.006057 
L 516.897759 530.877009 
L 518.727601 498.87373 
L 520.557442 547.780451 
L 522.387284 557.059887 
L 524.217125 542.882075 
L 526.046967 399.926511 
L 527.876808 508.769762 
L 529.70665 502.68844 
L 531.536491 511.992441 
L 533.366333 559.74868 
L 535.196174 531.001989 
L 537.026016 605.248913 
L 538.855857 639.257631 
L 540.685699 643.88917 
L 542.51554 615.297437 
L 544.345382 634.041728 
L 546.175223 678.27737 
L 548.005065 664.051492 
L 549.834906 648.868137 
L 551.664748 672.082213 
L 553.494589 660.52042 
L 555.324431 662.802454 
L 557.154272 647.526853 
L 558.984114 644.784702 
L 560.813955 655.567452 
L 562.643797 661.958353 
L 564.473638 603.818821 
L 566.30348 606.795046 
L 568.133321 602.996221 
L 569.963163 527.621712 
L 571.793004 607.330367 
L 573.622846 633.195055 
L 575.452687 645.022939 
L 577.282529 636.545112 
L 579.11237 677.546015 
L 580.942212 615.326828 
L 582.772053 625.5009 
L 584.601895 598.532654 
L 586.431736 609.531782 
L 588.261578 560.312602 
L 590.091419 540.21328 
L 591.921261 511.199598 
L 593.751102 368.178953 
L 595.580944 253.395793 
L 597.410785 234.668379 
L 599.240627 201.786273 
L 601.070468 193.048082 
L 602.90031 188.345932 
L 604.730151 242.08957 
L 606.559993 203.669275 
L 608.389834 190.874969 
L 610.219676 210.780164 
L 612.049517 192.163532 
L 613.879359 187.829097 
L 615.7092 187.116131 
L 617.539042 194.328707 
L 619.368883 202.828267 
L 621.198725 194.178007 
L 623.028566 206.86003 
L 624.858408 203.168238 
L 626.688249 203.491294 
L 628.518091 202.414197 
L 630.347932 192.506817 
L 632.177774 193.527426 
L 634.007615 233.238749 
L 635.837457 201.782458 
L 637.667298 240.442116 
L 639.49714 265.083448 
L 641.326981 207.094654 
L 643.156823 189.885456 
L 644.986664 187.466314 
L 646.816506 188.226713 
L 648.646347 238.976844 
L 650.476189 203.485476 
L 652.30603 245.926321 
L 654.135872 251.996796 
L 655.965713 304.179023 
L 657.795555 261.288813 
L 659.625396 380.466056 
L 661.455238 362.366375 
L 663.285079 293.140062 
L 665.114921 325.928496 
L 666.944762 232.825219 
L 668.774604 220.395661 
L 670.604445 261.36187 
L 672.434287 217.148996 
L 674.264128 206.079055 
L 676.09397 379.279836 
L 679.753653 254.173146 
L 681.583494 257.486318 
L 683.413336 381.372146 
L 685.243177 466.406926 
L 687.073019 492.582888 
L 688.90286 536.59102 
L 690.732702 523.072054 
L 692.562543 523.46154 
L 694.392385 527.826377 
L 696.222226 485.119312 
L 698.052068 501.295243 
L 699.881909 507.783082 
L 701.711751 531.026418 
L 703.541592 526.57968 
L 705.371434 529.111646 
L 707.201275 543.019847 
L 709.031117 544.022981 
L 710.860958 542.506499 
L 712.6908 489.357281 
L 714.520641 517.411333 
L 716.350483 502.450137 
L 718.180324 543.838411 
L 720.010166 543.854248 
L 721.840007 589.077731 
L 723.669849 586.360617 
L 725.49969 552.076142 
L 727.329532 530.450243 
L 729.159373 528.552598 
L 730.989215 499.296489 
L 732.819056 520.288877 
L 734.648898 606.06764 
L 736.478739 596.686604 
L 738.308581 630.921776 
L 740.138422 632.033061 
L 741.968264 541.31814 
L 743.798105 566.7905 
L 745.627947 584.815255 
L 747.457788 596.222904 
L 749.28763 623.607234 
L 751.117471 647.900155 
L 752.947313 624.404999 
L 754.777154 662.456433 
L 756.606996 636.241264 
L 758.436837 567.870718 
L 760.266679 566.683457 
L 762.09652 557.282008 
L 763.926362 531.311154 
L 765.756203 509.017834 
L 767.586045 402.568833 
L 769.415886 328.653471 
L 771.245728 243.843335 
L 773.075569 204.339855 
L 774.905411 237.913388 
L 776.735252 198.54847 
L 778.565094 189.654878 
L 780.394935 185.688389 
L 782.224777 185.303412 
L 784.054618 183.920599 
L 785.88446 185.473725 
L 787.714301 184.102163 
L 789.544143 183.827273 
L 791.373984 184.990991 
L 793.203826 185.787957 
L 795.033667 190.573145 
L 796.863509 223.462264 
L 798.69335 195.1738 
L 802.353033 183.595231 
L 804.182875 186.670735 
L 806.012716 185.732008 
L 807.842558 202.340908 
L 809.672399 191.044781 
L 811.502241 188.045263 
L 813.332082 184.536231 
L 815.161924 183.833091 
L 816.991765 200.728249 
L 818.821607 188.773796 
L 820.651448 188.096473 
L 822.48129 186.262753 
L 824.311131 186.940038 
L 826.140973 199.893367 
L 827.970814 197.055416 
L 829.800656 255.461709 
L 831.630497 286.784793 
L 833.460339 300.843503 
L 835.29018 347.656853 
L 837.120022 383.447503 
L 838.949863 286.505164 
L 840.779705 300.796108 
L 842.609546 320.956426 
L 844.439388 239.684993 
L 846.269229 300.687408 
L 848.099071 252.843662 
L 849.928912 307.049342 
L 851.758754 384.164052 
L 853.588595 467.920017 
L 855.418437 458.01965 
L 857.248278 440.350434 
L 859.07812 465.776844 
L 860.907961 402.685201 
L 862.737803 488.850792 
L 864.567644 340.024196 
L 866.397486 474.137185 
L 868.227327 517.425108 
L 870.057169 513.936325 
L 871.88701 524.283398 
L 873.716852 506.713056 
L 875.546693 530.89955 
L 877.376535 540.077935 
L 879.206376 514.264505 
L 881.036218 524.31642 
L 882.866059 512.483132 
L 884.695901 513.58566 
L 886.525742 450.186124 
L 888.355584 462.924674 
L 890.185425 489.181708 
L 892.015267 531.107683 
L 893.845108 536.904308 
L 895.67495 523.471655 
L 897.504791 573.063771 
L 899.334633 538.233638 
L 901.164474 507.76975 
L 902.994316 538.040687 
L 904.824157 529.202409 
L 906.653999 555.706128 
L 908.48384 556.082647 
L 910.313682 566.293297 
L 912.143523 580.720549 
L 913.973365 607.189329 
L 915.803206 581.192514 
L 917.633048 581.201395 
L 919.462889 567.134421 
L 921.292731 527.316613 
L 923.122572 583.089754 
L 924.952414 516.623903 
L 926.782255 574.722399 
L 928.612097 542.639089 
L 930.441938 537.447327 
L 932.27178 563.926905 
L 934.101621 546.584405 
L 935.931463 558.928575 
L 939.591146 534.686305 
L 941.420987 464.115172 
L 943.250829 446.376693 
L 945.08067 329.034171 
L 946.910512 252.508275 
L 948.740353 384.705509 
L 950.570195 300.48334 
L 952.400036 311.927701 
L 954.229878 233.848063 
L 956.059719 197.823521 
L 957.889561 188.103871 
L 959.719402 188.429778 
L 961.549244 185.336395 
L 965.208927 183.479094 
L 967.038768 185.473609 
L 970.698451 187.479415 
L 972.528293 187.499991 
L 974.358134 184.555806 
L 976.187976 186.044544 
L 978.017817 184.72897 
L 979.847659 216.789335 
L 981.6775 195.533154 
L 983.507342 416.336545 
L 985.337183 282.438413 
L 987.167025 301.140087 
L 988.996866 279.695829 
L 990.826708 302.43651 
L 992.656549 223.949584 
L 994.486391 192.521305 
L 996.316232 187.415913 
L 998.146074 186.945587 
L 999.975915 187.868245 
L 1001.805757 187.881693 
L 1003.635598 261.753899 
L 1005.46544 212.699696 
L 1007.295281 292.017497 
L 1009.125123 326.636067 
L 1010.954964 301.791246 
L 1012.784806 233.824211 
L 1014.614647 221.821014 
L 1016.444489 204.206109 
L 1018.27433 195.940711 
L 1020.104172 206.60614 
L 1021.934013 206.635193 
L 1023.763855 229.061873 
L 1025.593696 211.428896 
L 1027.423538 204.343015 
L 1029.253379 202.130367 
L 1031.083221 201.878828 
L 1032.913062 195.326659 
L 1034.742904 374.044821 
L 1036.572745 274.582885 
L 1038.402587 226.535418 
L 1040.232428 206.286513 
L 1042.06227 342.621282 
L 1043.892111 430.876235 
L 1045.721953 394.596089 
L 1047.551794 430.047249 
L 1049.381636 371.473899 
L 1051.211478 398.370263 
L 1053.041319 356.720065 
L 1054.871161 445.726921 
L 1056.701002 412.100676 
L 1058.530844 450.951551 
L 1060.360685 455.784384 
L 1062.190527 336.980289 
L 1064.020368 250.457117 
L 1065.85021 207.559432 
L 1067.680051 201.682312 
L 1069.509893 283.793252 
L 1071.339734 306.981101 
L 1073.169576 281.933446 
L 1074.999417 227.472218 
L 1076.829259 232.147357 
L 1078.6591 347.29958 
L 1080.488942 254.881025 
L 1082.318783 210.697088 
L 1084.148625 195.747702 
L 1085.978466 271.364233 
L 1087.808308 333.795969 
L 1089.638149 380.932491 
L 1091.467991 252.653388 
L 1093.297832 205.214271 
L 1095.127674 188.394907 
L 1096.957515 307.316295 
L 1098.787357 229.22999 
L 1100.617198 343.569411 
L 1102.44704 290.300492 
L 1104.276881 325.399754 
L 1106.106723 269.805365 
L 1107.936564 412.603254 
L 1109.766406 369.735007 
L 1111.596247 434.136175 
L 1113.426089 421.999116 
L 1115.25593 460.176233 
L 1117.085772 417.90809 
L 1118.915613 465.034401 
L 1120.745455 417.500494 
L 1120.745455 417.500494 
" clip-path="url(#p3c089f2a7e)" style="fill: none; stroke: #ff6347; stroke-linecap: square"/>
   </g>
   <g id="line2d_15">
    <path d="M 207.654545 645.240069 
L 209.484387 582.0551 
L 211.314228 549.097644 
L 213.14407 635.807466 
L 214.973911 630.30074 
L 216.803753 657.013998 
L 218.633594 641.811801 
L 220.463436 641.806753 
L 222.293277 651.273225 
L 224.123119 644.781514 
L 225.95296 635.846808 
L 227.782802 650.816847 
L 229.612643 579.737067 
L 231.442485 666.038234 
L 233.272326 650.285678 
L 235.102168 653.161738 
L 236.932009 624.288545 
L 238.761851 511.62804 
L 240.591692 445.3788 
L 242.421534 348.348472 
L 244.251375 244.715555 
L 246.081217 190.796247 
L 247.911058 181.820042 
L 249.7409 183.63176 
L 251.570741 182.632961 
L 255.230424 182.822771 
L 257.060266 181.200364 
L 258.890107 181.415105 
L 262.54979 181.368134 
L 264.379632 183.686784 
L 266.209473 183.337141 
L 269.869156 183.465916 
L 271.698998 183.431468 
L 273.528839 181.252382 
L 275.358681 183.614921 
L 277.188522 181.114822 
L 279.018364 183.18644 
L 280.848206 189.782498 
L 282.678047 233.613554 
L 284.507889 191.103813 
L 286.33773 184.822874 
L 288.167572 182.772332 
L 289.997413 182.28536 
L 291.827255 182.336068 
L 293.657096 185.130016 
L 295.486938 189.279919 
L 297.316779 186.409331 
L 299.146621 184.939088 
L 300.976462 184.956235 
L 302.806304 241.513934 
L 304.636145 251.683065 
L 306.465987 263.444432 
L 310.12567 213.679845 
L 311.955511 291.123429 
L 315.615194 389.218774 
L 317.445036 251.224529 
L 319.274877 295.306278 
L 321.104719 327.582269 
L 322.93456 436.270756 
L 324.764402 438.159499 
L 326.594243 436.818301 
L 328.424085 455.506103 
L 330.253926 482.198188 
L 332.083768 515.368324 
L 333.913609 513.712278 
L 335.743451 487.758263 
L 337.573292 488.286292 
L 339.403134 475.540055 
L 341.232975 502.424879 
L 343.062817 470.474601 
L 344.892658 414.024715 
L 346.7225 489.206831 
L 348.552341 407.080633 
L 350.382183 486.568824 
L 352.212024 526.868153 
L 354.041866 528.603018 
L 355.871707 545.766419 
L 357.701549 536.287346 
L 359.53139 478.777164 
L 361.361232 552.160991 
L 363.191073 551.057056 
L 365.020915 501.536995 
L 366.850756 487.718786 
L 368.680598 507.8934 
L 370.510439 438.556884 
L 372.340281 496.138121 
L 374.170122 367.332665 
L 375.999964 298.611435 
L 377.829805 234.46435 
L 379.659647 228.921692 
L 381.489488 274.541848 
L 383.31933 356.928795 
L 385.149171 377.43367 
L 386.979013 386.433303 
L 388.808854 264.664831 
L 390.638696 209.770152 
L 392.468537 195.455472 
L 394.298379 193.851483 
L 396.12822 211.691687 
L 397.958062 232.77821 
L 399.787903 229.99875 
L 401.617745 298.547163 
L 403.447586 235.308519 
L 405.277428 252.471323 
L 407.107269 308.033113 
L 408.937111 231.918243 
L 410.766952 316.758473 
L 412.596794 331.57103 
L 414.426635 445.807665 
L 416.256477 489.667833 
L 418.086318 503.104745 
L 419.91616 542.657411 
L 421.746001 527.591522 
L 423.575843 507.507267 
L 425.405684 522.269617 
L 427.235526 518.768599 
L 429.065367 503.609866 
L 430.895209 541.706412 
L 432.72505 352.049665 
L 434.554892 420.796404 
L 436.384733 315.998729 
L 438.214575 401.182513 
L 441.874258 467.886379 
L 443.704099 484.822458 
L 445.533941 500.129174 
L 447.363782 523.587136 
L 449.193624 386.738942 
L 451.023465 499.518416 
L 452.853307 312.414558 
L 454.683148 465.533011 
L 456.51299 477.276692 
L 458.342831 514.100049 
L 460.172673 544.567926 
L 462.002514 517.701154 
L 463.832356 500.469628 
L 465.662197 501.876177 
L 467.492039 308.435854 
L 469.32188 338.901169 
L 471.151722 450.722418 
L 472.981563 438.206124 
L 474.811405 519.544064 
L 476.641246 526.496508 
L 478.471088 542.895176 
L 480.300929 546.345773 
L 482.130771 544.029204 
L 483.960612 575.020852 
L 485.790454 589.221476 
L 487.620295 586.32588 
L 489.450137 615.604666 
L 491.279978 629.536064 
L 493.10982 613.72806 
L 494.939661 592.177241 
L 496.769503 529.28429 
L 498.599344 555.524833 
L 500.429186 568.881404 
L 502.259027 549.595116 
L 504.088869 467.623221 
L 505.91871 521.492822 
L 507.748552 531.182378 
L 509.578393 535.567965 
L 511.408235 527.040721 
L 513.238076 531.60373 
L 515.067918 555.782114 
L 516.897759 564.1959 
L 518.727601 539.028254 
L 520.557442 582.555829 
L 522.387284 615.017952 
L 524.217125 578.378799 
L 526.046967 450.608228 
L 527.876808 529.885203 
L 529.70665 557.889182 
L 531.536491 539.811599 
L 533.366333 613.824815 
L 535.196174 591.0136 
L 537.026016 640.020428 
L 538.855857 659.296678 
L 540.685699 655.08755 
L 542.51554 650.323613 
L 544.345382 655.208908 
L 546.175223 712.31366 
L 548.005065 677.226562 
L 549.834906 654.654253 
L 551.664748 695.258224 
L 553.494589 677.730431 
L 555.324431 676.723203 
L 557.154272 672.355013 
L 558.984114 663.045093 
L 560.813955 671.932683 
L 562.643797 662.145072 
L 564.473638 601.768616 
L 566.30348 640.990386 
L 568.133321 630.4005 
L 569.963163 563.42976 
L 571.793004 642.958834 
L 573.622846 661.690775 
L 575.452687 630.015754 
L 577.282529 654.758194 
L 579.11237 695.581954 
L 580.942212 662.310742 
L 582.772053 659.054386 
L 584.601895 665.030418 
L 586.431736 636.261128 
L 588.261578 548.748097 
L 590.091419 482.790797 
L 591.921261 465.369518 
L 593.751102 266.473929 
L 595.580944 254.413588 
L 597.410785 205.123027 
L 599.240627 187.967582 
L 601.070468 186.073097 
L 602.90031 183.830664 
L 604.730151 227.774505 
L 606.559993 189.359335 
L 608.389834 184.642157 
L 610.219676 206.584215 
L 612.049517 185.449681 
L 613.879359 185.707309 
L 615.7092 186.301055 
L 619.368883 193.227219 
L 621.198725 185.819399 
L 623.028566 195.141587 
L 624.858408 190.478509 
L 626.688249 192.931175 
L 628.518091 192.800088 
L 630.347932 187.017912 
L 632.177774 189.288628 
L 634.007615 227.329802 
L 635.837457 190.515307 
L 637.667298 241.228987 
L 639.49714 263.671735 
L 641.326981 206.491429 
L 643.156823 202.455311 
L 644.986664 192.295004 
L 646.816506 187.858959 
L 648.646347 246.676971 
L 650.476189 200.30131 
L 652.30603 262.395772 
L 654.135872 255.187782 
L 655.965713 284.044444 
L 657.795555 263.908633 
L 659.625396 338.183772 
L 661.455238 327.047131 
L 663.285079 309.557418 
L 665.114921 314.827883 
L 666.944762 238.243456 
L 668.774604 252.802856 
L 670.604445 272.502018 
L 672.434287 238.960468 
L 674.264128 249.002595 
L 676.09397 338.004365 
L 677.923811 321.565855 
L 679.753653 296.661193 
L 681.583494 278.842066 
L 683.413336 324.102791 
L 685.243177 443.923179 
L 687.073019 479.219843 
L 688.90286 543.501714 
L 690.732702 562.767426 
L 692.562543 552.254817 
L 694.392385 570.131666 
L 696.222226 521.30199 
L 698.052068 531.999285 
L 701.711751 576.141722 
L 703.541592 595.915233 
L 705.371434 583.959893 
L 707.201275 603.628885 
L 709.031117 610.402788 
L 710.860958 602.196923 
L 712.6908 537.062715 
L 714.520641 563.321021 
L 716.350483 561.514043 
L 718.180324 562.708201 
L 720.010166 576.216745 
L 721.840007 602.312058 
L 723.669849 588.903121 
L 725.49969 568.262881 
L 727.329532 572.72746 
L 729.159373 575.727421 
L 730.989215 547.693753 
L 732.819056 574.161078 
L 734.648898 647.576328 
L 736.478739 622.810306 
L 740.138422 661.709675 
L 741.968264 608.056954 
L 743.798105 623.836617 
L 745.627947 618.960994 
L 747.457788 604.709295 
L 749.28763 655.611264 
L 751.117471 678.977783 
L 752.947313 660.744168 
L 754.777154 695.121092 
L 756.606996 704.360941 
L 758.436837 644.221522 
L 760.266679 630.672212 
L 762.09652 628.109748 
L 763.926362 559.293227 
L 765.756203 481.437423 
L 767.586045 335.07147 
L 769.415886 295.506222 
L 771.245728 219.063094 
L 773.075569 191.642882 
L 774.905411 225.306965 
L 776.735252 190.904138 
L 778.565094 188.163096 
L 780.394935 184.664583 
L 782.224777 183.850315 
L 784.054618 182.611459 
L 785.88446 184.968064 
L 787.714301 183.513966 
L 789.544143 183.721656 
L 791.373984 186.139373 
L 793.203826 185.312004 
L 795.033667 189.334982 
L 796.863509 232.050063 
L 798.69335 190.445833 
L 800.523192 190.067676 
L 802.353033 183.888963 
L 804.182875 186.607542 
L 806.012716 185.43527 
L 807.842558 207.577041 
L 809.672399 187.219205 
L 811.502241 186.753233 
L 813.332082 185.776551 
L 815.161924 185.27509 
L 816.991765 217.513628 
L 818.821607 191.273548 
L 820.651448 198.706106 
L 822.48129 190.886799 
L 824.311131 188.941142 
L 826.140973 215.592479 
L 827.970814 202.878783 
L 829.800656 258.976598 
L 831.630497 280.684224 
L 833.460339 295.610067 
L 835.29018 329.412058 
L 837.120022 356.869185 
L 838.949863 304.646614 
L 840.779705 313.156924 
L 842.609546 307.75568 
L 844.439388 259.311368 
L 846.269229 297.210589 
L 848.099071 277.298072 
L 849.928912 313.766045 
L 851.758754 355.960706 
L 853.588595 472.92484 
L 855.418437 464.4946 
L 857.248278 436.384946 
L 859.07812 486.573988 
L 860.907961 383.727865 
L 862.737803 479.849232 
L 864.567644 358.754769 
L 866.397486 463.754797 
L 868.227327 534.538995 
L 870.057169 512.052667 
L 871.88701 564.939749 
L 873.716852 552.48368 
L 875.546693 559.702788 
L 877.376535 600.723906 
L 879.206376 548.823004 
L 881.036218 559.111739 
L 882.866059 563.182902 
L 884.695901 555.407848 
L 886.525742 478.919098 
L 888.355584 483.199858 
L 890.185425 533.209473 
L 892.015267 537.458058 
L 893.845108 539.91581 
L 895.67495 536.20377 
L 897.504791 588.375015 
L 899.334633 519.433765 
L 901.164474 506.864777 
L 902.994316 563.679854 
L 904.824157 546.042292 
L 908.48384 615.524499 
L 910.313682 610.205907 
L 912.143523 625.016287 
L 913.973365 642.827535 
L 915.803206 610.182595 
L 917.633048 620.589875 
L 919.462889 622.780771 
L 921.292731 565.497043 
L 923.122572 617.350223 
L 924.952414 562.430845 
L 926.782255 584.772542 
L 928.612097 591.428594 
L 930.441938 572.626023 
L 932.27178 619.613136 
L 934.101621 600.450191 
L 935.931463 614.298917 
L 937.761304 608.034836 
L 939.591146 570.107564 
L 941.420987 427.052258 
L 943.250829 428.210293 
L 945.08067 263.658056 
L 946.910512 231.499665 
L 948.740353 299.180405 
L 950.570195 270.470897 
L 952.400036 308.710552 
L 954.229878 229.702398 
L 956.059719 191.42764 
L 957.889561 185.28114 
L 959.719402 184.749277 
L 961.549244 182.932319 
L 963.379085 183.289014 
L 965.208927 182.942106 
L 967.038768 185.317245 
L 968.86861 184.678416 
L 972.528293 184.992532 
L 974.358134 181.9813 
L 976.187976 184.248625 
L 978.017817 183.231369 
L 979.847659 211.677739 
L 981.6775 189.881064 
L 983.507342 398.041774 
L 985.337183 259.856524 
L 987.167025 379.768465 
L 988.996866 281.007434 
L 990.826708 286.708307 
L 992.656549 228.448707 
L 994.486391 205.859535 
L 996.316232 195.439443 
L 998.146074 188.454825 
L 999.975915 187.929242 
L 1001.805757 188.218274 
L 1003.635598 255.150521 
L 1005.46544 204.413144 
L 1007.295281 280.045203 
L 1009.125123 290.815324 
L 1010.954964 300.384427 
L 1012.784806 241.674653 
L 1014.614647 235.262203 
L 1016.444489 202.794628 
L 1018.27433 202.526596 
L 1020.104172 224.496128 
L 1021.934013 224.329321 
L 1023.763855 249.121314 
L 1025.593696 238.932108 
L 1027.423538 232.238139 
L 1029.253379 222.263289 
L 1031.083221 220.443441 
L 1032.913062 202.225542 
L 1034.742904 314.213791 
L 1036.572745 279.682651 
L 1038.402587 242.688981 
L 1040.232428 236.490693 
L 1042.06227 295.418407 
L 1043.892111 385.159383 
L 1045.721953 367.179036 
L 1047.551794 398.731582 
L 1049.381636 352.587578 
L 1051.211478 359.979407 
L 1053.041319 344.717446 
L 1054.871161 436.956286 
L 1056.701002 380.399549 
L 1058.530844 425.354751 
L 1060.360685 476.354996 
L 1062.190527 347.931512 
L 1064.020368 283.700234 
L 1065.85021 253.359534 
L 1067.680051 235.125297 
L 1069.509893 288.183482 
L 1071.339734 308.133799 
L 1073.169576 294.245865 
L 1074.999417 223.488389 
L 1076.829259 239.990439 
L 1078.6591 294.591963 
L 1080.488942 255.267235 
L 1082.318783 227.400124 
L 1084.148625 217.216852 
L 1085.978466 274.096143 
L 1087.808308 315.226192 
L 1089.638149 373.103011 
L 1091.467991 231.647707 
L 1093.297832 233.617562 
L 1095.127674 196.579116 
L 1096.957515 271.737612 
L 1098.787357 229.933669 
L 1100.617198 317.914214 
L 1102.44704 293.360621 
L 1104.276881 318.431358 
L 1106.106723 284.723347 
L 1107.936564 408.500283 
L 1109.766406 341.00739 
L 1111.596247 435.525616 
L 1113.426089 468.068695 
L 1115.25593 496.762404 
L 1117.085772 453.962494 
L 1118.915613 493.413493 
L 1120.745455 448.182419 
L 1120.745455 448.182419 
" clip-path="url(#p3c089f2a7e)" style="fill: none; stroke: #da70d6; stroke-linecap: square"/>
   </g>
   <g id="line2d_16">
    <path d="M 207.654545 624.83479 
L 209.484387 597.398009 
L 211.314228 597.381555 
L 213.14407 636.543291 
L 214.973911 632.312315 
L 216.803753 637.891309 
L 218.633594 634.951574 
L 220.463436 621.529055 
L 222.293277 638.754359 
L 224.123119 636.634555 
L 225.95296 631.600159 
L 227.782802 642.209542 
L 229.612643 578.181686 
L 231.442485 671.843312 
L 233.272326 586.587997 
L 235.102168 617.551362 
L 236.932009 603.21916 
L 238.761851 570.51383 
L 240.591692 470.768931 
L 244.251375 244.199529 
L 246.081217 185.603733 
L 247.911058 169.618711 
L 249.7409 171.382032 
L 251.570741 170.706173 
L 255.230424 170.765128 
L 257.060266 168.51599 
L 258.890107 168.703489 
L 262.54979 168.596716 
L 264.379632 173.252935 
L 266.209473 172.574649 
L 269.869156 172.625859 
L 271.698998 176.585142 
L 273.528839 169.14719 
L 275.358681 176.503916 
L 277.188522 169.156014 
L 279.018364 174.688499 
L 280.848206 187.173853 
L 282.678047 225.504984 
L 284.507889 177.10244 
L 288.167572 171.388351 
L 291.827255 171.165017 
L 293.657096 177.756297 
L 295.486938 186.54824 
L 297.316779 180.269305 
L 299.146621 176.685828 
L 300.976462 174.777278 
L 302.806304 226.545513 
L 304.636145 235.446811 
L 306.465987 245.429676 
L 308.295828 221.363095 
L 310.12567 206.560286 
L 311.955511 278.806231 
L 313.785353 331.280958 
L 315.615194 359.629918 
L 317.445036 241.211802 
L 319.274877 278.456395 
L 321.104719 313.355058 
L 322.93456 399.551089 
L 324.764402 400.43117 
L 326.594243 408.027452 
L 328.424085 407.441952 
L 330.253926 453.445139 
L 332.083768 502.414456 
L 333.913609 503.06207 
L 335.743451 491.2619 
L 337.573292 463.293102 
L 339.403134 440.855324 
L 341.232975 500.931882 
L 343.062817 444.969219 
L 344.892658 406.841116 
L 346.7225 472.325025 
L 348.552341 396.493387 
L 350.382183 482.561356 
L 352.212024 464.45628 
L 354.041866 482.998641 
L 355.871707 477.697639 
L 357.701549 469.990673 
L 359.53139 429.715215 
L 361.361232 545.285727 
L 363.191073 556.672232 
L 365.020915 524.200149 
L 366.850756 466.556027 
L 368.680598 442.671704 
L 370.510439 383.275455 
L 372.340281 452.915742 
L 374.170122 346.815613 
L 375.999964 265.126488 
L 377.829805 218.25742 
L 379.659647 217.506269 
L 381.489488 250.322947 
L 383.31933 341.442575 
L 385.149171 356.95072 
L 386.979013 340.146575 
L 388.808854 247.810402 
L 390.638696 204.494254 
L 392.468537 180.178753 
L 394.298379 177.433858 
L 396.12822 198.604766 
L 397.958062 222.44705 
L 399.787903 226.312854 
L 401.617745 290.145013 
L 403.447586 220.581002 
L 405.277428 240.288873 
L 407.107269 311.092472 
L 408.937111 219.658151 
L 410.766952 302.101047 
L 412.596794 330.198813 
L 414.426635 418.390285 
L 416.256477 458.233062 
L 418.086318 524.26943 
L 419.91616 616.518934 
L 421.746001 601.614978 
L 423.575843 504.846661 
L 425.405684 548.275034 
L 427.235526 505.586869 
L 429.065367 475.710407 
L 430.895209 530.620537 
L 432.72505 315.193825 
L 434.554892 359.473515 
L 436.384733 292.168621 
L 438.214575 352.182872 
L 440.044416 379.35324 
L 441.874258 408.747623 
L 443.704099 432.282226 
L 445.533941 479.960379 
L 447.363782 468.298386 
L 449.193624 319.155344 
L 451.023465 456.354838 
L 452.853307 291.50567 
L 454.683148 450.076827 
L 456.51299 456.495712 
L 458.342831 527.6441 
L 460.172673 524.889956 
L 462.002514 464.575307 
L 463.832356 445.562272 
L 465.662197 442.02328 
L 467.492039 284.987179 
L 469.32188 305.158055 
L 471.151722 426.555691 
L 472.981563 422.114444 
L 474.811405 529.111569 
L 476.641246 470.155611 
L 478.471088 503.989314 
L 480.300929 519.112655 
L 482.130771 526.3145 
L 483.960612 583.928489 
L 485.790454 595.470597 
L 487.620295 597.595102 
L 489.450137 610.556831 
L 491.279978 609.067235 
L 493.10982 609.454583 
L 494.939661 591.310059 
L 496.769503 493.215687 
L 498.599344 504.416523 
L 500.429186 517.625785 
L 502.259027 498.796492 
L 504.088869 423.064114 
L 505.91871 496.151183 
L 507.748552 479.602586 
L 509.578393 506.841927 
L 511.408235 486.310561 
L 515.067918 508.819855 
L 516.897759 537.015917 
L 518.727601 500.959221 
L 520.557442 556.923059 
L 522.387284 560.496498 
L 524.217125 528.461315 
L 526.046967 409.933343 
L 527.876808 511.060072 
L 529.70665 504.14354 
L 531.536491 512.099234 
L 533.366333 550.011633 
L 535.196174 518.753051 
L 537.026016 576.973733 
L 538.855857 591.269927 
L 540.685699 592.067077 
L 542.51554 636.020204 
L 544.345382 642.565697 
L 546.175223 687.664143 
L 548.005065 648.14366 
L 549.834906 662.703667 
L 551.664748 668.709725 
L 553.494589 653.905501 
L 555.324431 649.521397 
L 557.154272 651.836001 
L 558.984114 641.151114 
L 560.813955 655.494472 
L 562.643797 662.293836 
L 564.473638 609.733817 
L 566.30348 605.766057 
L 568.133321 602.167976 
L 569.963163 517.381913 
L 571.793004 630.886567 
L 573.622846 643.870588 
L 575.452687 633.389258 
L 577.282529 637.595111 
L 579.11237 677.532042 
L 580.942212 543.874573 
L 582.772053 585.940209 
L 584.601895 591.19581 
L 586.431736 578.885423 
L 588.261578 536.43034 
L 590.091419 530.973455 
L 591.921261 503.971281 
L 593.751102 307.066874 
L 595.580944 231.821835 
L 597.410785 212.49451 
L 599.240627 177.163899 
L 601.070468 175.945504 
L 602.90031 173.682418 
L 604.730151 217.310832 
L 606.559993 176.9801 
L 608.389834 173.658489 
L 610.219676 198.866016 
L 612.049517 172.213292 
L 613.879359 172.448224 
L 615.7092 177.038245 
L 617.539042 186.532981 
L 619.368883 190.85262 
L 621.198725 176.457292 
L 623.028566 193.310257 
L 624.858408 186.258284 
L 626.688249 188.208525 
L 628.518091 187.196895 
L 630.347932 178.96791 
L 632.177774 185.039927 
L 634.007615 217.1342 
L 635.837457 180.638599 
L 637.667298 223.899492 
L 639.49714 240.483346 
L 641.326981 189.61334 
L 643.156823 180.687304 
L 644.986664 183.344539 
L 646.816506 182.114892 
L 648.646347 235.93417 
L 650.476189 189.167482 
L 652.30603 237.634837 
L 654.135872 229.622481 
L 655.965713 269.063731 
L 657.795555 238.995725 
L 659.625396 339.037227 
L 661.455238 337.471654 
L 663.285079 301.427384 
L 665.114921 308.393006 
L 666.944762 217.905696 
L 668.774604 234.404317 
L 670.604445 254.00788 
L 672.434287 213.194336 
L 674.264128 228.00832 
L 676.09397 336.037555 
L 677.923811 325.857943 
L 679.753653 287.131547 
L 681.583494 259.071195 
L 683.413336 332.710819 
L 685.243177 443.674279 
L 687.073019 479.106924 
L 688.90286 526.09001 
L 690.732702 524.938912 
L 692.562543 530.602118 
L 694.392385 537.315623 
L 696.222226 483.439587 
L 698.052068 506.607014 
L 699.881909 509.15002 
L 701.711751 518.039277 
L 703.541592 519.27688 
L 705.371434 526.847654 
L 707.201275 539.646911 
L 709.031117 536.731664 
L 710.860958 530.733803 
L 712.6908 506.442019 
L 714.520641 527.051105 
L 716.350483 513.690854 
L 718.180324 558.112073 
L 720.010166 563.869183 
L 721.840007 605.856897 
L 723.669849 601.964737 
L 725.49969 556.16449 
L 727.329532 534.835368 
L 729.159373 530.820751 
L 730.989215 481.158641 
L 732.819056 521.210264 
L 734.648898 647.412055 
L 736.478739 616.537574 
L 740.138422 636.756944 
L 741.968264 566.269734 
L 743.798105 578.812057 
L 745.627947 597.74191 
L 747.457788 591.443054 
L 749.28763 625.19239 
L 751.117471 666.252744 
L 752.947313 620.61653 
L 754.777154 684.760566 
L 756.606996 632.628416 
L 758.436837 559.759508 
L 760.266679 573.270324 
L 762.09652 565.206605 
L 763.926362 518.439532 
L 765.756203 498.91076 
L 767.586045 402.055196 
L 769.415886 290.26404 
L 771.245728 224.816872 
L 773.075569 183.217035 
L 774.905411 208.282762 
L 776.735252 176.469468 
L 778.565094 174.848486 
L 780.394935 172.290203 
L 782.224777 172.152218 
L 784.054618 169.860387 
L 785.88446 174.030134 
L 787.714301 170.154196 
L 789.544143 170.166797 
L 791.373984 175.830369 
L 793.203826 175.318659 
L 795.033667 183.328008 
L 796.863509 221.487709 
L 798.69335 174.475338 
L 800.523192 178.103089 
L 802.353033 171.321883 
L 804.182875 179.052412 
L 806.012716 176.976555 
L 807.842558 202.959662 
L 809.672399 177.399641 
L 811.502241 177.61523 
L 813.332082 173.990831 
L 815.161924 173.896658 
L 816.991765 207.164744 
L 818.821607 177.215109 
L 820.651448 186.427557 
L 822.48129 182.190801 
L 824.311131 182.308826 
L 826.140973 211.155586 
L 827.970814 192.726067 
L 829.800656 247.01386 
L 831.630497 266.226435 
L 833.460339 284.055388 
L 835.29018 321.457194 
L 837.120022 350.296825 
L 838.949863 302.757832 
L 840.779705 308.774246 
L 842.609546 301.459251 
L 844.439388 246.703019 
L 846.269229 301.125637 
L 848.099071 266.133726 
L 851.758754 350.708929 
L 853.588595 458.329278 
L 855.418437 435.693906 
L 857.248278 420.573609 
L 859.07812 450.652925 
L 860.907961 387.918613 
L 862.737803 476.082322 
L 864.567644 374.346414 
L 866.397486 483.956345 
L 868.227327 514.613956 
L 870.057169 508.654127 
L 871.88701 527.235656 
L 873.716852 510.260659 
L 875.546693 518.863562 
L 877.376535 519.241989 
L 879.206376 501.293297 
L 881.036218 524.135183 
L 882.866059 516.579822 
L 884.695901 516.801634 
L 886.525742 453.898974 
L 888.355584 463.996338 
L 890.185425 493.274083 
L 892.015267 508.331398 
L 893.845108 536.677391 
L 895.67495 532.903756 
L 897.504791 579.892487 
L 899.334633 536.004711 
L 901.164474 498.876331 
L 902.994316 547.658669 
L 904.824157 526.251133 
L 906.653999 548.314472 
L 908.48384 556.309353 
L 910.313682 562.193909 
L 912.143523 571.284556 
L 913.973365 586.232266 
L 915.803206 565.400597 
L 917.633048 569.591441 
L 919.462889 562.101354 
L 921.292731 530.208375 
L 923.122572 587.389144 
L 924.952414 524.320447 
L 926.782255 565.96737 
L 928.612097 549.767761 
L 930.441938 544.128579 
L 932.27178 564.352206 
L 934.101621 543.090554 
L 935.931463 553.234908 
L 937.761304 550.439265 
L 939.591146 534.911161 
L 941.420987 451.824812 
L 943.250829 444.670458 
L 945.08067 292.461891 
L 946.910512 230.023411 
L 948.740353 310.164881 
L 950.570195 265.578551 
L 952.400036 290.14721 
L 954.229878 199.705406 
L 956.059719 176.53112 
L 957.889561 173.015113 
L 959.719402 176.069733 
L 961.549244 170.009931 
L 963.379085 170.199433 
L 965.208927 169.942615 
L 967.038768 175.764248 
L 968.86861 175.16372 
L 972.528293 175.236315 
L 974.358134 170.38069 
L 976.187976 175.703559 
L 978.017817 173.007869 
L 979.847659 203.950639 
L 981.6775 178.845223 
L 983.507342 405.619561 
L 985.337183 275.262327 
L 987.167025 314.599 
L 988.996866 258.651731 
L 990.826708 270.880998 
L 992.656549 206.704705 
L 994.486391 182.525378 
L 996.316232 182.860148 
L 998.146074 181.240129 
L 1001.805757 181.345939 
L 1003.635598 239.436651 
L 1005.46544 189.870043 
L 1007.295281 261.823258 
L 1009.125123 279.204965 
L 1010.954964 289.265318 
L 1012.784806 224.036205 
L 1014.614647 221.773195 
L 1016.444489 194.71696 
L 1018.27433 191.488945 
L 1020.104172 211.735422 
L 1021.934013 208.577227 
L 1023.763855 233.76753 
L 1025.593696 222.588079 
L 1027.423538 219.546329 
L 1029.253379 213.924718 
L 1031.083221 213.557543 
L 1032.913062 190.284884 
L 1034.742904 327.191281 
L 1036.572745 292.082732 
L 1038.402587 239.002661 
L 1040.232428 226.387761 
L 1042.06227 299.02431 
L 1043.892111 396.011539 
L 1045.721953 387.2258 
L 1047.551794 409.848648 
L 1049.381636 362.465596 
L 1051.211478 368.358976 
L 1053.041319 340.929631 
L 1054.871161 424.847472 
L 1056.701002 388.139943 
L 1058.530844 419.383034 
L 1060.360685 429.677588 
L 1062.190527 350.392424 
L 1064.020368 258.921997 
L 1065.85021 222.159676 
L 1067.680051 202.335129 
L 1069.509893 260.557198 
L 1071.339734 280.179951 
L 1073.169576 265.379492 
L 1074.999417 214.903519 
L 1076.829259 229.880572 
L 1078.6591 300.692301 
L 1080.488942 250.450027 
L 1082.318783 219.213872 
L 1084.148625 202.743418 
L 1085.978466 264.524149 
L 1087.808308 306.844773 
L 1089.638149 352.113976 
L 1091.467991 228.897224 
L 1093.297832 215.059152 
L 1095.127674 182.811867 
L 1096.957515 271.49505 
L 1098.787357 226.68423 
L 1100.617198 328.144496 
L 1102.44704 293.908206 
L 1104.276881 317.498873 
L 1106.106723 272.587907 
L 1107.936564 394.117593 
L 1109.766406 354.34377 
L 1111.596247 408.854512 
L 1113.426089 403.211592 
L 1115.25593 448.471489 
L 1117.085772 400.403195 
L 1118.915613 458.051729 
L 1120.745455 384.524908 
L 1120.745455 384.524908 
" clip-path="url(#p3c089f2a7e)" style="fill: none; stroke: #8fbc8f; stroke-linecap: square"/>
   </g>
   <g id="patch_3">
    <path d="M 162 768.96 
L 162 103.68 
" style="fill: none; stroke: #000000; stroke-width: 0.8; stroke-linejoin: miter; stroke-linecap: square"/>
   </g>
   <g id="patch_4">
    <path d="M 1166.4 768.96 
L 1166.4 103.68 
" style="fill: none; stroke: #000000; stroke-width: 0.8; stroke-linejoin: miter; stroke-linecap: square"/>
   </g>
   <g id="patch_5">
    <path d="M 162 768.96 
L 1166.4 768.96 
" style="fill: none; stroke: #000000; stroke-width: 0.8; stroke-linejoin: miter; stroke-linecap: square"/>
   </g>
   <g id="patch_6">
    <path d="M 162 103.68 
L 1166.4 103.68 
" style="fill: none; stroke: #000000; stroke-width: 0.8; stroke-linejoin: miter; stroke-linecap: square"/>
   </g>
   <g id="text_13">
    <!-- Function 1 -->
    <g transform="translate(632.957813 97.68) scale(0.12 -0.12)">
     <defs>
      <path id="DejaVuSans-46" d="M 628 4666 
L 3309 4666 
L 3309 4134 
L 1259 4134 
L 1259 2759 
L 3109 2759 
L 3109 2228 
L 1259 2228 
L 1259 0 
L 628 0 
L 628 4666 
z
" transform="scale(0.015625)"/>
      <path id="DejaVuSans-75" d="M 544 1381 
L 544 3500 
L 1119 3500 
L 1119 1403 
Q 1119 906 1312 657 
Q 1506 409 1894 409 
Q 2359 409 2629 706 
Q 2900 1003 2900 1516 
L 2900 3500 
L 3475 3500 
L 3475 0 
L 2900 0 
L 2900 538 
Q 2691 219 2414 64 
Q 2138 -91 1772 -91 
Q 1169 -91 856 284 
Q 544 659 544 1381 
z
M 1991 3584 
L 1991 3584 
z
" transform="scale(0.015625)"/>
      <path id="DejaVuSans-6e" d="M 3513 2113 
L 3513 0 
L 2938 0 
L 2938 2094 
Q 2938 2591 2744 2837 
Q 2550 3084 2163 3084 
Q 1697 3084 1428 2787 
Q 1159 2491 1159 1978 
L 1159 0 
L 581 0 
L 581 3500 
L 1159 3500 
L 1159 2956 
Q 1366 3272 1645 3428 
Q 1925 3584 2291 3584 
Q 2894 3584 3203 3211 
Q 3513 2838 3513 2113 
z
" transform="scale(0.015625)"/>
      <path id="DejaVuSans-63" d="M 3122 3366 
L 3122 2828 
Q 2878 2963 2633 3030 
Q 2388 3097 2138 3097 
Q 1578 3097 1268 2742 
Q 959 2388 959 1747 
Q 959 1106 1268 751 
Q 1578 397 2138 397 
Q 2388 397 2633 464 
Q 2878 531 3122 666 
L 3122 134 
Q 2881 22 2623 -34 
Q 2366 -91 2075 -91 
Q 1284 -91 818 406 
Q 353 903 353 1747 
Q 353 2603 823 3093 
Q 1294 3584 2113 3584 
Q 2378 3584 2631 3529 
Q 2884 3475 3122 3366 
z
" transform="scale(0.015625)"/>
      <path id="DejaVuSans-74" d="M 1172 4494 
L 1172 3500 
L 2356 3500 
L 2356 3053 
L 1172 3053 
L 1172 1153 
Q 1172 725 1289 603 
Q 1406 481 1766 481 
L 2356 481 
L 2356 0 
L 1766 0 
Q 1100 0 847 248 
Q 594 497 594 1153 
L 594 3053 
L 172 3053 
L 172 3500 
L 594 3500 
L 594 4494 
L 1172 4494 
z
" transform="scale(0.015625)"/>
      <path id="DejaVuSans-69" d="M 603 3500 
L 1178 3500 
L 1178 0 
L 603 0 
L 603 3500 
z
M 603 4863 
L 1178 4863 
L 1178 4134 
L 603 4134 
L 603 4863 
z
" transform="scale(0.015625)"/>
      <path id="DejaVuSans-6f" d="M 1959 3097 
Q 1497 3097 1228 2736 
Q 959 2375 959 1747 
Q 959 1119 1226 758 
Q 1494 397 1959 397 
Q 2419 397 2687 759 
Q 2956 1122 2956 1747 
Q 2956 2369 2687 2733 
Q 2419 3097 1959 3097 
z
M 1959 3584 
Q 2709 3584 3137 3096 
Q 3566 2609 3566 1747 
Q 3566 888 3137 398 
Q 2709 -91 1959 -91 
Q 1206 -91 779 398 
Q 353 888 353 1747 
Q 353 2609 779 3096 
Q 1206 3584 1959 3584 
z
" transform="scale(0.015625)"/>
      <path id="DejaVuSans-20" transform="scale(0.015625)"/>
     </defs>
     <use xlink:href="#DejaVuSans-46"/>
     <use xlink:href="#DejaVuSans-75" x="52.019531"/>
     <use xlink:href="#DejaVuSans-6e" x="115.398438"/>
     <use xlink:href="#DejaVuSans-63" x="178.777344"/>
     <use xlink:href="#DejaVuSans-74" x="233.757812"/>
     <use xlink:href="#DejaVuSans-69" x="272.966797"/>
     <use xlink:href="#DejaVuSans-6f" x="300.75"/>
     <use xlink:href="#DejaVuSans-6e" x="361.931641"/>
     <use xlink:href="#DejaVuSans-20" x="425.310547"/>
     <use xlink:href="#DejaVuSans-31" x="457.097656"/>
    </g>
   </g>
   <g id="legend_1">
    <g id="patch_7">
     <path d="M 1011.90625 763.96 
L 1159.4 763.96 
Q 1161.4 763.96 1161.4 761.96 
L 1161.4 704.2475 
Q 1161.4 702.2475 1159.4 702.2475 
L 1011.90625 702.2475 
Q 1009.90625 702.2475 1009.90625 704.2475 
L 1009.90625 761.96 
Q 1009.90625 763.96 1011.90625 763.96 
z
" style="fill: #ffffff; opacity: 0.8; stroke: #cccccc; stroke-linejoin: miter"/>
    </g>
    <g id="line2d_17">
     <path d="M 1013.90625 710.345937 
L 1023.90625 710.345937 
L 1033.90625 710.345937 
" style="fill: none; stroke: #4169e1; stroke-linecap: square"/>
    </g>
    <g id="text_14">
     <!-- Truth -->
     <g transform="translate(1041.90625 713.845937) scale(0.1 -0.1)">
      <defs>
       <path id="DejaVuSans-54" d="M -19 4666 
L 3928 4666 
L 3928 4134 
L 2272 4134 
L 2272 0 
L 1638 0 
L 1638 4134 
L -19 4134 
L -19 4666 
z
" transform="scale(0.015625)"/>
       <path id="DejaVuSans-72" d="M 2631 2963 
Q 2534 3019 2420 3045 
Q 2306 3072 2169 3072 
Q 1681 3072 1420 2755 
Q 1159 2438 1159 1844 
L 1159 0 
L 581 0 
L 581 3500 
L 1159 3500 
L 1159 2956 
Q 1341 3275 1631 3429 
Q 1922 3584 2338 3584 
Q 2397 3584 2469 3576 
Q 2541 3569 2628 3553 
L 2631 2963 
z
" transform="scale(0.015625)"/>
       <path id="DejaVuSans-68" d="M 3513 2113 
L 3513 0 
L 2938 0 
L 2938 2094 
Q 2938 2591 2744 2837 
Q 2550 3084 2163 3084 
Q 1697 3084 1428 2787 
Q 1159 2491 1159 1978 
L 1159 0 
L 581 0 
L 581 4863 
L 1159 4863 
L 1159 2956 
Q 1366 3272 1645 3428 
Q 1925 3584 2291 3584 
Q 2894 3584 3203 3211 
Q 3513 2838 3513 2113 
z
" transform="scale(0.015625)"/>
      </defs>
      <use xlink:href="#DejaVuSans-54"/>
      <use xlink:href="#DejaVuSans-72" x="46.333984"/>
      <use xlink:href="#DejaVuSans-75" x="87.447266"/>
      <use xlink:href="#DejaVuSans-74" x="150.826172"/>
      <use xlink:href="#DejaVuSans-68" x="190.035156"/>
     </g>
    </g>
    <g id="line2d_18">
     <path d="M 1013.90625 725.024063 
L 1023.90625 725.024063 
L 1033.90625 725.024063 
" style="fill: none; stroke: #ff6347; stroke-linecap: square"/>
    </g>
    <g id="text_15">
     <!-- Gossip predictions -->
     <g transform="translate(1041.90625 728.524063) scale(0.1 -0.1)">
      <defs>
       <path id="DejaVuSans-47" d="M 3809 666 
L 3809 1919 
L 2778 1919 
L 2778 2438 
L 4434 2438 
L 4434 434 
Q 4069 175 3628 42 
Q 3188 -91 2688 -91 
Q 1594 -91 976 548 
Q 359 1188 359 2328 
Q 359 3472 976 4111 
Q 1594 4750 2688 4750 
Q 3144 4750 3555 4637 
Q 3966 4525 4313 4306 
L 4313 3634 
Q 3963 3931 3569 4081 
Q 3175 4231 2741 4231 
Q 1884 4231 1454 3753 
Q 1025 3275 1025 2328 
Q 1025 1384 1454 906 
Q 1884 428 2741 428 
Q 3075 428 3337 486 
Q 3600 544 3809 666 
z
" transform="scale(0.015625)"/>
       <path id="DejaVuSans-73" d="M 2834 3397 
L 2834 2853 
Q 2591 2978 2328 3040 
Q 2066 3103 1784 3103 
Q 1356 3103 1142 2972 
Q 928 2841 928 2578 
Q 928 2378 1081 2264 
Q 1234 2150 1697 2047 
L 1894 2003 
Q 2506 1872 2764 1633 
Q 3022 1394 3022 966 
Q 3022 478 2636 193 
Q 2250 -91 1575 -91 
Q 1294 -91 989 -36 
Q 684 19 347 128 
L 347 722 
Q 666 556 975 473 
Q 1284 391 1588 391 
Q 1994 391 2212 530 
Q 2431 669 2431 922 
Q 2431 1156 2273 1281 
Q 2116 1406 1581 1522 
L 1381 1569 
Q 847 1681 609 1914 
Q 372 2147 372 2553 
Q 372 3047 722 3315 
Q 1072 3584 1716 3584 
Q 2034 3584 2315 3537 
Q 2597 3491 2834 3397 
z
" transform="scale(0.015625)"/>
       <path id="DejaVuSans-70" d="M 1159 525 
L 1159 -1331 
L 581 -1331 
L 581 3500 
L 1159 3500 
L 1159 2969 
Q 1341 3281 1617 3432 
Q 1894 3584 2278 3584 
Q 2916 3584 3314 3078 
Q 3713 2572 3713 1747 
Q 3713 922 3314 415 
Q 2916 -91 2278 -91 
Q 1894 -91 1617 61 
Q 1341 213 1159 525 
z
M 3116 1747 
Q 3116 2381 2855 2742 
Q 2594 3103 2138 3103 
Q 1681 3103 1420 2742 
Q 1159 2381 1159 1747 
Q 1159 1113 1420 752 
Q 1681 391 2138 391 
Q 2594 391 2855 752 
Q 3116 1113 3116 1747 
z
" transform="scale(0.015625)"/>
       <path id="DejaVuSans-65" d="M 3597 1894 
L 3597 1613 
L 953 1613 
Q 991 1019 1311 708 
Q 1631 397 2203 397 
Q 2534 397 2845 478 
Q 3156 559 3463 722 
L 3463 178 
Q 3153 47 2828 -22 
Q 2503 -91 2169 -91 
Q 1331 -91 842 396 
Q 353 884 353 1716 
Q 353 2575 817 3079 
Q 1281 3584 2069 3584 
Q 2775 3584 3186 3129 
Q 3597 2675 3597 1894 
z
M 3022 2063 
Q 3016 2534 2758 2815 
Q 2500 3097 2075 3097 
Q 1594 3097 1305 2825 
Q 1016 2553 972 2059 
L 3022 2063 
z
" transform="scale(0.015625)"/>
       <path id="DejaVuSans-64" d="M 2906 2969 
L 2906 4863 
L 3481 4863 
L 3481 0 
L 2906 0 
L 2906 525 
Q 2725 213 2448 61 
Q 2172 -91 1784 -91 
Q 1150 -91 751 415 
Q 353 922 353 1747 
Q 353 2572 751 3078 
Q 1150 3584 1784 3584 
Q 2172 3584 2448 3432 
Q 2725 3281 2906 2969 
z
M 947 1747 
Q 947 1113 1208 752 
Q 1469 391 1925 391 
Q 2381 391 2643 752 
Q 2906 1113 2906 1747 
Q 2906 2381 2643 2742 
Q 2381 3103 1925 3103 
Q 1469 3103 1208 2742 
Q 947 2381 947 1747 
z
" transform="scale(0.015625)"/>
      </defs>
      <use xlink:href="#DejaVuSans-47"/>
      <use xlink:href="#DejaVuSans-6f" x="77.490234"/>
      <use xlink:href="#DejaVuSans-73" x="138.671875"/>
      <use xlink:href="#DejaVuSans-73" x="190.771484"/>
      <use xlink:href="#DejaVuSans-69" x="242.871094"/>
      <use xlink:href="#DejaVuSans-70" x="270.654297"/>
      <use xlink:href="#DejaVuSans-20" x="334.130859"/>
      <use xlink:href="#DejaVuSans-70" x="365.917969"/>
      <use xlink:href="#DejaVuSans-72" x="429.394531"/>
      <use xlink:href="#DejaVuSans-65" x="468.257812"/>
      <use xlink:href="#DejaVuSans-64" x="529.78125"/>
      <use xlink:href="#DejaVuSans-69" x="593.257812"/>
      <use xlink:href="#DejaVuSans-63" x="621.041016"/>
      <use xlink:href="#DejaVuSans-74" x="676.021484"/>
      <use xlink:href="#DejaVuSans-69" x="715.230469"/>
      <use xlink:href="#DejaVuSans-6f" x="743.013672"/>
      <use xlink:href="#DejaVuSans-6e" x="804.195312"/>
      <use xlink:href="#DejaVuSans-73" x="867.574219"/>
     </g>
    </g>
    <g id="line2d_19">
     <path d="M 1013.90625 739.702188 
L 1023.90625 739.702188 
L 1033.90625 739.702188 
" style="fill: none; stroke: #da70d6; stroke-linecap: square"/>
    </g>
    <g id="text_16">
     <!-- Centralized predictions -->
     <g transform="translate(1041.90625 743.202188) scale(0.1 -0.1)">
      <defs>
       <path id="DejaVuSans-43" d="M 4122 4306 
L 4122 3641 
Q 3803 3938 3442 4084 
Q 3081 4231 2675 4231 
Q 1875 4231 1450 3742 
Q 1025 3253 1025 2328 
Q 1025 1406 1450 917 
Q 1875 428 2675 428 
Q 3081 428 3442 575 
Q 3803 722 4122 1019 
L 4122 359 
Q 3791 134 3420 21 
Q 3050 -91 2638 -91 
Q 1578 -91 968 557 
Q 359 1206 359 2328 
Q 359 3453 968 4101 
Q 1578 4750 2638 4750 
Q 3056 4750 3426 4639 
Q 3797 4528 4122 4306 
z
" transform="scale(0.015625)"/>
       <path id="DejaVuSans-61" d="M 2194 1759 
Q 1497 1759 1228 1600 
Q 959 1441 959 1056 
Q 959 750 1161 570 
Q 1363 391 1709 391 
Q 2188 391 2477 730 
Q 2766 1069 2766 1631 
L 2766 1759 
L 2194 1759 
z
M 3341 1997 
L 3341 0 
L 2766 0 
L 2766 531 
Q 2569 213 2275 61 
Q 1981 -91 1556 -91 
Q 1019 -91 701 211 
Q 384 513 384 1019 
Q 384 1609 779 1909 
Q 1175 2209 1959 2209 
L 2766 2209 
L 2766 2266 
Q 2766 2663 2505 2880 
Q 2244 3097 1772 3097 
Q 1472 3097 1187 3025 
Q 903 2953 641 2809 
L 641 3341 
Q 956 3463 1253 3523 
Q 1550 3584 1831 3584 
Q 2591 3584 2966 3190 
Q 3341 2797 3341 1997 
z
" transform="scale(0.015625)"/>
       <path id="DejaVuSans-6c" d="M 603 4863 
L 1178 4863 
L 1178 0 
L 603 0 
L 603 4863 
z
" transform="scale(0.015625)"/>
       <path id="DejaVuSans-7a" d="M 353 3500 
L 3084 3500 
L 3084 2975 
L 922 459 
L 3084 459 
L 3084 0 
L 275 0 
L 275 525 
L 2438 3041 
L 353 3041 
L 353 3500 
z
" transform="scale(0.015625)"/>
      </defs>
      <use xlink:href="#DejaVuSans-43"/>
      <use xlink:href="#DejaVuSans-65" x="69.824219"/>
      <use xlink:href="#DejaVuSans-6e" x="131.347656"/>
      <use xlink:href="#DejaVuSans-74" x="194.726562"/>
      <use xlink:href="#DejaVuSans-72" x="233.935547"/>
      <use xlink:href="#DejaVuSans-61" x="275.048828"/>
      <use xlink:href="#DejaVuSans-6c" x="336.328125"/>
      <use xlink:href="#DejaVuSans-69" x="364.111328"/>
      <use xlink:href="#DejaVuSans-7a" x="391.894531"/>
      <use xlink:href="#DejaVuSans-65" x="444.384766"/>
      <use xlink:href="#DejaVuSans-64" x="505.908203"/>
      <use xlink:href="#DejaVuSans-20" x="569.384766"/>
      <use xlink:href="#DejaVuSans-70" x="601.171875"/>
      <use xlink:href="#DejaVuSans-72" x="664.648438"/>
      <use xlink:href="#DejaVuSans-65" x="703.511719"/>
      <use xlink:href="#DejaVuSans-64" x="765.035156"/>
      <use xlink:href="#DejaVuSans-69" x="828.511719"/>
      <use xlink:href="#DejaVuSans-63" x="856.294922"/>
      <use xlink:href="#DejaVuSans-74" x="911.275391"/>
      <use xlink:href="#DejaVuSans-69" x="950.484375"/>
      <use xlink:href="#DejaVuSans-6f" x="978.267578"/>
      <use xlink:href="#DejaVuSans-6e" x="1039.449219"/>
      <use xlink:href="#DejaVuSans-73" x="1102.828125"/>
     </g>
    </g>
    <g id="line2d_20">
     <path d="M 1013.90625 754.380312 
L 1023.90625 754.380312 
L 1033.90625 754.380312 
" style="fill: none; stroke: #8fbc8f; stroke-linecap: square"/>
    </g>
    <g id="text_17">
     <!-- Single predictions -->
     <g transform="translate(1041.90625 757.880312) scale(0.1 -0.1)">
      <defs>
       <path id="DejaVuSans-53" d="M 3425 4513 
L 3425 3897 
Q 3066 4069 2747 4153 
Q 2428 4238 2131 4238 
Q 1616 4238 1336 4038 
Q 1056 3838 1056 3469 
Q 1056 3159 1242 3001 
Q 1428 2844 1947 2747 
L 2328 2669 
Q 3034 2534 3370 2195 
Q 3706 1856 3706 1288 
Q 3706 609 3251 259 
Q 2797 -91 1919 -91 
Q 1588 -91 1214 -16 
Q 841 59 441 206 
L 441 856 
Q 825 641 1194 531 
Q 1563 422 1919 422 
Q 2459 422 2753 634 
Q 3047 847 3047 1241 
Q 3047 1584 2836 1778 
Q 2625 1972 2144 2069 
L 1759 2144 
Q 1053 2284 737 2584 
Q 422 2884 422 3419 
Q 422 4038 858 4394 
Q 1294 4750 2059 4750 
Q 2388 4750 2728 4690 
Q 3069 4631 3425 4513 
z
" transform="scale(0.015625)"/>
       <path id="DejaVuSans-67" d="M 2906 1791 
Q 2906 2416 2648 2759 
Q 2391 3103 1925 3103 
Q 1463 3103 1205 2759 
Q 947 2416 947 1791 
Q 947 1169 1205 825 
Q 1463 481 1925 481 
Q 2391 481 2648 825 
Q 2906 1169 2906 1791 
z
M 3481 434 
Q 3481 -459 3084 -895 
Q 2688 -1331 1869 -1331 
Q 1566 -1331 1297 -1286 
Q 1028 -1241 775 -1147 
L 775 -588 
Q 1028 -725 1275 -790 
Q 1522 -856 1778 -856 
Q 2344 -856 2625 -561 
Q 2906 -266 2906 331 
L 2906 616 
Q 2728 306 2450 153 
Q 2172 0 1784 0 
Q 1141 0 747 490 
Q 353 981 353 1791 
Q 353 2603 747 3093 
Q 1141 3584 1784 3584 
Q 2172 3584 2450 3431 
Q 2728 3278 2906 2969 
L 2906 3500 
L 3481 3500 
L 3481 434 
z
" transform="scale(0.015625)"/>
      </defs>
      <use xlink:href="#DejaVuSans-53"/>
      <use xlink:href="#DejaVuSans-69" x="63.476562"/>
      <use xlink:href="#DejaVuSans-6e" x="91.259766"/>
      <use xlink:href="#DejaVuSans-67" x="154.638672"/>
      <use xlink:href="#DejaVuSans-6c" x="218.115234"/>
      <use xlink:href="#DejaVuSans-65" x="245.898438"/>
      <use xlink:href="#DejaVuSans-20" x="307.421875"/>
      <use xlink:href="#DejaVuSans-70" x="339.208984"/>
      <use xlink:href="#DejaVuSans-72" x="402.685547"/>
      <use xlink:href="#DejaVuSans-65" x="441.548828"/>
      <use xlink:href="#DejaVuSans-64" x="503.072266"/>
      <use xlink:href="#DejaVuSans-69" x="566.548828"/>
      <use xlink:href="#DejaVuSans-63" x="594.332031"/>
      <use xlink:href="#DejaVuSans-74" x="649.3125"/>
      <use xlink:href="#DejaVuSans-69" x="688.521484"/>
      <use xlink:href="#DejaVuSans-6f" x="716.304688"/>
      <use xlink:href="#DejaVuSans-6e" x="777.486328"/>
      <use xlink:href="#DejaVuSans-73" x="840.865234"/>
     </g>
    </g>
   </g>
  </g>
 </g>
 <defs>
  <clipPath id="p3c089f2a7e">
   <rect x="162" y="103.68" width="1004.4" height="665.28"/>
  </clipPath>
 </defs>
</svg>
