<?xml version="1.0" encoding="utf-8" standalone="no"?>
<!DOCTYPE svg PUBLIC "-//W3C//DTD SVG 1.1//EN"
  "http://www.w3.org/Graphics/SVG/1.1/DTD/svg11.dtd">
<svg xmlns:xlink="http://www.w3.org/1999/xlink" width="1296pt" height="864pt" viewBox="0 0 1296 864" xmlns="http://www.w3.org/2000/svg" version="1.1">
 <metadata>
  <rdf:RDF xmlns:dc="http://purl.org/dc/elements/1.1/" xmlns:cc="http://creativecommons.org/ns#" xmlns:rdf="http://www.w3.org/1999/02/22-rdf-syntax-ns#">
   <cc:Work>
    <dc:type rdf:resource="http://purl.org/dc/dcmitype/StillImage"/>
    <dc:date>2023-12-24T17:10:53.284478</dc:date>
    <dc:format>image/svg+xml</dc:format>
    <dc:creator>
     <cc:Agent>
      <dc:title>Matplotlib v3.8.0, https://matplotlib.org/</dc:title>
     </cc:Agent>
    </dc:creator>
   </cc:Work>
  </rdf:RDF>
 </metadata>
 <defs>
  <style type="text/css">*{stroke-linejoin: round; stroke-linecap: butt}</style>
 </defs>
 <g id="figure_1">
  <g id="patch_1">
   <path d="M 0 864 
L 1296 864 
L 1296 0 
L 0 0 
z
" style="fill: #ffffff"/>
  </g>
  <g id="axes_1">
   <g id="patch_2">
    <path d="M 162 768.96 
L 1166.4 768.96 
L 1166.4 103.68 
L 162 103.68 
z
" style="fill: #ffffff"/>
   </g>
   <g id="matplotlib.axis_1">
    <g id="xtick_1">
     <g id="line2d_1">
      <defs>
       <path id="mf34d8e8fa0" d="M 0 0 
L 0 3.5 
" style="stroke: #000000; stroke-width: 0.8"/>
      </defs>
      <g>
       <use xlink:href="#mf34d8e8fa0" x="207.654545" y="768.96" style="stroke: #000000; stroke-width: 0.8"/>
      </g>
     </g>
     <g id="text_1">
      <!-- 0 -->
      <g transform="translate(204.473295 783.558437) scale(0.1 -0.1)">
       <defs>
        <path id="DejaVuSans-30" d="M 2034 4250 
Q 1547 4250 1301 3770 
Q 1056 3291 1056 2328 
Q 1056 1369 1301 889 
Q 1547 409 2034 409 
Q 2525 409 2770 889 
Q 3016 1369 3016 2328 
Q 3016 3291 2770 3770 
Q 2525 4250 2034 4250 
z
M 2034 4750 
Q 2819 4750 3233 4129 
Q 3647 3509 3647 2328 
Q 3647 1150 3233 529 
Q 2819 -91 2034 -91 
Q 1250 -91 836 529 
Q 422 1150 422 2328 
Q 422 3509 836 4129 
Q 1250 4750 2034 4750 
z
" transform="scale(0.015625)"/>
       </defs>
       <use xlink:href="#DejaVuSans-30"/>
      </g>
     </g>
    </g>
    <g id="xtick_2">
     <g id="line2d_2">
      <g>
       <use xlink:href="#mf34d8e8fa0" x="390.638696" y="768.96" style="stroke: #000000; stroke-width: 0.8"/>
      </g>
     </g>
     <g id="text_2">
      <!-- 100 -->
      <g transform="translate(381.094946 783.558437) scale(0.1 -0.1)">
       <defs>
        <path id="DejaVuSans-31" d="M 794 531 
L 1825 531 
L 1825 4091 
L 703 3866 
L 703 4441 
L 1819 4666 
L 2450 4666 
L 2450 531 
L 3481 531 
L 3481 0 
L 794 0 
L 794 531 
z
" transform="scale(0.015625)"/>
       </defs>
       <use xlink:href="#DejaVuSans-31"/>
       <use xlink:href="#DejaVuSans-30" x="63.623047"/>
       <use xlink:href="#DejaVuSans-30" x="127.246094"/>
      </g>
     </g>
    </g>
    <g id="xtick_3">
     <g id="line2d_3">
      <g>
       <use xlink:href="#mf34d8e8fa0" x="573.622846" y="768.96" style="stroke: #000000; stroke-width: 0.8"/>
      </g>
     </g>
     <g id="text_3">
      <!-- 200 -->
      <g transform="translate(564.079096 783.558437) scale(0.1 -0.1)">
       <defs>
        <path id="DejaVuSans-32" d="M 1228 531 
L 3431 531 
L 3431 0 
L 469 0 
L 469 531 
Q 828 903 1448 1529 
Q 2069 2156 2228 2338 
Q 2531 2678 2651 2914 
Q 2772 3150 2772 3378 
Q 2772 3750 2511 3984 
Q 2250 4219 1831 4219 
Q 1534 4219 1204 4116 
Q 875 4013 500 3803 
L 500 4441 
Q 881 4594 1212 4672 
Q 1544 4750 1819 4750 
Q 2544 4750 2975 4387 
Q 3406 4025 3406 3419 
Q 3406 3131 3298 2873 
Q 3191 2616 2906 2266 
Q 2828 2175 2409 1742 
Q 1991 1309 1228 531 
z
" transform="scale(0.015625)"/>
       </defs>
       <use xlink:href="#DejaVuSans-32"/>
       <use xlink:href="#DejaVuSans-30" x="63.623047"/>
       <use xlink:href="#DejaVuSans-30" x="127.246094"/>
      </g>
     </g>
    </g>
    <g id="xtick_4">
     <g id="line2d_4">
      <g>
       <use xlink:href="#mf34d8e8fa0" x="756.606996" y="768.96" style="stroke: #000000; stroke-width: 0.8"/>
      </g>
     </g>
     <g id="text_4">
      <!-- 300 -->
      <g transform="translate(747.063246 783.558437) scale(0.1 -0.1)">
       <defs>
        <path id="DejaVuSans-33" d="M 2597 2516 
Q 3050 2419 3304 2112 
Q 3559 1806 3559 1356 
Q 3559 666 3084 287 
Q 2609 -91 1734 -91 
Q 1441 -91 1130 -33 
Q 819 25 488 141 
L 488 750 
Q 750 597 1062 519 
Q 1375 441 1716 441 
Q 2309 441 2620 675 
Q 2931 909 2931 1356 
Q 2931 1769 2642 2001 
Q 2353 2234 1838 2234 
L 1294 2234 
L 1294 2753 
L 1863 2753 
Q 2328 2753 2575 2939 
Q 2822 3125 2822 3475 
Q 2822 3834 2567 4026 
Q 2313 4219 1838 4219 
Q 1578 4219 1281 4162 
Q 984 4106 628 3988 
L 628 4550 
Q 988 4650 1302 4700 
Q 1616 4750 1894 4750 
Q 2613 4750 3031 4423 
Q 3450 4097 3450 3541 
Q 3450 3153 3228 2886 
Q 3006 2619 2597 2516 
z
" transform="scale(0.015625)"/>
       </defs>
       <use xlink:href="#DejaVuSans-33"/>
       <use xlink:href="#DejaVuSans-30" x="63.623047"/>
       <use xlink:href="#DejaVuSans-30" x="127.246094"/>
      </g>
     </g>
    </g>
    <g id="xtick_5">
     <g id="line2d_5">
      <g>
       <use xlink:href="#mf34d8e8fa0" x="939.591146" y="768.96" style="stroke: #000000; stroke-width: 0.8"/>
      </g>
     </g>
     <g id="text_5">
      <!-- 400 -->
      <g transform="translate(930.047396 783.558437) scale(0.1 -0.1)">
       <defs>
        <path id="DejaVuSans-34" d="M 2419 4116 
L 825 1625 
L 2419 1625 
L 2419 4116 
z
M 2253 4666 
L 3047 4666 
L 3047 1625 
L 3713 1625 
L 3713 1100 
L 3047 1100 
L 3047 0 
L 2419 0 
L 2419 1100 
L 313 1100 
L 313 1709 
L 2253 4666 
z
" transform="scale(0.015625)"/>
       </defs>
       <use xlink:href="#DejaVuSans-34"/>
       <use xlink:href="#DejaVuSans-30" x="63.623047"/>
       <use xlink:href="#DejaVuSans-30" x="127.246094"/>
      </g>
     </g>
    </g>
    <g id="xtick_6">
     <g id="line2d_6">
      <g>
       <use xlink:href="#mf34d8e8fa0" x="1122.575296" y="768.96" style="stroke: #000000; stroke-width: 0.8"/>
      </g>
     </g>
     <g id="text_6">
      <!-- 500 -->
      <g transform="translate(1113.031546 783.558437) scale(0.1 -0.1)">
       <defs>
        <path id="DejaVuSans-35" d="M 691 4666 
L 3169 4666 
L 3169 4134 
L 1269 4134 
L 1269 2991 
Q 1406 3038 1543 3061 
Q 1681 3084 1819 3084 
Q 2600 3084 3056 2656 
Q 3513 2228 3513 1497 
Q 3513 744 3044 326 
Q 2575 -91 1722 -91 
Q 1428 -91 1123 -41 
Q 819 9 494 109 
L 494 744 
Q 775 591 1075 516 
Q 1375 441 1709 441 
Q 2250 441 2565 725 
Q 2881 1009 2881 1497 
Q 2881 1984 2565 2268 
Q 2250 2553 1709 2553 
Q 1456 2553 1204 2497 
Q 953 2441 691 2322 
L 691 4666 
z
" transform="scale(0.015625)"/>
       </defs>
       <use xlink:href="#DejaVuSans-35"/>
       <use xlink:href="#DejaVuSans-30" x="63.623047"/>
       <use xlink:href="#DejaVuSans-30" x="127.246094"/>
      </g>
     </g>
    </g>
   </g>
   <g id="matplotlib.axis_2">
    <g id="ytick_1">
     <g id="line2d_7">
      <defs>
       <path id="mdb1e5a2898" d="M 0 0 
L -3.5 0 
" style="stroke: #000000; stroke-width: 0.8"/>
      </defs>
      <g>
       <use xlink:href="#mdb1e5a2898" x="162" y="738.72" style="stroke: #000000; stroke-width: 0.8"/>
      </g>
     </g>
     <g id="text_7">
      <!-- 0 -->
      <g transform="translate(148.6375 742.519219) scale(0.1 -0.1)">
       <use xlink:href="#DejaVuSans-30"/>
      </g>
     </g>
    </g>
    <g id="ytick_2">
     <g id="line2d_8">
      <g>
       <use xlink:href="#mdb1e5a2898" x="162" y="642.022611" style="stroke: #000000; stroke-width: 0.8"/>
      </g>
     </g>
     <g id="text_8">
      <!-- 20 -->
      <g transform="translate(142.275 645.82183) scale(0.1 -0.1)">
       <use xlink:href="#DejaVuSans-32"/>
       <use xlink:href="#DejaVuSans-30" x="63.623047"/>
      </g>
     </g>
    </g>
    <g id="ytick_3">
     <g id="line2d_9">
      <g>
       <use xlink:href="#mdb1e5a2898" x="162" y="545.325222" style="stroke: #000000; stroke-width: 0.8"/>
      </g>
     </g>
     <g id="text_9">
      <!-- 40 -->
      <g transform="translate(142.275 549.12444) scale(0.1 -0.1)">
       <use xlink:href="#DejaVuSans-34"/>
       <use xlink:href="#DejaVuSans-30" x="63.623047"/>
      </g>
     </g>
    </g>
    <g id="ytick_4">
     <g id="line2d_10">
      <g>
       <use xlink:href="#mdb1e5a2898" x="162" y="448.627832" style="stroke: #000000; stroke-width: 0.8"/>
      </g>
     </g>
     <g id="text_10">
      <!-- 60 -->
      <g transform="translate(142.275 452.427051) scale(0.1 -0.1)">
       <defs>
        <path id="DejaVuSans-36" d="M 2113 2584 
Q 1688 2584 1439 2293 
Q 1191 2003 1191 1497 
Q 1191 994 1439 701 
Q 1688 409 2113 409 
Q 2538 409 2786 701 
Q 3034 994 3034 1497 
Q 3034 2003 2786 2293 
Q 2538 2584 2113 2584 
z
M 3366 4563 
L 3366 3988 
Q 3128 4100 2886 4159 
Q 2644 4219 2406 4219 
Q 1781 4219 1451 3797 
Q 1122 3375 1075 2522 
Q 1259 2794 1537 2939 
Q 1816 3084 2150 3084 
Q 2853 3084 3261 2657 
Q 3669 2231 3669 1497 
Q 3669 778 3244 343 
Q 2819 -91 2113 -91 
Q 1303 -91 875 529 
Q 447 1150 447 2328 
Q 447 3434 972 4092 
Q 1497 4750 2381 4750 
Q 2619 4750 2861 4703 
Q 3103 4656 3366 4563 
z
" transform="scale(0.015625)"/>
       </defs>
       <use xlink:href="#DejaVuSans-36"/>
       <use xlink:href="#DejaVuSans-30" x="63.623047"/>
      </g>
     </g>
    </g>
    <g id="ytick_5">
     <g id="line2d_11">
      <g>
       <use xlink:href="#mdb1e5a2898" x="162" y="351.930443" style="stroke: #000000; stroke-width: 0.8"/>
      </g>
     </g>
     <g id="text_11">
      <!-- 80 -->
      <g transform="translate(142.275 355.729662) scale(0.1 -0.1)">
       <defs>
        <path id="DejaVuSans-38" d="M 2034 2216 
Q 1584 2216 1326 1975 
Q 1069 1734 1069 1313 
Q 1069 891 1326 650 
Q 1584 409 2034 409 
Q 2484 409 2743 651 
Q 3003 894 3003 1313 
Q 3003 1734 2745 1975 
Q 2488 2216 2034 2216 
z
M 1403 2484 
Q 997 2584 770 2862 
Q 544 3141 544 3541 
Q 544 4100 942 4425 
Q 1341 4750 2034 4750 
Q 2731 4750 3128 4425 
Q 3525 4100 3525 3541 
Q 3525 3141 3298 2862 
Q 3072 2584 2669 2484 
Q 3125 2378 3379 2068 
Q 3634 1759 3634 1313 
Q 3634 634 3220 271 
Q 2806 -91 2034 -91 
Q 1263 -91 848 271 
Q 434 634 434 1313 
Q 434 1759 690 2068 
Q 947 2378 1403 2484 
z
M 1172 3481 
Q 1172 3119 1398 2916 
Q 1625 2713 2034 2713 
Q 2441 2713 2670 2916 
Q 2900 3119 2900 3481 
Q 2900 3844 2670 4047 
Q 2441 4250 2034 4250 
Q 1625 4250 1398 4047 
Q 1172 3844 1172 3481 
z
" transform="scale(0.015625)"/>
       </defs>
       <use xlink:href="#DejaVuSans-38"/>
       <use xlink:href="#DejaVuSans-30" x="63.623047"/>
      </g>
     </g>
    </g>
    <g id="ytick_6">
     <g id="line2d_12">
      <g>
       <use xlink:href="#mdb1e5a2898" x="162" y="255.233054" style="stroke: #000000; stroke-width: 0.8"/>
      </g>
     </g>
     <g id="text_12">
      <!-- 100 -->
      <g transform="translate(135.9125 259.032273) scale(0.1 -0.1)">
       <use xlink:href="#DejaVuSans-31"/>
       <use xlink:href="#DejaVuSans-30" x="63.623047"/>
       <use xlink:href="#DejaVuSans-30" x="127.246094"/>
      </g>
     </g>
    </g>
    <g id="ytick_7">
     <g id="line2d_13">
      <g>
       <use xlink:href="#mdb1e5a2898" x="162" y="158.535665" style="stroke: #000000; stroke-width: 0.8"/>
      </g>
     </g>
     <g id="text_13">
      <!-- 120 -->
      <g transform="translate(135.9125 162.334884) scale(0.1 -0.1)">
       <use xlink:href="#DejaVuSans-31"/>
       <use xlink:href="#DejaVuSans-32" x="63.623047"/>
       <use xlink:href="#DejaVuSans-30" x="127.246094"/>
      </g>
     </g>
    </g>
   </g>
   <g id="line2d_14">
    <path d="M 207.654545 385.774529 
L 209.484387 690.371305 
L 211.314228 724.215392 
L 213.14407 671.031828 
L 214.973911 680.701566 
L 216.803753 588.839047 
L 218.633594 675.866697 
L 220.463436 700.041044 
L 222.293277 714.545653 
L 224.123119 695.206175 
L 225.95296 695.206175 
L 227.782802 690.371305 
L 229.612643 738.72 
L 231.442485 613.013394 
L 233.272326 637.187741 
L 235.102168 738.72 
L 236.932009 661.362089 
L 238.761851 593.673916 
L 240.591692 453.462702 
L 242.421534 458.297571 
L 244.251375 322.921226 
L 246.081217 400.279138 
L 247.911058 264.902793 
L 249.7409 264.902793 
L 251.570741 550.160091 
L 253.400583 264.902793 
L 255.230424 264.902793 
L 257.060266 366.435052 
L 258.890107 264.902793 
L 262.54979 264.902793 
L 264.379632 293.91201 
L 266.209473 376.104791 
L 268.039315 264.902793 
L 269.869156 438.958094 
L 271.698998 376.104791 
L 273.528839 414.783746 
L 275.358681 264.902793 
L 277.188522 409.948877 
L 279.018364 434.123224 
L 280.848206 405.114007 
L 282.678047 308.416618 
L 284.507889 496.976527 
L 286.33773 482.471919 
L 288.167572 298.746879 
L 289.997413 264.902793 
L 293.657096 264.902793 
L 295.486938 395.444268 
L 297.316779 264.902793 
L 299.146621 264.902793 
L 300.976462 574.334438 
L 302.806304 390.609399 
L 304.636145 385.774529 
L 306.465987 506.646266 
L 308.295828 376.104791 
L 310.12567 496.976527 
L 311.955511 516.316005 
L 313.785353 380.93966 
L 315.615194 269.737662 
L 317.445036 342.260704 
L 319.274877 574.334438 
L 321.104719 501.811396 
L 322.93456 448.627832 
L 324.764402 477.637049 
L 326.594243 390.609399 
L 328.424085 559.82983 
L 330.253926 608.178525 
L 332.083768 540.490352 
L 333.913609 492.141658 
L 335.743451 622.683133 
L 337.573292 574.334438 
L 339.403134 501.811396 
L 341.232975 453.462702 
L 343.062817 453.462702 
L 344.892658 593.673916 
L 346.7225 540.490352 
L 348.552341 564.664699 
L 350.382183 574.334438 
L 352.212024 492.141658 
L 354.041866 443.792963 
L 355.871707 574.334438 
L 357.701549 550.160091 
L 359.53139 569.499569 
L 361.361232 535.655483 
L 363.191073 434.123224 
L 365.020915 438.958094 
L 366.850756 506.646266 
L 368.680598 332.590965 
L 370.510439 279.407401 
L 372.340281 289.07714 
L 374.170122 264.902793 
L 379.659647 264.902793 
L 381.489488 356.765313 
L 383.31933 361.600182 
L 385.149171 409.948877 
L 386.979013 313.251488 
L 388.808854 264.902793 
L 394.298379 264.902793 
L 396.12822 284.242271 
L 397.958062 264.902793 
L 399.787903 409.948877 
L 401.617745 303.581749 
L 403.447586 380.93966 
L 405.277428 385.774529 
L 407.107269 414.783746 
L 408.937111 530.820613 
L 410.766952 613.013394 
L 412.596794 487.306788 
L 414.426635 284.242271 
L 416.256477 627.518002 
L 418.086318 685.536436 
L 419.91616 646.85748 
L 421.746001 584.004177 
L 423.575843 588.839047 
L 425.405684 584.004177 
L 427.235526 472.80218 
L 429.065367 714.545653 
L 430.895209 574.334438 
L 432.72505 593.673916 
L 434.554892 264.902793 
L 436.384733 593.673916 
L 438.214575 467.96731 
L 440.044416 559.82983 
L 441.874258 574.334438 
L 443.704099 506.646266 
L 445.533941 632.352872 
L 447.363782 458.297571 
L 449.193624 545.325222 
L 451.023465 429.288355 
L 452.853307 472.80218 
L 454.683148 646.85748 
L 456.51299 637.187741 
L 458.342831 554.994961 
L 460.172673 603.343655 
L 462.002514 545.325222 
L 463.832356 680.701566 
L 465.662197 516.316005 
L 467.492039 496.976527 
L 469.32188 627.518002 
L 471.151722 603.343655 
L 472.981563 690.371305 
L 474.811405 559.82983 
L 476.641246 680.701566 
L 478.471088 656.527219 
L 480.300929 651.69235 
L 482.130771 680.701566 
L 483.960612 661.362089 
L 485.790454 584.004177 
L 487.620295 545.325222 
L 489.450137 666.196958 
L 491.279978 675.866697 
L 493.10982 617.848264 
L 494.939661 405.114007 
L 496.769503 584.004177 
L 498.599344 535.655483 
L 500.429186 622.683133 
L 502.259027 584.004177 
L 504.088869 651.69235 
L 505.91871 584.004177 
L 507.748552 646.85748 
L 509.578393 617.848264 
L 511.408235 574.334438 
L 513.238076 617.848264 
L 515.067918 550.160091 
L 516.897759 666.196958 
L 518.727601 680.701566 
L 520.557442 661.362089 
L 522.387284 637.187741 
L 524.217125 516.316005 
L 526.046967 642.022611 
L 527.876808 593.673916 
L 529.70665 613.013394 
L 531.536491 637.187741 
L 533.366333 719.380522 
L 535.196174 700.041044 
L 537.026016 714.545653 
L 538.855857 704.875914 
L 540.685699 554.994961 
L 542.51554 642.022611 
L 544.345382 719.380522 
L 546.175223 675.866697 
L 548.005065 661.362089 
L 549.834906 651.69235 
L 551.664748 733.885131 
L 553.494589 695.206175 
L 557.154272 685.536436 
L 558.984114 709.710783 
L 560.813955 724.215392 
L 562.643797 695.206175 
L 564.473638 588.839047 
L 566.30348 666.196958 
L 568.133321 564.664699 
L 569.963163 675.866697 
L 571.793004 709.710783 
L 573.622846 719.380522 
L 575.452687 700.041044 
L 577.282529 704.875914 
L 579.11237 637.187741 
L 580.942212 719.380522 
L 582.772053 680.701566 
L 584.601895 588.839047 
L 586.431736 279.407401 
L 588.261578 603.343655 
L 590.091419 487.306788 
L 591.921261 516.316005 
L 593.751102 356.765313 
L 595.580944 438.958094 
L 597.410785 264.902793 
L 599.240627 274.572532 
L 601.070468 347.095574 
L 602.90031 438.958094 
L 604.730151 264.902793 
L 606.559993 264.902793 
L 608.389834 327.756096 
L 610.219676 264.902793 
L 612.049517 293.91201 
L 613.879359 264.902793 
L 615.7092 293.91201 
L 617.539042 342.260704 
L 619.368883 400.279138 
L 621.198725 409.948877 
L 623.028566 327.756096 
L 626.688249 405.114007 
L 628.518091 303.581749 
L 630.347932 419.618616 
L 632.177774 463.132441 
L 634.007615 376.104791 
L 635.837457 332.590965 
L 637.667298 463.132441 
L 639.49714 264.902793 
L 641.326981 264.902793 
L 643.156823 269.737662 
L 644.986664 318.086357 
L 646.816506 424.453485 
L 648.646347 264.902793 
L 650.476189 337.425835 
L 652.30603 264.902793 
L 654.135872 419.618616 
L 655.965713 453.462702 
L 657.795555 559.82983 
L 659.625396 424.453485 
L 661.455238 390.609399 
L 663.285079 458.297571 
L 665.114921 264.902793 
L 666.944762 269.737662 
L 668.774604 496.976527 
L 670.604445 366.435052 
L 672.434287 264.902793 
L 674.264128 492.141658 
L 676.09397 376.104791 
L 677.923811 361.600182 
L 681.583494 559.82983 
L 683.413336 579.169308 
L 685.243177 617.848264 
L 687.073019 598.508786 
L 688.90286 613.013394 
L 690.732702 588.839047 
L 692.562543 685.536436 
L 694.392385 554.994961 
L 696.222226 550.160091 
L 698.052068 584.004177 
L 699.881909 627.518002 
L 701.711751 525.985744 
L 703.541592 617.848264 
L 709.031117 632.352872 
L 710.860958 550.160091 
L 712.6908 642.022611 
L 714.520641 685.536436 
L 716.350483 569.499569 
L 718.180324 535.655483 
L 720.010166 569.499569 
L 721.840007 632.352872 
L 723.669849 545.325222 
L 725.49969 429.288355 
L 727.329532 347.095574 
L 729.159373 332.590965 
L 730.989215 419.618616 
L 732.819056 671.031828 
L 734.648898 642.022611 
L 736.478739 656.527219 
L 738.308581 642.022611 
L 740.138422 559.82983 
L 741.968264 651.69235 
L 743.798105 608.178525 
L 745.627947 661.362089 
L 747.457788 719.380522 
L 749.28763 704.875914 
L 751.117471 666.196958 
L 752.947313 724.215392 
L 754.777154 704.875914 
L 756.606996 535.655483 
L 758.436837 685.536436 
L 760.266679 661.362089 
L 762.09652 613.013394 
L 763.926362 579.169308 
L 765.756203 472.80218 
L 767.586045 467.96731 
L 769.415886 492.141658 
L 771.245728 264.902793 
L 773.075569 351.930443 
L 774.905411 264.902793 
L 776.735252 264.902793 
L 778.565094 269.737662 
L 780.394935 264.902793 
L 784.054618 264.902793 
L 785.88446 332.590965 
L 787.714301 264.902793 
L 789.544143 327.756096 
L 791.373984 264.902793 
L 795.033667 264.902793 
L 796.863509 482.471919 
L 798.69335 284.242271 
L 800.523192 361.600182 
L 802.353033 395.444268 
L 804.182875 264.902793 
L 806.012716 337.425835 
L 807.842558 424.453485 
L 809.672399 264.902793 
L 811.502241 313.251488 
L 813.332082 264.902793 
L 822.48129 264.902793 
L 824.311131 332.590965 
L 826.140973 284.242271 
L 827.970814 322.921226 
L 831.630497 458.297571 
L 833.460339 564.664699 
L 835.29018 289.07714 
L 837.120022 264.902793 
L 838.949863 356.765313 
L 840.779705 332.590965 
L 842.609546 264.902793 
L 844.439388 472.80218 
L 846.269229 443.792963 
L 848.099071 419.618616 
L 849.928912 390.609399 
L 851.758754 608.178525 
L 853.588595 540.490352 
L 855.418437 525.985744 
L 857.248278 521.150874 
L 859.07812 530.820613 
L 860.907961 656.527219 
L 862.737803 400.279138 
L 864.567644 545.325222 
L 866.397486 627.518002 
L 868.227327 574.334438 
L 870.057169 637.187741 
L 871.88701 632.352872 
L 873.716852 642.022611 
L 875.546693 617.848264 
L 877.376535 414.783746 
L 879.206376 613.013394 
L 881.036218 545.325222 
L 882.866059 574.334438 
L 884.695901 511.481135 
L 886.525742 569.499569 
L 888.355584 598.508786 
L 890.185425 661.362089 
L 892.015267 535.655483 
L 893.845108 501.811396 
L 895.67495 632.352872 
L 897.504791 656.527219 
L 899.334633 554.994961 
L 901.164474 521.150874 
L 902.994316 608.178525 
L 904.824157 584.004177 
L 906.653999 530.820613 
L 908.48384 666.196958 
L 910.313682 622.683133 
L 912.143523 617.848264 
L 913.973365 530.820613 
L 915.803206 656.527219 
L 917.633048 550.160091 
L 919.462889 603.343655 
L 921.292731 709.710783 
L 923.122572 627.518002 
L 924.952414 613.013394 
L 926.782255 666.196958 
L 928.612097 627.518002 
L 930.441938 685.536436 
L 932.27178 579.169308 
L 934.101621 540.490352 
L 935.931463 627.518002 
L 937.761304 409.948877 
L 939.591146 371.269921 
L 941.420987 429.288355 
L 943.250829 535.655483 
L 945.08067 482.471919 
L 946.910512 521.150874 
L 948.740353 550.160091 
L 950.570195 559.82983 
L 952.400036 356.765313 
L 954.229878 264.902793 
L 959.719402 264.902793 
L 961.549244 303.581749 
L 963.379085 264.902793 
L 967.038768 264.902793 
L 968.86861 366.435052 
L 970.698451 332.590965 
L 972.528293 264.902793 
L 974.358134 356.765313 
L 976.187976 284.242271 
L 978.017817 545.325222 
L 979.847659 269.737662 
L 981.6775 559.82983 
L 983.507342 298.746879 
L 985.337183 487.306788 
L 987.167025 419.618616 
L 988.996866 269.737662 
L 990.826708 284.242271 
L 992.656549 264.902793 
L 994.486391 264.902793 
L 996.316232 293.91201 
L 998.146074 264.902793 
L 999.975915 264.902793 
L 1001.805757 463.132441 
L 1003.635598 414.783746 
L 1005.46544 298.746879 
L 1007.295281 501.811396 
L 1009.125123 313.251488 
L 1010.954964 264.902793 
L 1012.784806 400.279138 
L 1014.614647 293.91201 
L 1016.444489 448.627832 
L 1018.27433 274.572532 
L 1020.104172 264.902793 
L 1021.934013 443.792963 
L 1023.763855 269.737662 
L 1025.593696 337.425835 
L 1027.423538 337.425835 
L 1029.253379 419.618616 
L 1031.083221 264.902793 
L 1032.913062 405.114007 
L 1034.742904 400.279138 
L 1036.572745 429.288355 
L 1038.402587 298.746879 
L 1040.232428 342.260704 
L 1042.06227 516.316005 
L 1043.892111 342.260704 
L 1045.721953 448.627832 
L 1047.551794 472.80218 
L 1049.381636 438.958094 
L 1051.211478 482.471919 
L 1053.041319 492.141658 
L 1054.871161 380.93966 
L 1056.701002 472.80218 
L 1058.530844 535.655483 
L 1060.360685 318.086357 
L 1062.190527 264.902793 
L 1065.85021 264.902793 
L 1067.680051 289.07714 
L 1069.509893 264.902793 
L 1074.999417 264.902793 
L 1076.829259 322.921226 
L 1078.6591 264.902793 
L 1085.978466 264.902793 
L 1087.808308 424.453485 
L 1089.638149 264.902793 
L 1093.297832 264.902793 
L 1095.127674 434.123224 
L 1096.957515 264.902793 
L 1098.787357 405.114007 
L 1100.617198 264.902793 
L 1102.44704 482.471919 
L 1104.276881 351.930443 
L 1106.106723 584.004177 
L 1107.936564 429.288355 
L 1109.766406 637.187741 
L 1111.596247 482.471919 
L 1113.426089 569.499569 
L 1115.25593 496.976527 
L 1117.085772 579.169308 
L 1118.915613 511.481135 
L 1120.745455 617.848264 
L 1120.745455 617.848264 
" clip-path="url(#p6bd848a547)" style="fill: none; stroke: #4169e1; stroke-linecap: square"/>
   </g>
   <g id="line2d_15">
    <path d="M 207.654545 606.481993 
L 209.484387 485.441923 
L 211.314228 595.544343 
L 213.14407 636.175033 
L 214.973911 638.992269 
L 216.803753 670.909067 
L 218.633594 647.154099 
L 220.463436 654.606147 
L 222.293277 664.889831 
L 224.123119 665.174539 
L 225.95296 674.307312 
L 227.782802 676.787072 
L 229.612643 672.613893 
L 231.442485 674.272786 
L 233.272326 616.865922 
L 235.102168 621.170171 
L 236.932009 649.209837 
L 238.761851 634.401943 
L 240.591692 578.016124 
L 242.421534 444.144368 
L 244.251375 426.882097 
L 246.081217 367.219014 
L 247.911058 352.134613 
L 249.7409 304.370469 
L 251.570741 284.737776 
L 253.400583 410.014351 
L 255.230424 312.76218 
L 257.060266 298.595937 
L 258.890107 334.313336 
L 260.719949 269.260564 
L 262.54979 268.134732 
L 264.379632 279.196259 
L 266.209473 285.089384 
L 268.039315 323.989662 
L 269.869156 289.841478 
L 271.698998 346.690369 
L 273.528839 337.734986 
L 275.358681 354.109624 
L 277.188522 307.476181 
L 279.018364 354.823021 
L 280.848206 375.850749 
L 282.678047 372.725081 
L 284.507889 339.649096 
L 286.33773 397.33916 
L 288.167572 408.885679 
L 289.997413 334.297622 
L 291.827255 308.289062 
L 293.657096 300.12524 
L 295.486938 282.271834 
L 297.316779 328.605385 
L 299.146621 291.633898 
L 300.976462 282.190572 
L 302.806304 415.825697 
L 304.636145 374.208276 
L 306.465987 392.36316 
L 308.295828 481.675507 
L 310.12567 409.508223 
L 311.955511 466.162774 
L 313.785353 502.060956 
L 315.615194 427.566574 
L 317.445036 384.00096 
L 319.274877 377.647226 
L 321.104719 457.06058 
L 322.93456 475.345363 
L 324.764402 473.569008 
L 326.594243 506.598054 
L 328.424085 449.901065 
L 332.083768 540.809389 
L 333.913609 526.06424 
L 335.743451 522.891965 
L 337.573292 581.419681 
L 339.403134 568.678203 
L 341.232975 535.670459 
L 343.062817 533.890673 
L 344.892658 494.54727 
L 346.7225 528.08713 
L 348.552341 518.914887 
L 350.382183 536.005044 
L 352.212024 569.02959 
L 354.041866 526.693405 
L 355.871707 499.928862 
L 357.701549 544.81664 
L 359.53139 516.04601 
L 361.361232 524.057119 
L 363.191073 529.060765 
L 365.020915 455.347726 
L 366.850756 470.589874 
L 368.680598 495.950936 
L 370.510439 406.357251 
L 372.340281 361.605605 
L 374.170122 335.215964 
L 375.999964 289.213881 
L 377.829805 281.100705 
L 379.659647 279.411275 
L 381.489488 291.596051 
L 383.31933 333.321146 
L 385.149171 351.443201 
L 386.979013 386.206883 
L 388.808854 347.179787 
L 390.638696 318.212031 
L 392.468537 301.215624 
L 394.298379 282.929052 
L 396.12822 291.247763 
L 397.958062 301.809212 
L 399.787903 300.055192 
L 401.617745 357.299438 
L 403.447586 328.999413 
L 405.277428 359.231697 
L 407.107269 374.022918 
L 408.937111 383.896053 
L 410.766952 468.460749 
L 412.596794 546.031831 
L 414.426635 511.018552 
L 416.256477 396.215025 
L 418.086318 492.700774 
L 419.91616 572.987837 
L 421.746001 588.812479 
L 423.575843 587.381424 
L 425.405684 592.931646 
L 427.235526 578.312807 
L 429.065367 510.382213 
L 430.895209 596.071192 
L 432.72505 560.277086 
L 434.554892 559.906242 
L 436.384733 413.380412 
L 438.214575 499.270113 
L 440.044416 457.611471 
L 443.704099 539.774225 
L 445.533941 501.099161 
L 447.363782 546.442625 
L 449.193624 472.094131 
L 451.023465 495.281176 
L 452.853307 450.078105 
L 454.683148 441.717453 
L 456.51299 533.444948 
L 458.342831 566.669755 
L 460.172673 549.830302 
L 462.002514 554.637285 
L 463.832356 518.971362 
L 465.662197 571.841256 
L 467.492039 501.59343 
L 469.32188 490.104068 
L 471.151722 531.090793 
L 472.981563 544.895026 
L 474.811405 576.510613 
L 476.641246 514.579009 
L 478.471088 597.458111 
L 480.300929 612.378686 
L 482.130771 621.223555 
L 483.960612 646.854354 
L 485.790454 643.146903 
L 487.620295 621.667031 
L 489.450137 607.610297 
L 491.279978 623.481085 
L 493.10982 624.867432 
L 494.939661 611.645933 
L 496.769503 523.242559 
L 498.599344 579.604004 
L 500.429186 551.105195 
L 504.088869 590.295553 
L 505.91871 597.886564 
L 507.748552 592.904488 
L 509.578393 604.813598 
L 511.408235 609.980442 
L 513.238076 590.765394 
L 515.067918 608.585971 
L 516.897759 583.352954 
L 518.727601 610.345634 
L 520.557442 628.38378 
L 522.387284 623.983146 
L 524.217125 625.063874 
L 526.046967 566.777244 
L 527.876808 603.378375 
L 529.70665 591.03171 
L 531.536491 587.657202 
L 533.366333 615.682076 
L 535.196174 623.724069 
L 537.026016 630.918018 
L 538.855857 640.74722 
L 540.685699 643.217145 
L 542.51554 621.81434 
L 546.175223 663.268171 
L 548.005065 655.17799 
L 549.834906 665.706069 
L 551.664748 672.062311 
L 553.494589 674.579844 
L 555.324431 669.080572 
L 557.154272 670.173298 
L 558.984114 678.752654 
L 560.813955 675.740137 
L 562.643797 676.945221 
L 564.473638 672.050922 
L 566.30348 636.956339 
L 568.133321 655.93768 
L 569.963163 618.724573 
L 571.793004 632.343982 
L 573.622846 660.815053 
L 575.452687 661.935817 
L 577.282529 676.561226 
L 579.11237 680.462413 
L 580.942212 655.212544 
L 582.772053 663.454594 
L 584.601895 649.58236 
L 586.431736 612.771147 
L 588.261578 450.209036 
L 590.091419 547.674729 
L 591.921261 491.382318 
L 593.751102 472.758284 
L 595.580944 396.39378 
L 597.410785 401.643482 
L 599.240627 314.869984 
L 601.070468 296.043163 
L 602.90031 313.580927 
L 604.730151 353.008138 
L 606.559993 306.074175 
L 608.389834 290.37826 
L 610.219676 300.99124 
L 612.049517 266.906096 
L 613.879359 276.895646 
L 615.7092 281.855305 
L 617.539042 290.816295 
L 619.368883 314.461201 
L 621.198725 346.803538 
L 623.028566 355.263084 
L 624.858408 330.391128 
L 626.688249 337.111003 
L 628.518091 348.349921 
L 630.347932 324.037615 
L 632.177774 366.948779 
L 634.007615 398.689044 
L 635.837457 373.089231 
L 637.667298 351.204246 
L 639.49714 388.706982 
L 641.326981 312.583204 
L 643.156823 299.785953 
L 644.986664 304.516173 
L 646.816506 305.244805 
L 648.646347 353.400801 
L 650.476189 309.124925 
L 652.30603 319.558412 
L 654.135872 294.613123 
L 655.965713 332.327222 
L 657.795555 387.370377 
L 659.625396 479.120281 
L 661.455238 457.777408 
L 663.285079 438.968237 
L 665.114921 470.464882 
L 666.944762 362.906466 
L 668.774604 338.799843 
L 670.604445 414.939152 
L 672.434287 371.57815 
L 674.264128 353.996749 
L 676.09397 447.051258 
L 677.923811 403.512995 
L 679.753653 397.480475 
L 681.583494 433.935708 
L 683.413336 473.776424 
L 685.243177 516.091971 
L 687.073019 562.11294 
L 688.90286 586.812892 
L 690.732702 598.57107 
L 692.562543 600.690401 
L 694.392385 626.215905 
L 696.222226 593.826491 
L 698.052068 575.125188 
L 699.881909 590.861743 
L 701.711751 580.479649 
L 703.541592 548.622248 
L 705.371434 579.620308 
L 707.201275 591.561852 
L 709.031117 583.81111 
L 710.860958 584.601076 
L 712.6908 554.02979 
L 714.520641 574.95713 
L 716.350483 583.985328 
L 718.180324 579.922451 
L 720.010166 577.801755 
L 721.840007 589.358298 
L 723.669849 596.815934 
L 725.49969 558.873587 
L 727.329532 489.790029 
L 729.159373 442.423399 
L 730.989215 374.030664 
L 732.819056 392.815802 
L 734.648898 535.835584 
L 736.478739 584.874059 
L 738.308581 613.381094 
L 740.138422 623.126673 
L 741.968264 584.837006 
L 743.798105 613.66293 
L 745.627947 604.291498 
L 747.457788 615.629669 
L 749.28763 648.993531 
L 751.117471 652.756497 
L 752.947313 651.676018 
L 754.777154 664.510534 
L 756.606996 658.03214 
L 758.436837 574.050739 
L 760.266679 621.082112 
L 762.09652 622.911815 
L 763.926362 601.178833 
L 765.756203 581.627023 
L 767.586045 499.555398 
L 769.415886 455.902951 
L 771.245728 455.762208 
L 773.075569 330.210824 
L 774.905411 328.415343 
L 776.735252 293.624991 
L 778.565094 271.264015 
L 780.394935 272.010168 
L 782.224777 263.514546 
L 784.054618 255.656039 
L 785.88446 254.415967 
L 787.714301 280.934418 
L 789.544143 263.834247 
L 791.373984 302.810033 
L 793.203826 286.998071 
L 795.033667 282.403632 
L 796.863509 279.937359 
L 798.69335 349.683243 
L 800.523192 299.060088 
L 802.353033 326.595701 
L 804.182875 345.789622 
L 806.012716 301.339491 
L 807.842558 326.144018 
L 809.672399 359.03708 
L 811.502241 305.705673 
L 813.332082 313.5848 
L 815.161924 289.585629 
L 816.991765 272.156093 
L 818.821607 271.463427 
L 820.651448 281.827971 
L 822.48129 284.225856 
L 824.311131 284.897423 
L 826.140973 308.548084 
L 827.970814 284.079562 
L 829.800656 294.346282 
L 831.630497 325.094616 
L 833.460339 380.663855 
L 835.29018 474.476154 
L 837.120022 389.807842 
L 838.949863 371.024216 
L 840.779705 386.633889 
L 842.609546 330.794489 
L 844.439388 307.72148 
L 846.269229 389.503855 
L 848.099071 399.197054 
L 849.928912 414.49492 
L 851.758754 420.778015 
L 853.588595 512.304714 
L 855.418437 515.125233 
L 857.248278 502.954049 
L 859.07812 523.710417 
L 860.907961 507.255033 
L 862.737803 559.049354 
L 864.567644 483.010489 
L 866.397486 525.705365 
L 868.227327 577.504813 
L 870.057169 544.193174 
L 871.88701 584.086998 
L 873.716852 597.672914 
L 877.376535 589.815827 
L 879.206376 515.166731 
L 881.036218 568.050587 
L 882.866059 545.010593 
L 884.695901 536.072842 
L 886.525742 523.712261 
L 888.355584 522.759909 
L 890.185425 540.830544 
L 892.015267 555.090683 
L 893.845108 557.980623 
L 895.67495 543.289698 
L 897.504791 599.648275 
L 899.334633 608.733178 
L 901.164474 568.634215 
L 902.994316 564.233397 
L 904.824157 591.637581 
L 906.653999 565.408436 
L 908.48384 544.699136 
L 910.313682 609.003828 
L 912.143523 609.095059 
L 913.973365 604.593013 
L 915.803206 571.793137 
L 917.633048 602.575066 
L 919.462889 567.962575 
L 921.292731 571.219523 
L 923.122572 635.025722 
L 924.952414 614.458383 
L 926.782255 616.39918 
L 928.612097 643.633592 
L 930.441938 619.638257 
L 932.27178 633.035616 
L 934.101621 600.959686 
L 935.931463 558.794371 
L 937.761304 597.858346 
L 939.591146 492.45754 
L 941.420987 448.934217 
L 943.250829 449.099065 
L 945.08067 443.796098 
L 946.910512 428.875329 
L 950.570195 484.35283 
L 952.400036 506.531897 
L 954.229878 417.859395 
L 956.059719 356.691575 
L 957.889561 318.12531 
L 959.719402 264.5894 
L 961.549244 255.131688 
L 963.379085 270.114796 
L 965.208927 261.034883 
L 967.038768 275.429678 
L 968.86861 277.635823 
L 970.698451 316.969083 
L 972.528293 317.478015 
L 974.358134 286.544286 
L 976.187976 312.789218 
L 978.017817 284.963931 
L 979.847659 386.243439 
L 981.6775 327.561221 
L 983.507342 441.15782 
L 985.337183 372.710142 
L 987.167025 414.597024 
L 988.996866 408.172135 
L 990.826708 319.460624 
L 992.656549 319.940415 
L 994.486391 286.833333 
L 996.316232 285.597098 
L 998.146074 297.74923 
L 999.975915 289.821191 
L 1001.805757 288.001622 
L 1003.635598 352.1971 
L 1005.46544 354.660791 
L 1007.295281 322.978402 
L 1009.125123 422.267628 
L 1010.954964 367.065453 
L 1012.784806 339.128655 
L 1014.614647 387.656916 
L 1016.444489 333.887548 
L 1018.27433 385.510307 
L 1020.104172 341.223586 
L 1021.934013 317.869276 
L 1023.763855 383.849649 
L 1025.593696 332.521655 
L 1027.423538 358.951428 
L 1029.253379 368.300913 
L 1031.083221 388.664562 
L 1032.913062 338.054871 
L 1034.742904 373.084805 
L 1036.572745 380.115417 
L 1038.402587 386.116215 
L 1040.232428 369.673336 
L 1042.06227 374.511156 
L 1043.892111 440.327657 
L 1045.721953 388.257992 
L 1047.551794 424.941502 
L 1049.381636 454.333589 
L 1051.211478 424.13917 
L 1053.041319 452.31376 
L 1054.871161 470.103905 
L 1056.701002 432.110552 
L 1060.360685 491.634183 
L 1062.190527 376.138395 
L 1064.020368 349.195447 
L 1065.85021 318.275477 
L 1067.680051 261.490365 
L 1069.509893 292.887212 
L 1071.339734 291.066352 
L 1073.169576 293.193117 
L 1074.999417 286.71061 
L 1076.829259 277.445006 
L 1078.6591 299.190115 
L 1080.488942 284.417005 
L 1082.318783 282.608356 
L 1084.148625 296.336453 
L 1085.978466 295.046473 
L 1087.808308 297.310089 
L 1089.638149 365.055953 
L 1091.467991 311.788655 
L 1093.297832 304.52735 
L 1095.127674 298.280995 
L 1096.957515 344.150653 
L 1098.787357 317.791002 
L 1100.617198 374.460326 
L 1102.44704 340.419779 
L 1104.276881 406.679755 
L 1106.106723 377.692376 
L 1107.936564 473.044989 
L 1109.766406 447.669228 
L 1111.596247 533.858729 
L 1113.426089 515.460556 
L 1115.25593 535.806074 
L 1117.085772 529.498265 
L 1118.915613 541.000981 
L 1120.745455 502.01186 
L 1120.745455 502.01186 
" clip-path="url(#p6bd848a547)" style="fill: none; stroke: #ff6347; stroke-linecap: square"/>
   </g>
   <g id="line2d_16">
    <path d="M 207.654545 658.677517 
L 209.484387 510.44979 
L 211.314228 634.361809 
L 213.14407 540.825177 
L 214.973911 611.757175 
L 216.803753 671.276389 
L 218.633594 650.751073 
L 220.463436 657.085875 
L 222.293277 661.615291 
L 224.123119 674.408401 
L 225.95296 682.685983 
L 227.782802 660.727787 
L 229.612643 672.161339 
L 231.442485 662.672753 
L 233.272326 572.685676 
L 235.102168 612.140967 
L 236.932009 635.928645 
L 240.591692 529.658724 
L 242.421534 455.368494 
L 244.251375 350.407042 
L 246.081217 282.847974 
L 247.911058 336.382962 
L 249.7409 285.103106 
L 251.570741 273.890526 
L 253.400583 325.789828 
L 255.230424 331.305929 
L 257.060266 280.463627 
L 258.890107 340.298789 
L 260.719949 266.346444 
L 262.54979 283.542411 
L 264.379632 305.16369 
L 266.209473 305.835552 
L 268.039315 321.657289 
L 269.869156 338.500468 
L 271.698998 346.124004 
L 273.528839 385.53089 
L 275.358681 337.888067 
L 277.188522 318.879762 
L 279.018364 337.20418 
L 280.848206 378.394116 
L 282.678047 352.726615 
L 284.507889 379.306999 
L 286.33773 353.775279 
L 288.167572 349.31806 
L 289.997413 280.148279 
L 291.827255 290.350078 
L 293.657096 294.247535 
L 295.486938 266.348326 
L 297.316779 276.31058 
L 299.146621 306.310068 
L 300.976462 315.526944 
L 302.806304 431.889561 
L 304.636145 307.032023 
L 306.465987 421.124901 
L 308.295828 461.421302 
L 310.12567 427.979304 
L 311.955511 432.948092 
L 313.785353 474.016338 
L 315.615194 446.404074 
L 317.445036 381.955974 
L 319.274877 376.498413 
L 321.104719 471.455707 
L 322.93456 456.360573 
L 324.764402 460.039142 
L 326.594243 477.2582 
L 328.424085 462.780298 
L 330.253926 459.831449 
L 332.083768 507.853877 
L 333.913609 457.405087 
L 335.743451 484.196521 
L 337.573292 518.841814 
L 339.403134 508.767184 
L 341.232975 485.717967 
L 343.062817 519.231397 
L 344.892658 503.758723 
L 346.7225 496.440059 
L 348.552341 450.473517 
L 352.212024 553.702602 
L 354.041866 529.314825 
L 355.871707 531.74388 
L 357.701549 481.28941 
L 359.53139 518.804281 
L 361.361232 569.787639 
L 363.191073 535.29244 
L 365.020915 509.748178 
L 366.850756 534.576221 
L 368.680598 536.606673 
L 372.340281 449.228484 
L 374.170122 435.661749 
L 375.999964 393.820276 
L 377.829805 387.870308 
L 379.659647 353.867718 
L 381.489488 375.49453 
L 383.31933 384.441687 
L 385.149171 318.559066 
L 386.979013 338.871404 
L 388.808854 315.772723 
L 390.638696 351.789018 
L 392.468537 401.537653 
L 394.298379 358.818782 
L 396.12822 358.490634 
L 397.958062 352.892791 
L 399.787903 335.37148 
L 401.617745 388.99046 
L 403.447586 323.730014 
L 405.277428 378.044131 
L 407.107269 439.595263 
L 408.937111 397.083237 
L 410.766952 462.564545 
L 412.596794 418.295142 
L 414.426635 214.38934 
L 416.256477 133.92 
L 418.086318 448.402341 
L 419.91616 369.929886 
L 421.746001 482.385547 
L 423.575843 497.570945 
L 425.405684 490.442637 
L 427.235526 491.996415 
L 429.065367 466.396933 
L 430.895209 485.337034 
L 432.72505 471.336544 
L 434.554892 541.954494 
L 436.384733 326.85878 
L 438.214575 436.277063 
L 440.044416 404.361325 
L 441.874258 460.655968 
L 443.704099 428.65065 
L 445.533941 468.435998 
L 447.363782 473.363417 
L 449.193624 456.216141 
L 451.023465 462.232008 
L 452.853307 441.045997 
L 454.683148 437.089963 
L 456.51299 447.302423 
L 458.342831 483.048815 
L 460.172673 489.189212 
L 462.002514 468.119211 
L 463.832356 459.899081 
L 465.662197 506.413969 
L 467.492039 462.231786 
L 469.32188 432.569594 
L 471.151722 480.447645 
L 472.981563 453.714752 
L 474.811405 480.120235 
L 476.641246 523.49424 
L 478.471088 549.050545 
L 480.300929 587.003018 
L 482.130771 586.045751 
L 483.960612 614.892839 
L 487.620295 548.169736 
L 489.450137 528.086927 
L 491.279978 571.898523 
L 493.10982 592.720836 
L 494.939661 591.495667 
L 496.769503 512.256226 
L 498.599344 515.857461 
L 500.429186 489.563321 
L 502.259027 529.07659 
L 504.088869 550.574629 
L 505.91871 562.902103 
L 507.748552 571.644334 
L 509.578393 582.658609 
L 511.408235 578.595492 
L 513.238076 538.518477 
L 515.067918 558.759052 
L 516.897759 530.368525 
L 518.727601 556.050873 
L 520.557442 558.878991 
L 522.387284 583.615793 
L 524.217125 572.514077 
L 526.046967 539.496982 
L 527.876808 547.543761 
L 529.70665 543.307274 
L 531.536491 558.300434 
L 533.366333 599.691811 
L 535.196174 592.069308 
L 537.026016 603.413944 
L 538.855857 606.576212 
L 540.685699 643.089755 
L 542.51554 596.273721 
L 544.345382 632.537621 
L 546.175223 656.361282 
L 548.005065 653.847351 
L 549.834906 622.883771 
L 551.664748 651.958112 
L 553.494589 671.763521 
L 555.324431 662.489249 
L 557.154272 664.669748 
L 558.984114 668.643986 
L 560.813955 675.571545 
L 562.643797 650.866696 
L 564.473638 632.476822 
L 566.30348 656.220475 
L 568.133321 663.666916 
L 569.963163 620.046589 
L 571.793004 651.957845 
L 573.622846 672.194039 
L 575.452687 666.8629 
L 577.282529 675.190556 
L 579.11237 648.859944 
L 580.942212 652.366102 
L 582.772053 677.599857 
L 584.601895 625.449326 
L 586.431736 619.140337 
L 588.261578 380.273884 
L 590.091419 334.832485 
L 591.921261 387.300439 
L 593.751102 341.401161 
L 595.580944 359.141545 
L 597.410785 398.769643 
L 599.240627 306.272074 
L 601.070468 296.970321 
L 602.90031 289.355232 
L 604.730151 331.485421 
L 606.559993 335.506561 
L 608.389834 302.070963 
L 610.219676 325.419739 
L 612.049517 251.85696 
L 613.879359 294.912647 
L 615.7092 306.544633 
L 617.539042 318.973013 
L 619.368883 330.470841 
L 621.198725 395.557696 
L 624.858408 358.085835 
L 626.688249 357.527917 
L 628.518091 381.918681 
L 630.347932 359.32432 
L 632.177774 396.798395 
L 634.007615 413.050199 
L 637.667298 380.39314 
L 639.49714 374.204403 
L 641.326981 281.03073 
L 643.156823 272.021271 
L 644.986664 295.568352 
L 646.816506 293.801975 
L 648.646347 326.332032 
L 650.476189 312.832634 
L 652.30603 333.817499 
L 654.135872 327.914932 
L 655.965713 353.647207 
L 657.795555 393.54934 
L 659.625396 418.810898 
L 661.455238 452.282591 
L 663.285079 456.421953 
L 665.114921 473.941383 
L 666.944762 398.148242 
L 668.774604 351.574372 
L 670.604445 406.709339 
L 672.434287 389.518241 
L 674.264128 357.964956 
L 676.09397 438.163194 
L 677.923811 422.052945 
L 679.753653 418.219303 
L 681.583494 432.333 
L 683.413336 443.597996 
L 685.243177 474.249538 
L 687.073019 516.929309 
L 688.90286 530.523358 
L 690.732702 549.594095 
L 692.562543 550.716958 
L 694.392385 568.165528 
L 696.222226 505.754354 
L 698.052068 521.758811 
L 699.881909 503.215837 
L 701.711751 539.849014 
L 703.541592 533.475454 
L 707.201275 568.744582 
L 709.031117 583.628076 
L 710.860958 604.05648 
L 712.6908 582.009026 
L 714.520641 563.18346 
L 716.350483 615.320896 
L 718.180324 564.249775 
L 720.010166 577.296788 
L 721.840007 529.709887 
L 723.669849 544.20957 
L 725.49969 526.796099 
L 727.329532 512.549829 
L 729.159373 485.970552 
L 730.989215 430.691209 
L 732.819056 447.312603 
L 734.648898 539.120106 
L 736.478739 566.261691 
L 738.308581 559.574958 
L 740.138422 566.038099 
L 741.968264 608.290892 
L 743.798105 609.829592 
L 745.627947 588.892828 
L 747.457788 618.489399 
L 749.28763 665.697221 
L 751.117471 678.91563 
L 752.947313 681.309872 
L 754.777154 682.361884 
L 756.606996 679.080174 
L 758.436837 628.17262 
L 760.266679 621.289676 
L 762.09652 596.581627 
L 763.926362 523.165741 
L 765.756203 510.055522 
L 767.586045 461.759225 
L 769.415886 451.436215 
L 771.245728 402.465549 
L 773.075569 282.629566 
L 774.905411 326.467997 
L 776.735252 279.023812 
L 778.565094 264.586855 
L 780.394935 239.064246 
L 782.224777 297.952515 
L 784.054618 286.726545 
L 785.88446 285.352942 
L 787.714301 288.004942 
L 789.544143 280.50092 
L 791.373984 307.117638 
L 793.203826 303.302181 
L 795.033667 273.060455 
L 796.863509 330.0407 
L 798.69335 346.940021 
L 800.523192 334.511162 
L 802.353033 335.767095 
L 804.182875 395.352825 
L 806.012716 322.774158 
L 807.842558 346.829286 
L 809.672399 376.150162 
L 811.502241 335.048976 
L 813.332082 326.873571 
L 815.161924 316.498477 
L 816.991765 243.637549 
L 818.821607 266.524314 
L 820.651448 278.511856 
L 822.48129 281.593111 
L 824.311131 267.361504 
L 826.140973 312.146976 
L 827.970814 296.963424 
L 829.800656 302.11567 
L 833.460339 384.930958 
L 835.29018 419.347126 
L 837.120022 409.945668 
L 838.949863 320.495271 
L 840.779705 385.50363 
L 842.609546 375.579481 
L 844.439388 314.376029 
L 846.269229 373.764413 
L 848.099071 409.877611 
L 849.928912 398.450791 
L 851.758754 421.556333 
L 853.588595 472.968024 
L 855.418437 482.302662 
L 857.248278 443.323224 
L 859.07812 484.094012 
L 860.907961 451.596933 
L 862.737803 507.274693 
L 866.397486 457.418164 
L 868.227327 504.071397 
L 870.057169 480.675054 
L 871.88701 540.284042 
L 873.716852 557.64246 
L 875.546693 542.873482 
L 877.376535 557.142382 
L 879.206376 494.197285 
L 881.036218 524.149392 
L 882.866059 548.687907 
L 884.695901 519.829227 
L 886.525742 516.118013 
L 888.355584 553.791334 
L 890.185425 552.899716 
L 892.015267 576.55639 
L 893.845108 550.766534 
L 895.67495 547.441491 
L 897.504791 555.974756 
L 899.334633 573.665121 
L 901.164474 525.208624 
L 902.994316 549.784211 
L 904.824157 585.351839 
L 906.653999 531.865404 
L 908.48384 522.119493 
L 910.313682 621.427781 
L 912.143523 602.032438 
L 913.973365 567.031175 
L 915.803206 508.381307 
L 917.633048 586.913548 
L 919.462889 570.618669 
L 921.292731 576.412678 
L 923.122572 654.142171 
L 924.952414 577.455587 
L 926.782255 620.764237 
L 928.612097 640.903428 
L 930.441938 594.877082 
L 932.27178 625.104911 
L 934.101621 604.964411 
L 935.931463 551.019284 
L 937.761304 569.311869 
L 939.591146 443.500762 
L 941.420987 282.227016 
L 943.250829 412.840791 
L 945.08067 420.324967 
L 946.910512 398.036991 
L 948.740353 400.862065 
L 950.570195 426.572909 
L 952.400036 437.493398 
L 954.229878 436.834077 
L 956.059719 333.568216 
L 957.889561 348.224283 
L 959.719402 290.856575 
L 961.549244 280.864111 
L 963.379085 260.914299 
L 965.208927 274.968737 
L 967.038768 292.362197 
L 968.86861 297.06656 
L 970.698451 315.628531 
L 972.528293 365.068531 
L 974.358134 334.371655 
L 976.187976 339.80605 
L 978.017817 291.036031 
L 979.847659 376.746774 
L 981.6775 348.780024 
L 983.507342 414.747449 
L 985.337183 410.388534 
L 987.167025 404.371174 
L 988.996866 416.461815 
L 990.826708 307.350838 
L 992.656549 293.42178 
L 994.486391 287.394755 
L 996.316232 291.554701 
L 998.146074 311.427235 
L 999.975915 289.289131 
L 1001.805757 310.006859 
L 1003.635598 349.351443 
L 1005.46544 379.44112 
L 1007.295281 303.374664 
L 1009.125123 409.577571 
L 1010.954964 369.432204 
L 1012.784806 337.736683 
L 1014.614647 395.007193 
L 1016.444489 352.981726 
L 1018.27433 373.697869 
L 1020.104172 338.433481 
L 1021.934013 255.761536 
L 1023.763855 381.79961 
L 1025.593696 328.021241 
L 1027.423538 353.669376 
L 1029.253379 375.306701 
L 1031.083221 408.549269 
L 1032.913062 360.638977 
L 1034.742904 333.575815 
L 1036.572745 303.983818 
L 1038.402587 357.669158 
L 1040.232428 365.20044 
L 1042.06227 392.349807 
L 1043.892111 425.576329 
L 1045.721953 406.365366 
L 1047.551794 416.68015 
L 1049.381636 421.525828 
L 1051.211478 347.421287 
L 1053.041319 408.150777 
L 1054.871161 446.734914 
L 1056.701002 429.358127 
L 1058.530844 426.409351 
L 1060.360685 434.277136 
L 1062.190527 443.55742 
L 1064.020368 332.495649 
L 1065.85021 266.897059 
L 1067.680051 279.463949 
L 1069.509893 274.799498 
L 1071.339734 295.058499 
L 1073.169576 287.179556 
L 1074.999417 257.779077 
L 1076.829259 242.365902 
L 1078.6591 263.66416 
L 1080.488942 306.167794 
L 1082.318783 258.44264 
L 1084.148625 256.948232 
L 1085.978466 243.491623 
L 1087.808308 208.595184 
L 1089.638149 318.708938 
L 1091.467991 274.895036 
L 1093.297832 276.13105 
L 1095.127674 294.495859 
L 1096.957515 325.176284 
L 1098.787357 316.001902 
L 1100.617198 357.442819 
L 1102.44704 348.15962 
L 1104.276881 388.741656 
L 1106.106723 394.190291 
L 1107.936564 436.72076 
L 1109.766406 488.790481 
L 1111.596247 474.060916 
L 1113.426089 519.977624 
L 1115.25593 499.037817 
L 1117.085772 531.763596 
L 1118.915613 516.098943 
L 1120.745455 538.901863 
L 1120.745455 538.901863 
" clip-path="url(#p6bd848a547)" style="fill: none; stroke: #da70d6; stroke-linecap: square"/>
   </g>
   <g id="line2d_17">
    <path d="M 207.654545 663.665464 
L 209.484387 575.766286 
L 211.314228 596.870407 
L 213.14407 630.344054 
L 214.973911 655.029703 
L 216.803753 665.512734 
L 218.633594 665.616087 
L 222.293277 685.981853 
L 224.123119 672.230774 
L 225.95296 682.945383 
L 227.782802 672.848048 
L 229.612643 671.475317 
L 231.442485 669.897913 
L 233.272326 560.944024 
L 235.102168 580.720227 
L 236.932009 652.173026 
L 238.761851 634.561489 
L 240.591692 523.695883 
L 242.421534 458.884298 
L 244.251375 351.84907 
L 246.081217 319.295074 
L 247.911058 319.892941 
L 249.7409 292.885257 
L 251.570741 288.990456 
L 253.400583 348.331219 
L 255.230424 312.49176 
L 257.060266 307.239033 
L 258.890107 326.712485 
L 260.719949 292.929115 
L 262.54979 299.18816 
L 264.379632 302.153073 
L 266.209473 300.641402 
L 268.039315 320.233704 
L 269.869156 300.353978 
L 271.698998 330.429306 
L 273.528839 313.388523 
L 275.358681 326.2888 
L 277.188522 307.053417 
L 279.018364 329.854383 
L 280.848206 325.092919 
L 284.507889 314.12977 
L 286.33773 320.583689 
L 288.167572 315.232031 
L 289.997413 304.010562 
L 291.827255 297.46306 
L 293.657096 300.229668 
L 295.486938 306.572704 
L 297.316779 324.040825 
L 299.146621 307.906838 
L 300.976462 302.988382 
L 302.806304 328.806457 
L 304.636145 376.587459 
L 306.465987 413.533457 
L 308.295828 476.018829 
L 310.12567 411.862286 
L 311.955511 459.565474 
L 313.785353 479.715325 
L 317.445036 398.955296 
L 319.274877 391.277203 
L 321.104719 508.402591 
L 322.93456 471.494642 
L 324.764402 508.641528 
L 326.594243 552.629629 
L 328.424085 480.959454 
L 330.253926 498.359813 
L 332.083768 544.735101 
L 333.913609 519.694239 
L 335.743451 526.48088 
L 337.573292 580.043238 
L 339.403134 573.231679 
L 341.232975 541.086762 
L 343.062817 577.77763 
L 344.892658 504.382743 
L 346.7225 494.653505 
L 348.552341 510.047573 
L 352.212024 595.046182 
L 354.041866 537.640361 
L 355.871707 534.841734 
L 357.701549 583.474902 
L 359.53139 555.071262 
L 361.361232 571.121422 
L 363.191073 576.189676 
L 365.020915 492.32578 
L 366.850756 487.061655 
L 368.680598 542.882445 
L 370.510439 435.713926 
L 372.340281 317.711842 
L 374.170122 288.878577 
L 375.999964 281.90798 
L 377.829805 287.309288 
L 379.659647 295.386314 
L 381.489488 304.426796 
L 383.31933 339.765069 
L 385.149171 362.446926 
L 386.979013 418.922334 
L 390.638696 327.550266 
L 394.298379 306.705683 
L 397.958062 324.824455 
L 399.787903 324.070187 
L 401.617745 376.784362 
L 403.447586 343.210142 
L 408.937111 366.441691 
L 410.766952 471.809068 
L 412.596794 545.853427 
L 414.426635 512.744925 
L 416.256477 435.635025 
L 418.086318 418.044273 
L 419.91616 531.641057 
L 421.746001 581.647551 
L 423.575843 574.441448 
L 425.405684 558.126069 
L 427.235526 549.376 
L 429.065367 480.980904 
L 430.895209 506.211754 
L 432.72505 539.519907 
L 434.554892 552.965173 
L 436.384733 469.702259 
L 438.214575 436.197092 
L 440.044416 477.417054 
L 441.874258 474.685563 
L 443.704099 512.775007 
L 445.533941 492.040716 
L 447.363782 474.126335 
L 449.193624 452.929572 
L 451.023465 491.823377 
L 452.853307 418.718201 
L 454.683148 381.956859 
L 456.51299 508.984024 
L 458.342831 573.943158 
L 460.172673 584.870103 
L 462.002514 523.950183 
L 463.832356 507.22923 
L 465.662197 541.73994 
L 467.492039 457.422572 
L 469.32188 551.547693 
L 471.151722 549.591402 
L 472.981563 511.273055 
L 474.811405 537.258394 
L 476.641246 470.124672 
L 478.471088 550.654747 
L 480.300929 622.590583 
L 482.130771 611.511369 
L 483.960612 619.665849 
L 485.790454 633.189417 
L 487.620295 611.524667 
L 489.450137 585.619741 
L 491.279978 617.003926 
L 493.10982 611.924606 
L 494.939661 603.319402 
L 496.769503 500.266767 
L 498.599344 571.488135 
L 500.429186 528.746653 
L 502.259027 570.098597 
L 504.088869 577.086163 
L 505.91871 587.240949 
L 507.748552 602.132854 
L 509.578393 586.070336 
L 511.408235 592.259774 
L 513.238076 582.619435 
L 515.067918 594.000238 
L 516.897759 583.211123 
L 518.727601 592.18707 
L 520.557442 613.54147 
L 522.387284 603.454529 
L 524.217125 591.843891 
L 526.046967 543.200191 
L 527.876808 573.392692 
L 529.70665 592.092454 
L 531.536491 606.758527 
L 533.366333 612.785229 
L 535.196174 608.63183 
L 537.026016 632.408037 
L 538.855857 627.681182 
L 540.685699 631.71264 
L 542.51554 611.953442 
L 544.345382 651.608339 
L 546.175223 671.813475 
L 548.005065 675.588084 
L 549.834906 662.491489 
L 551.664748 673.839072 
L 553.494589 674.007544 
L 555.324431 680.274492 
L 557.154272 676.191373 
L 558.984114 677.613888 
L 560.813955 674.732524 
L 562.643797 678.491391 
L 564.473638 671.943142 
L 566.30348 637.416571 
L 568.133321 666.318889 
L 569.963163 639.969658 
L 571.793004 647.198179 
L 573.622846 674.106365 
L 575.452687 669.242032 
L 577.282529 678.102804 
L 579.11237 677.470476 
L 580.942212 659.743537 
L 582.772053 659.541193 
L 584.601895 653.778206 
L 586.431736 618.126789 
L 588.261578 519.409359 
L 590.091419 545.52148 
L 591.921261 515.586507 
L 593.751102 493.586323 
L 595.580944 361.978718 
L 597.410785 343.16407 
L 599.240627 300.598023 
L 601.070468 296.003436 
L 602.90031 306.399187 
L 604.730151 330.371319 
L 606.559993 296.118598 
L 608.389834 296.750843 
L 610.219676 309.118801 
L 612.049517 293.547639 
L 613.879359 303.527119 
L 615.7092 305.692946 
L 617.539042 309.991994 
L 619.368883 323.518282 
L 621.198725 341.167517 
L 624.858408 318.249287 
L 626.688249 326.722408 
L 628.518091 330.035204 
L 630.347932 322.990869 
L 632.177774 357.651305 
L 634.007615 352.942478 
L 635.837457 336.822103 
L 637.667298 323.029343 
L 639.49714 326.500753 
L 641.326981 305.178187 
L 643.156823 299.423832 
L 644.986664 301.707588 
L 646.816506 313.382289 
L 648.646347 329.170643 
L 650.476189 306.148798 
L 652.30603 307.904699 
L 654.135872 310.763082 
L 655.965713 352.430854 
L 657.795555 399.793408 
L 659.625396 502.169368 
L 661.455238 447.57382 
L 663.285079 461.732021 
L 665.114921 468.903432 
L 666.944762 392.194918 
L 668.774604 374.168401 
L 670.604445 435.577333 
L 672.434287 387.824864 
L 674.264128 398.20136 
L 676.09397 470.735671 
L 677.923811 415.14583 
L 681.583494 452.174917 
L 683.413336 475.507057 
L 685.243177 523.013361 
L 687.073019 558.760749 
L 688.90286 589.347702 
L 690.732702 602.943457 
L 692.562543 603.235373 
L 694.392385 607.281218 
L 696.222226 571.880651 
L 698.052068 569.270684 
L 699.881909 604.24988 
L 701.711751 580.07675 
L 703.541592 545.421017 
L 705.371434 568.067002 
L 707.201275 572.925461 
L 709.031117 562.873442 
L 710.860958 580.356834 
L 712.6908 574.8615 
L 714.520641 581.8906 
L 716.350483 577.011134 
L 718.180324 567.617643 
L 720.010166 581.058242 
L 721.840007 615.945183 
L 723.669849 594.452511 
L 725.49969 509.41909 
L 727.329532 447.027964 
L 729.159373 490.113622 
L 730.989215 425.867811 
L 732.819056 430.033143 
L 734.648898 616.221818 
L 736.478739 600.854936 
L 738.308581 623.775951 
L 740.138422 632.480132 
L 741.968264 583.098875 
L 743.798105 597.902712 
L 745.627947 620.524471 
L 747.457788 629.955827 
L 749.28763 656.193391 
L 751.117471 672.294303 
L 752.947313 673.571151 
L 754.777154 686.998397 
L 756.606996 668.585911 
L 758.436837 568.354795 
L 760.266679 564.319049 
L 762.09652 622.572389 
L 763.926362 628.553968 
L 765.756203 547.468622 
L 767.586045 440.869677 
L 769.415886 442.966156 
L 771.245728 459.311967 
L 773.075569 356.328311 
L 774.905411 320.131158 
L 776.735252 290.914931 
L 778.565094 286.40666 
L 780.394935 286.446646 
L 782.224777 284.315344 
L 784.054618 284.233713 
L 785.88446 287.86466 
L 787.714301 304.429599 
L 789.544143 294.644182 
L 791.373984 320.934375 
L 793.203826 307.566112 
L 795.033667 306.415123 
L 796.863509 305.590585 
L 798.69335 356.008721 
L 800.523192 316.30434 
L 802.353033 323.279032 
L 804.182875 319.931562 
L 806.012716 309.661374 
L 807.842558 332.968616 
L 809.672399 365.178233 
L 811.502241 317.700149 
L 813.332082 305.491432 
L 815.161924 296.167768 
L 816.991765 294.611316 
L 818.821607 290.574684 
L 820.651448 295.818558 
L 822.48129 296.640698 
L 824.311131 296.76154 
L 826.140973 306.081589 
L 827.970814 295.811623 
L 829.800656 305.167084 
L 831.630497 332.19856 
L 833.460339 421.54121 
L 835.29018 519.591858 
L 837.120022 425.251575 
L 838.949863 407.505178 
L 840.779705 411.722779 
L 842.609546 358.600558 
L 844.439388 347.310257 
L 846.269229 439.6811 
L 848.099071 414.621517 
L 849.928912 426.719535 
L 851.758754 437.384323 
L 853.588595 555.910554 
L 855.418437 484.168284 
L 857.248278 489.352327 
L 859.07812 503.797344 
L 860.907961 477.424893 
L 862.737803 521.371035 
L 864.567644 433.604278 
L 866.397486 511.01988 
L 868.227327 551.890245 
L 870.057169 534.172307 
L 871.88701 547.338134 
L 873.716852 561.352955 
L 875.546693 550.302936 
L 877.376535 550.642446 
L 879.206376 458.473062 
L 881.036218 540.912175 
L 882.866059 519.646894 
L 884.695901 542.396697 
L 886.525742 572.421195 
L 888.355584 564.17482 
L 890.185425 579.920551 
L 892.015267 566.332994 
L 893.845108 529.034557 
L 895.67495 562.375189 
L 897.504791 644.467047 
L 899.334633 585.712365 
L 901.164474 506.019572 
L 902.994316 523.896457 
L 904.824157 615.731256 
L 906.653999 528.877547 
L 908.48384 518.13668 
L 910.313682 613.10563 
L 912.143523 577.12364 
L 913.973365 590.715467 
L 915.803206 548.507474 
L 917.633048 587.335066 
L 919.462889 555.886947 
L 921.292731 598.560326 
L 923.122572 664.023103 
L 924.952414 645.072162 
L 926.782255 628.25106 
L 928.612097 681.814091 
L 930.441938 627.556088 
L 932.27178 625.911393 
L 934.101621 599.943335 
L 935.931463 548.312396 
L 937.761304 635.267877 
L 939.591146 495.074571 
L 941.420987 518.895909 
L 943.250829 504.184825 
L 945.08067 429.166443 
L 946.910512 389.651957 
L 948.740353 385.660401 
L 950.570195 455.193427 
L 952.400036 500.524866 
L 954.229878 435.393709 
L 956.059719 338.273538 
L 957.889561 293.018456 
L 959.719402 280.721727 
L 961.549244 281.988615 
L 963.379085 289.077509 
L 965.208927 284.508522 
L 967.038768 291.695425 
L 968.86861 290.482134 
L 970.698451 315.682607 
L 972.528293 306.478642 
L 974.358134 299.908676 
L 976.187976 323.283643 
L 978.017817 304.814885 
L 979.847659 347.460978 
L 981.6775 334.52754 
L 983.507342 390.396782 
L 985.337183 397.955175 
L 987.167025 392.764824 
L 988.996866 379.171217 
L 990.826708 305.991216 
L 992.656549 307.892009 
L 994.486391 292.976331 
L 996.316232 301.692906 
L 998.146074 304.802934 
L 999.975915 300.124023 
L 1001.805757 297.339857 
L 1003.635598 322.644647 
L 1005.46544 331.778932 
L 1007.295281 334.895267 
L 1009.125123 452.849251 
L 1010.954964 374.385814 
L 1012.784806 373.370975 
L 1014.614647 414.629005 
L 1016.444489 343.605277 
L 1018.27433 402.445629 
L 1020.104172 359.335681 
L 1021.934013 357.488669 
L 1023.763855 426.039632 
L 1025.593696 367.915332 
L 1027.423538 411.69622 
L 1029.253379 404.554061 
L 1031.083221 437.987464 
L 1032.913062 372.26473 
L 1034.742904 375.797078 
L 1036.572745 359.181973 
L 1038.402587 361.662521 
L 1040.232428 351.432246 
L 1042.06227 370.029259 
L 1043.892111 424.760386 
L 1045.721953 370.095509 
L 1047.551794 391.215233 
L 1049.381636 407.501785 
L 1051.211478 379.46388 
L 1053.041319 426.536391 
L 1054.871161 442.972612 
L 1056.701002 389.560292 
L 1058.530844 437.874479 
L 1060.360685 458.886456 
L 1062.190527 391.29502 
L 1064.020368 358.582852 
L 1065.85021 322.003253 
L 1067.680051 297.801462 
L 1069.509893 303.742281 
L 1071.339734 285.689943 
L 1073.169576 275.19906 
L 1074.999417 270.272231 
L 1076.829259 268.448531 
L 1078.6591 279.358637 
L 1080.488942 274.31838 
L 1082.318783 276.665286 
L 1084.148625 282.970624 
L 1085.978466 280.311431 
L 1087.808308 279.911943 
L 1089.638149 344.758627 
L 1091.467991 302.026219 
L 1093.297832 288.807643 
L 1095.127674 294.43411 
L 1096.957515 341.605589 
L 1098.787357 321.885731 
L 1100.617198 404.147233 
L 1102.44704 359.774159 
L 1104.276881 448.075097 
L 1106.106723 420.014562 
L 1107.936564 483.495868 
L 1109.766406 480.598772 
L 1111.596247 504.175548 
L 1113.426089 498.355829 
L 1115.25593 559.674222 
L 1117.085772 559.228588 
L 1118.915613 539.14222 
L 1120.745455 546.2346 
L 1120.745455 546.2346 
" clip-path="url(#p6bd848a547)" style="fill: none; stroke: #8fbc8f; stroke-linecap: square"/>
   </g>
   <g id="patch_3">
    <path d="M 162 768.96 
L 162 103.68 
" style="fill: none; stroke: #000000; stroke-width: 0.8; stroke-linejoin: miter; stroke-linecap: square"/>
   </g>
   <g id="patch_4">
    <path d="M 1166.4 768.96 
L 1166.4 103.68 
" style="fill: none; stroke: #000000; stroke-width: 0.8; stroke-linejoin: miter; stroke-linecap: square"/>
   </g>
   <g id="patch_5">
    <path d="M 162 768.96 
L 1166.4 768.96 
" style="fill: none; stroke: #000000; stroke-width: 0.8; stroke-linejoin: miter; stroke-linecap: square"/>
   </g>
   <g id="patch_6">
    <path d="M 162 103.68 
L 1166.4 103.68 
" style="fill: none; stroke: #000000; stroke-width: 0.8; stroke-linejoin: miter; stroke-linecap: square"/>
   </g>
   <g id="text_14">
    <!-- Function 1 -->
    <g transform="translate(632.957813 97.68) scale(0.12 -0.12)">
     <defs>
      <path id="DejaVuSans-46" d="M 628 4666 
L 3309 4666 
L 3309 4134 
L 1259 4134 
L 1259 2759 
L 3109 2759 
L 3109 2228 
L 1259 2228 
L 1259 0 
L 628 0 
L 628 4666 
z
" transform="scale(0.015625)"/>
      <path id="DejaVuSans-75" d="M 544 1381 
L 544 3500 
L 1119 3500 
L 1119 1403 
Q 1119 906 1312 657 
Q 1506 409 1894 409 
Q 2359 409 2629 706 
Q 2900 1003 2900 1516 
L 2900 3500 
L 3475 3500 
L 3475 0 
L 2900 0 
L 2900 538 
Q 2691 219 2414 64 
Q 2138 -91 1772 -91 
Q 1169 -91 856 284 
Q 544 659 544 1381 
z
M 1991 3584 
L 1991 3584 
z
" transform="scale(0.015625)"/>
      <path id="DejaVuSans-6e" d="M 3513 2113 
L 3513 0 
L 2938 0 
L 2938 2094 
Q 2938 2591 2744 2837 
Q 2550 3084 2163 3084 
Q 1697 3084 1428 2787 
Q 1159 2491 1159 1978 
L 1159 0 
L 581 0 
L 581 3500 
L 1159 3500 
L 1159 2956 
Q 1366 3272 1645 3428 
Q 1925 3584 2291 3584 
Q 2894 3584 3203 3211 
Q 3513 2838 3513 2113 
z
" transform="scale(0.015625)"/>
      <path id="DejaVuSans-63" d="M 3122 3366 
L 3122 2828 
Q 2878 2963 2633 3030 
Q 2388 3097 2138 3097 
Q 1578 3097 1268 2742 
Q 959 2388 959 1747 
Q 959 1106 1268 751 
Q 1578 397 2138 397 
Q 2388 397 2633 464 
Q 2878 531 3122 666 
L 3122 134 
Q 2881 22 2623 -34 
Q 2366 -91 2075 -91 
Q 1284 -91 818 406 
Q 353 903 353 1747 
Q 353 2603 823 3093 
Q 1294 3584 2113 3584 
Q 2378 3584 2631 3529 
Q 2884 3475 3122 3366 
z
" transform="scale(0.015625)"/>
      <path id="DejaVuSans-74" d="M 1172 4494 
L 1172 3500 
L 2356 3500 
L 2356 3053 
L 1172 3053 
L 1172 1153 
Q 1172 725 1289 603 
Q 1406 481 1766 481 
L 2356 481 
L 2356 0 
L 1766 0 
Q 1100 0 847 248 
Q 594 497 594 1153 
L 594 3053 
L 172 3053 
L 172 3500 
L 594 3500 
L 594 4494 
L 1172 4494 
z
" transform="scale(0.015625)"/>
      <path id="DejaVuSans-69" d="M 603 3500 
L 1178 3500 
L 1178 0 
L 603 0 
L 603 3500 
z
M 603 4863 
L 1178 4863 
L 1178 4134 
L 603 4134 
L 603 4863 
z
" transform="scale(0.015625)"/>
      <path id="DejaVuSans-6f" d="M 1959 3097 
Q 1497 3097 1228 2736 
Q 959 2375 959 1747 
Q 959 1119 1226 758 
Q 1494 397 1959 397 
Q 2419 397 2687 759 
Q 2956 1122 2956 1747 
Q 2956 2369 2687 2733 
Q 2419 3097 1959 3097 
z
M 1959 3584 
Q 2709 3584 3137 3096 
Q 3566 2609 3566 1747 
Q 3566 888 3137 398 
Q 2709 -91 1959 -91 
Q 1206 -91 779 398 
Q 353 888 353 1747 
Q 353 2609 779 3096 
Q 1206 3584 1959 3584 
z
" transform="scale(0.015625)"/>
      <path id="DejaVuSans-20" transform="scale(0.015625)"/>
     </defs>
     <use xlink:href="#DejaVuSans-46"/>
     <use xlink:href="#DejaVuSans-75" x="52.019531"/>
     <use xlink:href="#DejaVuSans-6e" x="115.398438"/>
     <use xlink:href="#DejaVuSans-63" x="178.777344"/>
     <use xlink:href="#DejaVuSans-74" x="233.757812"/>
     <use xlink:href="#DejaVuSans-69" x="272.966797"/>
     <use xlink:href="#DejaVuSans-6f" x="300.75"/>
     <use xlink:href="#DejaVuSans-6e" x="361.931641"/>
     <use xlink:href="#DejaVuSans-20" x="425.310547"/>
     <use xlink:href="#DejaVuSans-31" x="457.097656"/>
    </g>
   </g>
   <g id="legend_1">
    <g id="patch_7">
     <path d="M 1011.90625 170.3925 
L 1159.4 170.3925 
Q 1161.4 170.3925 1161.4 168.3925 
L 1161.4 110.68 
Q 1161.4 108.68 1159.4 108.68 
L 1011.90625 108.68 
Q 1009.90625 108.68 1009.90625 110.68 
L 1009.90625 168.3925 
Q 1009.90625 170.3925 1011.90625 170.3925 
z
" style="fill: #ffffff; opacity: 0.8; stroke: #cccccc; stroke-linejoin: miter"/>
    </g>
    <g id="line2d_18">
     <path d="M 1013.90625 116.778437 
L 1023.90625 116.778437 
L 1033.90625 116.778437 
" style="fill: none; stroke: #4169e1; stroke-linecap: square"/>
    </g>
    <g id="text_15">
     <!-- Truth -->
     <g transform="translate(1041.90625 120.278437) scale(0.1 -0.1)">
      <defs>
       <path id="DejaVuSans-54" d="M -19 4666 
L 3928 4666 
L 3928 4134 
L 2272 4134 
L 2272 0 
L 1638 0 
L 1638 4134 
L -19 4134 
L -19 4666 
z
" transform="scale(0.015625)"/>
       <path id="DejaVuSans-72" d="M 2631 2963 
Q 2534 3019 2420 3045 
Q 2306 3072 2169 3072 
Q 1681 3072 1420 2755 
Q 1159 2438 1159 1844 
L 1159 0 
L 581 0 
L 581 3500 
L 1159 3500 
L 1159 2956 
Q 1341 3275 1631 3429 
Q 1922 3584 2338 3584 
Q 2397 3584 2469 3576 
Q 2541 3569 2628 3553 
L 2631 2963 
z
" transform="scale(0.015625)"/>
       <path id="DejaVuSans-68" d="M 3513 2113 
L 3513 0 
L 2938 0 
L 2938 2094 
Q 2938 2591 2744 2837 
Q 2550 3084 2163 3084 
Q 1697 3084 1428 2787 
Q 1159 2491 1159 1978 
L 1159 0 
L 581 0 
L 581 4863 
L 1159 4863 
L 1159 2956 
Q 1366 3272 1645 3428 
Q 1925 3584 2291 3584 
Q 2894 3584 3203 3211 
Q 3513 2838 3513 2113 
z
" transform="scale(0.015625)"/>
      </defs>
      <use xlink:href="#DejaVuSans-54"/>
      <use xlink:href="#DejaVuSans-72" x="46.333984"/>
      <use xlink:href="#DejaVuSans-75" x="87.447266"/>
      <use xlink:href="#DejaVuSans-74" x="150.826172"/>
      <use xlink:href="#DejaVuSans-68" x="190.035156"/>
     </g>
    </g>
    <g id="line2d_19">
     <path d="M 1013.90625 131.456562 
L 1023.90625 131.456562 
L 1033.90625 131.456562 
" style="fill: none; stroke: #ff6347; stroke-linecap: square"/>
    </g>
    <g id="text_16">
     <!-- Gossip predictions -->
     <g transform="translate(1041.90625 134.956562) scale(0.1 -0.1)">
      <defs>
       <path id="DejaVuSans-47" d="M 3809 666 
L 3809 1919 
L 2778 1919 
L 2778 2438 
L 4434 2438 
L 4434 434 
Q 4069 175 3628 42 
Q 3188 -91 2688 -91 
Q 1594 -91 976 548 
Q 359 1188 359 2328 
Q 359 3472 976 4111 
Q 1594 4750 2688 4750 
Q 3144 4750 3555 4637 
Q 3966 4525 4313 4306 
L 4313 3634 
Q 3963 3931 3569 4081 
Q 3175 4231 2741 4231 
Q 1884 4231 1454 3753 
Q 1025 3275 1025 2328 
Q 1025 1384 1454 906 
Q 1884 428 2741 428 
Q 3075 428 3337 486 
Q 3600 544 3809 666 
z
" transform="scale(0.015625)"/>
       <path id="DejaVuSans-73" d="M 2834 3397 
L 2834 2853 
Q 2591 2978 2328 3040 
Q 2066 3103 1784 3103 
Q 1356 3103 1142 2972 
Q 928 2841 928 2578 
Q 928 2378 1081 2264 
Q 1234 2150 1697 2047 
L 1894 2003 
Q 2506 1872 2764 1633 
Q 3022 1394 3022 966 
Q 3022 478 2636 193 
Q 2250 -91 1575 -91 
Q 1294 -91 989 -36 
Q 684 19 347 128 
L 347 722 
Q 666 556 975 473 
Q 1284 391 1588 391 
Q 1994 391 2212 530 
Q 2431 669 2431 922 
Q 2431 1156 2273 1281 
Q 2116 1406 1581 1522 
L 1381 1569 
Q 847 1681 609 1914 
Q 372 2147 372 2553 
Q 372 3047 722 3315 
Q 1072 3584 1716 3584 
Q 2034 3584 2315 3537 
Q 2597 3491 2834 3397 
z
" transform="scale(0.015625)"/>
       <path id="DejaVuSans-70" d="M 1159 525 
L 1159 -1331 
L 581 -1331 
L 581 3500 
L 1159 3500 
L 1159 2969 
Q 1341 3281 1617 3432 
Q 1894 3584 2278 3584 
Q 2916 3584 3314 3078 
Q 3713 2572 3713 1747 
Q 3713 922 3314 415 
Q 2916 -91 2278 -91 
Q 1894 -91 1617 61 
Q 1341 213 1159 525 
z
M 3116 1747 
Q 3116 2381 2855 2742 
Q 2594 3103 2138 3103 
Q 1681 3103 1420 2742 
Q 1159 2381 1159 1747 
Q 1159 1113 1420 752 
Q 1681 391 2138 391 
Q 2594 391 2855 752 
Q 3116 1113 3116 1747 
z
" transform="scale(0.015625)"/>
       <path id="DejaVuSans-65" d="M 3597 1894 
L 3597 1613 
L 953 1613 
Q 991 1019 1311 708 
Q 1631 397 2203 397 
Q 2534 397 2845 478 
Q 3156 559 3463 722 
L 3463 178 
Q 3153 47 2828 -22 
Q 2503 -91 2169 -91 
Q 1331 -91 842 396 
Q 353 884 353 1716 
Q 353 2575 817 3079 
Q 1281 3584 2069 3584 
Q 2775 3584 3186 3129 
Q 3597 2675 3597 1894 
z
M 3022 2063 
Q 3016 2534 2758 2815 
Q 2500 3097 2075 3097 
Q 1594 3097 1305 2825 
Q 1016 2553 972 2059 
L 3022 2063 
z
" transform="scale(0.015625)"/>
       <path id="DejaVuSans-64" d="M 2906 2969 
L 2906 4863 
L 3481 4863 
L 3481 0 
L 2906 0 
L 2906 525 
Q 2725 213 2448 61 
Q 2172 -91 1784 -91 
Q 1150 -91 751 415 
Q 353 922 353 1747 
Q 353 2572 751 3078 
Q 1150 3584 1784 3584 
Q 2172 3584 2448 3432 
Q 2725 3281 2906 2969 
z
M 947 1747 
Q 947 1113 1208 752 
Q 1469 391 1925 391 
Q 2381 391 2643 752 
Q 2906 1113 2906 1747 
Q 2906 2381 2643 2742 
Q 2381 3103 1925 3103 
Q 1469 3103 1208 2742 
Q 947 2381 947 1747 
z
" transform="scale(0.015625)"/>
      </defs>
      <use xlink:href="#DejaVuSans-47"/>
      <use xlink:href="#DejaVuSans-6f" x="77.490234"/>
      <use xlink:href="#DejaVuSans-73" x="138.671875"/>
      <use xlink:href="#DejaVuSans-73" x="190.771484"/>
      <use xlink:href="#DejaVuSans-69" x="242.871094"/>
      <use xlink:href="#DejaVuSans-70" x="270.654297"/>
      <use xlink:href="#DejaVuSans-20" x="334.130859"/>
      <use xlink:href="#DejaVuSans-70" x="365.917969"/>
      <use xlink:href="#DejaVuSans-72" x="429.394531"/>
      <use xlink:href="#DejaVuSans-65" x="468.257812"/>
      <use xlink:href="#DejaVuSans-64" x="529.78125"/>
      <use xlink:href="#DejaVuSans-69" x="593.257812"/>
      <use xlink:href="#DejaVuSans-63" x="621.041016"/>
      <use xlink:href="#DejaVuSans-74" x="676.021484"/>
      <use xlink:href="#DejaVuSans-69" x="715.230469"/>
      <use xlink:href="#DejaVuSans-6f" x="743.013672"/>
      <use xlink:href="#DejaVuSans-6e" x="804.195312"/>
      <use xlink:href="#DejaVuSans-73" x="867.574219"/>
     </g>
    </g>
    <g id="line2d_20">
     <path d="M 1013.90625 146.134687 
L 1023.90625 146.134687 
L 1033.90625 146.134687 
" style="fill: none; stroke: #da70d6; stroke-linecap: square"/>
    </g>
    <g id="text_17">
     <!-- Centralized predictions -->
     <g transform="translate(1041.90625 149.634687) scale(0.1 -0.1)">
      <defs>
       <path id="DejaVuSans-43" d="M 4122 4306 
L 4122 3641 
Q 3803 3938 3442 4084 
Q 3081 4231 2675 4231 
Q 1875 4231 1450 3742 
Q 1025 3253 1025 2328 
Q 1025 1406 1450 917 
Q 1875 428 2675 428 
Q 3081 428 3442 575 
Q 3803 722 4122 1019 
L 4122 359 
Q 3791 134 3420 21 
Q 3050 -91 2638 -91 
Q 1578 -91 968 557 
Q 359 1206 359 2328 
Q 359 3453 968 4101 
Q 1578 4750 2638 4750 
Q 3056 4750 3426 4639 
Q 3797 4528 4122 4306 
z
" transform="scale(0.015625)"/>
       <path id="DejaVuSans-61" d="M 2194 1759 
Q 1497 1759 1228 1600 
Q 959 1441 959 1056 
Q 959 750 1161 570 
Q 1363 391 1709 391 
Q 2188 391 2477 730 
Q 2766 1069 2766 1631 
L 2766 1759 
L 2194 1759 
z
M 3341 1997 
L 3341 0 
L 2766 0 
L 2766 531 
Q 2569 213 2275 61 
Q 1981 -91 1556 -91 
Q 1019 -91 701 211 
Q 384 513 384 1019 
Q 384 1609 779 1909 
Q 1175 2209 1959 2209 
L 2766 2209 
L 2766 2266 
Q 2766 2663 2505 2880 
Q 2244 3097 1772 3097 
Q 1472 3097 1187 3025 
Q 903 2953 641 2809 
L 641 3341 
Q 956 3463 1253 3523 
Q 1550 3584 1831 3584 
Q 2591 3584 2966 3190 
Q 3341 2797 3341 1997 
z
" transform="scale(0.015625)"/>
       <path id="DejaVuSans-6c" d="M 603 4863 
L 1178 4863 
L 1178 0 
L 603 0 
L 603 4863 
z
" transform="scale(0.015625)"/>
       <path id="DejaVuSans-7a" d="M 353 3500 
L 3084 3500 
L 3084 2975 
L 922 459 
L 3084 459 
L 3084 0 
L 275 0 
L 275 525 
L 2438 3041 
L 353 3041 
L 353 3500 
z
" transform="scale(0.015625)"/>
      </defs>
      <use xlink:href="#DejaVuSans-43"/>
      <use xlink:href="#DejaVuSans-65" x="69.824219"/>
      <use xlink:href="#DejaVuSans-6e" x="131.347656"/>
      <use xlink:href="#DejaVuSans-74" x="194.726562"/>
      <use xlink:href="#DejaVuSans-72" x="233.935547"/>
      <use xlink:href="#DejaVuSans-61" x="275.048828"/>
      <use xlink:href="#DejaVuSans-6c" x="336.328125"/>
      <use xlink:href="#DejaVuSans-69" x="364.111328"/>
      <use xlink:href="#DejaVuSans-7a" x="391.894531"/>
      <use xlink:href="#DejaVuSans-65" x="444.384766"/>
      <use xlink:href="#DejaVuSans-64" x="505.908203"/>
      <use xlink:href="#DejaVuSans-20" x="569.384766"/>
      <use xlink:href="#DejaVuSans-70" x="601.171875"/>
      <use xlink:href="#DejaVuSans-72" x="664.648438"/>
      <use xlink:href="#DejaVuSans-65" x="703.511719"/>
      <use xlink:href="#DejaVuSans-64" x="765.035156"/>
      <use xlink:href="#DejaVuSans-69" x="828.511719"/>
      <use xlink:href="#DejaVuSans-63" x="856.294922"/>
      <use xlink:href="#DejaVuSans-74" x="911.275391"/>
      <use xlink:href="#DejaVuSans-69" x="950.484375"/>
      <use xlink:href="#DejaVuSans-6f" x="978.267578"/>
      <use xlink:href="#DejaVuSans-6e" x="1039.449219"/>
      <use xlink:href="#DejaVuSans-73" x="1102.828125"/>
     </g>
    </g>
    <g id="line2d_21">
     <path d="M 1013.90625 160.812812 
L 1023.90625 160.812812 
L 1033.90625 160.812812 
" style="fill: none; stroke: #8fbc8f; stroke-linecap: square"/>
    </g>
    <g id="text_18">
     <!-- Single predictions -->
     <g transform="translate(1041.90625 164.312812) scale(0.1 -0.1)">
      <defs>
       <path id="DejaVuSans-53" d="M 3425 4513 
L 3425 3897 
Q 3066 4069 2747 4153 
Q 2428 4238 2131 4238 
Q 1616 4238 1336 4038 
Q 1056 3838 1056 3469 
Q 1056 3159 1242 3001 
Q 1428 2844 1947 2747 
L 2328 2669 
Q 3034 2534 3370 2195 
Q 3706 1856 3706 1288 
Q 3706 609 3251 259 
Q 2797 -91 1919 -91 
Q 1588 -91 1214 -16 
Q 841 59 441 206 
L 441 856 
Q 825 641 1194 531 
Q 1563 422 1919 422 
Q 2459 422 2753 634 
Q 3047 847 3047 1241 
Q 3047 1584 2836 1778 
Q 2625 1972 2144 2069 
L 1759 2144 
Q 1053 2284 737 2584 
Q 422 2884 422 3419 
Q 422 4038 858 4394 
Q 1294 4750 2059 4750 
Q 2388 4750 2728 4690 
Q 3069 4631 3425 4513 
z
" transform="scale(0.015625)"/>
       <path id="DejaVuSans-67" d="M 2906 1791 
Q 2906 2416 2648 2759 
Q 2391 3103 1925 3103 
Q 1463 3103 1205 2759 
Q 947 2416 947 1791 
Q 947 1169 1205 825 
Q 1463 481 1925 481 
Q 2391 481 2648 825 
Q 2906 1169 2906 1791 
z
M 3481 434 
Q 3481 -459 3084 -895 
Q 2688 -1331 1869 -1331 
Q 1566 -1331 1297 -1286 
Q 1028 -1241 775 -1147 
L 775 -588 
Q 1028 -725 1275 -790 
Q 1522 -856 1778 -856 
Q 2344 -856 2625 -561 
Q 2906 -266 2906 331 
L 2906 616 
Q 2728 306 2450 153 
Q 2172 0 1784 0 
Q 1141 0 747 490 
Q 353 981 353 1791 
Q 353 2603 747 3093 
Q 1141 3584 1784 3584 
Q 2172 3584 2450 3431 
Q 2728 3278 2906 2969 
L 2906 3500 
L 3481 3500 
L 3481 434 
z
" transform="scale(0.015625)"/>
      </defs>
      <use xlink:href="#DejaVuSans-53"/>
      <use xlink:href="#DejaVuSans-69" x="63.476562"/>
      <use xlink:href="#DejaVuSans-6e" x="91.259766"/>
      <use xlink:href="#DejaVuSans-67" x="154.638672"/>
      <use xlink:href="#DejaVuSans-6c" x="218.115234"/>
      <use xlink:href="#DejaVuSans-65" x="245.898438"/>
      <use xlink:href="#DejaVuSans-20" x="307.421875"/>
      <use xlink:href="#DejaVuSans-70" x="339.208984"/>
      <use xlink:href="#DejaVuSans-72" x="402.685547"/>
      <use xlink:href="#DejaVuSans-65" x="441.548828"/>
      <use xlink:href="#DejaVuSans-64" x="503.072266"/>
      <use xlink:href="#DejaVuSans-69" x="566.548828"/>
      <use xlink:href="#DejaVuSans-63" x="594.332031"/>
      <use xlink:href="#DejaVuSans-74" x="649.3125"/>
      <use xlink:href="#DejaVuSans-69" x="688.521484"/>
      <use xlink:href="#DejaVuSans-6f" x="716.304688"/>
      <use xlink:href="#DejaVuSans-6e" x="777.486328"/>
      <use xlink:href="#DejaVuSans-73" x="840.865234"/>
     </g>
    </g>
   </g>
  </g>
 </g>
 <defs>
  <clipPath id="p6bd848a547">
   <rect x="162" y="103.68" width="1004.4" height="665.28"/>
  </clipPath>
 </defs>
</svg>
