<?xml version="1.0" encoding="utf-8" standalone="no"?>
<!DOCTYPE svg PUBLIC "-//W3C//DTD SVG 1.1//EN"
  "http://www.w3.org/Graphics/SVG/1.1/DTD/svg11.dtd">
<svg xmlns:xlink="http://www.w3.org/1999/xlink" width="1296pt" height="864pt" viewBox="0 0 1296 864" xmlns="http://www.w3.org/2000/svg" version="1.1">
 <metadata>
  <rdf:RDF xmlns:dc="http://purl.org/dc/elements/1.1/" xmlns:cc="http://creativecommons.org/ns#" xmlns:rdf="http://www.w3.org/1999/02/22-rdf-syntax-ns#">
   <cc:Work>
    <dc:type rdf:resource="http://purl.org/dc/dcmitype/StillImage"/>
    <dc:date>2023-12-10T12:47:09.082352</dc:date>
    <dc:format>image/svg+xml</dc:format>
    <dc:creator>
     <cc:Agent>
      <dc:title>Matplotlib v3.8.0, https://matplotlib.org/</dc:title>
     </cc:Agent>
    </dc:creator>
   </cc:Work>
  </rdf:RDF>
 </metadata>
 <defs>
  <style type="text/css">*{stroke-linejoin: round; stroke-linecap: butt}</style>
 </defs>
 <g id="figure_1">
  <g id="patch_1">
   <path d="M 0 864 
L 1296 864 
L 1296 0 
L 0 0 
z
" style="fill: #ffffff"/>
  </g>
  <g id="axes_1">
   <g id="patch_2">
    <path d="M 162 768.96 
L 1166.4 768.96 
L 1166.4 103.68 
L 162 103.68 
z
" style="fill: #ffffff"/>
   </g>
   <g id="matplotlib.axis_1">
    <g id="xtick_1">
     <g id="line2d_1">
      <defs>
       <path id="m60dd12aec6" d="M 0 0 
L 0 3.5 
" style="stroke: #000000; stroke-width: 0.8"/>
      </defs>
      <g>
       <use xlink:href="#m60dd12aec6" x="207.654545" y="768.96" style="stroke: #000000; stroke-width: 0.8"/>
      </g>
     </g>
     <g id="text_1">
      <!-- 0 -->
      <g transform="translate(204.473295 783.558437) scale(0.1 -0.1)">
       <defs>
        <path id="DejaVuSans-30" d="M 2034 4250 
Q 1547 4250 1301 3770 
Q 1056 3291 1056 2328 
Q 1056 1369 1301 889 
Q 1547 409 2034 409 
Q 2525 409 2770 889 
Q 3016 1369 3016 2328 
Q 3016 3291 2770 3770 
Q 2525 4250 2034 4250 
z
M 2034 4750 
Q 2819 4750 3233 4129 
Q 3647 3509 3647 2328 
Q 3647 1150 3233 529 
Q 2819 -91 2034 -91 
Q 1250 -91 836 529 
Q 422 1150 422 2328 
Q 422 3509 836 4129 
Q 1250 4750 2034 4750 
z
" transform="scale(0.015625)"/>
       </defs>
       <use xlink:href="#DejaVuSans-30"/>
      </g>
     </g>
    </g>
    <g id="xtick_2">
     <g id="line2d_2">
      <g>
       <use xlink:href="#m60dd12aec6" x="390.638696" y="768.96" style="stroke: #000000; stroke-width: 0.8"/>
      </g>
     </g>
     <g id="text_2">
      <!-- 100 -->
      <g transform="translate(381.094946 783.558437) scale(0.1 -0.1)">
       <defs>
        <path id="DejaVuSans-31" d="M 794 531 
L 1825 531 
L 1825 4091 
L 703 3866 
L 703 4441 
L 1819 4666 
L 2450 4666 
L 2450 531 
L 3481 531 
L 3481 0 
L 794 0 
L 794 531 
z
" transform="scale(0.015625)"/>
       </defs>
       <use xlink:href="#DejaVuSans-31"/>
       <use xlink:href="#DejaVuSans-30" x="63.623047"/>
       <use xlink:href="#DejaVuSans-30" x="127.246094"/>
      </g>
     </g>
    </g>
    <g id="xtick_3">
     <g id="line2d_3">
      <g>
       <use xlink:href="#m60dd12aec6" x="573.622846" y="768.96" style="stroke: #000000; stroke-width: 0.8"/>
      </g>
     </g>
     <g id="text_3">
      <!-- 200 -->
      <g transform="translate(564.079096 783.558437) scale(0.1 -0.1)">
       <defs>
        <path id="DejaVuSans-32" d="M 1228 531 
L 3431 531 
L 3431 0 
L 469 0 
L 469 531 
Q 828 903 1448 1529 
Q 2069 2156 2228 2338 
Q 2531 2678 2651 2914 
Q 2772 3150 2772 3378 
Q 2772 3750 2511 3984 
Q 2250 4219 1831 4219 
Q 1534 4219 1204 4116 
Q 875 4013 500 3803 
L 500 4441 
Q 881 4594 1212 4672 
Q 1544 4750 1819 4750 
Q 2544 4750 2975 4387 
Q 3406 4025 3406 3419 
Q 3406 3131 3298 2873 
Q 3191 2616 2906 2266 
Q 2828 2175 2409 1742 
Q 1991 1309 1228 531 
z
" transform="scale(0.015625)"/>
       </defs>
       <use xlink:href="#DejaVuSans-32"/>
       <use xlink:href="#DejaVuSans-30" x="63.623047"/>
       <use xlink:href="#DejaVuSans-30" x="127.246094"/>
      </g>
     </g>
    </g>
    <g id="xtick_4">
     <g id="line2d_4">
      <g>
       <use xlink:href="#m60dd12aec6" x="756.606996" y="768.96" style="stroke: #000000; stroke-width: 0.8"/>
      </g>
     </g>
     <g id="text_4">
      <!-- 300 -->
      <g transform="translate(747.063246 783.558437) scale(0.1 -0.1)">
       <defs>
        <path id="DejaVuSans-33" d="M 2597 2516 
Q 3050 2419 3304 2112 
Q 3559 1806 3559 1356 
Q 3559 666 3084 287 
Q 2609 -91 1734 -91 
Q 1441 -91 1130 -33 
Q 819 25 488 141 
L 488 750 
Q 750 597 1062 519 
Q 1375 441 1716 441 
Q 2309 441 2620 675 
Q 2931 909 2931 1356 
Q 2931 1769 2642 2001 
Q 2353 2234 1838 2234 
L 1294 2234 
L 1294 2753 
L 1863 2753 
Q 2328 2753 2575 2939 
Q 2822 3125 2822 3475 
Q 2822 3834 2567 4026 
Q 2313 4219 1838 4219 
Q 1578 4219 1281 4162 
Q 984 4106 628 3988 
L 628 4550 
Q 988 4650 1302 4700 
Q 1616 4750 1894 4750 
Q 2613 4750 3031 4423 
Q 3450 4097 3450 3541 
Q 3450 3153 3228 2886 
Q 3006 2619 2597 2516 
z
" transform="scale(0.015625)"/>
       </defs>
       <use xlink:href="#DejaVuSans-33"/>
       <use xlink:href="#DejaVuSans-30" x="63.623047"/>
       <use xlink:href="#DejaVuSans-30" x="127.246094"/>
      </g>
     </g>
    </g>
    <g id="xtick_5">
     <g id="line2d_5">
      <g>
       <use xlink:href="#m60dd12aec6" x="939.591146" y="768.96" style="stroke: #000000; stroke-width: 0.8"/>
      </g>
     </g>
     <g id="text_5">
      <!-- 400 -->
      <g transform="translate(930.047396 783.558437) scale(0.1 -0.1)">
       <defs>
        <path id="DejaVuSans-34" d="M 2419 4116 
L 825 1625 
L 2419 1625 
L 2419 4116 
z
M 2253 4666 
L 3047 4666 
L 3047 1625 
L 3713 1625 
L 3713 1100 
L 3047 1100 
L 3047 0 
L 2419 0 
L 2419 1100 
L 313 1100 
L 313 1709 
L 2253 4666 
z
" transform="scale(0.015625)"/>
       </defs>
       <use xlink:href="#DejaVuSans-34"/>
       <use xlink:href="#DejaVuSans-30" x="63.623047"/>
       <use xlink:href="#DejaVuSans-30" x="127.246094"/>
      </g>
     </g>
    </g>
    <g id="xtick_6">
     <g id="line2d_6">
      <g>
       <use xlink:href="#m60dd12aec6" x="1122.575296" y="768.96" style="stroke: #000000; stroke-width: 0.8"/>
      </g>
     </g>
     <g id="text_6">
      <!-- 500 -->
      <g transform="translate(1113.031546 783.558437) scale(0.1 -0.1)">
       <defs>
        <path id="DejaVuSans-35" d="M 691 4666 
L 3169 4666 
L 3169 4134 
L 1269 4134 
L 1269 2991 
Q 1406 3038 1543 3061 
Q 1681 3084 1819 3084 
Q 2600 3084 3056 2656 
Q 3513 2228 3513 1497 
Q 3513 744 3044 326 
Q 2575 -91 1722 -91 
Q 1428 -91 1123 -41 
Q 819 9 494 109 
L 494 744 
Q 775 591 1075 516 
Q 1375 441 1709 441 
Q 2250 441 2565 725 
Q 2881 1009 2881 1497 
Q 2881 1984 2565 2268 
Q 2250 2553 1709 2553 
Q 1456 2553 1204 2497 
Q 953 2441 691 2322 
L 691 4666 
z
" transform="scale(0.015625)"/>
       </defs>
       <use xlink:href="#DejaVuSans-35"/>
       <use xlink:href="#DejaVuSans-30" x="63.623047"/>
       <use xlink:href="#DejaVuSans-30" x="127.246094"/>
      </g>
     </g>
    </g>
   </g>
   <g id="matplotlib.axis_2">
    <g id="ytick_1">
     <g id="line2d_7">
      <defs>
       <path id="m1237e110f5" d="M 0 0 
L -3.5 0 
" style="stroke: #000000; stroke-width: 0.8"/>
      </defs>
      <g>
       <use xlink:href="#m1237e110f5" x="162" y="738.72" style="stroke: #000000; stroke-width: 0.8"/>
      </g>
     </g>
     <g id="text_7">
      <!-- 0 -->
      <g transform="translate(148.6375 742.519219) scale(0.1 -0.1)">
       <use xlink:href="#DejaVuSans-30"/>
      </g>
     </g>
    </g>
    <g id="ytick_2">
     <g id="line2d_8">
      <g>
       <use xlink:href="#m1237e110f5" x="162" y="632.974706" style="stroke: #000000; stroke-width: 0.8"/>
      </g>
     </g>
     <g id="text_8">
      <!-- 10 -->
      <g transform="translate(142.275 636.773925) scale(0.1 -0.1)">
       <use xlink:href="#DejaVuSans-31"/>
       <use xlink:href="#DejaVuSans-30" x="63.623047"/>
      </g>
     </g>
    </g>
    <g id="ytick_3">
     <g id="line2d_9">
      <g>
       <use xlink:href="#m1237e110f5" x="162" y="527.229412" style="stroke: #000000; stroke-width: 0.8"/>
      </g>
     </g>
     <g id="text_9">
      <!-- 20 -->
      <g transform="translate(142.275 531.028631) scale(0.1 -0.1)">
       <use xlink:href="#DejaVuSans-32"/>
       <use xlink:href="#DejaVuSans-30" x="63.623047"/>
      </g>
     </g>
    </g>
    <g id="ytick_4">
     <g id="line2d_10">
      <g>
       <use xlink:href="#m1237e110f5" x="162" y="421.484118" style="stroke: #000000; stroke-width: 0.8"/>
      </g>
     </g>
     <g id="text_10">
      <!-- 30 -->
      <g transform="translate(142.275 425.283337) scale(0.1 -0.1)">
       <use xlink:href="#DejaVuSans-33"/>
       <use xlink:href="#DejaVuSans-30" x="63.623047"/>
      </g>
     </g>
    </g>
    <g id="ytick_5">
     <g id="line2d_11">
      <g>
       <use xlink:href="#m1237e110f5" x="162" y="315.738824" style="stroke: #000000; stroke-width: 0.8"/>
      </g>
     </g>
     <g id="text_11">
      <!-- 40 -->
      <g transform="translate(142.275 319.538043) scale(0.1 -0.1)">
       <use xlink:href="#DejaVuSans-34"/>
       <use xlink:href="#DejaVuSans-30" x="63.623047"/>
      </g>
     </g>
    </g>
    <g id="ytick_6">
     <g id="line2d_12">
      <g>
       <use xlink:href="#m1237e110f5" x="162" y="209.99353" style="stroke: #000000; stroke-width: 0.8"/>
      </g>
     </g>
     <g id="text_12">
      <!-- 50 -->
      <g transform="translate(142.275 213.792749) scale(0.1 -0.1)">
       <use xlink:href="#DejaVuSans-35"/>
       <use xlink:href="#DejaVuSans-30" x="63.623047"/>
      </g>
     </g>
    </g>
    <g id="ytick_7">
     <g id="line2d_13">
      <g>
       <use xlink:href="#m1237e110f5" x="162" y="104.248236" style="stroke: #000000; stroke-width: 0.8"/>
      </g>
     </g>
     <g id="text_13">
      <!-- 60 -->
      <g transform="translate(142.275 108.047455) scale(0.1 -0.1)">
       <defs>
        <path id="DejaVuSans-36" d="M 2113 2584 
Q 1688 2584 1439 2293 
Q 1191 2003 1191 1497 
Q 1191 994 1439 701 
Q 1688 409 2113 409 
Q 2538 409 2786 701 
Q 3034 994 3034 1497 
Q 3034 2003 2786 2293 
Q 2538 2584 2113 2584 
z
M 3366 4563 
L 3366 3988 
Q 3128 4100 2886 4159 
Q 2644 4219 2406 4219 
Q 1781 4219 1451 3797 
Q 1122 3375 1075 2522 
Q 1259 2794 1537 2939 
Q 1816 3084 2150 3084 
Q 2853 3084 3261 2657 
Q 3669 2231 3669 1497 
Q 3669 778 3244 343 
Q 2819 -91 2113 -91 
Q 1303 -91 875 529 
Q 447 1150 447 2328 
Q 447 3434 972 4092 
Q 1497 4750 2381 4750 
Q 2619 4750 2861 4703 
Q 3103 4656 3366 4563 
z
" transform="scale(0.015625)"/>
       </defs>
       <use xlink:href="#DejaVuSans-36"/>
       <use xlink:href="#DejaVuSans-30" x="63.623047"/>
      </g>
     </g>
    </g>
   </g>
   <g id="line2d_14">
    <path d="M 207.654545 717.570941 
L 209.484387 706.996412 
L 211.314228 728.145471 
L 213.14407 728.145471 
L 214.973911 717.570941 
L 216.803753 728.145471 
L 218.633594 643.549235 
L 220.463436 738.72 
L 222.293277 495.505824 
L 224.123119 696.421882 
L 225.95296 685.847353 
L 227.782802 738.72 
L 229.612643 738.72 
L 231.442485 622.400177 
L 233.272326 696.421882 
L 235.102168 738.72 
L 236.932009 738.72 
L 240.591692 463.782236 
L 242.421534 495.505824 
L 244.251375 379.186 
L 246.081217 379.186 
L 247.911058 410.909589 
L 249.7409 199.419001 
L 260.719949 199.419001 
L 262.54979 284.015236 
L 264.379632 326.313353 
L 266.209473 347.462412 
L 268.039315 199.419001 
L 273.528839 199.419001 
L 275.358681 326.313353 
L 277.188522 284.015236 
L 279.018364 199.419001 
L 280.848206 379.186 
L 282.678047 199.419001 
L 293.657096 199.419001 
L 295.486938 294.589765 
L 297.316779 199.419001 
L 299.146621 199.419001 
L 300.976462 241.717118 
L 302.806304 199.419001 
L 304.636145 432.058647 
L 306.465987 199.419001 
L 315.615194 199.419001 
L 317.445036 611.825647 
L 319.274877 199.419001 
L 321.104719 252.291648 
L 322.93456 231.142589 
L 324.764402 474.356765 
L 326.594243 590.676588 
L 328.424085 601.251118 
L 330.253926 432.058647 
L 332.083768 611.825647 
L 333.913609 484.931294 
L 335.743451 622.400177 
L 337.573292 632.974706 
L 339.403134 632.974706 
L 341.232975 410.909589 
L 343.062817 537.803941 
L 344.892658 453.207706 
L 346.7225 569.52753 
L 348.552341 696.421882 
L 350.382183 537.803941 
L 352.212024 569.52753 
L 354.041866 664.698294 
L 355.871707 558.953 
L 357.701549 643.549235 
L 359.53139 569.52753 
L 361.361232 728.145471 
L 363.191073 558.953 
L 365.020915 463.782236 
L 366.850756 442.633177 
L 368.680598 580.102059 
L 370.510439 622.400177 
L 372.340281 537.803941 
L 374.170122 336.887883 
L 375.999964 601.251118 
L 377.829805 654.123765 
L 379.659647 389.76053 
L 381.489488 474.356765 
L 383.31933 273.440707 
L 385.149171 495.505824 
L 386.979013 590.676588 
L 388.808854 601.251118 
L 390.638696 442.633177 
L 392.468537 632.974706 
L 394.298379 484.931294 
L 396.12822 590.676588 
L 397.958062 516.654883 
L 399.787903 527.229412 
L 401.617745 442.633177 
L 403.447586 632.974706 
L 405.277428 506.080353 
L 407.107269 368.611471 
L 408.937111 664.698294 
L 410.766952 548.378471 
L 412.596794 696.421882 
L 414.426635 675.272824 
L 416.256477 643.549235 
L 418.086318 632.974706 
L 419.91616 717.570941 
L 421.746001 537.803941 
L 423.575843 453.207706 
L 425.405684 675.272824 
L 427.235526 706.996412 
L 429.065367 442.633177 
L 432.72505 696.421882 
L 434.554892 654.123765 
L 436.384733 548.378471 
L 438.214575 738.72 
L 440.044416 580.102059 
L 441.874258 601.251118 
L 443.704099 580.102059 
L 445.533941 601.251118 
L 447.363782 580.102059 
L 449.193624 622.400177 
L 451.023465 696.421882 
L 452.853307 611.825647 
L 454.683148 664.698294 
L 456.51299 685.847353 
L 458.342831 728.145471 
L 460.172673 632.974706 
L 462.002514 643.549235 
L 463.832356 717.570941 
L 465.662197 537.803941 
L 467.492039 527.229412 
L 469.32188 548.378471 
L 471.151722 548.378471 
L 472.981563 643.549235 
L 474.811405 717.570941 
L 476.641246 728.145471 
L 478.471088 706.996412 
L 480.300929 569.52753 
L 482.130771 548.378471 
L 483.960612 516.654883 
L 485.790454 442.633177 
L 487.620295 706.996412 
L 489.450137 717.570941 
L 491.279978 664.698294 
L 493.10982 590.676588 
L 494.939661 643.549235 
L 496.769503 717.570941 
L 498.599344 537.803941 
L 500.429186 643.549235 
L 502.259027 432.058647 
L 504.088869 685.847353 
L 505.91871 506.080353 
L 507.748552 495.505824 
L 509.578393 706.996412 
L 511.408235 569.52753 
L 513.238076 611.825647 
L 515.067918 611.825647 
L 516.897759 685.847353 
L 518.727601 675.272824 
L 520.557442 643.549235 
L 522.387284 675.272824 
L 524.217125 400.335059 
L 526.046967 569.52753 
L 527.876808 548.378471 
L 529.70665 654.123765 
L 531.536491 537.803941 
L 533.366333 516.654883 
L 535.196174 643.549235 
L 537.026016 675.272824 
L 538.855857 717.570941 
L 540.685699 717.570941 
L 542.51554 685.847353 
L 544.345382 632.974706 
L 546.175223 632.974706 
L 548.005065 580.102059 
L 549.834906 717.570941 
L 551.664748 717.570941 
L 553.494589 675.272824 
L 555.324431 728.145471 
L 557.154272 738.72 
L 558.984114 738.72 
L 560.813955 728.145471 
L 562.643797 738.72 
L 564.473638 738.72 
L 566.30348 728.145471 
L 568.133321 706.996412 
L 569.963163 738.72 
L 571.793004 685.847353 
L 573.622846 738.72 
L 575.452687 601.251118 
L 577.282529 717.570941 
L 579.11237 738.72 
L 580.942212 685.847353 
L 582.772053 706.996412 
L 584.601895 516.654883 
L 586.431736 728.145471 
L 588.261578 643.549235 
L 590.091419 654.123765 
L 591.921261 632.974706 
L 593.751102 305.164295 
L 595.580944 685.847353 
L 597.410785 527.229412 
L 599.240627 379.186 
L 601.070468 199.419001 
L 602.90031 432.058647 
L 604.730151 199.419001 
L 623.028566 199.419001 
L 624.858408 347.462412 
L 626.688249 199.419001 
L 628.518091 199.419001 
L 630.347932 305.164295 
L 632.177774 199.419001 
L 635.837457 199.419001 
L 637.667298 262.866177 
L 639.49714 294.589765 
L 641.326981 199.419001 
L 648.646347 199.419001 
L 650.476189 305.164295 
L 652.30603 199.419001 
L 654.135872 495.505824 
L 655.965713 199.419001 
L 661.455238 199.419001 
L 663.285079 273.440707 
L 665.114921 209.99353 
L 666.944762 199.419001 
L 668.774604 220.56806 
L 670.604445 199.419001 
L 672.434287 199.419001 
L 674.264128 220.56806 
L 676.09397 326.313353 
L 677.923811 442.633177 
L 679.753653 421.484118 
L 681.583494 432.058647 
L 683.413336 463.782236 
L 685.243177 685.847353 
L 687.073019 601.251118 
L 688.90286 569.52753 
L 690.732702 432.058647 
L 692.562543 537.803941 
L 694.392385 463.782236 
L 696.222226 516.654883 
L 698.052068 389.76053 
L 701.711751 601.251118 
L 703.541592 558.953 
L 705.371434 590.676588 
L 707.201275 474.356765 
L 709.031117 527.229412 
L 710.860958 728.145471 
L 712.6908 611.825647 
L 714.520641 738.72 
L 716.350483 654.123765 
L 718.180324 643.549235 
L 720.010166 611.825647 
L 721.840007 696.421882 
L 723.669849 675.272824 
L 725.49969 728.145471 
L 727.329532 632.974706 
L 729.159373 696.421882 
L 730.989215 728.145471 
L 732.819056 717.570941 
L 734.648898 685.847353 
L 736.478739 696.421882 
L 738.308581 580.102059 
L 740.138422 643.549235 
L 741.968264 548.378471 
L 743.798105 643.549235 
L 745.627947 696.421882 
L 747.457788 728.145471 
L 749.28763 738.72 
L 751.117471 601.251118 
L 752.947313 728.145471 
L 754.777154 728.145471 
L 756.606996 611.825647 
L 758.436837 643.549235 
L 760.266679 664.698294 
L 762.09652 728.145471 
L 763.926362 622.400177 
L 765.756203 273.440707 
L 767.586045 537.803941 
L 769.415886 400.335059 
L 771.245728 474.356765 
L 773.075569 527.229412 
L 774.905411 220.56806 
L 776.735252 199.419001 
L 782.224777 199.419001 
L 784.054618 601.251118 
L 785.88446 199.419001 
L 798.69335 199.419001 
L 800.523192 506.080353 
L 802.353033 199.419001 
L 804.182875 199.419001 
L 806.012716 358.036942 
L 807.842558 506.080353 
L 809.672399 463.782236 
L 811.502241 199.419001 
L 826.140973 199.419001 
L 827.970814 442.633177 
L 829.800656 294.589765 
L 831.630497 199.419001 
L 833.460339 199.419001 
L 835.29018 548.378471 
L 837.120022 199.419001 
L 844.439388 199.419001 
L 846.269229 273.440707 
L 848.099071 336.887883 
L 851.758754 442.633177 
L 853.588595 241.717118 
L 855.418437 315.738824 
L 857.248278 664.698294 
L 859.07812 611.825647 
L 860.907961 527.229412 
L 862.737803 632.974706 
L 864.567644 601.251118 
L 866.397486 527.229412 
L 868.227327 569.52753 
L 870.057169 685.847353 
L 871.88701 580.102059 
L 873.716852 379.186 
L 875.546693 632.974706 
L 877.376535 453.207706 
L 879.206376 548.378471 
L 881.036218 654.123765 
L 882.866059 632.974706 
L 884.695901 506.080353 
L 886.525742 717.570941 
L 888.355584 685.847353 
L 890.185425 558.953 
L 892.015267 675.272824 
L 893.845108 516.654883 
L 895.67495 685.847353 
L 897.504791 643.549235 
L 899.334633 632.974706 
L 901.164474 675.272824 
L 902.994316 654.123765 
L 904.824157 611.825647 
L 906.653999 601.251118 
L 908.48384 675.272824 
L 910.313682 421.484118 
L 912.143523 611.825647 
L 913.973365 738.72 
L 915.803206 506.080353 
L 917.633048 643.549235 
L 919.462889 706.996412 
L 921.292731 590.676588 
L 923.122572 601.251118 
L 924.952414 696.421882 
L 926.782255 706.996412 
L 928.612097 706.996412 
L 930.441938 738.72 
L 932.27178 537.803941 
L 934.101621 685.847353 
L 935.931463 728.145471 
L 937.761304 622.400177 
L 939.591146 262.866177 
L 941.420987 527.229412 
L 943.250829 315.738824 
L 945.08067 432.058647 
L 946.910512 199.419001 
L 948.740353 537.803941 
L 950.570195 199.419001 
L 954.229878 199.419001 
L 956.059719 241.717118 
L 957.889561 231.142589 
L 959.719402 199.419001 
L 968.86861 199.419001 
L 970.698451 209.99353 
L 972.528293 305.164295 
L 974.358134 432.058647 
L 976.187976 294.589765 
L 978.017817 484.931294 
L 979.847659 273.440707 
L 981.6775 199.419001 
L 983.507342 379.186 
L 985.337183 432.058647 
L 987.167025 368.611471 
L 988.996866 199.419001 
L 1007.295281 199.419001 
L 1009.125123 294.589765 
L 1010.954964 199.419001 
L 1012.784806 231.142589 
L 1014.614647 442.633177 
L 1016.444489 231.142589 
L 1018.27433 199.419001 
L 1021.934013 199.419001 
L 1023.763855 379.186 
L 1025.593696 379.186 
L 1027.423538 495.505824 
L 1029.253379 358.036942 
L 1031.083221 347.462412 
L 1032.913062 199.419001 
L 1034.742904 199.419001 
L 1036.572745 506.080353 
L 1038.402587 209.99353 
L 1040.232428 358.036942 
L 1042.06227 241.717118 
L 1043.892111 421.484118 
L 1045.721953 358.036942 
L 1047.551794 569.52753 
L 1049.381636 463.782236 
L 1051.211478 569.52753 
L 1053.041319 632.974706 
L 1054.871161 516.654883 
L 1056.701002 442.633177 
L 1058.530844 685.847353 
L 1060.360685 347.462412 
L 1062.190527 484.931294 
L 1064.020368 580.102059 
L 1065.85021 358.036942 
L 1067.680051 389.76053 
L 1069.509893 453.207706 
L 1071.339734 347.462412 
L 1073.169576 453.207706 
L 1074.999417 432.058647 
L 1076.829259 358.036942 
L 1078.6591 199.419001 
L 1080.488942 273.440707 
L 1082.318783 379.186 
L 1084.148625 389.76053 
L 1085.978466 506.080353 
L 1087.808308 421.484118 
L 1089.638149 315.738824 
L 1091.467991 389.76053 
L 1093.297832 326.313353 
L 1095.127674 601.251118 
L 1096.957515 495.505824 
L 1098.787357 548.378471 
L 1100.617198 696.421882 
L 1102.44704 622.400177 
L 1106.106723 664.698294 
L 1107.936564 632.974706 
L 1109.766406 643.549235 
L 1111.596247 675.272824 
L 1113.426089 654.123765 
L 1115.25593 611.825647 
L 1117.085772 654.123765 
L 1118.915613 611.825647 
L 1120.745455 611.825647 
L 1120.745455 611.825647 
" clip-path="url(#pb4213fd413)" style="fill: none; stroke: #4169e1; stroke-linecap: square"/>
   </g>
   <g id="line2d_15">
    <path d="M 207.654545 682.144272 
L 209.484387 682.162233 
L 211.314228 689.957582 
L 213.14407 689.308281 
L 214.973911 694.75381 
L 216.803753 695.542798 
L 218.633594 697.498904 
L 220.463436 675.661169 
L 222.293277 677.36121 
L 224.123119 623.348346 
L 225.95296 627.40025 
L 227.782802 642.833699 
L 229.612643 647.662938 
L 231.442485 679.663567 
L 233.272326 648.195207 
L 235.102168 646.597595 
L 236.932009 647.943625 
L 238.761851 646.095127 
L 240.591692 623.504104 
L 242.421534 488.129522 
L 246.081217 271.841078 
L 247.911058 243.409324 
L 249.7409 253.235128 
L 251.570741 218.368434 
L 253.400583 211.048466 
L 255.230424 206.871724 
L 257.060266 186.133191 
L 258.890107 184.307868 
L 260.719949 183.15382 
L 262.54979 183.504242 
L 264.379632 197.137569 
L 266.209473 208.895795 
L 268.039315 222.695075 
L 269.869156 208.834279 
L 271.698998 231.77768 
L 275.358681 216.958075 
L 277.188522 223.404511 
L 279.018364 227.117722 
L 280.848206 224.350008 
L 282.678047 244.037275 
L 284.507889 232.063641 
L 286.33773 221.19827 
L 288.167572 220.739579 
L 289.997413 206.964825 
L 291.827255 205.35132 
L 293.657096 206.185523 
L 295.486938 207.501732 
L 297.316779 223.313184 
L 299.146621 216.674696 
L 300.976462 190.682904 
L 302.806304 198.529695 
L 304.636145 195.673317 
L 306.465987 235.818844 
L 308.295828 216.012174 
L 310.12567 203.801228 
L 311.955511 223.891115 
L 313.785353 189.154796 
L 315.615194 182.295293 
L 317.445036 184.832754 
L 319.274877 317.661645 
L 321.104719 288.857485 
L 322.93456 310.27766 
L 324.764402 346.447896 
L 326.594243 315.856936 
L 328.424085 410.079601 
L 330.253926 497.283224 
L 332.083768 533.807654 
L 333.913609 576.662404 
L 335.743451 561.684087 
L 337.573292 572.134081 
L 339.403134 601.06668 
L 341.232975 599.377701 
L 343.062817 578.428107 
L 344.892658 579.10392 
L 346.7225 556.036497 
L 348.552341 553.587418 
L 350.382183 604.028614 
L 352.212024 588.099757 
L 354.041866 596.091807 
L 355.871707 612.91477 
L 357.701549 583.076922 
L 359.53139 598.008608 
L 361.361232 590.664184 
L 363.191073 610.891949 
L 365.020915 598.275176 
L 366.850756 572.067048 
L 368.680598 558.721537 
L 370.510439 540.199753 
L 372.340281 545.993147 
L 374.170122 577.31351 
L 375.999964 570.24584 
L 377.829805 593.190431 
L 379.659647 573.197286 
L 381.489488 535.353108 
L 383.31933 575.055576 
L 385.149171 438.371562 
L 386.979013 417.72841 
L 388.808854 476.686865 
L 390.638696 524.406575 
L 392.468537 541.246077 
L 394.298379 592.938315 
L 396.12822 553.929732 
L 397.958062 559.662698 
L 399.787903 555.054433 
L 401.617745 518.829417 
L 403.447586 506.274543 
L 405.277428 551.958907 
L 407.107269 523.586531 
L 408.937111 445.327959 
L 410.766952 552.915719 
L 412.596794 510.069622 
L 414.426635 570.390454 
L 416.256477 590.525641 
L 418.086318 536.523916 
L 419.91616 500.724452 
L 421.746001 496.695228 
L 423.575843 438.215391 
L 425.405684 397.983196 
L 427.235526 443.86772 
L 429.065367 486.024955 
L 430.895209 444.006647 
L 432.72505 453.348407 
L 434.554892 479.141269 
L 436.384733 473.873206 
L 438.214575 452.098858 
L 440.044416 527.921724 
L 441.874258 493.990927 
L 443.704099 488.818224 
L 445.533941 484.936619 
L 447.363782 448.63385 
L 449.193624 445.557264 
L 451.023465 450.187049 
L 452.853307 470.067619 
L 454.683148 484.1386 
L 456.51299 514.991257 
L 458.342831 538.576406 
L 460.172673 548.714713 
L 462.002514 549.903654 
L 463.832356 539.857783 
L 465.662197 545.811845 
L 467.492039 494.249739 
L 469.32188 474.443775 
L 471.151722 460.331084 
L 472.981563 425.618323 
L 474.811405 451.706202 
L 476.641246 488.420828 
L 478.471088 567.284077 
L 480.300929 635.918992 
L 482.130771 610.249819 
L 483.960612 572.27455 
L 485.790454 521.44334 
L 487.620295 451.308806 
L 489.450137 517.564902 
L 491.279978 560.40267 
L 493.10982 591.991628 
L 494.939661 611.036805 
L 496.769503 607.775286 
L 498.599344 613.704923 
L 500.429186 585.200771 
L 502.259027 600.916307 
L 504.088869 553.984713 
L 505.91871 566.867721 
L 507.748552 552.786959 
L 509.578393 525.368773 
L 511.408235 592.337612 
L 513.238076 565.065634 
L 516.897759 595.397761 
L 518.727601 597.858478 
L 520.557442 610.657299 
L 522.387284 613.578704 
L 524.217125 625.397851 
L 526.046967 588.630069 
L 527.876808 588.289217 
L 529.70665 575.228921 
L 531.536491 578.41304 
L 533.366333 577.393582 
L 535.196174 561.19611 
L 537.026016 587.819726 
L 538.855857 594.02411 
L 540.685699 614.535021 
L 542.51554 651.36427 
L 544.345382 669.816979 
L 546.175223 682.399464 
L 548.005065 668.200912 
L 549.834906 648.81737 
L 551.664748 658.056287 
L 553.494589 673.22706 
L 555.324431 684.310209 
L 557.154272 705.856394 
L 558.984114 705.659388 
L 560.813955 705.802802 
L 562.643797 709.791233 
L 564.473638 708.022531 
L 566.30348 705.342528 
L 568.133321 702.961049 
L 569.963163 699.172195 
L 571.793004 697.600375 
L 573.622846 688.185133 
L 575.452687 689.770738 
L 577.282529 667.640826 
L 579.11237 671.974455 
L 580.942212 680.719053 
L 582.772053 665.735975 
L 584.601895 672.96671 
L 586.431736 624.984118 
L 588.261578 634.584419 
L 590.091419 612.546801 
L 591.921261 586.018354 
L 593.751102 556.492949 
L 595.580944 359.494497 
L 597.410785 443.405359 
L 601.070468 353.5934 
L 602.90031 293.173637 
L 604.730151 278.695418 
L 606.559993 230.580147 
L 608.389834 208.47829 
L 610.219676 213.644216 
L 612.049517 195.679247 
L 613.879359 197.151284 
L 617.539042 197.594323 
L 619.368883 198.325784 
L 621.198725 200.79959 
L 623.028566 224.723826 
L 624.858408 225.24613 
L 626.688249 241.132652 
L 628.518091 235.338976 
L 630.347932 235.763903 
L 632.177774 248.072752 
L 634.007615 234.15895 
L 635.837457 236.795483 
L 637.667298 236.73078 
L 639.49714 234.285452 
L 641.326981 239.097608 
L 643.156823 233.352863 
L 644.986664 236.435622 
L 646.816506 233.970569 
L 648.646347 227.983832 
L 650.476189 230.492129 
L 652.30603 219.886296 
L 654.135872 228.262572 
L 655.965713 345.044394 
L 657.795555 255.693283 
L 659.625396 233.095987 
L 661.455238 256.967419 
L 663.285079 213.541676 
L 665.114921 235.380242 
L 666.944762 216.669452 
L 668.774604 215.576921 
L 670.604445 229.02235 
L 672.434287 223.045093 
L 674.264128 227.352775 
L 676.09397 237.923795 
L 677.923811 269.167434 
L 679.753653 328.433148 
L 683.413336 424.591826 
L 685.243177 462.781253 
L 687.073019 543.798625 
L 688.90286 557.694576 
L 690.732702 566.509232 
L 692.562543 552.226756 
L 694.392385 540.289366 
L 696.222226 515.776247 
L 698.052068 516.38173 
L 699.881909 504.801074 
L 701.711751 518.837061 
L 703.541592 542.443469 
L 705.371434 534.072901 
L 707.201275 555.954892 
L 709.031117 537.835748 
L 710.860958 525.49475 
L 712.6908 573.250543 
L 714.520641 563.444707 
L 716.350483 598.543055 
L 718.180324 620.541272 
L 720.010166 617.324851 
L 721.840007 628.705518 
L 723.669849 630.807221 
L 725.49969 634.576109 
L 727.329532 655.208496 
L 729.159373 655.705639 
L 730.989215 657.8375 
L 732.819056 665.407765 
L 734.648898 666.058805 
L 736.478739 666.834487 
L 738.308581 662.444383 
L 740.138422 626.778673 
L 741.968264 621.101101 
L 743.798105 585.031308 
L 745.627947 583.382517 
L 747.457788 614.29665 
L 749.28763 632.499709 
L 751.117471 662.05445 
L 752.947313 646.007068 
L 754.777154 656.422936 
L 756.606996 659.790051 
L 758.436837 634.883661 
L 760.266679 626.346273 
L 762.09652 620.643167 
L 763.926362 628.0911 
L 765.756203 613.551788 
L 767.586045 488.79154 
L 769.415886 413.979822 
L 771.245728 330.995781 
L 773.075569 327.903018 
L 774.905411 339.220988 
L 776.735252 278.82426 
L 778.565094 237.521941 
L 780.394935 214.990437 
L 782.224777 196.273112 
L 784.054618 191.602464 
L 785.88446 277.05178 
L 787.714301 224.771385 
L 789.544143 206.82364 
L 791.373984 215.911933 
L 793.203826 189.656004 
L 795.033667 190.133654 
L 796.863509 192.426098 
L 798.69335 217.158921 
L 800.523192 218.372791 
L 802.353033 249.971007 
L 804.182875 237.997453 
L 806.012716 235.511141 
L 807.842558 257.441317 
L 809.672399 259.592254 
L 811.502241 290.826212 
L 813.332082 279.250114 
L 815.161924 264.930587 
L 816.991765 235.748736 
L 818.821607 212.392589 
L 820.651448 213.602708 
L 822.48129 214.392659 
L 824.311131 215.80193 
L 826.140973 218.349072 
L 827.970814 195.376989 
L 829.800656 274.035419 
L 831.630497 294.470928 
L 833.460339 233.764116 
L 835.29018 258.194157 
L 837.120022 319.994509 
L 838.949863 252.661755 
L 840.779705 251.358535 
L 842.609546 274.786161 
L 844.439388 207.801368 
L 846.269229 210.673155 
L 848.099071 236.710368 
L 849.928912 269.068241 
L 851.758754 308.963588 
L 853.588595 361.224863 
L 855.418437 325.946353 
L 857.248278 360.830392 
L 859.07812 469.887709 
L 860.907961 489.791595 
L 862.737803 511.707047 
L 864.567644 563.761183 
L 866.397486 552.11175 
L 868.227327 529.814352 
L 870.057169 541.278711 
L 871.88701 566.565041 
L 873.716852 555.287026 
L 875.546693 529.149047 
L 877.376535 568.783484 
L 879.206376 527.307972 
L 881.036218 529.111975 
L 882.866059 572.533413 
L 884.695901 565.475817 
L 886.525742 547.079789 
L 888.355584 589.735952 
L 890.185425 594.607104 
L 892.015267 569.722184 
L 893.845108 608.163817 
L 895.67495 581.7973 
L 897.504791 611.973256 
L 901.164474 606.687 
L 902.994316 633.485353 
L 904.824157 626.860741 
L 906.653999 615.707504 
L 908.48384 613.150539 
L 910.313682 617.556839 
L 912.143523 548.23061 
L 913.973365 571.298032 
L 915.803206 604.657271 
L 917.633048 556.783508 
L 919.462889 598.868285 
L 921.292731 613.810388 
L 923.122572 582.726036 
L 924.952414 595.771034 
L 926.782255 614.166296 
L 928.612097 616.166386 
L 930.441938 634.715126 
L 932.27178 654.978192 
L 934.101621 620.509414 
L 935.931463 616.751155 
L 937.761304 627.058098 
L 939.591146 600.757514 
L 941.420987 498.934345 
L 943.250829 495.120086 
L 945.08067 320.965379 
L 946.910512 317.747567 
L 948.740353 273.365838 
L 950.570195 301.499329 
L 952.400036 246.483289 
L 954.229878 220.577902 
L 956.059719 220.836594 
L 957.889561 203.026404 
L 959.719402 201.926208 
L 961.549244 199.220091 
L 963.379085 198.757205 
L 965.208927 196.023456 
L 967.038768 193.95352 
L 968.86861 193.868284 
L 970.698451 194.305071 
L 972.528293 198.235909 
L 974.358134 229.118921 
L 976.187976 256.708687 
L 978.017817 270.484087 
L 979.847659 299.331208 
L 981.6775 293.72664 
L 983.507342 258.383466 
L 985.337183 279.39376 
L 987.167025 270.18312 
L 988.996866 280.040631 
L 990.826708 273.772532 
L 992.656549 254.165377 
L 994.486391 231.634115 
L 996.316232 218.45254 
L 998.146074 218.865729 
L 999.975915 219.997389 
L 1001.805757 222.472648 
L 1003.635598 201.811122 
L 1005.46544 229.872487 
L 1007.295281 256.124019 
L 1009.125123 203.09026 
L 1010.954964 232.123503 
L 1012.784806 223.848679 
L 1014.614647 234.447008 
L 1016.444489 306.529959 
L 1018.27433 254.40156 
L 1020.104172 254.716604 
L 1021.934013 271.135677 
L 1023.763855 230.016294 
L 1025.593696 280.078145 
L 1027.423538 307.804176 
L 1029.253379 376.232648 
L 1031.083221 378.92985 
L 1032.913062 387.155502 
L 1034.742904 364.012383 
L 1036.572745 339.297914 
L 1038.402587 412.750906 
L 1040.232428 347.872535 
L 1042.06227 385.185726 
L 1043.892111 387.034566 
L 1045.721953 392.714407 
L 1047.551794 409.371739 
L 1049.381636 471.862769 
L 1051.211478 484.890089 
L 1053.041319 522.669412 
L 1054.871161 553.003012 
L 1056.701002 524.449596 
L 1058.530844 509.447479 
L 1060.360685 555.748762 
L 1062.190527 474.091075 
L 1064.020368 484.959753 
L 1065.85021 515.477317 
L 1067.680051 442.025697 
L 1069.509893 437.638428 
L 1071.339734 440.952912 
L 1073.169576 367.08179 
L 1074.999417 365.275588 
L 1076.829259 370.541311 
L 1080.488942 313.323831 
L 1082.318783 303.761035 
L 1084.148625 315.060127 
L 1085.978466 315.460044 
L 1087.808308 382.313132 
L 1089.638149 385.386249 
L 1091.467991 373.27974 
L 1093.297832 394.287774 
L 1095.127674 374.74859 
L 1096.957515 440.087063 
L 1098.787357 437.522252 
L 1100.617198 460.072453 
L 1102.44704 542.26023 
L 1104.276881 531.566561 
L 1106.106723 561.502825 
L 1107.936564 586.97317 
L 1109.766406 570.681618 
L 1111.596247 577.311029 
L 1113.426089 590.64098 
L 1115.25593 586.292677 
L 1117.085772 576.283746 
L 1118.915613 583.393378 
L 1120.745455 549.275219 
L 1120.745455 549.275219 
" clip-path="url(#pb4213fd413)" style="fill: none; stroke: #ff6347; stroke-linecap: square"/>
   </g>
   <g id="line2d_16">
    <path d="M 207.654545 738.72 
L 244.251375 738.72 
L 246.081217 297.142232 
L 247.911058 271.62208 
L 249.7409 328.78954 
L 251.570741 209.261465 
L 253.400583 222.306977 
L 255.230424 230.90443 
L 257.060266 201.728912 
L 258.890107 195.049601 
L 260.719949 185.992732 
L 262.54979 205.641073 
L 264.379632 231.232625 
L 266.209473 286.754309 
L 268.039315 309.43906 
L 269.869156 300.429266 
L 271.698998 277.607001 
L 273.528839 285.720632 
L 275.358681 266.965106 
L 279.018364 312.953765 
L 280.848206 281.408796 
L 282.678047 350.517176 
L 284.507889 276.937824 
L 286.33773 260.230048 
L 288.167572 215.334526 
L 289.997413 204.875123 
L 291.827255 196.84588 
L 293.657096 205.077623 
L 295.486938 207.093465 
L 297.316779 210.942133 
L 299.146621 232.478483 
L 300.976462 199.283463 
L 302.806304 254.548594 
L 304.636145 222.745095 
L 306.465987 296.793263 
L 308.295828 253.255741 
L 310.12567 274.326744 
L 311.955511 289.538401 
L 313.785353 282.909635 
L 315.615194 256.953583 
L 317.445036 224.210476 
L 319.274877 341.975955 
L 321.104719 304.93259 
L 322.93456 349.585192 
L 324.764402 371.765347 
L 326.594243 377.185164 
L 328.424085 645.189162 
L 330.253926 738.72 
L 385.149171 738.72 
L 386.979013 299.288489 
L 388.808854 714.325053 
L 390.638696 738.72 
L 408.937111 738.72 
L 410.766952 729.356315 
L 412.596794 672.097145 
L 414.426635 738.72 
L 423.575843 738.72 
L 425.405684 565.953426 
L 427.235526 738.72 
L 485.790454 738.72 
L 487.620295 727.11736 
L 489.450137 738.72 
L 593.751102 738.72 
L 595.580944 339.666569 
L 597.410785 417.797752 
L 599.240627 595.421702 
L 601.070468 153.656561 
L 602.90031 157.554322 
L 604.730151 266.348974 
L 606.559993 236.626262 
L 608.389834 233.391104 
L 610.219676 241.426761 
L 612.049517 196.920668 
L 613.879359 210.902763 
L 615.7092 217.098453 
L 617.539042 228.290204 
L 619.368883 212.124378 
L 621.198725 223.367036 
L 623.028566 236.236067 
L 624.858408 237.925892 
L 626.688249 273.019087 
L 628.518091 240.649032 
L 630.347932 251.441309 
L 632.177774 334.80524 
L 634.007615 240.61063 
L 635.837457 226.328859 
L 637.667298 241.693076 
L 639.49714 221.547522 
L 641.326981 223.495918 
L 643.156823 191.973216 
L 644.986664 203.739147 
L 646.816506 209.79095 
L 648.646347 178.662517 
L 650.476189 195.821521 
L 652.30603 205.909688 
L 654.135872 234.875848 
L 655.965713 410.856463 
L 657.795555 241.893559 
L 659.625396 239.285425 
L 661.455238 235.300735 
L 663.285079 214.575998 
L 665.114921 257.146321 
L 666.944762 236.66648 
L 668.774604 222.939487 
L 670.604445 214.780394 
L 672.434287 215.730086 
L 674.264128 224.060175 
L 676.09397 257.610175 
L 677.923811 288.693428 
L 681.583494 544.852149 
L 683.413336 738.72 
L 765.756203 738.72 
L 767.586045 481.950794 
L 769.415886 487.228378 
L 773.075569 282.950094 
L 774.905411 441.512308 
L 776.735252 138.66951 
L 778.565094 197.838453 
L 780.394935 191.378907 
L 782.224777 210.083566 
L 784.054618 204.500135 
L 785.88446 260.328272 
L 787.714301 232.591835 
L 789.544143 216.486678 
L 791.373984 182.859429 
L 793.203826 232.385583 
L 795.033667 220.37629 
L 796.863509 219.860076 
L 798.69335 222.47648 
L 800.523192 237.632994 
L 802.353033 309.244265 
L 804.182875 258.080967 
L 806.012716 282.771435 
L 807.842558 325.966603 
L 809.672399 364.389227 
L 811.502241 416.170432 
L 813.332082 290.199591 
L 815.161924 133.92 
L 816.991765 186.023672 
L 818.821607 178.167361 
L 820.651448 191.933684 
L 822.48129 192.878939 
L 824.311131 187.044884 
L 826.140973 191.096859 
L 827.970814 158.645119 
L 829.800656 246.566991 
L 831.630497 270.795178 
L 833.460339 237.73626 
L 835.29018 312.213551 
L 837.120022 457.76464 
L 838.949863 264.727522 
L 840.779705 269.229233 
L 842.609546 271.319419 
L 844.439388 194.749764 
L 846.269229 207.089512 
L 848.099071 239.749803 
L 849.928912 316.752332 
L 851.758754 363.768496 
L 853.588595 465.481097 
L 855.418437 479.381587 
L 857.248278 503.110765 
L 859.07812 738.72 
L 939.591146 738.72 
L 941.420987 265.335385 
L 943.250829 599.509508 
L 945.08067 172.506923 
L 946.910512 224.152631 
L 948.740353 135.272272 
L 950.570195 222.094715 
L 952.400036 141.248117 
L 954.229878 187.58881 
L 956.059719 199.421098 
L 957.889561 233.279124 
L 959.719402 229.56317 
L 961.549244 204.736076 
L 963.379085 206.967972 
L 965.208927 215.701728 
L 967.038768 219.535391 
L 968.86861 224.075261 
L 970.698451 204.632526 
L 972.528293 212.423569 
L 974.358134 255.466903 
L 976.187976 317.048337 
L 978.017817 297.093947 
L 979.847659 499.795857 
L 981.6775 362.81961 
L 983.507342 282.841422 
L 985.337183 339.792062 
L 987.167025 386.136467 
L 988.996866 343.671912 
L 990.826708 198.84232 
L 992.656549 186.655697 
L 994.486391 197.214091 
L 996.316232 182.773346 
L 998.146074 184.170919 
L 999.975915 180.552987 
L 1001.805757 187.890785 
L 1003.635598 157.676628 
L 1005.46544 204.916107 
L 1007.295281 201.326978 
L 1009.125123 180.131005 
L 1010.954964 233.95766 
L 1012.784806 223.198501 
L 1014.614647 231.264654 
L 1016.444489 311.668576 
L 1018.27433 270.965004 
L 1020.104172 280.778464 
L 1021.934013 240.404782 
L 1023.763855 194.247831 
L 1025.593696 274.529607 
L 1027.423538 335.45086 
L 1029.253379 455.889136 
L 1031.083221 588.7911 
L 1032.913062 585.172302 
L 1034.742904 371.127391 
L 1036.572745 242.993594 
L 1038.402587 461.631279 
L 1040.232428 328.096886 
L 1042.06227 445.520959 
L 1043.892111 390.605382 
L 1045.721953 458.165909 
L 1047.551794 473.806284 
L 1049.381636 677.695703 
L 1051.211478 738.72 
L 1065.85021 738.72 
L 1067.680051 487.141932 
L 1069.509893 453.381485 
L 1071.339734 542.269206 
L 1073.169576 430.108638 
L 1074.999417 491.429404 
L 1076.829259 515.344603 
L 1078.6591 450.578676 
L 1080.488942 358.112375 
L 1082.318783 321.677638 
L 1084.148625 366.597605 
L 1085.978466 325.405129 
L 1087.808308 427.612665 
L 1089.638149 515.142083 
L 1091.467991 416.583237 
L 1093.297832 473.449933 
L 1095.127674 366.132138 
L 1096.957515 504.608598 
L 1098.787357 597.161275 
L 1100.617198 738.72 
L 1120.745455 738.72 
L 1120.745455 738.72 
" clip-path="url(#pb4213fd413)" style="fill: none; stroke: #da70d6; stroke-linecap: square"/>
   </g>
   <g id="line2d_17">
    <path d="M 207.654545 693.296314 
L 209.484387 684.110573 
L 211.314228 686.761542 
L 213.14407 672.643254 
L 214.973911 691.601825 
L 216.803753 706.373034 
L 218.633594 723.609692 
L 220.463436 724.343356 
L 222.293277 709.363745 
L 224.123119 690.935335 
L 225.95296 663.541039 
L 227.782802 676.920601 
L 229.612643 609.73056 
L 231.442485 667.157392 
L 233.272326 667.581997 
L 235.102168 696.927487 
L 236.932009 664.240496 
L 240.591692 548.188758 
L 242.421534 529.445919 
L 244.251375 384.068507 
L 246.081217 219.092634 
L 247.911058 213.621062 
L 249.7409 221.305934 
L 251.570741 187.617572 
L 253.400583 181.538702 
L 255.230424 177.323598 
L 257.060266 171.207011 
L 258.890107 170.042193 
L 260.719949 169.672207 
L 262.54979 169.596048 
L 266.209473 194.386959 
L 268.039315 201.463161 
L 269.869156 183.464952 
L 271.698998 179.466265 
L 273.528839 176.078707 
L 275.358681 171.251142 
L 277.188522 181.070128 
L 279.018364 186.280951 
L 280.848206 180.82729 
L 282.678047 197.477624 
L 284.507889 180.070013 
L 286.33773 174.734059 
L 288.167572 170.570508 
L 289.997413 167.819777 
L 291.827255 168.161122 
L 293.657096 170.730047 
L 295.486938 171.566307 
L 297.316779 180.208899 
L 300.976462 169.111339 
L 302.806304 178.694224 
L 304.636145 181.480695 
L 306.465987 206.036109 
L 308.295828 191.276205 
L 310.12567 185.464135 
L 311.955511 189.652091 
L 313.785353 184.827873 
L 315.615194 182.4581 
L 317.445036 181.753303 
L 319.274877 347.667696 
L 321.104719 243.185001 
L 322.93456 243.316505 
L 324.764402 279.096102 
L 326.594243 321.161546 
L 328.424085 458.77837 
L 330.253926 509.871196 
L 332.083768 474.189824 
L 333.913609 508.540425 
L 335.743451 517.829765 
L 337.573292 518.552876 
L 339.403134 577.733224 
L 341.232975 580.234541 
L 343.062817 536.291747 
L 344.892658 515.387685 
L 346.7225 501.891671 
L 348.552341 482.288408 
L 350.382183 584.770085 
L 352.212024 560.47532 
L 354.041866 576.839572 
L 355.871707 631.987791 
L 357.701549 588.740294 
L 359.53139 597.02493 
L 361.361232 560.117758 
L 363.191073 584.898887 
L 365.020915 592.778574 
L 366.850756 524.858812 
L 368.680598 565.619624 
L 370.510439 482.164811 
L 372.340281 430.166362 
L 374.170122 443.035131 
L 375.999964 402.051044 
L 377.829805 507.797286 
L 379.659647 463.244098 
L 381.489488 390.004982 
L 383.31933 487.329184 
L 385.149171 390.205949 
L 386.979013 347.077098 
L 388.808854 410.251303 
L 390.638696 463.904502 
L 392.468537 457.642616 
L 394.298379 531.88929 
L 396.12822 471.753572 
L 397.958062 494.528943 
L 399.787903 529.104735 
L 401.617745 460.139839 
L 403.447586 470.900693 
L 405.277428 499.751343 
L 407.107269 457.598546 
L 408.937111 390.051896 
L 410.766952 561.972246 
L 412.596794 447.79045 
L 414.426635 445.616158 
L 416.256477 499.365262 
L 418.086318 398.028012 
L 419.91616 367.280982 
L 421.746001 534.249503 
L 423.575843 551.18255 
L 425.405684 476.345439 
L 427.235526 593.782209 
L 429.065367 561.709863 
L 430.895209 376.316996 
L 432.72505 496.264977 
L 434.554892 608.204126 
L 436.384733 540.041787 
L 438.214575 484.437852 
L 440.044416 648.333629 
L 441.874258 509.435438 
L 443.704099 470.787865 
L 445.533941 517.65879 
L 447.363782 445.135644 
L 449.193624 470.938086 
L 451.023465 514.860802 
L 452.853307 600.292561 
L 454.683148 551.192594 
L 456.51299 574.460329 
L 458.342831 605.502093 
L 460.172673 616.563651 
L 462.002514 592.534576 
L 463.832356 532.438037 
L 465.662197 608.741719 
L 467.492039 510.439829 
L 469.32188 446.182351 
L 471.151722 520.582514 
L 472.981563 449.738181 
L 474.811405 462.185895 
L 478.471088 619.743343 
L 480.300929 650.975365 
L 482.130771 658.62311 
L 483.960612 638.297096 
L 485.790454 578.882532 
L 487.620295 450.556853 
L 489.450137 523.35168 
L 491.279978 565.566175 
L 493.10982 600.465715 
L 494.939661 630.955233 
L 496.769503 646.632589 
L 498.599344 634.16284 
L 500.429186 567.837422 
L 502.259027 626.324651 
L 504.088869 529.54132 
L 505.91871 515.619168 
L 507.748552 462.05661 
L 509.578393 454.975708 
L 511.408235 592.543511 
L 513.238076 500.379517 
L 515.067918 558.572204 
L 516.897759 573.188795 
L 518.727601 574.824355 
L 520.557442 596.486067 
L 522.387284 605.111393 
L 524.217125 624.661207 
L 526.046967 596.600891 
L 527.876808 604.898163 
L 529.70665 551.764374 
L 531.536491 538.014489 
L 533.366333 530.201603 
L 535.196174 488.765562 
L 537.026016 546.252484 
L 538.855857 569.005749 
L 540.685699 622.865533 
L 542.51554 663.327623 
L 544.345382 675.018176 
L 546.175223 673.820179 
L 548.005065 667.73603 
L 549.834906 618.119815 
L 551.664748 653.251513 
L 553.494589 667.235367 
L 555.324431 667.097873 
L 557.154272 711.452741 
L 558.984114 702.390749 
L 560.813955 690.159265 
L 562.643797 701.268906 
L 564.473638 706.73832 
L 566.30348 714.632842 
L 568.133321 723.876768 
L 569.963163 727.980581 
L 571.793004 718.218077 
L 573.622846 710.630847 
L 575.452687 699.747515 
L 577.282529 682.042271 
L 579.11237 684.729524 
L 580.942212 693.833766 
L 582.772053 656.794298 
L 584.601895 672.407697 
L 586.431736 665.471752 
L 588.261578 649.8193 
L 590.091419 575.103952 
L 591.921261 479.019628 
L 593.751102 417.049915 
L 595.580944 335.724477 
L 597.410785 366.522939 
L 599.240627 312.707053 
L 601.070468 237.717342 
L 602.90031 264.494688 
L 604.730151 213.820698 
L 606.559993 180.547017 
L 608.389834 171.438192 
L 610.219676 167.256932 
L 612.049517 164.673323 
L 613.879359 164.590911 
L 615.7092 167.657373 
L 617.539042 169.616862 
L 619.368883 170.560383 
L 621.198725 170.497737 
L 623.028566 172.229434 
L 624.858408 173.497277 
L 626.688249 186.084543 
L 628.518091 179.927174 
L 630.347932 179.902729 
L 632.177774 191.003959 
L 634.007615 182.796138 
L 635.837457 180.253876 
L 637.667298 175.741275 
L 639.49714 179.811241 
L 641.326981 186.472197 
L 643.156823 178.836095 
L 646.816506 179.808054 
L 648.646347 176.870555 
L 650.476189 175.170039 
L 652.30603 183.293594 
L 654.135872 179.903455 
L 655.965713 216.605515 
L 657.795555 193.768487 
L 659.625396 187.953673 
L 661.455238 202.502485 
L 663.285079 176.901212 
L 665.114921 188.12124 
L 666.944762 185.506773 
L 668.774604 184.368376 
L 670.604445 193.364294 
L 672.434287 193.650294 
L 674.264128 199.930616 
L 676.09397 208.647551 
L 677.923811 234.995049 
L 679.753653 281.675394 
L 681.583494 305.193581 
L 683.413336 333.47818 
L 685.243177 392.839537 
L 687.073019 506.871636 
L 688.90286 520.677067 
L 690.732702 521.440113 
L 692.562543 518.706929 
L 694.392385 493.952807 
L 696.222226 495.498664 
L 698.052068 461.894932 
L 699.881909 464.747963 
L 701.711751 425.928043 
L 703.541592 486.227596 
L 705.371434 479.772932 
L 707.201275 505.264041 
L 709.031117 512.51146 
L 710.860958 441.311421 
L 712.6908 514.915743 
L 714.520641 491.133984 
L 716.350483 616.008803 
L 718.180324 623.761414 
L 720.010166 612.5229 
L 721.840007 590.753121 
L 723.669849 592.732215 
L 727.329532 680.996129 
L 729.159373 702.736088 
L 730.989215 708.136664 
L 732.819056 709.453574 
L 734.648898 702.193675 
L 736.478739 693.065961 
L 738.308581 644.895749 
L 740.138422 610.887825 
L 741.968264 594.267644 
L 743.798105 560.225341 
L 745.627947 547.78033 
L 747.457788 629.473041 
L 749.28763 672.229461 
L 751.117471 705.192388 
L 752.947313 693.813254 
L 754.777154 688.975871 
L 756.606996 699.910276 
L 758.436837 678.794109 
L 760.266679 645.956887 
L 763.926362 664.98073 
L 765.756203 596.049089 
L 767.586045 456.638083 
L 769.415886 387.049895 
L 771.245728 287.445633 
L 773.075569 247.108416 
L 774.905411 316.411148 
L 776.735252 195.006802 
L 778.565094 180.03637 
L 780.394935 170.009277 
L 782.224777 166.009097 
L 784.054618 163.465746 
L 785.88446 220.201583 
L 787.714301 167.632323 
L 789.544143 166.954392 
L 791.373984 178.063771 
L 793.203826 166.019665 
L 795.033667 166.087192 
L 796.863509 165.889856 
L 798.69335 167.00187 
L 800.523192 167.948416 
L 802.353033 195.361298 
L 804.182875 178.137994 
L 806.012716 178.936699 
L 807.842558 210.793687 
L 809.672399 231.884941 
L 811.502241 287.668544 
L 813.332082 303.606457 
L 815.161924 257.6608 
L 816.991765 182.848901 
L 818.821607 164.834274 
L 820.651448 167.366532 
L 822.48129 168.884757 
L 824.311131 169.095082 
L 826.140973 170.09431 
L 827.970814 167.726272 
L 829.800656 195.382839 
L 831.630497 201.8085 
L 833.460339 190.747083 
L 835.29018 207.359418 
L 837.120022 295.048335 
L 838.949863 218.697759 
L 840.779705 217.417572 
L 842.609546 241.461775 
L 844.439388 184.514241 
L 846.269229 190.61449 
L 848.099071 213.150108 
L 849.928912 257.518929 
L 851.758754 296.687858 
L 853.588595 321.39071 
L 855.418437 338.148142 
L 857.248278 310.45039 
L 859.07812 407.305998 
L 860.907961 418.42643 
L 862.737803 488.055662 
L 864.567644 539.547216 
L 866.397486 497.566946 
L 868.227327 500.652972 
L 870.057169 493.187139 
L 871.88701 544.471049 
L 873.716852 516.175115 
L 875.546693 492.772418 
L 877.376535 550.232132 
L 879.206376 461.348304 
L 881.036218 462.511811 
L 882.866059 557.550103 
L 884.695901 540.387187 
L 886.525742 508.119128 
L 888.355584 555.734563 
L 890.185425 551.217604 
L 892.015267 564.979067 
L 893.845108 637.632981 
L 895.67495 557.57832 
L 897.504791 609.153021 
L 899.334633 592.116809 
L 901.164474 600.003737 
L 902.994316 643.670675 
L 904.824157 648.389397 
L 906.653999 642.06317 
L 908.48384 628.529107 
L 910.313682 635.50175 
L 912.143523 529.53422 
L 913.973365 511.029016 
L 915.803206 587.520504 
L 917.633048 508.433346 
L 919.462889 600.618588 
L 921.292731 653.854817 
L 923.122572 593.163465 
L 924.952414 587.083859 
L 926.782255 634.609802 
L 930.441938 674.253542 
L 932.27178 685.799804 
L 934.101621 656.435128 
L 935.931463 661.157304 
L 937.761304 676.09556 
L 939.591146 573.145693 
L 941.420987 527.729551 
L 943.250829 479.108938 
L 946.910512 246.169817 
L 948.740353 186.110803 
L 950.570195 203.604496 
L 952.400036 173.25347 
L 954.229878 172.414024 
L 957.889561 170.405846 
L 959.719402 168.894882 
L 961.549244 165.223623 
L 963.379085 163.394064 
L 965.208927 163.048362 
L 967.038768 165.259161 
L 968.86861 167.021636 
L 970.698451 167.511872 
L 972.528293 168.292908 
L 974.358134 177.134611 
L 976.187976 199.420332 
L 978.017817 197.461851 
L 979.847659 225.708088 
L 981.6775 218.696024 
L 983.507342 192.36446 
L 985.337183 211.52301 
L 987.167025 227.962493 
L 988.996866 223.581597 
L 990.826708 227.046403 
L 992.656549 192.363089 
L 994.486391 177.540418 
L 996.316232 175.210217 
L 998.146074 176.522553 
L 1001.805757 172.944396 
L 1003.635598 172.540969 
L 1005.46544 170.817098 
L 1007.295281 167.471089 
L 1009.125123 169.454782 
L 1010.954964 186.743474 
L 1012.784806 185.530451 
L 1014.614647 188.280578 
L 1016.444489 236.034616 
L 1018.27433 211.328779 
L 1020.104172 198.132319 
L 1021.934013 203.255567 
L 1023.763855 196.979764 
L 1025.593696 242.928124 
L 1027.423538 265.024737 
L 1029.253379 306.597486 
L 1031.083221 351.912529 
L 1032.913062 326.585922 
L 1034.742904 288.25531 
L 1036.572745 223.435007 
L 1038.402587 307.354521 
L 1040.232428 272.693111 
L 1042.06227 312.936863 
L 1043.892111 366.114268 
L 1045.721953 322.329632 
L 1047.551794 368.76028 
L 1049.381636 377.115177 
L 1051.211478 425.684801 
L 1053.041319 443.676717 
L 1054.871161 525.954913 
L 1056.701002 457.174345 
L 1058.530844 443.861871 
L 1060.360685 519.955611 
L 1062.190527 377.032724 
L 1064.020368 368.433779 
L 1065.85021 468.848788 
L 1067.680051 344.914584 
L 1069.509893 382.341732 
L 1071.339734 427.273861 
L 1073.169576 350.726735 
L 1074.999417 360.077229 
L 1076.829259 367.132092 
L 1078.6591 357.604633 
L 1080.488942 340.725942 
L 1082.318783 287.156284 
L 1084.148625 297.825448 
L 1085.978466 317.808559 
L 1087.808308 350.972196 
L 1089.638149 345.627731 
L 1091.467991 348.053938 
L 1093.297832 361.125267 
L 1095.127674 333.211219 
L 1096.957515 362.853051 
L 1098.787357 352.403128 
L 1100.617198 418.709002 
L 1102.44704 527.373199 
L 1104.276881 557.372472 
L 1106.106723 584.8897 
L 1107.936564 637.270599 
L 1109.766406 637.776062 
L 1111.596247 645.095183 
L 1113.426089 657.352988 
L 1115.25593 651.413987 
L 1117.085772 608.489078 
L 1118.915613 585.933865 
L 1120.745455 554.333118 
L 1120.745455 554.333118 
" clip-path="url(#pb4213fd413)" style="fill: none; stroke: #8fbc8f; stroke-linecap: square"/>
   </g>
   <g id="patch_3">
    <path d="M 162 768.96 
L 162 103.68 
" style="fill: none; stroke: #000000; stroke-width: 0.8; stroke-linejoin: miter; stroke-linecap: square"/>
   </g>
   <g id="patch_4">
    <path d="M 1166.4 768.96 
L 1166.4 103.68 
" style="fill: none; stroke: #000000; stroke-width: 0.8; stroke-linejoin: miter; stroke-linecap: square"/>
   </g>
   <g id="patch_5">
    <path d="M 162 768.96 
L 1166.4 768.96 
" style="fill: none; stroke: #000000; stroke-width: 0.8; stroke-linejoin: miter; stroke-linecap: square"/>
   </g>
   <g id="patch_6">
    <path d="M 162 103.68 
L 1166.4 103.68 
" style="fill: none; stroke: #000000; stroke-width: 0.8; stroke-linejoin: miter; stroke-linecap: square"/>
   </g>
   <g id="text_14">
    <!-- Function 1 -->
    <g transform="translate(632.957813 97.68) scale(0.12 -0.12)">
     <defs>
      <path id="DejaVuSans-46" d="M 628 4666 
L 3309 4666 
L 3309 4134 
L 1259 4134 
L 1259 2759 
L 3109 2759 
L 3109 2228 
L 1259 2228 
L 1259 0 
L 628 0 
L 628 4666 
z
" transform="scale(0.015625)"/>
      <path id="DejaVuSans-75" d="M 544 1381 
L 544 3500 
L 1119 3500 
L 1119 1403 
Q 1119 906 1312 657 
Q 1506 409 1894 409 
Q 2359 409 2629 706 
Q 2900 1003 2900 1516 
L 2900 3500 
L 3475 3500 
L 3475 0 
L 2900 0 
L 2900 538 
Q 2691 219 2414 64 
Q 2138 -91 1772 -91 
Q 1169 -91 856 284 
Q 544 659 544 1381 
z
M 1991 3584 
L 1991 3584 
z
" transform="scale(0.015625)"/>
      <path id="DejaVuSans-6e" d="M 3513 2113 
L 3513 0 
L 2938 0 
L 2938 2094 
Q 2938 2591 2744 2837 
Q 2550 3084 2163 3084 
Q 1697 3084 1428 2787 
Q 1159 2491 1159 1978 
L 1159 0 
L 581 0 
L 581 3500 
L 1159 3500 
L 1159 2956 
Q 1366 3272 1645 3428 
Q 1925 3584 2291 3584 
Q 2894 3584 3203 3211 
Q 3513 2838 3513 2113 
z
" transform="scale(0.015625)"/>
      <path id="DejaVuSans-63" d="M 3122 3366 
L 3122 2828 
Q 2878 2963 2633 3030 
Q 2388 3097 2138 3097 
Q 1578 3097 1268 2742 
Q 959 2388 959 1747 
Q 959 1106 1268 751 
Q 1578 397 2138 397 
Q 2388 397 2633 464 
Q 2878 531 3122 666 
L 3122 134 
Q 2881 22 2623 -34 
Q 2366 -91 2075 -91 
Q 1284 -91 818 406 
Q 353 903 353 1747 
Q 353 2603 823 3093 
Q 1294 3584 2113 3584 
Q 2378 3584 2631 3529 
Q 2884 3475 3122 3366 
z
" transform="scale(0.015625)"/>
      <path id="DejaVuSans-74" d="M 1172 4494 
L 1172 3500 
L 2356 3500 
L 2356 3053 
L 1172 3053 
L 1172 1153 
Q 1172 725 1289 603 
Q 1406 481 1766 481 
L 2356 481 
L 2356 0 
L 1766 0 
Q 1100 0 847 248 
Q 594 497 594 1153 
L 594 3053 
L 172 3053 
L 172 3500 
L 594 3500 
L 594 4494 
L 1172 4494 
z
" transform="scale(0.015625)"/>
      <path id="DejaVuSans-69" d="M 603 3500 
L 1178 3500 
L 1178 0 
L 603 0 
L 603 3500 
z
M 603 4863 
L 1178 4863 
L 1178 4134 
L 603 4134 
L 603 4863 
z
" transform="scale(0.015625)"/>
      <path id="DejaVuSans-6f" d="M 1959 3097 
Q 1497 3097 1228 2736 
Q 959 2375 959 1747 
Q 959 1119 1226 758 
Q 1494 397 1959 397 
Q 2419 397 2687 759 
Q 2956 1122 2956 1747 
Q 2956 2369 2687 2733 
Q 2419 3097 1959 3097 
z
M 1959 3584 
Q 2709 3584 3137 3096 
Q 3566 2609 3566 1747 
Q 3566 888 3137 398 
Q 2709 -91 1959 -91 
Q 1206 -91 779 398 
Q 353 888 353 1747 
Q 353 2609 779 3096 
Q 1206 3584 1959 3584 
z
" transform="scale(0.015625)"/>
      <path id="DejaVuSans-20" transform="scale(0.015625)"/>
     </defs>
     <use xlink:href="#DejaVuSans-46"/>
     <use xlink:href="#DejaVuSans-75" x="52.019531"/>
     <use xlink:href="#DejaVuSans-6e" x="115.398438"/>
     <use xlink:href="#DejaVuSans-63" x="178.777344"/>
     <use xlink:href="#DejaVuSans-74" x="233.757812"/>
     <use xlink:href="#DejaVuSans-69" x="272.966797"/>
     <use xlink:href="#DejaVuSans-6f" x="300.75"/>
     <use xlink:href="#DejaVuSans-6e" x="361.931641"/>
     <use xlink:href="#DejaVuSans-20" x="425.310547"/>
     <use xlink:href="#DejaVuSans-31" x="457.097656"/>
    </g>
   </g>
   <g id="legend_1">
    <g id="patch_7">
     <path d="M 1011.90625 170.3925 
L 1159.4 170.3925 
Q 1161.4 170.3925 1161.4 168.3925 
L 1161.4 110.68 
Q 1161.4 108.68 1159.4 108.68 
L 1011.90625 108.68 
Q 1009.90625 108.68 1009.90625 110.68 
L 1009.90625 168.3925 
Q 1009.90625 170.3925 1011.90625 170.3925 
z
" style="fill: #ffffff; opacity: 0.8; stroke: #cccccc; stroke-linejoin: miter"/>
    </g>
    <g id="line2d_18">
     <path d="M 1013.90625 116.778437 
L 1023.90625 116.778437 
L 1033.90625 116.778437 
" style="fill: none; stroke: #4169e1; stroke-linecap: square"/>
    </g>
    <g id="text_15">
     <!-- Truth -->
     <g transform="translate(1041.90625 120.278437) scale(0.1 -0.1)">
      <defs>
       <path id="DejaVuSans-54" d="M -19 4666 
L 3928 4666 
L 3928 4134 
L 2272 4134 
L 2272 0 
L 1638 0 
L 1638 4134 
L -19 4134 
L -19 4666 
z
" transform="scale(0.015625)"/>
       <path id="DejaVuSans-72" d="M 2631 2963 
Q 2534 3019 2420 3045 
Q 2306 3072 2169 3072 
Q 1681 3072 1420 2755 
Q 1159 2438 1159 1844 
L 1159 0 
L 581 0 
L 581 3500 
L 1159 3500 
L 1159 2956 
Q 1341 3275 1631 3429 
Q 1922 3584 2338 3584 
Q 2397 3584 2469 3576 
Q 2541 3569 2628 3553 
L 2631 2963 
z
" transform="scale(0.015625)"/>
       <path id="DejaVuSans-68" d="M 3513 2113 
L 3513 0 
L 2938 0 
L 2938 2094 
Q 2938 2591 2744 2837 
Q 2550 3084 2163 3084 
Q 1697 3084 1428 2787 
Q 1159 2491 1159 1978 
L 1159 0 
L 581 0 
L 581 4863 
L 1159 4863 
L 1159 2956 
Q 1366 3272 1645 3428 
Q 1925 3584 2291 3584 
Q 2894 3584 3203 3211 
Q 3513 2838 3513 2113 
z
" transform="scale(0.015625)"/>
      </defs>
      <use xlink:href="#DejaVuSans-54"/>
      <use xlink:href="#DejaVuSans-72" x="46.333984"/>
      <use xlink:href="#DejaVuSans-75" x="87.447266"/>
      <use xlink:href="#DejaVuSans-74" x="150.826172"/>
      <use xlink:href="#DejaVuSans-68" x="190.035156"/>
     </g>
    </g>
    <g id="line2d_19">
     <path d="M 1013.90625 131.456562 
L 1023.90625 131.456562 
L 1033.90625 131.456562 
" style="fill: none; stroke: #ff6347; stroke-linecap: square"/>
    </g>
    <g id="text_16">
     <!-- Gossip predictions -->
     <g transform="translate(1041.90625 134.956562) scale(0.1 -0.1)">
      <defs>
       <path id="DejaVuSans-47" d="M 3809 666 
L 3809 1919 
L 2778 1919 
L 2778 2438 
L 4434 2438 
L 4434 434 
Q 4069 175 3628 42 
Q 3188 -91 2688 -91 
Q 1594 -91 976 548 
Q 359 1188 359 2328 
Q 359 3472 976 4111 
Q 1594 4750 2688 4750 
Q 3144 4750 3555 4637 
Q 3966 4525 4313 4306 
L 4313 3634 
Q 3963 3931 3569 4081 
Q 3175 4231 2741 4231 
Q 1884 4231 1454 3753 
Q 1025 3275 1025 2328 
Q 1025 1384 1454 906 
Q 1884 428 2741 428 
Q 3075 428 3337 486 
Q 3600 544 3809 666 
z
" transform="scale(0.015625)"/>
       <path id="DejaVuSans-73" d="M 2834 3397 
L 2834 2853 
Q 2591 2978 2328 3040 
Q 2066 3103 1784 3103 
Q 1356 3103 1142 2972 
Q 928 2841 928 2578 
Q 928 2378 1081 2264 
Q 1234 2150 1697 2047 
L 1894 2003 
Q 2506 1872 2764 1633 
Q 3022 1394 3022 966 
Q 3022 478 2636 193 
Q 2250 -91 1575 -91 
Q 1294 -91 989 -36 
Q 684 19 347 128 
L 347 722 
Q 666 556 975 473 
Q 1284 391 1588 391 
Q 1994 391 2212 530 
Q 2431 669 2431 922 
Q 2431 1156 2273 1281 
Q 2116 1406 1581 1522 
L 1381 1569 
Q 847 1681 609 1914 
Q 372 2147 372 2553 
Q 372 3047 722 3315 
Q 1072 3584 1716 3584 
Q 2034 3584 2315 3537 
Q 2597 3491 2834 3397 
z
" transform="scale(0.015625)"/>
       <path id="DejaVuSans-70" d="M 1159 525 
L 1159 -1331 
L 581 -1331 
L 581 3500 
L 1159 3500 
L 1159 2969 
Q 1341 3281 1617 3432 
Q 1894 3584 2278 3584 
Q 2916 3584 3314 3078 
Q 3713 2572 3713 1747 
Q 3713 922 3314 415 
Q 2916 -91 2278 -91 
Q 1894 -91 1617 61 
Q 1341 213 1159 525 
z
M 3116 1747 
Q 3116 2381 2855 2742 
Q 2594 3103 2138 3103 
Q 1681 3103 1420 2742 
Q 1159 2381 1159 1747 
Q 1159 1113 1420 752 
Q 1681 391 2138 391 
Q 2594 391 2855 752 
Q 3116 1113 3116 1747 
z
" transform="scale(0.015625)"/>
       <path id="DejaVuSans-65" d="M 3597 1894 
L 3597 1613 
L 953 1613 
Q 991 1019 1311 708 
Q 1631 397 2203 397 
Q 2534 397 2845 478 
Q 3156 559 3463 722 
L 3463 178 
Q 3153 47 2828 -22 
Q 2503 -91 2169 -91 
Q 1331 -91 842 396 
Q 353 884 353 1716 
Q 353 2575 817 3079 
Q 1281 3584 2069 3584 
Q 2775 3584 3186 3129 
Q 3597 2675 3597 1894 
z
M 3022 2063 
Q 3016 2534 2758 2815 
Q 2500 3097 2075 3097 
Q 1594 3097 1305 2825 
Q 1016 2553 972 2059 
L 3022 2063 
z
" transform="scale(0.015625)"/>
       <path id="DejaVuSans-64" d="M 2906 2969 
L 2906 4863 
L 3481 4863 
L 3481 0 
L 2906 0 
L 2906 525 
Q 2725 213 2448 61 
Q 2172 -91 1784 -91 
Q 1150 -91 751 415 
Q 353 922 353 1747 
Q 353 2572 751 3078 
Q 1150 3584 1784 3584 
Q 2172 3584 2448 3432 
Q 2725 3281 2906 2969 
z
M 947 1747 
Q 947 1113 1208 752 
Q 1469 391 1925 391 
Q 2381 391 2643 752 
Q 2906 1113 2906 1747 
Q 2906 2381 2643 2742 
Q 2381 3103 1925 3103 
Q 1469 3103 1208 2742 
Q 947 2381 947 1747 
z
" transform="scale(0.015625)"/>
      </defs>
      <use xlink:href="#DejaVuSans-47"/>
      <use xlink:href="#DejaVuSans-6f" x="77.490234"/>
      <use xlink:href="#DejaVuSans-73" x="138.671875"/>
      <use xlink:href="#DejaVuSans-73" x="190.771484"/>
      <use xlink:href="#DejaVuSans-69" x="242.871094"/>
      <use xlink:href="#DejaVuSans-70" x="270.654297"/>
      <use xlink:href="#DejaVuSans-20" x="334.130859"/>
      <use xlink:href="#DejaVuSans-70" x="365.917969"/>
      <use xlink:href="#DejaVuSans-72" x="429.394531"/>
      <use xlink:href="#DejaVuSans-65" x="468.257812"/>
      <use xlink:href="#DejaVuSans-64" x="529.78125"/>
      <use xlink:href="#DejaVuSans-69" x="593.257812"/>
      <use xlink:href="#DejaVuSans-63" x="621.041016"/>
      <use xlink:href="#DejaVuSans-74" x="676.021484"/>
      <use xlink:href="#DejaVuSans-69" x="715.230469"/>
      <use xlink:href="#DejaVuSans-6f" x="743.013672"/>
      <use xlink:href="#DejaVuSans-6e" x="804.195312"/>
      <use xlink:href="#DejaVuSans-73" x="867.574219"/>
     </g>
    </g>
    <g id="line2d_20">
     <path d="M 1013.90625 146.134687 
L 1023.90625 146.134687 
L 1033.90625 146.134687 
" style="fill: none; stroke: #da70d6; stroke-linecap: square"/>
    </g>
    <g id="text_17">
     <!-- Centralized predictions -->
     <g transform="translate(1041.90625 149.634687) scale(0.1 -0.1)">
      <defs>
       <path id="DejaVuSans-43" d="M 4122 4306 
L 4122 3641 
Q 3803 3938 3442 4084 
Q 3081 4231 2675 4231 
Q 1875 4231 1450 3742 
Q 1025 3253 1025 2328 
Q 1025 1406 1450 917 
Q 1875 428 2675 428 
Q 3081 428 3442 575 
Q 3803 722 4122 1019 
L 4122 359 
Q 3791 134 3420 21 
Q 3050 -91 2638 -91 
Q 1578 -91 968 557 
Q 359 1206 359 2328 
Q 359 3453 968 4101 
Q 1578 4750 2638 4750 
Q 3056 4750 3426 4639 
Q 3797 4528 4122 4306 
z
" transform="scale(0.015625)"/>
       <path id="DejaVuSans-61" d="M 2194 1759 
Q 1497 1759 1228 1600 
Q 959 1441 959 1056 
Q 959 750 1161 570 
Q 1363 391 1709 391 
Q 2188 391 2477 730 
Q 2766 1069 2766 1631 
L 2766 1759 
L 2194 1759 
z
M 3341 1997 
L 3341 0 
L 2766 0 
L 2766 531 
Q 2569 213 2275 61 
Q 1981 -91 1556 -91 
Q 1019 -91 701 211 
Q 384 513 384 1019 
Q 384 1609 779 1909 
Q 1175 2209 1959 2209 
L 2766 2209 
L 2766 2266 
Q 2766 2663 2505 2880 
Q 2244 3097 1772 3097 
Q 1472 3097 1187 3025 
Q 903 2953 641 2809 
L 641 3341 
Q 956 3463 1253 3523 
Q 1550 3584 1831 3584 
Q 2591 3584 2966 3190 
Q 3341 2797 3341 1997 
z
" transform="scale(0.015625)"/>
       <path id="DejaVuSans-6c" d="M 603 4863 
L 1178 4863 
L 1178 0 
L 603 0 
L 603 4863 
z
" transform="scale(0.015625)"/>
       <path id="DejaVuSans-7a" d="M 353 3500 
L 3084 3500 
L 3084 2975 
L 922 459 
L 3084 459 
L 3084 0 
L 275 0 
L 275 525 
L 2438 3041 
L 353 3041 
L 353 3500 
z
" transform="scale(0.015625)"/>
      </defs>
      <use xlink:href="#DejaVuSans-43"/>
      <use xlink:href="#DejaVuSans-65" x="69.824219"/>
      <use xlink:href="#DejaVuSans-6e" x="131.347656"/>
      <use xlink:href="#DejaVuSans-74" x="194.726562"/>
      <use xlink:href="#DejaVuSans-72" x="233.935547"/>
      <use xlink:href="#DejaVuSans-61" x="275.048828"/>
      <use xlink:href="#DejaVuSans-6c" x="336.328125"/>
      <use xlink:href="#DejaVuSans-69" x="364.111328"/>
      <use xlink:href="#DejaVuSans-7a" x="391.894531"/>
      <use xlink:href="#DejaVuSans-65" x="444.384766"/>
      <use xlink:href="#DejaVuSans-64" x="505.908203"/>
      <use xlink:href="#DejaVuSans-20" x="569.384766"/>
      <use xlink:href="#DejaVuSans-70" x="601.171875"/>
      <use xlink:href="#DejaVuSans-72" x="664.648438"/>
      <use xlink:href="#DejaVuSans-65" x="703.511719"/>
      <use xlink:href="#DejaVuSans-64" x="765.035156"/>
      <use xlink:href="#DejaVuSans-69" x="828.511719"/>
      <use xlink:href="#DejaVuSans-63" x="856.294922"/>
      <use xlink:href="#DejaVuSans-74" x="911.275391"/>
      <use xlink:href="#DejaVuSans-69" x="950.484375"/>
      <use xlink:href="#DejaVuSans-6f" x="978.267578"/>
      <use xlink:href="#DejaVuSans-6e" x="1039.449219"/>
      <use xlink:href="#DejaVuSans-73" x="1102.828125"/>
     </g>
    </g>
    <g id="line2d_21">
     <path d="M 1013.90625 160.812812 
L 1023.90625 160.812812 
L 1033.90625 160.812812 
" style="fill: none; stroke: #8fbc8f; stroke-linecap: square"/>
    </g>
    <g id="text_18">
     <!-- Single predictions -->
     <g transform="translate(1041.90625 164.312812) scale(0.1 -0.1)">
      <defs>
       <path id="DejaVuSans-53" d="M 3425 4513 
L 3425 3897 
Q 3066 4069 2747 4153 
Q 2428 4238 2131 4238 
Q 1616 4238 1336 4038 
Q 1056 3838 1056 3469 
Q 1056 3159 1242 3001 
Q 1428 2844 1947 2747 
L 2328 2669 
Q 3034 2534 3370 2195 
Q 3706 1856 3706 1288 
Q 3706 609 3251 259 
Q 2797 -91 1919 -91 
Q 1588 -91 1214 -16 
Q 841 59 441 206 
L 441 856 
Q 825 641 1194 531 
Q 1563 422 1919 422 
Q 2459 422 2753 634 
Q 3047 847 3047 1241 
Q 3047 1584 2836 1778 
Q 2625 1972 2144 2069 
L 1759 2144 
Q 1053 2284 737 2584 
Q 422 2884 422 3419 
Q 422 4038 858 4394 
Q 1294 4750 2059 4750 
Q 2388 4750 2728 4690 
Q 3069 4631 3425 4513 
z
" transform="scale(0.015625)"/>
       <path id="DejaVuSans-67" d="M 2906 1791 
Q 2906 2416 2648 2759 
Q 2391 3103 1925 3103 
Q 1463 3103 1205 2759 
Q 947 2416 947 1791 
Q 947 1169 1205 825 
Q 1463 481 1925 481 
Q 2391 481 2648 825 
Q 2906 1169 2906 1791 
z
M 3481 434 
Q 3481 -459 3084 -895 
Q 2688 -1331 1869 -1331 
Q 1566 -1331 1297 -1286 
Q 1028 -1241 775 -1147 
L 775 -588 
Q 1028 -725 1275 -790 
Q 1522 -856 1778 -856 
Q 2344 -856 2625 -561 
Q 2906 -266 2906 331 
L 2906 616 
Q 2728 306 2450 153 
Q 2172 0 1784 0 
Q 1141 0 747 490 
Q 353 981 353 1791 
Q 353 2603 747 3093 
Q 1141 3584 1784 3584 
Q 2172 3584 2450 3431 
Q 2728 3278 2906 2969 
L 2906 3500 
L 3481 3500 
L 3481 434 
z
" transform="scale(0.015625)"/>
      </defs>
      <use xlink:href="#DejaVuSans-53"/>
      <use xlink:href="#DejaVuSans-69" x="63.476562"/>
      <use xlink:href="#DejaVuSans-6e" x="91.259766"/>
      <use xlink:href="#DejaVuSans-67" x="154.638672"/>
      <use xlink:href="#DejaVuSans-6c" x="218.115234"/>
      <use xlink:href="#DejaVuSans-65" x="245.898438"/>
      <use xlink:href="#DejaVuSans-20" x="307.421875"/>
      <use xlink:href="#DejaVuSans-70" x="339.208984"/>
      <use xlink:href="#DejaVuSans-72" x="402.685547"/>
      <use xlink:href="#DejaVuSans-65" x="441.548828"/>
      <use xlink:href="#DejaVuSans-64" x="503.072266"/>
      <use xlink:href="#DejaVuSans-69" x="566.548828"/>
      <use xlink:href="#DejaVuSans-63" x="594.332031"/>
      <use xlink:href="#DejaVuSans-74" x="649.3125"/>
      <use xlink:href="#DejaVuSans-69" x="688.521484"/>
      <use xlink:href="#DejaVuSans-6f" x="716.304688"/>
      <use xlink:href="#DejaVuSans-6e" x="777.486328"/>
      <use xlink:href="#DejaVuSans-73" x="840.865234"/>
     </g>
    </g>
   </g>
  </g>
 </g>
 <defs>
  <clipPath id="pb4213fd413">
   <rect x="162" y="103.68" width="1004.4" height="665.28"/>
  </clipPath>
 </defs>
</svg>
