<?xml version="1.0" encoding="utf-8" standalone="no"?>
<!DOCTYPE svg PUBLIC "-//W3C//DTD SVG 1.1//EN"
  "http://www.w3.org/Graphics/SVG/1.1/DTD/svg11.dtd">
<svg xmlns:xlink="http://www.w3.org/1999/xlink" width="1296pt" height="864pt" viewBox="0 0 1296 864" xmlns="http://www.w3.org/2000/svg" version="1.1">
 <metadata>
  <rdf:RDF xmlns:dc="http://purl.org/dc/elements/1.1/" xmlns:cc="http://creativecommons.org/ns#" xmlns:rdf="http://www.w3.org/1999/02/22-rdf-syntax-ns#">
   <cc:Work>
    <dc:type rdf:resource="http://purl.org/dc/dcmitype/StillImage"/>
    <dc:date>2023-12-10T12:47:09.477215</dc:date>
    <dc:format>image/svg+xml</dc:format>
    <dc:creator>
     <cc:Agent>
      <dc:title>Matplotlib v3.8.0, https://matplotlib.org/</dc:title>
     </cc:Agent>
    </dc:creator>
   </cc:Work>
  </rdf:RDF>
 </metadata>
 <defs>
  <style type="text/css">*{stroke-linejoin: round; stroke-linecap: butt}</style>
 </defs>
 <g id="figure_1">
  <g id="patch_1">
   <path d="M 0 864 
L 1296 864 
L 1296 0 
L 0 0 
z
" style="fill: #ffffff"/>
  </g>
  <g id="axes_1">
   <g id="patch_2">
    <path d="M 162 768.96 
L 1166.4 768.96 
L 1166.4 103.68 
L 162 103.68 
z
" style="fill: #ffffff"/>
   </g>
   <g id="matplotlib.axis_1">
    <g id="xtick_1">
     <g id="line2d_1">
      <defs>
       <path id="me3c0c2fc4e" d="M 0 0 
L 0 3.5 
" style="stroke: #000000; stroke-width: 0.8"/>
      </defs>
      <g>
       <use xlink:href="#me3c0c2fc4e" x="207.654545" y="768.96" style="stroke: #000000; stroke-width: 0.8"/>
      </g>
     </g>
     <g id="text_1">
      <!-- 0 -->
      <g transform="translate(204.473295 783.558437) scale(0.1 -0.1)">
       <defs>
        <path id="DejaVuSans-30" d="M 2034 4250 
Q 1547 4250 1301 3770 
Q 1056 3291 1056 2328 
Q 1056 1369 1301 889 
Q 1547 409 2034 409 
Q 2525 409 2770 889 
Q 3016 1369 3016 2328 
Q 3016 3291 2770 3770 
Q 2525 4250 2034 4250 
z
M 2034 4750 
Q 2819 4750 3233 4129 
Q 3647 3509 3647 2328 
Q 3647 1150 3233 529 
Q 2819 -91 2034 -91 
Q 1250 -91 836 529 
Q 422 1150 422 2328 
Q 422 3509 836 4129 
Q 1250 4750 2034 4750 
z
" transform="scale(0.015625)"/>
       </defs>
       <use xlink:href="#DejaVuSans-30"/>
      </g>
     </g>
    </g>
    <g id="xtick_2">
     <g id="line2d_2">
      <g>
       <use xlink:href="#me3c0c2fc4e" x="390.638696" y="768.96" style="stroke: #000000; stroke-width: 0.8"/>
      </g>
     </g>
     <g id="text_2">
      <!-- 100 -->
      <g transform="translate(381.094946 783.558437) scale(0.1 -0.1)">
       <defs>
        <path id="DejaVuSans-31" d="M 794 531 
L 1825 531 
L 1825 4091 
L 703 3866 
L 703 4441 
L 1819 4666 
L 2450 4666 
L 2450 531 
L 3481 531 
L 3481 0 
L 794 0 
L 794 531 
z
" transform="scale(0.015625)"/>
       </defs>
       <use xlink:href="#DejaVuSans-31"/>
       <use xlink:href="#DejaVuSans-30" x="63.623047"/>
       <use xlink:href="#DejaVuSans-30" x="127.246094"/>
      </g>
     </g>
    </g>
    <g id="xtick_3">
     <g id="line2d_3">
      <g>
       <use xlink:href="#me3c0c2fc4e" x="573.622846" y="768.96" style="stroke: #000000; stroke-width: 0.8"/>
      </g>
     </g>
     <g id="text_3">
      <!-- 200 -->
      <g transform="translate(564.079096 783.558437) scale(0.1 -0.1)">
       <defs>
        <path id="DejaVuSans-32" d="M 1228 531 
L 3431 531 
L 3431 0 
L 469 0 
L 469 531 
Q 828 903 1448 1529 
Q 2069 2156 2228 2338 
Q 2531 2678 2651 2914 
Q 2772 3150 2772 3378 
Q 2772 3750 2511 3984 
Q 2250 4219 1831 4219 
Q 1534 4219 1204 4116 
Q 875 4013 500 3803 
L 500 4441 
Q 881 4594 1212 4672 
Q 1544 4750 1819 4750 
Q 2544 4750 2975 4387 
Q 3406 4025 3406 3419 
Q 3406 3131 3298 2873 
Q 3191 2616 2906 2266 
Q 2828 2175 2409 1742 
Q 1991 1309 1228 531 
z
" transform="scale(0.015625)"/>
       </defs>
       <use xlink:href="#DejaVuSans-32"/>
       <use xlink:href="#DejaVuSans-30" x="63.623047"/>
       <use xlink:href="#DejaVuSans-30" x="127.246094"/>
      </g>
     </g>
    </g>
    <g id="xtick_4">
     <g id="line2d_4">
      <g>
       <use xlink:href="#me3c0c2fc4e" x="756.606996" y="768.96" style="stroke: #000000; stroke-width: 0.8"/>
      </g>
     </g>
     <g id="text_4">
      <!-- 300 -->
      <g transform="translate(747.063246 783.558437) scale(0.1 -0.1)">
       <defs>
        <path id="DejaVuSans-33" d="M 2597 2516 
Q 3050 2419 3304 2112 
Q 3559 1806 3559 1356 
Q 3559 666 3084 287 
Q 2609 -91 1734 -91 
Q 1441 -91 1130 -33 
Q 819 25 488 141 
L 488 750 
Q 750 597 1062 519 
Q 1375 441 1716 441 
Q 2309 441 2620 675 
Q 2931 909 2931 1356 
Q 2931 1769 2642 2001 
Q 2353 2234 1838 2234 
L 1294 2234 
L 1294 2753 
L 1863 2753 
Q 2328 2753 2575 2939 
Q 2822 3125 2822 3475 
Q 2822 3834 2567 4026 
Q 2313 4219 1838 4219 
Q 1578 4219 1281 4162 
Q 984 4106 628 3988 
L 628 4550 
Q 988 4650 1302 4700 
Q 1616 4750 1894 4750 
Q 2613 4750 3031 4423 
Q 3450 4097 3450 3541 
Q 3450 3153 3228 2886 
Q 3006 2619 2597 2516 
z
" transform="scale(0.015625)"/>
       </defs>
       <use xlink:href="#DejaVuSans-33"/>
       <use xlink:href="#DejaVuSans-30" x="63.623047"/>
       <use xlink:href="#DejaVuSans-30" x="127.246094"/>
      </g>
     </g>
    </g>
    <g id="xtick_5">
     <g id="line2d_5">
      <g>
       <use xlink:href="#me3c0c2fc4e" x="939.591146" y="768.96" style="stroke: #000000; stroke-width: 0.8"/>
      </g>
     </g>
     <g id="text_5">
      <!-- 400 -->
      <g transform="translate(930.047396 783.558437) scale(0.1 -0.1)">
       <defs>
        <path id="DejaVuSans-34" d="M 2419 4116 
L 825 1625 
L 2419 1625 
L 2419 4116 
z
M 2253 4666 
L 3047 4666 
L 3047 1625 
L 3713 1625 
L 3713 1100 
L 3047 1100 
L 3047 0 
L 2419 0 
L 2419 1100 
L 313 1100 
L 313 1709 
L 2253 4666 
z
" transform="scale(0.015625)"/>
       </defs>
       <use xlink:href="#DejaVuSans-34"/>
       <use xlink:href="#DejaVuSans-30" x="63.623047"/>
       <use xlink:href="#DejaVuSans-30" x="127.246094"/>
      </g>
     </g>
    </g>
    <g id="xtick_6">
     <g id="line2d_6">
      <g>
       <use xlink:href="#me3c0c2fc4e" x="1122.575296" y="768.96" style="stroke: #000000; stroke-width: 0.8"/>
      </g>
     </g>
     <g id="text_6">
      <!-- 500 -->
      <g transform="translate(1113.031546 783.558437) scale(0.1 -0.1)">
       <defs>
        <path id="DejaVuSans-35" d="M 691 4666 
L 3169 4666 
L 3169 4134 
L 1269 4134 
L 1269 2991 
Q 1406 3038 1543 3061 
Q 1681 3084 1819 3084 
Q 2600 3084 3056 2656 
Q 3513 2228 3513 1497 
Q 3513 744 3044 326 
Q 2575 -91 1722 -91 
Q 1428 -91 1123 -41 
Q 819 9 494 109 
L 494 744 
Q 775 591 1075 516 
Q 1375 441 1709 441 
Q 2250 441 2565 725 
Q 2881 1009 2881 1497 
Q 2881 1984 2565 2268 
Q 2250 2553 1709 2553 
Q 1456 2553 1204 2497 
Q 953 2441 691 2322 
L 691 4666 
z
" transform="scale(0.015625)"/>
       </defs>
       <use xlink:href="#DejaVuSans-35"/>
       <use xlink:href="#DejaVuSans-30" x="63.623047"/>
       <use xlink:href="#DejaVuSans-30" x="127.246094"/>
      </g>
     </g>
    </g>
   </g>
   <g id="matplotlib.axis_2">
    <g id="ytick_1">
     <g id="line2d_7">
      <defs>
       <path id="m0ffa7ce271" d="M 0 0 
L -3.5 0 
" style="stroke: #000000; stroke-width: 0.8"/>
      </defs>
      <g>
       <use xlink:href="#m0ffa7ce271" x="162" y="738.72" style="stroke: #000000; stroke-width: 0.8"/>
      </g>
     </g>
     <g id="text_7">
      <!-- 0 -->
      <g transform="translate(148.6375 742.519219) scale(0.1 -0.1)">
       <use xlink:href="#DejaVuSans-30"/>
      </g>
     </g>
    </g>
    <g id="ytick_2">
     <g id="line2d_8">
      <g>
       <use xlink:href="#m0ffa7ce271" x="162" y="615.453129" style="stroke: #000000; stroke-width: 0.8"/>
      </g>
     </g>
     <g id="text_8">
      <!-- 5 -->
      <g transform="translate(148.6375 619.252347) scale(0.1 -0.1)">
       <use xlink:href="#DejaVuSans-35"/>
      </g>
     </g>
    </g>
    <g id="ytick_3">
     <g id="line2d_9">
      <g>
       <use xlink:href="#m0ffa7ce271" x="162" y="492.186257" style="stroke: #000000; stroke-width: 0.8"/>
      </g>
     </g>
     <g id="text_9">
      <!-- 10 -->
      <g transform="translate(142.275 495.985476) scale(0.1 -0.1)">
       <use xlink:href="#DejaVuSans-31"/>
       <use xlink:href="#DejaVuSans-30" x="63.623047"/>
      </g>
     </g>
    </g>
    <g id="ytick_4">
     <g id="line2d_10">
      <g>
       <use xlink:href="#m0ffa7ce271" x="162" y="368.919386" style="stroke: #000000; stroke-width: 0.8"/>
      </g>
     </g>
     <g id="text_10">
      <!-- 15 -->
      <g transform="translate(142.275 372.718605) scale(0.1 -0.1)">
       <use xlink:href="#DejaVuSans-31"/>
       <use xlink:href="#DejaVuSans-35" x="63.623047"/>
      </g>
     </g>
    </g>
    <g id="ytick_5">
     <g id="line2d_11">
      <g>
       <use xlink:href="#m0ffa7ce271" x="162" y="245.652515" style="stroke: #000000; stroke-width: 0.8"/>
      </g>
     </g>
     <g id="text_11">
      <!-- 20 -->
      <g transform="translate(142.275 249.451733) scale(0.1 -0.1)">
       <use xlink:href="#DejaVuSans-32"/>
       <use xlink:href="#DejaVuSans-30" x="63.623047"/>
      </g>
     </g>
    </g>
    <g id="ytick_6">
     <g id="line2d_12">
      <g>
       <use xlink:href="#m0ffa7ce271" x="162" y="122.385643" style="stroke: #000000; stroke-width: 0.8"/>
      </g>
     </g>
     <g id="text_12">
      <!-- 25 -->
      <g transform="translate(142.275 126.184862) scale(0.1 -0.1)">
       <use xlink:href="#DejaVuSans-32"/>
       <use xlink:href="#DejaVuSans-35" x="63.623047"/>
      </g>
     </g>
    </g>
   </g>
   <g id="line2d_13">
    <path d="M 207.654545 171.692392 
L 209.484387 245.652515 
L 211.314228 689.413251 
L 213.14407 171.692392 
L 214.973911 467.532883 
L 216.803753 220.99914 
L 218.633594 171.692392 
L 220.463436 344.266012 
L 222.293277 171.692392 
L 224.123119 664.759877 
L 225.95296 319.612637 
L 227.782802 442.879509 
L 229.612643 171.692392 
L 231.442485 171.692392 
L 233.272326 516.839632 
L 235.102168 171.692392 
L 236.932009 294.959263 
L 238.761851 171.692392 
L 242.421534 171.692392 
L 244.251375 566.14638 
L 246.081217 541.493006 
L 247.911058 196.345766 
L 249.7409 319.612637 
L 251.570741 171.692392 
L 253.400583 590.799754 
L 255.230424 171.692392 
L 257.060266 492.186257 
L 258.890107 171.692392 
L 260.719949 467.532883 
L 262.54979 566.14638 
L 264.379632 492.186257 
L 266.209473 590.799754 
L 268.039315 319.612637 
L 269.869156 590.799754 
L 271.698998 171.692392 
L 273.528839 664.759877 
L 275.358681 738.72 
L 277.188522 640.106503 
L 279.018364 738.72 
L 280.848206 590.799754 
L 282.678047 171.692392 
L 284.507889 516.839632 
L 286.33773 738.72 
L 288.167572 368.919386 
L 289.997413 714.066626 
L 291.827255 566.14638 
L 293.657096 566.14638 
L 295.486938 689.413251 
L 297.316779 467.532883 
L 299.146621 640.106503 
L 300.976462 566.14638 
L 302.806304 516.839632 
L 304.636145 738.72 
L 306.465987 492.186257 
L 308.295828 689.413251 
L 310.12567 516.839632 
L 311.955511 492.186257 
L 313.785353 664.759877 
L 315.615194 270.305889 
L 317.445036 171.692392 
L 319.274877 442.879509 
L 321.104719 516.839632 
L 322.93456 270.305889 
L 324.764402 171.692392 
L 326.594243 640.106503 
L 328.424085 714.066626 
L 330.253926 615.453129 
L 332.083768 590.799754 
L 333.913609 344.266012 
L 335.743451 541.493006 
L 337.573292 689.413251 
L 339.403134 689.413251 
L 341.232975 664.759877 
L 343.062817 615.453129 
L 344.892658 171.692392 
L 346.7225 171.692392 
L 348.552341 664.759877 
L 350.382183 738.72 
L 352.212024 442.879509 
L 354.041866 615.453129 
L 355.871707 664.759877 
L 357.701549 171.692392 
L 359.53139 344.266012 
L 361.361232 319.612637 
L 363.191073 640.106503 
L 365.020915 171.692392 
L 366.850756 171.692392 
L 368.680598 270.305889 
L 370.510439 516.839632 
L 372.340281 492.186257 
L 374.170122 171.692392 
L 379.659647 171.692392 
L 381.489488 640.106503 
L 383.31933 393.57276 
L 385.149171 368.919386 
L 386.979013 171.692392 
L 388.808854 171.692392 
L 390.638696 714.066626 
L 392.468537 171.692392 
L 394.298379 418.226135 
L 396.12822 294.959263 
L 397.958062 442.879509 
L 399.787903 171.692392 
L 401.617745 541.493006 
L 403.447586 171.692392 
L 405.277428 442.879509 
L 407.107269 171.692392 
L 408.937111 294.959263 
L 410.766952 171.692392 
L 414.426635 171.692392 
L 416.256477 368.919386 
L 418.086318 492.186257 
L 419.91616 171.692392 
L 423.575843 171.692392 
L 425.405684 294.959263 
L 427.235526 171.692392 
L 429.065367 171.692392 
L 430.895209 467.532883 
L 432.72505 171.692392 
L 434.554892 393.57276 
L 436.384733 689.413251 
L 438.214575 516.839632 
L 440.044416 442.879509 
L 441.874258 171.692392 
L 443.704099 590.799754 
L 445.533941 714.066626 
L 447.363782 393.57276 
L 449.193624 442.879509 
L 451.023465 442.879509 
L 452.853307 689.413251 
L 454.683148 738.72 
L 456.51299 566.14638 
L 458.342831 294.959263 
L 460.172673 492.186257 
L 462.002514 714.066626 
L 463.832356 393.57276 
L 465.662197 418.226135 
L 467.492039 689.413251 
L 469.32188 220.99914 
L 471.151722 615.453129 
L 472.981563 270.305889 
L 474.811405 220.99914 
L 476.641246 516.839632 
L 478.471088 294.959263 
L 480.300929 245.652515 
L 482.130771 319.612637 
L 483.960612 171.692392 
L 489.450137 171.692392 
L 491.279978 368.919386 
L 493.10982 368.919386 
L 494.939661 319.612637 
L 496.769503 393.57276 
L 498.599344 319.612637 
L 500.429186 171.692392 
L 502.259027 541.493006 
L 504.088869 467.532883 
L 505.91871 171.692392 
L 507.748552 171.692392 
L 509.578393 442.879509 
L 511.408235 467.532883 
L 513.238076 368.919386 
L 515.067918 393.57276 
L 516.897759 319.612637 
L 518.727601 615.453129 
L 520.557442 418.226135 
L 522.387284 615.453129 
L 524.217125 541.493006 
L 526.046967 689.413251 
L 527.876808 393.57276 
L 529.70665 738.72 
L 531.536491 714.066626 
L 533.366333 393.57276 
L 535.196174 171.692392 
L 537.026016 171.692392 
L 538.855857 418.226135 
L 540.685699 689.413251 
L 542.51554 640.106503 
L 544.345382 738.72 
L 546.175223 689.413251 
L 548.005065 516.839632 
L 549.834906 171.692392 
L 551.664748 171.692392 
L 553.494589 714.066626 
L 555.324431 171.692392 
L 557.154272 738.72 
L 558.984114 615.453129 
L 560.813955 738.72 
L 562.643797 418.226135 
L 564.473638 714.066626 
L 566.30348 590.799754 
L 568.133321 393.57276 
L 569.963163 220.99914 
L 571.793004 467.532883 
L 573.622846 738.72 
L 577.282529 738.72 
L 579.11237 319.612637 
L 580.942212 615.453129 
L 582.772053 171.692392 
L 584.601895 541.493006 
L 586.431736 714.066626 
L 588.261578 344.266012 
L 590.091419 738.72 
L 591.921261 319.612637 
L 593.751102 319.612637 
L 595.580944 344.266012 
L 597.410785 171.692392 
L 599.240627 615.453129 
L 601.070468 738.72 
L 602.90031 171.692392 
L 604.730151 245.652515 
L 606.559993 516.839632 
L 608.389834 467.532883 
L 610.219676 492.186257 
L 612.049517 171.692392 
L 613.879359 590.799754 
L 615.7092 640.106503 
L 617.539042 442.879509 
L 621.198725 738.72 
L 623.028566 171.692392 
L 624.858408 171.692392 
L 626.688249 689.413251 
L 628.518091 714.066626 
L 630.347932 640.106503 
L 632.177774 442.879509 
L 634.007615 171.692392 
L 635.837457 640.106503 
L 637.667298 738.72 
L 639.49714 566.14638 
L 641.326981 492.186257 
L 643.156823 294.959263 
L 644.986664 319.612637 
L 646.816506 171.692392 
L 648.646347 516.839632 
L 650.476189 566.14638 
L 652.30603 171.692392 
L 663.285079 171.692392 
L 665.114921 319.612637 
L 666.944762 171.692392 
L 681.583494 171.692392 
L 683.413336 541.493006 
L 685.243177 492.186257 
L 687.073019 171.692392 
L 690.732702 171.692392 
L 692.562543 196.345766 
L 694.392385 196.345766 
L 696.222226 615.453129 
L 698.052068 566.14638 
L 699.881909 590.799754 
L 701.711751 738.72 
L 703.541592 738.72 
L 707.201275 640.106503 
L 709.031117 738.72 
L 710.860958 615.453129 
L 712.6908 196.345766 
L 714.520641 738.72 
L 716.350483 738.72 
L 718.180324 664.759877 
L 720.010166 640.106503 
L 721.840007 220.99914 
L 725.49969 615.453129 
L 727.329532 590.799754 
L 729.159373 640.106503 
L 730.989215 171.692392 
L 732.819056 171.692392 
L 734.648898 689.413251 
L 736.478739 270.305889 
L 738.308581 541.493006 
L 740.138422 344.266012 
L 741.968264 738.72 
L 743.798105 738.72 
L 745.627947 516.839632 
L 747.457788 738.72 
L 749.28763 738.72 
L 751.117471 541.493006 
L 752.947313 319.612637 
L 754.777154 689.413251 
L 756.606996 344.266012 
L 758.436837 566.14638 
L 760.266679 541.493006 
L 763.926362 738.72 
L 765.756203 615.453129 
L 767.586045 738.72 
L 769.415886 171.692392 
L 771.245728 442.879509 
L 773.075569 344.266012 
L 774.905411 738.72 
L 776.735252 664.759877 
L 778.565094 516.839632 
L 780.394935 492.186257 
L 782.224777 442.879509 
L 784.054618 467.532883 
L 785.88446 442.879509 
L 787.714301 467.532883 
L 789.544143 689.413251 
L 791.373984 664.759877 
L 793.203826 738.72 
L 795.033667 294.959263 
L 796.863509 664.759877 
L 798.69335 566.14638 
L 800.523192 689.413251 
L 802.353033 714.066626 
L 804.182875 541.493006 
L 806.012716 738.72 
L 807.842558 566.14638 
L 809.672399 541.493006 
L 811.502241 492.186257 
L 813.332082 664.759877 
L 815.161924 615.453129 
L 816.991765 738.72 
L 818.821607 714.066626 
L 820.651448 294.959263 
L 822.48129 664.759877 
L 824.311131 738.72 
L 826.140973 640.106503 
L 827.970814 738.72 
L 829.800656 714.066626 
L 831.630497 566.14638 
L 833.460339 615.453129 
L 835.29018 738.72 
L 838.949863 738.72 
L 840.779705 689.413251 
L 842.609546 738.72 
L 844.439388 738.72 
L 846.269229 516.839632 
L 848.099071 714.066626 
L 849.928912 664.759877 
L 851.758754 738.72 
L 855.418437 738.72 
L 857.248278 171.692392 
L 859.07812 294.959263 
L 860.907961 171.692392 
L 862.737803 442.879509 
L 864.567644 738.72 
L 870.057169 738.72 
L 871.88701 171.692392 
L 873.716852 738.72 
L 875.546693 590.799754 
L 877.376535 689.413251 
L 879.206376 294.959263 
L 881.036218 738.72 
L 882.866059 418.226135 
L 884.695901 171.692392 
L 886.525742 196.345766 
L 888.355584 171.692392 
L 890.185425 171.692392 
L 892.015267 541.493006 
L 893.845108 171.692392 
L 895.67495 393.57276 
L 897.504791 640.106503 
L 899.334633 171.692392 
L 901.164474 516.839632 
L 902.994316 714.066626 
L 904.824157 171.692392 
L 906.653999 319.612637 
L 908.48384 171.692392 
L 910.313682 640.106503 
L 912.143523 171.692392 
L 913.973365 171.692392 
L 915.803206 245.652515 
L 917.633048 467.532883 
L 919.462889 640.106503 
L 921.292731 467.532883 
L 923.122572 171.692392 
L 924.952414 171.692392 
L 926.782255 294.959263 
L 928.612097 319.612637 
L 930.441938 171.692392 
L 932.27178 418.226135 
L 934.101621 171.692392 
L 935.931463 171.692392 
L 937.761304 196.345766 
L 939.591146 171.692392 
L 941.420987 492.186257 
L 943.250829 467.532883 
L 945.08067 171.692392 
L 946.910512 541.493006 
L 948.740353 171.692392 
L 950.570195 566.14638 
L 952.400036 171.692392 
L 954.229878 393.57276 
L 956.059719 171.692392 
L 957.889561 171.692392 
L 959.719402 541.493006 
L 961.549244 467.532883 
L 963.379085 714.066626 
L 965.208927 738.72 
L 967.038768 738.72 
L 968.86861 615.453129 
L 970.698451 418.226135 
L 972.528293 714.066626 
L 974.358134 689.413251 
L 976.187976 640.106503 
L 978.017817 738.72 
L 979.847659 714.066626 
L 981.6775 738.72 
L 983.507342 714.066626 
L 985.337183 640.106503 
L 987.167025 714.066626 
L 988.996866 516.839632 
L 990.826708 590.799754 
L 992.656549 714.066626 
L 994.486391 615.453129 
L 996.316232 171.692392 
L 999.975915 171.692392 
L 1001.805757 738.72 
L 1003.635598 738.72 
L 1005.46544 640.106503 
L 1007.295281 738.72 
L 1009.125123 714.066626 
L 1010.954964 738.72 
L 1012.784806 714.066626 
L 1014.614647 738.72 
L 1016.444489 664.759877 
L 1018.27433 738.72 
L 1025.593696 738.72 
L 1027.423538 640.106503 
L 1029.253379 738.72 
L 1031.083221 171.692392 
L 1032.913062 590.799754 
L 1034.742904 738.72 
L 1038.402587 738.72 
L 1040.232428 640.106503 
L 1042.06227 640.106503 
L 1043.892111 738.72 
L 1045.721953 738.72 
L 1047.551794 689.413251 
L 1049.381636 566.14638 
L 1051.211478 738.72 
L 1053.041319 615.453129 
L 1054.871161 368.919386 
L 1056.701002 442.879509 
L 1058.530844 664.759877 
L 1060.360685 171.692392 
L 1062.190527 171.692392 
L 1065.85021 368.919386 
L 1067.680051 171.692392 
L 1078.6591 171.692392 
L 1080.488942 664.759877 
L 1082.318783 541.493006 
L 1084.148625 171.692392 
L 1085.978466 245.652515 
L 1087.808308 171.692392 
L 1089.638149 640.106503 
L 1091.467991 344.266012 
L 1093.297832 245.652515 
L 1095.127674 714.066626 
L 1096.957515 171.692392 
L 1098.787357 171.692392 
L 1100.617198 714.066626 
L 1104.276881 418.226135 
L 1106.106723 171.692392 
L 1107.936564 171.692392 
L 1109.766406 344.266012 
L 1111.596247 196.345766 
L 1113.426089 171.692392 
L 1115.25593 294.959263 
L 1117.085772 566.14638 
L 1118.915613 294.959263 
L 1120.745455 442.879509 
L 1120.745455 442.879509 
" clip-path="url(#p15815c9b7c)" style="fill: none; stroke: #4169e1; stroke-linecap: square"/>
   </g>
   <g id="line2d_14">
    <path d="M 207.654545 358.061849 
L 209.484387 316.433159 
L 211.314228 302.593896 
L 213.14407 369.133738 
L 214.973911 265.240005 
L 216.803753 333.513782 
L 218.633594 305.174119 
L 220.463436 253.93352 
L 222.293277 281.590038 
L 224.123119 247.152159 
L 225.95296 305.393292 
L 227.782802 303.602154 
L 229.612643 314.532412 
L 231.442485 347.910591 
L 233.272326 291.553042 
L 235.102168 279.804779 
L 236.932009 260.513343 
L 238.761851 272.794183 
L 240.591692 294.13665 
L 242.421534 233.782182 
L 244.251375 237.372403 
L 246.081217 255.989912 
L 247.911058 337.942415 
L 249.7409 338.775796 
L 251.570741 380.83961 
L 253.400583 332.561857 
L 255.230424 333.785807 
L 257.060266 343.405969 
L 258.890107 393.338024 
L 260.719949 398.517796 
L 262.54979 388.416241 
L 264.379632 450.738369 
L 266.209473 447.511374 
L 268.039315 505.728478 
L 269.869156 481.746163 
L 271.698998 499.420046 
L 273.528839 442.701552 
L 275.358681 471.880802 
L 277.188522 540.129304 
L 279.018364 531.934514 
L 280.848206 593.949715 
L 282.678047 578.627066 
L 284.507889 495.871464 
L 286.33773 511.442333 
L 288.167572 532.953141 
L 289.997413 469.028718 
L 291.827255 539.50997 
L 293.657096 539.464569 
L 295.486938 513.607041 
L 297.316779 586.832001 
L 299.146621 546.470005 
L 300.976462 568.187019 
L 302.806304 570.050982 
L 304.636145 533.18468 
L 306.465987 607.437048 
L 308.295828 575.736635 
L 310.12567 601.140502 
L 311.955511 584.274596 
L 313.785353 541.832873 
L 315.615194 587.812198 
L 317.445036 485.989105 
L 319.274877 419.082627 
L 321.104719 471.983899 
L 322.93456 435.910245 
L 324.764402 409.12482 
L 326.594243 413.500577 
L 328.424085 520.777961 
L 330.253926 544.299055 
L 332.083768 585.85111 
L 333.913609 619.632966 
L 335.743451 558.468333 
L 337.573292 570.132755 
L 339.403134 601.23276 
L 341.232975 609.66713 
L 343.062817 626.786334 
L 344.892658 614.897757 
L 346.7225 421.883574 
L 348.552341 331.895688 
L 350.382183 407.601077 
L 352.212024 407.576179 
L 354.041866 394.222612 
L 355.871707 470.588528 
L 357.701549 475.294054 
L 359.53139 312.737419 
L 361.361232 340.750745 
L 363.191073 312.835179 
L 365.020915 323.68705 
L 366.850756 231.940213 
L 368.680598 250.019925 
L 370.510439 276.044713 
L 372.340281 262.189745 
L 374.170122 291.148506 
L 375.999964 284.305545 
L 377.829805 305.175483 
L 379.659647 286.110131 
L 381.489488 246.60397 
L 383.31933 312.10332 
L 385.149171 314.385184 
L 386.979013 332.639538 
L 388.808854 344.360739 
L 390.638696 294.318298 
L 392.468537 338.114659 
L 394.298379 250.352186 
L 396.12822 302.887317 
L 397.958062 317.625839 
L 399.787903 296.225628 
L 401.617745 292.05529 
L 403.447586 320.854786 
L 405.277428 274.884572 
L 407.107269 328.174368 
L 408.937111 319.738423 
L 410.766952 244.09776 
L 412.596794 268.188885 
L 414.426635 214.196384 
L 416.256477 222.696703 
L 418.086318 232.710631 
L 419.91616 279.663523 
L 421.746001 290.599 
L 423.575843 295.289221 
L 425.405684 289.830181 
L 427.235526 266.065628 
L 429.065367 270.077876 
L 430.895209 271.431939 
L 432.72505 317.367685 
L 434.554892 325.298937 
L 436.384733 364.291377 
L 438.214575 439.772915 
L 440.044416 448.311063 
L 441.874258 481.69599 
L 443.704099 450.402933 
L 445.533941 460.335536 
L 447.363782 491.234991 
L 449.193624 466.500267 
L 451.023465 502.888785 
L 452.853307 496.440202 
L 454.683148 502.301755 
L 456.51299 544.386058 
L 458.342831 538.384084 
L 460.172673 493.121207 
L 462.002514 495.221377 
L 463.832356 520.378034 
L 465.662197 472.701182 
L 467.492039 475.162132 
L 469.32188 509.769246 
L 471.151722 424.013909 
L 472.981563 471.988249 
L 474.811405 384.207884 
L 476.641246 227.076762 
L 478.471088 330.83514 
L 480.300929 208.458077 
L 482.130771 223.763645 
L 483.960612 267.140705 
L 485.790454 194.578422 
L 487.620295 182.400938 
L 489.450137 175.376517 
L 491.279978 154.822618 
L 493.10982 219.353162 
L 494.939661 248.213223 
L 496.769503 273.56714 
L 498.599344 327.090638 
L 500.429186 313.492461 
L 502.259027 269.46395 
L 504.088869 379.949661 
L 505.91871 372.677901 
L 507.748552 304.974744 
L 509.578393 328.916384 
L 511.408235 370.581493 
L 513.238076 363.773752 
L 515.067918 388.040836 
L 516.897759 431.33429 
L 518.727601 403.098547 
L 520.557442 478.508494 
L 522.387284 424.853332 
L 524.217125 486.451736 
L 526.046967 503.326541 
L 527.876808 514.07461 
L 529.70665 473.166893 
L 531.536491 537.432794 
L 533.366333 575.644553 
L 535.196174 486.356163 
L 537.026016 404.371331 
L 538.855857 361.76831 
L 540.685699 368.728709 
L 544.345382 488.128068 
L 546.175223 558.317332 
L 548.005065 580.911035 
L 549.834906 525.980986 
L 551.664748 429.298377 
L 553.494589 395.765846 
L 555.324431 473.466568 
L 557.154272 372.5267 
L 558.984114 505.662411 
L 560.813955 547.870079 
L 562.643797 560.288201 
L 564.473638 534.439925 
L 566.30348 557.710753 
L 568.133321 550.232564 
L 569.963163 479.487528 
L 571.793004 426.449866 
L 573.622846 430.719658 
L 577.282529 532.415626 
L 579.11237 569.195501 
L 580.942212 503.386942 
L 582.772053 517.243297 
L 584.601895 386.710285 
L 586.431736 336.162517 
L 588.261578 413.468719 
L 590.091419 372.632994 
L 591.921261 466.866597 
L 593.751102 444.791212 
L 595.580944 361.656231 
L 597.410785 392.300024 
L 599.240627 302.854966 
L 601.070468 345.336199 
L 602.90031 408.175763 
L 604.730151 379.98789 
L 606.559993 401.001293 
L 608.389834 418.695443 
L 610.219676 390.834541 
L 612.049517 433.337734 
L 613.879359 409.829994 
L 617.539042 465.054605 
L 619.368883 449.386564 
L 621.198725 508.674208 
L 623.028566 540.849384 
L 624.858408 444.701069 
L 626.688249 415.777669 
L 628.518091 473.347296 
L 630.347932 458.981756 
L 632.177774 518.106749 
L 634.007615 529.704328 
L 635.837457 461.99983 
L 637.667298 497.820127 
L 639.49714 517.228414 
L 641.326981 517.89724 
L 643.156823 538.864796 
L 644.986664 471.880191 
L 646.816506 414.802044 
L 648.646347 328.37506 
L 650.476189 319.009338 
L 652.30603 326.912094 
L 654.135872 213.46222 
L 655.965713 243.241714 
L 657.795555 201.326069 
L 659.625396 133.92 
L 661.455238 148.460886 
L 663.285079 148.253658 
L 665.114921 151.785336 
L 666.944762 202.091314 
L 668.774604 178.198765 
L 670.604445 192.033655 
L 672.434287 199.565684 
L 674.264128 180.367352 
L 676.09397 189.198475 
L 677.923811 191.424054 
L 679.753653 196.074305 
L 681.583494 202.328825 
L 683.413336 200.890169 
L 685.243177 322.801286 
L 687.073019 363.251684 
L 688.90286 315.371013 
L 690.732702 349.467438 
L 692.562543 291.754721 
L 694.392385 238.800902 
L 696.222226 245.337604 
L 698.052068 367.996192 
L 699.881909 420.122367 
L 701.711751 479.24033 
L 703.541592 560.171303 
L 705.371434 587.124093 
L 707.201275 593.648629 
L 709.031117 587.301533 
L 710.860958 601.24086 
L 712.6908 577.639486 
L 714.520641 441.422514 
L 716.350483 534.292791 
L 718.180324 550.891867 
L 720.010166 546.597413 
L 721.840007 577.574666 
L 723.669849 462.960807 
L 725.49969 449.158645 
L 727.329532 492.533284 
L 729.159373 499.191023 
L 730.989215 545.155841 
L 732.819056 460.679577 
L 734.648898 408.492625 
L 736.478739 502.308902 
L 738.308581 399.675421 
L 740.138422 471.249548 
L 741.968264 467.695252 
L 743.798105 514.465626 
L 745.627947 566.94527 
L 747.457788 526.117633 
L 749.28763 578.307818 
L 751.117471 588.613463 
L 752.947313 542.02509 
L 754.777154 477.155302 
L 756.606996 528.505675 
L 758.436837 443.954092 
L 760.266679 428.063775 
L 762.09652 436.277115 
L 763.926362 416.921916 
L 765.756203 484.294458 
L 767.586045 501.320746 
L 769.415886 532.303266 
L 771.245728 458.430652 
L 773.075569 419.524498 
L 776.735252 369.187321 
L 778.565094 467.2365 
L 780.394935 474.064649 
L 782.224777 500.595305 
L 784.054618 465.584032 
L 785.88446 454.048712 
L 787.714301 450.753299 
L 789.544143 446.990082 
L 795.033667 544.77068 
L 796.863509 514.692651 
L 798.69335 526.468234 
L 800.523192 519.182038 
L 802.353033 508.093761 
L 804.182875 558.613574 
L 806.012716 538.948755 
L 807.842558 579.696853 
L 809.672399 583.521129 
L 811.502241 579.496431 
L 813.332082 587.105085 
L 815.161924 593.580294 
L 816.991765 596.108933 
L 820.651448 621.947511 
L 822.48129 571.786703 
L 824.311131 604.228545 
L 826.140973 653.500368 
L 827.970814 655.366811 
L 829.800656 730.19257 
L 831.630497 738.72 
L 833.460339 738.72 
L 835.29018 717.836329 
L 837.120022 724.44006 
L 838.949863 732.246675 
L 840.779705 738.72 
L 842.609546 733.879496 
L 844.439388 727.698735 
L 846.269229 729.322199 
L 848.099071 693.840075 
L 849.928912 694.872056 
L 851.758754 688.640165 
L 853.588595 695.658605 
L 855.418437 705.061825 
L 857.248278 705.166248 
L 859.07812 599.590003 
L 860.907961 541.295111 
L 862.737803 430.717659 
L 864.567644 429.488607 
L 866.397486 546.328573 
L 868.227327 616.28912 
L 870.057169 670.107444 
L 871.88701 682.762801 
L 873.716852 461.211732 
L 875.546693 520.998262 
L 877.376535 449.638864 
L 879.206376 410.938434 
L 881.036218 399.782304 
L 882.866059 442.433288 
L 884.695901 381.035553 
L 886.525742 273.689775 
L 888.355584 336.08634 
L 890.185425 258.374803 
L 892.015267 216.842674 
L 893.845108 267.887236 
L 895.67495 209.897391 
L 899.334633 346.242324 
L 901.164474 236.346558 
L 902.994316 373.344446 
L 904.824157 420.937456 
L 906.653999 276.319466 
L 908.48384 356.681713 
L 910.313682 318.325253 
L 912.143523 341.283887 
L 913.973365 286.874295 
L 915.803206 293.449603 
L 917.633048 327.925947 
L 919.462889 308.035067 
L 921.292731 338.789198 
L 923.122572 341.857233 
L 924.952414 305.427336 
L 926.782255 312.279325 
L 928.612097 295.721734 
L 930.441938 281.144358 
L 932.27178 239.471585 
L 934.101621 268.010435 
L 935.931463 273.159219 
L 937.761304 228.716533 
L 939.591146 259.340647 
L 941.420987 202.38718 
L 943.250829 244.834322 
L 945.08067 306.398728 
L 946.910512 299.081545 
L 948.740353 387.234022 
L 950.570195 338.888698 
L 952.400036 350.906446 
L 954.229878 373.829813 
L 956.059719 339.900953 
L 957.889561 361.859557 
L 959.719402 298.24017 
L 961.549244 390.994324 
L 963.379085 405.338209 
L 965.208927 491.649259 
L 967.038768 601.21515 
L 968.86861 619.657476 
L 970.698451 624.352763 
L 972.528293 588.097943 
L 974.358134 600.183369 
L 976.187976 604.190692 
L 978.017817 601.377542 
L 979.847659 639.465879 
L 981.6775 642.680025 
L 983.507342 638.790212 
L 985.337183 632.7298 
L 987.167025 617.305959 
L 988.996866 621.425443 
L 990.826708 601.257235 
L 992.656549 593.803733 
L 994.486391 604.398402 
L 996.316232 578.552524 
L 998.146074 509.297116 
L 999.975915 419.513425 
L 1001.805757 319.103195 
L 1003.635598 357.519561 
L 1005.46544 509.188047 
L 1007.295281 647.34028 
L 1009.125123 719.565393 
L 1010.954964 721.195219 
L 1012.784806 723.611229 
L 1014.614647 713.911334 
L 1016.444489 714.387969 
L 1018.27433 695.43417 
L 1020.104172 698.381248 
L 1021.934013 702.773824 
L 1023.763855 705.648464 
L 1025.593696 702.976021 
L 1027.423538 696.061104 
L 1029.253379 672.980141 
L 1031.083221 681.661027 
L 1032.913062 561.299963 
L 1034.742904 607.970496 
L 1036.572745 642.160567 
L 1038.402587 640.645147 
L 1040.232428 683.121207 
L 1042.06227 653.975225 
L 1043.892111 633.747498 
L 1045.721953 643.927699 
L 1047.551794 648.79356 
L 1049.381636 635.279917 
L 1051.211478 549.772354 
L 1053.041319 546.846726 
L 1054.871161 479.336773 
L 1056.701002 386.590283 
L 1060.360685 397.32441 
L 1062.190527 267.96487 
L 1064.020368 266.18215 
L 1065.85021 285.976305 
L 1067.680051 250.916457 
L 1069.509893 226.760018 
L 1071.339734 246.272507 
L 1073.169576 246.938864 
L 1074.999417 228.503333 
L 1076.829259 233.578057 
L 1078.6591 252.715306 
L 1080.488942 250.224144 
L 1082.318783 313.092769 
L 1084.148625 345.697755 
L 1085.978466 287.0045 
L 1087.808308 349.865884 
L 1089.638149 304.934163 
L 1091.467991 333.842375 
L 1093.297832 313.018379 
L 1095.127674 294.856754 
L 1096.957515 389.456686 
L 1098.787357 267.435019 
L 1100.617198 283.148367 
L 1102.44704 363.617684 
L 1104.276881 349.181658 
L 1106.106723 352.268902 
L 1109.766406 313.097142 
L 1111.596247 318.157618 
L 1113.426089 213.62379 
L 1115.25593 220.238832 
L 1117.085772 245.82852 
L 1118.915613 269.791697 
L 1120.745455 317.979026 
L 1120.745455 317.979026 
" clip-path="url(#p15815c9b7c)" style="fill: none; stroke: #ff6347; stroke-linecap: square"/>
   </g>
   <g id="line2d_15">
    <path d="M 207.654545 738.72 
L 1120.745455 738.72 
L 1120.745455 738.72 
" clip-path="url(#p15815c9b7c)" style="fill: none; stroke: #da70d6; stroke-linecap: square"/>
   </g>
   <g id="line2d_16">
    <path d="M 207.654545 371.243453 
L 209.484387 325.107132 
L 211.314228 296.40201 
L 213.14407 395.019245 
L 214.973911 290.17481 
L 216.803753 326.085343 
L 218.633594 296.51256 
L 220.463436 251.287183 
L 222.293277 271.359289 
L 224.123119 257.923339 
L 225.95296 302.477703 
L 227.782802 307.904109 
L 229.612643 317.164266 
L 231.442485 288.404598 
L 233.272326 253.884852 
L 235.102168 301.509226 
L 236.932009 273.157996 
L 238.761851 273.32455 
L 240.591692 278.955551 
L 242.421534 253.181864 
L 244.251375 242.399822 
L 246.081217 314.157877 
L 247.911058 378.367562 
L 249.7409 306.040275 
L 251.570741 350.494717 
L 253.400583 303.06652 
L 255.230424 352.525222 
L 257.060266 341.858221 
L 258.890107 388.976256 
L 260.719949 394.757047 
L 262.54979 382.626985 
L 264.379632 443.016345 
L 266.209473 441.724446 
L 268.039315 472.982447 
L 269.869156 478.603385 
L 271.698998 523.800384 
L 273.528839 487.194693 
L 275.358681 544.004811 
L 277.188522 588.449777 
L 279.018364 567.599683 
L 280.848206 588.058056 
L 282.678047 582.341568 
L 284.507889 504.836225 
L 288.167572 570.791811 
L 289.997413 476.432941 
L 291.827255 544.633327 
L 293.657096 602.513479 
L 295.486938 576.609304 
L 297.316779 612.092872 
L 299.146621 531.335988 
L 300.976462 531.516672 
L 302.806304 535.620497 
L 304.636145 506.626116 
L 306.465987 587.917999 
L 308.295828 541.238191 
L 310.12567 583.109929 
L 311.955511 564.344252 
L 313.785353 524.891567 
L 315.615194 581.475012 
L 317.445036 477.397374 
L 319.274877 391.908725 
L 321.104719 469.013883 
L 322.93456 428.792508 
L 324.764402 399.824882 
L 326.594243 390.841548 
L 328.424085 564.444868 
L 330.253926 577.994283 
L 332.083768 598.335005 
L 333.913609 594.602388 
L 335.743451 528.218555 
L 337.573292 568.026907 
L 339.403134 598.080449 
L 341.232975 596.723153 
L 343.062817 607.185948 
L 344.892658 592.642146 
L 346.7225 414.726503 
L 348.552341 302.959121 
L 350.382183 431.228536 
L 352.212024 472.567426 
L 354.041866 453.477364 
L 355.871707 487.658383 
L 357.701549 493.006848 
L 359.53139 324.56562 
L 361.361232 336.060478 
L 363.191073 314.364212 
L 365.020915 328.009177 
L 366.850756 283.625975 
L 368.680598 245.487277 
L 370.510439 278.471501 
L 374.170122 321.329291 
L 375.999964 282.997142 
L 377.829805 284.799941 
L 379.659647 286.772538 
L 381.489488 276.339262 
L 383.31933 338.604305 
L 385.149171 358.869321 
L 386.979013 343.062281 
L 388.808854 344.790266 
L 390.638696 278.725564 
L 392.468537 361.164164 
L 394.298379 285.950536 
L 396.12822 289.431195 
L 397.958062 309.679353 
L 401.617745 278.534887 
L 403.447586 318.392355 
L 405.277428 270.321218 
L 407.107269 285.016856 
L 408.937111 298.084807 
L 410.766952 256.577365 
L 412.596794 263.187517 
L 414.426635 240.473354 
L 416.256477 243.990455 
L 418.086318 271.61575 
L 419.91616 321.463963 
L 421.746001 273.977506 
L 423.575843 257.743195 
L 425.405684 259.416964 
L 427.235526 269.626178 
L 429.065367 256.260715 
L 430.895209 244.2677 
L 432.72505 315.316372 
L 434.554892 308.238769 
L 436.384733 325.795354 
L 438.214575 447.075287 
L 440.044416 437.776618 
L 441.874258 447.278424 
L 443.704099 423.311227 
L 445.533941 442.366587 
L 447.363782 483.847696 
L 449.193624 430.978047 
L 451.023465 483.230431 
L 452.853307 486.537059 
L 454.683148 495.113037 
L 456.51299 516.08412 
L 458.342831 510.45989 
L 460.172673 495.045794 
L 462.002514 493.961642 
L 463.832356 500.242401 
L 465.662197 450.996923 
L 467.492039 422.092166 
L 469.32188 419.862638 
L 471.151722 351.92773 
L 472.981563 378.171196 
L 474.811405 337.207734 
L 476.641246 228.581861 
L 478.471088 312.818815 
L 480.300929 221.211212 
L 482.130771 208.411196 
L 483.960612 259.00909 
L 485.790454 190.858513 
L 487.620295 182.587241 
L 489.450137 183.137829 
L 491.279978 170.718366 
L 493.10982 225.769769 
L 494.939661 250.735609 
L 496.769503 259.760417 
L 498.599344 319.065577 
L 500.429186 304.677326 
L 502.259027 279.799372 
L 504.088869 369.976289 
L 505.91871 341.483404 
L 507.748552 300.228943 
L 509.578393 364.270781 
L 511.408235 365.131388 
L 513.238076 330.177765 
L 515.067918 331.989545 
L 516.897759 386.074305 
L 518.727601 380.750173 
L 520.557442 488.518167 
L 522.387284 443.046909 
L 524.217125 499.681374 
L 526.046967 551.64156 
L 527.876808 570.746352 
L 529.70665 515.234046 
L 531.536491 551.986882 
L 533.366333 573.391419 
L 535.196174 471.650791 
L 537.026016 320.297898 
L 538.855857 379.253092 
L 540.685699 506.025849 
L 542.51554 542.439253 
L 544.345382 539.2568 
L 546.175223 505.215462 
L 548.005065 511.840567 
L 549.834906 479.203817 
L 551.664748 370.281019 
L 553.494589 376.976211 
L 555.324431 564.003796 
L 557.154272 478.021998 
L 560.813955 579.578968 
L 562.643797 571.718932 
L 564.473638 516.93229 
L 566.30348 549.29645 
L 568.133321 551.735441 
L 569.963163 479.736395 
L 571.793004 402.5726 
L 573.622846 469.35797 
L 575.452687 516.812876 
L 579.11237 544.201436 
L 580.942212 488.284606 
L 582.772053 540.940726 
L 584.601895 390.927293 
L 586.431736 380.364682 
L 588.261578 443.853535 
L 590.091419 401.11497 
L 591.921261 470.691202 
L 593.751102 443.795932 
L 595.580944 374.980079 
L 597.410785 406.371319 
L 599.240627 355.737405 
L 601.070468 407.82963 
L 602.90031 465.579824 
L 604.730151 371.818163 
L 606.559993 413.15221 
L 608.389834 419.909872 
L 610.219676 438.729602 
L 612.049517 435.726834 
L 613.879359 403.622285 
L 615.7092 433.980909 
L 617.539042 472.420222 
L 619.368883 443.382016 
L 621.198725 475.687633 
L 623.028566 502.019008 
L 624.858408 412.25643 
L 626.688249 425.331011 
L 628.518091 483.797617 
L 630.347932 498.592896 
L 634.007615 538.253315 
L 635.837457 482.409793 
L 637.667298 520.171416 
L 639.49714 550.714216 
L 641.326981 525.244965 
L 643.156823 528.909622 
L 644.986664 433.832176 
L 646.816506 371.806619 
L 648.646347 322.555405 
L 650.476189 307.27316 
L 652.30603 308.670389 
L 654.135872 211.717589 
L 655.965713 237.979746 
L 657.795555 196.473479 
L 659.625396 164.498125 
L 661.455238 170.487956 
L 663.285079 169.153643 
L 665.114921 168.991791 
L 666.944762 199.350368 
L 668.774604 191.202248 
L 670.604445 184.33667 
L 672.434287 200.187981 
L 674.264128 186.010861 
L 676.09397 196.364575 
L 677.923811 201.940701 
L 679.753653 211.486473 
L 681.583494 223.221851 
L 683.413336 203.772606 
L 685.243177 329.902636 
L 687.073019 375.017157 
L 688.90286 291.650049 
L 690.732702 343.95444 
L 694.392385 214.639336 
L 696.222226 227.216795 
L 698.052068 341.62386 
L 699.881909 445.873483 
L 701.711751 518.744352 
L 703.541592 602.639629 
L 705.371434 615.363504 
L 707.201275 615.333844 
L 709.031117 597.327617 
L 710.860958 585.489189 
L 712.6908 559.026115 
L 714.520641 361.940624 
L 716.350483 531.201973 
L 718.180324 573.251139 
L 721.840007 562.611881 
L 723.669849 391.026229 
L 725.49969 451.666853 
L 727.329532 556.876149 
L 729.159373 568.865719 
L 730.989215 563.507708 
L 732.819056 448.237473 
L 734.648898 391.004881 
L 736.478739 593.921595 
L 738.308581 515.045955 
L 740.138422 511.835818 
L 741.968264 518.283272 
L 743.798105 548.197332 
L 745.627947 594.388283 
L 747.457788 563.757586 
L 749.28763 588.468986 
L 751.117471 592.178292 
L 752.947313 566.972661 
L 754.777154 523.437934 
L 756.606996 588.165996 
L 758.436837 507.462718 
L 760.266679 412.510211 
L 762.09652 495.746149 
L 763.926362 488.571867 
L 765.756203 522.211256 
L 767.586045 520.607598 
L 769.415886 541.433029 
L 771.245728 462.49037 
L 773.075569 476.408277 
L 774.905411 446.381868 
L 776.735252 456.066239 
L 778.565094 518.468776 
L 780.394935 502.85333 
L 782.224777 530.96237 
L 784.054618 512.760423 
L 785.88446 510.679345 
L 787.714301 500.012014 
L 789.544143 493.730808 
L 791.373984 524.415816 
L 795.033667 541.135752 
L 796.863509 510.005417 
L 798.69335 536.577242 
L 800.523192 533.793717 
L 802.353033 533.075729 
L 804.182875 558.880721 
L 806.012716 539.031562 
L 807.842558 570.927072 
L 811.502241 564.461879 
L 813.332082 612.842435 
L 815.161924 624.208921 
L 816.991765 623.869418 
L 818.821607 630.405486 
L 820.651448 655.934145 
L 822.48129 630.901327 
L 824.311131 637.118606 
L 826.140973 662.482485 
L 827.970814 664.534639 
L 829.800656 694.320069 
L 831.630497 706.154507 
L 833.460339 683.538985 
L 835.29018 656.506797 
L 837.120022 664.802115 
L 840.779705 703.160109 
L 842.609546 689.74459 
L 844.439388 688.869447 
L 846.269229 688.81409 
L 848.099071 643.855208 
L 849.928912 660.191945 
L 851.758754 654.854412 
L 853.588595 662.747998 
L 855.418437 665.726538 
L 857.248278 666.031074 
L 859.07812 551.778419 
L 860.907961 489.591105 
L 862.737803 387.897887 
L 864.567644 425.065827 
L 866.397486 551.051662 
L 868.227327 623.921249 
L 870.057169 675.138172 
L 871.88701 669.195682 
L 873.716852 496.587853 
L 875.546693 503.466927 
L 877.376535 432.091447 
L 879.206376 422.897593 
L 881.036218 439.900064 
L 882.866059 401.034139 
L 884.695901 367.956105 
L 886.525742 269.803124 
L 888.355584 276.813156 
L 890.185425 256.728683 
L 892.015267 243.075442 
L 893.845108 280.744619 
L 895.67495 253.603939 
L 897.504791 252.282134 
L 899.334633 314.182376 
L 901.164474 253.302759 
L 902.994316 309.046758 
L 904.824157 387.522882 
L 906.653999 286.329585 
L 908.48384 344.010961 
L 910.313682 306.317285 
L 912.143523 317.222762 
L 913.973365 285.050947 
L 915.803206 275.472213 
L 917.633048 303.179845 
L 919.462889 310.006207 
L 921.292731 349.576107 
L 923.122572 341.647512 
L 924.952414 288.834431 
L 926.782255 280.703334 
L 928.612097 280.564993 
L 930.441938 286.655969 
L 932.27178 268.596524 
L 934.101621 288.919119 
L 935.931463 261.107614 
L 937.761304 209.637545 
L 939.591146 237.171428 
L 941.420987 222.008715 
L 943.250829 276.514844 
L 945.08067 321.966776 
L 946.910512 250.058624 
L 948.740353 376.524536 
L 950.570195 292.357222 
L 952.400036 321.198333 
L 954.229878 324.210787 
L 956.059719 315.18311 
L 957.889561 341.438215 
L 959.719402 288.03058 
L 961.549244 404.444874 
L 963.379085 421.696589 
L 965.208927 485.581043 
L 967.038768 567.910068 
L 970.698451 587.576263 
L 972.528293 568.855222 
L 974.358134 601.773414 
L 976.187976 599.151482 
L 978.017817 593.991541 
L 979.847659 613.138536 
L 981.6775 611.184137 
L 983.507342 603.215314 
L 985.337183 606.988136 
L 987.167025 605.966276 
L 988.996866 612.994553 
L 990.826708 611.72385 
L 992.656549 601.909779 
L 994.486391 604.994625 
L 996.316232 629.297916 
L 998.146074 606.867229 
L 999.975915 477.87376 
L 1001.805757 264.023672 
L 1003.635598 314.013706 
L 1005.46544 508.389933 
L 1007.295281 649.20238 
L 1009.125123 681.128184 
L 1010.954964 679.605781 
L 1012.784806 686.963616 
L 1014.614647 682.896122 
L 1016.444489 679.523498 
L 1018.27433 652.166037 
L 1020.104172 665.180124 
L 1021.934013 672.262794 
L 1023.763855 671.137462 
L 1025.593696 667.397932 
L 1027.423538 667.402011 
L 1029.253379 649.349737 
L 1031.083221 660.767772 
L 1032.913062 545.496955 
L 1034.742904 638.79924 
L 1036.572745 654.310496 
L 1038.402587 653.538362 
L 1040.232428 657.211301 
L 1042.06227 635.551508 
L 1043.892111 619.895704 
L 1045.721953 630.42928 
L 1047.551794 630.798571 
L 1049.381636 607.594562 
L 1051.211478 536.152275 
L 1053.041319 518.962631 
L 1054.871161 493.436729 
L 1056.701002 431.062335 
L 1058.530844 390.656161 
L 1060.360685 391.023525 
L 1062.190527 266.021756 
L 1064.020368 251.310554 
L 1065.85021 288.969574 
L 1067.680051 306.096373 
L 1069.509893 259.461212 
L 1071.339734 236.667863 
L 1073.169576 267.434314 
L 1074.999417 258.463534 
L 1076.829259 256.263113 
L 1078.6591 298.082785 
L 1080.488942 301.42167 
L 1082.318783 382.095795 
L 1084.148625 447.0889 
L 1085.978466 298.262364 
L 1087.808308 343.477396 
L 1089.638149 326.337901 
L 1091.467991 383.555916 
L 1093.297832 346.98307 
L 1095.127674 277.643857 
L 1096.957515 413.050947 
L 1098.787357 292.033048 
L 1100.617198 250.849168 
L 1102.44704 381.241653 
L 1104.276881 400.445416 
L 1106.106723 379.35727 
L 1107.936564 338.921707 
L 1109.766406 321.603197 
L 1111.596247 317.419834 
L 1113.426089 251.448612 
L 1115.25593 252.195048 
L 1117.085772 283.999993 
L 1118.915613 310.58308 
L 1120.745455 331.183531 
L 1120.745455 331.183531 
" clip-path="url(#p15815c9b7c)" style="fill: none; stroke: #8fbc8f; stroke-linecap: square"/>
   </g>
   <g id="patch_3">
    <path d="M 162 768.96 
L 162 103.68 
" style="fill: none; stroke: #000000; stroke-width: 0.8; stroke-linejoin: miter; stroke-linecap: square"/>
   </g>
   <g id="patch_4">
    <path d="M 1166.4 768.96 
L 1166.4 103.68 
" style="fill: none; stroke: #000000; stroke-width: 0.8; stroke-linejoin: miter; stroke-linecap: square"/>
   </g>
   <g id="patch_5">
    <path d="M 162 768.96 
L 1166.4 768.96 
" style="fill: none; stroke: #000000; stroke-width: 0.8; stroke-linejoin: miter; stroke-linecap: square"/>
   </g>
   <g id="patch_6">
    <path d="M 162 103.68 
L 1166.4 103.68 
" style="fill: none; stroke: #000000; stroke-width: 0.8; stroke-linejoin: miter; stroke-linecap: square"/>
   </g>
   <g id="text_13">
    <!-- Function 1 -->
    <g transform="translate(632.957813 97.68) scale(0.12 -0.12)">
     <defs>
      <path id="DejaVuSans-46" d="M 628 4666 
L 3309 4666 
L 3309 4134 
L 1259 4134 
L 1259 2759 
L 3109 2759 
L 3109 2228 
L 1259 2228 
L 1259 0 
L 628 0 
L 628 4666 
z
" transform="scale(0.015625)"/>
      <path id="DejaVuSans-75" d="M 544 1381 
L 544 3500 
L 1119 3500 
L 1119 1403 
Q 1119 906 1312 657 
Q 1506 409 1894 409 
Q 2359 409 2629 706 
Q 2900 1003 2900 1516 
L 2900 3500 
L 3475 3500 
L 3475 0 
L 2900 0 
L 2900 538 
Q 2691 219 2414 64 
Q 2138 -91 1772 -91 
Q 1169 -91 856 284 
Q 544 659 544 1381 
z
M 1991 3584 
L 1991 3584 
z
" transform="scale(0.015625)"/>
      <path id="DejaVuSans-6e" d="M 3513 2113 
L 3513 0 
L 2938 0 
L 2938 2094 
Q 2938 2591 2744 2837 
Q 2550 3084 2163 3084 
Q 1697 3084 1428 2787 
Q 1159 2491 1159 1978 
L 1159 0 
L 581 0 
L 581 3500 
L 1159 3500 
L 1159 2956 
Q 1366 3272 1645 3428 
Q 1925 3584 2291 3584 
Q 2894 3584 3203 3211 
Q 3513 2838 3513 2113 
z
" transform="scale(0.015625)"/>
      <path id="DejaVuSans-63" d="M 3122 3366 
L 3122 2828 
Q 2878 2963 2633 3030 
Q 2388 3097 2138 3097 
Q 1578 3097 1268 2742 
Q 959 2388 959 1747 
Q 959 1106 1268 751 
Q 1578 397 2138 397 
Q 2388 397 2633 464 
Q 2878 531 3122 666 
L 3122 134 
Q 2881 22 2623 -34 
Q 2366 -91 2075 -91 
Q 1284 -91 818 406 
Q 353 903 353 1747 
Q 353 2603 823 3093 
Q 1294 3584 2113 3584 
Q 2378 3584 2631 3529 
Q 2884 3475 3122 3366 
z
" transform="scale(0.015625)"/>
      <path id="DejaVuSans-74" d="M 1172 4494 
L 1172 3500 
L 2356 3500 
L 2356 3053 
L 1172 3053 
L 1172 1153 
Q 1172 725 1289 603 
Q 1406 481 1766 481 
L 2356 481 
L 2356 0 
L 1766 0 
Q 1100 0 847 248 
Q 594 497 594 1153 
L 594 3053 
L 172 3053 
L 172 3500 
L 594 3500 
L 594 4494 
L 1172 4494 
z
" transform="scale(0.015625)"/>
      <path id="DejaVuSans-69" d="M 603 3500 
L 1178 3500 
L 1178 0 
L 603 0 
L 603 3500 
z
M 603 4863 
L 1178 4863 
L 1178 4134 
L 603 4134 
L 603 4863 
z
" transform="scale(0.015625)"/>
      <path id="DejaVuSans-6f" d="M 1959 3097 
Q 1497 3097 1228 2736 
Q 959 2375 959 1747 
Q 959 1119 1226 758 
Q 1494 397 1959 397 
Q 2419 397 2687 759 
Q 2956 1122 2956 1747 
Q 2956 2369 2687 2733 
Q 2419 3097 1959 3097 
z
M 1959 3584 
Q 2709 3584 3137 3096 
Q 3566 2609 3566 1747 
Q 3566 888 3137 398 
Q 2709 -91 1959 -91 
Q 1206 -91 779 398 
Q 353 888 353 1747 
Q 353 2609 779 3096 
Q 1206 3584 1959 3584 
z
" transform="scale(0.015625)"/>
      <path id="DejaVuSans-20" transform="scale(0.015625)"/>
     </defs>
     <use xlink:href="#DejaVuSans-46"/>
     <use xlink:href="#DejaVuSans-75" x="52.019531"/>
     <use xlink:href="#DejaVuSans-6e" x="115.398438"/>
     <use xlink:href="#DejaVuSans-63" x="178.777344"/>
     <use xlink:href="#DejaVuSans-74" x="233.757812"/>
     <use xlink:href="#DejaVuSans-69" x="272.966797"/>
     <use xlink:href="#DejaVuSans-6f" x="300.75"/>
     <use xlink:href="#DejaVuSans-6e" x="361.931641"/>
     <use xlink:href="#DejaVuSans-20" x="425.310547"/>
     <use xlink:href="#DejaVuSans-31" x="457.097656"/>
    </g>
   </g>
   <g id="legend_1">
    <g id="patch_7">
     <path d="M 1011.90625 170.3925 
L 1159.4 170.3925 
Q 1161.4 170.3925 1161.4 168.3925 
L 1161.4 110.68 
Q 1161.4 108.68 1159.4 108.68 
L 1011.90625 108.68 
Q 1009.90625 108.68 1009.90625 110.68 
L 1009.90625 168.3925 
Q 1009.90625 170.3925 1011.90625 170.3925 
z
" style="fill: #ffffff; opacity: 0.8; stroke: #cccccc; stroke-linejoin: miter"/>
    </g>
    <g id="line2d_17">
     <path d="M 1013.90625 116.778437 
L 1023.90625 116.778437 
L 1033.90625 116.778437 
" style="fill: none; stroke: #4169e1; stroke-linecap: square"/>
    </g>
    <g id="text_14">
     <!-- Truth -->
     <g transform="translate(1041.90625 120.278437) scale(0.1 -0.1)">
      <defs>
       <path id="DejaVuSans-54" d="M -19 4666 
L 3928 4666 
L 3928 4134 
L 2272 4134 
L 2272 0 
L 1638 0 
L 1638 4134 
L -19 4134 
L -19 4666 
z
" transform="scale(0.015625)"/>
       <path id="DejaVuSans-72" d="M 2631 2963 
Q 2534 3019 2420 3045 
Q 2306 3072 2169 3072 
Q 1681 3072 1420 2755 
Q 1159 2438 1159 1844 
L 1159 0 
L 581 0 
L 581 3500 
L 1159 3500 
L 1159 2956 
Q 1341 3275 1631 3429 
Q 1922 3584 2338 3584 
Q 2397 3584 2469 3576 
Q 2541 3569 2628 3553 
L 2631 2963 
z
" transform="scale(0.015625)"/>
       <path id="DejaVuSans-68" d="M 3513 2113 
L 3513 0 
L 2938 0 
L 2938 2094 
Q 2938 2591 2744 2837 
Q 2550 3084 2163 3084 
Q 1697 3084 1428 2787 
Q 1159 2491 1159 1978 
L 1159 0 
L 581 0 
L 581 4863 
L 1159 4863 
L 1159 2956 
Q 1366 3272 1645 3428 
Q 1925 3584 2291 3584 
Q 2894 3584 3203 3211 
Q 3513 2838 3513 2113 
z
" transform="scale(0.015625)"/>
      </defs>
      <use xlink:href="#DejaVuSans-54"/>
      <use xlink:href="#DejaVuSans-72" x="46.333984"/>
      <use xlink:href="#DejaVuSans-75" x="87.447266"/>
      <use xlink:href="#DejaVuSans-74" x="150.826172"/>
      <use xlink:href="#DejaVuSans-68" x="190.035156"/>
     </g>
    </g>
    <g id="line2d_18">
     <path d="M 1013.90625 131.456562 
L 1023.90625 131.456562 
L 1033.90625 131.456562 
" style="fill: none; stroke: #ff6347; stroke-linecap: square"/>
    </g>
    <g id="text_15">
     <!-- Gossip predictions -->
     <g transform="translate(1041.90625 134.956562) scale(0.1 -0.1)">
      <defs>
       <path id="DejaVuSans-47" d="M 3809 666 
L 3809 1919 
L 2778 1919 
L 2778 2438 
L 4434 2438 
L 4434 434 
Q 4069 175 3628 42 
Q 3188 -91 2688 -91 
Q 1594 -91 976 548 
Q 359 1188 359 2328 
Q 359 3472 976 4111 
Q 1594 4750 2688 4750 
Q 3144 4750 3555 4637 
Q 3966 4525 4313 4306 
L 4313 3634 
Q 3963 3931 3569 4081 
Q 3175 4231 2741 4231 
Q 1884 4231 1454 3753 
Q 1025 3275 1025 2328 
Q 1025 1384 1454 906 
Q 1884 428 2741 428 
Q 3075 428 3337 486 
Q 3600 544 3809 666 
z
" transform="scale(0.015625)"/>
       <path id="DejaVuSans-73" d="M 2834 3397 
L 2834 2853 
Q 2591 2978 2328 3040 
Q 2066 3103 1784 3103 
Q 1356 3103 1142 2972 
Q 928 2841 928 2578 
Q 928 2378 1081 2264 
Q 1234 2150 1697 2047 
L 1894 2003 
Q 2506 1872 2764 1633 
Q 3022 1394 3022 966 
Q 3022 478 2636 193 
Q 2250 -91 1575 -91 
Q 1294 -91 989 -36 
Q 684 19 347 128 
L 347 722 
Q 666 556 975 473 
Q 1284 391 1588 391 
Q 1994 391 2212 530 
Q 2431 669 2431 922 
Q 2431 1156 2273 1281 
Q 2116 1406 1581 1522 
L 1381 1569 
Q 847 1681 609 1914 
Q 372 2147 372 2553 
Q 372 3047 722 3315 
Q 1072 3584 1716 3584 
Q 2034 3584 2315 3537 
Q 2597 3491 2834 3397 
z
" transform="scale(0.015625)"/>
       <path id="DejaVuSans-70" d="M 1159 525 
L 1159 -1331 
L 581 -1331 
L 581 3500 
L 1159 3500 
L 1159 2969 
Q 1341 3281 1617 3432 
Q 1894 3584 2278 3584 
Q 2916 3584 3314 3078 
Q 3713 2572 3713 1747 
Q 3713 922 3314 415 
Q 2916 -91 2278 -91 
Q 1894 -91 1617 61 
Q 1341 213 1159 525 
z
M 3116 1747 
Q 3116 2381 2855 2742 
Q 2594 3103 2138 3103 
Q 1681 3103 1420 2742 
Q 1159 2381 1159 1747 
Q 1159 1113 1420 752 
Q 1681 391 2138 391 
Q 2594 391 2855 752 
Q 3116 1113 3116 1747 
z
" transform="scale(0.015625)"/>
       <path id="DejaVuSans-65" d="M 3597 1894 
L 3597 1613 
L 953 1613 
Q 991 1019 1311 708 
Q 1631 397 2203 397 
Q 2534 397 2845 478 
Q 3156 559 3463 722 
L 3463 178 
Q 3153 47 2828 -22 
Q 2503 -91 2169 -91 
Q 1331 -91 842 396 
Q 353 884 353 1716 
Q 353 2575 817 3079 
Q 1281 3584 2069 3584 
Q 2775 3584 3186 3129 
Q 3597 2675 3597 1894 
z
M 3022 2063 
Q 3016 2534 2758 2815 
Q 2500 3097 2075 3097 
Q 1594 3097 1305 2825 
Q 1016 2553 972 2059 
L 3022 2063 
z
" transform="scale(0.015625)"/>
       <path id="DejaVuSans-64" d="M 2906 2969 
L 2906 4863 
L 3481 4863 
L 3481 0 
L 2906 0 
L 2906 525 
Q 2725 213 2448 61 
Q 2172 -91 1784 -91 
Q 1150 -91 751 415 
Q 353 922 353 1747 
Q 353 2572 751 3078 
Q 1150 3584 1784 3584 
Q 2172 3584 2448 3432 
Q 2725 3281 2906 2969 
z
M 947 1747 
Q 947 1113 1208 752 
Q 1469 391 1925 391 
Q 2381 391 2643 752 
Q 2906 1113 2906 1747 
Q 2906 2381 2643 2742 
Q 2381 3103 1925 3103 
Q 1469 3103 1208 2742 
Q 947 2381 947 1747 
z
" transform="scale(0.015625)"/>
      </defs>
      <use xlink:href="#DejaVuSans-47"/>
      <use xlink:href="#DejaVuSans-6f" x="77.490234"/>
      <use xlink:href="#DejaVuSans-73" x="138.671875"/>
      <use xlink:href="#DejaVuSans-73" x="190.771484"/>
      <use xlink:href="#DejaVuSans-69" x="242.871094"/>
      <use xlink:href="#DejaVuSans-70" x="270.654297"/>
      <use xlink:href="#DejaVuSans-20" x="334.130859"/>
      <use xlink:href="#DejaVuSans-70" x="365.917969"/>
      <use xlink:href="#DejaVuSans-72" x="429.394531"/>
      <use xlink:href="#DejaVuSans-65" x="468.257812"/>
      <use xlink:href="#DejaVuSans-64" x="529.78125"/>
      <use xlink:href="#DejaVuSans-69" x="593.257812"/>
      <use xlink:href="#DejaVuSans-63" x="621.041016"/>
      <use xlink:href="#DejaVuSans-74" x="676.021484"/>
      <use xlink:href="#DejaVuSans-69" x="715.230469"/>
      <use xlink:href="#DejaVuSans-6f" x="743.013672"/>
      <use xlink:href="#DejaVuSans-6e" x="804.195312"/>
      <use xlink:href="#DejaVuSans-73" x="867.574219"/>
     </g>
    </g>
    <g id="line2d_19">
     <path d="M 1013.90625 146.134687 
L 1023.90625 146.134687 
L 1033.90625 146.134687 
" style="fill: none; stroke: #da70d6; stroke-linecap: square"/>
    </g>
    <g id="text_16">
     <!-- Centralized predictions -->
     <g transform="translate(1041.90625 149.634687) scale(0.1 -0.1)">
      <defs>
       <path id="DejaVuSans-43" d="M 4122 4306 
L 4122 3641 
Q 3803 3938 3442 4084 
Q 3081 4231 2675 4231 
Q 1875 4231 1450 3742 
Q 1025 3253 1025 2328 
Q 1025 1406 1450 917 
Q 1875 428 2675 428 
Q 3081 428 3442 575 
Q 3803 722 4122 1019 
L 4122 359 
Q 3791 134 3420 21 
Q 3050 -91 2638 -91 
Q 1578 -91 968 557 
Q 359 1206 359 2328 
Q 359 3453 968 4101 
Q 1578 4750 2638 4750 
Q 3056 4750 3426 4639 
Q 3797 4528 4122 4306 
z
" transform="scale(0.015625)"/>
       <path id="DejaVuSans-61" d="M 2194 1759 
Q 1497 1759 1228 1600 
Q 959 1441 959 1056 
Q 959 750 1161 570 
Q 1363 391 1709 391 
Q 2188 391 2477 730 
Q 2766 1069 2766 1631 
L 2766 1759 
L 2194 1759 
z
M 3341 1997 
L 3341 0 
L 2766 0 
L 2766 531 
Q 2569 213 2275 61 
Q 1981 -91 1556 -91 
Q 1019 -91 701 211 
Q 384 513 384 1019 
Q 384 1609 779 1909 
Q 1175 2209 1959 2209 
L 2766 2209 
L 2766 2266 
Q 2766 2663 2505 2880 
Q 2244 3097 1772 3097 
Q 1472 3097 1187 3025 
Q 903 2953 641 2809 
L 641 3341 
Q 956 3463 1253 3523 
Q 1550 3584 1831 3584 
Q 2591 3584 2966 3190 
Q 3341 2797 3341 1997 
z
" transform="scale(0.015625)"/>
       <path id="DejaVuSans-6c" d="M 603 4863 
L 1178 4863 
L 1178 0 
L 603 0 
L 603 4863 
z
" transform="scale(0.015625)"/>
       <path id="DejaVuSans-7a" d="M 353 3500 
L 3084 3500 
L 3084 2975 
L 922 459 
L 3084 459 
L 3084 0 
L 275 0 
L 275 525 
L 2438 3041 
L 353 3041 
L 353 3500 
z
" transform="scale(0.015625)"/>
      </defs>
      <use xlink:href="#DejaVuSans-43"/>
      <use xlink:href="#DejaVuSans-65" x="69.824219"/>
      <use xlink:href="#DejaVuSans-6e" x="131.347656"/>
      <use xlink:href="#DejaVuSans-74" x="194.726562"/>
      <use xlink:href="#DejaVuSans-72" x="233.935547"/>
      <use xlink:href="#DejaVuSans-61" x="275.048828"/>
      <use xlink:href="#DejaVuSans-6c" x="336.328125"/>
      <use xlink:href="#DejaVuSans-69" x="364.111328"/>
      <use xlink:href="#DejaVuSans-7a" x="391.894531"/>
      <use xlink:href="#DejaVuSans-65" x="444.384766"/>
      <use xlink:href="#DejaVuSans-64" x="505.908203"/>
      <use xlink:href="#DejaVuSans-20" x="569.384766"/>
      <use xlink:href="#DejaVuSans-70" x="601.171875"/>
      <use xlink:href="#DejaVuSans-72" x="664.648438"/>
      <use xlink:href="#DejaVuSans-65" x="703.511719"/>
      <use xlink:href="#DejaVuSans-64" x="765.035156"/>
      <use xlink:href="#DejaVuSans-69" x="828.511719"/>
      <use xlink:href="#DejaVuSans-63" x="856.294922"/>
      <use xlink:href="#DejaVuSans-74" x="911.275391"/>
      <use xlink:href="#DejaVuSans-69" x="950.484375"/>
      <use xlink:href="#DejaVuSans-6f" x="978.267578"/>
      <use xlink:href="#DejaVuSans-6e" x="1039.449219"/>
      <use xlink:href="#DejaVuSans-73" x="1102.828125"/>
     </g>
    </g>
    <g id="line2d_20">
     <path d="M 1013.90625 160.812812 
L 1023.90625 160.812812 
L 1033.90625 160.812812 
" style="fill: none; stroke: #8fbc8f; stroke-linecap: square"/>
    </g>
    <g id="text_17">
     <!-- Single predictions -->
     <g transform="translate(1041.90625 164.312812) scale(0.1 -0.1)">
      <defs>
       <path id="DejaVuSans-53" d="M 3425 4513 
L 3425 3897 
Q 3066 4069 2747 4153 
Q 2428 4238 2131 4238 
Q 1616 4238 1336 4038 
Q 1056 3838 1056 3469 
Q 1056 3159 1242 3001 
Q 1428 2844 1947 2747 
L 2328 2669 
Q 3034 2534 3370 2195 
Q 3706 1856 3706 1288 
Q 3706 609 3251 259 
Q 2797 -91 1919 -91 
Q 1588 -91 1214 -16 
Q 841 59 441 206 
L 441 856 
Q 825 641 1194 531 
Q 1563 422 1919 422 
Q 2459 422 2753 634 
Q 3047 847 3047 1241 
Q 3047 1584 2836 1778 
Q 2625 1972 2144 2069 
L 1759 2144 
Q 1053 2284 737 2584 
Q 422 2884 422 3419 
Q 422 4038 858 4394 
Q 1294 4750 2059 4750 
Q 2388 4750 2728 4690 
Q 3069 4631 3425 4513 
z
" transform="scale(0.015625)"/>
       <path id="DejaVuSans-67" d="M 2906 1791 
Q 2906 2416 2648 2759 
Q 2391 3103 1925 3103 
Q 1463 3103 1205 2759 
Q 947 2416 947 1791 
Q 947 1169 1205 825 
Q 1463 481 1925 481 
Q 2391 481 2648 825 
Q 2906 1169 2906 1791 
z
M 3481 434 
Q 3481 -459 3084 -895 
Q 2688 -1331 1869 -1331 
Q 1566 -1331 1297 -1286 
Q 1028 -1241 775 -1147 
L 775 -588 
Q 1028 -725 1275 -790 
Q 1522 -856 1778 -856 
Q 2344 -856 2625 -561 
Q 2906 -266 2906 331 
L 2906 616 
Q 2728 306 2450 153 
Q 2172 0 1784 0 
Q 1141 0 747 490 
Q 353 981 353 1791 
Q 353 2603 747 3093 
Q 1141 3584 1784 3584 
Q 2172 3584 2450 3431 
Q 2728 3278 2906 2969 
L 2906 3500 
L 3481 3500 
L 3481 434 
z
" transform="scale(0.015625)"/>
      </defs>
      <use xlink:href="#DejaVuSans-53"/>
      <use xlink:href="#DejaVuSans-69" x="63.476562"/>
      <use xlink:href="#DejaVuSans-6e" x="91.259766"/>
      <use xlink:href="#DejaVuSans-67" x="154.638672"/>
      <use xlink:href="#DejaVuSans-6c" x="218.115234"/>
      <use xlink:href="#DejaVuSans-65" x="245.898438"/>
      <use xlink:href="#DejaVuSans-20" x="307.421875"/>
      <use xlink:href="#DejaVuSans-70" x="339.208984"/>
      <use xlink:href="#DejaVuSans-72" x="402.685547"/>
      <use xlink:href="#DejaVuSans-65" x="441.548828"/>
      <use xlink:href="#DejaVuSans-64" x="503.072266"/>
      <use xlink:href="#DejaVuSans-69" x="566.548828"/>
      <use xlink:href="#DejaVuSans-63" x="594.332031"/>
      <use xlink:href="#DejaVuSans-74" x="649.3125"/>
      <use xlink:href="#DejaVuSans-69" x="688.521484"/>
      <use xlink:href="#DejaVuSans-6f" x="716.304688"/>
      <use xlink:href="#DejaVuSans-6e" x="777.486328"/>
      <use xlink:href="#DejaVuSans-73" x="840.865234"/>
     </g>
    </g>
   </g>
  </g>
 </g>
 <defs>
  <clipPath id="p15815c9b7c">
   <rect x="162" y="103.68" width="1004.4" height="665.28"/>
  </clipPath>
 </defs>
</svg>
