<?xml version="1.0" encoding="utf-8" standalone="no"?>
<!DOCTYPE svg PUBLIC "-//W3C//DTD SVG 1.1//EN"
  "http://www.w3.org/Graphics/SVG/1.1/DTD/svg11.dtd">
<svg xmlns:xlink="http://www.w3.org/1999/xlink" width="1296pt" height="864pt" viewBox="0 0 1296 864" xmlns="http://www.w3.org/2000/svg" version="1.1">
 <metadata>
  <rdf:RDF xmlns:dc="http://purl.org/dc/elements/1.1/" xmlns:cc="http://creativecommons.org/ns#" xmlns:rdf="http://www.w3.org/1999/02/22-rdf-syntax-ns#">
   <cc:Work>
    <dc:type rdf:resource="http://purl.org/dc/dcmitype/StillImage"/>
    <dc:date>2023-12-24T17:34:35.565655</dc:date>
    <dc:format>image/svg+xml</dc:format>
    <dc:creator>
     <cc:Agent>
      <dc:title>Matplotlib v3.8.0, https://matplotlib.org/</dc:title>
     </cc:Agent>
    </dc:creator>
   </cc:Work>
  </rdf:RDF>
 </metadata>
 <defs>
  <style type="text/css">*{stroke-linejoin: round; stroke-linecap: butt}</style>
 </defs>
 <g id="figure_1">
  <g id="patch_1">
   <path d="M 0 864 
L 1296 864 
L 1296 0 
L 0 0 
z
" style="fill: #ffffff"/>
  </g>
  <g id="axes_1">
   <g id="patch_2">
    <path d="M 162 768.96 
L 1166.4 768.96 
L 1166.4 103.68 
L 162 103.68 
z
" style="fill: #ffffff"/>
   </g>
   <g id="matplotlib.axis_1">
    <g id="xtick_1">
     <g id="line2d_1">
      <defs>
       <path id="md0196daf9f" d="M 0 0 
L 0 3.5 
" style="stroke: #000000; stroke-width: 0.8"/>
      </defs>
      <g>
       <use xlink:href="#md0196daf9f" x="207.654545" y="768.96" style="stroke: #000000; stroke-width: 0.8"/>
      </g>
     </g>
     <g id="text_1">
      <!-- 0 -->
      <g transform="translate(204.473295 783.558437) scale(0.1 -0.1)">
       <defs>
        <path id="DejaVuSans-30" d="M 2034 4250 
Q 1547 4250 1301 3770 
Q 1056 3291 1056 2328 
Q 1056 1369 1301 889 
Q 1547 409 2034 409 
Q 2525 409 2770 889 
Q 3016 1369 3016 2328 
Q 3016 3291 2770 3770 
Q 2525 4250 2034 4250 
z
M 2034 4750 
Q 2819 4750 3233 4129 
Q 3647 3509 3647 2328 
Q 3647 1150 3233 529 
Q 2819 -91 2034 -91 
Q 1250 -91 836 529 
Q 422 1150 422 2328 
Q 422 3509 836 4129 
Q 1250 4750 2034 4750 
z
" transform="scale(0.015625)"/>
       </defs>
       <use xlink:href="#DejaVuSans-30"/>
      </g>
     </g>
    </g>
    <g id="xtick_2">
     <g id="line2d_2">
      <g>
       <use xlink:href="#md0196daf9f" x="390.638696" y="768.96" style="stroke: #000000; stroke-width: 0.8"/>
      </g>
     </g>
     <g id="text_2">
      <!-- 100 -->
      <g transform="translate(381.094946 783.558437) scale(0.1 -0.1)">
       <defs>
        <path id="DejaVuSans-31" d="M 794 531 
L 1825 531 
L 1825 4091 
L 703 3866 
L 703 4441 
L 1819 4666 
L 2450 4666 
L 2450 531 
L 3481 531 
L 3481 0 
L 794 0 
L 794 531 
z
" transform="scale(0.015625)"/>
       </defs>
       <use xlink:href="#DejaVuSans-31"/>
       <use xlink:href="#DejaVuSans-30" x="63.623047"/>
       <use xlink:href="#DejaVuSans-30" x="127.246094"/>
      </g>
     </g>
    </g>
    <g id="xtick_3">
     <g id="line2d_3">
      <g>
       <use xlink:href="#md0196daf9f" x="573.622846" y="768.96" style="stroke: #000000; stroke-width: 0.8"/>
      </g>
     </g>
     <g id="text_3">
      <!-- 200 -->
      <g transform="translate(564.079096 783.558437) scale(0.1 -0.1)">
       <defs>
        <path id="DejaVuSans-32" d="M 1228 531 
L 3431 531 
L 3431 0 
L 469 0 
L 469 531 
Q 828 903 1448 1529 
Q 2069 2156 2228 2338 
Q 2531 2678 2651 2914 
Q 2772 3150 2772 3378 
Q 2772 3750 2511 3984 
Q 2250 4219 1831 4219 
Q 1534 4219 1204 4116 
Q 875 4013 500 3803 
L 500 4441 
Q 881 4594 1212 4672 
Q 1544 4750 1819 4750 
Q 2544 4750 2975 4387 
Q 3406 4025 3406 3419 
Q 3406 3131 3298 2873 
Q 3191 2616 2906 2266 
Q 2828 2175 2409 1742 
Q 1991 1309 1228 531 
z
" transform="scale(0.015625)"/>
       </defs>
       <use xlink:href="#DejaVuSans-32"/>
       <use xlink:href="#DejaVuSans-30" x="63.623047"/>
       <use xlink:href="#DejaVuSans-30" x="127.246094"/>
      </g>
     </g>
    </g>
    <g id="xtick_4">
     <g id="line2d_4">
      <g>
       <use xlink:href="#md0196daf9f" x="756.606996" y="768.96" style="stroke: #000000; stroke-width: 0.8"/>
      </g>
     </g>
     <g id="text_4">
      <!-- 300 -->
      <g transform="translate(747.063246 783.558437) scale(0.1 -0.1)">
       <defs>
        <path id="DejaVuSans-33" d="M 2597 2516 
Q 3050 2419 3304 2112 
Q 3559 1806 3559 1356 
Q 3559 666 3084 287 
Q 2609 -91 1734 -91 
Q 1441 -91 1130 -33 
Q 819 25 488 141 
L 488 750 
Q 750 597 1062 519 
Q 1375 441 1716 441 
Q 2309 441 2620 675 
Q 2931 909 2931 1356 
Q 2931 1769 2642 2001 
Q 2353 2234 1838 2234 
L 1294 2234 
L 1294 2753 
L 1863 2753 
Q 2328 2753 2575 2939 
Q 2822 3125 2822 3475 
Q 2822 3834 2567 4026 
Q 2313 4219 1838 4219 
Q 1578 4219 1281 4162 
Q 984 4106 628 3988 
L 628 4550 
Q 988 4650 1302 4700 
Q 1616 4750 1894 4750 
Q 2613 4750 3031 4423 
Q 3450 4097 3450 3541 
Q 3450 3153 3228 2886 
Q 3006 2619 2597 2516 
z
" transform="scale(0.015625)"/>
       </defs>
       <use xlink:href="#DejaVuSans-33"/>
       <use xlink:href="#DejaVuSans-30" x="63.623047"/>
       <use xlink:href="#DejaVuSans-30" x="127.246094"/>
      </g>
     </g>
    </g>
    <g id="xtick_5">
     <g id="line2d_5">
      <g>
       <use xlink:href="#md0196daf9f" x="939.591146" y="768.96" style="stroke: #000000; stroke-width: 0.8"/>
      </g>
     </g>
     <g id="text_5">
      <!-- 400 -->
      <g transform="translate(930.047396 783.558437) scale(0.1 -0.1)">
       <defs>
        <path id="DejaVuSans-34" d="M 2419 4116 
L 825 1625 
L 2419 1625 
L 2419 4116 
z
M 2253 4666 
L 3047 4666 
L 3047 1625 
L 3713 1625 
L 3713 1100 
L 3047 1100 
L 3047 0 
L 2419 0 
L 2419 1100 
L 313 1100 
L 313 1709 
L 2253 4666 
z
" transform="scale(0.015625)"/>
       </defs>
       <use xlink:href="#DejaVuSans-34"/>
       <use xlink:href="#DejaVuSans-30" x="63.623047"/>
       <use xlink:href="#DejaVuSans-30" x="127.246094"/>
      </g>
     </g>
    </g>
    <g id="xtick_6">
     <g id="line2d_6">
      <g>
       <use xlink:href="#md0196daf9f" x="1122.575296" y="768.96" style="stroke: #000000; stroke-width: 0.8"/>
      </g>
     </g>
     <g id="text_6">
      <!-- 500 -->
      <g transform="translate(1113.031546 783.558437) scale(0.1 -0.1)">
       <defs>
        <path id="DejaVuSans-35" d="M 691 4666 
L 3169 4666 
L 3169 4134 
L 1269 4134 
L 1269 2991 
Q 1406 3038 1543 3061 
Q 1681 3084 1819 3084 
Q 2600 3084 3056 2656 
Q 3513 2228 3513 1497 
Q 3513 744 3044 326 
Q 2575 -91 1722 -91 
Q 1428 -91 1123 -41 
Q 819 9 494 109 
L 494 744 
Q 775 591 1075 516 
Q 1375 441 1709 441 
Q 2250 441 2565 725 
Q 2881 1009 2881 1497 
Q 2881 1984 2565 2268 
Q 2250 2553 1709 2553 
Q 1456 2553 1204 2497 
Q 953 2441 691 2322 
L 691 4666 
z
" transform="scale(0.015625)"/>
       </defs>
       <use xlink:href="#DejaVuSans-35"/>
       <use xlink:href="#DejaVuSans-30" x="63.623047"/>
       <use xlink:href="#DejaVuSans-30" x="127.246094"/>
      </g>
     </g>
    </g>
   </g>
   <g id="matplotlib.axis_2">
    <g id="ytick_1">
     <g id="line2d_7">
      <defs>
       <path id="me03ed9cbc4" d="M 0 0 
L -3.5 0 
" style="stroke: #000000; stroke-width: 0.8"/>
      </defs>
      <g>
       <use xlink:href="#me03ed9cbc4" x="162" y="738.72" style="stroke: #000000; stroke-width: 0.8"/>
      </g>
     </g>
     <g id="text_7">
      <!-- 0 -->
      <g transform="translate(148.6375 742.519219) scale(0.1 -0.1)">
       <use xlink:href="#DejaVuSans-30"/>
      </g>
     </g>
    </g>
    <g id="ytick_2">
     <g id="line2d_8">
      <g>
       <use xlink:href="#me03ed9cbc4" x="162" y="664.282301" style="stroke: #000000; stroke-width: 0.8"/>
      </g>
     </g>
     <g id="text_8">
      <!-- 5 -->
      <g transform="translate(148.6375 668.08152) scale(0.1 -0.1)">
       <use xlink:href="#DejaVuSans-35"/>
      </g>
     </g>
    </g>
    <g id="ytick_3">
     <g id="line2d_9">
      <g>
       <use xlink:href="#me03ed9cbc4" x="162" y="589.844602" style="stroke: #000000; stroke-width: 0.8"/>
      </g>
     </g>
     <g id="text_9">
      <!-- 10 -->
      <g transform="translate(142.275 593.643821) scale(0.1 -0.1)">
       <use xlink:href="#DejaVuSans-31"/>
       <use xlink:href="#DejaVuSans-30" x="63.623047"/>
      </g>
     </g>
    </g>
    <g id="ytick_4">
     <g id="line2d_10">
      <g>
       <use xlink:href="#me03ed9cbc4" x="162" y="515.406903" style="stroke: #000000; stroke-width: 0.8"/>
      </g>
     </g>
     <g id="text_10">
      <!-- 15 -->
      <g transform="translate(142.275 519.206122) scale(0.1 -0.1)">
       <use xlink:href="#DejaVuSans-31"/>
       <use xlink:href="#DejaVuSans-35" x="63.623047"/>
      </g>
     </g>
    </g>
    <g id="ytick_5">
     <g id="line2d_11">
      <g>
       <use xlink:href="#me03ed9cbc4" x="162" y="440.969204" style="stroke: #000000; stroke-width: 0.8"/>
      </g>
     </g>
     <g id="text_11">
      <!-- 20 -->
      <g transform="translate(142.275 444.768423) scale(0.1 -0.1)">
       <use xlink:href="#DejaVuSans-32"/>
       <use xlink:href="#DejaVuSans-30" x="63.623047"/>
      </g>
     </g>
    </g>
    <g id="ytick_6">
     <g id="line2d_12">
      <g>
       <use xlink:href="#me03ed9cbc4" x="162" y="366.531505" style="stroke: #000000; stroke-width: 0.8"/>
      </g>
     </g>
     <g id="text_12">
      <!-- 25 -->
      <g transform="translate(142.275 370.330724) scale(0.1 -0.1)">
       <use xlink:href="#DejaVuSans-32"/>
       <use xlink:href="#DejaVuSans-35" x="63.623047"/>
      </g>
     </g>
    </g>
    <g id="ytick_7">
     <g id="line2d_13">
      <g>
       <use xlink:href="#me03ed9cbc4" x="162" y="292.093806" style="stroke: #000000; stroke-width: 0.8"/>
      </g>
     </g>
     <g id="text_13">
      <!-- 30 -->
      <g transform="translate(142.275 295.893025) scale(0.1 -0.1)">
       <use xlink:href="#DejaVuSans-33"/>
       <use xlink:href="#DejaVuSans-30" x="63.623047"/>
      </g>
     </g>
    </g>
    <g id="ytick_8">
     <g id="line2d_14">
      <g>
       <use xlink:href="#me03ed9cbc4" x="162" y="217.656107" style="stroke: #000000; stroke-width: 0.8"/>
      </g>
     </g>
     <g id="text_14">
      <!-- 35 -->
      <g transform="translate(142.275 221.455326) scale(0.1 -0.1)">
       <use xlink:href="#DejaVuSans-33"/>
       <use xlink:href="#DejaVuSans-35" x="63.623047"/>
      </g>
     </g>
    </g>
    <g id="ytick_9">
     <g id="line2d_15">
      <g>
       <use xlink:href="#me03ed9cbc4" x="162" y="143.218409" style="stroke: #000000; stroke-width: 0.8"/>
      </g>
     </g>
     <g id="text_15">
      <!-- 40 -->
      <g transform="translate(142.275 147.017627) scale(0.1 -0.1)">
       <use xlink:href="#DejaVuSans-34"/>
       <use xlink:href="#DejaVuSans-30" x="63.623047"/>
      </g>
     </g>
    </g>
   </g>
   <g id="line2d_16">
    <path d="M 207.654545 708.94492 
L 209.484387 694.057381 
L 211.314228 470.744284 
L 213.14407 694.057381 
L 214.973911 560.069523 
L 216.803753 738.72 
L 218.633594 664.282301 
L 220.463436 634.507221 
L 222.293277 589.844602 
L 225.95296 530.294443 
L 227.782802 649.394761 
L 229.612643 589.844602 
L 231.442485 589.844602 
L 233.272326 694.057381 
L 235.102168 619.619682 
L 236.932009 574.957062 
L 238.761851 262.318727 
L 240.591692 455.856744 
L 242.421534 336.756426 
L 244.251375 277.206267 
L 246.081217 351.643966 
L 247.911058 262.318727 
L 257.060266 262.318727 
L 258.890107 306.981346 
L 260.719949 411.194125 
L 264.379632 470.744284 
L 266.209473 262.318727 
L 268.039315 262.318727 
L 269.869156 560.069523 
L 271.698998 574.957062 
L 273.528839 321.868886 
L 277.188522 500.519363 
L 279.018364 500.519363 
L 280.848206 530.294443 
L 282.678047 262.318727 
L 284.507889 262.318727 
L 286.33773 411.194125 
L 288.167572 262.318727 
L 289.997413 262.318727 
L 291.827255 277.206267 
L 293.657096 381.419045 
L 295.486938 262.318727 
L 297.316779 679.169841 
L 299.146621 515.406903 
L 300.976462 396.306585 
L 302.806304 589.844602 
L 304.636145 485.631824 
L 306.465987 277.206267 
L 308.295828 440.969204 
L 311.955511 262.318727 
L 313.785353 560.069523 
L 315.615194 381.419045 
L 317.445036 262.318727 
L 319.274877 321.868886 
L 321.104719 262.318727 
L 322.93456 500.519363 
L 324.764402 649.394761 
L 326.594243 277.206267 
L 328.424085 530.294443 
L 330.253926 574.957062 
L 332.083768 545.181983 
L 333.913609 440.969204 
L 335.743451 396.306585 
L 337.573292 619.619682 
L 339.403134 574.957062 
L 341.232975 679.169841 
L 344.892658 589.844602 
L 346.7225 411.194125 
L 348.552341 336.756426 
L 350.382183 664.282301 
L 352.212024 262.318727 
L 354.041866 530.294443 
L 355.871707 545.181983 
L 357.701549 694.057381 
L 359.53139 708.94492 
L 361.361232 530.294443 
L 363.191073 292.093806 
L 365.020915 306.981346 
L 366.850756 366.531505 
L 368.680598 530.294443 
L 370.510439 262.318727 
L 372.340281 589.844602 
L 374.170122 634.507221 
L 375.999964 455.856744 
L 377.829805 440.969204 
L 379.659647 470.744284 
L 381.489488 574.957062 
L 383.31933 619.619682 
L 385.149171 485.631824 
L 386.979013 470.744284 
L 388.808854 560.069523 
L 390.638696 262.318727 
L 392.468537 574.957062 
L 396.12822 455.856744 
L 397.958062 306.981346 
L 399.787903 649.394761 
L 401.617745 560.069523 
L 403.447586 589.844602 
L 405.277428 500.519363 
L 407.107269 589.844602 
L 408.937111 440.969204 
L 410.766952 455.856744 
L 412.596794 321.868886 
L 414.426635 530.294443 
L 416.256477 574.957062 
L 418.086318 649.394761 
L 421.746001 530.294443 
L 423.575843 560.069523 
L 425.405684 366.531505 
L 427.235526 649.394761 
L 429.065367 292.093806 
L 430.895209 545.181983 
L 432.72505 694.057381 
L 434.554892 679.169841 
L 436.384733 530.294443 
L 438.214575 664.282301 
L 440.044416 560.069523 
L 441.874258 366.531505 
L 443.704099 604.732142 
L 445.533941 649.394761 
L 447.363782 634.507221 
L 449.193624 426.081664 
L 451.023465 366.531505 
L 452.853307 708.94492 
L 454.683148 574.957062 
L 456.51299 619.619682 
L 458.342831 560.069523 
L 460.172673 426.081664 
L 462.002514 679.169841 
L 463.832356 679.169841 
L 465.662197 396.306585 
L 467.492039 366.531505 
L 469.32188 604.732142 
L 471.151722 634.507221 
L 472.981563 515.406903 
L 474.811405 560.069523 
L 476.641246 679.169841 
L 478.471088 723.83246 
L 480.300929 574.957062 
L 482.130771 694.057381 
L 483.960612 560.069523 
L 485.790454 589.844602 
L 487.620295 470.744284 
L 489.450137 634.507221 
L 491.279978 574.957062 
L 493.10982 634.507221 
L 496.769503 545.181983 
L 498.599344 589.844602 
L 502.259027 589.844602 
L 504.088869 560.069523 
L 505.91871 455.856744 
L 507.748552 723.83246 
L 509.578393 351.643966 
L 511.408235 455.856744 
L 513.238076 619.619682 
L 515.067918 500.519363 
L 516.897759 649.394761 
L 518.727601 560.069523 
L 520.557442 262.318727 
L 522.387284 351.643966 
L 524.217125 530.294443 
L 526.046967 664.282301 
L 527.876808 545.181983 
L 529.70665 723.83246 
L 531.536491 411.194125 
L 533.366333 574.957062 
L 535.196174 589.844602 
L 537.026016 664.282301 
L 538.855857 619.619682 
L 540.685699 694.057381 
L 542.51554 738.72 
L 544.345382 619.619682 
L 546.175223 723.83246 
L 548.005065 723.83246 
L 549.834906 738.72 
L 551.664748 694.057381 
L 553.494589 679.169841 
L 555.324431 738.72 
L 557.154272 649.394761 
L 558.984114 738.72 
L 560.813955 738.72 
L 562.643797 649.394761 
L 566.30348 738.72 
L 568.133321 545.181983 
L 569.963163 723.83246 
L 571.793004 679.169841 
L 573.622846 738.72 
L 575.452687 738.72 
L 577.282529 723.83246 
L 579.11237 619.619682 
L 580.942212 664.282301 
L 582.772053 634.507221 
L 584.601895 530.294443 
L 586.431736 574.957062 
L 588.261578 664.282301 
L 590.091419 262.318727 
L 591.921261 262.318727 
L 593.751102 381.419045 
L 595.580944 262.318727 
L 608.389834 262.318727 
L 610.219676 292.093806 
L 612.049517 262.318727 
L 613.879359 262.318727 
L 615.7092 351.643966 
L 617.539042 277.206267 
L 619.368883 381.419045 
L 621.198725 262.318727 
L 623.028566 545.181983 
L 624.858408 694.057381 
L 626.688249 440.969204 
L 628.518091 470.744284 
L 630.347932 277.206267 
L 632.177774 530.294443 
L 634.007615 530.294443 
L 635.837457 306.981346 
L 637.667298 321.868886 
L 639.49714 262.318727 
L 641.326981 321.868886 
L 643.156823 262.318727 
L 644.986664 530.294443 
L 646.816506 604.732142 
L 648.646347 262.318727 
L 650.476189 411.194125 
L 652.30603 545.181983 
L 654.135872 306.981346 
L 655.965713 500.519363 
L 657.795555 470.744284 
L 659.625396 336.756426 
L 661.455238 262.318727 
L 663.285079 262.318727 
L 665.114921 455.856744 
L 666.944762 545.181983 
L 668.774604 396.306585 
L 670.604445 277.206267 
L 672.434287 277.206267 
L 674.264128 560.069523 
L 676.09397 262.318727 
L 677.923811 664.282301 
L 679.753653 306.981346 
L 681.583494 381.419045 
L 683.413336 262.318727 
L 685.243177 500.519363 
L 687.073019 634.507221 
L 688.90286 589.844602 
L 690.732702 485.631824 
L 692.562543 440.969204 
L 694.392385 306.981346 
L 696.222226 679.169841 
L 698.052068 679.169841 
L 699.881909 455.856744 
L 701.711751 411.194125 
L 703.541592 649.394761 
L 705.371434 649.394761 
L 707.201275 619.619682 
L 709.031117 694.057381 
L 710.860958 545.181983 
L 712.6908 634.507221 
L 714.520641 560.069523 
L 716.350483 470.744284 
L 718.180324 589.844602 
L 720.010166 694.057381 
L 721.840007 589.844602 
L 723.669849 738.72 
L 725.49969 679.169841 
L 727.329532 708.94492 
L 730.989215 708.94492 
L 732.819056 679.169841 
L 734.648898 694.057381 
L 736.478739 649.394761 
L 738.308581 634.507221 
L 740.138422 649.394761 
L 741.968264 574.957062 
L 743.798105 723.83246 
L 745.627947 664.282301 
L 747.457788 589.844602 
L 749.28763 574.957062 
L 751.117471 679.169841 
L 752.947313 694.057381 
L 754.777154 649.394761 
L 758.436837 679.169841 
L 760.266679 679.169841 
L 762.09652 515.406903 
L 763.926362 619.619682 
L 765.756203 604.732142 
L 767.586045 455.856744 
L 769.415886 262.318727 
L 771.245728 455.856744 
L 773.075569 321.868886 
L 774.905411 262.318727 
L 776.735252 262.318727 
L 778.565094 292.093806 
L 780.394935 262.318727 
L 782.224777 262.318727 
L 784.054618 560.069523 
L 785.88446 262.318727 
L 787.714301 530.294443 
L 789.544143 381.419045 
L 791.373984 262.318727 
L 793.203826 262.318727 
L 795.033667 292.093806 
L 796.863509 455.856744 
L 798.69335 485.631824 
L 800.523192 396.306585 
L 802.353033 411.194125 
L 804.182875 262.318727 
L 806.012716 545.181983 
L 807.842558 277.206267 
L 809.672399 381.419045 
L 811.502241 262.318727 
L 813.332082 604.732142 
L 815.161924 515.406903 
L 816.991765 262.318727 
L 818.821607 351.643966 
L 820.651448 530.294443 
L 822.48129 292.093806 
L 824.311131 262.318727 
L 826.140973 470.744284 
L 827.970814 262.318727 
L 829.800656 440.969204 
L 831.630497 455.856744 
L 833.460339 262.318727 
L 835.29018 381.419045 
L 837.120022 470.744284 
L 838.949863 262.318727 
L 840.779705 262.318727 
L 842.609546 440.969204 
L 844.439388 500.519363 
L 846.269229 396.306585 
L 848.099071 411.194125 
L 849.928912 262.318727 
L 851.758754 277.206267 
L 853.588595 426.081664 
L 855.418437 396.306585 
L 857.248278 530.294443 
L 859.07812 679.169841 
L 860.907961 262.318727 
L 862.737803 619.619682 
L 864.567644 411.194125 
L 866.397486 679.169841 
L 868.227327 589.844602 
L 870.057169 440.969204 
L 871.88701 574.957062 
L 873.716852 619.619682 
L 875.546693 679.169841 
L 877.376535 381.419045 
L 879.206376 321.868886 
L 881.036218 604.732142 
L 882.866059 619.619682 
L 884.695901 694.057381 
L 886.525742 664.282301 
L 888.355584 589.844602 
L 890.185425 723.83246 
L 892.015267 560.069523 
L 895.67495 530.294443 
L 897.504791 723.83246 
L 899.334633 738.72 
L 901.164474 664.282301 
L 902.994316 634.507221 
L 904.824157 723.83246 
L 906.653999 589.844602 
L 908.48384 694.057381 
L 910.313682 619.619682 
L 912.143523 634.507221 
L 913.973365 708.94492 
L 915.803206 664.282301 
L 917.633048 679.169841 
L 919.462889 708.94492 
L 921.292731 619.619682 
L 923.122572 694.057381 
L 924.952414 634.507221 
L 926.782255 679.169841 
L 928.612097 574.957062 
L 930.441938 664.282301 
L 932.27178 560.069523 
L 934.101621 604.732142 
L 935.931463 515.406903 
L 937.761304 560.069523 
L 939.591146 634.507221 
L 941.420987 649.394761 
L 943.250829 515.406903 
L 945.08067 366.531505 
L 946.910512 262.318727 
L 956.059719 262.318727 
L 957.889561 440.969204 
L 959.719402 411.194125 
L 961.549244 262.318727 
L 963.379085 262.318727 
L 965.208927 440.969204 
L 967.038768 604.732142 
L 968.86861 396.306585 
L 970.698451 262.318727 
L 972.528293 485.631824 
L 974.358134 455.856744 
L 976.187976 262.318727 
L 978.017817 381.419045 
L 979.847659 262.318727 
L 983.507342 262.318727 
L 985.337183 351.643966 
L 987.167025 306.981346 
L 988.996866 485.631824 
L 990.826708 262.318727 
L 992.656549 292.093806 
L 994.486391 277.206267 
L 996.316232 336.756426 
L 998.146074 545.181983 
L 999.975915 262.318727 
L 1001.805757 545.181983 
L 1003.635598 262.318727 
L 1009.125123 262.318727 
L 1010.954964 396.306585 
L 1012.784806 396.306585 
L 1014.614647 262.318727 
L 1020.104172 262.318727 
L 1021.934013 366.531505 
L 1023.763855 589.844602 
L 1025.593696 470.744284 
L 1027.423538 262.318727 
L 1032.913062 262.318727 
L 1034.742904 515.406903 
L 1036.572745 277.206267 
L 1038.402587 336.756426 
L 1040.232428 664.282301 
L 1042.06227 604.732142 
L 1043.892111 426.081664 
L 1045.721953 485.631824 
L 1047.551794 306.981346 
L 1049.381636 649.394761 
L 1051.211478 396.306585 
L 1053.041319 411.194125 
L 1054.871161 604.732142 
L 1056.701002 604.732142 
L 1058.530844 560.069523 
L 1060.360685 470.744284 
L 1062.190527 455.856744 
L 1064.020368 262.318727 
L 1065.85021 262.318727 
L 1067.680051 381.419045 
L 1069.509893 574.957062 
L 1071.339734 411.194125 
L 1073.169576 485.631824 
L 1074.999417 455.856744 
L 1076.829259 306.981346 
L 1078.6591 515.406903 
L 1080.488942 634.507221 
L 1082.318783 589.844602 
L 1084.148625 619.619682 
L 1085.978466 679.169841 
L 1087.808308 440.969204 
L 1089.638149 455.856744 
L 1091.467991 723.83246 
L 1093.297832 470.744284 
L 1095.127674 560.069523 
L 1096.957515 619.619682 
L 1098.787357 515.406903 
L 1100.617198 500.519363 
L 1102.44704 634.507221 
L 1104.276881 262.318727 
L 1106.106723 515.406903 
L 1107.936564 545.181983 
L 1109.766406 694.057381 
L 1111.596247 604.732142 
L 1113.426089 530.294443 
L 1115.25593 649.394761 
L 1117.085772 515.406903 
L 1118.915613 426.081664 
L 1120.745455 604.732142 
L 1120.745455 604.732142 
" clip-path="url(#pc23807ea56)" style="fill: none; stroke: #4169e1; stroke-linecap: square"/>
   </g>
   <g id="line2d_17">
    <path d="M 207.654545 669.650002 
L 209.484387 666.417504 
L 211.314228 652.681269 
L 213.14407 539.905971 
L 214.973911 608.970318 
L 216.803753 589.398974 
L 218.633594 617.430059 
L 220.463436 659.676656 
L 222.293277 636.701359 
L 224.123119 633.285545 
L 225.95296 587.28477 
L 227.782802 544.806052 
L 229.612643 565.030384 
L 231.442485 560.107147 
L 233.272326 550.848393 
L 235.102168 592.100259 
L 236.932009 567.344679 
L 238.761851 503.038916 
L 240.591692 267.521563 
L 242.421534 259.863235 
L 244.251375 243.387578 
L 246.081217 240.73485 
L 247.911058 295.92493 
L 249.7409 272.027482 
L 251.570741 266.544664 
L 253.400583 267.155371 
L 255.230424 241.735969 
L 257.060266 239.507984 
L 258.890107 246.793533 
L 260.719949 271.540041 
L 264.379632 362.425 
L 266.209473 399.387947 
L 268.039315 355.629391 
L 269.869156 294.275876 
L 271.698998 360.46402 
L 273.528839 397.708056 
L 275.358681 352.180588 
L 277.188522 411.768655 
L 279.018364 424.274645 
L 280.848206 406.504144 
L 282.678047 436.751785 
L 284.507889 346.157939 
L 286.33773 291.317836 
L 288.167572 325.077177 
L 289.997413 288.205494 
L 291.827255 285.881105 
L 293.657096 307.952508 
L 295.486938 321.718928 
L 297.316779 286.916555 
L 299.146621 396.254734 
L 300.976462 393.217698 
L 302.806304 401.83282 
L 304.636145 519.755908 
L 306.465987 491.223738 
L 308.295828 440.916871 
L 310.12567 465.881544 
L 311.955511 415.794545 
L 313.785353 359.760317 
L 315.615194 438.017156 
L 317.445036 413.682016 
L 319.274877 392.620734 
L 321.104719 410.704497 
L 322.93456 365.665691 
L 324.764402 408.121139 
L 326.594243 487.737963 
L 328.424085 439.698495 
L 330.253926 496.48399 
L 332.083768 512.718921 
L 333.913609 485.812534 
L 335.743451 515.7122 
L 337.573292 502.706118 
L 339.403134 527.774776 
L 341.232975 524.510773 
L 344.892658 598.930085 
L 346.7225 588.624381 
L 348.552341 559.302185 
L 350.382183 496.79444 
L 352.212024 532.803064 
L 354.041866 455.400056 
L 355.871707 495.56022 
L 357.701549 501.740635 
L 359.53139 500.079428 
L 361.361232 554.900123 
L 363.191073 527.012493 
L 365.020915 468.990706 
L 368.680598 407.078192 
L 370.510439 433.350148 
L 372.340281 378.446467 
L 374.170122 478.872306 
L 375.999964 538.642816 
L 377.829805 501.404813 
L 379.659647 534.070734 
L 381.489488 519.566537 
L 383.31933 512.390169 
L 385.149171 542.701176 
L 386.979013 499.730218 
L 388.808854 475.902936 
L 390.638696 503.659179 
L 392.468537 413.964412 
L 394.298379 502.975054 
L 396.12822 512.935197 
L 397.958062 479.298696 
L 399.787903 462.003255 
L 401.617745 492.60448 
L 403.447586 498.102631 
L 405.277428 526.62942 
L 407.107269 535.469678 
L 408.937111 533.849844 
L 412.596794 468.112823 
L 414.426635 374.327865 
L 416.256477 374.689087 
L 418.086318 383.348592 
L 419.91616 468.994965 
L 421.746001 518.748399 
L 423.575843 556.316189 
L 425.405684 565.34826 
L 427.235526 484.35518 
L 429.065367 520.630951 
L 430.895209 421.15333 
L 432.72505 444.090832 
L 434.554892 541.861869 
L 436.384733 538.732617 
L 438.214575 560.403258 
L 440.044416 610.7072 
L 441.874258 577.878202 
L 443.704099 480.105731 
L 445.533941 502.765125 
L 447.363782 503.299518 
L 449.193624 515.686828 
L 451.023465 516.514961 
L 452.853307 477.555085 
L 454.683148 531.379415 
L 456.51299 499.859929 
L 458.342831 531.929611 
L 460.172673 569.612333 
L 462.002514 476.96238 
L 463.832356 541.449932 
L 465.662197 552.79793 
L 467.492039 467.229205 
L 469.32188 461.711915 
L 471.151722 476.696795 
L 472.981563 473.52309 
L 474.811405 432.728281 
L 476.641246 441.186346 
L 478.471088 520.40414 
L 480.300929 561.538746 
L 482.130771 585.554973 
L 483.960612 614.770259 
L 485.790454 590.365039 
L 487.620295 579.851024 
L 489.450137 555.543485 
L 491.279978 555.441927 
L 493.10982 551.670265 
L 494.939661 559.675333 
L 496.769503 570.37172 
L 498.599344 559.144674 
L 500.429186 565.214034 
L 504.088869 550.463233 
L 505.91871 544.484981 
L 507.748552 516.572292 
L 509.578393 564.213964 
L 511.408235 511.727158 
L 513.238076 509.351798 
L 515.067918 537.594985 
L 516.897759 499.29122 
L 518.727601 551.99568 
L 520.557442 563.90641 
L 522.387284 486.597136 
L 524.217125 473.85231 
L 526.046967 459.479954 
L 527.876808 496.266677 
L 529.70665 522.684586 
L 531.536491 583.708697 
L 533.366333 551.872173 
L 535.196174 516.467824 
L 537.026016 512.171962 
L 538.855857 505.742843 
L 540.685699 546.865296 
L 542.51554 601.871045 
L 544.345382 639.139175 
L 546.175223 647.19537 
L 548.005065 688.314039 
L 549.834906 693.370396 
L 551.664748 686.471249 
L 553.494589 691.287675 
L 555.324431 666.140816 
L 557.154272 675.937832 
L 558.984114 659.231773 
L 560.813955 663.396596 
L 562.643797 670.957675 
L 564.473638 637.717572 
L 566.30348 663.777837 
L 568.133321 678.222921 
L 569.963163 644.822034 
L 571.793004 659.388709 
L 573.622846 655.054378 
L 575.452687 652.660653 
L 577.282529 696.803439 
L 579.11237 688.961533 
L 580.942212 656.043536 
L 582.772053 636.991017 
L 584.601895 607.62074 
L 586.431736 570.983123 
L 588.261578 551.455224 
L 590.091419 542.313503 
L 591.921261 335.30424 
L 593.751102 230.153749 
L 595.580944 293.830802 
L 597.410785 250.076987 
L 599.240627 259.476655 
L 601.070468 287.412259 
L 602.90031 282.375567 
L 604.730151 286.601079 
L 606.559993 277.649552 
L 608.389834 272.972123 
L 610.219676 274.602435 
L 612.049517 288.370331 
L 613.879359 288.276143 
L 615.7092 306.343805 
L 617.539042 335.818657 
L 619.368883 326.941101 
L 621.198725 337.347653 
L 623.028566 307.614599 
L 624.858408 362.739795 
L 626.688249 468.785234 
L 628.518091 458.611982 
L 630.347932 514.959543 
L 632.177774 456.920476 
L 634.007615 425.20983 
L 635.837457 427.122595 
L 637.667298 373.763017 
L 639.49714 387.704269 
L 641.326981 344.177564 
L 643.156823 322.565178 
L 644.986664 327.331798 
L 648.646347 439.999575 
L 650.476189 357.717443 
L 652.30603 363.530645 
L 654.135872 401.892962 
L 655.965713 345.076743 
L 657.795555 448.545469 
L 659.625396 466.425492 
L 661.455238 424.764983 
L 663.285079 415.669916 
L 665.114921 373.718748 
L 666.944762 379.981341 
L 668.774604 423.959936 
L 670.604445 433.019281 
L 672.434287 427.477059 
L 674.264128 414.703439 
L 676.09397 434.231011 
L 677.923811 395.827861 
L 679.753653 496.006771 
L 681.583494 457.072905 
L 683.413336 428.480536 
L 685.243177 418.223629 
L 687.073019 410.032881 
L 688.90286 487.435889 
L 690.732702 517.958969 
L 692.562543 545.762917 
L 694.392385 535.755921 
L 696.222226 471.525876 
L 698.052068 513.399666 
L 699.881909 537.901488 
L 701.711751 516.797073 
L 703.541592 539.953335 
L 705.371434 551.540922 
L 707.201275 541.102738 
L 709.031117 536.864434 
L 710.860958 560.648 
L 712.6908 527.19194 
L 714.520641 533.476908 
L 716.350483 513.765772 
L 718.180324 516.08806 
L 721.840007 581.818209 
L 723.669849 567.735461 
L 725.49969 632.755645 
L 727.329532 648.373495 
L 729.159373 632.248072 
L 730.989215 649.908255 
L 732.819056 648.429101 
L 734.648898 644.532504 
L 736.478739 637.362817 
L 740.138422 585.920128 
L 741.968264 599.039593 
L 743.798105 587.00608 
L 745.627947 627.603191 
L 747.457788 631.429607 
L 749.28763 601.311905 
L 751.117471 597.460024 
L 752.947313 594.738421 
L 754.777154 595.271395 
L 756.606996 587.415915 
L 758.436837 609.11454 
L 760.266679 593.701069 
L 762.09652 591.667537 
L 763.926362 525.414907 
L 765.756203 500.893392 
L 767.586045 443.293196 
L 769.415886 336.63262 
L 771.245728 283.841922 
L 773.075569 358.284676 
L 774.905411 324.061178 
L 776.735252 297.574466 
L 778.565094 306.013677 
L 780.394935 286.949892 
L 782.224777 266.204143 
L 784.054618 261.692715 
L 785.88446 352.538772 
L 787.714301 316.096489 
L 789.544143 404.435345 
L 791.373984 413.515248 
L 793.203826 347.514999 
L 795.033667 347.427257 
L 796.863509 300.291568 
L 798.69335 314.699447 
L 800.523192 347.384521 
L 802.353033 355.70995 
L 804.182875 390.45184 
L 806.012716 358.514738 
L 807.842558 396.877367 
L 809.672399 352.49331 
L 811.502241 337.753059 
L 813.332082 317.923044 
L 815.161924 390.487136 
L 816.991765 423.305329 
L 818.821607 366.976097 
L 820.651448 401.148483 
L 822.48129 404.759227 
L 824.311131 342.171406 
L 826.140973 297.410197 
L 827.970814 313.590338 
L 829.800656 285.442817 
L 831.630497 346.312355 
L 833.460339 415.334563 
L 835.29018 381.828199 
L 837.120022 412.650854 
L 838.949863 426.843635 
L 840.779705 376.350124 
L 842.609546 368.350962 
L 844.439388 396.953298 
L 846.269229 410.726873 
L 848.099071 422.175832 
L 849.928912 454.803688 
L 853.588595 386.846207 
L 855.418437 393.468489 
L 857.248278 379.455083 
L 859.07812 427.649336 
L 860.907961 502.188578 
L 862.737803 457.776097 
L 864.567644 534.650703 
L 866.397486 503.138301 
L 868.227327 525.678618 
L 870.057169 554.53582 
L 871.88701 510.381243 
L 873.716852 547.826065 
L 875.546693 539.080763 
L 877.376535 547.273825 
L 879.206376 532.119451 
L 881.036218 500.022069 
L 882.866059 511.51081 
L 884.695901 498.053365 
L 886.525742 521.113366 
L 888.355584 557.301635 
L 890.185425 543.640123 
L 892.015267 571.519774 
L 893.845108 573.973463 
L 895.67495 569.547846 
L 897.504791 569.006297 
L 899.334633 589.522566 
L 901.164474 617.227214 
L 902.994316 619.699928 
L 904.824157 648.458213 
L 906.653999 645.190845 
L 908.48384 619.380348 
L 910.313682 621.581855 
L 912.143523 609.789024 
L 913.973365 574.207926 
L 915.803206 614.442445 
L 917.633048 606.486615 
L 919.462889 628.906228 
L 921.292731 659.192942 
L 923.122572 642.169156 
L 924.952414 648.327628 
L 926.782255 636.805756 
L 928.612097 622.396088 
L 930.441938 611.049127 
L 932.27178 604.772932 
L 934.101621 583.88096 
L 935.931463 559.934543 
L 937.761304 550.766571 
L 939.591146 527.536408 
L 941.420987 525.366932 
L 943.250829 488.612665 
L 945.08067 429.955012 
L 946.910512 398.815262 
L 948.740353 356.720753 
L 950.570195 302.874727 
L 952.400036 278.852111 
L 954.229878 275.241708 
L 956.059719 278.427595 
L 957.889561 269.465335 
L 959.719402 315.527694 
L 961.549244 339.892194 
L 963.379085 320.717468 
L 965.208927 324.832293 
L 967.038768 359.877648 
L 968.86861 417.410347 
L 970.698451 414.510916 
L 972.528293 379.007879 
L 974.358134 400.017083 
L 976.187976 363.655955 
L 978.017817 315.362374 
L 979.847659 362.627206 
L 981.6775 333.245833 
L 983.507342 307.223306 
L 985.337183 309.853517 
L 987.167025 302.543179 
L 988.996866 300.643192 
L 990.826708 357.708952 
L 992.656549 335.924743 
L 994.486391 332.448737 
L 996.316232 346.22677 
L 998.146074 332.770148 
L 999.975915 385.548551 
L 1001.805757 327.02379 
L 1003.635598 378.28021 
L 1005.46544 335.345186 
L 1007.295281 312.812778 
L 1009.125123 352.205633 
L 1010.954964 323.629989 
L 1012.784806 363.738757 
L 1014.614647 386.747305 
L 1016.444489 366.614137 
L 1018.27433 359.928334 
L 1020.104172 341.79556 
L 1021.934013 325.448366 
L 1023.763855 353.639504 
L 1025.593696 435.237612 
L 1027.423538 456.240796 
L 1029.253379 443.93846 
L 1031.083221 425.283432 
L 1032.913062 354.455853 
L 1034.742904 318.431867 
L 1036.572745 382.354713 
L 1038.402587 373.568109 
L 1040.232428 406.716345 
L 1042.06227 497.842015 
L 1043.892111 500.715479 
L 1045.721953 502.966138 
L 1047.551794 535.776125 
L 1049.381636 469.712752 
L 1051.211478 498.409504 
L 1053.041319 471.962006 
L 1054.871161 477.239949 
L 1056.701002 527.366219 
L 1058.530844 511.423692 
L 1060.360685 514.17538 
L 1062.190527 491.523909 
L 1064.020368 456.637456 
L 1065.85021 382.369195 
L 1067.680051 338.374613 
L 1069.509893 377.554188 
L 1071.339734 430.479567 
L 1073.169576 443.364867 
L 1074.999417 463.598953 
L 1076.829259 478.691709 
L 1078.6591 412.594233 
L 1080.488942 451.958408 
L 1082.318783 494.377424 
L 1084.148625 518.957477 
L 1085.978466 562.073054 
L 1087.808308 591.292671 
L 1089.638149 510.42297 
L 1091.467991 482.190744 
L 1093.297832 547.341024 
L 1095.127674 489.551144 
L 1096.957515 536.015842 
L 1098.787357 577.381518 
L 1100.617198 534.708318 
L 1102.44704 537.50551 
L 1104.276881 547.882431 
L 1106.106723 452.964384 
L 1107.936564 481.802858 
L 1109.766406 493.858833 
L 1111.596247 521.787012 
L 1113.426089 546.816271 
L 1115.25593 517.173799 
L 1117.085772 524.381643 
L 1118.915613 438.49233 
L 1120.745455 369.562096 
L 1120.745455 369.562096 
" clip-path="url(#pc23807ea56)" style="fill: none; stroke: #ff6347; stroke-linecap: square"/>
   </g>
   <g id="line2d_18">
    <path d="M 207.654545 733.258323 
L 209.484387 738.72 
L 211.314228 708.848141 
L 213.14407 561.922741 
L 214.973911 598.496326 
L 216.803753 606.691816 
L 218.633594 615.84447 
L 220.463436 685.97531 
L 222.293277 637.781902 
L 224.123119 667.666589 
L 225.95296 638.079674 
L 227.782802 556.890024 
L 229.612643 565.241634 
L 231.442485 554.97902 
L 233.272326 503.44878 
L 235.102168 596.674116 
L 236.932009 544.373216 
L 238.761851 512.445825 
L 240.591692 312.041948 
L 242.421534 255.353709 
L 244.251375 214.252255 
L 246.081217 216.519426 
L 247.911058 329.827044 
L 249.7409 305.87025 
L 251.570741 289.4189 
L 253.400583 281.249137 
L 255.230424 264.217663 
L 257.060266 258.469288 
L 258.890107 258.555895 
L 260.719949 269.943917 
L 264.379632 373.048751 
L 266.209473 416.866853 
L 268.039315 386.254383 
L 269.869156 361.754804 
L 271.698998 374.451244 
L 273.528839 367.869256 
L 275.358681 332.979027 
L 277.188522 401.461091 
L 279.018364 432.234508 
L 280.848206 410.552864 
L 282.678047 448.335624 
L 284.507889 405.735387 
L 286.33773 347.270739 
L 288.167572 348.808084 
L 289.997413 252.890947 
L 291.827255 270.644582 
L 293.657096 298.314402 
L 295.486938 328.414499 
L 297.316779 320.745608 
L 299.146621 436.922614 
L 300.976462 382.529148 
L 302.806304 366.190331 
L 304.636145 479.057957 
L 306.465987 465.453535 
L 308.295828 426.67028 
L 310.12567 467.413522 
L 311.955511 421.8024 
L 313.785353 351.893848 
L 315.615194 426.800332 
L 317.445036 377.968907 
L 319.274877 311.537384 
L 321.104719 433.400578 
L 322.93456 379.225816 
L 324.764402 413.158371 
L 326.594243 490.07513 
L 328.424085 415.912103 
L 330.253926 467.226621 
L 332.083768 489.175667 
L 333.913609 428.396087 
L 335.743451 488.366446 
L 337.573292 491.877407 
L 339.403134 503.888403 
L 341.232975 497.830771 
L 343.062817 532.298216 
L 344.892658 549.543453 
L 346.7225 540.878298 
L 348.552341 528.189666 
L 350.382183 491.410724 
L 352.212024 541.70555 
L 354.041866 463.010792 
L 355.871707 487.645904 
L 357.701549 538.387708 
L 359.53139 512.51937 
L 361.361232 572.269151 
L 363.191073 521.452609 
L 365.020915 481.009397 
L 366.850756 480.230189 
L 368.680598 479.14411 
L 370.510439 474.582534 
L 372.340281 375.705825 
L 374.170122 447.883479 
L 375.999964 525.18554 
L 377.829805 482.586467 
L 379.659647 534.749761 
L 381.489488 550.589665 
L 383.31933 537.674635 
L 385.149171 535.337269 
L 386.979013 494.174537 
L 388.808854 472.687546 
L 390.638696 490.51092 
L 392.468537 424.975452 
L 394.298379 452.022014 
L 396.12822 506.868705 
L 397.958062 426.489228 
L 399.787903 453.410083 
L 401.617745 500.753571 
L 403.447586 465.219724 
L 405.277428 472.49985 
L 407.107269 540.546408 
L 408.937111 473.903706 
L 410.766952 457.613162 
L 412.596794 391.0147 
L 414.426635 141.985239 
L 416.256477 244.864781 
L 418.086318 245.088085 
L 419.91616 390.679006 
L 421.746001 460.628561 
L 423.575843 548.921473 
L 425.405684 555.201586 
L 427.235526 472.987944 
L 429.065367 511.45047 
L 430.895209 400.802708 
L 432.72505 410.261098 
L 434.554892 508.255609 
L 436.384733 503.773287 
L 438.214575 560.716519 
L 440.044416 627.294721 
L 441.874258 573.572969 
L 443.704099 505.471607 
L 445.533941 540.320095 
L 447.363782 485.613082 
L 449.193624 496.997952 
L 451.023465 511.869505 
L 452.853307 458.720027 
L 454.683148 513.193257 
L 456.51299 490.337138 
L 458.342831 554.312828 
L 460.172673 601.352993 
L 462.002514 502.758139 
L 463.832356 532.580782 
L 465.662197 535.588003 
L 467.492039 469.472297 
L 469.32188 472.67312 
L 471.151722 500.813202 
L 472.981563 484.233561 
L 474.811405 480.532263 
L 476.641246 505.322529 
L 478.471088 506.930608 
L 480.300929 535.394089 
L 482.130771 561.839045 
L 483.960612 626.704473 
L 485.790454 581.144889 
L 487.620295 558.789613 
L 489.450137 546.499999 
L 491.279978 519.749206 
L 493.10982 522.018479 
L 494.939661 515.591305 
L 496.769503 552.046934 
L 498.599344 550.469353 
L 500.429186 557.449278 
L 502.259027 552.794821 
L 504.088869 547.01646 
L 505.91871 508.154521 
L 507.748552 502.175346 
L 509.578393 539.249604 
L 511.408235 502.498972 
L 513.238076 469.302292 
L 515.067918 535.547568 
L 516.897759 476.995603 
L 518.727601 527.141608 
L 520.557442 530.7655 
L 522.387284 474.606642 
L 524.217125 472.007695 
L 526.046967 472.163446 
L 527.876808 486.126506 
L 529.70665 514.506759 
L 531.536491 587.355291 
L 533.366333 543.799082 
L 535.196174 524.50904 
L 537.026016 524.209522 
L 538.855857 501.245726 
L 540.685699 531.985153 
L 542.51554 649.042747 
L 544.345382 737.943015 
L 546.175223 699.517475 
L 548.005065 738.72 
L 557.154272 738.72 
L 558.984114 679.320186 
L 560.813955 738.72 
L 562.643797 738.72 
L 564.473638 655.669465 
L 566.30348 713.249578 
L 568.133321 738.72 
L 569.963163 651.68049 
L 571.793004 713.447787 
L 573.622846 691.103778 
L 575.452687 738.72 
L 580.942212 738.72 
L 582.772053 631.184708 
L 584.601895 550.72463 
L 586.431736 531.276452 
L 588.261578 504.392882 
L 590.091419 503.425155 
L 591.921261 292.169254 
L 593.751102 133.92 
L 595.580944 260.776782 
L 597.410785 145.473711 
L 599.240627 266.63607 
L 601.070468 301.826783 
L 602.90031 278.89868 
L 604.730151 267.886164 
L 606.559993 264.457834 
L 608.389834 258.551295 
L 610.219676 255.889877 
L 612.049517 261.210953 
L 613.879359 295.404692 
L 615.7092 317.164111 
L 617.539042 354.860293 
L 619.368883 337.69729 
L 621.198725 354.050958 
L 623.028566 299.018843 
L 624.858408 336.80379 
L 626.688249 445.796052 
L 628.518091 413.283681 
L 630.347932 501.204325 
L 634.007615 435.124341 
L 635.837457 446.380805 
L 637.667298 351.546852 
L 639.49714 385.168729 
L 643.156823 289.735399 
L 644.986664 308.64863 
L 646.816506 390.25554 
L 648.646347 454.585978 
L 650.476189 371.108215 
L 652.30603 378.214644 
L 654.135872 393.909361 
L 655.965713 338.815088 
L 657.795555 429.124466 
L 659.625396 475.78816 
L 661.455238 415.299011 
L 663.285079 431.276351 
L 665.114921 382.361499 
L 666.944762 370.695853 
L 668.774604 385.834183 
L 670.604445 336.876682 
L 672.434287 433.060341 
L 674.264128 447.623544 
L 676.09397 456.064033 
L 677.923811 409.99361 
L 679.753653 473.798983 
L 681.583494 435.094014 
L 683.413336 392.435821 
L 685.243177 413.377785 
L 687.073019 380.709805 
L 688.90286 465.793631 
L 690.732702 482.435828 
L 692.562543 517.809579 
L 694.392385 522.501945 
L 696.222226 486.772821 
L 698.052068 487.094658 
L 699.881909 505.771239 
L 701.711751 493.646717 
L 703.541592 520.815949 
L 705.371434 552.003574 
L 707.201275 539.172254 
L 709.031117 537.94164 
L 710.860958 597.243819 
L 712.6908 532.487559 
L 714.520641 548.507974 
L 716.350483 528.412005 
L 718.180324 543.755438 
L 721.840007 642.392864 
L 723.669849 592.92091 
L 725.49969 653.81829 
L 727.329532 656.864449 
L 729.159373 664.324014 
L 730.989215 738.72 
L 732.819056 738.72 
L 734.648898 705.180396 
L 736.478739 693.999624 
L 738.308581 656.611372 
L 740.138422 599.921934 
L 741.968264 646.600849 
L 743.798105 610.289655 
L 745.627947 643.587849 
L 747.457788 647.163304 
L 749.28763 599.585104 
L 752.947313 643.65509 
L 754.777154 608.526919 
L 756.606996 610.725912 
L 758.436837 634.289994 
L 760.266679 597.540739 
L 762.09652 634.033275 
L 763.926362 512.664756 
L 765.756203 478.884629 
L 767.586045 514.387014 
L 769.415886 399.372472 
L 771.245728 310.899474 
L 773.075569 354.639147 
L 774.905411 335.364183 
L 776.735252 306.409967 
L 778.565094 329.986884 
L 780.394935 294.029827 
L 782.224777 286.80425 
L 784.054618 273.942887 
L 785.88446 352.784395 
L 787.714301 289.067844 
L 789.544143 380.681097 
L 791.373984 399.777622 
L 793.203826 369.073264 
L 795.033667 365.587007 
L 796.863509 336.91087 
L 798.69335 339.448966 
L 800.523192 349.006854 
L 802.353033 354.175331 
L 804.182875 381.949279 
L 806.012716 365.686164 
L 807.842558 407.747991 
L 809.672399 371.537786 
L 811.502241 368.123228 
L 813.332082 342.406778 
L 815.161924 381.067904 
L 816.991765 398.611438 
L 818.821607 346.455725 
L 820.651448 404.379292 
L 822.48129 421.113491 
L 824.311131 371.506806 
L 826.140973 369.646801 
L 827.970814 348.942907 
L 829.800656 299.477775 
L 831.630497 361.624837 
L 833.460339 415.488269 
L 835.29018 362.99442 
L 837.120022 422.555682 
L 838.949863 429.752324 
L 840.779705 363.841947 
L 842.609546 365.161241 
L 844.439388 388.244072 
L 846.269229 340.573096 
L 849.928912 456.086721 
L 851.758754 443.161213 
L 853.588595 413.78018 
L 855.418437 416.882073 
L 857.248278 371.112247 
L 859.07812 400.605386 
L 860.907961 465.208934 
L 862.737803 438.746614 
L 864.567644 490.292244 
L 866.397486 496.592007 
L 868.227327 486.567633 
L 870.057169 529.75535 
L 871.88701 485.464715 
L 873.716852 519.389716 
L 875.546693 513.465118 
L 877.376535 521.798725 
L 879.206376 522.11281 
L 881.036218 497.788603 
L 882.866059 524.066663 
L 884.695901 504.757 
L 886.525742 534.520494 
L 888.355584 558.437081 
L 890.185425 537.812553 
L 892.015267 581.315689 
L 893.845108 606.461385 
L 895.67495 579.572334 
L 897.504791 605.732637 
L 899.334633 623.95199 
L 901.164474 613.861184 
L 902.994316 614.81193 
L 904.824157 653.629679 
L 906.653999 704.134453 
L 908.48384 643.072729 
L 910.313682 675.374702 
L 912.143523 635.30605 
L 913.973365 634.244675 
L 915.803206 628.576319 
L 917.633048 646.716824 
L 919.462889 646.48733 
L 921.292731 662.209612 
L 923.122572 633.84734 
L 924.952414 658.753489 
L 926.782255 647.51588 
L 928.612097 660.468528 
L 930.441938 595.600871 
L 932.27178 614.004483 
L 934.101621 589.521686 
L 935.931463 535.325456 
L 937.761304 539.859317 
L 939.591146 515.136604 
L 941.420987 506.179512 
L 943.250829 531.947983 
L 945.08067 477.74633 
L 946.910512 405.080439 
L 948.740353 351.132331 
L 950.570195 326.226182 
L 954.229878 289.031213 
L 956.059719 280.359243 
L 957.889561 286.36298 
L 959.719402 322.667289 
L 961.549244 323.875442 
L 963.379085 279.288213 
L 965.208927 341.334016 
L 968.86861 432.234394 
L 970.698451 410.829495 
L 972.528293 402.237061 
L 974.358134 420.562046 
L 976.187976 376.688828 
L 978.017817 300.153764 
L 979.847659 362.124261 
L 981.6775 348.710516 
L 983.507342 319.488188 
L 985.337183 329.354909 
L 987.167025 336.658915 
L 988.996866 314.963357 
L 990.826708 342.755279 
L 992.656549 297.352695 
L 994.486391 311.453787 
L 996.316232 334.570693 
L 998.146074 348.35858 
L 999.975915 416.457813 
L 1001.805757 368.537096 
L 1003.635598 406.757264 
L 1005.46544 337.402514 
L 1007.295281 332.162252 
L 1009.125123 362.486875 
L 1010.954964 313.105084 
L 1012.784806 368.567848 
L 1014.614647 386.908195 
L 1016.444489 349.047914 
L 1018.27433 350.402533 
L 1020.104172 307.31687 
L 1021.934013 192.263511 
L 1023.763855 322.521789 
L 1025.593696 414.014161 
L 1027.423538 443.275136 
L 1029.253379 453.766818 
L 1031.083221 448.472009 
L 1034.742904 263.666047 
L 1036.572745 318.753875 
L 1038.402587 319.877096 
L 1040.232428 374.340955 
L 1042.06227 471.285705 
L 1043.892111 471.633013 
L 1045.721953 483.315982 
L 1047.551794 505.255998 
L 1049.381636 467.802884 
L 1051.211478 444.783035 
L 1053.041319 457.873778 
L 1054.871161 456.892989 
L 1056.701002 534.213849 
L 1058.530844 520.276742 
L 1060.360685 525.283619 
L 1062.190527 500.286831 
L 1064.020368 480.624748 
L 1065.85021 406.347144 
L 1067.680051 355.17276 
L 1069.509893 409.37447 
L 1071.339734 489.600524 
L 1073.169576 462.109342 
L 1074.999417 458.524665 
L 1076.829259 465.62956 
L 1078.6591 388.581527 
L 1080.488942 440.879445 
L 1082.318783 501.684128 
L 1084.148625 519.057515 
L 1087.808308 641.232083 
L 1089.638149 550.036204 
L 1091.467991 501.195068 
L 1093.297832 544.041667 
L 1095.127674 483.603432 
L 1096.957515 498.466295 
L 1098.787357 577.480875 
L 1100.617198 513.796155 
L 1102.44704 533.03111 
L 1104.276881 572.272133 
L 1106.106723 459.717484 
L 1107.936564 468.041976 
L 1109.766406 524.390659 
L 1111.596247 502.787699 
L 1113.426089 566.305168 
L 1115.25593 546.112113 
L 1117.085772 521.48163 
L 1118.915613 503.519457 
L 1120.745455 421.503137 
L 1120.745455 421.503137 
" clip-path="url(#pc23807ea56)" style="fill: none; stroke: #da70d6; stroke-linecap: square"/>
   </g>
   <g id="line2d_19">
    <path d="M 207.654545 697.175217 
L 209.484387 672.056562 
L 211.314228 644.057138 
L 213.14407 586.878328 
L 214.973911 597.731743 
L 216.803753 551.096217 
L 218.633594 610.62498 
L 220.463436 649.766291 
L 222.293277 621.882864 
L 224.123119 573.912667 
L 225.95296 502.232747 
L 227.782802 439.91081 
L 229.612643 450.281867 
L 231.442485 456.537077 
L 233.272326 475.951038 
L 235.102168 533.958315 
L 236.932009 524.775052 
L 238.761851 494.029264 
L 240.591692 379.108967 
L 242.421534 300.56942 
L 244.251375 272.313853 
L 246.081217 240.334072 
L 247.911058 212.89988 
L 249.7409 198.899536 
L 253.400583 222.899265 
L 255.230424 227.562866 
L 257.060266 234.147097 
L 258.890107 246.489357 
L 260.719949 263.538664 
L 262.54979 283.819234 
L 264.379632 310.939824 
L 266.209473 331.005354 
L 268.039315 327.396115 
L 269.869156 314.939079 
L 271.698998 312.698542 
L 273.528839 326.487025 
L 275.358681 281.587074 
L 277.188522 303.626362 
L 279.018364 320.047385 
L 280.848206 332.929477 
L 282.678047 342.708426 
L 284.507889 307.91619 
L 286.33773 291.212005 
L 288.167572 292.706245 
L 289.997413 301.360185 
L 291.827255 298.5318 
L 293.657096 303.760987 
L 295.486938 310.732621 
L 297.316779 315.767553 
L 299.146621 299.8432 
L 300.976462 308.909785 
L 302.806304 256.20683 
L 304.636145 409.061208 
L 306.465987 384.062233 
L 308.295828 309.270269 
L 310.12567 385.473898 
L 311.955511 321.799174 
L 313.785353 280.521184 
L 315.615194 357.661475 
L 317.445036 306.995885 
L 319.274877 297.214522 
L 321.104719 359.808305 
L 322.93456 343.944265 
L 324.764402 358.992752 
L 326.594243 398.724822 
L 328.424085 356.053822 
L 330.253926 440.086239 
L 332.083768 447.751552 
L 333.913609 423.720872 
L 335.743451 514.398713 
L 337.573292 521.567626 
L 339.403134 545.675699 
L 341.232975 519.631165 
L 343.062817 567.463699 
L 344.892658 572.161219 
L 346.7225 569.210903 
L 348.552341 549.127711 
L 350.382183 496.644 
L 352.212024 511.04583 
L 354.041866 426.523104 
L 355.871707 485.204525 
L 357.701549 534.904646 
L 359.53139 521.633547 
L 361.361232 544.32571 
L 363.191073 508.373281 
L 365.020915 464.064444 
L 366.850756 410.442745 
L 368.680598 360.475946 
L 370.510439 376.441529 
L 372.340281 254.777389 
L 374.170122 367.307106 
L 375.999964 460.959598 
L 377.829805 434.521045 
L 379.659647 460.435016 
L 381.489488 440.382889 
L 383.31933 432.021313 
L 385.149171 442.115653 
L 386.979013 387.713299 
L 388.808854 372.200542 
L 390.638696 375.702815 
L 392.468537 307.411939 
L 394.298379 410.491188 
L 396.12822 428.877224 
L 397.958062 408.981416 
L 399.787903 359.06536 
L 401.617745 335.110041 
L 403.447586 344.000801 
L 405.277428 423.905984 
L 407.107269 424.485143 
L 408.937111 435.721304 
L 410.766952 409.418085 
L 412.596794 373.957585 
L 414.426635 316.129087 
L 416.256477 295.689274 
L 418.086318 294.490519 
L 421.746001 372.795319 
L 423.575843 486.847927 
L 425.405684 502.285493 
L 427.235526 406.707458 
L 429.065367 423.011745 
L 430.895209 279.063461 
L 432.72505 332.504165 
L 434.554892 423.371832 
L 436.384733 441.185608 
L 438.214575 468.031469 
L 440.044416 513.324957 
L 441.874258 474.865214 
L 443.704099 386.178595 
L 445.533941 330.944274 
L 447.363782 345.773944 
L 449.193624 379.832377 
L 451.023465 389.579268 
L 452.853307 378.336206 
L 454.683148 382.12042 
L 456.51299 360.593816 
L 458.342831 496.917195 
L 460.172673 470.591231 
L 462.002514 383.845744 
L 463.832356 372.688551 
L 465.662197 385.992546 
L 467.492039 377.299052 
L 469.32188 338.005866 
L 471.151722 326.55421 
L 472.981563 346.023372 
L 474.811405 335.107827 
L 476.641246 344.986956 
L 478.471088 440.520637 
L 480.300929 517.089265 
L 482.130771 532.150913 
L 483.960612 588.541494 
L 485.790454 547.460158 
L 487.620295 519.015617 
L 489.450137 487.927391 
L 491.279978 531.107171 
L 493.10982 502.780899 
L 494.939661 489.124072 
L 496.769503 480.639798 
L 498.599344 478.096676 
L 500.429186 507.011237 
L 502.259027 506.938374 
L 504.088869 503.997159 
L 505.91871 496.003931 
L 507.748552 475.944053 
L 509.578393 551.283643 
L 511.408235 515.043466 
L 513.238076 481.248801 
L 515.067918 557.51439 
L 516.897759 505.95148 
L 518.727601 565.633864 
L 520.557442 546.685537 
L 522.387284 490.802686 
L 524.217125 456.745445 
L 526.046967 455.084323 
L 527.876808 484.182392 
L 529.70665 520.762025 
L 531.536491 578.162259 
L 533.366333 556.202606 
L 535.196174 532.167581 
L 537.026016 533.402568 
L 538.855857 529.498511 
L 540.685699 531.457333 
L 542.51554 584.11247 
L 544.345382 614.245393 
L 546.175223 633.366537 
L 548.005065 678.258061 
L 549.834906 683.604444 
L 551.664748 684.557724 
L 553.494589 679.546446 
L 555.324431 664.852019 
L 557.154272 671.399066 
L 560.813955 652.459725 
L 562.643797 639.563961 
L 564.473638 631.829873 
L 566.30348 631.246327 
L 568.133321 659.044979 
L 569.963163 632.285135 
L 571.793004 664.231984 
L 573.622846 648.636226 
L 575.452687 637.964756 
L 577.282529 644.478069 
L 579.11237 640.775202 
L 580.942212 611.100438 
L 582.772053 595.38468 
L 584.601895 569.618467 
L 586.431736 514.073837 
L 588.261578 477.239068 
L 590.091419 469.543315 
L 591.921261 324.002768 
L 593.751102 228.038154 
L 595.580944 213.011134 
L 597.410785 221.455115 
L 599.240627 199.908891 
L 601.070468 209.873009 
L 602.90031 211.669493 
L 604.730151 225.617077 
L 606.559993 236.162512 
L 608.389834 240.695947 
L 610.219676 249.717611 
L 612.049517 260.397529 
L 613.879359 259.333995 
L 615.7092 269.42896 
L 617.539042 288.082058 
L 619.368883 295.303148 
L 621.198725 303.853017 
L 623.028566 300.857978 
L 624.858408 298.716343 
L 626.688249 347.058794 
L 628.518091 363.31373 
L 630.347932 480.18663 
L 632.177774 371.625131 
L 634.007615 316.470858 
L 635.837457 329.008168 
L 637.667298 306.901071 
L 639.49714 301.957659 
L 641.326981 292.463547 
L 643.156823 301.217439 
L 644.986664 308.884882 
L 646.816506 307.220722 
L 648.646347 336.953208 
L 650.476189 307.194428 
L 652.30603 291.922978 
L 654.135872 311.488543 
L 655.965713 276.900473 
L 657.795555 368.030573 
L 659.625396 403.951539 
L 661.455238 350.839174 
L 663.285079 365.9043 
L 665.114921 320.094153 
L 666.944762 326.367252 
L 668.774604 362.669402 
L 670.604445 357.599686 
L 672.434287 357.269841 
L 674.264128 362.858205 
L 676.09397 379.128617 
L 677.923811 340.333209 
L 679.753653 429.085649 
L 681.583494 398.999011 
L 683.413336 338.565234 
L 685.243177 355.470688 
L 687.073019 384.970556 
L 688.90286 476.209581 
L 690.732702 478.428906 
L 692.562543 520.895599 
L 694.392385 534.678488 
L 696.222226 509.051769 
L 698.052068 532.388869 
L 699.881909 488.927716 
L 701.711751 454.166914 
L 703.541592 514.570053 
L 705.371434 550.436257 
L 707.201275 506.245036 
L 709.031117 519.130265 
L 710.860958 541.461418 
L 712.6908 505.139803 
L 714.520641 516.704332 
L 716.350483 512.681396 
L 718.180324 513.315899 
L 720.010166 551.987246 
L 721.840007 576.548444 
L 723.669849 580.390159 
L 725.49969 632.922939 
L 727.329532 638.818488 
L 729.159373 642.85296 
L 730.989215 645.263992 
L 732.819056 642.637089 
L 734.648898 634.579879 
L 736.478739 617.125869 
L 738.308581 579.635599 
L 740.138422 553.482395 
L 741.968264 547.578355 
L 743.798105 522.765912 
L 745.627947 603.342242 
L 747.457788 606.584821 
L 749.28763 591.023082 
L 751.117471 569.97932 
L 752.947313 571.027434 
L 754.777154 561.951932 
L 756.606996 569.781884 
L 758.436837 578.661938 
L 760.266679 572.258929 
L 762.09652 579.102583 
L 763.926362 531.301838 
L 765.756203 492.224375 
L 769.415886 328.220386 
L 771.245728 228.03361 
L 773.075569 271.301687 
L 774.905411 235.077739 
L 776.735252 227.010569 
L 778.565094 245.120627 
L 780.394935 239.101641 
L 784.054618 245.398848 
L 785.88446 287.885304 
L 787.714301 239.710616 
L 789.544143 335.361798 
L 791.373984 366.996968 
L 793.203826 318.867997 
L 795.033667 312.214225 
L 796.863509 294.086903 
L 798.69335 297.983762 
L 800.523192 311.053492 
L 802.353033 309.483322 
L 804.182875 329.141572 
L 806.012716 311.728402 
L 807.842558 308.87696 
L 809.672399 288.974763 
L 811.502241 288.872481 
L 813.332082 277.384365 
L 815.161924 287.736141 
L 816.991765 322.928955 
L 818.821607 334.051534 
L 820.651448 335.176544 
L 822.48129 321.383007 
L 824.311131 320.353179 
L 826.140973 291.148569 
L 827.970814 279.282789 
L 829.800656 272.689216 
L 831.630497 322.620578 
L 833.460339 324.340393 
L 835.29018 266.373608 
L 837.120022 329.364904 
L 838.949863 374.458059 
L 840.779705 306.624753 
L 842.609546 313.258052 
L 844.439388 356.495631 
L 846.269229 376.300914 
L 848.099071 372.13492 
L 849.928912 399.314374 
L 851.758754 381.770698 
L 853.588595 369.201896 
L 855.418437 380.587391 
L 857.248278 382.663261 
L 859.07812 405.300818 
L 860.907961 470.085844 
L 862.737803 422.251535 
L 864.567644 524.769884 
L 866.397486 464.512728 
L 868.227327 529.448889 
L 870.057169 520.685059 
L 871.88701 485.576906 
L 873.716852 532.047169 
L 875.546693 516.846141 
L 877.376535 491.349502 
L 879.206376 493.151978 
L 881.036218 484.705555 
L 882.866059 521.646865 
L 884.695901 495.763363 
L 886.525742 510.308904 
L 888.355584 519.605354 
L 890.185425 501.311122 
L 892.015267 553.453673 
L 893.845108 531.546553 
L 895.67495 534.587778 
L 897.504791 542.520905 
L 901.164474 632.805735 
L 902.994316 633.410834 
L 904.824157 603.08191 
L 906.653999 622.999923 
L 908.48384 609.353192 
L 910.313682 611.02198 
L 912.143523 586.924499 
L 913.973365 554.366184 
L 915.803206 562.313751 
L 917.633048 563.426693 
L 919.462889 583.917065 
L 921.292731 624.380034 
L 923.122572 605.905468 
L 924.952414 623.386056 
L 926.782255 600.482792 
L 928.612097 594.661554 
L 930.441938 561.724965 
L 932.27178 581.593286 
L 934.101621 541.603184 
L 935.931463 523.190698 
L 937.761304 514.522234 
L 939.591146 502.619483 
L 941.420987 506.688619 
L 945.08067 431.070169 
L 946.910512 287.831182 
L 948.740353 239.92188 
L 950.570195 235.219434 
L 952.400036 200.195915 
L 954.229878 203.352952 
L 956.059719 215.620077 
L 957.889561 224.932456 
L 959.719402 259.13619 
L 961.549244 280.596717 
L 963.379085 280.539102 
L 965.208927 290.446513 
L 967.038768 297.350878 
L 968.86861 336.346448 
L 972.528293 323.213679 
L 974.358134 319.144032 
L 976.187976 317.379351 
L 978.017817 293.785794 
L 979.847659 312.381135 
L 981.6775 303.68199 
L 983.507342 297.324726 
L 985.337183 294.028379 
L 987.167025 295.355908 
L 988.996866 293.333848 
L 990.826708 298.601142 
L 992.656549 307.142549 
L 994.486391 310.23155 
L 996.316232 311.047274 
L 998.146074 312.008214 
L 999.975915 312.43821 
L 1001.805757 310.382814 
L 1003.635598 309.246559 
L 1007.295281 257.615599 
L 1009.125123 243.912729 
L 1010.954964 241.959955 
L 1012.784806 292.682819 
L 1014.614647 326.767887 
L 1016.444489 320.60042 
L 1018.27433 322.408632 
L 1020.104172 316.446722 
L 1021.934013 315.071062 
L 1023.763855 335.453119 
L 1025.593696 378.158761 
L 1027.423538 388.992186 
L 1029.253379 390.637463 
L 1031.083221 385.423695 
L 1032.913062 356.304556 
L 1034.742904 331.868981 
L 1036.572745 352.83988 
L 1038.402587 307.207859 
L 1040.232428 365.10993 
L 1042.06227 482.887178 
L 1043.892111 438.637347 
L 1045.721953 458.383396 
L 1047.551794 523.000957 
L 1049.381636 495.582851 
L 1051.211478 498.428643 
L 1053.041319 424.654779 
L 1054.871161 439.324183 
L 1056.701002 525.180344 
L 1058.530844 491.056998 
L 1060.360685 509.892311 
L 1062.190527 504.240226 
L 1064.020368 480.459456 
L 1065.85021 430.27242 
L 1067.680051 328.438295 
L 1069.509893 326.117796 
L 1071.339734 411.063362 
L 1073.169576 381.837541 
L 1074.999417 407.885028 
L 1076.829259 408.30909 
L 1078.6591 361.097528 
L 1080.488942 382.725675 
L 1082.318783 424.105407 
L 1084.148625 432.267021 
L 1085.978466 467.148817 
L 1087.808308 499.353009 
L 1089.638149 464.67393 
L 1091.467991 418.596039 
L 1093.297832 475.427023 
L 1095.127674 424.735991 
L 1096.957515 476.431551 
L 1098.787357 523.032519 
L 1100.617198 477.874678 
L 1102.44704 505.597797 
L 1104.276881 524.851805 
L 1106.106723 438.639505 
L 1107.936564 426.914994 
L 1109.766406 449.642254 
L 1111.596247 459.664498 
L 1113.426089 488.270724 
L 1115.25593 500.378492 
L 1117.085772 527.725098 
L 1118.915613 490.264927 
L 1120.745455 421.790332 
L 1120.745455 421.790332 
" clip-path="url(#pc23807ea56)" style="fill: none; stroke: #8fbc8f; stroke-linecap: square"/>
   </g>
   <g id="patch_3">
    <path d="M 162 768.96 
L 162 103.68 
" style="fill: none; stroke: #000000; stroke-width: 0.8; stroke-linejoin: miter; stroke-linecap: square"/>
   </g>
   <g id="patch_4">
    <path d="M 1166.4 768.96 
L 1166.4 103.68 
" style="fill: none; stroke: #000000; stroke-width: 0.8; stroke-linejoin: miter; stroke-linecap: square"/>
   </g>
   <g id="patch_5">
    <path d="M 162 768.96 
L 1166.4 768.96 
" style="fill: none; stroke: #000000; stroke-width: 0.8; stroke-linejoin: miter; stroke-linecap: square"/>
   </g>
   <g id="patch_6">
    <path d="M 162 103.68 
L 1166.4 103.68 
" style="fill: none; stroke: #000000; stroke-width: 0.8; stroke-linejoin: miter; stroke-linecap: square"/>
   </g>
   <g id="text_16">
    <!-- Function 1 -->
    <g transform="translate(632.957813 97.68) scale(0.12 -0.12)">
     <defs>
      <path id="DejaVuSans-46" d="M 628 4666 
L 3309 4666 
L 3309 4134 
L 1259 4134 
L 1259 2759 
L 3109 2759 
L 3109 2228 
L 1259 2228 
L 1259 0 
L 628 0 
L 628 4666 
z
" transform="scale(0.015625)"/>
      <path id="DejaVuSans-75" d="M 544 1381 
L 544 3500 
L 1119 3500 
L 1119 1403 
Q 1119 906 1312 657 
Q 1506 409 1894 409 
Q 2359 409 2629 706 
Q 2900 1003 2900 1516 
L 2900 3500 
L 3475 3500 
L 3475 0 
L 2900 0 
L 2900 538 
Q 2691 219 2414 64 
Q 2138 -91 1772 -91 
Q 1169 -91 856 284 
Q 544 659 544 1381 
z
M 1991 3584 
L 1991 3584 
z
" transform="scale(0.015625)"/>
      <path id="DejaVuSans-6e" d="M 3513 2113 
L 3513 0 
L 2938 0 
L 2938 2094 
Q 2938 2591 2744 2837 
Q 2550 3084 2163 3084 
Q 1697 3084 1428 2787 
Q 1159 2491 1159 1978 
L 1159 0 
L 581 0 
L 581 3500 
L 1159 3500 
L 1159 2956 
Q 1366 3272 1645 3428 
Q 1925 3584 2291 3584 
Q 2894 3584 3203 3211 
Q 3513 2838 3513 2113 
z
" transform="scale(0.015625)"/>
      <path id="DejaVuSans-63" d="M 3122 3366 
L 3122 2828 
Q 2878 2963 2633 3030 
Q 2388 3097 2138 3097 
Q 1578 3097 1268 2742 
Q 959 2388 959 1747 
Q 959 1106 1268 751 
Q 1578 397 2138 397 
Q 2388 397 2633 464 
Q 2878 531 3122 666 
L 3122 134 
Q 2881 22 2623 -34 
Q 2366 -91 2075 -91 
Q 1284 -91 818 406 
Q 353 903 353 1747 
Q 353 2603 823 3093 
Q 1294 3584 2113 3584 
Q 2378 3584 2631 3529 
Q 2884 3475 3122 3366 
z
" transform="scale(0.015625)"/>
      <path id="DejaVuSans-74" d="M 1172 4494 
L 1172 3500 
L 2356 3500 
L 2356 3053 
L 1172 3053 
L 1172 1153 
Q 1172 725 1289 603 
Q 1406 481 1766 481 
L 2356 481 
L 2356 0 
L 1766 0 
Q 1100 0 847 248 
Q 594 497 594 1153 
L 594 3053 
L 172 3053 
L 172 3500 
L 594 3500 
L 594 4494 
L 1172 4494 
z
" transform="scale(0.015625)"/>
      <path id="DejaVuSans-69" d="M 603 3500 
L 1178 3500 
L 1178 0 
L 603 0 
L 603 3500 
z
M 603 4863 
L 1178 4863 
L 1178 4134 
L 603 4134 
L 603 4863 
z
" transform="scale(0.015625)"/>
      <path id="DejaVuSans-6f" d="M 1959 3097 
Q 1497 3097 1228 2736 
Q 959 2375 959 1747 
Q 959 1119 1226 758 
Q 1494 397 1959 397 
Q 2419 397 2687 759 
Q 2956 1122 2956 1747 
Q 2956 2369 2687 2733 
Q 2419 3097 1959 3097 
z
M 1959 3584 
Q 2709 3584 3137 3096 
Q 3566 2609 3566 1747 
Q 3566 888 3137 398 
Q 2709 -91 1959 -91 
Q 1206 -91 779 398 
Q 353 888 353 1747 
Q 353 2609 779 3096 
Q 1206 3584 1959 3584 
z
" transform="scale(0.015625)"/>
      <path id="DejaVuSans-20" transform="scale(0.015625)"/>
     </defs>
     <use xlink:href="#DejaVuSans-46"/>
     <use xlink:href="#DejaVuSans-75" x="52.019531"/>
     <use xlink:href="#DejaVuSans-6e" x="115.398438"/>
     <use xlink:href="#DejaVuSans-63" x="178.777344"/>
     <use xlink:href="#DejaVuSans-74" x="233.757812"/>
     <use xlink:href="#DejaVuSans-69" x="272.966797"/>
     <use xlink:href="#DejaVuSans-6f" x="300.75"/>
     <use xlink:href="#DejaVuSans-6e" x="361.931641"/>
     <use xlink:href="#DejaVuSans-20" x="425.310547"/>
     <use xlink:href="#DejaVuSans-31" x="457.097656"/>
    </g>
   </g>
   <g id="legend_1">
    <g id="patch_7">
     <path d="M 1011.90625 170.3925 
L 1159.4 170.3925 
Q 1161.4 170.3925 1161.4 168.3925 
L 1161.4 110.68 
Q 1161.4 108.68 1159.4 108.68 
L 1011.90625 108.68 
Q 1009.90625 108.68 1009.90625 110.68 
L 1009.90625 168.3925 
Q 1009.90625 170.3925 1011.90625 170.3925 
z
" style="fill: #ffffff; opacity: 0.8; stroke: #cccccc; stroke-linejoin: miter"/>
    </g>
    <g id="line2d_20">
     <path d="M 1013.90625 116.778437 
L 1023.90625 116.778437 
L 1033.90625 116.778437 
" style="fill: none; stroke: #4169e1; stroke-linecap: square"/>
    </g>
    <g id="text_17">
     <!-- Truth -->
     <g transform="translate(1041.90625 120.278437) scale(0.1 -0.1)">
      <defs>
       <path id="DejaVuSans-54" d="M -19 4666 
L 3928 4666 
L 3928 4134 
L 2272 4134 
L 2272 0 
L 1638 0 
L 1638 4134 
L -19 4134 
L -19 4666 
z
" transform="scale(0.015625)"/>
       <path id="DejaVuSans-72" d="M 2631 2963 
Q 2534 3019 2420 3045 
Q 2306 3072 2169 3072 
Q 1681 3072 1420 2755 
Q 1159 2438 1159 1844 
L 1159 0 
L 581 0 
L 581 3500 
L 1159 3500 
L 1159 2956 
Q 1341 3275 1631 3429 
Q 1922 3584 2338 3584 
Q 2397 3584 2469 3576 
Q 2541 3569 2628 3553 
L 2631 2963 
z
" transform="scale(0.015625)"/>
       <path id="DejaVuSans-68" d="M 3513 2113 
L 3513 0 
L 2938 0 
L 2938 2094 
Q 2938 2591 2744 2837 
Q 2550 3084 2163 3084 
Q 1697 3084 1428 2787 
Q 1159 2491 1159 1978 
L 1159 0 
L 581 0 
L 581 4863 
L 1159 4863 
L 1159 2956 
Q 1366 3272 1645 3428 
Q 1925 3584 2291 3584 
Q 2894 3584 3203 3211 
Q 3513 2838 3513 2113 
z
" transform="scale(0.015625)"/>
      </defs>
      <use xlink:href="#DejaVuSans-54"/>
      <use xlink:href="#DejaVuSans-72" x="46.333984"/>
      <use xlink:href="#DejaVuSans-75" x="87.447266"/>
      <use xlink:href="#DejaVuSans-74" x="150.826172"/>
      <use xlink:href="#DejaVuSans-68" x="190.035156"/>
     </g>
    </g>
    <g id="line2d_21">
     <path d="M 1013.90625 131.456562 
L 1023.90625 131.456562 
L 1033.90625 131.456562 
" style="fill: none; stroke: #ff6347; stroke-linecap: square"/>
    </g>
    <g id="text_18">
     <!-- Gossip predictions -->
     <g transform="translate(1041.90625 134.956562) scale(0.1 -0.1)">
      <defs>
       <path id="DejaVuSans-47" d="M 3809 666 
L 3809 1919 
L 2778 1919 
L 2778 2438 
L 4434 2438 
L 4434 434 
Q 4069 175 3628 42 
Q 3188 -91 2688 -91 
Q 1594 -91 976 548 
Q 359 1188 359 2328 
Q 359 3472 976 4111 
Q 1594 4750 2688 4750 
Q 3144 4750 3555 4637 
Q 3966 4525 4313 4306 
L 4313 3634 
Q 3963 3931 3569 4081 
Q 3175 4231 2741 4231 
Q 1884 4231 1454 3753 
Q 1025 3275 1025 2328 
Q 1025 1384 1454 906 
Q 1884 428 2741 428 
Q 3075 428 3337 486 
Q 3600 544 3809 666 
z
" transform="scale(0.015625)"/>
       <path id="DejaVuSans-73" d="M 2834 3397 
L 2834 2853 
Q 2591 2978 2328 3040 
Q 2066 3103 1784 3103 
Q 1356 3103 1142 2972 
Q 928 2841 928 2578 
Q 928 2378 1081 2264 
Q 1234 2150 1697 2047 
L 1894 2003 
Q 2506 1872 2764 1633 
Q 3022 1394 3022 966 
Q 3022 478 2636 193 
Q 2250 -91 1575 -91 
Q 1294 -91 989 -36 
Q 684 19 347 128 
L 347 722 
Q 666 556 975 473 
Q 1284 391 1588 391 
Q 1994 391 2212 530 
Q 2431 669 2431 922 
Q 2431 1156 2273 1281 
Q 2116 1406 1581 1522 
L 1381 1569 
Q 847 1681 609 1914 
Q 372 2147 372 2553 
Q 372 3047 722 3315 
Q 1072 3584 1716 3584 
Q 2034 3584 2315 3537 
Q 2597 3491 2834 3397 
z
" transform="scale(0.015625)"/>
       <path id="DejaVuSans-70" d="M 1159 525 
L 1159 -1331 
L 581 -1331 
L 581 3500 
L 1159 3500 
L 1159 2969 
Q 1341 3281 1617 3432 
Q 1894 3584 2278 3584 
Q 2916 3584 3314 3078 
Q 3713 2572 3713 1747 
Q 3713 922 3314 415 
Q 2916 -91 2278 -91 
Q 1894 -91 1617 61 
Q 1341 213 1159 525 
z
M 3116 1747 
Q 3116 2381 2855 2742 
Q 2594 3103 2138 3103 
Q 1681 3103 1420 2742 
Q 1159 2381 1159 1747 
Q 1159 1113 1420 752 
Q 1681 391 2138 391 
Q 2594 391 2855 752 
Q 3116 1113 3116 1747 
z
" transform="scale(0.015625)"/>
       <path id="DejaVuSans-65" d="M 3597 1894 
L 3597 1613 
L 953 1613 
Q 991 1019 1311 708 
Q 1631 397 2203 397 
Q 2534 397 2845 478 
Q 3156 559 3463 722 
L 3463 178 
Q 3153 47 2828 -22 
Q 2503 -91 2169 -91 
Q 1331 -91 842 396 
Q 353 884 353 1716 
Q 353 2575 817 3079 
Q 1281 3584 2069 3584 
Q 2775 3584 3186 3129 
Q 3597 2675 3597 1894 
z
M 3022 2063 
Q 3016 2534 2758 2815 
Q 2500 3097 2075 3097 
Q 1594 3097 1305 2825 
Q 1016 2553 972 2059 
L 3022 2063 
z
" transform="scale(0.015625)"/>
       <path id="DejaVuSans-64" d="M 2906 2969 
L 2906 4863 
L 3481 4863 
L 3481 0 
L 2906 0 
L 2906 525 
Q 2725 213 2448 61 
Q 2172 -91 1784 -91 
Q 1150 -91 751 415 
Q 353 922 353 1747 
Q 353 2572 751 3078 
Q 1150 3584 1784 3584 
Q 2172 3584 2448 3432 
Q 2725 3281 2906 2969 
z
M 947 1747 
Q 947 1113 1208 752 
Q 1469 391 1925 391 
Q 2381 391 2643 752 
Q 2906 1113 2906 1747 
Q 2906 2381 2643 2742 
Q 2381 3103 1925 3103 
Q 1469 3103 1208 2742 
Q 947 2381 947 1747 
z
" transform="scale(0.015625)"/>
      </defs>
      <use xlink:href="#DejaVuSans-47"/>
      <use xlink:href="#DejaVuSans-6f" x="77.490234"/>
      <use xlink:href="#DejaVuSans-73" x="138.671875"/>
      <use xlink:href="#DejaVuSans-73" x="190.771484"/>
      <use xlink:href="#DejaVuSans-69" x="242.871094"/>
      <use xlink:href="#DejaVuSans-70" x="270.654297"/>
      <use xlink:href="#DejaVuSans-20" x="334.130859"/>
      <use xlink:href="#DejaVuSans-70" x="365.917969"/>
      <use xlink:href="#DejaVuSans-72" x="429.394531"/>
      <use xlink:href="#DejaVuSans-65" x="468.257812"/>
      <use xlink:href="#DejaVuSans-64" x="529.78125"/>
      <use xlink:href="#DejaVuSans-69" x="593.257812"/>
      <use xlink:href="#DejaVuSans-63" x="621.041016"/>
      <use xlink:href="#DejaVuSans-74" x="676.021484"/>
      <use xlink:href="#DejaVuSans-69" x="715.230469"/>
      <use xlink:href="#DejaVuSans-6f" x="743.013672"/>
      <use xlink:href="#DejaVuSans-6e" x="804.195312"/>
      <use xlink:href="#DejaVuSans-73" x="867.574219"/>
     </g>
    </g>
    <g id="line2d_22">
     <path d="M 1013.90625 146.134687 
L 1023.90625 146.134687 
L 1033.90625 146.134687 
" style="fill: none; stroke: #da70d6; stroke-linecap: square"/>
    </g>
    <g id="text_19">
     <!-- Centralized predictions -->
     <g transform="translate(1041.90625 149.634687) scale(0.1 -0.1)">
      <defs>
       <path id="DejaVuSans-43" d="M 4122 4306 
L 4122 3641 
Q 3803 3938 3442 4084 
Q 3081 4231 2675 4231 
Q 1875 4231 1450 3742 
Q 1025 3253 1025 2328 
Q 1025 1406 1450 917 
Q 1875 428 2675 428 
Q 3081 428 3442 575 
Q 3803 722 4122 1019 
L 4122 359 
Q 3791 134 3420 21 
Q 3050 -91 2638 -91 
Q 1578 -91 968 557 
Q 359 1206 359 2328 
Q 359 3453 968 4101 
Q 1578 4750 2638 4750 
Q 3056 4750 3426 4639 
Q 3797 4528 4122 4306 
z
" transform="scale(0.015625)"/>
       <path id="DejaVuSans-61" d="M 2194 1759 
Q 1497 1759 1228 1600 
Q 959 1441 959 1056 
Q 959 750 1161 570 
Q 1363 391 1709 391 
Q 2188 391 2477 730 
Q 2766 1069 2766 1631 
L 2766 1759 
L 2194 1759 
z
M 3341 1997 
L 3341 0 
L 2766 0 
L 2766 531 
Q 2569 213 2275 61 
Q 1981 -91 1556 -91 
Q 1019 -91 701 211 
Q 384 513 384 1019 
Q 384 1609 779 1909 
Q 1175 2209 1959 2209 
L 2766 2209 
L 2766 2266 
Q 2766 2663 2505 2880 
Q 2244 3097 1772 3097 
Q 1472 3097 1187 3025 
Q 903 2953 641 2809 
L 641 3341 
Q 956 3463 1253 3523 
Q 1550 3584 1831 3584 
Q 2591 3584 2966 3190 
Q 3341 2797 3341 1997 
z
" transform="scale(0.015625)"/>
       <path id="DejaVuSans-6c" d="M 603 4863 
L 1178 4863 
L 1178 0 
L 603 0 
L 603 4863 
z
" transform="scale(0.015625)"/>
       <path id="DejaVuSans-7a" d="M 353 3500 
L 3084 3500 
L 3084 2975 
L 922 459 
L 3084 459 
L 3084 0 
L 275 0 
L 275 525 
L 2438 3041 
L 353 3041 
L 353 3500 
z
" transform="scale(0.015625)"/>
      </defs>
      <use xlink:href="#DejaVuSans-43"/>
      <use xlink:href="#DejaVuSans-65" x="69.824219"/>
      <use xlink:href="#DejaVuSans-6e" x="131.347656"/>
      <use xlink:href="#DejaVuSans-74" x="194.726562"/>
      <use xlink:href="#DejaVuSans-72" x="233.935547"/>
      <use xlink:href="#DejaVuSans-61" x="275.048828"/>
      <use xlink:href="#DejaVuSans-6c" x="336.328125"/>
      <use xlink:href="#DejaVuSans-69" x="364.111328"/>
      <use xlink:href="#DejaVuSans-7a" x="391.894531"/>
      <use xlink:href="#DejaVuSans-65" x="444.384766"/>
      <use xlink:href="#DejaVuSans-64" x="505.908203"/>
      <use xlink:href="#DejaVuSans-20" x="569.384766"/>
      <use xlink:href="#DejaVuSans-70" x="601.171875"/>
      <use xlink:href="#DejaVuSans-72" x="664.648438"/>
      <use xlink:href="#DejaVuSans-65" x="703.511719"/>
      <use xlink:href="#DejaVuSans-64" x="765.035156"/>
      <use xlink:href="#DejaVuSans-69" x="828.511719"/>
      <use xlink:href="#DejaVuSans-63" x="856.294922"/>
      <use xlink:href="#DejaVuSans-74" x="911.275391"/>
      <use xlink:href="#DejaVuSans-69" x="950.484375"/>
      <use xlink:href="#DejaVuSans-6f" x="978.267578"/>
      <use xlink:href="#DejaVuSans-6e" x="1039.449219"/>
      <use xlink:href="#DejaVuSans-73" x="1102.828125"/>
     </g>
    </g>
    <g id="line2d_23">
     <path d="M 1013.90625 160.812812 
L 1023.90625 160.812812 
L 1033.90625 160.812812 
" style="fill: none; stroke: #8fbc8f; stroke-linecap: square"/>
    </g>
    <g id="text_20">
     <!-- Single predictions -->
     <g transform="translate(1041.90625 164.312812) scale(0.1 -0.1)">
      <defs>
       <path id="DejaVuSans-53" d="M 3425 4513 
L 3425 3897 
Q 3066 4069 2747 4153 
Q 2428 4238 2131 4238 
Q 1616 4238 1336 4038 
Q 1056 3838 1056 3469 
Q 1056 3159 1242 3001 
Q 1428 2844 1947 2747 
L 2328 2669 
Q 3034 2534 3370 2195 
Q 3706 1856 3706 1288 
Q 3706 609 3251 259 
Q 2797 -91 1919 -91 
Q 1588 -91 1214 -16 
Q 841 59 441 206 
L 441 856 
Q 825 641 1194 531 
Q 1563 422 1919 422 
Q 2459 422 2753 634 
Q 3047 847 3047 1241 
Q 3047 1584 2836 1778 
Q 2625 1972 2144 2069 
L 1759 2144 
Q 1053 2284 737 2584 
Q 422 2884 422 3419 
Q 422 4038 858 4394 
Q 1294 4750 2059 4750 
Q 2388 4750 2728 4690 
Q 3069 4631 3425 4513 
z
" transform="scale(0.015625)"/>
       <path id="DejaVuSans-67" d="M 2906 1791 
Q 2906 2416 2648 2759 
Q 2391 3103 1925 3103 
Q 1463 3103 1205 2759 
Q 947 2416 947 1791 
Q 947 1169 1205 825 
Q 1463 481 1925 481 
Q 2391 481 2648 825 
Q 2906 1169 2906 1791 
z
M 3481 434 
Q 3481 -459 3084 -895 
Q 2688 -1331 1869 -1331 
Q 1566 -1331 1297 -1286 
Q 1028 -1241 775 -1147 
L 775 -588 
Q 1028 -725 1275 -790 
Q 1522 -856 1778 -856 
Q 2344 -856 2625 -561 
Q 2906 -266 2906 331 
L 2906 616 
Q 2728 306 2450 153 
Q 2172 0 1784 0 
Q 1141 0 747 490 
Q 353 981 353 1791 
Q 353 2603 747 3093 
Q 1141 3584 1784 3584 
Q 2172 3584 2450 3431 
Q 2728 3278 2906 2969 
L 2906 3500 
L 3481 3500 
L 3481 434 
z
" transform="scale(0.015625)"/>
      </defs>
      <use xlink:href="#DejaVuSans-53"/>
      <use xlink:href="#DejaVuSans-69" x="63.476562"/>
      <use xlink:href="#DejaVuSans-6e" x="91.259766"/>
      <use xlink:href="#DejaVuSans-67" x="154.638672"/>
      <use xlink:href="#DejaVuSans-6c" x="218.115234"/>
      <use xlink:href="#DejaVuSans-65" x="245.898438"/>
      <use xlink:href="#DejaVuSans-20" x="307.421875"/>
      <use xlink:href="#DejaVuSans-70" x="339.208984"/>
      <use xlink:href="#DejaVuSans-72" x="402.685547"/>
      <use xlink:href="#DejaVuSans-65" x="441.548828"/>
      <use xlink:href="#DejaVuSans-64" x="503.072266"/>
      <use xlink:href="#DejaVuSans-69" x="566.548828"/>
      <use xlink:href="#DejaVuSans-63" x="594.332031"/>
      <use xlink:href="#DejaVuSans-74" x="649.3125"/>
      <use xlink:href="#DejaVuSans-69" x="688.521484"/>
      <use xlink:href="#DejaVuSans-6f" x="716.304688"/>
      <use xlink:href="#DejaVuSans-6e" x="777.486328"/>
      <use xlink:href="#DejaVuSans-73" x="840.865234"/>
     </g>
    </g>
   </g>
  </g>
 </g>
 <defs>
  <clipPath id="pc23807ea56">
   <rect x="162" y="103.68" width="1004.4" height="665.28"/>
  </clipPath>
 </defs>
</svg>
