<?xml version="1.0" encoding="utf-8" standalone="no"?>
<!DOCTYPE svg PUBLIC "-//W3C//DTD SVG 1.1//EN"
  "http://www.w3.org/Graphics/SVG/1.1/DTD/svg11.dtd">
<svg xmlns:xlink="http://www.w3.org/1999/xlink" width="1296pt" height="864pt" viewBox="0 0 1296 864" xmlns="http://www.w3.org/2000/svg" version="1.1">
 <metadata>
  <rdf:RDF xmlns:dc="http://purl.org/dc/elements/1.1/" xmlns:cc="http://creativecommons.org/ns#" xmlns:rdf="http://www.w3.org/1999/02/22-rdf-syntax-ns#">
   <cc:Work>
    <dc:type rdf:resource="http://purl.org/dc/dcmitype/StillImage"/>
    <dc:date>2023-12-18T18:19:03.531390</dc:date>
    <dc:format>image/svg+xml</dc:format>
    <dc:creator>
     <cc:Agent>
      <dc:title>Matplotlib v3.8.0, https://matplotlib.org/</dc:title>
     </cc:Agent>
    </dc:creator>
   </cc:Work>
  </rdf:RDF>
 </metadata>
 <defs>
  <style type="text/css">*{stroke-linejoin: round; stroke-linecap: butt}</style>
 </defs>
 <g id="figure_1">
  <g id="patch_1">
   <path d="M 0 864 
L 1296 864 
L 1296 0 
L 0 0 
z
" style="fill: #ffffff"/>
  </g>
  <g id="axes_1">
   <g id="patch_2">
    <path d="M 162 406.08 
L 618.545455 406.08 
L 618.545455 103.68 
L 162 103.68 
z
" style="fill: #ffffff"/>
   </g>
   <g id="matplotlib.axis_1">
    <g id="xtick_1">
     <g id="line2d_1">
      <defs>
       <path id="ma9e9a990e6" d="M 0 0 
L 0 3.5 
" style="stroke: #000000; stroke-width: 0.8"/>
      </defs>
      <g>
       <use xlink:href="#ma9e9a990e6" x="182.752066" y="406.08" style="stroke: #000000; stroke-width: 0.8"/>
      </g>
     </g>
     <g id="text_1">
      <!-- 0 -->
      <g transform="translate(179.570816 420.678437) scale(0.1 -0.1)">
       <defs>
        <path id="DejaVuSans-30" d="M 2034 4250 
Q 1547 4250 1301 3770 
Q 1056 3291 1056 2328 
Q 1056 1369 1301 889 
Q 1547 409 2034 409 
Q 2525 409 2770 889 
Q 3016 1369 3016 2328 
Q 3016 3291 2770 3770 
Q 2525 4250 2034 4250 
z
M 2034 4750 
Q 2819 4750 3233 4129 
Q 3647 3509 3647 2328 
Q 3647 1150 3233 529 
Q 2819 -91 2034 -91 
Q 1250 -91 836 529 
Q 422 1150 422 2328 
Q 422 3509 836 4129 
Q 1250 4750 2034 4750 
z
" transform="scale(0.015625)"/>
       </defs>
       <use xlink:href="#DejaVuSans-30"/>
      </g>
     </g>
    </g>
    <g id="xtick_2">
     <g id="line2d_2">
      <g>
       <use xlink:href="#ma9e9a990e6" x="266.598798" y="406.08" style="stroke: #000000; stroke-width: 0.8"/>
      </g>
     </g>
     <g id="text_2">
      <!-- 20 -->
      <g transform="translate(260.236298 420.678437) scale(0.1 -0.1)">
       <defs>
        <path id="DejaVuSans-32" d="M 1228 531 
L 3431 531 
L 3431 0 
L 469 0 
L 469 531 
Q 828 903 1448 1529 
Q 2069 2156 2228 2338 
Q 2531 2678 2651 2914 
Q 2772 3150 2772 3378 
Q 2772 3750 2511 3984 
Q 2250 4219 1831 4219 
Q 1534 4219 1204 4116 
Q 875 4013 500 3803 
L 500 4441 
Q 881 4594 1212 4672 
Q 1544 4750 1819 4750 
Q 2544 4750 2975 4387 
Q 3406 4025 3406 3419 
Q 3406 3131 3298 2873 
Q 3191 2616 2906 2266 
Q 2828 2175 2409 1742 
Q 1991 1309 1228 531 
z
" transform="scale(0.015625)"/>
       </defs>
       <use xlink:href="#DejaVuSans-32"/>
       <use xlink:href="#DejaVuSans-30" x="63.623047"/>
      </g>
     </g>
    </g>
    <g id="xtick_3">
     <g id="line2d_3">
      <g>
       <use xlink:href="#ma9e9a990e6" x="350.44553" y="406.08" style="stroke: #000000; stroke-width: 0.8"/>
      </g>
     </g>
     <g id="text_3">
      <!-- 40 -->
      <g transform="translate(344.08303 420.678437) scale(0.1 -0.1)">
       <defs>
        <path id="DejaVuSans-34" d="M 2419 4116 
L 825 1625 
L 2419 1625 
L 2419 4116 
z
M 2253 4666 
L 3047 4666 
L 3047 1625 
L 3713 1625 
L 3713 1100 
L 3047 1100 
L 3047 0 
L 2419 0 
L 2419 1100 
L 313 1100 
L 313 1709 
L 2253 4666 
z
" transform="scale(0.015625)"/>
       </defs>
       <use xlink:href="#DejaVuSans-34"/>
       <use xlink:href="#DejaVuSans-30" x="63.623047"/>
      </g>
     </g>
    </g>
    <g id="xtick_4">
     <g id="line2d_4">
      <g>
       <use xlink:href="#ma9e9a990e6" x="434.292261" y="406.08" style="stroke: #000000; stroke-width: 0.8"/>
      </g>
     </g>
     <g id="text_4">
      <!-- 60 -->
      <g transform="translate(427.929761 420.678437) scale(0.1 -0.1)">
       <defs>
        <path id="DejaVuSans-36" d="M 2113 2584 
Q 1688 2584 1439 2293 
Q 1191 2003 1191 1497 
Q 1191 994 1439 701 
Q 1688 409 2113 409 
Q 2538 409 2786 701 
Q 3034 994 3034 1497 
Q 3034 2003 2786 2293 
Q 2538 2584 2113 2584 
z
M 3366 4563 
L 3366 3988 
Q 3128 4100 2886 4159 
Q 2644 4219 2406 4219 
Q 1781 4219 1451 3797 
Q 1122 3375 1075 2522 
Q 1259 2794 1537 2939 
Q 1816 3084 2150 3084 
Q 2853 3084 3261 2657 
Q 3669 2231 3669 1497 
Q 3669 778 3244 343 
Q 2819 -91 2113 -91 
Q 1303 -91 875 529 
Q 447 1150 447 2328 
Q 447 3434 972 4092 
Q 1497 4750 2381 4750 
Q 2619 4750 2861 4703 
Q 3103 4656 3366 4563 
z
" transform="scale(0.015625)"/>
       </defs>
       <use xlink:href="#DejaVuSans-36"/>
       <use xlink:href="#DejaVuSans-30" x="63.623047"/>
      </g>
     </g>
    </g>
    <g id="xtick_5">
     <g id="line2d_5">
      <g>
       <use xlink:href="#ma9e9a990e6" x="518.138993" y="406.08" style="stroke: #000000; stroke-width: 0.8"/>
      </g>
     </g>
     <g id="text_5">
      <!-- 80 -->
      <g transform="translate(511.776493 420.678437) scale(0.1 -0.1)">
       <defs>
        <path id="DejaVuSans-38" d="M 2034 2216 
Q 1584 2216 1326 1975 
Q 1069 1734 1069 1313 
Q 1069 891 1326 650 
Q 1584 409 2034 409 
Q 2484 409 2743 651 
Q 3003 894 3003 1313 
Q 3003 1734 2745 1975 
Q 2488 2216 2034 2216 
z
M 1403 2484 
Q 997 2584 770 2862 
Q 544 3141 544 3541 
Q 544 4100 942 4425 
Q 1341 4750 2034 4750 
Q 2731 4750 3128 4425 
Q 3525 4100 3525 3541 
Q 3525 3141 3298 2862 
Q 3072 2584 2669 2484 
Q 3125 2378 3379 2068 
Q 3634 1759 3634 1313 
Q 3634 634 3220 271 
Q 2806 -91 2034 -91 
Q 1263 -91 848 271 
Q 434 634 434 1313 
Q 434 1759 690 2068 
Q 947 2378 1403 2484 
z
M 1172 3481 
Q 1172 3119 1398 2916 
Q 1625 2713 2034 2713 
Q 2441 2713 2670 2916 
Q 2900 3119 2900 3481 
Q 2900 3844 2670 4047 
Q 2441 4250 2034 4250 
Q 1625 4250 1398 4047 
Q 1172 3844 1172 3481 
z
" transform="scale(0.015625)"/>
       </defs>
       <use xlink:href="#DejaVuSans-38"/>
       <use xlink:href="#DejaVuSans-30" x="63.623047"/>
      </g>
     </g>
    </g>
    <g id="xtick_6">
     <g id="line2d_6">
      <g>
       <use xlink:href="#ma9e9a990e6" x="601.985725" y="406.08" style="stroke: #000000; stroke-width: 0.8"/>
      </g>
     </g>
     <g id="text_6">
      <!-- 100 -->
      <g transform="translate(592.441975 420.678437) scale(0.1 -0.1)">
       <defs>
        <path id="DejaVuSans-31" d="M 794 531 
L 1825 531 
L 1825 4091 
L 703 3866 
L 703 4441 
L 1819 4666 
L 2450 4666 
L 2450 531 
L 3481 531 
L 3481 0 
L 794 0 
L 794 531 
z
" transform="scale(0.015625)"/>
       </defs>
       <use xlink:href="#DejaVuSans-31"/>
       <use xlink:href="#DejaVuSans-30" x="63.623047"/>
       <use xlink:href="#DejaVuSans-30" x="127.246094"/>
      </g>
     </g>
    </g>
   </g>
   <g id="matplotlib.axis_2">
    <g id="ytick_1">
     <g id="line2d_7">
      <defs>
       <path id="mb309fa6485" d="M 0 0 
L -3.5 0 
" style="stroke: #000000; stroke-width: 0.8"/>
      </defs>
      <g>
       <use xlink:href="#mb309fa6485" x="162" y="397.996559" style="stroke: #000000; stroke-width: 0.8"/>
      </g>
     </g>
     <g id="text_7">
      <!-- 0 -->
      <g transform="translate(148.6375 401.795778) scale(0.1 -0.1)">
       <use xlink:href="#DejaVuSans-30"/>
      </g>
     </g>
    </g>
    <g id="ytick_2">
     <g id="line2d_8">
      <g>
       <use xlink:href="#mb309fa6485" x="162" y="350.259419" style="stroke: #000000; stroke-width: 0.8"/>
      </g>
     </g>
     <g id="text_8">
      <!-- 2 -->
      <g transform="translate(148.6375 354.058638) scale(0.1 -0.1)">
       <use xlink:href="#DejaVuSans-32"/>
      </g>
     </g>
    </g>
    <g id="ytick_3">
     <g id="line2d_9">
      <g>
       <use xlink:href="#mb309fa6485" x="162" y="302.522279" style="stroke: #000000; stroke-width: 0.8"/>
      </g>
     </g>
     <g id="text_9">
      <!-- 4 -->
      <g transform="translate(148.6375 306.321498) scale(0.1 -0.1)">
       <use xlink:href="#DejaVuSans-34"/>
      </g>
     </g>
    </g>
    <g id="ytick_4">
     <g id="line2d_10">
      <g>
       <use xlink:href="#mb309fa6485" x="162" y="254.785139" style="stroke: #000000; stroke-width: 0.8"/>
      </g>
     </g>
     <g id="text_10">
      <!-- 6 -->
      <g transform="translate(148.6375 258.584358) scale(0.1 -0.1)">
       <use xlink:href="#DejaVuSans-36"/>
      </g>
     </g>
    </g>
    <g id="ytick_5">
     <g id="line2d_11">
      <g>
       <use xlink:href="#mb309fa6485" x="162" y="207.047999" style="stroke: #000000; stroke-width: 0.8"/>
      </g>
     </g>
     <g id="text_11">
      <!-- 8 -->
      <g transform="translate(148.6375 210.847218) scale(0.1 -0.1)">
       <use xlink:href="#DejaVuSans-38"/>
      </g>
     </g>
    </g>
    <g id="ytick_6">
     <g id="line2d_12">
      <g>
       <use xlink:href="#mb309fa6485" x="162" y="159.31086" style="stroke: #000000; stroke-width: 0.8"/>
      </g>
     </g>
     <g id="text_12">
      <!-- 10 -->
      <g transform="translate(142.275 163.110078) scale(0.1 -0.1)">
       <use xlink:href="#DejaVuSans-31"/>
       <use xlink:href="#DejaVuSans-30" x="63.623047"/>
      </g>
     </g>
    </g>
    <g id="ytick_7">
     <g id="line2d_13">
      <g>
       <use xlink:href="#mb309fa6485" x="162" y="111.57372" style="stroke: #000000; stroke-width: 0.8"/>
      </g>
     </g>
     <g id="text_13">
      <!-- 12 -->
      <g transform="translate(142.275 115.372938) scale(0.1 -0.1)">
       <use xlink:href="#DejaVuSans-31"/>
       <use xlink:href="#DejaVuSans-32" x="63.623047"/>
      </g>
     </g>
    </g>
   </g>
   <g id="line2d_14">
    <path d="M 182.752066 117.425455 
L 186.944403 324.750655 
L 191.136739 325.18826 
L 195.329076 333.397502 
L 199.521412 361.285139 
L 203.713749 375.343718 
L 207.906086 381.173295 
L 212.098422 376.264398 
L 216.290759 385.95792 
L 220.483095 386.852097 
L 224.675432 389.740133 
L 228.867769 389.739385 
L 233.060105 390.22812 
L 237.252442 390.330621 
L 241.444778 389.936913 
L 245.637115 390.43306 
L 249.829452 390.509139 
L 254.021788 390.561789 
L 258.214125 390.511656 
L 262.406461 390.560486 
L 266.598798 390.624741 
L 270.791134 390.615873 
L 274.983471 390.540555 
L 279.175808 390.771502 
L 283.368144 390.552875 
L 287.560481 390.583092 
L 291.752817 390.696801 
L 295.945154 390.683709 
L 300.137491 390.704662 
L 304.329827 390.609233 
L 308.522164 390.747953 
L 312.7145 390.954598 
L 316.906837 390.786828 
L 321.099174 390.823639 
L 325.29151 390.901451 
L 329.483847 390.66754 
L 333.676183 390.9674 
L 337.86852 390.870153 
L 342.060856 390.785266 
L 346.253193 390.984147 
L 350.44553 391.005936 
L 354.637866 390.927226 
L 358.830203 390.924797 
L 363.022539 390.90099 
L 367.214876 390.881172 
L 371.407213 390.872275 
L 375.599549 391.031649 
L 379.791886 390.887506 
L 383.984222 391.004004 
L 388.176559 391.013986 
L 392.368896 390.904615 
L 396.561232 390.956946 
L 400.753569 390.889613 
L 404.945905 391.008311 
L 409.138242 391.030363 
L 413.330579 391.018547 
L 417.522915 390.970969 
L 421.715252 390.970984 
L 425.907588 391.060414 
L 430.099925 390.915677 
L 434.292261 391.039812 
L 438.484598 391.067591 
L 442.676935 391.024832 
L 446.869271 390.982498 
L 451.061608 391.020189 
L 455.253944 391.008467 
L 459.446281 391.04824 
L 463.638618 391.055724 
L 467.830954 391.06699 
L 472.023291 390.944587 
L 476.215627 391.12273 
L 480.407964 390.990529 
L 484.600301 391.141019 
L 488.792637 391.007705 
L 492.984974 391.324534 
L 497.17731 390.947915 
L 501.369647 391.085958 
L 505.561983 391.080547 
L 509.75432 391.014599 
L 513.946657 391.19822 
L 518.138993 391.155783 
L 522.33133 390.963187 
L 526.523666 391.115305 
L 530.716003 391.166286 
L 534.90834 391.108043 
L 539.100676 391.087737 
L 543.293013 391.03878 
L 547.485349 391.130831 
L 551.677686 391.079566 
L 555.870023 390.916927 
L 560.062359 391.026701 
L 564.254696 391.049554 
L 568.447032 391.048775 
L 572.639369 391.109531 
L 576.831705 391.016705 
L 581.024042 391.112821 
L 585.216379 391.157008 
L 589.408715 391.280983 
L 593.601052 391.202299 
L 597.793388 391.269416 
" clip-path="url(#p2b192f7e41)" style="fill: none; stroke: #4169e1; stroke-linecap: square"/>
   </g>
   <g id="line2d_15">
    <path d="M 182.752066 280.928969 
L 186.944403 348.375287 
L 191.136739 348.658952 
L 195.329076 355.29079 
L 199.521412 373.245092 
L 203.713749 384.462355 
L 207.906086 387.31938 
L 212.098422 384.759687 
L 216.290759 390.811176 
L 220.483095 390.650405 
L 224.675432 392.068449 
L 228.867769 391.685299 
L 233.060105 391.510081 
L 237.252442 392.16137 
L 241.444778 391.421737 
L 245.637115 391.678507 
L 249.829452 391.905053 
L 254.021788 392.092958 
L 258.214125 391.840227 
L 262.406461 391.974793 
L 266.598798 391.848709 
L 270.791134 391.88966 
L 274.983471 391.697784 
L 279.175808 391.532261 
L 283.368144 391.924642 
L 287.560481 391.725677 
L 291.752817 391.875402 
L 295.945154 391.793373 
L 300.137491 391.846654 
L 304.329827 391.761775 
L 308.522164 392.011422 
L 312.7145 391.831197 
L 316.906837 392.161173 
L 321.099174 392.308455 
L 325.29151 391.952274 
L 329.483847 391.673851 
L 333.676183 391.436335 
L 337.86852 391.952589 
L 342.060856 391.966872 
L 346.253193 391.949932 
L 350.44553 391.34532 
L 354.637866 391.208165 
L 358.830203 390.734904 
L 363.022539 391.732075 
L 367.214876 391.616467 
L 371.407213 392.028025 
L 375.599549 391.44882 
L 379.791886 391.000956 
L 383.984222 391.672557 
L 388.176559 392.024282 
L 392.368896 391.643006 
L 396.561232 392.17602 
L 400.753569 392.142106 
L 404.945905 391.950168 
L 409.138242 391.767818 
L 413.330579 391.500407 
L 417.522915 392.00899 
L 421.715252 391.827908 
L 425.907588 391.701551 
L 430.099925 392.185904 
L 434.292261 391.627631 
L 438.484598 391.856724 
L 442.676935 391.597099 
L 446.869271 391.208846 
L 451.061608 391.454267 
L 455.253944 391.890213 
L 459.446281 390.618196 
L 463.638618 391.935787 
L 467.830954 392.185648 
L 472.023291 391.571527 
L 476.215627 391.726906 
L 480.407964 391.651794 
L 484.600301 391.243767 
L 488.792637 391.421343 
L 492.984974 391.671934 
L 497.17731 392.334545 
L 501.369647 391.983512 
L 505.561983 391.606264 
L 509.75432 391.946805 
L 513.946657 391.783307 
L 518.138993 392.145213 
L 522.33133 391.681351 
L 526.523666 391.823747 
L 530.716003 391.986 
L 534.90834 391.58296 
L 539.100676 391.438946 
L 543.293013 392.108812 
L 547.485349 391.674721 
L 551.677686 391.4588 
L 555.870023 392.255842 
L 560.062359 392.031525 
L 564.254696 392.160623 
L 568.447032 391.615572 
L 572.639369 391.965569 
L 576.831705 391.77845 
L 581.024042 391.416435 
L 585.216379 391.641599 
L 589.408715 392.122509 
L 593.601052 391.716375 
L 597.793388 391.894417 
" clip-path="url(#p2b192f7e41)" style="fill: none; stroke: #ff6347; stroke-linecap: square"/>
   </g>
   <g id="patch_3">
    <path d="M 162 406.08 
L 162 103.68 
" style="fill: none; stroke: #000000; stroke-width: 0.8; stroke-linejoin: miter; stroke-linecap: square"/>
   </g>
   <g id="patch_4">
    <path d="M 618.545455 406.08 
L 618.545455 103.68 
" style="fill: none; stroke: #000000; stroke-width: 0.8; stroke-linejoin: miter; stroke-linecap: square"/>
   </g>
   <g id="patch_5">
    <path d="M 162 406.08 
L 618.545455 406.08 
" style="fill: none; stroke: #000000; stroke-width: 0.8; stroke-linejoin: miter; stroke-linecap: square"/>
   </g>
   <g id="patch_6">
    <path d="M 162 103.68 
L 618.545455 103.68 
" style="fill: none; stroke: #000000; stroke-width: 0.8; stroke-linejoin: miter; stroke-linecap: square"/>
   </g>
   <g id="text_14">
    <!-- MSLE -->
    <g transform="translate(374.152415 97.68) scale(0.12 -0.12)">
     <defs>
      <path id="DejaVuSans-4d" d="M 628 4666 
L 1569 4666 
L 2759 1491 
L 3956 4666 
L 4897 4666 
L 4897 0 
L 4281 0 
L 4281 4097 
L 3078 897 
L 2444 897 
L 1241 4097 
L 1241 0 
L 628 0 
L 628 4666 
z
" transform="scale(0.015625)"/>
      <path id="DejaVuSans-53" d="M 3425 4513 
L 3425 3897 
Q 3066 4069 2747 4153 
Q 2428 4238 2131 4238 
Q 1616 4238 1336 4038 
Q 1056 3838 1056 3469 
Q 1056 3159 1242 3001 
Q 1428 2844 1947 2747 
L 2328 2669 
Q 3034 2534 3370 2195 
Q 3706 1856 3706 1288 
Q 3706 609 3251 259 
Q 2797 -91 1919 -91 
Q 1588 -91 1214 -16 
Q 841 59 441 206 
L 441 856 
Q 825 641 1194 531 
Q 1563 422 1919 422 
Q 2459 422 2753 634 
Q 3047 847 3047 1241 
Q 3047 1584 2836 1778 
Q 2625 1972 2144 2069 
L 1759 2144 
Q 1053 2284 737 2584 
Q 422 2884 422 3419 
Q 422 4038 858 4394 
Q 1294 4750 2059 4750 
Q 2388 4750 2728 4690 
Q 3069 4631 3425 4513 
z
" transform="scale(0.015625)"/>
      <path id="DejaVuSans-4c" d="M 628 4666 
L 1259 4666 
L 1259 531 
L 3531 531 
L 3531 0 
L 628 0 
L 628 4666 
z
" transform="scale(0.015625)"/>
      <path id="DejaVuSans-45" d="M 628 4666 
L 3578 4666 
L 3578 4134 
L 1259 4134 
L 1259 2753 
L 3481 2753 
L 3481 2222 
L 1259 2222 
L 1259 531 
L 3634 531 
L 3634 0 
L 628 0 
L 628 4666 
z
" transform="scale(0.015625)"/>
     </defs>
     <use xlink:href="#DejaVuSans-4d"/>
     <use xlink:href="#DejaVuSans-53" x="86.279297"/>
     <use xlink:href="#DejaVuSans-4c" x="149.755859"/>
     <use xlink:href="#DejaVuSans-45" x="205.46875"/>
    </g>
   </g>
   <g id="legend_1">
    <g id="patch_7">
     <path d="M 530.164205 141.03625 
L 611.545455 141.03625 
Q 613.545455 141.03625 613.545455 139.03625 
L 613.545455 110.68 
Q 613.545455 108.68 611.545455 108.68 
L 530.164205 108.68 
Q 528.164205 108.68 528.164205 110.68 
L 528.164205 139.03625 
Q 528.164205 141.03625 530.164205 141.03625 
z
" style="fill: #ffffff; opacity: 0.8; stroke: #cccccc; stroke-linejoin: miter"/>
    </g>
    <g id="line2d_16">
     <path d="M 532.164205 116.778437 
L 542.164205 116.778437 
L 552.164205 116.778437 
" style="fill: none; stroke: #4169e1; stroke-linecap: square"/>
    </g>
    <g id="text_15">
     <!-- Training -->
     <g transform="translate(560.164205 120.278437) scale(0.1 -0.1)">
      <defs>
       <path id="DejaVuSans-54" d="M -19 4666 
L 3928 4666 
L 3928 4134 
L 2272 4134 
L 2272 0 
L 1638 0 
L 1638 4134 
L -19 4134 
L -19 4666 
z
" transform="scale(0.015625)"/>
       <path id="DejaVuSans-72" d="M 2631 2963 
Q 2534 3019 2420 3045 
Q 2306 3072 2169 3072 
Q 1681 3072 1420 2755 
Q 1159 2438 1159 1844 
L 1159 0 
L 581 0 
L 581 3500 
L 1159 3500 
L 1159 2956 
Q 1341 3275 1631 3429 
Q 1922 3584 2338 3584 
Q 2397 3584 2469 3576 
Q 2541 3569 2628 3553 
L 2631 2963 
z
" transform="scale(0.015625)"/>
       <path id="DejaVuSans-61" d="M 2194 1759 
Q 1497 1759 1228 1600 
Q 959 1441 959 1056 
Q 959 750 1161 570 
Q 1363 391 1709 391 
Q 2188 391 2477 730 
Q 2766 1069 2766 1631 
L 2766 1759 
L 2194 1759 
z
M 3341 1997 
L 3341 0 
L 2766 0 
L 2766 531 
Q 2569 213 2275 61 
Q 1981 -91 1556 -91 
Q 1019 -91 701 211 
Q 384 513 384 1019 
Q 384 1609 779 1909 
Q 1175 2209 1959 2209 
L 2766 2209 
L 2766 2266 
Q 2766 2663 2505 2880 
Q 2244 3097 1772 3097 
Q 1472 3097 1187 3025 
Q 903 2953 641 2809 
L 641 3341 
Q 956 3463 1253 3523 
Q 1550 3584 1831 3584 
Q 2591 3584 2966 3190 
Q 3341 2797 3341 1997 
z
" transform="scale(0.015625)"/>
       <path id="DejaVuSans-69" d="M 603 3500 
L 1178 3500 
L 1178 0 
L 603 0 
L 603 3500 
z
M 603 4863 
L 1178 4863 
L 1178 4134 
L 603 4134 
L 603 4863 
z
" transform="scale(0.015625)"/>
       <path id="DejaVuSans-6e" d="M 3513 2113 
L 3513 0 
L 2938 0 
L 2938 2094 
Q 2938 2591 2744 2837 
Q 2550 3084 2163 3084 
Q 1697 3084 1428 2787 
Q 1159 2491 1159 1978 
L 1159 0 
L 581 0 
L 581 3500 
L 1159 3500 
L 1159 2956 
Q 1366 3272 1645 3428 
Q 1925 3584 2291 3584 
Q 2894 3584 3203 3211 
Q 3513 2838 3513 2113 
z
" transform="scale(0.015625)"/>
       <path id="DejaVuSans-67" d="M 2906 1791 
Q 2906 2416 2648 2759 
Q 2391 3103 1925 3103 
Q 1463 3103 1205 2759 
Q 947 2416 947 1791 
Q 947 1169 1205 825 
Q 1463 481 1925 481 
Q 2391 481 2648 825 
Q 2906 1169 2906 1791 
z
M 3481 434 
Q 3481 -459 3084 -895 
Q 2688 -1331 1869 -1331 
Q 1566 -1331 1297 -1286 
Q 1028 -1241 775 -1147 
L 775 -588 
Q 1028 -725 1275 -790 
Q 1522 -856 1778 -856 
Q 2344 -856 2625 -561 
Q 2906 -266 2906 331 
L 2906 616 
Q 2728 306 2450 153 
Q 2172 0 1784 0 
Q 1141 0 747 490 
Q 353 981 353 1791 
Q 353 2603 747 3093 
Q 1141 3584 1784 3584 
Q 2172 3584 2450 3431 
Q 2728 3278 2906 2969 
L 2906 3500 
L 3481 3500 
L 3481 434 
z
" transform="scale(0.015625)"/>
      </defs>
      <use xlink:href="#DejaVuSans-54"/>
      <use xlink:href="#DejaVuSans-72" x="46.333984"/>
      <use xlink:href="#DejaVuSans-61" x="87.447266"/>
      <use xlink:href="#DejaVuSans-69" x="148.726562"/>
      <use xlink:href="#DejaVuSans-6e" x="176.509766"/>
      <use xlink:href="#DejaVuSans-69" x="239.888672"/>
      <use xlink:href="#DejaVuSans-6e" x="267.671875"/>
      <use xlink:href="#DejaVuSans-67" x="331.050781"/>
     </g>
    </g>
    <g id="line2d_17">
     <path d="M 532.164205 131.456562 
L 542.164205 131.456562 
L 552.164205 131.456562 
" style="fill: none; stroke: #ff6347; stroke-linecap: square"/>
    </g>
    <g id="text_16">
     <!-- Validation -->
     <g transform="translate(560.164205 134.956562) scale(0.1 -0.1)">
      <defs>
       <path id="DejaVuSans-56" d="M 1831 0 
L 50 4666 
L 709 4666 
L 2188 738 
L 3669 4666 
L 4325 4666 
L 2547 0 
L 1831 0 
z
" transform="scale(0.015625)"/>
       <path id="DejaVuSans-6c" d="M 603 4863 
L 1178 4863 
L 1178 0 
L 603 0 
L 603 4863 
z
" transform="scale(0.015625)"/>
       <path id="DejaVuSans-64" d="M 2906 2969 
L 2906 4863 
L 3481 4863 
L 3481 0 
L 2906 0 
L 2906 525 
Q 2725 213 2448 61 
Q 2172 -91 1784 -91 
Q 1150 -91 751 415 
Q 353 922 353 1747 
Q 353 2572 751 3078 
Q 1150 3584 1784 3584 
Q 2172 3584 2448 3432 
Q 2725 3281 2906 2969 
z
M 947 1747 
Q 947 1113 1208 752 
Q 1469 391 1925 391 
Q 2381 391 2643 752 
Q 2906 1113 2906 1747 
Q 2906 2381 2643 2742 
Q 2381 3103 1925 3103 
Q 1469 3103 1208 2742 
Q 947 2381 947 1747 
z
" transform="scale(0.015625)"/>
       <path id="DejaVuSans-74" d="M 1172 4494 
L 1172 3500 
L 2356 3500 
L 2356 3053 
L 1172 3053 
L 1172 1153 
Q 1172 725 1289 603 
Q 1406 481 1766 481 
L 2356 481 
L 2356 0 
L 1766 0 
Q 1100 0 847 248 
Q 594 497 594 1153 
L 594 3053 
L 172 3053 
L 172 3500 
L 594 3500 
L 594 4494 
L 1172 4494 
z
" transform="scale(0.015625)"/>
       <path id="DejaVuSans-6f" d="M 1959 3097 
Q 1497 3097 1228 2736 
Q 959 2375 959 1747 
Q 959 1119 1226 758 
Q 1494 397 1959 397 
Q 2419 397 2687 759 
Q 2956 1122 2956 1747 
Q 2956 2369 2687 2733 
Q 2419 3097 1959 3097 
z
M 1959 3584 
Q 2709 3584 3137 3096 
Q 3566 2609 3566 1747 
Q 3566 888 3137 398 
Q 2709 -91 1959 -91 
Q 1206 -91 779 398 
Q 353 888 353 1747 
Q 353 2609 779 3096 
Q 1206 3584 1959 3584 
z
" transform="scale(0.015625)"/>
      </defs>
      <use xlink:href="#DejaVuSans-56"/>
      <use xlink:href="#DejaVuSans-61" x="60.658203"/>
      <use xlink:href="#DejaVuSans-6c" x="121.9375"/>
      <use xlink:href="#DejaVuSans-69" x="149.720703"/>
      <use xlink:href="#DejaVuSans-64" x="177.503906"/>
      <use xlink:href="#DejaVuSans-61" x="240.980469"/>
      <use xlink:href="#DejaVuSans-74" x="302.259766"/>
      <use xlink:href="#DejaVuSans-69" x="341.46875"/>
      <use xlink:href="#DejaVuSans-6f" x="369.251953"/>
      <use xlink:href="#DejaVuSans-6e" x="430.433594"/>
     </g>
    </g>
   </g>
  </g>
  <g id="axes_2">
   <g id="patch_8">
    <path d="M 709.854545 406.08 
L 1166.4 406.08 
L 1166.4 103.68 
L 709.854545 103.68 
z
" style="fill: #ffffff"/>
   </g>
   <g id="matplotlib.axis_3">
    <g id="xtick_7">
     <g id="line2d_18">
      <g>
       <use xlink:href="#ma9e9a990e6" x="730.606612" y="406.08" style="stroke: #000000; stroke-width: 0.8"/>
      </g>
     </g>
     <g id="text_17">
      <!-- 0 -->
      <g transform="translate(727.425362 420.678437) scale(0.1 -0.1)">
       <use xlink:href="#DejaVuSans-30"/>
      </g>
     </g>
    </g>
    <g id="xtick_8">
     <g id="line2d_19">
      <g>
       <use xlink:href="#ma9e9a990e6" x="814.453343" y="406.08" style="stroke: #000000; stroke-width: 0.8"/>
      </g>
     </g>
     <g id="text_18">
      <!-- 20 -->
      <g transform="translate(808.090843 420.678437) scale(0.1 -0.1)">
       <use xlink:href="#DejaVuSans-32"/>
       <use xlink:href="#DejaVuSans-30" x="63.623047"/>
      </g>
     </g>
    </g>
    <g id="xtick_9">
     <g id="line2d_20">
      <g>
       <use xlink:href="#ma9e9a990e6" x="898.300075" y="406.08" style="stroke: #000000; stroke-width: 0.8"/>
      </g>
     </g>
     <g id="text_19">
      <!-- 40 -->
      <g transform="translate(891.937575 420.678437) scale(0.1 -0.1)">
       <use xlink:href="#DejaVuSans-34"/>
       <use xlink:href="#DejaVuSans-30" x="63.623047"/>
      </g>
     </g>
    </g>
    <g id="xtick_10">
     <g id="line2d_21">
      <g>
       <use xlink:href="#ma9e9a990e6" x="982.146807" y="406.08" style="stroke: #000000; stroke-width: 0.8"/>
      </g>
     </g>
     <g id="text_20">
      <!-- 60 -->
      <g transform="translate(975.784307 420.678437) scale(0.1 -0.1)">
       <use xlink:href="#DejaVuSans-36"/>
       <use xlink:href="#DejaVuSans-30" x="63.623047"/>
      </g>
     </g>
    </g>
    <g id="xtick_11">
     <g id="line2d_22">
      <g>
       <use xlink:href="#ma9e9a990e6" x="1065.993539" y="406.08" style="stroke: #000000; stroke-width: 0.8"/>
      </g>
     </g>
     <g id="text_21">
      <!-- 80 -->
      <g transform="translate(1059.631039 420.678437) scale(0.1 -0.1)">
       <use xlink:href="#DejaVuSans-38"/>
       <use xlink:href="#DejaVuSans-30" x="63.623047"/>
      </g>
     </g>
    </g>
    <g id="xtick_12">
     <g id="line2d_23">
      <g>
       <use xlink:href="#ma9e9a990e6" x="1149.84027" y="406.08" style="stroke: #000000; stroke-width: 0.8"/>
      </g>
     </g>
     <g id="text_22">
      <!-- 100 -->
      <g transform="translate(1140.29652 420.678437) scale(0.1 -0.1)">
       <use xlink:href="#DejaVuSans-31"/>
       <use xlink:href="#DejaVuSans-30" x="63.623047"/>
       <use xlink:href="#DejaVuSans-30" x="127.246094"/>
      </g>
     </g>
    </g>
   </g>
   <g id="matplotlib.axis_4">
    <g id="ytick_8">
     <g id="line2d_24">
      <g>
       <use xlink:href="#mb309fa6485" x="709.854545" y="350.934909" style="stroke: #000000; stroke-width: 0.8"/>
      </g>
     </g>
     <g id="text_23">
      <!-- 5000 -->
      <g transform="translate(677.404545 354.734128) scale(0.1 -0.1)">
       <defs>
        <path id="DejaVuSans-35" d="M 691 4666 
L 3169 4666 
L 3169 4134 
L 1269 4134 
L 1269 2991 
Q 1406 3038 1543 3061 
Q 1681 3084 1819 3084 
Q 2600 3084 3056 2656 
Q 3513 2228 3513 1497 
Q 3513 744 3044 326 
Q 2575 -91 1722 -91 
Q 1428 -91 1123 -41 
Q 819 9 494 109 
L 494 744 
Q 775 591 1075 516 
Q 1375 441 1709 441 
Q 2250 441 2565 725 
Q 2881 1009 2881 1497 
Q 2881 1984 2565 2268 
Q 2250 2553 1709 2553 
Q 1456 2553 1204 2497 
Q 953 2441 691 2322 
L 691 4666 
z
" transform="scale(0.015625)"/>
       </defs>
       <use xlink:href="#DejaVuSans-35"/>
       <use xlink:href="#DejaVuSans-30" x="63.623047"/>
       <use xlink:href="#DejaVuSans-30" x="127.246094"/>
       <use xlink:href="#DejaVuSans-30" x="190.869141"/>
      </g>
     </g>
    </g>
    <g id="ytick_9">
     <g id="line2d_25">
      <g>
       <use xlink:href="#mb309fa6485" x="709.854545" y="289.600395" style="stroke: #000000; stroke-width: 0.8"/>
      </g>
     </g>
     <g id="text_24">
      <!-- 10000 -->
      <g transform="translate(671.042045 293.399614) scale(0.1 -0.1)">
       <use xlink:href="#DejaVuSans-31"/>
       <use xlink:href="#DejaVuSans-30" x="63.623047"/>
       <use xlink:href="#DejaVuSans-30" x="127.246094"/>
       <use xlink:href="#DejaVuSans-30" x="190.869141"/>
       <use xlink:href="#DejaVuSans-30" x="254.492188"/>
      </g>
     </g>
    </g>
    <g id="ytick_10">
     <g id="line2d_26">
      <g>
       <use xlink:href="#mb309fa6485" x="709.854545" y="228.265882" style="stroke: #000000; stroke-width: 0.8"/>
      </g>
     </g>
     <g id="text_25">
      <!-- 15000 -->
      <g transform="translate(671.042045 232.0651) scale(0.1 -0.1)">
       <use xlink:href="#DejaVuSans-31"/>
       <use xlink:href="#DejaVuSans-35" x="63.623047"/>
       <use xlink:href="#DejaVuSans-30" x="127.246094"/>
       <use xlink:href="#DejaVuSans-30" x="190.869141"/>
       <use xlink:href="#DejaVuSans-30" x="254.492188"/>
      </g>
     </g>
    </g>
    <g id="ytick_11">
     <g id="line2d_27">
      <g>
       <use xlink:href="#mb309fa6485" x="709.854545" y="166.931368" style="stroke: #000000; stroke-width: 0.8"/>
      </g>
     </g>
     <g id="text_26">
      <!-- 20000 -->
      <g transform="translate(671.042045 170.730587) scale(0.1 -0.1)">
       <use xlink:href="#DejaVuSans-32"/>
       <use xlink:href="#DejaVuSans-30" x="63.623047"/>
       <use xlink:href="#DejaVuSans-30" x="127.246094"/>
       <use xlink:href="#DejaVuSans-30" x="190.869141"/>
       <use xlink:href="#DejaVuSans-30" x="254.492188"/>
      </g>
     </g>
    </g>
    <g id="ytick_12">
     <g id="line2d_28">
      <g>
       <use xlink:href="#mb309fa6485" x="709.854545" y="105.596854" style="stroke: #000000; stroke-width: 0.8"/>
      </g>
     </g>
     <g id="text_27">
      <!-- 25000 -->
      <g transform="translate(671.042045 109.396073) scale(0.1 -0.1)">
       <use xlink:href="#DejaVuSans-32"/>
       <use xlink:href="#DejaVuSans-35" x="63.623047"/>
       <use xlink:href="#DejaVuSans-30" x="127.246094"/>
       <use xlink:href="#DejaVuSans-30" x="190.869141"/>
       <use xlink:href="#DejaVuSans-30" x="254.492188"/>
      </g>
     </g>
    </g>
   </g>
   <g id="line2d_29">
    <path d="M 730.606612 126.879068 
L 734.798948 187.419755 
L 738.991285 187.894187 
L 743.183621 197.107901 
L 747.375958 246.40427 
L 751.568295 293.090593 
L 755.760631 316.821928 
L 759.952968 291.565927 
L 764.145304 351.008427 
L 768.337641 351.392492 
L 772.529977 380.987222 
L 776.722314 377.776297 
L 780.914651 384.075399 
L 785.106987 386.557833 
L 789.299324 382.42979 
L 793.49166 386.530909 
L 797.683997 386.427156 
L 801.876334 387.146381 
L 806.06867 386.659008 
L 810.261007 387.093102 
L 814.453343 387.294505 
L 818.64568 386.689526 
L 822.838017 386.536234 
L 827.030353 387.176826 
L 831.22269 386.934861 
L 835.415026 386.942758 
L 839.607363 387.662772 
L 843.799699 386.950727 
L 847.992036 387.58216 
L 852.184373 386.955792 
L 856.376709 387.396797 
L 860.569046 387.976968 
L 864.761382 387.723932 
L 868.953719 387.45805 
L 873.146056 387.700004 
L 877.338392 387.509819 
L 881.530729 388.22082 
L 885.723065 387.753501 
L 889.915402 388.022629 
L 894.107739 387.93047 
L 898.300075 388.298902 
L 902.492412 387.904726 
L 906.684748 388.302487 
L 910.877085 387.869622 
L 915.069421 388.52237 
L 919.261758 386.763091 
L 923.454095 387.96605 
L 927.646431 388.315276 
L 931.838768 388.190369 
L 936.031104 387.984704 
L 940.223441 388.107456 
L 944.415778 388.107235 
L 948.608114 388.315034 
L 952.800451 387.998345 
L 956.992787 387.99074 
L 961.185124 388.417338 
L 965.377461 388.657487 
L 969.569797 388.17815 
L 973.762134 388.236892 
L 977.95447 387.977815 
L 982.146807 388.075885 
L 986.339144 388.560342 
L 990.53148 388.040749 
L 994.723817 388.292778 
L 998.916153 387.89598 
L 1003.10849 388.047303 
L 1007.300826 387.862008 
L 1011.493163 388.299536 
L 1015.6855 388.542472 
L 1019.877836 387.728136 
L 1024.070173 388.038205 
L 1028.262509 388.230735 
L 1032.454846 388.234287 
L 1036.647183 388.495053 
L 1040.839519 388.751457 
L 1045.031856 387.887926 
L 1049.224192 388.449988 
L 1053.416529 388.722991 
L 1057.608866 388.46862 
L 1061.801202 388.510373 
L 1065.993539 388.375454 
L 1070.185875 388.369636 
L 1074.378212 388.17912 
L 1078.570548 388.574386 
L 1082.762885 388.223185 
L 1086.955222 388.146791 
L 1091.147558 388.105243 
L 1095.339895 388.903832 
L 1099.532231 388.327304 
L 1103.724568 388.725535 
L 1107.916905 388.172868 
L 1112.109241 387.968633 
L 1116.301578 388.253391 
L 1120.493914 388.609747 
L 1124.686251 388.207719 
L 1128.878588 388.21475 
L 1133.070924 388.501996 
L 1137.263261 389.111583 
L 1141.455597 388.670033 
L 1145.647934 388.376232 
" clip-path="url(#pd5f15b1234)" style="fill: none; stroke: #4169e1; stroke-linecap: square"/>
   </g>
   <g id="line2d_30">
    <path d="M 730.606612 117.425455 
L 734.798948 189.732234 
L 738.991285 190.306334 
L 743.183621 205.141644 
L 747.375958 263.40609 
L 751.568295 315.730198 
L 755.760631 339.565299 
L 759.952968 314.345248 
L 764.145304 371.065139 
L 768.337641 370.395757 
L 772.529977 390.516676 
L 776.722314 389.016499 
L 780.914651 391.400349 
L 785.106987 388.296635 
L 789.299324 390.878474 
L 793.49166 391.886824 
L 797.683997 391.573369 
L 801.876334 391.76319 
L 806.06867 391.986785 
L 810.261007 392.054048 
L 814.453343 391.908889 
L 818.64568 391.22021 
L 822.838017 392.001604 
L 827.030353 389.179994 
L 831.22269 388.297219 
L 835.415026 391.588359 
L 839.607363 392.117814 
L 843.799699 392.055505 
L 847.992036 391.892416 
L 852.184373 392.162405 
L 856.376709 391.355544 
L 860.569046 392.116326 
L 864.761382 392.054346 
L 868.953719 391.641391 
L 873.146056 389.207797 
L 877.338392 391.942765 
L 881.530729 391.1047 
L 885.723065 391.397788 
L 889.915402 392.000076 
L 894.107739 392.021468 
L 898.300075 391.510162 
L 902.492412 391.498312 
L 906.684748 391.869633 
L 910.877085 391.428973 
L 915.069421 392.072044 
L 919.261758 391.300933 
L 923.454095 391.976144 
L 927.646431 391.898033 
L 931.838768 392.047194 
L 936.031104 392.210069 
L 940.223441 392.11297 
L 944.415778 391.365243 
L 948.608114 391.747585 
L 952.800451 391.548031 
L 956.992787 392.145347 
L 961.185124 391.0474 
L 965.377461 392.039746 
L 969.569797 391.97272 
L 973.762134 392.109584 
L 977.95447 392.271038 
L 982.146807 391.367127 
L 986.339144 392.2473 
L 990.53148 392.221984 
L 994.723817 391.95526 
L 998.916153 391.871328 
L 1003.10849 391.177333 
L 1007.300826 391.662735 
L 1011.493163 392.252455 
L 1015.6855 392.108355 
L 1019.877836 391.932703 
L 1024.070173 391.598407 
L 1028.262509 392.210893 
L 1032.454846 391.647335 
L 1036.647183 392.232749 
L 1040.839519 392.202464 
L 1045.031856 392.075094 
L 1049.224192 391.49014 
L 1053.416529 392.268076 
L 1057.608866 391.139262 
L 1061.801202 391.603706 
L 1065.993539 391.598341 
L 1070.185875 391.75984 
L 1074.378212 392.334545 
L 1078.570548 391.550462 
L 1082.762885 392.196838 
L 1086.955222 391.806612 
L 1091.147558 391.631521 
L 1095.339895 391.157194 
L 1099.532231 392.036893 
L 1103.724568 391.112168 
L 1107.916905 390.846243 
L 1112.109241 392.147938 
L 1116.301578 391.663473 
L 1120.493914 392.178458 
L 1124.686251 392.190701 
L 1128.878588 391.928411 
L 1133.070924 392.127229 
L 1137.263261 392.082604 
L 1141.455597 390.67663 
L 1145.647934 391.99577 
" clip-path="url(#pd5f15b1234)" style="fill: none; stroke: #ff6347; stroke-linecap: square"/>
   </g>
   <g id="patch_9">
    <path d="M 709.854545 406.08 
L 709.854545 103.68 
" style="fill: none; stroke: #000000; stroke-width: 0.8; stroke-linejoin: miter; stroke-linecap: square"/>
   </g>
   <g id="patch_10">
    <path d="M 1166.4 406.08 
L 1166.4 103.68 
" style="fill: none; stroke: #000000; stroke-width: 0.8; stroke-linejoin: miter; stroke-linecap: square"/>
   </g>
   <g id="patch_11">
    <path d="M 709.854545 406.08 
L 1166.4 406.08 
" style="fill: none; stroke: #000000; stroke-width: 0.8; stroke-linejoin: miter; stroke-linecap: square"/>
   </g>
   <g id="patch_12">
    <path d="M 709.854545 103.68 
L 1166.4 103.68 
" style="fill: none; stroke: #000000; stroke-width: 0.8; stroke-linejoin: miter; stroke-linecap: square"/>
   </g>
   <g id="text_28">
    <!-- LOSS -->
    <g transform="translate(922.660398 97.68) scale(0.12 -0.12)">
     <defs>
      <path id="DejaVuSans-4f" d="M 2522 4238 
Q 1834 4238 1429 3725 
Q 1025 3213 1025 2328 
Q 1025 1447 1429 934 
Q 1834 422 2522 422 
Q 3209 422 3611 934 
Q 4013 1447 4013 2328 
Q 4013 3213 3611 3725 
Q 3209 4238 2522 4238 
z
M 2522 4750 
Q 3503 4750 4090 4092 
Q 4678 3434 4678 2328 
Q 4678 1225 4090 567 
Q 3503 -91 2522 -91 
Q 1538 -91 948 565 
Q 359 1222 359 2328 
Q 359 3434 948 4092 
Q 1538 4750 2522 4750 
z
" transform="scale(0.015625)"/>
     </defs>
     <use xlink:href="#DejaVuSans-4c"/>
     <use xlink:href="#DejaVuSans-4f" x="52.087891"/>
     <use xlink:href="#DejaVuSans-53" x="130.798828"/>
     <use xlink:href="#DejaVuSans-53" x="194.275391"/>
    </g>
   </g>
   <g id="legend_2">
    <g id="patch_13">
     <path d="M 1078.01875 141.03625 
L 1159.4 141.03625 
Q 1161.4 141.03625 1161.4 139.03625 
L 1161.4 110.68 
Q 1161.4 108.68 1159.4 108.68 
L 1078.01875 108.68 
Q 1076.01875 108.68 1076.01875 110.68 
L 1076.01875 139.03625 
Q 1076.01875 141.03625 1078.01875 141.03625 
z
" style="fill: #ffffff; opacity: 0.8; stroke: #cccccc; stroke-linejoin: miter"/>
    </g>
    <g id="line2d_31">
     <path d="M 1080.01875 116.778437 
L 1090.01875 116.778437 
L 1100.01875 116.778437 
" style="fill: none; stroke: #4169e1; stroke-linecap: square"/>
    </g>
    <g id="text_29">
     <!-- Training -->
     <g transform="translate(1108.01875 120.278437) scale(0.1 -0.1)">
      <use xlink:href="#DejaVuSans-54"/>
      <use xlink:href="#DejaVuSans-72" x="46.333984"/>
      <use xlink:href="#DejaVuSans-61" x="87.447266"/>
      <use xlink:href="#DejaVuSans-69" x="148.726562"/>
      <use xlink:href="#DejaVuSans-6e" x="176.509766"/>
      <use xlink:href="#DejaVuSans-69" x="239.888672"/>
      <use xlink:href="#DejaVuSans-6e" x="267.671875"/>
      <use xlink:href="#DejaVuSans-67" x="331.050781"/>
     </g>
    </g>
    <g id="line2d_32">
     <path d="M 1080.01875 131.456562 
L 1090.01875 131.456562 
L 1100.01875 131.456562 
" style="fill: none; stroke: #ff6347; stroke-linecap: square"/>
    </g>
    <g id="text_30">
     <!-- Validation -->
     <g transform="translate(1108.01875 134.956562) scale(0.1 -0.1)">
      <use xlink:href="#DejaVuSans-56"/>
      <use xlink:href="#DejaVuSans-61" x="60.658203"/>
      <use xlink:href="#DejaVuSans-6c" x="121.9375"/>
      <use xlink:href="#DejaVuSans-69" x="149.720703"/>
      <use xlink:href="#DejaVuSans-64" x="177.503906"/>
      <use xlink:href="#DejaVuSans-61" x="240.980469"/>
      <use xlink:href="#DejaVuSans-74" x="302.259766"/>
      <use xlink:href="#DejaVuSans-69" x="341.46875"/>
      <use xlink:href="#DejaVuSans-6f" x="369.251953"/>
      <use xlink:href="#DejaVuSans-6e" x="430.433594"/>
     </g>
    </g>
   </g>
  </g>
  <g id="axes_3">
   <g id="patch_14">
    <path d="M 162 768.96 
L 618.545455 768.96 
L 618.545455 466.56 
L 162 466.56 
z
" style="fill: #ffffff"/>
   </g>
   <g id="matplotlib.axis_5">
    <g id="xtick_13">
     <g id="line2d_33">
      <g>
       <use xlink:href="#ma9e9a990e6" x="182.752066" y="768.96" style="stroke: #000000; stroke-width: 0.8"/>
      </g>
     </g>
     <g id="text_31">
      <!-- 0 -->
      <g transform="translate(179.570816 783.558437) scale(0.1 -0.1)">
       <use xlink:href="#DejaVuSans-30"/>
      </g>
     </g>
    </g>
    <g id="xtick_14">
     <g id="line2d_34">
      <g>
       <use xlink:href="#ma9e9a990e6" x="266.598798" y="768.96" style="stroke: #000000; stroke-width: 0.8"/>
      </g>
     </g>
     <g id="text_32">
      <!-- 20 -->
      <g transform="translate(260.236298 783.558437) scale(0.1 -0.1)">
       <use xlink:href="#DejaVuSans-32"/>
       <use xlink:href="#DejaVuSans-30" x="63.623047"/>
      </g>
     </g>
    </g>
    <g id="xtick_15">
     <g id="line2d_35">
      <g>
       <use xlink:href="#ma9e9a990e6" x="350.44553" y="768.96" style="stroke: #000000; stroke-width: 0.8"/>
      </g>
     </g>
     <g id="text_33">
      <!-- 40 -->
      <g transform="translate(344.08303 783.558437) scale(0.1 -0.1)">
       <use xlink:href="#DejaVuSans-34"/>
       <use xlink:href="#DejaVuSans-30" x="63.623047"/>
      </g>
     </g>
    </g>
    <g id="xtick_16">
     <g id="line2d_36">
      <g>
       <use xlink:href="#ma9e9a990e6" x="434.292261" y="768.96" style="stroke: #000000; stroke-width: 0.8"/>
      </g>
     </g>
     <g id="text_34">
      <!-- 60 -->
      <g transform="translate(427.929761 783.558437) scale(0.1 -0.1)">
       <use xlink:href="#DejaVuSans-36"/>
       <use xlink:href="#DejaVuSans-30" x="63.623047"/>
      </g>
     </g>
    </g>
    <g id="xtick_17">
     <g id="line2d_37">
      <g>
       <use xlink:href="#ma9e9a990e6" x="518.138993" y="768.96" style="stroke: #000000; stroke-width: 0.8"/>
      </g>
     </g>
     <g id="text_35">
      <!-- 80 -->
      <g transform="translate(511.776493 783.558437) scale(0.1 -0.1)">
       <use xlink:href="#DejaVuSans-38"/>
       <use xlink:href="#DejaVuSans-30" x="63.623047"/>
      </g>
     </g>
    </g>
    <g id="xtick_18">
     <g id="line2d_38">
      <g>
       <use xlink:href="#ma9e9a990e6" x="601.985725" y="768.96" style="stroke: #000000; stroke-width: 0.8"/>
      </g>
     </g>
     <g id="text_36">
      <!-- 100 -->
      <g transform="translate(592.441975 783.558437) scale(0.1 -0.1)">
       <use xlink:href="#DejaVuSans-31"/>
       <use xlink:href="#DejaVuSans-30" x="63.623047"/>
       <use xlink:href="#DejaVuSans-30" x="127.246094"/>
      </g>
     </g>
    </g>
   </g>
   <g id="matplotlib.axis_6">
    <g id="ytick_13">
     <g id="line2d_39">
      <g>
       <use xlink:href="#mb309fa6485" x="162" y="732.529699" style="stroke: #000000; stroke-width: 0.8"/>
      </g>
     </g>
     <g id="text_37">
      <!-- 40 -->
      <g transform="translate(142.275 736.328918) scale(0.1 -0.1)">
       <use xlink:href="#DejaVuSans-34"/>
       <use xlink:href="#DejaVuSans-30" x="63.623047"/>
      </g>
     </g>
    </g>
    <g id="ytick_14">
     <g id="line2d_40">
      <g>
       <use xlink:href="#mb309fa6485" x="162" y="682.125713" style="stroke: #000000; stroke-width: 0.8"/>
      </g>
     </g>
     <g id="text_38">
      <!-- 60 -->
      <g transform="translate(142.275 685.924931) scale(0.1 -0.1)">
       <use xlink:href="#DejaVuSans-36"/>
       <use xlink:href="#DejaVuSans-30" x="63.623047"/>
      </g>
     </g>
    </g>
    <g id="ytick_15">
     <g id="line2d_41">
      <g>
       <use xlink:href="#mb309fa6485" x="162" y="631.721726" style="stroke: #000000; stroke-width: 0.8"/>
      </g>
     </g>
     <g id="text_39">
      <!-- 80 -->
      <g transform="translate(142.275 635.520945) scale(0.1 -0.1)">
       <use xlink:href="#DejaVuSans-38"/>
       <use xlink:href="#DejaVuSans-30" x="63.623047"/>
      </g>
     </g>
    </g>
    <g id="ytick_16">
     <g id="line2d_42">
      <g>
       <use xlink:href="#mb309fa6485" x="162" y="581.31774" style="stroke: #000000; stroke-width: 0.8"/>
      </g>
     </g>
     <g id="text_40">
      <!-- 100 -->
      <g transform="translate(135.9125 585.116959) scale(0.1 -0.1)">
       <use xlink:href="#DejaVuSans-31"/>
       <use xlink:href="#DejaVuSans-30" x="63.623047"/>
       <use xlink:href="#DejaVuSans-30" x="127.246094"/>
      </g>
     </g>
    </g>
    <g id="ytick_17">
     <g id="line2d_43">
      <g>
       <use xlink:href="#mb309fa6485" x="162" y="530.913753" style="stroke: #000000; stroke-width: 0.8"/>
      </g>
     </g>
     <g id="text_41">
      <!-- 120 -->
      <g transform="translate(135.9125 534.712972) scale(0.1 -0.1)">
       <use xlink:href="#DejaVuSans-31"/>
       <use xlink:href="#DejaVuSans-32" x="63.623047"/>
       <use xlink:href="#DejaVuSans-30" x="127.246094"/>
      </g>
     </g>
    </g>
    <g id="ytick_18">
     <g id="line2d_44">
      <g>
       <use xlink:href="#mb309fa6485" x="162" y="480.509767" style="stroke: #000000; stroke-width: 0.8"/>
      </g>
     </g>
     <g id="text_42">
      <!-- 140 -->
      <g transform="translate(135.9125 484.308986) scale(0.1 -0.1)">
       <use xlink:href="#DejaVuSans-31"/>
       <use xlink:href="#DejaVuSans-34" x="63.623047"/>
       <use xlink:href="#DejaVuSans-30" x="127.246094"/>
      </g>
     </g>
    </g>
   </g>
   <g id="line2d_45">
    <path d="M 182.752066 494.037726 
L 186.944403 539.036162 
L 191.136739 539.315405 
L 195.329076 546.681919 
L 199.521412 584.237566 
L 203.713749 625.926068 
L 207.906086 650.201483 
L 212.098422 626.727762 
L 216.290759 686.968307 
L 220.483095 688.239713 
L 224.675432 729.243126 
L 228.867769 723.92162 
L 233.060105 735.779893 
L 237.252442 741.512168 
L 241.444778 731.576395 
L 245.637115 742.657498 
L 249.829452 741.346801 
L 254.021788 743.490284 
L 258.214125 742.085564 
L 262.406461 742.652605 
L 266.598798 743.967782 
L 270.791134 741.950163 
L 274.983471 742.137065 
L 279.175808 743.983856 
L 283.368144 742.525751 
L 287.560481 742.821644 
L 291.752817 744.566462 
L 295.945154 743.220732 
L 300.137491 744.675829 
L 304.329827 742.805109 
L 308.522164 743.512732 
L 312.7145 744.809951 
L 316.906837 745.013542 
L 321.099174 744.019466 
L 325.29151 744.748153 
L 329.483847 744.342066 
L 333.676183 745.777877 
L 337.86852 744.323973 
L 342.060856 745.546098 
L 346.253193 745.308897 
L 350.44553 746.221602 
L 354.637866 744.760055 
L 358.830203 745.798201 
L 363.022539 744.796222 
L 367.214876 746.088163 
L 371.407213 742.904977 
L 375.599549 745.023223 
L 379.791886 745.562557 
L 383.984222 746.026125 
L 388.176559 745.49254 
L 392.368896 745.746613 
L 396.561232 745.132147 
L 400.753569 745.694199 
L 404.945905 745.414553 
L 409.138242 745.227516 
L 413.330579 746.119533 
L 417.522915 746.454593 
L 421.715252 745.682528 
L 425.907588 745.268106 
L 430.099925 745.130484 
L 434.292261 745.088693 
L 438.484598 745.853067 
L 442.676935 744.939766 
L 446.869271 745.702986 
L 451.061608 745.12063 
L 455.253944 745.45072 
L 459.446281 745.007014 
L 463.638618 746.295821 
L 467.830954 746.40561 
L 472.023291 744.339028 
L 476.215627 745.37953 
L 480.407964 745.64141 
L 484.600301 745.232467 
L 488.792637 745.908077 
L 492.984974 746.750188 
L 497.17731 744.724138 
L 501.369647 745.828033 
L 505.561983 747.154054 
L 509.75432 746.042228 
L 513.946657 746.331286 
L 518.138993 745.736567 
L 522.33133 745.543589 
L 526.523666 745.667809 
L 530.716003 746.064763 
L 534.90834 745.765735 
L 539.100676 745.684825 
L 543.293013 745.557241 
L 547.485349 746.74964 
L 551.677686 745.558539 
L 555.870023 746.438509 
L 560.062359 744.791415 
L 564.254696 745.256329 
L 568.447032 745.309878 
L 572.639369 746.185262 
L 576.831705 745.085136 
L 581.024042 745.313742 
L 585.216379 746.343976 
L 589.408715 747.23457 
L 593.601052 746.354542 
L 597.793388 746.571727 
" clip-path="url(#p7cea019bf9)" style="fill: none; stroke: #4169e1; stroke-linecap: square"/>
   </g>
   <g id="line2d_46">
    <path d="M 182.752066 480.305455 
L 186.944403 530.982011 
L 191.136739 531.394155 
L 195.329076 542.130978 
L 199.521412 588.875184 
L 203.713749 641.788103 
L 207.906086 667.926749 
L 212.098422 640.730566 
L 216.290759 708.120623 
L 220.483095 707.178673 
L 224.675432 745.155711 
L 228.867769 740.680738 
L 233.060105 748.368604 
L 237.252442 740.909345 
L 241.444778 747.526204 
L 245.637115 751.973162 
L 249.829452 749.536392 
L 254.021788 754.10869 
L 258.214125 753.262478 
L 262.406461 752.123359 
L 266.598798 751.093048 
L 270.791134 748.643645 
L 274.983471 750.982489 
L 279.175808 742.477913 
L 283.368144 740.835068 
L 287.560481 748.911822 
L 291.752817 752.025673 
L 295.945154 751.012254 
L 300.137491 750.60236 
L 304.329827 752.427808 
L 308.522164 748.484354 
L 312.7145 754.054732 
L 316.906837 752.073828 
L 321.099174 750.576451 
L 325.29151 742.142506 
L 329.483847 750.591333 
L 333.676183 747.493479 
L 337.86852 749.812644 
L 342.060856 750.521412 
L 346.253193 751.243119 
L 350.44553 751.71457 
L 354.637866 748.801349 
L 358.830203 750.352343 
L 363.022539 748.62111 
L 367.214876 752.29734 
L 371.407213 748.865473 
L 375.599549 750.26829 
L 379.791886 752.585004 
L 383.984222 752.657953 
L 388.176559 752.442921 
L 392.368896 752.585888 
L 396.561232 748.573935 
L 400.753569 750.819795 
L 404.945905 750.865038 
L 409.138242 753.76105 
L 413.330579 747.237386 
L 417.522915 751.624912 
L 421.715252 754.078445 
L 425.907588 752.734912 
L 430.099925 752.314529 
L 434.292261 747.563602 
L 438.484598 753.164043 
L 442.676935 751.495895 
L 446.869271 751.119486 
L 451.061608 750.217519 
L 455.253944 749.247449 
L 459.446281 750.593544 
L 463.638618 753.659043 
L 467.830954 752.381999 
L 472.023291 750.358314 
L 476.215627 749.54341 
L 480.407964 753.259767 
L 484.600301 749.553331 
L 488.792637 753.523128 
L 492.984974 751.238111 
L 497.17731 753.137023 
L 501.369647 747.968939 
L 505.561983 754.037326 
L 509.75432 747.039592 
L 513.946657 749.854983 
L 518.138993 748.923762 
L 522.33133 749.625656 
L 526.523666 753.21713 
L 530.716003 750.303361 
L 534.90834 751.015186 
L 539.100676 749.889574 
L 543.293013 749.670994 
L 547.485349 747.536376 
L 551.677686 753.472775 
L 555.870023 747.554488 
L 560.062359 747.302799 
L 564.254696 751.002409 
L 568.447032 749.461971 
L 572.639369 753.229224 
L 576.831705 752.615085 
L 581.024042 750.738299 
L 585.216379 752.192136 
L 589.408715 751.797172 
L 593.601052 746.339381 
L 597.793388 755.214545 
" clip-path="url(#p7cea019bf9)" style="fill: none; stroke: #ff6347; stroke-linecap: square"/>
   </g>
   <g id="patch_15">
    <path d="M 162 768.96 
L 162 466.56 
" style="fill: none; stroke: #000000; stroke-width: 0.8; stroke-linejoin: miter; stroke-linecap: square"/>
   </g>
   <g id="patch_16">
    <path d="M 618.545455 768.96 
L 618.545455 466.56 
" style="fill: none; stroke: #000000; stroke-width: 0.8; stroke-linejoin: miter; stroke-linecap: square"/>
   </g>
   <g id="patch_17">
    <path d="M 162 768.96 
L 618.545455 768.96 
" style="fill: none; stroke: #000000; stroke-width: 0.8; stroke-linejoin: miter; stroke-linecap: square"/>
   </g>
   <g id="patch_18">
    <path d="M 162 466.56 
L 618.545455 466.56 
" style="fill: none; stroke: #000000; stroke-width: 0.8; stroke-linejoin: miter; stroke-linecap: square"/>
   </g>
   <g id="text_43">
    <!-- MAE -->
    <g transform="translate(377.200227 460.56) scale(0.12 -0.12)">
     <defs>
      <path id="DejaVuSans-41" d="M 2188 4044 
L 1331 1722 
L 3047 1722 
L 2188 4044 
z
M 1831 4666 
L 2547 4666 
L 4325 0 
L 3669 0 
L 3244 1197 
L 1141 1197 
L 716 0 
L 50 0 
L 1831 4666 
z
" transform="scale(0.015625)"/>
     </defs>
     <use xlink:href="#DejaVuSans-4d"/>
     <use xlink:href="#DejaVuSans-41" x="86.279297"/>
     <use xlink:href="#DejaVuSans-45" x="154.6875"/>
    </g>
   </g>
   <g id="legend_3">
    <g id="patch_19">
     <path d="M 530.164205 503.91625 
L 611.545455 503.91625 
Q 613.545455 503.91625 613.545455 501.91625 
L 613.545455 473.56 
Q 613.545455 471.56 611.545455 471.56 
L 530.164205 471.56 
Q 528.164205 471.56 528.164205 473.56 
L 528.164205 501.91625 
Q 528.164205 503.91625 530.164205 503.91625 
z
" style="fill: #ffffff; opacity: 0.8; stroke: #cccccc; stroke-linejoin: miter"/>
    </g>
    <g id="line2d_47">
     <path d="M 532.164205 479.658437 
L 542.164205 479.658437 
L 552.164205 479.658437 
" style="fill: none; stroke: #4169e1; stroke-linecap: square"/>
    </g>
    <g id="text_44">
     <!-- Training -->
     <g transform="translate(560.164205 483.158437) scale(0.1 -0.1)">
      <use xlink:href="#DejaVuSans-54"/>
      <use xlink:href="#DejaVuSans-72" x="46.333984"/>
      <use xlink:href="#DejaVuSans-61" x="87.447266"/>
      <use xlink:href="#DejaVuSans-69" x="148.726562"/>
      <use xlink:href="#DejaVuSans-6e" x="176.509766"/>
      <use xlink:href="#DejaVuSans-69" x="239.888672"/>
      <use xlink:href="#DejaVuSans-6e" x="267.671875"/>
      <use xlink:href="#DejaVuSans-67" x="331.050781"/>
     </g>
    </g>
    <g id="line2d_48">
     <path d="M 532.164205 494.336563 
L 542.164205 494.336563 
L 552.164205 494.336563 
" style="fill: none; stroke: #ff6347; stroke-linecap: square"/>
    </g>
    <g id="text_45">
     <!-- Validation -->
     <g transform="translate(560.164205 497.836563) scale(0.1 -0.1)">
      <use xlink:href="#DejaVuSans-56"/>
      <use xlink:href="#DejaVuSans-61" x="60.658203"/>
      <use xlink:href="#DejaVuSans-6c" x="121.9375"/>
      <use xlink:href="#DejaVuSans-69" x="149.720703"/>
      <use xlink:href="#DejaVuSans-64" x="177.503906"/>
      <use xlink:href="#DejaVuSans-61" x="240.980469"/>
      <use xlink:href="#DejaVuSans-74" x="302.259766"/>
      <use xlink:href="#DejaVuSans-69" x="341.46875"/>
      <use xlink:href="#DejaVuSans-6f" x="369.251953"/>
      <use xlink:href="#DejaVuSans-6e" x="430.433594"/>
     </g>
    </g>
   </g>
  </g>
  <g id="axes_4">
   <g id="patch_20">
    <path d="M 709.854545 768.96 
L 1166.4 768.96 
L 1166.4 466.56 
L 709.854545 466.56 
z
" style="fill: #ffffff"/>
   </g>
   <g id="matplotlib.axis_7">
    <g id="xtick_19">
     <g id="line2d_49">
      <g>
       <use xlink:href="#ma9e9a990e6" x="730.606612" y="768.96" style="stroke: #000000; stroke-width: 0.8"/>
      </g>
     </g>
     <g id="text_46">
      <!-- 0 -->
      <g transform="translate(727.425362 783.558437) scale(0.1 -0.1)">
       <use xlink:href="#DejaVuSans-30"/>
      </g>
     </g>
    </g>
    <g id="xtick_20">
     <g id="line2d_50">
      <g>
       <use xlink:href="#ma9e9a990e6" x="814.453343" y="768.96" style="stroke: #000000; stroke-width: 0.8"/>
      </g>
     </g>
     <g id="text_47">
      <!-- 20 -->
      <g transform="translate(808.090843 783.558437) scale(0.1 -0.1)">
       <use xlink:href="#DejaVuSans-32"/>
       <use xlink:href="#DejaVuSans-30" x="63.623047"/>
      </g>
     </g>
    </g>
    <g id="xtick_21">
     <g id="line2d_51">
      <g>
       <use xlink:href="#ma9e9a990e6" x="898.300075" y="768.96" style="stroke: #000000; stroke-width: 0.8"/>
      </g>
     </g>
     <g id="text_48">
      <!-- 40 -->
      <g transform="translate(891.937575 783.558437) scale(0.1 -0.1)">
       <use xlink:href="#DejaVuSans-34"/>
       <use xlink:href="#DejaVuSans-30" x="63.623047"/>
      </g>
     </g>
    </g>
    <g id="xtick_22">
     <g id="line2d_52">
      <g>
       <use xlink:href="#ma9e9a990e6" x="982.146807" y="768.96" style="stroke: #000000; stroke-width: 0.8"/>
      </g>
     </g>
     <g id="text_49">
      <!-- 60 -->
      <g transform="translate(975.784307 783.558437) scale(0.1 -0.1)">
       <use xlink:href="#DejaVuSans-36"/>
       <use xlink:href="#DejaVuSans-30" x="63.623047"/>
      </g>
     </g>
    </g>
    <g id="xtick_23">
     <g id="line2d_53">
      <g>
       <use xlink:href="#ma9e9a990e6" x="1065.993539" y="768.96" style="stroke: #000000; stroke-width: 0.8"/>
      </g>
     </g>
     <g id="text_50">
      <!-- 80 -->
      <g transform="translate(1059.631039 783.558437) scale(0.1 -0.1)">
       <use xlink:href="#DejaVuSans-38"/>
       <use xlink:href="#DejaVuSans-30" x="63.623047"/>
      </g>
     </g>
    </g>
    <g id="xtick_24">
     <g id="line2d_54">
      <g>
       <use xlink:href="#ma9e9a990e6" x="1149.84027" y="768.96" style="stroke: #000000; stroke-width: 0.8"/>
      </g>
     </g>
     <g id="text_51">
      <!-- 100 -->
      <g transform="translate(1140.29652 783.558437) scale(0.1 -0.1)">
       <use xlink:href="#DejaVuSans-31"/>
       <use xlink:href="#DejaVuSans-30" x="63.623047"/>
       <use xlink:href="#DejaVuSans-30" x="127.246094"/>
      </g>
     </g>
    </g>
   </g>
   <g id="matplotlib.axis_8">
    <g id="ytick_19">
     <g id="line2d_55">
      <g>
       <use xlink:href="#mb309fa6485" x="709.854545" y="755.963299" style="stroke: #000000; stroke-width: 0.8"/>
      </g>
     </g>
     <g id="text_52">
      <!-- 40 -->
      <g transform="translate(690.129545 759.762518) scale(0.1 -0.1)">
       <use xlink:href="#DejaVuSans-34"/>
       <use xlink:href="#DejaVuSans-30" x="63.623047"/>
      </g>
     </g>
    </g>
    <g id="ytick_20">
     <g id="line2d_56">
      <g>
       <use xlink:href="#mb309fa6485" x="709.854545" y="708.037227" style="stroke: #000000; stroke-width: 0.8"/>
      </g>
     </g>
     <g id="text_53">
      <!-- 60 -->
      <g transform="translate(690.129545 711.836445) scale(0.1 -0.1)">
       <use xlink:href="#DejaVuSans-36"/>
       <use xlink:href="#DejaVuSans-30" x="63.623047"/>
      </g>
     </g>
    </g>
    <g id="ytick_21">
     <g id="line2d_57">
      <g>
       <use xlink:href="#mb309fa6485" x="709.854545" y="660.111154" style="stroke: #000000; stroke-width: 0.8"/>
      </g>
     </g>
     <g id="text_54">
      <!-- 80 -->
      <g transform="translate(690.129545 663.910373) scale(0.1 -0.1)">
       <use xlink:href="#DejaVuSans-38"/>
       <use xlink:href="#DejaVuSans-30" x="63.623047"/>
      </g>
     </g>
    </g>
    <g id="ytick_22">
     <g id="line2d_58">
      <g>
       <use xlink:href="#mb309fa6485" x="709.854545" y="612.185082" style="stroke: #000000; stroke-width: 0.8"/>
      </g>
     </g>
     <g id="text_55">
      <!-- 100 -->
      <g transform="translate(683.767045 615.984301) scale(0.1 -0.1)">
       <use xlink:href="#DejaVuSans-31"/>
       <use xlink:href="#DejaVuSans-30" x="63.623047"/>
       <use xlink:href="#DejaVuSans-30" x="127.246094"/>
      </g>
     </g>
    </g>
    <g id="ytick_23">
     <g id="line2d_59">
      <g>
       <use xlink:href="#mb309fa6485" x="709.854545" y="564.25901" style="stroke: #000000; stroke-width: 0.8"/>
      </g>
     </g>
     <g id="text_56">
      <!-- 120 -->
      <g transform="translate(683.767045 568.058229) scale(0.1 -0.1)">
       <use xlink:href="#DejaVuSans-31"/>
       <use xlink:href="#DejaVuSans-32" x="63.623047"/>
       <use xlink:href="#DejaVuSans-30" x="127.246094"/>
      </g>
     </g>
    </g>
    <g id="ytick_24">
     <g id="line2d_60">
      <g>
       <use xlink:href="#mb309fa6485" x="709.854545" y="516.332937" style="stroke: #000000; stroke-width: 0.8"/>
      </g>
     </g>
     <g id="text_57">
      <!-- 140 -->
      <g transform="translate(683.767045 520.132156) scale(0.1 -0.1)">
       <use xlink:href="#DejaVuSans-31"/>
       <use xlink:href="#DejaVuSans-34" x="63.623047"/>
       <use xlink:href="#DejaVuSans-30" x="127.246094"/>
      </g>
     </g>
    </g>
    <g id="ytick_25">
     <g id="line2d_61">
      <g>
       <use xlink:href="#mb309fa6485" x="709.854545" y="468.406865" style="stroke: #000000; stroke-width: 0.8"/>
      </g>
     </g>
     <g id="text_58">
      <!-- 160 -->
      <g transform="translate(683.767045 472.206084) scale(0.1 -0.1)">
       <use xlink:href="#DejaVuSans-31"/>
       <use xlink:href="#DejaVuSans-36" x="63.623047"/>
       <use xlink:href="#DejaVuSans-30" x="127.246094"/>
      </g>
     </g>
    </g>
   </g>
   <g id="line2d_62">
    <path d="M 730.606612 486.309852 
L 734.798948 527.385822 
L 738.991285 527.728287 
L 743.183621 534.452168 
L 747.375958 573.16999 
L 751.568295 615.618689 
L 755.760631 640.438966 
L 759.952968 614.112645 
L 764.145304 682.472767 
L 768.337641 683.004436 
L 772.529977 730.804945 
L 776.722314 724.746139 
L 780.914651 736.933196 
L 785.106987 742.107301 
L 789.299324 733.628059 
L 793.49166 742.049876 
L 797.683997 741.82887 
L 801.876334 743.3702 
L 806.06867 742.323371 
L 810.261007 743.255277 
L 814.453343 743.690369 
L 818.64568 742.388621 
L 822.838017 742.061239 
L 827.030353 743.435934 
L 831.22269 742.91464 
L 835.415026 742.931615 
L 839.607363 744.490505 
L 843.799699 742.948746 
L 847.992036 744.314849 
L 852.184373 742.959633 
L 856.376709 743.912025 
L 860.569046 745.177912 
L 864.761382 744.623967 
L 868.953719 744.044974 
L 873.146056 744.571734 
L 877.338392 744.157465 
L 881.530729 745.71449 
L 885.723065 744.688558 
L 889.915402 745.278182 
L 894.107739 745.075906 
L 898.300075 745.886874 
L 902.492412 745.019469 
L 906.684748 745.894791 
L 910.877085 744.942564 
L 915.069421 746.381796 
L 919.261758 742.546087 
L 923.454095 745.153953 
L 927.646431 745.923055 
L 931.838768 745.64733 
L 936.031104 745.194888 
L 940.223441 745.464698 
L 944.415778 745.464214 
L 948.608114 745.922525 
L 952.800451 745.224843 
L 956.992787 745.208142 
L 961.185124 746.148888 
L 965.377461 746.682175 
L 969.569797 745.6204 
L 973.762134 745.749949 
L 977.95447 745.179768 
L 982.146807 745.395244 
L 986.339144 746.466123 
L 990.53148 745.317992 
L 994.723817 745.873336 
L 998.916153 745.000299 
L 1003.10849 745.332398 
L 1007.300826 744.92589 
L 1011.493163 745.888273 
L 1015.6855 746.426423 
L 1019.877836 744.633153 
L 1024.070173 745.312407 
L 1028.262509 745.736356 
L 1032.454846 745.744199 
L 1036.647183 746.321172 
L 1040.839519 746.891581 
L 1045.031856 744.982657 
L 1049.224192 746.221231 
L 1053.416529 746.828104 
L 1057.608866 746.26254 
L 1061.801202 746.355168 
L 1065.993539 746.056151 
L 1070.185875 746.04328 
L 1074.378212 745.622539 
L 1078.570548 746.497331 
L 1082.762885 745.719701 
L 1086.955222 745.551302 
L 1091.147558 745.459835 
L 1095.339895 747.232044 
L 1099.532231 745.949647 
L 1103.724568 746.833772 
L 1107.916905 745.608754 
L 1112.109241 745.159621 
L 1116.301578 745.786358 
L 1120.493914 746.575945 
L 1124.686251 745.685586 
L 1128.878588 745.701098 
L 1133.070924 746.336574 
L 1137.263261 747.698024 
L 1141.455597 746.71011 
L 1145.647934 746.057878 
" clip-path="url(#p78612f7c90)" style="fill: none; stroke: #4169e1; stroke-linecap: square"/>
   </g>
   <g id="line2d_63">
    <path d="M 730.606612 480.305455 
L 734.798948 529.058437 
L 738.991285 529.475019 
L 743.183621 540.43342 
L 747.375958 587.837129 
L 751.568295 639.233538 
L 755.760631 667.333485 
L 759.952968 637.714129 
L 764.145304 712.933568 
L 768.337641 711.810017 
L 772.529977 750.906091 
L 776.722314 747.484495 
L 780.914651 752.976978 
L 785.106987 745.881865 
L 789.299324 751.748779 
L 793.49166 754.135777 
L 797.683997 753.387554 
L 801.876334 753.839978 
L 806.06867 754.375596 
L 810.261007 754.537294 
L 814.453343 754.188668 
L 818.64568 752.55132 
L 822.838017 754.411192 
L 827.030353 747.851925 
L 831.22269 745.883154 
L 835.415026 753.423214 
L 839.607363 754.690848 
L 843.799699 754.540804 
L 847.992036 754.149178 
L 852.184373 754.798357 
L 856.376709 752.870941 
L 860.569046 754.687255 
L 864.761382 754.538016 
L 868.953719 753.549444 
L 873.146056 747.914533 
L 877.338392 754.269915 
L 881.530729 752.279333 
L 885.723065 752.970918 
L 889.915402 754.407526 
L 894.107739 754.458945 
L 898.300075 753.237374 
L 902.492412 753.209237 
L 906.684748 754.094596 
L 910.877085 753.044788 
L 915.069421 754.580605 
L 919.261758 752.74184 
L 923.454095 754.350037 
L 927.646431 754.162643 
L 931.838768 754.520813 
L 936.031104 754.913417 
L 940.223441 754.679174 
L 944.415778 752.893885 
L 948.608114 753.80271 
L 952.800451 753.327323 
L 956.992787 754.757213 
L 961.185124 752.144684 
L 965.377461 754.502896 
L 969.569797 754.341819 
L 973.762134 754.671011 
L 977.95447 755.060791 
L 982.146807 752.898346 
L 986.339144 755.003384 
L 990.53148 754.942202 
L 994.723817 754.299898 
L 998.916153 754.098655 
L 1003.10849 752.450273 
L 1007.300826 753.600297 
L 1011.493163 755.015853 
L 1015.6855 754.66805 
L 1019.877836 754.245773 
L 1024.070173 753.447118 
L 1028.262509 754.91541 
L 1032.454846 753.563604 
L 1036.647183 754.968218 
L 1040.839519 754.895052 
L 1045.031856 754.587945 
L 1049.224192 753.189849 
L 1053.416529 755.053633 
L 1057.608866 752.360635 
L 1061.801202 753.459724 
L 1065.993539 753.446963 
L 1070.185875 753.83198 
L 1074.378212 755.214545 
L 1078.570548 753.3331 
L 1082.762885 754.881469 
L 1086.955222 753.943767 
L 1091.147558 753.525933 
L 1095.339895 752.402849 
L 1099.532231 754.496031 
L 1103.724568 752.296893 
L 1107.916905 751.67342 
L 1112.109241 754.763465 
L 1116.301578 753.602052 
L 1120.493914 754.837097 
L 1124.686251 754.866651 
L 1128.878588 754.23548 
L 1133.070924 754.713536 
L 1137.263261 754.606027 
L 1141.455597 751.277781 
L 1145.647934 754.397178 
" clip-path="url(#p78612f7c90)" style="fill: none; stroke: #ff6347; stroke-linecap: square"/>
   </g>
   <g id="patch_21">
    <path d="M 709.854545 768.96 
L 709.854545 466.56 
" style="fill: none; stroke: #000000; stroke-width: 0.8; stroke-linejoin: miter; stroke-linecap: square"/>
   </g>
   <g id="patch_22">
    <path d="M 1166.4 768.96 
L 1166.4 466.56 
" style="fill: none; stroke: #000000; stroke-width: 0.8; stroke-linejoin: miter; stroke-linecap: square"/>
   </g>
   <g id="patch_23">
    <path d="M 709.854545 768.96 
L 1166.4 768.96 
" style="fill: none; stroke: #000000; stroke-width: 0.8; stroke-linejoin: miter; stroke-linecap: square"/>
   </g>
   <g id="patch_24">
    <path d="M 709.854545 466.56 
L 1166.4 466.56 
" style="fill: none; stroke: #000000; stroke-width: 0.8; stroke-linejoin: miter; stroke-linecap: square"/>
   </g>
   <g id="text_59">
    <!-- ROOT_MEAN_SQUARED_ERROR -->
    <g transform="translate(843.656335 460.56) scale(0.12 -0.12)">
     <defs>
      <path id="DejaVuSans-52" d="M 2841 2188 
Q 3044 2119 3236 1894 
Q 3428 1669 3622 1275 
L 4263 0 
L 3584 0 
L 2988 1197 
Q 2756 1666 2539 1819 
Q 2322 1972 1947 1972 
L 1259 1972 
L 1259 0 
L 628 0 
L 628 4666 
L 2053 4666 
Q 2853 4666 3247 4331 
Q 3641 3997 3641 3322 
Q 3641 2881 3436 2590 
Q 3231 2300 2841 2188 
z
M 1259 4147 
L 1259 2491 
L 2053 2491 
Q 2509 2491 2742 2702 
Q 2975 2913 2975 3322 
Q 2975 3731 2742 3939 
Q 2509 4147 2053 4147 
L 1259 4147 
z
" transform="scale(0.015625)"/>
      <path id="DejaVuSans-5f" d="M 3263 -1063 
L 3263 -1509 
L -63 -1509 
L -63 -1063 
L 3263 -1063 
z
" transform="scale(0.015625)"/>
      <path id="DejaVuSans-4e" d="M 628 4666 
L 1478 4666 
L 3547 763 
L 3547 4666 
L 4159 4666 
L 4159 0 
L 3309 0 
L 1241 3903 
L 1241 0 
L 628 0 
L 628 4666 
z
" transform="scale(0.015625)"/>
      <path id="DejaVuSans-51" d="M 2522 4238 
Q 1834 4238 1429 3725 
Q 1025 3213 1025 2328 
Q 1025 1447 1429 934 
Q 1834 422 2522 422 
Q 3209 422 3611 934 
Q 4013 1447 4013 2328 
Q 4013 3213 3611 3725 
Q 3209 4238 2522 4238 
z
M 3406 84 
L 4238 -825 
L 3475 -825 
L 2784 -78 
Q 2681 -84 2626 -87 
Q 2572 -91 2522 -91 
Q 1538 -91 948 567 
Q 359 1225 359 2328 
Q 359 3434 948 4092 
Q 1538 4750 2522 4750 
Q 3503 4750 4090 4092 
Q 4678 3434 4678 2328 
Q 4678 1516 4351 937 
Q 4025 359 3406 84 
z
" transform="scale(0.015625)"/>
      <path id="DejaVuSans-55" d="M 556 4666 
L 1191 4666 
L 1191 1831 
Q 1191 1081 1462 751 
Q 1734 422 2344 422 
Q 2950 422 3222 751 
Q 3494 1081 3494 1831 
L 3494 4666 
L 4128 4666 
L 4128 1753 
Q 4128 841 3676 375 
Q 3225 -91 2344 -91 
Q 1459 -91 1007 375 
Q 556 841 556 1753 
L 556 4666 
z
" transform="scale(0.015625)"/>
      <path id="DejaVuSans-44" d="M 1259 4147 
L 1259 519 
L 2022 519 
Q 2988 519 3436 956 
Q 3884 1394 3884 2338 
Q 3884 3275 3436 3711 
Q 2988 4147 2022 4147 
L 1259 4147 
z
M 628 4666 
L 1925 4666 
Q 3281 4666 3915 4102 
Q 4550 3538 4550 2338 
Q 4550 1131 3912 565 
Q 3275 0 1925 0 
L 628 0 
L 628 4666 
z
" transform="scale(0.015625)"/>
     </defs>
     <use xlink:href="#DejaVuSans-52"/>
     <use xlink:href="#DejaVuSans-4f" x="69.482422"/>
     <use xlink:href="#DejaVuSans-4f" x="148.193359"/>
     <use xlink:href="#DejaVuSans-54" x="226.904297"/>
     <use xlink:href="#DejaVuSans-5f" x="287.988281"/>
     <use xlink:href="#DejaVuSans-4d" x="337.988281"/>
     <use xlink:href="#DejaVuSans-45" x="424.267578"/>
     <use xlink:href="#DejaVuSans-41" x="487.451172"/>
     <use xlink:href="#DejaVuSans-4e" x="555.859375"/>
     <use xlink:href="#DejaVuSans-5f" x="630.664062"/>
     <use xlink:href="#DejaVuSans-53" x="680.664062"/>
     <use xlink:href="#DejaVuSans-51" x="744.140625"/>
     <use xlink:href="#DejaVuSans-55" x="822.851562"/>
     <use xlink:href="#DejaVuSans-41" x="896.044922"/>
     <use xlink:href="#DejaVuSans-52" x="964.453125"/>
     <use xlink:href="#DejaVuSans-45" x="1033.935547"/>
     <use xlink:href="#DejaVuSans-44" x="1097.119141"/>
     <use xlink:href="#DejaVuSans-5f" x="1174.121094"/>
     <use xlink:href="#DejaVuSans-45" x="1224.121094"/>
     <use xlink:href="#DejaVuSans-52" x="1287.304688"/>
     <use xlink:href="#DejaVuSans-52" x="1356.787109"/>
     <use xlink:href="#DejaVuSans-4f" x="1426.269531"/>
     <use xlink:href="#DejaVuSans-52" x="1504.980469"/>
    </g>
   </g>
   <g id="legend_4">
    <g id="patch_25">
     <path d="M 1078.01875 503.91625 
L 1159.4 503.91625 
Q 1161.4 503.91625 1161.4 501.91625 
L 1161.4 473.56 
Q 1161.4 471.56 1159.4 471.56 
L 1078.01875 471.56 
Q 1076.01875 471.56 1076.01875 473.56 
L 1076.01875 501.91625 
Q 1076.01875 503.91625 1078.01875 503.91625 
z
" style="fill: #ffffff; opacity: 0.8; stroke: #cccccc; stroke-linejoin: miter"/>
    </g>
    <g id="line2d_64">
     <path d="M 1080.01875 479.658437 
L 1090.01875 479.658437 
L 1100.01875 479.658437 
" style="fill: none; stroke: #4169e1; stroke-linecap: square"/>
    </g>
    <g id="text_60">
     <!-- Training -->
     <g transform="translate(1108.01875 483.158437) scale(0.1 -0.1)">
      <use xlink:href="#DejaVuSans-54"/>
      <use xlink:href="#DejaVuSans-72" x="46.333984"/>
      <use xlink:href="#DejaVuSans-61" x="87.447266"/>
      <use xlink:href="#DejaVuSans-69" x="148.726562"/>
      <use xlink:href="#DejaVuSans-6e" x="176.509766"/>
      <use xlink:href="#DejaVuSans-69" x="239.888672"/>
      <use xlink:href="#DejaVuSans-6e" x="267.671875"/>
      <use xlink:href="#DejaVuSans-67" x="331.050781"/>
     </g>
    </g>
    <g id="line2d_65">
     <path d="M 1080.01875 494.336563 
L 1090.01875 494.336563 
L 1100.01875 494.336563 
" style="fill: none; stroke: #ff6347; stroke-linecap: square"/>
    </g>
    <g id="text_61">
     <!-- Validation -->
     <g transform="translate(1108.01875 497.836563) scale(0.1 -0.1)">
      <use xlink:href="#DejaVuSans-56"/>
      <use xlink:href="#DejaVuSans-61" x="60.658203"/>
      <use xlink:href="#DejaVuSans-6c" x="121.9375"/>
      <use xlink:href="#DejaVuSans-69" x="149.720703"/>
      <use xlink:href="#DejaVuSans-64" x="177.503906"/>
      <use xlink:href="#DejaVuSans-61" x="240.980469"/>
      <use xlink:href="#DejaVuSans-74" x="302.259766"/>
      <use xlink:href="#DejaVuSans-69" x="341.46875"/>
      <use xlink:href="#DejaVuSans-6f" x="369.251953"/>
      <use xlink:href="#DejaVuSans-6e" x="430.433594"/>
     </g>
    </g>
   </g>
  </g>
 </g>
 <defs>
  <clipPath id="p2b192f7e41">
   <rect x="162" y="103.68" width="456.545455" height="302.4"/>
  </clipPath>
  <clipPath id="pd5f15b1234">
   <rect x="709.854545" y="103.68" width="456.545455" height="302.4"/>
  </clipPath>
  <clipPath id="p7cea019bf9">
   <rect x="162" y="466.56" width="456.545455" height="302.4"/>
  </clipPath>
  <clipPath id="p78612f7c90">
   <rect x="709.854545" y="466.56" width="456.545455" height="302.4"/>
  </clipPath>
 </defs>
</svg>
