<?xml version="1.0" encoding="utf-8" standalone="no"?>
<!DOCTYPE svg PUBLIC "-//W3C//DTD SVG 1.1//EN"
  "http://www.w3.org/Graphics/SVG/1.1/DTD/svg11.dtd">
<svg xmlns:xlink="http://www.w3.org/1999/xlink" width="1296pt" height="864pt" viewBox="0 0 1296 864" xmlns="http://www.w3.org/2000/svg" version="1.1">
 <metadata>
  <rdf:RDF xmlns:dc="http://purl.org/dc/elements/1.1/" xmlns:cc="http://creativecommons.org/ns#" xmlns:rdf="http://www.w3.org/1999/02/22-rdf-syntax-ns#">
   <cc:Work>
    <dc:type rdf:resource="http://purl.org/dc/dcmitype/StillImage"/>
    <dc:date>2023-12-10T12:37:09.745386</dc:date>
    <dc:format>image/svg+xml</dc:format>
    <dc:creator>
     <cc:Agent>
      <dc:title>Matplotlib v3.8.0, https://matplotlib.org/</dc:title>
     </cc:Agent>
    </dc:creator>
   </cc:Work>
  </rdf:RDF>
 </metadata>
 <defs>
  <style type="text/css">*{stroke-linejoin: round; stroke-linecap: butt}</style>
 </defs>
 <g id="figure_1">
  <g id="patch_1">
   <path d="M 0 864 
L 1296 864 
L 1296 0 
L 0 0 
z
" style="fill: #ffffff"/>
  </g>
  <g id="axes_1">
   <g id="patch_2">
    <path d="M 162 406.08 
L 618.545455 406.08 
L 618.545455 103.68 
L 162 103.68 
z
" style="fill: #ffffff"/>
   </g>
   <g id="matplotlib.axis_1">
    <g id="xtick_1">
     <g id="line2d_1">
      <defs>
       <path id="m2395daa33a" d="M 0 0 
L 0 3.5 
" style="stroke: #000000; stroke-width: 0.8"/>
      </defs>
      <g>
       <use xlink:href="#m2395daa33a" x="182.752066" y="406.08" style="stroke: #000000; stroke-width: 0.8"/>
      </g>
     </g>
     <g id="text_1">
      <!-- 0 -->
      <g transform="translate(179.570816 420.678437) scale(0.1 -0.1)">
       <defs>
        <path id="DejaVuSans-30" d="M 2034 4250 
Q 1547 4250 1301 3770 
Q 1056 3291 1056 2328 
Q 1056 1369 1301 889 
Q 1547 409 2034 409 
Q 2525 409 2770 889 
Q 3016 1369 3016 2328 
Q 3016 3291 2770 3770 
Q 2525 4250 2034 4250 
z
M 2034 4750 
Q 2819 4750 3233 4129 
Q 3647 3509 3647 2328 
Q 3647 1150 3233 529 
Q 2819 -91 2034 -91 
Q 1250 -91 836 529 
Q 422 1150 422 2328 
Q 422 3509 836 4129 
Q 1250 4750 2034 4750 
z
" transform="scale(0.015625)"/>
       </defs>
       <use xlink:href="#DejaVuSans-30"/>
      </g>
     </g>
    </g>
    <g id="xtick_2">
     <g id="line2d_2">
      <g>
       <use xlink:href="#m2395daa33a" x="266.598798" y="406.08" style="stroke: #000000; stroke-width: 0.8"/>
      </g>
     </g>
     <g id="text_2">
      <!-- 20 -->
      <g transform="translate(260.236298 420.678437) scale(0.1 -0.1)">
       <defs>
        <path id="DejaVuSans-32" d="M 1228 531 
L 3431 531 
L 3431 0 
L 469 0 
L 469 531 
Q 828 903 1448 1529 
Q 2069 2156 2228 2338 
Q 2531 2678 2651 2914 
Q 2772 3150 2772 3378 
Q 2772 3750 2511 3984 
Q 2250 4219 1831 4219 
Q 1534 4219 1204 4116 
Q 875 4013 500 3803 
L 500 4441 
Q 881 4594 1212 4672 
Q 1544 4750 1819 4750 
Q 2544 4750 2975 4387 
Q 3406 4025 3406 3419 
Q 3406 3131 3298 2873 
Q 3191 2616 2906 2266 
Q 2828 2175 2409 1742 
Q 1991 1309 1228 531 
z
" transform="scale(0.015625)"/>
       </defs>
       <use xlink:href="#DejaVuSans-32"/>
       <use xlink:href="#DejaVuSans-30" x="63.623047"/>
      </g>
     </g>
    </g>
    <g id="xtick_3">
     <g id="line2d_3">
      <g>
       <use xlink:href="#m2395daa33a" x="350.44553" y="406.08" style="stroke: #000000; stroke-width: 0.8"/>
      </g>
     </g>
     <g id="text_3">
      <!-- 40 -->
      <g transform="translate(344.08303 420.678437) scale(0.1 -0.1)">
       <defs>
        <path id="DejaVuSans-34" d="M 2419 4116 
L 825 1625 
L 2419 1625 
L 2419 4116 
z
M 2253 4666 
L 3047 4666 
L 3047 1625 
L 3713 1625 
L 3713 1100 
L 3047 1100 
L 3047 0 
L 2419 0 
L 2419 1100 
L 313 1100 
L 313 1709 
L 2253 4666 
z
" transform="scale(0.015625)"/>
       </defs>
       <use xlink:href="#DejaVuSans-34"/>
       <use xlink:href="#DejaVuSans-30" x="63.623047"/>
      </g>
     </g>
    </g>
    <g id="xtick_4">
     <g id="line2d_4">
      <g>
       <use xlink:href="#m2395daa33a" x="434.292261" y="406.08" style="stroke: #000000; stroke-width: 0.8"/>
      </g>
     </g>
     <g id="text_4">
      <!-- 60 -->
      <g transform="translate(427.929761 420.678437) scale(0.1 -0.1)">
       <defs>
        <path id="DejaVuSans-36" d="M 2113 2584 
Q 1688 2584 1439 2293 
Q 1191 2003 1191 1497 
Q 1191 994 1439 701 
Q 1688 409 2113 409 
Q 2538 409 2786 701 
Q 3034 994 3034 1497 
Q 3034 2003 2786 2293 
Q 2538 2584 2113 2584 
z
M 3366 4563 
L 3366 3988 
Q 3128 4100 2886 4159 
Q 2644 4219 2406 4219 
Q 1781 4219 1451 3797 
Q 1122 3375 1075 2522 
Q 1259 2794 1537 2939 
Q 1816 3084 2150 3084 
Q 2853 3084 3261 2657 
Q 3669 2231 3669 1497 
Q 3669 778 3244 343 
Q 2819 -91 2113 -91 
Q 1303 -91 875 529 
Q 447 1150 447 2328 
Q 447 3434 972 4092 
Q 1497 4750 2381 4750 
Q 2619 4750 2861 4703 
Q 3103 4656 3366 4563 
z
" transform="scale(0.015625)"/>
       </defs>
       <use xlink:href="#DejaVuSans-36"/>
       <use xlink:href="#DejaVuSans-30" x="63.623047"/>
      </g>
     </g>
    </g>
    <g id="xtick_5">
     <g id="line2d_5">
      <g>
       <use xlink:href="#m2395daa33a" x="518.138993" y="406.08" style="stroke: #000000; stroke-width: 0.8"/>
      </g>
     </g>
     <g id="text_5">
      <!-- 80 -->
      <g transform="translate(511.776493 420.678437) scale(0.1 -0.1)">
       <defs>
        <path id="DejaVuSans-38" d="M 2034 2216 
Q 1584 2216 1326 1975 
Q 1069 1734 1069 1313 
Q 1069 891 1326 650 
Q 1584 409 2034 409 
Q 2484 409 2743 651 
Q 3003 894 3003 1313 
Q 3003 1734 2745 1975 
Q 2488 2216 2034 2216 
z
M 1403 2484 
Q 997 2584 770 2862 
Q 544 3141 544 3541 
Q 544 4100 942 4425 
Q 1341 4750 2034 4750 
Q 2731 4750 3128 4425 
Q 3525 4100 3525 3541 
Q 3525 3141 3298 2862 
Q 3072 2584 2669 2484 
Q 3125 2378 3379 2068 
Q 3634 1759 3634 1313 
Q 3634 634 3220 271 
Q 2806 -91 2034 -91 
Q 1263 -91 848 271 
Q 434 634 434 1313 
Q 434 1759 690 2068 
Q 947 2378 1403 2484 
z
M 1172 3481 
Q 1172 3119 1398 2916 
Q 1625 2713 2034 2713 
Q 2441 2713 2670 2916 
Q 2900 3119 2900 3481 
Q 2900 3844 2670 4047 
Q 2441 4250 2034 4250 
Q 1625 4250 1398 4047 
Q 1172 3844 1172 3481 
z
" transform="scale(0.015625)"/>
       </defs>
       <use xlink:href="#DejaVuSans-38"/>
       <use xlink:href="#DejaVuSans-30" x="63.623047"/>
      </g>
     </g>
    </g>
    <g id="xtick_6">
     <g id="line2d_6">
      <g>
       <use xlink:href="#m2395daa33a" x="601.985725" y="406.08" style="stroke: #000000; stroke-width: 0.8"/>
      </g>
     </g>
     <g id="text_6">
      <!-- 100 -->
      <g transform="translate(592.441975 420.678437) scale(0.1 -0.1)">
       <defs>
        <path id="DejaVuSans-31" d="M 794 531 
L 1825 531 
L 1825 4091 
L 703 3866 
L 703 4441 
L 1819 4666 
L 2450 4666 
L 2450 531 
L 3481 531 
L 3481 0 
L 794 0 
L 794 531 
z
" transform="scale(0.015625)"/>
       </defs>
       <use xlink:href="#DejaVuSans-31"/>
       <use xlink:href="#DejaVuSans-30" x="63.623047"/>
       <use xlink:href="#DejaVuSans-30" x="127.246094"/>
      </g>
     </g>
    </g>
   </g>
   <g id="matplotlib.axis_2">
    <g id="ytick_1">
     <g id="line2d_7">
      <defs>
       <path id="m353992ba54" d="M 0 0 
L -3.5 0 
" style="stroke: #000000; stroke-width: 0.8"/>
      </defs>
      <g>
       <use xlink:href="#m353992ba54" x="162" y="401.343119" style="stroke: #000000; stroke-width: 0.8"/>
      </g>
     </g>
     <g id="text_7">
      <!-- 0.6 -->
      <g transform="translate(139.096875 405.142338) scale(0.1 -0.1)">
       <defs>
        <path id="DejaVuSans-2e" d="M 684 794 
L 1344 794 
L 1344 0 
L 684 0 
L 684 794 
z
" transform="scale(0.015625)"/>
       </defs>
       <use xlink:href="#DejaVuSans-30"/>
       <use xlink:href="#DejaVuSans-2e" x="63.623047"/>
       <use xlink:href="#DejaVuSans-36" x="95.410156"/>
      </g>
     </g>
    </g>
    <g id="ytick_2">
     <g id="line2d_8">
      <g>
       <use xlink:href="#m353992ba54" x="162" y="337.130172" style="stroke: #000000; stroke-width: 0.8"/>
      </g>
     </g>
     <g id="text_8">
      <!-- 0.8 -->
      <g transform="translate(139.096875 340.929391) scale(0.1 -0.1)">
       <use xlink:href="#DejaVuSans-30"/>
       <use xlink:href="#DejaVuSans-2e" x="63.623047"/>
       <use xlink:href="#DejaVuSans-38" x="95.410156"/>
      </g>
     </g>
    </g>
    <g id="ytick_3">
     <g id="line2d_9">
      <g>
       <use xlink:href="#m353992ba54" x="162" y="272.917225" style="stroke: #000000; stroke-width: 0.8"/>
      </g>
     </g>
     <g id="text_9">
      <!-- 1.0 -->
      <g transform="translate(139.096875 276.716444) scale(0.1 -0.1)">
       <use xlink:href="#DejaVuSans-31"/>
       <use xlink:href="#DejaVuSans-2e" x="63.623047"/>
       <use xlink:href="#DejaVuSans-30" x="95.410156"/>
      </g>
     </g>
    </g>
    <g id="ytick_4">
     <g id="line2d_10">
      <g>
       <use xlink:href="#m353992ba54" x="162" y="208.704279" style="stroke: #000000; stroke-width: 0.8"/>
      </g>
     </g>
     <g id="text_10">
      <!-- 1.2 -->
      <g transform="translate(139.096875 212.503497) scale(0.1 -0.1)">
       <use xlink:href="#DejaVuSans-31"/>
       <use xlink:href="#DejaVuSans-2e" x="63.623047"/>
       <use xlink:href="#DejaVuSans-32" x="95.410156"/>
      </g>
     </g>
    </g>
    <g id="ytick_5">
     <g id="line2d_11">
      <g>
       <use xlink:href="#m353992ba54" x="162" y="144.491332" style="stroke: #000000; stroke-width: 0.8"/>
      </g>
     </g>
     <g id="text_11">
      <!-- 1.4 -->
      <g transform="translate(139.096875 148.290551) scale(0.1 -0.1)">
       <use xlink:href="#DejaVuSans-31"/>
       <use xlink:href="#DejaVuSans-2e" x="63.623047"/>
       <use xlink:href="#DejaVuSans-34" x="95.410156"/>
      </g>
     </g>
    </g>
   </g>
   <g id="line2d_12">
    <path d="M 182.752066 235.994548 
L 186.944403 117.425455 
L 191.136739 234.916908 
L 195.329076 378.170007 
L 199.521412 352.603999 
L 203.713749 378.728806 
L 207.906086 379.806924 
L 212.098422 380.415671 
L 216.290759 377.064446 
L 220.483095 381.035363 
L 224.675432 378.947809 
L 228.867769 377.366734 
L 233.060105 341.472208 
L 237.252442 338.151144 
L 241.444778 380.940253 
L 245.637115 382.114496 
L 249.829452 380.812093 
L 254.021788 383.534572 
L 258.214125 379.206962 
L 262.406461 382.986605 
L 266.598798 379.584802 
L 270.791134 382.994413 
L 274.983471 378.791671 
L 279.175808 380.576555 
L 283.368144 381.521365 
L 287.560481 380.719776 
L 291.752817 382.804019 
L 295.945154 376.702471 
L 300.137491 382.2368 
L 304.329827 379.986352 
L 308.522164 381.278326 
L 312.7145 382.999886 
L 316.906837 381.753477 
L 321.099174 382.835844 
L 325.29151 383.30246 
L 329.483847 385.359548 
L 333.676183 383.077716 
L 337.86852 384.66549 
L 342.060856 383.693065 
L 346.253193 381.245277 
L 350.44553 384.87923 
L 354.637866 384.303189 
L 358.830203 381.084335 
L 363.022539 383.444112 
L 367.214876 384.154476 
L 371.407213 382.567391 
L 375.599549 388.425824 
L 379.791886 382.734457 
L 383.984222 388.692765 
L 388.176559 382.777036 
L 392.368896 383.340753 
L 396.561232 389.558616 
L 400.753569 384.195333 
L 404.945905 385.886197 
L 409.138242 384.864188 
L 413.330579 384.9544 
L 417.522915 385.658334 
L 421.715252 389.844082 
L 425.907588 386.410071 
L 430.099925 385.13002 
L 434.292261 384.282808 
L 438.484598 387.957294 
L 442.676935 388.367475 
L 446.869271 384.449165 
L 451.061608 384.549998 
L 455.253944 383.197647 
L 459.446281 387.476248 
L 463.638618 385.967797 
L 467.830954 386.04955 
L 472.023291 387.836444 
L 476.215627 384.79564 
L 480.407964 389.47361 
L 484.600301 385.350037 
L 488.792637 387.534482 
L 492.984974 387.145466 
L 497.17731 387.206723 
L 501.369647 387.996046 
L 505.561983 387.440864 
L 509.75432 385.571184 
L 513.946657 384.228229 
L 518.138993 388.016542 
L 522.33133 384.519513 
L 526.523666 388.895559 
L 530.716003 387.127209 
L 534.90834 386.372027 
L 539.100676 385.974801 
L 543.293013 389.050339 
L 547.485349 385.577327 
L 551.677686 387.27753 
L 555.870023 389.23547 
L 560.062359 388.389004 
L 564.254696 390.166214 
L 568.447032 390.613024 
L 572.639369 390.360186 
L 576.831705 390.450838 
L 581.024042 389.530657 
L 585.216379 392.334545 
L 589.408715 390.634304 
L 593.601052 389.23436 
L 597.793388 391.740783 
" clip-path="url(#p06c9cf6c90)" style="fill: none; stroke: #4169e1; stroke-linecap: square"/>
   </g>
   <g id="line2d_13">
    <path d="M 182.752066 373.629804 
L 186.944403 378.129016 
L 191.136739 343.900936 
L 195.329076 368.830582 
L 199.521412 374.545718 
L 203.713749 385.909831 
L 207.906086 375.310373 
L 212.098422 373.482258 
L 216.290759 388.550941 
L 220.483095 368.18827 
L 224.675432 362.946659 
L 228.867769 378.31474 
L 233.060105 369.557308 
L 237.252442 377.672848 
L 241.444778 378.870974 
L 245.637115 368.537883 
L 249.829452 386.512837 
L 254.021788 379.893041 
L 258.214125 369.390089 
L 262.406461 369.887708 
L 266.598798 361.75636 
L 270.791134 380.605528 
L 274.983471 354.33419 
L 279.175808 375.404297 
L 283.368144 364.543102 
L 287.560481 367.838561 
L 291.752817 381.27934 
L 295.945154 382.225605 
L 300.137491 355.937905 
L 304.329827 375.524879 
L 308.522164 375.163918 
L 312.7145 374.193904 
L 316.906837 365.645218 
L 321.099174 361.683831 
L 325.29151 381.992632 
L 329.483847 389.84657 
L 333.676183 362.601448 
L 337.86852 377.774772 
L 342.060856 371.24867 
L 346.253193 364.910914 
L 350.44553 379.58373 
L 354.637866 363.186063 
L 358.830203 377.267413 
L 363.022539 379.472506 
L 367.214876 363.382331 
L 371.407213 358.748797 
L 375.599549 389.92616 
L 379.791886 374.056788 
L 383.984222 380.577933 
L 388.176559 362.993086 
L 392.368896 372.663216 
L 396.561232 377.169585 
L 400.753569 383.84838 
L 404.945905 368.600996 
L 409.138242 372.219066 
L 413.330579 351.344999 
L 417.522915 372.698868 
L 421.715252 383.434199 
L 425.907588 378.978007 
L 430.099925 371.59237 
L 434.292261 381.144808 
L 438.484598 388.400735 
L 442.676935 372.521717 
L 446.869271 378.796168 
L 451.061608 385.462888 
L 455.253944 379.543734 
L 459.446281 386.956929 
L 463.638618 379.073443 
L 467.830954 383.676702 
L 472.023291 363.981854 
L 476.215627 365.165512 
L 480.407964 384.756294 
L 484.600301 380.47976 
L 488.792637 381.050673 
L 492.984974 365.651285 
L 497.17731 383.29138 
L 501.369647 377.498759 
L 505.561983 376.439969 
L 509.75432 378.855186 
L 513.946657 381.520695 
L 518.138993 380.444414 
L 522.33133 376.974751 
L 526.523666 381.407558 
L 530.716003 384.463652 
L 534.90834 369.635884 
L 539.100676 376.80537 
L 543.293013 383.143719 
L 547.485349 385.650717 
L 551.677686 376.606863 
L 555.870023 391.462398 
L 560.062359 382.587485 
L 564.254696 377.343616 
L 568.447032 380.691568 
L 572.639369 390.235796 
L 576.831705 380.131793 
L 581.024042 380.730244 
L 585.216379 376.735119 
L 589.408715 374.429174 
L 593.601052 377.657022 
L 597.793388 384.770877 
" clip-path="url(#p06c9cf6c90)" style="fill: none; stroke: #ff6347; stroke-linecap: square"/>
   </g>
   <g id="patch_3">
    <path d="M 162 406.08 
L 162 103.68 
" style="fill: none; stroke: #000000; stroke-width: 0.8; stroke-linejoin: miter; stroke-linecap: square"/>
   </g>
   <g id="patch_4">
    <path d="M 618.545455 406.08 
L 618.545455 103.68 
" style="fill: none; stroke: #000000; stroke-width: 0.8; stroke-linejoin: miter; stroke-linecap: square"/>
   </g>
   <g id="patch_5">
    <path d="M 162 406.08 
L 618.545455 406.08 
" style="fill: none; stroke: #000000; stroke-width: 0.8; stroke-linejoin: miter; stroke-linecap: square"/>
   </g>
   <g id="patch_6">
    <path d="M 162 103.68 
L 618.545455 103.68 
" style="fill: none; stroke: #000000; stroke-width: 0.8; stroke-linejoin: miter; stroke-linecap: square"/>
   </g>
   <g id="text_12">
    <!-- MSLE -->
    <g transform="translate(374.152415 97.68) scale(0.12 -0.12)">
     <defs>
      <path id="DejaVuSans-4d" d="M 628 4666 
L 1569 4666 
L 2759 1491 
L 3956 4666 
L 4897 4666 
L 4897 0 
L 4281 0 
L 4281 4097 
L 3078 897 
L 2444 897 
L 1241 4097 
L 1241 0 
L 628 0 
L 628 4666 
z
" transform="scale(0.015625)"/>
      <path id="DejaVuSans-53" d="M 3425 4513 
L 3425 3897 
Q 3066 4069 2747 4153 
Q 2428 4238 2131 4238 
Q 1616 4238 1336 4038 
Q 1056 3838 1056 3469 
Q 1056 3159 1242 3001 
Q 1428 2844 1947 2747 
L 2328 2669 
Q 3034 2534 3370 2195 
Q 3706 1856 3706 1288 
Q 3706 609 3251 259 
Q 2797 -91 1919 -91 
Q 1588 -91 1214 -16 
Q 841 59 441 206 
L 441 856 
Q 825 641 1194 531 
Q 1563 422 1919 422 
Q 2459 422 2753 634 
Q 3047 847 3047 1241 
Q 3047 1584 2836 1778 
Q 2625 1972 2144 2069 
L 1759 2144 
Q 1053 2284 737 2584 
Q 422 2884 422 3419 
Q 422 4038 858 4394 
Q 1294 4750 2059 4750 
Q 2388 4750 2728 4690 
Q 3069 4631 3425 4513 
z
" transform="scale(0.015625)"/>
      <path id="DejaVuSans-4c" d="M 628 4666 
L 1259 4666 
L 1259 531 
L 3531 531 
L 3531 0 
L 628 0 
L 628 4666 
z
" transform="scale(0.015625)"/>
      <path id="DejaVuSans-45" d="M 628 4666 
L 3578 4666 
L 3578 4134 
L 1259 4134 
L 1259 2753 
L 3481 2753 
L 3481 2222 
L 1259 2222 
L 1259 531 
L 3634 531 
L 3634 0 
L 628 0 
L 628 4666 
z
" transform="scale(0.015625)"/>
     </defs>
     <use xlink:href="#DejaVuSans-4d"/>
     <use xlink:href="#DejaVuSans-53" x="86.279297"/>
     <use xlink:href="#DejaVuSans-4c" x="149.755859"/>
     <use xlink:href="#DejaVuSans-45" x="205.46875"/>
    </g>
   </g>
   <g id="legend_1">
    <g id="patch_7">
     <path d="M 530.164205 141.03625 
L 611.545455 141.03625 
Q 613.545455 141.03625 613.545455 139.03625 
L 613.545455 110.68 
Q 613.545455 108.68 611.545455 108.68 
L 530.164205 108.68 
Q 528.164205 108.68 528.164205 110.68 
L 528.164205 139.03625 
Q 528.164205 141.03625 530.164205 141.03625 
z
" style="fill: #ffffff; opacity: 0.8; stroke: #cccccc; stroke-linejoin: miter"/>
    </g>
    <g id="line2d_14">
     <path d="M 532.164205 116.778437 
L 542.164205 116.778437 
L 552.164205 116.778437 
" style="fill: none; stroke: #4169e1; stroke-linecap: square"/>
    </g>
    <g id="text_13">
     <!-- Training -->
     <g transform="translate(560.164205 120.278437) scale(0.1 -0.1)">
      <defs>
       <path id="DejaVuSans-54" d="M -19 4666 
L 3928 4666 
L 3928 4134 
L 2272 4134 
L 2272 0 
L 1638 0 
L 1638 4134 
L -19 4134 
L -19 4666 
z
" transform="scale(0.015625)"/>
       <path id="DejaVuSans-72" d="M 2631 2963 
Q 2534 3019 2420 3045 
Q 2306 3072 2169 3072 
Q 1681 3072 1420 2755 
Q 1159 2438 1159 1844 
L 1159 0 
L 581 0 
L 581 3500 
L 1159 3500 
L 1159 2956 
Q 1341 3275 1631 3429 
Q 1922 3584 2338 3584 
Q 2397 3584 2469 3576 
Q 2541 3569 2628 3553 
L 2631 2963 
z
" transform="scale(0.015625)"/>
       <path id="DejaVuSans-61" d="M 2194 1759 
Q 1497 1759 1228 1600 
Q 959 1441 959 1056 
Q 959 750 1161 570 
Q 1363 391 1709 391 
Q 2188 391 2477 730 
Q 2766 1069 2766 1631 
L 2766 1759 
L 2194 1759 
z
M 3341 1997 
L 3341 0 
L 2766 0 
L 2766 531 
Q 2569 213 2275 61 
Q 1981 -91 1556 -91 
Q 1019 -91 701 211 
Q 384 513 384 1019 
Q 384 1609 779 1909 
Q 1175 2209 1959 2209 
L 2766 2209 
L 2766 2266 
Q 2766 2663 2505 2880 
Q 2244 3097 1772 3097 
Q 1472 3097 1187 3025 
Q 903 2953 641 2809 
L 641 3341 
Q 956 3463 1253 3523 
Q 1550 3584 1831 3584 
Q 2591 3584 2966 3190 
Q 3341 2797 3341 1997 
z
" transform="scale(0.015625)"/>
       <path id="DejaVuSans-69" d="M 603 3500 
L 1178 3500 
L 1178 0 
L 603 0 
L 603 3500 
z
M 603 4863 
L 1178 4863 
L 1178 4134 
L 603 4134 
L 603 4863 
z
" transform="scale(0.015625)"/>
       <path id="DejaVuSans-6e" d="M 3513 2113 
L 3513 0 
L 2938 0 
L 2938 2094 
Q 2938 2591 2744 2837 
Q 2550 3084 2163 3084 
Q 1697 3084 1428 2787 
Q 1159 2491 1159 1978 
L 1159 0 
L 581 0 
L 581 3500 
L 1159 3500 
L 1159 2956 
Q 1366 3272 1645 3428 
Q 1925 3584 2291 3584 
Q 2894 3584 3203 3211 
Q 3513 2838 3513 2113 
z
" transform="scale(0.015625)"/>
       <path id="DejaVuSans-67" d="M 2906 1791 
Q 2906 2416 2648 2759 
Q 2391 3103 1925 3103 
Q 1463 3103 1205 2759 
Q 947 2416 947 1791 
Q 947 1169 1205 825 
Q 1463 481 1925 481 
Q 2391 481 2648 825 
Q 2906 1169 2906 1791 
z
M 3481 434 
Q 3481 -459 3084 -895 
Q 2688 -1331 1869 -1331 
Q 1566 -1331 1297 -1286 
Q 1028 -1241 775 -1147 
L 775 -588 
Q 1028 -725 1275 -790 
Q 1522 -856 1778 -856 
Q 2344 -856 2625 -561 
Q 2906 -266 2906 331 
L 2906 616 
Q 2728 306 2450 153 
Q 2172 0 1784 0 
Q 1141 0 747 490 
Q 353 981 353 1791 
Q 353 2603 747 3093 
Q 1141 3584 1784 3584 
Q 2172 3584 2450 3431 
Q 2728 3278 2906 2969 
L 2906 3500 
L 3481 3500 
L 3481 434 
z
" transform="scale(0.015625)"/>
      </defs>
      <use xlink:href="#DejaVuSans-54"/>
      <use xlink:href="#DejaVuSans-72" x="46.333984"/>
      <use xlink:href="#DejaVuSans-61" x="87.447266"/>
      <use xlink:href="#DejaVuSans-69" x="148.726562"/>
      <use xlink:href="#DejaVuSans-6e" x="176.509766"/>
      <use xlink:href="#DejaVuSans-69" x="239.888672"/>
      <use xlink:href="#DejaVuSans-6e" x="267.671875"/>
      <use xlink:href="#DejaVuSans-67" x="331.050781"/>
     </g>
    </g>
    <g id="line2d_15">
     <path d="M 532.164205 131.456562 
L 542.164205 131.456562 
L 552.164205 131.456562 
" style="fill: none; stroke: #ff6347; stroke-linecap: square"/>
    </g>
    <g id="text_14">
     <!-- Validation -->
     <g transform="translate(560.164205 134.956562) scale(0.1 -0.1)">
      <defs>
       <path id="DejaVuSans-56" d="M 1831 0 
L 50 4666 
L 709 4666 
L 2188 738 
L 3669 4666 
L 4325 4666 
L 2547 0 
L 1831 0 
z
" transform="scale(0.015625)"/>
       <path id="DejaVuSans-6c" d="M 603 4863 
L 1178 4863 
L 1178 0 
L 603 0 
L 603 4863 
z
" transform="scale(0.015625)"/>
       <path id="DejaVuSans-64" d="M 2906 2969 
L 2906 4863 
L 3481 4863 
L 3481 0 
L 2906 0 
L 2906 525 
Q 2725 213 2448 61 
Q 2172 -91 1784 -91 
Q 1150 -91 751 415 
Q 353 922 353 1747 
Q 353 2572 751 3078 
Q 1150 3584 1784 3584 
Q 2172 3584 2448 3432 
Q 2725 3281 2906 2969 
z
M 947 1747 
Q 947 1113 1208 752 
Q 1469 391 1925 391 
Q 2381 391 2643 752 
Q 2906 1113 2906 1747 
Q 2906 2381 2643 2742 
Q 2381 3103 1925 3103 
Q 1469 3103 1208 2742 
Q 947 2381 947 1747 
z
" transform="scale(0.015625)"/>
       <path id="DejaVuSans-74" d="M 1172 4494 
L 1172 3500 
L 2356 3500 
L 2356 3053 
L 1172 3053 
L 1172 1153 
Q 1172 725 1289 603 
Q 1406 481 1766 481 
L 2356 481 
L 2356 0 
L 1766 0 
Q 1100 0 847 248 
Q 594 497 594 1153 
L 594 3053 
L 172 3053 
L 172 3500 
L 594 3500 
L 594 4494 
L 1172 4494 
z
" transform="scale(0.015625)"/>
       <path id="DejaVuSans-6f" d="M 1959 3097 
Q 1497 3097 1228 2736 
Q 959 2375 959 1747 
Q 959 1119 1226 758 
Q 1494 397 1959 397 
Q 2419 397 2687 759 
Q 2956 1122 2956 1747 
Q 2956 2369 2687 2733 
Q 2419 3097 1959 3097 
z
M 1959 3584 
Q 2709 3584 3137 3096 
Q 3566 2609 3566 1747 
Q 3566 888 3137 398 
Q 2709 -91 1959 -91 
Q 1206 -91 779 398 
Q 353 888 353 1747 
Q 353 2609 779 3096 
Q 1206 3584 1959 3584 
z
" transform="scale(0.015625)"/>
      </defs>
      <use xlink:href="#DejaVuSans-56"/>
      <use xlink:href="#DejaVuSans-61" x="60.658203"/>
      <use xlink:href="#DejaVuSans-6c" x="121.9375"/>
      <use xlink:href="#DejaVuSans-69" x="149.720703"/>
      <use xlink:href="#DejaVuSans-64" x="177.503906"/>
      <use xlink:href="#DejaVuSans-61" x="240.980469"/>
      <use xlink:href="#DejaVuSans-74" x="302.259766"/>
      <use xlink:href="#DejaVuSans-69" x="341.46875"/>
      <use xlink:href="#DejaVuSans-6f" x="369.251953"/>
      <use xlink:href="#DejaVuSans-6e" x="430.433594"/>
     </g>
    </g>
   </g>
  </g>
  <g id="axes_2">
   <g id="patch_8">
    <path d="M 709.854545 406.08 
L 1166.4 406.08 
L 1166.4 103.68 
L 709.854545 103.68 
z
" style="fill: #ffffff"/>
   </g>
   <g id="matplotlib.axis_3">
    <g id="xtick_7">
     <g id="line2d_16">
      <g>
       <use xlink:href="#m2395daa33a" x="730.606612" y="406.08" style="stroke: #000000; stroke-width: 0.8"/>
      </g>
     </g>
     <g id="text_15">
      <!-- 0 -->
      <g transform="translate(727.425362 420.678437) scale(0.1 -0.1)">
       <use xlink:href="#DejaVuSans-30"/>
      </g>
     </g>
    </g>
    <g id="xtick_8">
     <g id="line2d_17">
      <g>
       <use xlink:href="#m2395daa33a" x="814.453343" y="406.08" style="stroke: #000000; stroke-width: 0.8"/>
      </g>
     </g>
     <g id="text_16">
      <!-- 20 -->
      <g transform="translate(808.090843 420.678437) scale(0.1 -0.1)">
       <use xlink:href="#DejaVuSans-32"/>
       <use xlink:href="#DejaVuSans-30" x="63.623047"/>
      </g>
     </g>
    </g>
    <g id="xtick_9">
     <g id="line2d_18">
      <g>
       <use xlink:href="#m2395daa33a" x="898.300075" y="406.08" style="stroke: #000000; stroke-width: 0.8"/>
      </g>
     </g>
     <g id="text_17">
      <!-- 40 -->
      <g transform="translate(891.937575 420.678437) scale(0.1 -0.1)">
       <use xlink:href="#DejaVuSans-34"/>
       <use xlink:href="#DejaVuSans-30" x="63.623047"/>
      </g>
     </g>
    </g>
    <g id="xtick_10">
     <g id="line2d_19">
      <g>
       <use xlink:href="#m2395daa33a" x="982.146807" y="406.08" style="stroke: #000000; stroke-width: 0.8"/>
      </g>
     </g>
     <g id="text_18">
      <!-- 60 -->
      <g transform="translate(975.784307 420.678437) scale(0.1 -0.1)">
       <use xlink:href="#DejaVuSans-36"/>
       <use xlink:href="#DejaVuSans-30" x="63.623047"/>
      </g>
     </g>
    </g>
    <g id="xtick_11">
     <g id="line2d_20">
      <g>
       <use xlink:href="#m2395daa33a" x="1065.993539" y="406.08" style="stroke: #000000; stroke-width: 0.8"/>
      </g>
     </g>
     <g id="text_19">
      <!-- 80 -->
      <g transform="translate(1059.631039 420.678437) scale(0.1 -0.1)">
       <use xlink:href="#DejaVuSans-38"/>
       <use xlink:href="#DejaVuSans-30" x="63.623047"/>
      </g>
     </g>
    </g>
    <g id="xtick_12">
     <g id="line2d_21">
      <g>
       <use xlink:href="#m2395daa33a" x="1149.84027" y="406.08" style="stroke: #000000; stroke-width: 0.8"/>
      </g>
     </g>
     <g id="text_20">
      <!-- 100 -->
      <g transform="translate(1140.29652 420.678437) scale(0.1 -0.1)">
       <use xlink:href="#DejaVuSans-31"/>
       <use xlink:href="#DejaVuSans-30" x="63.623047"/>
       <use xlink:href="#DejaVuSans-30" x="127.246094"/>
      </g>
     </g>
    </g>
   </g>
   <g id="matplotlib.axis_4">
    <g id="ytick_6">
     <g id="line2d_22">
      <g>
       <use xlink:href="#m353992ba54" x="709.854545" y="403.574036" style="stroke: #000000; stroke-width: 0.8"/>
      </g>
     </g>
     <g id="text_21">
      <!-- 200 -->
      <g transform="translate(683.767045 407.373255) scale(0.1 -0.1)">
       <use xlink:href="#DejaVuSans-32"/>
       <use xlink:href="#DejaVuSans-30" x="63.623047"/>
       <use xlink:href="#DejaVuSans-30" x="127.246094"/>
      </g>
     </g>
    </g>
    <g id="ytick_7">
     <g id="line2d_23">
      <g>
       <use xlink:href="#m353992ba54" x="709.854545" y="354.424571" style="stroke: #000000; stroke-width: 0.8"/>
      </g>
     </g>
     <g id="text_22">
      <!-- 250 -->
      <g transform="translate(683.767045 358.22379) scale(0.1 -0.1)">
       <defs>
        <path id="DejaVuSans-35" d="M 691 4666 
L 3169 4666 
L 3169 4134 
L 1269 4134 
L 1269 2991 
Q 1406 3038 1543 3061 
Q 1681 3084 1819 3084 
Q 2600 3084 3056 2656 
Q 3513 2228 3513 1497 
Q 3513 744 3044 326 
Q 2575 -91 1722 -91 
Q 1428 -91 1123 -41 
Q 819 9 494 109 
L 494 744 
Q 775 591 1075 516 
Q 1375 441 1709 441 
Q 2250 441 2565 725 
Q 2881 1009 2881 1497 
Q 2881 1984 2565 2268 
Q 2250 2553 1709 2553 
Q 1456 2553 1204 2497 
Q 953 2441 691 2322 
L 691 4666 
z
" transform="scale(0.015625)"/>
       </defs>
       <use xlink:href="#DejaVuSans-32"/>
       <use xlink:href="#DejaVuSans-35" x="63.623047"/>
       <use xlink:href="#DejaVuSans-30" x="127.246094"/>
      </g>
     </g>
    </g>
    <g id="ytick_8">
     <g id="line2d_24">
      <g>
       <use xlink:href="#m353992ba54" x="709.854545" y="305.275106" style="stroke: #000000; stroke-width: 0.8"/>
      </g>
     </g>
     <g id="text_23">
      <!-- 300 -->
      <g transform="translate(683.767045 309.074325) scale(0.1 -0.1)">
       <defs>
        <path id="DejaVuSans-33" d="M 2597 2516 
Q 3050 2419 3304 2112 
Q 3559 1806 3559 1356 
Q 3559 666 3084 287 
Q 2609 -91 1734 -91 
Q 1441 -91 1130 -33 
Q 819 25 488 141 
L 488 750 
Q 750 597 1062 519 
Q 1375 441 1716 441 
Q 2309 441 2620 675 
Q 2931 909 2931 1356 
Q 2931 1769 2642 2001 
Q 2353 2234 1838 2234 
L 1294 2234 
L 1294 2753 
L 1863 2753 
Q 2328 2753 2575 2939 
Q 2822 3125 2822 3475 
Q 2822 3834 2567 4026 
Q 2313 4219 1838 4219 
Q 1578 4219 1281 4162 
Q 984 4106 628 3988 
L 628 4550 
Q 988 4650 1302 4700 
Q 1616 4750 1894 4750 
Q 2613 4750 3031 4423 
Q 3450 4097 3450 3541 
Q 3450 3153 3228 2886 
Q 3006 2619 2597 2516 
z
" transform="scale(0.015625)"/>
       </defs>
       <use xlink:href="#DejaVuSans-33"/>
       <use xlink:href="#DejaVuSans-30" x="63.623047"/>
       <use xlink:href="#DejaVuSans-30" x="127.246094"/>
      </g>
     </g>
    </g>
    <g id="ytick_9">
     <g id="line2d_25">
      <g>
       <use xlink:href="#m353992ba54" x="709.854545" y="256.125641" style="stroke: #000000; stroke-width: 0.8"/>
      </g>
     </g>
     <g id="text_24">
      <!-- 350 -->
      <g transform="translate(683.767045 259.92486) scale(0.1 -0.1)">
       <use xlink:href="#DejaVuSans-33"/>
       <use xlink:href="#DejaVuSans-35" x="63.623047"/>
       <use xlink:href="#DejaVuSans-30" x="127.246094"/>
      </g>
     </g>
    </g>
    <g id="ytick_10">
     <g id="line2d_26">
      <g>
       <use xlink:href="#m353992ba54" x="709.854545" y="206.976176" style="stroke: #000000; stroke-width: 0.8"/>
      </g>
     </g>
     <g id="text_25">
      <!-- 400 -->
      <g transform="translate(683.767045 210.775395) scale(0.1 -0.1)">
       <use xlink:href="#DejaVuSans-34"/>
       <use xlink:href="#DejaVuSans-30" x="63.623047"/>
       <use xlink:href="#DejaVuSans-30" x="127.246094"/>
      </g>
     </g>
    </g>
    <g id="ytick_11">
     <g id="line2d_27">
      <g>
       <use xlink:href="#m353992ba54" x="709.854545" y="157.826711" style="stroke: #000000; stroke-width: 0.8"/>
      </g>
     </g>
     <g id="text_26">
      <!-- 450 -->
      <g transform="translate(683.767045 161.62593) scale(0.1 -0.1)">
       <use xlink:href="#DejaVuSans-34"/>
       <use xlink:href="#DejaVuSans-35" x="63.623047"/>
       <use xlink:href="#DejaVuSans-30" x="127.246094"/>
      </g>
     </g>
    </g>
    <g id="ytick_12">
     <g id="line2d_28">
      <g>
       <use xlink:href="#m353992ba54" x="709.854545" y="108.677246" style="stroke: #000000; stroke-width: 0.8"/>
      </g>
     </g>
     <g id="text_27">
      <!-- 500 -->
      <g transform="translate(683.767045 112.476465) scale(0.1 -0.1)">
       <use xlink:href="#DejaVuSans-35"/>
       <use xlink:href="#DejaVuSans-30" x="63.623047"/>
       <use xlink:href="#DejaVuSans-30" x="127.246094"/>
      </g>
     </g>
    </g>
   </g>
   <g id="line2d_29">
    <path d="M 730.606612 205.600927 
L 734.798948 117.425455 
L 738.991285 204.586499 
L 743.183621 364.340574 
L 747.375958 305.38973 
L 751.568295 369.185159 
L 755.760631 368.906804 
L 759.952968 366.628766 
L 764.145304 362.239213 
L 768.337641 366.847485 
L 772.529977 367.802696 
L 776.722314 363.16684 
L 780.914651 321.935586 
L 785.106987 319.771288 
L 789.299324 365.572476 
L 793.49166 368.719718 
L 797.683997 372.526417 
L 801.876334 373.619891 
L 806.06867 368.187621 
L 810.261007 371.283911 
L 814.453343 361.191202 
L 818.64568 374.79031 
L 822.838017 361.89546 
L 827.030353 369.742426 
L 831.22269 372.235972 
L 835.415026 368.363937 
L 839.607363 372.814297 
L 843.799699 362.304474 
L 847.992036 371.049413 
L 852.184373 370.010687 
L 856.376709 370.649099 
L 860.569046 374.709749 
L 864.761382 371.875121 
L 868.953719 371.650867 
L 873.146056 374.695245 
L 877.338392 375.739566 
L 881.530729 372.551826 
L 885.723065 375.240092 
L 889.915402 374.743618 
L 894.107739 367.767073 
L 898.300075 369.351201 
L 902.492412 372.76306 
L 906.684748 365.854446 
L 910.877085 373.310772 
L 915.069421 371.069392 
L 919.261758 372.362056 
L 923.454095 380.542724 
L 927.646431 373.072839 
L 931.838768 377.12818 
L 936.031104 371.967231 
L 940.223441 369.659015 
L 944.415778 381.690209 
L 948.608114 373.91686 
L 952.800451 374.047039 
L 956.992787 375.465696 
L 961.185124 372.691259 
L 965.377461 374.907019 
L 969.569797 382.65652 
L 973.762134 374.532384 
L 977.95447 376.681443 
L 982.146807 374.110425 
L 986.339144 379.324441 
L 990.53148 378.67382 
L 994.723817 371.884585 
L 998.916153 374.035774 
L 1003.10849 375.071996 
L 1007.300826 380.156554 
L 1011.493163 375.587189 
L 1015.6855 379.63692 
L 1019.877836 378.070266 
L 1024.070173 374.831108 
L 1028.262509 382.889398 
L 1032.454846 375.169086 
L 1036.647183 380.42705 
L 1040.839519 378.065286 
L 1045.031856 377.7088 
L 1049.224192 380.506216 
L 1053.416529 378.748486 
L 1057.608866 376.077574 
L 1061.801202 371.665657 
L 1065.993539 379.184214 
L 1070.185875 372.07371 
L 1074.378212 382.775568 
L 1078.570548 378.233383 
L 1082.762885 375.856665 
L 1086.955222 375.28377 
L 1091.147558 380.047509 
L 1095.339895 377.954877 
L 1099.532231 377.753183 
L 1103.724568 383.833149 
L 1107.916905 381.736167 
L 1112.109241 382.620806 
L 1116.301578 385.477409 
L 1120.493914 384.943422 
L 1124.686251 384.441263 
L 1128.878588 383.352094 
L 1133.070924 388.734536 
L 1137.263261 384.68245 
L 1141.455597 381.413579 
L 1145.647934 384.894194 
" clip-path="url(#pf853f9a1f9)" style="fill: none; stroke: #4169e1; stroke-linecap: square"/>
   </g>
   <g id="line2d_30">
    <path d="M 730.606612 370.786372 
L 734.798948 368.174557 
L 738.991285 372.540501 
L 743.183621 376.101453 
L 747.375958 375.394569 
L 751.568295 364.544864 
L 755.760631 378.264371 
L 759.952968 378.313404 
L 764.145304 354.05139 
L 768.337641 382.861679 
L 772.529977 379.800817 
L 776.722314 374.046559 
L 780.914651 374.583036 
L 785.106987 359.57898 
L 789.299324 376.459874 
L 793.49166 381.435013 
L 797.683997 376.043856 
L 801.876334 381.599314 
L 806.06867 381.466721 
L 810.261007 379.394848 
L 814.453343 377.878411 
L 818.64568 377.728344 
L 822.838017 376.922855 
L 827.030353 380.812875 
L 831.22269 373.340125 
L 835.415026 379.787693 
L 839.607363 379.596692 
L 843.799699 369.146686 
L 847.992036 377.203281 
L 852.184373 377.332949 
L 856.376709 378.948291 
L 860.569046 379.136801 
L 864.761382 382.534531 
L 868.953719 381.387795 
L 873.146056 382.620476 
L 877.338392 378.725147 
L 881.530729 382.188304 
L 885.723065 378.755461 
L 889.915402 385.877169 
L 894.107739 381.311734 
L 898.300075 387.276926 
L 902.492412 382.93873 
L 906.684748 380.623629 
L 910.877085 382.372839 
L 915.069421 384.655227 
L 919.261758 377.728014 
L 923.454095 379.029482 
L 927.646431 384.152227 
L 931.838768 381.240488 
L 936.031104 380.843233 
L 940.223441 383.343889 
L 944.415778 389.614706 
L 948.608114 376.489108 
L 952.800451 383.824314 
L 956.992787 380.944988 
L 961.185124 380.826674 
L 965.377461 381.838567 
L 969.569797 383.098037 
L 973.762134 383.670512 
L 977.95447 379.872813 
L 982.146807 385.671454 
L 986.339144 379.806067 
L 990.53148 382.65433 
L 994.723817 384.741562 
L 998.916153 376.458779 
L 1003.10849 378.769065 
L 1007.300826 379.036576 
L 1011.493163 379.663664 
L 1015.6855 379.625011 
L 1019.877836 385.27024 
L 1024.070173 380.825309 
L 1028.262509 387.804659 
L 1032.454846 383.137005 
L 1036.647183 379.078349 
L 1040.839519 386.937284 
L 1045.031856 385.675054 
L 1049.224192 386.63238 
L 1053.416529 386.202217 
L 1057.608866 382.135866 
L 1061.801202 386.069999 
L 1065.993539 374.648853 
L 1070.185875 384.967135 
L 1074.378212 380.831789 
L 1078.570548 380.840023 
L 1082.762885 383.876002 
L 1086.955222 383.538714 
L 1091.147558 376.870583 
L 1095.339895 384.526893 
L 1099.532231 384.942792 
L 1103.724568 381.313069 
L 1107.916905 390.613099 
L 1112.109241 390.074282 
L 1116.301578 382.390373 
L 1120.493914 379.547075 
L 1124.686251 388.479879 
L 1128.878588 386.967987 
L 1133.070924 392.334545 
L 1137.263261 390.363347 
L 1141.455597 388.584874 
L 1145.647934 390.385006 
" clip-path="url(#pf853f9a1f9)" style="fill: none; stroke: #ff6347; stroke-linecap: square"/>
   </g>
   <g id="patch_9">
    <path d="M 709.854545 406.08 
L 709.854545 103.68 
" style="fill: none; stroke: #000000; stroke-width: 0.8; stroke-linejoin: miter; stroke-linecap: square"/>
   </g>
   <g id="patch_10">
    <path d="M 1166.4 406.08 
L 1166.4 103.68 
" style="fill: none; stroke: #000000; stroke-width: 0.8; stroke-linejoin: miter; stroke-linecap: square"/>
   </g>
   <g id="patch_11">
    <path d="M 709.854545 406.08 
L 1166.4 406.08 
" style="fill: none; stroke: #000000; stroke-width: 0.8; stroke-linejoin: miter; stroke-linecap: square"/>
   </g>
   <g id="patch_12">
    <path d="M 709.854545 103.68 
L 1166.4 103.68 
" style="fill: none; stroke: #000000; stroke-width: 0.8; stroke-linejoin: miter; stroke-linecap: square"/>
   </g>
   <g id="text_28">
    <!-- LOSS -->
    <g transform="translate(922.660398 97.68) scale(0.12 -0.12)">
     <defs>
      <path id="DejaVuSans-4f" d="M 2522 4238 
Q 1834 4238 1429 3725 
Q 1025 3213 1025 2328 
Q 1025 1447 1429 934 
Q 1834 422 2522 422 
Q 3209 422 3611 934 
Q 4013 1447 4013 2328 
Q 4013 3213 3611 3725 
Q 3209 4238 2522 4238 
z
M 2522 4750 
Q 3503 4750 4090 4092 
Q 4678 3434 4678 2328 
Q 4678 1225 4090 567 
Q 3503 -91 2522 -91 
Q 1538 -91 948 565 
Q 359 1222 359 2328 
Q 359 3434 948 4092 
Q 1538 4750 2522 4750 
z
" transform="scale(0.015625)"/>
     </defs>
     <use xlink:href="#DejaVuSans-4c"/>
     <use xlink:href="#DejaVuSans-4f" x="52.087891"/>
     <use xlink:href="#DejaVuSans-53" x="130.798828"/>
     <use xlink:href="#DejaVuSans-53" x="194.275391"/>
    </g>
   </g>
   <g id="legend_2">
    <g id="patch_13">
     <path d="M 1078.01875 141.03625 
L 1159.4 141.03625 
Q 1161.4 141.03625 1161.4 139.03625 
L 1161.4 110.68 
Q 1161.4 108.68 1159.4 108.68 
L 1078.01875 108.68 
Q 1076.01875 108.68 1076.01875 110.68 
L 1076.01875 139.03625 
Q 1076.01875 141.03625 1078.01875 141.03625 
z
" style="fill: #ffffff; opacity: 0.8; stroke: #cccccc; stroke-linejoin: miter"/>
    </g>
    <g id="line2d_31">
     <path d="M 1080.01875 116.778437 
L 1090.01875 116.778437 
L 1100.01875 116.778437 
" style="fill: none; stroke: #4169e1; stroke-linecap: square"/>
    </g>
    <g id="text_29">
     <!-- Training -->
     <g transform="translate(1108.01875 120.278437) scale(0.1 -0.1)">
      <use xlink:href="#DejaVuSans-54"/>
      <use xlink:href="#DejaVuSans-72" x="46.333984"/>
      <use xlink:href="#DejaVuSans-61" x="87.447266"/>
      <use xlink:href="#DejaVuSans-69" x="148.726562"/>
      <use xlink:href="#DejaVuSans-6e" x="176.509766"/>
      <use xlink:href="#DejaVuSans-69" x="239.888672"/>
      <use xlink:href="#DejaVuSans-6e" x="267.671875"/>
      <use xlink:href="#DejaVuSans-67" x="331.050781"/>
     </g>
    </g>
    <g id="line2d_32">
     <path d="M 1080.01875 131.456562 
L 1090.01875 131.456562 
L 1100.01875 131.456562 
" style="fill: none; stroke: #ff6347; stroke-linecap: square"/>
    </g>
    <g id="text_30">
     <!-- Validation -->
     <g transform="translate(1108.01875 134.956562) scale(0.1 -0.1)">
      <use xlink:href="#DejaVuSans-56"/>
      <use xlink:href="#DejaVuSans-61" x="60.658203"/>
      <use xlink:href="#DejaVuSans-6c" x="121.9375"/>
      <use xlink:href="#DejaVuSans-69" x="149.720703"/>
      <use xlink:href="#DejaVuSans-64" x="177.503906"/>
      <use xlink:href="#DejaVuSans-61" x="240.980469"/>
      <use xlink:href="#DejaVuSans-74" x="302.259766"/>
      <use xlink:href="#DejaVuSans-69" x="341.46875"/>
      <use xlink:href="#DejaVuSans-6f" x="369.251953"/>
      <use xlink:href="#DejaVuSans-6e" x="430.433594"/>
     </g>
    </g>
   </g>
  </g>
  <g id="axes_3">
   <g id="patch_14">
    <path d="M 162 768.96 
L 618.545455 768.96 
L 618.545455 466.56 
L 162 466.56 
z
" style="fill: #ffffff"/>
   </g>
   <g id="matplotlib.axis_5">
    <g id="xtick_13">
     <g id="line2d_33">
      <g>
       <use xlink:href="#m2395daa33a" x="182.752066" y="768.96" style="stroke: #000000; stroke-width: 0.8"/>
      </g>
     </g>
     <g id="text_31">
      <!-- 0 -->
      <g transform="translate(179.570816 783.558437) scale(0.1 -0.1)">
       <use xlink:href="#DejaVuSans-30"/>
      </g>
     </g>
    </g>
    <g id="xtick_14">
     <g id="line2d_34">
      <g>
       <use xlink:href="#m2395daa33a" x="266.598798" y="768.96" style="stroke: #000000; stroke-width: 0.8"/>
      </g>
     </g>
     <g id="text_32">
      <!-- 20 -->
      <g transform="translate(260.236298 783.558437) scale(0.1 -0.1)">
       <use xlink:href="#DejaVuSans-32"/>
       <use xlink:href="#DejaVuSans-30" x="63.623047"/>
      </g>
     </g>
    </g>
    <g id="xtick_15">
     <g id="line2d_35">
      <g>
       <use xlink:href="#m2395daa33a" x="350.44553" y="768.96" style="stroke: #000000; stroke-width: 0.8"/>
      </g>
     </g>
     <g id="text_33">
      <!-- 40 -->
      <g transform="translate(344.08303 783.558437) scale(0.1 -0.1)">
       <use xlink:href="#DejaVuSans-34"/>
       <use xlink:href="#DejaVuSans-30" x="63.623047"/>
      </g>
     </g>
    </g>
    <g id="xtick_16">
     <g id="line2d_36">
      <g>
       <use xlink:href="#m2395daa33a" x="434.292261" y="768.96" style="stroke: #000000; stroke-width: 0.8"/>
      </g>
     </g>
     <g id="text_34">
      <!-- 60 -->
      <g transform="translate(427.929761 783.558437) scale(0.1 -0.1)">
       <use xlink:href="#DejaVuSans-36"/>
       <use xlink:href="#DejaVuSans-30" x="63.623047"/>
      </g>
     </g>
    </g>
    <g id="xtick_17">
     <g id="line2d_37">
      <g>
       <use xlink:href="#m2395daa33a" x="518.138993" y="768.96" style="stroke: #000000; stroke-width: 0.8"/>
      </g>
     </g>
     <g id="text_35">
      <!-- 80 -->
      <g transform="translate(511.776493 783.558437) scale(0.1 -0.1)">
       <use xlink:href="#DejaVuSans-38"/>
       <use xlink:href="#DejaVuSans-30" x="63.623047"/>
      </g>
     </g>
    </g>
    <g id="xtick_18">
     <g id="line2d_38">
      <g>
       <use xlink:href="#m2395daa33a" x="601.985725" y="768.96" style="stroke: #000000; stroke-width: 0.8"/>
      </g>
     </g>
     <g id="text_36">
      <!-- 100 -->
      <g transform="translate(592.441975 783.558437) scale(0.1 -0.1)">
       <use xlink:href="#DejaVuSans-31"/>
       <use xlink:href="#DejaVuSans-30" x="63.623047"/>
       <use xlink:href="#DejaVuSans-30" x="127.246094"/>
      </g>
     </g>
    </g>
   </g>
   <g id="matplotlib.axis_6">
    <g id="ytick_13">
     <g id="line2d_39">
      <g>
       <use xlink:href="#m353992ba54" x="162" y="730.753339" style="stroke: #000000; stroke-width: 0.8"/>
      </g>
     </g>
     <g id="text_37">
      <!-- 12 -->
      <g transform="translate(142.275 734.552558) scale(0.1 -0.1)">
       <use xlink:href="#DejaVuSans-31"/>
       <use xlink:href="#DejaVuSans-32" x="63.623047"/>
      </g>
     </g>
    </g>
    <g id="ytick_14">
     <g id="line2d_40">
      <g>
       <use xlink:href="#m353992ba54" x="162" y="682.988852" style="stroke: #000000; stroke-width: 0.8"/>
      </g>
     </g>
     <g id="text_38">
      <!-- 13 -->
      <g transform="translate(142.275 686.78807) scale(0.1 -0.1)">
       <use xlink:href="#DejaVuSans-31"/>
       <use xlink:href="#DejaVuSans-33" x="63.623047"/>
      </g>
     </g>
    </g>
    <g id="ytick_15">
     <g id="line2d_41">
      <g>
       <use xlink:href="#m353992ba54" x="162" y="635.224364" style="stroke: #000000; stroke-width: 0.8"/>
      </g>
     </g>
     <g id="text_39">
      <!-- 14 -->
      <g transform="translate(142.275 639.023583) scale(0.1 -0.1)">
       <use xlink:href="#DejaVuSans-31"/>
       <use xlink:href="#DejaVuSans-34" x="63.623047"/>
      </g>
     </g>
    </g>
    <g id="ytick_16">
     <g id="line2d_42">
      <g>
       <use xlink:href="#m353992ba54" x="162" y="587.459877" style="stroke: #000000; stroke-width: 0.8"/>
      </g>
     </g>
     <g id="text_40">
      <!-- 15 -->
      <g transform="translate(142.275 591.259096) scale(0.1 -0.1)">
       <use xlink:href="#DejaVuSans-31"/>
       <use xlink:href="#DejaVuSans-35" x="63.623047"/>
      </g>
     </g>
    </g>
    <g id="ytick_17">
     <g id="line2d_43">
      <g>
       <use xlink:href="#m353992ba54" x="162" y="539.69539" style="stroke: #000000; stroke-width: 0.8"/>
      </g>
     </g>
     <g id="text_41">
      <!-- 16 -->
      <g transform="translate(142.275 543.494609) scale(0.1 -0.1)">
       <use xlink:href="#DejaVuSans-31"/>
       <use xlink:href="#DejaVuSans-36" x="63.623047"/>
      </g>
     </g>
    </g>
    <g id="ytick_18">
     <g id="line2d_44">
      <g>
       <use xlink:href="#m353992ba54" x="162" y="491.930903" style="stroke: #000000; stroke-width: 0.8"/>
      </g>
     </g>
     <g id="text_42">
      <!-- 17 -->
      <g transform="translate(142.275 495.730121) scale(0.1 -0.1)">
       <defs>
        <path id="DejaVuSans-37" d="M 525 4666 
L 3525 4666 
L 3525 4397 
L 1831 0 
L 1172 0 
L 2766 4134 
L 525 4134 
L 525 4666 
z
" transform="scale(0.015625)"/>
       </defs>
       <use xlink:href="#DejaVuSans-31"/>
       <use xlink:href="#DejaVuSans-37" x="63.623047"/>
      </g>
     </g>
    </g>
   </g>
   <g id="line2d_45">
    <path d="M 182.752066 553.91492 
L 186.944403 480.305455 
L 191.136739 555.81748 
L 195.329076 712.992615 
L 199.521412 637.440002 
L 203.713749 718.245872 
L 207.906086 719.430537 
L 212.098422 717.200915 
L 216.290759 708.847404 
L 220.483095 717.339984 
L 224.675432 718.156636 
L 228.867769 711.277682 
L 233.060105 661.106786 
L 237.252442 659.327261 
L 241.444778 715.089545 
L 245.637115 718.836223 
L 249.829452 723.427294 
L 254.021788 727.052121 
L 258.214125 718.118054 
L 262.406461 721.788114 
L 266.598798 709.196695 
L 270.791134 727.548544 
L 274.983471 709.556235 
L 279.175808 718.552663 
L 283.368144 724.303573 
L 287.560481 716.955254 
L 291.752817 724.76647 
L 295.945154 710.191181 
L 300.137491 722.181954 
L 304.329827 720.185557 
L 308.522164 720.200498 
L 312.7145 725.946079 
L 316.906837 723.700741 
L 321.099174 720.927687 
L 325.29151 726.066062 
L 329.483847 728.454478 
L 333.676183 724.410438 
L 337.86852 728.170372 
L 342.060856 726.061052 
L 346.253193 718.898219 
L 350.44553 721.502595 
L 354.637866 723.672499 
L 358.830203 715.934667 
L 363.022539 725.529781 
L 367.214876 723.187145 
L 371.407213 723.598113 
L 375.599549 735.870806 
L 379.791886 724.991451 
L 383.984222 730.070791 
L 388.176559 722.825738 
L 392.368896 719.686355 
L 396.561232 736.721212 
L 400.753569 726.584624 
L 404.945905 726.334909 
L 409.138242 727.654726 
L 413.330579 724.028122 
L 417.522915 728.0472 
L 421.715252 737.070913 
L 425.907588 725.813478 
L 430.099925 730.329616 
L 434.292261 725.51935 
L 438.484598 733.917547 
L 442.676935 732.066414 
L 446.869271 721.443743 
L 451.061608 724.750664 
L 455.253944 727.164315 
L 459.446281 733.557642 
L 463.638618 728.387927 
L 467.830954 733.891446 
L 472.023291 730.790054 
L 476.215627 726.756308 
L 480.407964 737.91772 
L 484.600301 726.877066 
L 488.792637 736.241734 
L 492.984974 732.037671 
L 497.17731 731.087188 
L 501.369647 734.739665 
L 505.561983 731.713342 
L 509.75432 729.800214 
L 513.946657 724.059644 
L 518.138993 733.990111 
L 522.33133 723.486329 
L 526.523666 737.248611 
L 530.716003 730.359681 
L 534.90834 728.603933 
L 539.100676 727.945847 
L 543.293013 734.871264 
L 547.485349 730.906985 
L 551.677686 730.119532 
L 555.870023 739.277577 
L 560.062359 737.03848 
L 564.254696 737.506388 
L 568.447032 741.450533 
L 572.639369 742.110259 
L 576.831705 740.191847 
L 581.024042 738.625823 
L 585.216379 746.662019 
L 589.408715 739.377427 
L 593.601052 735.767723 
L 597.793388 741.695784 
" clip-path="url(#pcda708bc1a)" style="fill: none; stroke: #4169e1; stroke-linecap: square"/>
   </g>
   <g id="line2d_46">
    <path d="M 182.752066 701.109161 
L 186.944403 696.530571 
L 191.136739 697.870385 
L 195.329076 703.928451 
L 199.521412 705.811835 
L 203.713749 697.73004 
L 207.906086 722.730625 
L 212.098422 715.716884 
L 216.290759 685.642971 
L 220.483095 723.481774 
L 224.675432 716.53882 
L 228.867769 707.778714 
L 233.060105 703.535932 
L 237.252442 689.768321 
L 241.444778 715.837322 
L 245.637115 718.137277 
L 249.829452 720.360932 
L 254.021788 720.287092 
L 258.214125 723.888506 
L 262.406461 723.481911 
L 266.598798 723.527052 
L 270.791134 715.909066 
L 274.983471 712.41265 
L 279.175808 721.416685 
L 283.368144 734.202974 
L 287.560481 733.992434 
L 291.752817 724.806419 
L 295.945154 708.58038 
L 300.137491 719.808115 
L 304.329827 718.252887 
L 308.522164 713.421621 
L 312.7145 712.203704 
L 316.906837 723.690766 
L 321.099174 725.04297 
L 325.29151 730.342872 
L 329.483847 719.597028 
L 333.676183 716.334975 
L 337.86852 710.172687 
L 342.060856 728.07567 
L 346.253193 712.322412 
L 350.44553 737.321266 
L 354.637866 734.139475 
L 358.830203 717.432409 
L 363.022539 719.739378 
L 367.214876 724.025753 
L 371.407213 707.620331 
L 375.599549 722.291233 
L 379.791886 731.131874 
L 383.984222 715.737837 
L 388.176559 723.530241 
L 392.368896 743.190292 
L 396.561232 729.706423 
L 400.753569 713.077432 
L 404.945905 727.666432 
L 409.138242 735.903695 
L 413.330579 712.628975 
L 417.522915 742.250012 
L 421.715252 733.286837 
L 425.907588 720.83016 
L 430.099925 710.854552 
L 434.292261 732.770189 
L 438.484598 719.813718 
L 442.676935 718.009914 
L 446.869271 733.140388 
L 451.061608 709.756663 
L 455.253944 709.816655 
L 459.446281 722.888781 
L 463.638618 716.802109 
L 467.830954 721.90623 
L 472.023291 733.227756 
L 476.215627 719.259672 
L 480.407964 744.713315 
L 484.600301 724.387753 
L 488.792637 720.49458 
L 492.984974 731.077895 
L 497.17731 736.218047 
L 501.369647 727.999871 
L 505.561983 727.723418 
L 509.75432 718.858999 
L 513.946657 738.183834 
L 518.138993 708.118485 
L 522.33133 735.538871 
L 526.523666 715.058159 
L 530.716003 726.363971 
L 534.90834 721.679655 
L 539.100676 722.20719 
L 543.293013 709.52731 
L 547.485349 743.86546 
L 551.677686 726.89679 
L 555.870023 724.517576 
L 560.062359 744.385297 
L 564.254696 745.892741 
L 568.447032 719.27935 
L 572.639369 715.172403 
L 576.831705 740.937165 
L 581.024042 721.414088 
L 585.216379 741.246051 
L 589.408715 737.319671 
L 593.601052 755.214545 
L 597.793388 743.336968 
" clip-path="url(#pcda708bc1a)" style="fill: none; stroke: #ff6347; stroke-linecap: square"/>
   </g>
   <g id="patch_15">
    <path d="M 162 768.96 
L 162 466.56 
" style="fill: none; stroke: #000000; stroke-width: 0.8; stroke-linejoin: miter; stroke-linecap: square"/>
   </g>
   <g id="patch_16">
    <path d="M 618.545455 768.96 
L 618.545455 466.56 
" style="fill: none; stroke: #000000; stroke-width: 0.8; stroke-linejoin: miter; stroke-linecap: square"/>
   </g>
   <g id="patch_17">
    <path d="M 162 768.96 
L 618.545455 768.96 
" style="fill: none; stroke: #000000; stroke-width: 0.8; stroke-linejoin: miter; stroke-linecap: square"/>
   </g>
   <g id="patch_18">
    <path d="M 162 466.56 
L 618.545455 466.56 
" style="fill: none; stroke: #000000; stroke-width: 0.8; stroke-linejoin: miter; stroke-linecap: square"/>
   </g>
   <g id="text_43">
    <!-- MAE -->
    <g transform="translate(377.200227 460.56) scale(0.12 -0.12)">
     <defs>
      <path id="DejaVuSans-41" d="M 2188 4044 
L 1331 1722 
L 3047 1722 
L 2188 4044 
z
M 1831 4666 
L 2547 4666 
L 4325 0 
L 3669 0 
L 3244 1197 
L 1141 1197 
L 716 0 
L 50 0 
L 1831 4666 
z
" transform="scale(0.015625)"/>
     </defs>
     <use xlink:href="#DejaVuSans-4d"/>
     <use xlink:href="#DejaVuSans-41" x="86.279297"/>
     <use xlink:href="#DejaVuSans-45" x="154.6875"/>
    </g>
   </g>
   <g id="legend_3">
    <g id="patch_19">
     <path d="M 530.164205 503.91625 
L 611.545455 503.91625 
Q 613.545455 503.91625 613.545455 501.91625 
L 613.545455 473.56 
Q 613.545455 471.56 611.545455 471.56 
L 530.164205 471.56 
Q 528.164205 471.56 528.164205 473.56 
L 528.164205 501.91625 
Q 528.164205 503.91625 530.164205 503.91625 
z
" style="fill: #ffffff; opacity: 0.8; stroke: #cccccc; stroke-linejoin: miter"/>
    </g>
    <g id="line2d_47">
     <path d="M 532.164205 479.658437 
L 542.164205 479.658437 
L 552.164205 479.658437 
" style="fill: none; stroke: #4169e1; stroke-linecap: square"/>
    </g>
    <g id="text_44">
     <!-- Training -->
     <g transform="translate(560.164205 483.158437) scale(0.1 -0.1)">
      <use xlink:href="#DejaVuSans-54"/>
      <use xlink:href="#DejaVuSans-72" x="46.333984"/>
      <use xlink:href="#DejaVuSans-61" x="87.447266"/>
      <use xlink:href="#DejaVuSans-69" x="148.726562"/>
      <use xlink:href="#DejaVuSans-6e" x="176.509766"/>
      <use xlink:href="#DejaVuSans-69" x="239.888672"/>
      <use xlink:href="#DejaVuSans-6e" x="267.671875"/>
      <use xlink:href="#DejaVuSans-67" x="331.050781"/>
     </g>
    </g>
    <g id="line2d_48">
     <path d="M 532.164205 494.336563 
L 542.164205 494.336563 
L 552.164205 494.336563 
" style="fill: none; stroke: #ff6347; stroke-linecap: square"/>
    </g>
    <g id="text_45">
     <!-- Validation -->
     <g transform="translate(560.164205 497.836563) scale(0.1 -0.1)">
      <use xlink:href="#DejaVuSans-56"/>
      <use xlink:href="#DejaVuSans-61" x="60.658203"/>
      <use xlink:href="#DejaVuSans-6c" x="121.9375"/>
      <use xlink:href="#DejaVuSans-69" x="149.720703"/>
      <use xlink:href="#DejaVuSans-64" x="177.503906"/>
      <use xlink:href="#DejaVuSans-61" x="240.980469"/>
      <use xlink:href="#DejaVuSans-74" x="302.259766"/>
      <use xlink:href="#DejaVuSans-69" x="341.46875"/>
      <use xlink:href="#DejaVuSans-6f" x="369.251953"/>
      <use xlink:href="#DejaVuSans-6e" x="430.433594"/>
     </g>
    </g>
   </g>
  </g>
  <g id="axes_4">
   <g id="patch_20">
    <path d="M 709.854545 768.96 
L 1166.4 768.96 
L 1166.4 466.56 
L 709.854545 466.56 
z
" style="fill: #ffffff"/>
   </g>
   <g id="matplotlib.axis_7">
    <g id="xtick_19">
     <g id="line2d_49">
      <g>
       <use xlink:href="#m2395daa33a" x="730.606612" y="768.96" style="stroke: #000000; stroke-width: 0.8"/>
      </g>
     </g>
     <g id="text_46">
      <!-- 0 -->
      <g transform="translate(727.425362 783.558437) scale(0.1 -0.1)">
       <use xlink:href="#DejaVuSans-30"/>
      </g>
     </g>
    </g>
    <g id="xtick_20">
     <g id="line2d_50">
      <g>
       <use xlink:href="#m2395daa33a" x="814.453343" y="768.96" style="stroke: #000000; stroke-width: 0.8"/>
      </g>
     </g>
     <g id="text_47">
      <!-- 20 -->
      <g transform="translate(808.090843 783.558437) scale(0.1 -0.1)">
       <use xlink:href="#DejaVuSans-32"/>
       <use xlink:href="#DejaVuSans-30" x="63.623047"/>
      </g>
     </g>
    </g>
    <g id="xtick_21">
     <g id="line2d_51">
      <g>
       <use xlink:href="#m2395daa33a" x="898.300075" y="768.96" style="stroke: #000000; stroke-width: 0.8"/>
      </g>
     </g>
     <g id="text_48">
      <!-- 40 -->
      <g transform="translate(891.937575 783.558437) scale(0.1 -0.1)">
       <use xlink:href="#DejaVuSans-34"/>
       <use xlink:href="#DejaVuSans-30" x="63.623047"/>
      </g>
     </g>
    </g>
    <g id="xtick_22">
     <g id="line2d_52">
      <g>
       <use xlink:href="#m2395daa33a" x="982.146807" y="768.96" style="stroke: #000000; stroke-width: 0.8"/>
      </g>
     </g>
     <g id="text_49">
      <!-- 60 -->
      <g transform="translate(975.784307 783.558437) scale(0.1 -0.1)">
       <use xlink:href="#DejaVuSans-36"/>
       <use xlink:href="#DejaVuSans-30" x="63.623047"/>
      </g>
     </g>
    </g>
    <g id="xtick_23">
     <g id="line2d_53">
      <g>
       <use xlink:href="#m2395daa33a" x="1065.993539" y="768.96" style="stroke: #000000; stroke-width: 0.8"/>
      </g>
     </g>
     <g id="text_50">
      <!-- 80 -->
      <g transform="translate(1059.631039 783.558437) scale(0.1 -0.1)">
       <use xlink:href="#DejaVuSans-38"/>
       <use xlink:href="#DejaVuSans-30" x="63.623047"/>
      </g>
     </g>
    </g>
    <g id="xtick_24">
     <g id="line2d_54">
      <g>
       <use xlink:href="#m2395daa33a" x="1149.84027" y="768.96" style="stroke: #000000; stroke-width: 0.8"/>
      </g>
     </g>
     <g id="text_51">
      <!-- 100 -->
      <g transform="translate(1140.29652 783.558437) scale(0.1 -0.1)">
       <use xlink:href="#DejaVuSans-31"/>
       <use xlink:href="#DejaVuSans-30" x="63.623047"/>
       <use xlink:href="#DejaVuSans-30" x="127.246094"/>
      </g>
     </g>
    </g>
   </g>
   <g id="matplotlib.axis_8">
    <g id="ytick_19">
     <g id="line2d_55">
      <g>
       <use xlink:href="#m353992ba54" x="709.854545" y="738.646783" style="stroke: #000000; stroke-width: 0.8"/>
      </g>
     </g>
     <g id="text_52">
      <!-- 15 -->
      <g transform="translate(690.129545 742.446002) scale(0.1 -0.1)">
       <use xlink:href="#DejaVuSans-31"/>
       <use xlink:href="#DejaVuSans-35" x="63.623047"/>
      </g>
     </g>
    </g>
    <g id="ytick_20">
     <g id="line2d_56">
      <g>
       <use xlink:href="#m353992ba54" x="709.854545" y="702.569551" style="stroke: #000000; stroke-width: 0.8"/>
      </g>
     </g>
     <g id="text_53">
      <!-- 16 -->
      <g transform="translate(690.129545 706.368769) scale(0.1 -0.1)">
       <use xlink:href="#DejaVuSans-31"/>
       <use xlink:href="#DejaVuSans-36" x="63.623047"/>
      </g>
     </g>
    </g>
    <g id="ytick_21">
     <g id="line2d_57">
      <g>
       <use xlink:href="#m353992ba54" x="709.854545" y="666.492318" style="stroke: #000000; stroke-width: 0.8"/>
      </g>
     </g>
     <g id="text_54">
      <!-- 17 -->
      <g transform="translate(690.129545 670.291537) scale(0.1 -0.1)">
       <use xlink:href="#DejaVuSans-31"/>
       <use xlink:href="#DejaVuSans-37" x="63.623047"/>
      </g>
     </g>
    </g>
    <g id="ytick_22">
     <g id="line2d_58">
      <g>
       <use xlink:href="#m353992ba54" x="709.854545" y="630.415086" style="stroke: #000000; stroke-width: 0.8"/>
      </g>
     </g>
     <g id="text_55">
      <!-- 18 -->
      <g transform="translate(690.129545 634.214305) scale(0.1 -0.1)">
       <use xlink:href="#DejaVuSans-31"/>
       <use xlink:href="#DejaVuSans-38" x="63.623047"/>
      </g>
     </g>
    </g>
    <g id="ytick_23">
     <g id="line2d_59">
      <g>
       <use xlink:href="#m353992ba54" x="709.854545" y="594.337854" style="stroke: #000000; stroke-width: 0.8"/>
      </g>
     </g>
     <g id="text_56">
      <!-- 19 -->
      <g transform="translate(690.129545 598.137072) scale(0.1 -0.1)">
       <defs>
        <path id="DejaVuSans-39" d="M 703 97 
L 703 672 
Q 941 559 1184 500 
Q 1428 441 1663 441 
Q 2288 441 2617 861 
Q 2947 1281 2994 2138 
Q 2813 1869 2534 1725 
Q 2256 1581 1919 1581 
Q 1219 1581 811 2004 
Q 403 2428 403 3163 
Q 403 3881 828 4315 
Q 1253 4750 1959 4750 
Q 2769 4750 3195 4129 
Q 3622 3509 3622 2328 
Q 3622 1225 3098 567 
Q 2575 -91 1691 -91 
Q 1453 -91 1209 -44 
Q 966 3 703 97 
z
M 1959 2075 
Q 2384 2075 2632 2365 
Q 2881 2656 2881 3163 
Q 2881 3666 2632 3958 
Q 2384 4250 1959 4250 
Q 1534 4250 1286 3958 
Q 1038 3666 1038 3163 
Q 1038 2656 1286 2365 
Q 1534 2075 1959 2075 
z
" transform="scale(0.015625)"/>
       </defs>
       <use xlink:href="#DejaVuSans-31"/>
       <use xlink:href="#DejaVuSans-39" x="63.623047"/>
      </g>
     </g>
    </g>
    <g id="ytick_24">
     <g id="line2d_60">
      <g>
       <use xlink:href="#m353992ba54" x="709.854545" y="558.260621" style="stroke: #000000; stroke-width: 0.8"/>
      </g>
     </g>
     <g id="text_57">
      <!-- 20 -->
      <g transform="translate(690.129545 562.05984) scale(0.1 -0.1)">
       <use xlink:href="#DejaVuSans-32"/>
       <use xlink:href="#DejaVuSans-30" x="63.623047"/>
      </g>
     </g>
    </g>
    <g id="ytick_25">
     <g id="line2d_61">
      <g>
       <use xlink:href="#m353992ba54" x="709.854545" y="522.183389" style="stroke: #000000; stroke-width: 0.8"/>
      </g>
     </g>
     <g id="text_58">
      <!-- 21 -->
      <g transform="translate(690.129545 525.982608) scale(0.1 -0.1)">
       <use xlink:href="#DejaVuSans-32"/>
       <use xlink:href="#DejaVuSans-31" x="63.623047"/>
      </g>
     </g>
    </g>
    <g id="ytick_26">
     <g id="line2d_62">
      <g>
       <use xlink:href="#m353992ba54" x="709.854545" y="486.106157" style="stroke: #000000; stroke-width: 0.8"/>
      </g>
     </g>
     <g id="text_59">
      <!-- 22 -->
      <g transform="translate(690.129545 489.905375) scale(0.1 -0.1)">
       <use xlink:href="#DejaVuSans-32"/>
       <use xlink:href="#DejaVuSans-32" x="63.623047"/>
      </g>
     </g>
    </g>
   </g>
   <g id="line2d_63">
    <path d="M 730.606612 556.99985 
L 734.798948 480.305455 
L 738.991285 556.071303 
L 743.183621 721.001186 
L 747.375958 655.050695 
L 751.568295 726.770613 
L 755.760631 726.437495 
L 759.952968 723.718738 
L 764.145304 718.517112 
L 768.337641 723.979191 
L 772.529977 725.11813 
L 776.722314 719.612321 
L 780.914651 672.837391 
L 785.106987 670.481273 
L 789.299324 722.462612 
L 793.49166 726.213718 
L 797.683997 730.785062 
L 801.876334 732.105218 
L 806.06867 725.577725 
L 810.261007 729.288783 
L 814.453343 717.282352 
L 818.64568 733.521848 
L 822.838017 718.11181 
L 827.030353 727.438122 
L 831.22269 730.434947 
L 835.415026 725.788392 
L 839.607363 731.132321 
L 843.799699 718.594112 
L 847.992036 729.006861 
L 852.184373 727.759749 
L 856.376709 728.5259 
L 860.569046 733.424203 
L 864.761382 730.000229 
L 868.953719 729.73028 
L 873.146056 733.406622 
L 877.338392 734.673448 
L 881.530729 730.815684 
L 885.723065 734.067182 
L 889.915402 733.46525 
L 894.107739 725.075605 
L 898.300075 726.969445 
L 902.492412 731.070494 
L 906.684748 722.797657 
L 910.877085 731.731707 
L 915.069421 729.030876 
L 919.261758 730.586884 
L 923.454095 740.538283 
L 927.646431 731.444349 
L 931.838768 736.362504 
L 936.031104 730.111153 
L 940.223441 727.338173 
L 944.415778 741.948858 
L 948.608114 732.464312 
L 952.800451 732.621788 
L 956.992787 734.340949 
L 961.185124 730.98386 
L 965.377461 733.66329 
L 969.569797 743.139612 
L 973.762134 733.209338 
L 977.95447 735.818547 
L 982.146807 732.698479 
L 986.339144 739.044687 
L 990.53148 738.248741 
L 994.723817 730.011651 
L 998.916153 732.608164 
L 1003.10849 733.863326 
L 1007.300826 740.06441 
L 1011.493163 734.488413 
L 1015.6855 739.427385 
L 1019.877836 737.511387 
L 1024.070173 733.571289 
L 1028.262509 743.426971 
L 1032.454846 733.981063 
L 1036.647183 740.39629 
L 1040.839519 737.505332 
L 1045.031856 737.070303 
L 1049.224192 740.493452 
L 1053.416529 738.34002 
L 1057.608866 735.084118 
L 1061.801202 729.748068 
L 1065.993539 738.873036 
L 1070.185875 730.239419 
L 1074.378212 743.286491 
L 1078.570548 737.710563 
L 1082.762885 734.815683 
L 1086.955222 734.120201 
L 1091.147558 739.930674 
L 1095.339895 737.370564 
L 1099.532231 737.124424 
L 1103.724568 744.593091 
L 1107.916905 742.005455 
L 1112.109241 743.095573 
L 1116.301578 746.630885 
L 1120.493914 745.968261 
L 1124.686251 745.345858 
L 1128.878588 743.998384 
L 1133.070924 750.690751 
L 1137.263261 745.644708 
L 1141.455597 741.60848 
L 1145.647934 745.907225 
" clip-path="url(#p48c656191e)" style="fill: none; stroke: #4169e1; stroke-linecap: square"/>
   </g>
   <g id="line2d_64">
    <path d="M 730.606612 728.690773 
L 734.798948 725.562139 
L 738.991285 730.802024 
L 743.183621 735.113122 
L 747.375958 734.254625 
L 751.568295 721.2433 
L 755.760631 737.74841 
L 759.952968 737.80831 
L 764.145304 708.941185 
L 768.337641 743.392771 
L 772.529977 739.628246 
L 776.722314 732.621203 
L 780.914651 733.270684 
L 785.106987 715.388065 
L 789.299324 735.548942 
L 793.49166 741.634835 
L 797.683997 735.04314 
L 801.876334 741.837004 
L 806.06867 741.673851 
L 810.261007 739.130909 
L 814.453343 737.27722 
L 818.64568 737.094146 
L 822.838017 736.112408 
L 827.030353 740.87006 
L 831.22269 731.767145 
L 835.415026 739.612144 
L 839.607363 739.378115 
L 843.799699 726.724578 
L 847.992036 736.45399 
L 852.184373 736.612016 
L 856.376709 738.58437 
L 860.569046 738.815028 
L 864.761382 742.989155 
L 868.953719 741.576757 
L 873.146056 743.09516 
L 877.338392 738.311497 
L 881.530729 742.562315 
L 885.723065 738.348552 
L 889.915402 747.1275 
L 894.107739 741.483208 
L 898.300075 748.870058 
L 902.492412 743.487869 
L 906.684748 740.637613 
L 910.877085 742.789773 
L 915.069421 745.610956 
L 919.261758 737.093734 
L 923.454095 738.6837 
L 927.646431 744.987933 
L 931.838768 741.39561 
L 936.031104 740.907356 
L 940.223441 743.988235 
L 944.415778 751.793185 
L 948.608114 735.584517 
L 952.800451 744.582184 
L 956.992787 741.032352 
L 961.185124 740.886987 
L 965.377461 742.131519 
L 969.569797 743.684568 
L 973.762134 744.391954 
L 977.95447 739.716463 
L 982.146807 746.871899 
L 986.339144 739.63468 
L 990.53148 743.136929 
L 994.723817 745.717958 
L 998.916153 735.547634 
L 1003.10849 738.36517 
L 1007.300826 738.692371 
L 1011.493163 739.460173 
L 1015.6855 739.412796 
L 1019.877836 746.373701 
L 1024.070173 740.885336 
L 1028.262509 749.528518 
L 1032.454846 743.732667 
L 1036.647183 738.743498 
L 1040.839519 748.446727 
L 1045.031856 746.876372 
L 1049.224192 748.066954 
L 1053.416529 747.531667 
L 1057.608866 742.497701 
L 1061.801202 747.367241 
L 1065.993539 733.350437 
L 1070.185875 745.997679 
L 1074.378212 740.893284 
L 1078.570548 740.903399 
L 1082.762885 744.64611 
L 1086.955222 744.229007 
L 1091.147558 736.048791 
L 1095.339895 745.451932 
L 1099.532231 745.96747 
L 1103.724568 741.484859 
L 1107.916905 753.046525 
L 1112.109241 752.36976 
L 1116.301578 742.81138 
L 1120.493914 739.31732 
L 1124.686251 750.37222 
L 1128.878588 748.484986 
L 1133.070924 755.214545 
L 1137.263261 752.732708 
L 1141.455597 750.503514 
L 1145.647934 752.759923 
" clip-path="url(#p48c656191e)" style="fill: none; stroke: #ff6347; stroke-linecap: square"/>
   </g>
   <g id="patch_21">
    <path d="M 709.854545 768.96 
L 709.854545 466.56 
" style="fill: none; stroke: #000000; stroke-width: 0.8; stroke-linejoin: miter; stroke-linecap: square"/>
   </g>
   <g id="patch_22">
    <path d="M 1166.4 768.96 
L 1166.4 466.56 
" style="fill: none; stroke: #000000; stroke-width: 0.8; stroke-linejoin: miter; stroke-linecap: square"/>
   </g>
   <g id="patch_23">
    <path d="M 709.854545 768.96 
L 1166.4 768.96 
" style="fill: none; stroke: #000000; stroke-width: 0.8; stroke-linejoin: miter; stroke-linecap: square"/>
   </g>
   <g id="patch_24">
    <path d="M 709.854545 466.56 
L 1166.4 466.56 
" style="fill: none; stroke: #000000; stroke-width: 0.8; stroke-linejoin: miter; stroke-linecap: square"/>
   </g>
   <g id="text_60">
    <!-- ROOT_MEAN_SQUARED_ERROR -->
    <g transform="translate(843.656335 460.56) scale(0.12 -0.12)">
     <defs>
      <path id="DejaVuSans-52" d="M 2841 2188 
Q 3044 2119 3236 1894 
Q 3428 1669 3622 1275 
L 4263 0 
L 3584 0 
L 2988 1197 
Q 2756 1666 2539 1819 
Q 2322 1972 1947 1972 
L 1259 1972 
L 1259 0 
L 628 0 
L 628 4666 
L 2053 4666 
Q 2853 4666 3247 4331 
Q 3641 3997 3641 3322 
Q 3641 2881 3436 2590 
Q 3231 2300 2841 2188 
z
M 1259 4147 
L 1259 2491 
L 2053 2491 
Q 2509 2491 2742 2702 
Q 2975 2913 2975 3322 
Q 2975 3731 2742 3939 
Q 2509 4147 2053 4147 
L 1259 4147 
z
" transform="scale(0.015625)"/>
      <path id="DejaVuSans-5f" d="M 3263 -1063 
L 3263 -1509 
L -63 -1509 
L -63 -1063 
L 3263 -1063 
z
" transform="scale(0.015625)"/>
      <path id="DejaVuSans-4e" d="M 628 4666 
L 1478 4666 
L 3547 763 
L 3547 4666 
L 4159 4666 
L 4159 0 
L 3309 0 
L 1241 3903 
L 1241 0 
L 628 0 
L 628 4666 
z
" transform="scale(0.015625)"/>
      <path id="DejaVuSans-51" d="M 2522 4238 
Q 1834 4238 1429 3725 
Q 1025 3213 1025 2328 
Q 1025 1447 1429 934 
Q 1834 422 2522 422 
Q 3209 422 3611 934 
Q 4013 1447 4013 2328 
Q 4013 3213 3611 3725 
Q 3209 4238 2522 4238 
z
M 3406 84 
L 4238 -825 
L 3475 -825 
L 2784 -78 
Q 2681 -84 2626 -87 
Q 2572 -91 2522 -91 
Q 1538 -91 948 567 
Q 359 1225 359 2328 
Q 359 3434 948 4092 
Q 1538 4750 2522 4750 
Q 3503 4750 4090 4092 
Q 4678 3434 4678 2328 
Q 4678 1516 4351 937 
Q 4025 359 3406 84 
z
" transform="scale(0.015625)"/>
      <path id="DejaVuSans-55" d="M 556 4666 
L 1191 4666 
L 1191 1831 
Q 1191 1081 1462 751 
Q 1734 422 2344 422 
Q 2950 422 3222 751 
Q 3494 1081 3494 1831 
L 3494 4666 
L 4128 4666 
L 4128 1753 
Q 4128 841 3676 375 
Q 3225 -91 2344 -91 
Q 1459 -91 1007 375 
Q 556 841 556 1753 
L 556 4666 
z
" transform="scale(0.015625)"/>
      <path id="DejaVuSans-44" d="M 1259 4147 
L 1259 519 
L 2022 519 
Q 2988 519 3436 956 
Q 3884 1394 3884 2338 
Q 3884 3275 3436 3711 
Q 2988 4147 2022 4147 
L 1259 4147 
z
M 628 4666 
L 1925 4666 
Q 3281 4666 3915 4102 
Q 4550 3538 4550 2338 
Q 4550 1131 3912 565 
Q 3275 0 1925 0 
L 628 0 
L 628 4666 
z
" transform="scale(0.015625)"/>
     </defs>
     <use xlink:href="#DejaVuSans-52"/>
     <use xlink:href="#DejaVuSans-4f" x="69.482422"/>
     <use xlink:href="#DejaVuSans-4f" x="148.193359"/>
     <use xlink:href="#DejaVuSans-54" x="226.904297"/>
     <use xlink:href="#DejaVuSans-5f" x="287.988281"/>
     <use xlink:href="#DejaVuSans-4d" x="337.988281"/>
     <use xlink:href="#DejaVuSans-45" x="424.267578"/>
     <use xlink:href="#DejaVuSans-41" x="487.451172"/>
     <use xlink:href="#DejaVuSans-4e" x="555.859375"/>
     <use xlink:href="#DejaVuSans-5f" x="630.664062"/>
     <use xlink:href="#DejaVuSans-53" x="680.664062"/>
     <use xlink:href="#DejaVuSans-51" x="744.140625"/>
     <use xlink:href="#DejaVuSans-55" x="822.851562"/>
     <use xlink:href="#DejaVuSans-41" x="896.044922"/>
     <use xlink:href="#DejaVuSans-52" x="964.453125"/>
     <use xlink:href="#DejaVuSans-45" x="1033.935547"/>
     <use xlink:href="#DejaVuSans-44" x="1097.119141"/>
     <use xlink:href="#DejaVuSans-5f" x="1174.121094"/>
     <use xlink:href="#DejaVuSans-45" x="1224.121094"/>
     <use xlink:href="#DejaVuSans-52" x="1287.304688"/>
     <use xlink:href="#DejaVuSans-52" x="1356.787109"/>
     <use xlink:href="#DejaVuSans-4f" x="1426.269531"/>
     <use xlink:href="#DejaVuSans-52" x="1504.980469"/>
    </g>
   </g>
   <g id="legend_4">
    <g id="patch_25">
     <path d="M 1078.01875 503.91625 
L 1159.4 503.91625 
Q 1161.4 503.91625 1161.4 501.91625 
L 1161.4 473.56 
Q 1161.4 471.56 1159.4 471.56 
L 1078.01875 471.56 
Q 1076.01875 471.56 1076.01875 473.56 
L 1076.01875 501.91625 
Q 1076.01875 503.91625 1078.01875 503.91625 
z
" style="fill: #ffffff; opacity: 0.8; stroke: #cccccc; stroke-linejoin: miter"/>
    </g>
    <g id="line2d_65">
     <path d="M 1080.01875 479.658437 
L 1090.01875 479.658437 
L 1100.01875 479.658437 
" style="fill: none; stroke: #4169e1; stroke-linecap: square"/>
    </g>
    <g id="text_61">
     <!-- Training -->
     <g transform="translate(1108.01875 483.158437) scale(0.1 -0.1)">
      <use xlink:href="#DejaVuSans-54"/>
      <use xlink:href="#DejaVuSans-72" x="46.333984"/>
      <use xlink:href="#DejaVuSans-61" x="87.447266"/>
      <use xlink:href="#DejaVuSans-69" x="148.726562"/>
      <use xlink:href="#DejaVuSans-6e" x="176.509766"/>
      <use xlink:href="#DejaVuSans-69" x="239.888672"/>
      <use xlink:href="#DejaVuSans-6e" x="267.671875"/>
      <use xlink:href="#DejaVuSans-67" x="331.050781"/>
     </g>
    </g>
    <g id="line2d_66">
     <path d="M 1080.01875 494.336563 
L 1090.01875 494.336563 
L 1100.01875 494.336563 
" style="fill: none; stroke: #ff6347; stroke-linecap: square"/>
    </g>
    <g id="text_62">
     <!-- Validation -->
     <g transform="translate(1108.01875 497.836563) scale(0.1 -0.1)">
      <use xlink:href="#DejaVuSans-56"/>
      <use xlink:href="#DejaVuSans-61" x="60.658203"/>
      <use xlink:href="#DejaVuSans-6c" x="121.9375"/>
      <use xlink:href="#DejaVuSans-69" x="149.720703"/>
      <use xlink:href="#DejaVuSans-64" x="177.503906"/>
      <use xlink:href="#DejaVuSans-61" x="240.980469"/>
      <use xlink:href="#DejaVuSans-74" x="302.259766"/>
      <use xlink:href="#DejaVuSans-69" x="341.46875"/>
      <use xlink:href="#DejaVuSans-6f" x="369.251953"/>
      <use xlink:href="#DejaVuSans-6e" x="430.433594"/>
     </g>
    </g>
   </g>
  </g>
 </g>
 <defs>
  <clipPath id="p06c9cf6c90">
   <rect x="162" y="103.68" width="456.545455" height="302.4"/>
  </clipPath>
  <clipPath id="pf853f9a1f9">
   <rect x="709.854545" y="103.68" width="456.545455" height="302.4"/>
  </clipPath>
  <clipPath id="pcda708bc1a">
   <rect x="162" y="466.56" width="456.545455" height="302.4"/>
  </clipPath>
  <clipPath id="p48c656191e">
   <rect x="709.854545" y="466.56" width="456.545455" height="302.4"/>
  </clipPath>
 </defs>
</svg>
