<?xml version="1.0" encoding="utf-8" standalone="no"?>
<!DOCTYPE svg PUBLIC "-//W3C//DTD SVG 1.1//EN"
  "http://www.w3.org/Graphics/SVG/1.1/DTD/svg11.dtd">
<svg xmlns:xlink="http://www.w3.org/1999/xlink" width="1296pt" height="864pt" viewBox="0 0 1296 864" xmlns="http://www.w3.org/2000/svg" version="1.1">
 <metadata>
  <rdf:RDF xmlns:dc="http://purl.org/dc/elements/1.1/" xmlns:cc="http://creativecommons.org/ns#" xmlns:rdf="http://www.w3.org/1999/02/22-rdf-syntax-ns#">
   <cc:Work>
    <dc:type rdf:resource="http://purl.org/dc/dcmitype/StillImage"/>
    <dc:date>2023-12-24T17:34:22.883532</dc:date>
    <dc:format>image/svg+xml</dc:format>
    <dc:creator>
     <cc:Agent>
      <dc:title>Matplotlib v3.8.0, https://matplotlib.org/</dc:title>
     </cc:Agent>
    </dc:creator>
   </cc:Work>
  </rdf:RDF>
 </metadata>
 <defs>
  <style type="text/css">*{stroke-linejoin: round; stroke-linecap: butt}</style>
 </defs>
 <g id="figure_1">
  <g id="patch_1">
   <path d="M 0 864 
L 1296 864 
L 1296 0 
L 0 0 
z
" style="fill: #ffffff"/>
  </g>
  <g id="axes_1">
   <g id="patch_2">
    <path d="M 162 768.96 
L 1166.4 768.96 
L 1166.4 103.68 
L 162 103.68 
z
" style="fill: #ffffff"/>
   </g>
   <g id="matplotlib.axis_1">
    <g id="xtick_1">
     <g id="line2d_1">
      <defs>
       <path id="m20502ff888" d="M 0 0 
L 0 3.5 
" style="stroke: #000000; stroke-width: 0.8"/>
      </defs>
      <g>
       <use xlink:href="#m20502ff888" x="207.654545" y="768.96" style="stroke: #000000; stroke-width: 0.8"/>
      </g>
     </g>
     <g id="text_1">
      <!-- 0 -->
      <g transform="translate(204.473295 783.558437) scale(0.1 -0.1)">
       <defs>
        <path id="DejaVuSans-30" d="M 2034 4250 
Q 1547 4250 1301 3770 
Q 1056 3291 1056 2328 
Q 1056 1369 1301 889 
Q 1547 409 2034 409 
Q 2525 409 2770 889 
Q 3016 1369 3016 2328 
Q 3016 3291 2770 3770 
Q 2525 4250 2034 4250 
z
M 2034 4750 
Q 2819 4750 3233 4129 
Q 3647 3509 3647 2328 
Q 3647 1150 3233 529 
Q 2819 -91 2034 -91 
Q 1250 -91 836 529 
Q 422 1150 422 2328 
Q 422 3509 836 4129 
Q 1250 4750 2034 4750 
z
" transform="scale(0.015625)"/>
       </defs>
       <use xlink:href="#DejaVuSans-30"/>
      </g>
     </g>
    </g>
    <g id="xtick_2">
     <g id="line2d_2">
      <g>
       <use xlink:href="#m20502ff888" x="390.638696" y="768.96" style="stroke: #000000; stroke-width: 0.8"/>
      </g>
     </g>
     <g id="text_2">
      <!-- 100 -->
      <g transform="translate(381.094946 783.558437) scale(0.1 -0.1)">
       <defs>
        <path id="DejaVuSans-31" d="M 794 531 
L 1825 531 
L 1825 4091 
L 703 3866 
L 703 4441 
L 1819 4666 
L 2450 4666 
L 2450 531 
L 3481 531 
L 3481 0 
L 794 0 
L 794 531 
z
" transform="scale(0.015625)"/>
       </defs>
       <use xlink:href="#DejaVuSans-31"/>
       <use xlink:href="#DejaVuSans-30" x="63.623047"/>
       <use xlink:href="#DejaVuSans-30" x="127.246094"/>
      </g>
     </g>
    </g>
    <g id="xtick_3">
     <g id="line2d_3">
      <g>
       <use xlink:href="#m20502ff888" x="573.622846" y="768.96" style="stroke: #000000; stroke-width: 0.8"/>
      </g>
     </g>
     <g id="text_3">
      <!-- 200 -->
      <g transform="translate(564.079096 783.558437) scale(0.1 -0.1)">
       <defs>
        <path id="DejaVuSans-32" d="M 1228 531 
L 3431 531 
L 3431 0 
L 469 0 
L 469 531 
Q 828 903 1448 1529 
Q 2069 2156 2228 2338 
Q 2531 2678 2651 2914 
Q 2772 3150 2772 3378 
Q 2772 3750 2511 3984 
Q 2250 4219 1831 4219 
Q 1534 4219 1204 4116 
Q 875 4013 500 3803 
L 500 4441 
Q 881 4594 1212 4672 
Q 1544 4750 1819 4750 
Q 2544 4750 2975 4387 
Q 3406 4025 3406 3419 
Q 3406 3131 3298 2873 
Q 3191 2616 2906 2266 
Q 2828 2175 2409 1742 
Q 1991 1309 1228 531 
z
" transform="scale(0.015625)"/>
       </defs>
       <use xlink:href="#DejaVuSans-32"/>
       <use xlink:href="#DejaVuSans-30" x="63.623047"/>
       <use xlink:href="#DejaVuSans-30" x="127.246094"/>
      </g>
     </g>
    </g>
    <g id="xtick_4">
     <g id="line2d_4">
      <g>
       <use xlink:href="#m20502ff888" x="756.606996" y="768.96" style="stroke: #000000; stroke-width: 0.8"/>
      </g>
     </g>
     <g id="text_4">
      <!-- 300 -->
      <g transform="translate(747.063246 783.558437) scale(0.1 -0.1)">
       <defs>
        <path id="DejaVuSans-33" d="M 2597 2516 
Q 3050 2419 3304 2112 
Q 3559 1806 3559 1356 
Q 3559 666 3084 287 
Q 2609 -91 1734 -91 
Q 1441 -91 1130 -33 
Q 819 25 488 141 
L 488 750 
Q 750 597 1062 519 
Q 1375 441 1716 441 
Q 2309 441 2620 675 
Q 2931 909 2931 1356 
Q 2931 1769 2642 2001 
Q 2353 2234 1838 2234 
L 1294 2234 
L 1294 2753 
L 1863 2753 
Q 2328 2753 2575 2939 
Q 2822 3125 2822 3475 
Q 2822 3834 2567 4026 
Q 2313 4219 1838 4219 
Q 1578 4219 1281 4162 
Q 984 4106 628 3988 
L 628 4550 
Q 988 4650 1302 4700 
Q 1616 4750 1894 4750 
Q 2613 4750 3031 4423 
Q 3450 4097 3450 3541 
Q 3450 3153 3228 2886 
Q 3006 2619 2597 2516 
z
" transform="scale(0.015625)"/>
       </defs>
       <use xlink:href="#DejaVuSans-33"/>
       <use xlink:href="#DejaVuSans-30" x="63.623047"/>
       <use xlink:href="#DejaVuSans-30" x="127.246094"/>
      </g>
     </g>
    </g>
    <g id="xtick_5">
     <g id="line2d_5">
      <g>
       <use xlink:href="#m20502ff888" x="939.591146" y="768.96" style="stroke: #000000; stroke-width: 0.8"/>
      </g>
     </g>
     <g id="text_5">
      <!-- 400 -->
      <g transform="translate(930.047396 783.558437) scale(0.1 -0.1)">
       <defs>
        <path id="DejaVuSans-34" d="M 2419 4116 
L 825 1625 
L 2419 1625 
L 2419 4116 
z
M 2253 4666 
L 3047 4666 
L 3047 1625 
L 3713 1625 
L 3713 1100 
L 3047 1100 
L 3047 0 
L 2419 0 
L 2419 1100 
L 313 1100 
L 313 1709 
L 2253 4666 
z
" transform="scale(0.015625)"/>
       </defs>
       <use xlink:href="#DejaVuSans-34"/>
       <use xlink:href="#DejaVuSans-30" x="63.623047"/>
       <use xlink:href="#DejaVuSans-30" x="127.246094"/>
      </g>
     </g>
    </g>
    <g id="xtick_6">
     <g id="line2d_6">
      <g>
       <use xlink:href="#m20502ff888" x="1122.575296" y="768.96" style="stroke: #000000; stroke-width: 0.8"/>
      </g>
     </g>
     <g id="text_6">
      <!-- 500 -->
      <g transform="translate(1113.031546 783.558437) scale(0.1 -0.1)">
       <defs>
        <path id="DejaVuSans-35" d="M 691 4666 
L 3169 4666 
L 3169 4134 
L 1269 4134 
L 1269 2991 
Q 1406 3038 1543 3061 
Q 1681 3084 1819 3084 
Q 2600 3084 3056 2656 
Q 3513 2228 3513 1497 
Q 3513 744 3044 326 
Q 2575 -91 1722 -91 
Q 1428 -91 1123 -41 
Q 819 9 494 109 
L 494 744 
Q 775 591 1075 516 
Q 1375 441 1709 441 
Q 2250 441 2565 725 
Q 2881 1009 2881 1497 
Q 2881 1984 2565 2268 
Q 2250 2553 1709 2553 
Q 1456 2553 1204 2497 
Q 953 2441 691 2322 
L 691 4666 
z
" transform="scale(0.015625)"/>
       </defs>
       <use xlink:href="#DejaVuSans-35"/>
       <use xlink:href="#DejaVuSans-30" x="63.623047"/>
       <use xlink:href="#DejaVuSans-30" x="127.246094"/>
      </g>
     </g>
    </g>
   </g>
   <g id="matplotlib.axis_2">
    <g id="ytick_1">
     <g id="line2d_7">
      <defs>
       <path id="m3c1c1948bb" d="M 0 0 
L -3.5 0 
" style="stroke: #000000; stroke-width: 0.8"/>
      </defs>
      <g>
       <use xlink:href="#m3c1c1948bb" x="162" y="738.72" style="stroke: #000000; stroke-width: 0.8"/>
      </g>
     </g>
     <g id="text_7">
      <!-- 0 -->
      <g transform="translate(148.6375 742.519219) scale(0.1 -0.1)">
       <use xlink:href="#DejaVuSans-30"/>
      </g>
     </g>
    </g>
    <g id="ytick_2">
     <g id="line2d_8">
      <g>
       <use xlink:href="#m3c1c1948bb" x="162" y="629.550325" style="stroke: #000000; stroke-width: 0.8"/>
      </g>
     </g>
     <g id="text_8">
      <!-- 50 -->
      <g transform="translate(142.275 633.349544) scale(0.1 -0.1)">
       <use xlink:href="#DejaVuSans-35"/>
       <use xlink:href="#DejaVuSans-30" x="63.623047"/>
      </g>
     </g>
    </g>
    <g id="ytick_3">
     <g id="line2d_9">
      <g>
       <use xlink:href="#m3c1c1948bb" x="162" y="520.38065" style="stroke: #000000; stroke-width: 0.8"/>
      </g>
     </g>
     <g id="text_9">
      <!-- 100 -->
      <g transform="translate(135.9125 524.179869) scale(0.1 -0.1)">
       <use xlink:href="#DejaVuSans-31"/>
       <use xlink:href="#DejaVuSans-30" x="63.623047"/>
       <use xlink:href="#DejaVuSans-30" x="127.246094"/>
      </g>
     </g>
    </g>
    <g id="ytick_4">
     <g id="line2d_10">
      <g>
       <use xlink:href="#m3c1c1948bb" x="162" y="411.210975" style="stroke: #000000; stroke-width: 0.8"/>
      </g>
     </g>
     <g id="text_10">
      <!-- 150 -->
      <g transform="translate(135.9125 415.010193) scale(0.1 -0.1)">
       <use xlink:href="#DejaVuSans-31"/>
       <use xlink:href="#DejaVuSans-35" x="63.623047"/>
       <use xlink:href="#DejaVuSans-30" x="127.246094"/>
      </g>
     </g>
    </g>
    <g id="ytick_5">
     <g id="line2d_11">
      <g>
       <use xlink:href="#m3c1c1948bb" x="162" y="302.0413" style="stroke: #000000; stroke-width: 0.8"/>
      </g>
     </g>
     <g id="text_11">
      <!-- 200 -->
      <g transform="translate(135.9125 305.840518) scale(0.1 -0.1)">
       <use xlink:href="#DejaVuSans-32"/>
       <use xlink:href="#DejaVuSans-30" x="63.623047"/>
       <use xlink:href="#DejaVuSans-30" x="127.246094"/>
      </g>
     </g>
    </g>
    <g id="ytick_6">
     <g id="line2d_12">
      <g>
       <use xlink:href="#m3c1c1948bb" x="162" y="192.871625" style="stroke: #000000; stroke-width: 0.8"/>
      </g>
     </g>
     <g id="text_12">
      <!-- 250 -->
      <g transform="translate(135.9125 196.670843) scale(0.1 -0.1)">
       <use xlink:href="#DejaVuSans-32"/>
       <use xlink:href="#DejaVuSans-35" x="63.623047"/>
       <use xlink:href="#DejaVuSans-30" x="127.246094"/>
      </g>
     </g>
    </g>
   </g>
   <g id="line2d_13">
    <path d="M 207.654545 710.335884 
L 209.484387 705.969097 
L 211.314228 666.668014 
L 213.14407 703.785704 
L 214.973911 638.283899 
L 216.803753 695.05213 
L 218.633594 653.567653 
L 220.463436 729.986426 
L 222.293277 629.550325 
L 224.123119 705.969097 
L 225.95296 666.668014 
L 227.782802 729.986426 
L 229.612643 686.318556 
L 231.442485 588.065848 
L 233.272326 705.969097 
L 235.102168 716.886065 
L 236.932009 679.768375 
L 238.761851 544.397978 
L 240.591692 304.224693 
L 242.421534 467.979206 
L 244.251375 133.92 
L 246.081217 192.871625 
L 247.911058 212.522166 
L 249.7409 133.92 
L 258.890107 133.92 
L 260.719949 232.172708 
L 262.54979 179.771264 
L 264.379632 288.940939 
L 266.209473 454.878845 
L 268.039315 212.522166 
L 269.869156 133.92 
L 275.358681 133.92 
L 277.188522 232.172708 
L 279.018364 133.92 
L 280.848206 229.989314 
L 282.678047 210.338773 
L 284.507889 271.473791 
L 286.33773 133.92 
L 300.976462 133.92 
L 302.806304 162.304116 
L 304.636145 365.359711 
L 306.465987 153.570542 
L 308.295828 133.92 
L 313.785353 133.92 
L 315.615194 162.304116 
L 317.445036 474.529386 
L 319.274877 173.221083 
L 321.104719 382.826859 
L 322.93456 356.626137 
L 324.764402 347.892563 
L 326.594243 533.481011 
L 328.424085 487.629747 
L 330.253926 347.892563 
L 332.083768 435.228303 
L 333.913609 330.425415 
L 335.743451 526.93083 
L 337.573292 522.564043 
L 339.403134 133.92 
L 341.232975 369.726498 
L 343.062817 446.145271 
L 344.892658 413.394368 
L 346.7225 598.982816 
L 348.552341 579.332274 
L 350.382183 428.678123 
L 352.212024 542.214585 
L 354.041866 544.397978 
L 355.871707 620.816751 
L 357.701549 649.200866 
L 359.53139 457.062238 
L 361.361232 588.065848 
L 363.191073 476.71278 
L 365.020915 419.944549 
L 366.850756 555.314946 
L 368.680598 559.681733 
L 370.510439 531.297617 
L 374.170122 347.892563 
L 375.999964 531.297617 
L 377.829805 647.017473 
L 379.659647 435.228303 
L 381.489488 513.830469 
L 383.31933 380.643466 
L 385.149171 433.04491 
L 386.979013 395.92722 
L 388.808854 553.131552 
L 390.638696 465.795812 
L 392.468537 430.861516 
L 394.298379 400.294007 
L 396.12822 247.456462 
L 397.958062 574.965487 
L 399.787903 533.481011 
L 401.617745 354.442744 
L 403.447586 625.183538 
L 405.277428 511.647076 
L 407.107269 323.875235 
L 408.937111 577.148881 
L 410.766952 612.083177 
L 412.596794 618.633357 
L 414.426635 498.546715 
L 416.256477 620.816751 
L 418.086318 596.799422 
L 419.91616 614.26657 
L 421.746001 380.643466 
L 423.575843 424.311336 
L 425.405684 540.031191 
L 427.235526 692.868736 
L 429.065367 470.162599 
L 430.895209 566.231913 
L 432.72505 557.498339 
L 434.554892 478.896173 
L 436.384733 570.5987 
L 438.214575 588.065848 
L 440.044416 507.280289 
L 441.874258 550.948159 
L 443.704099 612.083177 
L 445.533941 601.166209 
L 447.363782 609.899783 
L 449.193624 470.162599 
L 451.023465 607.71639 
L 452.853307 522.564043 
L 454.683148 627.366931 
L 456.51299 548.764765 
L 458.342831 631.733718 
L 460.172673 581.515668 
L 462.002514 598.982816 
L 463.832356 631.733718 
L 465.662197 502.913502 
L 467.492039 542.214585 
L 469.32188 592.432635 
L 471.151722 502.913502 
L 472.981563 616.449964 
L 474.811405 703.785704 
L 476.641246 592.432635 
L 478.471088 727.803032 
L 480.300929 607.71639 
L 482.130771 605.532996 
L 483.960612 568.415307 
L 485.790454 505.096895 
L 487.620295 640.467292 
L 489.450137 695.05213 
L 491.279978 631.733718 
L 493.10982 557.498339 
L 494.939661 516.013863 
L 496.769503 489.813141 
L 498.599344 437.411697 
L 500.429186 452.695451 
L 504.088869 566.231913 
L 505.91871 437.411697 
L 507.748552 483.26296 
L 509.578393 574.965487 
L 511.408235 550.948159 
L 513.238076 605.532996 
L 515.067918 607.71639 
L 516.897759 620.816751 
L 518.727601 673.218195 
L 520.557442 616.449964 
L 522.387284 553.131552 
L 524.217125 568.415307 
L 526.046967 542.214585 
L 527.876808 594.616029 
L 529.70665 688.501949 
L 531.536491 516.013863 
L 533.366333 585.882455 
L 535.196174 644.834079 
L 537.026016 666.668014 
L 538.855857 697.235523 
L 540.685699 692.868736 
L 542.51554 675.401588 
L 544.345382 695.05213 
L 546.175223 657.93444 
L 548.005065 612.083177 
L 549.834906 633.917112 
L 551.664748 649.200866 
L 553.494589 677.584982 
L 555.324431 716.886065 
L 557.154272 673.218195 
L 558.984114 712.519278 
L 560.813955 719.069458 
L 562.643797 716.886065 
L 564.473638 738.72 
L 566.30348 640.467292 
L 568.133321 679.768375 
L 569.963163 714.702671 
L 571.793004 664.484621 
L 573.622846 738.72 
L 575.452687 666.668014 
L 577.282529 686.318556 
L 579.11237 719.069458 
L 580.942212 627.366931 
L 582.772053 649.200866 
L 584.601895 627.366931 
L 586.431736 668.851408 
L 588.261578 516.013863 
L 590.091419 389.37704 
L 591.921261 446.145271 
L 593.751102 133.92 
L 595.580944 404.660794 
L 599.240627 133.92 
L 601.070468 133.92 
L 602.90031 147.020361 
L 604.730151 133.92 
L 606.559993 133.92 
L 608.389834 177.58787 
L 610.219676 133.92 
L 617.539042 133.92 
L 619.368883 140.470181 
L 621.198725 175.404477 
L 623.028566 133.92 
L 624.858408 282.390758 
L 626.688249 133.92 
L 628.518091 214.70556 
L 630.347932 319.508448 
L 632.177774 199.421805 
L 634.007615 133.92 
L 635.837457 133.92 
L 637.667298 177.58787 
L 639.49714 133.92 
L 650.476189 133.92 
L 652.30603 177.58787 
L 654.135872 297.674513 
L 655.965713 133.92 
L 657.795555 251.823249 
L 659.625396 190.688231 
L 661.455238 133.92 
L 663.285079 347.892563 
L 665.114921 133.92 
L 666.944762 157.937329 
L 668.774604 195.055018 
L 670.604445 155.753935 
L 672.434287 133.92 
L 674.264128 133.92 
L 676.09397 365.359711 
L 677.923811 260.556823 
L 679.753653 446.145271 
L 681.583494 376.276679 
L 683.413336 395.92722 
L 685.243177 655.751047 
L 687.073019 568.415307 
L 688.90286 583.699061 
L 690.732702 572.782094 
L 694.392385 422.127942 
L 696.222226 550.948159 
L 698.052068 360.992924 
L 699.881909 524.747437 
L 701.711751 411.210975 
L 703.541592 618.633357 
L 705.371434 498.546715 
L 710.860958 655.751047 
L 712.6908 574.965487 
L 714.520641 697.235523 
L 716.350483 594.616029 
L 718.180324 644.834079 
L 720.010166 542.214585 
L 721.840007 642.650686 
L 723.669849 651.38426 
L 725.49969 710.335884 
L 727.329532 681.951769 
L 729.159373 633.917112 
L 730.989215 623.000144 
L 732.819056 710.335884 
L 734.648898 657.93444 
L 736.478739 651.38426 
L 738.308581 585.882455 
L 740.138422 655.751047 
L 741.968264 594.616029 
L 743.798105 647.017473 
L 745.627947 708.152491 
L 747.457788 692.868736 
L 749.28763 690.685343 
L 751.117471 666.668014 
L 752.947313 708.152491 
L 754.777154 640.467292 
L 756.606996 592.432635 
L 758.436837 564.04852 
L 760.266679 620.816751 
L 762.09652 655.751047 
L 763.926362 627.366931 
L 765.756203 264.92361 
L 767.586045 476.71278 
L 769.415886 367.543105 
L 771.245728 280.207365 
L 773.075569 203.788592 
L 774.905411 133.92 
L 782.224777 133.92 
L 784.054618 238.722888 
L 785.88446 133.92 
L 796.863509 133.92 
L 798.69335 262.740217 
L 800.523192 192.871625 
L 802.353033 232.172708 
L 804.182875 249.639856 
L 806.012716 323.875235 
L 807.842558 295.491119 
L 809.672399 243.089675 
L 811.502241 157.937329 
L 813.332082 133.92 
L 818.821607 133.92 
L 820.651448 151.387148 
L 822.48129 133.92 
L 833.460339 133.92 
L 835.29018 205.971986 
L 837.120022 199.421805 
L 838.949863 157.937329 
L 840.779705 312.958267 
L 842.609546 254.006643 
L 844.439388 133.92 
L 846.269229 212.522166 
L 848.099071 369.726498 
L 849.928912 424.311336 
L 851.758754 245.273069 
L 853.588595 223.439134 
L 855.418437 363.176318 
L 857.248278 594.616029 
L 859.07812 404.660794 
L 860.907961 454.878845 
L 862.737803 413.394368 
L 864.567644 520.38065 
L 866.397486 561.865126 
L 868.227327 585.882455 
L 870.057169 470.162599 
L 871.88701 478.896173 
L 873.716852 513.830469 
L 875.546693 647.017473 
L 877.376535 533.481011 
L 879.206376 588.065848 
L 881.036218 664.484621 
L 884.695901 566.231913 
L 886.525742 695.05213 
L 888.355584 623.000144 
L 890.185425 511.647076 
L 892.015267 574.965487 
L 893.845108 625.183538 
L 895.67495 579.332274 
L 897.504791 603.349603 
L 899.334633 664.484621 
L 901.164474 590.249242 
L 902.994316 655.751047 
L 904.824157 583.699061 
L 906.653999 627.366931 
L 908.48384 684.135162 
L 910.313682 448.328664 
L 912.143523 627.366931 
L 913.973365 636.100505 
L 915.803206 546.581372 
L 917.633048 596.799422 
L 919.462889 620.816751 
L 921.292731 603.349603 
L 923.122572 612.083177 
L 924.952414 461.429025 
L 926.782255 673.218195 
L 928.612097 699.418917 
L 930.441938 697.235523 
L 932.27178 577.148881 
L 934.101621 633.917112 
L 935.931463 633.917112 
L 937.761304 636.100505 
L 939.591146 328.242022 
L 941.420987 430.861516 
L 943.250829 243.089675 
L 945.08067 225.622527 
L 946.910512 247.456462 
L 948.740353 205.971986 
L 950.570195 133.92 
L 972.528293 133.92 
L 974.358134 234.356101 
L 976.187976 306.408087 
L 978.017817 402.477401 
L 979.847659 354.442744 
L 981.6775 133.92 
L 983.507342 227.805921 
L 985.337183 195.055018 
L 987.167025 133.92 
L 1007.295281 133.92 
L 1009.125123 358.809531 
L 1010.954964 133.92 
L 1012.784806 136.103394 
L 1014.614647 330.425415 
L 1016.444489 308.59148 
L 1018.27433 133.92 
L 1021.934013 133.92 
L 1023.763855 267.107004 
L 1025.593696 133.92 
L 1027.423538 214.70556 
L 1029.253379 181.954657 
L 1031.083221 433.04491 
L 1032.913062 153.570542 
L 1034.742904 229.989314 
L 1036.572745 380.643466 
L 1038.402587 243.089675 
L 1040.232428 350.075957 
L 1042.06227 288.940939 
L 1043.892111 424.311336 
L 1045.721953 341.342383 
L 1047.551794 395.92722 
L 1049.381636 511.647076 
L 1051.211478 443.961877 
L 1053.041319 422.127942 
L 1054.871161 467.979206 
L 1056.701002 454.878845 
L 1058.530844 594.616029 
L 1060.360685 400.294007 
L 1062.190527 391.560433 
L 1064.020368 598.982816 
L 1065.85021 232.172708 
L 1067.680051 347.892563 
L 1069.509893 356.626137 
L 1071.339734 358.809531 
L 1073.169576 557.498339 
L 1074.999417 280.207365 
L 1076.829259 260.556823 
L 1078.6591 308.59148 
L 1080.488942 452.695451 
L 1082.318783 356.626137 
L 1084.148625 452.695451 
L 1085.978466 424.311336 
L 1087.808308 367.543105 
L 1089.638149 354.442744 
L 1091.467991 330.425415 
L 1093.297832 321.691841 
L 1095.127674 417.761155 
L 1096.957515 358.809531 
L 1098.787357 446.145271 
L 1100.617198 601.166209 
L 1102.44704 564.04852 
L 1104.276881 478.896173 
L 1106.106723 507.280289 
L 1107.936564 583.699061 
L 1109.766406 529.114224 
L 1111.596247 607.71639 
L 1113.426089 590.249242 
L 1115.25593 548.764765 
L 1117.085772 618.633357 
L 1118.915613 546.581372 
L 1120.745455 566.231913 
L 1120.745455 566.231913 
" clip-path="url(#p865ecac798)" style="fill: none; stroke: #4169e1; stroke-linecap: square"/>
   </g>
   <g id="line2d_14">
    <path d="M 207.654545 677.100206 
L 209.484387 678.268396 
L 211.314228 680.531673 
L 213.14407 674.528165 
L 214.973911 679.984096 
L 216.803753 672.482312 
L 218.633594 675.580583 
L 220.463436 678.040248 
L 222.293277 683.482307 
L 224.123119 670.725725 
L 225.95296 673.987747 
L 227.782802 676.72875 
L 229.612643 676.236386 
L 231.442485 675.303956 
L 233.272326 617.65197 
L 235.102168 648.106746 
L 236.932009 673.131586 
L 238.761851 658.88915 
L 240.591692 572.968513 
L 242.421534 416.868888 
L 244.251375 413.720765 
L 246.081217 251.245451 
L 247.911058 197.343823 
L 249.7409 166.594143 
L 251.570741 159.348792 
L 253.400583 155.867409 
L 255.230424 153.692878 
L 260.719949 153.322404 
L 262.54979 161.28738 
L 264.379632 165.327537 
L 266.209473 216.376054 
L 268.039315 301.213032 
L 269.869156 259.434009 
L 271.698998 215.001205 
L 273.528839 157.212574 
L 275.358681 153.558348 
L 277.188522 153.437478 
L 279.018364 163.573786 
L 280.848206 158.978318 
L 282.678047 177.343331 
L 284.507889 178.637455 
L 286.33773 221.239282 
L 288.167572 173.944705 
L 289.997413 159.505576 
L 291.827255 154.158834 
L 295.486938 155.215483 
L 297.316779 155.438633 
L 299.146621 155.459022 
L 300.976462 155.721952 
L 302.806304 157.301927 
L 304.636145 163.687593 
L 306.465987 252.408877 
L 308.295828 226.106808 
L 310.12567 217.387393 
L 311.955511 170.036945 
L 313.785353 164.467519 
L 315.615194 163.946991 
L 317.445036 168.146599 
L 319.274877 294.394425 
L 321.104719 249.717282 
L 322.93456 339.541856 
L 324.764402 327.992252 
L 326.594243 353.982717 
L 328.424085 417.897251 
L 330.253926 451.432144 
L 332.083768 421.638664 
L 333.913609 445.17711 
L 335.743451 372.114018 
L 337.573292 428.089497 
L 339.403134 466.175364 
L 341.232975 341.931542 
L 343.062817 357.451007 
L 344.892658 352.889921 
L 346.7225 401.729158 
L 348.552341 494.607421 
L 350.382183 526.569436 
L 352.212024 472.337114 
L 354.041866 526.393044 
L 355.871707 522.070718 
L 357.701549 552.309548 
L 359.53139 596.884378 
L 361.361232 491.963068 
L 363.191073 558.025181 
L 365.020915 496.814636 
L 366.850756 464.157701 
L 368.680598 520.53272 
L 370.510439 527.216664 
L 372.340281 540.700758 
L 375.999964 413.470628 
L 377.829805 447.511391 
L 379.659647 512.367217 
L 381.489488 448.083692 
L 383.31933 500.365749 
L 385.149171 433.96986 
L 386.979013 435.167069 
L 388.808854 407.230952 
L 390.638696 458.502886 
L 392.468537 454.203664 
L 394.298379 453.361204 
L 396.12822 438.16607 
L 397.958062 336.805251 
L 399.787903 406.563834 
L 401.617745 448.416418 
L 403.447586 409.147385 
L 405.277428 530.647107 
L 407.107269 472.983926 
L 408.937111 396.237325 
L 410.766952 498.189418 
L 412.596794 502.090748 
L 414.426635 567.56585 
L 416.256477 511.97169 
L 418.086318 570.35018 
L 419.91616 591.551745 
L 421.746001 598.36284 
L 423.575843 461.996096 
L 425.405684 421.695701 
L 427.235526 451.91969 
L 429.065367 561.48704 
L 430.895209 471.537748 
L 432.72505 523.681327 
L 434.554892 548.812524 
L 436.384733 478.967086 
L 438.214575 530.25826 
L 440.044416 543.043802 
L 441.874258 499.29634 
L 445.533941 565.378609 
L 447.363782 560.827035 
L 449.193624 583.306183 
L 451.023465 496.124263 
L 452.853307 558.272019 
L 454.683148 518.687234 
L 456.51299 565.965436 
L 458.342831 545.847771 
L 460.172673 582.134745 
L 462.002514 572.970829 
L 463.832356 566.910576 
L 465.662197 595.608944 
L 467.492039 500.082763 
L 469.32188 519.858372 
L 471.151722 548.189182 
L 472.981563 489.250651 
L 474.811405 546.975466 
L 476.641246 624.520076 
L 478.471088 604.069352 
L 480.300929 675.703481 
L 482.130771 667.866872 
L 483.960612 654.291334 
L 485.790454 646.636713 
L 487.620295 563.386965 
L 489.450137 617.253236 
L 491.279978 636.174567 
L 493.10982 634.88085 
L 494.939661 614.867515 
L 496.769503 573.921382 
L 498.599344 530.473964 
L 500.429186 476.976892 
L 502.259027 464.39606 
L 504.088869 478.049432 
L 505.91871 509.256607 
L 507.748552 473.834316 
L 509.578393 491.929519 
L 511.408235 526.397342 
L 513.238076 530.643809 
L 515.067918 574.202136 
L 516.897759 602.467189 
L 518.727601 610.386638 
L 520.557442 632.308468 
L 522.387284 618.357926 
L 524.217125 577.231604 
L 526.046967 583.729196 
L 527.876808 553.674452 
L 529.70665 562.151827 
L 531.536491 598.598117 
L 533.366333 524.585971 
L 535.196174 551.376219 
L 537.026016 626.536257 
L 538.855857 610.909931 
L 540.685699 639.084139 
L 542.51554 674.805358 
L 544.345382 685.741157 
L 546.175223 690.703917 
L 548.005065 685.552631 
L 549.834906 662.886713 
L 551.664748 668.150932 
L 553.494589 659.033841 
L 555.324431 655.718889 
L 557.154272 672.003038 
L 558.984114 675.369772 
L 560.813955 679.343285 
L 562.643797 686.436719 
L 564.473638 681.60059 
L 566.30348 693.876527 
L 568.133321 680.384941 
L 569.963163 686.818632 
L 571.793004 682.912588 
L 573.622846 674.3974 
L 575.452687 689.658804 
L 577.282529 681.500967 
L 579.11237 671.806028 
L 580.942212 686.391722 
L 582.772053 649.73647 
L 584.601895 644.349241 
L 586.431736 638.045007 
L 588.261578 628.612781 
L 590.091419 538.014727 
L 591.921261 428.559285 
L 593.751102 436.005897 
L 595.580944 284.117057 
L 597.410785 306.759437 
L 599.240627 239.224426 
L 601.070468 214.181067 
L 602.90031 163.340708 
L 604.730151 155.658452 
L 606.559993 155.211951 
L 608.389834 155.144786 
L 610.219676 157.192251 
L 612.049517 155.938972 
L 613.879359 156.167053 
L 615.7092 154.956351 
L 617.539042 155.194627 
L 619.368883 155.242868 
L 621.198725 155.677375 
L 623.028566 157.514483 
L 624.858408 156.033256 
L 626.688249 184.370729 
L 628.518091 162.743819 
L 630.347932 181.916644 
L 632.177774 227.368582 
L 634.007615 224.558749 
L 635.837457 190.403913 
L 637.667298 158.375367 
L 639.49714 158.47025 
L 641.326981 156.682117 
L 643.156823 156.551719 
L 644.986664 155.707293 
L 646.816506 156.211563 
L 650.476189 156.37028 
L 652.30603 156.957373 
L 654.135872 164.041742 
L 655.965713 225.747562 
L 657.795555 206.996584 
L 659.625396 239.999422 
L 661.455238 220.883301 
L 663.285079 213.04426 
L 665.114921 272.072478 
L 666.944762 217.173305 
L 668.774604 222.397744 
L 670.604445 192.440783 
L 672.434287 190.156375 
L 674.264128 185.731219 
L 676.09397 175.822192 
L 677.923811 269.525075 
L 679.753653 267.21528 
L 681.583494 360.050583 
L 683.413336 372.309183 
L 685.243177 403.632964 
L 687.073019 501.190118 
L 688.90286 526.757321 
L 690.732702 569.888938 
L 692.562543 607.555049 
L 694.392385 538.627341 
L 696.222226 483.432788 
L 698.052068 521.624617 
L 699.881909 426.593311 
L 701.711751 479.75859 
L 703.541592 439.663621 
L 705.371434 518.390106 
L 707.201275 486.441884 
L 709.031117 516.633223 
L 710.860958 561.530168 
L 712.6908 584.706119 
L 714.520641 571.542291 
L 716.350483 619.492617 
L 720.010166 652.277069 
L 721.840007 614.438272 
L 725.49969 642.532289 
L 727.329532 654.61534 
L 729.159373 667.997279 
L 730.989215 653.676697 
L 732.819056 645.420115 
L 734.648898 659.003357 
L 736.478739 656.877942 
L 738.308581 641.016714 
L 740.138422 606.913684 
L 741.968264 631.234654 
L 743.798105 618.672978 
L 745.627947 629.704503 
L 747.457788 654.217281 
L 749.28763 659.126227 
L 751.117471 666.271421 
L 752.947313 666.173648 
L 754.777154 660.54038 
L 756.606996 648.2579 
L 758.436837 593.772736 
L 760.266679 563.65794 
L 762.09652 589.30735 
L 763.926362 598.556422 
L 765.756203 590.644019 
L 767.586045 403.613308 
L 769.415886 414.774714 
L 771.245728 350.777291 
L 773.075569 309.443535 
L 774.905411 234.736536 
L 776.735252 167.017921 
L 778.565094 154.988068 
L 780.394935 153.098521 
L 784.054618 152.91002 
L 785.88446 160.251121 
L 787.714301 156.787262 
L 789.544143 155.848019 
L 791.373984 153.37591 
L 795.033667 153.748182 
L 796.863509 153.757311 
L 798.69335 152.982382 
L 800.523192 164.084786 
L 802.353033 167.939574 
L 804.182875 191.3862 
L 806.012716 200.295616 
L 807.842558 254.530303 
L 809.672399 264.347244 
L 811.502241 258.246363 
L 813.332082 204.311086 
L 815.161924 159.787229 
L 816.991765 153.97493 
L 818.821607 153.362317 
L 820.651448 154.108461 
L 822.48129 155.757133 
L 824.311131 155.707426 
L 826.140973 155.308701 
L 827.970814 155.168307 
L 829.800656 156.616418 
L 831.630497 158.990112 
L 833.460339 159.084063 
L 835.29018 160.709348 
L 837.120022 174.231689 
L 838.949863 195.667698 
L 840.779705 205.07512 
L 842.609546 256.831501 
L 844.439388 249.951193 
L 846.269229 239.994291 
L 848.099071 219.069648 
L 851.758754 338.869607 
L 853.588595 332.285244 
L 855.418437 300.779625 
L 857.248278 312.710363 
L 859.07812 389.299414 
L 860.907961 416.045851 
L 862.737803 457.542654 
L 864.567644 445.240277 
L 866.397486 455.780074 
L 868.227327 498.99593 
L 870.057169 538.825787 
L 871.88701 495.794252 
L 873.716852 493.386925 
L 875.546693 497.604773 
L 877.376535 537.987458 
L 879.206376 511.739344 
L 881.036218 544.699088 
L 882.866059 593.517869 
L 884.695901 567.082686 
L 886.525742 546.722332 
L 888.355584 621.143838 
L 890.185425 615.209087 
L 892.015267 552.863492 
L 893.845108 612.370935 
L 895.67495 616.391853 
L 897.504791 593.351706 
L 901.164474 639.129832 
L 902.994316 606.141862 
L 904.824157 633.272998 
L 906.653999 611.377612 
L 908.48384 613.507908 
L 910.313682 641.527531 
L 912.143523 486.993663 
L 913.973365 562.126173 
L 915.803206 605.046534 
L 917.633048 544.663073 
L 919.462889 599.965245 
L 921.292731 614.648038 
L 923.122572 597.914207 
L 924.952414 612.031645 
L 926.782255 513.867117 
L 928.612097 593.153176 
L 930.441938 629.894437 
L 932.27178 636.234294 
L 934.101621 596.029474 
L 935.931463 601.431463 
L 937.761304 618.011282 
L 939.591146 593.359402 
L 941.420987 435.125357 
L 943.250829 427.403188 
L 945.08067 312.509368 
L 946.910512 250.825437 
L 948.740353 211.198557 
L 952.400036 166.237396 
L 954.229878 156.788662 
L 956.059719 154.104063 
L 959.719402 153.852794 
L 963.379085 153.536226 
L 965.208927 153.530163 
L 967.038768 154.196348 
L 968.86861 154.714811 
L 970.698451 154.897982 
L 972.528293 154.915373 
L 974.358134 153.971865 
L 976.187976 162.015599 
L 978.017817 210.719707 
L 979.847659 300.864048 
L 981.6775 318.317503 
L 983.507342 250.501106 
L 985.337183 219.926767 
L 987.167025 178.38552 
L 990.826708 157.023672 
L 992.656549 154.472004 
L 994.486391 154.369391 
L 996.316232 155.293642 
L 998.146074 156.059575 
L 999.975915 156.339163 
L 1001.805757 156.364416 
L 1003.635598 156.827641 
L 1005.46544 158.728782 
L 1007.295281 162.0148 
L 1009.125123 162.149929 
L 1010.954964 250.182639 
L 1012.784806 215.750248 
L 1014.614647 226.36314 
L 1016.444489 247.989317 
L 1018.27433 274.316573 
L 1020.104172 257.806992 
L 1021.934013 217.625835 
L 1023.763855 166.716879 
L 1025.593696 206.935149 
L 1027.423538 201.496089 
L 1029.253379 242.310748 
L 1031.083221 209.808316 
L 1032.913062 316.981833 
L 1034.742904 253.115574 
L 1036.572745 271.085193 
L 1038.402587 304.026863 
L 1040.232428 288.037843 
L 1042.06227 325.816355 
L 1043.892111 307.141137 
L 1045.721953 354.906568 
L 1047.551794 355.31772 
L 1049.381636 386.542186 
L 1051.211478 420.065386 
L 1053.041319 438.700857 
L 1054.871161 448.483717 
L 1056.701002 453.404814 
L 1058.530844 447.015983 
L 1060.360685 507.595391 
L 1062.190527 422.035124 
L 1064.020368 414.540103 
L 1065.85021 487.496167 
L 1067.680051 334.704914 
L 1069.509893 349.364428 
L 1071.339734 341.654353 
L 1073.169576 341.900824 
L 1074.999417 414.831618 
L 1076.829259 339.6481 
L 1078.6591 319.438751 
L 1080.488942 291.547811 
L 1082.318783 333.893338 
L 1084.148625 351.580904 
L 1085.978466 407.074334 
L 1087.808308 408.62809 
L 1089.638149 399.58681 
L 1091.467991 378.812322 
L 1093.297832 341.846586 
L 1095.127674 319.562086 
L 1096.957515 348.88228 
L 1098.787357 353.434437 
L 1100.617198 396.640248 
L 1102.44704 474.98788 
L 1104.276881 514.211121 
L 1106.106723 486.402655 
L 1107.936564 505.702296 
L 1109.766406 527.598249 
L 1111.596247 503.816747 
L 1113.426089 547.757774 
L 1115.25593 552.511992 
L 1117.085772 525.777532 
L 1118.915613 566.877909 
L 1120.745455 524.890312 
L 1120.745455 524.890312 
" clip-path="url(#p865ecac798)" style="fill: none; stroke: #ff6347; stroke-linecap: square"/>
   </g>
   <g id="line2d_15">
    <path d="M 207.654545 687.551371 
L 209.484387 681.562501 
L 211.314228 690.67257 
L 213.14407 667.811742 
L 214.973911 690.710551 
L 216.803753 680.030422 
L 218.633594 677.514169 
L 220.463436 677.79389 
L 222.293277 692.563571 
L 224.123119 677.304303 
L 225.95296 683.55332 
L 227.782802 684.605013 
L 229.612643 680.764297 
L 231.442485 685.552048 
L 233.272326 602.72856 
L 235.102168 662.260016 
L 236.932009 642.273175 
L 238.761851 574.573925 
L 240.591692 543.82098 
L 242.421534 372.272303 
L 244.251375 302.282141 
L 246.081217 182.66362 
L 247.911058 194.933615 
L 249.7409 223.996309 
L 251.570741 169.099568 
L 253.400583 162.362219 
L 255.230424 151.821455 
L 257.060266 145.459709 
L 258.890107 144.890473 
L 260.719949 145.325579 
L 262.54979 175.252756 
L 264.379632 198.976571 
L 266.209473 240.671737 
L 268.039315 319.456808 
L 269.869156 243.235632 
L 271.698998 201.299192 
L 273.528839 185.92625 
L 275.358681 158.347981 
L 277.188522 153.591064 
L 279.018364 195.954215 
L 280.848206 180.231357 
L 282.678047 213.81709 
L 284.507889 215.044316 
L 286.33773 237.447587 
L 288.167572 180.326041 
L 289.997413 176.226581 
L 291.827255 166.623727 
L 293.657096 178.933301 
L 295.486938 178.677768 
L 297.316779 178.609803 
L 299.146621 178.236065 
L 300.976462 155.101076 
L 302.806304 153.545155 
L 304.636145 164.928346 
L 306.465987 228.459646 
L 308.295828 210.95012 
L 310.12567 203.221855 
L 311.955511 190.801872 
L 313.785353 176.434872 
L 315.615194 165.250977 
L 317.445036 179.180572 
L 319.274877 284.085807 
L 321.104719 218.707504 
L 322.93456 310.518408 
L 324.764402 371.553611 
L 326.594243 371.92565 
L 328.424085 471.761731 
L 332.083768 420.503024 
L 333.913609 460.895221 
L 335.743451 397.845086 
L 337.573292 444.507926 
L 339.403134 464.324097 
L 341.232975 334.265111 
L 343.062817 409.446629 
L 344.892658 407.060208 
L 346.7225 368.639366 
L 348.552341 484.463833 
L 350.382183 521.642524 
L 352.212024 489.353397 
L 354.041866 561.456023 
L 355.871707 549.573993 
L 357.701549 571.587517 
L 359.53139 607.587282 
L 361.361232 547.221038 
L 363.191073 569.457446 
L 365.020915 516.987921 
L 366.850756 472.816947 
L 368.680598 559.492398 
L 370.510439 550.630391 
L 372.340281 533.866143 
L 374.170122 495.427493 
L 375.999964 400.306734 
L 377.829805 460.28937 
L 379.659647 539.865211 
L 381.489488 484.091594 
L 383.31933 537.796441 
L 385.149171 436.590925 
L 386.979013 430.360778 
L 388.808854 388.64882 
L 390.638696 451.708467 
L 392.468537 440.41886 
L 394.298379 414.226667 
L 396.12822 437.768577 
L 397.958062 325.558456 
L 399.787903 450.511425 
L 401.617745 488.037818 
L 403.447586 397.158511 
L 405.277428 561.342999 
L 407.107269 527.763795 
L 408.937111 334.826184 
L 410.766952 516.679482 
L 412.596794 558.699929 
L 414.426635 522.808183 
L 416.256477 410.708437 
L 418.086318 488.138548 
L 419.91616 532.528541 
L 421.746001 573.3451 
L 423.575843 462.094778 
L 425.405684 412.410948 
L 427.235526 453.288442 
L 429.065367 524.558802 
L 430.895209 494.476856 
L 432.72505 525.625079 
L 434.554892 551.702099 
L 436.384733 457.93385 
L 438.214575 538.791489 
L 440.044416 544.734503 
L 441.874258 511.964543 
L 443.704099 549.904254 
L 445.533941 579.511897 
L 447.363782 563.265445 
L 449.193624 591.422763 
L 451.023465 527.839589 
L 452.853307 550.572055 
L 454.683148 525.732789 
L 456.51299 536.729765 
L 458.342831 563.983804 
L 460.172673 577.785548 
L 462.002514 589.693782 
L 463.832356 577.004756 
L 465.662197 602.501496 
L 467.492039 540.145115 
L 469.32188 552.075137 
L 471.151722 565.76619 
L 472.981563 522.630009 
L 476.641246 615.954664 
L 478.471088 590.932502 
L 480.300929 659.536662 
L 482.130771 641.747333 
L 483.960612 612.533159 
L 485.790454 617.132199 
L 487.620295 561.672227 
L 489.450137 613.637915 
L 491.279978 634.195067 
L 493.10982 618.504441 
L 496.769503 581.442506 
L 498.599344 546.257508 
L 500.429186 496.981332 
L 502.259027 490.940419 
L 504.088869 512.85238 
L 505.91871 520.448015 
L 507.748552 482.59914 
L 509.578393 498.547148 
L 511.408235 539.653788 
L 513.238076 508.783104 
L 515.067918 559.522749 
L 516.897759 590.973297 
L 518.727601 605.776977 
L 520.557442 636.348143 
L 522.387284 624.857416 
L 524.217125 595.150766 
L 526.046967 601.70108 
L 527.876808 566.819373 
L 529.70665 570.103642 
L 531.536491 615.524147 
L 533.366333 582.975556 
L 535.196174 593.249309 
L 537.026016 615.892138 
L 538.855857 621.048188 
L 540.685699 635.534351 
L 542.51554 675.679493 
L 544.345382 685.480935 
L 546.175223 696.665479 
L 549.834906 668.011047 
L 551.664748 665.35241 
L 553.494589 659.385833 
L 555.324431 664.044384 
L 557.154272 685.931583 
L 558.984114 685.147022 
L 560.813955 693.863405 
L 562.643797 691.656994 
L 564.473638 693.034446 
L 566.30348 703.551684 
L 568.133321 683.311813 
L 569.963163 684.160441 
L 571.793004 689.969229 
L 573.622846 678.916753 
L 575.452687 703.051429 
L 577.282529 683.432904 
L 579.11237 680.034149 
L 580.942212 693.065934 
L 584.601895 628.869872 
L 586.431736 612.591528 
L 588.261578 587.619815 
L 590.091419 474.380947 
L 591.921261 420.514318 
L 593.751102 338.696764 
L 595.580944 205.793945 
L 597.410785 253.268695 
L 599.240627 254.682057 
L 601.070468 206.934883 
L 602.90031 196.298602 
L 604.730151 178.63439 
L 606.559993 163.662207 
L 608.389834 151.957517 
L 610.219676 165.309013 
L 612.049517 156.7143 
L 613.879359 155.949433 
L 615.7092 172.512786 
L 617.539042 174.092095 
L 619.368883 172.333013 
L 621.198725 173.222149 
L 623.028566 190.618368 
L 624.858408 170.312135 
L 626.688249 205.795877 
L 628.518091 176.853387 
L 632.177774 267.098008 
L 634.007615 244.788855 
L 635.837457 208.166473 
L 637.667298 181.499628 
L 639.49714 187.158007 
L 641.326981 173.645195 
L 643.156823 174.905737 
L 644.986664 188.892702 
L 646.816506 186.597267 
L 650.476189 185.056838 
L 652.30603 162.354956 
L 654.135872 180.633447 
L 655.965713 217.82663 
L 657.795555 193.542341 
L 659.625396 247.85602 
L 661.455238 246.561329 
L 663.285079 205.850182 
L 665.114921 269.149304 
L 666.944762 215.504143 
L 668.774604 213.655708 
L 670.604445 226.665316 
L 672.434287 198.165461 
L 674.264128 202.129591 
L 676.09397 201.260245 
L 677.923811 277.19547 
L 679.753653 292.195773 
L 681.583494 357.475194 
L 683.413336 387.010642 
L 685.243177 395.076264 
L 687.073019 515.13119 
L 688.90286 499.153331 
L 690.732702 528.446856 
L 692.562543 598.500684 
L 694.392385 557.887886 
L 696.222226 507.146275 
L 698.052068 527.235005 
L 699.881909 442.579199 
L 701.711751 476.873496 
L 703.541592 474.470067 
L 705.371434 527.516325 
L 707.201275 531.924956 
L 709.031117 539.628618 
L 710.860958 588.084489 
L 712.6908 602.643238 
L 714.520641 593.258937 
L 716.350483 624.245394 
L 718.180324 635.239472 
L 720.010166 639.858327 
L 721.840007 621.452802 
L 723.669849 618.146695 
L 725.49969 632.125006 
L 727.329532 648.459495 
L 729.159373 667.422304 
L 730.989215 654.694623 
L 732.819056 654.859246 
L 734.648898 669.019374 
L 736.478739 656.700585 
L 738.308581 629.014163 
L 740.138422 621.206847 
L 741.968264 629.920124 
L 743.798105 614.653935 
L 745.627947 622.275748 
L 747.457788 658.956807 
L 749.28763 667.558841 
L 751.117471 677.80924 
L 752.947313 681.278108 
L 754.777154 680.107498 
L 756.606996 664.159241 
L 758.436837 625.572418 
L 760.266679 576.147304 
L 762.09652 588.504836 
L 763.926362 592.178418 
L 765.756203 545.985016 
L 767.586045 373.350606 
L 769.415886 350.709726 
L 771.245728 299.667939 
L 773.075569 274.177046 
L 774.905411 252.83039 
L 776.735252 199.541109 
L 778.565094 170.144689 
L 780.394935 159.590999 
L 782.224777 154.589743 
L 784.054618 145.482497 
L 785.88446 181.893755 
L 787.714301 156.119344 
L 789.544143 155.758799 
L 791.373984 167.427041 
L 793.203826 164.651957 
L 795.033667 164.293277 
L 796.863509 163.200981 
L 798.69335 165.179015 
L 800.523192 196.071621 
L 802.353033 194.714696 
L 804.182875 220.448561 
L 806.012716 236.564182 
L 807.842558 270.837056 
L 809.672399 289.567278 
L 811.502241 278.014843 
L 813.332082 223.506099 
L 815.161924 182.58143 
L 816.991765 169.292001 
L 818.821607 166.062687 
L 820.651448 178.564627 
L 822.48129 185.004265 
L 824.311131 180.596433 
L 826.140973 179.536253 
L 827.970814 158.430338 
L 829.800656 158.106573 
L 831.630497 157.267345 
L 833.460339 165.122511 
L 835.29018 179.300776 
L 837.120022 209.460298 
L 838.949863 221.081398 
L 840.779705 206.304612 
L 842.609546 251.312782 
L 844.439388 260.8566 
L 846.269229 215.275495 
L 848.099071 234.011314 
L 849.928912 297.714325 
L 851.758754 337.622858 
L 853.588595 318.951605 
L 855.418437 306.693238 
L 857.248278 343.598205 
L 859.07812 431.482325 
L 860.907961 397.898991 
L 862.737803 425.896242 
L 864.567644 465.640493 
L 866.397486 463.573039 
L 868.227327 505.667464 
L 870.057169 531.655964 
L 871.88701 516.640036 
L 873.716852 503.832955 
L 875.546693 509.635976 
L 877.376535 554.246987 
L 879.206376 533.71827 
L 881.036218 570.822517 
L 882.866059 616.18546 
L 884.695901 610.911672 
L 886.525742 602.193523 
L 888.355584 632.967266 
L 890.185425 626.285546 
L 892.015267 545.207472 
L 893.845108 599.206158 
L 895.67495 613.601101 
L 897.504791 592.858396 
L 899.334633 598.451643 
L 901.164474 631.360547 
L 902.994316 615.637979 
L 904.824157 631.558443 
L 906.653999 616.108042 
L 908.48384 624.637206 
L 910.313682 648.381461 
L 912.143523 562.770054 
L 913.973365 610.637007 
L 915.803206 607.118877 
L 917.633048 552.66403 
L 919.462889 604.929037 
L 921.292731 604.782247 
L 923.122572 597.708098 
L 924.952414 617.233122 
L 926.782255 545.636665 
L 928.612097 601.823116 
L 930.441938 631.218013 
L 932.27178 642.442761 
L 934.101621 642.506903 
L 935.931463 616.503336 
L 937.761304 612.258569 
L 939.591146 584.705403 
L 941.420987 431.395304 
L 943.250829 442.937812 
L 945.08067 269.562289 
L 946.910512 228.995533 
L 948.740353 228.710248 
L 950.570195 205.627299 
L 952.400036 187.410276 
L 954.229878 171.504646 
L 956.059719 163.574252 
L 957.889561 158.218249 
L 959.719402 147.678151 
L 961.549244 147.638838 
L 963.379085 148.393511 
L 965.208927 150.00447 
L 967.038768 166.902315 
L 968.86861 168.392271 
L 970.698451 167.504601 
L 972.528293 166.085741 
L 974.358134 167.886601 
L 976.187976 193.52505 
L 978.017817 224.219326 
L 979.847659 273.391989 
L 981.6775 314.14628 
L 983.507342 250.563373 
L 985.337183 257.069477 
L 987.167025 223.571731 
L 988.996866 182.697802 
L 990.826708 174.992492 
L 992.656549 169.239228 
L 994.486391 168.773405 
L 996.316232 180.340466 
L 998.146074 180.099159 
L 999.975915 180.153231 
L 1001.805757 179.826435 
L 1003.635598 161.222414 
L 1005.46544 161.404052 
L 1007.295281 160.343872 
L 1009.125123 168.010736 
L 1010.954964 240.644552 
L 1012.784806 213.637417 
L 1014.614647 210.116755 
L 1016.444489 268.730523 
L 1018.27433 276.299605 
L 1020.104172 237.589746 
L 1021.934013 210.933229 
L 1023.763855 194.400493 
L 1025.593696 232.606015 
L 1027.423538 215.85969 
L 1029.253379 243.890191 
L 1031.083221 241.525492 
L 1032.913062 303.687507 
L 1034.742904 249.86767 
L 1036.572745 261.579456 
L 1038.402587 328.545663 
L 1040.232428 285.171806 
L 1042.06227 333.897869 
L 1043.892111 334.818455 
L 1045.721953 368.449565 
L 1047.551794 376.197653 
L 1049.381636 374.830833 
L 1051.211478 450.415275 
L 1053.041319 423.962984 
L 1054.871161 438.611604 
L 1056.701002 464.679212 
L 1058.530844 453.826961 
L 1060.360685 524.761963 
L 1062.190527 442.438572 
L 1064.020368 421.515662 
L 1065.85021 495.369107 
L 1067.680051 335.099442 
L 1069.509893 362.514063 
L 1071.339734 385.50726 
L 1073.169576 345.585967 
L 1074.999417 422.947381 
L 1076.829259 320.236801 
L 1078.6591 289.370814 
L 1080.488942 326.831891 
L 1082.318783 336.710901 
L 1084.148625 333.468327 
L 1085.978466 389.145894 
L 1087.808308 404.568342 
L 1089.638149 375.860429 
L 1091.467991 375.129877 
L 1093.297832 353.678143 
L 1095.127674 334.608964 
L 1096.957515 341.117966 
L 1098.787357 339.54692 
L 1100.617198 375.67356 
L 1102.44704 480.030048 
L 1104.276881 512.988959 
L 1106.106723 519.551216 
L 1107.936564 536.422908 
L 1109.766406 570.863362 
L 1111.596247 541.849642 
L 1113.426089 590.0094 
L 1115.25593 598.84049 
L 1117.085772 559.832887 
L 1118.915613 601.815221 
L 1120.745455 571.198554 
L 1120.745455 571.198554 
" clip-path="url(#p865ecac798)" style="fill: none; stroke: #da70d6; stroke-linecap: square"/>
   </g>
   <g id="line2d_16">
    <path d="M 207.654545 662.955719 
L 209.484387 661.331151 
L 211.314228 667.474244 
L 213.14407 656.783058 
L 214.973911 672.634645 
L 216.803753 664.331717 
L 218.633594 664.267343 
L 220.463436 661.863314 
L 222.293277 675.474109 
L 224.123119 655.902393 
L 225.95296 662.856188 
L 227.782802 666.75407 
L 229.612643 668.26648 
L 231.442485 650.089977 
L 233.272326 605.518637 
L 235.102168 655.128705 
L 236.932009 645.749843 
L 238.761851 627.634508 
L 240.591692 559.225421 
L 242.421534 304.899241 
L 244.251375 293.700354 
L 246.081217 176.256832 
L 247.911058 160.37912 
L 249.7409 150.658528 
L 251.570741 148.917371 
L 253.400583 147.750447 
L 255.230424 146.423939 
L 258.890107 146.885032 
L 260.719949 147.180078 
L 262.54979 149.4365 
L 264.379632 150.556648 
L 266.209473 163.630023 
L 268.039315 254.687587 
L 269.869156 204.810259 
L 271.698998 168.365151 
L 273.528839 149.528185 
L 275.358681 147.694542 
L 277.188522 147.89064 
L 279.018364 150.568975 
L 280.848206 149.819833 
L 282.678047 154.595073 
L 284.507889 152.407082 
L 286.33773 165.227856 
L 288.167572 155.850551 
L 289.997413 154.018708 
L 291.827255 149.013654 
L 295.486938 149.295173 
L 297.316779 149.23194 
L 299.146621 148.936761 
L 300.976462 149.853682 
L 302.806304 151.237426 
L 304.636145 154.892651 
L 306.465987 217.419143 
L 308.295828 182.802948 
L 310.12567 173.075959 
L 311.955511 161.884068 
L 313.785353 157.203045 
L 315.615194 158.266024 
L 317.445036 161.914985 
L 319.274877 301.030694 
L 321.104719 247.746178 
L 322.93456 358.495361 
L 324.764402 370.056859 
L 326.594243 372.344565 
L 328.424085 429.304896 
L 330.253926 444.206683 
L 332.083768 428.187645 
L 333.913609 455.503452 
L 335.743451 401.304946 
L 337.573292 433.83663 
L 339.403134 471.453792 
L 341.232975 324.926986 
L 343.062817 380.187104 
L 344.892658 397.978516 
L 346.7225 406.618705 
L 348.552341 491.989055 
L 350.382183 533.834176 
L 352.212024 494.62856 
L 354.041866 523.126033 
L 355.871707 520.197212 
L 357.701549 543.713819 
L 359.53139 572.335727 
L 361.361232 489.36819 
L 363.191073 551.923633 
L 366.850756 451.809747 
L 368.680598 497.808883 
L 370.510439 501.511151 
L 372.340281 512.173834 
L 374.170122 473.064518 
L 375.999964 396.575149 
L 377.829805 428.541827 
L 379.659647 495.620842 
L 381.489488 461.827001 
L 383.31933 487.966472 
L 385.149171 418.394958 
L 386.979013 421.131662 
L 388.808854 389.544086 
L 390.638696 430.180239 
L 392.468537 436.975724 
L 394.298379 432.39235 
L 396.12822 421.157016 
L 397.958062 339.695842 
L 399.787903 414.05599 
L 401.617745 448.907895 
L 403.447586 410.18551 
L 405.277428 505.220164 
L 407.107269 489.77716 
L 408.937111 385.683901 
L 410.766952 470.4163 
L 412.596794 519.828438 
L 414.426635 552.335901 
L 416.256477 473.065817 
L 418.086318 511.559588 
L 419.91616 555.194792 
L 421.746001 580.136321 
L 423.575843 442.168147 
L 425.405684 416.791928 
L 427.235526 422.031593 
L 429.065367 503.399232 
L 430.895209 472.770355 
L 432.72505 537.196571 
L 434.554892 545.090417 
L 436.384733 459.586321 
L 438.214575 502.869025 
L 440.044416 517.709977 
L 441.874258 486.034463 
L 443.704099 510.570904 
L 445.533941 541.312139 
L 447.363782 538.774814 
L 449.193624 564.403051 
L 451.023465 496.423457 
L 452.853307 534.390236 
L 454.683148 505.795397 
L 456.51299 533.732829 
L 458.342831 534.283292 
L 460.172673 560.226015 
L 462.002514 560.925883 
L 463.832356 560.213422 
L 465.662197 578.44597 
L 467.492039 504.154687 
L 469.32188 510.201547 
L 471.151722 533.6296 
L 472.981563 491.019145 
L 474.811405 533.013788 
L 476.641246 596.620516 
L 478.471088 582.436004 
L 480.300929 667.034515 
L 482.130771 648.671434 
L 483.960612 643.248441 
L 485.790454 637.415636 
L 487.620295 563.065883 
L 489.450137 586.642741 
L 491.279978 613.624997 
L 493.10982 612.723776 
L 494.939661 629.609377 
L 498.599344 535.531091 
L 500.429186 480.744275 
L 502.259027 460.561228 
L 504.088869 470.439238 
L 505.91871 487.078402 
L 507.748552 467.471271 
L 509.578393 482.170964 
L 511.408235 515.370449 
L 513.238076 514.203741 
L 515.067918 557.715426 
L 516.897759 582.715908 
L 518.727601 593.347308 
L 520.557442 616.250018 
L 522.387284 606.50862 
L 524.217125 578.66299 
L 526.046967 568.697926 
L 527.876808 551.833147 
L 529.70665 555.111086 
L 531.536491 588.839078 
L 533.366333 531.223706 
L 535.196174 542.091216 
L 537.026016 582.786838 
L 538.855857 586.404149 
L 540.685699 600.528226 
L 542.51554 651.119815 
L 544.345382 665.507071 
L 546.175223 678.75059 
L 548.005065 676.363107 
L 549.834906 664.355955 
L 551.664748 662.848725 
L 553.494589 642.291382 
L 555.324431 637.452849 
L 557.154272 665.469349 
L 558.984114 652.423434 
L 560.813955 670.310754 
L 562.643797 684.151179 
L 564.473638 657.841997 
L 566.30348 689.927726 
L 568.133321 675.393967 
L 569.963163 666.171174 
L 571.793004 684.437321 
L 573.622846 651.670452 
L 575.452687 685.222207 
L 577.282529 667.84146 
L 579.11237 654.772166 
L 580.942212 684.55546 
L 582.772053 624.91178 
L 584.601895 612.996525 
L 586.431736 607.904717 
L 588.261578 596.700724 
L 590.091419 487.817683 
L 591.921261 364.554631 
L 593.751102 293.917341 
L 595.580944 242.818783 
L 597.410785 244.553178 
L 599.240627 182.048008 
L 601.070468 165.345461 
L 602.90031 154.523444 
L 604.730151 149.078686 
L 606.559993 148.47147 
L 608.389834 148.901912 
L 610.219676 150.041517 
L 612.049517 150.302581 
L 613.879359 150.736155 
L 615.7092 149.942702 
L 619.368883 149.987079 
L 621.198725 149.891262 
L 623.028566 150.431247 
L 624.858408 150.21476 
L 626.688249 159.187343 
L 628.518091 153.544488 
L 630.347932 160.216072 
L 632.177774 176.984585 
L 634.007615 171.36212 
L 635.837457 163.504889 
L 637.667298 154.663038 
L 639.49714 153.238515 
L 641.326981 153.36265 
L 643.156823 153.976196 
L 644.986664 153.06947 
L 648.646347 153.949144 
L 650.476189 153.44021 
L 652.30603 154.368991 
L 654.135872 158.879637 
L 655.965713 205.70829 
L 657.795555 178.223072 
L 659.625396 219.879025 
L 661.455238 191.777529 
L 663.285079 180.145268 
L 665.114921 280.319639 
L 666.944762 203.712598 
L 668.774604 204.294728 
L 670.604445 207.530672 
L 672.434287 187.417938 
L 674.264128 187.785446 
L 676.09397 183.619088 
L 677.923811 313.594002 
L 679.753653 323.545773 
L 681.583494 372.107722 
L 683.413336 393.460108 
L 685.243177 403.235638 
L 687.073019 483.876806 
L 688.90286 517.31465 
L 690.732702 563.457728 
L 692.562543 585.721372 
L 696.222226 492.911473 
L 698.052068 511.7612 
L 699.881909 455.139575 
L 701.711751 477.656954 
L 703.541592 457.934483 
L 705.371434 498.399425 
L 707.201275 499.804625 
L 709.031117 504.703517 
L 710.860958 533.165859 
L 712.6908 555.174253 
L 714.520641 571.335549 
L 716.350483 582.880189 
L 718.180324 609.436967 
L 720.010166 629.628451 
L 721.840007 617.989452 
L 723.669849 609.68946 
L 725.49969 624.01648 
L 727.329532 644.082872 
L 729.159373 643.383553 
L 730.989215 642.550588 
L 732.819056 647.621224 
L 734.648898 655.454976 
L 736.478739 627.366457 
L 738.308581 625.246872 
L 740.138422 601.918983 
L 741.968264 611.581381 
L 743.798105 606.143778 
L 745.627947 610.031381 
L 747.457788 649.506324 
L 749.28763 637.034135 
L 751.117471 647.649276 
L 752.947313 655.155491 
L 754.777154 655.667282 
L 756.606996 635.008859 
L 758.436837 588.707863 
L 760.266679 560.093368 
L 762.09652 569.94734 
L 763.926362 584.965367 
L 765.756203 566.738516 
L 767.586045 359.670614 
L 769.415886 309.284885 
L 771.245728 334.970143 
L 773.075569 242.208802 
L 774.905411 176.659621 
L 776.735252 155.532384 
L 778.565094 150.740952 
L 780.394935 148.463408 
L 782.224777 148.126584 
L 784.054618 148.415899 
L 785.88446 151.933863 
L 787.714301 151.201245 
L 789.544143 152.32246 
L 791.373984 149.963025 
L 793.203826 149.716953 
L 795.033667 149.741474 
L 796.863509 149.507196 
L 798.69335 149.052767 
L 800.523192 153.435545 
L 802.353033 154.013377 
L 804.182875 160.410571 
L 806.012716 164.091183 
L 807.842558 196.473677 
L 809.672399 213.14744 
L 811.502241 196.84555 
L 813.332082 171.62485 
L 815.161924 158.370436 
L 816.991765 153.009035 
L 818.821607 151.653942 
L 820.651448 152.429004 
L 822.48129 153.876648 
L 824.311131 154.256184 
L 827.970814 153.938016 
L 829.800656 154.557759 
L 831.630497 155.713956 
L 833.460339 156.712101 
L 835.29018 158.716055 
L 837.120022 171.168021 
L 838.949863 180.915433 
L 840.779705 179.187168 
L 842.609546 275.057253 
L 844.439388 284.332511 
L 846.269229 228.57322 
L 848.099071 237.545936 
L 849.928912 320.462816 
L 851.758754 368.340522 
L 853.588595 353.936408 
L 855.418437 337.024137 
L 857.248278 354.253176 
L 859.07812 408.614797 
L 860.907961 415.840125 
L 862.737803 444.744735 
L 864.567644 449.966443 
L 866.397486 451.787026 
L 868.227327 489.332825 
L 870.057169 522.237547 
L 871.88701 502.275335 
L 873.716852 489.507634 
L 875.546693 491.552516 
L 877.376535 527.312598 
L 879.206376 525.119776 
L 881.036218 542.145671 
L 882.866059 573.774909 
L 884.695901 558.490521 
L 886.525742 538.584863 
L 888.355584 583.584255 
L 890.185425 584.603489 
L 892.015267 579.034863 
L 893.845108 604.267124 
L 895.67495 591.410669 
L 897.504791 581.930385 
L 899.334633 604.248167 
L 901.164474 619.424003 
L 902.994316 603.909477 
L 904.824157 618.595635 
L 906.653999 608.605442 
L 908.48384 607.22812 
L 910.313682 625.705615 
L 912.143523 476.368609 
L 913.973365 539.667115 
L 915.803206 575.690376 
L 917.633048 550.94008 
L 919.462889 586.325124 
L 921.292731 593.651133 
L 923.122572 586.456555 
L 924.952414 597.222801 
L 926.782255 492.113656 
L 928.612097 566.547182 
L 930.441938 609.979925 
L 932.27178 611.532698 
L 934.101621 592.846936 
L 935.931463 591.430858 
L 937.761304 593.367231 
L 939.591146 576.38348 
L 941.420987 386.37534 
L 943.250829 370.148145 
L 945.08067 257.461239 
L 946.910512 198.668798 
L 948.740353 163.952722 
L 950.570195 157.285002 
L 952.400036 154.369258 
L 954.229878 151.203777 
L 956.059719 148.674831 
L 957.889561 148.302358 
L 961.549244 149.050701 
L 963.379085 149.58249 
L 965.208927 149.592485 
L 967.038768 150.098487 
L 968.86861 150.368613 
L 970.698451 150.494214 
L 972.528293 150.238881 
L 974.358134 149.607144 
L 976.187976 153.148628 
L 978.017817 168.626215 
L 979.847659 256.992051 
L 981.6775 323.799508 
L 983.507342 217.525421 
L 985.337183 183.864926 
L 987.167025 160.336143 
L 988.996866 159.087262 
L 990.826708 155.656919 
L 992.656549 153.017897 
L 994.486391 152.766028 
L 996.316232 153.789427 
L 998.146074 154.538836 
L 999.975915 155.139056 
L 1001.805757 154.743529 
L 1005.46544 156.80985 
L 1007.295281 158.842856 
L 1009.125123 159.954475 
L 1010.954964 254.766946 
L 1012.784806 197.423382 
L 1014.614647 190.806969 
L 1016.444489 277.024426 
L 1018.27433 311.075383 
L 1020.104172 250.906494 
L 1021.934013 210.083506 
L 1023.763855 181.316457 
L 1025.593696 252.227905 
L 1027.423538 211.245832 
L 1029.253379 257.428956 
L 1031.083221 239.028295 
L 1032.913062 346.382185 
L 1034.742904 292.877783 
L 1036.572745 291.539682 
L 1038.402587 348.246478 
L 1040.232428 332.52382 
L 1042.06227 369.663531 
L 1043.892111 365.704231 
L 1045.721953 390.056718 
L 1047.551794 396.518112 
L 1049.381636 409.960827 
L 1051.211478 444.550037 
L 1053.041319 439.313237 
L 1054.871161 444.745668 
L 1056.701002 456.200588 
L 1058.530844 450.64792 
L 1060.360685 496.38581 
L 1062.190527 430.149221 
L 1064.020368 410.107284 
L 1065.85021 462.561901 
L 1067.680051 338.455157 
L 1069.509893 379.376494 
L 1071.339734 375.836875 
L 1073.169576 356.357344 
L 1074.999417 407.000739 
L 1076.829259 367.163569 
L 1078.6591 349.821056 
L 1080.488942 339.504242 
L 1082.318783 361.956488 
L 1084.148625 377.011428 
L 1085.978466 407.875583 
L 1087.808308 415.666815 
L 1089.638149 400.931275 
L 1091.467991 379.113598 
L 1093.297832 365.222716 
L 1095.127674 356.057534 
L 1096.957515 374.375105 
L 1098.787357 380.032651 
L 1100.617198 404.638339 
L 1102.44704 469.954441 
L 1104.276881 497.945795 
L 1106.106723 479.480202 
L 1107.936564 482.982107 
L 1109.766406 512.423654 
L 1111.596247 501.233046 
L 1113.426089 533.180868 
L 1115.25593 543.089278 
L 1117.085772 518.41451 
L 1118.915613 544.458314 
L 1120.745455 490.120414 
L 1120.745455 490.120414 
" clip-path="url(#p865ecac798)" style="fill: none; stroke: #8fbc8f; stroke-linecap: square"/>
   </g>
   <g id="patch_3">
    <path d="M 162 768.96 
L 162 103.68 
" style="fill: none; stroke: #000000; stroke-width: 0.8; stroke-linejoin: miter; stroke-linecap: square"/>
   </g>
   <g id="patch_4">
    <path d="M 1166.4 768.96 
L 1166.4 103.68 
" style="fill: none; stroke: #000000; stroke-width: 0.8; stroke-linejoin: miter; stroke-linecap: square"/>
   </g>
   <g id="patch_5">
    <path d="M 162 768.96 
L 1166.4 768.96 
" style="fill: none; stroke: #000000; stroke-width: 0.8; stroke-linejoin: miter; stroke-linecap: square"/>
   </g>
   <g id="patch_6">
    <path d="M 162 103.68 
L 1166.4 103.68 
" style="fill: none; stroke: #000000; stroke-width: 0.8; stroke-linejoin: miter; stroke-linecap: square"/>
   </g>
   <g id="text_13">
    <!-- Function 1 -->
    <g transform="translate(632.957813 97.68) scale(0.12 -0.12)">
     <defs>
      <path id="DejaVuSans-46" d="M 628 4666 
L 3309 4666 
L 3309 4134 
L 1259 4134 
L 1259 2759 
L 3109 2759 
L 3109 2228 
L 1259 2228 
L 1259 0 
L 628 0 
L 628 4666 
z
" transform="scale(0.015625)"/>
      <path id="DejaVuSans-75" d="M 544 1381 
L 544 3500 
L 1119 3500 
L 1119 1403 
Q 1119 906 1312 657 
Q 1506 409 1894 409 
Q 2359 409 2629 706 
Q 2900 1003 2900 1516 
L 2900 3500 
L 3475 3500 
L 3475 0 
L 2900 0 
L 2900 538 
Q 2691 219 2414 64 
Q 2138 -91 1772 -91 
Q 1169 -91 856 284 
Q 544 659 544 1381 
z
M 1991 3584 
L 1991 3584 
z
" transform="scale(0.015625)"/>
      <path id="DejaVuSans-6e" d="M 3513 2113 
L 3513 0 
L 2938 0 
L 2938 2094 
Q 2938 2591 2744 2837 
Q 2550 3084 2163 3084 
Q 1697 3084 1428 2787 
Q 1159 2491 1159 1978 
L 1159 0 
L 581 0 
L 581 3500 
L 1159 3500 
L 1159 2956 
Q 1366 3272 1645 3428 
Q 1925 3584 2291 3584 
Q 2894 3584 3203 3211 
Q 3513 2838 3513 2113 
z
" transform="scale(0.015625)"/>
      <path id="DejaVuSans-63" d="M 3122 3366 
L 3122 2828 
Q 2878 2963 2633 3030 
Q 2388 3097 2138 3097 
Q 1578 3097 1268 2742 
Q 959 2388 959 1747 
Q 959 1106 1268 751 
Q 1578 397 2138 397 
Q 2388 397 2633 464 
Q 2878 531 3122 666 
L 3122 134 
Q 2881 22 2623 -34 
Q 2366 -91 2075 -91 
Q 1284 -91 818 406 
Q 353 903 353 1747 
Q 353 2603 823 3093 
Q 1294 3584 2113 3584 
Q 2378 3584 2631 3529 
Q 2884 3475 3122 3366 
z
" transform="scale(0.015625)"/>
      <path id="DejaVuSans-74" d="M 1172 4494 
L 1172 3500 
L 2356 3500 
L 2356 3053 
L 1172 3053 
L 1172 1153 
Q 1172 725 1289 603 
Q 1406 481 1766 481 
L 2356 481 
L 2356 0 
L 1766 0 
Q 1100 0 847 248 
Q 594 497 594 1153 
L 594 3053 
L 172 3053 
L 172 3500 
L 594 3500 
L 594 4494 
L 1172 4494 
z
" transform="scale(0.015625)"/>
      <path id="DejaVuSans-69" d="M 603 3500 
L 1178 3500 
L 1178 0 
L 603 0 
L 603 3500 
z
M 603 4863 
L 1178 4863 
L 1178 4134 
L 603 4134 
L 603 4863 
z
" transform="scale(0.015625)"/>
      <path id="DejaVuSans-6f" d="M 1959 3097 
Q 1497 3097 1228 2736 
Q 959 2375 959 1747 
Q 959 1119 1226 758 
Q 1494 397 1959 397 
Q 2419 397 2687 759 
Q 2956 1122 2956 1747 
Q 2956 2369 2687 2733 
Q 2419 3097 1959 3097 
z
M 1959 3584 
Q 2709 3584 3137 3096 
Q 3566 2609 3566 1747 
Q 3566 888 3137 398 
Q 2709 -91 1959 -91 
Q 1206 -91 779 398 
Q 353 888 353 1747 
Q 353 2609 779 3096 
Q 1206 3584 1959 3584 
z
" transform="scale(0.015625)"/>
      <path id="DejaVuSans-20" transform="scale(0.015625)"/>
     </defs>
     <use xlink:href="#DejaVuSans-46"/>
     <use xlink:href="#DejaVuSans-75" x="52.019531"/>
     <use xlink:href="#DejaVuSans-6e" x="115.398438"/>
     <use xlink:href="#DejaVuSans-63" x="178.777344"/>
     <use xlink:href="#DejaVuSans-74" x="233.757812"/>
     <use xlink:href="#DejaVuSans-69" x="272.966797"/>
     <use xlink:href="#DejaVuSans-6f" x="300.75"/>
     <use xlink:href="#DejaVuSans-6e" x="361.931641"/>
     <use xlink:href="#DejaVuSans-20" x="425.310547"/>
     <use xlink:href="#DejaVuSans-31" x="457.097656"/>
    </g>
   </g>
   <g id="legend_1">
    <g id="patch_7">
     <path d="M 1011.90625 763.96 
L 1159.4 763.96 
Q 1161.4 763.96 1161.4 761.96 
L 1161.4 704.2475 
Q 1161.4 702.2475 1159.4 702.2475 
L 1011.90625 702.2475 
Q 1009.90625 702.2475 1009.90625 704.2475 
L 1009.90625 761.96 
Q 1009.90625 763.96 1011.90625 763.96 
z
" style="fill: #ffffff; opacity: 0.8; stroke: #cccccc; stroke-linejoin: miter"/>
    </g>
    <g id="line2d_17">
     <path d="M 1013.90625 710.345937 
L 1023.90625 710.345937 
L 1033.90625 710.345937 
" style="fill: none; stroke: #4169e1; stroke-linecap: square"/>
    </g>
    <g id="text_14">
     <!-- Truth -->
     <g transform="translate(1041.90625 713.845937) scale(0.1 -0.1)">
      <defs>
       <path id="DejaVuSans-54" d="M -19 4666 
L 3928 4666 
L 3928 4134 
L 2272 4134 
L 2272 0 
L 1638 0 
L 1638 4134 
L -19 4134 
L -19 4666 
z
" transform="scale(0.015625)"/>
       <path id="DejaVuSans-72" d="M 2631 2963 
Q 2534 3019 2420 3045 
Q 2306 3072 2169 3072 
Q 1681 3072 1420 2755 
Q 1159 2438 1159 1844 
L 1159 0 
L 581 0 
L 581 3500 
L 1159 3500 
L 1159 2956 
Q 1341 3275 1631 3429 
Q 1922 3584 2338 3584 
Q 2397 3584 2469 3576 
Q 2541 3569 2628 3553 
L 2631 2963 
z
" transform="scale(0.015625)"/>
       <path id="DejaVuSans-68" d="M 3513 2113 
L 3513 0 
L 2938 0 
L 2938 2094 
Q 2938 2591 2744 2837 
Q 2550 3084 2163 3084 
Q 1697 3084 1428 2787 
Q 1159 2491 1159 1978 
L 1159 0 
L 581 0 
L 581 4863 
L 1159 4863 
L 1159 2956 
Q 1366 3272 1645 3428 
Q 1925 3584 2291 3584 
Q 2894 3584 3203 3211 
Q 3513 2838 3513 2113 
z
" transform="scale(0.015625)"/>
      </defs>
      <use xlink:href="#DejaVuSans-54"/>
      <use xlink:href="#DejaVuSans-72" x="46.333984"/>
      <use xlink:href="#DejaVuSans-75" x="87.447266"/>
      <use xlink:href="#DejaVuSans-74" x="150.826172"/>
      <use xlink:href="#DejaVuSans-68" x="190.035156"/>
     </g>
    </g>
    <g id="line2d_18">
     <path d="M 1013.90625 725.024063 
L 1023.90625 725.024063 
L 1033.90625 725.024063 
" style="fill: none; stroke: #ff6347; stroke-linecap: square"/>
    </g>
    <g id="text_15">
     <!-- Gossip predictions -->
     <g transform="translate(1041.90625 728.524063) scale(0.1 -0.1)">
      <defs>
       <path id="DejaVuSans-47" d="M 3809 666 
L 3809 1919 
L 2778 1919 
L 2778 2438 
L 4434 2438 
L 4434 434 
Q 4069 175 3628 42 
Q 3188 -91 2688 -91 
Q 1594 -91 976 548 
Q 359 1188 359 2328 
Q 359 3472 976 4111 
Q 1594 4750 2688 4750 
Q 3144 4750 3555 4637 
Q 3966 4525 4313 4306 
L 4313 3634 
Q 3963 3931 3569 4081 
Q 3175 4231 2741 4231 
Q 1884 4231 1454 3753 
Q 1025 3275 1025 2328 
Q 1025 1384 1454 906 
Q 1884 428 2741 428 
Q 3075 428 3337 486 
Q 3600 544 3809 666 
z
" transform="scale(0.015625)"/>
       <path id="DejaVuSans-73" d="M 2834 3397 
L 2834 2853 
Q 2591 2978 2328 3040 
Q 2066 3103 1784 3103 
Q 1356 3103 1142 2972 
Q 928 2841 928 2578 
Q 928 2378 1081 2264 
Q 1234 2150 1697 2047 
L 1894 2003 
Q 2506 1872 2764 1633 
Q 3022 1394 3022 966 
Q 3022 478 2636 193 
Q 2250 -91 1575 -91 
Q 1294 -91 989 -36 
Q 684 19 347 128 
L 347 722 
Q 666 556 975 473 
Q 1284 391 1588 391 
Q 1994 391 2212 530 
Q 2431 669 2431 922 
Q 2431 1156 2273 1281 
Q 2116 1406 1581 1522 
L 1381 1569 
Q 847 1681 609 1914 
Q 372 2147 372 2553 
Q 372 3047 722 3315 
Q 1072 3584 1716 3584 
Q 2034 3584 2315 3537 
Q 2597 3491 2834 3397 
z
" transform="scale(0.015625)"/>
       <path id="DejaVuSans-70" d="M 1159 525 
L 1159 -1331 
L 581 -1331 
L 581 3500 
L 1159 3500 
L 1159 2969 
Q 1341 3281 1617 3432 
Q 1894 3584 2278 3584 
Q 2916 3584 3314 3078 
Q 3713 2572 3713 1747 
Q 3713 922 3314 415 
Q 2916 -91 2278 -91 
Q 1894 -91 1617 61 
Q 1341 213 1159 525 
z
M 3116 1747 
Q 3116 2381 2855 2742 
Q 2594 3103 2138 3103 
Q 1681 3103 1420 2742 
Q 1159 2381 1159 1747 
Q 1159 1113 1420 752 
Q 1681 391 2138 391 
Q 2594 391 2855 752 
Q 3116 1113 3116 1747 
z
" transform="scale(0.015625)"/>
       <path id="DejaVuSans-65" d="M 3597 1894 
L 3597 1613 
L 953 1613 
Q 991 1019 1311 708 
Q 1631 397 2203 397 
Q 2534 397 2845 478 
Q 3156 559 3463 722 
L 3463 178 
Q 3153 47 2828 -22 
Q 2503 -91 2169 -91 
Q 1331 -91 842 396 
Q 353 884 353 1716 
Q 353 2575 817 3079 
Q 1281 3584 2069 3584 
Q 2775 3584 3186 3129 
Q 3597 2675 3597 1894 
z
M 3022 2063 
Q 3016 2534 2758 2815 
Q 2500 3097 2075 3097 
Q 1594 3097 1305 2825 
Q 1016 2553 972 2059 
L 3022 2063 
z
" transform="scale(0.015625)"/>
       <path id="DejaVuSans-64" d="M 2906 2969 
L 2906 4863 
L 3481 4863 
L 3481 0 
L 2906 0 
L 2906 525 
Q 2725 213 2448 61 
Q 2172 -91 1784 -91 
Q 1150 -91 751 415 
Q 353 922 353 1747 
Q 353 2572 751 3078 
Q 1150 3584 1784 3584 
Q 2172 3584 2448 3432 
Q 2725 3281 2906 2969 
z
M 947 1747 
Q 947 1113 1208 752 
Q 1469 391 1925 391 
Q 2381 391 2643 752 
Q 2906 1113 2906 1747 
Q 2906 2381 2643 2742 
Q 2381 3103 1925 3103 
Q 1469 3103 1208 2742 
Q 947 2381 947 1747 
z
" transform="scale(0.015625)"/>
      </defs>
      <use xlink:href="#DejaVuSans-47"/>
      <use xlink:href="#DejaVuSans-6f" x="77.490234"/>
      <use xlink:href="#DejaVuSans-73" x="138.671875"/>
      <use xlink:href="#DejaVuSans-73" x="190.771484"/>
      <use xlink:href="#DejaVuSans-69" x="242.871094"/>
      <use xlink:href="#DejaVuSans-70" x="270.654297"/>
      <use xlink:href="#DejaVuSans-20" x="334.130859"/>
      <use xlink:href="#DejaVuSans-70" x="365.917969"/>
      <use xlink:href="#DejaVuSans-72" x="429.394531"/>
      <use xlink:href="#DejaVuSans-65" x="468.257812"/>
      <use xlink:href="#DejaVuSans-64" x="529.78125"/>
      <use xlink:href="#DejaVuSans-69" x="593.257812"/>
      <use xlink:href="#DejaVuSans-63" x="621.041016"/>
      <use xlink:href="#DejaVuSans-74" x="676.021484"/>
      <use xlink:href="#DejaVuSans-69" x="715.230469"/>
      <use xlink:href="#DejaVuSans-6f" x="743.013672"/>
      <use xlink:href="#DejaVuSans-6e" x="804.195312"/>
      <use xlink:href="#DejaVuSans-73" x="867.574219"/>
     </g>
    </g>
    <g id="line2d_19">
     <path d="M 1013.90625 739.702188 
L 1023.90625 739.702188 
L 1033.90625 739.702188 
" style="fill: none; stroke: #da70d6; stroke-linecap: square"/>
    </g>
    <g id="text_16">
     <!-- Centralized predictions -->
     <g transform="translate(1041.90625 743.202188) scale(0.1 -0.1)">
      <defs>
       <path id="DejaVuSans-43" d="M 4122 4306 
L 4122 3641 
Q 3803 3938 3442 4084 
Q 3081 4231 2675 4231 
Q 1875 4231 1450 3742 
Q 1025 3253 1025 2328 
Q 1025 1406 1450 917 
Q 1875 428 2675 428 
Q 3081 428 3442 575 
Q 3803 722 4122 1019 
L 4122 359 
Q 3791 134 3420 21 
Q 3050 -91 2638 -91 
Q 1578 -91 968 557 
Q 359 1206 359 2328 
Q 359 3453 968 4101 
Q 1578 4750 2638 4750 
Q 3056 4750 3426 4639 
Q 3797 4528 4122 4306 
z
" transform="scale(0.015625)"/>
       <path id="DejaVuSans-61" d="M 2194 1759 
Q 1497 1759 1228 1600 
Q 959 1441 959 1056 
Q 959 750 1161 570 
Q 1363 391 1709 391 
Q 2188 391 2477 730 
Q 2766 1069 2766 1631 
L 2766 1759 
L 2194 1759 
z
M 3341 1997 
L 3341 0 
L 2766 0 
L 2766 531 
Q 2569 213 2275 61 
Q 1981 -91 1556 -91 
Q 1019 -91 701 211 
Q 384 513 384 1019 
Q 384 1609 779 1909 
Q 1175 2209 1959 2209 
L 2766 2209 
L 2766 2266 
Q 2766 2663 2505 2880 
Q 2244 3097 1772 3097 
Q 1472 3097 1187 3025 
Q 903 2953 641 2809 
L 641 3341 
Q 956 3463 1253 3523 
Q 1550 3584 1831 3584 
Q 2591 3584 2966 3190 
Q 3341 2797 3341 1997 
z
" transform="scale(0.015625)"/>
       <path id="DejaVuSans-6c" d="M 603 4863 
L 1178 4863 
L 1178 0 
L 603 0 
L 603 4863 
z
" transform="scale(0.015625)"/>
       <path id="DejaVuSans-7a" d="M 353 3500 
L 3084 3500 
L 3084 2975 
L 922 459 
L 3084 459 
L 3084 0 
L 275 0 
L 275 525 
L 2438 3041 
L 353 3041 
L 353 3500 
z
" transform="scale(0.015625)"/>
      </defs>
      <use xlink:href="#DejaVuSans-43"/>
      <use xlink:href="#DejaVuSans-65" x="69.824219"/>
      <use xlink:href="#DejaVuSans-6e" x="131.347656"/>
      <use xlink:href="#DejaVuSans-74" x="194.726562"/>
      <use xlink:href="#DejaVuSans-72" x="233.935547"/>
      <use xlink:href="#DejaVuSans-61" x="275.048828"/>
      <use xlink:href="#DejaVuSans-6c" x="336.328125"/>
      <use xlink:href="#DejaVuSans-69" x="364.111328"/>
      <use xlink:href="#DejaVuSans-7a" x="391.894531"/>
      <use xlink:href="#DejaVuSans-65" x="444.384766"/>
      <use xlink:href="#DejaVuSans-64" x="505.908203"/>
      <use xlink:href="#DejaVuSans-20" x="569.384766"/>
      <use xlink:href="#DejaVuSans-70" x="601.171875"/>
      <use xlink:href="#DejaVuSans-72" x="664.648438"/>
      <use xlink:href="#DejaVuSans-65" x="703.511719"/>
      <use xlink:href="#DejaVuSans-64" x="765.035156"/>
      <use xlink:href="#DejaVuSans-69" x="828.511719"/>
      <use xlink:href="#DejaVuSans-63" x="856.294922"/>
      <use xlink:href="#DejaVuSans-74" x="911.275391"/>
      <use xlink:href="#DejaVuSans-69" x="950.484375"/>
      <use xlink:href="#DejaVuSans-6f" x="978.267578"/>
      <use xlink:href="#DejaVuSans-6e" x="1039.449219"/>
      <use xlink:href="#DejaVuSans-73" x="1102.828125"/>
     </g>
    </g>
    <g id="line2d_20">
     <path d="M 1013.90625 754.380312 
L 1023.90625 754.380312 
L 1033.90625 754.380312 
" style="fill: none; stroke: #8fbc8f; stroke-linecap: square"/>
    </g>
    <g id="text_17">
     <!-- Single predictions -->
     <g transform="translate(1041.90625 757.880312) scale(0.1 -0.1)">
      <defs>
       <path id="DejaVuSans-53" d="M 3425 4513 
L 3425 3897 
Q 3066 4069 2747 4153 
Q 2428 4238 2131 4238 
Q 1616 4238 1336 4038 
Q 1056 3838 1056 3469 
Q 1056 3159 1242 3001 
Q 1428 2844 1947 2747 
L 2328 2669 
Q 3034 2534 3370 2195 
Q 3706 1856 3706 1288 
Q 3706 609 3251 259 
Q 2797 -91 1919 -91 
Q 1588 -91 1214 -16 
Q 841 59 441 206 
L 441 856 
Q 825 641 1194 531 
Q 1563 422 1919 422 
Q 2459 422 2753 634 
Q 3047 847 3047 1241 
Q 3047 1584 2836 1778 
Q 2625 1972 2144 2069 
L 1759 2144 
Q 1053 2284 737 2584 
Q 422 2884 422 3419 
Q 422 4038 858 4394 
Q 1294 4750 2059 4750 
Q 2388 4750 2728 4690 
Q 3069 4631 3425 4513 
z
" transform="scale(0.015625)"/>
       <path id="DejaVuSans-67" d="M 2906 1791 
Q 2906 2416 2648 2759 
Q 2391 3103 1925 3103 
Q 1463 3103 1205 2759 
Q 947 2416 947 1791 
Q 947 1169 1205 825 
Q 1463 481 1925 481 
Q 2391 481 2648 825 
Q 2906 1169 2906 1791 
z
M 3481 434 
Q 3481 -459 3084 -895 
Q 2688 -1331 1869 -1331 
Q 1566 -1331 1297 -1286 
Q 1028 -1241 775 -1147 
L 775 -588 
Q 1028 -725 1275 -790 
Q 1522 -856 1778 -856 
Q 2344 -856 2625 -561 
Q 2906 -266 2906 331 
L 2906 616 
Q 2728 306 2450 153 
Q 2172 0 1784 0 
Q 1141 0 747 490 
Q 353 981 353 1791 
Q 353 2603 747 3093 
Q 1141 3584 1784 3584 
Q 2172 3584 2450 3431 
Q 2728 3278 2906 2969 
L 2906 3500 
L 3481 3500 
L 3481 434 
z
" transform="scale(0.015625)"/>
      </defs>
      <use xlink:href="#DejaVuSans-53"/>
      <use xlink:href="#DejaVuSans-69" x="63.476562"/>
      <use xlink:href="#DejaVuSans-6e" x="91.259766"/>
      <use xlink:href="#DejaVuSans-67" x="154.638672"/>
      <use xlink:href="#DejaVuSans-6c" x="218.115234"/>
      <use xlink:href="#DejaVuSans-65" x="245.898438"/>
      <use xlink:href="#DejaVuSans-20" x="307.421875"/>
      <use xlink:href="#DejaVuSans-70" x="339.208984"/>
      <use xlink:href="#DejaVuSans-72" x="402.685547"/>
      <use xlink:href="#DejaVuSans-65" x="441.548828"/>
      <use xlink:href="#DejaVuSans-64" x="503.072266"/>
      <use xlink:href="#DejaVuSans-69" x="566.548828"/>
      <use xlink:href="#DejaVuSans-63" x="594.332031"/>
      <use xlink:href="#DejaVuSans-74" x="649.3125"/>
      <use xlink:href="#DejaVuSans-69" x="688.521484"/>
      <use xlink:href="#DejaVuSans-6f" x="716.304688"/>
      <use xlink:href="#DejaVuSans-6e" x="777.486328"/>
      <use xlink:href="#DejaVuSans-73" x="840.865234"/>
     </g>
    </g>
   </g>
  </g>
 </g>
 <defs>
  <clipPath id="p865ecac798">
   <rect x="162" y="103.68" width="1004.4" height="665.28"/>
  </clipPath>
 </defs>
</svg>
