<?xml version="1.0" encoding="utf-8" standalone="no"?>
<!DOCTYPE svg PUBLIC "-//W3C//DTD SVG 1.1//EN"
  "http://www.w3.org/Graphics/SVG/1.1/DTD/svg11.dtd">
<svg xmlns:xlink="http://www.w3.org/1999/xlink" width="1296pt" height="864pt" viewBox="0 0 1296 864" xmlns="http://www.w3.org/2000/svg" version="1.1">
 <metadata>
  <rdf:RDF xmlns:dc="http://purl.org/dc/elements/1.1/" xmlns:cc="http://creativecommons.org/ns#" xmlns:rdf="http://www.w3.org/1999/02/22-rdf-syntax-ns#">
   <cc:Work>
    <dc:type rdf:resource="http://purl.org/dc/dcmitype/StillImage"/>
    <dc:date>2024-01-06T09:46:36.612423</dc:date>
    <dc:format>image/svg+xml</dc:format>
    <dc:creator>
     <cc:Agent>
      <dc:title>Matplotlib v3.8.0, https://matplotlib.org/</dc:title>
     </cc:Agent>
    </dc:creator>
   </cc:Work>
  </rdf:RDF>
 </metadata>
 <defs>
  <style type="text/css">*{stroke-linejoin: round; stroke-linecap: butt}</style>
 </defs>
 <g id="figure_1">
  <g id="patch_1">
   <path d="M 0 864 
L 1296 864 
L 1296 0 
L 0 0 
z
" style="fill: #ffffff"/>
  </g>
  <g id="axes_1">
   <g id="patch_2">
    <path d="M 162 768.96 
L 1166.4 768.96 
L 1166.4 103.68 
L 162 103.68 
z
" style="fill: #ffffff"/>
   </g>
   <g id="matplotlib.axis_1">
    <g id="xtick_1">
     <g id="line2d_1">
      <defs>
       <path id="m4079bde7c8" d="M 0 0 
L 0 3.5 
" style="stroke: #000000; stroke-width: 0.8"/>
      </defs>
      <g>
       <use xlink:href="#m4079bde7c8" x="207.654545" y="768.96" style="stroke: #000000; stroke-width: 0.8"/>
      </g>
     </g>
     <g id="text_1">
      <!-- 0 -->
      <g transform="translate(204.473295 783.558437) scale(0.1 -0.1)">
       <defs>
        <path id="DejaVuSans-30" d="M 2034 4250 
Q 1547 4250 1301 3770 
Q 1056 3291 1056 2328 
Q 1056 1369 1301 889 
Q 1547 409 2034 409 
Q 2525 409 2770 889 
Q 3016 1369 3016 2328 
Q 3016 3291 2770 3770 
Q 2525 4250 2034 4250 
z
M 2034 4750 
Q 2819 4750 3233 4129 
Q 3647 3509 3647 2328 
Q 3647 1150 3233 529 
Q 2819 -91 2034 -91 
Q 1250 -91 836 529 
Q 422 1150 422 2328 
Q 422 3509 836 4129 
Q 1250 4750 2034 4750 
z
" transform="scale(0.015625)"/>
       </defs>
       <use xlink:href="#DejaVuSans-30"/>
      </g>
     </g>
    </g>
    <g id="xtick_2">
     <g id="line2d_2">
      <g>
       <use xlink:href="#m4079bde7c8" x="390.638696" y="768.96" style="stroke: #000000; stroke-width: 0.8"/>
      </g>
     </g>
     <g id="text_2">
      <!-- 100 -->
      <g transform="translate(381.094946 783.558437) scale(0.1 -0.1)">
       <defs>
        <path id="DejaVuSans-31" d="M 794 531 
L 1825 531 
L 1825 4091 
L 703 3866 
L 703 4441 
L 1819 4666 
L 2450 4666 
L 2450 531 
L 3481 531 
L 3481 0 
L 794 0 
L 794 531 
z
" transform="scale(0.015625)"/>
       </defs>
       <use xlink:href="#DejaVuSans-31"/>
       <use xlink:href="#DejaVuSans-30" x="63.623047"/>
       <use xlink:href="#DejaVuSans-30" x="127.246094"/>
      </g>
     </g>
    </g>
    <g id="xtick_3">
     <g id="line2d_3">
      <g>
       <use xlink:href="#m4079bde7c8" x="573.622846" y="768.96" style="stroke: #000000; stroke-width: 0.8"/>
      </g>
     </g>
     <g id="text_3">
      <!-- 200 -->
      <g transform="translate(564.079096 783.558437) scale(0.1 -0.1)">
       <defs>
        <path id="DejaVuSans-32" d="M 1228 531 
L 3431 531 
L 3431 0 
L 469 0 
L 469 531 
Q 828 903 1448 1529 
Q 2069 2156 2228 2338 
Q 2531 2678 2651 2914 
Q 2772 3150 2772 3378 
Q 2772 3750 2511 3984 
Q 2250 4219 1831 4219 
Q 1534 4219 1204 4116 
Q 875 4013 500 3803 
L 500 4441 
Q 881 4594 1212 4672 
Q 1544 4750 1819 4750 
Q 2544 4750 2975 4387 
Q 3406 4025 3406 3419 
Q 3406 3131 3298 2873 
Q 3191 2616 2906 2266 
Q 2828 2175 2409 1742 
Q 1991 1309 1228 531 
z
" transform="scale(0.015625)"/>
       </defs>
       <use xlink:href="#DejaVuSans-32"/>
       <use xlink:href="#DejaVuSans-30" x="63.623047"/>
       <use xlink:href="#DejaVuSans-30" x="127.246094"/>
      </g>
     </g>
    </g>
    <g id="xtick_4">
     <g id="line2d_4">
      <g>
       <use xlink:href="#m4079bde7c8" x="756.606996" y="768.96" style="stroke: #000000; stroke-width: 0.8"/>
      </g>
     </g>
     <g id="text_4">
      <!-- 300 -->
      <g transform="translate(747.063246 783.558437) scale(0.1 -0.1)">
       <defs>
        <path id="DejaVuSans-33" d="M 2597 2516 
Q 3050 2419 3304 2112 
Q 3559 1806 3559 1356 
Q 3559 666 3084 287 
Q 2609 -91 1734 -91 
Q 1441 -91 1130 -33 
Q 819 25 488 141 
L 488 750 
Q 750 597 1062 519 
Q 1375 441 1716 441 
Q 2309 441 2620 675 
Q 2931 909 2931 1356 
Q 2931 1769 2642 2001 
Q 2353 2234 1838 2234 
L 1294 2234 
L 1294 2753 
L 1863 2753 
Q 2328 2753 2575 2939 
Q 2822 3125 2822 3475 
Q 2822 3834 2567 4026 
Q 2313 4219 1838 4219 
Q 1578 4219 1281 4162 
Q 984 4106 628 3988 
L 628 4550 
Q 988 4650 1302 4700 
Q 1616 4750 1894 4750 
Q 2613 4750 3031 4423 
Q 3450 4097 3450 3541 
Q 3450 3153 3228 2886 
Q 3006 2619 2597 2516 
z
" transform="scale(0.015625)"/>
       </defs>
       <use xlink:href="#DejaVuSans-33"/>
       <use xlink:href="#DejaVuSans-30" x="63.623047"/>
       <use xlink:href="#DejaVuSans-30" x="127.246094"/>
      </g>
     </g>
    </g>
    <g id="xtick_5">
     <g id="line2d_5">
      <g>
       <use xlink:href="#m4079bde7c8" x="939.591146" y="768.96" style="stroke: #000000; stroke-width: 0.8"/>
      </g>
     </g>
     <g id="text_5">
      <!-- 400 -->
      <g transform="translate(930.047396 783.558437) scale(0.1 -0.1)">
       <defs>
        <path id="DejaVuSans-34" d="M 2419 4116 
L 825 1625 
L 2419 1625 
L 2419 4116 
z
M 2253 4666 
L 3047 4666 
L 3047 1625 
L 3713 1625 
L 3713 1100 
L 3047 1100 
L 3047 0 
L 2419 0 
L 2419 1100 
L 313 1100 
L 313 1709 
L 2253 4666 
z
" transform="scale(0.015625)"/>
       </defs>
       <use xlink:href="#DejaVuSans-34"/>
       <use xlink:href="#DejaVuSans-30" x="63.623047"/>
       <use xlink:href="#DejaVuSans-30" x="127.246094"/>
      </g>
     </g>
    </g>
    <g id="xtick_6">
     <g id="line2d_6">
      <g>
       <use xlink:href="#m4079bde7c8" x="1122.575296" y="768.96" style="stroke: #000000; stroke-width: 0.8"/>
      </g>
     </g>
     <g id="text_6">
      <!-- 500 -->
      <g transform="translate(1113.031546 783.558437) scale(0.1 -0.1)">
       <defs>
        <path id="DejaVuSans-35" d="M 691 4666 
L 3169 4666 
L 3169 4134 
L 1269 4134 
L 1269 2991 
Q 1406 3038 1543 3061 
Q 1681 3084 1819 3084 
Q 2600 3084 3056 2656 
Q 3513 2228 3513 1497 
Q 3513 744 3044 326 
Q 2575 -91 1722 -91 
Q 1428 -91 1123 -41 
Q 819 9 494 109 
L 494 744 
Q 775 591 1075 516 
Q 1375 441 1709 441 
Q 2250 441 2565 725 
Q 2881 1009 2881 1497 
Q 2881 1984 2565 2268 
Q 2250 2553 1709 2553 
Q 1456 2553 1204 2497 
Q 953 2441 691 2322 
L 691 4666 
z
" transform="scale(0.015625)"/>
       </defs>
       <use xlink:href="#DejaVuSans-35"/>
       <use xlink:href="#DejaVuSans-30" x="63.623047"/>
       <use xlink:href="#DejaVuSans-30" x="127.246094"/>
      </g>
     </g>
    </g>
   </g>
   <g id="matplotlib.axis_2">
    <g id="ytick_1">
     <g id="line2d_7">
      <defs>
       <path id="m87b72054cb" d="M 0 0 
L -3.5 0 
" style="stroke: #000000; stroke-width: 0.8"/>
      </defs>
      <g>
       <use xlink:href="#m87b72054cb" x="162" y="738.72" style="stroke: #000000; stroke-width: 0.8"/>
      </g>
     </g>
     <g id="text_7">
      <!-- 0 -->
      <g transform="translate(148.6375 742.519219) scale(0.1 -0.1)">
       <use xlink:href="#DejaVuSans-30"/>
      </g>
     </g>
    </g>
    <g id="ytick_2">
     <g id="line2d_8">
      <g>
       <use xlink:href="#m87b72054cb" x="162" y="630.150694" style="stroke: #000000; stroke-width: 0.8"/>
      </g>
     </g>
     <g id="text_8">
      <!-- 20 -->
      <g transform="translate(142.275 633.949913) scale(0.1 -0.1)">
       <use xlink:href="#DejaVuSans-32"/>
       <use xlink:href="#DejaVuSans-30" x="63.623047"/>
      </g>
     </g>
    </g>
    <g id="ytick_3">
     <g id="line2d_9">
      <g>
       <use xlink:href="#m87b72054cb" x="162" y="521.581388" style="stroke: #000000; stroke-width: 0.8"/>
      </g>
     </g>
     <g id="text_9">
      <!-- 40 -->
      <g transform="translate(142.275 525.380607) scale(0.1 -0.1)">
       <use xlink:href="#DejaVuSans-34"/>
       <use xlink:href="#DejaVuSans-30" x="63.623047"/>
      </g>
     </g>
    </g>
    <g id="ytick_4">
     <g id="line2d_10">
      <g>
       <use xlink:href="#m87b72054cb" x="162" y="413.012082" style="stroke: #000000; stroke-width: 0.8"/>
      </g>
     </g>
     <g id="text_10">
      <!-- 60 -->
      <g transform="translate(142.275 416.811301) scale(0.1 -0.1)">
       <defs>
        <path id="DejaVuSans-36" d="M 2113 2584 
Q 1688 2584 1439 2293 
Q 1191 2003 1191 1497 
Q 1191 994 1439 701 
Q 1688 409 2113 409 
Q 2538 409 2786 701 
Q 3034 994 3034 1497 
Q 3034 2003 2786 2293 
Q 2538 2584 2113 2584 
z
M 3366 4563 
L 3366 3988 
Q 3128 4100 2886 4159 
Q 2644 4219 2406 4219 
Q 1781 4219 1451 3797 
Q 1122 3375 1075 2522 
Q 1259 2794 1537 2939 
Q 1816 3084 2150 3084 
Q 2853 3084 3261 2657 
Q 3669 2231 3669 1497 
Q 3669 778 3244 343 
Q 2819 -91 2113 -91 
Q 1303 -91 875 529 
Q 447 1150 447 2328 
Q 447 3434 972 4092 
Q 1497 4750 2381 4750 
Q 2619 4750 2861 4703 
Q 3103 4656 3366 4563 
z
" transform="scale(0.015625)"/>
       </defs>
       <use xlink:href="#DejaVuSans-36"/>
       <use xlink:href="#DejaVuSans-30" x="63.623047"/>
      </g>
     </g>
    </g>
    <g id="ytick_5">
     <g id="line2d_11">
      <g>
       <use xlink:href="#m87b72054cb" x="162" y="304.442776" style="stroke: #000000; stroke-width: 0.8"/>
      </g>
     </g>
     <g id="text_11">
      <!-- 80 -->
      <g transform="translate(142.275 308.241995) scale(0.1 -0.1)">
       <defs>
        <path id="DejaVuSans-38" d="M 2034 2216 
Q 1584 2216 1326 1975 
Q 1069 1734 1069 1313 
Q 1069 891 1326 650 
Q 1584 409 2034 409 
Q 2484 409 2743 651 
Q 3003 894 3003 1313 
Q 3003 1734 2745 1975 
Q 2488 2216 2034 2216 
z
M 1403 2484 
Q 997 2584 770 2862 
Q 544 3141 544 3541 
Q 544 4100 942 4425 
Q 1341 4750 2034 4750 
Q 2731 4750 3128 4425 
Q 3525 4100 3525 3541 
Q 3525 3141 3298 2862 
Q 3072 2584 2669 2484 
Q 3125 2378 3379 2068 
Q 3634 1759 3634 1313 
Q 3634 634 3220 271 
Q 2806 -91 2034 -91 
Q 1263 -91 848 271 
Q 434 634 434 1313 
Q 434 1759 690 2068 
Q 947 2378 1403 2484 
z
M 1172 3481 
Q 1172 3119 1398 2916 
Q 1625 2713 2034 2713 
Q 2441 2713 2670 2916 
Q 2900 3119 2900 3481 
Q 2900 3844 2670 4047 
Q 2441 4250 2034 4250 
Q 1625 4250 1398 4047 
Q 1172 3844 1172 3481 
z
" transform="scale(0.015625)"/>
       </defs>
       <use xlink:href="#DejaVuSans-38"/>
       <use xlink:href="#DejaVuSans-30" x="63.623047"/>
      </g>
     </g>
    </g>
    <g id="ytick_6">
     <g id="line2d_12">
      <g>
       <use xlink:href="#m87b72054cb" x="162" y="195.87347" style="stroke: #000000; stroke-width: 0.8"/>
      </g>
     </g>
     <g id="text_12">
      <!-- 100 -->
      <g transform="translate(135.9125 199.672689) scale(0.1 -0.1)">
       <use xlink:href="#DejaVuSans-31"/>
       <use xlink:href="#DejaVuSans-30" x="63.623047"/>
       <use xlink:href="#DejaVuSans-30" x="127.246094"/>
      </g>
     </g>
    </g>
   </g>
   <g id="line2d_13">
    <path d="M 207.654545 722.434604 
L 209.484387 727.863069 
L 211.314228 657.293021 
L 213.14407 727.863069 
L 214.973911 722.434604 
L 216.803753 738.72 
L 218.633594 668.149951 
L 220.463436 689.863812 
L 222.293277 722.434604 
L 224.123119 727.863069 
L 225.95296 711.577674 
L 227.782802 733.291535 
L 229.612643 679.006882 
L 231.442485 738.72 
L 233.272326 679.006882 
L 235.102168 689.863812 
L 236.932009 684.435347 
L 238.761851 456.439804 
L 240.591692 684.435347 
L 242.421534 456.439804 
L 244.251375 489.010596 
L 246.081217 603.008368 
L 247.911058 646.43609 
L 249.7409 581.294506 
L 251.570741 456.439804 
L 253.400583 456.439804 
L 255.230424 499.867527 
L 257.060266 456.439804 
L 260.719949 456.439804 
L 262.54979 586.722972 
L 264.379632 456.439804 
L 269.869156 456.439804 
L 271.698998 543.295249 
L 273.528839 521.581388 
L 275.358681 662.721486 
L 277.188522 608.436833 
L 279.018364 559.580645 
L 280.848206 456.439804 
L 284.507889 456.439804 
L 286.33773 516.152923 
L 288.167572 472.7252 
L 289.997413 456.439804 
L 291.827255 456.439804 
L 293.657096 467.296735 
L 295.486938 456.439804 
L 297.316779 597.579902 
L 299.146621 651.864555 
L 300.976462 505.295992 
L 302.806304 548.723715 
L 304.636145 613.865298 
L 306.465987 527.009853 
L 308.295828 483.582131 
L 310.12567 592.151437 
L 311.955511 510.724457 
L 313.785353 668.149951 
L 315.615194 537.866784 
L 317.445036 456.439804 
L 319.274877 613.865298 
L 321.104719 711.577674 
L 322.93456 527.009853 
L 324.764402 554.15218 
L 326.594243 548.723715 
L 328.424085 668.149951 
L 330.253926 717.006139 
L 332.083768 592.151437 
L 333.913609 673.578416 
L 335.743451 554.15218 
L 337.573292 575.866041 
L 339.403134 695.292278 
L 341.232975 586.722972 
L 344.892658 673.578416 
L 346.7225 603.008368 
L 348.552341 456.439804 
L 350.382183 657.293021 
L 352.212024 554.15218 
L 354.041866 635.579159 
L 355.871707 706.149208 
L 357.701549 717.006139 
L 359.53139 738.72 
L 361.361232 722.434604 
L 363.191073 548.723715 
L 365.020915 592.151437 
L 366.850756 586.722972 
L 368.680598 483.582131 
L 370.510439 456.439804 
L 372.340281 657.293021 
L 374.170122 684.435347 
L 375.999964 456.439804 
L 381.489488 456.439804 
L 383.31933 717.006139 
L 385.149171 695.292278 
L 386.979013 548.723715 
L 388.808854 657.293021 
L 390.638696 603.008368 
L 392.468537 706.149208 
L 394.298379 456.439804 
L 396.12822 592.151437 
L 397.958062 521.581388 
L 399.787903 559.580645 
L 401.617745 603.008368 
L 403.447586 592.151437 
L 405.277428 456.439804 
L 407.107269 543.295249 
L 408.937111 586.722972 
L 410.766952 722.434604 
L 412.596794 548.723715 
L 414.426635 554.15218 
L 416.256477 695.292278 
L 418.086318 635.579159 
L 419.91616 711.577674 
L 421.746001 679.006882 
L 423.575843 706.149208 
L 425.405684 673.578416 
L 427.235526 738.72 
L 429.065367 608.436833 
L 430.895209 700.720743 
L 432.72505 711.577674 
L 434.554892 651.864555 
L 436.384733 613.865298 
L 438.214575 494.439062 
L 440.044416 727.863069 
L 441.874258 483.582131 
L 443.704099 624.722229 
L 445.533941 738.72 
L 447.363782 651.864555 
L 449.193624 586.722972 
L 451.023465 575.866041 
L 452.853307 706.149208 
L 454.683148 727.863069 
L 456.51299 657.293021 
L 458.342831 537.866784 
L 460.172673 635.579159 
L 462.002514 575.866041 
L 463.832356 700.720743 
L 465.662197 630.150694 
L 467.492039 581.294506 
L 469.32188 673.578416 
L 471.151722 673.578416 
L 474.811405 597.579902 
L 476.641246 662.721486 
L 478.471088 717.006139 
L 480.300929 684.435347 
L 482.130771 738.72 
L 483.960612 619.293763 
L 485.790454 706.149208 
L 487.620295 559.580645 
L 489.450137 695.292278 
L 491.279978 651.864555 
L 493.10982 706.149208 
L 494.939661 559.580645 
L 496.769503 673.578416 
L 498.599344 738.72 
L 500.429186 679.006882 
L 502.259027 456.439804 
L 504.088869 613.865298 
L 507.748552 722.434604 
L 509.578393 472.7252 
L 511.408235 641.007625 
L 513.238076 700.720743 
L 515.067918 521.581388 
L 516.897759 505.295992 
L 518.727601 662.721486 
L 520.557442 706.149208 
L 522.387284 646.43609 
L 524.217125 689.863812 
L 526.046967 662.721486 
L 527.876808 738.72 
L 529.70665 738.72 
L 531.536491 657.293021 
L 533.366333 684.435347 
L 535.196174 700.720743 
L 537.026016 684.435347 
L 538.855857 722.434604 
L 540.685699 738.72 
L 542.51554 679.006882 
L 544.345382 717.006139 
L 546.175223 738.72 
L 548.005065 727.863069 
L 549.834906 700.720743 
L 551.664748 738.72 
L 555.324431 738.72 
L 557.154272 722.434604 
L 558.984114 738.72 
L 560.813955 738.72 
L 562.643797 706.149208 
L 564.473638 695.292278 
L 566.30348 738.72 
L 568.133321 689.863812 
L 569.963163 711.577674 
L 571.793004 722.434604 
L 573.622846 722.434604 
L 575.452687 738.72 
L 579.11237 738.72 
L 580.942212 700.720743 
L 582.772053 668.149951 
L 584.601895 689.863812 
L 586.431736 657.293021 
L 588.261578 738.72 
L 590.091419 456.439804 
L 591.921261 456.439804 
L 593.751102 537.866784 
L 595.580944 554.15218 
L 597.410785 456.439804 
L 608.389834 456.439804 
L 610.219676 527.009853 
L 612.049517 456.439804 
L 617.539042 456.439804 
L 619.368883 532.438319 
L 621.198725 456.439804 
L 623.028566 695.292278 
L 624.858408 624.722229 
L 626.688249 613.865298 
L 628.518091 673.578416 
L 630.347932 483.582131 
L 632.177774 456.439804 
L 634.007615 608.436833 
L 635.837457 662.721486 
L 637.667298 461.86827 
L 639.49714 456.439804 
L 643.156823 456.439804 
L 646.816506 646.43609 
L 648.646347 456.439804 
L 650.476189 456.439804 
L 652.30603 527.009853 
L 654.135872 456.439804 
L 655.965713 586.722972 
L 657.795555 537.866784 
L 659.625396 456.439804 
L 661.455238 603.008368 
L 663.285079 532.438319 
L 665.114921 608.436833 
L 666.944762 559.580645 
L 668.774604 456.439804 
L 670.604445 456.439804 
L 672.434287 641.007625 
L 674.264128 581.294506 
L 676.09397 532.438319 
L 677.923811 630.150694 
L 679.753653 548.723715 
L 681.583494 630.150694 
L 683.413336 613.865298 
L 685.243177 554.15218 
L 687.073019 738.72 
L 688.90286 657.293021 
L 690.732702 662.721486 
L 692.562543 559.580645 
L 694.392385 478.153666 
L 696.222226 738.72 
L 698.052068 738.72 
L 699.881909 581.294506 
L 701.711751 668.149951 
L 703.541592 706.149208 
L 705.371434 635.579159 
L 707.201275 738.72 
L 709.031117 700.720743 
L 710.860958 630.150694 
L 712.6908 717.006139 
L 714.520641 684.435347 
L 716.350483 662.721486 
L 718.180324 738.72 
L 720.010166 700.720743 
L 721.840007 657.293021 
L 723.669849 738.72 
L 725.49969 537.866784 
L 727.329532 548.723715 
L 729.159373 738.72 
L 730.989215 695.292278 
L 732.819056 727.863069 
L 734.648898 695.292278 
L 736.478739 635.579159 
L 738.308581 711.577674 
L 740.138422 738.72 
L 741.968264 738.72 
L 743.798105 461.86827 
L 745.627947 499.867527 
L 747.457788 603.008368 
L 749.28763 565.00911 
L 751.117471 738.72 
L 752.947313 722.434604 
L 754.777154 727.863069 
L 756.606996 738.72 
L 758.436837 717.006139 
L 760.266679 706.149208 
L 762.09652 662.721486 
L 763.926362 717.006139 
L 765.756203 657.293021 
L 767.586045 635.579159 
L 769.415886 603.008368 
L 771.245728 689.863812 
L 773.075569 456.439804 
L 776.735252 456.439804 
L 778.565094 516.152923 
L 780.394935 586.722972 
L 782.224777 456.439804 
L 784.054618 565.00911 
L 785.88446 456.439804 
L 787.714301 581.294506 
L 789.544143 543.295249 
L 791.373984 478.153666 
L 793.203826 543.295249 
L 795.033667 641.007625 
L 796.863509 499.867527 
L 798.69335 717.006139 
L 800.523192 499.867527 
L 802.353033 657.293021 
L 804.182875 559.580645 
L 806.012716 646.43609 
L 807.842558 472.7252 
L 809.672399 527.009853 
L 811.502241 494.439062 
L 813.332082 456.439804 
L 816.991765 456.439804 
L 818.821607 505.295992 
L 820.651448 711.577674 
L 822.48129 456.439804 
L 824.311131 456.439804 
L 826.140973 603.008368 
L 827.970814 456.439804 
L 829.800656 494.439062 
L 831.630497 565.00911 
L 833.460339 603.008368 
L 835.29018 673.578416 
L 837.120022 700.720743 
L 838.949863 456.439804 
L 842.609546 456.439804 
L 844.439388 532.438319 
L 846.269229 673.578416 
L 848.099071 613.865298 
L 849.928912 489.010596 
L 851.758754 456.439804 
L 853.588595 537.866784 
L 855.418437 456.439804 
L 857.248278 543.295249 
L 859.07812 516.152923 
L 860.907961 510.724457 
L 862.737803 635.579159 
L 864.567644 684.435347 
L 866.397486 738.72 
L 868.227327 586.722972 
L 870.057169 619.293763 
L 871.88701 733.291535 
L 873.716852 565.00911 
L 875.546693 673.578416 
L 877.376535 695.292278 
L 879.206376 624.722229 
L 881.036218 641.007625 
L 882.866059 684.435347 
L 884.695901 738.72 
L 886.525742 613.865298 
L 888.355584 635.579159 
L 890.185425 738.72 
L 892.015267 706.149208 
L 893.845108 619.293763 
L 895.67495 456.439804 
L 897.504791 635.579159 
L 899.334633 738.72 
L 901.164474 641.007625 
L 902.994316 706.149208 
L 904.824157 684.435347 
L 906.653999 717.006139 
L 908.48384 722.434604 
L 910.313682 603.008368 
L 912.143523 711.577674 
L 913.973365 711.577674 
L 915.803206 738.72 
L 917.633048 700.720743 
L 919.462889 630.150694 
L 921.292731 695.292278 
L 923.122572 668.149951 
L 924.952414 689.863812 
L 926.782255 657.293021 
L 928.612097 689.863812 
L 930.441938 641.007625 
L 932.27178 689.863812 
L 934.101621 700.720743 
L 935.931463 575.866041 
L 937.761304 700.720743 
L 939.591146 673.578416 
L 941.420987 679.006882 
L 943.250829 532.438319 
L 945.08067 483.582131 
L 946.910512 456.439804 
L 950.570195 619.293763 
L 952.400036 456.439804 
L 954.229878 456.439804 
L 956.059719 548.723715 
L 957.889561 608.436833 
L 959.719402 537.866784 
L 961.549244 456.439804 
L 963.379085 456.439804 
L 965.208927 608.436833 
L 967.038768 456.439804 
L 968.86861 619.293763 
L 970.698451 516.152923 
L 972.528293 684.435347 
L 974.358134 456.439804 
L 976.187976 456.439804 
L 978.017817 527.009853 
L 979.847659 478.153666 
L 981.6775 456.439804 
L 983.507342 570.437576 
L 985.337183 456.439804 
L 987.167025 613.865298 
L 988.996866 559.580645 
L 990.826708 570.437576 
L 992.656549 456.439804 
L 998.146074 456.439804 
L 999.975915 581.294506 
L 1001.805757 537.866784 
L 1003.635598 467.296735 
L 1005.46544 456.439804 
L 1009.125123 456.439804 
L 1010.954964 641.007625 
L 1012.784806 613.865298 
L 1014.614647 456.439804 
L 1016.444489 456.439804 
L 1018.27433 499.867527 
L 1020.104172 586.722972 
L 1021.934013 624.722229 
L 1023.763855 608.436833 
L 1025.593696 548.723715 
L 1027.423538 456.439804 
L 1029.253379 559.580645 
L 1031.083221 456.439804 
L 1032.913062 472.7252 
L 1034.742904 668.149951 
L 1036.572745 456.439804 
L 1038.402587 483.582131 
L 1040.232428 679.006882 
L 1042.06227 700.720743 
L 1043.892111 489.010596 
L 1045.721953 646.43609 
L 1047.551794 603.008368 
L 1049.381636 597.579902 
L 1051.211478 543.295249 
L 1053.041319 516.152923 
L 1054.871161 706.149208 
L 1056.701002 554.15218 
L 1058.530844 635.579159 
L 1060.360685 570.437576 
L 1062.190527 586.722972 
L 1064.020368 456.439804 
L 1065.85021 456.439804 
L 1067.680051 641.007625 
L 1069.509893 597.579902 
L 1071.339734 570.437576 
L 1073.169576 565.00911 
L 1074.999417 575.866041 
L 1076.829259 456.439804 
L 1078.6591 537.866784 
L 1080.488942 727.863069 
L 1082.318783 619.293763 
L 1084.148625 706.149208 
L 1085.978466 722.434604 
L 1087.808308 603.008368 
L 1089.638149 516.152923 
L 1091.467991 575.866041 
L 1093.297832 456.439804 
L 1095.127674 722.434604 
L 1096.957515 738.72 
L 1098.787357 684.435347 
L 1100.617198 505.295992 
L 1102.44704 651.864555 
L 1104.276881 581.294506 
L 1106.106723 472.7252 
L 1107.936564 689.863812 
L 1109.766406 537.866784 
L 1113.426089 657.293021 
L 1115.25593 668.149951 
L 1117.085772 717.006139 
L 1118.915613 586.722972 
L 1120.745455 554.15218 
L 1120.745455 554.15218 
" clip-path="url(#p95df39099f)" style="fill: none; stroke: #4169e1; stroke-linecap: square"/>
   </g>
   <g id="line2d_14">
    <path d="M 207.654545 712.459283 
L 209.484387 697.899818 
L 211.314228 694.208884 
L 213.14407 671.597193 
L 214.973911 686.351122 
L 218.633594 710.593844 
L 220.463436 700.381622 
L 222.293277 697.140654 
L 224.123119 698.022103 
L 225.95296 697.98208 
L 227.782802 701.856538 
L 229.612643 699.13148 
L 231.442485 683.161508 
L 233.272326 687.679827 
L 235.102168 682.226414 
L 236.932009 679.265182 
L 238.761851 665.137933 
L 240.591692 585.005558 
L 242.421534 591.136147 
L 244.251375 514.802992 
L 246.081217 484.816449 
L 247.911058 496.309114 
L 249.7409 512.657234 
L 251.570741 514.433417 
L 253.400583 507.07992 
L 255.230424 489.253708 
L 257.060266 479.155434 
L 258.890107 473.365055 
L 260.719949 472.835491 
L 262.54979 473.206743 
L 264.379632 487.791768 
L 266.209473 481.187422 
L 268.039315 483.458152 
L 269.869156 487.670253 
L 271.698998 478.213346 
L 273.528839 479.801812 
L 275.358681 477.454565 
L 277.188522 513.530675 
L 279.018364 524.538194 
L 280.848206 526.964047 
L 282.678047 520.976426 
L 284.507889 491.641542 
L 286.33773 480.875353 
L 288.167572 480.679104 
L 289.997413 478.531047 
L 291.827255 477.588442 
L 293.657096 481.570933 
L 295.486938 483.64674 
L 297.316779 485.000501 
L 299.146621 502.504436 
L 300.976462 522.431035 
L 302.806304 500.267025 
L 304.636145 525.2708 
L 306.465987 560.726416 
L 308.295828 524.974075 
L 310.12567 527.426787 
L 311.955511 550.665872 
L 313.785353 520.08791 
L 315.615194 575.386642 
L 317.445036 560.902765 
L 319.274877 528.356036 
L 322.93456 602.956152 
L 324.764402 573.176855 
L 326.594243 602.688523 
L 328.424085 565.643323 
L 330.253926 580.646979 
L 332.083768 615.933246 
L 333.913609 608.627563 
L 335.743451 660.284248 
L 339.403134 611.315487 
L 341.232975 640.39966 
L 343.062817 600.740277 
L 344.892658 622.657304 
L 346.7225 641.928145 
L 350.382183 588.375622 
L 352.212024 620.418091 
L 354.041866 581.199923 
L 355.871707 593.54269 
L 357.701549 632.108082 
L 359.53139 619.037689 
L 361.361232 642.096438 
L 363.191073 641.854311 
L 365.020915 628.923955 
L 366.850756 603.060044 
L 368.680598 586.514184 
L 370.510439 523.990054 
L 372.340281 501.662906 
L 374.170122 545.602198 
L 375.999964 584.993837 
L 377.829805 536.753939 
L 379.659647 531.766056 
L 381.489488 503.67721 
L 383.31933 488.58161 
L 385.149171 572.458682 
L 386.979013 625.409536 
L 388.808854 600.659247 
L 390.638696 615.876527 
L 392.468537 583.131478 
L 394.298379 613.771595 
L 396.12822 592.226451 
L 397.958062 577.043464 
L 399.787903 541.442322 
L 401.617745 516.669669 
L 403.447586 541.934965 
L 405.277428 536.479082 
L 407.107269 512.522943 
L 408.937111 517.688355 
L 410.766952 530.176803 
L 412.596794 591.760191 
L 414.426635 573.089384 
L 416.256477 577.799791 
L 418.086318 583.701029 
L 419.91616 543.675199 
L 421.746001 610.651217 
L 423.575843 672.337265 
L 425.405684 685.684471 
L 427.235526 689.488004 
L 429.065367 696.881626 
L 430.895209 671.494896 
L 432.72505 674.983244 
L 434.554892 671.337764 
L 436.384733 655.780957 
L 438.214575 642.043395 
L 440.044416 559.390173 
L 441.874258 604.03807 
L 443.704099 544.257361 
L 445.533941 562.784227 
L 447.363782 617.302621 
L 449.193624 587.596806 
L 451.023465 613.883169 
L 452.853307 575.84818 
L 454.683148 599.98541 
L 456.51299 636.701934 
L 458.342831 659.555276 
L 460.172673 618.112665 
L 462.002514 584.260682 
L 463.832356 541.979549 
L 465.662197 574.285517 
L 467.492039 584.764279 
L 469.32188 577.279721 
L 471.151722 609.674682 
L 472.981563 599.668827 
L 474.811405 591.1342 
L 476.641246 585.760456 
L 478.471088 590.788595 
L 480.300929 617.068974 
L 482.130771 647.373539 
L 483.960612 686.510294 
L 485.790454 671.680253 
L 487.620295 675.387033 
L 489.450137 631.176918 
L 491.279978 637.018248 
L 493.10982 632.308204 
L 494.939661 636.030147 
L 496.769503 625.36811 
L 498.599344 638.16874 
L 500.429186 652.994692 
L 502.259027 647.511361 
L 504.088869 608.286752 
L 505.91871 588.012187 
L 507.748552 596.048611 
L 509.578393 609.188459 
L 511.408235 613.191451 
L 513.238076 638.739855 
L 515.067918 640.59446 
L 516.897759 588.034789 
L 518.727601 604.702744 
L 520.557442 611.78916 
L 522.387284 615.198176 
L 524.217125 620.131307 
L 526.046967 649.547014 
L 527.876808 651.572283 
L 529.70665 654.372159 
L 531.536491 661.79584 
L 533.366333 651.735607 
L 535.196174 636.383477 
L 537.026016 630.793376 
L 538.855857 632.855805 
L 540.685699 663.165454 
L 542.51554 675.217927 
L 544.345382 683.838456 
L 546.175223 686.682771 
L 548.005065 709.15161 
L 549.834906 711.256281 
L 551.664748 700.077256 
L 553.494589 698.253515 
L 555.324431 698.600463 
L 557.154272 705.993974 
L 558.984114 703.110549 
L 560.813955 701.079749 
L 562.643797 698.841501 
L 564.473638 689.950056 
L 566.30348 682.770775 
L 568.133321 694.07991 
L 569.963163 701.097001 
L 571.793004 705.758501 
L 573.622846 704.739753 
L 575.452687 704.668036 
L 577.282529 701.961915 
L 579.11237 704.429459 
L 580.942212 706.696136 
L 582.772053 698.846725 
L 584.601895 670.240476 
L 586.431736 670.182561 
L 588.261578 655.501933 
L 590.091419 663.299973 
L 591.921261 598.186014 
L 593.751102 540.140724 
L 595.580944 503.799698 
L 597.410785 476.721214 
L 599.240627 470.803917 
L 601.070468 473.862771 
L 602.90031 473.96834 
L 604.730151 472.907285 
L 606.559993 473.638752 
L 608.389834 472.483828 
L 610.219676 471.871287 
L 612.049517 475.790992 
L 613.879359 472.899147 
L 617.539042 479.828815 
L 619.368883 480.370535 
L 621.198725 488.110049 
L 623.028566 478.346664 
L 624.858408 533.080348 
L 626.688249 537.639597 
L 628.518091 562.976211 
L 630.347932 634.800892 
L 632.177774 559.344471 
L 634.007615 519.479697 
L 635.837457 523.141525 
L 637.667298 537.847443 
L 639.49714 502.732824 
L 641.326981 503.58067 
L 643.156823 486.863099 
L 644.986664 479.836042 
L 646.816506 491.235024 
L 648.646347 531.474074 
L 650.476189 503.163777 
L 652.30603 495.355761 
L 654.135872 497.261245 
L 655.965713 482.348745 
L 657.795555 513.439477 
L 659.625396 529.035919 
L 661.455238 517.405485 
L 663.285079 557.168956 
L 665.114921 539.156144 
L 666.944762 556.505639 
L 668.774604 568.3922 
L 670.604445 532.898946 
L 672.434287 526.284226 
L 674.264128 563.377427 
L 676.09397 557.720429 
L 677.923811 563.695398 
L 679.753653 596.442694 
L 681.583494 565.710789 
L 683.413336 578.261889 
L 685.243177 593.910039 
L 687.073019 586.25814 
L 688.90286 638.638273 
L 690.732702 644.164531 
L 692.562543 655.469603 
L 694.392385 639.084394 
L 696.222226 601.754677 
L 698.052068 632.429832 
L 699.881909 647.82316 
L 701.711751 634.899017 
L 703.541592 650.8766 
L 705.371434 651.217452 
L 707.201275 627.735567 
L 709.031117 646.502335 
L 710.860958 633.058194 
L 712.6908 611.496671 
L 714.520641 627.790453 
L 716.350483 635.582328 
L 718.180324 648.959012 
L 720.010166 659.965734 
L 721.840007 676.268938 
L 723.669849 674.938349 
L 725.49969 679.371404 
L 727.329532 631.171565 
L 729.159373 590.083986 
L 730.989215 625.791598 
L 732.819056 642.696306 
L 734.648898 683.237682 
L 736.478739 668.780042 
L 738.308581 640.896268 
L 740.138422 648.851134 
L 741.968264 660.480394 
L 743.798105 676.565414 
L 745.627947 640.044902 
L 747.457788 573.572542 
L 751.117471 521.39483 
L 752.947313 599.692569 
L 754.777154 649.88794 
L 756.606996 675.70211 
L 758.436837 692.473004 
L 760.266679 680.215015 
L 762.09652 679.255486 
L 763.926362 658.928907 
L 765.756203 658.592481 
L 767.586045 637.822255 
L 771.245728 566.623699 
L 773.075569 589.111095 
L 774.905411 538.343688 
L 776.735252 505.399532 
L 778.565094 486.559272 
L 780.394935 477.356699 
L 782.224777 491.079735 
L 784.054618 478.718869 
L 785.88446 491.484927 
L 787.714301 480.530027 
L 791.373984 496.522551 
L 793.203826 488.344069 
L 795.033667 503.511692 
L 796.863509 532.817564 
L 798.69335 495.532814 
L 800.523192 571.121477 
L 802.353033 531.444793 
L 804.182875 558.642326 
L 806.012716 551.795988 
L 807.842558 552.696742 
L 809.672399 535.908619 
L 811.502241 508.58984 
L 813.332082 499.131256 
L 815.161924 479.596368 
L 816.991765 478.786376 
L 818.821607 476.736206 
L 820.651448 483.875935 
L 822.48129 556.944481 
L 824.311131 514.655448 
L 826.140973 515.064741 
L 827.970814 521.448754 
L 829.800656 483.593003 
L 831.630497 493.300621 
L 833.460339 524.762978 
L 835.29018 537.332291 
L 837.120022 584.385562 
L 838.949863 615.694411 
L 840.779705 582.464754 
L 842.609546 560.715834 
L 844.439388 523.765187 
L 846.269229 512.029928 
L 848.099071 567.268804 
L 849.928912 577.941133 
L 851.758754 570.255667 
L 853.588595 564.567824 
L 855.418437 551.307032 
L 857.248278 515.557403 
L 859.07812 523.083833 
L 860.907961 523.602111 
L 862.737803 516.823736 
L 864.567644 569.753054 
L 866.397486 601.099664 
L 868.227327 628.69713 
L 870.057169 633.039919 
L 871.88701 636.033171 
L 873.716852 645.906039 
L 875.546693 611.011452 
L 877.376535 636.956021 
L 879.206376 646.62915 
L 881.036218 624.58185 
L 882.866059 638.249916 
L 884.695901 638.829366 
L 886.525742 625.594334 
L 888.355584 606.298592 
L 890.185425 600.176151 
L 892.015267 627.722718 
L 893.845108 649.113742 
L 895.67495 652.254745 
L 897.504791 574.496096 
L 899.334633 589.329834 
L 901.164474 615.578084 
L 902.994316 607.950289 
L 904.824157 672.049507 
L 906.653999 661.813359 
L 908.48384 671.23497 
L 910.313682 673.450679 
L 912.143523 644.128644 
L 913.973365 652.387234 
L 915.803206 657.834849 
L 917.633048 664.748608 
L 919.462889 665.451229 
L 921.292731 658.961652 
L 923.122572 668.994194 
L 924.952414 661.426405 
L 926.782255 658.571659 
L 928.612097 652.31692 
L 930.441938 652.841427 
L 932.27178 639.710592 
L 934.101621 643.675057 
L 935.931463 647.108539 
L 937.761304 622.004797 
L 939.591146 647.201694 
L 941.420987 638.060189 
L 943.250829 628.038203 
L 946.910512 519.97764 
L 948.740353 484.390528 
L 950.570195 475.400771 
L 952.400036 499.29431 
L 954.229878 481.574744 
L 956.059719 482.895269 
L 957.889561 490.794048 
L 959.719402 500.36545 
L 963.379085 486.209659 
L 965.208927 480.458751 
L 967.038768 501.74961 
L 968.86861 483.888257 
L 970.698451 521.18276 
L 972.528293 510.552623 
L 974.358134 553.297542 
L 976.187976 509.449717 
L 978.017817 489.100345 
L 979.847659 492.301173 
L 981.6775 477.790655 
L 983.507342 478.849598 
L 985.337183 494.50483 
L 987.167025 483.395428 
L 988.996866 510.613546 
L 990.826708 508.785779 
L 992.656549 509.638305 
L 996.316232 489.892672 
L 998.146074 488.233468 
L 999.975915 485.820619 
L 1001.805757 504.129741 
L 1003.635598 495.604277 
L 1005.46544 487.892947 
L 1007.295281 495.433582 
L 1009.125123 493.743481 
L 1010.954964 492.866769 
L 1012.784806 541.692661 
L 1014.614647 555.809706 
L 1016.444489 537.388368 
L 1018.27433 546.39788 
L 1020.104172 526.517584 
L 1021.934013 528.938012 
L 1023.763855 555.204765 
L 1025.593696 578.832755 
L 1027.423538 588.5774 
L 1029.253379 567.034773 
L 1031.083221 564.390647 
L 1032.913062 523.818965 
L 1034.742904 510.006678 
L 1036.572745 569.200245 
L 1038.402587 517.128371 
L 1040.232428 534.668648 
L 1042.06227 609.968176 
L 1043.892111 609.162429 
L 1045.721953 585.525565 
L 1047.551794 630.066692 
L 1051.211478 588.924827 
L 1053.041319 602.271237 
L 1054.871161 587.606352 
L 1056.701002 620.901456 
L 1058.530844 598.485968 
L 1060.360685 614.353353 
L 1065.85021 538.03369 
L 1067.680051 507.960774 
L 1069.509893 550.231958 
L 1071.339734 549.378645 
L 1073.169576 561.327009 
L 1074.999417 568.97751 
L 1076.829259 555.522963 
L 1078.6591 520.547647 
L 1080.488942 524.112252 
L 1082.318783 590.424756 
L 1084.148625 597.45171 
L 1085.978466 654.795533 
L 1087.808308 659.921186 
L 1089.638149 627.458961 
L 1091.467991 578.798722 
L 1093.297832 560.851161 
L 1095.127674 517.569533 
L 1096.957515 577.115414 
L 1098.787357 642.246219 
L 1100.617198 665.300977 
L 1102.44704 626.660172 
L 1104.276881 621.878954 
L 1106.106723 587.677318 
L 1107.936564 535.892943 
L 1109.766406 604.561992 
L 1111.596247 557.335696 
L 1113.426089 574.295819 
L 1115.25593 612.769816 
L 1117.085772 603.569843 
L 1118.915613 624.216095 
L 1120.745455 591.079252 
L 1120.745455 591.079252 
" clip-path="url(#p95df39099f)" style="fill: none; stroke: #ff6347; stroke-linecap: square"/>
   </g>
   <g id="line2d_15">
    <path d="M 207.654545 690.490994 
L 209.484387 692.430232 
L 211.314228 697.644843 
L 213.14407 669.677007 
L 214.973911 693.011576 
L 216.803753 684.665713 
L 218.633594 716.20646 
L 220.463436 693.190529 
L 222.293277 684.127803 
L 224.123119 690.920995 
L 225.95296 698.158998 
L 227.782802 697.407991 
L 229.612643 692.932462 
L 231.442485 676.528378 
L 233.272326 661.21433 
L 235.102168 624.455127 
L 236.932009 643.763211 
L 238.761851 625.451532 
L 240.591692 465.841587 
L 242.421534 478.09413 
L 244.251375 486.421212 
L 246.081217 507.451711 
L 247.911058 514.098715 
L 249.7409 458.416275 
L 251.570741 539.220111 
L 253.400583 412.872863 
L 255.230424 454.310654 
L 257.060266 524.993209 
L 258.890107 492.771409 
L 260.719949 516.019957 
L 262.54979 508.07678 
L 264.379632 510.235481 
L 266.209473 521.498039 
L 268.039315 516.116042 
L 269.869156 546.298668 
L 271.698998 496.978913 
L 273.528839 481.802759 
L 275.358681 477.343384 
L 277.188522 481.154269 
L 279.018364 578.727455 
L 280.848206 557.57831 
L 282.678047 530.220663 
L 284.507889 513.224052 
L 286.33773 509.740519 
L 288.167572 488.693495 
L 289.997413 479.515172 
L 291.827255 454.469878 
L 293.657096 518.577037 
L 295.486938 512.614804 
L 297.316779 498.24392 
L 299.146621 551.942704 
L 300.976462 552.597303 
L 302.806304 519.391791 
L 304.636145 553.861295 
L 306.465987 592.259998 
L 308.295828 552.872449 
L 310.12567 563.270554 
L 311.955511 583.731615 
L 313.785353 574.866613 
L 315.615194 585.468784 
L 317.445036 583.810367 
L 319.274877 542.913622 
L 321.104719 604.021763 
L 322.93456 597.903102 
L 324.764402 552.690737 
L 326.594243 618.106245 
L 328.424085 596.591429 
L 332.083768 604.53209 
L 333.913609 577.944032 
L 335.743451 645.330689 
L 337.573292 620.168177 
L 339.403134 591.579577 
L 341.232975 617.577447 
L 343.062817 618.699083 
L 344.892658 626.067252 
L 346.7225 650.53117 
L 348.552341 621.687292 
L 350.382183 601.811189 
L 352.212024 640.777435 
L 354.041866 601.230642 
L 355.871707 615.87458 
L 357.701549 677.873836 
L 359.53139 656.048711 
L 361.361232 671.390756 
L 363.191073 667.789519 
L 365.020915 652.08642 
L 366.850756 600.53385 
L 368.680598 623.452976 
L 370.510439 571.170989 
L 372.340281 544.228101 
L 374.170122 609.580978 
L 375.999964 600.288885 
L 377.829805 559.22743 
L 379.659647 549.053654 
L 381.489488 560.294096 
L 383.31933 460.060486 
L 385.149171 603.875793 
L 386.979013 636.519632 
L 388.808854 526.394351 
L 390.638696 676.326341 
L 392.468537 640.146143 
L 394.298379 635.136227 
L 396.12822 565.385995 
L 397.958062 558.642492 
L 399.787903 537.886809 
L 401.617745 512.285941 
L 403.447586 568.021372 
L 405.277428 577.337579 
L 407.107269 521.958231 
L 408.937111 474.26902 
L 410.766952 469.190167 
L 412.596794 667.103547 
L 414.426635 453.803806 
L 416.256477 511.496512 
L 418.086318 617.587749 
L 419.91616 573.006076 
L 421.746001 576.592838 
L 423.575843 650.883661 
L 425.405684 642.200838 
L 427.235526 672.722008 
L 429.065367 575.194254 
L 430.895209 646.210425 
L 432.72505 605.704056 
L 434.554892 610.479838 
L 436.384733 595.595221 
L 438.214575 608.38058 
L 440.044416 582.240425 
L 441.874258 573.821783 
L 443.704099 492.471951 
L 445.533941 503.430164 
L 447.363782 575.582156 
L 449.193624 586.67583 
L 451.023465 619.400834 
L 452.853307 594.710215 
L 454.683148 636.112814 
L 456.51299 667.881555 
L 458.342831 617.78464 
L 460.172673 635.891352 
L 462.002514 586.564649 
L 463.832356 561.914348 
L 465.662197 589.847626 
L 467.492039 606.068154 
L 469.32188 598.427033 
L 471.151722 610.881583 
L 472.981563 617.514339 
L 474.811405 612.529024 
L 476.641246 609.819016 
L 478.471088 604.448243 
L 480.300929 597.435433 
L 482.130771 617.927991 
L 483.960612 664.404307 
L 485.790454 643.559165 
L 487.620295 661.448516 
L 489.450137 641.75689 
L 491.279978 617.994681 
L 493.10982 631.968718 
L 494.939661 608.846695 
L 496.769503 631.715563 
L 498.599344 620.91793 
L 500.429186 691.222575 
L 504.088869 605.560198 
L 505.91871 553.275985 
L 507.748552 634.534951 
L 509.578393 617.171157 
L 511.408235 607.52093 
L 513.238076 630.313303 
L 515.067918 627.88923 
L 516.897759 566.997426 
L 518.727601 613.631443 
L 520.557442 631.54144 
L 522.387284 648.036815 
L 524.217125 639.191537 
L 526.046967 649.434839 
L 527.876808 677.540386 
L 529.70665 682.998329 
L 531.536491 680.187597 
L 533.366333 649.258221 
L 535.196174 686.898837 
L 537.026016 633.306493 
L 538.855857 659.696427 
L 540.685699 671.156715 
L 542.51554 709.359779 
L 544.345382 708.269242 
L 546.175223 674.438293 
L 548.005065 697.048547 
L 549.834906 714.058248 
L 551.664748 689.032926 
L 553.494589 733.201035 
L 555.324431 737.538935 
L 557.154272 724.244335 
L 558.984114 707.001762 
L 560.813955 696.496282 
L 562.643797 715.558674 
L 564.473638 715.092092 
L 566.30348 693.52473 
L 568.133321 681.980109 
L 569.963163 712.266052 
L 571.793004 692.382769 
L 573.622846 711.098655 
L 575.452687 687.82791 
L 577.282529 708.655841 
L 579.11237 689.461415 
L 580.942212 688.656104 
L 582.772053 673.416252 
L 584.601895 581.88693 
L 586.431736 622.348735 
L 588.261578 641.154837 
L 590.091419 628.855443 
L 591.921261 367.003279 
L 593.751102 172.966707 
L 595.580944 133.92 
L 597.410785 405.6245 
L 599.240627 476.50436 
L 601.070468 447.399831 
L 602.90031 504.127442 
L 604.730151 423.146512 
L 606.559993 490.82598 
L 608.389834 500.066178 
L 610.219676 489.784349 
L 612.049517 516.55066 
L 613.879359 487.893278 
L 615.7092 482.338515 
L 617.539042 528.523066 
L 619.368883 500.669194 
L 621.198725 540.675445 
L 623.028566 515.237942 
L 624.858408 558.163807 
L 626.688249 571.730632 
L 628.518091 531.387162 
L 630.347932 639.894945 
L 632.177774 592.411726 
L 634.007615 538.246796 
L 635.837457 571.968484 
L 637.667298 567.312342 
L 639.49714 514.576841 
L 641.326981 474.812893 
L 643.156823 450.009509 
L 644.986664 483.53003 
L 646.816506 495.482846 
L 648.646347 563.216547 
L 650.476189 534.160868 
L 652.30603 514.607219 
L 654.135872 552.333752 
L 655.965713 495.724735 
L 657.795555 500.364911 
L 659.625396 551.252942 
L 661.455238 534.502529 
L 663.285079 566.440454 
L 665.114921 575.069541 
L 666.944762 578.330815 
L 668.774604 591.183206 
L 670.604445 480.231978 
L 672.434287 531.501594 
L 674.264128 589.759058 
L 676.09397 570.960762 
L 677.923811 583.496114 
L 679.753653 609.1651 
L 681.583494 583.159061 
L 683.413336 601.687563 
L 685.243177 570.938988 
L 687.073019 570.838451 
L 688.90286 674.849781 
L 690.732702 646.506166 
L 692.562543 606.593525 
L 694.392385 649.802167 
L 696.222226 620.712061 
L 698.052068 714.639738 
L 699.881909 585.197935 
L 701.711751 584.009402 
L 703.541592 649.913245 
L 705.371434 662.423985 
L 707.201275 630.419131 
L 709.031117 669.246064 
L 710.860958 662.744316 
L 712.6908 648.264478 
L 714.520641 652.067296 
L 716.350483 668.044154 
L 718.180324 681.463228 
L 720.010166 707.340485 
L 721.840007 699.797466 
L 723.669849 658.995483 
L 725.49969 693.55895 
L 727.329532 642.035391 
L 729.159373 605.558655 
L 730.989215 722.784118 
L 732.819056 670.938122 
L 736.478739 707.483331 
L 738.308581 632.408731 
L 740.138422 685.638722 
L 741.968264 672.358718 
L 743.798105 660.896836 
L 745.627947 709.807245 
L 747.457788 676.83177 
L 749.28763 609.232505 
L 751.117471 545.767095 
L 752.947313 637.156039 
L 754.777154 625.942621 
L 756.606996 640.507921 
L 758.436837 709.175137 
L 760.266679 657.992245 
L 762.09652 651.675212 
L 763.926362 676.754882 
L 765.756203 634.661932 
L 767.586045 650.585384 
L 769.415886 601.168207 
L 771.245728 603.098271 
L 773.075569 623.466737 
L 774.905411 566.839838 
L 776.735252 500.473462 
L 778.565094 548.969083 
L 780.394935 444.635837 
L 782.224777 540.992463 
L 784.054618 500.444637 
L 785.88446 466.20027 
L 787.714301 467.263292 
L 789.544143 448.266811 
L 791.373984 566.773884 
L 793.203826 528.590947 
L 795.033667 527.263194 
L 796.863509 563.946026 
L 798.69335 545.922115 
L 800.523192 573.897698 
L 802.353033 557.085006 
L 804.182875 530.535858 
L 806.012716 564.565857 
L 807.842558 594.791794 
L 809.672399 563.825962 
L 811.502241 560.560276 
L 813.332082 527.402787 
L 815.161924 482.499291 
L 816.991765 475.714497 
L 818.821607 477.18911 
L 820.651448 508.349318 
L 822.48129 559.025341 
L 824.311131 541.136155 
L 826.140973 503.905225 
L 827.970814 436.500014 
L 829.800656 465.949662 
L 831.630497 480.414229 
L 833.460339 549.43087 
L 835.29018 552.6177 
L 837.120022 569.873212 
L 838.949863 588.353692 
L 840.779705 590.009665 
L 842.609546 503.812412 
L 844.439388 477.412052 
L 846.269229 495.208838 
L 848.099071 509.212943 
L 849.928912 570.488735 
L 851.758754 571.018496 
L 853.588595 543.668303 
L 855.418437 546.416414 
L 857.248278 505.453393 
L 859.07812 492.664121 
L 860.907961 503.046549 
L 862.737803 458.161153 
L 864.567644 584.747982 
L 866.397486 588.479783 
L 868.227327 612.084984 
L 870.057169 639.492362 
L 871.88701 654.226483 
L 873.716852 717.410946 
L 875.546693 600.703034 
L 877.376535 640.122795 
L 879.206376 629.547523 
L 881.036218 636.01325 
L 882.866059 636.501875 
L 884.695901 648.547431 
L 886.525742 680.97743 
L 888.355584 687.415092 
L 890.185425 644.204301 
L 892.015267 701.194587 
L 893.845108 670.438666 
L 895.67495 666.001905 
L 897.504791 554.327183 
L 899.334633 623.562024 
L 901.164474 608.414044 
L 902.994316 575.001153 
L 904.824157 675.369406 
L 906.653999 668.963525 
L 908.48384 688.424133 
L 910.313682 689.426409 
L 912.143523 660.485162 
L 913.973365 659.360202 
L 915.803206 675.196732 
L 917.633048 670.570493 
L 919.462889 674.038071 
L 921.292731 665.494871 
L 923.122572 649.035756 
L 924.952414 644.794405 
L 926.782255 669.316233 
L 928.612097 662.217786 
L 930.441938 647.52654 
L 932.27178 645.09553 
L 934.101621 664.539551 
L 935.931463 662.761007 
L 937.761304 605.904188 
L 939.591146 644.311288 
L 941.420987 598.350197 
L 943.250829 611.313706 
L 945.08067 622.454801 
L 946.910512 531.365999 
L 948.740353 517.694361 
L 950.570195 506.459261 
L 952.400036 477.670466 
L 954.229878 489.962955 
L 956.059719 445.220423 
L 957.889561 530.181877 
L 959.719402 547.435908 
L 961.549244 541.698128 
L 963.379085 515.334938 
L 965.208927 510.61659 
L 967.038768 530.611153 
L 968.86861 501.585148 
L 970.698451 469.780343 
L 972.528293 525.305858 
L 974.358134 588.189571 
L 976.187976 529.118544 
L 978.017817 514.686324 
L 979.847659 548.963637 
L 981.6775 481.134472 
L 983.507342 482.278048 
L 985.337183 535.186202 
L 987.167025 531.109427 
L 988.996866 547.150097 
L 990.826708 511.939952 
L 992.656549 547.005638 
L 994.486391 509.588026 
L 996.316232 509.291674 
L 998.146074 510.891384 
L 999.975915 486.256584 
L 1001.805757 517.240463 
L 1003.635598 507.614372 
L 1005.46544 512.19818 
L 1007.295281 454.313823 
L 1009.125123 488.558397 
L 1010.954964 483.290977 
L 1012.784806 533.695954 
L 1014.614647 561.736281 
L 1016.444489 534.013966 
L 1018.27433 513.646308 
L 1020.104172 489.979459 
L 1021.934013 434.544272 
L 1023.763855 528.432075 
L 1025.593696 581.21565 
L 1027.423538 593.189744 
L 1029.253379 580.165768 
L 1031.083221 531.454173 
L 1032.913062 493.725548 
L 1034.742904 462.321256 
L 1036.572745 624.214915 
L 1038.402587 459.752041 
L 1040.232428 524.588452 
L 1042.06227 627.729976 
L 1043.892111 593.277805 
L 1045.721953 589.598053 
L 1047.551794 661.201667 
L 1049.381636 603.84355 
L 1051.211478 559.629619 
L 1053.041319 614.874511 
L 1054.871161 608.581115 
L 1056.701002 632.434543 
L 1058.530844 613.457465 
L 1060.360685 664.737353 
L 1062.190527 608.404932 
L 1064.020368 538.889343 
L 1065.85021 533.393224 
L 1067.680051 507.84833 
L 1069.509893 584.150402 
L 1071.339734 615.506372 
L 1073.169576 593.29346 
L 1074.999417 593.538963 
L 1076.829259 581.551606 
L 1078.6591 537.270726 
L 1080.488942 527.463834 
L 1082.318783 561.13223 
L 1084.148625 618.545461 
L 1085.978466 645.011756 
L 1087.808308 657.564212 
L 1089.638149 683.699107 
L 1091.467991 536.169933 
L 1093.297832 627.955434 
L 1095.127674 552.073288 
L 1096.957515 596.871535 
L 1098.787357 652.974398 
L 1100.617198 645.149329 
L 1102.44704 640.415957 
L 1104.276881 639.700301 
L 1106.106723 608.593023 
L 1107.936564 564.817065 
L 1109.766406 600.351599 
L 1111.596247 537.919382 
L 1113.426089 599.293454 
L 1115.25593 617.701063 
L 1117.085772 628.035201 
L 1120.745455 707.954776 
L 1120.745455 707.954776 
" clip-path="url(#p95df39099f)" style="fill: none; stroke: #da70d6; stroke-linecap: square"/>
   </g>
   <g id="line2d_16">
    <path d="M 207.654545 689.873602 
L 209.484387 708.360849 
L 211.314228 705.932756 
L 213.14407 666.741764 
L 214.973911 700.00249 
L 216.803753 706.109118 
L 218.633594 681.462363 
L 220.463436 690.294698 
L 222.293277 685.120832 
L 224.123119 680.866777 
L 225.95296 668.628828 
L 227.782802 687.194076 
L 229.612643 698.555279 
L 231.442485 671.330061 
L 233.272326 659.711942 
L 235.102168 669.894487 
L 236.932009 642.235958 
L 238.761851 647.358381 
L 240.591692 541.74178 
L 242.421534 553.6128 
L 244.251375 477.676596 
L 246.081217 487.593033 
L 247.911058 495.217246 
L 249.7409 521.861939 
L 251.570741 533.793136 
L 253.400583 521.509821 
L 255.230424 514.439319 
L 257.060266 497.60305 
L 258.890107 492.687376 
L 260.719949 496.082362 
L 262.54979 496.034961 
L 264.379632 511.799283 
L 266.209473 503.519892 
L 268.039315 512.973382 
L 269.869156 515.3274 
L 271.698998 503.061252 
L 273.528839 505.582238 
L 275.358681 502.071826 
L 277.188522 517.565143 
L 279.018364 537.050104 
L 280.848206 545.432765 
L 282.678047 531.694323 
L 284.507889 519.491997 
L 286.33773 508.646932 
L 288.167572 506.373199 
L 289.997413 505.865109 
L 291.827255 506.925066 
L 293.657096 510.550304 
L 295.486938 511.415689 
L 297.316779 512.581319 
L 299.146621 522.8091 
L 300.976462 510.850424 
L 302.806304 503.408877 
L 304.636145 503.729622 
L 306.465987 579.757883 
L 308.295828 540.631565 
L 310.12567 534.177517 
L 311.955511 565.208104 
L 313.785353 542.750009 
L 315.615194 594.93938 
L 317.445036 561.051013 
L 319.274877 551.405643 
L 321.104719 598.092186 
L 322.93456 633.802904 
L 324.764402 565.514933 
L 326.594243 608.654401 
L 328.424085 594.876769 
L 330.253926 616.585298 
L 332.083768 615.461674 
L 333.913609 580.157112 
L 335.743451 636.897738 
L 337.573292 627.923947 
L 339.403134 621.625272 
L 341.232975 648.730469 
L 343.062817 617.334594 
L 344.892658 636.54123 
L 346.7225 661.009565 
L 348.552341 654.161797 
L 350.382183 633.959083 
L 352.212024 674.297692 
L 354.041866 636.417169 
L 355.871707 652.73447 
L 357.701549 673.453144 
L 359.53139 645.27191 
L 361.361232 654.526117 
L 363.191073 645.014706 
L 365.020915 594.815215 
L 366.850756 584.216957 
L 368.680598 604.973314 
L 370.510439 556.264329 
L 372.340281 548.84469 
L 374.170122 611.789481 
L 375.999964 628.833772 
L 377.829805 541.304366 
L 379.659647 545.176712 
L 381.489488 554.397321 
L 383.31933 547.591342 
L 385.149171 635.166129 
L 386.979013 701.900638 
L 388.808854 621.474363 
L 390.638696 658.377465 
L 392.468537 596.792762 
L 394.298379 611.066277 
L 396.12822 607.594123 
L 397.958062 619.830286 
L 399.787903 586.752822 
L 401.617745 585.507632 
L 403.447586 582.326032 
L 405.277428 583.357878 
L 407.107269 555.026035 
L 408.937111 559.724441 
L 410.766952 581.099841 
L 412.596794 617.343489 
L 414.426635 601.935799 
L 418.086318 556.105457 
L 419.91616 529.170065 
L 421.746001 555.280556 
L 423.575843 617.389802 
L 425.405684 635.34838 
L 427.235526 666.156749 
L 429.065367 661.024319 
L 430.895209 664.51743 
L 432.72505 644.60707 
L 436.384733 591.456509 
L 438.214575 596.143319 
L 440.044416 554.302954 
L 441.874258 549.714197 
L 443.704099 552.421016 
L 445.533941 566.246556 
L 447.363782 561.444734 
L 449.193624 535.145159 
L 451.023465 583.342844 
L 452.853307 527.027786 
L 454.683148 546.746664 
L 456.51299 611.673506 
L 458.342831 634.08682 
L 460.172673 591.072604 
L 462.002514 539.769617 
L 463.832356 523.795379 
L 465.662197 529.194273 
L 467.492039 559.532126 
L 469.32188 557.722334 
L 471.151722 565.468226 
L 472.981563 584.507086 
L 474.811405 563.512112 
L 476.641246 558.069979 
L 478.471088 556.609613 
L 480.300929 624.715364 
L 482.130771 605.724246 
L 483.960612 650.690404 
L 485.790454 648.851165 
L 487.620295 632.151962 
L 489.450137 610.143903 
L 491.279978 630.862809 
L 493.10982 615.657851 
L 494.939661 632.019959 
L 496.769503 636.31482 
L 498.599344 643.342115 
L 500.429186 655.44027 
L 504.088869 596.587733 
L 505.91871 571.849848 
L 507.748552 598.338114 
L 509.578393 619.07108 
L 511.408235 618.358437 
L 513.238076 649.079481 
L 515.067918 644.082414 
L 516.897759 582.033428 
L 518.727601 626.091594 
L 520.557442 625.979056 
L 522.387284 633.172492 
L 524.217125 624.051136 
L 526.046967 650.88655 
L 527.876808 672.485145 
L 529.70665 643.575587 
L 531.536491 650.257256 
L 533.366333 643.172631 
L 535.196174 638.207796 
L 537.026016 634.782504 
L 538.855857 644.643061 
L 540.685699 667.329704 
L 542.51554 680.282134 
L 544.345382 667.070596 
L 546.175223 657.034342 
L 548.005065 703.004763 
L 549.834906 683.86009 
L 551.664748 700.341314 
L 553.494589 709.753683 
L 555.324431 693.857175 
L 557.154272 691.861778 
L 558.984114 717.814334 
L 560.813955 716.321767 
L 562.643797 714.118389 
L 564.473638 698.439449 
L 566.30348 704.895872 
L 568.133321 713.181743 
L 569.963163 696.639006 
L 571.793004 693.114407 
L 573.622846 711.18818 
L 575.452687 689.133816 
L 577.282529 708.66751 
L 579.11237 713.502988 
L 580.942212 717.638037 
L 582.772053 718.004063 
L 584.601895 692.400609 
L 586.431736 694.532213 
L 588.261578 644.467665 
L 590.091419 583.424744 
L 591.921261 536.043656 
L 593.751102 479.147461 
L 595.580944 492.400985 
L 597.410785 497.322685 
L 599.240627 490.013627 
L 601.070468 490.742216 
L 602.90031 489.424031 
L 604.730151 493.039308 
L 606.559993 493.907219 
L 608.389834 493.093045 
L 610.219676 494.789047 
L 612.049517 502.292428 
L 613.879359 503.331926 
L 615.7092 510.760738 
L 617.539042 511.259075 
L 619.368883 512.259994 
L 621.198725 516.412 
L 623.028566 509.535655 
L 624.858408 533.993382 
L 626.688249 540.920441 
L 628.518091 551.327636 
L 630.347932 589.001706 
L 632.177774 561.51073 
L 634.007615 542.898216 
L 635.837457 525.986218 
L 637.667298 528.719191 
L 639.49714 518.453266 
L 641.326981 519.374148 
L 643.156823 510.936155 
L 644.986664 511.317492 
L 646.816506 515.934392 
L 648.646347 529.837214 
L 650.476189 521.927894 
L 652.30603 512.961455 
L 654.135872 509.465518 
L 655.965713 489.09378 
L 657.795555 519.876813 
L 659.625396 540.350723 
L 661.455238 524.726595 
L 663.285079 558.150243 
L 665.114921 549.983048 
L 666.944762 557.592226 
L 668.774604 584.702901 
L 670.604445 535.868819 
L 672.434287 531.323796 
L 674.264128 592.606049 
L 676.09397 574.388829 
L 677.923811 574.50206 
L 679.753653 618.611136 
L 681.583494 570.78577 
L 683.413336 582.814708 
L 685.243177 603.461571 
L 687.073019 602.865421 
L 688.90286 628.931296 
L 690.732702 638.67621 
L 692.562543 636.017391 
L 694.392385 625.152219 
L 696.222226 628.236006 
L 698.052068 648.684528 
L 699.881909 666.55167 
L 701.711751 646.524544 
L 703.541592 679.611538 
L 705.371434 663.968084 
L 707.201275 614.189243 
L 710.860958 655.002856 
L 712.6908 641.385255 
L 714.520641 650.351291 
L 716.350483 661.717497 
L 718.180324 676.633233 
L 720.010166 674.631913 
L 721.840007 672.030994 
L 723.669849 675.253995 
L 725.49969 692.512028 
L 727.329532 666.926349 
L 729.159373 607.95704 
L 730.989215 667.799096 
L 732.819056 702.109617 
L 734.648898 699.20922 
L 736.478739 674.976804 
L 738.308581 640.542017 
L 740.138422 648.671783 
L 741.968264 669.66057 
L 743.798105 672.762632 
L 745.627947 637.146492 
L 747.457788 607.193455 
L 749.28763 594.303977 
L 751.117471 586.779763 
L 752.947313 606.718394 
L 754.777154 685.355593 
L 756.606996 673.236155 
L 758.436837 714.14971 
L 760.266679 683.596804 
L 762.09652 694.166888 
L 763.926362 666.716039 
L 765.756203 616.981876 
L 767.586045 602.451976 
L 769.415886 522.412771 
L 771.245728 519.333706 
L 773.075569 574.582024 
L 774.905411 525.931715 
L 778.565094 500.398582 
L 780.394935 497.137391 
L 782.224777 514.767685 
L 784.054618 501.193188 
L 785.88446 512.492233 
L 787.714301 498.273657 
L 789.544143 508.366629 
L 791.373984 511.757701 
L 793.203826 513.056939 
L 795.033667 521.538129 
L 796.863509 534.870737 
L 798.69335 506.942751 
L 800.523192 549.761991 
L 802.353033 537.594785 
L 804.182875 548.966267 
L 806.012716 564.635829 
L 807.842558 562.367459 
L 809.672399 557.129735 
L 813.332082 522.530993 
L 815.161924 509.27898 
L 816.991765 507.937561 
L 818.821607 505.59193 
L 820.651448 509.002074 
L 822.48129 534.137261 
L 824.311131 535.868135 
L 826.140973 541.828029 
L 827.970814 526.039727 
L 829.800656 503.43793 
L 831.630497 502.049503 
L 833.460339 523.675148 
L 835.29018 551.265533 
L 837.120022 590.902033 
L 838.949863 603.411852 
L 840.779705 587.823361 
L 842.609546 585.694439 
L 844.439388 527.787396 
L 846.269229 535.118715 
L 848.099071 584.08306 
L 849.928912 587.4852 
L 853.588595 571.736989 
L 855.418437 566.315938 
L 857.248278 532.471907 
L 859.07812 539.68049 
L 860.907961 544.850644 
L 862.737803 536.45825 
L 864.567644 586.627156 
L 866.397486 609.662754 
L 868.227327 622.08826 
L 870.057169 617.664244 
L 871.88701 640.077071 
L 873.716852 664.935678 
L 875.546693 633.098492 
L 877.376535 658.607235 
L 879.206376 660.274893 
L 881.036218 611.399074 
L 882.866059 635.910984 
L 884.695901 641.154879 
L 886.525742 635.442311 
L 888.355584 601.098918 
L 890.185425 622.524007 
L 892.015267 657.936582 
L 893.845108 665.875385 
L 895.67495 667.34947 
L 897.504791 583.210696 
L 899.334633 633.731347 
L 901.164474 615.582101 
L 902.994316 576.567026 
L 904.824157 652.312794 
L 906.653999 667.081654 
L 908.48384 644.476476 
L 910.313682 652.263494 
L 912.143523 636.379656 
L 913.973365 678.021763 
L 915.803206 674.600975 
L 917.633048 650.140587 
L 919.462889 656.471443 
L 921.292731 656.533189 
L 923.122572 677.343505 
L 924.952414 653.557047 
L 926.782255 623.281804 
L 928.612097 643.397923 
L 930.441938 619.413704 
L 932.27178 642.522567 
L 934.101621 621.70828 
L 935.931463 635.476997 
L 937.761304 626.318263 
L 939.591146 614.074355 
L 941.420987 634.424784 
L 943.250829 588.890597 
L 945.08067 515.014855 
L 946.910512 477.929005 
L 948.740353 473.950593 
L 950.570195 480.184308 
L 952.400036 522.771619 
L 954.229878 505.8789 
L 956.059719 509.290121 
L 957.889561 514.682306 
L 959.719402 521.56418 
L 961.549244 515.268652 
L 963.379085 510.026848 
L 965.208927 503.788722 
L 967.038768 519.811003 
L 968.86861 503.836703 
L 970.698451 544.935712 
L 972.528293 527.529954 
L 974.358134 555.925899 
L 976.187976 519.830406 
L 978.017817 506.470464 
L 979.847659 498.715647 
L 981.6775 501.658288 
L 983.507342 507.435641 
L 985.337183 517.062934 
L 987.167025 514.194178 
L 988.996866 528.877648 
L 990.826708 520.298738 
L 992.656549 520.326341 
L 994.486391 511.971304 
L 996.316232 511.69535 
L 998.146074 512.368317 
L 999.975915 510.778692 
L 1001.805757 523.160307 
L 1003.635598 503.827281 
L 1005.46544 503.385166 
L 1007.295281 504.691258 
L 1009.125123 502.545417 
L 1010.954964 506.80877 
L 1012.784806 569.793082 
L 1014.614647 556.091914 
L 1016.444489 548.021819 
L 1018.27433 573.32269 
L 1020.104172 542.17116 
L 1021.934013 555.644664 
L 1023.763855 571.172491 
L 1025.593696 593.708561 
L 1027.423538 611.301198 
L 1029.253379 590.130662 
L 1031.083221 570.917907 
L 1032.913062 537.223781 
L 1034.742904 532.823342 
L 1036.572745 595.69933 
L 1038.402587 540.117676 
L 1040.232428 564.202122 
L 1042.06227 622.928848 
L 1043.892111 593.009606 
L 1045.721953 572.449974 
L 1047.551794 622.832928 
L 1049.381636 606.838303 
L 1051.211478 607.077159 
L 1053.041319 623.362286 
L 1054.871161 609.084588 
L 1056.701002 628.705952 
L 1058.530844 618.435781 
L 1060.360685 630.271225 
L 1062.190527 583.454729 
L 1064.020368 567.949194 
L 1065.85021 550.774361 
L 1067.680051 524.127576 
L 1069.509893 573.766037 
L 1071.339734 571.695418 
L 1073.169576 578.980631 
L 1074.999417 567.842921 
L 1076.829259 563.626151 
L 1078.6591 546.623576 
L 1080.488942 555.84168 
L 1082.318783 592.771775 
L 1084.148625 613.992693 
L 1085.978466 652.572244 
L 1087.808308 672.496514 
L 1089.638149 613.332534 
L 1091.467991 539.282918 
L 1093.297832 558.257303 
L 1095.127674 550.068924 
L 1096.957515 587.722928 
L 1098.787357 663.716612 
L 1100.617198 678.620363 
L 1102.44704 611.273481 
L 1104.276881 618.83179 
L 1106.106723 586.278662 
L 1107.936564 577.098485 
L 1109.766406 619.521085 
L 1111.596247 587.68234 
L 1113.426089 608.326791 
L 1115.25593 633.951939 
L 1117.085772 627.642361 
L 1118.915613 640.08435 
L 1120.745455 580.817271 
L 1120.745455 580.817271 
" clip-path="url(#p95df39099f)" style="fill: none; stroke: #8fbc8f; stroke-linecap: square"/>
   </g>
   <g id="patch_3">
    <path d="M 162 768.96 
L 162 103.68 
" style="fill: none; stroke: #000000; stroke-width: 0.8; stroke-linejoin: miter; stroke-linecap: square"/>
   </g>
   <g id="patch_4">
    <path d="M 1166.4 768.96 
L 1166.4 103.68 
" style="fill: none; stroke: #000000; stroke-width: 0.8; stroke-linejoin: miter; stroke-linecap: square"/>
   </g>
   <g id="patch_5">
    <path d="M 162 768.96 
L 1166.4 768.96 
" style="fill: none; stroke: #000000; stroke-width: 0.8; stroke-linejoin: miter; stroke-linecap: square"/>
   </g>
   <g id="patch_6">
    <path d="M 162 103.68 
L 1166.4 103.68 
" style="fill: none; stroke: #000000; stroke-width: 0.8; stroke-linejoin: miter; stroke-linecap: square"/>
   </g>
   <g id="text_13">
    <!-- Function 1 -->
    <g transform="translate(632.957813 97.68) scale(0.12 -0.12)">
     <defs>
      <path id="DejaVuSans-46" d="M 628 4666 
L 3309 4666 
L 3309 4134 
L 1259 4134 
L 1259 2759 
L 3109 2759 
L 3109 2228 
L 1259 2228 
L 1259 0 
L 628 0 
L 628 4666 
z
" transform="scale(0.015625)"/>
      <path id="DejaVuSans-75" d="M 544 1381 
L 544 3500 
L 1119 3500 
L 1119 1403 
Q 1119 906 1312 657 
Q 1506 409 1894 409 
Q 2359 409 2629 706 
Q 2900 1003 2900 1516 
L 2900 3500 
L 3475 3500 
L 3475 0 
L 2900 0 
L 2900 538 
Q 2691 219 2414 64 
Q 2138 -91 1772 -91 
Q 1169 -91 856 284 
Q 544 659 544 1381 
z
M 1991 3584 
L 1991 3584 
z
" transform="scale(0.015625)"/>
      <path id="DejaVuSans-6e" d="M 3513 2113 
L 3513 0 
L 2938 0 
L 2938 2094 
Q 2938 2591 2744 2837 
Q 2550 3084 2163 3084 
Q 1697 3084 1428 2787 
Q 1159 2491 1159 1978 
L 1159 0 
L 581 0 
L 581 3500 
L 1159 3500 
L 1159 2956 
Q 1366 3272 1645 3428 
Q 1925 3584 2291 3584 
Q 2894 3584 3203 3211 
Q 3513 2838 3513 2113 
z
" transform="scale(0.015625)"/>
      <path id="DejaVuSans-63" d="M 3122 3366 
L 3122 2828 
Q 2878 2963 2633 3030 
Q 2388 3097 2138 3097 
Q 1578 3097 1268 2742 
Q 959 2388 959 1747 
Q 959 1106 1268 751 
Q 1578 397 2138 397 
Q 2388 397 2633 464 
Q 2878 531 3122 666 
L 3122 134 
Q 2881 22 2623 -34 
Q 2366 -91 2075 -91 
Q 1284 -91 818 406 
Q 353 903 353 1747 
Q 353 2603 823 3093 
Q 1294 3584 2113 3584 
Q 2378 3584 2631 3529 
Q 2884 3475 3122 3366 
z
" transform="scale(0.015625)"/>
      <path id="DejaVuSans-74" d="M 1172 4494 
L 1172 3500 
L 2356 3500 
L 2356 3053 
L 1172 3053 
L 1172 1153 
Q 1172 725 1289 603 
Q 1406 481 1766 481 
L 2356 481 
L 2356 0 
L 1766 0 
Q 1100 0 847 248 
Q 594 497 594 1153 
L 594 3053 
L 172 3053 
L 172 3500 
L 594 3500 
L 594 4494 
L 1172 4494 
z
" transform="scale(0.015625)"/>
      <path id="DejaVuSans-69" d="M 603 3500 
L 1178 3500 
L 1178 0 
L 603 0 
L 603 3500 
z
M 603 4863 
L 1178 4863 
L 1178 4134 
L 603 4134 
L 603 4863 
z
" transform="scale(0.015625)"/>
      <path id="DejaVuSans-6f" d="M 1959 3097 
Q 1497 3097 1228 2736 
Q 959 2375 959 1747 
Q 959 1119 1226 758 
Q 1494 397 1959 397 
Q 2419 397 2687 759 
Q 2956 1122 2956 1747 
Q 2956 2369 2687 2733 
Q 2419 3097 1959 3097 
z
M 1959 3584 
Q 2709 3584 3137 3096 
Q 3566 2609 3566 1747 
Q 3566 888 3137 398 
Q 2709 -91 1959 -91 
Q 1206 -91 779 398 
Q 353 888 353 1747 
Q 353 2609 779 3096 
Q 1206 3584 1959 3584 
z
" transform="scale(0.015625)"/>
      <path id="DejaVuSans-20" transform="scale(0.015625)"/>
     </defs>
     <use xlink:href="#DejaVuSans-46"/>
     <use xlink:href="#DejaVuSans-75" x="52.019531"/>
     <use xlink:href="#DejaVuSans-6e" x="115.398438"/>
     <use xlink:href="#DejaVuSans-63" x="178.777344"/>
     <use xlink:href="#DejaVuSans-74" x="233.757812"/>
     <use xlink:href="#DejaVuSans-69" x="272.966797"/>
     <use xlink:href="#DejaVuSans-6f" x="300.75"/>
     <use xlink:href="#DejaVuSans-6e" x="361.931641"/>
     <use xlink:href="#DejaVuSans-20" x="425.310547"/>
     <use xlink:href="#DejaVuSans-31" x="457.097656"/>
    </g>
   </g>
   <g id="legend_1">
    <g id="patch_7">
     <path d="M 1011.90625 170.3925 
L 1159.4 170.3925 
Q 1161.4 170.3925 1161.4 168.3925 
L 1161.4 110.68 
Q 1161.4 108.68 1159.4 108.68 
L 1011.90625 108.68 
Q 1009.90625 108.68 1009.90625 110.68 
L 1009.90625 168.3925 
Q 1009.90625 170.3925 1011.90625 170.3925 
z
" style="fill: #ffffff; opacity: 0.8; stroke: #cccccc; stroke-linejoin: miter"/>
    </g>
    <g id="line2d_17">
     <path d="M 1013.90625 116.778437 
L 1023.90625 116.778437 
L 1033.90625 116.778437 
" style="fill: none; stroke: #4169e1; stroke-linecap: square"/>
    </g>
    <g id="text_14">
     <!-- Truth -->
     <g transform="translate(1041.90625 120.278437) scale(0.1 -0.1)">
      <defs>
       <path id="DejaVuSans-54" d="M -19 4666 
L 3928 4666 
L 3928 4134 
L 2272 4134 
L 2272 0 
L 1638 0 
L 1638 4134 
L -19 4134 
L -19 4666 
z
" transform="scale(0.015625)"/>
       <path id="DejaVuSans-72" d="M 2631 2963 
Q 2534 3019 2420 3045 
Q 2306 3072 2169 3072 
Q 1681 3072 1420 2755 
Q 1159 2438 1159 1844 
L 1159 0 
L 581 0 
L 581 3500 
L 1159 3500 
L 1159 2956 
Q 1341 3275 1631 3429 
Q 1922 3584 2338 3584 
Q 2397 3584 2469 3576 
Q 2541 3569 2628 3553 
L 2631 2963 
z
" transform="scale(0.015625)"/>
       <path id="DejaVuSans-68" d="M 3513 2113 
L 3513 0 
L 2938 0 
L 2938 2094 
Q 2938 2591 2744 2837 
Q 2550 3084 2163 3084 
Q 1697 3084 1428 2787 
Q 1159 2491 1159 1978 
L 1159 0 
L 581 0 
L 581 4863 
L 1159 4863 
L 1159 2956 
Q 1366 3272 1645 3428 
Q 1925 3584 2291 3584 
Q 2894 3584 3203 3211 
Q 3513 2838 3513 2113 
z
" transform="scale(0.015625)"/>
      </defs>
      <use xlink:href="#DejaVuSans-54"/>
      <use xlink:href="#DejaVuSans-72" x="46.333984"/>
      <use xlink:href="#DejaVuSans-75" x="87.447266"/>
      <use xlink:href="#DejaVuSans-74" x="150.826172"/>
      <use xlink:href="#DejaVuSans-68" x="190.035156"/>
     </g>
    </g>
    <g id="line2d_18">
     <path d="M 1013.90625 131.456562 
L 1023.90625 131.456562 
L 1033.90625 131.456562 
" style="fill: none; stroke: #ff6347; stroke-linecap: square"/>
    </g>
    <g id="text_15">
     <!-- Gossip predictions -->
     <g transform="translate(1041.90625 134.956562) scale(0.1 -0.1)">
      <defs>
       <path id="DejaVuSans-47" d="M 3809 666 
L 3809 1919 
L 2778 1919 
L 2778 2438 
L 4434 2438 
L 4434 434 
Q 4069 175 3628 42 
Q 3188 -91 2688 -91 
Q 1594 -91 976 548 
Q 359 1188 359 2328 
Q 359 3472 976 4111 
Q 1594 4750 2688 4750 
Q 3144 4750 3555 4637 
Q 3966 4525 4313 4306 
L 4313 3634 
Q 3963 3931 3569 4081 
Q 3175 4231 2741 4231 
Q 1884 4231 1454 3753 
Q 1025 3275 1025 2328 
Q 1025 1384 1454 906 
Q 1884 428 2741 428 
Q 3075 428 3337 486 
Q 3600 544 3809 666 
z
" transform="scale(0.015625)"/>
       <path id="DejaVuSans-73" d="M 2834 3397 
L 2834 2853 
Q 2591 2978 2328 3040 
Q 2066 3103 1784 3103 
Q 1356 3103 1142 2972 
Q 928 2841 928 2578 
Q 928 2378 1081 2264 
Q 1234 2150 1697 2047 
L 1894 2003 
Q 2506 1872 2764 1633 
Q 3022 1394 3022 966 
Q 3022 478 2636 193 
Q 2250 -91 1575 -91 
Q 1294 -91 989 -36 
Q 684 19 347 128 
L 347 722 
Q 666 556 975 473 
Q 1284 391 1588 391 
Q 1994 391 2212 530 
Q 2431 669 2431 922 
Q 2431 1156 2273 1281 
Q 2116 1406 1581 1522 
L 1381 1569 
Q 847 1681 609 1914 
Q 372 2147 372 2553 
Q 372 3047 722 3315 
Q 1072 3584 1716 3584 
Q 2034 3584 2315 3537 
Q 2597 3491 2834 3397 
z
" transform="scale(0.015625)"/>
       <path id="DejaVuSans-70" d="M 1159 525 
L 1159 -1331 
L 581 -1331 
L 581 3500 
L 1159 3500 
L 1159 2969 
Q 1341 3281 1617 3432 
Q 1894 3584 2278 3584 
Q 2916 3584 3314 3078 
Q 3713 2572 3713 1747 
Q 3713 922 3314 415 
Q 2916 -91 2278 -91 
Q 1894 -91 1617 61 
Q 1341 213 1159 525 
z
M 3116 1747 
Q 3116 2381 2855 2742 
Q 2594 3103 2138 3103 
Q 1681 3103 1420 2742 
Q 1159 2381 1159 1747 
Q 1159 1113 1420 752 
Q 1681 391 2138 391 
Q 2594 391 2855 752 
Q 3116 1113 3116 1747 
z
" transform="scale(0.015625)"/>
       <path id="DejaVuSans-65" d="M 3597 1894 
L 3597 1613 
L 953 1613 
Q 991 1019 1311 708 
Q 1631 397 2203 397 
Q 2534 397 2845 478 
Q 3156 559 3463 722 
L 3463 178 
Q 3153 47 2828 -22 
Q 2503 -91 2169 -91 
Q 1331 -91 842 396 
Q 353 884 353 1716 
Q 353 2575 817 3079 
Q 1281 3584 2069 3584 
Q 2775 3584 3186 3129 
Q 3597 2675 3597 1894 
z
M 3022 2063 
Q 3016 2534 2758 2815 
Q 2500 3097 2075 3097 
Q 1594 3097 1305 2825 
Q 1016 2553 972 2059 
L 3022 2063 
z
" transform="scale(0.015625)"/>
       <path id="DejaVuSans-64" d="M 2906 2969 
L 2906 4863 
L 3481 4863 
L 3481 0 
L 2906 0 
L 2906 525 
Q 2725 213 2448 61 
Q 2172 -91 1784 -91 
Q 1150 -91 751 415 
Q 353 922 353 1747 
Q 353 2572 751 3078 
Q 1150 3584 1784 3584 
Q 2172 3584 2448 3432 
Q 2725 3281 2906 2969 
z
M 947 1747 
Q 947 1113 1208 752 
Q 1469 391 1925 391 
Q 2381 391 2643 752 
Q 2906 1113 2906 1747 
Q 2906 2381 2643 2742 
Q 2381 3103 1925 3103 
Q 1469 3103 1208 2742 
Q 947 2381 947 1747 
z
" transform="scale(0.015625)"/>
      </defs>
      <use xlink:href="#DejaVuSans-47"/>
      <use xlink:href="#DejaVuSans-6f" x="77.490234"/>
      <use xlink:href="#DejaVuSans-73" x="138.671875"/>
      <use xlink:href="#DejaVuSans-73" x="190.771484"/>
      <use xlink:href="#DejaVuSans-69" x="242.871094"/>
      <use xlink:href="#DejaVuSans-70" x="270.654297"/>
      <use xlink:href="#DejaVuSans-20" x="334.130859"/>
      <use xlink:href="#DejaVuSans-70" x="365.917969"/>
      <use xlink:href="#DejaVuSans-72" x="429.394531"/>
      <use xlink:href="#DejaVuSans-65" x="468.257812"/>
      <use xlink:href="#DejaVuSans-64" x="529.78125"/>
      <use xlink:href="#DejaVuSans-69" x="593.257812"/>
      <use xlink:href="#DejaVuSans-63" x="621.041016"/>
      <use xlink:href="#DejaVuSans-74" x="676.021484"/>
      <use xlink:href="#DejaVuSans-69" x="715.230469"/>
      <use xlink:href="#DejaVuSans-6f" x="743.013672"/>
      <use xlink:href="#DejaVuSans-6e" x="804.195312"/>
      <use xlink:href="#DejaVuSans-73" x="867.574219"/>
     </g>
    </g>
    <g id="line2d_19">
     <path d="M 1013.90625 146.134687 
L 1023.90625 146.134687 
L 1033.90625 146.134687 
" style="fill: none; stroke: #da70d6; stroke-linecap: square"/>
    </g>
    <g id="text_16">
     <!-- Centralized predictions -->
     <g transform="translate(1041.90625 149.634687) scale(0.1 -0.1)">
      <defs>
       <path id="DejaVuSans-43" d="M 4122 4306 
L 4122 3641 
Q 3803 3938 3442 4084 
Q 3081 4231 2675 4231 
Q 1875 4231 1450 3742 
Q 1025 3253 1025 2328 
Q 1025 1406 1450 917 
Q 1875 428 2675 428 
Q 3081 428 3442 575 
Q 3803 722 4122 1019 
L 4122 359 
Q 3791 134 3420 21 
Q 3050 -91 2638 -91 
Q 1578 -91 968 557 
Q 359 1206 359 2328 
Q 359 3453 968 4101 
Q 1578 4750 2638 4750 
Q 3056 4750 3426 4639 
Q 3797 4528 4122 4306 
z
" transform="scale(0.015625)"/>
       <path id="DejaVuSans-61" d="M 2194 1759 
Q 1497 1759 1228 1600 
Q 959 1441 959 1056 
Q 959 750 1161 570 
Q 1363 391 1709 391 
Q 2188 391 2477 730 
Q 2766 1069 2766 1631 
L 2766 1759 
L 2194 1759 
z
M 3341 1997 
L 3341 0 
L 2766 0 
L 2766 531 
Q 2569 213 2275 61 
Q 1981 -91 1556 -91 
Q 1019 -91 701 211 
Q 384 513 384 1019 
Q 384 1609 779 1909 
Q 1175 2209 1959 2209 
L 2766 2209 
L 2766 2266 
Q 2766 2663 2505 2880 
Q 2244 3097 1772 3097 
Q 1472 3097 1187 3025 
Q 903 2953 641 2809 
L 641 3341 
Q 956 3463 1253 3523 
Q 1550 3584 1831 3584 
Q 2591 3584 2966 3190 
Q 3341 2797 3341 1997 
z
" transform="scale(0.015625)"/>
       <path id="DejaVuSans-6c" d="M 603 4863 
L 1178 4863 
L 1178 0 
L 603 0 
L 603 4863 
z
" transform="scale(0.015625)"/>
       <path id="DejaVuSans-7a" d="M 353 3500 
L 3084 3500 
L 3084 2975 
L 922 459 
L 3084 459 
L 3084 0 
L 275 0 
L 275 525 
L 2438 3041 
L 353 3041 
L 353 3500 
z
" transform="scale(0.015625)"/>
      </defs>
      <use xlink:href="#DejaVuSans-43"/>
      <use xlink:href="#DejaVuSans-65" x="69.824219"/>
      <use xlink:href="#DejaVuSans-6e" x="131.347656"/>
      <use xlink:href="#DejaVuSans-74" x="194.726562"/>
      <use xlink:href="#DejaVuSans-72" x="233.935547"/>
      <use xlink:href="#DejaVuSans-61" x="275.048828"/>
      <use xlink:href="#DejaVuSans-6c" x="336.328125"/>
      <use xlink:href="#DejaVuSans-69" x="364.111328"/>
      <use xlink:href="#DejaVuSans-7a" x="391.894531"/>
      <use xlink:href="#DejaVuSans-65" x="444.384766"/>
      <use xlink:href="#DejaVuSans-64" x="505.908203"/>
      <use xlink:href="#DejaVuSans-20" x="569.384766"/>
      <use xlink:href="#DejaVuSans-70" x="601.171875"/>
      <use xlink:href="#DejaVuSans-72" x="664.648438"/>
      <use xlink:href="#DejaVuSans-65" x="703.511719"/>
      <use xlink:href="#DejaVuSans-64" x="765.035156"/>
      <use xlink:href="#DejaVuSans-69" x="828.511719"/>
      <use xlink:href="#DejaVuSans-63" x="856.294922"/>
      <use xlink:href="#DejaVuSans-74" x="911.275391"/>
      <use xlink:href="#DejaVuSans-69" x="950.484375"/>
      <use xlink:href="#DejaVuSans-6f" x="978.267578"/>
      <use xlink:href="#DejaVuSans-6e" x="1039.449219"/>
      <use xlink:href="#DejaVuSans-73" x="1102.828125"/>
     </g>
    </g>
    <g id="line2d_20">
     <path d="M 1013.90625 160.812812 
L 1023.90625 160.812812 
L 1033.90625 160.812812 
" style="fill: none; stroke: #8fbc8f; stroke-linecap: square"/>
    </g>
    <g id="text_17">
     <!-- Single predictions -->
     <g transform="translate(1041.90625 164.312812) scale(0.1 -0.1)">
      <defs>
       <path id="DejaVuSans-53" d="M 3425 4513 
L 3425 3897 
Q 3066 4069 2747 4153 
Q 2428 4238 2131 4238 
Q 1616 4238 1336 4038 
Q 1056 3838 1056 3469 
Q 1056 3159 1242 3001 
Q 1428 2844 1947 2747 
L 2328 2669 
Q 3034 2534 3370 2195 
Q 3706 1856 3706 1288 
Q 3706 609 3251 259 
Q 2797 -91 1919 -91 
Q 1588 -91 1214 -16 
Q 841 59 441 206 
L 441 856 
Q 825 641 1194 531 
Q 1563 422 1919 422 
Q 2459 422 2753 634 
Q 3047 847 3047 1241 
Q 3047 1584 2836 1778 
Q 2625 1972 2144 2069 
L 1759 2144 
Q 1053 2284 737 2584 
Q 422 2884 422 3419 
Q 422 4038 858 4394 
Q 1294 4750 2059 4750 
Q 2388 4750 2728 4690 
Q 3069 4631 3425 4513 
z
" transform="scale(0.015625)"/>
       <path id="DejaVuSans-67" d="M 2906 1791 
Q 2906 2416 2648 2759 
Q 2391 3103 1925 3103 
Q 1463 3103 1205 2759 
Q 947 2416 947 1791 
Q 947 1169 1205 825 
Q 1463 481 1925 481 
Q 2391 481 2648 825 
Q 2906 1169 2906 1791 
z
M 3481 434 
Q 3481 -459 3084 -895 
Q 2688 -1331 1869 -1331 
Q 1566 -1331 1297 -1286 
Q 1028 -1241 775 -1147 
L 775 -588 
Q 1028 -725 1275 -790 
Q 1522 -856 1778 -856 
Q 2344 -856 2625 -561 
Q 2906 -266 2906 331 
L 2906 616 
Q 2728 306 2450 153 
Q 2172 0 1784 0 
Q 1141 0 747 490 
Q 353 981 353 1791 
Q 353 2603 747 3093 
Q 1141 3584 1784 3584 
Q 2172 3584 2450 3431 
Q 2728 3278 2906 2969 
L 2906 3500 
L 3481 3500 
L 3481 434 
z
" transform="scale(0.015625)"/>
      </defs>
      <use xlink:href="#DejaVuSans-53"/>
      <use xlink:href="#DejaVuSans-69" x="63.476562"/>
      <use xlink:href="#DejaVuSans-6e" x="91.259766"/>
      <use xlink:href="#DejaVuSans-67" x="154.638672"/>
      <use xlink:href="#DejaVuSans-6c" x="218.115234"/>
      <use xlink:href="#DejaVuSans-65" x="245.898438"/>
      <use xlink:href="#DejaVuSans-20" x="307.421875"/>
      <use xlink:href="#DejaVuSans-70" x="339.208984"/>
      <use xlink:href="#DejaVuSans-72" x="402.685547"/>
      <use xlink:href="#DejaVuSans-65" x="441.548828"/>
      <use xlink:href="#DejaVuSans-64" x="503.072266"/>
      <use xlink:href="#DejaVuSans-69" x="566.548828"/>
      <use xlink:href="#DejaVuSans-63" x="594.332031"/>
      <use xlink:href="#DejaVuSans-74" x="649.3125"/>
      <use xlink:href="#DejaVuSans-69" x="688.521484"/>
      <use xlink:href="#DejaVuSans-6f" x="716.304688"/>
      <use xlink:href="#DejaVuSans-6e" x="777.486328"/>
      <use xlink:href="#DejaVuSans-73" x="840.865234"/>
     </g>
    </g>
   </g>
  </g>
 </g>
 <defs>
  <clipPath id="p95df39099f">
   <rect x="162" y="103.68" width="1004.4" height="665.28"/>
  </clipPath>
 </defs>
</svg>
