<?xml version="1.0" encoding="utf-8" standalone="no"?>
<!DOCTYPE svg PUBLIC "-//W3C//DTD SVG 1.1//EN"
  "http://www.w3.org/Graphics/SVG/1.1/DTD/svg11.dtd">
<svg xmlns:xlink="http://www.w3.org/1999/xlink" width="1296pt" height="864pt" viewBox="0 0 1296 864" xmlns="http://www.w3.org/2000/svg" version="1.1">
 <metadata>
  <rdf:RDF xmlns:dc="http://purl.org/dc/elements/1.1/" xmlns:cc="http://creativecommons.org/ns#" xmlns:rdf="http://www.w3.org/1999/02/22-rdf-syntax-ns#">
   <cc:Work>
    <dc:type rdf:resource="http://purl.org/dc/dcmitype/StillImage"/>
    <dc:date>2023-12-10T12:47:17.914639</dc:date>
    <dc:format>image/svg+xml</dc:format>
    <dc:creator>
     <cc:Agent>
      <dc:title>Matplotlib v3.8.0, https://matplotlib.org/</dc:title>
     </cc:Agent>
    </dc:creator>
   </cc:Work>
  </rdf:RDF>
 </metadata>
 <defs>
  <style type="text/css">*{stroke-linejoin: round; stroke-linecap: butt}</style>
 </defs>
 <g id="figure_1">
  <g id="patch_1">
   <path d="M 0 864 
L 1296 864 
L 1296 0 
L 0 0 
z
" style="fill: #ffffff"/>
  </g>
  <g id="axes_1">
   <g id="patch_2">
    <path d="M 162 768.96 
L 1166.4 768.96 
L 1166.4 103.68 
L 162 103.68 
z
" style="fill: #ffffff"/>
   </g>
   <g id="matplotlib.axis_1">
    <g id="xtick_1">
     <g id="line2d_1">
      <defs>
       <path id="m8316bfcc6f" d="M 0 0 
L 0 3.5 
" style="stroke: #000000; stroke-width: 0.8"/>
      </defs>
      <g>
       <use xlink:href="#m8316bfcc6f" x="207.654545" y="768.96" style="stroke: #000000; stroke-width: 0.8"/>
      </g>
     </g>
     <g id="text_1">
      <!-- 0 -->
      <g transform="translate(204.473295 783.558437) scale(0.1 -0.1)">
       <defs>
        <path id="DejaVuSans-30" d="M 2034 4250 
Q 1547 4250 1301 3770 
Q 1056 3291 1056 2328 
Q 1056 1369 1301 889 
Q 1547 409 2034 409 
Q 2525 409 2770 889 
Q 3016 1369 3016 2328 
Q 3016 3291 2770 3770 
Q 2525 4250 2034 4250 
z
M 2034 4750 
Q 2819 4750 3233 4129 
Q 3647 3509 3647 2328 
Q 3647 1150 3233 529 
Q 2819 -91 2034 -91 
Q 1250 -91 836 529 
Q 422 1150 422 2328 
Q 422 3509 836 4129 
Q 1250 4750 2034 4750 
z
" transform="scale(0.015625)"/>
       </defs>
       <use xlink:href="#DejaVuSans-30"/>
      </g>
     </g>
    </g>
    <g id="xtick_2">
     <g id="line2d_2">
      <g>
       <use xlink:href="#m8316bfcc6f" x="390.638696" y="768.96" style="stroke: #000000; stroke-width: 0.8"/>
      </g>
     </g>
     <g id="text_2">
      <!-- 100 -->
      <g transform="translate(381.094946 783.558437) scale(0.1 -0.1)">
       <defs>
        <path id="DejaVuSans-31" d="M 794 531 
L 1825 531 
L 1825 4091 
L 703 3866 
L 703 4441 
L 1819 4666 
L 2450 4666 
L 2450 531 
L 3481 531 
L 3481 0 
L 794 0 
L 794 531 
z
" transform="scale(0.015625)"/>
       </defs>
       <use xlink:href="#DejaVuSans-31"/>
       <use xlink:href="#DejaVuSans-30" x="63.623047"/>
       <use xlink:href="#DejaVuSans-30" x="127.246094"/>
      </g>
     </g>
    </g>
    <g id="xtick_3">
     <g id="line2d_3">
      <g>
       <use xlink:href="#m8316bfcc6f" x="573.622846" y="768.96" style="stroke: #000000; stroke-width: 0.8"/>
      </g>
     </g>
     <g id="text_3">
      <!-- 200 -->
      <g transform="translate(564.079096 783.558437) scale(0.1 -0.1)">
       <defs>
        <path id="DejaVuSans-32" d="M 1228 531 
L 3431 531 
L 3431 0 
L 469 0 
L 469 531 
Q 828 903 1448 1529 
Q 2069 2156 2228 2338 
Q 2531 2678 2651 2914 
Q 2772 3150 2772 3378 
Q 2772 3750 2511 3984 
Q 2250 4219 1831 4219 
Q 1534 4219 1204 4116 
Q 875 4013 500 3803 
L 500 4441 
Q 881 4594 1212 4672 
Q 1544 4750 1819 4750 
Q 2544 4750 2975 4387 
Q 3406 4025 3406 3419 
Q 3406 3131 3298 2873 
Q 3191 2616 2906 2266 
Q 2828 2175 2409 1742 
Q 1991 1309 1228 531 
z
" transform="scale(0.015625)"/>
       </defs>
       <use xlink:href="#DejaVuSans-32"/>
       <use xlink:href="#DejaVuSans-30" x="63.623047"/>
       <use xlink:href="#DejaVuSans-30" x="127.246094"/>
      </g>
     </g>
    </g>
    <g id="xtick_4">
     <g id="line2d_4">
      <g>
       <use xlink:href="#m8316bfcc6f" x="756.606996" y="768.96" style="stroke: #000000; stroke-width: 0.8"/>
      </g>
     </g>
     <g id="text_4">
      <!-- 300 -->
      <g transform="translate(747.063246 783.558437) scale(0.1 -0.1)">
       <defs>
        <path id="DejaVuSans-33" d="M 2597 2516 
Q 3050 2419 3304 2112 
Q 3559 1806 3559 1356 
Q 3559 666 3084 287 
Q 2609 -91 1734 -91 
Q 1441 -91 1130 -33 
Q 819 25 488 141 
L 488 750 
Q 750 597 1062 519 
Q 1375 441 1716 441 
Q 2309 441 2620 675 
Q 2931 909 2931 1356 
Q 2931 1769 2642 2001 
Q 2353 2234 1838 2234 
L 1294 2234 
L 1294 2753 
L 1863 2753 
Q 2328 2753 2575 2939 
Q 2822 3125 2822 3475 
Q 2822 3834 2567 4026 
Q 2313 4219 1838 4219 
Q 1578 4219 1281 4162 
Q 984 4106 628 3988 
L 628 4550 
Q 988 4650 1302 4700 
Q 1616 4750 1894 4750 
Q 2613 4750 3031 4423 
Q 3450 4097 3450 3541 
Q 3450 3153 3228 2886 
Q 3006 2619 2597 2516 
z
" transform="scale(0.015625)"/>
       </defs>
       <use xlink:href="#DejaVuSans-33"/>
       <use xlink:href="#DejaVuSans-30" x="63.623047"/>
       <use xlink:href="#DejaVuSans-30" x="127.246094"/>
      </g>
     </g>
    </g>
    <g id="xtick_5">
     <g id="line2d_5">
      <g>
       <use xlink:href="#m8316bfcc6f" x="939.591146" y="768.96" style="stroke: #000000; stroke-width: 0.8"/>
      </g>
     </g>
     <g id="text_5">
      <!-- 400 -->
      <g transform="translate(930.047396 783.558437) scale(0.1 -0.1)">
       <defs>
        <path id="DejaVuSans-34" d="M 2419 4116 
L 825 1625 
L 2419 1625 
L 2419 4116 
z
M 2253 4666 
L 3047 4666 
L 3047 1625 
L 3713 1625 
L 3713 1100 
L 3047 1100 
L 3047 0 
L 2419 0 
L 2419 1100 
L 313 1100 
L 313 1709 
L 2253 4666 
z
" transform="scale(0.015625)"/>
       </defs>
       <use xlink:href="#DejaVuSans-34"/>
       <use xlink:href="#DejaVuSans-30" x="63.623047"/>
       <use xlink:href="#DejaVuSans-30" x="127.246094"/>
      </g>
     </g>
    </g>
    <g id="xtick_6">
     <g id="line2d_6">
      <g>
       <use xlink:href="#m8316bfcc6f" x="1122.575296" y="768.96" style="stroke: #000000; stroke-width: 0.8"/>
      </g>
     </g>
     <g id="text_6">
      <!-- 500 -->
      <g transform="translate(1113.031546 783.558437) scale(0.1 -0.1)">
       <defs>
        <path id="DejaVuSans-35" d="M 691 4666 
L 3169 4666 
L 3169 4134 
L 1269 4134 
L 1269 2991 
Q 1406 3038 1543 3061 
Q 1681 3084 1819 3084 
Q 2600 3084 3056 2656 
Q 3513 2228 3513 1497 
Q 3513 744 3044 326 
Q 2575 -91 1722 -91 
Q 1428 -91 1123 -41 
Q 819 9 494 109 
L 494 744 
Q 775 591 1075 516 
Q 1375 441 1709 441 
Q 2250 441 2565 725 
Q 2881 1009 2881 1497 
Q 2881 1984 2565 2268 
Q 2250 2553 1709 2553 
Q 1456 2553 1204 2497 
Q 953 2441 691 2322 
L 691 4666 
z
" transform="scale(0.015625)"/>
       </defs>
       <use xlink:href="#DejaVuSans-35"/>
       <use xlink:href="#DejaVuSans-30" x="63.623047"/>
       <use xlink:href="#DejaVuSans-30" x="127.246094"/>
      </g>
     </g>
    </g>
   </g>
   <g id="matplotlib.axis_2">
    <g id="ytick_1">
     <g id="line2d_7">
      <defs>
       <path id="m7fdb6b57b4" d="M 0 0 
L -3.5 0 
" style="stroke: #000000; stroke-width: 0.8"/>
      </defs>
      <g>
       <use xlink:href="#m7fdb6b57b4" x="162" y="738.72" style="stroke: #000000; stroke-width: 0.8"/>
      </g>
     </g>
     <g id="text_7">
      <!-- 0 -->
      <g transform="translate(148.6375 742.519219) scale(0.1 -0.1)">
       <use xlink:href="#DejaVuSans-30"/>
      </g>
     </g>
    </g>
    <g id="ytick_2">
     <g id="line2d_8">
      <g>
       <use xlink:href="#m7fdb6b57b4" x="162" y="664.413164" style="stroke: #000000; stroke-width: 0.8"/>
      </g>
     </g>
     <g id="text_8">
      <!-- 10 -->
      <g transform="translate(142.275 668.212383) scale(0.1 -0.1)">
       <use xlink:href="#DejaVuSans-31"/>
       <use xlink:href="#DejaVuSans-30" x="63.623047"/>
      </g>
     </g>
    </g>
    <g id="ytick_3">
     <g id="line2d_9">
      <g>
       <use xlink:href="#m7fdb6b57b4" x="162" y="590.106328" style="stroke: #000000; stroke-width: 0.8"/>
      </g>
     </g>
     <g id="text_9">
      <!-- 20 -->
      <g transform="translate(142.275 593.905547) scale(0.1 -0.1)">
       <use xlink:href="#DejaVuSans-32"/>
       <use xlink:href="#DejaVuSans-30" x="63.623047"/>
      </g>
     </g>
    </g>
    <g id="ytick_4">
     <g id="line2d_10">
      <g>
       <use xlink:href="#m7fdb6b57b4" x="162" y="515.799492" style="stroke: #000000; stroke-width: 0.8"/>
      </g>
     </g>
     <g id="text_10">
      <!-- 30 -->
      <g transform="translate(142.275 519.598711) scale(0.1 -0.1)">
       <use xlink:href="#DejaVuSans-33"/>
       <use xlink:href="#DejaVuSans-30" x="63.623047"/>
      </g>
     </g>
    </g>
    <g id="ytick_5">
     <g id="line2d_11">
      <g>
       <use xlink:href="#m7fdb6b57b4" x="162" y="441.492656" style="stroke: #000000; stroke-width: 0.8"/>
      </g>
     </g>
     <g id="text_11">
      <!-- 40 -->
      <g transform="translate(142.275 445.291875) scale(0.1 -0.1)">
       <use xlink:href="#DejaVuSans-34"/>
       <use xlink:href="#DejaVuSans-30" x="63.623047"/>
      </g>
     </g>
    </g>
    <g id="ytick_6">
     <g id="line2d_12">
      <g>
       <use xlink:href="#m7fdb6b57b4" x="162" y="367.185821" style="stroke: #000000; stroke-width: 0.8"/>
      </g>
     </g>
     <g id="text_12">
      <!-- 50 -->
      <g transform="translate(142.275 370.985039) scale(0.1 -0.1)">
       <use xlink:href="#DejaVuSans-35"/>
       <use xlink:href="#DejaVuSans-30" x="63.623047"/>
      </g>
     </g>
    </g>
    <g id="ytick_7">
     <g id="line2d_13">
      <g>
       <use xlink:href="#m7fdb6b57b4" x="162" y="292.878985" style="stroke: #000000; stroke-width: 0.8"/>
      </g>
     </g>
     <g id="text_13">
      <!-- 60 -->
      <g transform="translate(142.275 296.678203) scale(0.1 -0.1)">
       <defs>
        <path id="DejaVuSans-36" d="M 2113 2584 
Q 1688 2584 1439 2293 
Q 1191 2003 1191 1497 
Q 1191 994 1439 701 
Q 1688 409 2113 409 
Q 2538 409 2786 701 
Q 3034 994 3034 1497 
Q 3034 2003 2786 2293 
Q 2538 2584 2113 2584 
z
M 3366 4563 
L 3366 3988 
Q 3128 4100 2886 4159 
Q 2644 4219 2406 4219 
Q 1781 4219 1451 3797 
Q 1122 3375 1075 2522 
Q 1259 2794 1537 2939 
Q 1816 3084 2150 3084 
Q 2853 3084 3261 2657 
Q 3669 2231 3669 1497 
Q 3669 778 3244 343 
Q 2819 -91 2113 -91 
Q 1303 -91 875 529 
Q 447 1150 447 2328 
Q 447 3434 972 4092 
Q 1497 4750 2381 4750 
Q 2619 4750 2861 4703 
Q 3103 4656 3366 4563 
z
" transform="scale(0.015625)"/>
       </defs>
       <use xlink:href="#DejaVuSans-36"/>
       <use xlink:href="#DejaVuSans-30" x="63.623047"/>
      </g>
     </g>
    </g>
    <g id="ytick_8">
     <g id="line2d_14">
      <g>
       <use xlink:href="#m7fdb6b57b4" x="162" y="218.572149" style="stroke: #000000; stroke-width: 0.8"/>
      </g>
     </g>
     <g id="text_14">
      <!-- 70 -->
      <g transform="translate(142.275 222.371368) scale(0.1 -0.1)">
       <defs>
        <path id="DejaVuSans-37" d="M 525 4666 
L 3525 4666 
L 3525 4397 
L 1831 0 
L 1172 0 
L 2766 4134 
L 525 4134 
L 525 4666 
z
" transform="scale(0.015625)"/>
       </defs>
       <use xlink:href="#DejaVuSans-37"/>
       <use xlink:href="#DejaVuSans-30" x="63.623047"/>
      </g>
     </g>
    </g>
    <g id="ytick_9">
     <g id="line2d_15">
      <g>
       <use xlink:href="#m7fdb6b57b4" x="162" y="144.265313" style="stroke: #000000; stroke-width: 0.8"/>
      </g>
     </g>
     <g id="text_15">
      <!-- 80 -->
      <g transform="translate(142.275 148.064532) scale(0.1 -0.1)">
       <defs>
        <path id="DejaVuSans-38" d="M 2034 2216 
Q 1584 2216 1326 1975 
Q 1069 1734 1069 1313 
Q 1069 891 1326 650 
Q 1584 409 2034 409 
Q 2484 409 2743 651 
Q 3003 894 3003 1313 
Q 3003 1734 2745 1975 
Q 2488 2216 2034 2216 
z
M 1403 2484 
Q 997 2584 770 2862 
Q 544 3141 544 3541 
Q 544 4100 942 4425 
Q 1341 4750 2034 4750 
Q 2731 4750 3128 4425 
Q 3525 4100 3525 3541 
Q 3525 3141 3298 2862 
Q 3072 2584 2669 2484 
Q 3125 2378 3379 2068 
Q 3634 1759 3634 1313 
Q 3634 634 3220 271 
Q 2806 -91 2034 -91 
Q 1263 -91 848 271 
Q 434 634 434 1313 
Q 434 1759 690 2068 
Q 947 2378 1403 2484 
z
M 1172 3481 
Q 1172 3119 1398 2916 
Q 1625 2713 2034 2713 
Q 2441 2713 2670 2916 
Q 2900 3119 2900 3481 
Q 2900 3844 2670 4047 
Q 2441 4250 2034 4250 
Q 1625 4250 1398 4047 
Q 1172 3844 1172 3481 
z
" transform="scale(0.015625)"/>
       </defs>
       <use xlink:href="#DejaVuSans-38"/>
       <use xlink:href="#DejaVuSans-30" x="63.623047"/>
      </g>
     </g>
    </g>
   </g>
   <g id="line2d_16">
    <path d="M 207.654545 627.259746 
L 209.484387 716.427949 
L 211.314228 642.121113 
L 213.14407 649.551797 
L 214.973911 694.135898 
L 216.803753 716.427949 
L 218.633594 664.413164 
L 220.463436 738.72 
L 222.293277 708.997266 
L 224.123119 612.398379 
L 225.95296 679.274531 
L 227.782802 538.091543 
L 229.612643 530.66086 
L 231.442485 656.982481 
L 233.272326 582.675645 
L 235.102168 604.967695 
L 236.932009 604.967695 
L 238.761851 486.076758 
L 240.591692 604.967695 
L 242.421534 671.843848 
L 244.251375 196.280098 
L 246.081217 300.309668 
L 247.911058 144.265313 
L 251.570741 144.265313 
L 253.400583 173.988047 
L 255.230424 456.354024 
L 257.060266 144.265313 
L 260.719949 144.265313 
L 262.54979 396.908555 
L 264.379632 144.265313 
L 277.188522 144.265313 
L 280.848206 671.843848 
L 282.678047 255.725567 
L 284.507889 656.982481 
L 286.33773 144.265313 
L 299.146621 144.265313 
L 300.976462 374.616504 
L 302.806304 144.265313 
L 304.636145 196.280098 
L 306.465987 478.646074 
L 308.295828 144.265313 
L 310.12567 278.017618 
L 311.955511 255.725567 
L 313.785353 649.551797 
L 315.615194 188.849415 
L 317.445036 188.849415 
L 319.274877 500.938125 
L 321.104719 144.265313 
L 322.93456 144.265313 
L 324.764402 173.988047 
L 326.594243 248.294883 
L 328.424085 604.967695 
L 330.253926 359.755137 
L 332.083768 419.200606 
L 333.913609 218.572149 
L 335.743451 144.265313 
L 339.403134 144.265313 
L 341.232975 166.557364 
L 343.062817 166.557364 
L 344.892658 151.695997 
L 346.7225 240.8642 
L 348.552341 144.265313 
L 350.382183 144.265313 
L 352.212024 337.463086 
L 354.041866 144.265313 
L 355.871707 448.92334 
L 357.701549 367.185821 
L 359.53139 656.982481 
L 361.361232 590.106328 
L 363.191073 493.507442 
L 365.020915 344.89377 
L 366.850756 552.95291 
L 368.680598 523.230176 
L 370.510439 419.200606 
L 372.340281 389.477871 
L 374.170122 471.215391 
L 375.999964 196.280098 
L 377.829805 292.878985 
L 379.659647 426.631289 
L 381.489488 344.89377 
L 383.31933 344.89377 
L 385.149171 404.339239 
L 386.979013 523.230176 
L 388.808854 486.076758 
L 390.638696 456.354024 
L 392.468537 411.769922 
L 394.298379 530.66086 
L 396.12822 575.244961 
L 397.958062 240.8642 
L 399.787903 567.814277 
L 401.617745 642.121113 
L 403.447586 426.631289 
L 405.277428 619.829063 
L 407.107269 567.814277 
L 408.937111 404.339239 
L 410.766952 508.368809 
L 412.596794 404.339239 
L 414.426635 649.551797 
L 416.256477 708.997266 
L 418.086318 694.135898 
L 419.91616 582.675645 
L 421.746001 604.967695 
L 423.575843 560.383594 
L 425.405684 671.843848 
L 427.235526 567.814277 
L 429.065367 642.121113 
L 430.895209 218.572149 
L 432.72505 144.265313 
L 434.554892 515.799492 
L 436.384733 203.710782 
L 438.214575 144.265313 
L 440.044416 144.265313 
L 441.874258 300.309668 
L 443.704099 322.601719 
L 445.533941 500.938125 
L 447.363782 159.12668 
L 449.193624 560.383594 
L 451.023465 226.002832 
L 452.853307 463.784707 
L 454.683148 255.725567 
L 456.51299 471.215391 
L 458.342831 411.769922 
L 460.172673 590.106328 
L 462.002514 292.878985 
L 463.832356 604.967695 
L 465.662197 233.433516 
L 467.492039 144.265313 
L 469.32188 545.522227 
L 471.151722 278.017618 
L 472.981563 144.265313 
L 474.811405 352.324453 
L 476.641246 292.878985 
L 478.471088 255.725567 
L 480.300929 508.368809 
L 482.130771 352.324453 
L 483.960612 634.69043 
L 485.790454 218.572149 
L 487.620295 352.324453 
L 489.450137 604.967695 
L 491.279978 389.477871 
L 493.10982 493.507442 
L 494.939661 144.265313 
L 496.769503 144.265313 
L 498.599344 441.492656 
L 500.429186 218.572149 
L 502.259027 211.141465 
L 504.088869 344.89377 
L 505.91871 159.12668 
L 507.748552 151.695997 
L 509.578393 181.418731 
L 511.408235 330.032403 
L 513.238076 211.141465 
L 515.067918 493.507442 
L 516.897759 434.061973 
L 518.727601 196.280098 
L 520.557442 359.755137 
L 522.387284 144.265313 
L 524.217125 181.418731 
L 526.046967 233.433516 
L 527.876808 144.265313 
L 529.70665 144.265313 
L 531.536491 545.522227 
L 533.366333 597.537012 
L 535.196174 634.69043 
L 537.026016 701.566582 
L 538.855857 694.135898 
L 540.685699 560.383594 
L 542.51554 716.427949 
L 544.345382 738.72 
L 546.175223 708.997266 
L 548.005065 582.675645 
L 549.834906 694.135898 
L 551.664748 738.72 
L 553.494589 738.72 
L 555.324431 686.705215 
L 557.154272 649.551797 
L 558.984114 545.522227 
L 560.813955 694.135898 
L 562.643797 686.705215 
L 564.473638 708.997266 
L 566.30348 671.843848 
L 568.133321 738.72 
L 569.963163 708.997266 
L 571.793004 738.72 
L 573.622846 582.675645 
L 575.452687 679.274531 
L 577.282529 679.274531 
L 579.11237 738.72 
L 580.942212 686.705215 
L 582.772053 731.289316 
L 584.601895 679.274531 
L 586.431736 500.938125 
L 588.261578 515.799492 
L 590.091419 575.244961 
L 591.921261 575.244961 
L 593.751102 166.557364 
L 595.580944 627.259746 
L 597.410785 523.230176 
L 599.240627 530.66086 
L 601.070468 337.463086 
L 602.90031 352.324453 
L 604.730151 411.769922 
L 606.559993 188.849415 
L 608.389834 144.265313 
L 612.049517 144.265313 
L 613.879359 478.646074 
L 615.7092 396.908555 
L 617.539042 166.557364 
L 619.368883 352.324453 
L 621.198725 270.586934 
L 623.028566 471.215391 
L 624.858408 188.849415 
L 626.688249 582.675645 
L 628.518091 151.695997 
L 630.347932 144.265313 
L 632.177774 166.557364 
L 634.007615 240.8642 
L 635.837457 634.69043 
L 637.667298 538.091543 
L 639.49714 188.849415 
L 641.326981 144.265313 
L 650.476189 144.265313 
L 652.30603 374.616504 
L 654.135872 233.433516 
L 655.965713 144.265313 
L 657.795555 330.032403 
L 659.625396 322.601719 
L 661.455238 590.106328 
L 663.285079 307.740352 
L 665.114921 367.185821 
L 666.944762 144.265313 
L 668.774604 278.017618 
L 670.604445 359.755137 
L 672.434287 471.215391 
L 674.264128 144.265313 
L 677.923811 144.265313 
L 679.753653 188.849415 
L 681.583494 344.89377 
L 683.413336 694.135898 
L 685.243177 404.339239 
L 687.073019 263.15625 
L 688.90286 486.076758 
L 690.732702 292.878985 
L 692.562543 173.988047 
L 694.392385 144.265313 
L 696.222226 434.061973 
L 698.052068 144.265313 
L 699.881909 159.12668 
L 701.711751 144.265313 
L 705.371434 144.265313 
L 707.201275 226.002832 
L 709.031117 240.8642 
L 710.860958 471.215391 
L 712.6908 649.551797 
L 714.520641 575.244961 
L 716.350483 590.106328 
L 718.180324 664.413164 
L 720.010166 597.537012 
L 721.840007 515.799492 
L 723.669849 634.69043 
L 725.49969 627.259746 
L 727.329532 582.675645 
L 729.159373 642.121113 
L 730.989215 716.427949 
L 732.819056 738.72 
L 734.648898 694.135898 
L 736.478739 634.69043 
L 738.308581 649.551797 
L 740.138422 656.982481 
L 741.968264 612.398379 
L 743.798105 716.427949 
L 745.627947 694.135898 
L 747.457788 701.566582 
L 749.28763 642.121113 
L 751.117471 634.69043 
L 752.947313 716.427949 
L 754.777154 716.427949 
L 756.606996 530.66086 
L 758.436837 708.997266 
L 760.266679 456.354024 
L 762.09652 441.492656 
L 763.926362 396.908555 
L 765.756203 604.967695 
L 767.586045 530.66086 
L 769.415886 664.413164 
L 771.245728 337.463086 
L 773.075569 456.354024 
L 774.905411 434.061973 
L 776.735252 367.185821 
L 778.565094 411.769922 
L 780.394935 567.814277 
L 782.224777 248.294883 
L 784.054618 367.185821 
L 785.88446 263.15625 
L 787.714301 144.265313 
L 789.544143 144.265313 
L 791.373984 471.215391 
L 793.203826 144.265313 
L 796.863509 144.265313 
L 798.69335 233.433516 
L 800.523192 144.265313 
L 815.161924 144.265313 
L 816.991765 218.572149 
L 818.821607 144.265313 
L 820.651448 188.849415 
L 822.48129 144.265313 
L 824.311131 144.265313 
L 827.970814 478.646074 
L 829.800656 382.047188 
L 831.630497 545.522227 
L 833.460339 144.265313 
L 835.29018 701.566582 
L 837.120022 211.141465 
L 838.949863 359.755137 
L 840.779705 530.66086 
L 842.609546 389.477871 
L 844.439388 523.230176 
L 846.269229 389.477871 
L 848.099071 508.368809 
L 849.928912 538.091543 
L 851.758754 144.265313 
L 853.588595 411.769922 
L 855.418437 144.265313 
L 857.248278 538.091543 
L 859.07812 426.631289 
L 860.907961 144.265313 
L 862.737803 278.017618 
L 864.567644 144.265313 
L 866.397486 597.537012 
L 868.227327 144.265313 
L 870.057169 255.725567 
L 871.88701 270.586934 
L 873.716852 686.705215 
L 875.546693 144.265313 
L 877.376535 144.265313 
L 879.206376 382.047188 
L 881.036218 144.265313 
L 882.866059 188.849415 
L 884.695901 226.002832 
L 886.525742 486.076758 
L 888.355584 344.89377 
L 890.185425 500.938125 
L 892.015267 708.997266 
L 893.845108 582.675645 
L 895.67495 627.259746 
L 897.504791 538.091543 
L 899.334633 382.047188 
L 901.164474 530.66086 
L 902.994316 344.89377 
L 904.824157 723.858633 
L 906.653999 723.858633 
L 908.48384 671.843848 
L 910.313682 627.259746 
L 912.143523 716.427949 
L 913.973365 634.69043 
L 915.803206 642.121113 
L 917.633048 664.413164 
L 919.462889 612.398379 
L 921.292731 716.427949 
L 923.122572 664.413164 
L 924.952414 538.091543 
L 926.782255 664.413164 
L 928.612097 701.566582 
L 930.441938 582.675645 
L 932.27178 642.121113 
L 934.101621 731.289316 
L 935.931463 307.740352 
L 937.761304 560.383594 
L 939.591146 411.769922 
L 941.420987 441.492656 
L 943.250829 656.982481 
L 946.910512 151.695997 
L 948.740353 545.522227 
L 950.570195 545.522227 
L 952.400036 211.141465 
L 954.229878 144.265313 
L 956.059719 263.15625 
L 957.889561 240.8642 
L 959.719402 656.982481 
L 961.549244 634.69043 
L 963.379085 352.324453 
L 965.208927 144.265313 
L 967.038768 151.695997 
L 968.86861 144.265313 
L 972.528293 144.265313 
L 974.358134 396.908555 
L 976.187976 144.265313 
L 978.017817 144.265313 
L 979.847659 463.784707 
L 981.6775 144.265313 
L 985.337183 144.265313 
L 987.167025 218.572149 
L 988.996866 144.265313 
L 990.826708 144.265313 
L 992.656549 382.047188 
L 994.486391 144.265313 
L 996.316232 575.244961 
L 998.146074 144.265313 
L 999.975915 144.265313 
L 1001.805757 359.755137 
L 1003.635598 218.572149 
L 1005.46544 419.200606 
L 1007.295281 478.646074 
L 1009.125123 434.061973 
L 1010.954964 322.601719 
L 1012.784806 344.89377 
L 1014.614647 285.448301 
L 1016.444489 144.265313 
L 1018.27433 144.265313 
L 1020.104172 352.324453 
L 1021.934013 307.740352 
L 1023.763855 144.265313 
L 1032.913062 144.265313 
L 1034.742904 463.784707 
L 1036.572745 151.695997 
L 1038.402587 144.265313 
L 1058.530844 144.265313 
L 1060.360685 396.908555 
L 1062.190527 144.265313 
L 1067.680051 144.265313 
L 1069.509893 382.047188 
L 1071.339734 292.878985 
L 1073.169576 478.646074 
L 1074.999417 567.814277 
L 1076.829259 486.076758 
L 1078.6591 426.631289 
L 1080.488942 396.908555 
L 1082.318783 382.047188 
L 1084.148625 500.938125 
L 1085.978466 382.047188 
L 1087.808308 515.799492 
L 1089.638149 456.354024 
L 1091.467991 404.339239 
L 1093.297832 404.339239 
L 1095.127674 545.522227 
L 1096.957515 441.492656 
L 1098.787357 486.076758 
L 1100.617198 671.843848 
L 1102.44704 508.368809 
L 1104.276881 545.522227 
L 1106.106723 486.076758 
L 1107.936564 471.215391 
L 1109.766406 560.383594 
L 1111.596247 382.047188 
L 1113.426089 701.566582 
L 1115.25593 396.908555 
L 1117.085772 500.938125 
L 1118.915613 649.551797 
L 1120.745455 419.200606 
L 1120.745455 419.200606 
" clip-path="url(#pe2f760ceca)" style="fill: none; stroke: #4169e1; stroke-linecap: square"/>
   </g>
   <g id="line2d_17">
    <path d="M 207.654545 589.181546 
L 209.484387 600.873129 
L 211.314228 639.691282 
L 213.14407 635.153147 
L 214.973911 643.297734 
L 216.803753 665.721833 
L 218.633594 684.986272 
L 220.463436 679.000045 
L 222.293277 687.750573 
L 224.123119 683.959852 
L 225.95296 653.986981 
L 227.782802 652.147692 
L 229.612643 608.436996 
L 231.442485 575.061394 
L 233.272326 604.34165 
L 235.102168 599.908323 
L 236.932009 587.992751 
L 238.761851 564.572169 
L 240.591692 509.006023 
L 242.421534 508.908669 
L 244.251375 527.015589 
L 246.081217 330.926515 
L 247.911058 275.717724 
L 249.7409 226.402848 
L 251.570741 203.649611 
L 253.400583 186.38537 
L 255.230424 189.737262 
L 257.060266 294.036457 
L 258.890107 190.04334 
L 260.719949 195.488003 
L 262.54979 185.766581 
L 264.379632 265.896978 
L 266.209473 194.3523 
L 268.039315 199.84379 
L 269.869156 191.06532 
L 271.698998 183.878353 
L 273.528839 181.399796 
L 275.358681 184.133749 
L 277.188522 182.293596 
L 279.018364 192.201987 
L 280.848206 303.240313 
L 282.678047 386.63935 
L 284.507889 270.357815 
L 286.33773 385.519351 
L 288.167572 260.124496 
L 289.997413 214.407583 
L 291.827255 218.274575 
L 293.657096 190.00632 
L 295.486938 190.364385 
L 297.316779 189.666284 
L 299.146621 190.04334 
L 300.976462 163.065047 
L 302.806304 255.605324 
L 304.636145 215.318163 
L 306.465987 230.888686 
L 308.295828 325.731862 
L 310.12567 242.280243 
L 311.955511 277.152872 
L 313.785353 268.708089 
L 315.615194 400.538774 
L 317.445036 299.345486 
L 319.274877 294.234821 
L 321.104719 384.647037 
L 322.93456 247.125789 
L 324.764402 248.291255 
L 328.424085 230.137862 
L 330.253926 385.90355 
L 332.083768 353.526061 
L 333.913609 394.471637 
L 335.743451 327.155388 
L 337.573292 254.873322 
L 341.232975 204.953065 
L 343.062817 207.934137 
L 344.892658 207.253668 
L 346.7225 203.248178 
L 348.552341 230.067451 
L 350.382183 206.564751 
L 352.212024 211.110285 
L 354.041866 271.791943 
L 355.871707 230.795825 
L 357.701549 327.00731 
L 359.53139 342.019987 
L 361.361232 446.476218 
L 363.191073 497.107614 
L 365.020915 497.48827 
L 366.850756 461.884206 
L 368.680598 483.89569 
L 370.510439 484.942671 
L 372.340281 473.784286 
L 374.170122 467.124155 
L 375.999964 474.06817 
L 377.829805 365.120006 
L 379.659647 362.550827 
L 381.489488 402.766613 
L 383.31933 363.493297 
L 385.149171 377.637175 
L 386.979013 397.788806 
L 388.808854 451.518909 
L 390.638696 478.824313 
L 392.468537 500.616939 
L 394.298379 492.991718 
L 396.12822 517.410611 
L 397.958062 545.89907 
L 399.787903 448.160101 
L 401.617745 527.211203 
L 403.447586 578.706126 
L 405.277428 516.169249 
L 407.107269 585.819251 
L 408.937111 569.05486 
L 410.766952 499.814044 
L 412.596794 502.741996 
L 414.426635 457.324414 
L 416.256477 520.246369 
L 418.086318 599.964674 
L 419.91616 586.565086 
L 421.746001 514.305243 
L 423.575843 479.158963 
L 425.405684 426.793172 
L 427.235526 465.575567 
L 429.065367 428.148499 
L 430.895209 428.269592 
L 432.72505 305.936283 
L 434.554892 241.976149 
L 436.384733 324.963974 
L 438.214575 225.012657 
L 440.044416 219.625309 
L 441.874258 219.491744 
L 443.704099 247.911364 
L 445.533941 247.687206 
L 447.363782 307.17233 
L 449.193624 246.40127 
L 451.023465 353.712349 
L 452.853307 287.082579 
L 454.683148 321.484526 
L 456.51299 298.361659 
L 458.342831 328.490362 
L 460.172673 323.819313 
L 462.002514 353.19929 
L 463.832356 292.830542 
L 465.662197 354.704538 
L 467.492039 276.941809 
L 469.32188 234.557824 
L 471.151722 324.088939 
L 472.981563 241.789407 
L 474.811405 226.186173 
L 476.641246 271.435607 
L 478.471088 262.139259 
L 480.300929 257.865335 
L 482.130771 346.614247 
L 483.960612 321.637111 
L 485.790454 417.607826 
L 487.620295 337.871634 
L 489.450137 343.813001 
L 491.279978 423.99374 
L 493.10982 359.611821 
L 494.939661 412.837227 
L 496.769503 319.076889 
L 498.599344 260.243832 
L 500.429186 327.175797 
L 502.259027 261.703584 
L 504.088869 266.685445 
L 505.91871 307.78168 
L 507.748552 232.586883 
L 509.578393 221.925345 
L 511.408235 218.739899 
L 513.238076 265.046717 
L 515.067918 248.643933 
L 516.897759 343.496236 
L 518.727601 360.317121 
L 520.557442 300.159322 
L 522.387284 342.633503 
L 524.217125 256.479792 
L 526.046967 236.370142 
L 527.876808 250.063208 
L 529.70665 215.777252 
L 531.536491 215.097406 
L 533.366333 348.076012 
L 535.196174 418.405591 
L 538.855857 598.553762 
L 540.685699 612.12402 
L 542.51554 600.666828 
L 544.345382 641.42528 
L 546.175223 656.584831 
L 548.005065 669.207333 
L 549.834906 640.000308 
L 551.664748 652.757424 
L 553.494589 671.299764 
L 555.324431 677.874503 
L 557.154272 665.256891 
L 558.984114 634.839089 
L 560.813955 571.98131 
L 562.643797 616.841584 
L 564.473638 640.708202 
L 566.30348 661.529006 
L 568.133321 661.942444 
L 569.963163 680.495623 
L 571.793004 677.061985 
L 573.622846 680.89758 
L 575.452687 639.40866 
L 577.282529 642.178032 
L 579.11237 649.717223 
L 580.942212 672.275604 
L 582.772053 662.624728 
L 584.601895 667.653572 
L 586.431736 643.066418 
L 588.261578 555.678657 
L 590.091419 492.029548 
L 591.921261 519.409671 
L 593.751102 530.852562 
L 595.580944 354.530353 
L 597.410785 469.347884 
L 599.240627 428.089228 
L 601.070468 380.178887 
L 602.90031 351.756829 
L 604.730151 338.930634 
L 606.559993 345.25756 
L 608.389834 263.823596 
L 610.219676 233.131917 
L 612.049517 209.025054 
L 613.879359 191.116852 
L 615.7092 309.031022 
L 617.539042 275.263964 
L 619.368883 233.906324 
L 621.198725 281.041492 
L 623.028566 270.098734 
L 624.858408 323.857835 
L 626.688249 264.199404 
L 628.518091 390.650169 
L 630.347932 279.247287 
L 632.177774 243.426321 
L 634.007615 261.033263 
L 635.837457 259.37509 
L 637.667298 379.373243 
L 639.49714 349.949046 
L 641.326981 255.198108 
L 643.156823 248.273397 
L 644.986664 235.112495 
L 646.816506 213.002084 
L 648.646347 210.32641 
L 650.476189 210.184397 
L 652.30603 180.791608 
L 654.135872 252.483317 
L 655.965713 233.438108 
L 657.795555 215.985764 
L 659.625396 263.882158 
L 661.455238 271.470388 
L 663.285079 370.496894 
L 665.114921 332.613147 
L 666.944762 344.150855 
L 668.774604 280.679969 
L 670.604445 255.74762 
L 672.434287 283.011837 
L 674.264128 332.736621 
L 676.09397 270.5428 
L 677.923811 255.121971 
L 679.753653 225.814276 
L 681.583494 204.493183 
L 683.413336 261.644739 
L 685.243177 424.330658 
L 687.073019 389.280896 
L 688.90286 360.838429 
L 690.732702 417.436618 
L 692.562543 320.897909 
L 694.392385 277.252196 
L 696.222226 250.910464 
L 698.052068 309.69111 
L 699.881909 231.00462 
L 701.711751 234.564967 
L 703.541592 214.908 
L 705.371434 186.486905 
L 707.201275 184.024504 
L 709.031117 205.16186 
L 710.860958 219.839773 
L 714.520641 417.18794 
L 716.350483 459.583972 
L 718.180324 530.319803 
L 720.010166 576.192448 
L 721.840007 573.077924 
L 723.669849 571.755479 
L 725.49969 589.350062 
L 727.329532 591.693793 
L 729.159373 587.516839 
L 730.989215 605.242366 
L 732.819056 637.280712 
L 734.648898 655.484419 
L 736.478739 647.87245 
L 738.308581 607.15517 
L 740.138422 608.786514 
L 741.968264 625.656777 
L 743.798105 625.192288 
L 745.627947 657.426631 
L 747.457788 656.489632 
L 749.28763 661.006579 
L 751.117471 639.786496 
L 752.947313 625.701464 
L 754.777154 650.652961 
L 756.606996 660.142854 
L 758.436837 622.213654 
L 760.266679 619.760012 
L 763.926362 496.6805 
L 765.756203 439.488239 
L 767.586045 488.154279 
L 769.415886 490.437024 
L 771.245728 527.034297 
L 773.075569 406.188944 
L 774.905411 360.579858 
L 776.735252 370.997538 
L 778.565094 330.080874 
L 780.394935 344.905165 
L 782.224777 383.271755 
L 784.054618 285.326924 
L 785.88446 285.88168 
L 787.714301 257.962958 
L 789.544143 196.017956 
L 791.373984 197.061762 
L 793.203826 296.361721 
L 795.033667 200.039036 
L 796.863509 197.122876 
L 798.69335 203.012738 
L 800.523192 221.773524 
L 802.353033 194.112834 
L 804.182875 195.212878 
L 806.012716 199.325799 
L 807.842558 195.272801 
L 809.672399 196.063253 
L 811.502241 197.224977 
L 813.332082 186.781134 
L 815.161924 182.76544 
L 816.991765 179.183267 
L 818.821607 208.086978 
L 820.651448 191.870681 
L 822.48129 209.319567 
L 824.311131 191.734621 
L 826.140973 190.294597 
L 827.970814 209.913241 
L 829.800656 292.168752 
L 831.630497 304.043803 
L 833.460339 377.239512 
L 835.29018 274.947596 
L 837.120022 425.115384 
L 838.949863 314.977207 
L 840.779705 318.521652 
L 842.609546 385.837901 
L 844.439388 329.70413 
L 846.269229 390.844593 
L 848.099071 370.846313 
L 849.928912 386.244692 
L 851.758754 411.1481 
L 853.588595 302.61285 
L 855.418437 342.051224 
L 857.248278 246.999026 
L 859.07812 339.319312 
L 860.907961 355.438552 
L 862.737803 261.312526 
L 864.567644 281.046707 
L 866.397486 211.071224 
L 868.227327 346.779673 
L 870.057169 257.518439 
L 871.88701 267.468923 
L 873.716852 271.570052 
L 875.546693 396.481185 
L 877.376535 286.481081 
L 879.206376 266.154528 
L 881.036218 322.845351 
L 882.866059 208.354846 
L 884.695901 219.570205 
L 886.525742 222.04434 
L 888.355584 312.48099 
L 890.185425 306.959141 
L 892.015267 373.103632 
L 893.845108 517.996463 
L 895.67495 525.731183 
L 897.504791 583.370117 
L 899.334633 575.085757 
L 901.164474 499.876178 
L 902.994316 507.94297 
L 904.824157 413.372963 
L 906.653999 568.189278 
L 908.48384 630.767738 
L 910.313682 631.336851 
L 912.143523 611.141668 
L 913.973365 631.518236 
L 915.803206 624.617392 
L 917.633048 629.595271 
L 919.462889 637.489068 
L 921.292731 631.910656 
L 923.122572 653.884525 
L 924.952414 644.47665 
L 926.782255 613.603473 
L 928.612097 616.405102 
L 930.441938 641.463732 
L 932.27178 620.152956 
L 934.101621 617.363162 
L 935.931463 648.082917 
L 937.761304 566.114819 
L 939.591146 523.233918 
L 941.420987 458.873569 
L 943.250829 429.621404 
L 945.08067 529.822816 
L 946.910512 434.439256 
L 948.740353 298.267608 
L 950.570195 408.766344 
L 952.400036 399.428186 
L 954.229878 288.025786 
L 956.059719 264.173213 
L 957.889561 266.268762 
L 959.719402 226.39219 
L 961.549244 378.643763 
L 963.379085 403.922725 
L 965.208927 311.628631 
L 967.038768 246.793462 
L 968.86861 224.999164 
L 970.698451 191.073937 
L 972.528293 179.564688 
L 974.358134 186.534129 
L 976.187976 286.105017 
L 978.017817 207.210412 
L 979.847659 212.982299 
L 981.6775 334.954681 
L 983.507342 225.714499 
L 985.337183 226.695094 
L 987.167025 220.874962 
L 988.996866 217.108655 
L 990.826708 189.046078 
L 992.656549 188.063385 
L 994.486391 276.558999 
L 996.316232 201.97959 
L 998.146074 336.401848 
L 999.975915 225.948352 
L 1001.805757 203.329304 
L 1003.635598 248.860439 
L 1005.46544 206.694518 
L 1007.295281 272.963475 
L 1009.125123 324.900026 
L 1010.954964 339.617396 
L 1012.784806 317.335323 
L 1014.614647 306.250014 
L 1016.444489 270.260419 
L 1018.27433 212.233516 
L 1020.104172 194.60197 
L 1021.934013 227.701597 
L 1023.763855 231.25344 
L 1025.593696 205.690056 
L 1027.423538 199.987673 
L 1029.253379 181.847886 
L 1031.083221 172.377212 
L 1032.913062 174.719709 
L 1034.742904 173.916503 
L 1036.572745 279.074349 
L 1038.402587 207.352084 
L 1040.232428 210.331115 
L 1042.06227 202.142465 
L 1043.892111 177.427981 
L 1045.721953 177.278656 
L 1047.551794 174.722431 
L 1049.381636 173.59937 
L 1051.211478 173.733502 
L 1053.041319 174.204609 
L 1054.871161 177.718016 
L 1056.701002 179.267284 
L 1058.530844 182.03117 
L 1060.360685 185.151647 
L 1062.190527 272.188756 
L 1064.020368 216.396211 
L 1065.85021 213.64423 
L 1069.509893 182.765043 
L 1071.339734 270.298459 
L 1073.169576 258.723306 
L 1074.999417 344.788125 
L 1076.829259 416.71893 
L 1078.6591 426.96886 
L 1080.488942 429.066166 
L 1082.318783 402.17617 
L 1084.148625 359.022313 
L 1085.978466 390.448885 
L 1087.808308 359.360167 
L 1089.638149 409.46708 
L 1091.467991 427.504652 
L 1093.297832 406.59908 
L 1095.127674 409.783788 
L 1096.957515 443.594952 
L 1098.787357 418.251049 
L 1100.617198 443.273964 
L 1102.44704 519.235798 
L 1104.276881 489.724523 
L 1106.106723 507.947859 
L 1107.936564 497.964763 
L 1109.766406 465.146128 
L 1111.596247 489.318016 
L 1113.426089 424.492938 
L 1115.25593 526.824821 
L 1117.085772 453.487072 
L 1118.915613 451.299002 
L 1120.745455 536.395698 
L 1120.745455 536.395698 
" clip-path="url(#pe2f760ceca)" style="fill: none; stroke: #ff6347; stroke-linecap: square"/>
   </g>
   <g id="line2d_18">
    <path d="M 207.654545 738.72 
L 233.272326 738.72 
L 235.102168 537.229505 
L 236.932009 629.116949 
L 238.761851 715.20565 
L 240.591692 531.571086 
L 242.421534 588.712891 
L 244.251375 555.217712 
L 246.081217 318.213448 
L 247.911058 217.744905 
L 249.7409 168.416282 
L 251.570741 174.949991 
L 253.400583 170.097642 
L 255.230424 185.963981 
L 257.060266 260.035604 
L 258.890107 199.140644 
L 260.719949 179.252544 
L 262.54979 184.400313 
L 264.379632 227.116936 
L 266.209473 197.521021 
L 268.039315 194.313579 
L 269.869156 204.311259 
L 271.698998 202.251369 
L 273.528839 202.455856 
L 275.358681 190.974216 
L 277.188522 182.699508 
L 279.018364 192.411009 
L 280.848206 255.078942 
L 282.678047 307.94739 
L 284.507889 274.921802 
L 286.33773 448.114889 
L 288.167572 231.525106 
L 289.997413 166.889066 
L 291.827255 194.527874 
L 293.657096 172.640034 
L 295.486938 174.513409 
L 297.316779 176.780563 
L 299.146621 175.681936 
L 300.976462 158.026239 
L 302.806304 192.589644 
L 304.636145 177.180692 
L 306.465987 201.756395 
L 308.295828 219.559037 
L 310.12567 211.614557 
L 311.955511 257.531818 
L 313.785353 270.369748 
L 315.615194 282.258434 
L 317.445036 282.308663 
L 319.274877 283.977891 
L 321.104719 402.670152 
L 322.93456 293.743192 
L 324.764402 277.335674 
L 326.594243 273.106423 
L 328.424085 268.40459 
L 330.253926 439.317654 
L 332.083768 415.138708 
L 333.913609 452.340767 
L 335.743451 372.996088 
L 337.573292 318.068374 
L 339.403134 290.798289 
L 341.232975 260.640503 
L 343.062817 272.47913 
L 344.892658 269.457637 
L 346.7225 261.41253 
L 348.552341 286.889515 
L 350.382183 269.330138 
L 352.212024 256.955038 
L 354.041866 324.052344 
L 355.871707 309.596549 
L 357.701549 367.964225 
L 359.53139 451.165522 
L 361.361232 713.743275 
L 363.191073 738.72 
L 370.510439 738.72 
L 372.340281 682.079335 
L 374.170122 679.536036 
L 375.999964 738.72 
L 377.829805 415.833662 
L 379.659647 415.503859 
L 381.489488 564.052293 
L 383.31933 428.63616 
L 385.149171 438.482303 
L 386.979013 494.893098 
L 388.808854 546.00086 
L 390.638696 566.471792 
L 392.468537 533.68085 
L 394.298379 642.399653 
L 396.12822 738.72 
L 397.958062 738.72 
L 399.787903 561.649121 
L 401.617745 738.72 
L 403.447586 738.72 
L 405.277428 628.9832 
L 407.107269 738.72 
L 408.937111 729.018094 
L 410.766952 502.59678 
L 412.596794 477.965775 
L 414.426635 328.306426 
L 416.256477 528.687325 
L 418.086318 681.644822 
L 419.91616 738.72 
L 423.575843 738.72 
L 425.405684 707.526047 
L 427.235526 738.72 
L 430.895209 738.72 
L 432.72505 356.293348 
L 434.554892 236.180565 
L 436.384733 337.599486 
L 438.214575 251.958069 
L 440.044416 224.699379 
L 441.874258 230.065467 
L 443.704099 249.002508 
L 445.533941 260.77061 
L 447.363782 326.060446 
L 449.193624 288.299096 
L 451.023465 359.249561 
L 452.853307 299.814014 
L 454.683148 315.736704 
L 456.51299 329.975909 
L 458.342831 339.837218 
L 462.002514 380.438932 
L 463.832356 360.267289 
L 465.662197 383.682628 
L 467.492039 285.31604 
L 469.32188 232.464316 
L 471.151722 264.437594 
L 472.981563 262.362568 
L 474.811405 232.036918 
L 476.641246 297.853561 
L 478.471088 253.398036 
L 480.300929 230.190472 
L 482.130771 322.188381 
L 483.960612 327.976368 
L 485.790454 412.080082 
L 487.620295 371.936635 
L 489.450137 345.669595 
L 491.279978 419.46065 
L 493.10982 358.914004 
L 494.939661 472.415807 
L 496.769503 325.077839 
L 498.599344 275.337805 
L 500.429186 338.718012 
L 502.259027 275.609755 
L 504.088869 286.453217 
L 505.91871 389.618013 
L 509.578393 268.736916 
L 511.408235 266.426903 
L 513.238076 299.950867 
L 515.067918 311.007263 
L 516.897759 374.11192 
L 518.727601 443.057685 
L 520.557442 357.89979 
L 522.387284 406.749823 
L 524.217125 326.288318 
L 526.046967 279.691664 
L 527.876808 287.834111 
L 529.70665 258.176686 
L 531.536491 255.287681 
L 533.366333 422.051826 
L 535.196174 571.751737 
L 537.026016 738.72 
L 590.091419 738.72 
L 591.921261 673.795811 
L 593.751102 599.554723 
L 595.580944 320.168487 
L 597.410785 454.687687 
L 599.240627 347.14471 
L 601.070468 253.717493 
L 602.90031 365.751976 
L 604.730151 294.183232 
L 606.559993 341.67567 
L 608.389834 268.528348 
L 612.049517 186.777393 
L 613.879359 172.229757 
L 615.7092 241.007403 
L 617.539042 276.443972 
L 619.368883 235.103764 
L 621.198725 308.003231 
L 623.028566 252.884183 
L 624.858408 331.26074 
L 626.688249 290.100132 
L 628.518091 374.580902 
L 630.347932 297.915751 
L 632.177774 257.288668 
L 634.007615 252.186649 
L 635.837457 238.497495 
L 637.667298 322.533462 
L 639.49714 355.649502 
L 641.326981 284.930083 
L 643.156823 222.695614 
L 644.986664 194.530538 
L 646.816506 184.271907 
L 648.646347 182.770599 
L 650.476189 178.183057 
L 652.30603 173.160747 
L 654.135872 196.256514 
L 655.965713 209.54571 
L 657.795555 207.550108 
L 659.625396 246.880824 
L 661.455238 240.250059 
L 663.285079 290.770567 
L 665.114921 368.595855 
L 666.944762 363.349527 
L 668.774604 306.367054 
L 670.604445 284.043766 
L 672.434287 313.709129 
L 674.264128 349.669188 
L 676.09397 310.078257 
L 677.923811 263.506151 
L 679.753653 280.723395 
L 681.583494 272.510027 
L 683.413336 299.272892 
L 685.243177 426.949103 
L 687.073019 442.943622 
L 688.90286 449.388722 
L 690.732702 499.499065 
L 692.562543 421.302447 
L 694.392385 354.448348 
L 696.222226 328.218271 
L 698.052068 374.053698 
L 699.881909 290.716426 
L 701.711751 278.532207 
L 703.541592 288.220011 
L 705.371434 233.589361 
L 707.201275 230.908585 
L 709.031117 280.468793 
L 710.860958 302.625748 
L 712.6908 447.221118 
L 714.520641 718.556393 
L 716.350483 738.72 
L 762.09652 738.72 
L 763.926362 432.115693 
L 765.756203 406.098691 
L 767.586045 482.674467 
L 769.415886 502.497456 
L 771.245728 689.553586 
L 773.075569 386.0516 
L 774.905411 300.890304 
L 776.735252 309.780456 
L 778.565094 282.966512 
L 780.394935 325.974162 
L 782.224777 400.146667 
L 784.054618 312.835171 
L 785.88446 337.165852 
L 787.714301 295.353347 
L 789.544143 222.955885 
L 791.373984 214.908226 
L 793.203826 275.539003 
L 795.033667 210.474772 
L 796.863509 210.188139 
L 798.69335 214.765193 
L 800.523192 230.491675 
L 802.353033 212.514083 
L 804.182875 202.266393 
L 806.012716 204.413134 
L 807.842558 199.98858 
L 809.672399 196.045962 
L 811.502241 193.588834 
L 813.332082 183.475106 
L 815.161924 164.690622 
L 816.991765 143.665232 
L 818.821607 175.586014 
L 820.651448 170.105975 
L 822.48129 190.595913 
L 824.311131 179.703526 
L 826.140973 172.843387 
L 827.970814 221.114995 
L 829.800656 237.35754 
L 831.630497 268.775183 
L 833.460339 397.08617 
L 835.29018 323.854349 
L 837.120022 395.955144 
L 838.949863 271.098859 
L 840.779705 328.26884 
L 842.609546 460.037618 
L 844.439388 345.252599 
L 846.269229 459.176643 
L 848.099071 485.485493 
L 849.928912 505.648632 
L 851.758754 600.867899 
L 853.588595 349.88592 
L 855.418437 359.881786 
L 857.248278 318.876485 
L 859.07812 357.563042 
L 860.907961 402.518417 
L 862.737803 327.251282 
L 864.567644 391.480446 
L 866.397486 306.026224 
L 868.227327 357.203164 
L 870.057169 338.951468 
L 871.88701 328.384774 
L 873.716852 422.457369 
L 875.546693 429.744509 
L 877.376535 388.766335 
L 879.206376 390.922657 
L 881.036218 479.709127 
L 882.866059 285.949115 
L 884.695901 290.226101 
L 886.525742 279.675167 
L 888.355584 411.166156 
L 890.185425 439.436537 
L 892.015267 506.235872 
L 893.845108 738.72 
L 899.334633 738.72 
L 901.164474 641.95731 
L 902.994316 738.72 
L 904.824157 553.315141 
L 906.653999 738.72 
L 935.931463 738.72 
L 937.761304 599.395122 
L 939.591146 611.914488 
L 941.420987 411.111534 
L 943.250829 373.475415 
L 945.08067 558.266686 
L 948.740353 194.130806 
L 950.570195 237.967995 
L 952.400036 273.785021 
L 956.059719 149.997572 
L 957.889561 252.341814 
L 959.719402 231.362061 
L 961.549244 325.295648 
L 963.379085 388.510996 
L 965.208927 403.802482 
L 967.038768 233.205106 
L 968.86861 244.009904 
L 970.698451 199.910346 
L 972.528293 189.77156 
L 974.358134 195.319629 
L 976.187976 258.985165 
L 978.017817 201.480363 
L 979.847659 202.221039 
L 981.6775 307.205977 
L 983.507342 229.808938 
L 985.337183 209.762725 
L 987.167025 207.38111 
L 988.996866 200.918776 
L 990.826708 173.572554 
L 992.656549 156.818141 
L 994.486391 218.195887 
L 996.316232 167.48824 
L 998.146074 245.592847 
L 999.975915 174.835247 
L 1001.805757 210.548981 
L 1003.635598 230.712715 
L 1005.46544 178.432443 
L 1007.295281 233.290596 
L 1009.125123 313.882605 
L 1010.954964 370.048124 
L 1012.784806 363.926676 
L 1014.614647 357.120167 
L 1016.444489 316.313202 
L 1018.27433 252.190278 
L 1020.104172 215.551166 
L 1021.934013 202.955819 
L 1023.763855 252.275485 
L 1025.593696 237.739981 
L 1027.423538 242.483936 
L 1029.253379 196.548306 
L 1031.083221 182.115868 
L 1032.913062 208.873971 
L 1034.742904 203.822918 
L 1036.572745 235.248895 
L 1038.402587 240.746338 
L 1040.232428 252.511322 
L 1042.06227 237.330725 
L 1043.892111 205.428027 
L 1045.721953 222.234881 
L 1047.551794 216.78041 
L 1049.381636 210.474715 
L 1051.211478 201.530082 
L 1053.041319 220.282818 
L 1054.871161 227.440248 
L 1056.701002 212.041558 
L 1058.530844 199.191496 
L 1060.360685 222.228815 
L 1062.190527 254.526029 
L 1064.020368 189.02085 
L 1065.85021 207.947516 
L 1067.680051 204.374641 
L 1069.509893 202.394062 
L 1071.339734 288.79271 
L 1073.169576 250.509088 
L 1074.999417 306.646997 
L 1076.829259 419.094366 
L 1078.6591 414.981757 
L 1080.488942 467.055927 
L 1082.318783 429.494018 
L 1084.148625 405.826146 
L 1085.978466 435.67723 
L 1087.808308 367.90297 
L 1089.638149 422.293502 
L 1091.467991 426.489702 
L 1093.297832 390.9658 
L 1095.127674 412.743941 
L 1096.957515 430.526514 
L 1098.787357 433.985269 
L 1100.617198 467.611278 
L 1102.44704 738.72 
L 1106.106723 738.72 
L 1107.936564 712.671917 
L 1109.766406 586.655354 
L 1111.596247 738.72 
L 1113.426089 513.660801 
L 1115.25593 738.72 
L 1117.085772 611.687268 
L 1118.915613 640.185988 
L 1120.745455 738.72 
L 1120.745455 738.72 
" clip-path="url(#pe2f760ceca)" style="fill: none; stroke: #da70d6; stroke-linecap: square"/>
   </g>
   <g id="line2d_19">
    <path d="M 207.654545 583.239117 
L 209.484387 563.121686 
L 211.314228 584.90388 
L 213.14407 626.80318 
L 214.973911 651.439302 
L 216.803753 678.900466 
L 218.633594 689.322355 
L 220.463436 690.74326 
L 222.293277 690.046215 
L 224.123119 696.183982 
L 225.95296 682.962126 
L 227.782802 684.017657 
L 231.442485 576.766876 
L 233.272326 573.225365 
L 235.102168 528.915665 
L 236.932009 535.624253 
L 238.761851 512.629496 
L 240.591692 485.138427 
L 242.421534 492.970232 
L 244.251375 535.697711 
L 246.081217 384.963745 
L 247.911058 244.776658 
L 249.7409 180.974722 
L 251.570741 167.970799 
L 253.400583 163.456389 
L 255.230424 176.279126 
L 257.060266 241.585884 
L 258.890107 164.457506 
L 260.719949 166.121178 
L 262.54979 152.627553 
L 264.379632 225.314596 
L 266.209473 161.103744 
L 268.039315 176.696659 
L 269.869156 160.351616 
L 271.698998 152.162172 
L 273.528839 154.825147 
L 275.358681 154.214465 
L 277.188522 152.887598 
L 279.018364 163.304512 
L 280.848206 224.203724 
L 282.678047 234.011204 
L 284.507889 219.925945 
L 286.33773 383.838104 
L 288.167572 245.32515 
L 289.997413 157.38483 
L 293.657096 158.252382 
L 295.486938 161.983257 
L 297.316779 166.296809 
L 299.146621 168.145749 
L 300.976462 133.92 
L 302.806304 223.089904 
L 304.636145 182.791292 
L 306.465987 189.831087 
L 308.295828 292.943528 
L 310.12567 221.752832 
L 311.955511 270.911919 
L 313.785353 277.473321 
L 315.615194 411.658325 
L 319.274877 198.173598 
L 321.104719 350.307961 
L 322.93456 232.222356 
L 324.764402 217.672906 
L 326.594243 208.142819 
L 328.424085 239.29764 
L 330.253926 373.523972 
L 332.083768 299.543538 
L 333.913609 343.907903 
L 335.743451 283.764588 
L 337.573292 215.020986 
L 339.403134 181.418391 
L 341.232975 166.237793 
L 343.062817 176.155311 
L 344.892658 165.597801 
L 346.7225 159.574884 
L 348.552341 186.99129 
L 350.382183 154.74164 
L 352.212024 164.024269 
L 354.041866 229.157041 
L 355.871707 192.089794 
L 359.53139 342.80698 
L 361.361232 432.585808 
L 365.020915 591.313038 
L 366.850756 542.938605 
L 368.680598 466.218507 
L 370.510439 407.249446 
L 374.170122 436.106443 
L 375.999964 418.390851 
L 377.829805 358.685395 
L 379.659647 328.366434 
L 381.489488 364.359375 
L 383.31933 316.112882 
L 385.149171 350.863936 
L 386.979013 383.447244 
L 388.808854 405.045985 
L 390.638696 403.496376 
L 392.468537 416.374274 
L 394.298379 408.173661 
L 396.12822 419.561079 
L 397.958062 436.422839 
L 399.787903 440.747247 
L 401.617745 449.700525 
L 403.447586 509.588671 
L 405.277428 459.133642 
L 407.107269 546.472038 
L 408.937111 525.919059 
L 410.766952 480.917651 
L 412.596794 457.824604 
L 414.426635 407.854601 
L 416.256477 467.77934 
L 418.086318 532.246935 
L 419.91616 560.438854 
L 421.746001 511.967068 
L 423.575843 556.483806 
L 425.405684 511.353878 
L 427.235526 451.393649 
L 429.065367 445.984815 
L 430.895209 445.54571 
L 432.72505 330.790029 
L 434.554892 198.272922 
L 436.384733 273.30507 
L 438.214575 173.706007 
L 440.044416 195.970165 
L 441.874258 165.6626 
L 443.704099 217.647282 
L 445.533941 241.220166 
L 447.363782 261.89747 
L 449.193624 185.734777 
L 451.023465 299.057946 
L 452.853307 211.252467 
L 454.683148 296.531767 
L 456.51299 244.203222 
L 458.342831 289.938674 
L 460.172673 271.390793 
L 462.002514 273.119093 
L 463.832356 253.120077 
L 465.662197 300.529093 
L 467.492039 205.128129 
L 469.32188 195.347238 
L 471.151722 255.955168 
L 472.981563 202.28374 
L 476.641246 242.647605 
L 478.471088 237.545472 
L 480.300929 240.047897 
L 482.130771 312.409615 
L 483.960612 306.573157 
L 485.790454 407.428336 
L 487.620295 320.067944 
L 489.450137 311.677726 
L 491.279978 388.715114 
L 493.10982 311.953418 
L 494.939661 379.873971 
L 496.769503 287.836747 
L 498.599344 218.024054 
L 500.429186 281.808473 
L 502.259027 239.367994 
L 504.088869 258.873142 
L 505.91871 281.085229 
L 507.748552 206.222107 
L 509.578393 175.739365 
L 511.408235 165.338834 
L 513.238076 203.339678 
L 515.067918 208.311363 
L 516.897759 274.488876 
L 518.727601 307.963065 
L 520.557442 270.273599 
L 522.387284 280.73187 
L 524.217125 207.37941 
L 526.046967 175.651153 
L 527.876808 197.00456 
L 529.70665 168.213723 
L 531.536491 178.893913 
L 533.366333 306.997805 
L 535.196174 394.317833 
L 537.026016 453.234823 
L 538.855857 617.342682 
L 540.685699 643.63631 
L 542.51554 636.992853 
L 544.345382 669.849543 
L 546.175223 656.550462 
L 548.005065 686.38828 
L 549.834906 668.735744 
L 551.664748 676.713041 
L 553.494589 687.911659 
L 555.324431 688.221177 
L 557.154272 669.681814 
L 558.984114 608.902349 
L 560.813955 562.059185 
L 562.643797 600.094172 
L 564.473638 621.128009 
L 566.30348 658.158704 
L 568.133321 657.884742 
L 569.963163 670.157797 
L 571.793004 664.873571 
L 573.622846 669.180461 
L 575.452687 628.816087 
L 579.11237 656.256105 
L 580.942212 656.057727 
L 582.772053 650.662641 
L 584.601895 598.233227 
L 586.431736 549.531784 
L 588.261578 495.557269 
L 590.091419 485.250903 
L 591.921261 506.286993 
L 593.751102 509.233101 
L 595.580944 458.143693 
L 597.410785 389.388355 
L 599.240627 396.708575 
L 601.070468 383.385365 
L 602.90031 345.079378 
L 604.730151 309.813536 
L 606.559993 306.566779 
L 608.389834 219.426492 
L 610.219676 186.929383 
L 612.049517 159.183372 
L 613.879359 150.040261 
L 615.7092 236.753717 
L 617.539042 249.212267 
L 619.368883 226.247287 
L 621.198725 266.513726 
L 623.028566 239.004998 
L 624.858408 276.704583 
L 626.688249 196.665714 
L 628.518091 317.738514 
L 630.347932 214.185805 
L 632.177774 222.838023 
L 634.007615 208.386536 
L 635.837457 223.557043 
L 637.667298 248.471081 
L 639.49714 278.682043 
L 643.156823 190.259335 
L 644.986664 176.145163 
L 646.816506 168.504267 
L 648.646347 172.379933 
L 650.476189 173.905391 
L 652.30603 138.381403 
L 654.135872 234.076399 
L 655.965713 224.382359 
L 657.795555 192.91511 
L 659.625396 248.096179 
L 661.455238 263.322414 
L 663.285079 346.253858 
L 665.114921 308.83141 
L 666.944762 306.295084 
L 668.774604 256.629911 
L 670.604445 231.954999 
L 672.434287 260.313733 
L 674.264128 303.608525 
L 676.09397 255.524708 
L 677.923811 237.024476 
L 679.753653 206.713737 
L 681.583494 184.641649 
L 683.413336 239.326326 
L 685.243177 368.288416 
L 687.073019 311.641444 
L 688.90286 277.055249 
L 690.732702 316.019567 
L 692.562543 271.785253 
L 694.392385 267.45305 
L 696.222226 220.230719 
L 698.052068 259.083411 
L 699.881909 191.878674 
L 701.711751 189.627904 
L 703.541592 160.9297 
L 705.371434 145.157866 
L 707.201275 144.950488 
L 709.031117 170.385068 
L 710.860958 208.131594 
L 714.520641 440.721452 
L 716.350483 517.634359 
L 718.180324 634.292235 
L 720.010166 649.015487 
L 721.840007 574.128817 
L 723.669849 562.814332 
L 725.49969 588.747459 
L 727.329532 585.873023 
L 729.159373 592.678186 
L 730.989215 597.573578 
L 732.819056 625.577663 
L 734.648898 645.40477 
L 736.478739 649.769776 
L 738.308581 565.741703 
L 740.138422 569.550061 
L 741.968264 612.265055 
L 743.798105 606.815885 
L 745.627947 646.22519 
L 747.457788 649.023934 
L 749.28763 662.220559 
L 751.117471 599.093707 
L 752.947313 601.183487 
L 754.777154 651.328626 
L 756.606996 654.381894 
L 758.436837 627.131007 
L 760.266679 570.158022 
L 762.09652 492.649839 
L 763.926362 431.419832 
L 765.756203 415.699303 
L 767.586045 438.250265 
L 769.415886 459.052573 
L 771.245728 465.754713 
L 773.075569 393.419441 
L 774.905411 374.358812 
L 776.735252 386.572738 
L 778.565094 287.920934 
L 780.394935 313.76497 
L 782.224777 310.670883 
L 784.054618 232.339311 
L 785.88446 280.07079 
L 787.714301 214.253665 
L 789.544143 144.400919 
L 791.373984 152.437069 
L 793.203826 230.241948 
L 795.033667 154.635344 
L 796.863509 178.696456 
L 798.69335 150.403654 
L 800.523192 177.3036 
L 802.353033 143.976242 
L 804.182875 149.391426 
L 806.012716 153.9157 
L 807.842558 153.802884 
L 809.672399 157.899533 
L 811.502241 159.786174 
L 813.332082 147.58268 
L 816.991765 142.137053 
L 818.821607 162.440192 
L 820.651448 144.51504 
L 822.48129 169.384121 
L 824.311131 151.806545 
L 826.140973 155.214278 
L 827.970814 182.294957 
L 829.800656 259.209267 
L 831.630497 285.816428 
L 833.460339 405.224903 
L 835.29018 299.336982 
L 837.120022 476.978576 
L 838.949863 325.244002 
L 840.779705 278.25371 
L 842.609546 386.191628 
L 844.439388 296.861542 
L 846.269229 364.135415 
L 848.099071 338.881397 
L 849.928912 361.217356 
L 851.758754 396.102429 
L 853.588595 298.731289 
L 855.418437 327.398907 
L 857.248278 252.026892 
L 859.07812 292.834113 
L 860.907961 305.430424 
L 862.737803 233.628479 
L 864.567644 236.67741 
L 866.397486 166.781806 
L 868.227327 292.6078 
L 870.057169 204.524873 
L 871.88701 222.05018 
L 873.716852 217.364844 
L 875.546693 357.451842 
L 877.376535 238.20763 
L 879.206376 164.893351 
L 881.036218 246.593738 
L 882.866059 179.473755 
L 884.695901 203.050438 
L 886.525742 239.550995 
L 888.355584 333.616815 
L 890.185425 306.167301 
L 892.015267 459.531419 
L 893.845108 558.62991 
L 895.67495 527.445793 
L 897.504791 557.560606 
L 899.334633 569.092447 
L 901.164474 500.305022 
L 902.994316 471.96219 
L 904.824157 405.106985 
L 906.653999 532.728346 
L 908.48384 618.135145 
L 910.313682 667.654415 
L 912.143523 527.809271 
L 913.973365 593.750139 
L 915.803206 603.60799 
L 917.633048 615.757045 
L 919.462889 620.267218 
L 921.292731 610.637141 
L 923.122572 622.287743 
L 924.952414 622.461942 
L 926.782255 606.843805 
L 928.612097 609.554189 
L 930.441938 629.638349 
L 932.27178 634.207233 
L 934.101621 568.75105 
L 935.931463 577.943269 
L 937.761304 576.996066 
L 939.591146 476.385411 
L 941.420987 401.409728 
L 943.250829 368.956725 
L 945.08067 485.355811 
L 946.910512 431.722678 
L 948.740353 237.393312 
L 950.570195 359.311639 
L 952.400036 328.957898 
L 954.229878 254.593549 
L 956.059719 187.314999 
L 957.889561 223.954678 
L 959.719402 192.153969 
L 961.549244 277.231305 
L 963.379085 329.473962 
L 965.208927 282.248768 
L 967.038768 169.105425 
L 968.86861 163.571927 
L 970.698451 152.92337 
L 972.528293 152.431854 
L 974.358134 146.706681 
L 976.187976 221.575784 
L 978.017817 150.638698 
L 979.847659 167.58711 
L 981.6775 252.810427 
L 983.507342 155.854157 
L 985.337183 198.369184 
L 987.167025 173.318803 
L 988.996866 186.126063 
L 990.826708 146.815982 
L 992.656549 148.495471 
L 994.486391 210.889811 
L 996.316232 144.039624 
L 998.146074 260.669076 
L 999.975915 165.122272 
L 1001.805757 170.229507 
L 1003.635598 227.95206 
L 1005.46544 172.79741 
L 1007.295281 270.768375 
L 1009.125123 333.762229 
L 1010.954964 319.701064 
L 1012.784806 307.23506 
L 1014.614647 293.184297 
L 1016.444489 277.470118 
L 1018.27433 211.580825 
L 1020.104172 168.438675 
L 1021.934013 231.61791 
L 1023.763855 211.996205 
L 1025.593696 186.438433 
L 1027.423538 176.969686 
L 1029.253379 164.429557 
L 1031.083221 161.735118 
L 1032.913062 153.538134 
L 1034.742904 149.965768 
L 1036.572745 233.217975 
L 1038.402587 175.638964 
L 1040.232428 181.116621 
L 1042.06227 164.221726 
L 1043.892111 153.089306 
L 1045.721953 155.152484 
L 1047.551794 147.96909 
L 1051.211478 141.076636 
L 1053.041319 140.189583 
L 1054.871161 142.909363 
L 1058.530844 146.401566 
L 1060.360685 147.502631 
L 1062.190527 230.29864 
L 1064.020368 203.24455 
L 1067.680051 171.120472 
L 1069.509893 161.148757 
L 1071.339734 247.640775 
L 1073.169576 269.202553 
L 1074.999417 346.537657 
L 1076.829259 384.92219 
L 1078.6591 394.525778 
L 1080.488942 402.639596 
L 1082.318783 366.453592 
L 1084.148625 343.67884 
L 1085.978466 368.030639 
L 1087.808308 348.876809 
L 1089.638149 384.571495 
L 1091.467991 390.359058 
L 1093.297832 363.019951 
L 1095.127674 351.32909 
L 1096.957515 381.449148 
L 1098.787357 364.886635 
L 1100.617198 375.710397 
L 1102.44704 462.221152 
L 1104.276881 457.903207 
L 1106.106723 461.606644 
L 1107.936564 448.80613 
L 1109.766406 401.074283 
L 1111.596247 413.806342 
L 1113.426089 376.587332 
L 1115.25593 468.578862 
L 1117.085772 444.044204 
L 1118.915613 429.417767 
L 1120.745455 517.478273 
L 1120.745455 517.478273 
" clip-path="url(#pe2f760ceca)" style="fill: none; stroke: #8fbc8f; stroke-linecap: square"/>
   </g>
   <g id="patch_3">
    <path d="M 162 768.96 
L 162 103.68 
" style="fill: none; stroke: #000000; stroke-width: 0.8; stroke-linejoin: miter; stroke-linecap: square"/>
   </g>
   <g id="patch_4">
    <path d="M 1166.4 768.96 
L 1166.4 103.68 
" style="fill: none; stroke: #000000; stroke-width: 0.8; stroke-linejoin: miter; stroke-linecap: square"/>
   </g>
   <g id="patch_5">
    <path d="M 162 768.96 
L 1166.4 768.96 
" style="fill: none; stroke: #000000; stroke-width: 0.8; stroke-linejoin: miter; stroke-linecap: square"/>
   </g>
   <g id="patch_6">
    <path d="M 162 103.68 
L 1166.4 103.68 
" style="fill: none; stroke: #000000; stroke-width: 0.8; stroke-linejoin: miter; stroke-linecap: square"/>
   </g>
   <g id="text_16">
    <!-- Function 1 -->
    <g transform="translate(632.957813 97.68) scale(0.12 -0.12)">
     <defs>
      <path id="DejaVuSans-46" d="M 628 4666 
L 3309 4666 
L 3309 4134 
L 1259 4134 
L 1259 2759 
L 3109 2759 
L 3109 2228 
L 1259 2228 
L 1259 0 
L 628 0 
L 628 4666 
z
" transform="scale(0.015625)"/>
      <path id="DejaVuSans-75" d="M 544 1381 
L 544 3500 
L 1119 3500 
L 1119 1403 
Q 1119 906 1312 657 
Q 1506 409 1894 409 
Q 2359 409 2629 706 
Q 2900 1003 2900 1516 
L 2900 3500 
L 3475 3500 
L 3475 0 
L 2900 0 
L 2900 538 
Q 2691 219 2414 64 
Q 2138 -91 1772 -91 
Q 1169 -91 856 284 
Q 544 659 544 1381 
z
M 1991 3584 
L 1991 3584 
z
" transform="scale(0.015625)"/>
      <path id="DejaVuSans-6e" d="M 3513 2113 
L 3513 0 
L 2938 0 
L 2938 2094 
Q 2938 2591 2744 2837 
Q 2550 3084 2163 3084 
Q 1697 3084 1428 2787 
Q 1159 2491 1159 1978 
L 1159 0 
L 581 0 
L 581 3500 
L 1159 3500 
L 1159 2956 
Q 1366 3272 1645 3428 
Q 1925 3584 2291 3584 
Q 2894 3584 3203 3211 
Q 3513 2838 3513 2113 
z
" transform="scale(0.015625)"/>
      <path id="DejaVuSans-63" d="M 3122 3366 
L 3122 2828 
Q 2878 2963 2633 3030 
Q 2388 3097 2138 3097 
Q 1578 3097 1268 2742 
Q 959 2388 959 1747 
Q 959 1106 1268 751 
Q 1578 397 2138 397 
Q 2388 397 2633 464 
Q 2878 531 3122 666 
L 3122 134 
Q 2881 22 2623 -34 
Q 2366 -91 2075 -91 
Q 1284 -91 818 406 
Q 353 903 353 1747 
Q 353 2603 823 3093 
Q 1294 3584 2113 3584 
Q 2378 3584 2631 3529 
Q 2884 3475 3122 3366 
z
" transform="scale(0.015625)"/>
      <path id="DejaVuSans-74" d="M 1172 4494 
L 1172 3500 
L 2356 3500 
L 2356 3053 
L 1172 3053 
L 1172 1153 
Q 1172 725 1289 603 
Q 1406 481 1766 481 
L 2356 481 
L 2356 0 
L 1766 0 
Q 1100 0 847 248 
Q 594 497 594 1153 
L 594 3053 
L 172 3053 
L 172 3500 
L 594 3500 
L 594 4494 
L 1172 4494 
z
" transform="scale(0.015625)"/>
      <path id="DejaVuSans-69" d="M 603 3500 
L 1178 3500 
L 1178 0 
L 603 0 
L 603 3500 
z
M 603 4863 
L 1178 4863 
L 1178 4134 
L 603 4134 
L 603 4863 
z
" transform="scale(0.015625)"/>
      <path id="DejaVuSans-6f" d="M 1959 3097 
Q 1497 3097 1228 2736 
Q 959 2375 959 1747 
Q 959 1119 1226 758 
Q 1494 397 1959 397 
Q 2419 397 2687 759 
Q 2956 1122 2956 1747 
Q 2956 2369 2687 2733 
Q 2419 3097 1959 3097 
z
M 1959 3584 
Q 2709 3584 3137 3096 
Q 3566 2609 3566 1747 
Q 3566 888 3137 398 
Q 2709 -91 1959 -91 
Q 1206 -91 779 398 
Q 353 888 353 1747 
Q 353 2609 779 3096 
Q 1206 3584 1959 3584 
z
" transform="scale(0.015625)"/>
      <path id="DejaVuSans-20" transform="scale(0.015625)"/>
     </defs>
     <use xlink:href="#DejaVuSans-46"/>
     <use xlink:href="#DejaVuSans-75" x="52.019531"/>
     <use xlink:href="#DejaVuSans-6e" x="115.398438"/>
     <use xlink:href="#DejaVuSans-63" x="178.777344"/>
     <use xlink:href="#DejaVuSans-74" x="233.757812"/>
     <use xlink:href="#DejaVuSans-69" x="272.966797"/>
     <use xlink:href="#DejaVuSans-6f" x="300.75"/>
     <use xlink:href="#DejaVuSans-6e" x="361.931641"/>
     <use xlink:href="#DejaVuSans-20" x="425.310547"/>
     <use xlink:href="#DejaVuSans-31" x="457.097656"/>
    </g>
   </g>
   <g id="legend_1">
    <g id="patch_7">
     <path d="M 1011.90625 763.96 
L 1159.4 763.96 
Q 1161.4 763.96 1161.4 761.96 
L 1161.4 704.2475 
Q 1161.4 702.2475 1159.4 702.2475 
L 1011.90625 702.2475 
Q 1009.90625 702.2475 1009.90625 704.2475 
L 1009.90625 761.96 
Q 1009.90625 763.96 1011.90625 763.96 
z
" style="fill: #ffffff; opacity: 0.8; stroke: #cccccc; stroke-linejoin: miter"/>
    </g>
    <g id="line2d_20">
     <path d="M 1013.90625 710.345937 
L 1023.90625 710.345937 
L 1033.90625 710.345937 
" style="fill: none; stroke: #4169e1; stroke-linecap: square"/>
    </g>
    <g id="text_17">
     <!-- Truth -->
     <g transform="translate(1041.90625 713.845937) scale(0.1 -0.1)">
      <defs>
       <path id="DejaVuSans-54" d="M -19 4666 
L 3928 4666 
L 3928 4134 
L 2272 4134 
L 2272 0 
L 1638 0 
L 1638 4134 
L -19 4134 
L -19 4666 
z
" transform="scale(0.015625)"/>
       <path id="DejaVuSans-72" d="M 2631 2963 
Q 2534 3019 2420 3045 
Q 2306 3072 2169 3072 
Q 1681 3072 1420 2755 
Q 1159 2438 1159 1844 
L 1159 0 
L 581 0 
L 581 3500 
L 1159 3500 
L 1159 2956 
Q 1341 3275 1631 3429 
Q 1922 3584 2338 3584 
Q 2397 3584 2469 3576 
Q 2541 3569 2628 3553 
L 2631 2963 
z
" transform="scale(0.015625)"/>
       <path id="DejaVuSans-68" d="M 3513 2113 
L 3513 0 
L 2938 0 
L 2938 2094 
Q 2938 2591 2744 2837 
Q 2550 3084 2163 3084 
Q 1697 3084 1428 2787 
Q 1159 2491 1159 1978 
L 1159 0 
L 581 0 
L 581 4863 
L 1159 4863 
L 1159 2956 
Q 1366 3272 1645 3428 
Q 1925 3584 2291 3584 
Q 2894 3584 3203 3211 
Q 3513 2838 3513 2113 
z
" transform="scale(0.015625)"/>
      </defs>
      <use xlink:href="#DejaVuSans-54"/>
      <use xlink:href="#DejaVuSans-72" x="46.333984"/>
      <use xlink:href="#DejaVuSans-75" x="87.447266"/>
      <use xlink:href="#DejaVuSans-74" x="150.826172"/>
      <use xlink:href="#DejaVuSans-68" x="190.035156"/>
     </g>
    </g>
    <g id="line2d_21">
     <path d="M 1013.90625 725.024063 
L 1023.90625 725.024063 
L 1033.90625 725.024063 
" style="fill: none; stroke: #ff6347; stroke-linecap: square"/>
    </g>
    <g id="text_18">
     <!-- Gossip predictions -->
     <g transform="translate(1041.90625 728.524063) scale(0.1 -0.1)">
      <defs>
       <path id="DejaVuSans-47" d="M 3809 666 
L 3809 1919 
L 2778 1919 
L 2778 2438 
L 4434 2438 
L 4434 434 
Q 4069 175 3628 42 
Q 3188 -91 2688 -91 
Q 1594 -91 976 548 
Q 359 1188 359 2328 
Q 359 3472 976 4111 
Q 1594 4750 2688 4750 
Q 3144 4750 3555 4637 
Q 3966 4525 4313 4306 
L 4313 3634 
Q 3963 3931 3569 4081 
Q 3175 4231 2741 4231 
Q 1884 4231 1454 3753 
Q 1025 3275 1025 2328 
Q 1025 1384 1454 906 
Q 1884 428 2741 428 
Q 3075 428 3337 486 
Q 3600 544 3809 666 
z
" transform="scale(0.015625)"/>
       <path id="DejaVuSans-73" d="M 2834 3397 
L 2834 2853 
Q 2591 2978 2328 3040 
Q 2066 3103 1784 3103 
Q 1356 3103 1142 2972 
Q 928 2841 928 2578 
Q 928 2378 1081 2264 
Q 1234 2150 1697 2047 
L 1894 2003 
Q 2506 1872 2764 1633 
Q 3022 1394 3022 966 
Q 3022 478 2636 193 
Q 2250 -91 1575 -91 
Q 1294 -91 989 -36 
Q 684 19 347 128 
L 347 722 
Q 666 556 975 473 
Q 1284 391 1588 391 
Q 1994 391 2212 530 
Q 2431 669 2431 922 
Q 2431 1156 2273 1281 
Q 2116 1406 1581 1522 
L 1381 1569 
Q 847 1681 609 1914 
Q 372 2147 372 2553 
Q 372 3047 722 3315 
Q 1072 3584 1716 3584 
Q 2034 3584 2315 3537 
Q 2597 3491 2834 3397 
z
" transform="scale(0.015625)"/>
       <path id="DejaVuSans-70" d="M 1159 525 
L 1159 -1331 
L 581 -1331 
L 581 3500 
L 1159 3500 
L 1159 2969 
Q 1341 3281 1617 3432 
Q 1894 3584 2278 3584 
Q 2916 3584 3314 3078 
Q 3713 2572 3713 1747 
Q 3713 922 3314 415 
Q 2916 -91 2278 -91 
Q 1894 -91 1617 61 
Q 1341 213 1159 525 
z
M 3116 1747 
Q 3116 2381 2855 2742 
Q 2594 3103 2138 3103 
Q 1681 3103 1420 2742 
Q 1159 2381 1159 1747 
Q 1159 1113 1420 752 
Q 1681 391 2138 391 
Q 2594 391 2855 752 
Q 3116 1113 3116 1747 
z
" transform="scale(0.015625)"/>
       <path id="DejaVuSans-65" d="M 3597 1894 
L 3597 1613 
L 953 1613 
Q 991 1019 1311 708 
Q 1631 397 2203 397 
Q 2534 397 2845 478 
Q 3156 559 3463 722 
L 3463 178 
Q 3153 47 2828 -22 
Q 2503 -91 2169 -91 
Q 1331 -91 842 396 
Q 353 884 353 1716 
Q 353 2575 817 3079 
Q 1281 3584 2069 3584 
Q 2775 3584 3186 3129 
Q 3597 2675 3597 1894 
z
M 3022 2063 
Q 3016 2534 2758 2815 
Q 2500 3097 2075 3097 
Q 1594 3097 1305 2825 
Q 1016 2553 972 2059 
L 3022 2063 
z
" transform="scale(0.015625)"/>
       <path id="DejaVuSans-64" d="M 2906 2969 
L 2906 4863 
L 3481 4863 
L 3481 0 
L 2906 0 
L 2906 525 
Q 2725 213 2448 61 
Q 2172 -91 1784 -91 
Q 1150 -91 751 415 
Q 353 922 353 1747 
Q 353 2572 751 3078 
Q 1150 3584 1784 3584 
Q 2172 3584 2448 3432 
Q 2725 3281 2906 2969 
z
M 947 1747 
Q 947 1113 1208 752 
Q 1469 391 1925 391 
Q 2381 391 2643 752 
Q 2906 1113 2906 1747 
Q 2906 2381 2643 2742 
Q 2381 3103 1925 3103 
Q 1469 3103 1208 2742 
Q 947 2381 947 1747 
z
" transform="scale(0.015625)"/>
      </defs>
      <use xlink:href="#DejaVuSans-47"/>
      <use xlink:href="#DejaVuSans-6f" x="77.490234"/>
      <use xlink:href="#DejaVuSans-73" x="138.671875"/>
      <use xlink:href="#DejaVuSans-73" x="190.771484"/>
      <use xlink:href="#DejaVuSans-69" x="242.871094"/>
      <use xlink:href="#DejaVuSans-70" x="270.654297"/>
      <use xlink:href="#DejaVuSans-20" x="334.130859"/>
      <use xlink:href="#DejaVuSans-70" x="365.917969"/>
      <use xlink:href="#DejaVuSans-72" x="429.394531"/>
      <use xlink:href="#DejaVuSans-65" x="468.257812"/>
      <use xlink:href="#DejaVuSans-64" x="529.78125"/>
      <use xlink:href="#DejaVuSans-69" x="593.257812"/>
      <use xlink:href="#DejaVuSans-63" x="621.041016"/>
      <use xlink:href="#DejaVuSans-74" x="676.021484"/>
      <use xlink:href="#DejaVuSans-69" x="715.230469"/>
      <use xlink:href="#DejaVuSans-6f" x="743.013672"/>
      <use xlink:href="#DejaVuSans-6e" x="804.195312"/>
      <use xlink:href="#DejaVuSans-73" x="867.574219"/>
     </g>
    </g>
    <g id="line2d_22">
     <path d="M 1013.90625 739.702188 
L 1023.90625 739.702188 
L 1033.90625 739.702188 
" style="fill: none; stroke: #da70d6; stroke-linecap: square"/>
    </g>
    <g id="text_19">
     <!-- Centralized predictions -->
     <g transform="translate(1041.90625 743.202188) scale(0.1 -0.1)">
      <defs>
       <path id="DejaVuSans-43" d="M 4122 4306 
L 4122 3641 
Q 3803 3938 3442 4084 
Q 3081 4231 2675 4231 
Q 1875 4231 1450 3742 
Q 1025 3253 1025 2328 
Q 1025 1406 1450 917 
Q 1875 428 2675 428 
Q 3081 428 3442 575 
Q 3803 722 4122 1019 
L 4122 359 
Q 3791 134 3420 21 
Q 3050 -91 2638 -91 
Q 1578 -91 968 557 
Q 359 1206 359 2328 
Q 359 3453 968 4101 
Q 1578 4750 2638 4750 
Q 3056 4750 3426 4639 
Q 3797 4528 4122 4306 
z
" transform="scale(0.015625)"/>
       <path id="DejaVuSans-61" d="M 2194 1759 
Q 1497 1759 1228 1600 
Q 959 1441 959 1056 
Q 959 750 1161 570 
Q 1363 391 1709 391 
Q 2188 391 2477 730 
Q 2766 1069 2766 1631 
L 2766 1759 
L 2194 1759 
z
M 3341 1997 
L 3341 0 
L 2766 0 
L 2766 531 
Q 2569 213 2275 61 
Q 1981 -91 1556 -91 
Q 1019 -91 701 211 
Q 384 513 384 1019 
Q 384 1609 779 1909 
Q 1175 2209 1959 2209 
L 2766 2209 
L 2766 2266 
Q 2766 2663 2505 2880 
Q 2244 3097 1772 3097 
Q 1472 3097 1187 3025 
Q 903 2953 641 2809 
L 641 3341 
Q 956 3463 1253 3523 
Q 1550 3584 1831 3584 
Q 2591 3584 2966 3190 
Q 3341 2797 3341 1997 
z
" transform="scale(0.015625)"/>
       <path id="DejaVuSans-6c" d="M 603 4863 
L 1178 4863 
L 1178 0 
L 603 0 
L 603 4863 
z
" transform="scale(0.015625)"/>
       <path id="DejaVuSans-7a" d="M 353 3500 
L 3084 3500 
L 3084 2975 
L 922 459 
L 3084 459 
L 3084 0 
L 275 0 
L 275 525 
L 2438 3041 
L 353 3041 
L 353 3500 
z
" transform="scale(0.015625)"/>
      </defs>
      <use xlink:href="#DejaVuSans-43"/>
      <use xlink:href="#DejaVuSans-65" x="69.824219"/>
      <use xlink:href="#DejaVuSans-6e" x="131.347656"/>
      <use xlink:href="#DejaVuSans-74" x="194.726562"/>
      <use xlink:href="#DejaVuSans-72" x="233.935547"/>
      <use xlink:href="#DejaVuSans-61" x="275.048828"/>
      <use xlink:href="#DejaVuSans-6c" x="336.328125"/>
      <use xlink:href="#DejaVuSans-69" x="364.111328"/>
      <use xlink:href="#DejaVuSans-7a" x="391.894531"/>
      <use xlink:href="#DejaVuSans-65" x="444.384766"/>
      <use xlink:href="#DejaVuSans-64" x="505.908203"/>
      <use xlink:href="#DejaVuSans-20" x="569.384766"/>
      <use xlink:href="#DejaVuSans-70" x="601.171875"/>
      <use xlink:href="#DejaVuSans-72" x="664.648438"/>
      <use xlink:href="#DejaVuSans-65" x="703.511719"/>
      <use xlink:href="#DejaVuSans-64" x="765.035156"/>
      <use xlink:href="#DejaVuSans-69" x="828.511719"/>
      <use xlink:href="#DejaVuSans-63" x="856.294922"/>
      <use xlink:href="#DejaVuSans-74" x="911.275391"/>
      <use xlink:href="#DejaVuSans-69" x="950.484375"/>
      <use xlink:href="#DejaVuSans-6f" x="978.267578"/>
      <use xlink:href="#DejaVuSans-6e" x="1039.449219"/>
      <use xlink:href="#DejaVuSans-73" x="1102.828125"/>
     </g>
    </g>
    <g id="line2d_23">
     <path d="M 1013.90625 754.380312 
L 1023.90625 754.380312 
L 1033.90625 754.380312 
" style="fill: none; stroke: #8fbc8f; stroke-linecap: square"/>
    </g>
    <g id="text_20">
     <!-- Single predictions -->
     <g transform="translate(1041.90625 757.880312) scale(0.1 -0.1)">
      <defs>
       <path id="DejaVuSans-53" d="M 3425 4513 
L 3425 3897 
Q 3066 4069 2747 4153 
Q 2428 4238 2131 4238 
Q 1616 4238 1336 4038 
Q 1056 3838 1056 3469 
Q 1056 3159 1242 3001 
Q 1428 2844 1947 2747 
L 2328 2669 
Q 3034 2534 3370 2195 
Q 3706 1856 3706 1288 
Q 3706 609 3251 259 
Q 2797 -91 1919 -91 
Q 1588 -91 1214 -16 
Q 841 59 441 206 
L 441 856 
Q 825 641 1194 531 
Q 1563 422 1919 422 
Q 2459 422 2753 634 
Q 3047 847 3047 1241 
Q 3047 1584 2836 1778 
Q 2625 1972 2144 2069 
L 1759 2144 
Q 1053 2284 737 2584 
Q 422 2884 422 3419 
Q 422 4038 858 4394 
Q 1294 4750 2059 4750 
Q 2388 4750 2728 4690 
Q 3069 4631 3425 4513 
z
" transform="scale(0.015625)"/>
       <path id="DejaVuSans-67" d="M 2906 1791 
Q 2906 2416 2648 2759 
Q 2391 3103 1925 3103 
Q 1463 3103 1205 2759 
Q 947 2416 947 1791 
Q 947 1169 1205 825 
Q 1463 481 1925 481 
Q 2391 481 2648 825 
Q 2906 1169 2906 1791 
z
M 3481 434 
Q 3481 -459 3084 -895 
Q 2688 -1331 1869 -1331 
Q 1566 -1331 1297 -1286 
Q 1028 -1241 775 -1147 
L 775 -588 
Q 1028 -725 1275 -790 
Q 1522 -856 1778 -856 
Q 2344 -856 2625 -561 
Q 2906 -266 2906 331 
L 2906 616 
Q 2728 306 2450 153 
Q 2172 0 1784 0 
Q 1141 0 747 490 
Q 353 981 353 1791 
Q 353 2603 747 3093 
Q 1141 3584 1784 3584 
Q 2172 3584 2450 3431 
Q 2728 3278 2906 2969 
L 2906 3500 
L 3481 3500 
L 3481 434 
z
" transform="scale(0.015625)"/>
      </defs>
      <use xlink:href="#DejaVuSans-53"/>
      <use xlink:href="#DejaVuSans-69" x="63.476562"/>
      <use xlink:href="#DejaVuSans-6e" x="91.259766"/>
      <use xlink:href="#DejaVuSans-67" x="154.638672"/>
      <use xlink:href="#DejaVuSans-6c" x="218.115234"/>
      <use xlink:href="#DejaVuSans-65" x="245.898438"/>
      <use xlink:href="#DejaVuSans-20" x="307.421875"/>
      <use xlink:href="#DejaVuSans-70" x="339.208984"/>
      <use xlink:href="#DejaVuSans-72" x="402.685547"/>
      <use xlink:href="#DejaVuSans-65" x="441.548828"/>
      <use xlink:href="#DejaVuSans-64" x="503.072266"/>
      <use xlink:href="#DejaVuSans-69" x="566.548828"/>
      <use xlink:href="#DejaVuSans-63" x="594.332031"/>
      <use xlink:href="#DejaVuSans-74" x="649.3125"/>
      <use xlink:href="#DejaVuSans-69" x="688.521484"/>
      <use xlink:href="#DejaVuSans-6f" x="716.304688"/>
      <use xlink:href="#DejaVuSans-6e" x="777.486328"/>
      <use xlink:href="#DejaVuSans-73" x="840.865234"/>
     </g>
    </g>
   </g>
  </g>
 </g>
 <defs>
  <clipPath id="pe2f760ceca">
   <rect x="162" y="103.68" width="1004.4" height="665.28"/>
  </clipPath>
 </defs>
</svg>
