<?xml version="1.0" encoding="utf-8" standalone="no"?>
<!DOCTYPE svg PUBLIC "-//W3C//DTD SVG 1.1//EN"
  "http://www.w3.org/Graphics/SVG/1.1/DTD/svg11.dtd">
<svg xmlns:xlink="http://www.w3.org/1999/xlink" width="1296pt" height="864pt" viewBox="0 0 1296 864" xmlns="http://www.w3.org/2000/svg" version="1.1">
 <metadata>
  <rdf:RDF xmlns:dc="http://purl.org/dc/elements/1.1/" xmlns:cc="http://creativecommons.org/ns#" xmlns:rdf="http://www.w3.org/1999/02/22-rdf-syntax-ns#">
   <cc:Work>
    <dc:type rdf:resource="http://purl.org/dc/dcmitype/StillImage"/>
    <dc:date>2023-12-24T17:34:54.578911</dc:date>
    <dc:format>image/svg+xml</dc:format>
    <dc:creator>
     <cc:Agent>
      <dc:title>Matplotlib v3.8.0, https://matplotlib.org/</dc:title>
     </cc:Agent>
    </dc:creator>
   </cc:Work>
  </rdf:RDF>
 </metadata>
 <defs>
  <style type="text/css">*{stroke-linejoin: round; stroke-linecap: butt}</style>
 </defs>
 <g id="figure_1">
  <g id="patch_1">
   <path d="M 0 864 
L 1296 864 
L 1296 0 
L 0 0 
z
" style="fill: #ffffff"/>
  </g>
  <g id="axes_1">
   <g id="patch_2">
    <path d="M 162 768.96 
L 1166.4 768.96 
L 1166.4 103.68 
L 162 103.68 
z
" style="fill: #ffffff"/>
   </g>
   <g id="matplotlib.axis_1">
    <g id="xtick_1">
     <g id="line2d_1">
      <defs>
       <path id="m5bbf8ac9c3" d="M 0 0 
L 0 3.5 
" style="stroke: #000000; stroke-width: 0.8"/>
      </defs>
      <g>
       <use xlink:href="#m5bbf8ac9c3" x="207.654545" y="768.96" style="stroke: #000000; stroke-width: 0.8"/>
      </g>
     </g>
     <g id="text_1">
      <!-- 0 -->
      <g transform="translate(204.473295 783.558437) scale(0.1 -0.1)">
       <defs>
        <path id="DejaVuSans-30" d="M 2034 4250 
Q 1547 4250 1301 3770 
Q 1056 3291 1056 2328 
Q 1056 1369 1301 889 
Q 1547 409 2034 409 
Q 2525 409 2770 889 
Q 3016 1369 3016 2328 
Q 3016 3291 2770 3770 
Q 2525 4250 2034 4250 
z
M 2034 4750 
Q 2819 4750 3233 4129 
Q 3647 3509 3647 2328 
Q 3647 1150 3233 529 
Q 2819 -91 2034 -91 
Q 1250 -91 836 529 
Q 422 1150 422 2328 
Q 422 3509 836 4129 
Q 1250 4750 2034 4750 
z
" transform="scale(0.015625)"/>
       </defs>
       <use xlink:href="#DejaVuSans-30"/>
      </g>
     </g>
    </g>
    <g id="xtick_2">
     <g id="line2d_2">
      <g>
       <use xlink:href="#m5bbf8ac9c3" x="390.638696" y="768.96" style="stroke: #000000; stroke-width: 0.8"/>
      </g>
     </g>
     <g id="text_2">
      <!-- 100 -->
      <g transform="translate(381.094946 783.558437) scale(0.1 -0.1)">
       <defs>
        <path id="DejaVuSans-31" d="M 794 531 
L 1825 531 
L 1825 4091 
L 703 3866 
L 703 4441 
L 1819 4666 
L 2450 4666 
L 2450 531 
L 3481 531 
L 3481 0 
L 794 0 
L 794 531 
z
" transform="scale(0.015625)"/>
       </defs>
       <use xlink:href="#DejaVuSans-31"/>
       <use xlink:href="#DejaVuSans-30" x="63.623047"/>
       <use xlink:href="#DejaVuSans-30" x="127.246094"/>
      </g>
     </g>
    </g>
    <g id="xtick_3">
     <g id="line2d_3">
      <g>
       <use xlink:href="#m5bbf8ac9c3" x="573.622846" y="768.96" style="stroke: #000000; stroke-width: 0.8"/>
      </g>
     </g>
     <g id="text_3">
      <!-- 200 -->
      <g transform="translate(564.079096 783.558437) scale(0.1 -0.1)">
       <defs>
        <path id="DejaVuSans-32" d="M 1228 531 
L 3431 531 
L 3431 0 
L 469 0 
L 469 531 
Q 828 903 1448 1529 
Q 2069 2156 2228 2338 
Q 2531 2678 2651 2914 
Q 2772 3150 2772 3378 
Q 2772 3750 2511 3984 
Q 2250 4219 1831 4219 
Q 1534 4219 1204 4116 
Q 875 4013 500 3803 
L 500 4441 
Q 881 4594 1212 4672 
Q 1544 4750 1819 4750 
Q 2544 4750 2975 4387 
Q 3406 4025 3406 3419 
Q 3406 3131 3298 2873 
Q 3191 2616 2906 2266 
Q 2828 2175 2409 1742 
Q 1991 1309 1228 531 
z
" transform="scale(0.015625)"/>
       </defs>
       <use xlink:href="#DejaVuSans-32"/>
       <use xlink:href="#DejaVuSans-30" x="63.623047"/>
       <use xlink:href="#DejaVuSans-30" x="127.246094"/>
      </g>
     </g>
    </g>
    <g id="xtick_4">
     <g id="line2d_4">
      <g>
       <use xlink:href="#m5bbf8ac9c3" x="756.606996" y="768.96" style="stroke: #000000; stroke-width: 0.8"/>
      </g>
     </g>
     <g id="text_4">
      <!-- 300 -->
      <g transform="translate(747.063246 783.558437) scale(0.1 -0.1)">
       <defs>
        <path id="DejaVuSans-33" d="M 2597 2516 
Q 3050 2419 3304 2112 
Q 3559 1806 3559 1356 
Q 3559 666 3084 287 
Q 2609 -91 1734 -91 
Q 1441 -91 1130 -33 
Q 819 25 488 141 
L 488 750 
Q 750 597 1062 519 
Q 1375 441 1716 441 
Q 2309 441 2620 675 
Q 2931 909 2931 1356 
Q 2931 1769 2642 2001 
Q 2353 2234 1838 2234 
L 1294 2234 
L 1294 2753 
L 1863 2753 
Q 2328 2753 2575 2939 
Q 2822 3125 2822 3475 
Q 2822 3834 2567 4026 
Q 2313 4219 1838 4219 
Q 1578 4219 1281 4162 
Q 984 4106 628 3988 
L 628 4550 
Q 988 4650 1302 4700 
Q 1616 4750 1894 4750 
Q 2613 4750 3031 4423 
Q 3450 4097 3450 3541 
Q 3450 3153 3228 2886 
Q 3006 2619 2597 2516 
z
" transform="scale(0.015625)"/>
       </defs>
       <use xlink:href="#DejaVuSans-33"/>
       <use xlink:href="#DejaVuSans-30" x="63.623047"/>
       <use xlink:href="#DejaVuSans-30" x="127.246094"/>
      </g>
     </g>
    </g>
    <g id="xtick_5">
     <g id="line2d_5">
      <g>
       <use xlink:href="#m5bbf8ac9c3" x="939.591146" y="768.96" style="stroke: #000000; stroke-width: 0.8"/>
      </g>
     </g>
     <g id="text_5">
      <!-- 400 -->
      <g transform="translate(930.047396 783.558437) scale(0.1 -0.1)">
       <defs>
        <path id="DejaVuSans-34" d="M 2419 4116 
L 825 1625 
L 2419 1625 
L 2419 4116 
z
M 2253 4666 
L 3047 4666 
L 3047 1625 
L 3713 1625 
L 3713 1100 
L 3047 1100 
L 3047 0 
L 2419 0 
L 2419 1100 
L 313 1100 
L 313 1709 
L 2253 4666 
z
" transform="scale(0.015625)"/>
       </defs>
       <use xlink:href="#DejaVuSans-34"/>
       <use xlink:href="#DejaVuSans-30" x="63.623047"/>
       <use xlink:href="#DejaVuSans-30" x="127.246094"/>
      </g>
     </g>
    </g>
    <g id="xtick_6">
     <g id="line2d_6">
      <g>
       <use xlink:href="#m5bbf8ac9c3" x="1122.575296" y="768.96" style="stroke: #000000; stroke-width: 0.8"/>
      </g>
     </g>
     <g id="text_6">
      <!-- 500 -->
      <g transform="translate(1113.031546 783.558437) scale(0.1 -0.1)">
       <defs>
        <path id="DejaVuSans-35" d="M 691 4666 
L 3169 4666 
L 3169 4134 
L 1269 4134 
L 1269 2991 
Q 1406 3038 1543 3061 
Q 1681 3084 1819 3084 
Q 2600 3084 3056 2656 
Q 3513 2228 3513 1497 
Q 3513 744 3044 326 
Q 2575 -91 1722 -91 
Q 1428 -91 1123 -41 
Q 819 9 494 109 
L 494 744 
Q 775 591 1075 516 
Q 1375 441 1709 441 
Q 2250 441 2565 725 
Q 2881 1009 2881 1497 
Q 2881 1984 2565 2268 
Q 2250 2553 1709 2553 
Q 1456 2553 1204 2497 
Q 953 2441 691 2322 
L 691 4666 
z
" transform="scale(0.015625)"/>
       </defs>
       <use xlink:href="#DejaVuSans-35"/>
       <use xlink:href="#DejaVuSans-30" x="63.623047"/>
       <use xlink:href="#DejaVuSans-30" x="127.246094"/>
      </g>
     </g>
    </g>
   </g>
   <g id="matplotlib.axis_2">
    <g id="ytick_1">
     <g id="line2d_7">
      <defs>
       <path id="m805030e2e8" d="M 0 0 
L -3.5 0 
" style="stroke: #000000; stroke-width: 0.8"/>
      </defs>
      <g>
       <use xlink:href="#m805030e2e8" x="162" y="738.72" style="stroke: #000000; stroke-width: 0.8"/>
      </g>
     </g>
     <g id="text_7">
      <!-- 0 -->
      <g transform="translate(148.6375 742.519219) scale(0.1 -0.1)">
       <use xlink:href="#DejaVuSans-30"/>
      </g>
     </g>
    </g>
    <g id="ytick_2">
     <g id="line2d_8">
      <g>
       <use xlink:href="#m805030e2e8" x="162" y="662.437765" style="stroke: #000000; stroke-width: 0.8"/>
      </g>
     </g>
     <g id="text_8">
      <!-- 20 -->
      <g transform="translate(142.275 666.236984) scale(0.1 -0.1)">
       <use xlink:href="#DejaVuSans-32"/>
       <use xlink:href="#DejaVuSans-30" x="63.623047"/>
      </g>
     </g>
    </g>
    <g id="ytick_3">
     <g id="line2d_9">
      <g>
       <use xlink:href="#m805030e2e8" x="162" y="586.155531" style="stroke: #000000; stroke-width: 0.8"/>
      </g>
     </g>
     <g id="text_9">
      <!-- 40 -->
      <g transform="translate(142.275 589.95475) scale(0.1 -0.1)">
       <use xlink:href="#DejaVuSans-34"/>
       <use xlink:href="#DejaVuSans-30" x="63.623047"/>
      </g>
     </g>
    </g>
    <g id="ytick_4">
     <g id="line2d_10">
      <g>
       <use xlink:href="#m805030e2e8" x="162" y="509.873296" style="stroke: #000000; stroke-width: 0.8"/>
      </g>
     </g>
     <g id="text_10">
      <!-- 60 -->
      <g transform="translate(142.275 513.672515) scale(0.1 -0.1)">
       <defs>
        <path id="DejaVuSans-36" d="M 2113 2584 
Q 1688 2584 1439 2293 
Q 1191 2003 1191 1497 
Q 1191 994 1439 701 
Q 1688 409 2113 409 
Q 2538 409 2786 701 
Q 3034 994 3034 1497 
Q 3034 2003 2786 2293 
Q 2538 2584 2113 2584 
z
M 3366 4563 
L 3366 3988 
Q 3128 4100 2886 4159 
Q 2644 4219 2406 4219 
Q 1781 4219 1451 3797 
Q 1122 3375 1075 2522 
Q 1259 2794 1537 2939 
Q 1816 3084 2150 3084 
Q 2853 3084 3261 2657 
Q 3669 2231 3669 1497 
Q 3669 778 3244 343 
Q 2819 -91 2113 -91 
Q 1303 -91 875 529 
Q 447 1150 447 2328 
Q 447 3434 972 4092 
Q 1497 4750 2381 4750 
Q 2619 4750 2861 4703 
Q 3103 4656 3366 4563 
z
" transform="scale(0.015625)"/>
       </defs>
       <use xlink:href="#DejaVuSans-36"/>
       <use xlink:href="#DejaVuSans-30" x="63.623047"/>
      </g>
     </g>
    </g>
    <g id="ytick_5">
     <g id="line2d_11">
      <g>
       <use xlink:href="#m805030e2e8" x="162" y="433.591062" style="stroke: #000000; stroke-width: 0.8"/>
      </g>
     </g>
     <g id="text_11">
      <!-- 80 -->
      <g transform="translate(142.275 437.39028) scale(0.1 -0.1)">
       <defs>
        <path id="DejaVuSans-38" d="M 2034 2216 
Q 1584 2216 1326 1975 
Q 1069 1734 1069 1313 
Q 1069 891 1326 650 
Q 1584 409 2034 409 
Q 2484 409 2743 651 
Q 3003 894 3003 1313 
Q 3003 1734 2745 1975 
Q 2488 2216 2034 2216 
z
M 1403 2484 
Q 997 2584 770 2862 
Q 544 3141 544 3541 
Q 544 4100 942 4425 
Q 1341 4750 2034 4750 
Q 2731 4750 3128 4425 
Q 3525 4100 3525 3541 
Q 3525 3141 3298 2862 
Q 3072 2584 2669 2484 
Q 3125 2378 3379 2068 
Q 3634 1759 3634 1313 
Q 3634 634 3220 271 
Q 2806 -91 2034 -91 
Q 1263 -91 848 271 
Q 434 634 434 1313 
Q 434 1759 690 2068 
Q 947 2378 1403 2484 
z
M 1172 3481 
Q 1172 3119 1398 2916 
Q 1625 2713 2034 2713 
Q 2441 2713 2670 2916 
Q 2900 3119 2900 3481 
Q 2900 3844 2670 4047 
Q 2441 4250 2034 4250 
Q 1625 4250 1398 4047 
Q 1172 3844 1172 3481 
z
" transform="scale(0.015625)"/>
       </defs>
       <use xlink:href="#DejaVuSans-38"/>
       <use xlink:href="#DejaVuSans-30" x="63.623047"/>
      </g>
     </g>
    </g>
    <g id="ytick_6">
     <g id="line2d_12">
      <g>
       <use xlink:href="#m805030e2e8" x="162" y="357.308827" style="stroke: #000000; stroke-width: 0.8"/>
      </g>
     </g>
     <g id="text_12">
      <!-- 100 -->
      <g transform="translate(135.9125 361.108046) scale(0.1 -0.1)">
       <use xlink:href="#DejaVuSans-31"/>
       <use xlink:href="#DejaVuSans-30" x="63.623047"/>
       <use xlink:href="#DejaVuSans-30" x="127.246094"/>
      </g>
     </g>
    </g>
    <g id="ytick_7">
     <g id="line2d_13">
      <g>
       <use xlink:href="#m805030e2e8" x="162" y="281.026593" style="stroke: #000000; stroke-width: 0.8"/>
      </g>
     </g>
     <g id="text_13">
      <!-- 120 -->
      <g transform="translate(135.9125 284.825811) scale(0.1 -0.1)">
       <use xlink:href="#DejaVuSans-31"/>
       <use xlink:href="#DejaVuSans-32" x="63.623047"/>
       <use xlink:href="#DejaVuSans-30" x="127.246094"/>
      </g>
     </g>
    </g>
    <g id="ytick_8">
     <g id="line2d_14">
      <g>
       <use xlink:href="#m805030e2e8" x="162" y="204.744358" style="stroke: #000000; stroke-width: 0.8"/>
      </g>
     </g>
     <g id="text_14">
      <!-- 140 -->
      <g transform="translate(135.9125 208.543577) scale(0.1 -0.1)">
       <use xlink:href="#DejaVuSans-31"/>
       <use xlink:href="#DejaVuSans-34" x="63.623047"/>
       <use xlink:href="#DejaVuSans-30" x="127.246094"/>
      </g>
     </g>
    </g>
    <g id="ytick_9">
     <g id="line2d_15">
      <g>
       <use xlink:href="#m805030e2e8" x="162" y="128.462123" style="stroke: #000000; stroke-width: 0.8"/>
      </g>
     </g>
     <g id="text_15">
      <!-- 160 -->
      <g transform="translate(135.9125 132.261342) scale(0.1 -0.1)">
       <use xlink:href="#DejaVuSans-31"/>
       <use xlink:href="#DejaVuSans-36" x="63.623047"/>
       <use xlink:href="#DejaVuSans-30" x="127.246094"/>
      </g>
     </g>
    </g>
   </g>
   <g id="line2d_16">
    <path d="M 207.654545 719.649441 
L 209.484387 662.437765 
L 211.314228 658.623654 
L 213.14407 712.021218 
L 214.973911 670.065989 
L 216.803753 708.207106 
L 218.633594 696.764771 
L 220.463436 620.482536 
L 222.293277 654.809542 
L 224.123119 673.880101 
L 225.95296 620.482536 
L 227.782802 719.649441 
L 229.612643 738.72 
L 231.442485 673.880101 
L 233.272326 704.392994 
L 235.102168 639.553095 
L 236.932009 647.181319 
L 238.761851 612.854313 
L 240.591692 235.257252 
L 242.421534 155.160906 
L 244.251375 326.795933 
L 246.081217 307.725375 
L 247.911058 380.193498 
L 249.7409 143.71857 
L 257.060266 143.71857 
L 258.890107 277.212481 
L 260.719949 513.687408 
L 262.54979 143.71857 
L 264.379632 284.840704 
L 266.209473 185.673799 
L 268.039315 300.097151 
L 269.869156 143.71857 
L 271.698998 418.334615 
L 273.528839 403.078168 
L 275.358681 384.007609 
L 277.188522 372.565274 
L 279.018364 410.706391 
L 280.848206 288.654816 
L 282.678047 246.699587 
L 284.507889 265.770146 
L 286.33773 158.975017 
L 288.167572 143.71857 
L 289.997413 143.71857 
L 291.827255 288.654816 
L 293.657096 143.71857 
L 295.486938 425.962838 
L 297.316779 200.930246 
L 299.146621 277.212481 
L 300.976462 223.814917 
L 302.806304 250.513699 
L 304.636145 250.513699 
L 306.465987 143.71857 
L 308.295828 204.744358 
L 310.12567 143.71857 
L 311.955511 200.930246 
L 313.785353 143.71857 
L 319.274877 143.71857 
L 321.104719 170.417352 
L 322.93456 181.859688 
L 324.764402 391.635833 
L 326.594243 239.071364 
L 328.424085 284.840704 
L 330.253926 368.751162 
L 332.083768 155.160906 
L 333.913609 269.584257 
L 335.743451 239.071364 
L 337.573292 368.751162 
L 339.403134 357.308827 
L 341.232975 326.795933 
L 343.062817 143.71857 
L 344.892658 456.475732 
L 346.7225 204.744358 
L 348.552341 143.71857 
L 350.382183 231.44314 
L 352.212024 143.71857 
L 354.041866 216.186693 
L 355.871707 467.918067 
L 357.701549 498.430961 
L 359.53139 242.885475 
L 361.361232 456.475732 
L 363.191073 441.219285 
L 365.020915 281.026593 
L 366.850756 368.751162 
L 368.680598 498.430961 
L 370.510439 429.77695 
L 372.340281 464.103956 
L 374.170122 364.937051 
L 375.999964 498.430961 
L 377.829805 300.097151 
L 379.659647 143.71857 
L 381.489488 368.751162 
L 383.31933 452.66162 
L 385.149171 433.591062 
L 386.979013 265.770146 
L 388.808854 410.706391 
L 390.638696 395.449944 
L 392.468537 345.866492 
L 394.298379 334.424157 
L 396.12822 445.033397 
L 397.958062 471.732179 
L 399.787903 456.475732 
L 401.617745 364.937051 
L 403.447586 364.937051 
L 405.277428 517.50152 
L 407.107269 490.802738 
L 408.937111 460.289844 
L 410.766952 654.809542 
L 412.596794 479.360402 
L 414.426635 650.99543 
L 416.256477 513.687408 
L 418.086318 673.880101 
L 419.91616 448.847509 
L 421.746001 448.847509 
L 423.575843 628.11076 
L 425.405684 631.924872 
L 427.235526 616.668425 
L 429.065367 349.680604 
L 430.895209 464.103956 
L 432.72505 361.122939 
L 434.554892 361.122939 
L 436.384733 414.520503 
L 438.214575 292.468928 
L 440.044416 483.174514 
L 441.874258 357.308827 
L 443.704099 551.828525 
L 445.533941 387.821721 
L 447.363782 494.616849 
L 449.193624 631.924872 
L 451.023465 681.508324 
L 452.853307 448.847509 
L 454.683148 639.553095 
L 456.51299 479.360402 
L 458.342831 273.398369 
L 460.172673 574.713196 
L 462.002514 536.572078 
L 463.832356 528.943855 
L 465.662197 536.572078 
L 467.492039 567.084972 
L 469.32188 532.757967 
L 471.151722 437.405173 
L 472.981563 532.757967 
L 474.811405 486.988626 
L 476.641246 521.315631 
L 478.471088 643.367207 
L 480.300929 586.155531 
L 482.130771 570.899084 
L 483.960612 277.212481 
L 485.790454 506.059185 
L 487.620295 479.360402 
L 489.450137 250.513699 
L 491.279978 471.732179 
L 493.10982 666.251877 
L 494.939661 574.713196 
L 496.769503 429.77695 
L 498.599344 494.616849 
L 500.429186 517.50152 
L 502.259027 452.66162 
L 504.088869 574.713196 
L 505.91871 437.405173 
L 507.748552 364.937051 
L 509.578393 528.943855 
L 511.408235 143.71857 
L 513.238076 429.77695 
L 515.067918 551.828525 
L 516.897759 513.687408 
L 518.727601 555.642637 
L 520.557442 548.014414 
L 522.387284 384.007609 
L 524.217125 231.44314 
L 526.046967 143.71857 
L 527.876808 368.751162 
L 529.70665 422.148727 
L 531.536491 467.918067 
L 533.366333 666.251877 
L 535.196174 425.962838 
L 537.026016 406.89228 
L 538.855857 528.943855 
L 540.685699 658.623654 
L 542.51554 639.553095 
L 544.345382 689.136548 
L 546.175223 609.040201 
L 548.005065 650.99543 
L 549.834906 647.181319 
L 551.664748 708.207106 
L 553.494589 738.72 
L 555.324431 738.72 
L 557.154272 719.649441 
L 558.984114 738.72 
L 560.813955 708.207106 
L 562.643797 723.463553 
L 564.473638 681.508324 
L 566.30348 681.508324 
L 568.133321 692.950659 
L 569.963163 715.83533 
L 571.793004 731.091777 
L 573.622846 650.99543 
L 575.452687 673.880101 
L 577.282529 719.649441 
L 579.11237 719.649441 
L 580.942212 650.99543 
L 582.772053 704.392994 
L 584.601895 685.322436 
L 586.431736 689.136548 
L 588.261578 624.296648 
L 590.091419 704.392994 
L 591.921261 364.937051 
L 593.751102 143.71857 
L 595.580944 410.706391 
L 597.410785 364.937051 
L 599.240627 197.116135 
L 601.070468 330.610045 
L 602.90031 372.565274 
L 604.730151 220.000805 
L 606.559993 143.71857 
L 608.389834 551.828525 
L 610.219676 143.71857 
L 612.049517 143.71857 
L 613.879359 216.186693 
L 615.7092 158.975017 
L 617.539042 380.193498 
L 619.368883 441.219285 
L 621.198725 494.616849 
L 623.028566 334.424157 
L 624.858408 277.212481 
L 626.688249 345.866492 
L 628.518091 143.71857 
L 630.347932 425.962838 
L 632.177774 193.302023 
L 634.007615 151.346794 
L 635.837457 448.847509 
L 637.667298 300.097151 
L 639.49714 296.283039 
L 641.326981 143.71857 
L 643.156823 509.873296 
L 644.986664 334.424157 
L 646.816506 143.71857 
L 648.646347 204.744358 
L 650.476189 536.572078 
L 654.135872 143.71857 
L 655.965713 189.487911 
L 657.795555 242.885475 
L 659.625396 143.71857 
L 661.455238 498.430961 
L 663.285079 143.71857 
L 668.774604 143.71857 
L 670.604445 193.302023 
L 672.434287 303.911263 
L 674.264128 143.71857 
L 676.09397 208.55847 
L 677.923811 311.539486 
L 679.753653 483.174514 
L 681.583494 437.405173 
L 683.413336 353.494715 
L 685.243177 143.71857 
L 687.073019 414.520503 
L 688.90286 284.840704 
L 690.732702 525.129743 
L 692.562543 429.77695 
L 694.392385 353.494715 
L 696.222226 181.859688 
L 698.052068 254.32781 
L 699.881909 269.584257 
L 701.711751 143.71857 
L 703.541592 143.71857 
L 705.371434 216.186693 
L 707.201275 246.699587 
L 709.031117 460.289844 
L 710.860958 593.783754 
L 712.6908 448.847509 
L 714.520641 631.924872 
L 716.350483 738.72 
L 718.180324 650.99543 
L 720.010166 631.924872 
L 721.840007 681.508324 
L 723.669849 681.508324 
L 725.49969 689.136548 
L 727.329532 639.553095 
L 729.159373 631.924872 
L 730.989215 692.950659 
L 732.819056 670.065989 
L 734.648898 727.277665 
L 736.478739 380.193498 
L 738.308581 532.757967 
L 740.138422 658.623654 
L 741.968264 723.463553 
L 743.798105 681.508324 
L 745.627947 692.950659 
L 747.457788 738.72 
L 749.28763 719.649441 
L 751.117471 540.38619 
L 752.947313 738.72 
L 754.777154 708.207106 
L 756.606996 704.392994 
L 758.436837 662.437765 
L 762.09652 670.065989 
L 763.926362 437.405173 
L 765.756203 658.623654 
L 767.586045 269.584257 
L 769.415886 303.911263 
L 771.245728 399.264056 
L 773.075569 185.673799 
L 774.905411 220.000805 
L 776.735252 143.71857 
L 778.565094 300.097151 
L 780.394935 208.55847 
L 782.224777 155.160906 
L 784.054618 296.283039 
L 785.88446 384.007609 
L 787.714301 143.71857 
L 789.544143 143.71857 
L 791.373984 338.238269 
L 793.203826 143.71857 
L 796.863509 143.71857 
L 798.69335 147.532682 
L 800.523192 265.770146 
L 802.353033 143.71857 
L 804.182875 143.71857 
L 806.012716 319.16771 
L 807.842558 143.71857 
L 809.672399 242.885475 
L 811.502241 143.71857 
L 813.332082 204.744358 
L 815.161924 143.71857 
L 822.48129 143.71857 
L 824.311131 181.859688 
L 826.140973 303.911263 
L 827.970814 189.487911 
L 829.800656 361.122939 
L 831.630497 143.71857 
L 838.949863 143.71857 
L 840.779705 315.353598 
L 842.609546 143.71857 
L 844.439388 143.71857 
L 848.099071 307.725375 
L 851.758754 143.71857 
L 853.588595 151.346794 
L 855.418437 197.116135 
L 857.248278 486.988626 
L 859.07812 292.468928 
L 860.907961 143.71857 
L 862.737803 155.160906 
L 864.567644 513.687408 
L 866.397486 452.66162 
L 868.227327 364.937051 
L 870.057169 452.66162 
L 871.88701 307.725375 
L 873.716852 601.411978 
L 875.546693 143.71857 
L 879.206376 143.71857 
L 881.036218 418.334615 
L 882.866059 410.706391 
L 884.695901 540.38619 
L 886.525742 643.367207 
L 888.355584 635.738983 
L 890.185425 647.181319 
L 892.015267 460.289844 
L 893.845108 525.129743 
L 895.67495 555.642637 
L 897.504791 639.553095 
L 899.334633 666.251877 
L 901.164474 631.924872 
L 902.994316 471.732179 
L 904.824157 662.437765 
L 906.653999 670.065989 
L 908.48384 685.322436 
L 910.313682 631.924872 
L 912.143523 700.578883 
L 913.973365 692.950659 
L 915.803206 647.181319 
L 917.633048 704.392994 
L 919.462889 567.084972 
L 921.292731 662.437765 
L 923.122572 631.924872 
L 924.952414 620.482536 
L 926.782255 670.065989 
L 928.612097 685.322436 
L 930.441938 708.207106 
L 932.27178 639.553095 
L 934.101621 719.649441 
L 935.931463 616.668425 
L 937.761304 738.72 
L 939.591146 570.899084 
L 941.420987 513.687408 
L 943.250829 292.468928 
L 945.08067 216.186693 
L 946.910512 342.05238 
L 948.740353 277.212481 
L 950.570195 174.231464 
L 952.400036 143.71857 
L 954.229878 143.71857 
L 956.059719 319.16771 
L 957.889561 143.71857 
L 959.719402 185.673799 
L 961.549244 143.71857 
L 965.208927 143.71857 
L 967.038768 254.32781 
L 968.86861 143.71857 
L 970.698451 143.71857 
L 972.528293 239.071364 
L 974.358134 143.71857 
L 976.187976 143.71857 
L 978.017817 292.468928 
L 979.847659 384.007609 
L 981.6775 143.71857 
L 983.507342 437.405173 
L 985.337183 448.847509 
L 987.167025 197.116135 
L 988.996866 143.71857 
L 990.826708 349.680604 
L 992.656549 143.71857 
L 994.486391 143.71857 
L 996.316232 391.635833 
L 998.146074 143.71857 
L 999.975915 162.789129 
L 1001.805757 143.71857 
L 1003.635598 143.71857 
L 1005.46544 212.372581 
L 1007.295281 204.744358 
L 1009.125123 322.981822 
L 1010.954964 143.71857 
L 1012.784806 155.160906 
L 1014.614647 231.44314 
L 1016.444489 242.885475 
L 1018.27433 143.71857 
L 1027.423538 143.71857 
L 1029.253379 227.629028 
L 1031.083221 143.71857 
L 1032.913062 288.654816 
L 1034.742904 178.045576 
L 1036.572745 181.859688 
L 1038.402587 384.007609 
L 1040.232428 273.398369 
L 1042.06227 143.71857 
L 1043.892111 223.814917 
L 1045.721953 143.71857 
L 1047.551794 197.116135 
L 1049.381636 143.71857 
L 1054.871161 143.71857 
L 1056.701002 200.930246 
L 1058.530844 143.71857 
L 1060.360685 143.71857 
L 1062.190527 292.468928 
L 1064.020368 143.71857 
L 1065.85021 250.513699 
L 1067.680051 143.71857 
L 1069.509893 342.05238 
L 1071.339734 143.71857 
L 1073.169576 300.097151 
L 1074.999417 223.814917 
L 1076.829259 319.16771 
L 1078.6591 334.424157 
L 1080.488942 433.591062 
L 1082.318783 258.141922 
L 1084.148625 486.988626 
L 1085.978466 315.353598 
L 1087.808308 471.732179 
L 1089.638149 143.71857 
L 1091.467991 143.71857 
L 1093.297832 445.033397 
L 1095.127674 406.89228 
L 1096.957515 410.706391 
L 1100.617198 277.212481 
L 1102.44704 498.430961 
L 1104.276881 609.040201 
L 1106.106723 517.50152 
L 1107.936564 601.411978 
L 1109.766406 643.367207 
L 1111.596247 403.078168 
L 1113.426089 609.040201 
L 1115.25593 589.969643 
L 1117.085772 513.687408 
L 1118.915613 609.040201 
L 1120.745455 555.642637 
L 1120.745455 555.642637 
" clip-path="url(#pab149cd190)" style="fill: none; stroke: #4169e1; stroke-linecap: square"/>
   </g>
   <g id="line2d_17">
    <path d="M 207.654545 660.344015 
L 209.484387 668.583442 
L 211.314228 667.296915 
L 213.14407 668.481863 
L 214.973911 676.454645 
L 216.803753 672.182466 
L 218.633594 685.881671 
L 220.463436 687.845041 
L 222.293277 679.754778 
L 224.123119 663.043505 
L 225.95296 651.602938 
L 227.782802 636.630362 
L 229.612643 656.775008 
L 231.442485 663.165693 
L 233.272326 650.699919 
L 235.102168 646.945024 
L 236.932009 592.148632 
L 238.761851 565.556426 
L 240.591692 510.040836 
L 242.421534 267.376663 
L 244.251375 158.783485 
L 246.081217 253.439261 
L 247.911058 233.196377 
L 249.7409 301.614043 
L 251.570741 213.756722 
L 253.400583 167.685446 
L 255.230424 163.741435 
L 257.060266 155.181973 
L 258.890107 155.543562 
L 260.719949 207.330011 
L 262.54979 335.94454 
L 264.379632 236.871976 
L 266.209473 234.400334 
L 268.039315 205.631598 
L 269.869156 242.796198 
L 271.698998 190.451042 
L 273.528839 301.224839 
L 275.358681 322.047732 
L 277.188522 335.115907 
L 279.018364 341.336245 
L 280.848206 360.696342 
L 282.678047 301.537861 
L 284.507889 258.174135 
L 286.33773 244.884136 
L 288.167572 196.165284 
L 289.997413 173.031639 
L 291.827255 166.28309 
L 293.657096 235.62757 
L 295.486938 193.100248 
L 297.316779 309.150254 
L 299.146621 235.262257 
L 300.976462 226.600133 
L 302.806304 220.89724 
L 304.636145 218.02426 
L 306.465987 225.865898 
L 308.295828 200.097772 
L 310.12567 205.317208 
L 311.955511 190.760775 
L 313.785353 198.632793 
L 315.615194 185.433788 
L 317.445036 179.950769 
L 319.274877 178.673075 
L 321.104719 177.944601 
L 322.93456 188.505633 
L 324.764402 196.107725 
L 326.594243 292.451701 
L 328.424085 262.615367 
L 330.253926 282.16496 
L 332.083768 326.125862 
L 333.913609 245.987118 
L 335.743451 255.25544 
L 337.573292 247.422066 
L 339.403134 309.769256 
L 341.232975 330.451977 
L 343.062817 338.59555 
L 344.892658 271.724516 
L 346.7225 357.04251 
L 348.552341 276.233404 
L 350.382183 236.4686 
L 352.212024 255.507499 
L 354.041866 207.83279 
L 355.871707 222.687316 
L 357.701549 344.255493 
L 359.53139 392.862953 
L 361.361232 328.034228 
L 363.191073 409.311426 
L 365.020915 383.273141 
L 366.850756 327.212985 
L 368.680598 364.910599 
L 370.510439 417.739649 
L 372.340281 413.302433 
L 374.170122 436.387045 
L 375.999964 388.122056 
L 377.829805 431.706471 
L 379.659647 341.368225 
L 381.489488 236.198442 
L 383.31933 314.548652 
L 385.149171 362.495672 
L 386.979013 394.724032 
L 388.808854 325.285123 
L 390.638696 372.828652 
L 392.468537 361.319621 
L 394.298379 334.523386 
L 396.12822 343.486862 
L 397.958062 394.060915 
L 399.787903 423.419932 
L 401.617745 437.151107 
L 403.447586 379.61733 
L 405.277428 359.087177 
L 407.107269 414.254419 
L 408.937111 418.376634 
L 410.766952 415.089017 
L 412.596794 472.232164 
L 414.426635 419.497775 
L 416.256477 482.728712 
L 418.086318 410.028522 
L 419.91616 517.901549 
L 421.746001 441.441779 
L 423.575843 467.302092 
L 425.405684 554.039306 
L 427.235526 575.489159 
L 429.065367 616.603286 
L 430.895209 511.35943 
L 432.72505 440.262091 
L 434.554892 360.347615 
L 436.384733 315.191573 
L 438.214575 338.59363 
L 440.044416 286.429821 
L 441.874258 373.822308 
L 443.704099 335.439375 
L 445.533941 420.266929 
L 447.363782 363.539495 
L 449.193624 411.112415 
L 451.023465 478.286869 
L 452.853307 571.503696 
L 454.683148 494.80553 
L 456.51299 512.230141 
L 458.342831 439.563357 
L 460.172673 293.068084 
L 462.002514 398.083902 
L 463.832356 430.716307 
L 465.662197 435.2176 
L 467.492039 398.473834 
L 469.32188 420.548378 
L 471.151722 410.35103 
L 472.981563 348.825897 
L 474.811405 379.828941 
L 476.641246 366.156983 
L 478.471088 430.186378 
L 480.300929 542.788895 
L 482.130771 584.955502 
L 483.960612 609.456177 
L 485.790454 529.487169 
L 487.620295 494.633974 
L 489.450137 464.324732 
L 491.279978 341.810477 
L 493.10982 421.688346 
L 494.939661 487.32484 
L 496.769503 533.153223 
L 498.599344 529.990443 
L 500.429186 533.087124 
L 502.259027 500.359696 
L 504.088869 463.72901 
L 505.91871 504.662735 
L 507.748552 477.428845 
L 509.578393 421.826247 
L 511.408235 474.1263 
L 513.238076 326.551615 
L 516.897759 439.155617 
L 518.727601 457.247302 
L 520.557442 502.370928 
L 522.387284 520.528596 
L 524.217125 456.886615 
L 526.046967 360.418734 
L 527.876808 296.864998 
L 529.70665 320.084398 
L 531.536491 358.575057 
L 533.366333 415.543084 
L 535.196174 503.086306 
L 537.026016 478.935988 
L 538.855857 459.468602 
L 540.685699 502.970113 
L 542.51554 541.631905 
L 544.345382 624.302155 
L 546.175223 670.048857 
L 548.005065 678.774326 
L 549.834906 677.340539 
L 551.664748 674.759883 
L 553.494589 673.974688 
L 555.324431 680.296216 
L 557.154272 687.683304 
L 558.984114 694.270148 
L 560.813955 694.271003 
L 562.643797 691.375638 
L 564.473638 690.304723 
L 566.30348 686.481402 
L 568.133321 680.338017 
L 569.963163 683.098019 
L 571.793004 686.259643 
L 573.622846 690.553315 
L 575.452687 682.943985 
L 577.282529 666.635174 
L 579.11237 674.220541 
L 580.942212 674.087332 
L 582.772053 652.969902 
L 584.601895 624.662376 
L 586.431736 614.044913 
L 588.261578 612.433303 
L 590.091419 542.177169 
L 591.921261 576.349569 
L 593.751102 376.029582 
L 595.580944 208.505625 
L 597.410785 333.915995 
L 599.240627 290.328379 
L 601.070468 235.269765 
L 602.90031 285.705566 
L 604.730151 306.405369 
L 608.389834 192.407508 
L 610.219676 347.114273 
L 612.049517 232.253383 
L 613.879359 169.428672 
L 615.7092 214.302975 
L 617.539042 184.995668 
L 619.368883 288.051266 
L 623.028566 410.854624 
L 624.858408 349.364235 
L 626.688249 299.59315 
L 628.518091 321.602163 
L 630.347932 230.203042 
L 632.177774 332.368752 
L 634.007615 258.297546 
L 635.837457 207.868873 
L 637.667298 327.064928 
L 639.49714 287.364026 
L 641.326981 286.349477 
L 643.156823 209.401653 
L 644.986664 348.185711 
L 646.816506 326.091758 
L 648.646347 238.212001 
L 650.476189 213.870675 
L 652.30603 354.322825 
L 654.135872 320.182492 
L 655.965713 248.619447 
L 657.795555 259.57559 
L 659.625396 225.775224 
L 661.455238 200.169822 
L 663.285079 348.139298 
L 665.114921 265.029276 
L 666.944762 210.994377 
L 668.774604 209.237241 
L 670.604445 182.110757 
L 672.434287 193.746487 
L 674.264128 247.804315 
L 676.09397 215.848559 
L 677.923811 222.592802 
L 679.753653 268.864223 
L 681.583494 364.294013 
L 683.413336 393.633068 
L 685.243177 385.287021 
L 687.073019 307.547316 
L 688.90286 366.006219 
L 690.732702 304.073696 
L 692.562543 410.296876 
L 694.392385 430.856245 
L 696.222226 387.726013 
L 698.052068 337.292045 
L 699.881909 290.967197 
L 701.711751 264.899027 
L 703.541592 220.20741 
L 705.371434 207.459911 
L 707.201275 216.920928 
L 709.031117 232.154503 
L 710.860958 327.113262 
L 712.6908 413.424737 
L 714.520641 412.046766 
L 716.350483 497.709471 
L 718.180324 618.020978 
L 720.010166 641.593157 
L 721.840007 674.430617 
L 723.669849 679.441815 
L 725.49969 669.924319 
L 727.329532 673.516846 
L 729.159373 676.553997 
L 730.989215 658.763709 
L 732.819056 656.357548 
L 734.648898 651.867262 
L 736.478739 665.354875 
L 738.308581 599.757126 
L 740.138422 562.864793 
L 741.968264 580.619377 
L 743.798105 626.797731 
L 745.627947 655.399932 
L 747.457788 678.947817 
L 749.28763 684.317577 
L 751.117471 682.141839 
L 752.947313 668.532787 
L 754.777154 671.130698 
L 756.606996 664.201718 
L 758.436837 658.920853 
L 760.266679 622.040509 
L 762.09652 607.408134 
L 763.926362 591.423389 
L 765.756203 455.656818 
L 767.586045 501.172558 
L 769.415886 299.888043 
L 771.245728 245.734769 
L 773.075569 340.166014 
L 774.905411 215.863341 
L 776.735252 204.868089 
L 778.565094 176.712883 
L 780.394935 224.250651 
L 784.054618 176.160345 
L 785.88446 219.817712 
L 787.714301 273.026858 
L 789.544143 205.279204 
L 791.373984 178.050406 
L 793.203826 255.073976 
L 795.033667 193.531675 
L 796.863509 176.166164 
L 800.523192 163.839849 
L 802.353033 205.482027 
L 804.182875 176.599978 
L 806.012716 174.982461 
L 807.842558 247.220407 
L 809.672399 196.770842 
L 811.502241 221.38512 
L 813.332082 187.190458 
L 815.161924 195.468994 
L 816.991765 178.817989 
L 818.821607 173.830417 
L 820.651448 177.060504 
L 822.48129 178.553476 
L 824.311131 180.236409 
L 826.140973 192.608527 
L 827.970814 217.567807 
L 829.800656 197.138308 
L 831.630497 261.864196 
L 833.460339 212.229587 
L 835.29018 190.483109 
L 837.120022 185.982485 
L 838.949863 177.7398 
L 840.779705 178.276683 
L 842.609546 227.884346 
L 844.439388 196.909995 
L 846.269229 185.355336 
L 848.099071 201.915434 
L 849.928912 241.725342 
L 851.758754 230.668166 
L 853.588595 207.485169 
L 855.418437 196.829389 
L 857.248278 198.806109 
L 859.07812 325.132265 
L 860.907961 290.160417 
L 862.737803 242.364829 
L 864.567644 228.520458 
L 866.397486 340.586907 
L 868.227327 369.506989 
L 870.057169 373.388844 
L 871.88701 411.202477 
L 873.716852 346.523992 
L 875.546693 426.592723 
L 877.376535 326.089634 
L 879.206376 257.689805 
L 881.036218 251.122399 
L 882.866059 312.015465 
L 884.695901 350.396972 
L 888.355584 488.481598 
L 890.185425 548.597769 
L 892.015267 595.256037 
L 893.845108 591.005289 
L 895.67495 568.509401 
L 897.504791 543.034334 
L 899.334633 573.477753 
L 901.164474 619.898578 
L 902.994316 643.842996 
L 904.824157 618.674491 
L 906.653999 608.116849 
L 908.48384 620.809795 
L 910.313682 644.556578 
L 912.143523 650.86644 
L 913.973365 651.842185 
L 915.803206 656.08728 
L 917.633048 657.643376 
L 919.462889 669.575854 
L 921.292731 653.237252 
L 923.122572 651.604618 
L 924.952414 636.469748 
L 926.782255 625.991992 
L 928.612097 628.094442 
L 930.441938 635.022542 
L 932.27178 654.711237 
L 934.101621 629.126175 
L 935.931463 632.627861 
L 937.761304 576.367014 
L 939.591146 632.674493 
L 943.250829 480.785456 
L 945.08067 323.428177 
L 946.910512 243.860537 
L 948.740353 293.104632 
L 950.570195 233.107915 
L 952.400036 201.441638 
L 954.229878 179.383914 
L 956.059719 167.91859 
L 957.889561 237.391807 
L 959.719402 181.416912 
L 961.549244 182.627969 
L 963.379085 168.541724 
L 965.208927 162.606269 
L 967.038768 167.019362 
L 968.86861 209.550758 
L 970.698451 184.457213 
L 972.528293 178.082067 
L 974.358134 206.882987 
L 976.187976 179.304705 
L 978.017817 173.24843 
L 979.847659 226.110624 
L 981.6775 297.574877 
L 983.507342 231.434934 
L 985.337183 344.160629 
L 987.167025 379.567396 
L 988.996866 282.153524 
L 990.826708 205.486392 
L 992.656549 281.002673 
L 994.486391 205.587483 
L 996.316232 191.027849 
L 998.146074 302.883182 
L 999.975915 226.217127 
L 1001.805757 197.488141 
L 1003.635598 174.823927 
L 1005.46544 169.530462 
L 1007.295281 188.955218 
L 1009.125123 195.993365 
L 1010.954964 254.059922 
L 1012.784806 215.453913 
L 1014.614647 199.769938 
L 1016.444489 215.812068 
L 1018.27433 215.108795 
L 1020.104172 194.692507 
L 1021.934013 187.087505 
L 1023.763855 183.186735 
L 1025.593696 184.237164 
L 1027.423538 186.049239 
L 1029.253379 186.891433 
L 1031.083221 209.245739 
L 1032.913062 196.749424 
L 1034.742904 237.931076 
L 1036.572745 216.341153 
L 1038.402587 206.289534 
L 1040.232428 302.849078 
L 1042.06227 276.913223 
L 1043.892111 244.495543 
L 1045.721953 252.156591 
L 1047.551794 204.883162 
L 1049.381636 205.200403 
L 1051.211478 196.124195 
L 1053.041319 191.665475 
L 1054.871161 194.939735 
L 1056.701002 194.813444 
L 1058.530844 211.722327 
L 1060.360685 204.40634 
L 1062.190527 185.664895 
L 1064.020368 225.040698 
L 1065.85021 192.040682 
L 1067.680051 207.290669 
L 1069.509893 193.593773 
L 1071.339734 269.256482 
L 1073.169576 214.243089 
L 1074.999417 253.859282 
L 1076.829259 225.282747 
L 1078.6591 256.455381 
L 1080.488942 276.108626 
L 1082.318783 344.207072 
L 1084.148625 298.41806 
L 1085.978466 391.443893 
L 1087.808308 346.293089 
L 1089.638149 407.429861 
L 1091.467991 301.61963 
L 1093.297832 211.141853 
L 1095.127674 327.64645 
L 1096.957515 337.909038 
L 1098.787357 382.724968 
L 1100.617198 374.110334 
L 1102.44704 328.243219 
L 1104.276881 402.847323 
L 1106.106723 449.38381 
L 1107.936564 475.919548 
L 1109.766406 511.203545 
L 1111.596247 509.022562 
L 1113.426089 443.127272 
L 1115.25593 464.422273 
L 1117.085772 473.40289 
L 1118.915613 469.912509 
L 1120.745455 463.543997 
L 1120.745455 463.543997 
" clip-path="url(#pab149cd190)" style="fill: none; stroke: #ff6347; stroke-linecap: square"/>
   </g>
   <g id="line2d_18">
    <path d="M 207.654545 635.942126 
L 209.484387 641.448206 
L 211.314228 658.760479 
L 213.14407 637.634269 
L 214.973911 668.626094 
L 216.803753 664.765263 
L 218.633594 682.580294 
L 220.463436 691.081418 
L 222.293277 660.918924 
L 224.123119 650.206968 
L 225.95296 656.898818 
L 227.782802 611.719292 
L 229.612643 655.072717 
L 231.442485 680.906549 
L 233.272326 642.301908 
L 235.102168 666.095381 
L 236.932009 619.052928 
L 238.761851 591.570224 
L 240.591692 549.11517 
L 242.421534 295.923575 
L 244.251375 275.97666 
L 246.081217 279.153728 
L 247.911058 243.866648 
L 249.7409 319.81229 
L 251.570741 248.243657 
L 253.400583 213.429587 
L 255.230424 201.669952 
L 257.060266 140.993473 
L 258.890107 133.92 
L 260.719949 182.151263 
L 262.54979 342.482294 
L 264.379632 250.158861 
L 266.209473 306.970508 
L 268.039315 280.484093 
L 269.869156 286.979944 
L 271.698998 223.196904 
L 273.528839 334.555162 
L 275.358681 347.512497 
L 277.188522 349.112206 
L 279.018364 388.537478 
L 280.848206 397.870022 
L 282.678047 355.716219 
L 284.507889 329.100807 
L 286.33773 309.603186 
L 288.167572 225.275879 
L 289.997413 193.580038 
L 291.827255 183.499553 
L 293.657096 253.646071 
L 295.486938 213.196617 
L 297.316779 342.127166 
L 299.146621 275.639806 
L 300.976462 268.212659 
L 302.806304 256.394302 
L 304.636145 237.289726 
L 306.465987 276.447837 
L 308.295828 245.671972 
L 310.12567 267.455144 
L 311.955511 241.419682 
L 313.785353 256.425962 
L 315.615194 226.418611 
L 317.445036 208.27446 
L 319.274877 206.323522 
L 321.104719 203.508392 
L 322.93456 238.563521 
L 324.764402 250.886374 
L 326.594243 349.084736 
L 328.424085 329.274559 
L 330.253926 331.694375 
L 332.083768 384.194049 
L 333.913609 294.767341 
L 335.743451 308.644187 
L 337.573292 321.10372 
L 339.403134 346.584431 
L 341.232975 377.554564 
L 343.062817 382.759305 
L 344.892658 321.873485 
L 346.7225 400.78217 
L 348.552341 316.651633 
L 350.382183 267.554926 
L 352.212024 322.766806 
L 354.041866 260.518729 
L 355.871707 279.305045 
L 357.701549 397.248489 
L 359.53139 431.496053 
L 361.361232 361.584979 
L 363.191073 435.550089 
L 365.020915 400.207312 
L 366.850756 367.863312 
L 370.510439 488.826949 
L 372.340281 449.048003 
L 374.170122 472.375304 
L 375.999964 437.464449 
L 377.829805 475.26068 
L 379.659647 394.574112 
L 381.489488 308.950254 
L 383.31933 392.063535 
L 385.149171 406.076042 
L 386.979013 401.379725 
L 388.808854 318.734449 
L 390.638696 381.041598 
L 392.468537 383.222159 
L 394.298379 369.324885 
L 397.958062 427.489013 
L 399.787903 447.452281 
L 401.617745 442.949562 
L 403.447586 423.231688 
L 405.277428 411.168256 
L 407.107269 446.679868 
L 408.937111 421.399447 
L 410.766952 404.537443 
L 412.596794 484.504239 
L 414.426635 364.199906 
L 416.256477 451.943099 
L 418.086318 411.428463 
L 419.91616 526.932856 
L 421.746001 500.933274 
L 423.575843 465.906632 
L 425.405684 524.892976 
L 427.235526 521.274136 
L 429.065367 570.316384 
L 430.895209 479.474705 
L 432.72505 477.535581 
L 434.554892 402.031493 
L 436.384733 356.459271 
L 438.214575 405.283405 
L 440.044416 344.739474 
L 441.874258 419.901703 
L 443.704099 394.94475 
L 445.533941 454.240901 
L 447.363782 420.530627 
L 449.193624 449.083883 
L 451.023465 506.325938 
L 452.853307 548.321252 
L 454.683148 498.58753 
L 456.51299 574.195402 
L 458.342831 517.201302 
L 460.172673 395.997682 
L 462.002514 490.995899 
L 463.832356 469.884137 
L 465.662197 450.584624 
L 467.492039 505.730624 
L 469.32188 511.919767 
L 471.151722 502.28056 
L 472.981563 471.832164 
L 474.811405 489.5038 
L 476.641246 477.890477 
L 478.471088 481.597678 
L 480.300929 536.533755 
L 482.130771 544.942161 
L 483.960612 562.548323 
L 485.790454 462.380575 
L 487.620295 484.031607 
L 489.450137 478.466848 
L 491.279978 361.580701 
L 494.939661 520.303628 
L 496.769503 515.730678 
L 498.599344 496.379791 
L 500.429186 541.962124 
L 502.259027 503.728238 
L 504.088869 476.431261 
L 505.91871 500.855942 
L 507.748552 471.881255 
L 509.578393 428.594672 
L 511.408235 474.621484 
L 513.238076 339.994735 
L 515.067918 404.416797 
L 516.897759 460.16169 
L 518.727601 452.703349 
L 520.557442 502.277024 
L 522.387284 523.988262 
L 524.217125 445.862932 
L 526.046967 384.017649 
L 527.876808 328.753477 
L 529.70665 369.988875 
L 531.536491 389.910182 
L 533.366333 420.556788 
L 535.196174 519.776741 
L 538.855857 462.840461 
L 540.685699 494.541104 
L 542.51554 562.232042 
L 544.345382 597.102668 
L 546.175223 651.821576 
L 548.005065 639.04147 
L 549.834906 643.942836 
L 551.664748 645.362681 
L 553.494589 659.609773 
L 555.324431 690.106498 
L 557.154272 717.888475 
L 558.984114 720.459473 
L 560.813955 738.72 
L 562.643797 716.1967 
L 564.473638 710.233522 
L 566.30348 705.348057 
L 568.133321 688.474533 
L 569.963163 688.689541 
L 571.793004 696.949486 
L 573.622846 708.061238 
L 575.452687 686.04255 
L 577.282529 675.644497 
L 579.11237 687.040615 
L 580.942212 685.219802 
L 582.772053 668.219612 
L 584.601895 654.96486 
L 588.261578 639.639753 
L 590.091419 566.887242 
L 591.921261 611.022406 
L 593.751102 404.946085 
L 595.580944 272.809078 
L 597.410785 408.784466 
L 601.070468 238.940766 
L 602.90031 330.827446 
L 604.730151 347.986002 
L 606.559993 273.526435 
L 608.389834 228.126046 
L 610.219676 394.61197 
L 612.049517 219.081381 
L 613.879359 203.42412 
L 615.7092 266.133335 
L 617.539042 194.649789 
L 619.368883 315.972512 
L 621.198725 374.386952 
L 623.028566 414.389585 
L 624.858408 394.393492 
L 626.688249 364.05694 
L 628.518091 360.786812 
L 630.347932 259.813652 
L 632.177774 351.253104 
L 634.007615 288.4673 
L 635.837457 230.402489 
L 637.667298 375.899828 
L 639.49714 298.472941 
L 641.326981 294.238664 
L 643.156823 265.793076 
L 644.986664 390.660218 
L 646.816506 360.168771 
L 648.646347 277.306239 
L 650.476189 311.622914 
L 652.30603 395.240691 
L 654.135872 334.097284 
L 655.965713 262.778411 
L 657.795555 284.237736 
L 659.625396 277.569472 
L 661.455238 223.098781 
L 663.285079 373.175546 
L 665.114921 291.202232 
L 666.944762 250.53433 
L 668.774604 252.879913 
L 670.604445 191.346604 
L 672.434287 216.828742 
L 674.264128 291.568361 
L 676.09397 254.708896 
L 677.923811 282.73813 
L 679.753653 343.269607 
L 681.583494 388.555752 
L 683.413336 411.082064 
L 685.243177 400.341053 
L 687.073019 322.648488 
L 688.90286 389.105643 
L 690.732702 351.667857 
L 692.562543 405.039203 
L 694.392385 441.676029 
L 696.222226 404.003877 
L 698.052068 354.186989 
L 699.881909 322.451137 
L 701.711751 311.193175 
L 703.541592 264.712762 
L 705.371434 260.970875 
L 707.201275 283.274315 
L 709.031117 291.184453 
L 710.860958 379.362245 
L 712.6908 473.272437 
L 714.520641 460.805135 
L 716.350483 509.978025 
L 718.180324 630.337269 
L 720.010166 636.67719 
L 721.840007 658.965324 
L 723.669849 664.668814 
L 725.49969 655.700463 
L 727.329532 664.550379 
L 729.159373 659.041448 
L 730.989215 649.00064 
L 732.819056 660.126432 
L 734.648898 654.973735 
L 736.478739 679.022245 
L 738.308581 600.003016 
L 740.138422 536.83745 
L 741.968264 596.53603 
L 743.798105 618.837637 
L 745.627947 652.69316 
L 747.457788 683.295494 
L 749.28763 709.836678 
L 751.117471 693.491369 
L 752.947313 654.354792 
L 754.777154 669.970296 
L 756.606996 674.960473 
L 758.436837 672.512663 
L 760.266679 647.471221 
L 763.926362 620.750527 
L 765.756203 435.252024 
L 767.586045 541.892242 
L 769.415886 267.207451 
L 771.245728 204.608639 
L 773.075569 363.752241 
L 774.905411 216.800166 
L 776.735252 227.234092 
L 778.565094 198.175875 
L 780.394935 234.223992 
L 782.224777 210.784222 
L 784.054618 167.875465 
L 785.88446 238.059346 
L 787.714301 268.004598 
L 789.544143 197.193015 
L 791.373984 212.851091 
L 793.203826 293.61489 
L 795.033667 191.472953 
L 796.863509 195.022261 
L 798.69335 196.207711 
L 800.523192 152.472124 
L 802.353033 197.071613 
L 804.182875 145.12663 
L 806.012716 168.496154 
L 807.842558 260.547188 
L 809.672399 189.641381 
L 811.502241 241.080616 
L 813.332082 206.335569 
L 815.161924 185.509155 
L 816.991765 170.140327 
L 818.821607 166.037025 
L 820.651448 185.188247 
L 822.48129 178.686286 
L 824.311131 187.451421 
L 826.140973 207.986842 
L 827.970814 244.218459 
L 829.800656 217.69759 
L 831.630497 279.60471 
L 833.460339 227.419106 
L 835.29018 214.230518 
L 837.120022 225.679837 
L 838.949863 192.226627 
L 840.779705 205.30906 
L 842.609546 251.937007 
L 844.439388 200.161208 
L 846.269229 195.618914 
L 848.099071 240.107883 
L 849.928912 273.796769 
L 851.758754 268.762928 
L 853.588595 253.696587 
L 855.418437 259.574513 
L 857.248278 244.965731 
L 859.07812 354.488895 
L 860.907961 317.554325 
L 862.737803 260.341398 
L 864.567644 279.216205 
L 866.397486 370.003075 
L 868.227327 370.436277 
L 870.057169 386.008714 
L 871.88701 434.03151 
L 873.716852 373.371443 
L 875.546693 445.206364 
L 877.376535 326.136804 
L 879.206376 291.553869 
L 881.036218 285.902802 
L 882.866059 339.00073 
L 884.695901 376.110129 
L 888.355584 522.811222 
L 890.185425 577.858895 
L 892.015267 622.468932 
L 893.845108 584.776192 
L 895.67495 561.656341 
L 897.504791 553.077004 
L 899.334633 554.058962 
L 901.164474 608.528169 
L 902.994316 624.04619 
L 904.824157 588.346509 
L 906.653999 609.047811 
L 908.48384 627.489503 
L 910.313682 644.309721 
L 913.973365 668.18126 
L 915.803206 665.935196 
L 917.633048 662.161511 
L 919.462889 683.369949 
L 921.292731 631.204386 
L 923.122572 639.492015 
L 924.952414 644.06386 
L 926.782255 618.083439 
L 928.612097 648.954794 
L 930.441938 654.448521 
L 932.27178 668.872377 
L 934.101621 660.139105 
L 935.931463 669.536017 
L 937.761304 622.032485 
L 939.591146 664.031465 
L 941.420987 552.643264 
L 943.250829 484.66673 
L 945.08067 381.441336 
L 946.910512 284.953086 
L 948.740353 295.486037 
L 952.400036 205.516655 
L 954.229878 200.621327 
L 956.059719 177.188076 
L 957.889561 246.440021 
L 959.719402 169.923827 
L 961.549244 168.885911 
L 963.379085 169.453116 
L 965.208927 146.91112 
L 967.038768 165.33899 
L 968.86861 210.962252 
L 970.698451 189.386995 
L 972.528293 198.308743 
L 974.358134 231.37336 
L 976.187976 177.281601 
L 978.017817 169.200301 
L 979.847659 222.852892 
L 981.6775 285.869832 
L 983.507342 227.801355 
L 985.337183 352.421851 
L 987.167025 391.090016 
L 988.996866 274.817661 
L 990.826708 266.774918 
L 992.656549 316.749844 
L 994.486391 202.68197 
L 996.316232 205.075625 
L 998.146074 336.588946 
L 999.975915 236.517138 
L 1001.805757 233.701192 
L 1003.635598 219.131665 
L 1005.46544 169.525457 
L 1007.295281 178.09423 
L 1009.125123 191.182949 
L 1010.954964 271.011436 
L 1012.784806 232.716179 
L 1014.614647 230.409647 
L 1016.444489 275.097452 
L 1018.27433 239.409731 
L 1020.104172 206.447195 
L 1021.934013 204.446497 
L 1023.763855 199.250165 
L 1025.593696 205.729662 
L 1027.423538 211.658949 
L 1029.253379 219.100703 
L 1031.083221 261.471151 
L 1032.913062 224.644772 
L 1034.742904 275.372877 
L 1036.572745 248.493621 
L 1038.402587 218.753839 
L 1040.232428 330.579112 
L 1042.06227 304.613169 
L 1043.892111 269.272894 
L 1045.721953 309.691269 
L 1047.551794 243.094874 
L 1049.381636 227.539519 
L 1051.211478 216.385616 
L 1053.041319 206.284529 
L 1054.871161 218.084961 
L 1056.701002 212.219693 
L 1058.530844 236.728166 
L 1060.360685 236.042469 
L 1062.190527 190.328475 
L 1064.020368 251.548792 
L 1065.85021 189.119862 
L 1067.680051 178.354495 
L 1069.509893 223.405896 
L 1071.339734 311.409761 
L 1073.169576 261.603786 
L 1074.999417 286.996996 
L 1076.829259 269.982133 
L 1078.6591 275.75696 
L 1080.488942 316.625822 
L 1082.318783 375.141703 
L 1084.148625 345.079471 
L 1085.978466 429.755562 
L 1087.808308 396.797507 
L 1089.638149 432.438087 
L 1091.467991 299.578804 
L 1093.297832 246.832979 
L 1095.127674 363.760767 
L 1096.957515 336.020868 
L 1098.787357 378.485394 
L 1100.617198 408.250114 
L 1102.44704 375.200862 
L 1104.276881 436.963969 
L 1106.106723 490.400439 
L 1107.936564 485.65215 
L 1109.766406 535.811436 
L 1111.596247 595.545081 
L 1113.426089 485.899873 
L 1115.25593 555.392484 
L 1117.085772 568.532011 
L 1118.915613 482.104327 
L 1120.745455 541.625241 
L 1120.745455 541.625241 
" clip-path="url(#pab149cd190)" style="fill: none; stroke: #da70d6; stroke-linecap: square"/>
   </g>
   <g id="line2d_19">
    <path d="M 207.654545 673.962437 
L 209.484387 680.967531 
L 211.314228 671.352559 
L 213.14407 680.218524 
L 214.973911 683.664561 
L 216.803753 670.731986 
L 218.633594 693.30187 
L 220.463436 693.141056 
L 222.293277 678.182725 
L 224.123119 664.264543 
L 225.95296 634.81195 
L 227.782802 576.433579 
L 229.612643 630.158744 
L 231.442485 653.223299 
L 233.272326 660.597056 
L 235.102168 649.701774 
L 236.932009 604.513941 
L 238.761851 552.329907 
L 240.591692 457.994486 
L 242.421534 255.667865 
L 244.251375 195.648828 
L 246.081217 223.823414 
L 247.911058 205.992837 
L 249.7409 277.767086 
L 251.570741 209.203603 
L 253.400583 179.684452 
L 255.230424 173.699761 
L 257.060266 172.446393 
L 258.890107 173.039845 
L 260.719949 184.82759 
L 262.54979 306.125055 
L 264.379632 231.436796 
L 266.209473 222.633192 
L 268.039315 199.319597 
L 269.869156 209.941621 
L 271.698998 186.941484 
L 273.528839 286.342086 
L 275.358681 309.833536 
L 277.188522 319.821136 
L 279.018364 344.996014 
L 280.848206 361.177267 
L 282.678047 279.646293 
L 284.507889 243.009322 
L 286.33773 231.05705 
L 288.167572 190.641759 
L 289.997413 181.781236 
L 291.827255 177.015691 
L 293.657096 203.609017 
L 295.486938 184.323764 
L 297.316779 296.57738 
L 299.146621 227.282746 
L 300.976462 220.289296 
L 302.806304 215.503091 
L 304.636145 207.256331 
L 306.465987 210.13129 
L 308.295828 188.029451 
L 310.12567 186.162785 
L 311.955511 179.598842 
L 313.785353 181.363602 
L 315.615194 178.281397 
L 317.445036 176.940848 
L 319.274877 177.335959 
L 321.104719 176.948355 
L 322.93456 179.423489 
L 324.764402 182.089223 
L 326.594243 292.852283 
L 328.424085 257.394534 
L 330.253926 276.025692 
L 332.083768 350.375991 
L 333.913609 260.789004 
L 335.743451 257.233382 
L 337.573292 243.907911 
L 339.403134 324.981443 
L 341.232975 343.380999 
L 343.062817 339.729989 
L 344.892658 263.926003 
L 346.7225 365.121482 
L 348.552341 283.934434 
L 350.382183 225.980608 
L 352.212024 243.017586 
L 354.041866 195.467015 
L 355.871707 208.378286 
L 357.701549 352.017806 
L 359.53139 399.611619 
L 361.361232 342.017345 
L 363.191073 407.145531 
L 365.020915 401.265947 
L 366.850756 324.459225 
L 368.680598 351.371568 
L 370.510439 418.669228 
L 372.340281 382.976182 
L 374.170122 424.477665 
L 375.999964 376.376621 
L 377.829805 426.418913 
L 379.659647 338.421856 
L 381.489488 241.03202 
L 383.31933 317.230245 
L 385.149171 349.009892 
L 386.979013 375.189658 
L 388.808854 321.79157 
L 390.638696 370.898841 
L 392.468537 372.209476 
L 394.298379 329.378473 
L 396.12822 337.955917 
L 397.958062 394.912334 
L 399.787903 417.550067 
L 401.617745 435.543367 
L 403.447586 382.440841 
L 405.277428 356.048446 
L 407.107269 434.830316 
L 408.937111 440.934664 
L 410.766952 465.431468 
L 412.596794 578.734728 
L 414.426635 456.058098 
L 416.256477 514.282315 
L 418.086318 328.73884 
L 419.91616 558.69906 
L 421.746001 489.537468 
L 423.575843 525.376768 
L 425.405684 585.089738 
L 427.235526 569.24979 
L 429.065367 619.680914 
L 430.895209 539.022041 
L 432.72505 402.812636 
L 436.384733 316.732879 
L 438.214575 361.076787 
L 440.044416 291.227462 
L 441.874258 370.294302 
L 443.704099 326.823374 
L 445.533941 410.929147 
L 447.363782 370.502333 
L 449.193624 423.455899 
L 451.023465 524.22225 
L 452.853307 589.33679 
L 454.683148 546.716087 
L 456.51299 564.241412 
L 458.342831 475.996312 
L 460.172673 308.271657 
L 462.002514 420.927892 
L 463.832356 437.300969 
L 465.662197 464.870927 
L 467.492039 511.465919 
L 469.32188 518.783216 
L 471.151722 512.237969 
L 472.981563 418.168952 
L 474.811405 393.657016 
L 476.641246 412.781845 
L 478.471088 474.065832 
L 480.300929 576.33598 
L 482.130771 585.377297 
L 483.960612 612.760206 
L 485.790454 520.832087 
L 487.620295 477.659399 
L 489.450137 460.960031 
L 491.279978 351.637216 
L 493.10982 412.507875 
L 494.939661 544.051866 
L 496.769503 512.399965 
L 498.599344 554.362934 
L 500.429186 510.143004 
L 504.088869 461.622333 
L 505.91871 501.027454 
L 507.748552 457.402896 
L 509.578393 387.530844 
L 511.408235 463.275235 
L 513.238076 337.559962 
L 515.067918 383.49805 
L 516.897759 442.693604 
L 518.727601 440.705478 
L 520.557442 490.371223 
L 522.387284 498.676094 
L 524.217125 440.657085 
L 526.046967 328.74207 
L 527.876808 262.121871 
L 529.70665 345.356235 
L 531.536491 366.545925 
L 533.366333 410.757694 
L 535.196174 524.013201 
L 537.026016 448.819079 
L 538.855857 452.793877 
L 540.685699 526.551102 
L 542.51554 585.12601 
L 544.345382 626.547338 
L 546.175223 672.827038 
L 548.005065 676.805314 
L 549.834906 677.814658 
L 551.664748 679.092117 
L 553.494589 678.208249 
L 557.154272 691.641759 
L 558.984114 691.807443 
L 560.813955 690.981531 
L 562.643797 683.714558 
L 564.473638 685.001452 
L 566.30348 687.190888 
L 568.133321 685.591689 
L 569.963163 691.513322 
L 571.793004 686.772097 
L 573.622846 688.861067 
L 575.452687 677.142263 
L 577.282529 671.174435 
L 579.11237 677.338371 
L 580.942212 656.937535 
L 582.772053 647.006526 
L 584.601895 650.940592 
L 586.431736 630.237436 
L 588.261578 615.596841 
L 590.091419 531.230425 
L 591.921261 539.242381 
L 593.751102 324.734855 
L 595.580944 223.325349 
L 597.410785 312.881811 
L 599.240627 280.880543 
L 601.070468 224.370714 
L 602.90031 272.744827 
L 604.730151 291.589865 
L 606.559993 228.782644 
L 608.389834 195.441117 
L 610.219676 322.285707 
L 612.049517 238.157353 
L 613.879359 197.807477 
L 615.7092 203.434421 
L 617.539042 180.765377 
L 619.368883 267.160659 
L 621.198725 326.636614 
L 623.028566 392.867842 
L 624.858408 349.344884 
L 626.688249 292.803745 
L 628.518091 319.416451 
L 630.347932 222.689411 
L 632.177774 328.29391 
L 634.007615 237.352464 
L 635.837457 200.908247 
L 637.667298 329.688061 
L 639.49714 263.077436 
L 641.326981 273.777097 
L 643.156823 231.334076 
L 644.986664 339.857037 
L 646.816506 297.394781 
L 648.646347 224.50591 
L 650.476189 221.899364 
L 652.30603 342.962521 
L 654.135872 305.615322 
L 655.965713 262.257882 
L 657.795555 240.55223 
L 659.625396 212.338011 
L 661.455238 187.668386 
L 663.285079 335.950855 
L 665.114921 268.959523 
L 666.944762 217.127417 
L 670.604445 179.503861 
L 672.434287 184.785338 
L 674.264128 254.517015 
L 676.09397 210.030898 
L 677.923811 210.666777 
L 681.583494 365.100036 
L 683.413336 398.400387 
L 685.243177 389.449918 
L 687.073019 300.766029 
L 688.90286 375.829582 
L 690.732702 315.919028 
L 692.562543 399.828991 
L 694.392385 412.132115 
L 696.222226 379.429814 
L 698.052068 308.6205 
L 699.881909 282.603516 
L 701.711751 288.17587 
L 703.541592 225.105939 
L 705.371434 205.541739 
L 707.201275 205.815447 
L 709.031117 216.727243 
L 710.860958 334.488495 
L 712.6908 421.393569 
L 714.520641 428.746163 
L 716.350483 518.703353 
L 718.180324 648.756845 
L 720.010166 656.632639 
L 721.840007 678.767553 
L 723.669849 680.198114 
L 725.49969 676.307068 
L 727.329532 679.292117 
L 729.159373 675.168111 
L 730.989215 665.916471 
L 732.819056 673.5072 
L 734.648898 661.031059 
L 736.478739 677.705379 
L 738.308581 515.669482 
L 740.138422 518.603949 
L 741.968264 600.267776 
L 743.798105 627.853412 
L 745.627947 657.772519 
L 747.457788 682.207447 
L 749.28763 687.573472 
L 751.117471 681.618272 
L 752.947313 625.242145 
L 754.777154 660.894277 
L 756.606996 665.127769 
L 758.436837 672.345269 
L 760.266679 641.300323 
L 762.09652 632.592244 
L 763.926362 606.114129 
L 765.756203 435.089679 
L 767.586045 482.911078 
L 769.415886 291.511646 
L 771.245728 231.451521 
L 773.075569 317.285709 
L 774.905411 206.386377 
L 776.735252 188.674293 
L 778.565094 176.864375 
L 780.394935 190.746168 
L 782.224777 183.379838 
L 784.054618 176.567503 
L 785.88446 189.453865 
L 787.714301 254.604167 
L 789.544143 200.043589 
L 791.373984 181.217756 
L 793.203826 220.759018 
L 795.033667 182.49516 
L 796.863509 176.564826 
L 798.69335 174.607253 
L 800.523192 174.150801 
L 802.353033 185.243711 
L 804.182875 178.244616 
L 806.012716 175.974283 
L 807.842558 208.277603 
L 809.672399 181.751438 
L 811.502241 189.099027 
L 813.332082 178.107616 
L 815.161924 179.315007 
L 816.991765 176.868798 
L 818.821607 175.30558 
L 820.651448 175.150015 
L 824.311131 173.937793 
L 826.140973 176.466412 
L 827.970814 193.745788 
L 829.800656 187.22014 
L 831.630497 264.633495 
L 833.460339 209.59691 
L 835.29018 184.57105 
L 837.120022 177.99698 
L 838.949863 175.289401 
L 840.779705 175.385894 
L 842.609546 207.11194 
L 844.439388 188.107496 
L 846.269229 181.246448 
L 848.099071 186.313054 
L 849.928912 235.816309 
L 851.758754 214.396151 
L 853.588595 194.550967 
L 855.418437 184.172156 
L 857.248278 182.99887 
L 859.07812 323.313816 
L 860.907961 290.958322 
L 862.737803 241.71603 
L 864.567644 222.709083 
L 866.397486 333.632043 
L 868.227327 364.637094 
L 870.057169 371.989281 
L 871.88701 428.662823 
L 873.716852 348.078422 
L 875.546693 423.259769 
L 877.376535 327.757464 
L 879.206376 248.66554 
L 881.036218 224.089033 
L 882.866059 311.264818 
L 884.695901 356.594758 
L 888.355584 497.974916 
L 890.185425 553.024262 
L 892.015267 602.033846 
L 893.845108 615.269473 
L 895.67495 586.577181 
L 897.504791 560.638881 
L 899.334633 560.476885 
L 901.164474 620.913018 
L 902.994316 637.146156 
L 904.824157 609.653412 
L 906.653999 599.47009 
L 908.48384 621.714342 
L 910.313682 647.266725 
L 912.143523 642.038144 
L 913.973365 644.118094 
L 915.803206 649.714083 
L 917.633048 658.342277 
L 919.462889 674.019516 
L 921.292731 643.105596 
L 923.122572 638.85778 
L 924.952414 627.070443 
L 926.782255 613.341727 
L 928.612097 608.92715 
L 930.441938 625.272423 
L 932.27178 645.541955 
L 934.101621 619.293107 
L 935.931463 645.523717 
L 937.761304 597.116694 
L 939.591146 648.934155 
L 941.420987 535.885464 
L 943.250829 494.05433 
L 945.08067 273.386293 
L 946.910512 205.058515 
L 948.740353 273.841523 
L 950.570195 208.589664 
L 952.400036 190.91378 
L 954.229878 177.729324 
L 956.059719 173.878547 
L 957.889561 199.345902 
L 959.719402 180.563718 
L 961.549244 179.356095 
L 963.379085 176.035974 
L 965.208927 174.535844 
L 967.038768 174.570355 
L 968.86861 184.561156 
L 970.698451 177.851832 
L 972.528293 175.705289 
L 974.358134 183.659716 
L 976.187976 178.337326 
L 978.017817 176.399076 
L 979.847659 195.095009 
L 981.6775 277.048157 
L 983.507342 215.022835 
L 985.337183 326.017467 
L 987.167025 354.923931 
L 988.996866 261.33968 
L 990.826708 213.907165 
L 992.656549 273.076123 
L 994.486391 195.077433 
L 996.316232 186.999275 
L 998.146074 284.016145 
L 999.975915 204.65415 
L 1001.805757 193.385422 
L 1003.635598 179.139014 
L 1005.46544 174.469846 
L 1007.295281 180.052268 
L 1009.125123 183.089834 
L 1010.954964 247.994043 
L 1012.784806 203.059388 
L 1014.614647 185.41272 
L 1016.444489 191.736593 
L 1018.27433 194.823396 
L 1020.104172 185.54617 
L 1021.934013 181.112183 
L 1023.763855 178.344717 
L 1025.593696 177.329441 
L 1027.423538 177.462192 
L 1029.253379 177.265713 
L 1031.083221 188.627501 
L 1032.913062 184.621508 
L 1034.742904 229.923455 
L 1036.572745 209.328032 
L 1038.402587 196.925243 
L 1040.232428 320.124381 
L 1042.06227 278.013383 
L 1043.892111 232.51097 
L 1045.721953 237.735004 
L 1047.551794 193.32571 
L 1049.381636 191.430643 
L 1051.211478 187.724955 
L 1053.041319 183.625321 
L 1054.871161 184.128449 
L 1056.701002 183.058232 
L 1058.530844 193.843737 
L 1060.360685 194.14637 
L 1062.190527 183.440714 
L 1064.020368 205.659358 
L 1065.85021 186.306827 
L 1067.680051 189.229974 
L 1069.509893 183.448164 
L 1071.339734 240.0427 
L 1073.169576 197.021445 
L 1074.999417 219.27495 
L 1076.829259 202.675626 
L 1078.6591 236.602981 
L 1080.488942 273.986991 
L 1082.318783 347.751898 
L 1084.148625 298.021814 
L 1085.978466 382.836331 
L 1087.808308 328.451512 
L 1089.638149 390.73512 
L 1091.467991 302.297965 
L 1093.297832 222.401502 
L 1095.127674 341.323994 
L 1096.957515 332.425642 
L 1098.787357 379.784913 
L 1100.617198 369.765595 
L 1102.44704 311.714577 
L 1104.276881 397.392618 
L 1106.106723 446.251933 
L 1107.936564 461.057514 
L 1109.766406 525.649545 
L 1111.596247 579.500274 
L 1113.426089 480.252618 
L 1115.25593 512.079435 
L 1117.085772 522.938125 
L 1118.915613 515.869351 
L 1120.745455 477.271999 
L 1120.745455 477.271999 
" clip-path="url(#pab149cd190)" style="fill: none; stroke: #8fbc8f; stroke-linecap: square"/>
   </g>
   <g id="patch_3">
    <path d="M 162 768.96 
L 162 103.68 
" style="fill: none; stroke: #000000; stroke-width: 0.8; stroke-linejoin: miter; stroke-linecap: square"/>
   </g>
   <g id="patch_4">
    <path d="M 1166.4 768.96 
L 1166.4 103.68 
" style="fill: none; stroke: #000000; stroke-width: 0.8; stroke-linejoin: miter; stroke-linecap: square"/>
   </g>
   <g id="patch_5">
    <path d="M 162 768.96 
L 1166.4 768.96 
" style="fill: none; stroke: #000000; stroke-width: 0.8; stroke-linejoin: miter; stroke-linecap: square"/>
   </g>
   <g id="patch_6">
    <path d="M 162 103.68 
L 1166.4 103.68 
" style="fill: none; stroke: #000000; stroke-width: 0.8; stroke-linejoin: miter; stroke-linecap: square"/>
   </g>
   <g id="text_16">
    <!-- Function 1 -->
    <g transform="translate(632.957813 97.68) scale(0.12 -0.12)">
     <defs>
      <path id="DejaVuSans-46" d="M 628 4666 
L 3309 4666 
L 3309 4134 
L 1259 4134 
L 1259 2759 
L 3109 2759 
L 3109 2228 
L 1259 2228 
L 1259 0 
L 628 0 
L 628 4666 
z
" transform="scale(0.015625)"/>
      <path id="DejaVuSans-75" d="M 544 1381 
L 544 3500 
L 1119 3500 
L 1119 1403 
Q 1119 906 1312 657 
Q 1506 409 1894 409 
Q 2359 409 2629 706 
Q 2900 1003 2900 1516 
L 2900 3500 
L 3475 3500 
L 3475 0 
L 2900 0 
L 2900 538 
Q 2691 219 2414 64 
Q 2138 -91 1772 -91 
Q 1169 -91 856 284 
Q 544 659 544 1381 
z
M 1991 3584 
L 1991 3584 
z
" transform="scale(0.015625)"/>
      <path id="DejaVuSans-6e" d="M 3513 2113 
L 3513 0 
L 2938 0 
L 2938 2094 
Q 2938 2591 2744 2837 
Q 2550 3084 2163 3084 
Q 1697 3084 1428 2787 
Q 1159 2491 1159 1978 
L 1159 0 
L 581 0 
L 581 3500 
L 1159 3500 
L 1159 2956 
Q 1366 3272 1645 3428 
Q 1925 3584 2291 3584 
Q 2894 3584 3203 3211 
Q 3513 2838 3513 2113 
z
" transform="scale(0.015625)"/>
      <path id="DejaVuSans-63" d="M 3122 3366 
L 3122 2828 
Q 2878 2963 2633 3030 
Q 2388 3097 2138 3097 
Q 1578 3097 1268 2742 
Q 959 2388 959 1747 
Q 959 1106 1268 751 
Q 1578 397 2138 397 
Q 2388 397 2633 464 
Q 2878 531 3122 666 
L 3122 134 
Q 2881 22 2623 -34 
Q 2366 -91 2075 -91 
Q 1284 -91 818 406 
Q 353 903 353 1747 
Q 353 2603 823 3093 
Q 1294 3584 2113 3584 
Q 2378 3584 2631 3529 
Q 2884 3475 3122 3366 
z
" transform="scale(0.015625)"/>
      <path id="DejaVuSans-74" d="M 1172 4494 
L 1172 3500 
L 2356 3500 
L 2356 3053 
L 1172 3053 
L 1172 1153 
Q 1172 725 1289 603 
Q 1406 481 1766 481 
L 2356 481 
L 2356 0 
L 1766 0 
Q 1100 0 847 248 
Q 594 497 594 1153 
L 594 3053 
L 172 3053 
L 172 3500 
L 594 3500 
L 594 4494 
L 1172 4494 
z
" transform="scale(0.015625)"/>
      <path id="DejaVuSans-69" d="M 603 3500 
L 1178 3500 
L 1178 0 
L 603 0 
L 603 3500 
z
M 603 4863 
L 1178 4863 
L 1178 4134 
L 603 4134 
L 603 4863 
z
" transform="scale(0.015625)"/>
      <path id="DejaVuSans-6f" d="M 1959 3097 
Q 1497 3097 1228 2736 
Q 959 2375 959 1747 
Q 959 1119 1226 758 
Q 1494 397 1959 397 
Q 2419 397 2687 759 
Q 2956 1122 2956 1747 
Q 2956 2369 2687 2733 
Q 2419 3097 1959 3097 
z
M 1959 3584 
Q 2709 3584 3137 3096 
Q 3566 2609 3566 1747 
Q 3566 888 3137 398 
Q 2709 -91 1959 -91 
Q 1206 -91 779 398 
Q 353 888 353 1747 
Q 353 2609 779 3096 
Q 1206 3584 1959 3584 
z
" transform="scale(0.015625)"/>
      <path id="DejaVuSans-20" transform="scale(0.015625)"/>
     </defs>
     <use xlink:href="#DejaVuSans-46"/>
     <use xlink:href="#DejaVuSans-75" x="52.019531"/>
     <use xlink:href="#DejaVuSans-6e" x="115.398438"/>
     <use xlink:href="#DejaVuSans-63" x="178.777344"/>
     <use xlink:href="#DejaVuSans-74" x="233.757812"/>
     <use xlink:href="#DejaVuSans-69" x="272.966797"/>
     <use xlink:href="#DejaVuSans-6f" x="300.75"/>
     <use xlink:href="#DejaVuSans-6e" x="361.931641"/>
     <use xlink:href="#DejaVuSans-20" x="425.310547"/>
     <use xlink:href="#DejaVuSans-31" x="457.097656"/>
    </g>
   </g>
   <g id="legend_1">
    <g id="patch_7">
     <path d="M 1011.90625 763.96 
L 1159.4 763.96 
Q 1161.4 763.96 1161.4 761.96 
L 1161.4 704.2475 
Q 1161.4 702.2475 1159.4 702.2475 
L 1011.90625 702.2475 
Q 1009.90625 702.2475 1009.90625 704.2475 
L 1009.90625 761.96 
Q 1009.90625 763.96 1011.90625 763.96 
z
" style="fill: #ffffff; opacity: 0.8; stroke: #cccccc; stroke-linejoin: miter"/>
    </g>
    <g id="line2d_20">
     <path d="M 1013.90625 710.345937 
L 1023.90625 710.345937 
L 1033.90625 710.345937 
" style="fill: none; stroke: #4169e1; stroke-linecap: square"/>
    </g>
    <g id="text_17">
     <!-- Truth -->
     <g transform="translate(1041.90625 713.845937) scale(0.1 -0.1)">
      <defs>
       <path id="DejaVuSans-54" d="M -19 4666 
L 3928 4666 
L 3928 4134 
L 2272 4134 
L 2272 0 
L 1638 0 
L 1638 4134 
L -19 4134 
L -19 4666 
z
" transform="scale(0.015625)"/>
       <path id="DejaVuSans-72" d="M 2631 2963 
Q 2534 3019 2420 3045 
Q 2306 3072 2169 3072 
Q 1681 3072 1420 2755 
Q 1159 2438 1159 1844 
L 1159 0 
L 581 0 
L 581 3500 
L 1159 3500 
L 1159 2956 
Q 1341 3275 1631 3429 
Q 1922 3584 2338 3584 
Q 2397 3584 2469 3576 
Q 2541 3569 2628 3553 
L 2631 2963 
z
" transform="scale(0.015625)"/>
       <path id="DejaVuSans-68" d="M 3513 2113 
L 3513 0 
L 2938 0 
L 2938 2094 
Q 2938 2591 2744 2837 
Q 2550 3084 2163 3084 
Q 1697 3084 1428 2787 
Q 1159 2491 1159 1978 
L 1159 0 
L 581 0 
L 581 4863 
L 1159 4863 
L 1159 2956 
Q 1366 3272 1645 3428 
Q 1925 3584 2291 3584 
Q 2894 3584 3203 3211 
Q 3513 2838 3513 2113 
z
" transform="scale(0.015625)"/>
      </defs>
      <use xlink:href="#DejaVuSans-54"/>
      <use xlink:href="#DejaVuSans-72" x="46.333984"/>
      <use xlink:href="#DejaVuSans-75" x="87.447266"/>
      <use xlink:href="#DejaVuSans-74" x="150.826172"/>
      <use xlink:href="#DejaVuSans-68" x="190.035156"/>
     </g>
    </g>
    <g id="line2d_21">
     <path d="M 1013.90625 725.024063 
L 1023.90625 725.024063 
L 1033.90625 725.024063 
" style="fill: none; stroke: #ff6347; stroke-linecap: square"/>
    </g>
    <g id="text_18">
     <!-- Gossip predictions -->
     <g transform="translate(1041.90625 728.524063) scale(0.1 -0.1)">
      <defs>
       <path id="DejaVuSans-47" d="M 3809 666 
L 3809 1919 
L 2778 1919 
L 2778 2438 
L 4434 2438 
L 4434 434 
Q 4069 175 3628 42 
Q 3188 -91 2688 -91 
Q 1594 -91 976 548 
Q 359 1188 359 2328 
Q 359 3472 976 4111 
Q 1594 4750 2688 4750 
Q 3144 4750 3555 4637 
Q 3966 4525 4313 4306 
L 4313 3634 
Q 3963 3931 3569 4081 
Q 3175 4231 2741 4231 
Q 1884 4231 1454 3753 
Q 1025 3275 1025 2328 
Q 1025 1384 1454 906 
Q 1884 428 2741 428 
Q 3075 428 3337 486 
Q 3600 544 3809 666 
z
" transform="scale(0.015625)"/>
       <path id="DejaVuSans-73" d="M 2834 3397 
L 2834 2853 
Q 2591 2978 2328 3040 
Q 2066 3103 1784 3103 
Q 1356 3103 1142 2972 
Q 928 2841 928 2578 
Q 928 2378 1081 2264 
Q 1234 2150 1697 2047 
L 1894 2003 
Q 2506 1872 2764 1633 
Q 3022 1394 3022 966 
Q 3022 478 2636 193 
Q 2250 -91 1575 -91 
Q 1294 -91 989 -36 
Q 684 19 347 128 
L 347 722 
Q 666 556 975 473 
Q 1284 391 1588 391 
Q 1994 391 2212 530 
Q 2431 669 2431 922 
Q 2431 1156 2273 1281 
Q 2116 1406 1581 1522 
L 1381 1569 
Q 847 1681 609 1914 
Q 372 2147 372 2553 
Q 372 3047 722 3315 
Q 1072 3584 1716 3584 
Q 2034 3584 2315 3537 
Q 2597 3491 2834 3397 
z
" transform="scale(0.015625)"/>
       <path id="DejaVuSans-70" d="M 1159 525 
L 1159 -1331 
L 581 -1331 
L 581 3500 
L 1159 3500 
L 1159 2969 
Q 1341 3281 1617 3432 
Q 1894 3584 2278 3584 
Q 2916 3584 3314 3078 
Q 3713 2572 3713 1747 
Q 3713 922 3314 415 
Q 2916 -91 2278 -91 
Q 1894 -91 1617 61 
Q 1341 213 1159 525 
z
M 3116 1747 
Q 3116 2381 2855 2742 
Q 2594 3103 2138 3103 
Q 1681 3103 1420 2742 
Q 1159 2381 1159 1747 
Q 1159 1113 1420 752 
Q 1681 391 2138 391 
Q 2594 391 2855 752 
Q 3116 1113 3116 1747 
z
" transform="scale(0.015625)"/>
       <path id="DejaVuSans-65" d="M 3597 1894 
L 3597 1613 
L 953 1613 
Q 991 1019 1311 708 
Q 1631 397 2203 397 
Q 2534 397 2845 478 
Q 3156 559 3463 722 
L 3463 178 
Q 3153 47 2828 -22 
Q 2503 -91 2169 -91 
Q 1331 -91 842 396 
Q 353 884 353 1716 
Q 353 2575 817 3079 
Q 1281 3584 2069 3584 
Q 2775 3584 3186 3129 
Q 3597 2675 3597 1894 
z
M 3022 2063 
Q 3016 2534 2758 2815 
Q 2500 3097 2075 3097 
Q 1594 3097 1305 2825 
Q 1016 2553 972 2059 
L 3022 2063 
z
" transform="scale(0.015625)"/>
       <path id="DejaVuSans-64" d="M 2906 2969 
L 2906 4863 
L 3481 4863 
L 3481 0 
L 2906 0 
L 2906 525 
Q 2725 213 2448 61 
Q 2172 -91 1784 -91 
Q 1150 -91 751 415 
Q 353 922 353 1747 
Q 353 2572 751 3078 
Q 1150 3584 1784 3584 
Q 2172 3584 2448 3432 
Q 2725 3281 2906 2969 
z
M 947 1747 
Q 947 1113 1208 752 
Q 1469 391 1925 391 
Q 2381 391 2643 752 
Q 2906 1113 2906 1747 
Q 2906 2381 2643 2742 
Q 2381 3103 1925 3103 
Q 1469 3103 1208 2742 
Q 947 2381 947 1747 
z
" transform="scale(0.015625)"/>
      </defs>
      <use xlink:href="#DejaVuSans-47"/>
      <use xlink:href="#DejaVuSans-6f" x="77.490234"/>
      <use xlink:href="#DejaVuSans-73" x="138.671875"/>
      <use xlink:href="#DejaVuSans-73" x="190.771484"/>
      <use xlink:href="#DejaVuSans-69" x="242.871094"/>
      <use xlink:href="#DejaVuSans-70" x="270.654297"/>
      <use xlink:href="#DejaVuSans-20" x="334.130859"/>
      <use xlink:href="#DejaVuSans-70" x="365.917969"/>
      <use xlink:href="#DejaVuSans-72" x="429.394531"/>
      <use xlink:href="#DejaVuSans-65" x="468.257812"/>
      <use xlink:href="#DejaVuSans-64" x="529.78125"/>
      <use xlink:href="#DejaVuSans-69" x="593.257812"/>
      <use xlink:href="#DejaVuSans-63" x="621.041016"/>
      <use xlink:href="#DejaVuSans-74" x="676.021484"/>
      <use xlink:href="#DejaVuSans-69" x="715.230469"/>
      <use xlink:href="#DejaVuSans-6f" x="743.013672"/>
      <use xlink:href="#DejaVuSans-6e" x="804.195312"/>
      <use xlink:href="#DejaVuSans-73" x="867.574219"/>
     </g>
    </g>
    <g id="line2d_22">
     <path d="M 1013.90625 739.702188 
L 1023.90625 739.702188 
L 1033.90625 739.702188 
" style="fill: none; stroke: #da70d6; stroke-linecap: square"/>
    </g>
    <g id="text_19">
     <!-- Centralized predictions -->
     <g transform="translate(1041.90625 743.202188) scale(0.1 -0.1)">
      <defs>
       <path id="DejaVuSans-43" d="M 4122 4306 
L 4122 3641 
Q 3803 3938 3442 4084 
Q 3081 4231 2675 4231 
Q 1875 4231 1450 3742 
Q 1025 3253 1025 2328 
Q 1025 1406 1450 917 
Q 1875 428 2675 428 
Q 3081 428 3442 575 
Q 3803 722 4122 1019 
L 4122 359 
Q 3791 134 3420 21 
Q 3050 -91 2638 -91 
Q 1578 -91 968 557 
Q 359 1206 359 2328 
Q 359 3453 968 4101 
Q 1578 4750 2638 4750 
Q 3056 4750 3426 4639 
Q 3797 4528 4122 4306 
z
" transform="scale(0.015625)"/>
       <path id="DejaVuSans-61" d="M 2194 1759 
Q 1497 1759 1228 1600 
Q 959 1441 959 1056 
Q 959 750 1161 570 
Q 1363 391 1709 391 
Q 2188 391 2477 730 
Q 2766 1069 2766 1631 
L 2766 1759 
L 2194 1759 
z
M 3341 1997 
L 3341 0 
L 2766 0 
L 2766 531 
Q 2569 213 2275 61 
Q 1981 -91 1556 -91 
Q 1019 -91 701 211 
Q 384 513 384 1019 
Q 384 1609 779 1909 
Q 1175 2209 1959 2209 
L 2766 2209 
L 2766 2266 
Q 2766 2663 2505 2880 
Q 2244 3097 1772 3097 
Q 1472 3097 1187 3025 
Q 903 2953 641 2809 
L 641 3341 
Q 956 3463 1253 3523 
Q 1550 3584 1831 3584 
Q 2591 3584 2966 3190 
Q 3341 2797 3341 1997 
z
" transform="scale(0.015625)"/>
       <path id="DejaVuSans-6c" d="M 603 4863 
L 1178 4863 
L 1178 0 
L 603 0 
L 603 4863 
z
" transform="scale(0.015625)"/>
       <path id="DejaVuSans-7a" d="M 353 3500 
L 3084 3500 
L 3084 2975 
L 922 459 
L 3084 459 
L 3084 0 
L 275 0 
L 275 525 
L 2438 3041 
L 353 3041 
L 353 3500 
z
" transform="scale(0.015625)"/>
      </defs>
      <use xlink:href="#DejaVuSans-43"/>
      <use xlink:href="#DejaVuSans-65" x="69.824219"/>
      <use xlink:href="#DejaVuSans-6e" x="131.347656"/>
      <use xlink:href="#DejaVuSans-74" x="194.726562"/>
      <use xlink:href="#DejaVuSans-72" x="233.935547"/>
      <use xlink:href="#DejaVuSans-61" x="275.048828"/>
      <use xlink:href="#DejaVuSans-6c" x="336.328125"/>
      <use xlink:href="#DejaVuSans-69" x="364.111328"/>
      <use xlink:href="#DejaVuSans-7a" x="391.894531"/>
      <use xlink:href="#DejaVuSans-65" x="444.384766"/>
      <use xlink:href="#DejaVuSans-64" x="505.908203"/>
      <use xlink:href="#DejaVuSans-20" x="569.384766"/>
      <use xlink:href="#DejaVuSans-70" x="601.171875"/>
      <use xlink:href="#DejaVuSans-72" x="664.648438"/>
      <use xlink:href="#DejaVuSans-65" x="703.511719"/>
      <use xlink:href="#DejaVuSans-64" x="765.035156"/>
      <use xlink:href="#DejaVuSans-69" x="828.511719"/>
      <use xlink:href="#DejaVuSans-63" x="856.294922"/>
      <use xlink:href="#DejaVuSans-74" x="911.275391"/>
      <use xlink:href="#DejaVuSans-69" x="950.484375"/>
      <use xlink:href="#DejaVuSans-6f" x="978.267578"/>
      <use xlink:href="#DejaVuSans-6e" x="1039.449219"/>
      <use xlink:href="#DejaVuSans-73" x="1102.828125"/>
     </g>
    </g>
    <g id="line2d_23">
     <path d="M 1013.90625 754.380312 
L 1023.90625 754.380312 
L 1033.90625 754.380312 
" style="fill: none; stroke: #8fbc8f; stroke-linecap: square"/>
    </g>
    <g id="text_20">
     <!-- Single predictions -->
     <g transform="translate(1041.90625 757.880312) scale(0.1 -0.1)">
      <defs>
       <path id="DejaVuSans-53" d="M 3425 4513 
L 3425 3897 
Q 3066 4069 2747 4153 
Q 2428 4238 2131 4238 
Q 1616 4238 1336 4038 
Q 1056 3838 1056 3469 
Q 1056 3159 1242 3001 
Q 1428 2844 1947 2747 
L 2328 2669 
Q 3034 2534 3370 2195 
Q 3706 1856 3706 1288 
Q 3706 609 3251 259 
Q 2797 -91 1919 -91 
Q 1588 -91 1214 -16 
Q 841 59 441 206 
L 441 856 
Q 825 641 1194 531 
Q 1563 422 1919 422 
Q 2459 422 2753 634 
Q 3047 847 3047 1241 
Q 3047 1584 2836 1778 
Q 2625 1972 2144 2069 
L 1759 2144 
Q 1053 2284 737 2584 
Q 422 2884 422 3419 
Q 422 4038 858 4394 
Q 1294 4750 2059 4750 
Q 2388 4750 2728 4690 
Q 3069 4631 3425 4513 
z
" transform="scale(0.015625)"/>
       <path id="DejaVuSans-67" d="M 2906 1791 
Q 2906 2416 2648 2759 
Q 2391 3103 1925 3103 
Q 1463 3103 1205 2759 
Q 947 2416 947 1791 
Q 947 1169 1205 825 
Q 1463 481 1925 481 
Q 2391 481 2648 825 
Q 2906 1169 2906 1791 
z
M 3481 434 
Q 3481 -459 3084 -895 
Q 2688 -1331 1869 -1331 
Q 1566 -1331 1297 -1286 
Q 1028 -1241 775 -1147 
L 775 -588 
Q 1028 -725 1275 -790 
Q 1522 -856 1778 -856 
Q 2344 -856 2625 -561 
Q 2906 -266 2906 331 
L 2906 616 
Q 2728 306 2450 153 
Q 2172 0 1784 0 
Q 1141 0 747 490 
Q 353 981 353 1791 
Q 353 2603 747 3093 
Q 1141 3584 1784 3584 
Q 2172 3584 2450 3431 
Q 2728 3278 2906 2969 
L 2906 3500 
L 3481 3500 
L 3481 434 
z
" transform="scale(0.015625)"/>
      </defs>
      <use xlink:href="#DejaVuSans-53"/>
      <use xlink:href="#DejaVuSans-69" x="63.476562"/>
      <use xlink:href="#DejaVuSans-6e" x="91.259766"/>
      <use xlink:href="#DejaVuSans-67" x="154.638672"/>
      <use xlink:href="#DejaVuSans-6c" x="218.115234"/>
      <use xlink:href="#DejaVuSans-65" x="245.898438"/>
      <use xlink:href="#DejaVuSans-20" x="307.421875"/>
      <use xlink:href="#DejaVuSans-70" x="339.208984"/>
      <use xlink:href="#DejaVuSans-72" x="402.685547"/>
      <use xlink:href="#DejaVuSans-65" x="441.548828"/>
      <use xlink:href="#DejaVuSans-64" x="503.072266"/>
      <use xlink:href="#DejaVuSans-69" x="566.548828"/>
      <use xlink:href="#DejaVuSans-63" x="594.332031"/>
      <use xlink:href="#DejaVuSans-74" x="649.3125"/>
      <use xlink:href="#DejaVuSans-69" x="688.521484"/>
      <use xlink:href="#DejaVuSans-6f" x="716.304688"/>
      <use xlink:href="#DejaVuSans-6e" x="777.486328"/>
      <use xlink:href="#DejaVuSans-73" x="840.865234"/>
     </g>
    </g>
   </g>
  </g>
 </g>
 <defs>
  <clipPath id="pab149cd190">
   <rect x="162" y="103.68" width="1004.4" height="665.28"/>
  </clipPath>
 </defs>
</svg>
